<?xml version="1.0" encoding="utf-8" ?>
<svg baseProfile="full" height="300" version="1.1" width="1056" xmlns="http://www.w3.org/2000/svg" xmlns:ev="http://www.w3.org/2001/xml-events" xmlns:xlink="http://www.w3.org/1999/xlink"><defs><marker id="arrow" markerHeight="3.5" markerWidth="5" orient="auto" refX="5.0" refY="1.7"><polygon points="0,0 5,1.75 0,3.5" /></marker></defs><g style="fill:white;"><g transform="matrix(1.0, 0.0, 0.0, 1.0, 528.409090909091, 150.0)"><g transform="matrix(1082.2510822510822, 0.0, 0.0, 1082.2510822510822, 0.0, 0.0)"><g><g transform="matrix(1.0, 0.0, 0.0, 1.0, -0.0, -0.08000000000000002)"><g><g><g style="fill: #ffffff;stroke: black;stroke-width: 1.2000000000000002;" transform="matrix(1.0, 0.0, 0.0, 1.0, -0.465, -0.052000000000000005)"><path d="M 0.0 0.0 L 0.93 0.0 L 0.93 0.264 L 0.0 0.264 L 0.0 0.0 Z" style="vector-effect: non-scaling-stroke;" /></g><g><g><g><g><g><g><g><g transform="matrix(1.0, 0.0, 0.0, 1.0, -0.41500000000000004, -0.03)"><g><g><g transform="matrix(1.0, 0.0, 0.0, 1.0, 0.075, 0.0)"><g transform="matrix(1.0, 0.0, 0.0, 1.0, 0.0, 0.03)"><g transform="matrix(0.01, 0.0, 0.0, 0.01, 0.0, 0.0)"><g><g><g transform="matrix(1.0, 0.0, 0.0, 1.0, 12.5, 0.0)"><g transform="matrix(1.0, 0.0, 0.0, 1.0, -20.0, -0.0)"><g><g style="fill: #d3d3d3;stroke: black;stroke-width: 1.2000000000000002;" transform="matrix(1.0, 0.0, 0.0, 1.0, 0.0, -3.0)"><path d="M 0.0 0.0 L 40.0 0.0 L 40.0 6.0 L 0.0 6.0 L 0.0 0.0 Z" style="vector-effect: non-scaling-stroke;" /></g><g transform="matrix(1.0, 0.0, 0.0, 1.0, 1.875, 0.0)"><g><g style="stroke: black;stroke-width: 1.2000000000000002;" transform="matrix(1.0, 0.0, 0.0, 1.0, 0.0, 0.0)"><g /></g><g style="fill: #ffa500;stroke: black;stroke-width: 1.2000000000000002;" transform="matrix(1.0, 0.0, 0.0, 1.0, 1.875, 0.0)"><text style="text-align:center; text-anchor:middle; dominant-baseline:middle;&#10;                      font-family:sans-serif; font-weight: bold;&#10;                      font-size:3px;&#10;                      vector-effect: non-scaling-stroke;" transform="translate(-5e-05, 0)">x</text></g></g></g></g></g></g><g><g><g><g><g style="stroke: black;stroke-width: 1.2000000000000002;" transform="matrix(1.0, 0.0, 0.0, 1.0, 0.0, 0.0)"><path d="M 0.0 -2.0 L 0.0 2.0" style="vector-effect: non-scaling-stroke;fill:none;" /></g><g style="stroke: #808080;stroke-width: 0.6000000000000001;" transform="matrix(1.0, 0.0, 0.0, 1.0, 0.0, 0.0)"><path d="M 0.0 0.0 L 25.0 0.0" style="vector-effect: non-scaling-stroke;fill:none;" /></g></g><g style="stroke: black;stroke-width: 2.4000000000000004;" transform="matrix(1.0, 0.0, 0.0, 1.0, 0.0, 0.0)"><path d="M 0.0 0.36892756819725037 L 1.0 0.36892756819725037 L 1.0 0.10681941360235214 L 2.0 0.10681941360235214 L 2.0 -0.40417441725730896 L 3.0 -0.40417441725730896 L 3.0 -0.45308804512023926 L 4.0 -0.45308804512023926 L 4.0 -0.6547780632972717 L 5.0 -0.6547780632972717 L 5.0 0.2719874083995819 L 6.0 0.2719874083995819 L 6.0 -0.2291276603937149 L 7.0 -0.2291276603937149 L 7.0 0.6312178373336792 L 8.0 0.6312178373336792 L 8.0 -0.04604702442884445 L 9.0 -0.04604702442884445 L 9.0 -0.6091361045837402 L 10.0 -0.6091361045837402 L 10.0 -0.9941620826721191 L 11.0 -0.9941620826721191 L 11.0 -1.3657546043395996 L 12.0 -1.3657546043395996 L 12.0 -0.5576217770576477 L 13.0 -0.5576217770576477 L 13.0 -1.5033526420593262 L 14.0 -1.5033526420593262 L 14.0 -0.9151825904846191 L 15.0 -0.9151825904846191 L 15.0 -1.642714500427246 L 16.0 -1.642714500427246 L 16.0 -1.4663134813308716 L 17.0 -1.4663134813308716 L 17.0 -1.3641618490219116 L 18.0 -1.3641618490219116 L 18.0 -0.9552580714225769 L 19.0 -0.9552580714225769 L 19.0 -0.5979908108711243 L 20.0 -0.5979908108711243 L 20.0 -1.0358208417892456 L 21.0 -1.0358208417892456 L 21.0 -0.6786758303642273 L 22.0 -0.6786758303642273 L 22.0 -1.435609221458435 L 23.0 -1.435609221458435 L 23.0 -0.7616475820541382 L 24.0 -0.7616475820541382 L 24.0 -0.7052664160728455 L 25.0 -0.7052664160728455" style="vector-effect: non-scaling-stroke;fill:none;" /></g></g><g style="stroke: black;stroke-width: 1.2000000000000002;" transform="matrix(1.0, 0.0, 0.0, 1.0, 0.0, 0.0)"><path d="M 0.0 -2.0 L 0.0 2.0" style="vector-effect: non-scaling-stroke;fill:none;" /></g></g></g></g><g><g><g><g><g style="stroke: black;stroke-width: 1.2000000000000002;" transform="matrix(1.0, 0.0, 0.0, 1.0, 0.0, 0.0)"><path d="M 0.0 -2.0 L 0.0 2.0" style="vector-effect: non-scaling-stroke;fill:none;" /></g><g style="stroke: #808080;stroke-width: 0.6000000000000001;" transform="matrix(1.0, 0.0, 0.0, 1.0, 0.0, 0.0)"><path d="M 0.0 0.0 L 25.0 0.0" style="vector-effect: non-scaling-stroke;fill:none;" /></g></g><g style="stroke: black;stroke-width: 2.4000000000000004;" transform="matrix(1.0, 0.0, 0.0, 1.0, 0.0, 0.0)"><path d="M 0.0 0.36892756819725037 L 1.0 0.36892756819725037 L 1.0 0.10681941360235214 L 2.0 0.10681941360235214 L 2.0 -0.40417441725730896 L 3.0 -0.40417441725730896 L 3.0 -0.45308804512023926 L 4.0 -0.45308804512023926 L 4.0 -0.6547780632972717 L 5.0 -0.6547780632972717 L 5.0 0.2719874083995819 L 6.0 0.2719874083995819 L 6.0 -0.2291276603937149 L 7.0 -0.2291276603937149 L 7.0 0.6312178373336792 L 8.0 0.6312178373336792 L 8.0 -0.04604702442884445 L 9.0 -0.04604702442884445 L 9.0 -0.6091361045837402 L 10.0 -0.6091361045837402 L 10.0 -0.9941620826721191 L 11.0 -0.9941620826721191 L 11.0 -1.3657546043395996 L 12.0 -1.3657546043395996 L 12.0 -0.5576217770576477 L 13.0 -0.5576217770576477 L 13.0 -1.5033526420593262 L 14.0 -1.5033526420593262 L 14.0 -0.9151825904846191 L 15.0 -0.9151825904846191 L 15.0 -1.642714500427246 L 16.0 -1.642714500427246 L 16.0 -1.4663134813308716 L 17.0 -1.4663134813308716 L 17.0 -1.3641618490219116 L 18.0 -1.3641618490219116 L 18.0 -0.9552580714225769 L 19.0 -0.9552580714225769 L 19.0 -0.5979908108711243 L 20.0 -0.5979908108711243 L 20.0 -1.0358208417892456 L 21.0 -1.0358208417892456 L 21.0 -0.6786758303642273 L 22.0 -0.6786758303642273 L 22.0 -1.435609221458435 L 23.0 -1.435609221458435 L 23.0 -0.7616475820541382 L 24.0 -0.7616475820541382 L 24.0 -0.7052664160728455 L 25.0 -0.7052664160728455" style="vector-effect: non-scaling-stroke;fill:none;" /></g></g><g style="stroke: black;stroke-width: 1.2000000000000002;" transform="matrix(1.0, 0.0, 0.0, 1.0, 0.0, 0.0)"><path d="M 0.0 -2.0 L 0.0 2.0" style="vector-effect: non-scaling-stroke;fill:none;" /></g></g></g></g></g></g></g><g style="stroke: black;stroke-width: 1.2000000000000002;" transform="matrix(1.0, 0.0, 0.0, 1.0, 0.41500000000000004, 0.0)"><g /></g></g><g transform="matrix(1.0, 0.0, 0.0, 1.0, 0.43000000000000005, 0.0)"><g transform="matrix(1.0, 0.0, 0.0, 1.0, 0.075, 0.0)"><g transform="matrix(1.0, 0.0, 0.0, 1.0, 0.0, 0.03)"><g transform="matrix(0.01, 0.0, 0.0, 0.01, 0.0, 0.0)"><g><g><g transform="matrix(1.0, 0.0, 0.0, 1.0, 12.5, 0.0)"><g transform="matrix(1.0, 0.0, 0.0, 1.0, -20.0, -0.0)"><g><g style="fill: #d3d3d3;stroke: black;stroke-width: 1.2000000000000002;" transform="matrix(1.0, 0.0, 0.0, 1.0, 0.0, -3.0)"><path d="M 0.0 0.0 L 40.0 0.0 L 40.0 6.0 L 0.0 6.0 L 0.0 0.0 Z" style="vector-effect: non-scaling-stroke;" /></g><g transform="matrix(1.0, 0.0, 0.0, 1.0, 1.875, 0.0)"><g><g style="stroke: black;stroke-width: 1.2000000000000002;" transform="matrix(1.0, 0.0, 0.0, 1.0, 0.0, 0.0)"><g /></g><g style="fill: #ffa500;stroke: black;stroke-width: 1.2000000000000002;" transform="matrix(1.0, 0.0, 0.0, 1.0, 1.875, 0.0)"><text style="text-align:center; text-anchor:middle; dominant-baseline:middle;&#10;                      font-family:sans-serif; font-weight: bold;&#10;                      font-size:3px;&#10;                      vector-effect: non-scaling-stroke;" transform="translate(-5e-05, 0)">y</text></g></g></g></g></g></g><g><g><g><g style="stroke: black;stroke-width: 1.2000000000000002;" transform="matrix(1.0, 0.0, 0.0, 1.0, 0.0, 0.0)"><path d="M 0.0 -2.0 L 0.0 2.0" style="vector-effect: non-scaling-stroke;fill:none;" /></g><g style="stroke: #808080;stroke-width: 0.6000000000000001;" transform="matrix(1.0, 0.0, 0.0, 1.0, 0.0, 0.0)"><path d="M 0.0 0.0 L 25.0 0.0" style="vector-effect: non-scaling-stroke;fill:none;" /></g></g><g style="stroke: black;stroke-width: 2.4000000000000004;" transform="matrix(1.0, 0.0, 0.0, 1.0, 0.0, 0.0)"><path d="M 0.0 -0.17914047837257385 L 1.0 -0.17914047837257385 L 1.0 -1.8140982389450073 L 2.0 -1.8140982389450073 L 2.0 -1.4809788465499878 L 3.0 -1.4809788465499878 L 3.0 -0.1399087905883789 L 4.0 -0.1399087905883789 L 4.0 -1.1240906715393066 L 5.0 -1.1240906715393066 L 5.0 -1.5293102264404297 L 6.0 -1.5293102264404297 L 6.0 -1.983750820159912 L 7.0 -1.983750820159912 L 7.0 -1.2204375267028809 L 8.0 -1.2204375267028809 L 8.0 -0.11166233569383621 L 9.0 -0.11166233569383621 L 9.0 -1.1134977340698242 L 10.0 -1.1134977340698242 L 10.0 -0.46122583746910095 L 11.0 -0.46122583746910095 L 11.0 -0.36684322357177734 L 12.0 -0.36684322357177734 L 12.0 -1.0981719493865967 L 13.0 -1.0981719493865967 L 13.0 -0.8180548548698425 L 14.0 -0.8180548548698425 L 14.0 -1.9024450778961182 L 15.0 -1.9024450778961182 L 15.0 -1.2284631729125977 L 16.0 -1.2284631729125977 L 16.0 -1.3120884895324707 L 17.0 -1.3120884895324707 L 17.0 -0.8512806296348572 L 18.0 -0.8512806296348572 L 18.0 -0.69685298204422 L 19.0 -0.69685298204422 L 19.0 -0.4450138509273529 L 20.0 -0.4450138509273529 L 20.0 -0.6431826949119568 L 21.0 -0.6431826949119568 L 21.0 -1.1062308549880981 L 22.0 -1.1062308549880981 L 22.0 -1.6847048997879028 L 23.0 -1.6847048997879028 L 23.0 0.05547328665852547 L 24.0 0.05547328665852547 L 24.0 -0.5061242580413818 L 25.0 -0.5061242580413818" style="vector-effect: non-scaling-stroke;fill:none;" /></g></g></g></g><g><g><g><g style="stroke: black;stroke-width: 1.2000000000000002;" transform="matrix(1.0, 0.0, 0.0, 1.0, 0.0, 0.0)"><path d="M 0.0 -2.0 L 0.0 2.0" style="vector-effect: non-scaling-stroke;fill:none;" /></g><g style="stroke: #808080;stroke-width: 0.6000000000000001;" transform="matrix(1.0, 0.0, 0.0, 1.0, 0.0, 0.0)"><path d="M 0.0 0.0 L 25.0 0.0" style="vector-effect: non-scaling-stroke;fill:none;" /></g></g><g style="stroke: black;stroke-width: 2.4000000000000004;" transform="matrix(1.0, 0.0, 0.0, 1.0, 0.0, 0.0)"><path d="M 0.0 -0.17914047837257385 L 1.0 -0.17914047837257385 L 1.0 -1.8140982389450073 L 2.0 -1.8140982389450073 L 2.0 -1.4809788465499878 L 3.0 -1.4809788465499878 L 3.0 -0.1399087905883789 L 4.0 -0.1399087905883789 L 4.0 -1.1240906715393066 L 5.0 -1.1240906715393066 L 5.0 -1.5293102264404297 L 6.0 -1.5293102264404297 L 6.0 -1.983750820159912 L 7.0 -1.983750820159912 L 7.0 -1.2204375267028809 L 8.0 -1.2204375267028809 L 8.0 -0.11166233569383621 L 9.0 -0.11166233569383621 L 9.0 -1.1134977340698242 L 10.0 -1.1134977340698242 L 10.0 -0.46122583746910095 L 11.0 -0.46122583746910095 L 11.0 -0.36684322357177734 L 12.0 -0.36684322357177734 L 12.0 -1.0981719493865967 L 13.0 -1.0981719493865967 L 13.0 -0.8180548548698425 L 14.0 -0.8180548548698425 L 14.0 -1.9024450778961182 L 15.0 -1.9024450778961182 L 15.0 -1.2284631729125977 L 16.0 -1.2284631729125977 L 16.0 -1.3120884895324707 L 17.0 -1.3120884895324707 L 17.0 -0.8512806296348572 L 18.0 -0.8512806296348572 L 18.0 -0.69685298204422 L 19.0 -0.69685298204422 L 19.0 -0.4450138509273529 L 20.0 -0.4450138509273529 L 20.0 -0.6431826949119568 L 21.0 -0.6431826949119568 L 21.0 -1.1062308549880981 L 22.0 -1.1062308549880981 L 22.0 -1.6847048997879028 L 23.0 -1.6847048997879028 L 23.0 0.05547328665852547 L 24.0 0.05547328665852547 L 24.0 -0.5061242580413818 L 25.0 -0.5061242580413818" style="vector-effect: non-scaling-stroke;fill:none;" /></g></g></g></g></g></g></g></g></g></g><g style="stroke: black;stroke-width: 1.2000000000000002;" transform="matrix(0.0, -1.0, 1.0, 0.0, 0.0, 0.08)"><g /></g></g><g transform="matrix(1.0, 0.0, 0.0, 1.0, 0.0, 0.16)"><g transform="matrix(1.0, 0.0, 0.0, 1.0, -0.2, -0.03)"><g transform="matrix(1.0, 0.0, 0.0, 1.0, 0.075, 0.0)"><g transform="matrix(1.0, 0.0, 0.0, 1.0, 0.0, 0.03)"><g transform="matrix(0.01, 0.0, 0.0, 0.01, 0.0, 0.0)"><g><g><g transform="matrix(1.0, 0.0, 0.0, 1.0, 12.5, 0.0)"><g transform="matrix(1.0, 0.0, 0.0, 1.0, -20.0, -0.0)"><g><g style="fill: #d3d3d3;stroke: black;stroke-width: 1.2000000000000002;" transform="matrix(1.0, 0.0, 0.0, 1.0, 0.0, -3.0)"><path d="M 0.0 0.0 L 40.0 0.0 L 40.0 6.0 L 0.0 6.0 L 0.0 0.0 Z" style="vector-effect: non-scaling-stroke;" /></g><g transform="matrix(1.0, 0.0, 0.0, 1.0, 1.875, 0.0)"><g><g style="stroke: black;stroke-width: 1.2000000000000002;" transform="matrix(1.0, 0.0, 0.0, 1.0, 0.0, 0.0)"><g /></g><g style="fill: #ffa500;stroke: black;stroke-width: 1.2000000000000002;" transform="matrix(1.0, 0.0, 0.0, 1.0, 1.875, 0.0)"><text style="text-align:center; text-anchor:middle; dominant-baseline:middle;&#10;                      font-family:sans-serif; font-weight: bold;&#10;                      font-size:3px;&#10;                      vector-effect: non-scaling-stroke;" transform="translate(-5e-05, 0)">f(x)</text></g></g></g></g></g></g><g><g><g><g style="stroke: black;stroke-width: 1.2000000000000002;" transform="matrix(1.0, 0.0, 0.0, 1.0, 0.0, 0.0)"><path d="M 0.0 -2.0 L 0.0 2.0" style="vector-effect: non-scaling-stroke;fill:none;" /></g><g style="stroke: #808080;stroke-width: 0.6000000000000001;" transform="matrix(1.0, 0.0, 0.0, 1.0, 0.0, 0.0)"><path d="M 0.0 0.0 L 25.0 0.0" style="vector-effect: non-scaling-stroke;fill:none;" /></g></g><g style="stroke: black;stroke-width: 2.4000000000000004;" transform="matrix(1.0, 0.0, 0.0, 1.0, 0.0, 0.0)"><path d="M 0.0 0.033044930547475815 L 1.0 0.033044930547475815 L 1.0 0.09689045697450638 L 2.0 0.09689045697450638 L 2.0 -0.2992868721485138 L 3.0 -0.2992868721485138 L 3.0 -0.03169550001621246 L 4.0 -0.03169550001621246 L 4.0 -0.36801496148109436 L 5.0 -0.36801496148109436 L 5.0 0.2079765647649765 L 6.0 0.2079765647649765 L 6.0 -0.2272660881280899 L 7.0 -0.2272660881280899 L 7.0 0.3851809799671173 L 8.0 0.3851809799671173 L 8.0 -0.002570859156548977 L 9.0 -0.002570859156548977 L 9.0 -0.3391358256340027 L 10.0 -0.3391358256340027 L 10.0 -0.22926661372184753 L 11.0 -0.22926661372184753 L 11.0 -0.2505089044570923 L 12.0 -0.2505089044570923 L 12.0 -0.30618229508399963 L 13.0 -0.30618229508399963 L 13.0 -0.6149124503135681 L 14.0 -0.6149124503135681 L 14.0 -0.8705422878265381 L 15.0 -0.8705422878265381 L 15.0 -1.0090070962905884 L 16.0 -1.0090070962905884 L 16.0 -0.9619665145874023 L 17.0 -0.9619665145874023 L 17.0 -0.5806422829627991 L 18.0 -0.5806422829627991 L 18.0 -0.33283722400665283 L 19.0 -0.33283722400665283 L 19.0 -0.133057102560997 L 20.0 -0.133057102560997 L 20.0 -0.3331110179424286 L 21.0 -0.3331110179424286 L 21.0 -0.3753860592842102 L 22.0 -0.3753860592842102 L 22.0 -1.2092889547348022 L 23.0 -1.2092889547348022 L 23.0 0.02112554758787155 L 24.0 0.02112554758787155 L 24.0 -0.1784762144088745 L 25.0 -0.1784762144088745" style="vector-effect: non-scaling-stroke;fill:none;" /></g></g></g></g><g><g><g><g style="stroke: black;stroke-width: 1.2000000000000002;" transform="matrix(1.0, 0.0, 0.0, 1.0, 0.0, 0.0)"><path d="M 0.0 -2.0 L 0.0 2.0" style="vector-effect: non-scaling-stroke;fill:none;" /></g><g style="stroke: #808080;stroke-width: 0.6000000000000001;" transform="matrix(1.0, 0.0, 0.0, 1.0, 0.0, 0.0)"><path d="M 0.0 0.0 L 25.0 0.0" style="vector-effect: non-scaling-stroke;fill:none;" /></g></g><g style="stroke: black;stroke-width: 2.4000000000000004;" transform="matrix(1.0, 0.0, 0.0, 1.0, 0.0, 0.0)"><path d="M 0.0 0.033044930547475815 L 1.0 0.033044930547475815 L 1.0 0.09689045697450638 L 2.0 0.09689045697450638 L 2.0 -0.2992868721485138 L 3.0 -0.2992868721485138 L 3.0 -0.03169550001621246 L 4.0 -0.03169550001621246 L 4.0 -0.36801496148109436 L 5.0 -0.36801496148109436 L 5.0 0.2079765647649765 L 6.0 0.2079765647649765 L 6.0 -0.2272660881280899 L 7.0 -0.2272660881280899 L 7.0 0.3851809799671173 L 8.0 0.3851809799671173 L 8.0 -0.002570859156548977 L 9.0 -0.002570859156548977 L 9.0 -0.3391358256340027 L 10.0 -0.3391358256340027 L 10.0 -0.22926661372184753 L 11.0 -0.22926661372184753 L 11.0 -0.2505089044570923 L 12.0 -0.2505089044570923 L 12.0 -0.30618229508399963 L 13.0 -0.30618229508399963 L 13.0 -0.6149124503135681 L 14.0 -0.6149124503135681 L 14.0 -0.8705422878265381 L 15.0 -0.8705422878265381 L 15.0 -1.0090070962905884 L 16.0 -1.0090070962905884 L 16.0 -0.9619665145874023 L 17.0 -0.9619665145874023 L 17.0 -0.5806422829627991 L 18.0 -0.5806422829627991 L 18.0 -0.33283722400665283 L 19.0 -0.33283722400665283 L 19.0 -0.133057102560997 L 20.0 -0.133057102560997 L 20.0 -0.3331110179424286 L 21.0 -0.3331110179424286 L 21.0 -0.3753860592842102 L 22.0 -0.3753860592842102 L 22.0 -1.2092889547348022 L 23.0 -1.2092889547348022 L 23.0 0.02112554758787155 L 24.0 0.02112554758787155 L 24.0 -0.1784762144088745 L 25.0 -0.1784762144088745" style="vector-effect: non-scaling-stroke;fill:none;" /></g></g></g></g></g></g></g></g></g></g><g transform="matrix(1.0, 0.0, 0.0, 1.0, -0.125, 0.16)"><g transform="matrix(1.0, 0.0, 0.0, 0.009999999999999995, 0.0, 0.0)"><g transform="matrix(0.01, 0.0, 0.0, 1.0, 0.0, 0.0)"><g><g><g style="fill: #ffffe0;stroke: #ffffe0;stroke-width: 1.2000000000000002;fill-opacity: 0.5;" transform="matrix(1.0, 0.0, 0.0, 1.0, 0.0, 0.0)"><path d="M 0.0 -2.0 L 0.0 2.0" style="vector-effect: non-scaling-stroke;fill:none;" /></g><g style="fill: #ffffe0;stroke: #ffffe0;stroke-width: 1.2000000000000002;fill-opacity: 0.5;" transform="matrix(1.0, 0.0, 0.0, 1.0, 0.0, 0.0)"><path d="M 0.0 -0.14614152908325195 L 1.0 -0.14614152908325195 L 1.0 -1.7173259258270264 L 2.0 -1.7173259258270264 L 2.0 -1.7804622650146484 L 3.0 -1.7804622650146484 L 3.0 -0.17176641523838043 L 4.0 -0.17176641523838043 L 4.0 -1.4945427179336548 L 5.0 -1.4945427179336548 L 5.0 -1.3208825588226318 L 6.0 -1.3208825588226318 L 6.0 -2.0 L 7.0 -2.0 L 7.0 -0.8367142677307129 L 8.0 -0.8367142677307129 L 8.0 -0.11423643678426743 L 9.0 -0.11423643678426743 L 9.0 -1.4537427425384521 L 10.0 -1.4537427425384521 L 10.0 -0.6912026405334473 L 11.0 -0.6912026405334473 L 11.0 -0.6170774698257446 L 12.0 -0.6170774698257446 L 12.0 -1.4058879613876343 L 13.0 -1.4058879613876343 L 13.0 -1.4374566078186035 L 14.0 -1.4374566078186035 L 14.0 -2.0 L 15.0 -2.0 L 15.0 -2.0 L 16.0 -2.0 L 16.0 -2.0 L 17.0 -2.0 L 17.0 -1.4329886436462402 L 18.0 -1.4329886436462402 L 18.0 -1.0302115678787231 L 19.0 -1.0302115678787231 L 19.0 -0.5786018371582031 L 20.0 -0.5786018371582031 L 20.0 -0.9768412113189697 L 21.0 -0.9768412113189697 L 21.0 -1.484032392501831 L 22.0 -1.484032392501831 L 22.0 -2.0 L 23.0 -2.0 L 23.0 0.07663237303495407 L 24.0 0.07663237303495407 L 24.0 -0.6866058111190796 L 25.0 -0.6866058111190796 L 25.0 -0.1784762144088745 L 24.0 -0.1784762144088745 L 24.0 0.02112554758787155 L 23.0 0.02112554758787155 L 23.0 -1.2092889547348022 L 22.0 -1.2092889547348022 L 22.0 -0.3753860592842102 L 21.0 -0.3753860592842102 L 21.0 -0.3331110179424286 L 20.0 -0.3331110179424286 L 20.0 -0.133057102560997 L 19.0 -0.133057102560997 L 19.0 -0.33283722400665283 L 18.0 -0.33283722400665283 L 18.0 -0.5806422829627991 L 17.0 -0.5806422829627991 L 17.0 -0.9619665145874023 L 16.0 -0.9619665145874023 L 16.0 -1.0090070962905884 L 15.0 -1.0090070962905884 L 15.0 -0.8705422878265381 L 14.0 -0.8705422878265381 L 14.0 -0.6149124503135681 L 13.0 -0.6149124503135681 L 13.0 -0.30618229508399963 L 12.0 -0.30618229508399963 L 12.0 -0.2505089044570923 L 11.0 -0.2505089044570923 L 11.0 -0.22926661372184753 L 10.0 -0.22926661372184753 L 10.0 -0.3391358256340027 L 9.0 -0.3391358256340027 L 9.0 -0.002570859156548977 L 8.0 -0.002570859156548977 L 8.0 0.3851809799671173 L 7.0 0.3851809799671173 L 7.0 -0.2272660881280899 L 6.0 -0.2272660881280899 L 6.0 0.2079765647649765 L 5.0 0.2079765647649765 L 5.0 -0.36801496148109436 L 4.0 -0.36801496148109436 L 4.0 -0.03169550001621246 L 3.0 -0.03169550001621246 L 3.0 -0.2992868721485138 L 2.0 -0.2992868721485138 L 2.0 0.09689045697450638 L 1.0 0.09689045697450638 L 1.0 0.033044930547475815 L 0.0 0.033044930547475815 Z" style="vector-effect: non-scaling-stroke;" /></g></g><g style="stroke: black;stroke-width: 1.2000000000000002;" transform="matrix(1.0, 0.0, 0.0, 1.0, 0.0, 0.0)"><path d="M 0.0 0.033044930547475815 L 1.0 0.033044930547475815 L 1.0 0.09689045697450638 L 2.0 0.09689045697450638 L 2.0 -0.2992868721485138 L 3.0 -0.2992868721485138 L 3.0 -0.03169550001621246 L 4.0 -0.03169550001621246 L 4.0 -0.36801496148109436 L 5.0 -0.36801496148109436 L 5.0 0.2079765647649765 L 6.0 0.2079765647649765 L 6.0 -0.2272660881280899 L 7.0 -0.2272660881280899 L 7.0 0.3851809799671173 L 8.0 0.3851809799671173 L 8.0 -0.002570859156548977 L 9.0 -0.002570859156548977 L 9.0 -0.3391358256340027 L 10.0 -0.3391358256340027 L 10.0 -0.22926661372184753 L 11.0 -0.22926661372184753 L 11.0 -0.2505089044570923 L 12.0 -0.2505089044570923 L 12.0 -0.30618229508399963 L 13.0 -0.30618229508399963 L 13.0 -0.6149124503135681 L 14.0 -0.6149124503135681 L 14.0 -0.8705422878265381 L 15.0 -0.8705422878265381 L 15.0 -1.0090070962905884 L 16.0 -1.0090070962905884 L 16.0 -0.9619665145874023 L 17.0 -0.9619665145874023 L 17.0 -0.5806422829627991 L 18.0 -0.5806422829627991 L 18.0 -0.33283722400665283 L 19.0 -0.33283722400665283 L 19.0 -0.133057102560997 L 20.0 -0.133057102560997 L 20.0 -0.3331110179424286 L 21.0 -0.3331110179424286 L 21.0 -0.3753860592842102 L 22.0 -0.3753860592842102 L 22.0 -1.2092889547348022 L 23.0 -1.2092889547348022 L 23.0 0.02112554758787155 L 24.0 0.02112554758787155 L 24.0 -0.1784762144088745 L 25.0 -0.1784762144088745" style="vector-effect: non-scaling-stroke;fill:none;" /></g></g></g></g></g></g><g transform="matrix(1.0, 0.0, 0.0, 1.0, -0.125, 0.16)"><g transform="matrix(1.0, 0.0, 0.0, 0.009999999999999995, 0.0, 0.0)"><g transform="matrix(0.01, 0.0, 0.0, 1.0, 0.0, 0.0)"><g><g><g style="fill: #add8e6;stroke: #add8e6;stroke-width: 1.2000000000000002;fill-opacity: 0.5;" transform="matrix(1.0, 0.0, 0.0, 1.0, 0.0, 0.0)"><path d="M 0.0 -2.0 L 0.0 2.0" style="vector-effect: non-scaling-stroke;fill:none;" /></g><g style="fill: #add8e6;stroke: #add8e6;stroke-width: 1.2000000000000002;fill-opacity: 0.5;" transform="matrix(1.0, 0.0, 0.0, 1.0, 0.0, 0.0)"><path d="M 0.0 0.4018486738204956 L 1.0 0.4018486738204956 L 1.0 0.20343375205993652 L 2.0 0.20343375205993652 L 2.0 -0.7045984268188477 L 3.0 -0.7045984268188477 L 3.0 -0.48469078540802 L 4.0 -0.48469078540802 L 4.0 -1.0236660242080688 L 5.0 -1.0236660242080688 L 5.0 0.4806678295135498 L 6.0 0.4806678295135498 L 6.0 -0.4567439556121826 L 7.0 -0.4567439556121826 L 7.0 1.0169901847839355 L 8.0 1.0169901847839355 L 8.0 -0.04860147833824158 L 9.0 -0.04860147833824158 L 9.0 -0.9500834345817566 L 10.0 -0.9500834345817566 L 10.0 -1.2231740951538086 L 11.0 -1.2231740951538086 L 11.0 -1.6154552698135376 L 12.0 -1.6154552698135376 L 12.0 -0.8634856939315796 L 13.0 -0.8634856939315796 L 13.0 -2.0 L 14.0 -2.0 L 14.0 -1.7884538173675537 L 15.0 -1.7884538173675537 L 15.0 -2.0 L 16.0 -2.0 L 16.0 -2.0 L 17.0 -2.0 L 17.0 -1.9455885887145996 L 18.0 -1.9455885887145996 L 18.0 -1.2894917726516724 L 19.0 -1.2894917726516724 L 19.0 -0.7305936813354492 L 20.0 -0.7305936813354492 L 20.0 -1.3702318668365479 L 21.0 -1.3702318668365479 L 21.0 -1.0548789501190186 L 22.0 -1.0548789501190186 L 22.0 -2.0 L 23.0 -2.0 L 23.0 -0.7405100464820862 L 24.0 -0.7405100464820862 L 24.0 -0.8847912549972534 L 25.0 -0.8847912549972534 L 25.0 -0.1784762144088745 L 24.0 -0.1784762144088745 L 24.0 0.02112554758787155 L 23.0 0.02112554758787155 L 23.0 -1.2092889547348022 L 22.0 -1.2092889547348022 L 22.0 -0.3753860592842102 L 21.0 -0.3753860592842102 L 21.0 -0.3331110179424286 L 20.0 -0.3331110179424286 L 20.0 -0.133057102560997 L 19.0 -0.133057102560997 L 19.0 -0.33283722400665283 L 18.0 -0.33283722400665283 L 18.0 -0.5806422829627991 L 17.0 -0.5806422829627991 L 17.0 -0.9619665145874023 L 16.0 -0.9619665145874023 L 16.0 -1.0090070962905884 L 15.0 -1.0090070962905884 L 15.0 -0.8705422878265381 L 14.0 -0.8705422878265381 L 14.0 -0.6149124503135681 L 13.0 -0.6149124503135681 L 13.0 -0.30618229508399963 L 12.0 -0.30618229508399963 L 12.0 -0.2505089044570923 L 11.0 -0.2505089044570923 L 11.0 -0.22926661372184753 L 10.0 -0.22926661372184753 L 10.0 -0.3391358256340027 L 9.0 -0.3391358256340027 L 9.0 -0.002570859156548977 L 8.0 -0.002570859156548977 L 8.0 0.3851809799671173 L 7.0 0.3851809799671173 L 7.0 -0.2272660881280899 L 6.0 -0.2272660881280899 L 6.0 0.2079765647649765 L 5.0 0.2079765647649765 L 5.0 -0.36801496148109436 L 4.0 -0.36801496148109436 L 4.0 -0.03169550001621246 L 3.0 -0.03169550001621246 L 3.0 -0.2992868721485138 L 2.0 -0.2992868721485138 L 2.0 0.09689045697450638 L 1.0 0.09689045697450638 L 1.0 0.033044930547475815 L 0.0 0.033044930547475815 Z" style="vector-effect: non-scaling-stroke;" /></g></g><g style="stroke: black;stroke-width: 1.2000000000000002;" transform="matrix(1.0, 0.0, 0.0, 1.0, 0.0, 0.0)"><path d="M 0.0 0.033044930547475815 L 1.0 0.033044930547475815 L 1.0 0.09689045697450638 L 2.0 0.09689045697450638 L 2.0 -0.2992868721485138 L 3.0 -0.2992868721485138 L 3.0 -0.03169550001621246 L 4.0 -0.03169550001621246 L 4.0 -0.36801496148109436 L 5.0 -0.36801496148109436 L 5.0 0.2079765647649765 L 6.0 0.2079765647649765 L 6.0 -0.2272660881280899 L 7.0 -0.2272660881280899 L 7.0 0.3851809799671173 L 8.0 0.3851809799671173 L 8.0 -0.002570859156548977 L 9.0 -0.002570859156548977 L 9.0 -0.3391358256340027 L 10.0 -0.3391358256340027 L 10.0 -0.22926661372184753 L 11.0 -0.22926661372184753 L 11.0 -0.2505089044570923 L 12.0 -0.2505089044570923 L 12.0 -0.30618229508399963 L 13.0 -0.30618229508399963 L 13.0 -0.6149124503135681 L 14.0 -0.6149124503135681 L 14.0 -0.8705422878265381 L 15.0 -0.8705422878265381 L 15.0 -1.0090070962905884 L 16.0 -1.0090070962905884 L 16.0 -0.9619665145874023 L 17.0 -0.9619665145874023 L 17.0 -0.5806422829627991 L 18.0 -0.5806422829627991 L 18.0 -0.33283722400665283 L 19.0 -0.33283722400665283 L 19.0 -0.133057102560997 L 20.0 -0.133057102560997 L 20.0 -0.3331110179424286 L 21.0 -0.3331110179424286 L 21.0 -0.3753860592842102 L 22.0 -0.3753860592842102 L 22.0 -1.2092889547348022 L 23.0 -1.2092889547348022 L 23.0 0.02112554758787155 L 24.0 0.02112554758787155 L 24.0 -0.1784762144088745 L 25.0 -0.1784762144088745" style="vector-effect: non-scaling-stroke;fill:none;" /></g></g></g></g></g></g><g transform="matrix(1.0, 0.0, 0.0, 1.0, -0.125, 0.16)"><g transform="matrix(1.0, 0.0, 0.0, 0.009999999999999995, 0.0, 0.0)"><g transform="matrix(0.01, 0.0, 0.0, 1.0, 0.0, 0.0)"><g><g><g style="fill: #ff8c00;stroke: #ff8c00;stroke-width: 1.2000000000000002;fill-opacity: 0.5;" transform="matrix(1.0, 0.0, 0.0, 1.0, 0.0, 0.0)"><path d="M 0.0 -2.0 L 0.0 2.0" style="vector-effect: non-scaling-stroke;fill:none;" /></g><g style="fill: #ff8c00;stroke: #ff8c00;stroke-width: 1.2000000000000002;fill-opacity: 0.5;" transform="matrix(1.0, 0.0, 0.0, 1.0, 0.0, 0.0)"><path d="M 0.0 0.033044930547475815 L 1.0 0.033044930547475815 L 1.0 0.09689045697450638 L 2.0 0.09689045697450638 L 2.0 -0.2992868721485138 L 3.0 -0.2992868721485138 L 3.0 -0.03169550001621246 L 4.0 -0.03169550001621246 L 4.0 -0.36801496148109436 L 5.0 -0.36801496148109436 L 5.0 0.2079765647649765 L 6.0 0.2079765647649765 L 6.0 -0.2272660881280899 L 7.0 -0.2272660881280899 L 7.0 0.3851809799671173 L 8.0 0.3851809799671173 L 8.0 -0.002570859156548977 L 9.0 -0.002570859156548977 L 9.0 -0.3391358256340027 L 10.0 -0.3391358256340027 L 10.0 -0.22926661372184753 L 11.0 -0.22926661372184753 L 11.0 -0.2505089044570923 L 12.0 -0.2505089044570923 L 12.0 -0.30618229508399963 L 13.0 -0.30618229508399963 L 13.0 -0.6149124503135681 L 14.0 -0.6149124503135681 L 14.0 -0.8705422878265381 L 15.0 -0.8705422878265381 L 15.0 -1.0090070962905884 L 16.0 -1.0090070962905884 L 16.0 -0.9619665145874023 L 17.0 -0.9619665145874023 L 17.0 -0.5806422829627991 L 18.0 -0.5806422829627991 L 18.0 -0.33283722400665283 L 19.0 -0.33283722400665283 L 19.0 -0.133057102560997 L 20.0 -0.133057102560997 L 20.0 -0.3331110179424286 L 21.0 -0.3331110179424286 L 21.0 -0.3753860592842102 L 22.0 -0.3753860592842102 L 22.0 -1.2092889547348022 L 23.0 -1.2092889547348022 L 23.0 0.02112554758787155 L 24.0 0.02112554758787155 L 24.0 -0.1784762144088745 L 25.0 -0.1784762144088745 L 25.0 -0.1784762144088745 L 24.0 -0.1784762144088745 L 24.0 0.02112554758787155 L 23.0 0.02112554758787155 L 23.0 -1.2092889547348022 L 22.0 -1.2092889547348022 L 22.0 -0.3753860592842102 L 21.0 -0.3753860592842102 L 21.0 -0.3331110179424286 L 20.0 -0.3331110179424286 L 20.0 -0.133057102560997 L 19.0 -0.133057102560997 L 19.0 -0.33283722400665283 L 18.0 -0.33283722400665283 L 18.0 -0.5806422829627991 L 17.0 -0.5806422829627991 L 17.0 -0.9619665145874023 L 16.0 -0.9619665145874023 L 16.0 -1.0090070962905884 L 15.0 -1.0090070962905884 L 15.0 -0.8705422878265381 L 14.0 -0.8705422878265381 L 14.0 -0.6149124503135681 L 13.0 -0.6149124503135681 L 13.0 -0.30618229508399963 L 12.0 -0.30618229508399963 L 12.0 -0.2505089044570923 L 11.0 -0.2505089044570923 L 11.0 -0.22926661372184753 L 10.0 -0.22926661372184753 L 10.0 -0.3391358256340027 L 9.0 -0.3391358256340027 L 9.0 -0.002570859156548977 L 8.0 -0.002570859156548977 L 8.0 0.3851809799671173 L 7.0 0.3851809799671173 L 7.0 -0.2272660881280899 L 6.0 -0.2272660881280899 L 6.0 0.2079765647649765 L 5.0 0.2079765647649765 L 5.0 -0.36801496148109436 L 4.0 -0.36801496148109436 L 4.0 -0.03169550001621246 L 3.0 -0.03169550001621246 L 3.0 -0.2992868721485138 L 2.0 -0.2992868721485138 L 2.0 0.09689045697450638 L 1.0 0.09689045697450638 L 1.0 0.033044930547475815 L 0.0 0.033044930547475815 Z" style="vector-effect: non-scaling-stroke;" /></g></g><g style="stroke: black;stroke-width: 1.2000000000000002;" transform="matrix(1.0, 0.0, 0.0, 1.0, 0.0, 0.0)"><path d="M 0.0 0.033044930547475815 L 1.0 0.033044930547475815 L 1.0 0.09689045697450638 L 2.0 0.09689045697450638 L 2.0 -0.2992868721485138 L 3.0 -0.2992868721485138 L 3.0 -0.03169550001621246 L 4.0 -0.03169550001621246 L 4.0 -0.36801496148109436 L 5.0 -0.36801496148109436 L 5.0 0.2079765647649765 L 6.0 0.2079765647649765 L 6.0 -0.2272660881280899 L 7.0 -0.2272660881280899 L 7.0 0.3851809799671173 L 8.0 0.3851809799671173 L 8.0 -0.002570859156548977 L 9.0 -0.002570859156548977 L 9.0 -0.3391358256340027 L 10.0 -0.3391358256340027 L 10.0 -0.22926661372184753 L 11.0 -0.22926661372184753 L 11.0 -0.2505089044570923 L 12.0 -0.2505089044570923 L 12.0 -0.30618229508399963 L 13.0 -0.30618229508399963 L 13.0 -0.6149124503135681 L 14.0 -0.6149124503135681 L 14.0 -0.8705422878265381 L 15.0 -0.8705422878265381 L 15.0 -1.0090070962905884 L 16.0 -1.0090070962905884 L 16.0 -0.9619665145874023 L 17.0 -0.9619665145874023 L 17.0 -0.5806422829627991 L 18.0 -0.5806422829627991 L 18.0 -0.33283722400665283 L 19.0 -0.33283722400665283 L 19.0 -0.133057102560997 L 20.0 -0.133057102560997 L 20.0 -0.3331110179424286 L 21.0 -0.3331110179424286 L 21.0 -0.3753860592842102 L 22.0 -0.3753860592842102 L 22.0 -1.2092889547348022 L 23.0 -1.2092889547348022 L 23.0 0.02112554758787155 L 24.0 0.02112554758787155 L 24.0 -0.1784762144088745 L 25.0 -0.1784762144088745" style="vector-effect: non-scaling-stroke;fill:none;" /></g></g></g></g></g></g><g transform="matrix(1.0, 0.0, 0.0, 1.0, -0.125, 0.16)"><g transform="matrix(1.0, 0.0, 0.0, 0.009999999999999995, 0.0, 0.0)"><g transform="matrix(0.01, 0.0, 0.0, 1.0, 0.0, 0.0)"><g><g><g style="fill: #0000ff;stroke: #0000ff;stroke-width: 1.2000000000000002;fill-opacity: 0.5;" transform="matrix(1.0, 0.0, 0.0, 1.0, 0.0, 0.0)"><path d="M 0.0 -2.0 L 0.0 2.0" style="vector-effect: non-scaling-stroke;fill:none;" /></g><g style="fill: #0000ff;stroke: #0000ff;stroke-width: 1.2000000000000002;fill-opacity: 0.5;" transform="matrix(1.0, 0.0, 0.0, 1.0, 0.0, 0.0)"><path d="M 0.0 0.033044930547475815 L 1.0 0.033044930547475815 L 1.0 0.09689045697450638 L 2.0 0.09689045697450638 L 2.0 -0.2992868721485138 L 3.0 -0.2992868721485138 L 3.0 -0.03169550001621246 L 4.0 -0.03169550001621246 L 4.0 -0.36801496148109436 L 5.0 -0.36801496148109436 L 5.0 0.2079765647649765 L 6.0 0.2079765647649765 L 6.0 -0.2272660881280899 L 7.0 -0.2272660881280899 L 7.0 0.3851809799671173 L 8.0 0.3851809799671173 L 8.0 -0.002570859156548977 L 9.0 -0.002570859156548977 L 9.0 -0.3391358256340027 L 10.0 -0.3391358256340027 L 10.0 -0.22926661372184753 L 11.0 -0.22926661372184753 L 11.0 -0.2505089044570923 L 12.0 -0.2505089044570923 L 12.0 -0.30618229508399963 L 13.0 -0.30618229508399963 L 13.0 -0.6149124503135681 L 14.0 -0.6149124503135681 L 14.0 -0.8705422878265381 L 15.0 -0.8705422878265381 L 15.0 -1.0090070962905884 L 16.0 -1.0090070962905884 L 16.0 -0.9619665145874023 L 17.0 -0.9619665145874023 L 17.0 -0.5806422829627991 L 18.0 -0.5806422829627991 L 18.0 -0.33283722400665283 L 19.0 -0.33283722400665283 L 19.0 -0.133057102560997 L 20.0 -0.133057102560997 L 20.0 -0.3331110179424286 L 21.0 -0.3331110179424286 L 21.0 -0.3753860592842102 L 22.0 -0.3753860592842102 L 22.0 -1.2092889547348022 L 23.0 -1.2092889547348022 L 23.0 0.02112554758787155 L 24.0 0.02112554758787155 L 24.0 -0.1784762144088745 L 25.0 -0.1784762144088745 L 25.0 -0.1784762144088745 L 24.0 -0.1784762144088745 L 24.0 0.02112554758787155 L 23.0 0.02112554758787155 L 23.0 -1.2092889547348022 L 22.0 -1.2092889547348022 L 22.0 -0.3753860592842102 L 21.0 -0.3753860592842102 L 21.0 -0.3331110179424286 L 20.0 -0.3331110179424286 L 20.0 -0.133057102560997 L 19.0 -0.133057102560997 L 19.0 -0.33283722400665283 L 18.0 -0.33283722400665283 L 18.0 -0.5806422829627991 L 17.0 -0.5806422829627991 L 17.0 -0.9619665145874023 L 16.0 -0.9619665145874023 L 16.0 -1.0090070962905884 L 15.0 -1.0090070962905884 L 15.0 -0.8705422878265381 L 14.0 -0.8705422878265381 L 14.0 -0.6149124503135681 L 13.0 -0.6149124503135681 L 13.0 -0.30618229508399963 L 12.0 -0.30618229508399963 L 12.0 -0.2505089044570923 L 11.0 -0.2505089044570923 L 11.0 -0.22926661372184753 L 10.0 -0.22926661372184753 L 10.0 -0.3391358256340027 L 9.0 -0.3391358256340027 L 9.0 -0.002570859156548977 L 8.0 -0.002570859156548977 L 8.0 0.3851809799671173 L 7.0 0.3851809799671173 L 7.0 -0.2272660881280899 L 6.0 -0.2272660881280899 L 6.0 0.2079765647649765 L 5.0 0.2079765647649765 L 5.0 -0.36801496148109436 L 4.0 -0.36801496148109436 L 4.0 -0.03169550001621246 L 3.0 -0.03169550001621246 L 3.0 -0.2992868721485138 L 2.0 -0.2992868721485138 L 2.0 0.09689045697450638 L 1.0 0.09689045697450638 L 1.0 0.033044930547475815 L 0.0 0.033044930547475815 Z" style="vector-effect: non-scaling-stroke;" /></g></g><g style="stroke: black;stroke-width: 1.2000000000000002;" transform="matrix(1.0, 0.0, 0.0, 1.0, 0.0, 0.0)"><path d="M 0.0 0.033044930547475815 L 1.0 0.033044930547475815 L 1.0 0.09689045697450638 L 2.0 0.09689045697450638 L 2.0 -0.2992868721485138 L 3.0 -0.2992868721485138 L 3.0 -0.03169550001621246 L 4.0 -0.03169550001621246 L 4.0 -0.36801496148109436 L 5.0 -0.36801496148109436 L 5.0 0.2079765647649765 L 6.0 0.2079765647649765 L 6.0 -0.2272660881280899 L 7.0 -0.2272660881280899 L 7.0 0.3851809799671173 L 8.0 0.3851809799671173 L 8.0 -0.002570859156548977 L 9.0 -0.002570859156548977 L 9.0 -0.3391358256340027 L 10.0 -0.3391358256340027 L 10.0 -0.22926661372184753 L 11.0 -0.22926661372184753 L 11.0 -0.2505089044570923 L 12.0 -0.2505089044570923 L 12.0 -0.30618229508399963 L 13.0 -0.30618229508399963 L 13.0 -0.6149124503135681 L 14.0 -0.6149124503135681 L 14.0 -0.8705422878265381 L 15.0 -0.8705422878265381 L 15.0 -1.0090070962905884 L 16.0 -1.0090070962905884 L 16.0 -0.9619665145874023 L 17.0 -0.9619665145874023 L 17.0 -0.5806422829627991 L 18.0 -0.5806422829627991 L 18.0 -0.33283722400665283 L 19.0 -0.33283722400665283 L 19.0 -0.133057102560997 L 20.0 -0.133057102560997 L 20.0 -0.3331110179424286 L 21.0 -0.3331110179424286 L 21.0 -0.3753860592842102 L 22.0 -0.3753860592842102 L 22.0 -1.2092889547348022 L 23.0 -1.2092889547348022 L 23.0 0.02112554758787155 L 24.0 0.02112554758787155 L 24.0 -0.1784762144088745 L 25.0 -0.1784762144088745" style="vector-effect: non-scaling-stroke;fill:none;" /></g></g></g></g></g></g></g></g><g><g><g><g><g><g><g transform="matrix(1.0, 0.0, 0.0, 1.0, -0.41500000000000004, -0.03)"><g><g><g transform="matrix(1.0, 0.0, 0.0, 1.0, 0.075, 0.0)"><g transform="matrix(1.0, 0.0, 0.0, 1.0, 0.0, 0.03)"><g transform="matrix(0.01, 0.0, 0.0, 0.01, 0.0, 0.0)"><g><g><g transform="matrix(1.0, 0.0, 0.0, 1.0, 12.5, 0.0)"><g transform="matrix(1.0, 0.0, 0.0, 1.0, -20.0, -0.0)"><g><g style="fill: #d3d3d3;stroke: black;stroke-width: 1.2000000000000002;" transform="matrix(1.0, 0.0, 0.0, 1.0, 0.0, -3.0)"><path d="M 0.0 0.0 L 40.0 0.0 L 40.0 6.0 L 0.0 6.0 L 0.0 0.0 Z" style="vector-effect: non-scaling-stroke;" /></g><g transform="matrix(1.0, 0.0, 0.0, 1.0, 1.875, 0.0)"><g><g style="stroke: black;stroke-width: 1.2000000000000002;" transform="matrix(1.0, 0.0, 0.0, 1.0, 0.0, 0.0)"><g /></g><g style="fill: #ffa500;stroke: black;stroke-width: 1.2000000000000002;" transform="matrix(1.0, 0.0, 0.0, 1.0, 1.875, 0.0)"><text style="text-align:center; text-anchor:middle; dominant-baseline:middle;&#10;                      font-family:sans-serif; font-weight: bold;&#10;                      font-size:3px;&#10;                      vector-effect: non-scaling-stroke;" transform="translate(-5e-05, 0)">x</text></g></g></g></g></g></g><g><g><g><g><g style="stroke: black;stroke-width: 1.2000000000000002;" transform="matrix(1.0, 0.0, 0.0, 1.0, 0.0, 0.0)"><path d="M 0.0 -2.0 L 0.0 2.0" style="vector-effect: non-scaling-stroke;fill:none;" /></g><g style="stroke: #808080;stroke-width: 0.6000000000000001;" transform="matrix(1.0, 0.0, 0.0, 1.0, 0.0, 0.0)"><path d="M 0.0 0.0 L 25.0 0.0" style="vector-effect: non-scaling-stroke;fill:none;" /></g></g><g style="stroke: black;stroke-width: 2.4000000000000004;" transform="matrix(1.0, 0.0, 0.0, 1.0, 0.0, 0.0)"><path d="M 0.0 0.36892756819725037 L 1.0 0.36892756819725037 L 1.0 0.10681941360235214 L 2.0 0.10681941360235214 L 2.0 -0.40417441725730896 L 3.0 -0.40417441725730896 L 3.0 -0.45308804512023926 L 4.0 -0.45308804512023926 L 4.0 -0.6547780632972717 L 5.0 -0.6547780632972717 L 5.0 0.2719874083995819 L 6.0 0.2719874083995819 L 6.0 -0.2291276603937149 L 7.0 -0.2291276603937149 L 7.0 0.6312178373336792 L 8.0 0.6312178373336792 L 8.0 -0.04604702442884445 L 9.0 -0.04604702442884445 L 9.0 -0.6091361045837402 L 10.0 -0.6091361045837402 L 10.0 -0.9941620826721191 L 11.0 -0.9941620826721191 L 11.0 -1.3657546043395996 L 12.0 -1.3657546043395996 L 12.0 -0.5576217770576477 L 13.0 -0.5576217770576477 L 13.0 -1.5033526420593262 L 14.0 -1.5033526420593262 L 14.0 -0.9151825904846191 L 15.0 -0.9151825904846191 L 15.0 -1.642714500427246 L 16.0 -1.642714500427246 L 16.0 -1.4663134813308716 L 17.0 -1.4663134813308716 L 17.0 -1.3641618490219116 L 18.0 -1.3641618490219116 L 18.0 -0.9552580714225769 L 19.0 -0.9552580714225769 L 19.0 -0.5979908108711243 L 20.0 -0.5979908108711243 L 20.0 -1.0358208417892456 L 21.0 -1.0358208417892456 L 21.0 -0.6786758303642273 L 22.0 -0.6786758303642273 L 22.0 -1.435609221458435 L 23.0 -1.435609221458435 L 23.0 -0.7616475820541382 L 24.0 -0.7616475820541382 L 24.0 -0.7052664160728455 L 25.0 -0.7052664160728455" style="vector-effect: non-scaling-stroke;fill:none;" /></g></g><g style="stroke: black;stroke-width: 1.2000000000000002;" transform="matrix(1.0, 0.0, 0.0, 1.0, 0.0, 0.0)"><path d="M 0.0 -2.0 L 0.0 2.0" style="vector-effect: non-scaling-stroke;fill:none;" /></g></g></g></g><g><g><g><g><g style="stroke: black;stroke-width: 1.2000000000000002;" transform="matrix(1.0, 0.0, 0.0, 1.0, 0.0, 0.0)"><path d="M 0.0 -2.0 L 0.0 2.0" style="vector-effect: non-scaling-stroke;fill:none;" /></g><g style="stroke: #808080;stroke-width: 0.6000000000000001;" transform="matrix(1.0, 0.0, 0.0, 1.0, 0.0, 0.0)"><path d="M 0.0 0.0 L 25.0 0.0" style="vector-effect: non-scaling-stroke;fill:none;" /></g></g><g style="stroke: black;stroke-width: 2.4000000000000004;" transform="matrix(1.0, 0.0, 0.0, 1.0, 0.0, 0.0)"><path d="M 0.0 0.36892756819725037 L 1.0 0.36892756819725037 L 1.0 0.10681941360235214 L 2.0 0.10681941360235214 L 2.0 -0.40417441725730896 L 3.0 -0.40417441725730896 L 3.0 -0.45308804512023926 L 4.0 -0.45308804512023926 L 4.0 -0.6547780632972717 L 5.0 -0.6547780632972717 L 5.0 0.2719874083995819 L 6.0 0.2719874083995819 L 6.0 -0.2291276603937149 L 7.0 -0.2291276603937149 L 7.0 0.6312178373336792 L 8.0 0.6312178373336792 L 8.0 -0.04604702442884445 L 9.0 -0.04604702442884445 L 9.0 -0.6091361045837402 L 10.0 -0.6091361045837402 L 10.0 -0.9941620826721191 L 11.0 -0.9941620826721191 L 11.0 -1.3657546043395996 L 12.0 -1.3657546043395996 L 12.0 -0.5576217770576477 L 13.0 -0.5576217770576477 L 13.0 -1.5033526420593262 L 14.0 -1.5033526420593262 L 14.0 -0.9151825904846191 L 15.0 -0.9151825904846191 L 15.0 -1.642714500427246 L 16.0 -1.642714500427246 L 16.0 -1.4663134813308716 L 17.0 -1.4663134813308716 L 17.0 -1.3641618490219116 L 18.0 -1.3641618490219116 L 18.0 -0.9552580714225769 L 19.0 -0.9552580714225769 L 19.0 -0.5979908108711243 L 20.0 -0.5979908108711243 L 20.0 -1.0358208417892456 L 21.0 -1.0358208417892456 L 21.0 -0.6786758303642273 L 22.0 -0.6786758303642273 L 22.0 -1.435609221458435 L 23.0 -1.435609221458435 L 23.0 -0.7616475820541382 L 24.0 -0.7616475820541382 L 24.0 -0.7052664160728455 L 25.0 -0.7052664160728455" style="vector-effect: non-scaling-stroke;fill:none;" /></g></g><g style="stroke: black;stroke-width: 1.2000000000000002;" transform="matrix(1.0, 0.0, 0.0, 1.0, 0.0, 0.0)"><path d="M 0.0 -2.0 L 0.0 2.0" style="vector-effect: non-scaling-stroke;fill:none;" /></g></g></g></g></g></g></g><g style="stroke: black;stroke-width: 1.2000000000000002;" transform="matrix(1.0, 0.0, 0.0, 1.0, 0.41500000000000004, 0.0)"><g /></g></g><g transform="matrix(1.0, 0.0, 0.0, 1.0, 0.43000000000000005, 0.0)"><g transform="matrix(1.0, 0.0, 0.0, 1.0, 0.075, 0.0)"><g transform="matrix(1.0, 0.0, 0.0, 1.0, 0.0, 0.03)"><g transform="matrix(0.01, 0.0, 0.0, 0.01, 0.0, 0.0)"><g><g><g transform="matrix(1.0, 0.0, 0.0, 1.0, 12.5, 0.0)"><g transform="matrix(1.0, 0.0, 0.0, 1.0, -20.0, -0.0)"><g><g style="fill: #d3d3d3;stroke: black;stroke-width: 1.2000000000000002;" transform="matrix(1.0, 0.0, 0.0, 1.0, 0.0, -3.0)"><path d="M 0.0 0.0 L 40.0 0.0 L 40.0 6.0 L 0.0 6.0 L 0.0 0.0 Z" style="vector-effect: non-scaling-stroke;" /></g><g transform="matrix(1.0, 0.0, 0.0, 1.0, 1.875, 0.0)"><g><g style="stroke: black;stroke-width: 1.2000000000000002;" transform="matrix(1.0, 0.0, 0.0, 1.0, 0.0, 0.0)"><g /></g><g style="fill: #ffa500;stroke: black;stroke-width: 1.2000000000000002;" transform="matrix(1.0, 0.0, 0.0, 1.0, 1.875, 0.0)"><text style="text-align:center; text-anchor:middle; dominant-baseline:middle;&#10;                      font-family:sans-serif; font-weight: bold;&#10;                      font-size:3px;&#10;                      vector-effect: non-scaling-stroke;" transform="translate(-5e-05, 0)">y</text></g></g></g></g></g></g><g><g><g><g style="stroke: black;stroke-width: 1.2000000000000002;" transform="matrix(1.0, 0.0, 0.0, 1.0, 0.0, 0.0)"><path d="M 0.0 -2.0 L 0.0 2.0" style="vector-effect: non-scaling-stroke;fill:none;" /></g><g style="stroke: #808080;stroke-width: 0.6000000000000001;" transform="matrix(1.0, 0.0, 0.0, 1.0, 0.0, 0.0)"><path d="M 0.0 0.0 L 25.0 0.0" style="vector-effect: non-scaling-stroke;fill:none;" /></g></g><g style="stroke: black;stroke-width: 2.4000000000000004;" transform="matrix(1.0, 0.0, 0.0, 1.0, 0.0, 0.0)"><path d="M 0.0 -0.17914047837257385 L 1.0 -0.17914047837257385 L 1.0 -1.8140982389450073 L 2.0 -1.8140982389450073 L 2.0 -1.4809788465499878 L 3.0 -1.4809788465499878 L 3.0 -0.1399087905883789 L 4.0 -0.1399087905883789 L 4.0 -1.1240906715393066 L 5.0 -1.1240906715393066 L 5.0 -1.5293102264404297 L 6.0 -1.5293102264404297 L 6.0 -1.983750820159912 L 7.0 -1.983750820159912 L 7.0 -1.2204375267028809 L 8.0 -1.2204375267028809 L 8.0 -0.11166233569383621 L 9.0 -0.11166233569383621 L 9.0 -1.1134977340698242 L 10.0 -1.1134977340698242 L 10.0 -0.46122583746910095 L 11.0 -0.46122583746910095 L 11.0 -0.36684322357177734 L 12.0 -0.36684322357177734 L 12.0 -1.0981719493865967 L 13.0 -1.0981719493865967 L 13.0 -0.8180548548698425 L 14.0 -0.8180548548698425 L 14.0 -1.9024450778961182 L 15.0 -1.9024450778961182 L 15.0 -1.2284631729125977 L 16.0 -1.2284631729125977 L 16.0 -1.3120884895324707 L 17.0 -1.3120884895324707 L 17.0 -0.8512806296348572 L 18.0 -0.8512806296348572 L 18.0 -0.69685298204422 L 19.0 -0.69685298204422 L 19.0 -0.4450138509273529 L 20.0 -0.4450138509273529 L 20.0 -0.6431826949119568 L 21.0 -0.6431826949119568 L 21.0 -1.1062308549880981 L 22.0 -1.1062308549880981 L 22.0 -1.6847048997879028 L 23.0 -1.6847048997879028 L 23.0 0.05547328665852547 L 24.0 0.05547328665852547 L 24.0 -0.5061242580413818 L 25.0 -0.5061242580413818" style="vector-effect: non-scaling-stroke;fill:none;" /></g></g></g></g><g><g><g><g style="stroke: black;stroke-width: 1.2000000000000002;" transform="matrix(1.0, 0.0, 0.0, 1.0, 0.0, 0.0)"><path d="M 0.0 -2.0 L 0.0 2.0" style="vector-effect: non-scaling-stroke;fill:none;" /></g><g style="stroke: #808080;stroke-width: 0.6000000000000001;" transform="matrix(1.0, 0.0, 0.0, 1.0, 0.0, 0.0)"><path d="M 0.0 0.0 L 25.0 0.0" style="vector-effect: non-scaling-stroke;fill:none;" /></g></g><g style="stroke: black;stroke-width: 2.4000000000000004;" transform="matrix(1.0, 0.0, 0.0, 1.0, 0.0, 0.0)"><path d="M 0.0 -0.17914047837257385 L 1.0 -0.17914047837257385 L 1.0 -1.8140982389450073 L 2.0 -1.8140982389450073 L 2.0 -1.4809788465499878 L 3.0 -1.4809788465499878 L 3.0 -0.1399087905883789 L 4.0 -0.1399087905883789 L 4.0 -1.1240906715393066 L 5.0 -1.1240906715393066 L 5.0 -1.5293102264404297 L 6.0 -1.5293102264404297 L 6.0 -1.983750820159912 L 7.0 -1.983750820159912 L 7.0 -1.2204375267028809 L 8.0 -1.2204375267028809 L 8.0 -0.11166233569383621 L 9.0 -0.11166233569383621 L 9.0 -1.1134977340698242 L 10.0 -1.1134977340698242 L 10.0 -0.46122583746910095 L 11.0 -0.46122583746910095 L 11.0 -0.36684322357177734 L 12.0 -0.36684322357177734 L 12.0 -1.0981719493865967 L 13.0 -1.0981719493865967 L 13.0 -0.8180548548698425 L 14.0 -0.8180548548698425 L 14.0 -1.9024450778961182 L 15.0 -1.9024450778961182 L 15.0 -1.2284631729125977 L 16.0 -1.2284631729125977 L 16.0 -1.3120884895324707 L 17.0 -1.3120884895324707 L 17.0 -0.8512806296348572 L 18.0 -0.8512806296348572 L 18.0 -0.69685298204422 L 19.0 -0.69685298204422 L 19.0 -0.4450138509273529 L 20.0 -0.4450138509273529 L 20.0 -0.6431826949119568 L 21.0 -0.6431826949119568 L 21.0 -1.1062308549880981 L 22.0 -1.1062308549880981 L 22.0 -1.6847048997879028 L 23.0 -1.6847048997879028 L 23.0 0.05547328665852547 L 24.0 0.05547328665852547 L 24.0 -0.5061242580413818 L 25.0 -0.5061242580413818" style="vector-effect: non-scaling-stroke;fill:none;" /></g></g></g></g></g></g></g></g></g></g><g style="stroke: black;stroke-width: 1.2000000000000002;" transform="matrix(0.0, -1.0, 1.0, 0.0, 0.0, 0.08)"><g /></g></g><g transform="matrix(1.0, 0.0, 0.0, 1.0, 0.0, 0.16)"><g transform="matrix(1.0, 0.0, 0.0, 1.0, -0.2, -0.03)"><g transform="matrix(1.0, 0.0, 0.0, 1.0, 0.075, 0.0)"><g transform="matrix(1.0, 0.0, 0.0, 1.0, 0.0, 0.03)"><g transform="matrix(0.01, 0.0, 0.0, 0.01, 0.0, 0.0)"><g><g><g transform="matrix(1.0, 0.0, 0.0, 1.0, 12.5, 0.0)"><g transform="matrix(1.0, 0.0, 0.0, 1.0, -20.0, -0.0)"><g><g style="fill: #d3d3d3;stroke: black;stroke-width: 1.2000000000000002;" transform="matrix(1.0, 0.0, 0.0, 1.0, 0.0, -3.0)"><path d="M 0.0 0.0 L 40.0 0.0 L 40.0 6.0 L 0.0 6.0 L 0.0 0.0 Z" style="vector-effect: non-scaling-stroke;" /></g><g transform="matrix(1.0, 0.0, 0.0, 1.0, 1.875, 0.0)"><g><g style="stroke: black;stroke-width: 1.2000000000000002;" transform="matrix(1.0, 0.0, 0.0, 1.0, 0.0, 0.0)"><g /></g><g style="fill: #ffa500;stroke: black;stroke-width: 1.2000000000000002;" transform="matrix(1.0, 0.0, 0.0, 1.0, 1.875, 0.0)"><text style="text-align:center; text-anchor:middle; dominant-baseline:middle;&#10;                      font-family:sans-serif; font-weight: bold;&#10;                      font-size:3px;&#10;                      vector-effect: non-scaling-stroke;" transform="translate(-5e-05, 0)">f(x)</text></g></g></g></g></g></g><g><g><g><g style="stroke: black;stroke-width: 1.2000000000000002;" transform="matrix(1.0, 0.0, 0.0, 1.0, 0.0, 0.0)"><path d="M 0.0 -2.0 L 0.0 2.0" style="vector-effect: non-scaling-stroke;fill:none;" /></g><g style="stroke: #808080;stroke-width: 0.6000000000000001;" transform="matrix(1.0, 0.0, 0.0, 1.0, 0.0, 0.0)"><path d="M 0.0 0.0 L 25.0 0.0" style="vector-effect: non-scaling-stroke;fill:none;" /></g></g><g style="stroke: black;stroke-width: 2.4000000000000004;" transform="matrix(1.0, 0.0, 0.0, 1.0, 0.0, 0.0)"><path d="M 0.0 0.033044930547475815 L 1.0 0.033044930547475815 L 1.0 0.09689045697450638 L 2.0 0.09689045697450638 L 2.0 -0.2992868721485138 L 3.0 -0.2992868721485138 L 3.0 -0.03169550001621246 L 4.0 -0.03169550001621246 L 4.0 -0.36801496148109436 L 5.0 -0.36801496148109436 L 5.0 0.2079765647649765 L 6.0 0.2079765647649765 L 6.0 -0.2272660881280899 L 7.0 -0.2272660881280899 L 7.0 0.3851809799671173 L 8.0 0.3851809799671173 L 8.0 -0.002570859156548977 L 9.0 -0.002570859156548977 L 9.0 -0.3391358256340027 L 10.0 -0.3391358256340027 L 10.0 -0.22926661372184753 L 11.0 -0.22926661372184753 L 11.0 -0.2505089044570923 L 12.0 -0.2505089044570923 L 12.0 -0.30618229508399963 L 13.0 -0.30618229508399963 L 13.0 -0.6149124503135681 L 14.0 -0.6149124503135681 L 14.0 -0.8705422878265381 L 15.0 -0.8705422878265381 L 15.0 -1.0090070962905884 L 16.0 -1.0090070962905884 L 16.0 -0.9619665145874023 L 17.0 -0.9619665145874023 L 17.0 -0.5806422829627991 L 18.0 -0.5806422829627991 L 18.0 -0.33283722400665283 L 19.0 -0.33283722400665283 L 19.0 -0.133057102560997 L 20.0 -0.133057102560997 L 20.0 -0.3331110179424286 L 21.0 -0.3331110179424286 L 21.0 -0.3753860592842102 L 22.0 -0.3753860592842102 L 22.0 -1.2092889547348022 L 23.0 -1.2092889547348022 L 23.0 0.02112554758787155 L 24.0 0.02112554758787155 L 24.0 -0.1784762144088745 L 25.0 -0.1784762144088745" style="vector-effect: non-scaling-stroke;fill:none;" /></g></g></g></g><g><g><g><g style="stroke: black;stroke-width: 1.2000000000000002;" transform="matrix(1.0, 0.0, 0.0, 1.0, 0.0, 0.0)"><path d="M 0.0 -2.0 L 0.0 2.0" style="vector-effect: non-scaling-stroke;fill:none;" /></g><g style="stroke: #808080;stroke-width: 0.6000000000000001;" transform="matrix(1.0, 0.0, 0.0, 1.0, 0.0, 0.0)"><path d="M 0.0 0.0 L 25.0 0.0" style="vector-effect: non-scaling-stroke;fill:none;" /></g></g><g style="stroke: black;stroke-width: 2.4000000000000004;" transform="matrix(1.0, 0.0, 0.0, 1.0, 0.0, 0.0)"><path d="M 0.0 0.033044930547475815 L 1.0 0.033044930547475815 L 1.0 0.09689045697450638 L 2.0 0.09689045697450638 L 2.0 -0.2992868721485138 L 3.0 -0.2992868721485138 L 3.0 -0.03169550001621246 L 4.0 -0.03169550001621246 L 4.0 -0.36801496148109436 L 5.0 -0.36801496148109436 L 5.0 0.2079765647649765 L 6.0 0.2079765647649765 L 6.0 -0.2272660881280899 L 7.0 -0.2272660881280899 L 7.0 0.3851809799671173 L 8.0 0.3851809799671173 L 8.0 -0.002570859156548977 L 9.0 -0.002570859156548977 L 9.0 -0.3391358256340027 L 10.0 -0.3391358256340027 L 10.0 -0.22926661372184753 L 11.0 -0.22926661372184753 L 11.0 -0.2505089044570923 L 12.0 -0.2505089044570923 L 12.0 -0.30618229508399963 L 13.0 -0.30618229508399963 L 13.0 -0.6149124503135681 L 14.0 -0.6149124503135681 L 14.0 -0.8705422878265381 L 15.0 -0.8705422878265381 L 15.0 -1.0090070962905884 L 16.0 -1.0090070962905884 L 16.0 -0.9619665145874023 L 17.0 -0.9619665145874023 L 17.0 -0.5806422829627991 L 18.0 -0.5806422829627991 L 18.0 -0.33283722400665283 L 19.0 -0.33283722400665283 L 19.0 -0.133057102560997 L 20.0 -0.133057102560997 L 20.0 -0.3331110179424286 L 21.0 -0.3331110179424286 L 21.0 -0.3753860592842102 L 22.0 -0.3753860592842102 L 22.0 -1.2092889547348022 L 23.0 -1.2092889547348022 L 23.0 0.02112554758787155 L 24.0 0.02112554758787155 L 24.0 -0.1784762144088745 L 25.0 -0.1784762144088745" style="vector-effect: non-scaling-stroke;fill:none;" /></g></g></g></g></g></g></g></g></g></g><g transform="matrix(1.0, 0.0, 0.0, 1.0, -0.125, 0.16)"><g transform="matrix(1.0, 0.0, 0.0, 0.009999999999999995, 0.0, 0.0)"><g transform="matrix(0.01, 0.0, 0.0, 1.0, 0.0, 0.0)"><g><g><g style="fill: #ffffe0;stroke: #ffffe0;stroke-width: 1.2000000000000002;fill-opacity: 0.5;" transform="matrix(1.0, 0.0, 0.0, 1.0, 0.0, 0.0)"><path d="M 0.0 -2.0 L 0.0 2.0" style="vector-effect: non-scaling-stroke;fill:none;" /></g><g style="fill: #ffffe0;stroke: #ffffe0;stroke-width: 1.2000000000000002;fill-opacity: 0.5;" transform="matrix(1.0, 0.0, 0.0, 1.0, 0.0, 0.0)"><path d="M 0.0 -0.14614152908325195 L 1.0 -0.14614152908325195 L 1.0 -1.7173259258270264 L 2.0 -1.7173259258270264 L 2.0 -1.7804622650146484 L 3.0 -1.7804622650146484 L 3.0 -0.17176641523838043 L 4.0 -0.17176641523838043 L 4.0 -1.4945427179336548 L 5.0 -1.4945427179336548 L 5.0 -1.3208825588226318 L 6.0 -1.3208825588226318 L 6.0 -2.0 L 7.0 -2.0 L 7.0 -0.8367142677307129 L 8.0 -0.8367142677307129 L 8.0 -0.11423643678426743 L 9.0 -0.11423643678426743 L 9.0 -1.4537427425384521 L 10.0 -1.4537427425384521 L 10.0 -0.6912026405334473 L 11.0 -0.6912026405334473 L 11.0 -0.6170774698257446 L 12.0 -0.6170774698257446 L 12.0 -1.4058879613876343 L 13.0 -1.4058879613876343 L 13.0 -1.4374566078186035 L 14.0 -1.4374566078186035 L 14.0 -2.0 L 15.0 -2.0 L 15.0 -2.0 L 16.0 -2.0 L 16.0 -2.0 L 17.0 -2.0 L 17.0 -1.4329886436462402 L 18.0 -1.4329886436462402 L 18.0 -1.0302115678787231 L 19.0 -1.0302115678787231 L 19.0 -0.5786018371582031 L 20.0 -0.5786018371582031 L 20.0 -0.9768412113189697 L 21.0 -0.9768412113189697 L 21.0 -1.484032392501831 L 22.0 -1.484032392501831 L 22.0 -2.0 L 23.0 -2.0 L 23.0 0.07663237303495407 L 24.0 0.07663237303495407 L 24.0 -0.6866058111190796 L 25.0 -0.6866058111190796 L 25.0 -0.1784762144088745 L 24.0 -0.1784762144088745 L 24.0 0.02112554758787155 L 23.0 0.02112554758787155 L 23.0 -1.2092889547348022 L 22.0 -1.2092889547348022 L 22.0 -0.3753860592842102 L 21.0 -0.3753860592842102 L 21.0 -0.3331110179424286 L 20.0 -0.3331110179424286 L 20.0 -0.133057102560997 L 19.0 -0.133057102560997 L 19.0 -0.33283722400665283 L 18.0 -0.33283722400665283 L 18.0 -0.5806422829627991 L 17.0 -0.5806422829627991 L 17.0 -0.9619665145874023 L 16.0 -0.9619665145874023 L 16.0 -1.0090070962905884 L 15.0 -1.0090070962905884 L 15.0 -0.8705422878265381 L 14.0 -0.8705422878265381 L 14.0 -0.6149124503135681 L 13.0 -0.6149124503135681 L 13.0 -0.30618229508399963 L 12.0 -0.30618229508399963 L 12.0 -0.2505089044570923 L 11.0 -0.2505089044570923 L 11.0 -0.22926661372184753 L 10.0 -0.22926661372184753 L 10.0 -0.3391358256340027 L 9.0 -0.3391358256340027 L 9.0 -0.002570859156548977 L 8.0 -0.002570859156548977 L 8.0 0.3851809799671173 L 7.0 0.3851809799671173 L 7.0 -0.2272660881280899 L 6.0 -0.2272660881280899 L 6.0 0.2079765647649765 L 5.0 0.2079765647649765 L 5.0 -0.36801496148109436 L 4.0 -0.36801496148109436 L 4.0 -0.03169550001621246 L 3.0 -0.03169550001621246 L 3.0 -0.2992868721485138 L 2.0 -0.2992868721485138 L 2.0 0.09689045697450638 L 1.0 0.09689045697450638 L 1.0 0.033044930547475815 L 0.0 0.033044930547475815 Z" style="vector-effect: non-scaling-stroke;" /></g></g><g style="stroke: black;stroke-width: 1.2000000000000002;" transform="matrix(1.0, 0.0, 0.0, 1.0, 0.0, 0.0)"><path d="M 0.0 0.033044930547475815 L 1.0 0.033044930547475815 L 1.0 0.09689045697450638 L 2.0 0.09689045697450638 L 2.0 -0.2992868721485138 L 3.0 -0.2992868721485138 L 3.0 -0.03169550001621246 L 4.0 -0.03169550001621246 L 4.0 -0.36801496148109436 L 5.0 -0.36801496148109436 L 5.0 0.2079765647649765 L 6.0 0.2079765647649765 L 6.0 -0.2272660881280899 L 7.0 -0.2272660881280899 L 7.0 0.3851809799671173 L 8.0 0.3851809799671173 L 8.0 -0.002570859156548977 L 9.0 -0.002570859156548977 L 9.0 -0.3391358256340027 L 10.0 -0.3391358256340027 L 10.0 -0.22926661372184753 L 11.0 -0.22926661372184753 L 11.0 -0.2505089044570923 L 12.0 -0.2505089044570923 L 12.0 -0.30618229508399963 L 13.0 -0.30618229508399963 L 13.0 -0.6149124503135681 L 14.0 -0.6149124503135681 L 14.0 -0.8705422878265381 L 15.0 -0.8705422878265381 L 15.0 -1.0090070962905884 L 16.0 -1.0090070962905884 L 16.0 -0.9619665145874023 L 17.0 -0.9619665145874023 L 17.0 -0.5806422829627991 L 18.0 -0.5806422829627991 L 18.0 -0.33283722400665283 L 19.0 -0.33283722400665283 L 19.0 -0.133057102560997 L 20.0 -0.133057102560997 L 20.0 -0.3331110179424286 L 21.0 -0.3331110179424286 L 21.0 -0.3753860592842102 L 22.0 -0.3753860592842102 L 22.0 -1.2092889547348022 L 23.0 -1.2092889547348022 L 23.0 0.02112554758787155 L 24.0 0.02112554758787155 L 24.0 -0.1784762144088745 L 25.0 -0.1784762144088745" style="vector-effect: non-scaling-stroke;fill:none;" /></g></g></g></g></g></g><g transform="matrix(1.0, 0.0, 0.0, 1.0, -0.125, 0.16)"><g transform="matrix(1.0, 0.0, 0.0, 0.009999999999999995, 0.0, 0.0)"><g transform="matrix(0.01, 0.0, 0.0, 1.0, 0.0, 0.0)"><g><g><g style="fill: #add8e6;stroke: #add8e6;stroke-width: 1.2000000000000002;fill-opacity: 0.5;" transform="matrix(1.0, 0.0, 0.0, 1.0, 0.0, 0.0)"><path d="M 0.0 -2.0 L 0.0 2.0" style="vector-effect: non-scaling-stroke;fill:none;" /></g><g style="fill: #add8e6;stroke: #add8e6;stroke-width: 1.2000000000000002;fill-opacity: 0.5;" transform="matrix(1.0, 0.0, 0.0, 1.0, 0.0, 0.0)"><path d="M 0.0 0.4018486738204956 L 1.0 0.4018486738204956 L 1.0 0.20343375205993652 L 2.0 0.20343375205993652 L 2.0 -0.7045984268188477 L 3.0 -0.7045984268188477 L 3.0 -0.48469078540802 L 4.0 -0.48469078540802 L 4.0 -1.0236660242080688 L 5.0 -1.0236660242080688 L 5.0 0.4806678295135498 L 6.0 0.4806678295135498 L 6.0 -0.4567439556121826 L 7.0 -0.4567439556121826 L 7.0 1.0169901847839355 L 8.0 1.0169901847839355 L 8.0 -0.04860147833824158 L 9.0 -0.04860147833824158 L 9.0 -0.9500834345817566 L 10.0 -0.9500834345817566 L 10.0 -1.2231740951538086 L 11.0 -1.2231740951538086 L 11.0 -1.6154552698135376 L 12.0 -1.6154552698135376 L 12.0 -0.8634856939315796 L 13.0 -0.8634856939315796 L 13.0 -2.0 L 14.0 -2.0 L 14.0 -1.7884538173675537 L 15.0 -1.7884538173675537 L 15.0 -2.0 L 16.0 -2.0 L 16.0 -2.0 L 17.0 -2.0 L 17.0 -1.9455885887145996 L 18.0 -1.9455885887145996 L 18.0 -1.2894917726516724 L 19.0 -1.2894917726516724 L 19.0 -0.7305936813354492 L 20.0 -0.7305936813354492 L 20.0 -1.3702318668365479 L 21.0 -1.3702318668365479 L 21.0 -1.0548789501190186 L 22.0 -1.0548789501190186 L 22.0 -2.0 L 23.0 -2.0 L 23.0 -0.7405100464820862 L 24.0 -0.7405100464820862 L 24.0 -0.8847912549972534 L 25.0 -0.8847912549972534 L 25.0 -0.1784762144088745 L 24.0 -0.1784762144088745 L 24.0 0.02112554758787155 L 23.0 0.02112554758787155 L 23.0 -1.2092889547348022 L 22.0 -1.2092889547348022 L 22.0 -0.3753860592842102 L 21.0 -0.3753860592842102 L 21.0 -0.3331110179424286 L 20.0 -0.3331110179424286 L 20.0 -0.133057102560997 L 19.0 -0.133057102560997 L 19.0 -0.33283722400665283 L 18.0 -0.33283722400665283 L 18.0 -0.5806422829627991 L 17.0 -0.5806422829627991 L 17.0 -0.9619665145874023 L 16.0 -0.9619665145874023 L 16.0 -1.0090070962905884 L 15.0 -1.0090070962905884 L 15.0 -0.8705422878265381 L 14.0 -0.8705422878265381 L 14.0 -0.6149124503135681 L 13.0 -0.6149124503135681 L 13.0 -0.30618229508399963 L 12.0 -0.30618229508399963 L 12.0 -0.2505089044570923 L 11.0 -0.2505089044570923 L 11.0 -0.22926661372184753 L 10.0 -0.22926661372184753 L 10.0 -0.3391358256340027 L 9.0 -0.3391358256340027 L 9.0 -0.002570859156548977 L 8.0 -0.002570859156548977 L 8.0 0.3851809799671173 L 7.0 0.3851809799671173 L 7.0 -0.2272660881280899 L 6.0 -0.2272660881280899 L 6.0 0.2079765647649765 L 5.0 0.2079765647649765 L 5.0 -0.36801496148109436 L 4.0 -0.36801496148109436 L 4.0 -0.03169550001621246 L 3.0 -0.03169550001621246 L 3.0 -0.2992868721485138 L 2.0 -0.2992868721485138 L 2.0 0.09689045697450638 L 1.0 0.09689045697450638 L 1.0 0.033044930547475815 L 0.0 0.033044930547475815 Z" style="vector-effect: non-scaling-stroke;" /></g></g><g style="stroke: black;stroke-width: 1.2000000000000002;" transform="matrix(1.0, 0.0, 0.0, 1.0, 0.0, 0.0)"><path d="M 0.0 0.033044930547475815 L 1.0 0.033044930547475815 L 1.0 0.09689045697450638 L 2.0 0.09689045697450638 L 2.0 -0.2992868721485138 L 3.0 -0.2992868721485138 L 3.0 -0.03169550001621246 L 4.0 -0.03169550001621246 L 4.0 -0.36801496148109436 L 5.0 -0.36801496148109436 L 5.0 0.2079765647649765 L 6.0 0.2079765647649765 L 6.0 -0.2272660881280899 L 7.0 -0.2272660881280899 L 7.0 0.3851809799671173 L 8.0 0.3851809799671173 L 8.0 -0.002570859156548977 L 9.0 -0.002570859156548977 L 9.0 -0.3391358256340027 L 10.0 -0.3391358256340027 L 10.0 -0.22926661372184753 L 11.0 -0.22926661372184753 L 11.0 -0.2505089044570923 L 12.0 -0.2505089044570923 L 12.0 -0.30618229508399963 L 13.0 -0.30618229508399963 L 13.0 -0.6149124503135681 L 14.0 -0.6149124503135681 L 14.0 -0.8705422878265381 L 15.0 -0.8705422878265381 L 15.0 -1.0090070962905884 L 16.0 -1.0090070962905884 L 16.0 -0.9619665145874023 L 17.0 -0.9619665145874023 L 17.0 -0.5806422829627991 L 18.0 -0.5806422829627991 L 18.0 -0.33283722400665283 L 19.0 -0.33283722400665283 L 19.0 -0.133057102560997 L 20.0 -0.133057102560997 L 20.0 -0.3331110179424286 L 21.0 -0.3331110179424286 L 21.0 -0.3753860592842102 L 22.0 -0.3753860592842102 L 22.0 -1.2092889547348022 L 23.0 -1.2092889547348022 L 23.0 0.02112554758787155 L 24.0 0.02112554758787155 L 24.0 -0.1784762144088745 L 25.0 -0.1784762144088745" style="vector-effect: non-scaling-stroke;fill:none;" /></g></g></g></g></g></g><g transform="matrix(1.0, 0.0, 0.0, 1.0, -0.125, 0.16)"><g transform="matrix(1.0, 0.0, 0.0, 0.009999999999999995, 0.0, 0.0)"><g transform="matrix(0.01, 0.0, 0.0, 1.0, 0.0, 0.0)"><g><g><g style="fill: #ff8c00;stroke: #ff8c00;stroke-width: 1.2000000000000002;fill-opacity: 0.5;" transform="matrix(1.0, 0.0, 0.0, 1.0, 0.0, 0.0)"><path d="M 0.0 -2.0 L 0.0 2.0" style="vector-effect: non-scaling-stroke;fill:none;" /></g><g style="fill: #ff8c00;stroke: #ff8c00;stroke-width: 1.2000000000000002;fill-opacity: 0.5;" transform="matrix(1.0, 0.0, 0.0, 1.0, 0.0, 0.0)"><path d="M 0.0 0.033044930547475815 L 1.0 0.033044930547475815 L 1.0 0.09689045697450638 L 2.0 0.09689045697450638 L 2.0 -0.2992868721485138 L 3.0 -0.2992868721485138 L 3.0 -0.03169550001621246 L 4.0 -0.03169550001621246 L 4.0 -0.36801496148109436 L 5.0 -0.36801496148109436 L 5.0 0.2079765647649765 L 6.0 0.2079765647649765 L 6.0 -0.2272660881280899 L 7.0 -0.2272660881280899 L 7.0 0.3851809799671173 L 8.0 0.3851809799671173 L 8.0 -0.002570859156548977 L 9.0 -0.002570859156548977 L 9.0 -0.3391358256340027 L 10.0 -0.3391358256340027 L 10.0 -0.22926661372184753 L 11.0 -0.22926661372184753 L 11.0 -0.2505089044570923 L 12.0 -0.2505089044570923 L 12.0 -0.30618229508399963 L 13.0 -0.30618229508399963 L 13.0 -0.6149124503135681 L 14.0 -0.6149124503135681 L 14.0 -0.8705422878265381 L 15.0 -0.8705422878265381 L 15.0 -1.0090070962905884 L 16.0 -1.0090070962905884 L 16.0 -0.9619665145874023 L 17.0 -0.9619665145874023 L 17.0 -0.5806422829627991 L 18.0 -0.5806422829627991 L 18.0 -0.33283722400665283 L 19.0 -0.33283722400665283 L 19.0 -0.133057102560997 L 20.0 -0.133057102560997 L 20.0 -0.3331110179424286 L 21.0 -0.3331110179424286 L 21.0 -0.3753860592842102 L 22.0 -0.3753860592842102 L 22.0 -1.2092889547348022 L 23.0 -1.2092889547348022 L 23.0 0.02112554758787155 L 24.0 0.02112554758787155 L 24.0 -0.1784762144088745 L 25.0 -0.1784762144088745 L 25.0 -0.1784762144088745 L 24.0 -0.1784762144088745 L 24.0 0.02112554758787155 L 23.0 0.02112554758787155 L 23.0 -1.2092889547348022 L 22.0 -1.2092889547348022 L 22.0 -0.3753860592842102 L 21.0 -0.3753860592842102 L 21.0 -0.3331110179424286 L 20.0 -0.3331110179424286 L 20.0 -0.133057102560997 L 19.0 -0.133057102560997 L 19.0 -0.33283722400665283 L 18.0 -0.33283722400665283 L 18.0 -0.5806422829627991 L 17.0 -0.5806422829627991 L 17.0 -0.9619665145874023 L 16.0 -0.9619665145874023 L 16.0 -1.0090070962905884 L 15.0 -1.0090070962905884 L 15.0 -0.8705422878265381 L 14.0 -0.8705422878265381 L 14.0 -0.6149124503135681 L 13.0 -0.6149124503135681 L 13.0 -0.30618229508399963 L 12.0 -0.30618229508399963 L 12.0 -0.2505089044570923 L 11.0 -0.2505089044570923 L 11.0 -0.22926661372184753 L 10.0 -0.22926661372184753 L 10.0 -0.3391358256340027 L 9.0 -0.3391358256340027 L 9.0 -0.002570859156548977 L 8.0 -0.002570859156548977 L 8.0 0.3851809799671173 L 7.0 0.3851809799671173 L 7.0 -0.2272660881280899 L 6.0 -0.2272660881280899 L 6.0 0.2079765647649765 L 5.0 0.2079765647649765 L 5.0 -0.36801496148109436 L 4.0 -0.36801496148109436 L 4.0 -0.03169550001621246 L 3.0 -0.03169550001621246 L 3.0 -0.2992868721485138 L 2.0 -0.2992868721485138 L 2.0 0.09689045697450638 L 1.0 0.09689045697450638 L 1.0 0.033044930547475815 L 0.0 0.033044930547475815 Z" style="vector-effect: non-scaling-stroke;" /></g></g><g style="stroke: black;stroke-width: 1.2000000000000002;" transform="matrix(1.0, 0.0, 0.0, 1.0, 0.0, 0.0)"><path d="M 0.0 0.033044930547475815 L 1.0 0.033044930547475815 L 1.0 0.09689045697450638 L 2.0 0.09689045697450638 L 2.0 -0.2992868721485138 L 3.0 -0.2992868721485138 L 3.0 -0.03169550001621246 L 4.0 -0.03169550001621246 L 4.0 -0.36801496148109436 L 5.0 -0.36801496148109436 L 5.0 0.2079765647649765 L 6.0 0.2079765647649765 L 6.0 -0.2272660881280899 L 7.0 -0.2272660881280899 L 7.0 0.3851809799671173 L 8.0 0.3851809799671173 L 8.0 -0.002570859156548977 L 9.0 -0.002570859156548977 L 9.0 -0.3391358256340027 L 10.0 -0.3391358256340027 L 10.0 -0.22926661372184753 L 11.0 -0.22926661372184753 L 11.0 -0.2505089044570923 L 12.0 -0.2505089044570923 L 12.0 -0.30618229508399963 L 13.0 -0.30618229508399963 L 13.0 -0.6149124503135681 L 14.0 -0.6149124503135681 L 14.0 -0.8705422878265381 L 15.0 -0.8705422878265381 L 15.0 -1.0090070962905884 L 16.0 -1.0090070962905884 L 16.0 -0.9619665145874023 L 17.0 -0.9619665145874023 L 17.0 -0.5806422829627991 L 18.0 -0.5806422829627991 L 18.0 -0.33283722400665283 L 19.0 -0.33283722400665283 L 19.0 -0.133057102560997 L 20.0 -0.133057102560997 L 20.0 -0.3331110179424286 L 21.0 -0.3331110179424286 L 21.0 -0.3753860592842102 L 22.0 -0.3753860592842102 L 22.0 -1.2092889547348022 L 23.0 -1.2092889547348022 L 23.0 0.02112554758787155 L 24.0 0.02112554758787155 L 24.0 -0.1784762144088745 L 25.0 -0.1784762144088745" style="vector-effect: non-scaling-stroke;fill:none;" /></g></g></g></g></g></g><g transform="matrix(1.0, 0.0, 0.0, 1.0, -0.125, 0.16)"><g transform="matrix(1.0, 0.0, 0.0, 0.009999999999999995, 0.0, 0.0)"><g transform="matrix(0.01, 0.0, 0.0, 1.0, 0.0, 0.0)"><g><g><g style="fill: #0000ff;stroke: #0000ff;stroke-width: 1.2000000000000002;fill-opacity: 0.5;" transform="matrix(1.0, 0.0, 0.0, 1.0, 0.0, 0.0)"><path d="M 0.0 -2.0 L 0.0 2.0" style="vector-effect: non-scaling-stroke;fill:none;" /></g><g style="fill: #0000ff;stroke: #0000ff;stroke-width: 1.2000000000000002;fill-opacity: 0.5;" transform="matrix(1.0, 0.0, 0.0, 1.0, 0.0, 0.0)"><path d="M 0.0 0.033044930547475815 L 1.0 0.033044930547475815 L 1.0 0.09689045697450638 L 2.0 0.09689045697450638 L 2.0 -0.2992868721485138 L 3.0 -0.2992868721485138 L 3.0 -0.03169550001621246 L 4.0 -0.03169550001621246 L 4.0 -0.36801496148109436 L 5.0 -0.36801496148109436 L 5.0 0.2079765647649765 L 6.0 0.2079765647649765 L 6.0 -0.2272660881280899 L 7.0 -0.2272660881280899 L 7.0 0.3851809799671173 L 8.0 0.3851809799671173 L 8.0 -0.002570859156548977 L 9.0 -0.002570859156548977 L 9.0 -0.3391358256340027 L 10.0 -0.3391358256340027 L 10.0 -0.22926661372184753 L 11.0 -0.22926661372184753 L 11.0 -0.2505089044570923 L 12.0 -0.2505089044570923 L 12.0 -0.30618229508399963 L 13.0 -0.30618229508399963 L 13.0 -0.6149124503135681 L 14.0 -0.6149124503135681 L 14.0 -0.8705422878265381 L 15.0 -0.8705422878265381 L 15.0 -1.0090070962905884 L 16.0 -1.0090070962905884 L 16.0 -0.9619665145874023 L 17.0 -0.9619665145874023 L 17.0 -0.5806422829627991 L 18.0 -0.5806422829627991 L 18.0 -0.33283722400665283 L 19.0 -0.33283722400665283 L 19.0 -0.133057102560997 L 20.0 -0.133057102560997 L 20.0 -0.3331110179424286 L 21.0 -0.3331110179424286 L 21.0 -0.3753860592842102 L 22.0 -0.3753860592842102 L 22.0 -1.2092889547348022 L 23.0 -1.2092889547348022 L 23.0 0.02112554758787155 L 24.0 0.02112554758787155 L 24.0 -0.1784762144088745 L 25.0 -0.1784762144088745 L 25.0 -0.1784762144088745 L 24.0 -0.1784762144088745 L 24.0 0.02112554758787155 L 23.0 0.02112554758787155 L 23.0 -1.2092889547348022 L 22.0 -1.2092889547348022 L 22.0 -0.3753860592842102 L 21.0 -0.3753860592842102 L 21.0 -0.3331110179424286 L 20.0 -0.3331110179424286 L 20.0 -0.133057102560997 L 19.0 -0.133057102560997 L 19.0 -0.33283722400665283 L 18.0 -0.33283722400665283 L 18.0 -0.5806422829627991 L 17.0 -0.5806422829627991 L 17.0 -0.9619665145874023 L 16.0 -0.9619665145874023 L 16.0 -1.0090070962905884 L 15.0 -1.0090070962905884 L 15.0 -0.8705422878265381 L 14.0 -0.8705422878265381 L 14.0 -0.6149124503135681 L 13.0 -0.6149124503135681 L 13.0 -0.30618229508399963 L 12.0 -0.30618229508399963 L 12.0 -0.2505089044570923 L 11.0 -0.2505089044570923 L 11.0 -0.22926661372184753 L 10.0 -0.22926661372184753 L 10.0 -0.3391358256340027 L 9.0 -0.3391358256340027 L 9.0 -0.002570859156548977 L 8.0 -0.002570859156548977 L 8.0 0.3851809799671173 L 7.0 0.3851809799671173 L 7.0 -0.2272660881280899 L 6.0 -0.2272660881280899 L 6.0 0.2079765647649765 L 5.0 0.2079765647649765 L 5.0 -0.36801496148109436 L 4.0 -0.36801496148109436 L 4.0 -0.03169550001621246 L 3.0 -0.03169550001621246 L 3.0 -0.2992868721485138 L 2.0 -0.2992868721485138 L 2.0 0.09689045697450638 L 1.0 0.09689045697450638 L 1.0 0.033044930547475815 L 0.0 0.033044930547475815 Z" style="vector-effect: non-scaling-stroke;" /></g></g><g style="stroke: black;stroke-width: 1.2000000000000002;" transform="matrix(1.0, 0.0, 0.0, 1.0, 0.0, 0.0)"><path d="M 0.0 0.033044930547475815 L 1.0 0.033044930547475815 L 1.0 0.09689045697450638 L 2.0 0.09689045697450638 L 2.0 -0.2992868721485138 L 3.0 -0.2992868721485138 L 3.0 -0.03169550001621246 L 4.0 -0.03169550001621246 L 4.0 -0.36801496148109436 L 5.0 -0.36801496148109436 L 5.0 0.2079765647649765 L 6.0 0.2079765647649765 L 6.0 -0.2272660881280899 L 7.0 -0.2272660881280899 L 7.0 0.3851809799671173 L 8.0 0.3851809799671173 L 8.0 -0.002570859156548977 L 9.0 -0.002570859156548977 L 9.0 -0.3391358256340027 L 10.0 -0.3391358256340027 L 10.0 -0.22926661372184753 L 11.0 -0.22926661372184753 L 11.0 -0.2505089044570923 L 12.0 -0.2505089044570923 L 12.0 -0.30618229508399963 L 13.0 -0.30618229508399963 L 13.0 -0.6149124503135681 L 14.0 -0.6149124503135681 L 14.0 -0.8705422878265381 L 15.0 -0.8705422878265381 L 15.0 -1.0090070962905884 L 16.0 -1.0090070962905884 L 16.0 -0.9619665145874023 L 17.0 -0.9619665145874023 L 17.0 -0.5806422829627991 L 18.0 -0.5806422829627991 L 18.0 -0.33283722400665283 L 19.0 -0.33283722400665283 L 19.0 -0.133057102560997 L 20.0 -0.133057102560997 L 20.0 -0.3331110179424286 L 21.0 -0.3331110179424286 L 21.0 -0.3753860592842102 L 22.0 -0.3753860592842102 L 22.0 -1.2092889547348022 L 23.0 -1.2092889547348022 L 23.0 0.02112554758787155 L 24.0 0.02112554758787155 L 24.0 -0.1784762144088745 L 25.0 -0.1784762144088745" style="vector-effect: non-scaling-stroke;fill:none;" /></g></g></g></g></g></g></g></g><g /></g></g></g></g></svg>