<?xml version="1.0" encoding="utf-8" ?>
<svg baseProfile="full" height="300" version="1.1" width="852" xmlns="http://www.w3.org/2000/svg" xmlns:ev="http://www.w3.org/2001/xml-events" xmlns:xlink="http://www.w3.org/1999/xlink"><defs><marker id="arrow" markerHeight="3.5" markerWidth="5" orient="auto" refX="5.0" refY="1.7"><polygon points="0,0 5,1.75 0,3.5" /></marker></defs><g style="fill:white;"><g transform="matrix(1.0, 0.0, 0.0, 1.0, 426.13636363636357, 150.0)"><g transform="matrix(1082.2510822510822, 0.0, 0.0, 1082.2510822510822, 0.0, 0.0)"><g><g transform="matrix(1.0, 0.0, 0.0, 1.0, -5.551115123125783e-17, -0.08000000000000002)"><g><g><g style="fill: #ffffff;stroke: black;stroke-width: 1.2000000000000002;" transform="matrix(1.0, 0.0, 0.0, 1.0, -0.3749999999999999, -0.052000000000000005)"><path d="M 0.0 0.0 L 0.7499999999999999 0.0 L 0.7499999999999999 0.264 L 0.0 0.264 L 0.0 0.0 Z" style="vector-effect: non-scaling-stroke;" /></g><g><g><g><g><g><g transform="matrix(1.0, 0.0, 0.0, 1.0, -0.32499999999999996, -0.03)"><g transform="matrix(1.0, 0.0, 0.0, 1.0, 0.075, 0.0)"><g transform="matrix(1.0, 0.0, 0.0, 1.0, 0.0, 0.03)"><g transform="matrix(0.01, 0.0, 0.0, 0.01, 0.0, 0.0)"><g><g><g transform="matrix(1.0, 0.0, 0.0, 1.0, 25.0, 0.0)"><g transform="matrix(1.0, 0.0, 0.0, 1.0, -32.5, -0.0)"><g><g style="fill: #d3d3d3;stroke: black;stroke-width: 1.2000000000000002;" transform="matrix(1.0, 0.0, 0.0, 1.0, 0.0, -3.0)"><path d="M 0.0 0.0 L 65.0 0.0 L 65.0 6.0 L 0.0 6.0 L 0.0 0.0 Z" style="vector-effect: non-scaling-stroke;" /></g><g transform="matrix(1.0, 0.0, 0.0, 1.0, 1.875, 0.0)"><g><g style="stroke: black;stroke-width: 1.2000000000000002;" transform="matrix(1.0, 0.0, 0.0, 1.0, 0.0, 0.0)"><g /></g><g style="fill: #ffa500;stroke: black;stroke-width: 1.2000000000000002;" transform="matrix(1.0, 0.0, 0.0, 1.0, 1.875, 0.0)"><text style="text-align:center; text-anchor:middle; dominant-baseline:middle;&#10;                      font-family:sans-serif; font-weight: bold;&#10;                      font-size:3px;&#10;                      vector-effect: non-scaling-stroke;" transform="translate(-5e-05, 0)">x</text></g></g></g></g></g></g><g><g><g><g style="stroke: black;stroke-width: 1.2000000000000002;" transform="matrix(1.0, 0.0, 0.0, 1.0, 0.0, 0.0)"><path d="M 0.0 -2.0 L 0.0 2.0" style="vector-effect: non-scaling-stroke;fill:none;" /></g><g style="stroke: #808080;stroke-width: 0.6000000000000001;" transform="matrix(1.0, 0.0, 0.0, 1.0, 0.0, 0.0)"><path d="M 0.0 0.0 L 50.0 0.0" style="vector-effect: non-scaling-stroke;fill:none;" /></g></g><g style="stroke: black;stroke-width: 2.4000000000000004;" transform="matrix(1.0, 0.0, 0.0, 1.0, 0.0, 0.0)"><path d="M 0.0 0.6294554471969604 L 1.0 0.6294554471969604 L 1.0 -0.7630185484886169 L 2.0 -0.7630185484886169 L 2.0 0.7423406839370728 L 3.0 0.7423406839370728 L 3.0 -0.7195001244544983 L 4.0 -0.7195001244544983 L 4.0 -0.8506177663803101 L 5.0 -0.8506177663803101 L 5.0 -0.04162389412522316 L 6.0 -0.04162389412522316 L 6.0 -0.5394607186317444 L 7.0 -0.5394607186317444 L 7.0 0.6511825919151306 L 8.0 0.6511825919151306 L 8.0 -0.9970746040344238 L 9.0 -0.9970746040344238 L 9.0 -0.3729616403579712 L 10.0 -0.3729616403579712 L 10.0 -1.1159924268722534 L 11.0 -1.1159924268722534 L 11.0 -1.0723556280136108 L 12.0 -1.0723556280136108 L 12.0 -1.3392082452774048 L 13.0 -1.3392082452774048 L 13.0 -0.686776876449585 L 14.0 -0.686776876449585 L 14.0 0.2867467999458313 L 15.0 0.2867467999458313 L 15.0 -1.0087007284164429 L 16.0 -1.0087007284164429 L 16.0 -0.554456353187561 L 17.0 -0.554456353187561 L 17.0 -1.2993707656860352 L 18.0 -1.2993707656860352 L 18.0 -0.1132640615105629 L 19.0 -0.1132640615105629 L 19.0 -0.8664798736572266 L 20.0 -0.8664798736572266 L 20.0 -0.1250760704278946 L 21.0 -0.1250760704278946 L 21.0 -1.7989071607589722 L 22.0 -1.7989071607589722 L 22.0 -0.3140564560890198 L 23.0 -0.3140564560890198 L 23.0 -0.9732550978660583 L 24.0 -0.9732550978660583 L 24.0 -0.8565048575401306 L 25.0 -0.8565048575401306 L 25.0 0.0058234576135873795 L 26.0 0.0058234576135873795 L 26.0 -1.0786224603652954 L 27.0 -1.0786224603652954 L 27.0 -0.603357195854187 L 28.0 -0.603357195854187 L 28.0 -0.774581789970398 L 29.0 -0.774581789970398 L 29.0 -0.32056427001953125 L 30.0 -0.32056427001953125 L 30.0 -0.13431136310100555 L 31.0 -0.13431136310100555 L 31.0 -0.7048913836479187 L 32.0 -0.7048913836479187 L 32.0 -0.9286437630653381 L 33.0 -0.9286437630653381 L 33.0 -0.566573441028595 L 34.0 -0.566573441028595 L 34.0 -0.8370925784111023 L 35.0 -0.8370925784111023 L 35.0 -1.097080111503601 L 36.0 -1.097080111503601 L 36.0 -1.520912528038025 L 37.0 -1.520912528038025 L 37.0 -0.42788299918174744 L 38.0 -0.42788299918174744 L 38.0 -0.9847083687782288 L 39.0 -0.9847083687782288 L 39.0 -1.7939623594284058 L 40.0 -1.7939623594284058 L 40.0 -1.3936399221420288 L 41.0 -1.3936399221420288 L 41.0 -0.647120475769043 L 42.0 -0.647120475769043 L 42.0 -1.794860601425171 L 43.0 -1.794860601425171 L 43.0 0.024191511794924736 L 44.0 0.024191511794924736 L 44.0 -0.2459212690591812 L 45.0 -0.2459212690591812 L 45.0 -1.0625756978988647 L 46.0 -1.0625756978988647 L 46.0 -0.7969610691070557 L 47.0 -0.7969610691070557 L 47.0 -1.5579208135604858 L 48.0 -1.5579208135604858 L 48.0 -0.23981119692325592 L 49.0 -0.23981119692325592 L 49.0 -0.12162651866674423 L 50.0 -0.12162651866674423" style="vector-effect: non-scaling-stroke;fill:none;" /></g></g></g></g><g><g><g><g style="stroke: black;stroke-width: 1.2000000000000002;" transform="matrix(1.0, 0.0, 0.0, 1.0, 0.0, 0.0)"><path d="M 0.0 -2.0 L 0.0 2.0" style="vector-effect: non-scaling-stroke;fill:none;" /></g><g style="stroke: #808080;stroke-width: 0.6000000000000001;" transform="matrix(1.0, 0.0, 0.0, 1.0, 0.0, 0.0)"><path d="M 0.0 0.0 L 50.0 0.0" style="vector-effect: non-scaling-stroke;fill:none;" /></g></g><g style="stroke: black;stroke-width: 2.4000000000000004;" transform="matrix(1.0, 0.0, 0.0, 1.0, 0.0, 0.0)"><path d="M 0.0 0.6294554471969604 L 1.0 0.6294554471969604 L 1.0 -0.7630185484886169 L 2.0 -0.7630185484886169 L 2.0 0.7423406839370728 L 3.0 0.7423406839370728 L 3.0 -0.7195001244544983 L 4.0 -0.7195001244544983 L 4.0 -0.8506177663803101 L 5.0 -0.8506177663803101 L 5.0 -0.04162389412522316 L 6.0 -0.04162389412522316 L 6.0 -0.5394607186317444 L 7.0 -0.5394607186317444 L 7.0 0.6511825919151306 L 8.0 0.6511825919151306 L 8.0 -0.9970746040344238 L 9.0 -0.9970746040344238 L 9.0 -0.3729616403579712 L 10.0 -0.3729616403579712 L 10.0 -1.1159924268722534 L 11.0 -1.1159924268722534 L 11.0 -1.0723556280136108 L 12.0 -1.0723556280136108 L 12.0 -1.3392082452774048 L 13.0 -1.3392082452774048 L 13.0 -0.686776876449585 L 14.0 -0.686776876449585 L 14.0 0.2867467999458313 L 15.0 0.2867467999458313 L 15.0 -1.0087007284164429 L 16.0 -1.0087007284164429 L 16.0 -0.554456353187561 L 17.0 -0.554456353187561 L 17.0 -1.2993707656860352 L 18.0 -1.2993707656860352 L 18.0 -0.1132640615105629 L 19.0 -0.1132640615105629 L 19.0 -0.8664798736572266 L 20.0 -0.8664798736572266 L 20.0 -0.1250760704278946 L 21.0 -0.1250760704278946 L 21.0 -1.7989071607589722 L 22.0 -1.7989071607589722 L 22.0 -0.3140564560890198 L 23.0 -0.3140564560890198 L 23.0 -0.9732550978660583 L 24.0 -0.9732550978660583 L 24.0 -0.8565048575401306 L 25.0 -0.8565048575401306 L 25.0 0.0058234576135873795 L 26.0 0.0058234576135873795 L 26.0 -1.0786224603652954 L 27.0 -1.0786224603652954 L 27.0 -0.603357195854187 L 28.0 -0.603357195854187 L 28.0 -0.774581789970398 L 29.0 -0.774581789970398 L 29.0 -0.32056427001953125 L 30.0 -0.32056427001953125 L 30.0 -0.13431136310100555 L 31.0 -0.13431136310100555 L 31.0 -0.7048913836479187 L 32.0 -0.7048913836479187 L 32.0 -0.9286437630653381 L 33.0 -0.9286437630653381 L 33.0 -0.566573441028595 L 34.0 -0.566573441028595 L 34.0 -0.8370925784111023 L 35.0 -0.8370925784111023 L 35.0 -1.097080111503601 L 36.0 -1.097080111503601 L 36.0 -1.520912528038025 L 37.0 -1.520912528038025 L 37.0 -0.42788299918174744 L 38.0 -0.42788299918174744 L 38.0 -0.9847083687782288 L 39.0 -0.9847083687782288 L 39.0 -1.7939623594284058 L 40.0 -1.7939623594284058 L 40.0 -1.3936399221420288 L 41.0 -1.3936399221420288 L 41.0 -0.647120475769043 L 42.0 -0.647120475769043 L 42.0 -1.794860601425171 L 43.0 -1.794860601425171 L 43.0 0.024191511794924736 L 44.0 0.024191511794924736 L 44.0 -0.2459212690591812 L 45.0 -0.2459212690591812 L 45.0 -1.0625756978988647 L 46.0 -1.0625756978988647 L 46.0 -0.7969610691070557 L 47.0 -0.7969610691070557 L 47.0 -1.5579208135604858 L 48.0 -1.5579208135604858 L 48.0 -0.23981119692325592 L 49.0 -0.23981119692325592 L 49.0 -0.12162651866674423 L 50.0 -0.12162651866674423" style="vector-effect: non-scaling-stroke;fill:none;" /></g></g></g></g></g></g></g></g><g style="stroke: black;stroke-width: 1.2000000000000002;" transform="matrix(0.0, -1.0, 1.0, 0.0, 0.0, 0.08)"><g /></g></g><g transform="matrix(1.0, 0.0, 0.0, 1.0, 0.0, 0.16)"><g transform="matrix(1.0, 0.0, 0.0, 1.0, -0.2, -0.03)"><g transform="matrix(1.0, 0.0, 0.0, 1.0, 0.075, 0.0)"><g transform="matrix(1.0, 0.0, 0.0, 1.0, 0.0, 0.03)"><g transform="matrix(0.01, 0.0, 0.0, 0.01, 0.0, 0.0)"><g><g><g transform="matrix(1.0, 0.0, 0.0, 1.0, 12.5, 0.0)"><g transform="matrix(1.0, 0.0, 0.0, 1.0, -20.0, -0.0)"><g><g style="fill: #d3d3d3;stroke: black;stroke-width: 1.2000000000000002;" transform="matrix(1.0, 0.0, 0.0, 1.0, 0.0, -3.0)"><path d="M 0.0 0.0 L 40.0 0.0 L 40.0 6.0 L 0.0 6.0 L 0.0 0.0 Z" style="vector-effect: non-scaling-stroke;" /></g><g transform="matrix(1.0, 0.0, 0.0, 1.0, 1.875, 0.0)"><g><g style="stroke: black;stroke-width: 1.2000000000000002;" transform="matrix(1.0, 0.0, 0.0, 1.0, 0.0, 0.0)"><g /></g><g style="fill: #ffa500;stroke: black;stroke-width: 1.2000000000000002;" transform="matrix(1.0, 0.0, 0.0, 1.0, 1.875, 0.0)"><text style="text-align:center; text-anchor:middle; dominant-baseline:middle;&#10;                      font-family:sans-serif; font-weight: bold;&#10;                      font-size:3px;&#10;                      vector-effect: non-scaling-stroke;" transform="translate(-5e-05, 0)">f(x)</text></g></g></g></g></g></g><g><g><g><g style="stroke: black;stroke-width: 1.2000000000000002;" transform="matrix(1.0, 0.0, 0.0, 1.0, 0.0, 0.0)"><path d="M 0.0 -2.0 L 0.0 2.0" style="vector-effect: non-scaling-stroke;fill:none;" /></g><g style="stroke: #808080;stroke-width: 0.6000000000000001;" transform="matrix(1.0, 0.0, 0.0, 1.0, 0.0, 0.0)"><path d="M 0.0 0.0 L 25.0 0.0" style="vector-effect: non-scaling-stroke;fill:none;" /></g></g><g style="stroke: black;stroke-width: 2.4000000000000004;" transform="matrix(1.0, 0.0, 0.0, 1.0, 0.0, 0.0)"><path d="M 0.0 -1.1159924268722534 L 1.0 -1.1159924268722534 L 1.0 -1.0723556280136108 L 2.0 -1.0723556280136108 L 2.0 -1.3392082452774048 L 3.0 -1.3392082452774048 L 3.0 -0.686776876449585 L 4.0 -0.686776876449585 L 4.0 0.2867467999458313 L 5.0 0.2867467999458313 L 5.0 -1.0087007284164429 L 6.0 -1.0087007284164429 L 6.0 -0.554456353187561 L 7.0 -0.554456353187561 L 7.0 -1.2993707656860352 L 8.0 -1.2993707656860352 L 8.0 -0.1132640615105629 L 9.0 -0.1132640615105629 L 9.0 -0.8664798736572266 L 10.0 -0.8664798736572266 L 10.0 -0.1250760704278946 L 11.0 -0.1250760704278946 L 11.0 -1.7989071607589722 L 12.0 -1.7989071607589722 L 12.0 -0.3140564560890198 L 13.0 -0.3140564560890198 L 13.0 -0.9732550978660583 L 14.0 -0.9732550978660583 L 14.0 -0.8565048575401306 L 15.0 -0.8565048575401306 L 15.0 0.0058234576135873795 L 16.0 0.0058234576135873795 L 16.0 -1.0786224603652954 L 17.0 -1.0786224603652954 L 17.0 -0.603357195854187 L 18.0 -0.603357195854187 L 18.0 -0.774581789970398 L 19.0 -0.774581789970398 L 19.0 -0.32056427001953125 L 20.0 -0.32056427001953125 L 20.0 -0.13431136310100555 L 21.0 -0.13431136310100555 L 21.0 -0.7048913836479187 L 22.0 -0.7048913836479187 L 22.0 -0.9286437630653381 L 23.0 -0.9286437630653381 L 23.0 -0.566573441028595 L 24.0 -0.566573441028595 L 24.0 -0.8370925784111023 L 25.0 -0.8370925784111023" style="vector-effect: non-scaling-stroke;fill:none;" /></g></g></g></g><g><g><g><g style="stroke: black;stroke-width: 1.2000000000000002;" transform="matrix(1.0, 0.0, 0.0, 1.0, 0.0, 0.0)"><path d="M 0.0 -2.0 L 0.0 2.0" style="vector-effect: non-scaling-stroke;fill:none;" /></g><g style="stroke: #808080;stroke-width: 0.6000000000000001;" transform="matrix(1.0, 0.0, 0.0, 1.0, 0.0, 0.0)"><path d="M 0.0 0.0 L 25.0 0.0" style="vector-effect: non-scaling-stroke;fill:none;" /></g></g><g style="stroke: black;stroke-width: 2.4000000000000004;" transform="matrix(1.0, 0.0, 0.0, 1.0, 0.0, 0.0)"><path d="M 0.0 -1.1159924268722534 L 1.0 -1.1159924268722534 L 1.0 -1.0723556280136108 L 2.0 -1.0723556280136108 L 2.0 -1.3392082452774048 L 3.0 -1.3392082452774048 L 3.0 -0.686776876449585 L 4.0 -0.686776876449585 L 4.0 0.2867467999458313 L 5.0 0.2867467999458313 L 5.0 -1.0087007284164429 L 6.0 -1.0087007284164429 L 6.0 -0.554456353187561 L 7.0 -0.554456353187561 L 7.0 -1.2993707656860352 L 8.0 -1.2993707656860352 L 8.0 -0.1132640615105629 L 9.0 -0.1132640615105629 L 9.0 -0.8664798736572266 L 10.0 -0.8664798736572266 L 10.0 -0.1250760704278946 L 11.0 -0.1250760704278946 L 11.0 -1.7989071607589722 L 12.0 -1.7989071607589722 L 12.0 -0.3140564560890198 L 13.0 -0.3140564560890198 L 13.0 -0.9732550978660583 L 14.0 -0.9732550978660583 L 14.0 -0.8565048575401306 L 15.0 -0.8565048575401306 L 15.0 0.0058234576135873795 L 16.0 0.0058234576135873795 L 16.0 -1.0786224603652954 L 17.0 -1.0786224603652954 L 17.0 -0.603357195854187 L 18.0 -0.603357195854187 L 18.0 -0.774581789970398 L 19.0 -0.774581789970398 L 19.0 -0.32056427001953125 L 20.0 -0.32056427001953125 L 20.0 -0.13431136310100555 L 21.0 -0.13431136310100555 L 21.0 -0.7048913836479187 L 22.0 -0.7048913836479187 L 22.0 -0.9286437630653381 L 23.0 -0.9286437630653381 L 23.0 -0.566573441028595 L 24.0 -0.566573441028595 L 24.0 -0.8370925784111023 L 25.0 -0.8370925784111023" style="vector-effect: non-scaling-stroke;fill:none;" /></g></g></g></g></g></g></g></g></g></g><g transform="matrix(1.0, 0.0, 0.0, 1.0, -0.125, 0.16)"><g transform="matrix(1.0, 0.0, 0.0, 0.009999999999999995, 0.0, 0.0)"><g transform="matrix(0.01, 0.0, 0.0, 1.0, 0.0, 0.0)"><g><g><g style="fill: #ff0000;stroke: #ff0000;stroke-width: 1.2000000000000002;fill-opacity: 0.5;" transform="matrix(1.0, 0.0, 0.0, 1.0, 0.0, 0.0)"><path d="M 0.0 -2.0 L 0.0 2.0" style="vector-effect: non-scaling-stroke;fill:none;" /></g><g style="fill: #ff0000;stroke: #ff0000;stroke-width: 1.2000000000000002;fill-opacity: 0.5;" transform="matrix(1.0, 0.0, 0.0, 1.0, 0.0, 0.0)"><path d="M 0.0 -1.1159924268722534 L 1.0 -1.1159924268722534 L 1.0 -1.0723556280136108 L 2.0 -1.0723556280136108 L 2.0 -1.3392082452774048 L 3.0 -1.3392082452774048 L 3.0 -0.686776876449585 L 4.0 -0.686776876449585 L 4.0 0.2867467999458313 L 5.0 0.2867467999458313 L 5.0 -1.0087007284164429 L 6.0 -1.0087007284164429 L 6.0 -0.554456353187561 L 7.0 -0.554456353187561 L 7.0 -1.2993707656860352 L 8.0 -1.2993707656860352 L 8.0 -0.1132640615105629 L 9.0 -0.1132640615105629 L 9.0 -0.8664798736572266 L 10.0 -0.8664798736572266 L 10.0 -0.1250760704278946 L 11.0 -0.1250760704278946 L 11.0 -1.7989071607589722 L 12.0 -1.7989071607589722 L 12.0 -0.3140564560890198 L 13.0 -0.3140564560890198 L 13.0 -0.9732550978660583 L 14.0 -0.9732550978660583 L 14.0 -0.8565048575401306 L 15.0 -0.8565048575401306 L 15.0 0.0058234576135873795 L 16.0 0.0058234576135873795 L 16.0 -1.0786224603652954 L 17.0 -1.0786224603652954 L 17.0 -0.603357195854187 L 18.0 -0.603357195854187 L 18.0 -0.774581789970398 L 19.0 -0.774581789970398 L 19.0 -0.32056427001953125 L 20.0 -0.32056427001953125 L 20.0 -0.13431136310100555 L 21.0 -0.13431136310100555 L 21.0 -0.7048913836479187 L 22.0 -0.7048913836479187 L 22.0 -0.9286437630653381 L 23.0 -0.9286437630653381 L 23.0 -0.566573441028595 L 24.0 -0.566573441028595 L 24.0 -0.8370925784111023 L 25.0 -0.8370925784111023 L 25.0 -0.8370925784111023 L 24.0 -0.8370925784111023 L 24.0 -0.566573441028595 L 23.0 -0.566573441028595 L 23.0 -0.9286437630653381 L 22.0 -0.9286437630653381 L 22.0 -0.7048913836479187 L 21.0 -0.7048913836479187 L 21.0 -0.13431136310100555 L 20.0 -0.13431136310100555 L 20.0 -0.32056427001953125 L 19.0 -0.32056427001953125 L 19.0 -0.774581789970398 L 18.0 -0.774581789970398 L 18.0 -0.603357195854187 L 17.0 -0.603357195854187 L 17.0 -1.0786224603652954 L 16.0 -1.0786224603652954 L 16.0 0.0058234576135873795 L 15.0 0.0058234576135873795 L 15.0 -0.8565048575401306 L 14.0 -0.8565048575401306 L 14.0 -0.9732550978660583 L 13.0 -0.9732550978660583 L 13.0 -0.3140564560890198 L 12.0 -0.3140564560890198 L 12.0 -1.7989071607589722 L 11.0 -1.7989071607589722 L 11.0 -0.1250760704278946 L 10.0 -0.1250760704278946 L 10.0 -0.8664798736572266 L 9.0 -0.8664798736572266 L 9.0 -0.1132640615105629 L 8.0 -0.1132640615105629 L 8.0 -1.2993707656860352 L 7.0 -1.2993707656860352 L 7.0 -0.554456353187561 L 6.0 -0.554456353187561 L 6.0 -1.0087007284164429 L 5.0 -1.0087007284164429 L 5.0 0.2867467999458313 L 4.0 0.2867467999458313 L 4.0 -0.686776876449585 L 3.0 -0.686776876449585 L 3.0 -1.3392082452774048 L 2.0 -1.3392082452774048 L 2.0 -1.0723556280136108 L 1.0 -1.0723556280136108 L 1.0 -1.1159924268722534 L 0.0 -1.1159924268722534 Z" style="vector-effect: non-scaling-stroke;" /></g></g><g style="stroke: black;stroke-width: 1.2000000000000002;" transform="matrix(1.0, 0.0, 0.0, 1.0, 0.0, 0.0)"><path d="M 0.0 -1.1159924268722534 L 1.0 -1.1159924268722534 L 1.0 -1.0723556280136108 L 2.0 -1.0723556280136108 L 2.0 -1.3392082452774048 L 3.0 -1.3392082452774048 L 3.0 -0.686776876449585 L 4.0 -0.686776876449585 L 4.0 0.2867467999458313 L 5.0 0.2867467999458313 L 5.0 -1.0087007284164429 L 6.0 -1.0087007284164429 L 6.0 -0.554456353187561 L 7.0 -0.554456353187561 L 7.0 -1.2993707656860352 L 8.0 -1.2993707656860352 L 8.0 -0.1132640615105629 L 9.0 -0.1132640615105629 L 9.0 -0.8664798736572266 L 10.0 -0.8664798736572266 L 10.0 -0.1250760704278946 L 11.0 -0.1250760704278946 L 11.0 -1.7989071607589722 L 12.0 -1.7989071607589722 L 12.0 -0.3140564560890198 L 13.0 -0.3140564560890198 L 13.0 -0.9732550978660583 L 14.0 -0.9732550978660583 L 14.0 -0.8565048575401306 L 15.0 -0.8565048575401306 L 15.0 0.0058234576135873795 L 16.0 0.0058234576135873795 L 16.0 -1.0786224603652954 L 17.0 -1.0786224603652954 L 17.0 -0.603357195854187 L 18.0 -0.603357195854187 L 18.0 -0.774581789970398 L 19.0 -0.774581789970398 L 19.0 -0.32056427001953125 L 20.0 -0.32056427001953125 L 20.0 -0.13431136310100555 L 21.0 -0.13431136310100555 L 21.0 -0.7048913836479187 L 22.0 -0.7048913836479187 L 22.0 -0.9286437630653381 L 23.0 -0.9286437630653381 L 23.0 -0.566573441028595 L 24.0 -0.566573441028595 L 24.0 -0.8370925784111023 L 25.0 -0.8370925784111023" style="vector-effect: non-scaling-stroke;fill:none;" /></g></g></g></g></g></g><g transform="matrix(1.0, 0.0, 0.0, 1.0, -0.125, 0.16)"><g transform="matrix(1.0, 0.0, 0.0, 0.009999999999999995, 0.0, 0.0)"><g transform="matrix(0.01, 0.0, 0.0, 1.0, 0.0, 0.0)"><g><g><g style="fill: #ffffe0;stroke: #ffffe0;stroke-width: 1.2000000000000002;fill-opacity: 0.5;" transform="matrix(1.0, 0.0, 0.0, 1.0, 0.0, 0.0)"><path d="M 0.0 -2.0 L 0.0 2.0" style="vector-effect: non-scaling-stroke;fill:none;" /></g><g style="fill: #ffffe0;stroke: #ffffe0;stroke-width: 1.2000000000000002;fill-opacity: 0.5;" transform="matrix(1.0, 0.0, 0.0, 1.0, 0.0, 0.0)"><path d="M 0.0 -2.0 L 1.0 -2.0 L 1.0 -2.0 L 2.0 -2.0 L 2.0 -2.0 L 3.0 -2.0 L 3.0 -2.0 L 4.0 -2.0 L 4.0 -1.712989091873169 L 5.0 -1.712989091873169 L 5.0 -2.0 L 6.0 -2.0 L 6.0 -2.0 L 7.0 -2.0 L 7.0 -2.0 L 8.0 -2.0 L 8.0 -2.0 L 9.0 -2.0 L 9.0 -2.0 L 10.0 -2.0 L 10.0 -2.0 L 11.0 -2.0 L 11.0 -2.0 L 12.0 -2.0 L 12.0 -2.0 L 13.0 -2.0 L 13.0 -2.0 L 14.0 -2.0 L 14.0 -2.0 L 15.0 -2.0 L 15.0 -1.9941917657852173 L 16.0 -1.9941917657852173 L 16.0 -2.0 L 17.0 -2.0 L 17.0 -2.0 L 18.0 -2.0 L 18.0 -2.0 L 19.0 -2.0 L 19.0 -2.0 L 20.0 -2.0 L 20.0 -2.0 L 21.0 -2.0 L 21.0 -2.0 L 22.0 -2.0 L 22.0 -2.0 L 23.0 -2.0 L 23.0 -2.0 L 24.0 -2.0 L 24.0 -2.0 L 25.0 -2.0 L 25.0 -0.8370925784111023 L 24.0 -0.8370925784111023 L 24.0 -0.566573441028595 L 23.0 -0.566573441028595 L 23.0 -0.9286437630653381 L 22.0 -0.9286437630653381 L 22.0 -0.7048913836479187 L 21.0 -0.7048913836479187 L 21.0 -0.13431136310100555 L 20.0 -0.13431136310100555 L 20.0 -0.32056427001953125 L 19.0 -0.32056427001953125 L 19.0 -0.774581789970398 L 18.0 -0.774581789970398 L 18.0 -0.603357195854187 L 17.0 -0.603357195854187 L 17.0 -1.0786224603652954 L 16.0 -1.0786224603652954 L 16.0 0.0058234576135873795 L 15.0 0.0058234576135873795 L 15.0 -0.8565048575401306 L 14.0 -0.8565048575401306 L 14.0 -0.9732550978660583 L 13.0 -0.9732550978660583 L 13.0 -0.3140564560890198 L 12.0 -0.3140564560890198 L 12.0 -1.7989071607589722 L 11.0 -1.7989071607589722 L 11.0 -0.1250760704278946 L 10.0 -0.1250760704278946 L 10.0 -0.8664798736572266 L 9.0 -0.8664798736572266 L 9.0 -0.1132640615105629 L 8.0 -0.1132640615105629 L 8.0 -1.2993707656860352 L 7.0 -1.2993707656860352 L 7.0 -0.554456353187561 L 6.0 -0.554456353187561 L 6.0 -1.0087007284164429 L 5.0 -1.0087007284164429 L 5.0 0.2867467999458313 L 4.0 0.2867467999458313 L 4.0 -0.686776876449585 L 3.0 -0.686776876449585 L 3.0 -1.3392082452774048 L 2.0 -1.3392082452774048 L 2.0 -1.0723556280136108 L 1.0 -1.0723556280136108 L 1.0 -1.1159924268722534 L 0.0 -1.1159924268722534 Z" style="vector-effect: non-scaling-stroke;" /></g></g><g style="stroke: black;stroke-width: 1.2000000000000002;" transform="matrix(1.0, 0.0, 0.0, 1.0, 0.0, 0.0)"><path d="M 0.0 -1.1159924268722534 L 1.0 -1.1159924268722534 L 1.0 -1.0723556280136108 L 2.0 -1.0723556280136108 L 2.0 -1.3392082452774048 L 3.0 -1.3392082452774048 L 3.0 -0.686776876449585 L 4.0 -0.686776876449585 L 4.0 0.2867467999458313 L 5.0 0.2867467999458313 L 5.0 -1.0087007284164429 L 6.0 -1.0087007284164429 L 6.0 -0.554456353187561 L 7.0 -0.554456353187561 L 7.0 -1.2993707656860352 L 8.0 -1.2993707656860352 L 8.0 -0.1132640615105629 L 9.0 -0.1132640615105629 L 9.0 -0.8664798736572266 L 10.0 -0.8664798736572266 L 10.0 -0.1250760704278946 L 11.0 -0.1250760704278946 L 11.0 -1.7989071607589722 L 12.0 -1.7989071607589722 L 12.0 -0.3140564560890198 L 13.0 -0.3140564560890198 L 13.0 -0.9732550978660583 L 14.0 -0.9732550978660583 L 14.0 -0.8565048575401306 L 15.0 -0.8565048575401306 L 15.0 0.0058234576135873795 L 16.0 0.0058234576135873795 L 16.0 -1.0786224603652954 L 17.0 -1.0786224603652954 L 17.0 -0.603357195854187 L 18.0 -0.603357195854187 L 18.0 -0.774581789970398 L 19.0 -0.774581789970398 L 19.0 -0.32056427001953125 L 20.0 -0.32056427001953125 L 20.0 -0.13431136310100555 L 21.0 -0.13431136310100555 L 21.0 -0.7048913836479187 L 22.0 -0.7048913836479187 L 22.0 -0.9286437630653381 L 23.0 -0.9286437630653381 L 23.0 -0.566573441028595 L 24.0 -0.566573441028595 L 24.0 -0.8370925784111023 L 25.0 -0.8370925784111023" style="vector-effect: non-scaling-stroke;fill:none;" /></g></g></g></g></g></g></g></g><g><g><g><g><g transform="matrix(1.0, 0.0, 0.0, 1.0, -0.32499999999999996, -0.03)"><g transform="matrix(1.0, 0.0, 0.0, 1.0, 0.075, 0.0)"><g transform="matrix(1.0, 0.0, 0.0, 1.0, 0.0, 0.03)"><g transform="matrix(0.01, 0.0, 0.0, 0.01, 0.0, 0.0)"><g><g><g transform="matrix(1.0, 0.0, 0.0, 1.0, 25.0, 0.0)"><g transform="matrix(1.0, 0.0, 0.0, 1.0, -32.5, -0.0)"><g><g style="fill: #d3d3d3;stroke: black;stroke-width: 1.2000000000000002;" transform="matrix(1.0, 0.0, 0.0, 1.0, 0.0, -3.0)"><path d="M 0.0 0.0 L 65.0 0.0 L 65.0 6.0 L 0.0 6.0 L 0.0 0.0 Z" style="vector-effect: non-scaling-stroke;" /></g><g transform="matrix(1.0, 0.0, 0.0, 1.0, 1.875, 0.0)"><g><g style="stroke: black;stroke-width: 1.2000000000000002;" transform="matrix(1.0, 0.0, 0.0, 1.0, 0.0, 0.0)"><g /></g><g style="fill: #ffa500;stroke: black;stroke-width: 1.2000000000000002;" transform="matrix(1.0, 0.0, 0.0, 1.0, 1.875, 0.0)"><text style="text-align:center; text-anchor:middle; dominant-baseline:middle;&#10;                      font-family:sans-serif; font-weight: bold;&#10;                      font-size:3px;&#10;                      vector-effect: non-scaling-stroke;" transform="translate(-5e-05, 0)">x</text></g></g></g></g></g></g><g><g><g><g style="stroke: black;stroke-width: 1.2000000000000002;" transform="matrix(1.0, 0.0, 0.0, 1.0, 0.0, 0.0)"><path d="M 0.0 -2.0 L 0.0 2.0" style="vector-effect: non-scaling-stroke;fill:none;" /></g><g style="stroke: #808080;stroke-width: 0.6000000000000001;" transform="matrix(1.0, 0.0, 0.0, 1.0, 0.0, 0.0)"><path d="M 0.0 0.0 L 50.0 0.0" style="vector-effect: non-scaling-stroke;fill:none;" /></g></g><g style="stroke: black;stroke-width: 2.4000000000000004;" transform="matrix(1.0, 0.0, 0.0, 1.0, 0.0, 0.0)"><path d="M 0.0 0.6294554471969604 L 1.0 0.6294554471969604 L 1.0 -0.7630185484886169 L 2.0 -0.7630185484886169 L 2.0 0.7423406839370728 L 3.0 0.7423406839370728 L 3.0 -0.7195001244544983 L 4.0 -0.7195001244544983 L 4.0 -0.8506177663803101 L 5.0 -0.8506177663803101 L 5.0 -0.04162389412522316 L 6.0 -0.04162389412522316 L 6.0 -0.5394607186317444 L 7.0 -0.5394607186317444 L 7.0 0.6511825919151306 L 8.0 0.6511825919151306 L 8.0 -0.9970746040344238 L 9.0 -0.9970746040344238 L 9.0 -0.3729616403579712 L 10.0 -0.3729616403579712 L 10.0 -1.1159924268722534 L 11.0 -1.1159924268722534 L 11.0 -1.0723556280136108 L 12.0 -1.0723556280136108 L 12.0 -1.3392082452774048 L 13.0 -1.3392082452774048 L 13.0 -0.686776876449585 L 14.0 -0.686776876449585 L 14.0 0.2867467999458313 L 15.0 0.2867467999458313 L 15.0 -1.0087007284164429 L 16.0 -1.0087007284164429 L 16.0 -0.554456353187561 L 17.0 -0.554456353187561 L 17.0 -1.2993707656860352 L 18.0 -1.2993707656860352 L 18.0 -0.1132640615105629 L 19.0 -0.1132640615105629 L 19.0 -0.8664798736572266 L 20.0 -0.8664798736572266 L 20.0 -0.1250760704278946 L 21.0 -0.1250760704278946 L 21.0 -1.7989071607589722 L 22.0 -1.7989071607589722 L 22.0 -0.3140564560890198 L 23.0 -0.3140564560890198 L 23.0 -0.9732550978660583 L 24.0 -0.9732550978660583 L 24.0 -0.8565048575401306 L 25.0 -0.8565048575401306 L 25.0 0.0058234576135873795 L 26.0 0.0058234576135873795 L 26.0 -1.0786224603652954 L 27.0 -1.0786224603652954 L 27.0 -0.603357195854187 L 28.0 -0.603357195854187 L 28.0 -0.774581789970398 L 29.0 -0.774581789970398 L 29.0 -0.32056427001953125 L 30.0 -0.32056427001953125 L 30.0 -0.13431136310100555 L 31.0 -0.13431136310100555 L 31.0 -0.7048913836479187 L 32.0 -0.7048913836479187 L 32.0 -0.9286437630653381 L 33.0 -0.9286437630653381 L 33.0 -0.566573441028595 L 34.0 -0.566573441028595 L 34.0 -0.8370925784111023 L 35.0 -0.8370925784111023 L 35.0 -1.097080111503601 L 36.0 -1.097080111503601 L 36.0 -1.520912528038025 L 37.0 -1.520912528038025 L 37.0 -0.42788299918174744 L 38.0 -0.42788299918174744 L 38.0 -0.9847083687782288 L 39.0 -0.9847083687782288 L 39.0 -1.7939623594284058 L 40.0 -1.7939623594284058 L 40.0 -1.3936399221420288 L 41.0 -1.3936399221420288 L 41.0 -0.647120475769043 L 42.0 -0.647120475769043 L 42.0 -1.794860601425171 L 43.0 -1.794860601425171 L 43.0 0.024191511794924736 L 44.0 0.024191511794924736 L 44.0 -0.2459212690591812 L 45.0 -0.2459212690591812 L 45.0 -1.0625756978988647 L 46.0 -1.0625756978988647 L 46.0 -0.7969610691070557 L 47.0 -0.7969610691070557 L 47.0 -1.5579208135604858 L 48.0 -1.5579208135604858 L 48.0 -0.23981119692325592 L 49.0 -0.23981119692325592 L 49.0 -0.12162651866674423 L 50.0 -0.12162651866674423" style="vector-effect: non-scaling-stroke;fill:none;" /></g></g></g></g><g><g><g><g style="stroke: black;stroke-width: 1.2000000000000002;" transform="matrix(1.0, 0.0, 0.0, 1.0, 0.0, 0.0)"><path d="M 0.0 -2.0 L 0.0 2.0" style="vector-effect: non-scaling-stroke;fill:none;" /></g><g style="stroke: #808080;stroke-width: 0.6000000000000001;" transform="matrix(1.0, 0.0, 0.0, 1.0, 0.0, 0.0)"><path d="M 0.0 0.0 L 50.0 0.0" style="vector-effect: non-scaling-stroke;fill:none;" /></g></g><g style="stroke: black;stroke-width: 2.4000000000000004;" transform="matrix(1.0, 0.0, 0.0, 1.0, 0.0, 0.0)"><path d="M 0.0 0.6294554471969604 L 1.0 0.6294554471969604 L 1.0 -0.7630185484886169 L 2.0 -0.7630185484886169 L 2.0 0.7423406839370728 L 3.0 0.7423406839370728 L 3.0 -0.7195001244544983 L 4.0 -0.7195001244544983 L 4.0 -0.8506177663803101 L 5.0 -0.8506177663803101 L 5.0 -0.04162389412522316 L 6.0 -0.04162389412522316 L 6.0 -0.5394607186317444 L 7.0 -0.5394607186317444 L 7.0 0.6511825919151306 L 8.0 0.6511825919151306 L 8.0 -0.9970746040344238 L 9.0 -0.9970746040344238 L 9.0 -0.3729616403579712 L 10.0 -0.3729616403579712 L 10.0 -1.1159924268722534 L 11.0 -1.1159924268722534 L 11.0 -1.0723556280136108 L 12.0 -1.0723556280136108 L 12.0 -1.3392082452774048 L 13.0 -1.3392082452774048 L 13.0 -0.686776876449585 L 14.0 -0.686776876449585 L 14.0 0.2867467999458313 L 15.0 0.2867467999458313 L 15.0 -1.0087007284164429 L 16.0 -1.0087007284164429 L 16.0 -0.554456353187561 L 17.0 -0.554456353187561 L 17.0 -1.2993707656860352 L 18.0 -1.2993707656860352 L 18.0 -0.1132640615105629 L 19.0 -0.1132640615105629 L 19.0 -0.8664798736572266 L 20.0 -0.8664798736572266 L 20.0 -0.1250760704278946 L 21.0 -0.1250760704278946 L 21.0 -1.7989071607589722 L 22.0 -1.7989071607589722 L 22.0 -0.3140564560890198 L 23.0 -0.3140564560890198 L 23.0 -0.9732550978660583 L 24.0 -0.9732550978660583 L 24.0 -0.8565048575401306 L 25.0 -0.8565048575401306 L 25.0 0.0058234576135873795 L 26.0 0.0058234576135873795 L 26.0 -1.0786224603652954 L 27.0 -1.0786224603652954 L 27.0 -0.603357195854187 L 28.0 -0.603357195854187 L 28.0 -0.774581789970398 L 29.0 -0.774581789970398 L 29.0 -0.32056427001953125 L 30.0 -0.32056427001953125 L 30.0 -0.13431136310100555 L 31.0 -0.13431136310100555 L 31.0 -0.7048913836479187 L 32.0 -0.7048913836479187 L 32.0 -0.9286437630653381 L 33.0 -0.9286437630653381 L 33.0 -0.566573441028595 L 34.0 -0.566573441028595 L 34.0 -0.8370925784111023 L 35.0 -0.8370925784111023 L 35.0 -1.097080111503601 L 36.0 -1.097080111503601 L 36.0 -1.520912528038025 L 37.0 -1.520912528038025 L 37.0 -0.42788299918174744 L 38.0 -0.42788299918174744 L 38.0 -0.9847083687782288 L 39.0 -0.9847083687782288 L 39.0 -1.7939623594284058 L 40.0 -1.7939623594284058 L 40.0 -1.3936399221420288 L 41.0 -1.3936399221420288 L 41.0 -0.647120475769043 L 42.0 -0.647120475769043 L 42.0 -1.794860601425171 L 43.0 -1.794860601425171 L 43.0 0.024191511794924736 L 44.0 0.024191511794924736 L 44.0 -0.2459212690591812 L 45.0 -0.2459212690591812 L 45.0 -1.0625756978988647 L 46.0 -1.0625756978988647 L 46.0 -0.7969610691070557 L 47.0 -0.7969610691070557 L 47.0 -1.5579208135604858 L 48.0 -1.5579208135604858 L 48.0 -0.23981119692325592 L 49.0 -0.23981119692325592 L 49.0 -0.12162651866674423 L 50.0 -0.12162651866674423" style="vector-effect: non-scaling-stroke;fill:none;" /></g></g></g></g></g></g></g></g><g style="stroke: black;stroke-width: 1.2000000000000002;" transform="matrix(0.0, -1.0, 1.0, 0.0, 0.0, 0.08)"><g /></g></g><g transform="matrix(1.0, 0.0, 0.0, 1.0, 0.0, 0.16)"><g transform="matrix(1.0, 0.0, 0.0, 1.0, -0.2, -0.03)"><g transform="matrix(1.0, 0.0, 0.0, 1.0, 0.075, 0.0)"><g transform="matrix(1.0, 0.0, 0.0, 1.0, 0.0, 0.03)"><g transform="matrix(0.01, 0.0, 0.0, 0.01, 0.0, 0.0)"><g><g><g transform="matrix(1.0, 0.0, 0.0, 1.0, 12.5, 0.0)"><g transform="matrix(1.0, 0.0, 0.0, 1.0, -20.0, -0.0)"><g><g style="fill: #d3d3d3;stroke: black;stroke-width: 1.2000000000000002;" transform="matrix(1.0, 0.0, 0.0, 1.0, 0.0, -3.0)"><path d="M 0.0 0.0 L 40.0 0.0 L 40.0 6.0 L 0.0 6.0 L 0.0 0.0 Z" style="vector-effect: non-scaling-stroke;" /></g><g transform="matrix(1.0, 0.0, 0.0, 1.0, 1.875, 0.0)"><g><g style="stroke: black;stroke-width: 1.2000000000000002;" transform="matrix(1.0, 0.0, 0.0, 1.0, 0.0, 0.0)"><g /></g><g style="fill: #ffa500;stroke: black;stroke-width: 1.2000000000000002;" transform="matrix(1.0, 0.0, 0.0, 1.0, 1.875, 0.0)"><text style="text-align:center; text-anchor:middle; dominant-baseline:middle;&#10;                      font-family:sans-serif; font-weight: bold;&#10;                      font-size:3px;&#10;                      vector-effect: non-scaling-stroke;" transform="translate(-5e-05, 0)">f(x)</text></g></g></g></g></g></g><g><g><g><g style="stroke: black;stroke-width: 1.2000000000000002;" transform="matrix(1.0, 0.0, 0.0, 1.0, 0.0, 0.0)"><path d="M 0.0 -2.0 L 0.0 2.0" style="vector-effect: non-scaling-stroke;fill:none;" /></g><g style="stroke: #808080;stroke-width: 0.6000000000000001;" transform="matrix(1.0, 0.0, 0.0, 1.0, 0.0, 0.0)"><path d="M 0.0 0.0 L 25.0 0.0" style="vector-effect: non-scaling-stroke;fill:none;" /></g></g><g style="stroke: black;stroke-width: 2.4000000000000004;" transform="matrix(1.0, 0.0, 0.0, 1.0, 0.0, 0.0)"><path d="M 0.0 -1.1159924268722534 L 1.0 -1.1159924268722534 L 1.0 -1.0723556280136108 L 2.0 -1.0723556280136108 L 2.0 -1.3392082452774048 L 3.0 -1.3392082452774048 L 3.0 -0.686776876449585 L 4.0 -0.686776876449585 L 4.0 0.2867467999458313 L 5.0 0.2867467999458313 L 5.0 -1.0087007284164429 L 6.0 -1.0087007284164429 L 6.0 -0.554456353187561 L 7.0 -0.554456353187561 L 7.0 -1.2993707656860352 L 8.0 -1.2993707656860352 L 8.0 -0.1132640615105629 L 9.0 -0.1132640615105629 L 9.0 -0.8664798736572266 L 10.0 -0.8664798736572266 L 10.0 -0.1250760704278946 L 11.0 -0.1250760704278946 L 11.0 -1.7989071607589722 L 12.0 -1.7989071607589722 L 12.0 -0.3140564560890198 L 13.0 -0.3140564560890198 L 13.0 -0.9732550978660583 L 14.0 -0.9732550978660583 L 14.0 -0.8565048575401306 L 15.0 -0.8565048575401306 L 15.0 0.0058234576135873795 L 16.0 0.0058234576135873795 L 16.0 -1.0786224603652954 L 17.0 -1.0786224603652954 L 17.0 -0.603357195854187 L 18.0 -0.603357195854187 L 18.0 -0.774581789970398 L 19.0 -0.774581789970398 L 19.0 -0.32056427001953125 L 20.0 -0.32056427001953125 L 20.0 -0.13431136310100555 L 21.0 -0.13431136310100555 L 21.0 -0.7048913836479187 L 22.0 -0.7048913836479187 L 22.0 -0.9286437630653381 L 23.0 -0.9286437630653381 L 23.0 -0.566573441028595 L 24.0 -0.566573441028595 L 24.0 -0.8370925784111023 L 25.0 -0.8370925784111023" style="vector-effect: non-scaling-stroke;fill:none;" /></g></g></g></g><g><g><g><g style="stroke: black;stroke-width: 1.2000000000000002;" transform="matrix(1.0, 0.0, 0.0, 1.0, 0.0, 0.0)"><path d="M 0.0 -2.0 L 0.0 2.0" style="vector-effect: non-scaling-stroke;fill:none;" /></g><g style="stroke: #808080;stroke-width: 0.6000000000000001;" transform="matrix(1.0, 0.0, 0.0, 1.0, 0.0, 0.0)"><path d="M 0.0 0.0 L 25.0 0.0" style="vector-effect: non-scaling-stroke;fill:none;" /></g></g><g style="stroke: black;stroke-width: 2.4000000000000004;" transform="matrix(1.0, 0.0, 0.0, 1.0, 0.0, 0.0)"><path d="M 0.0 -1.1159924268722534 L 1.0 -1.1159924268722534 L 1.0 -1.0723556280136108 L 2.0 -1.0723556280136108 L 2.0 -1.3392082452774048 L 3.0 -1.3392082452774048 L 3.0 -0.686776876449585 L 4.0 -0.686776876449585 L 4.0 0.2867467999458313 L 5.0 0.2867467999458313 L 5.0 -1.0087007284164429 L 6.0 -1.0087007284164429 L 6.0 -0.554456353187561 L 7.0 -0.554456353187561 L 7.0 -1.2993707656860352 L 8.0 -1.2993707656860352 L 8.0 -0.1132640615105629 L 9.0 -0.1132640615105629 L 9.0 -0.8664798736572266 L 10.0 -0.8664798736572266 L 10.0 -0.1250760704278946 L 11.0 -0.1250760704278946 L 11.0 -1.7989071607589722 L 12.0 -1.7989071607589722 L 12.0 -0.3140564560890198 L 13.0 -0.3140564560890198 L 13.0 -0.9732550978660583 L 14.0 -0.9732550978660583 L 14.0 -0.8565048575401306 L 15.0 -0.8565048575401306 L 15.0 0.0058234576135873795 L 16.0 0.0058234576135873795 L 16.0 -1.0786224603652954 L 17.0 -1.0786224603652954 L 17.0 -0.603357195854187 L 18.0 -0.603357195854187 L 18.0 -0.774581789970398 L 19.0 -0.774581789970398 L 19.0 -0.32056427001953125 L 20.0 -0.32056427001953125 L 20.0 -0.13431136310100555 L 21.0 -0.13431136310100555 L 21.0 -0.7048913836479187 L 22.0 -0.7048913836479187 L 22.0 -0.9286437630653381 L 23.0 -0.9286437630653381 L 23.0 -0.566573441028595 L 24.0 -0.566573441028595 L 24.0 -0.8370925784111023 L 25.0 -0.8370925784111023" style="vector-effect: non-scaling-stroke;fill:none;" /></g></g></g></g></g></g></g></g></g></g><g transform="matrix(1.0, 0.0, 0.0, 1.0, -0.125, 0.16)"><g transform="matrix(1.0, 0.0, 0.0, 0.009999999999999995, 0.0, 0.0)"><g transform="matrix(0.01, 0.0, 0.0, 1.0, 0.0, 0.0)"><g><g><g style="fill: #ff0000;stroke: #ff0000;stroke-width: 1.2000000000000002;fill-opacity: 0.5;" transform="matrix(1.0, 0.0, 0.0, 1.0, 0.0, 0.0)"><path d="M 0.0 -2.0 L 0.0 2.0" style="vector-effect: non-scaling-stroke;fill:none;" /></g><g style="fill: #ff0000;stroke: #ff0000;stroke-width: 1.2000000000000002;fill-opacity: 0.5;" transform="matrix(1.0, 0.0, 0.0, 1.0, 0.0, 0.0)"><path d="M 0.0 -1.1159924268722534 L 1.0 -1.1159924268722534 L 1.0 -1.0723556280136108 L 2.0 -1.0723556280136108 L 2.0 -1.3392082452774048 L 3.0 -1.3392082452774048 L 3.0 -0.686776876449585 L 4.0 -0.686776876449585 L 4.0 0.2867467999458313 L 5.0 0.2867467999458313 L 5.0 -1.0087007284164429 L 6.0 -1.0087007284164429 L 6.0 -0.554456353187561 L 7.0 -0.554456353187561 L 7.0 -1.2993707656860352 L 8.0 -1.2993707656860352 L 8.0 -0.1132640615105629 L 9.0 -0.1132640615105629 L 9.0 -0.8664798736572266 L 10.0 -0.8664798736572266 L 10.0 -0.1250760704278946 L 11.0 -0.1250760704278946 L 11.0 -1.7989071607589722 L 12.0 -1.7989071607589722 L 12.0 -0.3140564560890198 L 13.0 -0.3140564560890198 L 13.0 -0.9732550978660583 L 14.0 -0.9732550978660583 L 14.0 -0.8565048575401306 L 15.0 -0.8565048575401306 L 15.0 0.0058234576135873795 L 16.0 0.0058234576135873795 L 16.0 -1.0786224603652954 L 17.0 -1.0786224603652954 L 17.0 -0.603357195854187 L 18.0 -0.603357195854187 L 18.0 -0.774581789970398 L 19.0 -0.774581789970398 L 19.0 -0.32056427001953125 L 20.0 -0.32056427001953125 L 20.0 -0.13431136310100555 L 21.0 -0.13431136310100555 L 21.0 -0.7048913836479187 L 22.0 -0.7048913836479187 L 22.0 -0.9286437630653381 L 23.0 -0.9286437630653381 L 23.0 -0.566573441028595 L 24.0 -0.566573441028595 L 24.0 -0.8370925784111023 L 25.0 -0.8370925784111023 L 25.0 -0.8370925784111023 L 24.0 -0.8370925784111023 L 24.0 -0.566573441028595 L 23.0 -0.566573441028595 L 23.0 -0.9286437630653381 L 22.0 -0.9286437630653381 L 22.0 -0.7048913836479187 L 21.0 -0.7048913836479187 L 21.0 -0.13431136310100555 L 20.0 -0.13431136310100555 L 20.0 -0.32056427001953125 L 19.0 -0.32056427001953125 L 19.0 -0.774581789970398 L 18.0 -0.774581789970398 L 18.0 -0.603357195854187 L 17.0 -0.603357195854187 L 17.0 -1.0786224603652954 L 16.0 -1.0786224603652954 L 16.0 0.0058234576135873795 L 15.0 0.0058234576135873795 L 15.0 -0.8565048575401306 L 14.0 -0.8565048575401306 L 14.0 -0.9732550978660583 L 13.0 -0.9732550978660583 L 13.0 -0.3140564560890198 L 12.0 -0.3140564560890198 L 12.0 -1.7989071607589722 L 11.0 -1.7989071607589722 L 11.0 -0.1250760704278946 L 10.0 -0.1250760704278946 L 10.0 -0.8664798736572266 L 9.0 -0.8664798736572266 L 9.0 -0.1132640615105629 L 8.0 -0.1132640615105629 L 8.0 -1.2993707656860352 L 7.0 -1.2993707656860352 L 7.0 -0.554456353187561 L 6.0 -0.554456353187561 L 6.0 -1.0087007284164429 L 5.0 -1.0087007284164429 L 5.0 0.2867467999458313 L 4.0 0.2867467999458313 L 4.0 -0.686776876449585 L 3.0 -0.686776876449585 L 3.0 -1.3392082452774048 L 2.0 -1.3392082452774048 L 2.0 -1.0723556280136108 L 1.0 -1.0723556280136108 L 1.0 -1.1159924268722534 L 0.0 -1.1159924268722534 Z" style="vector-effect: non-scaling-stroke;" /></g></g><g style="stroke: black;stroke-width: 1.2000000000000002;" transform="matrix(1.0, 0.0, 0.0, 1.0, 0.0, 0.0)"><path d="M 0.0 -1.1159924268722534 L 1.0 -1.1159924268722534 L 1.0 -1.0723556280136108 L 2.0 -1.0723556280136108 L 2.0 -1.3392082452774048 L 3.0 -1.3392082452774048 L 3.0 -0.686776876449585 L 4.0 -0.686776876449585 L 4.0 0.2867467999458313 L 5.0 0.2867467999458313 L 5.0 -1.0087007284164429 L 6.0 -1.0087007284164429 L 6.0 -0.554456353187561 L 7.0 -0.554456353187561 L 7.0 -1.2993707656860352 L 8.0 -1.2993707656860352 L 8.0 -0.1132640615105629 L 9.0 -0.1132640615105629 L 9.0 -0.8664798736572266 L 10.0 -0.8664798736572266 L 10.0 -0.1250760704278946 L 11.0 -0.1250760704278946 L 11.0 -1.7989071607589722 L 12.0 -1.7989071607589722 L 12.0 -0.3140564560890198 L 13.0 -0.3140564560890198 L 13.0 -0.9732550978660583 L 14.0 -0.9732550978660583 L 14.0 -0.8565048575401306 L 15.0 -0.8565048575401306 L 15.0 0.0058234576135873795 L 16.0 0.0058234576135873795 L 16.0 -1.0786224603652954 L 17.0 -1.0786224603652954 L 17.0 -0.603357195854187 L 18.0 -0.603357195854187 L 18.0 -0.774581789970398 L 19.0 -0.774581789970398 L 19.0 -0.32056427001953125 L 20.0 -0.32056427001953125 L 20.0 -0.13431136310100555 L 21.0 -0.13431136310100555 L 21.0 -0.7048913836479187 L 22.0 -0.7048913836479187 L 22.0 -0.9286437630653381 L 23.0 -0.9286437630653381 L 23.0 -0.566573441028595 L 24.0 -0.566573441028595 L 24.0 -0.8370925784111023 L 25.0 -0.8370925784111023" style="vector-effect: non-scaling-stroke;fill:none;" /></g></g></g></g></g></g><g transform="matrix(1.0, 0.0, 0.0, 1.0, -0.125, 0.16)"><g transform="matrix(1.0, 0.0, 0.0, 0.009999999999999995, 0.0, 0.0)"><g transform="matrix(0.01, 0.0, 0.0, 1.0, 0.0, 0.0)"><g><g><g style="fill: #ffffe0;stroke: #ffffe0;stroke-width: 1.2000000000000002;fill-opacity: 0.5;" transform="matrix(1.0, 0.0, 0.0, 1.0, 0.0, 0.0)"><path d="M 0.0 -2.0 L 0.0 2.0" style="vector-effect: non-scaling-stroke;fill:none;" /></g><g style="fill: #ffffe0;stroke: #ffffe0;stroke-width: 1.2000000000000002;fill-opacity: 0.5;" transform="matrix(1.0, 0.0, 0.0, 1.0, 0.0, 0.0)"><path d="M 0.0 -2.0 L 1.0 -2.0 L 1.0 -2.0 L 2.0 -2.0 L 2.0 -2.0 L 3.0 -2.0 L 3.0 -2.0 L 4.0 -2.0 L 4.0 -1.712989091873169 L 5.0 -1.712989091873169 L 5.0 -2.0 L 6.0 -2.0 L 6.0 -2.0 L 7.0 -2.0 L 7.0 -2.0 L 8.0 -2.0 L 8.0 -2.0 L 9.0 -2.0 L 9.0 -2.0 L 10.0 -2.0 L 10.0 -2.0 L 11.0 -2.0 L 11.0 -2.0 L 12.0 -2.0 L 12.0 -2.0 L 13.0 -2.0 L 13.0 -2.0 L 14.0 -2.0 L 14.0 -2.0 L 15.0 -2.0 L 15.0 -1.9941917657852173 L 16.0 -1.9941917657852173 L 16.0 -2.0 L 17.0 -2.0 L 17.0 -2.0 L 18.0 -2.0 L 18.0 -2.0 L 19.0 -2.0 L 19.0 -2.0 L 20.0 -2.0 L 20.0 -2.0 L 21.0 -2.0 L 21.0 -2.0 L 22.0 -2.0 L 22.0 -2.0 L 23.0 -2.0 L 23.0 -2.0 L 24.0 -2.0 L 24.0 -2.0 L 25.0 -2.0 L 25.0 -0.8370925784111023 L 24.0 -0.8370925784111023 L 24.0 -0.566573441028595 L 23.0 -0.566573441028595 L 23.0 -0.9286437630653381 L 22.0 -0.9286437630653381 L 22.0 -0.7048913836479187 L 21.0 -0.7048913836479187 L 21.0 -0.13431136310100555 L 20.0 -0.13431136310100555 L 20.0 -0.32056427001953125 L 19.0 -0.32056427001953125 L 19.0 -0.774581789970398 L 18.0 -0.774581789970398 L 18.0 -0.603357195854187 L 17.0 -0.603357195854187 L 17.0 -1.0786224603652954 L 16.0 -1.0786224603652954 L 16.0 0.0058234576135873795 L 15.0 0.0058234576135873795 L 15.0 -0.8565048575401306 L 14.0 -0.8565048575401306 L 14.0 -0.9732550978660583 L 13.0 -0.9732550978660583 L 13.0 -0.3140564560890198 L 12.0 -0.3140564560890198 L 12.0 -1.7989071607589722 L 11.0 -1.7989071607589722 L 11.0 -0.1250760704278946 L 10.0 -0.1250760704278946 L 10.0 -0.8664798736572266 L 9.0 -0.8664798736572266 L 9.0 -0.1132640615105629 L 8.0 -0.1132640615105629 L 8.0 -1.2993707656860352 L 7.0 -1.2993707656860352 L 7.0 -0.554456353187561 L 6.0 -0.554456353187561 L 6.0 -1.0087007284164429 L 5.0 -1.0087007284164429 L 5.0 0.2867467999458313 L 4.0 0.2867467999458313 L 4.0 -0.686776876449585 L 3.0 -0.686776876449585 L 3.0 -1.3392082452774048 L 2.0 -1.3392082452774048 L 2.0 -1.0723556280136108 L 1.0 -1.0723556280136108 L 1.0 -1.1159924268722534 L 0.0 -1.1159924268722534 Z" style="vector-effect: non-scaling-stroke;" /></g></g><g style="stroke: black;stroke-width: 1.2000000000000002;" transform="matrix(1.0, 0.0, 0.0, 1.0, 0.0, 0.0)"><path d="M 0.0 -1.1159924268722534 L 1.0 -1.1159924268722534 L 1.0 -1.0723556280136108 L 2.0 -1.0723556280136108 L 2.0 -1.3392082452774048 L 3.0 -1.3392082452774048 L 3.0 -0.686776876449585 L 4.0 -0.686776876449585 L 4.0 0.2867467999458313 L 5.0 0.2867467999458313 L 5.0 -1.0087007284164429 L 6.0 -1.0087007284164429 L 6.0 -0.554456353187561 L 7.0 -0.554456353187561 L 7.0 -1.2993707656860352 L 8.0 -1.2993707656860352 L 8.0 -0.1132640615105629 L 9.0 -0.1132640615105629 L 9.0 -0.8664798736572266 L 10.0 -0.8664798736572266 L 10.0 -0.1250760704278946 L 11.0 -0.1250760704278946 L 11.0 -1.7989071607589722 L 12.0 -1.7989071607589722 L 12.0 -0.3140564560890198 L 13.0 -0.3140564560890198 L 13.0 -0.9732550978660583 L 14.0 -0.9732550978660583 L 14.0 -0.8565048575401306 L 15.0 -0.8565048575401306 L 15.0 0.0058234576135873795 L 16.0 0.0058234576135873795 L 16.0 -1.0786224603652954 L 17.0 -1.0786224603652954 L 17.0 -0.603357195854187 L 18.0 -0.603357195854187 L 18.0 -0.774581789970398 L 19.0 -0.774581789970398 L 19.0 -0.32056427001953125 L 20.0 -0.32056427001953125 L 20.0 -0.13431136310100555 L 21.0 -0.13431136310100555 L 21.0 -0.7048913836479187 L 22.0 -0.7048913836479187 L 22.0 -0.9286437630653381 L 23.0 -0.9286437630653381 L 23.0 -0.566573441028595 L 24.0 -0.566573441028595 L 24.0 -0.8370925784111023 L 25.0 -0.8370925784111023" style="vector-effect: non-scaling-stroke;fill:none;" /></g></g></g></g></g></g></g></g><g /></g></g></g></g></svg>