<?xml version="1.0" encoding="utf-8" ?>
<svg baseProfile="full" height="300" version="1.1" width="852" xmlns="http://www.w3.org/2000/svg" xmlns:ev="http://www.w3.org/2001/xml-events" xmlns:xlink="http://www.w3.org/1999/xlink"><defs><marker id="arrow" markerHeight="3.5" markerWidth="5" orient="auto" refX="5.0" refY="1.7"><polygon points="0,0 5,1.75 0,3.5" /></marker></defs><g style="fill:white;"><g transform="matrix(1.0, 0.0, 0.0, 1.0, 426.13636363636357, 150.0)"><g transform="matrix(1082.2510822510822, 0.0, 0.0, 1082.2510822510822, 0.0, 0.0)"><g><g transform="matrix(1.0, 0.0, 0.0, 1.0, -5.551115123125783e-17, -0.08000000000000002)"><g><g><g style="fill: #ffffff;stroke: black;stroke-width: 1.2000000000000002;" transform="matrix(1.0, 0.0, 0.0, 1.0, -0.3749999999999999, -0.052000000000000005)"><path d="M 0.0 0.0 L 0.7499999999999999 0.0 L 0.7499999999999999 0.264 L 0.0 0.264 L 0.0 0.0 Z" style="vector-effect: non-scaling-stroke;" /></g><g><g><g><g><g><g transform="matrix(1.0, 0.0, 0.0, 1.0, -0.08, -0.03)"><g transform="matrix(1.0, 0.0, 0.0, 1.0, 0.075, 0.0)"><g transform="matrix(1.0, 0.0, 0.0, 1.0, 0.0, 0.03)"><g transform="matrix(0.01, 0.0, 0.0, 0.01, 0.0, 0.0)"><g><g><g transform="matrix(1.0, 0.0, 0.0, 1.0, 0.5, 0.0)"><g transform="matrix(1.0, 0.0, 0.0, 1.0, -8.0, -0.0)"><g><g style="fill: #d3d3d3;stroke: black;stroke-width: 1.2000000000000002;" transform="matrix(1.0, 0.0, 0.0, 1.0, 0.0, -3.0)"><path d="M 0.0 0.0 L 16.0 0.0 L 16.0 6.0 L 0.0 6.0 L 0.0 0.0 Z" style="vector-effect: non-scaling-stroke;" /></g><g transform="matrix(1.0, 0.0, 0.0, 1.0, 1.875, 0.0)"><g><g style="stroke: black;stroke-width: 1.2000000000000002;" transform="matrix(1.0, 0.0, 0.0, 1.0, 0.0, 0.0)"><g /></g><g style="fill: #ffa500;stroke: black;stroke-width: 1.2000000000000002;" transform="matrix(1.0, 0.0, 0.0, 1.0, 1.875, 0.0)"><text style="text-align:center; text-anchor:middle; dominant-baseline:middle;&#10;                      font-family:sans-serif; font-weight: bold;&#10;                      font-size:3px;&#10;                      vector-effect: non-scaling-stroke;" transform="translate(-5e-05, 0)">x</text></g></g></g></g></g></g><g><g><g><g style="stroke: black;stroke-width: 1.2000000000000002;" transform="matrix(1.0, 0.0, 0.0, 1.0, 0.0, 0.0)"><path d="M 0.0 -2.0 L 0.0 2.0" style="vector-effect: non-scaling-stroke;fill:none;" /></g><g style="stroke: #808080;stroke-width: 0.6000000000000001;" transform="matrix(1.0, 0.0, 0.0, 1.0, 0.0, 0.0)"><path d="M 0.0 0.0 L 1.0 0.0" style="vector-effect: non-scaling-stroke;fill:none;" /></g></g><g style="stroke: black;stroke-width: 2.4000000000000004;" transform="matrix(1.0, 0.0, 0.0, 1.0, 0.0, 0.0)"><path d="M 0.0 0.10681941360235214 L 1.0 0.10681941360235214" style="vector-effect: non-scaling-stroke;fill:none;" /></g></g></g></g><g><g><g><g style="stroke: black;stroke-width: 1.2000000000000002;" transform="matrix(1.0, 0.0, 0.0, 1.0, 0.0, 0.0)"><path d="M 0.0 -2.0 L 0.0 2.0" style="vector-effect: non-scaling-stroke;fill:none;" /></g><g style="stroke: #808080;stroke-width: 0.6000000000000001;" transform="matrix(1.0, 0.0, 0.0, 1.0, 0.0, 0.0)"><path d="M 0.0 0.0 L 1.0 0.0" style="vector-effect: non-scaling-stroke;fill:none;" /></g></g><g style="stroke: black;stroke-width: 2.4000000000000004;" transform="matrix(1.0, 0.0, 0.0, 1.0, 0.0, 0.0)"><path d="M 0.0 0.10681941360235214 L 1.0 0.10681941360235214" style="vector-effect: non-scaling-stroke;fill:none;" /></g></g></g></g></g></g></g></g><g style="stroke: black;stroke-width: 1.2000000000000002;" transform="matrix(0.0, -1.0, 1.0, 0.0, 0.0, 0.08)"><g /></g></g><g transform="matrix(1.0, 0.0, 0.0, 1.0, 0.0, 0.16)"><g transform="matrix(1.0, 0.0, 0.0, 1.0, -0.32499999999999996, -0.03)"><g transform="matrix(1.0, 0.0, 0.0, 1.0, 0.075, 0.0)"><g transform="matrix(1.0, 0.0, 0.0, 1.0, 0.0, 0.03)"><g transform="matrix(0.01, 0.0, 0.0, 0.01, 0.0, 0.0)"><g><g><g transform="matrix(1.0, 0.0, 0.0, 1.0, 25.0, 0.0)"><g transform="matrix(1.0, 0.0, 0.0, 1.0, -32.5, -0.0)"><g><g style="fill: #d3d3d3;stroke: black;stroke-width: 1.2000000000000002;" transform="matrix(1.0, 0.0, 0.0, 1.0, 0.0, -3.0)"><path d="M 0.0 0.0 L 65.0 0.0 L 65.0 6.0 L 0.0 6.0 L 0.0 0.0 Z" style="vector-effect: non-scaling-stroke;" /></g><g transform="matrix(1.0, 0.0, 0.0, 1.0, 1.875, 0.0)"><g><g style="stroke: black;stroke-width: 1.2000000000000002;" transform="matrix(1.0, 0.0, 0.0, 1.0, 0.0, 0.0)"><g /></g><g style="fill: #ffa500;stroke: black;stroke-width: 1.2000000000000002;" transform="matrix(1.0, 0.0, 0.0, 1.0, 1.875, 0.0)"><text style="text-align:center; text-anchor:middle; dominant-baseline:middle;&#10;                      font-family:sans-serif; font-weight: bold;&#10;                      font-size:3px;&#10;                      vector-effect: non-scaling-stroke;" transform="translate(-5e-05, 0)">f(x)</text></g></g></g></g></g></g><g><g><g><g style="stroke: black;stroke-width: 1.2000000000000002;" transform="matrix(1.0, 0.0, 0.0, 1.0, 0.0, 0.0)"><path d="M 0.0 -2.0 L 0.0 2.0" style="vector-effect: non-scaling-stroke;fill:none;" /></g><g style="stroke: #808080;stroke-width: 0.6000000000000001;" transform="matrix(1.0, 0.0, 0.0, 1.0, 0.0, 0.0)"><path d="M 0.0 0.0 L 50.0 0.0" style="vector-effect: non-scaling-stroke;fill:none;" /></g></g><g style="stroke: black;stroke-width: 2.4000000000000004;" transform="matrix(1.0, 0.0, 0.0, 1.0, 0.0, 0.0)"><path d="M 0.0 0.0 L 1.0 0.0 L 1.0 0.0021363883279263973 L 2.0 0.0021363883279263973 L 2.0 0.004272776655852795 L 3.0 0.004272776655852795 L 3.0 0.006409164518117905 L 4.0 0.006409164518117905 L 4.0 0.00854555331170559 L 5.0 0.00854555331170559 L 5.0 0.0106819411739707 L 6.0 0.0106819411739707 L 6.0 0.01281832903623581 L 7.0 0.01281832903623581 L 7.0 0.014954717829823494 L 8.0 0.014954717829823494 L 8.0 0.01709110662341118 L 9.0 0.01709110662341118 L 9.0 0.019227495416998863 L 10.0 0.019227495416998863 L 10.0 0.0213638823479414 L 11.0 0.0213638823479414 L 11.0 0.023500271141529083 L 12.0 0.023500271141529083 L 12.0 0.02563665807247162 L 13.0 0.02563665807247162 L 13.0 0.027773046866059303 L 14.0 0.027773046866059303 L 14.0 0.029909435659646988 L 15.0 0.029909435659646988 L 15.0 0.03204582631587982 L 16.0 0.03204582631587982 L 16.0 0.03418221324682236 L 17.0 0.03418221324682236 L 17.0 0.03631860017776489 L 18.0 0.03631860017776489 L 18.0 0.038454990833997726 L 19.0 0.038454990833997726 L 19.0 0.04059137776494026 L 20.0 0.04059137776494026 L 20.0 0.0427277646958828 L 21.0 0.0427277646958828 L 21.0 0.04486415162682533 L 22.0 0.04486415162682533 L 22.0 0.047000542283058167 L 23.0 0.047000542283058167 L 23.0 0.049136932939291 L 24.0 0.049136932939291 L 24.0 0.05127331614494324 L 25.0 0.05127331614494324 L 25.0 0.05340970680117607 L 26.0 0.05340970680117607 L 26.0 0.05554609373211861 L 27.0 0.05554609373211861 L 27.0 0.05768248438835144 L 28.0 0.05768248438835144 L 28.0 0.059818871319293976 L 29.0 0.059818871319293976 L 29.0 0.06195525825023651 L 30.0 0.06195525825023651 L 30.0 0.06409165263175964 L 31.0 0.06409165263175964 L 31.0 0.06622803956270218 L 32.0 0.06622803956270218 L 32.0 0.06836442649364471 L 33.0 0.06836442649364471 L 33.0 0.07050081342458725 L 34.0 0.07050081342458725 L 34.0 0.07263720035552979 L 35.0 0.07263720035552979 L 35.0 0.07477358728647232 L 36.0 0.07477358728647232 L 36.0 0.07690998166799545 L 37.0 0.07690998166799545 L 37.0 0.07904636859893799 L 38.0 0.07904636859893799 L 38.0 0.08118275552988052 L 39.0 0.08118275552988052 L 39.0 0.08331914246082306 L 40.0 0.08331914246082306 L 40.0 0.0854555293917656 L 41.0 0.0854555293917656 L 41.0 0.08759191632270813 L 42.0 0.08759191632270813 L 42.0 0.08972830325365067 L 43.0 0.08972830325365067 L 43.0 0.0918646976351738 L 44.0 0.0918646976351738 L 44.0 0.09400108456611633 L 45.0 0.09400108456611633 L 45.0 0.09613747149705887 L 46.0 0.09613747149705887 L 46.0 0.098273865878582 L 47.0 0.098273865878582 L 47.0 0.10041024535894394 L 48.0 0.10041024535894394 L 48.0 0.10254663228988647 L 49.0 0.10254663228988647 L 49.0 0.1046830266714096 L 50.0 0.1046830266714096" style="vector-effect: non-scaling-stroke;fill:none;" /></g></g></g></g><g><g><g><g style="stroke: black;stroke-width: 1.2000000000000002;" transform="matrix(1.0, 0.0, 0.0, 1.0, 0.0, 0.0)"><path d="M 0.0 -2.0 L 0.0 2.0" style="vector-effect: non-scaling-stroke;fill:none;" /></g><g style="stroke: #808080;stroke-width: 0.6000000000000001;" transform="matrix(1.0, 0.0, 0.0, 1.0, 0.0, 0.0)"><path d="M 0.0 0.0 L 50.0 0.0" style="vector-effect: non-scaling-stroke;fill:none;" /></g></g><g style="stroke: black;stroke-width: 2.4000000000000004;" transform="matrix(1.0, 0.0, 0.0, 1.0, 0.0, 0.0)"><path d="M 0.0 0.0 L 1.0 0.0 L 1.0 0.0021363883279263973 L 2.0 0.0021363883279263973 L 2.0 0.004272776655852795 L 3.0 0.004272776655852795 L 3.0 0.006409164518117905 L 4.0 0.006409164518117905 L 4.0 0.00854555331170559 L 5.0 0.00854555331170559 L 5.0 0.0106819411739707 L 6.0 0.0106819411739707 L 6.0 0.01281832903623581 L 7.0 0.01281832903623581 L 7.0 0.014954717829823494 L 8.0 0.014954717829823494 L 8.0 0.01709110662341118 L 9.0 0.01709110662341118 L 9.0 0.019227495416998863 L 10.0 0.019227495416998863 L 10.0 0.0213638823479414 L 11.0 0.0213638823479414 L 11.0 0.023500271141529083 L 12.0 0.023500271141529083 L 12.0 0.02563665807247162 L 13.0 0.02563665807247162 L 13.0 0.027773046866059303 L 14.0 0.027773046866059303 L 14.0 0.029909435659646988 L 15.0 0.029909435659646988 L 15.0 0.03204582631587982 L 16.0 0.03204582631587982 L 16.0 0.03418221324682236 L 17.0 0.03418221324682236 L 17.0 0.03631860017776489 L 18.0 0.03631860017776489 L 18.0 0.038454990833997726 L 19.0 0.038454990833997726 L 19.0 0.04059137776494026 L 20.0 0.04059137776494026 L 20.0 0.0427277646958828 L 21.0 0.0427277646958828 L 21.0 0.04486415162682533 L 22.0 0.04486415162682533 L 22.0 0.047000542283058167 L 23.0 0.047000542283058167 L 23.0 0.049136932939291 L 24.0 0.049136932939291 L 24.0 0.05127331614494324 L 25.0 0.05127331614494324 L 25.0 0.05340970680117607 L 26.0 0.05340970680117607 L 26.0 0.05554609373211861 L 27.0 0.05554609373211861 L 27.0 0.05768248438835144 L 28.0 0.05768248438835144 L 28.0 0.059818871319293976 L 29.0 0.059818871319293976 L 29.0 0.06195525825023651 L 30.0 0.06195525825023651 L 30.0 0.06409165263175964 L 31.0 0.06409165263175964 L 31.0 0.06622803956270218 L 32.0 0.06622803956270218 L 32.0 0.06836442649364471 L 33.0 0.06836442649364471 L 33.0 0.07050081342458725 L 34.0 0.07050081342458725 L 34.0 0.07263720035552979 L 35.0 0.07263720035552979 L 35.0 0.07477358728647232 L 36.0 0.07477358728647232 L 36.0 0.07690998166799545 L 37.0 0.07690998166799545 L 37.0 0.07904636859893799 L 38.0 0.07904636859893799 L 38.0 0.08118275552988052 L 39.0 0.08118275552988052 L 39.0 0.08331914246082306 L 40.0 0.08331914246082306 L 40.0 0.0854555293917656 L 41.0 0.0854555293917656 L 41.0 0.08759191632270813 L 42.0 0.08759191632270813 L 42.0 0.08972830325365067 L 43.0 0.08972830325365067 L 43.0 0.0918646976351738 L 44.0 0.0918646976351738 L 44.0 0.09400108456611633 L 45.0 0.09400108456611633 L 45.0 0.09613747149705887 L 46.0 0.09613747149705887 L 46.0 0.098273865878582 L 47.0 0.098273865878582 L 47.0 0.10041024535894394 L 48.0 0.10041024535894394 L 48.0 0.10254663228988647 L 49.0 0.10254663228988647 L 49.0 0.1046830266714096 L 50.0 0.1046830266714096" style="vector-effect: non-scaling-stroke;fill:none;" /></g></g></g></g></g></g></g></g></g></g><g transform="matrix(1.0, 0.0, 0.0, 1.0, -0.24999999999999994, 0.16)"><g transform="matrix(1.0, 0.0, 0.0, 0.009999999999999995, 0.0, 0.0)"><g transform="matrix(0.01, 0.0, 0.0, 1.0, 0.0, 0.0)"><g><g><g style="fill: #ff0000;stroke: #ff0000;stroke-width: 1.2000000000000002;fill-opacity: 0.5;" transform="matrix(1.0, 0.0, 0.0, 1.0, 0.0, 0.0)"><path d="M 0.0 -2.0 L 0.0 2.0" style="vector-effect: non-scaling-stroke;fill:none;" /></g><g style="fill: #ff0000;stroke: #ff0000;stroke-width: 1.2000000000000002;fill-opacity: 0.5;" transform="matrix(1.0, 0.0, 0.0, 1.0, 0.0, 0.0)"><path d="M 0.0 -0.0 L 1.0 0.0 L 1.0 0.0021363883279263973 L 2.0 0.0021363883279263973 L 2.0 0.004272776655852795 L 3.0 0.004272776655852795 L 3.0 0.006409164518117905 L 4.0 0.006409164518117905 L 4.0 0.00854555331170559 L 5.0 0.00854555331170559 L 5.0 0.0106819411739707 L 6.0 0.0106819411739707 L 6.0 0.01281832903623581 L 7.0 0.01281832903623581 L 7.0 0.014954717829823494 L 8.0 0.014954717829823494 L 8.0 0.01709110662341118 L 9.0 0.01709110662341118 L 9.0 0.019227495416998863 L 10.0 0.019227495416998863 L 10.0 0.0213638823479414 L 11.0 0.0213638823479414 L 11.0 0.023500271141529083 L 12.0 0.023500271141529083 L 12.0 0.02563665807247162 L 13.0 0.02563665807247162 L 13.0 0.027773046866059303 L 14.0 0.027773046866059303 L 14.0 0.029909435659646988 L 15.0 0.029909435659646988 L 15.0 0.03204582631587982 L 16.0 0.03204582631587982 L 16.0 0.03418221324682236 L 17.0 0.03418221324682236 L 17.0 0.03631860017776489 L 18.0 0.03631860017776489 L 18.0 0.038454990833997726 L 19.0 0.038454990833997726 L 19.0 0.04059137776494026 L 20.0 0.04059137776494026 L 20.0 0.0427277646958828 L 21.0 0.0427277646958828 L 21.0 0.04486415162682533 L 22.0 0.04486415162682533 L 22.0 0.047000542283058167 L 23.0 0.047000542283058167 L 23.0 0.049136932939291 L 24.0 0.049136932939291 L 24.0 0.05127331614494324 L 25.0 0.05127331614494324 L 25.0 0.05340970680117607 L 26.0 0.05340970680117607 L 26.0 0.05554609373211861 L 27.0 0.05554609373211861 L 27.0 0.05768248438835144 L 28.0 0.05768248438835144 L 28.0 0.059818871319293976 L 29.0 0.059818871319293976 L 29.0 0.06195525825023651 L 30.0 0.06195525825023651 L 30.0 0.06409165263175964 L 31.0 0.06409165263175964 L 31.0 0.06622803956270218 L 32.0 0.06622803956270218 L 32.0 0.06836442649364471 L 33.0 0.06836442649364471 L 33.0 0.07050081342458725 L 34.0 0.07050081342458725 L 34.0 0.07263720035552979 L 35.0 0.07263720035552979 L 35.0 0.07477358728647232 L 36.0 0.07477358728647232 L 36.0 0.07690998166799545 L 37.0 0.07690998166799545 L 37.0 0.07904636859893799 L 38.0 0.07904636859893799 L 38.0 0.08118275552988052 L 39.0 0.08118275552988052 L 39.0 0.08331914246082306 L 40.0 0.08331914246082306 L 40.0 0.0854555293917656 L 41.0 0.0854555293917656 L 41.0 0.08759191632270813 L 42.0 0.08759191632270813 L 42.0 0.08972830325365067 L 43.0 0.08972830325365067 L 43.0 0.0918646976351738 L 44.0 0.0918646976351738 L 44.0 0.09400108456611633 L 45.0 0.09400108456611633 L 45.0 0.09613747149705887 L 46.0 0.09613747149705887 L 46.0 0.098273865878582 L 47.0 0.098273865878582 L 47.0 0.10041024535894394 L 48.0 0.10041024535894394 L 48.0 0.10254663228988647 L 49.0 0.10254663228988647 L 49.0 0.1046830266714096 L 50.0 0.1046830266714096 L 50.0 0.1046830266714096 L 49.0 0.1046830266714096 L 49.0 0.10254663228988647 L 48.0 0.10254663228988647 L 48.0 0.10041024535894394 L 47.0 0.10041024535894394 L 47.0 0.098273865878582 L 46.0 0.098273865878582 L 46.0 0.09613747149705887 L 45.0 0.09613747149705887 L 45.0 0.09400108456611633 L 44.0 0.09400108456611633 L 44.0 0.0918646976351738 L 43.0 0.0918646976351738 L 43.0 0.08972830325365067 L 42.0 0.08972830325365067 L 42.0 0.08759191632270813 L 41.0 0.08759191632270813 L 41.0 0.0854555293917656 L 40.0 0.0854555293917656 L 40.0 0.08331914246082306 L 39.0 0.08331914246082306 L 39.0 0.08118275552988052 L 38.0 0.08118275552988052 L 38.0 0.07904636859893799 L 37.0 0.07904636859893799 L 37.0 0.07690998166799545 L 36.0 0.07690998166799545 L 36.0 0.07477358728647232 L 35.0 0.07477358728647232 L 35.0 0.07263720035552979 L 34.0 0.07263720035552979 L 34.0 0.07050081342458725 L 33.0 0.07050081342458725 L 33.0 0.06836442649364471 L 32.0 0.06836442649364471 L 32.0 0.06622803956270218 L 31.0 0.06622803956270218 L 31.0 0.06409165263175964 L 30.0 0.06409165263175964 L 30.0 0.06195525825023651 L 29.0 0.06195525825023651 L 29.0 0.059818871319293976 L 28.0 0.059818871319293976 L 28.0 0.05768248438835144 L 27.0 0.05768248438835144 L 27.0 0.05554609373211861 L 26.0 0.05554609373211861 L 26.0 0.05340970680117607 L 25.0 0.05340970680117607 L 25.0 0.05127331614494324 L 24.0 0.05127331614494324 L 24.0 0.049136932939291 L 23.0 0.049136932939291 L 23.0 0.047000542283058167 L 22.0 0.047000542283058167 L 22.0 0.04486415162682533 L 21.0 0.04486415162682533 L 21.0 0.0427277646958828 L 20.0 0.0427277646958828 L 20.0 0.04059137776494026 L 19.0 0.04059137776494026 L 19.0 0.038454990833997726 L 18.0 0.038454990833997726 L 18.0 0.03631860017776489 L 17.0 0.03631860017776489 L 17.0 0.03418221324682236 L 16.0 0.03418221324682236 L 16.0 0.03204582631587982 L 15.0 0.03204582631587982 L 15.0 0.029909435659646988 L 14.0 0.029909435659646988 L 14.0 0.027773046866059303 L 13.0 0.027773046866059303 L 13.0 0.02563665807247162 L 12.0 0.02563665807247162 L 12.0 0.023500271141529083 L 11.0 0.023500271141529083 L 11.0 0.0213638823479414 L 10.0 0.0213638823479414 L 10.0 0.019227495416998863 L 9.0 0.019227495416998863 L 9.0 0.01709110662341118 L 8.0 0.01709110662341118 L 8.0 0.014954717829823494 L 7.0 0.014954717829823494 L 7.0 0.01281832903623581 L 6.0 0.01281832903623581 L 6.0 0.0106819411739707 L 5.0 0.0106819411739707 L 5.0 0.00854555331170559 L 4.0 0.00854555331170559 L 4.0 0.006409164518117905 L 3.0 0.006409164518117905 L 3.0 0.004272776655852795 L 2.0 0.004272776655852795 L 2.0 0.0021363883279263973 L 1.0 0.0021363883279263973 L 1.0 0.0 L 0.0 0.0 Z" style="vector-effect: non-scaling-stroke;" /></g></g><g style="stroke: black;stroke-width: 1.2000000000000002;" transform="matrix(1.0, 0.0, 0.0, 1.0, 0.0, 0.0)"><path d="M 0.0 0.0 L 1.0 0.0 L 1.0 0.0021363883279263973 L 2.0 0.0021363883279263973 L 2.0 0.004272776655852795 L 3.0 0.004272776655852795 L 3.0 0.006409164518117905 L 4.0 0.006409164518117905 L 4.0 0.00854555331170559 L 5.0 0.00854555331170559 L 5.0 0.0106819411739707 L 6.0 0.0106819411739707 L 6.0 0.01281832903623581 L 7.0 0.01281832903623581 L 7.0 0.014954717829823494 L 8.0 0.014954717829823494 L 8.0 0.01709110662341118 L 9.0 0.01709110662341118 L 9.0 0.019227495416998863 L 10.0 0.019227495416998863 L 10.0 0.0213638823479414 L 11.0 0.0213638823479414 L 11.0 0.023500271141529083 L 12.0 0.023500271141529083 L 12.0 0.02563665807247162 L 13.0 0.02563665807247162 L 13.0 0.027773046866059303 L 14.0 0.027773046866059303 L 14.0 0.029909435659646988 L 15.0 0.029909435659646988 L 15.0 0.03204582631587982 L 16.0 0.03204582631587982 L 16.0 0.03418221324682236 L 17.0 0.03418221324682236 L 17.0 0.03631860017776489 L 18.0 0.03631860017776489 L 18.0 0.038454990833997726 L 19.0 0.038454990833997726 L 19.0 0.04059137776494026 L 20.0 0.04059137776494026 L 20.0 0.0427277646958828 L 21.0 0.0427277646958828 L 21.0 0.04486415162682533 L 22.0 0.04486415162682533 L 22.0 0.047000542283058167 L 23.0 0.047000542283058167 L 23.0 0.049136932939291 L 24.0 0.049136932939291 L 24.0 0.05127331614494324 L 25.0 0.05127331614494324 L 25.0 0.05340970680117607 L 26.0 0.05340970680117607 L 26.0 0.05554609373211861 L 27.0 0.05554609373211861 L 27.0 0.05768248438835144 L 28.0 0.05768248438835144 L 28.0 0.059818871319293976 L 29.0 0.059818871319293976 L 29.0 0.06195525825023651 L 30.0 0.06195525825023651 L 30.0 0.06409165263175964 L 31.0 0.06409165263175964 L 31.0 0.06622803956270218 L 32.0 0.06622803956270218 L 32.0 0.06836442649364471 L 33.0 0.06836442649364471 L 33.0 0.07050081342458725 L 34.0 0.07050081342458725 L 34.0 0.07263720035552979 L 35.0 0.07263720035552979 L 35.0 0.07477358728647232 L 36.0 0.07477358728647232 L 36.0 0.07690998166799545 L 37.0 0.07690998166799545 L 37.0 0.07904636859893799 L 38.0 0.07904636859893799 L 38.0 0.08118275552988052 L 39.0 0.08118275552988052 L 39.0 0.08331914246082306 L 40.0 0.08331914246082306 L 40.0 0.0854555293917656 L 41.0 0.0854555293917656 L 41.0 0.08759191632270813 L 42.0 0.08759191632270813 L 42.0 0.08972830325365067 L 43.0 0.08972830325365067 L 43.0 0.0918646976351738 L 44.0 0.0918646976351738 L 44.0 0.09400108456611633 L 45.0 0.09400108456611633 L 45.0 0.09613747149705887 L 46.0 0.09613747149705887 L 46.0 0.098273865878582 L 47.0 0.098273865878582 L 47.0 0.10041024535894394 L 48.0 0.10041024535894394 L 48.0 0.10254663228988647 L 49.0 0.10254663228988647 L 49.0 0.1046830266714096 L 50.0 0.1046830266714096" style="vector-effect: non-scaling-stroke;fill:none;" /></g></g></g></g></g></g><g transform="matrix(1.0, 0.0, 0.0, 1.0, -0.24999999999999994, 0.16)"><g transform="matrix(1.0, 0.0, 0.0, 0.009999999999999995, 0.0, 0.0)"><g transform="matrix(0.01, 0.0, 0.0, 1.0, 0.0, 0.0)"><g><g><g style="fill: #ffffe0;stroke: #ffffe0;stroke-width: 1.2000000000000002;fill-opacity: 0.5;" transform="matrix(1.0, 0.0, 0.0, 1.0, 0.0, 0.0)"><path d="M 0.0 -2.0 L 0.0 2.0" style="vector-effect: non-scaling-stroke;fill:none;" /></g><g style="fill: #ffffe0;stroke: #ffffe0;stroke-width: 1.2000000000000002;fill-opacity: 0.5;" transform="matrix(1.0, 0.0, 0.0, 1.0, 0.0, 0.0)"><path d="M 0.0 -0.0 L 1.0 0.0 L 1.0 -0.03786391764879227 L 2.0 -0.03786391764879227 L 2.0 -0.07572783529758453 L 3.0 -0.07572783529758453 L 3.0 -0.11354517936706543 L 4.0 -0.11354517936706543 L 4.0 -0.15145567059516907 L 5.0 -0.15145567059516907 L 5.0 -0.18927301466464996 L 6.0 -0.18927301466464996 L 6.0 -0.22709035873413086 L 7.0 -0.22709035873413086 L 7.0 -0.2650008499622345 L 8.0 -0.2650008499622345 L 8.0 -0.30291134119033813 L 9.0 -0.30291134119033813 L 9.0 -0.3408218026161194 L 10.0 -0.3408218026161194 L 10.0 -0.3785460293292999 L 11.0 -0.3785460293292999 L 11.0 -0.41645652055740356 L 12.0 -0.41645652055740356 L 12.0 -0.4541807174682617 L 13.0 -0.4541807174682617 L 13.0 -0.49227747321128845 L 14.0 -0.49227747321128845 L 14.0 -0.530001699924469 L 15.0 -0.530001699924469 L 15.0 -0.5680984258651733 L 16.0 -0.5680984258651733 L 16.0 -0.6058226823806763 L 17.0 -0.6058226823806763 L 17.0 -0.6435468792915344 L 18.0 -0.6435468792915344 L 18.0 -0.6816436052322388 L 19.0 -0.6816436052322388 L 19.0 -0.7193678617477417 L 20.0 -0.7193678617477417 L 20.0 -0.7570920586585999 L 21.0 -0.7570920586585999 L 21.0 -0.794816255569458 L 22.0 -0.794816255569458 L 22.0 -0.8329130411148071 L 23.0 -0.8329130411148071 L 23.0 -0.8710097670555115 L 24.0 -0.8710097670555115 L 24.0 -0.9083614349365234 L 25.0 -0.9083614349365234 L 25.0 -0.9464582204818726 L 26.0 -0.9464582204818726 L 26.0 -0.9845549464225769 L 27.0 -0.9845549464225769 L 27.0 -1.0219066143035889 L 28.0 -1.0219066143035889 L 28.0 -1.060003399848938 L 29.0 -1.060003399848938 L 29.0 -1.097727656364441 L 30.0 -1.097727656364441 L 30.0 -1.1361968517303467 L 31.0 -1.1361968517303467 L 31.0 -1.1735485792160034 L 32.0 -1.1735485792160034 L 32.0 -1.2116453647613525 L 33.0 -1.2116453647613525 L 33.0 -1.2489969730377197 L 34.0 -1.2489969730377197 L 34.0 -1.2870937585830688 L 35.0 -1.2870937585830688 L 35.0 -1.325190544128418 L 36.0 -1.325190544128418 L 36.0 -1.3632872104644775 L 37.0 -1.3632872104644775 L 37.0 -1.4006389379501343 L 38.0 -1.4006389379501343 L 38.0 -1.4387357234954834 L 39.0 -1.4387357234954834 L 39.0 -1.476832389831543 L 40.0 -1.476832389831543 L 40.0 -1.5141841173171997 L 41.0 -1.5141841173171997 L 41.0 -1.5522809028625488 L 42.0 -1.5522809028625488 L 42.0 -1.589632511138916 L 43.0 -1.589632511138916 L 43.0 -1.6277292966842651 L 44.0 -1.6277292966842651 L 44.0 -1.6658260822296143 L 45.0 -1.6658260822296143 L 45.0 -1.7039227485656738 L 46.0 -1.7039227485656738 L 46.0 -1.742019534111023 L 47.0 -1.742019534111023 L 47.0 -1.7793712615966797 L 48.0 -1.7793712615966797 L 48.0 -1.8167228698730469 L 49.0 -1.8167228698730469 L 49.0 -1.854819655418396 L 50.0 -1.854819655418396 L 50.0 0.1046830266714096 L 49.0 0.1046830266714096 L 49.0 0.10254663228988647 L 48.0 0.10254663228988647 L 48.0 0.10041024535894394 L 47.0 0.10041024535894394 L 47.0 0.098273865878582 L 46.0 0.098273865878582 L 46.0 0.09613747149705887 L 45.0 0.09613747149705887 L 45.0 0.09400108456611633 L 44.0 0.09400108456611633 L 44.0 0.0918646976351738 L 43.0 0.0918646976351738 L 43.0 0.08972830325365067 L 42.0 0.08972830325365067 L 42.0 0.08759191632270813 L 41.0 0.08759191632270813 L 41.0 0.0854555293917656 L 40.0 0.0854555293917656 L 40.0 0.08331914246082306 L 39.0 0.08331914246082306 L 39.0 0.08118275552988052 L 38.0 0.08118275552988052 L 38.0 0.07904636859893799 L 37.0 0.07904636859893799 L 37.0 0.07690998166799545 L 36.0 0.07690998166799545 L 36.0 0.07477358728647232 L 35.0 0.07477358728647232 L 35.0 0.07263720035552979 L 34.0 0.07263720035552979 L 34.0 0.07050081342458725 L 33.0 0.07050081342458725 L 33.0 0.06836442649364471 L 32.0 0.06836442649364471 L 32.0 0.06622803956270218 L 31.0 0.06622803956270218 L 31.0 0.06409165263175964 L 30.0 0.06409165263175964 L 30.0 0.06195525825023651 L 29.0 0.06195525825023651 L 29.0 0.059818871319293976 L 28.0 0.059818871319293976 L 28.0 0.05768248438835144 L 27.0 0.05768248438835144 L 27.0 0.05554609373211861 L 26.0 0.05554609373211861 L 26.0 0.05340970680117607 L 25.0 0.05340970680117607 L 25.0 0.05127331614494324 L 24.0 0.05127331614494324 L 24.0 0.049136932939291 L 23.0 0.049136932939291 L 23.0 0.047000542283058167 L 22.0 0.047000542283058167 L 22.0 0.04486415162682533 L 21.0 0.04486415162682533 L 21.0 0.0427277646958828 L 20.0 0.0427277646958828 L 20.0 0.04059137776494026 L 19.0 0.04059137776494026 L 19.0 0.038454990833997726 L 18.0 0.038454990833997726 L 18.0 0.03631860017776489 L 17.0 0.03631860017776489 L 17.0 0.03418221324682236 L 16.0 0.03418221324682236 L 16.0 0.03204582631587982 L 15.0 0.03204582631587982 L 15.0 0.029909435659646988 L 14.0 0.029909435659646988 L 14.0 0.027773046866059303 L 13.0 0.027773046866059303 L 13.0 0.02563665807247162 L 12.0 0.02563665807247162 L 12.0 0.023500271141529083 L 11.0 0.023500271141529083 L 11.0 0.0213638823479414 L 10.0 0.0213638823479414 L 10.0 0.019227495416998863 L 9.0 0.019227495416998863 L 9.0 0.01709110662341118 L 8.0 0.01709110662341118 L 8.0 0.014954717829823494 L 7.0 0.014954717829823494 L 7.0 0.01281832903623581 L 6.0 0.01281832903623581 L 6.0 0.0106819411739707 L 5.0 0.0106819411739707 L 5.0 0.00854555331170559 L 4.0 0.00854555331170559 L 4.0 0.006409164518117905 L 3.0 0.006409164518117905 L 3.0 0.004272776655852795 L 2.0 0.004272776655852795 L 2.0 0.0021363883279263973 L 1.0 0.0021363883279263973 L 1.0 0.0 L 0.0 0.0 Z" style="vector-effect: non-scaling-stroke;" /></g></g><g style="stroke: black;stroke-width: 1.2000000000000002;" transform="matrix(1.0, 0.0, 0.0, 1.0, 0.0, 0.0)"><path d="M 0.0 0.0 L 1.0 0.0 L 1.0 0.0021363883279263973 L 2.0 0.0021363883279263973 L 2.0 0.004272776655852795 L 3.0 0.004272776655852795 L 3.0 0.006409164518117905 L 4.0 0.006409164518117905 L 4.0 0.00854555331170559 L 5.0 0.00854555331170559 L 5.0 0.0106819411739707 L 6.0 0.0106819411739707 L 6.0 0.01281832903623581 L 7.0 0.01281832903623581 L 7.0 0.014954717829823494 L 8.0 0.014954717829823494 L 8.0 0.01709110662341118 L 9.0 0.01709110662341118 L 9.0 0.019227495416998863 L 10.0 0.019227495416998863 L 10.0 0.0213638823479414 L 11.0 0.0213638823479414 L 11.0 0.023500271141529083 L 12.0 0.023500271141529083 L 12.0 0.02563665807247162 L 13.0 0.02563665807247162 L 13.0 0.027773046866059303 L 14.0 0.027773046866059303 L 14.0 0.029909435659646988 L 15.0 0.029909435659646988 L 15.0 0.03204582631587982 L 16.0 0.03204582631587982 L 16.0 0.03418221324682236 L 17.0 0.03418221324682236 L 17.0 0.03631860017776489 L 18.0 0.03631860017776489 L 18.0 0.038454990833997726 L 19.0 0.038454990833997726 L 19.0 0.04059137776494026 L 20.0 0.04059137776494026 L 20.0 0.0427277646958828 L 21.0 0.0427277646958828 L 21.0 0.04486415162682533 L 22.0 0.04486415162682533 L 22.0 0.047000542283058167 L 23.0 0.047000542283058167 L 23.0 0.049136932939291 L 24.0 0.049136932939291 L 24.0 0.05127331614494324 L 25.0 0.05127331614494324 L 25.0 0.05340970680117607 L 26.0 0.05340970680117607 L 26.0 0.05554609373211861 L 27.0 0.05554609373211861 L 27.0 0.05768248438835144 L 28.0 0.05768248438835144 L 28.0 0.059818871319293976 L 29.0 0.059818871319293976 L 29.0 0.06195525825023651 L 30.0 0.06195525825023651 L 30.0 0.06409165263175964 L 31.0 0.06409165263175964 L 31.0 0.06622803956270218 L 32.0 0.06622803956270218 L 32.0 0.06836442649364471 L 33.0 0.06836442649364471 L 33.0 0.07050081342458725 L 34.0 0.07050081342458725 L 34.0 0.07263720035552979 L 35.0 0.07263720035552979 L 35.0 0.07477358728647232 L 36.0 0.07477358728647232 L 36.0 0.07690998166799545 L 37.0 0.07690998166799545 L 37.0 0.07904636859893799 L 38.0 0.07904636859893799 L 38.0 0.08118275552988052 L 39.0 0.08118275552988052 L 39.0 0.08331914246082306 L 40.0 0.08331914246082306 L 40.0 0.0854555293917656 L 41.0 0.0854555293917656 L 41.0 0.08759191632270813 L 42.0 0.08759191632270813 L 42.0 0.08972830325365067 L 43.0 0.08972830325365067 L 43.0 0.0918646976351738 L 44.0 0.0918646976351738 L 44.0 0.09400108456611633 L 45.0 0.09400108456611633 L 45.0 0.09613747149705887 L 46.0 0.09613747149705887 L 46.0 0.098273865878582 L 47.0 0.098273865878582 L 47.0 0.10041024535894394 L 48.0 0.10041024535894394 L 48.0 0.10254663228988647 L 49.0 0.10254663228988647 L 49.0 0.1046830266714096 L 50.0 0.1046830266714096" style="vector-effect: non-scaling-stroke;fill:none;" /></g></g></g></g></g></g></g></g><g><g><g><g><g transform="matrix(1.0, 0.0, 0.0, 1.0, -0.08, -0.03)"><g transform="matrix(1.0, 0.0, 0.0, 1.0, 0.075, 0.0)"><g transform="matrix(1.0, 0.0, 0.0, 1.0, 0.0, 0.03)"><g transform="matrix(0.01, 0.0, 0.0, 0.01, 0.0, 0.0)"><g><g><g transform="matrix(1.0, 0.0, 0.0, 1.0, 0.5, 0.0)"><g transform="matrix(1.0, 0.0, 0.0, 1.0, -8.0, -0.0)"><g><g style="fill: #d3d3d3;stroke: black;stroke-width: 1.2000000000000002;" transform="matrix(1.0, 0.0, 0.0, 1.0, 0.0, -3.0)"><path d="M 0.0 0.0 L 16.0 0.0 L 16.0 6.0 L 0.0 6.0 L 0.0 0.0 Z" style="vector-effect: non-scaling-stroke;" /></g><g transform="matrix(1.0, 0.0, 0.0, 1.0, 1.875, 0.0)"><g><g style="stroke: black;stroke-width: 1.2000000000000002;" transform="matrix(1.0, 0.0, 0.0, 1.0, 0.0, 0.0)"><g /></g><g style="fill: #ffa500;stroke: black;stroke-width: 1.2000000000000002;" transform="matrix(1.0, 0.0, 0.0, 1.0, 1.875, 0.0)"><text style="text-align:center; text-anchor:middle; dominant-baseline:middle;&#10;                      font-family:sans-serif; font-weight: bold;&#10;                      font-size:3px;&#10;                      vector-effect: non-scaling-stroke;" transform="translate(-5e-05, 0)">x</text></g></g></g></g></g></g><g><g><g><g style="stroke: black;stroke-width: 1.2000000000000002;" transform="matrix(1.0, 0.0, 0.0, 1.0, 0.0, 0.0)"><path d="M 0.0 -2.0 L 0.0 2.0" style="vector-effect: non-scaling-stroke;fill:none;" /></g><g style="stroke: #808080;stroke-width: 0.6000000000000001;" transform="matrix(1.0, 0.0, 0.0, 1.0, 0.0, 0.0)"><path d="M 0.0 0.0 L 1.0 0.0" style="vector-effect: non-scaling-stroke;fill:none;" /></g></g><g style="stroke: black;stroke-width: 2.4000000000000004;" transform="matrix(1.0, 0.0, 0.0, 1.0, 0.0, 0.0)"><path d="M 0.0 0.10681941360235214 L 1.0 0.10681941360235214" style="vector-effect: non-scaling-stroke;fill:none;" /></g></g></g></g><g><g><g><g style="stroke: black;stroke-width: 1.2000000000000002;" transform="matrix(1.0, 0.0, 0.0, 1.0, 0.0, 0.0)"><path d="M 0.0 -2.0 L 0.0 2.0" style="vector-effect: non-scaling-stroke;fill:none;" /></g><g style="stroke: #808080;stroke-width: 0.6000000000000001;" transform="matrix(1.0, 0.0, 0.0, 1.0, 0.0, 0.0)"><path d="M 0.0 0.0 L 1.0 0.0" style="vector-effect: non-scaling-stroke;fill:none;" /></g></g><g style="stroke: black;stroke-width: 2.4000000000000004;" transform="matrix(1.0, 0.0, 0.0, 1.0, 0.0, 0.0)"><path d="M 0.0 0.10681941360235214 L 1.0 0.10681941360235214" style="vector-effect: non-scaling-stroke;fill:none;" /></g></g></g></g></g></g></g></g><g style="stroke: black;stroke-width: 1.2000000000000002;" transform="matrix(0.0, -1.0, 1.0, 0.0, 0.0, 0.08)"><g /></g></g><g transform="matrix(1.0, 0.0, 0.0, 1.0, 0.0, 0.16)"><g transform="matrix(1.0, 0.0, 0.0, 1.0, -0.32499999999999996, -0.03)"><g transform="matrix(1.0, 0.0, 0.0, 1.0, 0.075, 0.0)"><g transform="matrix(1.0, 0.0, 0.0, 1.0, 0.0, 0.03)"><g transform="matrix(0.01, 0.0, 0.0, 0.01, 0.0, 0.0)"><g><g><g transform="matrix(1.0, 0.0, 0.0, 1.0, 25.0, 0.0)"><g transform="matrix(1.0, 0.0, 0.0, 1.0, -32.5, -0.0)"><g><g style="fill: #d3d3d3;stroke: black;stroke-width: 1.2000000000000002;" transform="matrix(1.0, 0.0, 0.0, 1.0, 0.0, -3.0)"><path d="M 0.0 0.0 L 65.0 0.0 L 65.0 6.0 L 0.0 6.0 L 0.0 0.0 Z" style="vector-effect: non-scaling-stroke;" /></g><g transform="matrix(1.0, 0.0, 0.0, 1.0, 1.875, 0.0)"><g><g style="stroke: black;stroke-width: 1.2000000000000002;" transform="matrix(1.0, 0.0, 0.0, 1.0, 0.0, 0.0)"><g /></g><g style="fill: #ffa500;stroke: black;stroke-width: 1.2000000000000002;" transform="matrix(1.0, 0.0, 0.0, 1.0, 1.875, 0.0)"><text style="text-align:center; text-anchor:middle; dominant-baseline:middle;&#10;                      font-family:sans-serif; font-weight: bold;&#10;                      font-size:3px;&#10;                      vector-effect: non-scaling-stroke;" transform="translate(-5e-05, 0)">f(x)</text></g></g></g></g></g></g><g><g><g><g style="stroke: black;stroke-width: 1.2000000000000002;" transform="matrix(1.0, 0.0, 0.0, 1.0, 0.0, 0.0)"><path d="M 0.0 -2.0 L 0.0 2.0" style="vector-effect: non-scaling-stroke;fill:none;" /></g><g style="stroke: #808080;stroke-width: 0.6000000000000001;" transform="matrix(1.0, 0.0, 0.0, 1.0, 0.0, 0.0)"><path d="M 0.0 0.0 L 50.0 0.0" style="vector-effect: non-scaling-stroke;fill:none;" /></g></g><g style="stroke: black;stroke-width: 2.4000000000000004;" transform="matrix(1.0, 0.0, 0.0, 1.0, 0.0, 0.0)"><path d="M 0.0 0.0 L 1.0 0.0 L 1.0 0.0021363883279263973 L 2.0 0.0021363883279263973 L 2.0 0.004272776655852795 L 3.0 0.004272776655852795 L 3.0 0.006409164518117905 L 4.0 0.006409164518117905 L 4.0 0.00854555331170559 L 5.0 0.00854555331170559 L 5.0 0.0106819411739707 L 6.0 0.0106819411739707 L 6.0 0.01281832903623581 L 7.0 0.01281832903623581 L 7.0 0.014954717829823494 L 8.0 0.014954717829823494 L 8.0 0.01709110662341118 L 9.0 0.01709110662341118 L 9.0 0.019227495416998863 L 10.0 0.019227495416998863 L 10.0 0.0213638823479414 L 11.0 0.0213638823479414 L 11.0 0.023500271141529083 L 12.0 0.023500271141529083 L 12.0 0.02563665807247162 L 13.0 0.02563665807247162 L 13.0 0.027773046866059303 L 14.0 0.027773046866059303 L 14.0 0.029909435659646988 L 15.0 0.029909435659646988 L 15.0 0.03204582631587982 L 16.0 0.03204582631587982 L 16.0 0.03418221324682236 L 17.0 0.03418221324682236 L 17.0 0.03631860017776489 L 18.0 0.03631860017776489 L 18.0 0.038454990833997726 L 19.0 0.038454990833997726 L 19.0 0.04059137776494026 L 20.0 0.04059137776494026 L 20.0 0.0427277646958828 L 21.0 0.0427277646958828 L 21.0 0.04486415162682533 L 22.0 0.04486415162682533 L 22.0 0.047000542283058167 L 23.0 0.047000542283058167 L 23.0 0.049136932939291 L 24.0 0.049136932939291 L 24.0 0.05127331614494324 L 25.0 0.05127331614494324 L 25.0 0.05340970680117607 L 26.0 0.05340970680117607 L 26.0 0.05554609373211861 L 27.0 0.05554609373211861 L 27.0 0.05768248438835144 L 28.0 0.05768248438835144 L 28.0 0.059818871319293976 L 29.0 0.059818871319293976 L 29.0 0.06195525825023651 L 30.0 0.06195525825023651 L 30.0 0.06409165263175964 L 31.0 0.06409165263175964 L 31.0 0.06622803956270218 L 32.0 0.06622803956270218 L 32.0 0.06836442649364471 L 33.0 0.06836442649364471 L 33.0 0.07050081342458725 L 34.0 0.07050081342458725 L 34.0 0.07263720035552979 L 35.0 0.07263720035552979 L 35.0 0.07477358728647232 L 36.0 0.07477358728647232 L 36.0 0.07690998166799545 L 37.0 0.07690998166799545 L 37.0 0.07904636859893799 L 38.0 0.07904636859893799 L 38.0 0.08118275552988052 L 39.0 0.08118275552988052 L 39.0 0.08331914246082306 L 40.0 0.08331914246082306 L 40.0 0.0854555293917656 L 41.0 0.0854555293917656 L 41.0 0.08759191632270813 L 42.0 0.08759191632270813 L 42.0 0.08972830325365067 L 43.0 0.08972830325365067 L 43.0 0.0918646976351738 L 44.0 0.0918646976351738 L 44.0 0.09400108456611633 L 45.0 0.09400108456611633 L 45.0 0.09613747149705887 L 46.0 0.09613747149705887 L 46.0 0.098273865878582 L 47.0 0.098273865878582 L 47.0 0.10041024535894394 L 48.0 0.10041024535894394 L 48.0 0.10254663228988647 L 49.0 0.10254663228988647 L 49.0 0.1046830266714096 L 50.0 0.1046830266714096" style="vector-effect: non-scaling-stroke;fill:none;" /></g></g></g></g><g><g><g><g style="stroke: black;stroke-width: 1.2000000000000002;" transform="matrix(1.0, 0.0, 0.0, 1.0, 0.0, 0.0)"><path d="M 0.0 -2.0 L 0.0 2.0" style="vector-effect: non-scaling-stroke;fill:none;" /></g><g style="stroke: #808080;stroke-width: 0.6000000000000001;" transform="matrix(1.0, 0.0, 0.0, 1.0, 0.0, 0.0)"><path d="M 0.0 0.0 L 50.0 0.0" style="vector-effect: non-scaling-stroke;fill:none;" /></g></g><g style="stroke: black;stroke-width: 2.4000000000000004;" transform="matrix(1.0, 0.0, 0.0, 1.0, 0.0, 0.0)"><path d="M 0.0 0.0 L 1.0 0.0 L 1.0 0.0021363883279263973 L 2.0 0.0021363883279263973 L 2.0 0.004272776655852795 L 3.0 0.004272776655852795 L 3.0 0.006409164518117905 L 4.0 0.006409164518117905 L 4.0 0.00854555331170559 L 5.0 0.00854555331170559 L 5.0 0.0106819411739707 L 6.0 0.0106819411739707 L 6.0 0.01281832903623581 L 7.0 0.01281832903623581 L 7.0 0.014954717829823494 L 8.0 0.014954717829823494 L 8.0 0.01709110662341118 L 9.0 0.01709110662341118 L 9.0 0.019227495416998863 L 10.0 0.019227495416998863 L 10.0 0.0213638823479414 L 11.0 0.0213638823479414 L 11.0 0.023500271141529083 L 12.0 0.023500271141529083 L 12.0 0.02563665807247162 L 13.0 0.02563665807247162 L 13.0 0.027773046866059303 L 14.0 0.027773046866059303 L 14.0 0.029909435659646988 L 15.0 0.029909435659646988 L 15.0 0.03204582631587982 L 16.0 0.03204582631587982 L 16.0 0.03418221324682236 L 17.0 0.03418221324682236 L 17.0 0.03631860017776489 L 18.0 0.03631860017776489 L 18.0 0.038454990833997726 L 19.0 0.038454990833997726 L 19.0 0.04059137776494026 L 20.0 0.04059137776494026 L 20.0 0.0427277646958828 L 21.0 0.0427277646958828 L 21.0 0.04486415162682533 L 22.0 0.04486415162682533 L 22.0 0.047000542283058167 L 23.0 0.047000542283058167 L 23.0 0.049136932939291 L 24.0 0.049136932939291 L 24.0 0.05127331614494324 L 25.0 0.05127331614494324 L 25.0 0.05340970680117607 L 26.0 0.05340970680117607 L 26.0 0.05554609373211861 L 27.0 0.05554609373211861 L 27.0 0.05768248438835144 L 28.0 0.05768248438835144 L 28.0 0.059818871319293976 L 29.0 0.059818871319293976 L 29.0 0.06195525825023651 L 30.0 0.06195525825023651 L 30.0 0.06409165263175964 L 31.0 0.06409165263175964 L 31.0 0.06622803956270218 L 32.0 0.06622803956270218 L 32.0 0.06836442649364471 L 33.0 0.06836442649364471 L 33.0 0.07050081342458725 L 34.0 0.07050081342458725 L 34.0 0.07263720035552979 L 35.0 0.07263720035552979 L 35.0 0.07477358728647232 L 36.0 0.07477358728647232 L 36.0 0.07690998166799545 L 37.0 0.07690998166799545 L 37.0 0.07904636859893799 L 38.0 0.07904636859893799 L 38.0 0.08118275552988052 L 39.0 0.08118275552988052 L 39.0 0.08331914246082306 L 40.0 0.08331914246082306 L 40.0 0.0854555293917656 L 41.0 0.0854555293917656 L 41.0 0.08759191632270813 L 42.0 0.08759191632270813 L 42.0 0.08972830325365067 L 43.0 0.08972830325365067 L 43.0 0.0918646976351738 L 44.0 0.0918646976351738 L 44.0 0.09400108456611633 L 45.0 0.09400108456611633 L 45.0 0.09613747149705887 L 46.0 0.09613747149705887 L 46.0 0.098273865878582 L 47.0 0.098273865878582 L 47.0 0.10041024535894394 L 48.0 0.10041024535894394 L 48.0 0.10254663228988647 L 49.0 0.10254663228988647 L 49.0 0.1046830266714096 L 50.0 0.1046830266714096" style="vector-effect: non-scaling-stroke;fill:none;" /></g></g></g></g></g></g></g></g></g></g><g transform="matrix(1.0, 0.0, 0.0, 1.0, -0.24999999999999994, 0.16)"><g transform="matrix(1.0, 0.0, 0.0, 0.009999999999999995, 0.0, 0.0)"><g transform="matrix(0.01, 0.0, 0.0, 1.0, 0.0, 0.0)"><g><g><g style="fill: #ff0000;stroke: #ff0000;stroke-width: 1.2000000000000002;fill-opacity: 0.5;" transform="matrix(1.0, 0.0, 0.0, 1.0, 0.0, 0.0)"><path d="M 0.0 -2.0 L 0.0 2.0" style="vector-effect: non-scaling-stroke;fill:none;" /></g><g style="fill: #ff0000;stroke: #ff0000;stroke-width: 1.2000000000000002;fill-opacity: 0.5;" transform="matrix(1.0, 0.0, 0.0, 1.0, 0.0, 0.0)"><path d="M 0.0 -0.0 L 1.0 0.0 L 1.0 0.0021363883279263973 L 2.0 0.0021363883279263973 L 2.0 0.004272776655852795 L 3.0 0.004272776655852795 L 3.0 0.006409164518117905 L 4.0 0.006409164518117905 L 4.0 0.00854555331170559 L 5.0 0.00854555331170559 L 5.0 0.0106819411739707 L 6.0 0.0106819411739707 L 6.0 0.01281832903623581 L 7.0 0.01281832903623581 L 7.0 0.014954717829823494 L 8.0 0.014954717829823494 L 8.0 0.01709110662341118 L 9.0 0.01709110662341118 L 9.0 0.019227495416998863 L 10.0 0.019227495416998863 L 10.0 0.0213638823479414 L 11.0 0.0213638823479414 L 11.0 0.023500271141529083 L 12.0 0.023500271141529083 L 12.0 0.02563665807247162 L 13.0 0.02563665807247162 L 13.0 0.027773046866059303 L 14.0 0.027773046866059303 L 14.0 0.029909435659646988 L 15.0 0.029909435659646988 L 15.0 0.03204582631587982 L 16.0 0.03204582631587982 L 16.0 0.03418221324682236 L 17.0 0.03418221324682236 L 17.0 0.03631860017776489 L 18.0 0.03631860017776489 L 18.0 0.038454990833997726 L 19.0 0.038454990833997726 L 19.0 0.04059137776494026 L 20.0 0.04059137776494026 L 20.0 0.0427277646958828 L 21.0 0.0427277646958828 L 21.0 0.04486415162682533 L 22.0 0.04486415162682533 L 22.0 0.047000542283058167 L 23.0 0.047000542283058167 L 23.0 0.049136932939291 L 24.0 0.049136932939291 L 24.0 0.05127331614494324 L 25.0 0.05127331614494324 L 25.0 0.05340970680117607 L 26.0 0.05340970680117607 L 26.0 0.05554609373211861 L 27.0 0.05554609373211861 L 27.0 0.05768248438835144 L 28.0 0.05768248438835144 L 28.0 0.059818871319293976 L 29.0 0.059818871319293976 L 29.0 0.06195525825023651 L 30.0 0.06195525825023651 L 30.0 0.06409165263175964 L 31.0 0.06409165263175964 L 31.0 0.06622803956270218 L 32.0 0.06622803956270218 L 32.0 0.06836442649364471 L 33.0 0.06836442649364471 L 33.0 0.07050081342458725 L 34.0 0.07050081342458725 L 34.0 0.07263720035552979 L 35.0 0.07263720035552979 L 35.0 0.07477358728647232 L 36.0 0.07477358728647232 L 36.0 0.07690998166799545 L 37.0 0.07690998166799545 L 37.0 0.07904636859893799 L 38.0 0.07904636859893799 L 38.0 0.08118275552988052 L 39.0 0.08118275552988052 L 39.0 0.08331914246082306 L 40.0 0.08331914246082306 L 40.0 0.0854555293917656 L 41.0 0.0854555293917656 L 41.0 0.08759191632270813 L 42.0 0.08759191632270813 L 42.0 0.08972830325365067 L 43.0 0.08972830325365067 L 43.0 0.0918646976351738 L 44.0 0.0918646976351738 L 44.0 0.09400108456611633 L 45.0 0.09400108456611633 L 45.0 0.09613747149705887 L 46.0 0.09613747149705887 L 46.0 0.098273865878582 L 47.0 0.098273865878582 L 47.0 0.10041024535894394 L 48.0 0.10041024535894394 L 48.0 0.10254663228988647 L 49.0 0.10254663228988647 L 49.0 0.1046830266714096 L 50.0 0.1046830266714096 L 50.0 0.1046830266714096 L 49.0 0.1046830266714096 L 49.0 0.10254663228988647 L 48.0 0.10254663228988647 L 48.0 0.10041024535894394 L 47.0 0.10041024535894394 L 47.0 0.098273865878582 L 46.0 0.098273865878582 L 46.0 0.09613747149705887 L 45.0 0.09613747149705887 L 45.0 0.09400108456611633 L 44.0 0.09400108456611633 L 44.0 0.0918646976351738 L 43.0 0.0918646976351738 L 43.0 0.08972830325365067 L 42.0 0.08972830325365067 L 42.0 0.08759191632270813 L 41.0 0.08759191632270813 L 41.0 0.0854555293917656 L 40.0 0.0854555293917656 L 40.0 0.08331914246082306 L 39.0 0.08331914246082306 L 39.0 0.08118275552988052 L 38.0 0.08118275552988052 L 38.0 0.07904636859893799 L 37.0 0.07904636859893799 L 37.0 0.07690998166799545 L 36.0 0.07690998166799545 L 36.0 0.07477358728647232 L 35.0 0.07477358728647232 L 35.0 0.07263720035552979 L 34.0 0.07263720035552979 L 34.0 0.07050081342458725 L 33.0 0.07050081342458725 L 33.0 0.06836442649364471 L 32.0 0.06836442649364471 L 32.0 0.06622803956270218 L 31.0 0.06622803956270218 L 31.0 0.06409165263175964 L 30.0 0.06409165263175964 L 30.0 0.06195525825023651 L 29.0 0.06195525825023651 L 29.0 0.059818871319293976 L 28.0 0.059818871319293976 L 28.0 0.05768248438835144 L 27.0 0.05768248438835144 L 27.0 0.05554609373211861 L 26.0 0.05554609373211861 L 26.0 0.05340970680117607 L 25.0 0.05340970680117607 L 25.0 0.05127331614494324 L 24.0 0.05127331614494324 L 24.0 0.049136932939291 L 23.0 0.049136932939291 L 23.0 0.047000542283058167 L 22.0 0.047000542283058167 L 22.0 0.04486415162682533 L 21.0 0.04486415162682533 L 21.0 0.0427277646958828 L 20.0 0.0427277646958828 L 20.0 0.04059137776494026 L 19.0 0.04059137776494026 L 19.0 0.038454990833997726 L 18.0 0.038454990833997726 L 18.0 0.03631860017776489 L 17.0 0.03631860017776489 L 17.0 0.03418221324682236 L 16.0 0.03418221324682236 L 16.0 0.03204582631587982 L 15.0 0.03204582631587982 L 15.0 0.029909435659646988 L 14.0 0.029909435659646988 L 14.0 0.027773046866059303 L 13.0 0.027773046866059303 L 13.0 0.02563665807247162 L 12.0 0.02563665807247162 L 12.0 0.023500271141529083 L 11.0 0.023500271141529083 L 11.0 0.0213638823479414 L 10.0 0.0213638823479414 L 10.0 0.019227495416998863 L 9.0 0.019227495416998863 L 9.0 0.01709110662341118 L 8.0 0.01709110662341118 L 8.0 0.014954717829823494 L 7.0 0.014954717829823494 L 7.0 0.01281832903623581 L 6.0 0.01281832903623581 L 6.0 0.0106819411739707 L 5.0 0.0106819411739707 L 5.0 0.00854555331170559 L 4.0 0.00854555331170559 L 4.0 0.006409164518117905 L 3.0 0.006409164518117905 L 3.0 0.004272776655852795 L 2.0 0.004272776655852795 L 2.0 0.0021363883279263973 L 1.0 0.0021363883279263973 L 1.0 0.0 L 0.0 0.0 Z" style="vector-effect: non-scaling-stroke;" /></g></g><g style="stroke: black;stroke-width: 1.2000000000000002;" transform="matrix(1.0, 0.0, 0.0, 1.0, 0.0, 0.0)"><path d="M 0.0 0.0 L 1.0 0.0 L 1.0 0.0021363883279263973 L 2.0 0.0021363883279263973 L 2.0 0.004272776655852795 L 3.0 0.004272776655852795 L 3.0 0.006409164518117905 L 4.0 0.006409164518117905 L 4.0 0.00854555331170559 L 5.0 0.00854555331170559 L 5.0 0.0106819411739707 L 6.0 0.0106819411739707 L 6.0 0.01281832903623581 L 7.0 0.01281832903623581 L 7.0 0.014954717829823494 L 8.0 0.014954717829823494 L 8.0 0.01709110662341118 L 9.0 0.01709110662341118 L 9.0 0.019227495416998863 L 10.0 0.019227495416998863 L 10.0 0.0213638823479414 L 11.0 0.0213638823479414 L 11.0 0.023500271141529083 L 12.0 0.023500271141529083 L 12.0 0.02563665807247162 L 13.0 0.02563665807247162 L 13.0 0.027773046866059303 L 14.0 0.027773046866059303 L 14.0 0.029909435659646988 L 15.0 0.029909435659646988 L 15.0 0.03204582631587982 L 16.0 0.03204582631587982 L 16.0 0.03418221324682236 L 17.0 0.03418221324682236 L 17.0 0.03631860017776489 L 18.0 0.03631860017776489 L 18.0 0.038454990833997726 L 19.0 0.038454990833997726 L 19.0 0.04059137776494026 L 20.0 0.04059137776494026 L 20.0 0.0427277646958828 L 21.0 0.0427277646958828 L 21.0 0.04486415162682533 L 22.0 0.04486415162682533 L 22.0 0.047000542283058167 L 23.0 0.047000542283058167 L 23.0 0.049136932939291 L 24.0 0.049136932939291 L 24.0 0.05127331614494324 L 25.0 0.05127331614494324 L 25.0 0.05340970680117607 L 26.0 0.05340970680117607 L 26.0 0.05554609373211861 L 27.0 0.05554609373211861 L 27.0 0.05768248438835144 L 28.0 0.05768248438835144 L 28.0 0.059818871319293976 L 29.0 0.059818871319293976 L 29.0 0.06195525825023651 L 30.0 0.06195525825023651 L 30.0 0.06409165263175964 L 31.0 0.06409165263175964 L 31.0 0.06622803956270218 L 32.0 0.06622803956270218 L 32.0 0.06836442649364471 L 33.0 0.06836442649364471 L 33.0 0.07050081342458725 L 34.0 0.07050081342458725 L 34.0 0.07263720035552979 L 35.0 0.07263720035552979 L 35.0 0.07477358728647232 L 36.0 0.07477358728647232 L 36.0 0.07690998166799545 L 37.0 0.07690998166799545 L 37.0 0.07904636859893799 L 38.0 0.07904636859893799 L 38.0 0.08118275552988052 L 39.0 0.08118275552988052 L 39.0 0.08331914246082306 L 40.0 0.08331914246082306 L 40.0 0.0854555293917656 L 41.0 0.0854555293917656 L 41.0 0.08759191632270813 L 42.0 0.08759191632270813 L 42.0 0.08972830325365067 L 43.0 0.08972830325365067 L 43.0 0.0918646976351738 L 44.0 0.0918646976351738 L 44.0 0.09400108456611633 L 45.0 0.09400108456611633 L 45.0 0.09613747149705887 L 46.0 0.09613747149705887 L 46.0 0.098273865878582 L 47.0 0.098273865878582 L 47.0 0.10041024535894394 L 48.0 0.10041024535894394 L 48.0 0.10254663228988647 L 49.0 0.10254663228988647 L 49.0 0.1046830266714096 L 50.0 0.1046830266714096" style="vector-effect: non-scaling-stroke;fill:none;" /></g></g></g></g></g></g><g transform="matrix(1.0, 0.0, 0.0, 1.0, -0.24999999999999994, 0.16)"><g transform="matrix(1.0, 0.0, 0.0, 0.009999999999999995, 0.0, 0.0)"><g transform="matrix(0.01, 0.0, 0.0, 1.0, 0.0, 0.0)"><g><g><g style="fill: #ffffe0;stroke: #ffffe0;stroke-width: 1.2000000000000002;fill-opacity: 0.5;" transform="matrix(1.0, 0.0, 0.0, 1.0, 0.0, 0.0)"><path d="M 0.0 -2.0 L 0.0 2.0" style="vector-effect: non-scaling-stroke;fill:none;" /></g><g style="fill: #ffffe0;stroke: #ffffe0;stroke-width: 1.2000000000000002;fill-opacity: 0.5;" transform="matrix(1.0, 0.0, 0.0, 1.0, 0.0, 0.0)"><path d="M 0.0 -0.0 L 1.0 0.0 L 1.0 -0.03786391764879227 L 2.0 -0.03786391764879227 L 2.0 -0.07572783529758453 L 3.0 -0.07572783529758453 L 3.0 -0.11354517936706543 L 4.0 -0.11354517936706543 L 4.0 -0.15145567059516907 L 5.0 -0.15145567059516907 L 5.0 -0.18927301466464996 L 6.0 -0.18927301466464996 L 6.0 -0.22709035873413086 L 7.0 -0.22709035873413086 L 7.0 -0.2650008499622345 L 8.0 -0.2650008499622345 L 8.0 -0.30291134119033813 L 9.0 -0.30291134119033813 L 9.0 -0.3408218026161194 L 10.0 -0.3408218026161194 L 10.0 -0.3785460293292999 L 11.0 -0.3785460293292999 L 11.0 -0.41645652055740356 L 12.0 -0.41645652055740356 L 12.0 -0.4541807174682617 L 13.0 -0.4541807174682617 L 13.0 -0.49227747321128845 L 14.0 -0.49227747321128845 L 14.0 -0.530001699924469 L 15.0 -0.530001699924469 L 15.0 -0.5680984258651733 L 16.0 -0.5680984258651733 L 16.0 -0.6058226823806763 L 17.0 -0.6058226823806763 L 17.0 -0.6435468792915344 L 18.0 -0.6435468792915344 L 18.0 -0.6816436052322388 L 19.0 -0.6816436052322388 L 19.0 -0.7193678617477417 L 20.0 -0.7193678617477417 L 20.0 -0.7570920586585999 L 21.0 -0.7570920586585999 L 21.0 -0.794816255569458 L 22.0 -0.794816255569458 L 22.0 -0.8329130411148071 L 23.0 -0.8329130411148071 L 23.0 -0.8710097670555115 L 24.0 -0.8710097670555115 L 24.0 -0.9083614349365234 L 25.0 -0.9083614349365234 L 25.0 -0.9464582204818726 L 26.0 -0.9464582204818726 L 26.0 -0.9845549464225769 L 27.0 -0.9845549464225769 L 27.0 -1.0219066143035889 L 28.0 -1.0219066143035889 L 28.0 -1.060003399848938 L 29.0 -1.060003399848938 L 29.0 -1.097727656364441 L 30.0 -1.097727656364441 L 30.0 -1.1361968517303467 L 31.0 -1.1361968517303467 L 31.0 -1.1735485792160034 L 32.0 -1.1735485792160034 L 32.0 -1.2116453647613525 L 33.0 -1.2116453647613525 L 33.0 -1.2489969730377197 L 34.0 -1.2489969730377197 L 34.0 -1.2870937585830688 L 35.0 -1.2870937585830688 L 35.0 -1.325190544128418 L 36.0 -1.325190544128418 L 36.0 -1.3632872104644775 L 37.0 -1.3632872104644775 L 37.0 -1.4006389379501343 L 38.0 -1.4006389379501343 L 38.0 -1.4387357234954834 L 39.0 -1.4387357234954834 L 39.0 -1.476832389831543 L 40.0 -1.476832389831543 L 40.0 -1.5141841173171997 L 41.0 -1.5141841173171997 L 41.0 -1.5522809028625488 L 42.0 -1.5522809028625488 L 42.0 -1.589632511138916 L 43.0 -1.589632511138916 L 43.0 -1.6277292966842651 L 44.0 -1.6277292966842651 L 44.0 -1.6658260822296143 L 45.0 -1.6658260822296143 L 45.0 -1.7039227485656738 L 46.0 -1.7039227485656738 L 46.0 -1.742019534111023 L 47.0 -1.742019534111023 L 47.0 -1.7793712615966797 L 48.0 -1.7793712615966797 L 48.0 -1.8167228698730469 L 49.0 -1.8167228698730469 L 49.0 -1.854819655418396 L 50.0 -1.854819655418396 L 50.0 0.1046830266714096 L 49.0 0.1046830266714096 L 49.0 0.10254663228988647 L 48.0 0.10254663228988647 L 48.0 0.10041024535894394 L 47.0 0.10041024535894394 L 47.0 0.098273865878582 L 46.0 0.098273865878582 L 46.0 0.09613747149705887 L 45.0 0.09613747149705887 L 45.0 0.09400108456611633 L 44.0 0.09400108456611633 L 44.0 0.0918646976351738 L 43.0 0.0918646976351738 L 43.0 0.08972830325365067 L 42.0 0.08972830325365067 L 42.0 0.08759191632270813 L 41.0 0.08759191632270813 L 41.0 0.0854555293917656 L 40.0 0.0854555293917656 L 40.0 0.08331914246082306 L 39.0 0.08331914246082306 L 39.0 0.08118275552988052 L 38.0 0.08118275552988052 L 38.0 0.07904636859893799 L 37.0 0.07904636859893799 L 37.0 0.07690998166799545 L 36.0 0.07690998166799545 L 36.0 0.07477358728647232 L 35.0 0.07477358728647232 L 35.0 0.07263720035552979 L 34.0 0.07263720035552979 L 34.0 0.07050081342458725 L 33.0 0.07050081342458725 L 33.0 0.06836442649364471 L 32.0 0.06836442649364471 L 32.0 0.06622803956270218 L 31.0 0.06622803956270218 L 31.0 0.06409165263175964 L 30.0 0.06409165263175964 L 30.0 0.06195525825023651 L 29.0 0.06195525825023651 L 29.0 0.059818871319293976 L 28.0 0.059818871319293976 L 28.0 0.05768248438835144 L 27.0 0.05768248438835144 L 27.0 0.05554609373211861 L 26.0 0.05554609373211861 L 26.0 0.05340970680117607 L 25.0 0.05340970680117607 L 25.0 0.05127331614494324 L 24.0 0.05127331614494324 L 24.0 0.049136932939291 L 23.0 0.049136932939291 L 23.0 0.047000542283058167 L 22.0 0.047000542283058167 L 22.0 0.04486415162682533 L 21.0 0.04486415162682533 L 21.0 0.0427277646958828 L 20.0 0.0427277646958828 L 20.0 0.04059137776494026 L 19.0 0.04059137776494026 L 19.0 0.038454990833997726 L 18.0 0.038454990833997726 L 18.0 0.03631860017776489 L 17.0 0.03631860017776489 L 17.0 0.03418221324682236 L 16.0 0.03418221324682236 L 16.0 0.03204582631587982 L 15.0 0.03204582631587982 L 15.0 0.029909435659646988 L 14.0 0.029909435659646988 L 14.0 0.027773046866059303 L 13.0 0.027773046866059303 L 13.0 0.02563665807247162 L 12.0 0.02563665807247162 L 12.0 0.023500271141529083 L 11.0 0.023500271141529083 L 11.0 0.0213638823479414 L 10.0 0.0213638823479414 L 10.0 0.019227495416998863 L 9.0 0.019227495416998863 L 9.0 0.01709110662341118 L 8.0 0.01709110662341118 L 8.0 0.014954717829823494 L 7.0 0.014954717829823494 L 7.0 0.01281832903623581 L 6.0 0.01281832903623581 L 6.0 0.0106819411739707 L 5.0 0.0106819411739707 L 5.0 0.00854555331170559 L 4.0 0.00854555331170559 L 4.0 0.006409164518117905 L 3.0 0.006409164518117905 L 3.0 0.004272776655852795 L 2.0 0.004272776655852795 L 2.0 0.0021363883279263973 L 1.0 0.0021363883279263973 L 1.0 0.0 L 0.0 0.0 Z" style="vector-effect: non-scaling-stroke;" /></g></g><g style="stroke: black;stroke-width: 1.2000000000000002;" transform="matrix(1.0, 0.0, 0.0, 1.0, 0.0, 0.0)"><path d="M 0.0 0.0 L 1.0 0.0 L 1.0 0.0021363883279263973 L 2.0 0.0021363883279263973 L 2.0 0.004272776655852795 L 3.0 0.004272776655852795 L 3.0 0.006409164518117905 L 4.0 0.006409164518117905 L 4.0 0.00854555331170559 L 5.0 0.00854555331170559 L 5.0 0.0106819411739707 L 6.0 0.0106819411739707 L 6.0 0.01281832903623581 L 7.0 0.01281832903623581 L 7.0 0.014954717829823494 L 8.0 0.014954717829823494 L 8.0 0.01709110662341118 L 9.0 0.01709110662341118 L 9.0 0.019227495416998863 L 10.0 0.019227495416998863 L 10.0 0.0213638823479414 L 11.0 0.0213638823479414 L 11.0 0.023500271141529083 L 12.0 0.023500271141529083 L 12.0 0.02563665807247162 L 13.0 0.02563665807247162 L 13.0 0.027773046866059303 L 14.0 0.027773046866059303 L 14.0 0.029909435659646988 L 15.0 0.029909435659646988 L 15.0 0.03204582631587982 L 16.0 0.03204582631587982 L 16.0 0.03418221324682236 L 17.0 0.03418221324682236 L 17.0 0.03631860017776489 L 18.0 0.03631860017776489 L 18.0 0.038454990833997726 L 19.0 0.038454990833997726 L 19.0 0.04059137776494026 L 20.0 0.04059137776494026 L 20.0 0.0427277646958828 L 21.0 0.0427277646958828 L 21.0 0.04486415162682533 L 22.0 0.04486415162682533 L 22.0 0.047000542283058167 L 23.0 0.047000542283058167 L 23.0 0.049136932939291 L 24.0 0.049136932939291 L 24.0 0.05127331614494324 L 25.0 0.05127331614494324 L 25.0 0.05340970680117607 L 26.0 0.05340970680117607 L 26.0 0.05554609373211861 L 27.0 0.05554609373211861 L 27.0 0.05768248438835144 L 28.0 0.05768248438835144 L 28.0 0.059818871319293976 L 29.0 0.059818871319293976 L 29.0 0.06195525825023651 L 30.0 0.06195525825023651 L 30.0 0.06409165263175964 L 31.0 0.06409165263175964 L 31.0 0.06622803956270218 L 32.0 0.06622803956270218 L 32.0 0.06836442649364471 L 33.0 0.06836442649364471 L 33.0 0.07050081342458725 L 34.0 0.07050081342458725 L 34.0 0.07263720035552979 L 35.0 0.07263720035552979 L 35.0 0.07477358728647232 L 36.0 0.07477358728647232 L 36.0 0.07690998166799545 L 37.0 0.07690998166799545 L 37.0 0.07904636859893799 L 38.0 0.07904636859893799 L 38.0 0.08118275552988052 L 39.0 0.08118275552988052 L 39.0 0.08331914246082306 L 40.0 0.08331914246082306 L 40.0 0.0854555293917656 L 41.0 0.0854555293917656 L 41.0 0.08759191632270813 L 42.0 0.08759191632270813 L 42.0 0.08972830325365067 L 43.0 0.08972830325365067 L 43.0 0.0918646976351738 L 44.0 0.0918646976351738 L 44.0 0.09400108456611633 L 45.0 0.09400108456611633 L 45.0 0.09613747149705887 L 46.0 0.09613747149705887 L 46.0 0.098273865878582 L 47.0 0.098273865878582 L 47.0 0.10041024535894394 L 48.0 0.10041024535894394 L 48.0 0.10254663228988647 L 49.0 0.10254663228988647 L 49.0 0.1046830266714096 L 50.0 0.1046830266714096" style="vector-effect: non-scaling-stroke;fill:none;" /></g></g></g></g></g></g></g></g><g /></g></g></g></g></svg>