<?xml version="1.0" encoding="utf-8" ?>
<svg baseProfile="full" height="300" version="1.1" width="1132" xmlns="http://www.w3.org/2000/svg" xmlns:ev="http://www.w3.org/2001/xml-events" xmlns:xlink="http://www.w3.org/1999/xlink"><defs><marker id="arrow" markerHeight="3.5" markerWidth="5" orient="auto" refX="5.0" refY="1.7"><polygon points="0,0 5,1.75 0,3.5" /></marker></defs><g style="fill:white;"><g transform="matrix(1.0, 0.0, 0.0, 1.0, 566.1851185749441, 150.00000000000003)"><g transform="matrix(1067.7701434699559, 0.0, 0.0, 1067.7701434699559, 0.0, 0.0)"><g><g transform="matrix(1.0, 0.0, 0.0, 1.0, -0.0, -0.08000000000000002)"><g><g><g style="fill: #ffffff;stroke: black;stroke-width: 1.2000000000000002;" transform="matrix(1.0, 0.0, 0.0, 1.0, -0.505, -0.05379016423225404)"><path d="M 0.0 0.0 L 1.01 0.0 L 1.01 0.2675803284645081 L 0.0 0.2675803284645081 L 0.0 0.0 Z" style="vector-effect: non-scaling-stroke;" /></g><g><g><g><g><g><g><g><g transform="matrix(1.0, 0.0, 0.0, 1.0, -0.45499999999999996, -0.03149180352687836)"><g><g><g transform="matrix(1.0, 0.0, 0.0, 1.0, 0.075, 0.0)"><g transform="matrix(1.0, 0.0, 0.0, 1.0, 0.0, 0.032486339211463926)"><g transform="matrix(0.01, 0.0, 0.0, 0.01, 0.0, 0.0)"><g><g><g transform="matrix(1.0, 0.0, 0.0, 1.0, 24.5, -0.09945356845855713)"><g transform="matrix(1.0, 0.0, 0.0, 1.0, -32.0, -0.0)"><g><g style="fill: #d3d3d3;stroke: black;stroke-width: 1.2000000000000002;" transform="matrix(1.0, 0.0, 0.0, 1.0, 0.0, -3.1491803526878357)"><path d="M 0.0 0.0 L 64.0 0.0 L 64.0 6.298360705375671 L 0.0 6.298360705375671 L 0.0 0.0 Z" style="vector-effect: non-scaling-stroke;" /></g><g transform="matrix(1.0, 0.0, 0.0, 1.0, 1.875, 0.0)"><g><g style="stroke: black;stroke-width: 1.2000000000000002;" transform="matrix(1.0, 0.0, 0.0, 1.0, 0.0, 0.0)"><g /></g><g style="fill: #ffa500;stroke: black;stroke-width: 1.2000000000000002;" transform="matrix(1.0, 0.0, 0.0, 1.0, 1.875, 0.0)"><text style="text-align:center; text-anchor:middle; dominant-baseline:middle;&#10;                      font-family:sans-serif; font-weight: bold;&#10;                      font-size:3px;&#10;                      vector-effect: non-scaling-stroke;" transform="translate(-5e-05, 0)">x</text></g></g></g></g></g></g><g><g><g><g><g><g><g><g><g><g><g style="stroke: black;stroke-width: 1.2000000000000002;" transform="matrix(1.0, 0.0, 0.0, 1.0, 0.0, 0.0)"><path d="M 0.0 -2.0 L 0.0 2.0" style="vector-effect: non-scaling-stroke;fill:none;" /></g><g style="stroke: #808080;stroke-width: 0.6000000000000001;" transform="matrix(1.0, 0.0, 0.0, 1.0, 0.0, 0.0)"><path d="M 0.0 0.0 L 49.0 0.0" style="vector-effect: non-scaling-stroke;fill:none;" /></g></g><g style="stroke: black;stroke-width: 2.4000000000000004;" transform="matrix(1.0, 0.0, 0.0, 1.0, 0.0, 0.0)"><path d="M 0.0 -1.0294554233551025 L 1.0 -1.0294554233551025 L 1.0 -1.1630185842514038 L 2.0 -1.1630185842514038 L 2.0 -1.1423406600952148 L 3.0 -1.1423406600952148 L 3.0 -1.1195001602172852 L 4.0 -1.1195001602172852 L 4.0 -1.2506177425384521 L 5.0 -1.2506177425384521 L 5.0 -0.44162389636039734 L 6.0 -0.44162389636039734 L 6.0 -0.9394607543945312 L 7.0 -0.9394607543945312 L 7.0 -1.0511826276779175 L 8.0 -1.0511826276779175 L 8.0 -1.397074580192566 L 9.0 -1.397074580192566 L 9.0 -0.7729616165161133 L 10.0 -0.7729616165161133 L 10.0 -1.5159924030303955 L 11.0 -1.5159924030303955 L 11.0 -1.472355604171753 L 12.0 -1.472355604171753 L 12.0 -1.7392082214355469 L 13.0 -1.7392082214355469 L 13.0 -1.086776852607727 L 14.0 -1.086776852607727 L 14.0 -0.6867468357086182 L 15.0 -0.6867468357086182 L 15.0 -1.408700704574585 L 16.0 -1.408700704574585 L 16.0 -0.9544563293457031 L 17.0 -0.9544563293457031 L 17.0 -1.6993707418441772 L 18.0 -1.6993707418441772 L 18.0 -0.5132640600204468 L 19.0 -0.5132640600204468 L 19.0 -1.2664798498153687 L 20.0 -1.2664798498153687 L 20.0 -0.5250760912895203 L 21.0 -0.5250760912895203 L 21.0 -2.1989071369171143 L 22.0 -2.1989071369171143 L 22.0 -0.7140564918518066 L 23.0 -0.7140564918518066 L 23.0 -1.3732551336288452 L 24.0 -1.3732551336288452 L 24.0 -1.2565048933029175 L 25.0 -1.2565048933029175 L 25.0 -0.4058234691619873 L 26.0 -0.4058234691619873 L 26.0 -1.4786224365234375 L 27.0 -1.4786224365234375 L 27.0 -1.003357172012329 L 28.0 -1.003357172012329 L 28.0 -1.17458176612854 L 29.0 -1.17458176612854 L 29.0 -0.7205642461776733 L 30.0 -0.7205642461776733 L 30.0 -0.5343113541603088 L 31.0 -0.5343113541603088 L 31.0 -1.1048914194107056 L 32.0 -1.1048914194107056 L 32.0 -1.328643798828125 L 33.0 -1.328643798828125 L 33.0 -0.9665734767913818 L 34.0 -0.9665734767913818 L 34.0 -1.2370926141738892 L 35.0 -1.2370926141738892 L 35.0 -1.4970800876617432 L 36.0 -1.4970800876617432 L 36.0 -1.920912504196167 L 37.0 -1.920912504196167 L 37.0 -0.8278830051422119 L 38.0 -0.8278830051422119 L 38.0 -1.3847084045410156 L 39.0 -1.3847084045410156 L 39.0 -2.193962335586548 L 40.0 -2.193962335586548 L 40.0 -1.793639898300171 L 41.0 -1.793639898300171 L 41.0 -1.047120451927185 L 42.0 -1.047120451927185 L 42.0 -2.1948606967926025 L 43.0 -2.1948606967926025 L 43.0 -0.42419150471687317 L 44.0 -0.42419150471687317 L 44.0 -0.6459212899208069 L 45.0 -0.6459212899208069 L 45.0 -1.4625756740570068 L 46.0 -1.4625756740570068 L 46.0 -1.1969610452651978 L 47.0 -1.1969610452651978 L 47.0 -1.957920789718628 L 48.0 -1.957920789718628 L 48.0 -0.6398112177848816 L 49.0 -0.6398112177848816" style="vector-effect: non-scaling-stroke;fill:none;" /></g></g><g style="stroke: black;stroke-width: 1.2000000000000002;" transform="matrix(1.0, 0.0, 0.0, 1.0, 0.0, 0.0)"><path d="M 0.0 -2.0 L 0.0 2.0" style="vector-effect: non-scaling-stroke;fill:none;" /></g></g><g style="stroke: black;stroke-width: 1.2000000000000002;" transform="matrix(1.0, 0.0, 0.0, 1.0, 0.0, 0.0)"><path d="M 7.0 -2.0 L 7.0 2.0" style="vector-effect: non-scaling-stroke;fill:none;" /></g></g><g style="stroke: black;stroke-width: 1.2000000000000002;" transform="matrix(1.0, 0.0, 0.0, 1.0, 0.0, 0.0)"><path d="M 14.0 -2.0 L 14.0 2.0" style="vector-effect: non-scaling-stroke;fill:none;" /></g></g><g style="stroke: black;stroke-width: 1.2000000000000002;" transform="matrix(1.0, 0.0, 0.0, 1.0, 0.0, 0.0)"><path d="M 21.0 -2.0 L 21.0 2.0" style="vector-effect: non-scaling-stroke;fill:none;" /></g></g><g style="stroke: black;stroke-width: 1.2000000000000002;" transform="matrix(1.0, 0.0, 0.0, 1.0, 0.0, 0.0)"><path d="M 28.0 -2.0 L 28.0 2.0" style="vector-effect: non-scaling-stroke;fill:none;" /></g></g><g style="stroke: black;stroke-width: 1.2000000000000002;" transform="matrix(1.0, 0.0, 0.0, 1.0, 0.0, 0.0)"><path d="M 35.0 -2.0 L 35.0 2.0" style="vector-effect: non-scaling-stroke;fill:none;" /></g></g><g style="stroke: black;stroke-width: 1.2000000000000002;" transform="matrix(1.0, 0.0, 0.0, 1.0, 0.0, 0.0)"><path d="M 42.0 -2.0 L 42.0 2.0" style="vector-effect: non-scaling-stroke;fill:none;" /></g></g></g></g><g><g><g><g><g><g><g><g><g><g><g style="stroke: black;stroke-width: 1.2000000000000002;" transform="matrix(1.0, 0.0, 0.0, 1.0, 0.0, 0.0)"><path d="M 0.0 -2.0 L 0.0 2.0" style="vector-effect: non-scaling-stroke;fill:none;" /></g><g style="stroke: #808080;stroke-width: 0.6000000000000001;" transform="matrix(1.0, 0.0, 0.0, 1.0, 0.0, 0.0)"><path d="M 0.0 0.0 L 49.0 0.0" style="vector-effect: non-scaling-stroke;fill:none;" /></g></g><g style="stroke: black;stroke-width: 2.4000000000000004;" transform="matrix(1.0, 0.0, 0.0, 1.0, 0.0, 0.0)"><path d="M 0.0 -1.0294554233551025 L 1.0 -1.0294554233551025 L 1.0 -1.1630185842514038 L 2.0 -1.1630185842514038 L 2.0 -1.1423406600952148 L 3.0 -1.1423406600952148 L 3.0 -1.1195001602172852 L 4.0 -1.1195001602172852 L 4.0 -1.2506177425384521 L 5.0 -1.2506177425384521 L 5.0 -0.44162389636039734 L 6.0 -0.44162389636039734 L 6.0 -0.9394607543945312 L 7.0 -0.9394607543945312 L 7.0 -1.0511826276779175 L 8.0 -1.0511826276779175 L 8.0 -1.397074580192566 L 9.0 -1.397074580192566 L 9.0 -0.7729616165161133 L 10.0 -0.7729616165161133 L 10.0 -1.5159924030303955 L 11.0 -1.5159924030303955 L 11.0 -1.472355604171753 L 12.0 -1.472355604171753 L 12.0 -1.7392082214355469 L 13.0 -1.7392082214355469 L 13.0 -1.086776852607727 L 14.0 -1.086776852607727 L 14.0 -0.6867468357086182 L 15.0 -0.6867468357086182 L 15.0 -1.408700704574585 L 16.0 -1.408700704574585 L 16.0 -0.9544563293457031 L 17.0 -0.9544563293457031 L 17.0 -1.6993707418441772 L 18.0 -1.6993707418441772 L 18.0 -0.5132640600204468 L 19.0 -0.5132640600204468 L 19.0 -1.2664798498153687 L 20.0 -1.2664798498153687 L 20.0 -0.5250760912895203 L 21.0 -0.5250760912895203 L 21.0 -2.1989071369171143 L 22.0 -2.1989071369171143 L 22.0 -0.7140564918518066 L 23.0 -0.7140564918518066 L 23.0 -1.3732551336288452 L 24.0 -1.3732551336288452 L 24.0 -1.2565048933029175 L 25.0 -1.2565048933029175 L 25.0 -0.4058234691619873 L 26.0 -0.4058234691619873 L 26.0 -1.4786224365234375 L 27.0 -1.4786224365234375 L 27.0 -1.003357172012329 L 28.0 -1.003357172012329 L 28.0 -1.17458176612854 L 29.0 -1.17458176612854 L 29.0 -0.7205642461776733 L 30.0 -0.7205642461776733 L 30.0 -0.5343113541603088 L 31.0 -0.5343113541603088 L 31.0 -1.1048914194107056 L 32.0 -1.1048914194107056 L 32.0 -1.328643798828125 L 33.0 -1.328643798828125 L 33.0 -0.9665734767913818 L 34.0 -0.9665734767913818 L 34.0 -1.2370926141738892 L 35.0 -1.2370926141738892 L 35.0 -1.4970800876617432 L 36.0 -1.4970800876617432 L 36.0 -1.920912504196167 L 37.0 -1.920912504196167 L 37.0 -0.8278830051422119 L 38.0 -0.8278830051422119 L 38.0 -1.3847084045410156 L 39.0 -1.3847084045410156 L 39.0 -2.193962335586548 L 40.0 -2.193962335586548 L 40.0 -1.793639898300171 L 41.0 -1.793639898300171 L 41.0 -1.047120451927185 L 42.0 -1.047120451927185 L 42.0 -2.1948606967926025 L 43.0 -2.1948606967926025 L 43.0 -0.42419150471687317 L 44.0 -0.42419150471687317 L 44.0 -0.6459212899208069 L 45.0 -0.6459212899208069 L 45.0 -1.4625756740570068 L 46.0 -1.4625756740570068 L 46.0 -1.1969610452651978 L 47.0 -1.1969610452651978 L 47.0 -1.957920789718628 L 48.0 -1.957920789718628 L 48.0 -0.6398112177848816 L 49.0 -0.6398112177848816" style="vector-effect: non-scaling-stroke;fill:none;" /></g></g><g style="stroke: black;stroke-width: 1.2000000000000002;" transform="matrix(1.0, 0.0, 0.0, 1.0, 0.0, 0.0)"><path d="M 0.0 -2.0 L 0.0 2.0" style="vector-effect: non-scaling-stroke;fill:none;" /></g></g><g style="stroke: black;stroke-width: 1.2000000000000002;" transform="matrix(1.0, 0.0, 0.0, 1.0, 0.0, 0.0)"><path d="M 7.0 -2.0 L 7.0 2.0" style="vector-effect: non-scaling-stroke;fill:none;" /></g></g><g style="stroke: black;stroke-width: 1.2000000000000002;" transform="matrix(1.0, 0.0, 0.0, 1.0, 0.0, 0.0)"><path d="M 14.0 -2.0 L 14.0 2.0" style="vector-effect: non-scaling-stroke;fill:none;" /></g></g><g style="stroke: black;stroke-width: 1.2000000000000002;" transform="matrix(1.0, 0.0, 0.0, 1.0, 0.0, 0.0)"><path d="M 21.0 -2.0 L 21.0 2.0" style="vector-effect: non-scaling-stroke;fill:none;" /></g></g><g style="stroke: black;stroke-width: 1.2000000000000002;" transform="matrix(1.0, 0.0, 0.0, 1.0, 0.0, 0.0)"><path d="M 28.0 -2.0 L 28.0 2.0" style="vector-effect: non-scaling-stroke;fill:none;" /></g></g><g style="stroke: black;stroke-width: 1.2000000000000002;" transform="matrix(1.0, 0.0, 0.0, 1.0, 0.0, 0.0)"><path d="M 35.0 -2.0 L 35.0 2.0" style="vector-effect: non-scaling-stroke;fill:none;" /></g></g><g style="stroke: black;stroke-width: 1.2000000000000002;" transform="matrix(1.0, 0.0, 0.0, 1.0, 0.0, 0.0)"><path d="M 42.0 -2.0 L 42.0 2.0" style="vector-effect: non-scaling-stroke;fill:none;" /></g></g></g></g></g></g></g><g style="stroke: black;stroke-width: 1.2000000000000002;" transform="matrix(1.0, 0.0, 0.0, 1.0, 0.6549999999999999, 0.0)"><g /></g></g><g transform="matrix(1.0, 0.0, 0.0, 1.0, 0.6699999999999999, 0.0)"><g transform="matrix(1.0, 0.0, 0.0, 1.0, 0.075, 0.0)"><g transform="matrix(1.0, 0.0, 0.0, 1.0, 0.0, 0.03)"><g transform="matrix(0.01, 0.0, 0.0, 0.01, 0.0, 0.0)"><g><g><g transform="matrix(1.0, 0.0, 0.0, 1.0, 4.5, 0.0)"><g transform="matrix(1.0, 0.0, 0.0, 1.0, -12.0, -0.0)"><g><g style="fill: #d3d3d3;stroke: black;stroke-width: 1.2000000000000002;" transform="matrix(1.0, 0.0, 0.0, 1.0, 0.0, -3.0)"><path d="M 0.0 0.0 L 24.0 0.0 L 24.0 6.0 L 0.0 6.0 L 0.0 0.0 Z" style="vector-effect: non-scaling-stroke;" /></g><g transform="matrix(1.0, 0.0, 0.0, 1.0, 1.875, 0.0)"><g><g style="stroke: black;stroke-width: 1.2000000000000002;" transform="matrix(1.0, 0.0, 0.0, 1.0, 0.0, 0.0)"><g /></g><g style="fill: #ffa500;stroke: black;stroke-width: 1.2000000000000002;" transform="matrix(1.0, 0.0, 0.0, 1.0, 1.875, 0.0)"><text style="text-align:center; text-anchor:middle; dominant-baseline:middle;&#10;                      font-family:sans-serif; font-weight: bold;&#10;                      font-size:3px;&#10;                      vector-effect: non-scaling-stroke;" transform="translate(-5e-05, 0)">y</text></g></g></g></g></g></g><g><g><g><g style="stroke: black;stroke-width: 1.2000000000000002;" transform="matrix(1.0, 0.0, 0.0, 1.0, 0.0, 0.0)"><path d="M 0.0 -2.0 L 0.0 2.0" style="vector-effect: non-scaling-stroke;fill:none;" /></g><g style="stroke: #808080;stroke-width: 0.6000000000000001;" transform="matrix(1.0, 0.0, 0.0, 1.0, 0.0, 0.0)"><path d="M 0.0 0.0 L 9.0 0.0" style="vector-effect: non-scaling-stroke;fill:none;" /></g></g><g style="stroke: black;stroke-width: 2.4000000000000004;" transform="matrix(1.0, 0.0, 0.0, 1.0, 0.0, 0.0)"><path d="M 0.0 -0.5216265320777893 L 1.0 -0.5216265320777893 L 1.0 -1.0294554233551025 L 2.0 -1.0294554233551025 L 2.0 -1.1630185842514038 L 3.0 -1.1630185842514038 L 3.0 -1.1423406600952148 L 4.0 -1.1423406600952148 L 4.0 -1.1195001602172852 L 5.0 -1.1195001602172852 L 5.0 -1.2506177425384521 L 6.0 -1.2506177425384521 L 6.0 -0.44162389636039734 L 7.0 -0.44162389636039734 L 7.0 -0.9394607543945312 L 8.0 -0.9394607543945312 L 8.0 -1.0511826276779175 L 9.0 -1.0511826276779175" style="vector-effect: non-scaling-stroke;fill:none;" /></g></g></g></g><g><g><g><g style="stroke: black;stroke-width: 1.2000000000000002;" transform="matrix(1.0, 0.0, 0.0, 1.0, 0.0, 0.0)"><path d="M 0.0 -2.0 L 0.0 2.0" style="vector-effect: non-scaling-stroke;fill:none;" /></g><g style="stroke: #808080;stroke-width: 0.6000000000000001;" transform="matrix(1.0, 0.0, 0.0, 1.0, 0.0, 0.0)"><path d="M 0.0 0.0 L 9.0 0.0" style="vector-effect: non-scaling-stroke;fill:none;" /></g></g><g style="stroke: black;stroke-width: 2.4000000000000004;" transform="matrix(1.0, 0.0, 0.0, 1.0, 0.0, 0.0)"><path d="M 0.0 -0.5216265320777893 L 1.0 -0.5216265320777893 L 1.0 -1.0294554233551025 L 2.0 -1.0294554233551025 L 2.0 -1.1630185842514038 L 3.0 -1.1630185842514038 L 3.0 -1.1423406600952148 L 4.0 -1.1423406600952148 L 4.0 -1.1195001602172852 L 5.0 -1.1195001602172852 L 5.0 -1.2506177425384521 L 6.0 -1.2506177425384521 L 6.0 -0.44162389636039734 L 7.0 -0.44162389636039734 L 7.0 -0.9394607543945312 L 8.0 -0.9394607543945312 L 8.0 -1.0511826276779175 L 9.0 -1.0511826276779175" style="vector-effect: non-scaling-stroke;fill:none;" /></g></g></g></g></g></g></g></g></g></g><g style="stroke: black;stroke-width: 1.2000000000000002;" transform="matrix(0.0, -1.0, 1.0, 0.0, 0.0, 0.08149180352687836)"><g /></g></g><g transform="matrix(1.0, 0.0, 0.0, 1.0, 0.0, 0.16149180352687836)"><g transform="matrix(1.0, 0.0, 0.0, 1.0, -0.2, -0.03)"><g transform="matrix(1.0, 0.0, 0.0, 1.0, 0.075, 0.0)"><g transform="matrix(1.0, 0.0, 0.0, 1.0, 0.0, 0.03)"><g transform="matrix(0.01, 0.0, 0.0, 0.01, 0.0, 0.0)"><g><g><g transform="matrix(1.0, 0.0, 0.0, 1.0, 12.5, 0.0)"><g transform="matrix(1.0, 0.0, 0.0, 1.0, -20.0, -0.0)"><g><g style="fill: #d3d3d3;stroke: black;stroke-width: 1.2000000000000002;" transform="matrix(1.0, 0.0, 0.0, 1.0, 0.0, -3.0)"><path d="M 0.0 0.0 L 40.0 0.0 L 40.0 6.0 L 0.0 6.0 L 0.0 0.0 Z" style="vector-effect: non-scaling-stroke;" /></g><g transform="matrix(1.0, 0.0, 0.0, 1.0, 1.875, 0.0)"><g><g style="stroke: black;stroke-width: 1.2000000000000002;" transform="matrix(1.0, 0.0, 0.0, 1.0, 0.0, 0.0)"><g /></g><g style="fill: #ffa500;stroke: black;stroke-width: 1.2000000000000002;" transform="matrix(1.0, 0.0, 0.0, 1.0, 1.875, 0.0)"><text style="text-align:center; text-anchor:middle; dominant-baseline:middle;&#10;                      font-family:sans-serif; font-weight: bold;&#10;                      font-size:3px;&#10;                      vector-effect: non-scaling-stroke;" transform="translate(-5e-05, 0)">f(x)</text></g></g></g></g></g></g><g><g><g><g style="stroke: black;stroke-width: 1.2000000000000002;" transform="matrix(1.0, 0.0, 0.0, 1.0, 0.0, 0.0)"><path d="M 0.0 -2.0 L 0.0 2.0" style="vector-effect: non-scaling-stroke;fill:none;" /></g><g style="stroke: #808080;stroke-width: 0.6000000000000001;" transform="matrix(1.0, 0.0, 0.0, 1.0, 0.0, 0.0)"><path d="M 0.0 0.0 L 25.0 0.0" style="vector-effect: non-scaling-stroke;fill:none;" /></g></g><g style="stroke: black;stroke-width: 2.4000000000000004;" transform="matrix(1.0, 0.0, 0.0, 1.0, 0.0, 0.0)"><path d="M 0.0 -0.5235752463340759 L 1.0 -0.5235752463340759 L 1.0 -0.5970545411109924 L 2.0 -0.5970545411109924 L 2.0 -0.5656595826148987 L 3.0 -0.5656595826148987 L 3.0 -0.5835652947425842 L 4.0 -0.5835652947425842 L 4.0 -0.508674681186676 L 5.0 -0.508674681186676 L 5.0 -0.5292321443557739 L 6.0 -0.5292321443557739 L 6.0 -0.6120489835739136 L 7.0 -0.6120489835739136 L 7.0 -0.5291318297386169 L 8.0 -0.5291318297386169 L 8.0 -0.6066355109214783 L 9.0 -0.6066355109214783 L 9.0 -0.5059030652046204 L 10.0 -0.5059030652046204 L 10.0 -0.5391387939453125 L 11.0 -0.5391387939453125 L 11.0 -0.5333263278007507 L 12.0 -0.5333263278007507 L 12.0 -0.4998754858970642 L 13.0 -0.4998754858970642 L 13.0 -0.521045982837677 L 14.0 -0.521045982837677 L 14.0 -0.46395230293273926 L 15.0 -0.46395230293273926 L 15.0 -0.5351059436798096 L 16.0 -0.5351059436798096 L 16.0 -0.5073482394218445 L 17.0 -0.5073482394218445 L 17.0 -0.5535270571708679 L 18.0 -0.5535270571708679 L 18.0 -0.6282981038093567 L 19.0 -0.6282981038093567 L 19.0 -0.600135326385498 L 20.0 -0.600135326385498 L 20.0 -0.49548301100730896 L 21.0 -0.49548301100730896 L 21.0 -0.5219667553901672 L 22.0 -0.5219667553901672 L 22.0 -0.6177005171775818 L 23.0 -0.6177005171775818 L 23.0 -0.73210608959198 L 24.0 -0.73210608959198 L 24.0 -0.6661776304244995 L 25.0 -0.6661776304244995" style="vector-effect: non-scaling-stroke;fill:none;" /></g></g></g></g><g><g><g><g style="stroke: black;stroke-width: 1.2000000000000002;" transform="matrix(1.0, 0.0, 0.0, 1.0, 0.0, 0.0)"><path d="M 0.0 -2.0 L 0.0 2.0" style="vector-effect: non-scaling-stroke;fill:none;" /></g><g style="stroke: #808080;stroke-width: 0.6000000000000001;" transform="matrix(1.0, 0.0, 0.0, 1.0, 0.0, 0.0)"><path d="M 0.0 0.0 L 25.0 0.0" style="vector-effect: non-scaling-stroke;fill:none;" /></g></g><g style="stroke: black;stroke-width: 2.4000000000000004;" transform="matrix(1.0, 0.0, 0.0, 1.0, 0.0, 0.0)"><path d="M 0.0 -0.5235752463340759 L 1.0 -0.5235752463340759 L 1.0 -0.5970545411109924 L 2.0 -0.5970545411109924 L 2.0 -0.5656595826148987 L 3.0 -0.5656595826148987 L 3.0 -0.5835652947425842 L 4.0 -0.5835652947425842 L 4.0 -0.508674681186676 L 5.0 -0.508674681186676 L 5.0 -0.5292321443557739 L 6.0 -0.5292321443557739 L 6.0 -0.6120489835739136 L 7.0 -0.6120489835739136 L 7.0 -0.5291318297386169 L 8.0 -0.5291318297386169 L 8.0 -0.6066355109214783 L 9.0 -0.6066355109214783 L 9.0 -0.5059030652046204 L 10.0 -0.5059030652046204 L 10.0 -0.5391387939453125 L 11.0 -0.5391387939453125 L 11.0 -0.5333263278007507 L 12.0 -0.5333263278007507 L 12.0 -0.4998754858970642 L 13.0 -0.4998754858970642 L 13.0 -0.521045982837677 L 14.0 -0.521045982837677 L 14.0 -0.46395230293273926 L 15.0 -0.46395230293273926 L 15.0 -0.5351059436798096 L 16.0 -0.5351059436798096 L 16.0 -0.5073482394218445 L 17.0 -0.5073482394218445 L 17.0 -0.5535270571708679 L 18.0 -0.5535270571708679 L 18.0 -0.6282981038093567 L 19.0 -0.6282981038093567 L 19.0 -0.600135326385498 L 20.0 -0.600135326385498 L 20.0 -0.49548301100730896 L 21.0 -0.49548301100730896 L 21.0 -0.5219667553901672 L 22.0 -0.5219667553901672 L 22.0 -0.6177005171775818 L 23.0 -0.6177005171775818 L 23.0 -0.73210608959198 L 24.0 -0.73210608959198 L 24.0 -0.6661776304244995 L 25.0 -0.6661776304244995" style="vector-effect: non-scaling-stroke;fill:none;" /></g></g></g></g></g></g></g></g></g></g><g transform="matrix(1.0, 0.0, 0.0, 1.0, -0.125, 0.16149180352687836)"><g transform="matrix(1.0, 0.0, 0.0, 0.009999999999999995, 0.0, 0.0)"><g transform="matrix(0.01, 0.0, 0.0, 1.0, 0.0, 0.0)"><g><g><g style="fill: #ffffe0;stroke: #ffffe0;stroke-width: 1.2000000000000002;fill-opacity: 0.5;" transform="matrix(1.0, 0.0, 0.0, 1.0, 0.0, 0.0)"><path d="M 0.0 -2.0 L 0.0 2.0" style="vector-effect: non-scaling-stroke;fill:none;" /></g><g style="fill: #ffffe0;stroke: #ffffe0;stroke-width: 1.2000000000000002;fill-opacity: 0.5;" transform="matrix(1.0, 0.0, 0.0, 1.0, 0.0, 0.0)"><path d="M 0.0 -1.501091480255127 L 1.0 -1.501091480255127 L 1.0 -1.5388078689575195 L 2.0 -1.5388078689575195 L 2.0 -1.525294303894043 L 3.0 -1.525294303894043 L 3.0 -1.578962802886963 L 4.0 -1.578962802886963 L 4.0 -1.4683094024658203 L 5.0 -1.4683094024658203 L 5.0 -1.5067483186721802 L 6.0 -1.5067483186721802 L 6.0 -1.5716837644577026 L 7.0 -1.5716837644577026 L 7.0 -1.4768457412719727 L 8.0 -1.4768457412719727 L 8.0 -1.5722308158874512 L 9.0 -1.5722308158874512 L 9.0 -1.4714982509613037 L 10.0 -1.4714982509613037 L 10.0 -1.534536361694336 L 11.0 -1.534536361694336 L 11.0 -1.4989216327667236 L 12.0 -1.4989216327667236 L 12.0 -1.4624905586242676 L 13.0 -1.4624905586242676 L 13.0 -1.462799310684204 L 14.0 -1.462799310684204 L 14.0 -1.4295475482940674 L 15.0 -1.4295475482940674 L 15.0 -1.4828197956085205 L 16.0 -1.4828197956085205 L 16.0 -1.4848644733428955 L 17.0 -1.4848644733428955 L 17.0 -1.5072014331817627 L 18.0 -1.5072014331817627 L 18.0 -1.6117746829986572 L 19.0 -1.6117746829986572 L 19.0 -1.553809642791748 L 20.0 -1.553809642791748 L 20.0 -1.4551178216934204 L 21.0 -1.4551178216934204 L 21.0 -1.4875619411468506 L 22.0 -1.4875619411468506 L 22.0 -1.5892562866210938 L 23.0 -1.5892562866210938 L 23.0 -1.691740870475769 L 24.0 -1.691740870475769 L 24.0 -1.5900496244430542 L 25.0 -1.5900496244430542 L 25.0 -0.6661776304244995 L 24.0 -0.6661776304244995 L 24.0 -0.73210608959198 L 23.0 -0.73210608959198 L 23.0 -0.6177005171775818 L 22.0 -0.6177005171775818 L 22.0 -0.5219667553901672 L 21.0 -0.5219667553901672 L 21.0 -0.49548301100730896 L 20.0 -0.49548301100730896 L 20.0 -0.600135326385498 L 19.0 -0.600135326385498 L 19.0 -0.6282981038093567 L 18.0 -0.6282981038093567 L 18.0 -0.5535270571708679 L 17.0 -0.5535270571708679 L 17.0 -0.5073482394218445 L 16.0 -0.5073482394218445 L 16.0 -0.5351059436798096 L 15.0 -0.5351059436798096 L 15.0 -0.46395230293273926 L 14.0 -0.46395230293273926 L 14.0 -0.521045982837677 L 13.0 -0.521045982837677 L 13.0 -0.4998754858970642 L 12.0 -0.4998754858970642 L 12.0 -0.5333263278007507 L 11.0 -0.5333263278007507 L 11.0 -0.5391387939453125 L 10.0 -0.5391387939453125 L 10.0 -0.5059030652046204 L 9.0 -0.5059030652046204 L 9.0 -0.6066355109214783 L 8.0 -0.6066355109214783 L 8.0 -0.5291318297386169 L 7.0 -0.5291318297386169 L 7.0 -0.6120489835739136 L 6.0 -0.6120489835739136 L 6.0 -0.5292321443557739 L 5.0 -0.5292321443557739 L 5.0 -0.508674681186676 L 4.0 -0.508674681186676 L 4.0 -0.5835652947425842 L 3.0 -0.5835652947425842 L 3.0 -0.5656595826148987 L 2.0 -0.5656595826148987 L 2.0 -0.5970545411109924 L 1.0 -0.5970545411109924 L 1.0 -0.5235752463340759 L 0.0 -0.5235752463340759 Z" style="vector-effect: non-scaling-stroke;" /></g></g><g style="stroke: black;stroke-width: 1.2000000000000002;" transform="matrix(1.0, 0.0, 0.0, 1.0, 0.0, 0.0)"><path d="M 0.0 -0.5235752463340759 L 1.0 -0.5235752463340759 L 1.0 -0.5970545411109924 L 2.0 -0.5970545411109924 L 2.0 -0.5656595826148987 L 3.0 -0.5656595826148987 L 3.0 -0.5835652947425842 L 4.0 -0.5835652947425842 L 4.0 -0.508674681186676 L 5.0 -0.508674681186676 L 5.0 -0.5292321443557739 L 6.0 -0.5292321443557739 L 6.0 -0.6120489835739136 L 7.0 -0.6120489835739136 L 7.0 -0.5291318297386169 L 8.0 -0.5291318297386169 L 8.0 -0.6066355109214783 L 9.0 -0.6066355109214783 L 9.0 -0.5059030652046204 L 10.0 -0.5059030652046204 L 10.0 -0.5391387939453125 L 11.0 -0.5391387939453125 L 11.0 -0.5333263278007507 L 12.0 -0.5333263278007507 L 12.0 -0.4998754858970642 L 13.0 -0.4998754858970642 L 13.0 -0.521045982837677 L 14.0 -0.521045982837677 L 14.0 -0.46395230293273926 L 15.0 -0.46395230293273926 L 15.0 -0.5351059436798096 L 16.0 -0.5351059436798096 L 16.0 -0.5073482394218445 L 17.0 -0.5073482394218445 L 17.0 -0.5535270571708679 L 18.0 -0.5535270571708679 L 18.0 -0.6282981038093567 L 19.0 -0.6282981038093567 L 19.0 -0.600135326385498 L 20.0 -0.600135326385498 L 20.0 -0.49548301100730896 L 21.0 -0.49548301100730896 L 21.0 -0.5219667553901672 L 22.0 -0.5219667553901672 L 22.0 -0.6177005171775818 L 23.0 -0.6177005171775818 L 23.0 -0.73210608959198 L 24.0 -0.73210608959198 L 24.0 -0.6661776304244995 L 25.0 -0.6661776304244995" style="vector-effect: non-scaling-stroke;fill:none;" /></g></g></g></g></g></g><g transform="matrix(1.0, 0.0, 0.0, 1.0, -0.125, 0.16149180352687836)"><g transform="matrix(1.0, 0.0, 0.0, 0.009999999999999995, 0.0, 0.0)"><g transform="matrix(0.01, 0.0, 0.0, 1.0, 0.0, 0.0)"><g><g><g style="fill: #add8e6;stroke: #add8e6;stroke-width: 1.2000000000000002;fill-opacity: 0.5;" transform="matrix(1.0, 0.0, 0.0, 1.0, 0.0, 0.0)"><path d="M 0.0 -2.0 L 0.0 2.0" style="vector-effect: non-scaling-stroke;fill:none;" /></g><g style="fill: #add8e6;stroke: #add8e6;stroke-width: 1.2000000000000002;fill-opacity: 0.5;" transform="matrix(1.0, 0.0, 0.0, 1.0, 0.0, 0.0)"><path d="M 0.0 -1.602419376373291 L 1.0 -1.602419376373291 L 1.0 -1.8427915573120117 L 2.0 -1.8427915573120117 L 2.0 -1.727950096130371 L 3.0 -1.727950096130371 L 3.0 -1.8114209175109863 L 4.0 -1.8114209175109863 L 4.0 -1.539834976196289 L 5.0 -1.539834976196289 L 5.0 -1.7213250398635864 L 6.0 -1.7213250398635864 L 6.0 -1.8399046659469604 L 7.0 -1.8399046659469604 L 7.0 -1.6198968887329102 L 8.0 -1.6198968887329102 L 8.0 -1.8762145042419434 L 9.0 -1.8762145042419434 L 9.0 -1.5787866115570068 L 10.0 -1.5787866115570068 L 10.0 -1.6537456512451172 L 11.0 -1.6537456512451172 L 11.0 -1.6181309223175049 L 12.0 -1.6181309223175049 L 12.0 -1.5161347389221191 L 13.0 -1.5161347389221191 L 13.0 -1.6058504581451416 L 14.0 -1.6058504581451416 L 14.0 -1.450409173965454 L 15.0 -1.450409173965454 L 15.0 -1.7450802326202393 L 16.0 -1.7450802326202393 L 16.0 -1.6100342273712158 L 17.0 -1.6100342273712158 L 17.0 -1.7098572254180908 L 18.0 -1.7098572254180908 L 18.0 -1.97536301612854 L 19.0 -1.97536301612854 L 19.0 -1.8637537956237793 L 20.0 -1.8637537956237793 L 20.0 -1.604129433631897 L 21.0 -1.604129433631897 L 21.0 -1.523324728012085 L 22.0 -1.523324728012085 L 22.0 -1.8217144012451172 L 23.0 -1.8217144012451172 L 23.0 -2.0 L 24.0 -2.0 L 24.0 -2.0 L 25.0 -2.0 L 25.0 -0.6661776304244995 L 24.0 -0.6661776304244995 L 24.0 -0.73210608959198 L 23.0 -0.73210608959198 L 23.0 -0.6177005171775818 L 22.0 -0.6177005171775818 L 22.0 -0.5219667553901672 L 21.0 -0.5219667553901672 L 21.0 -0.49548301100730896 L 20.0 -0.49548301100730896 L 20.0 -0.600135326385498 L 19.0 -0.600135326385498 L 19.0 -0.6282981038093567 L 18.0 -0.6282981038093567 L 18.0 -0.5535270571708679 L 17.0 -0.5535270571708679 L 17.0 -0.5073482394218445 L 16.0 -0.5073482394218445 L 16.0 -0.5351059436798096 L 15.0 -0.5351059436798096 L 15.0 -0.46395230293273926 L 14.0 -0.46395230293273926 L 14.0 -0.521045982837677 L 13.0 -0.521045982837677 L 13.0 -0.4998754858970642 L 12.0 -0.4998754858970642 L 12.0 -0.5333263278007507 L 11.0 -0.5333263278007507 L 11.0 -0.5391387939453125 L 10.0 -0.5391387939453125 L 10.0 -0.5059030652046204 L 9.0 -0.5059030652046204 L 9.0 -0.6066355109214783 L 8.0 -0.6066355109214783 L 8.0 -0.5291318297386169 L 7.0 -0.5291318297386169 L 7.0 -0.6120489835739136 L 6.0 -0.6120489835739136 L 6.0 -0.5292321443557739 L 5.0 -0.5292321443557739 L 5.0 -0.508674681186676 L 4.0 -0.508674681186676 L 4.0 -0.5835652947425842 L 3.0 -0.5835652947425842 L 3.0 -0.5656595826148987 L 2.0 -0.5656595826148987 L 2.0 -0.5970545411109924 L 1.0 -0.5970545411109924 L 1.0 -0.5235752463340759 L 0.0 -0.5235752463340759 Z" style="vector-effect: non-scaling-stroke;" /></g></g><g style="stroke: black;stroke-width: 1.2000000000000002;" transform="matrix(1.0, 0.0, 0.0, 1.0, 0.0, 0.0)"><path d="M 0.0 -0.5235752463340759 L 1.0 -0.5235752463340759 L 1.0 -0.5970545411109924 L 2.0 -0.5970545411109924 L 2.0 -0.5656595826148987 L 3.0 -0.5656595826148987 L 3.0 -0.5835652947425842 L 4.0 -0.5835652947425842 L 4.0 -0.508674681186676 L 5.0 -0.508674681186676 L 5.0 -0.5292321443557739 L 6.0 -0.5292321443557739 L 6.0 -0.6120489835739136 L 7.0 -0.6120489835739136 L 7.0 -0.5291318297386169 L 8.0 -0.5291318297386169 L 8.0 -0.6066355109214783 L 9.0 -0.6066355109214783 L 9.0 -0.5059030652046204 L 10.0 -0.5059030652046204 L 10.0 -0.5391387939453125 L 11.0 -0.5391387939453125 L 11.0 -0.5333263278007507 L 12.0 -0.5333263278007507 L 12.0 -0.4998754858970642 L 13.0 -0.4998754858970642 L 13.0 -0.521045982837677 L 14.0 -0.521045982837677 L 14.0 -0.46395230293273926 L 15.0 -0.46395230293273926 L 15.0 -0.5351059436798096 L 16.0 -0.5351059436798096 L 16.0 -0.5073482394218445 L 17.0 -0.5073482394218445 L 17.0 -0.5535270571708679 L 18.0 -0.5535270571708679 L 18.0 -0.6282981038093567 L 19.0 -0.6282981038093567 L 19.0 -0.600135326385498 L 20.0 -0.600135326385498 L 20.0 -0.49548301100730896 L 21.0 -0.49548301100730896 L 21.0 -0.5219667553901672 L 22.0 -0.5219667553901672 L 22.0 -0.6177005171775818 L 23.0 -0.6177005171775818 L 23.0 -0.73210608959198 L 24.0 -0.73210608959198 L 24.0 -0.6661776304244995 L 25.0 -0.6661776304244995" style="vector-effect: non-scaling-stroke;fill:none;" /></g></g></g></g></g></g><g transform="matrix(1.0, 0.0, 0.0, 1.0, -0.125, 0.16149180352687836)"><g transform="matrix(1.0, 0.0, 0.0, 0.009999999999999995, 0.0, 0.0)"><g transform="matrix(0.01, 0.0, 0.0, 1.0, 0.0, 0.0)"><g><g><g style="fill: #ff8c00;stroke: #ff8c00;stroke-width: 1.2000000000000002;fill-opacity: 0.5;" transform="matrix(1.0, 0.0, 0.0, 1.0, 0.0, 0.0)"><path d="M 0.0 -2.0 L 0.0 2.0" style="vector-effect: non-scaling-stroke;fill:none;" /></g><g style="fill: #ff8c00;stroke: #ff8c00;stroke-width: 1.2000000000000002;fill-opacity: 0.5;" transform="matrix(1.0, 0.0, 0.0, 1.0, 0.0, 0.0)"><path d="M 0.0 -0.5235752463340759 L 1.0 -0.5235752463340759 L 1.0 -0.5970545411109924 L 2.0 -0.5970545411109924 L 2.0 -0.5656595826148987 L 3.0 -0.5656595826148987 L 3.0 -0.5835652947425842 L 4.0 -0.5835652947425842 L 4.0 -0.508674681186676 L 5.0 -0.508674681186676 L 5.0 -0.5292321443557739 L 6.0 -0.5292321443557739 L 6.0 -0.6120489835739136 L 7.0 -0.6120489835739136 L 7.0 -0.5291318297386169 L 8.0 -0.5291318297386169 L 8.0 -0.6066355109214783 L 9.0 -0.6066355109214783 L 9.0 -0.5059030652046204 L 10.0 -0.5059030652046204 L 10.0 -0.5391387939453125 L 11.0 -0.5391387939453125 L 11.0 -0.5333263278007507 L 12.0 -0.5333263278007507 L 12.0 -0.4998754858970642 L 13.0 -0.4998754858970642 L 13.0 -0.521045982837677 L 14.0 -0.521045982837677 L 14.0 -0.46395230293273926 L 15.0 -0.46395230293273926 L 15.0 -0.5351059436798096 L 16.0 -0.5351059436798096 L 16.0 -0.5073482394218445 L 17.0 -0.5073482394218445 L 17.0 -0.5535270571708679 L 18.0 -0.5535270571708679 L 18.0 -0.6282981038093567 L 19.0 -0.6282981038093567 L 19.0 -0.600135326385498 L 20.0 -0.600135326385498 L 20.0 -0.49548301100730896 L 21.0 -0.49548301100730896 L 21.0 -0.5219667553901672 L 22.0 -0.5219667553901672 L 22.0 -0.6177005171775818 L 23.0 -0.6177005171775818 L 23.0 -0.73210608959198 L 24.0 -0.73210608959198 L 24.0 -0.6661776304244995 L 25.0 -0.6661776304244995 L 25.0 -0.6661776304244995 L 24.0 -0.6661776304244995 L 24.0 -0.73210608959198 L 23.0 -0.73210608959198 L 23.0 -0.6177005171775818 L 22.0 -0.6177005171775818 L 22.0 -0.5219667553901672 L 21.0 -0.5219667553901672 L 21.0 -0.49548301100730896 L 20.0 -0.49548301100730896 L 20.0 -0.600135326385498 L 19.0 -0.600135326385498 L 19.0 -0.6282981038093567 L 18.0 -0.6282981038093567 L 18.0 -0.5535270571708679 L 17.0 -0.5535270571708679 L 17.0 -0.5073482394218445 L 16.0 -0.5073482394218445 L 16.0 -0.5351059436798096 L 15.0 -0.5351059436798096 L 15.0 -0.46395230293273926 L 14.0 -0.46395230293273926 L 14.0 -0.521045982837677 L 13.0 -0.521045982837677 L 13.0 -0.4998754858970642 L 12.0 -0.4998754858970642 L 12.0 -0.5333263278007507 L 11.0 -0.5333263278007507 L 11.0 -0.5391387939453125 L 10.0 -0.5391387939453125 L 10.0 -0.5059030652046204 L 9.0 -0.5059030652046204 L 9.0 -0.6066355109214783 L 8.0 -0.6066355109214783 L 8.0 -0.5291318297386169 L 7.0 -0.5291318297386169 L 7.0 -0.6120489835739136 L 6.0 -0.6120489835739136 L 6.0 -0.5292321443557739 L 5.0 -0.5292321443557739 L 5.0 -0.508674681186676 L 4.0 -0.508674681186676 L 4.0 -0.5835652947425842 L 3.0 -0.5835652947425842 L 3.0 -0.5656595826148987 L 2.0 -0.5656595826148987 L 2.0 -0.5970545411109924 L 1.0 -0.5970545411109924 L 1.0 -0.5235752463340759 L 0.0 -0.5235752463340759 Z" style="vector-effect: non-scaling-stroke;" /></g></g><g style="stroke: black;stroke-width: 1.2000000000000002;" transform="matrix(1.0, 0.0, 0.0, 1.0, 0.0, 0.0)"><path d="M 0.0 -0.5235752463340759 L 1.0 -0.5235752463340759 L 1.0 -0.5970545411109924 L 2.0 -0.5970545411109924 L 2.0 -0.5656595826148987 L 3.0 -0.5656595826148987 L 3.0 -0.5835652947425842 L 4.0 -0.5835652947425842 L 4.0 -0.508674681186676 L 5.0 -0.508674681186676 L 5.0 -0.5292321443557739 L 6.0 -0.5292321443557739 L 6.0 -0.6120489835739136 L 7.0 -0.6120489835739136 L 7.0 -0.5291318297386169 L 8.0 -0.5291318297386169 L 8.0 -0.6066355109214783 L 9.0 -0.6066355109214783 L 9.0 -0.5059030652046204 L 10.0 -0.5059030652046204 L 10.0 -0.5391387939453125 L 11.0 -0.5391387939453125 L 11.0 -0.5333263278007507 L 12.0 -0.5333263278007507 L 12.0 -0.4998754858970642 L 13.0 -0.4998754858970642 L 13.0 -0.521045982837677 L 14.0 -0.521045982837677 L 14.0 -0.46395230293273926 L 15.0 -0.46395230293273926 L 15.0 -0.5351059436798096 L 16.0 -0.5351059436798096 L 16.0 -0.5073482394218445 L 17.0 -0.5073482394218445 L 17.0 -0.5535270571708679 L 18.0 -0.5535270571708679 L 18.0 -0.6282981038093567 L 19.0 -0.6282981038093567 L 19.0 -0.600135326385498 L 20.0 -0.600135326385498 L 20.0 -0.49548301100730896 L 21.0 -0.49548301100730896 L 21.0 -0.5219667553901672 L 22.0 -0.5219667553901672 L 22.0 -0.6177005171775818 L 23.0 -0.6177005171775818 L 23.0 -0.73210608959198 L 24.0 -0.73210608959198 L 24.0 -0.6661776304244995 L 25.0 -0.6661776304244995" style="vector-effect: non-scaling-stroke;fill:none;" /></g></g></g></g></g></g><g transform="matrix(1.0, 0.0, 0.0, 1.0, -0.125, 0.16149180352687836)"><g transform="matrix(1.0, 0.0, 0.0, 0.009999999999999995, 0.0, 0.0)"><g transform="matrix(0.01, 0.0, 0.0, 1.0, 0.0, 0.0)"><g><g><g style="fill: #0000ff;stroke: #0000ff;stroke-width: 1.2000000000000002;fill-opacity: 0.5;" transform="matrix(1.0, 0.0, 0.0, 1.0, 0.0, 0.0)"><path d="M 0.0 -2.0 L 0.0 2.0" style="vector-effect: non-scaling-stroke;fill:none;" /></g><g style="fill: #0000ff;stroke: #0000ff;stroke-width: 1.2000000000000002;fill-opacity: 0.5;" transform="matrix(1.0, 0.0, 0.0, 1.0, 0.0, 0.0)"><path d="M 0.0 -0.5235752463340759 L 1.0 -0.5235752463340759 L 1.0 -0.5970545411109924 L 2.0 -0.5970545411109924 L 2.0 -0.5656595826148987 L 3.0 -0.5656595826148987 L 3.0 -0.5835652947425842 L 4.0 -0.5835652947425842 L 4.0 -0.508674681186676 L 5.0 -0.508674681186676 L 5.0 -0.5292321443557739 L 6.0 -0.5292321443557739 L 6.0 -0.6120489835739136 L 7.0 -0.6120489835739136 L 7.0 -0.5291318297386169 L 8.0 -0.5291318297386169 L 8.0 -0.6066355109214783 L 9.0 -0.6066355109214783 L 9.0 -0.5059030652046204 L 10.0 -0.5059030652046204 L 10.0 -0.5391387939453125 L 11.0 -0.5391387939453125 L 11.0 -0.5333263278007507 L 12.0 -0.5333263278007507 L 12.0 -0.4998754858970642 L 13.0 -0.4998754858970642 L 13.0 -0.521045982837677 L 14.0 -0.521045982837677 L 14.0 -0.46395230293273926 L 15.0 -0.46395230293273926 L 15.0 -0.5351059436798096 L 16.0 -0.5351059436798096 L 16.0 -0.5073482394218445 L 17.0 -0.5073482394218445 L 17.0 -0.5535270571708679 L 18.0 -0.5535270571708679 L 18.0 -0.6282981038093567 L 19.0 -0.6282981038093567 L 19.0 -0.600135326385498 L 20.0 -0.600135326385498 L 20.0 -0.49548301100730896 L 21.0 -0.49548301100730896 L 21.0 -0.5219667553901672 L 22.0 -0.5219667553901672 L 22.0 -0.6177005171775818 L 23.0 -0.6177005171775818 L 23.0 -0.73210608959198 L 24.0 -0.73210608959198 L 24.0 -0.6661776304244995 L 25.0 -0.6661776304244995 L 25.0 -0.6661776304244995 L 24.0 -0.6661776304244995 L 24.0 -0.73210608959198 L 23.0 -0.73210608959198 L 23.0 -0.6177005171775818 L 22.0 -0.6177005171775818 L 22.0 -0.5219667553901672 L 21.0 -0.5219667553901672 L 21.0 -0.49548301100730896 L 20.0 -0.49548301100730896 L 20.0 -0.600135326385498 L 19.0 -0.600135326385498 L 19.0 -0.6282981038093567 L 18.0 -0.6282981038093567 L 18.0 -0.5535270571708679 L 17.0 -0.5535270571708679 L 17.0 -0.5073482394218445 L 16.0 -0.5073482394218445 L 16.0 -0.5351059436798096 L 15.0 -0.5351059436798096 L 15.0 -0.46395230293273926 L 14.0 -0.46395230293273926 L 14.0 -0.521045982837677 L 13.0 -0.521045982837677 L 13.0 -0.4998754858970642 L 12.0 -0.4998754858970642 L 12.0 -0.5333263278007507 L 11.0 -0.5333263278007507 L 11.0 -0.5391387939453125 L 10.0 -0.5391387939453125 L 10.0 -0.5059030652046204 L 9.0 -0.5059030652046204 L 9.0 -0.6066355109214783 L 8.0 -0.6066355109214783 L 8.0 -0.5291318297386169 L 7.0 -0.5291318297386169 L 7.0 -0.6120489835739136 L 6.0 -0.6120489835739136 L 6.0 -0.5292321443557739 L 5.0 -0.5292321443557739 L 5.0 -0.508674681186676 L 4.0 -0.508674681186676 L 4.0 -0.5835652947425842 L 3.0 -0.5835652947425842 L 3.0 -0.5656595826148987 L 2.0 -0.5656595826148987 L 2.0 -0.5970545411109924 L 1.0 -0.5970545411109924 L 1.0 -0.5235752463340759 L 0.0 -0.5235752463340759 Z" style="vector-effect: non-scaling-stroke;" /></g></g><g style="stroke: black;stroke-width: 1.2000000000000002;" transform="matrix(1.0, 0.0, 0.0, 1.0, 0.0, 0.0)"><path d="M 0.0 -0.5235752463340759 L 1.0 -0.5235752463340759 L 1.0 -0.5970545411109924 L 2.0 -0.5970545411109924 L 2.0 -0.5656595826148987 L 3.0 -0.5656595826148987 L 3.0 -0.5835652947425842 L 4.0 -0.5835652947425842 L 4.0 -0.508674681186676 L 5.0 -0.508674681186676 L 5.0 -0.5292321443557739 L 6.0 -0.5292321443557739 L 6.0 -0.6120489835739136 L 7.0 -0.6120489835739136 L 7.0 -0.5291318297386169 L 8.0 -0.5291318297386169 L 8.0 -0.6066355109214783 L 9.0 -0.6066355109214783 L 9.0 -0.5059030652046204 L 10.0 -0.5059030652046204 L 10.0 -0.5391387939453125 L 11.0 -0.5391387939453125 L 11.0 -0.5333263278007507 L 12.0 -0.5333263278007507 L 12.0 -0.4998754858970642 L 13.0 -0.4998754858970642 L 13.0 -0.521045982837677 L 14.0 -0.521045982837677 L 14.0 -0.46395230293273926 L 15.0 -0.46395230293273926 L 15.0 -0.5351059436798096 L 16.0 -0.5351059436798096 L 16.0 -0.5073482394218445 L 17.0 -0.5073482394218445 L 17.0 -0.5535270571708679 L 18.0 -0.5535270571708679 L 18.0 -0.6282981038093567 L 19.0 -0.6282981038093567 L 19.0 -0.600135326385498 L 20.0 -0.600135326385498 L 20.0 -0.49548301100730896 L 21.0 -0.49548301100730896 L 21.0 -0.5219667553901672 L 22.0 -0.5219667553901672 L 22.0 -0.6177005171775818 L 23.0 -0.6177005171775818 L 23.0 -0.73210608959198 L 24.0 -0.73210608959198 L 24.0 -0.6661776304244995 L 25.0 -0.6661776304244995" style="vector-effect: non-scaling-stroke;fill:none;" /></g></g></g></g></g></g></g></g><g><g><g><g><g><g><g transform="matrix(1.0, 0.0, 0.0, 1.0, -0.45499999999999996, -0.03149180352687836)"><g><g><g transform="matrix(1.0, 0.0, 0.0, 1.0, 0.075, 0.0)"><g transform="matrix(1.0, 0.0, 0.0, 1.0, 0.0, 0.032486339211463926)"><g transform="matrix(0.01, 0.0, 0.0, 0.01, 0.0, 0.0)"><g><g><g transform="matrix(1.0, 0.0, 0.0, 1.0, 24.5, -0.09945356845855713)"><g transform="matrix(1.0, 0.0, 0.0, 1.0, -32.0, -0.0)"><g><g style="fill: #d3d3d3;stroke: black;stroke-width: 1.2000000000000002;" transform="matrix(1.0, 0.0, 0.0, 1.0, 0.0, -3.1491803526878357)"><path d="M 0.0 0.0 L 64.0 0.0 L 64.0 6.298360705375671 L 0.0 6.298360705375671 L 0.0 0.0 Z" style="vector-effect: non-scaling-stroke;" /></g><g transform="matrix(1.0, 0.0, 0.0, 1.0, 1.875, 0.0)"><g><g style="stroke: black;stroke-width: 1.2000000000000002;" transform="matrix(1.0, 0.0, 0.0, 1.0, 0.0, 0.0)"><g /></g><g style="fill: #ffa500;stroke: black;stroke-width: 1.2000000000000002;" transform="matrix(1.0, 0.0, 0.0, 1.0, 1.875, 0.0)"><text style="text-align:center; text-anchor:middle; dominant-baseline:middle;&#10;                      font-family:sans-serif; font-weight: bold;&#10;                      font-size:3px;&#10;                      vector-effect: non-scaling-stroke;" transform="translate(-5e-05, 0)">x</text></g></g></g></g></g></g><g><g><g><g><g><g><g><g><g><g><g style="stroke: black;stroke-width: 1.2000000000000002;" transform="matrix(1.0, 0.0, 0.0, 1.0, 0.0, 0.0)"><path d="M 0.0 -2.0 L 0.0 2.0" style="vector-effect: non-scaling-stroke;fill:none;" /></g><g style="stroke: #808080;stroke-width: 0.6000000000000001;" transform="matrix(1.0, 0.0, 0.0, 1.0, 0.0, 0.0)"><path d="M 0.0 0.0 L 49.0 0.0" style="vector-effect: non-scaling-stroke;fill:none;" /></g></g><g style="stroke: black;stroke-width: 2.4000000000000004;" transform="matrix(1.0, 0.0, 0.0, 1.0, 0.0, 0.0)"><path d="M 0.0 -1.0294554233551025 L 1.0 -1.0294554233551025 L 1.0 -1.1630185842514038 L 2.0 -1.1630185842514038 L 2.0 -1.1423406600952148 L 3.0 -1.1423406600952148 L 3.0 -1.1195001602172852 L 4.0 -1.1195001602172852 L 4.0 -1.2506177425384521 L 5.0 -1.2506177425384521 L 5.0 -0.44162389636039734 L 6.0 -0.44162389636039734 L 6.0 -0.9394607543945312 L 7.0 -0.9394607543945312 L 7.0 -1.0511826276779175 L 8.0 -1.0511826276779175 L 8.0 -1.397074580192566 L 9.0 -1.397074580192566 L 9.0 -0.7729616165161133 L 10.0 -0.7729616165161133 L 10.0 -1.5159924030303955 L 11.0 -1.5159924030303955 L 11.0 -1.472355604171753 L 12.0 -1.472355604171753 L 12.0 -1.7392082214355469 L 13.0 -1.7392082214355469 L 13.0 -1.086776852607727 L 14.0 -1.086776852607727 L 14.0 -0.6867468357086182 L 15.0 -0.6867468357086182 L 15.0 -1.408700704574585 L 16.0 -1.408700704574585 L 16.0 -0.9544563293457031 L 17.0 -0.9544563293457031 L 17.0 -1.6993707418441772 L 18.0 -1.6993707418441772 L 18.0 -0.5132640600204468 L 19.0 -0.5132640600204468 L 19.0 -1.2664798498153687 L 20.0 -1.2664798498153687 L 20.0 -0.5250760912895203 L 21.0 -0.5250760912895203 L 21.0 -2.1989071369171143 L 22.0 -2.1989071369171143 L 22.0 -0.7140564918518066 L 23.0 -0.7140564918518066 L 23.0 -1.3732551336288452 L 24.0 -1.3732551336288452 L 24.0 -1.2565048933029175 L 25.0 -1.2565048933029175 L 25.0 -0.4058234691619873 L 26.0 -0.4058234691619873 L 26.0 -1.4786224365234375 L 27.0 -1.4786224365234375 L 27.0 -1.003357172012329 L 28.0 -1.003357172012329 L 28.0 -1.17458176612854 L 29.0 -1.17458176612854 L 29.0 -0.7205642461776733 L 30.0 -0.7205642461776733 L 30.0 -0.5343113541603088 L 31.0 -0.5343113541603088 L 31.0 -1.1048914194107056 L 32.0 -1.1048914194107056 L 32.0 -1.328643798828125 L 33.0 -1.328643798828125 L 33.0 -0.9665734767913818 L 34.0 -0.9665734767913818 L 34.0 -1.2370926141738892 L 35.0 -1.2370926141738892 L 35.0 -1.4970800876617432 L 36.0 -1.4970800876617432 L 36.0 -1.920912504196167 L 37.0 -1.920912504196167 L 37.0 -0.8278830051422119 L 38.0 -0.8278830051422119 L 38.0 -1.3847084045410156 L 39.0 -1.3847084045410156 L 39.0 -2.193962335586548 L 40.0 -2.193962335586548 L 40.0 -1.793639898300171 L 41.0 -1.793639898300171 L 41.0 -1.047120451927185 L 42.0 -1.047120451927185 L 42.0 -2.1948606967926025 L 43.0 -2.1948606967926025 L 43.0 -0.42419150471687317 L 44.0 -0.42419150471687317 L 44.0 -0.6459212899208069 L 45.0 -0.6459212899208069 L 45.0 -1.4625756740570068 L 46.0 -1.4625756740570068 L 46.0 -1.1969610452651978 L 47.0 -1.1969610452651978 L 47.0 -1.957920789718628 L 48.0 -1.957920789718628 L 48.0 -0.6398112177848816 L 49.0 -0.6398112177848816" style="vector-effect: non-scaling-stroke;fill:none;" /></g></g><g style="stroke: black;stroke-width: 1.2000000000000002;" transform="matrix(1.0, 0.0, 0.0, 1.0, 0.0, 0.0)"><path d="M 0.0 -2.0 L 0.0 2.0" style="vector-effect: non-scaling-stroke;fill:none;" /></g></g><g style="stroke: black;stroke-width: 1.2000000000000002;" transform="matrix(1.0, 0.0, 0.0, 1.0, 0.0, 0.0)"><path d="M 7.0 -2.0 L 7.0 2.0" style="vector-effect: non-scaling-stroke;fill:none;" /></g></g><g style="stroke: black;stroke-width: 1.2000000000000002;" transform="matrix(1.0, 0.0, 0.0, 1.0, 0.0, 0.0)"><path d="M 14.0 -2.0 L 14.0 2.0" style="vector-effect: non-scaling-stroke;fill:none;" /></g></g><g style="stroke: black;stroke-width: 1.2000000000000002;" transform="matrix(1.0, 0.0, 0.0, 1.0, 0.0, 0.0)"><path d="M 21.0 -2.0 L 21.0 2.0" style="vector-effect: non-scaling-stroke;fill:none;" /></g></g><g style="stroke: black;stroke-width: 1.2000000000000002;" transform="matrix(1.0, 0.0, 0.0, 1.0, 0.0, 0.0)"><path d="M 28.0 -2.0 L 28.0 2.0" style="vector-effect: non-scaling-stroke;fill:none;" /></g></g><g style="stroke: black;stroke-width: 1.2000000000000002;" transform="matrix(1.0, 0.0, 0.0, 1.0, 0.0, 0.0)"><path d="M 35.0 -2.0 L 35.0 2.0" style="vector-effect: non-scaling-stroke;fill:none;" /></g></g><g style="stroke: black;stroke-width: 1.2000000000000002;" transform="matrix(1.0, 0.0, 0.0, 1.0, 0.0, 0.0)"><path d="M 42.0 -2.0 L 42.0 2.0" style="vector-effect: non-scaling-stroke;fill:none;" /></g></g></g></g><g><g><g><g><g><g><g><g><g><g><g style="stroke: black;stroke-width: 1.2000000000000002;" transform="matrix(1.0, 0.0, 0.0, 1.0, 0.0, 0.0)"><path d="M 0.0 -2.0 L 0.0 2.0" style="vector-effect: non-scaling-stroke;fill:none;" /></g><g style="stroke: #808080;stroke-width: 0.6000000000000001;" transform="matrix(1.0, 0.0, 0.0, 1.0, 0.0, 0.0)"><path d="M 0.0 0.0 L 49.0 0.0" style="vector-effect: non-scaling-stroke;fill:none;" /></g></g><g style="stroke: black;stroke-width: 2.4000000000000004;" transform="matrix(1.0, 0.0, 0.0, 1.0, 0.0, 0.0)"><path d="M 0.0 -1.0294554233551025 L 1.0 -1.0294554233551025 L 1.0 -1.1630185842514038 L 2.0 -1.1630185842514038 L 2.0 -1.1423406600952148 L 3.0 -1.1423406600952148 L 3.0 -1.1195001602172852 L 4.0 -1.1195001602172852 L 4.0 -1.2506177425384521 L 5.0 -1.2506177425384521 L 5.0 -0.44162389636039734 L 6.0 -0.44162389636039734 L 6.0 -0.9394607543945312 L 7.0 -0.9394607543945312 L 7.0 -1.0511826276779175 L 8.0 -1.0511826276779175 L 8.0 -1.397074580192566 L 9.0 -1.397074580192566 L 9.0 -0.7729616165161133 L 10.0 -0.7729616165161133 L 10.0 -1.5159924030303955 L 11.0 -1.5159924030303955 L 11.0 -1.472355604171753 L 12.0 -1.472355604171753 L 12.0 -1.7392082214355469 L 13.0 -1.7392082214355469 L 13.0 -1.086776852607727 L 14.0 -1.086776852607727 L 14.0 -0.6867468357086182 L 15.0 -0.6867468357086182 L 15.0 -1.408700704574585 L 16.0 -1.408700704574585 L 16.0 -0.9544563293457031 L 17.0 -0.9544563293457031 L 17.0 -1.6993707418441772 L 18.0 -1.6993707418441772 L 18.0 -0.5132640600204468 L 19.0 -0.5132640600204468 L 19.0 -1.2664798498153687 L 20.0 -1.2664798498153687 L 20.0 -0.5250760912895203 L 21.0 -0.5250760912895203 L 21.0 -2.1989071369171143 L 22.0 -2.1989071369171143 L 22.0 -0.7140564918518066 L 23.0 -0.7140564918518066 L 23.0 -1.3732551336288452 L 24.0 -1.3732551336288452 L 24.0 -1.2565048933029175 L 25.0 -1.2565048933029175 L 25.0 -0.4058234691619873 L 26.0 -0.4058234691619873 L 26.0 -1.4786224365234375 L 27.0 -1.4786224365234375 L 27.0 -1.003357172012329 L 28.0 -1.003357172012329 L 28.0 -1.17458176612854 L 29.0 -1.17458176612854 L 29.0 -0.7205642461776733 L 30.0 -0.7205642461776733 L 30.0 -0.5343113541603088 L 31.0 -0.5343113541603088 L 31.0 -1.1048914194107056 L 32.0 -1.1048914194107056 L 32.0 -1.328643798828125 L 33.0 -1.328643798828125 L 33.0 -0.9665734767913818 L 34.0 -0.9665734767913818 L 34.0 -1.2370926141738892 L 35.0 -1.2370926141738892 L 35.0 -1.4970800876617432 L 36.0 -1.4970800876617432 L 36.0 -1.920912504196167 L 37.0 -1.920912504196167 L 37.0 -0.8278830051422119 L 38.0 -0.8278830051422119 L 38.0 -1.3847084045410156 L 39.0 -1.3847084045410156 L 39.0 -2.193962335586548 L 40.0 -2.193962335586548 L 40.0 -1.793639898300171 L 41.0 -1.793639898300171 L 41.0 -1.047120451927185 L 42.0 -1.047120451927185 L 42.0 -2.1948606967926025 L 43.0 -2.1948606967926025 L 43.0 -0.42419150471687317 L 44.0 -0.42419150471687317 L 44.0 -0.6459212899208069 L 45.0 -0.6459212899208069 L 45.0 -1.4625756740570068 L 46.0 -1.4625756740570068 L 46.0 -1.1969610452651978 L 47.0 -1.1969610452651978 L 47.0 -1.957920789718628 L 48.0 -1.957920789718628 L 48.0 -0.6398112177848816 L 49.0 -0.6398112177848816" style="vector-effect: non-scaling-stroke;fill:none;" /></g></g><g style="stroke: black;stroke-width: 1.2000000000000002;" transform="matrix(1.0, 0.0, 0.0, 1.0, 0.0, 0.0)"><path d="M 0.0 -2.0 L 0.0 2.0" style="vector-effect: non-scaling-stroke;fill:none;" /></g></g><g style="stroke: black;stroke-width: 1.2000000000000002;" transform="matrix(1.0, 0.0, 0.0, 1.0, 0.0, 0.0)"><path d="M 7.0 -2.0 L 7.0 2.0" style="vector-effect: non-scaling-stroke;fill:none;" /></g></g><g style="stroke: black;stroke-width: 1.2000000000000002;" transform="matrix(1.0, 0.0, 0.0, 1.0, 0.0, 0.0)"><path d="M 14.0 -2.0 L 14.0 2.0" style="vector-effect: non-scaling-stroke;fill:none;" /></g></g><g style="stroke: black;stroke-width: 1.2000000000000002;" transform="matrix(1.0, 0.0, 0.0, 1.0, 0.0, 0.0)"><path d="M 21.0 -2.0 L 21.0 2.0" style="vector-effect: non-scaling-stroke;fill:none;" /></g></g><g style="stroke: black;stroke-width: 1.2000000000000002;" transform="matrix(1.0, 0.0, 0.0, 1.0, 0.0, 0.0)"><path d="M 28.0 -2.0 L 28.0 2.0" style="vector-effect: non-scaling-stroke;fill:none;" /></g></g><g style="stroke: black;stroke-width: 1.2000000000000002;" transform="matrix(1.0, 0.0, 0.0, 1.0, 0.0, 0.0)"><path d="M 35.0 -2.0 L 35.0 2.0" style="vector-effect: non-scaling-stroke;fill:none;" /></g></g><g style="stroke: black;stroke-width: 1.2000000000000002;" transform="matrix(1.0, 0.0, 0.0, 1.0, 0.0, 0.0)"><path d="M 42.0 -2.0 L 42.0 2.0" style="vector-effect: non-scaling-stroke;fill:none;" /></g></g></g></g></g></g></g><g style="stroke: black;stroke-width: 1.2000000000000002;" transform="matrix(1.0, 0.0, 0.0, 1.0, 0.6549999999999999, 0.0)"><g /></g></g><g transform="matrix(1.0, 0.0, 0.0, 1.0, 0.6699999999999999, 0.0)"><g transform="matrix(1.0, 0.0, 0.0, 1.0, 0.075, 0.0)"><g transform="matrix(1.0, 0.0, 0.0, 1.0, 0.0, 0.03)"><g transform="matrix(0.01, 0.0, 0.0, 0.01, 0.0, 0.0)"><g><g><g transform="matrix(1.0, 0.0, 0.0, 1.0, 4.5, 0.0)"><g transform="matrix(1.0, 0.0, 0.0, 1.0, -12.0, -0.0)"><g><g style="fill: #d3d3d3;stroke: black;stroke-width: 1.2000000000000002;" transform="matrix(1.0, 0.0, 0.0, 1.0, 0.0, -3.0)"><path d="M 0.0 0.0 L 24.0 0.0 L 24.0 6.0 L 0.0 6.0 L 0.0 0.0 Z" style="vector-effect: non-scaling-stroke;" /></g><g transform="matrix(1.0, 0.0, 0.0, 1.0, 1.875, 0.0)"><g><g style="stroke: black;stroke-width: 1.2000000000000002;" transform="matrix(1.0, 0.0, 0.0, 1.0, 0.0, 0.0)"><g /></g><g style="fill: #ffa500;stroke: black;stroke-width: 1.2000000000000002;" transform="matrix(1.0, 0.0, 0.0, 1.0, 1.875, 0.0)"><text style="text-align:center; text-anchor:middle; dominant-baseline:middle;&#10;                      font-family:sans-serif; font-weight: bold;&#10;                      font-size:3px;&#10;                      vector-effect: non-scaling-stroke;" transform="translate(-5e-05, 0)">y</text></g></g></g></g></g></g><g><g><g><g style="stroke: black;stroke-width: 1.2000000000000002;" transform="matrix(1.0, 0.0, 0.0, 1.0, 0.0, 0.0)"><path d="M 0.0 -2.0 L 0.0 2.0" style="vector-effect: non-scaling-stroke;fill:none;" /></g><g style="stroke: #808080;stroke-width: 0.6000000000000001;" transform="matrix(1.0, 0.0, 0.0, 1.0, 0.0, 0.0)"><path d="M 0.0 0.0 L 9.0 0.0" style="vector-effect: non-scaling-stroke;fill:none;" /></g></g><g style="stroke: black;stroke-width: 2.4000000000000004;" transform="matrix(1.0, 0.0, 0.0, 1.0, 0.0, 0.0)"><path d="M 0.0 -0.5216265320777893 L 1.0 -0.5216265320777893 L 1.0 -1.0294554233551025 L 2.0 -1.0294554233551025 L 2.0 -1.1630185842514038 L 3.0 -1.1630185842514038 L 3.0 -1.1423406600952148 L 4.0 -1.1423406600952148 L 4.0 -1.1195001602172852 L 5.0 -1.1195001602172852 L 5.0 -1.2506177425384521 L 6.0 -1.2506177425384521 L 6.0 -0.44162389636039734 L 7.0 -0.44162389636039734 L 7.0 -0.9394607543945312 L 8.0 -0.9394607543945312 L 8.0 -1.0511826276779175 L 9.0 -1.0511826276779175" style="vector-effect: non-scaling-stroke;fill:none;" /></g></g></g></g><g><g><g><g style="stroke: black;stroke-width: 1.2000000000000002;" transform="matrix(1.0, 0.0, 0.0, 1.0, 0.0, 0.0)"><path d="M 0.0 -2.0 L 0.0 2.0" style="vector-effect: non-scaling-stroke;fill:none;" /></g><g style="stroke: #808080;stroke-width: 0.6000000000000001;" transform="matrix(1.0, 0.0, 0.0, 1.0, 0.0, 0.0)"><path d="M 0.0 0.0 L 9.0 0.0" style="vector-effect: non-scaling-stroke;fill:none;" /></g></g><g style="stroke: black;stroke-width: 2.4000000000000004;" transform="matrix(1.0, 0.0, 0.0, 1.0, 0.0, 0.0)"><path d="M 0.0 -0.5216265320777893 L 1.0 -0.5216265320777893 L 1.0 -1.0294554233551025 L 2.0 -1.0294554233551025 L 2.0 -1.1630185842514038 L 3.0 -1.1630185842514038 L 3.0 -1.1423406600952148 L 4.0 -1.1423406600952148 L 4.0 -1.1195001602172852 L 5.0 -1.1195001602172852 L 5.0 -1.2506177425384521 L 6.0 -1.2506177425384521 L 6.0 -0.44162389636039734 L 7.0 -0.44162389636039734 L 7.0 -0.9394607543945312 L 8.0 -0.9394607543945312 L 8.0 -1.0511826276779175 L 9.0 -1.0511826276779175" style="vector-effect: non-scaling-stroke;fill:none;" /></g></g></g></g></g></g></g></g></g></g><g style="stroke: black;stroke-width: 1.2000000000000002;" transform="matrix(0.0, -1.0, 1.0, 0.0, 0.0, 0.08149180352687836)"><g /></g></g><g transform="matrix(1.0, 0.0, 0.0, 1.0, 0.0, 0.16149180352687836)"><g transform="matrix(1.0, 0.0, 0.0, 1.0, -0.2, -0.03)"><g transform="matrix(1.0, 0.0, 0.0, 1.0, 0.075, 0.0)"><g transform="matrix(1.0, 0.0, 0.0, 1.0, 0.0, 0.03)"><g transform="matrix(0.01, 0.0, 0.0, 0.01, 0.0, 0.0)"><g><g><g transform="matrix(1.0, 0.0, 0.0, 1.0, 12.5, 0.0)"><g transform="matrix(1.0, 0.0, 0.0, 1.0, -20.0, -0.0)"><g><g style="fill: #d3d3d3;stroke: black;stroke-width: 1.2000000000000002;" transform="matrix(1.0, 0.0, 0.0, 1.0, 0.0, -3.0)"><path d="M 0.0 0.0 L 40.0 0.0 L 40.0 6.0 L 0.0 6.0 L 0.0 0.0 Z" style="vector-effect: non-scaling-stroke;" /></g><g transform="matrix(1.0, 0.0, 0.0, 1.0, 1.875, 0.0)"><g><g style="stroke: black;stroke-width: 1.2000000000000002;" transform="matrix(1.0, 0.0, 0.0, 1.0, 0.0, 0.0)"><g /></g><g style="fill: #ffa500;stroke: black;stroke-width: 1.2000000000000002;" transform="matrix(1.0, 0.0, 0.0, 1.0, 1.875, 0.0)"><text style="text-align:center; text-anchor:middle; dominant-baseline:middle;&#10;                      font-family:sans-serif; font-weight: bold;&#10;                      font-size:3px;&#10;                      vector-effect: non-scaling-stroke;" transform="translate(-5e-05, 0)">f(x)</text></g></g></g></g></g></g><g><g><g><g style="stroke: black;stroke-width: 1.2000000000000002;" transform="matrix(1.0, 0.0, 0.0, 1.0, 0.0, 0.0)"><path d="M 0.0 -2.0 L 0.0 2.0" style="vector-effect: non-scaling-stroke;fill:none;" /></g><g style="stroke: #808080;stroke-width: 0.6000000000000001;" transform="matrix(1.0, 0.0, 0.0, 1.0, 0.0, 0.0)"><path d="M 0.0 0.0 L 25.0 0.0" style="vector-effect: non-scaling-stroke;fill:none;" /></g></g><g style="stroke: black;stroke-width: 2.4000000000000004;" transform="matrix(1.0, 0.0, 0.0, 1.0, 0.0, 0.0)"><path d="M 0.0 -0.5235752463340759 L 1.0 -0.5235752463340759 L 1.0 -0.5970545411109924 L 2.0 -0.5970545411109924 L 2.0 -0.5656595826148987 L 3.0 -0.5656595826148987 L 3.0 -0.5835652947425842 L 4.0 -0.5835652947425842 L 4.0 -0.508674681186676 L 5.0 -0.508674681186676 L 5.0 -0.5292321443557739 L 6.0 -0.5292321443557739 L 6.0 -0.6120489835739136 L 7.0 -0.6120489835739136 L 7.0 -0.5291318297386169 L 8.0 -0.5291318297386169 L 8.0 -0.6066355109214783 L 9.0 -0.6066355109214783 L 9.0 -0.5059030652046204 L 10.0 -0.5059030652046204 L 10.0 -0.5391387939453125 L 11.0 -0.5391387939453125 L 11.0 -0.5333263278007507 L 12.0 -0.5333263278007507 L 12.0 -0.4998754858970642 L 13.0 -0.4998754858970642 L 13.0 -0.521045982837677 L 14.0 -0.521045982837677 L 14.0 -0.46395230293273926 L 15.0 -0.46395230293273926 L 15.0 -0.5351059436798096 L 16.0 -0.5351059436798096 L 16.0 -0.5073482394218445 L 17.0 -0.5073482394218445 L 17.0 -0.5535270571708679 L 18.0 -0.5535270571708679 L 18.0 -0.6282981038093567 L 19.0 -0.6282981038093567 L 19.0 -0.600135326385498 L 20.0 -0.600135326385498 L 20.0 -0.49548301100730896 L 21.0 -0.49548301100730896 L 21.0 -0.5219667553901672 L 22.0 -0.5219667553901672 L 22.0 -0.6177005171775818 L 23.0 -0.6177005171775818 L 23.0 -0.73210608959198 L 24.0 -0.73210608959198 L 24.0 -0.6661776304244995 L 25.0 -0.6661776304244995" style="vector-effect: non-scaling-stroke;fill:none;" /></g></g></g></g><g><g><g><g style="stroke: black;stroke-width: 1.2000000000000002;" transform="matrix(1.0, 0.0, 0.0, 1.0, 0.0, 0.0)"><path d="M 0.0 -2.0 L 0.0 2.0" style="vector-effect: non-scaling-stroke;fill:none;" /></g><g style="stroke: #808080;stroke-width: 0.6000000000000001;" transform="matrix(1.0, 0.0, 0.0, 1.0, 0.0, 0.0)"><path d="M 0.0 0.0 L 25.0 0.0" style="vector-effect: non-scaling-stroke;fill:none;" /></g></g><g style="stroke: black;stroke-width: 2.4000000000000004;" transform="matrix(1.0, 0.0, 0.0, 1.0, 0.0, 0.0)"><path d="M 0.0 -0.5235752463340759 L 1.0 -0.5235752463340759 L 1.0 -0.5970545411109924 L 2.0 -0.5970545411109924 L 2.0 -0.5656595826148987 L 3.0 -0.5656595826148987 L 3.0 -0.5835652947425842 L 4.0 -0.5835652947425842 L 4.0 -0.508674681186676 L 5.0 -0.508674681186676 L 5.0 -0.5292321443557739 L 6.0 -0.5292321443557739 L 6.0 -0.6120489835739136 L 7.0 -0.6120489835739136 L 7.0 -0.5291318297386169 L 8.0 -0.5291318297386169 L 8.0 -0.6066355109214783 L 9.0 -0.6066355109214783 L 9.0 -0.5059030652046204 L 10.0 -0.5059030652046204 L 10.0 -0.5391387939453125 L 11.0 -0.5391387939453125 L 11.0 -0.5333263278007507 L 12.0 -0.5333263278007507 L 12.0 -0.4998754858970642 L 13.0 -0.4998754858970642 L 13.0 -0.521045982837677 L 14.0 -0.521045982837677 L 14.0 -0.46395230293273926 L 15.0 -0.46395230293273926 L 15.0 -0.5351059436798096 L 16.0 -0.5351059436798096 L 16.0 -0.5073482394218445 L 17.0 -0.5073482394218445 L 17.0 -0.5535270571708679 L 18.0 -0.5535270571708679 L 18.0 -0.6282981038093567 L 19.0 -0.6282981038093567 L 19.0 -0.600135326385498 L 20.0 -0.600135326385498 L 20.0 -0.49548301100730896 L 21.0 -0.49548301100730896 L 21.0 -0.5219667553901672 L 22.0 -0.5219667553901672 L 22.0 -0.6177005171775818 L 23.0 -0.6177005171775818 L 23.0 -0.73210608959198 L 24.0 -0.73210608959198 L 24.0 -0.6661776304244995 L 25.0 -0.6661776304244995" style="vector-effect: non-scaling-stroke;fill:none;" /></g></g></g></g></g></g></g></g></g></g><g transform="matrix(1.0, 0.0, 0.0, 1.0, -0.125, 0.16149180352687836)"><g transform="matrix(1.0, 0.0, 0.0, 0.009999999999999995, 0.0, 0.0)"><g transform="matrix(0.01, 0.0, 0.0, 1.0, 0.0, 0.0)"><g><g><g style="fill: #ffffe0;stroke: #ffffe0;stroke-width: 1.2000000000000002;fill-opacity: 0.5;" transform="matrix(1.0, 0.0, 0.0, 1.0, 0.0, 0.0)"><path d="M 0.0 -2.0 L 0.0 2.0" style="vector-effect: non-scaling-stroke;fill:none;" /></g><g style="fill: #ffffe0;stroke: #ffffe0;stroke-width: 1.2000000000000002;fill-opacity: 0.5;" transform="matrix(1.0, 0.0, 0.0, 1.0, 0.0, 0.0)"><path d="M 0.0 -1.501091480255127 L 1.0 -1.501091480255127 L 1.0 -1.5388078689575195 L 2.0 -1.5388078689575195 L 2.0 -1.525294303894043 L 3.0 -1.525294303894043 L 3.0 -1.578962802886963 L 4.0 -1.578962802886963 L 4.0 -1.4683094024658203 L 5.0 -1.4683094024658203 L 5.0 -1.5067483186721802 L 6.0 -1.5067483186721802 L 6.0 -1.5716837644577026 L 7.0 -1.5716837644577026 L 7.0 -1.4768457412719727 L 8.0 -1.4768457412719727 L 8.0 -1.5722308158874512 L 9.0 -1.5722308158874512 L 9.0 -1.4714982509613037 L 10.0 -1.4714982509613037 L 10.0 -1.534536361694336 L 11.0 -1.534536361694336 L 11.0 -1.4989216327667236 L 12.0 -1.4989216327667236 L 12.0 -1.4624905586242676 L 13.0 -1.4624905586242676 L 13.0 -1.462799310684204 L 14.0 -1.462799310684204 L 14.0 -1.4295475482940674 L 15.0 -1.4295475482940674 L 15.0 -1.4828197956085205 L 16.0 -1.4828197956085205 L 16.0 -1.4848644733428955 L 17.0 -1.4848644733428955 L 17.0 -1.5072014331817627 L 18.0 -1.5072014331817627 L 18.0 -1.6117746829986572 L 19.0 -1.6117746829986572 L 19.0 -1.553809642791748 L 20.0 -1.553809642791748 L 20.0 -1.4551178216934204 L 21.0 -1.4551178216934204 L 21.0 -1.4875619411468506 L 22.0 -1.4875619411468506 L 22.0 -1.5892562866210938 L 23.0 -1.5892562866210938 L 23.0 -1.691740870475769 L 24.0 -1.691740870475769 L 24.0 -1.5900496244430542 L 25.0 -1.5900496244430542 L 25.0 -0.6661776304244995 L 24.0 -0.6661776304244995 L 24.0 -0.73210608959198 L 23.0 -0.73210608959198 L 23.0 -0.6177005171775818 L 22.0 -0.6177005171775818 L 22.0 -0.5219667553901672 L 21.0 -0.5219667553901672 L 21.0 -0.49548301100730896 L 20.0 -0.49548301100730896 L 20.0 -0.600135326385498 L 19.0 -0.600135326385498 L 19.0 -0.6282981038093567 L 18.0 -0.6282981038093567 L 18.0 -0.5535270571708679 L 17.0 -0.5535270571708679 L 17.0 -0.5073482394218445 L 16.0 -0.5073482394218445 L 16.0 -0.5351059436798096 L 15.0 -0.5351059436798096 L 15.0 -0.46395230293273926 L 14.0 -0.46395230293273926 L 14.0 -0.521045982837677 L 13.0 -0.521045982837677 L 13.0 -0.4998754858970642 L 12.0 -0.4998754858970642 L 12.0 -0.5333263278007507 L 11.0 -0.5333263278007507 L 11.0 -0.5391387939453125 L 10.0 -0.5391387939453125 L 10.0 -0.5059030652046204 L 9.0 -0.5059030652046204 L 9.0 -0.6066355109214783 L 8.0 -0.6066355109214783 L 8.0 -0.5291318297386169 L 7.0 -0.5291318297386169 L 7.0 -0.6120489835739136 L 6.0 -0.6120489835739136 L 6.0 -0.5292321443557739 L 5.0 -0.5292321443557739 L 5.0 -0.508674681186676 L 4.0 -0.508674681186676 L 4.0 -0.5835652947425842 L 3.0 -0.5835652947425842 L 3.0 -0.5656595826148987 L 2.0 -0.5656595826148987 L 2.0 -0.5970545411109924 L 1.0 -0.5970545411109924 L 1.0 -0.5235752463340759 L 0.0 -0.5235752463340759 Z" style="vector-effect: non-scaling-stroke;" /></g></g><g style="stroke: black;stroke-width: 1.2000000000000002;" transform="matrix(1.0, 0.0, 0.0, 1.0, 0.0, 0.0)"><path d="M 0.0 -0.5235752463340759 L 1.0 -0.5235752463340759 L 1.0 -0.5970545411109924 L 2.0 -0.5970545411109924 L 2.0 -0.5656595826148987 L 3.0 -0.5656595826148987 L 3.0 -0.5835652947425842 L 4.0 -0.5835652947425842 L 4.0 -0.508674681186676 L 5.0 -0.508674681186676 L 5.0 -0.5292321443557739 L 6.0 -0.5292321443557739 L 6.0 -0.6120489835739136 L 7.0 -0.6120489835739136 L 7.0 -0.5291318297386169 L 8.0 -0.5291318297386169 L 8.0 -0.6066355109214783 L 9.0 -0.6066355109214783 L 9.0 -0.5059030652046204 L 10.0 -0.5059030652046204 L 10.0 -0.5391387939453125 L 11.0 -0.5391387939453125 L 11.0 -0.5333263278007507 L 12.0 -0.5333263278007507 L 12.0 -0.4998754858970642 L 13.0 -0.4998754858970642 L 13.0 -0.521045982837677 L 14.0 -0.521045982837677 L 14.0 -0.46395230293273926 L 15.0 -0.46395230293273926 L 15.0 -0.5351059436798096 L 16.0 -0.5351059436798096 L 16.0 -0.5073482394218445 L 17.0 -0.5073482394218445 L 17.0 -0.5535270571708679 L 18.0 -0.5535270571708679 L 18.0 -0.6282981038093567 L 19.0 -0.6282981038093567 L 19.0 -0.600135326385498 L 20.0 -0.600135326385498 L 20.0 -0.49548301100730896 L 21.0 -0.49548301100730896 L 21.0 -0.5219667553901672 L 22.0 -0.5219667553901672 L 22.0 -0.6177005171775818 L 23.0 -0.6177005171775818 L 23.0 -0.73210608959198 L 24.0 -0.73210608959198 L 24.0 -0.6661776304244995 L 25.0 -0.6661776304244995" style="vector-effect: non-scaling-stroke;fill:none;" /></g></g></g></g></g></g><g transform="matrix(1.0, 0.0, 0.0, 1.0, -0.125, 0.16149180352687836)"><g transform="matrix(1.0, 0.0, 0.0, 0.009999999999999995, 0.0, 0.0)"><g transform="matrix(0.01, 0.0, 0.0, 1.0, 0.0, 0.0)"><g><g><g style="fill: #add8e6;stroke: #add8e6;stroke-width: 1.2000000000000002;fill-opacity: 0.5;" transform="matrix(1.0, 0.0, 0.0, 1.0, 0.0, 0.0)"><path d="M 0.0 -2.0 L 0.0 2.0" style="vector-effect: non-scaling-stroke;fill:none;" /></g><g style="fill: #add8e6;stroke: #add8e6;stroke-width: 1.2000000000000002;fill-opacity: 0.5;" transform="matrix(1.0, 0.0, 0.0, 1.0, 0.0, 0.0)"><path d="M 0.0 -1.602419376373291 L 1.0 -1.602419376373291 L 1.0 -1.8427915573120117 L 2.0 -1.8427915573120117 L 2.0 -1.727950096130371 L 3.0 -1.727950096130371 L 3.0 -1.8114209175109863 L 4.0 -1.8114209175109863 L 4.0 -1.539834976196289 L 5.0 -1.539834976196289 L 5.0 -1.7213250398635864 L 6.0 -1.7213250398635864 L 6.0 -1.8399046659469604 L 7.0 -1.8399046659469604 L 7.0 -1.6198968887329102 L 8.0 -1.6198968887329102 L 8.0 -1.8762145042419434 L 9.0 -1.8762145042419434 L 9.0 -1.5787866115570068 L 10.0 -1.5787866115570068 L 10.0 -1.6537456512451172 L 11.0 -1.6537456512451172 L 11.0 -1.6181309223175049 L 12.0 -1.6181309223175049 L 12.0 -1.5161347389221191 L 13.0 -1.5161347389221191 L 13.0 -1.6058504581451416 L 14.0 -1.6058504581451416 L 14.0 -1.450409173965454 L 15.0 -1.450409173965454 L 15.0 -1.7450802326202393 L 16.0 -1.7450802326202393 L 16.0 -1.6100342273712158 L 17.0 -1.6100342273712158 L 17.0 -1.7098572254180908 L 18.0 -1.7098572254180908 L 18.0 -1.97536301612854 L 19.0 -1.97536301612854 L 19.0 -1.8637537956237793 L 20.0 -1.8637537956237793 L 20.0 -1.604129433631897 L 21.0 -1.604129433631897 L 21.0 -1.523324728012085 L 22.0 -1.523324728012085 L 22.0 -1.8217144012451172 L 23.0 -1.8217144012451172 L 23.0 -2.0 L 24.0 -2.0 L 24.0 -2.0 L 25.0 -2.0 L 25.0 -0.6661776304244995 L 24.0 -0.6661776304244995 L 24.0 -0.73210608959198 L 23.0 -0.73210608959198 L 23.0 -0.6177005171775818 L 22.0 -0.6177005171775818 L 22.0 -0.5219667553901672 L 21.0 -0.5219667553901672 L 21.0 -0.49548301100730896 L 20.0 -0.49548301100730896 L 20.0 -0.600135326385498 L 19.0 -0.600135326385498 L 19.0 -0.6282981038093567 L 18.0 -0.6282981038093567 L 18.0 -0.5535270571708679 L 17.0 -0.5535270571708679 L 17.0 -0.5073482394218445 L 16.0 -0.5073482394218445 L 16.0 -0.5351059436798096 L 15.0 -0.5351059436798096 L 15.0 -0.46395230293273926 L 14.0 -0.46395230293273926 L 14.0 -0.521045982837677 L 13.0 -0.521045982837677 L 13.0 -0.4998754858970642 L 12.0 -0.4998754858970642 L 12.0 -0.5333263278007507 L 11.0 -0.5333263278007507 L 11.0 -0.5391387939453125 L 10.0 -0.5391387939453125 L 10.0 -0.5059030652046204 L 9.0 -0.5059030652046204 L 9.0 -0.6066355109214783 L 8.0 -0.6066355109214783 L 8.0 -0.5291318297386169 L 7.0 -0.5291318297386169 L 7.0 -0.6120489835739136 L 6.0 -0.6120489835739136 L 6.0 -0.5292321443557739 L 5.0 -0.5292321443557739 L 5.0 -0.508674681186676 L 4.0 -0.508674681186676 L 4.0 -0.5835652947425842 L 3.0 -0.5835652947425842 L 3.0 -0.5656595826148987 L 2.0 -0.5656595826148987 L 2.0 -0.5970545411109924 L 1.0 -0.5970545411109924 L 1.0 -0.5235752463340759 L 0.0 -0.5235752463340759 Z" style="vector-effect: non-scaling-stroke;" /></g></g><g style="stroke: black;stroke-width: 1.2000000000000002;" transform="matrix(1.0, 0.0, 0.0, 1.0, 0.0, 0.0)"><path d="M 0.0 -0.5235752463340759 L 1.0 -0.5235752463340759 L 1.0 -0.5970545411109924 L 2.0 -0.5970545411109924 L 2.0 -0.5656595826148987 L 3.0 -0.5656595826148987 L 3.0 -0.5835652947425842 L 4.0 -0.5835652947425842 L 4.0 -0.508674681186676 L 5.0 -0.508674681186676 L 5.0 -0.5292321443557739 L 6.0 -0.5292321443557739 L 6.0 -0.6120489835739136 L 7.0 -0.6120489835739136 L 7.0 -0.5291318297386169 L 8.0 -0.5291318297386169 L 8.0 -0.6066355109214783 L 9.0 -0.6066355109214783 L 9.0 -0.5059030652046204 L 10.0 -0.5059030652046204 L 10.0 -0.5391387939453125 L 11.0 -0.5391387939453125 L 11.0 -0.5333263278007507 L 12.0 -0.5333263278007507 L 12.0 -0.4998754858970642 L 13.0 -0.4998754858970642 L 13.0 -0.521045982837677 L 14.0 -0.521045982837677 L 14.0 -0.46395230293273926 L 15.0 -0.46395230293273926 L 15.0 -0.5351059436798096 L 16.0 -0.5351059436798096 L 16.0 -0.5073482394218445 L 17.0 -0.5073482394218445 L 17.0 -0.5535270571708679 L 18.0 -0.5535270571708679 L 18.0 -0.6282981038093567 L 19.0 -0.6282981038093567 L 19.0 -0.600135326385498 L 20.0 -0.600135326385498 L 20.0 -0.49548301100730896 L 21.0 -0.49548301100730896 L 21.0 -0.5219667553901672 L 22.0 -0.5219667553901672 L 22.0 -0.6177005171775818 L 23.0 -0.6177005171775818 L 23.0 -0.73210608959198 L 24.0 -0.73210608959198 L 24.0 -0.6661776304244995 L 25.0 -0.6661776304244995" style="vector-effect: non-scaling-stroke;fill:none;" /></g></g></g></g></g></g><g transform="matrix(1.0, 0.0, 0.0, 1.0, -0.125, 0.16149180352687836)"><g transform="matrix(1.0, 0.0, 0.0, 0.009999999999999995, 0.0, 0.0)"><g transform="matrix(0.01, 0.0, 0.0, 1.0, 0.0, 0.0)"><g><g><g style="fill: #ff8c00;stroke: #ff8c00;stroke-width: 1.2000000000000002;fill-opacity: 0.5;" transform="matrix(1.0, 0.0, 0.0, 1.0, 0.0, 0.0)"><path d="M 0.0 -2.0 L 0.0 2.0" style="vector-effect: non-scaling-stroke;fill:none;" /></g><g style="fill: #ff8c00;stroke: #ff8c00;stroke-width: 1.2000000000000002;fill-opacity: 0.5;" transform="matrix(1.0, 0.0, 0.0, 1.0, 0.0, 0.0)"><path d="M 0.0 -0.5235752463340759 L 1.0 -0.5235752463340759 L 1.0 -0.5970545411109924 L 2.0 -0.5970545411109924 L 2.0 -0.5656595826148987 L 3.0 -0.5656595826148987 L 3.0 -0.5835652947425842 L 4.0 -0.5835652947425842 L 4.0 -0.508674681186676 L 5.0 -0.508674681186676 L 5.0 -0.5292321443557739 L 6.0 -0.5292321443557739 L 6.0 -0.6120489835739136 L 7.0 -0.6120489835739136 L 7.0 -0.5291318297386169 L 8.0 -0.5291318297386169 L 8.0 -0.6066355109214783 L 9.0 -0.6066355109214783 L 9.0 -0.5059030652046204 L 10.0 -0.5059030652046204 L 10.0 -0.5391387939453125 L 11.0 -0.5391387939453125 L 11.0 -0.5333263278007507 L 12.0 -0.5333263278007507 L 12.0 -0.4998754858970642 L 13.0 -0.4998754858970642 L 13.0 -0.521045982837677 L 14.0 -0.521045982837677 L 14.0 -0.46395230293273926 L 15.0 -0.46395230293273926 L 15.0 -0.5351059436798096 L 16.0 -0.5351059436798096 L 16.0 -0.5073482394218445 L 17.0 -0.5073482394218445 L 17.0 -0.5535270571708679 L 18.0 -0.5535270571708679 L 18.0 -0.6282981038093567 L 19.0 -0.6282981038093567 L 19.0 -0.600135326385498 L 20.0 -0.600135326385498 L 20.0 -0.49548301100730896 L 21.0 -0.49548301100730896 L 21.0 -0.5219667553901672 L 22.0 -0.5219667553901672 L 22.0 -0.6177005171775818 L 23.0 -0.6177005171775818 L 23.0 -0.73210608959198 L 24.0 -0.73210608959198 L 24.0 -0.6661776304244995 L 25.0 -0.6661776304244995 L 25.0 -0.6661776304244995 L 24.0 -0.6661776304244995 L 24.0 -0.73210608959198 L 23.0 -0.73210608959198 L 23.0 -0.6177005171775818 L 22.0 -0.6177005171775818 L 22.0 -0.5219667553901672 L 21.0 -0.5219667553901672 L 21.0 -0.49548301100730896 L 20.0 -0.49548301100730896 L 20.0 -0.600135326385498 L 19.0 -0.600135326385498 L 19.0 -0.6282981038093567 L 18.0 -0.6282981038093567 L 18.0 -0.5535270571708679 L 17.0 -0.5535270571708679 L 17.0 -0.5073482394218445 L 16.0 -0.5073482394218445 L 16.0 -0.5351059436798096 L 15.0 -0.5351059436798096 L 15.0 -0.46395230293273926 L 14.0 -0.46395230293273926 L 14.0 -0.521045982837677 L 13.0 -0.521045982837677 L 13.0 -0.4998754858970642 L 12.0 -0.4998754858970642 L 12.0 -0.5333263278007507 L 11.0 -0.5333263278007507 L 11.0 -0.5391387939453125 L 10.0 -0.5391387939453125 L 10.0 -0.5059030652046204 L 9.0 -0.5059030652046204 L 9.0 -0.6066355109214783 L 8.0 -0.6066355109214783 L 8.0 -0.5291318297386169 L 7.0 -0.5291318297386169 L 7.0 -0.6120489835739136 L 6.0 -0.6120489835739136 L 6.0 -0.5292321443557739 L 5.0 -0.5292321443557739 L 5.0 -0.508674681186676 L 4.0 -0.508674681186676 L 4.0 -0.5835652947425842 L 3.0 -0.5835652947425842 L 3.0 -0.5656595826148987 L 2.0 -0.5656595826148987 L 2.0 -0.5970545411109924 L 1.0 -0.5970545411109924 L 1.0 -0.5235752463340759 L 0.0 -0.5235752463340759 Z" style="vector-effect: non-scaling-stroke;" /></g></g><g style="stroke: black;stroke-width: 1.2000000000000002;" transform="matrix(1.0, 0.0, 0.0, 1.0, 0.0, 0.0)"><path d="M 0.0 -0.5235752463340759 L 1.0 -0.5235752463340759 L 1.0 -0.5970545411109924 L 2.0 -0.5970545411109924 L 2.0 -0.5656595826148987 L 3.0 -0.5656595826148987 L 3.0 -0.5835652947425842 L 4.0 -0.5835652947425842 L 4.0 -0.508674681186676 L 5.0 -0.508674681186676 L 5.0 -0.5292321443557739 L 6.0 -0.5292321443557739 L 6.0 -0.6120489835739136 L 7.0 -0.6120489835739136 L 7.0 -0.5291318297386169 L 8.0 -0.5291318297386169 L 8.0 -0.6066355109214783 L 9.0 -0.6066355109214783 L 9.0 -0.5059030652046204 L 10.0 -0.5059030652046204 L 10.0 -0.5391387939453125 L 11.0 -0.5391387939453125 L 11.0 -0.5333263278007507 L 12.0 -0.5333263278007507 L 12.0 -0.4998754858970642 L 13.0 -0.4998754858970642 L 13.0 -0.521045982837677 L 14.0 -0.521045982837677 L 14.0 -0.46395230293273926 L 15.0 -0.46395230293273926 L 15.0 -0.5351059436798096 L 16.0 -0.5351059436798096 L 16.0 -0.5073482394218445 L 17.0 -0.5073482394218445 L 17.0 -0.5535270571708679 L 18.0 -0.5535270571708679 L 18.0 -0.6282981038093567 L 19.0 -0.6282981038093567 L 19.0 -0.600135326385498 L 20.0 -0.600135326385498 L 20.0 -0.49548301100730896 L 21.0 -0.49548301100730896 L 21.0 -0.5219667553901672 L 22.0 -0.5219667553901672 L 22.0 -0.6177005171775818 L 23.0 -0.6177005171775818 L 23.0 -0.73210608959198 L 24.0 -0.73210608959198 L 24.0 -0.6661776304244995 L 25.0 -0.6661776304244995" style="vector-effect: non-scaling-stroke;fill:none;" /></g></g></g></g></g></g><g transform="matrix(1.0, 0.0, 0.0, 1.0, -0.125, 0.16149180352687836)"><g transform="matrix(1.0, 0.0, 0.0, 0.009999999999999995, 0.0, 0.0)"><g transform="matrix(0.01, 0.0, 0.0, 1.0, 0.0, 0.0)"><g><g><g style="fill: #0000ff;stroke: #0000ff;stroke-width: 1.2000000000000002;fill-opacity: 0.5;" transform="matrix(1.0, 0.0, 0.0, 1.0, 0.0, 0.0)"><path d="M 0.0 -2.0 L 0.0 2.0" style="vector-effect: non-scaling-stroke;fill:none;" /></g><g style="fill: #0000ff;stroke: #0000ff;stroke-width: 1.2000000000000002;fill-opacity: 0.5;" transform="matrix(1.0, 0.0, 0.0, 1.0, 0.0, 0.0)"><path d="M 0.0 -0.5235752463340759 L 1.0 -0.5235752463340759 L 1.0 -0.5970545411109924 L 2.0 -0.5970545411109924 L 2.0 -0.5656595826148987 L 3.0 -0.5656595826148987 L 3.0 -0.5835652947425842 L 4.0 -0.5835652947425842 L 4.0 -0.508674681186676 L 5.0 -0.508674681186676 L 5.0 -0.5292321443557739 L 6.0 -0.5292321443557739 L 6.0 -0.6120489835739136 L 7.0 -0.6120489835739136 L 7.0 -0.5291318297386169 L 8.0 -0.5291318297386169 L 8.0 -0.6066355109214783 L 9.0 -0.6066355109214783 L 9.0 -0.5059030652046204 L 10.0 -0.5059030652046204 L 10.0 -0.5391387939453125 L 11.0 -0.5391387939453125 L 11.0 -0.5333263278007507 L 12.0 -0.5333263278007507 L 12.0 -0.4998754858970642 L 13.0 -0.4998754858970642 L 13.0 -0.521045982837677 L 14.0 -0.521045982837677 L 14.0 -0.46395230293273926 L 15.0 -0.46395230293273926 L 15.0 -0.5351059436798096 L 16.0 -0.5351059436798096 L 16.0 -0.5073482394218445 L 17.0 -0.5073482394218445 L 17.0 -0.5535270571708679 L 18.0 -0.5535270571708679 L 18.0 -0.6282981038093567 L 19.0 -0.6282981038093567 L 19.0 -0.600135326385498 L 20.0 -0.600135326385498 L 20.0 -0.49548301100730896 L 21.0 -0.49548301100730896 L 21.0 -0.5219667553901672 L 22.0 -0.5219667553901672 L 22.0 -0.6177005171775818 L 23.0 -0.6177005171775818 L 23.0 -0.73210608959198 L 24.0 -0.73210608959198 L 24.0 -0.6661776304244995 L 25.0 -0.6661776304244995 L 25.0 -0.6661776304244995 L 24.0 -0.6661776304244995 L 24.0 -0.73210608959198 L 23.0 -0.73210608959198 L 23.0 -0.6177005171775818 L 22.0 -0.6177005171775818 L 22.0 -0.5219667553901672 L 21.0 -0.5219667553901672 L 21.0 -0.49548301100730896 L 20.0 -0.49548301100730896 L 20.0 -0.600135326385498 L 19.0 -0.600135326385498 L 19.0 -0.6282981038093567 L 18.0 -0.6282981038093567 L 18.0 -0.5535270571708679 L 17.0 -0.5535270571708679 L 17.0 -0.5073482394218445 L 16.0 -0.5073482394218445 L 16.0 -0.5351059436798096 L 15.0 -0.5351059436798096 L 15.0 -0.46395230293273926 L 14.0 -0.46395230293273926 L 14.0 -0.521045982837677 L 13.0 -0.521045982837677 L 13.0 -0.4998754858970642 L 12.0 -0.4998754858970642 L 12.0 -0.5333263278007507 L 11.0 -0.5333263278007507 L 11.0 -0.5391387939453125 L 10.0 -0.5391387939453125 L 10.0 -0.5059030652046204 L 9.0 -0.5059030652046204 L 9.0 -0.6066355109214783 L 8.0 -0.6066355109214783 L 8.0 -0.5291318297386169 L 7.0 -0.5291318297386169 L 7.0 -0.6120489835739136 L 6.0 -0.6120489835739136 L 6.0 -0.5292321443557739 L 5.0 -0.5292321443557739 L 5.0 -0.508674681186676 L 4.0 -0.508674681186676 L 4.0 -0.5835652947425842 L 3.0 -0.5835652947425842 L 3.0 -0.5656595826148987 L 2.0 -0.5656595826148987 L 2.0 -0.5970545411109924 L 1.0 -0.5970545411109924 L 1.0 -0.5235752463340759 L 0.0 -0.5235752463340759 Z" style="vector-effect: non-scaling-stroke;" /></g></g><g style="stroke: black;stroke-width: 1.2000000000000002;" transform="matrix(1.0, 0.0, 0.0, 1.0, 0.0, 0.0)"><path d="M 0.0 -0.5235752463340759 L 1.0 -0.5235752463340759 L 1.0 -0.5970545411109924 L 2.0 -0.5970545411109924 L 2.0 -0.5656595826148987 L 3.0 -0.5656595826148987 L 3.0 -0.5835652947425842 L 4.0 -0.5835652947425842 L 4.0 -0.508674681186676 L 5.0 -0.508674681186676 L 5.0 -0.5292321443557739 L 6.0 -0.5292321443557739 L 6.0 -0.6120489835739136 L 7.0 -0.6120489835739136 L 7.0 -0.5291318297386169 L 8.0 -0.5291318297386169 L 8.0 -0.6066355109214783 L 9.0 -0.6066355109214783 L 9.0 -0.5059030652046204 L 10.0 -0.5059030652046204 L 10.0 -0.5391387939453125 L 11.0 -0.5391387939453125 L 11.0 -0.5333263278007507 L 12.0 -0.5333263278007507 L 12.0 -0.4998754858970642 L 13.0 -0.4998754858970642 L 13.0 -0.521045982837677 L 14.0 -0.521045982837677 L 14.0 -0.46395230293273926 L 15.0 -0.46395230293273926 L 15.0 -0.5351059436798096 L 16.0 -0.5351059436798096 L 16.0 -0.5073482394218445 L 17.0 -0.5073482394218445 L 17.0 -0.5535270571708679 L 18.0 -0.5535270571708679 L 18.0 -0.6282981038093567 L 19.0 -0.6282981038093567 L 19.0 -0.600135326385498 L 20.0 -0.600135326385498 L 20.0 -0.49548301100730896 L 21.0 -0.49548301100730896 L 21.0 -0.5219667553901672 L 22.0 -0.5219667553901672 L 22.0 -0.6177005171775818 L 23.0 -0.6177005171775818 L 23.0 -0.73210608959198 L 24.0 -0.73210608959198 L 24.0 -0.6661776304244995 L 25.0 -0.6661776304244995" style="vector-effect: non-scaling-stroke;fill:none;" /></g></g></g></g></g></g></g></g><g /></g></g></g></g></svg>