<?xml version="1.0" encoding="utf-8" ?>
<svg baseProfile="full" height="300" version="1.1" width="852" xmlns="http://www.w3.org/2000/svg" xmlns:ev="http://www.w3.org/2001/xml-events" xmlns:xlink="http://www.w3.org/1999/xlink"><defs><marker id="arrow" markerHeight="3.5" markerWidth="5" orient="auto" refX="5.0" refY="1.7"><polygon points="0,0 5,1.75 0,3.5" /></marker></defs><g style="fill:white;"><g transform="matrix(1.0, 0.0, 0.0, 1.0, 426.13636363636357, 150.0)"><g transform="matrix(1082.2510822510822, 0.0, 0.0, 1082.2510822510822, 0.0, 0.0)"><g><g transform="matrix(1.0, 0.0, 0.0, 1.0, -5.551115123125783e-17, -0.08000000000000002)"><g><g><g style="fill: #ffffff;stroke: black;stroke-width: 1.2000000000000002;" transform="matrix(1.0, 0.0, 0.0, 1.0, -0.3749999999999999, -0.052000000000000005)"><path d="M 0.0 0.0 L 0.7499999999999999 0.0 L 0.7499999999999999 0.264 L 0.0 0.264 L 0.0 0.0 Z" style="vector-effect: non-scaling-stroke;" /></g><g><g><g><g><g><g transform="matrix(1.0, 0.0, 0.0, 1.0, -0.32499999999999996, -0.03)"><g transform="matrix(1.0, 0.0, 0.0, 1.0, 0.075, 0.0)"><g transform="matrix(1.0, 0.0, 0.0, 1.0, 0.0, 0.03)"><g transform="matrix(0.01, 0.0, 0.0, 0.01, 0.0, 0.0)"><g><g><g transform="matrix(1.0, 0.0, 0.0, 1.0, 25.0, 0.0)"><g transform="matrix(1.0, 0.0, 0.0, 1.0, -32.5, -0.0)"><g><g style="fill: #d3d3d3;stroke: black;stroke-width: 1.2000000000000002;" transform="matrix(1.0, 0.0, 0.0, 1.0, 0.0, -3.0)"><path d="M 0.0 0.0 L 65.0 0.0 L 65.0 6.0 L 0.0 6.0 L 0.0 0.0 Z" style="vector-effect: non-scaling-stroke;" /></g><g transform="matrix(1.0, 0.0, 0.0, 1.0, 1.875, 0.0)"><g><g style="stroke: black;stroke-width: 1.2000000000000002;" transform="matrix(1.0, 0.0, 0.0, 1.0, 0.0, 0.0)"><g /></g><g style="fill: #ffa500;stroke: black;stroke-width: 1.2000000000000002;" transform="matrix(1.0, 0.0, 0.0, 1.0, 1.875, 0.0)"><text style="text-align:center; text-anchor:middle; dominant-baseline:middle;&#10;                      font-family:sans-serif; font-weight: bold;&#10;                      font-size:3px;&#10;                      vector-effect: non-scaling-stroke;" transform="translate(-5e-05, 0)">x</text></g></g></g></g></g></g><g><g><g><g style="stroke: black;stroke-width: 1.2000000000000002;" transform="matrix(1.0, 0.0, 0.0, 1.0, 0.0, 0.0)"><path d="M 0.0 -2.0 L 0.0 2.0" style="vector-effect: non-scaling-stroke;fill:none;" /></g><g style="stroke: #808080;stroke-width: 0.6000000000000001;" transform="matrix(1.0, 0.0, 0.0, 1.0, 0.0, 0.0)"><path d="M 0.0 0.0 L 50.0 0.0" style="vector-effect: non-scaling-stroke;fill:none;" /></g></g><g style="stroke: black;stroke-width: 2.4000000000000004;" transform="matrix(1.0, 0.0, 0.0, 1.0, 0.0, 0.0)"><path d="M 0.0 0.005311056971549988 L 1.0 0.005311056971549988 L 1.0 0.6617961525917053 L 2.0 0.6617961525917053 L 2.0 -0.029221951961517334 L 3.0 -0.029221951961517334 L 3.0 -0.5955145359039307 L 4.0 -0.5955145359039307 L 4.0 -0.28756967186927795 L 5.0 -0.28756967186927795 L 5.0 -1.1414746046066284 L 6.0 -1.1414746046066284 L 6.0 0.029801758006215096 L 7.0 0.029801758006215096 L 7.0 -0.5384460091590881 L 8.0 -0.5384460091590881 L 8.0 -0.7264551520347595 L 9.0 -0.7264551520347595 L 9.0 -0.7654497623443604 L 10.0 -0.7654497623443604 L 10.0 0.06270832568407059 L 11.0 0.06270832568407059 L 11.0 -1.5212970972061157 L 12.0 -1.5212970972061157 L 12.0 -0.8081479072570801 L 13.0 -0.8081479072570801 L 13.0 -1.4235832691192627 L 14.0 -1.4235832691192627 L 14.0 -0.31076791882514954 L 15.0 -0.31076791882514954 L 15.0 -0.3787614107131958 L 16.0 -0.3787614107131958 L 16.0 -1.1808154582977295 L 17.0 -1.1808154582977295 L 17.0 -0.852485179901123 L 18.0 -0.852485179901123 L 18.0 -1.745559573173523 L 19.0 -1.745559573173523 L 19.0 -0.6974199414253235 L 20.0 -0.6974199414253235 L 20.0 -0.5488577485084534 L 21.0 -0.5488577485084534 L 21.0 -0.821071445941925 L 22.0 -0.821071445941925 L 22.0 -0.8402944207191467 L 23.0 -0.8402944207191467 L 23.0 -0.12001878023147583 L 24.0 -0.12001878023147583 L 24.0 -1.3758478164672852 L 25.0 -1.3758478164672852 L 25.0 -0.7104760408401489 L 26.0 -0.7104760408401489 L 26.0 -0.8866549730300903 L 27.0 -0.8866549730300903 L 27.0 -0.5337659120559692 L 28.0 -0.5337659120559692 L 28.0 -1.97091805934906 L 29.0 -1.97091805934906 L 29.0 -1.27131187915802 L 30.0 -1.27131187915802 L 30.0 -1.3876806497573853 L 31.0 -1.3876806497573853 L 31.0 -1.7807198762893677 L 32.0 -1.7807198762893677 L 32.0 -0.7823610305786133 L 33.0 -0.7823610305786133 L 33.0 -1.4078423976898193 L 34.0 -1.4078423976898193 L 34.0 -1.8414782285690308 L 35.0 -1.8414782285690308 L 35.0 -0.1485409289598465 L 36.0 -0.1485409289598465 L 36.0 -1.0431902408599854 L 37.0 -1.0431902408599854 L 37.0 -0.09622325748205185 L 38.0 -0.09622325748205185 L 38.0 -0.26951152086257935 L 39.0 -0.26951152086257935 L 39.0 -1.3328336477279663 L 40.0 -1.3328336477279663 L 40.0 -0.8747767806053162 L 41.0 -0.8747767806053162 L 41.0 -1.4892016649246216 L 42.0 -1.4892016649246216 L 42.0 0.11869626492261887 L 43.0 0.11869626492261887 L 43.0 -1.2941701412200928 L 44.0 -1.2941701412200928 L 44.0 -0.487885057926178 L 45.0 -0.487885057926178 L 45.0 -1.3998547792434692 L 46.0 -1.3998547792434692 L 46.0 -0.6406936049461365 L 47.0 -0.6406936049461365 L 47.0 -1.6183596849441528 L 48.0 -1.6183596849441528 L 48.0 -1.5249296426773071 L 49.0 -1.5249296426773071 L 49.0 -0.435707688331604 L 50.0 -0.435707688331604" style="vector-effect: non-scaling-stroke;fill:none;" /></g></g></g></g><g><g><g><g style="stroke: black;stroke-width: 1.2000000000000002;" transform="matrix(1.0, 0.0, 0.0, 1.0, 0.0, 0.0)"><path d="M 0.0 -2.0 L 0.0 2.0" style="vector-effect: non-scaling-stroke;fill:none;" /></g><g style="stroke: #808080;stroke-width: 0.6000000000000001;" transform="matrix(1.0, 0.0, 0.0, 1.0, 0.0, 0.0)"><path d="M 0.0 0.0 L 50.0 0.0" style="vector-effect: non-scaling-stroke;fill:none;" /></g></g><g style="stroke: black;stroke-width: 2.4000000000000004;" transform="matrix(1.0, 0.0, 0.0, 1.0, 0.0, 0.0)"><path d="M 0.0 0.005311056971549988 L 1.0 0.005311056971549988 L 1.0 0.6617961525917053 L 2.0 0.6617961525917053 L 2.0 -0.029221951961517334 L 3.0 -0.029221951961517334 L 3.0 -0.5955145359039307 L 4.0 -0.5955145359039307 L 4.0 -0.28756967186927795 L 5.0 -0.28756967186927795 L 5.0 -1.1414746046066284 L 6.0 -1.1414746046066284 L 6.0 0.029801758006215096 L 7.0 0.029801758006215096 L 7.0 -0.5384460091590881 L 8.0 -0.5384460091590881 L 8.0 -0.7264551520347595 L 9.0 -0.7264551520347595 L 9.0 -0.7654497623443604 L 10.0 -0.7654497623443604 L 10.0 0.06270832568407059 L 11.0 0.06270832568407059 L 11.0 -1.5212970972061157 L 12.0 -1.5212970972061157 L 12.0 -0.8081479072570801 L 13.0 -0.8081479072570801 L 13.0 -1.4235832691192627 L 14.0 -1.4235832691192627 L 14.0 -0.31076791882514954 L 15.0 -0.31076791882514954 L 15.0 -0.3787614107131958 L 16.0 -0.3787614107131958 L 16.0 -1.1808154582977295 L 17.0 -1.1808154582977295 L 17.0 -0.852485179901123 L 18.0 -0.852485179901123 L 18.0 -1.745559573173523 L 19.0 -1.745559573173523 L 19.0 -0.6974199414253235 L 20.0 -0.6974199414253235 L 20.0 -0.5488577485084534 L 21.0 -0.5488577485084534 L 21.0 -0.821071445941925 L 22.0 -0.821071445941925 L 22.0 -0.8402944207191467 L 23.0 -0.8402944207191467 L 23.0 -0.12001878023147583 L 24.0 -0.12001878023147583 L 24.0 -1.3758478164672852 L 25.0 -1.3758478164672852 L 25.0 -0.7104760408401489 L 26.0 -0.7104760408401489 L 26.0 -0.8866549730300903 L 27.0 -0.8866549730300903 L 27.0 -0.5337659120559692 L 28.0 -0.5337659120559692 L 28.0 -1.97091805934906 L 29.0 -1.97091805934906 L 29.0 -1.27131187915802 L 30.0 -1.27131187915802 L 30.0 -1.3876806497573853 L 31.0 -1.3876806497573853 L 31.0 -1.7807198762893677 L 32.0 -1.7807198762893677 L 32.0 -0.7823610305786133 L 33.0 -0.7823610305786133 L 33.0 -1.4078423976898193 L 34.0 -1.4078423976898193 L 34.0 -1.8414782285690308 L 35.0 -1.8414782285690308 L 35.0 -0.1485409289598465 L 36.0 -0.1485409289598465 L 36.0 -1.0431902408599854 L 37.0 -1.0431902408599854 L 37.0 -0.09622325748205185 L 38.0 -0.09622325748205185 L 38.0 -0.26951152086257935 L 39.0 -0.26951152086257935 L 39.0 -1.3328336477279663 L 40.0 -1.3328336477279663 L 40.0 -0.8747767806053162 L 41.0 -0.8747767806053162 L 41.0 -1.4892016649246216 L 42.0 -1.4892016649246216 L 42.0 0.11869626492261887 L 43.0 0.11869626492261887 L 43.0 -1.2941701412200928 L 44.0 -1.2941701412200928 L 44.0 -0.487885057926178 L 45.0 -0.487885057926178 L 45.0 -1.3998547792434692 L 46.0 -1.3998547792434692 L 46.0 -0.6406936049461365 L 47.0 -0.6406936049461365 L 47.0 -1.6183596849441528 L 48.0 -1.6183596849441528 L 48.0 -1.5249296426773071 L 49.0 -1.5249296426773071 L 49.0 -0.435707688331604 L 50.0 -0.435707688331604" style="vector-effect: non-scaling-stroke;fill:none;" /></g></g></g></g></g></g></g></g><g style="stroke: black;stroke-width: 1.2000000000000002;" transform="matrix(0.0, -1.0, 1.0, 0.0, 0.0, 0.08)"><g /></g></g><g transform="matrix(1.0, 0.0, 0.0, 1.0, 0.0, 0.16)"><g transform="matrix(1.0, 0.0, 0.0, 1.0, -0.32499999999999996, -0.03)"><g transform="matrix(1.0, 0.0, 0.0, 1.0, 0.075, 0.0)"><g transform="matrix(1.0, 0.0, 0.0, 1.0, 0.0, 0.03)"><g transform="matrix(0.01, 0.0, 0.0, 0.01, 0.0, 0.0)"><g><g><g transform="matrix(1.0, 0.0, 0.0, 1.0, 25.0, 0.0)"><g transform="matrix(1.0, 0.0, 0.0, 1.0, -32.5, -0.0)"><g><g style="fill: #d3d3d3;stroke: black;stroke-width: 1.2000000000000002;" transform="matrix(1.0, 0.0, 0.0, 1.0, 0.0, -3.0)"><path d="M 0.0 0.0 L 65.0 0.0 L 65.0 6.0 L 0.0 6.0 L 0.0 0.0 Z" style="vector-effect: non-scaling-stroke;" /></g><g transform="matrix(1.0, 0.0, 0.0, 1.0, 1.875, 0.0)"><g><g style="stroke: black;stroke-width: 1.2000000000000002;" transform="matrix(1.0, 0.0, 0.0, 1.0, 0.0, 0.0)"><g /></g><g style="fill: #ffa500;stroke: black;stroke-width: 1.2000000000000002;" transform="matrix(1.0, 0.0, 0.0, 1.0, 1.875, 0.0)"><text style="text-align:center; text-anchor:middle; dominant-baseline:middle;&#10;                      font-family:sans-serif; font-weight: bold;&#10;                      font-size:3px;&#10;                      vector-effect: non-scaling-stroke;" transform="translate(-5e-05, 0)">f(x)</text></g></g></g></g></g></g><g><g><g><g style="stroke: black;stroke-width: 1.2000000000000002;" transform="matrix(1.0, 0.0, 0.0, 1.0, 0.0, 0.0)"><path d="M 0.0 -2.0 L 0.0 2.0" style="vector-effect: non-scaling-stroke;fill:none;" /></g><g style="stroke: #808080;stroke-width: 0.6000000000000001;" transform="matrix(1.0, 0.0, 0.0, 1.0, 0.0, 0.0)"><path d="M 0.0 0.0 L 50.0 0.0" style="vector-effect: non-scaling-stroke;fill:none;" /></g></g><g style="stroke: black;stroke-width: 2.4000000000000004;" transform="matrix(1.0, 0.0, 0.0, 1.0, 0.0, 0.0)"><path d="M 0.0 0.0005311056738719344 L 1.0 0.0005311056738719344 L 1.0 0.06671072542667389 L 2.0 0.06671072542667389 L 2.0 0.0637885257601738 L 3.0 0.0637885257601738 L 3.0 0.004237072076648474 L 4.0 0.004237072076648474 L 4.0 -0.024519892409443855 L 5.0 -0.024519892409443855 L 5.0 -0.13866737484931946 L 6.0 -0.13866737484931946 L 6.0 -0.1356871873140335 L 7.0 -0.1356871873140335 L 7.0 -0.18953180313110352 L 8.0 -0.18953180313110352 L 8.0 -0.26217731833457947 L 9.0 -0.26217731833457947 L 9.0 -0.338722288608551 L 10.0 -0.338722288608551 L 10.0 -0.3329825699329376 L 11.0 -0.3329825699329376 L 11.0 -0.5512918829917908 L 12.0 -0.5512918829917908 L 12.0 -0.6291844248771667 L 13.0 -0.6291844248771667 L 13.0 -0.7119913101196289 L 14.0 -0.7119913101196289 L 14.0 -0.7143111824989319 L 15.0 -0.7143111824989319 L 15.0 -0.6380398273468018 L 16.0 -0.6380398273468018 L 16.0 -0.7591015696525574 L 17.0 -0.7591015696525574 L 17.0 -0.7905054688453674 L 18.0 -0.7905054688453674 L 18.0 -0.8924160003662109 L 19.0 -0.8924160003662109 L 19.0 -0.885612964630127 L 20.0 -0.885612964630127 L 20.0 -0.9467695355415344 L 21.0 -0.9467695355415344 L 21.0 -0.8767469525337219 L 22.0 -0.8767469525337219 L 22.0 -0.8799616098403931 L 23.0 -0.8799616098403931 L 23.0 -0.7496051788330078 L 24.0 -0.7496051788330078 L 24.0 -0.8561131358146667 L 25.0 -0.8561131358146667 L 25.0 -0.889284610748291 L 26.0 -0.889284610748291 L 26.0 -0.8598686456680298 L 27.0 -0.8598686456680298 L 27.0 -0.8279967308044434 L 28.0 -0.8279967308044434 L 28.0 -0.8505325317382812 L 29.0 -0.8505325317382812 L 29.0 -0.9079216718673706 L 30.0 -0.9079216718673706 L 30.0 -0.9918040037155151 L 31.0 -0.9918040037155151 L 31.0 -1.0877689123153687 L 32.0 -1.0877689123153687 L 32.0 -1.0819754600524902 L 33.0 -1.0819754600524902 L 33.0 -1.210757851600647 L 34.0 -1.210757851600647 L 34.0 -1.257320761680603 L 35.0 -1.257320761680603 L 35.0 -1.201127290725708 L 36.0 -1.201127290725708 L 36.0 -1.2167809009552002 L 37.0 -1.2167809009552002 L 37.0 -1.17302668094635 L 38.0 -1.17302668094635 L 38.0 -1.0028860569000244 L 39.0 -1.0028860569000244 L 39.0 -1.0090382099151611 L 40.0 -1.0090382099151611 L 40.0 -0.957747757434845 L 41.0 -0.957747757434845 L 41.0 -0.9285959005355835 L 42.0 -0.9285959005355835 L 42.0 -0.8384903073310852 L 43.0 -0.8384903073310852 L 43.0 -0.8271230459213257 L 44.0 -0.8271230459213257 L 44.0 -0.6917637586593628 L 45.0 -0.6917637586593628 L 45.0 -0.8168951272964478 L 46.0 -0.8168951272964478 L 46.0 -0.7766454815864563 L 47.0 -0.7766454815864563 L 47.0 -0.9288589358329773 L 48.0 -0.9288589358329773 L 48.0 -1.0544008016586304 L 49.0 -1.0544008016586304 L 49.0 -0.9646883010864258 L 50.0 -0.9646883010864258" style="vector-effect: non-scaling-stroke;fill:none;" /></g></g></g></g><g><g><g><g style="stroke: black;stroke-width: 1.2000000000000002;" transform="matrix(1.0, 0.0, 0.0, 1.0, 0.0, 0.0)"><path d="M 0.0 -2.0 L 0.0 2.0" style="vector-effect: non-scaling-stroke;fill:none;" /></g><g style="stroke: #808080;stroke-width: 0.6000000000000001;" transform="matrix(1.0, 0.0, 0.0, 1.0, 0.0, 0.0)"><path d="M 0.0 0.0 L 50.0 0.0" style="vector-effect: non-scaling-stroke;fill:none;" /></g></g><g style="stroke: black;stroke-width: 2.4000000000000004;" transform="matrix(1.0, 0.0, 0.0, 1.0, 0.0, 0.0)"><path d="M 0.0 0.0005311056738719344 L 1.0 0.0005311056738719344 L 1.0 0.06671072542667389 L 2.0 0.06671072542667389 L 2.0 0.0637885257601738 L 3.0 0.0637885257601738 L 3.0 0.004237072076648474 L 4.0 0.004237072076648474 L 4.0 -0.024519892409443855 L 5.0 -0.024519892409443855 L 5.0 -0.13866737484931946 L 6.0 -0.13866737484931946 L 6.0 -0.1356871873140335 L 7.0 -0.1356871873140335 L 7.0 -0.18953180313110352 L 8.0 -0.18953180313110352 L 8.0 -0.26217731833457947 L 9.0 -0.26217731833457947 L 9.0 -0.338722288608551 L 10.0 -0.338722288608551 L 10.0 -0.3329825699329376 L 11.0 -0.3329825699329376 L 11.0 -0.5512918829917908 L 12.0 -0.5512918829917908 L 12.0 -0.6291844248771667 L 13.0 -0.6291844248771667 L 13.0 -0.7119913101196289 L 14.0 -0.7119913101196289 L 14.0 -0.7143111824989319 L 15.0 -0.7143111824989319 L 15.0 -0.6380398273468018 L 16.0 -0.6380398273468018 L 16.0 -0.7591015696525574 L 17.0 -0.7591015696525574 L 17.0 -0.7905054688453674 L 18.0 -0.7905054688453674 L 18.0 -0.8924160003662109 L 19.0 -0.8924160003662109 L 19.0 -0.885612964630127 L 20.0 -0.885612964630127 L 20.0 -0.9467695355415344 L 21.0 -0.9467695355415344 L 21.0 -0.8767469525337219 L 22.0 -0.8767469525337219 L 22.0 -0.8799616098403931 L 23.0 -0.8799616098403931 L 23.0 -0.7496051788330078 L 24.0 -0.7496051788330078 L 24.0 -0.8561131358146667 L 25.0 -0.8561131358146667 L 25.0 -0.889284610748291 L 26.0 -0.889284610748291 L 26.0 -0.8598686456680298 L 27.0 -0.8598686456680298 L 27.0 -0.8279967308044434 L 28.0 -0.8279967308044434 L 28.0 -0.8505325317382812 L 29.0 -0.8505325317382812 L 29.0 -0.9079216718673706 L 30.0 -0.9079216718673706 L 30.0 -0.9918040037155151 L 31.0 -0.9918040037155151 L 31.0 -1.0877689123153687 L 32.0 -1.0877689123153687 L 32.0 -1.0819754600524902 L 33.0 -1.0819754600524902 L 33.0 -1.210757851600647 L 34.0 -1.210757851600647 L 34.0 -1.257320761680603 L 35.0 -1.257320761680603 L 35.0 -1.201127290725708 L 36.0 -1.201127290725708 L 36.0 -1.2167809009552002 L 37.0 -1.2167809009552002 L 37.0 -1.17302668094635 L 38.0 -1.17302668094635 L 38.0 -1.0028860569000244 L 39.0 -1.0028860569000244 L 39.0 -1.0090382099151611 L 40.0 -1.0090382099151611 L 40.0 -0.957747757434845 L 41.0 -0.957747757434845 L 41.0 -0.9285959005355835 L 42.0 -0.9285959005355835 L 42.0 -0.8384903073310852 L 43.0 -0.8384903073310852 L 43.0 -0.8271230459213257 L 44.0 -0.8271230459213257 L 44.0 -0.6917637586593628 L 45.0 -0.6917637586593628 L 45.0 -0.8168951272964478 L 46.0 -0.8168951272964478 L 46.0 -0.7766454815864563 L 47.0 -0.7766454815864563 L 47.0 -0.9288589358329773 L 48.0 -0.9288589358329773 L 48.0 -1.0544008016586304 L 49.0 -1.0544008016586304 L 49.0 -0.9646883010864258 L 50.0 -0.9646883010864258" style="vector-effect: non-scaling-stroke;fill:none;" /></g></g></g></g></g></g></g></g></g></g><g transform="matrix(1.0, 0.0, 0.0, 1.0, -0.24999999999999994, 0.16)"><g transform="matrix(1.0, 0.0, 0.0, 0.009999999999999995, 0.0, 0.0)"><g transform="matrix(0.01, 0.0, 0.0, 1.0, 0.0, 0.0)"><g><g><g style="fill: #ff0000;stroke: #ff0000;stroke-width: 1.2000000000000002;fill-opacity: 0.5;" transform="matrix(1.0, 0.0, 0.0, 1.0, 0.0, 0.0)"><path d="M 0.0 -2.0 L 0.0 2.0" style="vector-effect: non-scaling-stroke;fill:none;" /></g><g style="fill: #ff0000;stroke: #ff0000;stroke-width: 1.2000000000000002;fill-opacity: 0.5;" transform="matrix(1.0, 0.0, 0.0, 1.0, 0.0, 0.0)"><path d="M 0.0 0.0005311056738719344 L 1.0 0.0005311056738719344 L 1.0 0.06671072542667389 L 2.0 0.06671072542667389 L 2.0 0.0637885257601738 L 3.0 0.0637885257601738 L 3.0 0.004237072076648474 L 4.0 0.004237072076648474 L 4.0 -0.024519892409443855 L 5.0 -0.024519892409443855 L 5.0 -0.13866737484931946 L 6.0 -0.13866737484931946 L 6.0 -0.1356871873140335 L 7.0 -0.1356871873140335 L 7.0 -0.18953180313110352 L 8.0 -0.18953180313110352 L 8.0 -0.26217731833457947 L 9.0 -0.26217731833457947 L 9.0 -0.338722288608551 L 10.0 -0.338722288608551 L 10.0 -0.3329825699329376 L 11.0 -0.3329825699329376 L 11.0 -0.5512918829917908 L 12.0 -0.5512918829917908 L 12.0 -0.6291844248771667 L 13.0 -0.6291844248771667 L 13.0 -0.7119913101196289 L 14.0 -0.7119913101196289 L 14.0 -0.7143111824989319 L 15.0 -0.7143111824989319 L 15.0 -0.6380398273468018 L 16.0 -0.6380398273468018 L 16.0 -0.7591015696525574 L 17.0 -0.7591015696525574 L 17.0 -0.7905054688453674 L 18.0 -0.7905054688453674 L 18.0 -0.8924160003662109 L 19.0 -0.8924160003662109 L 19.0 -0.885612964630127 L 20.0 -0.885612964630127 L 20.0 -0.9467695355415344 L 21.0 -0.9467695355415344 L 21.0 -0.8767469525337219 L 22.0 -0.8767469525337219 L 22.0 -0.8799616098403931 L 23.0 -0.8799616098403931 L 23.0 -0.7496051788330078 L 24.0 -0.7496051788330078 L 24.0 -0.8561131358146667 L 25.0 -0.8561131358146667 L 25.0 -0.889284610748291 L 26.0 -0.889284610748291 L 26.0 -0.8598686456680298 L 27.0 -0.8598686456680298 L 27.0 -0.8279967308044434 L 28.0 -0.8279967308044434 L 28.0 -0.8505325317382812 L 29.0 -0.8505325317382812 L 29.0 -0.9079216718673706 L 30.0 -0.9079216718673706 L 30.0 -0.9918040037155151 L 31.0 -0.9918040037155151 L 31.0 -1.0877689123153687 L 32.0 -1.0877689123153687 L 32.0 -1.0819754600524902 L 33.0 -1.0819754600524902 L 33.0 -1.210757851600647 L 34.0 -1.210757851600647 L 34.0 -1.257320761680603 L 35.0 -1.257320761680603 L 35.0 -1.201127290725708 L 36.0 -1.201127290725708 L 36.0 -1.2167809009552002 L 37.0 -1.2167809009552002 L 37.0 -1.17302668094635 L 38.0 -1.17302668094635 L 38.0 -1.0028860569000244 L 39.0 -1.0028860569000244 L 39.0 -1.0090382099151611 L 40.0 -1.0090382099151611 L 40.0 -0.957747757434845 L 41.0 -0.957747757434845 L 41.0 -0.9285959005355835 L 42.0 -0.9285959005355835 L 42.0 -0.8384903073310852 L 43.0 -0.8384903073310852 L 43.0 -0.8271230459213257 L 44.0 -0.8271230459213257 L 44.0 -0.6917637586593628 L 45.0 -0.6917637586593628 L 45.0 -0.8168951272964478 L 46.0 -0.8168951272964478 L 46.0 -0.7766454815864563 L 47.0 -0.7766454815864563 L 47.0 -0.9288589358329773 L 48.0 -0.9288589358329773 L 48.0 -1.0544008016586304 L 49.0 -1.0544008016586304 L 49.0 -0.9646883010864258 L 50.0 -0.9646883010864258 L 50.0 -0.9646883010864258 L 49.0 -0.9646883010864258 L 49.0 -1.0544008016586304 L 48.0 -1.0544008016586304 L 48.0 -0.9288589358329773 L 47.0 -0.9288589358329773 L 47.0 -0.7766454815864563 L 46.0 -0.7766454815864563 L 46.0 -0.8168951272964478 L 45.0 -0.8168951272964478 L 45.0 -0.6917637586593628 L 44.0 -0.6917637586593628 L 44.0 -0.8271230459213257 L 43.0 -0.8271230459213257 L 43.0 -0.8384903073310852 L 42.0 -0.8384903073310852 L 42.0 -0.9285959005355835 L 41.0 -0.9285959005355835 L 41.0 -0.957747757434845 L 40.0 -0.957747757434845 L 40.0 -1.0090382099151611 L 39.0 -1.0090382099151611 L 39.0 -1.0028860569000244 L 38.0 -1.0028860569000244 L 38.0 -1.17302668094635 L 37.0 -1.17302668094635 L 37.0 -1.2167809009552002 L 36.0 -1.2167809009552002 L 36.0 -1.201127290725708 L 35.0 -1.201127290725708 L 35.0 -1.257320761680603 L 34.0 -1.257320761680603 L 34.0 -1.210757851600647 L 33.0 -1.210757851600647 L 33.0 -1.0819754600524902 L 32.0 -1.0819754600524902 L 32.0 -1.0877689123153687 L 31.0 -1.0877689123153687 L 31.0 -0.9918040037155151 L 30.0 -0.9918040037155151 L 30.0 -0.9079216718673706 L 29.0 -0.9079216718673706 L 29.0 -0.8505325317382812 L 28.0 -0.8505325317382812 L 28.0 -0.8279967308044434 L 27.0 -0.8279967308044434 L 27.0 -0.8598686456680298 L 26.0 -0.8598686456680298 L 26.0 -0.889284610748291 L 25.0 -0.889284610748291 L 25.0 -0.8561131358146667 L 24.0 -0.8561131358146667 L 24.0 -0.7496051788330078 L 23.0 -0.7496051788330078 L 23.0 -0.8799616098403931 L 22.0 -0.8799616098403931 L 22.0 -0.8767469525337219 L 21.0 -0.8767469525337219 L 21.0 -0.9467695355415344 L 20.0 -0.9467695355415344 L 20.0 -0.885612964630127 L 19.0 -0.885612964630127 L 19.0 -0.8924160003662109 L 18.0 -0.8924160003662109 L 18.0 -0.7905054688453674 L 17.0 -0.7905054688453674 L 17.0 -0.7591015696525574 L 16.0 -0.7591015696525574 L 16.0 -0.6380398273468018 L 15.0 -0.6380398273468018 L 15.0 -0.7143111824989319 L 14.0 -0.7143111824989319 L 14.0 -0.7119913101196289 L 13.0 -0.7119913101196289 L 13.0 -0.6291844248771667 L 12.0 -0.6291844248771667 L 12.0 -0.5512918829917908 L 11.0 -0.5512918829917908 L 11.0 -0.3329825699329376 L 10.0 -0.3329825699329376 L 10.0 -0.338722288608551 L 9.0 -0.338722288608551 L 9.0 -0.26217731833457947 L 8.0 -0.26217731833457947 L 8.0 -0.18953180313110352 L 7.0 -0.18953180313110352 L 7.0 -0.1356871873140335 L 6.0 -0.1356871873140335 L 6.0 -0.13866737484931946 L 5.0 -0.13866737484931946 L 5.0 -0.024519892409443855 L 4.0 -0.024519892409443855 L 4.0 0.004237072076648474 L 3.0 0.004237072076648474 L 3.0 0.0637885257601738 L 2.0 0.0637885257601738 L 2.0 0.06671072542667389 L 1.0 0.06671072542667389 L 1.0 0.0005311056738719344 L 0.0 0.0005311056738719344 Z" style="vector-effect: non-scaling-stroke;" /></g></g><g style="stroke: black;stroke-width: 1.2000000000000002;" transform="matrix(1.0, 0.0, 0.0, 1.0, 0.0, 0.0)"><path d="M 0.0 0.0005311056738719344 L 1.0 0.0005311056738719344 L 1.0 0.06671072542667389 L 2.0 0.06671072542667389 L 2.0 0.0637885257601738 L 3.0 0.0637885257601738 L 3.0 0.004237072076648474 L 4.0 0.004237072076648474 L 4.0 -0.024519892409443855 L 5.0 -0.024519892409443855 L 5.0 -0.13866737484931946 L 6.0 -0.13866737484931946 L 6.0 -0.1356871873140335 L 7.0 -0.1356871873140335 L 7.0 -0.18953180313110352 L 8.0 -0.18953180313110352 L 8.0 -0.26217731833457947 L 9.0 -0.26217731833457947 L 9.0 -0.338722288608551 L 10.0 -0.338722288608551 L 10.0 -0.3329825699329376 L 11.0 -0.3329825699329376 L 11.0 -0.5512918829917908 L 12.0 -0.5512918829917908 L 12.0 -0.6291844248771667 L 13.0 -0.6291844248771667 L 13.0 -0.7119913101196289 L 14.0 -0.7119913101196289 L 14.0 -0.7143111824989319 L 15.0 -0.7143111824989319 L 15.0 -0.6380398273468018 L 16.0 -0.6380398273468018 L 16.0 -0.7591015696525574 L 17.0 -0.7591015696525574 L 17.0 -0.7905054688453674 L 18.0 -0.7905054688453674 L 18.0 -0.8924160003662109 L 19.0 -0.8924160003662109 L 19.0 -0.885612964630127 L 20.0 -0.885612964630127 L 20.0 -0.9467695355415344 L 21.0 -0.9467695355415344 L 21.0 -0.8767469525337219 L 22.0 -0.8767469525337219 L 22.0 -0.8799616098403931 L 23.0 -0.8799616098403931 L 23.0 -0.7496051788330078 L 24.0 -0.7496051788330078 L 24.0 -0.8561131358146667 L 25.0 -0.8561131358146667 L 25.0 -0.889284610748291 L 26.0 -0.889284610748291 L 26.0 -0.8598686456680298 L 27.0 -0.8598686456680298 L 27.0 -0.8279967308044434 L 28.0 -0.8279967308044434 L 28.0 -0.8505325317382812 L 29.0 -0.8505325317382812 L 29.0 -0.9079216718673706 L 30.0 -0.9079216718673706 L 30.0 -0.9918040037155151 L 31.0 -0.9918040037155151 L 31.0 -1.0877689123153687 L 32.0 -1.0877689123153687 L 32.0 -1.0819754600524902 L 33.0 -1.0819754600524902 L 33.0 -1.210757851600647 L 34.0 -1.210757851600647 L 34.0 -1.257320761680603 L 35.0 -1.257320761680603 L 35.0 -1.201127290725708 L 36.0 -1.201127290725708 L 36.0 -1.2167809009552002 L 37.0 -1.2167809009552002 L 37.0 -1.17302668094635 L 38.0 -1.17302668094635 L 38.0 -1.0028860569000244 L 39.0 -1.0028860569000244 L 39.0 -1.0090382099151611 L 40.0 -1.0090382099151611 L 40.0 -0.957747757434845 L 41.0 -0.957747757434845 L 41.0 -0.9285959005355835 L 42.0 -0.9285959005355835 L 42.0 -0.8384903073310852 L 43.0 -0.8384903073310852 L 43.0 -0.8271230459213257 L 44.0 -0.8271230459213257 L 44.0 -0.6917637586593628 L 45.0 -0.6917637586593628 L 45.0 -0.8168951272964478 L 46.0 -0.8168951272964478 L 46.0 -0.7766454815864563 L 47.0 -0.7766454815864563 L 47.0 -0.9288589358329773 L 48.0 -0.9288589358329773 L 48.0 -1.0544008016586304 L 49.0 -1.0544008016586304 L 49.0 -0.9646883010864258 L 50.0 -0.9646883010864258" style="vector-effect: non-scaling-stroke;fill:none;" /></g></g></g></g></g></g><g transform="matrix(1.0, 0.0, 0.0, 1.0, -0.24999999999999994, 0.16)"><g transform="matrix(1.0, 0.0, 0.0, 0.009999999999999995, 0.0, 0.0)"><g transform="matrix(0.01, 0.0, 0.0, 1.0, 0.0, 0.0)"><g><g><g style="fill: #ffffe0;stroke: #ffffe0;stroke-width: 1.2000000000000002;fill-opacity: 0.5;" transform="matrix(1.0, 0.0, 0.0, 1.0, 0.0, 0.0)"><path d="M 0.0 -2.0 L 0.0 2.0" style="vector-effect: non-scaling-stroke;fill:none;" /></g><g style="fill: #ffffe0;stroke: #ffffe0;stroke-width: 1.2000000000000002;fill-opacity: 0.5;" transform="matrix(1.0, 0.0, 0.0, 1.0, 0.0, 0.0)"><path d="M 0.0 -0.7994750142097473 L 1.0 -0.7994750142097473 L 1.0 -0.7349717617034912 L 2.0 -0.7349717617034912 L 2.0 -0.7378939390182495 L 3.0 -0.7378939390182495 L 3.0 -0.7957690358161926 L 4.0 -0.7957690358161926 L 4.0 -0.8239672183990479 L 5.0 -0.8239672183990479 L 5.0 -0.9314091205596924 L 6.0 -0.9314091205596924 L 6.0 -0.9284289479255676 L 7.0 -0.9284289479255676 L 7.0 -0.9882340431213379 L 8.0 -0.9882340431213379 L 8.0 -1.0608795881271362 L 9.0 -1.0608795881271362 L 9.0 -1.1374244689941406 L 10.0 -1.1374244689941406 L 10.0 -0.3329825699329376 L 11.0 -0.3329825699329376 L 11.0 -0.5512918829917908 L 12.0 -0.5512918829917908 L 12.0 -0.6291844248771667 L 13.0 -0.6291844248771667 L 13.0 -0.7119913101196289 L 14.0 -0.7119913101196289 L 14.0 -0.7143111824989319 L 15.0 -0.7143111824989319 L 15.0 -0.6380398273468018 L 16.0 -0.6380398273468018 L 16.0 -0.7591015696525574 L 17.0 -0.7591015696525574 L 17.0 -0.7905054688453674 L 18.0 -0.7905054688453674 L 18.0 -0.8924160003662109 L 19.0 -0.8924160003662109 L 19.0 -0.885612964630127 L 20.0 -0.885612964630127 L 20.0 -1.733550786972046 L 21.0 -1.733550786972046 L 21.0 -1.711211919784546 L 22.0 -1.711211919784546 L 22.0 -1.6667429208755493 L 23.0 -1.6667429208755493 L 23.0 -1.5602283477783203 L 24.0 -1.5602283477783203 L 24.0 -1.666736364364624 L 25.0 -1.666736364364624 L 25.0 -1.6999077796936035 L 26.0 -1.6999077796936035 L 26.0 -1.646649956703186 L 27.0 -1.646649956703186 L 27.0 -1.6386198997497559 L 28.0 -1.6386198997497559 L 28.0 -1.6611557006835938 L 29.0 -1.6611557006835938 L 29.0 -1.718544840812683 L 30.0 -1.718544840812683 L 30.0 -0.9918040037155151 L 31.0 -0.9918040037155151 L 31.0 -1.0877689123153687 L 32.0 -1.0877689123153687 L 32.0 -1.0819754600524902 L 33.0 -1.0819754600524902 L 33.0 -1.210757851600647 L 34.0 -1.210757851600647 L 34.0 -1.257320761680603 L 35.0 -1.257320761680603 L 35.0 -2.0 L 36.0 -2.0 L 36.0 -1.9797203540802002 L 37.0 -1.9797203540802002 L 37.0 -1.9836498498916626 L 38.0 -1.9836498498916626 L 38.0 -1.7658255100250244 L 39.0 -1.7658255100250244 L 39.0 -1.8196613788604736 L 40.0 -1.8196613788604736 L 40.0 -1.7445290088653564 L 41.0 -1.7445290088653564 L 41.0 -1.739219069480896 L 42.0 -1.739219069480896 L 42.0 -1.6252715587615967 L 43.0 -1.6252715587615967 L 43.0 -1.6377462148666382 L 44.0 -1.6377462148666382 L 44.0 -1.478545069694519 L 45.0 -1.478545069694519 L 45.0 -0.8168951272964478 L 46.0 -0.8168951272964478 L 46.0 -0.7766454815864563 L 47.0 -0.7766454815864563 L 47.0 -0.9288589358329773 L 48.0 -0.9288589358329773 L 48.0 -1.0544008016586304 L 49.0 -1.0544008016586304 L 49.0 -0.9646883010864258 L 50.0 -0.9646883010864258 L 50.0 -0.9646883010864258 L 49.0 -0.9646883010864258 L 49.0 -1.0544008016586304 L 48.0 -1.0544008016586304 L 48.0 -0.9288589358329773 L 47.0 -0.9288589358329773 L 47.0 -0.7766454815864563 L 46.0 -0.7766454815864563 L 46.0 -0.8168951272964478 L 45.0 -0.8168951272964478 L 45.0 -0.6917637586593628 L 44.0 -0.6917637586593628 L 44.0 -0.8271230459213257 L 43.0 -0.8271230459213257 L 43.0 -0.8384903073310852 L 42.0 -0.8384903073310852 L 42.0 -0.9285959005355835 L 41.0 -0.9285959005355835 L 41.0 -0.957747757434845 L 40.0 -0.957747757434845 L 40.0 -1.0090382099151611 L 39.0 -1.0090382099151611 L 39.0 -1.0028860569000244 L 38.0 -1.0028860569000244 L 38.0 -1.17302668094635 L 37.0 -1.17302668094635 L 37.0 -1.2167809009552002 L 36.0 -1.2167809009552002 L 36.0 -1.201127290725708 L 35.0 -1.201127290725708 L 35.0 -1.257320761680603 L 34.0 -1.257320761680603 L 34.0 -1.210757851600647 L 33.0 -1.210757851600647 L 33.0 -1.0819754600524902 L 32.0 -1.0819754600524902 L 32.0 -1.0877689123153687 L 31.0 -1.0877689123153687 L 31.0 -0.9918040037155151 L 30.0 -0.9918040037155151 L 30.0 -0.9079216718673706 L 29.0 -0.9079216718673706 L 29.0 -0.8505325317382812 L 28.0 -0.8505325317382812 L 28.0 -0.8279967308044434 L 27.0 -0.8279967308044434 L 27.0 -0.8598686456680298 L 26.0 -0.8598686456680298 L 26.0 -0.889284610748291 L 25.0 -0.889284610748291 L 25.0 -0.8561131358146667 L 24.0 -0.8561131358146667 L 24.0 -0.7496051788330078 L 23.0 -0.7496051788330078 L 23.0 -0.8799616098403931 L 22.0 -0.8799616098403931 L 22.0 -0.8767469525337219 L 21.0 -0.8767469525337219 L 21.0 -0.9467695355415344 L 20.0 -0.9467695355415344 L 20.0 -0.885612964630127 L 19.0 -0.885612964630127 L 19.0 -0.8924160003662109 L 18.0 -0.8924160003662109 L 18.0 -0.7905054688453674 L 17.0 -0.7905054688453674 L 17.0 -0.7591015696525574 L 16.0 -0.7591015696525574 L 16.0 -0.6380398273468018 L 15.0 -0.6380398273468018 L 15.0 -0.7143111824989319 L 14.0 -0.7143111824989319 L 14.0 -0.7119913101196289 L 13.0 -0.7119913101196289 L 13.0 -0.6291844248771667 L 12.0 -0.6291844248771667 L 12.0 -0.5512918829917908 L 11.0 -0.5512918829917908 L 11.0 -0.3329825699329376 L 10.0 -0.3329825699329376 L 10.0 -0.338722288608551 L 9.0 -0.338722288608551 L 9.0 -0.26217731833457947 L 8.0 -0.26217731833457947 L 8.0 -0.18953180313110352 L 7.0 -0.18953180313110352 L 7.0 -0.1356871873140335 L 6.0 -0.1356871873140335 L 6.0 -0.13866737484931946 L 5.0 -0.13866737484931946 L 5.0 -0.024519892409443855 L 4.0 -0.024519892409443855 L 4.0 0.004237072076648474 L 3.0 0.004237072076648474 L 3.0 0.0637885257601738 L 2.0 0.0637885257601738 L 2.0 0.06671072542667389 L 1.0 0.06671072542667389 L 1.0 0.0005311056738719344 L 0.0 0.0005311056738719344 Z" style="vector-effect: non-scaling-stroke;" /></g></g><g style="stroke: black;stroke-width: 1.2000000000000002;" transform="matrix(1.0, 0.0, 0.0, 1.0, 0.0, 0.0)"><path d="M 0.0 0.0005311056738719344 L 1.0 0.0005311056738719344 L 1.0 0.06671072542667389 L 2.0 0.06671072542667389 L 2.0 0.0637885257601738 L 3.0 0.0637885257601738 L 3.0 0.004237072076648474 L 4.0 0.004237072076648474 L 4.0 -0.024519892409443855 L 5.0 -0.024519892409443855 L 5.0 -0.13866737484931946 L 6.0 -0.13866737484931946 L 6.0 -0.1356871873140335 L 7.0 -0.1356871873140335 L 7.0 -0.18953180313110352 L 8.0 -0.18953180313110352 L 8.0 -0.26217731833457947 L 9.0 -0.26217731833457947 L 9.0 -0.338722288608551 L 10.0 -0.338722288608551 L 10.0 -0.3329825699329376 L 11.0 -0.3329825699329376 L 11.0 -0.5512918829917908 L 12.0 -0.5512918829917908 L 12.0 -0.6291844248771667 L 13.0 -0.6291844248771667 L 13.0 -0.7119913101196289 L 14.0 -0.7119913101196289 L 14.0 -0.7143111824989319 L 15.0 -0.7143111824989319 L 15.0 -0.6380398273468018 L 16.0 -0.6380398273468018 L 16.0 -0.7591015696525574 L 17.0 -0.7591015696525574 L 17.0 -0.7905054688453674 L 18.0 -0.7905054688453674 L 18.0 -0.8924160003662109 L 19.0 -0.8924160003662109 L 19.0 -0.885612964630127 L 20.0 -0.885612964630127 L 20.0 -0.9467695355415344 L 21.0 -0.9467695355415344 L 21.0 -0.8767469525337219 L 22.0 -0.8767469525337219 L 22.0 -0.8799616098403931 L 23.0 -0.8799616098403931 L 23.0 -0.7496051788330078 L 24.0 -0.7496051788330078 L 24.0 -0.8561131358146667 L 25.0 -0.8561131358146667 L 25.0 -0.889284610748291 L 26.0 -0.889284610748291 L 26.0 -0.8598686456680298 L 27.0 -0.8598686456680298 L 27.0 -0.8279967308044434 L 28.0 -0.8279967308044434 L 28.0 -0.8505325317382812 L 29.0 -0.8505325317382812 L 29.0 -0.9079216718673706 L 30.0 -0.9079216718673706 L 30.0 -0.9918040037155151 L 31.0 -0.9918040037155151 L 31.0 -1.0877689123153687 L 32.0 -1.0877689123153687 L 32.0 -1.0819754600524902 L 33.0 -1.0819754600524902 L 33.0 -1.210757851600647 L 34.0 -1.210757851600647 L 34.0 -1.257320761680603 L 35.0 -1.257320761680603 L 35.0 -1.201127290725708 L 36.0 -1.201127290725708 L 36.0 -1.2167809009552002 L 37.0 -1.2167809009552002 L 37.0 -1.17302668094635 L 38.0 -1.17302668094635 L 38.0 -1.0028860569000244 L 39.0 -1.0028860569000244 L 39.0 -1.0090382099151611 L 40.0 -1.0090382099151611 L 40.0 -0.957747757434845 L 41.0 -0.957747757434845 L 41.0 -0.9285959005355835 L 42.0 -0.9285959005355835 L 42.0 -0.8384903073310852 L 43.0 -0.8384903073310852 L 43.0 -0.8271230459213257 L 44.0 -0.8271230459213257 L 44.0 -0.6917637586593628 L 45.0 -0.6917637586593628 L 45.0 -0.8168951272964478 L 46.0 -0.8168951272964478 L 46.0 -0.7766454815864563 L 47.0 -0.7766454815864563 L 47.0 -0.9288589358329773 L 48.0 -0.9288589358329773 L 48.0 -1.0544008016586304 L 49.0 -1.0544008016586304 L 49.0 -0.9646883010864258 L 50.0 -0.9646883010864258" style="vector-effect: non-scaling-stroke;fill:none;" /></g></g></g></g></g></g></g></g><g><g><g><g><g transform="matrix(1.0, 0.0, 0.0, 1.0, -0.32499999999999996, -0.03)"><g transform="matrix(1.0, 0.0, 0.0, 1.0, 0.075, 0.0)"><g transform="matrix(1.0, 0.0, 0.0, 1.0, 0.0, 0.03)"><g transform="matrix(0.01, 0.0, 0.0, 0.01, 0.0, 0.0)"><g><g><g transform="matrix(1.0, 0.0, 0.0, 1.0, 25.0, 0.0)"><g transform="matrix(1.0, 0.0, 0.0, 1.0, -32.5, -0.0)"><g><g style="fill: #d3d3d3;stroke: black;stroke-width: 1.2000000000000002;" transform="matrix(1.0, 0.0, 0.0, 1.0, 0.0, -3.0)"><path d="M 0.0 0.0 L 65.0 0.0 L 65.0 6.0 L 0.0 6.0 L 0.0 0.0 Z" style="vector-effect: non-scaling-stroke;" /></g><g transform="matrix(1.0, 0.0, 0.0, 1.0, 1.875, 0.0)"><g><g style="stroke: black;stroke-width: 1.2000000000000002;" transform="matrix(1.0, 0.0, 0.0, 1.0, 0.0, 0.0)"><g /></g><g style="fill: #ffa500;stroke: black;stroke-width: 1.2000000000000002;" transform="matrix(1.0, 0.0, 0.0, 1.0, 1.875, 0.0)"><text style="text-align:center; text-anchor:middle; dominant-baseline:middle;&#10;                      font-family:sans-serif; font-weight: bold;&#10;                      font-size:3px;&#10;                      vector-effect: non-scaling-stroke;" transform="translate(-5e-05, 0)">x</text></g></g></g></g></g></g><g><g><g><g style="stroke: black;stroke-width: 1.2000000000000002;" transform="matrix(1.0, 0.0, 0.0, 1.0, 0.0, 0.0)"><path d="M 0.0 -2.0 L 0.0 2.0" style="vector-effect: non-scaling-stroke;fill:none;" /></g><g style="stroke: #808080;stroke-width: 0.6000000000000001;" transform="matrix(1.0, 0.0, 0.0, 1.0, 0.0, 0.0)"><path d="M 0.0 0.0 L 50.0 0.0" style="vector-effect: non-scaling-stroke;fill:none;" /></g></g><g style="stroke: black;stroke-width: 2.4000000000000004;" transform="matrix(1.0, 0.0, 0.0, 1.0, 0.0, 0.0)"><path d="M 0.0 0.005311056971549988 L 1.0 0.005311056971549988 L 1.0 0.6617961525917053 L 2.0 0.6617961525917053 L 2.0 -0.029221951961517334 L 3.0 -0.029221951961517334 L 3.0 -0.5955145359039307 L 4.0 -0.5955145359039307 L 4.0 -0.28756967186927795 L 5.0 -0.28756967186927795 L 5.0 -1.1414746046066284 L 6.0 -1.1414746046066284 L 6.0 0.029801758006215096 L 7.0 0.029801758006215096 L 7.0 -0.5384460091590881 L 8.0 -0.5384460091590881 L 8.0 -0.7264551520347595 L 9.0 -0.7264551520347595 L 9.0 -0.7654497623443604 L 10.0 -0.7654497623443604 L 10.0 0.06270832568407059 L 11.0 0.06270832568407059 L 11.0 -1.5212970972061157 L 12.0 -1.5212970972061157 L 12.0 -0.8081479072570801 L 13.0 -0.8081479072570801 L 13.0 -1.4235832691192627 L 14.0 -1.4235832691192627 L 14.0 -0.31076791882514954 L 15.0 -0.31076791882514954 L 15.0 -0.3787614107131958 L 16.0 -0.3787614107131958 L 16.0 -1.1808154582977295 L 17.0 -1.1808154582977295 L 17.0 -0.852485179901123 L 18.0 -0.852485179901123 L 18.0 -1.745559573173523 L 19.0 -1.745559573173523 L 19.0 -0.6974199414253235 L 20.0 -0.6974199414253235 L 20.0 -0.5488577485084534 L 21.0 -0.5488577485084534 L 21.0 -0.821071445941925 L 22.0 -0.821071445941925 L 22.0 -0.8402944207191467 L 23.0 -0.8402944207191467 L 23.0 -0.12001878023147583 L 24.0 -0.12001878023147583 L 24.0 -1.3758478164672852 L 25.0 -1.3758478164672852 L 25.0 -0.7104760408401489 L 26.0 -0.7104760408401489 L 26.0 -0.8866549730300903 L 27.0 -0.8866549730300903 L 27.0 -0.5337659120559692 L 28.0 -0.5337659120559692 L 28.0 -1.97091805934906 L 29.0 -1.97091805934906 L 29.0 -1.27131187915802 L 30.0 -1.27131187915802 L 30.0 -1.3876806497573853 L 31.0 -1.3876806497573853 L 31.0 -1.7807198762893677 L 32.0 -1.7807198762893677 L 32.0 -0.7823610305786133 L 33.0 -0.7823610305786133 L 33.0 -1.4078423976898193 L 34.0 -1.4078423976898193 L 34.0 -1.8414782285690308 L 35.0 -1.8414782285690308 L 35.0 -0.1485409289598465 L 36.0 -0.1485409289598465 L 36.0 -1.0431902408599854 L 37.0 -1.0431902408599854 L 37.0 -0.09622325748205185 L 38.0 -0.09622325748205185 L 38.0 -0.26951152086257935 L 39.0 -0.26951152086257935 L 39.0 -1.3328336477279663 L 40.0 -1.3328336477279663 L 40.0 -0.8747767806053162 L 41.0 -0.8747767806053162 L 41.0 -1.4892016649246216 L 42.0 -1.4892016649246216 L 42.0 0.11869626492261887 L 43.0 0.11869626492261887 L 43.0 -1.2941701412200928 L 44.0 -1.2941701412200928 L 44.0 -0.487885057926178 L 45.0 -0.487885057926178 L 45.0 -1.3998547792434692 L 46.0 -1.3998547792434692 L 46.0 -0.6406936049461365 L 47.0 -0.6406936049461365 L 47.0 -1.6183596849441528 L 48.0 -1.6183596849441528 L 48.0 -1.5249296426773071 L 49.0 -1.5249296426773071 L 49.0 -0.435707688331604 L 50.0 -0.435707688331604" style="vector-effect: non-scaling-stroke;fill:none;" /></g></g></g></g><g><g><g><g style="stroke: black;stroke-width: 1.2000000000000002;" transform="matrix(1.0, 0.0, 0.0, 1.0, 0.0, 0.0)"><path d="M 0.0 -2.0 L 0.0 2.0" style="vector-effect: non-scaling-stroke;fill:none;" /></g><g style="stroke: #808080;stroke-width: 0.6000000000000001;" transform="matrix(1.0, 0.0, 0.0, 1.0, 0.0, 0.0)"><path d="M 0.0 0.0 L 50.0 0.0" style="vector-effect: non-scaling-stroke;fill:none;" /></g></g><g style="stroke: black;stroke-width: 2.4000000000000004;" transform="matrix(1.0, 0.0, 0.0, 1.0, 0.0, 0.0)"><path d="M 0.0 0.005311056971549988 L 1.0 0.005311056971549988 L 1.0 0.6617961525917053 L 2.0 0.6617961525917053 L 2.0 -0.029221951961517334 L 3.0 -0.029221951961517334 L 3.0 -0.5955145359039307 L 4.0 -0.5955145359039307 L 4.0 -0.28756967186927795 L 5.0 -0.28756967186927795 L 5.0 -1.1414746046066284 L 6.0 -1.1414746046066284 L 6.0 0.029801758006215096 L 7.0 0.029801758006215096 L 7.0 -0.5384460091590881 L 8.0 -0.5384460091590881 L 8.0 -0.7264551520347595 L 9.0 -0.7264551520347595 L 9.0 -0.7654497623443604 L 10.0 -0.7654497623443604 L 10.0 0.06270832568407059 L 11.0 0.06270832568407059 L 11.0 -1.5212970972061157 L 12.0 -1.5212970972061157 L 12.0 -0.8081479072570801 L 13.0 -0.8081479072570801 L 13.0 -1.4235832691192627 L 14.0 -1.4235832691192627 L 14.0 -0.31076791882514954 L 15.0 -0.31076791882514954 L 15.0 -0.3787614107131958 L 16.0 -0.3787614107131958 L 16.0 -1.1808154582977295 L 17.0 -1.1808154582977295 L 17.0 -0.852485179901123 L 18.0 -0.852485179901123 L 18.0 -1.745559573173523 L 19.0 -1.745559573173523 L 19.0 -0.6974199414253235 L 20.0 -0.6974199414253235 L 20.0 -0.5488577485084534 L 21.0 -0.5488577485084534 L 21.0 -0.821071445941925 L 22.0 -0.821071445941925 L 22.0 -0.8402944207191467 L 23.0 -0.8402944207191467 L 23.0 -0.12001878023147583 L 24.0 -0.12001878023147583 L 24.0 -1.3758478164672852 L 25.0 -1.3758478164672852 L 25.0 -0.7104760408401489 L 26.0 -0.7104760408401489 L 26.0 -0.8866549730300903 L 27.0 -0.8866549730300903 L 27.0 -0.5337659120559692 L 28.0 -0.5337659120559692 L 28.0 -1.97091805934906 L 29.0 -1.97091805934906 L 29.0 -1.27131187915802 L 30.0 -1.27131187915802 L 30.0 -1.3876806497573853 L 31.0 -1.3876806497573853 L 31.0 -1.7807198762893677 L 32.0 -1.7807198762893677 L 32.0 -0.7823610305786133 L 33.0 -0.7823610305786133 L 33.0 -1.4078423976898193 L 34.0 -1.4078423976898193 L 34.0 -1.8414782285690308 L 35.0 -1.8414782285690308 L 35.0 -0.1485409289598465 L 36.0 -0.1485409289598465 L 36.0 -1.0431902408599854 L 37.0 -1.0431902408599854 L 37.0 -0.09622325748205185 L 38.0 -0.09622325748205185 L 38.0 -0.26951152086257935 L 39.0 -0.26951152086257935 L 39.0 -1.3328336477279663 L 40.0 -1.3328336477279663 L 40.0 -0.8747767806053162 L 41.0 -0.8747767806053162 L 41.0 -1.4892016649246216 L 42.0 -1.4892016649246216 L 42.0 0.11869626492261887 L 43.0 0.11869626492261887 L 43.0 -1.2941701412200928 L 44.0 -1.2941701412200928 L 44.0 -0.487885057926178 L 45.0 -0.487885057926178 L 45.0 -1.3998547792434692 L 46.0 -1.3998547792434692 L 46.0 -0.6406936049461365 L 47.0 -0.6406936049461365 L 47.0 -1.6183596849441528 L 48.0 -1.6183596849441528 L 48.0 -1.5249296426773071 L 49.0 -1.5249296426773071 L 49.0 -0.435707688331604 L 50.0 -0.435707688331604" style="vector-effect: non-scaling-stroke;fill:none;" /></g></g></g></g></g></g></g></g><g style="stroke: black;stroke-width: 1.2000000000000002;" transform="matrix(0.0, -1.0, 1.0, 0.0, 0.0, 0.08)"><g /></g></g><g transform="matrix(1.0, 0.0, 0.0, 1.0, 0.0, 0.16)"><g transform="matrix(1.0, 0.0, 0.0, 1.0, -0.32499999999999996, -0.03)"><g transform="matrix(1.0, 0.0, 0.0, 1.0, 0.075, 0.0)"><g transform="matrix(1.0, 0.0, 0.0, 1.0, 0.0, 0.03)"><g transform="matrix(0.01, 0.0, 0.0, 0.01, 0.0, 0.0)"><g><g><g transform="matrix(1.0, 0.0, 0.0, 1.0, 25.0, 0.0)"><g transform="matrix(1.0, 0.0, 0.0, 1.0, -32.5, -0.0)"><g><g style="fill: #d3d3d3;stroke: black;stroke-width: 1.2000000000000002;" transform="matrix(1.0, 0.0, 0.0, 1.0, 0.0, -3.0)"><path d="M 0.0 0.0 L 65.0 0.0 L 65.0 6.0 L 0.0 6.0 L 0.0 0.0 Z" style="vector-effect: non-scaling-stroke;" /></g><g transform="matrix(1.0, 0.0, 0.0, 1.0, 1.875, 0.0)"><g><g style="stroke: black;stroke-width: 1.2000000000000002;" transform="matrix(1.0, 0.0, 0.0, 1.0, 0.0, 0.0)"><g /></g><g style="fill: #ffa500;stroke: black;stroke-width: 1.2000000000000002;" transform="matrix(1.0, 0.0, 0.0, 1.0, 1.875, 0.0)"><text style="text-align:center; text-anchor:middle; dominant-baseline:middle;&#10;                      font-family:sans-serif; font-weight: bold;&#10;                      font-size:3px;&#10;                      vector-effect: non-scaling-stroke;" transform="translate(-5e-05, 0)">f(x)</text></g></g></g></g></g></g><g><g><g><g style="stroke: black;stroke-width: 1.2000000000000002;" transform="matrix(1.0, 0.0, 0.0, 1.0, 0.0, 0.0)"><path d="M 0.0 -2.0 L 0.0 2.0" style="vector-effect: non-scaling-stroke;fill:none;" /></g><g style="stroke: #808080;stroke-width: 0.6000000000000001;" transform="matrix(1.0, 0.0, 0.0, 1.0, 0.0, 0.0)"><path d="M 0.0 0.0 L 50.0 0.0" style="vector-effect: non-scaling-stroke;fill:none;" /></g></g><g style="stroke: black;stroke-width: 2.4000000000000004;" transform="matrix(1.0, 0.0, 0.0, 1.0, 0.0, 0.0)"><path d="M 0.0 0.0005311056738719344 L 1.0 0.0005311056738719344 L 1.0 0.06671072542667389 L 2.0 0.06671072542667389 L 2.0 0.0637885257601738 L 3.0 0.0637885257601738 L 3.0 0.004237072076648474 L 4.0 0.004237072076648474 L 4.0 -0.024519892409443855 L 5.0 -0.024519892409443855 L 5.0 -0.13866737484931946 L 6.0 -0.13866737484931946 L 6.0 -0.1356871873140335 L 7.0 -0.1356871873140335 L 7.0 -0.18953180313110352 L 8.0 -0.18953180313110352 L 8.0 -0.26217731833457947 L 9.0 -0.26217731833457947 L 9.0 -0.338722288608551 L 10.0 -0.338722288608551 L 10.0 -0.3329825699329376 L 11.0 -0.3329825699329376 L 11.0 -0.5512918829917908 L 12.0 -0.5512918829917908 L 12.0 -0.6291844248771667 L 13.0 -0.6291844248771667 L 13.0 -0.7119913101196289 L 14.0 -0.7119913101196289 L 14.0 -0.7143111824989319 L 15.0 -0.7143111824989319 L 15.0 -0.6380398273468018 L 16.0 -0.6380398273468018 L 16.0 -0.7591015696525574 L 17.0 -0.7591015696525574 L 17.0 -0.7905054688453674 L 18.0 -0.7905054688453674 L 18.0 -0.8924160003662109 L 19.0 -0.8924160003662109 L 19.0 -0.885612964630127 L 20.0 -0.885612964630127 L 20.0 -0.9467695355415344 L 21.0 -0.9467695355415344 L 21.0 -0.8767469525337219 L 22.0 -0.8767469525337219 L 22.0 -0.8799616098403931 L 23.0 -0.8799616098403931 L 23.0 -0.7496051788330078 L 24.0 -0.7496051788330078 L 24.0 -0.8561131358146667 L 25.0 -0.8561131358146667 L 25.0 -0.889284610748291 L 26.0 -0.889284610748291 L 26.0 -0.8598686456680298 L 27.0 -0.8598686456680298 L 27.0 -0.8279967308044434 L 28.0 -0.8279967308044434 L 28.0 -0.8505325317382812 L 29.0 -0.8505325317382812 L 29.0 -0.9079216718673706 L 30.0 -0.9079216718673706 L 30.0 -0.9918040037155151 L 31.0 -0.9918040037155151 L 31.0 -1.0877689123153687 L 32.0 -1.0877689123153687 L 32.0 -1.0819754600524902 L 33.0 -1.0819754600524902 L 33.0 -1.210757851600647 L 34.0 -1.210757851600647 L 34.0 -1.257320761680603 L 35.0 -1.257320761680603 L 35.0 -1.201127290725708 L 36.0 -1.201127290725708 L 36.0 -1.2167809009552002 L 37.0 -1.2167809009552002 L 37.0 -1.17302668094635 L 38.0 -1.17302668094635 L 38.0 -1.0028860569000244 L 39.0 -1.0028860569000244 L 39.0 -1.0090382099151611 L 40.0 -1.0090382099151611 L 40.0 -0.957747757434845 L 41.0 -0.957747757434845 L 41.0 -0.9285959005355835 L 42.0 -0.9285959005355835 L 42.0 -0.8384903073310852 L 43.0 -0.8384903073310852 L 43.0 -0.8271230459213257 L 44.0 -0.8271230459213257 L 44.0 -0.6917637586593628 L 45.0 -0.6917637586593628 L 45.0 -0.8168951272964478 L 46.0 -0.8168951272964478 L 46.0 -0.7766454815864563 L 47.0 -0.7766454815864563 L 47.0 -0.9288589358329773 L 48.0 -0.9288589358329773 L 48.0 -1.0544008016586304 L 49.0 -1.0544008016586304 L 49.0 -0.9646883010864258 L 50.0 -0.9646883010864258" style="vector-effect: non-scaling-stroke;fill:none;" /></g></g></g></g><g><g><g><g style="stroke: black;stroke-width: 1.2000000000000002;" transform="matrix(1.0, 0.0, 0.0, 1.0, 0.0, 0.0)"><path d="M 0.0 -2.0 L 0.0 2.0" style="vector-effect: non-scaling-stroke;fill:none;" /></g><g style="stroke: #808080;stroke-width: 0.6000000000000001;" transform="matrix(1.0, 0.0, 0.0, 1.0, 0.0, 0.0)"><path d="M 0.0 0.0 L 50.0 0.0" style="vector-effect: non-scaling-stroke;fill:none;" /></g></g><g style="stroke: black;stroke-width: 2.4000000000000004;" transform="matrix(1.0, 0.0, 0.0, 1.0, 0.0, 0.0)"><path d="M 0.0 0.0005311056738719344 L 1.0 0.0005311056738719344 L 1.0 0.06671072542667389 L 2.0 0.06671072542667389 L 2.0 0.0637885257601738 L 3.0 0.0637885257601738 L 3.0 0.004237072076648474 L 4.0 0.004237072076648474 L 4.0 -0.024519892409443855 L 5.0 -0.024519892409443855 L 5.0 -0.13866737484931946 L 6.0 -0.13866737484931946 L 6.0 -0.1356871873140335 L 7.0 -0.1356871873140335 L 7.0 -0.18953180313110352 L 8.0 -0.18953180313110352 L 8.0 -0.26217731833457947 L 9.0 -0.26217731833457947 L 9.0 -0.338722288608551 L 10.0 -0.338722288608551 L 10.0 -0.3329825699329376 L 11.0 -0.3329825699329376 L 11.0 -0.5512918829917908 L 12.0 -0.5512918829917908 L 12.0 -0.6291844248771667 L 13.0 -0.6291844248771667 L 13.0 -0.7119913101196289 L 14.0 -0.7119913101196289 L 14.0 -0.7143111824989319 L 15.0 -0.7143111824989319 L 15.0 -0.6380398273468018 L 16.0 -0.6380398273468018 L 16.0 -0.7591015696525574 L 17.0 -0.7591015696525574 L 17.0 -0.7905054688453674 L 18.0 -0.7905054688453674 L 18.0 -0.8924160003662109 L 19.0 -0.8924160003662109 L 19.0 -0.885612964630127 L 20.0 -0.885612964630127 L 20.0 -0.9467695355415344 L 21.0 -0.9467695355415344 L 21.0 -0.8767469525337219 L 22.0 -0.8767469525337219 L 22.0 -0.8799616098403931 L 23.0 -0.8799616098403931 L 23.0 -0.7496051788330078 L 24.0 -0.7496051788330078 L 24.0 -0.8561131358146667 L 25.0 -0.8561131358146667 L 25.0 -0.889284610748291 L 26.0 -0.889284610748291 L 26.0 -0.8598686456680298 L 27.0 -0.8598686456680298 L 27.0 -0.8279967308044434 L 28.0 -0.8279967308044434 L 28.0 -0.8505325317382812 L 29.0 -0.8505325317382812 L 29.0 -0.9079216718673706 L 30.0 -0.9079216718673706 L 30.0 -0.9918040037155151 L 31.0 -0.9918040037155151 L 31.0 -1.0877689123153687 L 32.0 -1.0877689123153687 L 32.0 -1.0819754600524902 L 33.0 -1.0819754600524902 L 33.0 -1.210757851600647 L 34.0 -1.210757851600647 L 34.0 -1.257320761680603 L 35.0 -1.257320761680603 L 35.0 -1.201127290725708 L 36.0 -1.201127290725708 L 36.0 -1.2167809009552002 L 37.0 -1.2167809009552002 L 37.0 -1.17302668094635 L 38.0 -1.17302668094635 L 38.0 -1.0028860569000244 L 39.0 -1.0028860569000244 L 39.0 -1.0090382099151611 L 40.0 -1.0090382099151611 L 40.0 -0.957747757434845 L 41.0 -0.957747757434845 L 41.0 -0.9285959005355835 L 42.0 -0.9285959005355835 L 42.0 -0.8384903073310852 L 43.0 -0.8384903073310852 L 43.0 -0.8271230459213257 L 44.0 -0.8271230459213257 L 44.0 -0.6917637586593628 L 45.0 -0.6917637586593628 L 45.0 -0.8168951272964478 L 46.0 -0.8168951272964478 L 46.0 -0.7766454815864563 L 47.0 -0.7766454815864563 L 47.0 -0.9288589358329773 L 48.0 -0.9288589358329773 L 48.0 -1.0544008016586304 L 49.0 -1.0544008016586304 L 49.0 -0.9646883010864258 L 50.0 -0.9646883010864258" style="vector-effect: non-scaling-stroke;fill:none;" /></g></g></g></g></g></g></g></g></g></g><g transform="matrix(1.0, 0.0, 0.0, 1.0, -0.24999999999999994, 0.16)"><g transform="matrix(1.0, 0.0, 0.0, 0.009999999999999995, 0.0, 0.0)"><g transform="matrix(0.01, 0.0, 0.0, 1.0, 0.0, 0.0)"><g><g><g style="fill: #ff0000;stroke: #ff0000;stroke-width: 1.2000000000000002;fill-opacity: 0.5;" transform="matrix(1.0, 0.0, 0.0, 1.0, 0.0, 0.0)"><path d="M 0.0 -2.0 L 0.0 2.0" style="vector-effect: non-scaling-stroke;fill:none;" /></g><g style="fill: #ff0000;stroke: #ff0000;stroke-width: 1.2000000000000002;fill-opacity: 0.5;" transform="matrix(1.0, 0.0, 0.0, 1.0, 0.0, 0.0)"><path d="M 0.0 0.0005311056738719344 L 1.0 0.0005311056738719344 L 1.0 0.06671072542667389 L 2.0 0.06671072542667389 L 2.0 0.0637885257601738 L 3.0 0.0637885257601738 L 3.0 0.004237072076648474 L 4.0 0.004237072076648474 L 4.0 -0.024519892409443855 L 5.0 -0.024519892409443855 L 5.0 -0.13866737484931946 L 6.0 -0.13866737484931946 L 6.0 -0.1356871873140335 L 7.0 -0.1356871873140335 L 7.0 -0.18953180313110352 L 8.0 -0.18953180313110352 L 8.0 -0.26217731833457947 L 9.0 -0.26217731833457947 L 9.0 -0.338722288608551 L 10.0 -0.338722288608551 L 10.0 -0.3329825699329376 L 11.0 -0.3329825699329376 L 11.0 -0.5512918829917908 L 12.0 -0.5512918829917908 L 12.0 -0.6291844248771667 L 13.0 -0.6291844248771667 L 13.0 -0.7119913101196289 L 14.0 -0.7119913101196289 L 14.0 -0.7143111824989319 L 15.0 -0.7143111824989319 L 15.0 -0.6380398273468018 L 16.0 -0.6380398273468018 L 16.0 -0.7591015696525574 L 17.0 -0.7591015696525574 L 17.0 -0.7905054688453674 L 18.0 -0.7905054688453674 L 18.0 -0.8924160003662109 L 19.0 -0.8924160003662109 L 19.0 -0.885612964630127 L 20.0 -0.885612964630127 L 20.0 -0.9467695355415344 L 21.0 -0.9467695355415344 L 21.0 -0.8767469525337219 L 22.0 -0.8767469525337219 L 22.0 -0.8799616098403931 L 23.0 -0.8799616098403931 L 23.0 -0.7496051788330078 L 24.0 -0.7496051788330078 L 24.0 -0.8561131358146667 L 25.0 -0.8561131358146667 L 25.0 -0.889284610748291 L 26.0 -0.889284610748291 L 26.0 -0.8598686456680298 L 27.0 -0.8598686456680298 L 27.0 -0.8279967308044434 L 28.0 -0.8279967308044434 L 28.0 -0.8505325317382812 L 29.0 -0.8505325317382812 L 29.0 -0.9079216718673706 L 30.0 -0.9079216718673706 L 30.0 -0.9918040037155151 L 31.0 -0.9918040037155151 L 31.0 -1.0877689123153687 L 32.0 -1.0877689123153687 L 32.0 -1.0819754600524902 L 33.0 -1.0819754600524902 L 33.0 -1.210757851600647 L 34.0 -1.210757851600647 L 34.0 -1.257320761680603 L 35.0 -1.257320761680603 L 35.0 -1.201127290725708 L 36.0 -1.201127290725708 L 36.0 -1.2167809009552002 L 37.0 -1.2167809009552002 L 37.0 -1.17302668094635 L 38.0 -1.17302668094635 L 38.0 -1.0028860569000244 L 39.0 -1.0028860569000244 L 39.0 -1.0090382099151611 L 40.0 -1.0090382099151611 L 40.0 -0.957747757434845 L 41.0 -0.957747757434845 L 41.0 -0.9285959005355835 L 42.0 -0.9285959005355835 L 42.0 -0.8384903073310852 L 43.0 -0.8384903073310852 L 43.0 -0.8271230459213257 L 44.0 -0.8271230459213257 L 44.0 -0.6917637586593628 L 45.0 -0.6917637586593628 L 45.0 -0.8168951272964478 L 46.0 -0.8168951272964478 L 46.0 -0.7766454815864563 L 47.0 -0.7766454815864563 L 47.0 -0.9288589358329773 L 48.0 -0.9288589358329773 L 48.0 -1.0544008016586304 L 49.0 -1.0544008016586304 L 49.0 -0.9646883010864258 L 50.0 -0.9646883010864258 L 50.0 -0.9646883010864258 L 49.0 -0.9646883010864258 L 49.0 -1.0544008016586304 L 48.0 -1.0544008016586304 L 48.0 -0.9288589358329773 L 47.0 -0.9288589358329773 L 47.0 -0.7766454815864563 L 46.0 -0.7766454815864563 L 46.0 -0.8168951272964478 L 45.0 -0.8168951272964478 L 45.0 -0.6917637586593628 L 44.0 -0.6917637586593628 L 44.0 -0.8271230459213257 L 43.0 -0.8271230459213257 L 43.0 -0.8384903073310852 L 42.0 -0.8384903073310852 L 42.0 -0.9285959005355835 L 41.0 -0.9285959005355835 L 41.0 -0.957747757434845 L 40.0 -0.957747757434845 L 40.0 -1.0090382099151611 L 39.0 -1.0090382099151611 L 39.0 -1.0028860569000244 L 38.0 -1.0028860569000244 L 38.0 -1.17302668094635 L 37.0 -1.17302668094635 L 37.0 -1.2167809009552002 L 36.0 -1.2167809009552002 L 36.0 -1.201127290725708 L 35.0 -1.201127290725708 L 35.0 -1.257320761680603 L 34.0 -1.257320761680603 L 34.0 -1.210757851600647 L 33.0 -1.210757851600647 L 33.0 -1.0819754600524902 L 32.0 -1.0819754600524902 L 32.0 -1.0877689123153687 L 31.0 -1.0877689123153687 L 31.0 -0.9918040037155151 L 30.0 -0.9918040037155151 L 30.0 -0.9079216718673706 L 29.0 -0.9079216718673706 L 29.0 -0.8505325317382812 L 28.0 -0.8505325317382812 L 28.0 -0.8279967308044434 L 27.0 -0.8279967308044434 L 27.0 -0.8598686456680298 L 26.0 -0.8598686456680298 L 26.0 -0.889284610748291 L 25.0 -0.889284610748291 L 25.0 -0.8561131358146667 L 24.0 -0.8561131358146667 L 24.0 -0.7496051788330078 L 23.0 -0.7496051788330078 L 23.0 -0.8799616098403931 L 22.0 -0.8799616098403931 L 22.0 -0.8767469525337219 L 21.0 -0.8767469525337219 L 21.0 -0.9467695355415344 L 20.0 -0.9467695355415344 L 20.0 -0.885612964630127 L 19.0 -0.885612964630127 L 19.0 -0.8924160003662109 L 18.0 -0.8924160003662109 L 18.0 -0.7905054688453674 L 17.0 -0.7905054688453674 L 17.0 -0.7591015696525574 L 16.0 -0.7591015696525574 L 16.0 -0.6380398273468018 L 15.0 -0.6380398273468018 L 15.0 -0.7143111824989319 L 14.0 -0.7143111824989319 L 14.0 -0.7119913101196289 L 13.0 -0.7119913101196289 L 13.0 -0.6291844248771667 L 12.0 -0.6291844248771667 L 12.0 -0.5512918829917908 L 11.0 -0.5512918829917908 L 11.0 -0.3329825699329376 L 10.0 -0.3329825699329376 L 10.0 -0.338722288608551 L 9.0 -0.338722288608551 L 9.0 -0.26217731833457947 L 8.0 -0.26217731833457947 L 8.0 -0.18953180313110352 L 7.0 -0.18953180313110352 L 7.0 -0.1356871873140335 L 6.0 -0.1356871873140335 L 6.0 -0.13866737484931946 L 5.0 -0.13866737484931946 L 5.0 -0.024519892409443855 L 4.0 -0.024519892409443855 L 4.0 0.004237072076648474 L 3.0 0.004237072076648474 L 3.0 0.0637885257601738 L 2.0 0.0637885257601738 L 2.0 0.06671072542667389 L 1.0 0.06671072542667389 L 1.0 0.0005311056738719344 L 0.0 0.0005311056738719344 Z" style="vector-effect: non-scaling-stroke;" /></g></g><g style="stroke: black;stroke-width: 1.2000000000000002;" transform="matrix(1.0, 0.0, 0.0, 1.0, 0.0, 0.0)"><path d="M 0.0 0.0005311056738719344 L 1.0 0.0005311056738719344 L 1.0 0.06671072542667389 L 2.0 0.06671072542667389 L 2.0 0.0637885257601738 L 3.0 0.0637885257601738 L 3.0 0.004237072076648474 L 4.0 0.004237072076648474 L 4.0 -0.024519892409443855 L 5.0 -0.024519892409443855 L 5.0 -0.13866737484931946 L 6.0 -0.13866737484931946 L 6.0 -0.1356871873140335 L 7.0 -0.1356871873140335 L 7.0 -0.18953180313110352 L 8.0 -0.18953180313110352 L 8.0 -0.26217731833457947 L 9.0 -0.26217731833457947 L 9.0 -0.338722288608551 L 10.0 -0.338722288608551 L 10.0 -0.3329825699329376 L 11.0 -0.3329825699329376 L 11.0 -0.5512918829917908 L 12.0 -0.5512918829917908 L 12.0 -0.6291844248771667 L 13.0 -0.6291844248771667 L 13.0 -0.7119913101196289 L 14.0 -0.7119913101196289 L 14.0 -0.7143111824989319 L 15.0 -0.7143111824989319 L 15.0 -0.6380398273468018 L 16.0 -0.6380398273468018 L 16.0 -0.7591015696525574 L 17.0 -0.7591015696525574 L 17.0 -0.7905054688453674 L 18.0 -0.7905054688453674 L 18.0 -0.8924160003662109 L 19.0 -0.8924160003662109 L 19.0 -0.885612964630127 L 20.0 -0.885612964630127 L 20.0 -0.9467695355415344 L 21.0 -0.9467695355415344 L 21.0 -0.8767469525337219 L 22.0 -0.8767469525337219 L 22.0 -0.8799616098403931 L 23.0 -0.8799616098403931 L 23.0 -0.7496051788330078 L 24.0 -0.7496051788330078 L 24.0 -0.8561131358146667 L 25.0 -0.8561131358146667 L 25.0 -0.889284610748291 L 26.0 -0.889284610748291 L 26.0 -0.8598686456680298 L 27.0 -0.8598686456680298 L 27.0 -0.8279967308044434 L 28.0 -0.8279967308044434 L 28.0 -0.8505325317382812 L 29.0 -0.8505325317382812 L 29.0 -0.9079216718673706 L 30.0 -0.9079216718673706 L 30.0 -0.9918040037155151 L 31.0 -0.9918040037155151 L 31.0 -1.0877689123153687 L 32.0 -1.0877689123153687 L 32.0 -1.0819754600524902 L 33.0 -1.0819754600524902 L 33.0 -1.210757851600647 L 34.0 -1.210757851600647 L 34.0 -1.257320761680603 L 35.0 -1.257320761680603 L 35.0 -1.201127290725708 L 36.0 -1.201127290725708 L 36.0 -1.2167809009552002 L 37.0 -1.2167809009552002 L 37.0 -1.17302668094635 L 38.0 -1.17302668094635 L 38.0 -1.0028860569000244 L 39.0 -1.0028860569000244 L 39.0 -1.0090382099151611 L 40.0 -1.0090382099151611 L 40.0 -0.957747757434845 L 41.0 -0.957747757434845 L 41.0 -0.9285959005355835 L 42.0 -0.9285959005355835 L 42.0 -0.8384903073310852 L 43.0 -0.8384903073310852 L 43.0 -0.8271230459213257 L 44.0 -0.8271230459213257 L 44.0 -0.6917637586593628 L 45.0 -0.6917637586593628 L 45.0 -0.8168951272964478 L 46.0 -0.8168951272964478 L 46.0 -0.7766454815864563 L 47.0 -0.7766454815864563 L 47.0 -0.9288589358329773 L 48.0 -0.9288589358329773 L 48.0 -1.0544008016586304 L 49.0 -1.0544008016586304 L 49.0 -0.9646883010864258 L 50.0 -0.9646883010864258" style="vector-effect: non-scaling-stroke;fill:none;" /></g></g></g></g></g></g><g transform="matrix(1.0, 0.0, 0.0, 1.0, -0.24999999999999994, 0.16)"><g transform="matrix(1.0, 0.0, 0.0, 0.009999999999999995, 0.0, 0.0)"><g transform="matrix(0.01, 0.0, 0.0, 1.0, 0.0, 0.0)"><g><g><g style="fill: #ffffe0;stroke: #ffffe0;stroke-width: 1.2000000000000002;fill-opacity: 0.5;" transform="matrix(1.0, 0.0, 0.0, 1.0, 0.0, 0.0)"><path d="M 0.0 -2.0 L 0.0 2.0" style="vector-effect: non-scaling-stroke;fill:none;" /></g><g style="fill: #ffffe0;stroke: #ffffe0;stroke-width: 1.2000000000000002;fill-opacity: 0.5;" transform="matrix(1.0, 0.0, 0.0, 1.0, 0.0, 0.0)"><path d="M 0.0 -0.7994750142097473 L 1.0 -0.7994750142097473 L 1.0 -0.7349717617034912 L 2.0 -0.7349717617034912 L 2.0 -0.7378939390182495 L 3.0 -0.7378939390182495 L 3.0 -0.7957690358161926 L 4.0 -0.7957690358161926 L 4.0 -0.8239672183990479 L 5.0 -0.8239672183990479 L 5.0 -0.9314091205596924 L 6.0 -0.9314091205596924 L 6.0 -0.9284289479255676 L 7.0 -0.9284289479255676 L 7.0 -0.9882340431213379 L 8.0 -0.9882340431213379 L 8.0 -1.0608795881271362 L 9.0 -1.0608795881271362 L 9.0 -1.1374244689941406 L 10.0 -1.1374244689941406 L 10.0 -0.3329825699329376 L 11.0 -0.3329825699329376 L 11.0 -0.5512918829917908 L 12.0 -0.5512918829917908 L 12.0 -0.6291844248771667 L 13.0 -0.6291844248771667 L 13.0 -0.7119913101196289 L 14.0 -0.7119913101196289 L 14.0 -0.7143111824989319 L 15.0 -0.7143111824989319 L 15.0 -0.6380398273468018 L 16.0 -0.6380398273468018 L 16.0 -0.7591015696525574 L 17.0 -0.7591015696525574 L 17.0 -0.7905054688453674 L 18.0 -0.7905054688453674 L 18.0 -0.8924160003662109 L 19.0 -0.8924160003662109 L 19.0 -0.885612964630127 L 20.0 -0.885612964630127 L 20.0 -1.733550786972046 L 21.0 -1.733550786972046 L 21.0 -1.711211919784546 L 22.0 -1.711211919784546 L 22.0 -1.6667429208755493 L 23.0 -1.6667429208755493 L 23.0 -1.5602283477783203 L 24.0 -1.5602283477783203 L 24.0 -1.666736364364624 L 25.0 -1.666736364364624 L 25.0 -1.6999077796936035 L 26.0 -1.6999077796936035 L 26.0 -1.646649956703186 L 27.0 -1.646649956703186 L 27.0 -1.6386198997497559 L 28.0 -1.6386198997497559 L 28.0 -1.6611557006835938 L 29.0 -1.6611557006835938 L 29.0 -1.718544840812683 L 30.0 -1.718544840812683 L 30.0 -0.9918040037155151 L 31.0 -0.9918040037155151 L 31.0 -1.0877689123153687 L 32.0 -1.0877689123153687 L 32.0 -1.0819754600524902 L 33.0 -1.0819754600524902 L 33.0 -1.210757851600647 L 34.0 -1.210757851600647 L 34.0 -1.257320761680603 L 35.0 -1.257320761680603 L 35.0 -2.0 L 36.0 -2.0 L 36.0 -1.9797203540802002 L 37.0 -1.9797203540802002 L 37.0 -1.9836498498916626 L 38.0 -1.9836498498916626 L 38.0 -1.7658255100250244 L 39.0 -1.7658255100250244 L 39.0 -1.8196613788604736 L 40.0 -1.8196613788604736 L 40.0 -1.7445290088653564 L 41.0 -1.7445290088653564 L 41.0 -1.739219069480896 L 42.0 -1.739219069480896 L 42.0 -1.6252715587615967 L 43.0 -1.6252715587615967 L 43.0 -1.6377462148666382 L 44.0 -1.6377462148666382 L 44.0 -1.478545069694519 L 45.0 -1.478545069694519 L 45.0 -0.8168951272964478 L 46.0 -0.8168951272964478 L 46.0 -0.7766454815864563 L 47.0 -0.7766454815864563 L 47.0 -0.9288589358329773 L 48.0 -0.9288589358329773 L 48.0 -1.0544008016586304 L 49.0 -1.0544008016586304 L 49.0 -0.9646883010864258 L 50.0 -0.9646883010864258 L 50.0 -0.9646883010864258 L 49.0 -0.9646883010864258 L 49.0 -1.0544008016586304 L 48.0 -1.0544008016586304 L 48.0 -0.9288589358329773 L 47.0 -0.9288589358329773 L 47.0 -0.7766454815864563 L 46.0 -0.7766454815864563 L 46.0 -0.8168951272964478 L 45.0 -0.8168951272964478 L 45.0 -0.6917637586593628 L 44.0 -0.6917637586593628 L 44.0 -0.8271230459213257 L 43.0 -0.8271230459213257 L 43.0 -0.8384903073310852 L 42.0 -0.8384903073310852 L 42.0 -0.9285959005355835 L 41.0 -0.9285959005355835 L 41.0 -0.957747757434845 L 40.0 -0.957747757434845 L 40.0 -1.0090382099151611 L 39.0 -1.0090382099151611 L 39.0 -1.0028860569000244 L 38.0 -1.0028860569000244 L 38.0 -1.17302668094635 L 37.0 -1.17302668094635 L 37.0 -1.2167809009552002 L 36.0 -1.2167809009552002 L 36.0 -1.201127290725708 L 35.0 -1.201127290725708 L 35.0 -1.257320761680603 L 34.0 -1.257320761680603 L 34.0 -1.210757851600647 L 33.0 -1.210757851600647 L 33.0 -1.0819754600524902 L 32.0 -1.0819754600524902 L 32.0 -1.0877689123153687 L 31.0 -1.0877689123153687 L 31.0 -0.9918040037155151 L 30.0 -0.9918040037155151 L 30.0 -0.9079216718673706 L 29.0 -0.9079216718673706 L 29.0 -0.8505325317382812 L 28.0 -0.8505325317382812 L 28.0 -0.8279967308044434 L 27.0 -0.8279967308044434 L 27.0 -0.8598686456680298 L 26.0 -0.8598686456680298 L 26.0 -0.889284610748291 L 25.0 -0.889284610748291 L 25.0 -0.8561131358146667 L 24.0 -0.8561131358146667 L 24.0 -0.7496051788330078 L 23.0 -0.7496051788330078 L 23.0 -0.8799616098403931 L 22.0 -0.8799616098403931 L 22.0 -0.8767469525337219 L 21.0 -0.8767469525337219 L 21.0 -0.9467695355415344 L 20.0 -0.9467695355415344 L 20.0 -0.885612964630127 L 19.0 -0.885612964630127 L 19.0 -0.8924160003662109 L 18.0 -0.8924160003662109 L 18.0 -0.7905054688453674 L 17.0 -0.7905054688453674 L 17.0 -0.7591015696525574 L 16.0 -0.7591015696525574 L 16.0 -0.6380398273468018 L 15.0 -0.6380398273468018 L 15.0 -0.7143111824989319 L 14.0 -0.7143111824989319 L 14.0 -0.7119913101196289 L 13.0 -0.7119913101196289 L 13.0 -0.6291844248771667 L 12.0 -0.6291844248771667 L 12.0 -0.5512918829917908 L 11.0 -0.5512918829917908 L 11.0 -0.3329825699329376 L 10.0 -0.3329825699329376 L 10.0 -0.338722288608551 L 9.0 -0.338722288608551 L 9.0 -0.26217731833457947 L 8.0 -0.26217731833457947 L 8.0 -0.18953180313110352 L 7.0 -0.18953180313110352 L 7.0 -0.1356871873140335 L 6.0 -0.1356871873140335 L 6.0 -0.13866737484931946 L 5.0 -0.13866737484931946 L 5.0 -0.024519892409443855 L 4.0 -0.024519892409443855 L 4.0 0.004237072076648474 L 3.0 0.004237072076648474 L 3.0 0.0637885257601738 L 2.0 0.0637885257601738 L 2.0 0.06671072542667389 L 1.0 0.06671072542667389 L 1.0 0.0005311056738719344 L 0.0 0.0005311056738719344 Z" style="vector-effect: non-scaling-stroke;" /></g></g><g style="stroke: black;stroke-width: 1.2000000000000002;" transform="matrix(1.0, 0.0, 0.0, 1.0, 0.0, 0.0)"><path d="M 0.0 0.0005311056738719344 L 1.0 0.0005311056738719344 L 1.0 0.06671072542667389 L 2.0 0.06671072542667389 L 2.0 0.0637885257601738 L 3.0 0.0637885257601738 L 3.0 0.004237072076648474 L 4.0 0.004237072076648474 L 4.0 -0.024519892409443855 L 5.0 -0.024519892409443855 L 5.0 -0.13866737484931946 L 6.0 -0.13866737484931946 L 6.0 -0.1356871873140335 L 7.0 -0.1356871873140335 L 7.0 -0.18953180313110352 L 8.0 -0.18953180313110352 L 8.0 -0.26217731833457947 L 9.0 -0.26217731833457947 L 9.0 -0.338722288608551 L 10.0 -0.338722288608551 L 10.0 -0.3329825699329376 L 11.0 -0.3329825699329376 L 11.0 -0.5512918829917908 L 12.0 -0.5512918829917908 L 12.0 -0.6291844248771667 L 13.0 -0.6291844248771667 L 13.0 -0.7119913101196289 L 14.0 -0.7119913101196289 L 14.0 -0.7143111824989319 L 15.0 -0.7143111824989319 L 15.0 -0.6380398273468018 L 16.0 -0.6380398273468018 L 16.0 -0.7591015696525574 L 17.0 -0.7591015696525574 L 17.0 -0.7905054688453674 L 18.0 -0.7905054688453674 L 18.0 -0.8924160003662109 L 19.0 -0.8924160003662109 L 19.0 -0.885612964630127 L 20.0 -0.885612964630127 L 20.0 -0.9467695355415344 L 21.0 -0.9467695355415344 L 21.0 -0.8767469525337219 L 22.0 -0.8767469525337219 L 22.0 -0.8799616098403931 L 23.0 -0.8799616098403931 L 23.0 -0.7496051788330078 L 24.0 -0.7496051788330078 L 24.0 -0.8561131358146667 L 25.0 -0.8561131358146667 L 25.0 -0.889284610748291 L 26.0 -0.889284610748291 L 26.0 -0.8598686456680298 L 27.0 -0.8598686456680298 L 27.0 -0.8279967308044434 L 28.0 -0.8279967308044434 L 28.0 -0.8505325317382812 L 29.0 -0.8505325317382812 L 29.0 -0.9079216718673706 L 30.0 -0.9079216718673706 L 30.0 -0.9918040037155151 L 31.0 -0.9918040037155151 L 31.0 -1.0877689123153687 L 32.0 -1.0877689123153687 L 32.0 -1.0819754600524902 L 33.0 -1.0819754600524902 L 33.0 -1.210757851600647 L 34.0 -1.210757851600647 L 34.0 -1.257320761680603 L 35.0 -1.257320761680603 L 35.0 -1.201127290725708 L 36.0 -1.201127290725708 L 36.0 -1.2167809009552002 L 37.0 -1.2167809009552002 L 37.0 -1.17302668094635 L 38.0 -1.17302668094635 L 38.0 -1.0028860569000244 L 39.0 -1.0028860569000244 L 39.0 -1.0090382099151611 L 40.0 -1.0090382099151611 L 40.0 -0.957747757434845 L 41.0 -0.957747757434845 L 41.0 -0.9285959005355835 L 42.0 -0.9285959005355835 L 42.0 -0.8384903073310852 L 43.0 -0.8384903073310852 L 43.0 -0.8271230459213257 L 44.0 -0.8271230459213257 L 44.0 -0.6917637586593628 L 45.0 -0.6917637586593628 L 45.0 -0.8168951272964478 L 46.0 -0.8168951272964478 L 46.0 -0.7766454815864563 L 47.0 -0.7766454815864563 L 47.0 -0.9288589358329773 L 48.0 -0.9288589358329773 L 48.0 -1.0544008016586304 L 49.0 -1.0544008016586304 L 49.0 -0.9646883010864258 L 50.0 -0.9646883010864258" style="vector-effect: non-scaling-stroke;fill:none;" /></g></g></g></g></g></g></g></g><g /></g></g></g></g></svg>