<?xml version="1.0" encoding="utf-8" ?>
<svg baseProfile="full" height="300" version="1.1" width="1119" xmlns="http://www.w3.org/2000/svg" xmlns:ev="http://www.w3.org/2001/xml-events" xmlns:xlink="http://www.w3.org/1999/xlink"><defs><marker id="arrow" markerHeight="3.5" markerWidth="5" orient="auto" refX="5.0" refY="1.7"><polygon points="0,0 5,1.75 0,3.5" /></marker></defs><g style="fill:white;"><g transform="matrix(1.0, 0.0, 0.0, 1.0, 559.7086788445444, 150.0)"><g transform="matrix(1055.5562071561421, 0.0, 0.0, 1055.5562071561421, 0.0, 0.0)"><g><g transform="matrix(1.0, 0.0, 0.0, 1.0, -0.0, -0.08000000000000002)"><g><g><g style="fill: #ffffff;stroke: black;stroke-width: 1.2000000000000002;" transform="matrix(1.0, 0.0, 0.0, 1.0, -0.505, -0.055338262319564804)"><path d="M 0.0 0.0 L 1.01 0.0 L 1.01 0.2706765246391296 L 0.0 0.2706765246391296 L 0.0 0.0 Z" style="vector-effect: non-scaling-stroke;" /></g><g><g><g><g><g><g><g><g transform="matrix(1.0, 0.0, 0.0, 1.0, -0.45499999999999996, -0.03278188526630402)"><g><g><g transform="matrix(1.0, 0.0, 0.0, 1.0, 0.075, 0.0)"><g transform="matrix(1.0, 0.0, 0.0, 1.0, 0.0, 0.03463647544384003)"><g transform="matrix(0.01, 0.0, 0.0, 0.01, 0.0, 0.0)"><g><g><g transform="matrix(1.0, 0.0, 0.0, 1.0, 24.5, -0.18545901775360107)"><g transform="matrix(1.0, 0.0, 0.0, 1.0, -32.0, -0.0)"><g><g style="fill: #d3d3d3;stroke: black;stroke-width: 1.2000000000000002;" transform="matrix(1.0, 0.0, 0.0, 1.0, 0.0, -3.2781885266304016)"><path d="M 0.0 0.0 L 64.0 0.0 L 64.0 6.556377053260803 L 0.0 6.556377053260803 L 0.0 0.0 Z" style="vector-effect: non-scaling-stroke;" /></g><g transform="matrix(1.0, 0.0, 0.0, 1.0, 1.875, 0.0)"><g><g style="stroke: black;stroke-width: 1.2000000000000002;" transform="matrix(1.0, 0.0, 0.0, 1.0, 0.0, 0.0)"><g /></g><g style="fill: #ffa500;stroke: black;stroke-width: 1.2000000000000002;" transform="matrix(1.0, 0.0, 0.0, 1.0, 1.875, 0.0)"><text style="text-align:center; text-anchor:middle; dominant-baseline:middle;&#10;                      font-family:sans-serif; font-weight: bold;&#10;                      font-size:3px;&#10;                      vector-effect: non-scaling-stroke;" transform="translate(-5e-05, 0)">x</text></g></g></g></g></g></g><g><g><g><g><g><g><g><g><g><g><g style="stroke: black;stroke-width: 1.2000000000000002;" transform="matrix(1.0, 0.0, 0.0, 1.0, 0.0, 0.0)"><path d="M 0.0 -2.0 L 0.0 2.0" style="vector-effect: non-scaling-stroke;fill:none;" /></g><g style="stroke: #808080;stroke-width: 0.6000000000000001;" transform="matrix(1.0, 0.0, 0.0, 1.0, 0.0, 0.0)"><path d="M 0.0 0.0 L 49.0 0.0" style="vector-effect: non-scaling-stroke;fill:none;" /></g></g><g style="stroke: black;stroke-width: 2.4000000000000004;" transform="matrix(1.0, 0.0, 0.0, 1.0, 0.0, 0.0)"><path d="M 0.0 -0.40531104803085327 L 1.0 -0.40531104803085327 L 1.0 -1.0617961883544922 L 2.0 -1.0617961883544922 L 2.0 -0.4292219579219818 L 3.0 -0.4292219579219818 L 3.0 -0.9955145120620728 L 4.0 -0.9955145120620728 L 4.0 -0.6875696778297424 L 5.0 -0.6875696778297424 L 5.0 -1.5414745807647705 L 6.0 -1.5414745807647705 L 6.0 -0.4298017621040344 L 7.0 -0.4298017621040344 L 7.0 -0.938446044921875 L 8.0 -0.938446044921875 L 8.0 -1.1264551877975464 L 9.0 -1.1264551877975464 L 9.0 -1.1654497385025024 L 10.0 -1.1654497385025024 L 10.0 -0.46270832419395447 L 11.0 -0.46270832419395447 L 11.0 -1.9212970733642578 L 12.0 -1.9212970733642578 L 12.0 -1.2081478834152222 L 13.0 -1.2081478834152222 L 13.0 -1.8235832452774048 L 14.0 -1.8235832452774048 L 14.0 -0.710767924785614 L 15.0 -0.710767924785614 L 15.0 -0.7787613868713379 L 16.0 -0.7787613868713379 L 16.0 -1.5808154344558716 L 17.0 -1.5808154344558716 L 17.0 -1.2524851560592651 L 18.0 -1.2524851560592651 L 18.0 -2.145559549331665 L 19.0 -2.145559549331665 L 19.0 -1.0974199771881104 L 20.0 -1.0974199771881104 L 20.0 -0.9488577842712402 L 21.0 -0.9488577842712402 L 21.0 -1.221071481704712 L 22.0 -1.221071481704712 L 22.0 -1.2402944564819336 L 23.0 -1.2402944564819336 L 23.0 -0.5200188159942627 L 24.0 -0.5200188159942627 L 24.0 -1.7758477926254272 L 25.0 -1.7758477926254272 L 25.0 -1.110476016998291 L 26.0 -1.110476016998291 L 26.0 -1.2866549491882324 L 27.0 -1.2866549491882324 L 27.0 -0.9337658882141113 L 28.0 -0.9337658882141113 L 28.0 -2.370918035507202 L 29.0 -2.370918035507202 L 29.0 -1.671311855316162 L 30.0 -1.671311855316162 L 30.0 -1.7876806259155273 L 31.0 -1.7876806259155273 L 31.0 -2.1807198524475098 L 32.0 -2.1807198524475098 L 32.0 -1.1823610067367554 L 33.0 -1.1823610067367554 L 33.0 -1.8078423738479614 L 34.0 -1.8078423738479614 L 34.0 -2.241478204727173 L 35.0 -2.241478204727173 L 35.0 -0.5485409498214722 L 36.0 -0.5485409498214722 L 36.0 -1.4431902170181274 L 37.0 -1.4431902170181274 L 37.0 -0.4962232708930969 L 38.0 -0.4962232708930969 L 38.0 -0.6695115566253662 L 39.0 -0.6695115566253662 L 39.0 -1.7328336238861084 L 40.0 -1.7328336238861084 L 40.0 -1.274776816368103 L 41.0 -1.274776816368103 L 41.0 -1.8892016410827637 L 42.0 -1.8892016410827637 L 42.0 -0.5186962485313416 L 43.0 -0.5186962485313416 L 43.0 -1.6941701173782349 L 44.0 -1.6941701173782349 L 44.0 -0.8878850936889648 L 45.0 -0.8878850936889648 L 45.0 -1.7998547554016113 L 46.0 -1.7998547554016113 L 46.0 -1.0406936407089233 L 47.0 -1.0406936407089233 L 47.0 -2.018359661102295 L 48.0 -2.018359661102295 L 48.0 -1.9249296188354492 L 49.0 -1.9249296188354492" style="vector-effect: non-scaling-stroke;fill:none;" /></g></g><g style="stroke: black;stroke-width: 1.2000000000000002;" transform="matrix(1.0, 0.0, 0.0, 1.0, 0.0, 0.0)"><path d="M 0.0 -2.0 L 0.0 2.0" style="vector-effect: non-scaling-stroke;fill:none;" /></g></g><g style="stroke: black;stroke-width: 1.2000000000000002;" transform="matrix(1.0, 0.0, 0.0, 1.0, 0.0, 0.0)"><path d="M 7.0 -2.0 L 7.0 2.0" style="vector-effect: non-scaling-stroke;fill:none;" /></g></g><g style="stroke: black;stroke-width: 1.2000000000000002;" transform="matrix(1.0, 0.0, 0.0, 1.0, 0.0, 0.0)"><path d="M 14.0 -2.0 L 14.0 2.0" style="vector-effect: non-scaling-stroke;fill:none;" /></g></g><g style="stroke: black;stroke-width: 1.2000000000000002;" transform="matrix(1.0, 0.0, 0.0, 1.0, 0.0, 0.0)"><path d="M 21.0 -2.0 L 21.0 2.0" style="vector-effect: non-scaling-stroke;fill:none;" /></g></g><g style="stroke: black;stroke-width: 1.2000000000000002;" transform="matrix(1.0, 0.0, 0.0, 1.0, 0.0, 0.0)"><path d="M 28.0 -2.0 L 28.0 2.0" style="vector-effect: non-scaling-stroke;fill:none;" /></g></g><g style="stroke: black;stroke-width: 1.2000000000000002;" transform="matrix(1.0, 0.0, 0.0, 1.0, 0.0, 0.0)"><path d="M 35.0 -2.0 L 35.0 2.0" style="vector-effect: non-scaling-stroke;fill:none;" /></g></g><g style="stroke: black;stroke-width: 1.2000000000000002;" transform="matrix(1.0, 0.0, 0.0, 1.0, 0.0, 0.0)"><path d="M 42.0 -2.0 L 42.0 2.0" style="vector-effect: non-scaling-stroke;fill:none;" /></g></g></g></g><g><g><g><g><g><g><g><g><g><g><g style="stroke: black;stroke-width: 1.2000000000000002;" transform="matrix(1.0, 0.0, 0.0, 1.0, 0.0, 0.0)"><path d="M 0.0 -2.0 L 0.0 2.0" style="vector-effect: non-scaling-stroke;fill:none;" /></g><g style="stroke: #808080;stroke-width: 0.6000000000000001;" transform="matrix(1.0, 0.0, 0.0, 1.0, 0.0, 0.0)"><path d="M 0.0 0.0 L 49.0 0.0" style="vector-effect: non-scaling-stroke;fill:none;" /></g></g><g style="stroke: black;stroke-width: 2.4000000000000004;" transform="matrix(1.0, 0.0, 0.0, 1.0, 0.0, 0.0)"><path d="M 0.0 -0.40531104803085327 L 1.0 -0.40531104803085327 L 1.0 -1.0617961883544922 L 2.0 -1.0617961883544922 L 2.0 -0.4292219579219818 L 3.0 -0.4292219579219818 L 3.0 -0.9955145120620728 L 4.0 -0.9955145120620728 L 4.0 -0.6875696778297424 L 5.0 -0.6875696778297424 L 5.0 -1.5414745807647705 L 6.0 -1.5414745807647705 L 6.0 -0.4298017621040344 L 7.0 -0.4298017621040344 L 7.0 -0.938446044921875 L 8.0 -0.938446044921875 L 8.0 -1.1264551877975464 L 9.0 -1.1264551877975464 L 9.0 -1.1654497385025024 L 10.0 -1.1654497385025024 L 10.0 -0.46270832419395447 L 11.0 -0.46270832419395447 L 11.0 -1.9212970733642578 L 12.0 -1.9212970733642578 L 12.0 -1.2081478834152222 L 13.0 -1.2081478834152222 L 13.0 -1.8235832452774048 L 14.0 -1.8235832452774048 L 14.0 -0.710767924785614 L 15.0 -0.710767924785614 L 15.0 -0.7787613868713379 L 16.0 -0.7787613868713379 L 16.0 -1.5808154344558716 L 17.0 -1.5808154344558716 L 17.0 -1.2524851560592651 L 18.0 -1.2524851560592651 L 18.0 -2.145559549331665 L 19.0 -2.145559549331665 L 19.0 -1.0974199771881104 L 20.0 -1.0974199771881104 L 20.0 -0.9488577842712402 L 21.0 -0.9488577842712402 L 21.0 -1.221071481704712 L 22.0 -1.221071481704712 L 22.0 -1.2402944564819336 L 23.0 -1.2402944564819336 L 23.0 -0.5200188159942627 L 24.0 -0.5200188159942627 L 24.0 -1.7758477926254272 L 25.0 -1.7758477926254272 L 25.0 -1.110476016998291 L 26.0 -1.110476016998291 L 26.0 -1.2866549491882324 L 27.0 -1.2866549491882324 L 27.0 -0.9337658882141113 L 28.0 -0.9337658882141113 L 28.0 -2.370918035507202 L 29.0 -2.370918035507202 L 29.0 -1.671311855316162 L 30.0 -1.671311855316162 L 30.0 -1.7876806259155273 L 31.0 -1.7876806259155273 L 31.0 -2.1807198524475098 L 32.0 -2.1807198524475098 L 32.0 -1.1823610067367554 L 33.0 -1.1823610067367554 L 33.0 -1.8078423738479614 L 34.0 -1.8078423738479614 L 34.0 -2.241478204727173 L 35.0 -2.241478204727173 L 35.0 -0.5485409498214722 L 36.0 -0.5485409498214722 L 36.0 -1.4431902170181274 L 37.0 -1.4431902170181274 L 37.0 -0.4962232708930969 L 38.0 -0.4962232708930969 L 38.0 -0.6695115566253662 L 39.0 -0.6695115566253662 L 39.0 -1.7328336238861084 L 40.0 -1.7328336238861084 L 40.0 -1.274776816368103 L 41.0 -1.274776816368103 L 41.0 -1.8892016410827637 L 42.0 -1.8892016410827637 L 42.0 -0.5186962485313416 L 43.0 -0.5186962485313416 L 43.0 -1.6941701173782349 L 44.0 -1.6941701173782349 L 44.0 -0.8878850936889648 L 45.0 -0.8878850936889648 L 45.0 -1.7998547554016113 L 46.0 -1.7998547554016113 L 46.0 -1.0406936407089233 L 47.0 -1.0406936407089233 L 47.0 -2.018359661102295 L 48.0 -2.018359661102295 L 48.0 -1.9249296188354492 L 49.0 -1.9249296188354492" style="vector-effect: non-scaling-stroke;fill:none;" /></g></g><g style="stroke: black;stroke-width: 1.2000000000000002;" transform="matrix(1.0, 0.0, 0.0, 1.0, 0.0, 0.0)"><path d="M 0.0 -2.0 L 0.0 2.0" style="vector-effect: non-scaling-stroke;fill:none;" /></g></g><g style="stroke: black;stroke-width: 1.2000000000000002;" transform="matrix(1.0, 0.0, 0.0, 1.0, 0.0, 0.0)"><path d="M 7.0 -2.0 L 7.0 2.0" style="vector-effect: non-scaling-stroke;fill:none;" /></g></g><g style="stroke: black;stroke-width: 1.2000000000000002;" transform="matrix(1.0, 0.0, 0.0, 1.0, 0.0, 0.0)"><path d="M 14.0 -2.0 L 14.0 2.0" style="vector-effect: non-scaling-stroke;fill:none;" /></g></g><g style="stroke: black;stroke-width: 1.2000000000000002;" transform="matrix(1.0, 0.0, 0.0, 1.0, 0.0, 0.0)"><path d="M 21.0 -2.0 L 21.0 2.0" style="vector-effect: non-scaling-stroke;fill:none;" /></g></g><g style="stroke: black;stroke-width: 1.2000000000000002;" transform="matrix(1.0, 0.0, 0.0, 1.0, 0.0, 0.0)"><path d="M 28.0 -2.0 L 28.0 2.0" style="vector-effect: non-scaling-stroke;fill:none;" /></g></g><g style="stroke: black;stroke-width: 1.2000000000000002;" transform="matrix(1.0, 0.0, 0.0, 1.0, 0.0, 0.0)"><path d="M 35.0 -2.0 L 35.0 2.0" style="vector-effect: non-scaling-stroke;fill:none;" /></g></g><g style="stroke: black;stroke-width: 1.2000000000000002;" transform="matrix(1.0, 0.0, 0.0, 1.0, 0.0, 0.0)"><path d="M 42.0 -2.0 L 42.0 2.0" style="vector-effect: non-scaling-stroke;fill:none;" /></g></g></g></g></g></g></g><g style="stroke: black;stroke-width: 1.2000000000000002;" transform="matrix(1.0, 0.0, 0.0, 1.0, 0.6549999999999999, 0.0)"><g /></g></g><g transform="matrix(1.0, 0.0, 0.0, 1.0, 0.6699999999999999, 0.0)"><g transform="matrix(1.0, 0.0, 0.0, 1.0, 0.075, 0.0)"><g transform="matrix(1.0, 0.0, 0.0, 1.0, 0.0, 0.03)"><g transform="matrix(0.01, 0.0, 0.0, 0.01, 0.0, 0.0)"><g><g><g transform="matrix(1.0, 0.0, 0.0, 1.0, 4.5, 0.0)"><g transform="matrix(1.0, 0.0, 0.0, 1.0, -12.0, -0.0)"><g><g style="fill: #d3d3d3;stroke: black;stroke-width: 1.2000000000000002;" transform="matrix(1.0, 0.0, 0.0, 1.0, 0.0, -3.0)"><path d="M 0.0 0.0 L 24.0 0.0 L 24.0 6.0 L 0.0 6.0 L 0.0 0.0 Z" style="vector-effect: non-scaling-stroke;" /></g><g transform="matrix(1.0, 0.0, 0.0, 1.0, 1.875, 0.0)"><g><g style="stroke: black;stroke-width: 1.2000000000000002;" transform="matrix(1.0, 0.0, 0.0, 1.0, 0.0, 0.0)"><g /></g><g style="fill: #ffa500;stroke: black;stroke-width: 1.2000000000000002;" transform="matrix(1.0, 0.0, 0.0, 1.0, 1.875, 0.0)"><text style="text-align:center; text-anchor:middle; dominant-baseline:middle;&#10;                      font-family:sans-serif; font-weight: bold;&#10;                      font-size:3px;&#10;                      vector-effect: non-scaling-stroke;" transform="translate(-5e-05, 0)">y</text></g></g></g></g></g></g><g><g><g><g style="stroke: black;stroke-width: 1.2000000000000002;" transform="matrix(1.0, 0.0, 0.0, 1.0, 0.0, 0.0)"><path d="M 0.0 -2.0 L 0.0 2.0" style="vector-effect: non-scaling-stroke;fill:none;" /></g><g style="stroke: #808080;stroke-width: 0.6000000000000001;" transform="matrix(1.0, 0.0, 0.0, 1.0, 0.0, 0.0)"><path d="M 0.0 0.0 L 9.0 0.0" style="vector-effect: non-scaling-stroke;fill:none;" /></g></g><g style="stroke: black;stroke-width: 2.4000000000000004;" transform="matrix(1.0, 0.0, 0.0, 1.0, 0.0, 0.0)"><path d="M 0.0 -0.8357076644897461 L 1.0 -0.8357076644897461 L 1.0 -0.40531104803085327 L 2.0 -0.40531104803085327 L 2.0 -1.0617961883544922 L 3.0 -1.0617961883544922 L 3.0 -0.4292219579219818 L 4.0 -0.4292219579219818 L 4.0 -0.9955145120620728 L 5.0 -0.9955145120620728 L 5.0 -0.6875696778297424 L 6.0 -0.6875696778297424 L 6.0 -1.5414745807647705 L 7.0 -1.5414745807647705 L 7.0 -0.4298017621040344 L 8.0 -0.4298017621040344 L 8.0 -0.938446044921875 L 9.0 -0.938446044921875" style="vector-effect: non-scaling-stroke;fill:none;" /></g></g></g></g><g><g><g><g style="stroke: black;stroke-width: 1.2000000000000002;" transform="matrix(1.0, 0.0, 0.0, 1.0, 0.0, 0.0)"><path d="M 0.0 -2.0 L 0.0 2.0" style="vector-effect: non-scaling-stroke;fill:none;" /></g><g style="stroke: #808080;stroke-width: 0.6000000000000001;" transform="matrix(1.0, 0.0, 0.0, 1.0, 0.0, 0.0)"><path d="M 0.0 0.0 L 9.0 0.0" style="vector-effect: non-scaling-stroke;fill:none;" /></g></g><g style="stroke: black;stroke-width: 2.4000000000000004;" transform="matrix(1.0, 0.0, 0.0, 1.0, 0.0, 0.0)"><path d="M 0.0 -0.8357076644897461 L 1.0 -0.8357076644897461 L 1.0 -0.40531104803085327 L 2.0 -0.40531104803085327 L 2.0 -1.0617961883544922 L 3.0 -1.0617961883544922 L 3.0 -0.4292219579219818 L 4.0 -0.4292219579219818 L 4.0 -0.9955145120620728 L 5.0 -0.9955145120620728 L 5.0 -0.6875696778297424 L 6.0 -0.6875696778297424 L 6.0 -1.5414745807647705 L 7.0 -1.5414745807647705 L 7.0 -0.4298017621040344 L 8.0 -0.4298017621040344 L 8.0 -0.938446044921875 L 9.0 -0.938446044921875" style="vector-effect: non-scaling-stroke;fill:none;" /></g></g></g></g></g></g></g></g></g></g><g style="stroke: black;stroke-width: 1.2000000000000002;" transform="matrix(0.0, -1.0, 1.0, 0.0, 0.0, 0.08278188526630402)"><g /></g></g><g transform="matrix(1.0, 0.0, 0.0, 1.0, 0.0, 0.16278188526630402)"><g transform="matrix(1.0, 0.0, 0.0, 1.0, -0.2, -0.03)"><g transform="matrix(1.0, 0.0, 0.0, 1.0, 0.075, 0.0)"><g transform="matrix(1.0, 0.0, 0.0, 1.0, 0.0, 0.03)"><g transform="matrix(0.01, 0.0, 0.0, 0.01, 0.0, 0.0)"><g><g><g transform="matrix(1.0, 0.0, 0.0, 1.0, 12.5, 0.0)"><g transform="matrix(1.0, 0.0, 0.0, 1.0, -20.0, -0.0)"><g><g style="fill: #d3d3d3;stroke: black;stroke-width: 1.2000000000000002;" transform="matrix(1.0, 0.0, 0.0, 1.0, 0.0, -3.0)"><path d="M 0.0 0.0 L 40.0 0.0 L 40.0 6.0 L 0.0 6.0 L 0.0 0.0 Z" style="vector-effect: non-scaling-stroke;" /></g><g transform="matrix(1.0, 0.0, 0.0, 1.0, 1.875, 0.0)"><g><g style="stroke: black;stroke-width: 1.2000000000000002;" transform="matrix(1.0, 0.0, 0.0, 1.0, 0.0, 0.0)"><g /></g><g style="fill: #ffa500;stroke: black;stroke-width: 1.2000000000000002;" transform="matrix(1.0, 0.0, 0.0, 1.0, 1.875, 0.0)"><text style="text-align:center; text-anchor:middle; dominant-baseline:middle;&#10;                      font-family:sans-serif; font-weight: bold;&#10;                      font-size:3px;&#10;                      vector-effect: non-scaling-stroke;" transform="translate(-5e-05, 0)">f(x)</text></g></g></g></g></g></g><g><g><g><g style="stroke: black;stroke-width: 1.2000000000000002;" transform="matrix(1.0, 0.0, 0.0, 1.0, 0.0, 0.0)"><path d="M 0.0 -2.0 L 0.0 2.0" style="vector-effect: non-scaling-stroke;fill:none;" /></g><g style="stroke: #808080;stroke-width: 0.6000000000000001;" transform="matrix(1.0, 0.0, 0.0, 1.0, 0.0, 0.0)"><path d="M 0.0 0.0 L 25.0 0.0" style="vector-effect: non-scaling-stroke;fill:none;" /></g></g><g style="stroke: black;stroke-width: 2.4000000000000004;" transform="matrix(1.0, 0.0, 0.0, 1.0, 0.0, 0.0)"><path d="M 0.0 -0.3591228425502777 L 1.0 -0.3591228425502777 L 1.0 -0.39641591906547546 L 2.0 -0.39641591906547546 L 2.0 -0.48681947588920593 L 3.0 -0.48681947588920593 L 3.0 -0.531780481338501 L 4.0 -0.531780481338501 L 4.0 -0.5336904525756836 L 5.0 -0.5336904525756836 L 5.0 -0.41938379406929016 L 6.0 -0.41938379406929016 L 6.0 -0.47089672088623047 L 7.0 -0.47089672088623047 L 7.0 -0.511618435382843 L 8.0 -0.511618435382843 L 8.0 -0.5721369981765747 L 9.0 -0.5721369981765747 L 9.0 -0.5465824007987976 L 10.0 -0.5465824007987976 L 10.0 -0.597511887550354 L 11.0 -0.597511887550354 L 11.0 -0.5713116526603699 L 12.0 -0.5713116526603699 L 12.0 -0.6480017304420471 L 13.0 -0.6480017304420471 L 13.0 -0.6333459615707397 L 14.0 -0.6333459615707397 L 14.0 -0.574889063835144 L 15.0 -0.574889063835144 L 15.0 -0.43985915184020996 L 16.0 -0.43985915184020996 L 16.0 -0.566417932510376 L 17.0 -0.566417932510376 L 17.0 -0.4868612587451935 L 18.0 -0.4868612587451935 L 18.0 -0.5349750518798828 L 19.0 -0.5349750518798828 L 19.0 -0.6267406940460205 L 20.0 -0.6267406940460205 L 20.0 -0.49618035554885864 L 21.0 -0.49618035554885864 L 21.0 -0.5940421223640442 L 22.0 -0.5940421223640442 L 22.0 -0.49017134308815 L 23.0 -0.49017134308815 L 23.0 -0.6792221665382385 L 24.0 -0.6792221665382385 L 24.0 -0.6494870185852051 L 25.0 -0.6494870185852051" style="vector-effect: non-scaling-stroke;fill:none;" /></g></g></g></g><g><g><g><g style="stroke: black;stroke-width: 1.2000000000000002;" transform="matrix(1.0, 0.0, 0.0, 1.0, 0.0, 0.0)"><path d="M 0.0 -2.0 L 0.0 2.0" style="vector-effect: non-scaling-stroke;fill:none;" /></g><g style="stroke: #808080;stroke-width: 0.6000000000000001;" transform="matrix(1.0, 0.0, 0.0, 1.0, 0.0, 0.0)"><path d="M 0.0 0.0 L 25.0 0.0" style="vector-effect: non-scaling-stroke;fill:none;" /></g></g><g style="stroke: black;stroke-width: 2.4000000000000004;" transform="matrix(1.0, 0.0, 0.0, 1.0, 0.0, 0.0)"><path d="M 0.0 -0.3591228425502777 L 1.0 -0.3591228425502777 L 1.0 -0.39641591906547546 L 2.0 -0.39641591906547546 L 2.0 -0.48681947588920593 L 3.0 -0.48681947588920593 L 3.0 -0.531780481338501 L 4.0 -0.531780481338501 L 4.0 -0.5336904525756836 L 5.0 -0.5336904525756836 L 5.0 -0.41938379406929016 L 6.0 -0.41938379406929016 L 6.0 -0.47089672088623047 L 7.0 -0.47089672088623047 L 7.0 -0.511618435382843 L 8.0 -0.511618435382843 L 8.0 -0.5721369981765747 L 9.0 -0.5721369981765747 L 9.0 -0.5465824007987976 L 10.0 -0.5465824007987976 L 10.0 -0.597511887550354 L 11.0 -0.597511887550354 L 11.0 -0.5713116526603699 L 12.0 -0.5713116526603699 L 12.0 -0.6480017304420471 L 13.0 -0.6480017304420471 L 13.0 -0.6333459615707397 L 14.0 -0.6333459615707397 L 14.0 -0.574889063835144 L 15.0 -0.574889063835144 L 15.0 -0.43985915184020996 L 16.0 -0.43985915184020996 L 16.0 -0.566417932510376 L 17.0 -0.566417932510376 L 17.0 -0.4868612587451935 L 18.0 -0.4868612587451935 L 18.0 -0.5349750518798828 L 19.0 -0.5349750518798828 L 19.0 -0.6267406940460205 L 20.0 -0.6267406940460205 L 20.0 -0.49618035554885864 L 21.0 -0.49618035554885864 L 21.0 -0.5940421223640442 L 22.0 -0.5940421223640442 L 22.0 -0.49017134308815 L 23.0 -0.49017134308815 L 23.0 -0.6792221665382385 L 24.0 -0.6792221665382385 L 24.0 -0.6494870185852051 L 25.0 -0.6494870185852051" style="vector-effect: non-scaling-stroke;fill:none;" /></g></g></g></g></g></g></g></g></g></g><g transform="matrix(1.0, 0.0, 0.0, 1.0, -0.125, 0.16278188526630402)"><g transform="matrix(1.0, 0.0, 0.0, 0.009999999999999995, 0.0, 0.0)"><g transform="matrix(0.01, 0.0, 0.0, 1.0, 0.0, 0.0)"><g><g><g style="fill: #ffffe0;stroke: #ffffe0;stroke-width: 1.2000000000000002;fill-opacity: 0.5;" transform="matrix(1.0, 0.0, 0.0, 1.0, 0.0, 0.0)"><path d="M 0.0 -2.0 L 0.0 2.0" style="vector-effect: non-scaling-stroke;fill:none;" /></g><g style="fill: #ffffe0;stroke: #ffffe0;stroke-width: 1.2000000000000002;fill-opacity: 0.5;" transform="matrix(1.0, 0.0, 0.0, 1.0, 0.0, 0.0)"><path d="M 0.0 -1.1757065057754517 L 1.0 -1.1757065057754517 L 1.0 -1.2129995822906494 L 2.0 -1.2129995822906494 L 2.0 -1.3004229068756104 L 3.0 -1.3004229068756104 L 3.0 -1.3602850437164307 L 4.0 -1.3602850437164307 L 4.0 -1.3621950149536133 L 5.0 -1.3621950149536133 L 5.0 -1.244908094406128 L 6.0 -1.244908094406128 L 6.0 -1.2845001220703125 L 7.0 -1.2845001220703125 L 7.0 -1.3282020092010498 L 8.0 -1.3282020092010498 L 8.0 -1.3767997026443481 L 9.0 -1.3767997026443481 L 9.0 -1.3452847003936768 L 10.0 -1.3452847003936768 L 10.0 -1.4021745920181274 L 11.0 -1.4021745920181274 L 11.0 -1.3998162746429443 L 12.0 -1.3998162746429443 L 12.0 -1.476506233215332 L 13.0 -1.476506233215332 L 13.0 -1.4558900594711304 L 14.0 -1.4558900594711304 L 14.0 -1.4153145551681519 L 15.0 -1.4153145551681519 L 15.0 -1.2504823207855225 L 16.0 -1.2504823207855225 L 16.0 -1.4008829593658447 L 17.0 -1.4008829593658447 L 17.0 -1.3004646301269531 L 18.0 -1.3004646301269531 L 18.0 -1.3336772918701172 L 19.0 -1.3336772918701172 L 19.0 -1.4731266498565674 L 20.0 -1.4731266498565674 L 20.0 -1.2889220714569092 L 21.0 -1.2889220714569092 L 21.0 -1.422546625137329 L 22.0 -1.422546625137329 L 22.0 -1.3127154111862183 L 23.0 -1.3127154111862183 L 23.0 -1.5196475982666016 L 24.0 -1.5196475982666016 L 24.0 -1.4481892585754395 L 25.0 -1.4481892585754395 L 25.0 -0.6494870185852051 L 24.0 -0.6494870185852051 L 24.0 -0.6792221665382385 L 23.0 -0.6792221665382385 L 23.0 -0.49017134308815 L 22.0 -0.49017134308815 L 22.0 -0.5940421223640442 L 21.0 -0.5940421223640442 L 21.0 -0.49618035554885864 L 20.0 -0.49618035554885864 L 20.0 -0.6267406940460205 L 19.0 -0.6267406940460205 L 19.0 -0.5349750518798828 L 18.0 -0.5349750518798828 L 18.0 -0.4868612587451935 L 17.0 -0.4868612587451935 L 17.0 -0.566417932510376 L 16.0 -0.566417932510376 L 16.0 -0.43985915184020996 L 15.0 -0.43985915184020996 L 15.0 -0.574889063835144 L 14.0 -0.574889063835144 L 14.0 -0.6333459615707397 L 13.0 -0.6333459615707397 L 13.0 -0.6480017304420471 L 12.0 -0.6480017304420471 L 12.0 -0.5713116526603699 L 11.0 -0.5713116526603699 L 11.0 -0.597511887550354 L 10.0 -0.597511887550354 L 10.0 -0.5465824007987976 L 9.0 -0.5465824007987976 L 9.0 -0.5721369981765747 L 8.0 -0.5721369981765747 L 8.0 -0.511618435382843 L 7.0 -0.511618435382843 L 7.0 -0.47089672088623047 L 6.0 -0.47089672088623047 L 6.0 -0.41938379406929016 L 5.0 -0.41938379406929016 L 5.0 -0.5336904525756836 L 4.0 -0.5336904525756836 L 4.0 -0.531780481338501 L 3.0 -0.531780481338501 L 3.0 -0.48681947588920593 L 2.0 -0.48681947588920593 L 2.0 -0.39641591906547546 L 1.0 -0.39641591906547546 L 1.0 -0.3591228425502777 L 0.0 -0.3591228425502777 Z" style="vector-effect: non-scaling-stroke;" /></g></g><g style="stroke: black;stroke-width: 1.2000000000000002;" transform="matrix(1.0, 0.0, 0.0, 1.0, 0.0, 0.0)"><path d="M 0.0 -0.3591228425502777 L 1.0 -0.3591228425502777 L 1.0 -0.39641591906547546 L 2.0 -0.39641591906547546 L 2.0 -0.48681947588920593 L 3.0 -0.48681947588920593 L 3.0 -0.531780481338501 L 4.0 -0.531780481338501 L 4.0 -0.5336904525756836 L 5.0 -0.5336904525756836 L 5.0 -0.41938379406929016 L 6.0 -0.41938379406929016 L 6.0 -0.47089672088623047 L 7.0 -0.47089672088623047 L 7.0 -0.511618435382843 L 8.0 -0.511618435382843 L 8.0 -0.5721369981765747 L 9.0 -0.5721369981765747 L 9.0 -0.5465824007987976 L 10.0 -0.5465824007987976 L 10.0 -0.597511887550354 L 11.0 -0.597511887550354 L 11.0 -0.5713116526603699 L 12.0 -0.5713116526603699 L 12.0 -0.6480017304420471 L 13.0 -0.6480017304420471 L 13.0 -0.6333459615707397 L 14.0 -0.6333459615707397 L 14.0 -0.574889063835144 L 15.0 -0.574889063835144 L 15.0 -0.43985915184020996 L 16.0 -0.43985915184020996 L 16.0 -0.566417932510376 L 17.0 -0.566417932510376 L 17.0 -0.4868612587451935 L 18.0 -0.4868612587451935 L 18.0 -0.5349750518798828 L 19.0 -0.5349750518798828 L 19.0 -0.6267406940460205 L 20.0 -0.6267406940460205 L 20.0 -0.49618035554885864 L 21.0 -0.49618035554885864 L 21.0 -0.5940421223640442 L 22.0 -0.5940421223640442 L 22.0 -0.49017134308815 L 23.0 -0.49017134308815 L 23.0 -0.6792221665382385 L 24.0 -0.6792221665382385 L 24.0 -0.6494870185852051 L 25.0 -0.6494870185852051" style="vector-effect: non-scaling-stroke;fill:none;" /></g></g></g></g></g></g><g transform="matrix(1.0, 0.0, 0.0, 1.0, -0.125, 0.16278188526630402)"><g transform="matrix(1.0, 0.0, 0.0, 0.009999999999999995, 0.0, 0.0)"><g transform="matrix(0.01, 0.0, 0.0, 1.0, 0.0, 0.0)"><g><g><g style="fill: #add8e6;stroke: #add8e6;stroke-width: 1.2000000000000002;fill-opacity: 0.5;" transform="matrix(1.0, 0.0, 0.0, 1.0, 0.0, 0.0)"><path d="M 0.0 -2.0 L 0.0 2.0" style="vector-effect: non-scaling-stroke;fill:none;" /></g><g style="fill: #add8e6;stroke: #add8e6;stroke-width: 1.2000000000000002;fill-opacity: 0.5;" transform="matrix(1.0, 0.0, 0.0, 1.0, 0.0, 0.0)"><path d="M 0.0 -1.2710739374160767 L 1.0 -1.2710739374160767 L 1.0 -1.3828728199005127 L 2.0 -1.3828728199005127 L 2.0 -1.6640112400054932 L 3.0 -1.6640112400054932 L 3.0 -1.8073198795318604 L 4.0 -1.8073198795318604 L 4.0 -1.8569135665893555 L 5.0 -1.8569135665893555 L 5.0 -1.4594848155975342 L 6.0 -1.4594848155975342 L 6.0 -1.5646419525146484 L 7.0 -1.5646419525146484 L 7.0 -1.8408019542694092 L 8.0 -1.8408019542694092 L 8.0 -1.931122899055481 L 9.0 -1.931122899055481 L 9.0 -1.9174892902374268 L 10.0 -1.9174892902374268 L 10.0 -1.9147745370864868 L 11.0 -1.9147745370864868 L 11.0 -2.0 L 12.0 -2.0 L 12.0 -2.0 L 13.0 -2.0 L 13.0 -2.0 L 14.0 -2.0 L 14.0 -2.0 L 15.0 -2.0 L 15.0 -1.691556692123413 L 16.0 -1.691556692123413 L 16.0 -1.9194433689117432 L 17.0 -1.9194433689117432 L 17.0 -1.7624006271362305 L 18.0 -1.7624006271362305 L 18.0 -1.9595260620117188 L 19.0 -1.9595260620117188 L 19.0 -2.0 L 20.0 -2.0 L 20.0 -1.7508580684661865 L 21.0 -1.7508580684661865 L 21.0 -2.0 L 22.0 -2.0 L 22.0 -1.8074339628219604 L 23.0 -1.8074339628219604 L 23.0 -2.0 L 24.0 -2.0 L 24.0 -2.0 L 25.0 -2.0 L 25.0 -0.6494870185852051 L 24.0 -0.6494870185852051 L 24.0 -0.6792221665382385 L 23.0 -0.6792221665382385 L 23.0 -0.49017134308815 L 22.0 -0.49017134308815 L 22.0 -0.5940421223640442 L 21.0 -0.5940421223640442 L 21.0 -0.49618035554885864 L 20.0 -0.49618035554885864 L 20.0 -0.6267406940460205 L 19.0 -0.6267406940460205 L 19.0 -0.5349750518798828 L 18.0 -0.5349750518798828 L 18.0 -0.4868612587451935 L 17.0 -0.4868612587451935 L 17.0 -0.566417932510376 L 16.0 -0.566417932510376 L 16.0 -0.43985915184020996 L 15.0 -0.43985915184020996 L 15.0 -0.574889063835144 L 14.0 -0.574889063835144 L 14.0 -0.6333459615707397 L 13.0 -0.6333459615707397 L 13.0 -0.6480017304420471 L 12.0 -0.6480017304420471 L 12.0 -0.5713116526603699 L 11.0 -0.5713116526603699 L 11.0 -0.597511887550354 L 10.0 -0.597511887550354 L 10.0 -0.5465824007987976 L 9.0 -0.5465824007987976 L 9.0 -0.5721369981765747 L 8.0 -0.5721369981765747 L 8.0 -0.511618435382843 L 7.0 -0.511618435382843 L 7.0 -0.47089672088623047 L 6.0 -0.47089672088623047 L 6.0 -0.41938379406929016 L 5.0 -0.41938379406929016 L 5.0 -0.5336904525756836 L 4.0 -0.5336904525756836 L 4.0 -0.531780481338501 L 3.0 -0.531780481338501 L 3.0 -0.48681947588920593 L 2.0 -0.48681947588920593 L 2.0 -0.39641591906547546 L 1.0 -0.39641591906547546 L 1.0 -0.3591228425502777 L 0.0 -0.3591228425502777 Z" style="vector-effect: non-scaling-stroke;" /></g></g><g style="stroke: black;stroke-width: 1.2000000000000002;" transform="matrix(1.0, 0.0, 0.0, 1.0, 0.0, 0.0)"><path d="M 0.0 -0.3591228425502777 L 1.0 -0.3591228425502777 L 1.0 -0.39641591906547546 L 2.0 -0.39641591906547546 L 2.0 -0.48681947588920593 L 3.0 -0.48681947588920593 L 3.0 -0.531780481338501 L 4.0 -0.531780481338501 L 4.0 -0.5336904525756836 L 5.0 -0.5336904525756836 L 5.0 -0.41938379406929016 L 6.0 -0.41938379406929016 L 6.0 -0.47089672088623047 L 7.0 -0.47089672088623047 L 7.0 -0.511618435382843 L 8.0 -0.511618435382843 L 8.0 -0.5721369981765747 L 9.0 -0.5721369981765747 L 9.0 -0.5465824007987976 L 10.0 -0.5465824007987976 L 10.0 -0.597511887550354 L 11.0 -0.597511887550354 L 11.0 -0.5713116526603699 L 12.0 -0.5713116526603699 L 12.0 -0.6480017304420471 L 13.0 -0.6480017304420471 L 13.0 -0.6333459615707397 L 14.0 -0.6333459615707397 L 14.0 -0.574889063835144 L 15.0 -0.574889063835144 L 15.0 -0.43985915184020996 L 16.0 -0.43985915184020996 L 16.0 -0.566417932510376 L 17.0 -0.566417932510376 L 17.0 -0.4868612587451935 L 18.0 -0.4868612587451935 L 18.0 -0.5349750518798828 L 19.0 -0.5349750518798828 L 19.0 -0.6267406940460205 L 20.0 -0.6267406940460205 L 20.0 -0.49618035554885864 L 21.0 -0.49618035554885864 L 21.0 -0.5940421223640442 L 22.0 -0.5940421223640442 L 22.0 -0.49017134308815 L 23.0 -0.49017134308815 L 23.0 -0.6792221665382385 L 24.0 -0.6792221665382385 L 24.0 -0.6494870185852051 L 25.0 -0.6494870185852051" style="vector-effect: non-scaling-stroke;fill:none;" /></g></g></g></g></g></g><g transform="matrix(1.0, 0.0, 0.0, 1.0, -0.125, 0.16278188526630402)"><g transform="matrix(1.0, 0.0, 0.0, 0.009999999999999995, 0.0, 0.0)"><g transform="matrix(0.01, 0.0, 0.0, 1.0, 0.0, 0.0)"><g><g><g style="fill: #ff8c00;stroke: #ff8c00;stroke-width: 1.2000000000000002;fill-opacity: 0.5;" transform="matrix(1.0, 0.0, 0.0, 1.0, 0.0, 0.0)"><path d="M 0.0 -2.0 L 0.0 2.0" style="vector-effect: non-scaling-stroke;fill:none;" /></g><g style="fill: #ff8c00;stroke: #ff8c00;stroke-width: 1.2000000000000002;fill-opacity: 0.5;" transform="matrix(1.0, 0.0, 0.0, 1.0, 0.0, 0.0)"><path d="M 0.0 -0.3591228425502777 L 1.0 -0.3591228425502777 L 1.0 -0.39641591906547546 L 2.0 -0.39641591906547546 L 2.0 -0.48681947588920593 L 3.0 -0.48681947588920593 L 3.0 -0.531780481338501 L 4.0 -0.531780481338501 L 4.0 -0.5336904525756836 L 5.0 -0.5336904525756836 L 5.0 -0.41938379406929016 L 6.0 -0.41938379406929016 L 6.0 -0.47089672088623047 L 7.0 -0.47089672088623047 L 7.0 -0.511618435382843 L 8.0 -0.511618435382843 L 8.0 -0.5721369981765747 L 9.0 -0.5721369981765747 L 9.0 -0.5465824007987976 L 10.0 -0.5465824007987976 L 10.0 -0.597511887550354 L 11.0 -0.597511887550354 L 11.0 -0.5713116526603699 L 12.0 -0.5713116526603699 L 12.0 -0.6480017304420471 L 13.0 -0.6480017304420471 L 13.0 -0.6333459615707397 L 14.0 -0.6333459615707397 L 14.0 -0.574889063835144 L 15.0 -0.574889063835144 L 15.0 -0.43985915184020996 L 16.0 -0.43985915184020996 L 16.0 -0.566417932510376 L 17.0 -0.566417932510376 L 17.0 -0.4868612587451935 L 18.0 -0.4868612587451935 L 18.0 -0.5349750518798828 L 19.0 -0.5349750518798828 L 19.0 -0.6267406940460205 L 20.0 -0.6267406940460205 L 20.0 -0.49618035554885864 L 21.0 -0.49618035554885864 L 21.0 -0.5940421223640442 L 22.0 -0.5940421223640442 L 22.0 -0.49017134308815 L 23.0 -0.49017134308815 L 23.0 -0.6792221665382385 L 24.0 -0.6792221665382385 L 24.0 -0.6494870185852051 L 25.0 -0.6494870185852051 L 25.0 -0.6494870185852051 L 24.0 -0.6494870185852051 L 24.0 -0.6792221665382385 L 23.0 -0.6792221665382385 L 23.0 -0.49017134308815 L 22.0 -0.49017134308815 L 22.0 -0.5940421223640442 L 21.0 -0.5940421223640442 L 21.0 -0.49618035554885864 L 20.0 -0.49618035554885864 L 20.0 -0.6267406940460205 L 19.0 -0.6267406940460205 L 19.0 -0.5349750518798828 L 18.0 -0.5349750518798828 L 18.0 -0.4868612587451935 L 17.0 -0.4868612587451935 L 17.0 -0.566417932510376 L 16.0 -0.566417932510376 L 16.0 -0.43985915184020996 L 15.0 -0.43985915184020996 L 15.0 -0.574889063835144 L 14.0 -0.574889063835144 L 14.0 -0.6333459615707397 L 13.0 -0.6333459615707397 L 13.0 -0.6480017304420471 L 12.0 -0.6480017304420471 L 12.0 -0.5713116526603699 L 11.0 -0.5713116526603699 L 11.0 -0.597511887550354 L 10.0 -0.597511887550354 L 10.0 -0.5465824007987976 L 9.0 -0.5465824007987976 L 9.0 -0.5721369981765747 L 8.0 -0.5721369981765747 L 8.0 -0.511618435382843 L 7.0 -0.511618435382843 L 7.0 -0.47089672088623047 L 6.0 -0.47089672088623047 L 6.0 -0.41938379406929016 L 5.0 -0.41938379406929016 L 5.0 -0.5336904525756836 L 4.0 -0.5336904525756836 L 4.0 -0.531780481338501 L 3.0 -0.531780481338501 L 3.0 -0.48681947588920593 L 2.0 -0.48681947588920593 L 2.0 -0.39641591906547546 L 1.0 -0.39641591906547546 L 1.0 -0.3591228425502777 L 0.0 -0.3591228425502777 Z" style="vector-effect: non-scaling-stroke;" /></g></g><g style="stroke: black;stroke-width: 1.2000000000000002;" transform="matrix(1.0, 0.0, 0.0, 1.0, 0.0, 0.0)"><path d="M 0.0 -0.3591228425502777 L 1.0 -0.3591228425502777 L 1.0 -0.39641591906547546 L 2.0 -0.39641591906547546 L 2.0 -0.48681947588920593 L 3.0 -0.48681947588920593 L 3.0 -0.531780481338501 L 4.0 -0.531780481338501 L 4.0 -0.5336904525756836 L 5.0 -0.5336904525756836 L 5.0 -0.41938379406929016 L 6.0 -0.41938379406929016 L 6.0 -0.47089672088623047 L 7.0 -0.47089672088623047 L 7.0 -0.511618435382843 L 8.0 -0.511618435382843 L 8.0 -0.5721369981765747 L 9.0 -0.5721369981765747 L 9.0 -0.5465824007987976 L 10.0 -0.5465824007987976 L 10.0 -0.597511887550354 L 11.0 -0.597511887550354 L 11.0 -0.5713116526603699 L 12.0 -0.5713116526603699 L 12.0 -0.6480017304420471 L 13.0 -0.6480017304420471 L 13.0 -0.6333459615707397 L 14.0 -0.6333459615707397 L 14.0 -0.574889063835144 L 15.0 -0.574889063835144 L 15.0 -0.43985915184020996 L 16.0 -0.43985915184020996 L 16.0 -0.566417932510376 L 17.0 -0.566417932510376 L 17.0 -0.4868612587451935 L 18.0 -0.4868612587451935 L 18.0 -0.5349750518798828 L 19.0 -0.5349750518798828 L 19.0 -0.6267406940460205 L 20.0 -0.6267406940460205 L 20.0 -0.49618035554885864 L 21.0 -0.49618035554885864 L 21.0 -0.5940421223640442 L 22.0 -0.5940421223640442 L 22.0 -0.49017134308815 L 23.0 -0.49017134308815 L 23.0 -0.6792221665382385 L 24.0 -0.6792221665382385 L 24.0 -0.6494870185852051 L 25.0 -0.6494870185852051" style="vector-effect: non-scaling-stroke;fill:none;" /></g></g></g></g></g></g><g transform="matrix(1.0, 0.0, 0.0, 1.0, -0.125, 0.16278188526630402)"><g transform="matrix(1.0, 0.0, 0.0, 0.009999999999999995, 0.0, 0.0)"><g transform="matrix(0.01, 0.0, 0.0, 1.0, 0.0, 0.0)"><g><g><g style="fill: #0000ff;stroke: #0000ff;stroke-width: 1.2000000000000002;fill-opacity: 0.5;" transform="matrix(1.0, 0.0, 0.0, 1.0, 0.0, 0.0)"><path d="M 0.0 -2.0 L 0.0 2.0" style="vector-effect: non-scaling-stroke;fill:none;" /></g><g style="fill: #0000ff;stroke: #0000ff;stroke-width: 1.2000000000000002;fill-opacity: 0.5;" transform="matrix(1.0, 0.0, 0.0, 1.0, 0.0, 0.0)"><path d="M 0.0 -0.3591228425502777 L 1.0 -0.3591228425502777 L 1.0 -0.39641591906547546 L 2.0 -0.39641591906547546 L 2.0 -0.48681947588920593 L 3.0 -0.48681947588920593 L 3.0 -0.531780481338501 L 4.0 -0.531780481338501 L 4.0 -0.5336904525756836 L 5.0 -0.5336904525756836 L 5.0 -0.41938379406929016 L 6.0 -0.41938379406929016 L 6.0 -0.47089672088623047 L 7.0 -0.47089672088623047 L 7.0 -0.511618435382843 L 8.0 -0.511618435382843 L 8.0 -0.5721369981765747 L 9.0 -0.5721369981765747 L 9.0 -0.5465824007987976 L 10.0 -0.5465824007987976 L 10.0 -0.597511887550354 L 11.0 -0.597511887550354 L 11.0 -0.5713116526603699 L 12.0 -0.5713116526603699 L 12.0 -0.6480017304420471 L 13.0 -0.6480017304420471 L 13.0 -0.6333459615707397 L 14.0 -0.6333459615707397 L 14.0 -0.574889063835144 L 15.0 -0.574889063835144 L 15.0 -0.43985915184020996 L 16.0 -0.43985915184020996 L 16.0 -0.566417932510376 L 17.0 -0.566417932510376 L 17.0 -0.4868612587451935 L 18.0 -0.4868612587451935 L 18.0 -0.5349750518798828 L 19.0 -0.5349750518798828 L 19.0 -0.6267406940460205 L 20.0 -0.6267406940460205 L 20.0 -0.49618035554885864 L 21.0 -0.49618035554885864 L 21.0 -0.5940421223640442 L 22.0 -0.5940421223640442 L 22.0 -0.49017134308815 L 23.0 -0.49017134308815 L 23.0 -0.6792221665382385 L 24.0 -0.6792221665382385 L 24.0 -0.6494870185852051 L 25.0 -0.6494870185852051 L 25.0 -0.6494870185852051 L 24.0 -0.6494870185852051 L 24.0 -0.6792221665382385 L 23.0 -0.6792221665382385 L 23.0 -0.49017134308815 L 22.0 -0.49017134308815 L 22.0 -0.5940421223640442 L 21.0 -0.5940421223640442 L 21.0 -0.49618035554885864 L 20.0 -0.49618035554885864 L 20.0 -0.6267406940460205 L 19.0 -0.6267406940460205 L 19.0 -0.5349750518798828 L 18.0 -0.5349750518798828 L 18.0 -0.4868612587451935 L 17.0 -0.4868612587451935 L 17.0 -0.566417932510376 L 16.0 -0.566417932510376 L 16.0 -0.43985915184020996 L 15.0 -0.43985915184020996 L 15.0 -0.574889063835144 L 14.0 -0.574889063835144 L 14.0 -0.6333459615707397 L 13.0 -0.6333459615707397 L 13.0 -0.6480017304420471 L 12.0 -0.6480017304420471 L 12.0 -0.5713116526603699 L 11.0 -0.5713116526603699 L 11.0 -0.597511887550354 L 10.0 -0.597511887550354 L 10.0 -0.5465824007987976 L 9.0 -0.5465824007987976 L 9.0 -0.5721369981765747 L 8.0 -0.5721369981765747 L 8.0 -0.511618435382843 L 7.0 -0.511618435382843 L 7.0 -0.47089672088623047 L 6.0 -0.47089672088623047 L 6.0 -0.41938379406929016 L 5.0 -0.41938379406929016 L 5.0 -0.5336904525756836 L 4.0 -0.5336904525756836 L 4.0 -0.531780481338501 L 3.0 -0.531780481338501 L 3.0 -0.48681947588920593 L 2.0 -0.48681947588920593 L 2.0 -0.39641591906547546 L 1.0 -0.39641591906547546 L 1.0 -0.3591228425502777 L 0.0 -0.3591228425502777 Z" style="vector-effect: non-scaling-stroke;" /></g></g><g style="stroke: black;stroke-width: 1.2000000000000002;" transform="matrix(1.0, 0.0, 0.0, 1.0, 0.0, 0.0)"><path d="M 0.0 -0.3591228425502777 L 1.0 -0.3591228425502777 L 1.0 -0.39641591906547546 L 2.0 -0.39641591906547546 L 2.0 -0.48681947588920593 L 3.0 -0.48681947588920593 L 3.0 -0.531780481338501 L 4.0 -0.531780481338501 L 4.0 -0.5336904525756836 L 5.0 -0.5336904525756836 L 5.0 -0.41938379406929016 L 6.0 -0.41938379406929016 L 6.0 -0.47089672088623047 L 7.0 -0.47089672088623047 L 7.0 -0.511618435382843 L 8.0 -0.511618435382843 L 8.0 -0.5721369981765747 L 9.0 -0.5721369981765747 L 9.0 -0.5465824007987976 L 10.0 -0.5465824007987976 L 10.0 -0.597511887550354 L 11.0 -0.597511887550354 L 11.0 -0.5713116526603699 L 12.0 -0.5713116526603699 L 12.0 -0.6480017304420471 L 13.0 -0.6480017304420471 L 13.0 -0.6333459615707397 L 14.0 -0.6333459615707397 L 14.0 -0.574889063835144 L 15.0 -0.574889063835144 L 15.0 -0.43985915184020996 L 16.0 -0.43985915184020996 L 16.0 -0.566417932510376 L 17.0 -0.566417932510376 L 17.0 -0.4868612587451935 L 18.0 -0.4868612587451935 L 18.0 -0.5349750518798828 L 19.0 -0.5349750518798828 L 19.0 -0.6267406940460205 L 20.0 -0.6267406940460205 L 20.0 -0.49618035554885864 L 21.0 -0.49618035554885864 L 21.0 -0.5940421223640442 L 22.0 -0.5940421223640442 L 22.0 -0.49017134308815 L 23.0 -0.49017134308815 L 23.0 -0.6792221665382385 L 24.0 -0.6792221665382385 L 24.0 -0.6494870185852051 L 25.0 -0.6494870185852051" style="vector-effect: non-scaling-stroke;fill:none;" /></g></g></g></g></g></g></g></g><g><g><g><g><g><g><g transform="matrix(1.0, 0.0, 0.0, 1.0, -0.45499999999999996, -0.03278188526630402)"><g><g><g transform="matrix(1.0, 0.0, 0.0, 1.0, 0.075, 0.0)"><g transform="matrix(1.0, 0.0, 0.0, 1.0, 0.0, 0.03463647544384003)"><g transform="matrix(0.01, 0.0, 0.0, 0.01, 0.0, 0.0)"><g><g><g transform="matrix(1.0, 0.0, 0.0, 1.0, 24.5, -0.18545901775360107)"><g transform="matrix(1.0, 0.0, 0.0, 1.0, -32.0, -0.0)"><g><g style="fill: #d3d3d3;stroke: black;stroke-width: 1.2000000000000002;" transform="matrix(1.0, 0.0, 0.0, 1.0, 0.0, -3.2781885266304016)"><path d="M 0.0 0.0 L 64.0 0.0 L 64.0 6.556377053260803 L 0.0 6.556377053260803 L 0.0 0.0 Z" style="vector-effect: non-scaling-stroke;" /></g><g transform="matrix(1.0, 0.0, 0.0, 1.0, 1.875, 0.0)"><g><g style="stroke: black;stroke-width: 1.2000000000000002;" transform="matrix(1.0, 0.0, 0.0, 1.0, 0.0, 0.0)"><g /></g><g style="fill: #ffa500;stroke: black;stroke-width: 1.2000000000000002;" transform="matrix(1.0, 0.0, 0.0, 1.0, 1.875, 0.0)"><text style="text-align:center; text-anchor:middle; dominant-baseline:middle;&#10;                      font-family:sans-serif; font-weight: bold;&#10;                      font-size:3px;&#10;                      vector-effect: non-scaling-stroke;" transform="translate(-5e-05, 0)">x</text></g></g></g></g></g></g><g><g><g><g><g><g><g><g><g><g><g style="stroke: black;stroke-width: 1.2000000000000002;" transform="matrix(1.0, 0.0, 0.0, 1.0, 0.0, 0.0)"><path d="M 0.0 -2.0 L 0.0 2.0" style="vector-effect: non-scaling-stroke;fill:none;" /></g><g style="stroke: #808080;stroke-width: 0.6000000000000001;" transform="matrix(1.0, 0.0, 0.0, 1.0, 0.0, 0.0)"><path d="M 0.0 0.0 L 49.0 0.0" style="vector-effect: non-scaling-stroke;fill:none;" /></g></g><g style="stroke: black;stroke-width: 2.4000000000000004;" transform="matrix(1.0, 0.0, 0.0, 1.0, 0.0, 0.0)"><path d="M 0.0 -0.40531104803085327 L 1.0 -0.40531104803085327 L 1.0 -1.0617961883544922 L 2.0 -1.0617961883544922 L 2.0 -0.4292219579219818 L 3.0 -0.4292219579219818 L 3.0 -0.9955145120620728 L 4.0 -0.9955145120620728 L 4.0 -0.6875696778297424 L 5.0 -0.6875696778297424 L 5.0 -1.5414745807647705 L 6.0 -1.5414745807647705 L 6.0 -0.4298017621040344 L 7.0 -0.4298017621040344 L 7.0 -0.938446044921875 L 8.0 -0.938446044921875 L 8.0 -1.1264551877975464 L 9.0 -1.1264551877975464 L 9.0 -1.1654497385025024 L 10.0 -1.1654497385025024 L 10.0 -0.46270832419395447 L 11.0 -0.46270832419395447 L 11.0 -1.9212970733642578 L 12.0 -1.9212970733642578 L 12.0 -1.2081478834152222 L 13.0 -1.2081478834152222 L 13.0 -1.8235832452774048 L 14.0 -1.8235832452774048 L 14.0 -0.710767924785614 L 15.0 -0.710767924785614 L 15.0 -0.7787613868713379 L 16.0 -0.7787613868713379 L 16.0 -1.5808154344558716 L 17.0 -1.5808154344558716 L 17.0 -1.2524851560592651 L 18.0 -1.2524851560592651 L 18.0 -2.145559549331665 L 19.0 -2.145559549331665 L 19.0 -1.0974199771881104 L 20.0 -1.0974199771881104 L 20.0 -0.9488577842712402 L 21.0 -0.9488577842712402 L 21.0 -1.221071481704712 L 22.0 -1.221071481704712 L 22.0 -1.2402944564819336 L 23.0 -1.2402944564819336 L 23.0 -0.5200188159942627 L 24.0 -0.5200188159942627 L 24.0 -1.7758477926254272 L 25.0 -1.7758477926254272 L 25.0 -1.110476016998291 L 26.0 -1.110476016998291 L 26.0 -1.2866549491882324 L 27.0 -1.2866549491882324 L 27.0 -0.9337658882141113 L 28.0 -0.9337658882141113 L 28.0 -2.370918035507202 L 29.0 -2.370918035507202 L 29.0 -1.671311855316162 L 30.0 -1.671311855316162 L 30.0 -1.7876806259155273 L 31.0 -1.7876806259155273 L 31.0 -2.1807198524475098 L 32.0 -2.1807198524475098 L 32.0 -1.1823610067367554 L 33.0 -1.1823610067367554 L 33.0 -1.8078423738479614 L 34.0 -1.8078423738479614 L 34.0 -2.241478204727173 L 35.0 -2.241478204727173 L 35.0 -0.5485409498214722 L 36.0 -0.5485409498214722 L 36.0 -1.4431902170181274 L 37.0 -1.4431902170181274 L 37.0 -0.4962232708930969 L 38.0 -0.4962232708930969 L 38.0 -0.6695115566253662 L 39.0 -0.6695115566253662 L 39.0 -1.7328336238861084 L 40.0 -1.7328336238861084 L 40.0 -1.274776816368103 L 41.0 -1.274776816368103 L 41.0 -1.8892016410827637 L 42.0 -1.8892016410827637 L 42.0 -0.5186962485313416 L 43.0 -0.5186962485313416 L 43.0 -1.6941701173782349 L 44.0 -1.6941701173782349 L 44.0 -0.8878850936889648 L 45.0 -0.8878850936889648 L 45.0 -1.7998547554016113 L 46.0 -1.7998547554016113 L 46.0 -1.0406936407089233 L 47.0 -1.0406936407089233 L 47.0 -2.018359661102295 L 48.0 -2.018359661102295 L 48.0 -1.9249296188354492 L 49.0 -1.9249296188354492" style="vector-effect: non-scaling-stroke;fill:none;" /></g></g><g style="stroke: black;stroke-width: 1.2000000000000002;" transform="matrix(1.0, 0.0, 0.0, 1.0, 0.0, 0.0)"><path d="M 0.0 -2.0 L 0.0 2.0" style="vector-effect: non-scaling-stroke;fill:none;" /></g></g><g style="stroke: black;stroke-width: 1.2000000000000002;" transform="matrix(1.0, 0.0, 0.0, 1.0, 0.0, 0.0)"><path d="M 7.0 -2.0 L 7.0 2.0" style="vector-effect: non-scaling-stroke;fill:none;" /></g></g><g style="stroke: black;stroke-width: 1.2000000000000002;" transform="matrix(1.0, 0.0, 0.0, 1.0, 0.0, 0.0)"><path d="M 14.0 -2.0 L 14.0 2.0" style="vector-effect: non-scaling-stroke;fill:none;" /></g></g><g style="stroke: black;stroke-width: 1.2000000000000002;" transform="matrix(1.0, 0.0, 0.0, 1.0, 0.0, 0.0)"><path d="M 21.0 -2.0 L 21.0 2.0" style="vector-effect: non-scaling-stroke;fill:none;" /></g></g><g style="stroke: black;stroke-width: 1.2000000000000002;" transform="matrix(1.0, 0.0, 0.0, 1.0, 0.0, 0.0)"><path d="M 28.0 -2.0 L 28.0 2.0" style="vector-effect: non-scaling-stroke;fill:none;" /></g></g><g style="stroke: black;stroke-width: 1.2000000000000002;" transform="matrix(1.0, 0.0, 0.0, 1.0, 0.0, 0.0)"><path d="M 35.0 -2.0 L 35.0 2.0" style="vector-effect: non-scaling-stroke;fill:none;" /></g></g><g style="stroke: black;stroke-width: 1.2000000000000002;" transform="matrix(1.0, 0.0, 0.0, 1.0, 0.0, 0.0)"><path d="M 42.0 -2.0 L 42.0 2.0" style="vector-effect: non-scaling-stroke;fill:none;" /></g></g></g></g><g><g><g><g><g><g><g><g><g><g><g style="stroke: black;stroke-width: 1.2000000000000002;" transform="matrix(1.0, 0.0, 0.0, 1.0, 0.0, 0.0)"><path d="M 0.0 -2.0 L 0.0 2.0" style="vector-effect: non-scaling-stroke;fill:none;" /></g><g style="stroke: #808080;stroke-width: 0.6000000000000001;" transform="matrix(1.0, 0.0, 0.0, 1.0, 0.0, 0.0)"><path d="M 0.0 0.0 L 49.0 0.0" style="vector-effect: non-scaling-stroke;fill:none;" /></g></g><g style="stroke: black;stroke-width: 2.4000000000000004;" transform="matrix(1.0, 0.0, 0.0, 1.0, 0.0, 0.0)"><path d="M 0.0 -0.40531104803085327 L 1.0 -0.40531104803085327 L 1.0 -1.0617961883544922 L 2.0 -1.0617961883544922 L 2.0 -0.4292219579219818 L 3.0 -0.4292219579219818 L 3.0 -0.9955145120620728 L 4.0 -0.9955145120620728 L 4.0 -0.6875696778297424 L 5.0 -0.6875696778297424 L 5.0 -1.5414745807647705 L 6.0 -1.5414745807647705 L 6.0 -0.4298017621040344 L 7.0 -0.4298017621040344 L 7.0 -0.938446044921875 L 8.0 -0.938446044921875 L 8.0 -1.1264551877975464 L 9.0 -1.1264551877975464 L 9.0 -1.1654497385025024 L 10.0 -1.1654497385025024 L 10.0 -0.46270832419395447 L 11.0 -0.46270832419395447 L 11.0 -1.9212970733642578 L 12.0 -1.9212970733642578 L 12.0 -1.2081478834152222 L 13.0 -1.2081478834152222 L 13.0 -1.8235832452774048 L 14.0 -1.8235832452774048 L 14.0 -0.710767924785614 L 15.0 -0.710767924785614 L 15.0 -0.7787613868713379 L 16.0 -0.7787613868713379 L 16.0 -1.5808154344558716 L 17.0 -1.5808154344558716 L 17.0 -1.2524851560592651 L 18.0 -1.2524851560592651 L 18.0 -2.145559549331665 L 19.0 -2.145559549331665 L 19.0 -1.0974199771881104 L 20.0 -1.0974199771881104 L 20.0 -0.9488577842712402 L 21.0 -0.9488577842712402 L 21.0 -1.221071481704712 L 22.0 -1.221071481704712 L 22.0 -1.2402944564819336 L 23.0 -1.2402944564819336 L 23.0 -0.5200188159942627 L 24.0 -0.5200188159942627 L 24.0 -1.7758477926254272 L 25.0 -1.7758477926254272 L 25.0 -1.110476016998291 L 26.0 -1.110476016998291 L 26.0 -1.2866549491882324 L 27.0 -1.2866549491882324 L 27.0 -0.9337658882141113 L 28.0 -0.9337658882141113 L 28.0 -2.370918035507202 L 29.0 -2.370918035507202 L 29.0 -1.671311855316162 L 30.0 -1.671311855316162 L 30.0 -1.7876806259155273 L 31.0 -1.7876806259155273 L 31.0 -2.1807198524475098 L 32.0 -2.1807198524475098 L 32.0 -1.1823610067367554 L 33.0 -1.1823610067367554 L 33.0 -1.8078423738479614 L 34.0 -1.8078423738479614 L 34.0 -2.241478204727173 L 35.0 -2.241478204727173 L 35.0 -0.5485409498214722 L 36.0 -0.5485409498214722 L 36.0 -1.4431902170181274 L 37.0 -1.4431902170181274 L 37.0 -0.4962232708930969 L 38.0 -0.4962232708930969 L 38.0 -0.6695115566253662 L 39.0 -0.6695115566253662 L 39.0 -1.7328336238861084 L 40.0 -1.7328336238861084 L 40.0 -1.274776816368103 L 41.0 -1.274776816368103 L 41.0 -1.8892016410827637 L 42.0 -1.8892016410827637 L 42.0 -0.5186962485313416 L 43.0 -0.5186962485313416 L 43.0 -1.6941701173782349 L 44.0 -1.6941701173782349 L 44.0 -0.8878850936889648 L 45.0 -0.8878850936889648 L 45.0 -1.7998547554016113 L 46.0 -1.7998547554016113 L 46.0 -1.0406936407089233 L 47.0 -1.0406936407089233 L 47.0 -2.018359661102295 L 48.0 -2.018359661102295 L 48.0 -1.9249296188354492 L 49.0 -1.9249296188354492" style="vector-effect: non-scaling-stroke;fill:none;" /></g></g><g style="stroke: black;stroke-width: 1.2000000000000002;" transform="matrix(1.0, 0.0, 0.0, 1.0, 0.0, 0.0)"><path d="M 0.0 -2.0 L 0.0 2.0" style="vector-effect: non-scaling-stroke;fill:none;" /></g></g><g style="stroke: black;stroke-width: 1.2000000000000002;" transform="matrix(1.0, 0.0, 0.0, 1.0, 0.0, 0.0)"><path d="M 7.0 -2.0 L 7.0 2.0" style="vector-effect: non-scaling-stroke;fill:none;" /></g></g><g style="stroke: black;stroke-width: 1.2000000000000002;" transform="matrix(1.0, 0.0, 0.0, 1.0, 0.0, 0.0)"><path d="M 14.0 -2.0 L 14.0 2.0" style="vector-effect: non-scaling-stroke;fill:none;" /></g></g><g style="stroke: black;stroke-width: 1.2000000000000002;" transform="matrix(1.0, 0.0, 0.0, 1.0, 0.0, 0.0)"><path d="M 21.0 -2.0 L 21.0 2.0" style="vector-effect: non-scaling-stroke;fill:none;" /></g></g><g style="stroke: black;stroke-width: 1.2000000000000002;" transform="matrix(1.0, 0.0, 0.0, 1.0, 0.0, 0.0)"><path d="M 28.0 -2.0 L 28.0 2.0" style="vector-effect: non-scaling-stroke;fill:none;" /></g></g><g style="stroke: black;stroke-width: 1.2000000000000002;" transform="matrix(1.0, 0.0, 0.0, 1.0, 0.0, 0.0)"><path d="M 35.0 -2.0 L 35.0 2.0" style="vector-effect: non-scaling-stroke;fill:none;" /></g></g><g style="stroke: black;stroke-width: 1.2000000000000002;" transform="matrix(1.0, 0.0, 0.0, 1.0, 0.0, 0.0)"><path d="M 42.0 -2.0 L 42.0 2.0" style="vector-effect: non-scaling-stroke;fill:none;" /></g></g></g></g></g></g></g><g style="stroke: black;stroke-width: 1.2000000000000002;" transform="matrix(1.0, 0.0, 0.0, 1.0, 0.6549999999999999, 0.0)"><g /></g></g><g transform="matrix(1.0, 0.0, 0.0, 1.0, 0.6699999999999999, 0.0)"><g transform="matrix(1.0, 0.0, 0.0, 1.0, 0.075, 0.0)"><g transform="matrix(1.0, 0.0, 0.0, 1.0, 0.0, 0.03)"><g transform="matrix(0.01, 0.0, 0.0, 0.01, 0.0, 0.0)"><g><g><g transform="matrix(1.0, 0.0, 0.0, 1.0, 4.5, 0.0)"><g transform="matrix(1.0, 0.0, 0.0, 1.0, -12.0, -0.0)"><g><g style="fill: #d3d3d3;stroke: black;stroke-width: 1.2000000000000002;" transform="matrix(1.0, 0.0, 0.0, 1.0, 0.0, -3.0)"><path d="M 0.0 0.0 L 24.0 0.0 L 24.0 6.0 L 0.0 6.0 L 0.0 0.0 Z" style="vector-effect: non-scaling-stroke;" /></g><g transform="matrix(1.0, 0.0, 0.0, 1.0, 1.875, 0.0)"><g><g style="stroke: black;stroke-width: 1.2000000000000002;" transform="matrix(1.0, 0.0, 0.0, 1.0, 0.0, 0.0)"><g /></g><g style="fill: #ffa500;stroke: black;stroke-width: 1.2000000000000002;" transform="matrix(1.0, 0.0, 0.0, 1.0, 1.875, 0.0)"><text style="text-align:center; text-anchor:middle; dominant-baseline:middle;&#10;                      font-family:sans-serif; font-weight: bold;&#10;                      font-size:3px;&#10;                      vector-effect: non-scaling-stroke;" transform="translate(-5e-05, 0)">y</text></g></g></g></g></g></g><g><g><g><g style="stroke: black;stroke-width: 1.2000000000000002;" transform="matrix(1.0, 0.0, 0.0, 1.0, 0.0, 0.0)"><path d="M 0.0 -2.0 L 0.0 2.0" style="vector-effect: non-scaling-stroke;fill:none;" /></g><g style="stroke: #808080;stroke-width: 0.6000000000000001;" transform="matrix(1.0, 0.0, 0.0, 1.0, 0.0, 0.0)"><path d="M 0.0 0.0 L 9.0 0.0" style="vector-effect: non-scaling-stroke;fill:none;" /></g></g><g style="stroke: black;stroke-width: 2.4000000000000004;" transform="matrix(1.0, 0.0, 0.0, 1.0, 0.0, 0.0)"><path d="M 0.0 -0.8357076644897461 L 1.0 -0.8357076644897461 L 1.0 -0.40531104803085327 L 2.0 -0.40531104803085327 L 2.0 -1.0617961883544922 L 3.0 -1.0617961883544922 L 3.0 -0.4292219579219818 L 4.0 -0.4292219579219818 L 4.0 -0.9955145120620728 L 5.0 -0.9955145120620728 L 5.0 -0.6875696778297424 L 6.0 -0.6875696778297424 L 6.0 -1.5414745807647705 L 7.0 -1.5414745807647705 L 7.0 -0.4298017621040344 L 8.0 -0.4298017621040344 L 8.0 -0.938446044921875 L 9.0 -0.938446044921875" style="vector-effect: non-scaling-stroke;fill:none;" /></g></g></g></g><g><g><g><g style="stroke: black;stroke-width: 1.2000000000000002;" transform="matrix(1.0, 0.0, 0.0, 1.0, 0.0, 0.0)"><path d="M 0.0 -2.0 L 0.0 2.0" style="vector-effect: non-scaling-stroke;fill:none;" /></g><g style="stroke: #808080;stroke-width: 0.6000000000000001;" transform="matrix(1.0, 0.0, 0.0, 1.0, 0.0, 0.0)"><path d="M 0.0 0.0 L 9.0 0.0" style="vector-effect: non-scaling-stroke;fill:none;" /></g></g><g style="stroke: black;stroke-width: 2.4000000000000004;" transform="matrix(1.0, 0.0, 0.0, 1.0, 0.0, 0.0)"><path d="M 0.0 -0.8357076644897461 L 1.0 -0.8357076644897461 L 1.0 -0.40531104803085327 L 2.0 -0.40531104803085327 L 2.0 -1.0617961883544922 L 3.0 -1.0617961883544922 L 3.0 -0.4292219579219818 L 4.0 -0.4292219579219818 L 4.0 -0.9955145120620728 L 5.0 -0.9955145120620728 L 5.0 -0.6875696778297424 L 6.0 -0.6875696778297424 L 6.0 -1.5414745807647705 L 7.0 -1.5414745807647705 L 7.0 -0.4298017621040344 L 8.0 -0.4298017621040344 L 8.0 -0.938446044921875 L 9.0 -0.938446044921875" style="vector-effect: non-scaling-stroke;fill:none;" /></g></g></g></g></g></g></g></g></g></g><g style="stroke: black;stroke-width: 1.2000000000000002;" transform="matrix(0.0, -1.0, 1.0, 0.0, 0.0, 0.08278188526630402)"><g /></g></g><g transform="matrix(1.0, 0.0, 0.0, 1.0, 0.0, 0.16278188526630402)"><g transform="matrix(1.0, 0.0, 0.0, 1.0, -0.2, -0.03)"><g transform="matrix(1.0, 0.0, 0.0, 1.0, 0.075, 0.0)"><g transform="matrix(1.0, 0.0, 0.0, 1.0, 0.0, 0.03)"><g transform="matrix(0.01, 0.0, 0.0, 0.01, 0.0, 0.0)"><g><g><g transform="matrix(1.0, 0.0, 0.0, 1.0, 12.5, 0.0)"><g transform="matrix(1.0, 0.0, 0.0, 1.0, -20.0, -0.0)"><g><g style="fill: #d3d3d3;stroke: black;stroke-width: 1.2000000000000002;" transform="matrix(1.0, 0.0, 0.0, 1.0, 0.0, -3.0)"><path d="M 0.0 0.0 L 40.0 0.0 L 40.0 6.0 L 0.0 6.0 L 0.0 0.0 Z" style="vector-effect: non-scaling-stroke;" /></g><g transform="matrix(1.0, 0.0, 0.0, 1.0, 1.875, 0.0)"><g><g style="stroke: black;stroke-width: 1.2000000000000002;" transform="matrix(1.0, 0.0, 0.0, 1.0, 0.0, 0.0)"><g /></g><g style="fill: #ffa500;stroke: black;stroke-width: 1.2000000000000002;" transform="matrix(1.0, 0.0, 0.0, 1.0, 1.875, 0.0)"><text style="text-align:center; text-anchor:middle; dominant-baseline:middle;&#10;                      font-family:sans-serif; font-weight: bold;&#10;                      font-size:3px;&#10;                      vector-effect: non-scaling-stroke;" transform="translate(-5e-05, 0)">f(x)</text></g></g></g></g></g></g><g><g><g><g style="stroke: black;stroke-width: 1.2000000000000002;" transform="matrix(1.0, 0.0, 0.0, 1.0, 0.0, 0.0)"><path d="M 0.0 -2.0 L 0.0 2.0" style="vector-effect: non-scaling-stroke;fill:none;" /></g><g style="stroke: #808080;stroke-width: 0.6000000000000001;" transform="matrix(1.0, 0.0, 0.0, 1.0, 0.0, 0.0)"><path d="M 0.0 0.0 L 25.0 0.0" style="vector-effect: non-scaling-stroke;fill:none;" /></g></g><g style="stroke: black;stroke-width: 2.4000000000000004;" transform="matrix(1.0, 0.0, 0.0, 1.0, 0.0, 0.0)"><path d="M 0.0 -0.3591228425502777 L 1.0 -0.3591228425502777 L 1.0 -0.39641591906547546 L 2.0 -0.39641591906547546 L 2.0 -0.48681947588920593 L 3.0 -0.48681947588920593 L 3.0 -0.531780481338501 L 4.0 -0.531780481338501 L 4.0 -0.5336904525756836 L 5.0 -0.5336904525756836 L 5.0 -0.41938379406929016 L 6.0 -0.41938379406929016 L 6.0 -0.47089672088623047 L 7.0 -0.47089672088623047 L 7.0 -0.511618435382843 L 8.0 -0.511618435382843 L 8.0 -0.5721369981765747 L 9.0 -0.5721369981765747 L 9.0 -0.5465824007987976 L 10.0 -0.5465824007987976 L 10.0 -0.597511887550354 L 11.0 -0.597511887550354 L 11.0 -0.5713116526603699 L 12.0 -0.5713116526603699 L 12.0 -0.6480017304420471 L 13.0 -0.6480017304420471 L 13.0 -0.6333459615707397 L 14.0 -0.6333459615707397 L 14.0 -0.574889063835144 L 15.0 -0.574889063835144 L 15.0 -0.43985915184020996 L 16.0 -0.43985915184020996 L 16.0 -0.566417932510376 L 17.0 -0.566417932510376 L 17.0 -0.4868612587451935 L 18.0 -0.4868612587451935 L 18.0 -0.5349750518798828 L 19.0 -0.5349750518798828 L 19.0 -0.6267406940460205 L 20.0 -0.6267406940460205 L 20.0 -0.49618035554885864 L 21.0 -0.49618035554885864 L 21.0 -0.5940421223640442 L 22.0 -0.5940421223640442 L 22.0 -0.49017134308815 L 23.0 -0.49017134308815 L 23.0 -0.6792221665382385 L 24.0 -0.6792221665382385 L 24.0 -0.6494870185852051 L 25.0 -0.6494870185852051" style="vector-effect: non-scaling-stroke;fill:none;" /></g></g></g></g><g><g><g><g style="stroke: black;stroke-width: 1.2000000000000002;" transform="matrix(1.0, 0.0, 0.0, 1.0, 0.0, 0.0)"><path d="M 0.0 -2.0 L 0.0 2.0" style="vector-effect: non-scaling-stroke;fill:none;" /></g><g style="stroke: #808080;stroke-width: 0.6000000000000001;" transform="matrix(1.0, 0.0, 0.0, 1.0, 0.0, 0.0)"><path d="M 0.0 0.0 L 25.0 0.0" style="vector-effect: non-scaling-stroke;fill:none;" /></g></g><g style="stroke: black;stroke-width: 2.4000000000000004;" transform="matrix(1.0, 0.0, 0.0, 1.0, 0.0, 0.0)"><path d="M 0.0 -0.3591228425502777 L 1.0 -0.3591228425502777 L 1.0 -0.39641591906547546 L 2.0 -0.39641591906547546 L 2.0 -0.48681947588920593 L 3.0 -0.48681947588920593 L 3.0 -0.531780481338501 L 4.0 -0.531780481338501 L 4.0 -0.5336904525756836 L 5.0 -0.5336904525756836 L 5.0 -0.41938379406929016 L 6.0 -0.41938379406929016 L 6.0 -0.47089672088623047 L 7.0 -0.47089672088623047 L 7.0 -0.511618435382843 L 8.0 -0.511618435382843 L 8.0 -0.5721369981765747 L 9.0 -0.5721369981765747 L 9.0 -0.5465824007987976 L 10.0 -0.5465824007987976 L 10.0 -0.597511887550354 L 11.0 -0.597511887550354 L 11.0 -0.5713116526603699 L 12.0 -0.5713116526603699 L 12.0 -0.6480017304420471 L 13.0 -0.6480017304420471 L 13.0 -0.6333459615707397 L 14.0 -0.6333459615707397 L 14.0 -0.574889063835144 L 15.0 -0.574889063835144 L 15.0 -0.43985915184020996 L 16.0 -0.43985915184020996 L 16.0 -0.566417932510376 L 17.0 -0.566417932510376 L 17.0 -0.4868612587451935 L 18.0 -0.4868612587451935 L 18.0 -0.5349750518798828 L 19.0 -0.5349750518798828 L 19.0 -0.6267406940460205 L 20.0 -0.6267406940460205 L 20.0 -0.49618035554885864 L 21.0 -0.49618035554885864 L 21.0 -0.5940421223640442 L 22.0 -0.5940421223640442 L 22.0 -0.49017134308815 L 23.0 -0.49017134308815 L 23.0 -0.6792221665382385 L 24.0 -0.6792221665382385 L 24.0 -0.6494870185852051 L 25.0 -0.6494870185852051" style="vector-effect: non-scaling-stroke;fill:none;" /></g></g></g></g></g></g></g></g></g></g><g transform="matrix(1.0, 0.0, 0.0, 1.0, -0.125, 0.16278188526630402)"><g transform="matrix(1.0, 0.0, 0.0, 0.009999999999999995, 0.0, 0.0)"><g transform="matrix(0.01, 0.0, 0.0, 1.0, 0.0, 0.0)"><g><g><g style="fill: #ffffe0;stroke: #ffffe0;stroke-width: 1.2000000000000002;fill-opacity: 0.5;" transform="matrix(1.0, 0.0, 0.0, 1.0, 0.0, 0.0)"><path d="M 0.0 -2.0 L 0.0 2.0" style="vector-effect: non-scaling-stroke;fill:none;" /></g><g style="fill: #ffffe0;stroke: #ffffe0;stroke-width: 1.2000000000000002;fill-opacity: 0.5;" transform="matrix(1.0, 0.0, 0.0, 1.0, 0.0, 0.0)"><path d="M 0.0 -1.1757065057754517 L 1.0 -1.1757065057754517 L 1.0 -1.2129995822906494 L 2.0 -1.2129995822906494 L 2.0 -1.3004229068756104 L 3.0 -1.3004229068756104 L 3.0 -1.3602850437164307 L 4.0 -1.3602850437164307 L 4.0 -1.3621950149536133 L 5.0 -1.3621950149536133 L 5.0 -1.244908094406128 L 6.0 -1.244908094406128 L 6.0 -1.2845001220703125 L 7.0 -1.2845001220703125 L 7.0 -1.3282020092010498 L 8.0 -1.3282020092010498 L 8.0 -1.3767997026443481 L 9.0 -1.3767997026443481 L 9.0 -1.3452847003936768 L 10.0 -1.3452847003936768 L 10.0 -1.4021745920181274 L 11.0 -1.4021745920181274 L 11.0 -1.3998162746429443 L 12.0 -1.3998162746429443 L 12.0 -1.476506233215332 L 13.0 -1.476506233215332 L 13.0 -1.4558900594711304 L 14.0 -1.4558900594711304 L 14.0 -1.4153145551681519 L 15.0 -1.4153145551681519 L 15.0 -1.2504823207855225 L 16.0 -1.2504823207855225 L 16.0 -1.4008829593658447 L 17.0 -1.4008829593658447 L 17.0 -1.3004646301269531 L 18.0 -1.3004646301269531 L 18.0 -1.3336772918701172 L 19.0 -1.3336772918701172 L 19.0 -1.4731266498565674 L 20.0 -1.4731266498565674 L 20.0 -1.2889220714569092 L 21.0 -1.2889220714569092 L 21.0 -1.422546625137329 L 22.0 -1.422546625137329 L 22.0 -1.3127154111862183 L 23.0 -1.3127154111862183 L 23.0 -1.5196475982666016 L 24.0 -1.5196475982666016 L 24.0 -1.4481892585754395 L 25.0 -1.4481892585754395 L 25.0 -0.6494870185852051 L 24.0 -0.6494870185852051 L 24.0 -0.6792221665382385 L 23.0 -0.6792221665382385 L 23.0 -0.49017134308815 L 22.0 -0.49017134308815 L 22.0 -0.5940421223640442 L 21.0 -0.5940421223640442 L 21.0 -0.49618035554885864 L 20.0 -0.49618035554885864 L 20.0 -0.6267406940460205 L 19.0 -0.6267406940460205 L 19.0 -0.5349750518798828 L 18.0 -0.5349750518798828 L 18.0 -0.4868612587451935 L 17.0 -0.4868612587451935 L 17.0 -0.566417932510376 L 16.0 -0.566417932510376 L 16.0 -0.43985915184020996 L 15.0 -0.43985915184020996 L 15.0 -0.574889063835144 L 14.0 -0.574889063835144 L 14.0 -0.6333459615707397 L 13.0 -0.6333459615707397 L 13.0 -0.6480017304420471 L 12.0 -0.6480017304420471 L 12.0 -0.5713116526603699 L 11.0 -0.5713116526603699 L 11.0 -0.597511887550354 L 10.0 -0.597511887550354 L 10.0 -0.5465824007987976 L 9.0 -0.5465824007987976 L 9.0 -0.5721369981765747 L 8.0 -0.5721369981765747 L 8.0 -0.511618435382843 L 7.0 -0.511618435382843 L 7.0 -0.47089672088623047 L 6.0 -0.47089672088623047 L 6.0 -0.41938379406929016 L 5.0 -0.41938379406929016 L 5.0 -0.5336904525756836 L 4.0 -0.5336904525756836 L 4.0 -0.531780481338501 L 3.0 -0.531780481338501 L 3.0 -0.48681947588920593 L 2.0 -0.48681947588920593 L 2.0 -0.39641591906547546 L 1.0 -0.39641591906547546 L 1.0 -0.3591228425502777 L 0.0 -0.3591228425502777 Z" style="vector-effect: non-scaling-stroke;" /></g></g><g style="stroke: black;stroke-width: 1.2000000000000002;" transform="matrix(1.0, 0.0, 0.0, 1.0, 0.0, 0.0)"><path d="M 0.0 -0.3591228425502777 L 1.0 -0.3591228425502777 L 1.0 -0.39641591906547546 L 2.0 -0.39641591906547546 L 2.0 -0.48681947588920593 L 3.0 -0.48681947588920593 L 3.0 -0.531780481338501 L 4.0 -0.531780481338501 L 4.0 -0.5336904525756836 L 5.0 -0.5336904525756836 L 5.0 -0.41938379406929016 L 6.0 -0.41938379406929016 L 6.0 -0.47089672088623047 L 7.0 -0.47089672088623047 L 7.0 -0.511618435382843 L 8.0 -0.511618435382843 L 8.0 -0.5721369981765747 L 9.0 -0.5721369981765747 L 9.0 -0.5465824007987976 L 10.0 -0.5465824007987976 L 10.0 -0.597511887550354 L 11.0 -0.597511887550354 L 11.0 -0.5713116526603699 L 12.0 -0.5713116526603699 L 12.0 -0.6480017304420471 L 13.0 -0.6480017304420471 L 13.0 -0.6333459615707397 L 14.0 -0.6333459615707397 L 14.0 -0.574889063835144 L 15.0 -0.574889063835144 L 15.0 -0.43985915184020996 L 16.0 -0.43985915184020996 L 16.0 -0.566417932510376 L 17.0 -0.566417932510376 L 17.0 -0.4868612587451935 L 18.0 -0.4868612587451935 L 18.0 -0.5349750518798828 L 19.0 -0.5349750518798828 L 19.0 -0.6267406940460205 L 20.0 -0.6267406940460205 L 20.0 -0.49618035554885864 L 21.0 -0.49618035554885864 L 21.0 -0.5940421223640442 L 22.0 -0.5940421223640442 L 22.0 -0.49017134308815 L 23.0 -0.49017134308815 L 23.0 -0.6792221665382385 L 24.0 -0.6792221665382385 L 24.0 -0.6494870185852051 L 25.0 -0.6494870185852051" style="vector-effect: non-scaling-stroke;fill:none;" /></g></g></g></g></g></g><g transform="matrix(1.0, 0.0, 0.0, 1.0, -0.125, 0.16278188526630402)"><g transform="matrix(1.0, 0.0, 0.0, 0.009999999999999995, 0.0, 0.0)"><g transform="matrix(0.01, 0.0, 0.0, 1.0, 0.0, 0.0)"><g><g><g style="fill: #add8e6;stroke: #add8e6;stroke-width: 1.2000000000000002;fill-opacity: 0.5;" transform="matrix(1.0, 0.0, 0.0, 1.0, 0.0, 0.0)"><path d="M 0.0 -2.0 L 0.0 2.0" style="vector-effect: non-scaling-stroke;fill:none;" /></g><g style="fill: #add8e6;stroke: #add8e6;stroke-width: 1.2000000000000002;fill-opacity: 0.5;" transform="matrix(1.0, 0.0, 0.0, 1.0, 0.0, 0.0)"><path d="M 0.0 -1.2710739374160767 L 1.0 -1.2710739374160767 L 1.0 -1.3828728199005127 L 2.0 -1.3828728199005127 L 2.0 -1.6640112400054932 L 3.0 -1.6640112400054932 L 3.0 -1.8073198795318604 L 4.0 -1.8073198795318604 L 4.0 -1.8569135665893555 L 5.0 -1.8569135665893555 L 5.0 -1.4594848155975342 L 6.0 -1.4594848155975342 L 6.0 -1.5646419525146484 L 7.0 -1.5646419525146484 L 7.0 -1.8408019542694092 L 8.0 -1.8408019542694092 L 8.0 -1.931122899055481 L 9.0 -1.931122899055481 L 9.0 -1.9174892902374268 L 10.0 -1.9174892902374268 L 10.0 -1.9147745370864868 L 11.0 -1.9147745370864868 L 11.0 -2.0 L 12.0 -2.0 L 12.0 -2.0 L 13.0 -2.0 L 13.0 -2.0 L 14.0 -2.0 L 14.0 -2.0 L 15.0 -2.0 L 15.0 -1.691556692123413 L 16.0 -1.691556692123413 L 16.0 -1.9194433689117432 L 17.0 -1.9194433689117432 L 17.0 -1.7624006271362305 L 18.0 -1.7624006271362305 L 18.0 -1.9595260620117188 L 19.0 -1.9595260620117188 L 19.0 -2.0 L 20.0 -2.0 L 20.0 -1.7508580684661865 L 21.0 -1.7508580684661865 L 21.0 -2.0 L 22.0 -2.0 L 22.0 -1.8074339628219604 L 23.0 -1.8074339628219604 L 23.0 -2.0 L 24.0 -2.0 L 24.0 -2.0 L 25.0 -2.0 L 25.0 -0.6494870185852051 L 24.0 -0.6494870185852051 L 24.0 -0.6792221665382385 L 23.0 -0.6792221665382385 L 23.0 -0.49017134308815 L 22.0 -0.49017134308815 L 22.0 -0.5940421223640442 L 21.0 -0.5940421223640442 L 21.0 -0.49618035554885864 L 20.0 -0.49618035554885864 L 20.0 -0.6267406940460205 L 19.0 -0.6267406940460205 L 19.0 -0.5349750518798828 L 18.0 -0.5349750518798828 L 18.0 -0.4868612587451935 L 17.0 -0.4868612587451935 L 17.0 -0.566417932510376 L 16.0 -0.566417932510376 L 16.0 -0.43985915184020996 L 15.0 -0.43985915184020996 L 15.0 -0.574889063835144 L 14.0 -0.574889063835144 L 14.0 -0.6333459615707397 L 13.0 -0.6333459615707397 L 13.0 -0.6480017304420471 L 12.0 -0.6480017304420471 L 12.0 -0.5713116526603699 L 11.0 -0.5713116526603699 L 11.0 -0.597511887550354 L 10.0 -0.597511887550354 L 10.0 -0.5465824007987976 L 9.0 -0.5465824007987976 L 9.0 -0.5721369981765747 L 8.0 -0.5721369981765747 L 8.0 -0.511618435382843 L 7.0 -0.511618435382843 L 7.0 -0.47089672088623047 L 6.0 -0.47089672088623047 L 6.0 -0.41938379406929016 L 5.0 -0.41938379406929016 L 5.0 -0.5336904525756836 L 4.0 -0.5336904525756836 L 4.0 -0.531780481338501 L 3.0 -0.531780481338501 L 3.0 -0.48681947588920593 L 2.0 -0.48681947588920593 L 2.0 -0.39641591906547546 L 1.0 -0.39641591906547546 L 1.0 -0.3591228425502777 L 0.0 -0.3591228425502777 Z" style="vector-effect: non-scaling-stroke;" /></g></g><g style="stroke: black;stroke-width: 1.2000000000000002;" transform="matrix(1.0, 0.0, 0.0, 1.0, 0.0, 0.0)"><path d="M 0.0 -0.3591228425502777 L 1.0 -0.3591228425502777 L 1.0 -0.39641591906547546 L 2.0 -0.39641591906547546 L 2.0 -0.48681947588920593 L 3.0 -0.48681947588920593 L 3.0 -0.531780481338501 L 4.0 -0.531780481338501 L 4.0 -0.5336904525756836 L 5.0 -0.5336904525756836 L 5.0 -0.41938379406929016 L 6.0 -0.41938379406929016 L 6.0 -0.47089672088623047 L 7.0 -0.47089672088623047 L 7.0 -0.511618435382843 L 8.0 -0.511618435382843 L 8.0 -0.5721369981765747 L 9.0 -0.5721369981765747 L 9.0 -0.5465824007987976 L 10.0 -0.5465824007987976 L 10.0 -0.597511887550354 L 11.0 -0.597511887550354 L 11.0 -0.5713116526603699 L 12.0 -0.5713116526603699 L 12.0 -0.6480017304420471 L 13.0 -0.6480017304420471 L 13.0 -0.6333459615707397 L 14.0 -0.6333459615707397 L 14.0 -0.574889063835144 L 15.0 -0.574889063835144 L 15.0 -0.43985915184020996 L 16.0 -0.43985915184020996 L 16.0 -0.566417932510376 L 17.0 -0.566417932510376 L 17.0 -0.4868612587451935 L 18.0 -0.4868612587451935 L 18.0 -0.5349750518798828 L 19.0 -0.5349750518798828 L 19.0 -0.6267406940460205 L 20.0 -0.6267406940460205 L 20.0 -0.49618035554885864 L 21.0 -0.49618035554885864 L 21.0 -0.5940421223640442 L 22.0 -0.5940421223640442 L 22.0 -0.49017134308815 L 23.0 -0.49017134308815 L 23.0 -0.6792221665382385 L 24.0 -0.6792221665382385 L 24.0 -0.6494870185852051 L 25.0 -0.6494870185852051" style="vector-effect: non-scaling-stroke;fill:none;" /></g></g></g></g></g></g><g transform="matrix(1.0, 0.0, 0.0, 1.0, -0.125, 0.16278188526630402)"><g transform="matrix(1.0, 0.0, 0.0, 0.009999999999999995, 0.0, 0.0)"><g transform="matrix(0.01, 0.0, 0.0, 1.0, 0.0, 0.0)"><g><g><g style="fill: #ff8c00;stroke: #ff8c00;stroke-width: 1.2000000000000002;fill-opacity: 0.5;" transform="matrix(1.0, 0.0, 0.0, 1.0, 0.0, 0.0)"><path d="M 0.0 -2.0 L 0.0 2.0" style="vector-effect: non-scaling-stroke;fill:none;" /></g><g style="fill: #ff8c00;stroke: #ff8c00;stroke-width: 1.2000000000000002;fill-opacity: 0.5;" transform="matrix(1.0, 0.0, 0.0, 1.0, 0.0, 0.0)"><path d="M 0.0 -0.3591228425502777 L 1.0 -0.3591228425502777 L 1.0 -0.39641591906547546 L 2.0 -0.39641591906547546 L 2.0 -0.48681947588920593 L 3.0 -0.48681947588920593 L 3.0 -0.531780481338501 L 4.0 -0.531780481338501 L 4.0 -0.5336904525756836 L 5.0 -0.5336904525756836 L 5.0 -0.41938379406929016 L 6.0 -0.41938379406929016 L 6.0 -0.47089672088623047 L 7.0 -0.47089672088623047 L 7.0 -0.511618435382843 L 8.0 -0.511618435382843 L 8.0 -0.5721369981765747 L 9.0 -0.5721369981765747 L 9.0 -0.5465824007987976 L 10.0 -0.5465824007987976 L 10.0 -0.597511887550354 L 11.0 -0.597511887550354 L 11.0 -0.5713116526603699 L 12.0 -0.5713116526603699 L 12.0 -0.6480017304420471 L 13.0 -0.6480017304420471 L 13.0 -0.6333459615707397 L 14.0 -0.6333459615707397 L 14.0 -0.574889063835144 L 15.0 -0.574889063835144 L 15.0 -0.43985915184020996 L 16.0 -0.43985915184020996 L 16.0 -0.566417932510376 L 17.0 -0.566417932510376 L 17.0 -0.4868612587451935 L 18.0 -0.4868612587451935 L 18.0 -0.5349750518798828 L 19.0 -0.5349750518798828 L 19.0 -0.6267406940460205 L 20.0 -0.6267406940460205 L 20.0 -0.49618035554885864 L 21.0 -0.49618035554885864 L 21.0 -0.5940421223640442 L 22.0 -0.5940421223640442 L 22.0 -0.49017134308815 L 23.0 -0.49017134308815 L 23.0 -0.6792221665382385 L 24.0 -0.6792221665382385 L 24.0 -0.6494870185852051 L 25.0 -0.6494870185852051 L 25.0 -0.6494870185852051 L 24.0 -0.6494870185852051 L 24.0 -0.6792221665382385 L 23.0 -0.6792221665382385 L 23.0 -0.49017134308815 L 22.0 -0.49017134308815 L 22.0 -0.5940421223640442 L 21.0 -0.5940421223640442 L 21.0 -0.49618035554885864 L 20.0 -0.49618035554885864 L 20.0 -0.6267406940460205 L 19.0 -0.6267406940460205 L 19.0 -0.5349750518798828 L 18.0 -0.5349750518798828 L 18.0 -0.4868612587451935 L 17.0 -0.4868612587451935 L 17.0 -0.566417932510376 L 16.0 -0.566417932510376 L 16.0 -0.43985915184020996 L 15.0 -0.43985915184020996 L 15.0 -0.574889063835144 L 14.0 -0.574889063835144 L 14.0 -0.6333459615707397 L 13.0 -0.6333459615707397 L 13.0 -0.6480017304420471 L 12.0 -0.6480017304420471 L 12.0 -0.5713116526603699 L 11.0 -0.5713116526603699 L 11.0 -0.597511887550354 L 10.0 -0.597511887550354 L 10.0 -0.5465824007987976 L 9.0 -0.5465824007987976 L 9.0 -0.5721369981765747 L 8.0 -0.5721369981765747 L 8.0 -0.511618435382843 L 7.0 -0.511618435382843 L 7.0 -0.47089672088623047 L 6.0 -0.47089672088623047 L 6.0 -0.41938379406929016 L 5.0 -0.41938379406929016 L 5.0 -0.5336904525756836 L 4.0 -0.5336904525756836 L 4.0 -0.531780481338501 L 3.0 -0.531780481338501 L 3.0 -0.48681947588920593 L 2.0 -0.48681947588920593 L 2.0 -0.39641591906547546 L 1.0 -0.39641591906547546 L 1.0 -0.3591228425502777 L 0.0 -0.3591228425502777 Z" style="vector-effect: non-scaling-stroke;" /></g></g><g style="stroke: black;stroke-width: 1.2000000000000002;" transform="matrix(1.0, 0.0, 0.0, 1.0, 0.0, 0.0)"><path d="M 0.0 -0.3591228425502777 L 1.0 -0.3591228425502777 L 1.0 -0.39641591906547546 L 2.0 -0.39641591906547546 L 2.0 -0.48681947588920593 L 3.0 -0.48681947588920593 L 3.0 -0.531780481338501 L 4.0 -0.531780481338501 L 4.0 -0.5336904525756836 L 5.0 -0.5336904525756836 L 5.0 -0.41938379406929016 L 6.0 -0.41938379406929016 L 6.0 -0.47089672088623047 L 7.0 -0.47089672088623047 L 7.0 -0.511618435382843 L 8.0 -0.511618435382843 L 8.0 -0.5721369981765747 L 9.0 -0.5721369981765747 L 9.0 -0.5465824007987976 L 10.0 -0.5465824007987976 L 10.0 -0.597511887550354 L 11.0 -0.597511887550354 L 11.0 -0.5713116526603699 L 12.0 -0.5713116526603699 L 12.0 -0.6480017304420471 L 13.0 -0.6480017304420471 L 13.0 -0.6333459615707397 L 14.0 -0.6333459615707397 L 14.0 -0.574889063835144 L 15.0 -0.574889063835144 L 15.0 -0.43985915184020996 L 16.0 -0.43985915184020996 L 16.0 -0.566417932510376 L 17.0 -0.566417932510376 L 17.0 -0.4868612587451935 L 18.0 -0.4868612587451935 L 18.0 -0.5349750518798828 L 19.0 -0.5349750518798828 L 19.0 -0.6267406940460205 L 20.0 -0.6267406940460205 L 20.0 -0.49618035554885864 L 21.0 -0.49618035554885864 L 21.0 -0.5940421223640442 L 22.0 -0.5940421223640442 L 22.0 -0.49017134308815 L 23.0 -0.49017134308815 L 23.0 -0.6792221665382385 L 24.0 -0.6792221665382385 L 24.0 -0.6494870185852051 L 25.0 -0.6494870185852051" style="vector-effect: non-scaling-stroke;fill:none;" /></g></g></g></g></g></g><g transform="matrix(1.0, 0.0, 0.0, 1.0, -0.125, 0.16278188526630402)"><g transform="matrix(1.0, 0.0, 0.0, 0.009999999999999995, 0.0, 0.0)"><g transform="matrix(0.01, 0.0, 0.0, 1.0, 0.0, 0.0)"><g><g><g style="fill: #0000ff;stroke: #0000ff;stroke-width: 1.2000000000000002;fill-opacity: 0.5;" transform="matrix(1.0, 0.0, 0.0, 1.0, 0.0, 0.0)"><path d="M 0.0 -2.0 L 0.0 2.0" style="vector-effect: non-scaling-stroke;fill:none;" /></g><g style="fill: #0000ff;stroke: #0000ff;stroke-width: 1.2000000000000002;fill-opacity: 0.5;" transform="matrix(1.0, 0.0, 0.0, 1.0, 0.0, 0.0)"><path d="M 0.0 -0.3591228425502777 L 1.0 -0.3591228425502777 L 1.0 -0.39641591906547546 L 2.0 -0.39641591906547546 L 2.0 -0.48681947588920593 L 3.0 -0.48681947588920593 L 3.0 -0.531780481338501 L 4.0 -0.531780481338501 L 4.0 -0.5336904525756836 L 5.0 -0.5336904525756836 L 5.0 -0.41938379406929016 L 6.0 -0.41938379406929016 L 6.0 -0.47089672088623047 L 7.0 -0.47089672088623047 L 7.0 -0.511618435382843 L 8.0 -0.511618435382843 L 8.0 -0.5721369981765747 L 9.0 -0.5721369981765747 L 9.0 -0.5465824007987976 L 10.0 -0.5465824007987976 L 10.0 -0.597511887550354 L 11.0 -0.597511887550354 L 11.0 -0.5713116526603699 L 12.0 -0.5713116526603699 L 12.0 -0.6480017304420471 L 13.0 -0.6480017304420471 L 13.0 -0.6333459615707397 L 14.0 -0.6333459615707397 L 14.0 -0.574889063835144 L 15.0 -0.574889063835144 L 15.0 -0.43985915184020996 L 16.0 -0.43985915184020996 L 16.0 -0.566417932510376 L 17.0 -0.566417932510376 L 17.0 -0.4868612587451935 L 18.0 -0.4868612587451935 L 18.0 -0.5349750518798828 L 19.0 -0.5349750518798828 L 19.0 -0.6267406940460205 L 20.0 -0.6267406940460205 L 20.0 -0.49618035554885864 L 21.0 -0.49618035554885864 L 21.0 -0.5940421223640442 L 22.0 -0.5940421223640442 L 22.0 -0.49017134308815 L 23.0 -0.49017134308815 L 23.0 -0.6792221665382385 L 24.0 -0.6792221665382385 L 24.0 -0.6494870185852051 L 25.0 -0.6494870185852051 L 25.0 -0.6494870185852051 L 24.0 -0.6494870185852051 L 24.0 -0.6792221665382385 L 23.0 -0.6792221665382385 L 23.0 -0.49017134308815 L 22.0 -0.49017134308815 L 22.0 -0.5940421223640442 L 21.0 -0.5940421223640442 L 21.0 -0.49618035554885864 L 20.0 -0.49618035554885864 L 20.0 -0.6267406940460205 L 19.0 -0.6267406940460205 L 19.0 -0.5349750518798828 L 18.0 -0.5349750518798828 L 18.0 -0.4868612587451935 L 17.0 -0.4868612587451935 L 17.0 -0.566417932510376 L 16.0 -0.566417932510376 L 16.0 -0.43985915184020996 L 15.0 -0.43985915184020996 L 15.0 -0.574889063835144 L 14.0 -0.574889063835144 L 14.0 -0.6333459615707397 L 13.0 -0.6333459615707397 L 13.0 -0.6480017304420471 L 12.0 -0.6480017304420471 L 12.0 -0.5713116526603699 L 11.0 -0.5713116526603699 L 11.0 -0.597511887550354 L 10.0 -0.597511887550354 L 10.0 -0.5465824007987976 L 9.0 -0.5465824007987976 L 9.0 -0.5721369981765747 L 8.0 -0.5721369981765747 L 8.0 -0.511618435382843 L 7.0 -0.511618435382843 L 7.0 -0.47089672088623047 L 6.0 -0.47089672088623047 L 6.0 -0.41938379406929016 L 5.0 -0.41938379406929016 L 5.0 -0.5336904525756836 L 4.0 -0.5336904525756836 L 4.0 -0.531780481338501 L 3.0 -0.531780481338501 L 3.0 -0.48681947588920593 L 2.0 -0.48681947588920593 L 2.0 -0.39641591906547546 L 1.0 -0.39641591906547546 L 1.0 -0.3591228425502777 L 0.0 -0.3591228425502777 Z" style="vector-effect: non-scaling-stroke;" /></g></g><g style="stroke: black;stroke-width: 1.2000000000000002;" transform="matrix(1.0, 0.0, 0.0, 1.0, 0.0, 0.0)"><path d="M 0.0 -0.3591228425502777 L 1.0 -0.3591228425502777 L 1.0 -0.39641591906547546 L 2.0 -0.39641591906547546 L 2.0 -0.48681947588920593 L 3.0 -0.48681947588920593 L 3.0 -0.531780481338501 L 4.0 -0.531780481338501 L 4.0 -0.5336904525756836 L 5.0 -0.5336904525756836 L 5.0 -0.41938379406929016 L 6.0 -0.41938379406929016 L 6.0 -0.47089672088623047 L 7.0 -0.47089672088623047 L 7.0 -0.511618435382843 L 8.0 -0.511618435382843 L 8.0 -0.5721369981765747 L 9.0 -0.5721369981765747 L 9.0 -0.5465824007987976 L 10.0 -0.5465824007987976 L 10.0 -0.597511887550354 L 11.0 -0.597511887550354 L 11.0 -0.5713116526603699 L 12.0 -0.5713116526603699 L 12.0 -0.6480017304420471 L 13.0 -0.6480017304420471 L 13.0 -0.6333459615707397 L 14.0 -0.6333459615707397 L 14.0 -0.574889063835144 L 15.0 -0.574889063835144 L 15.0 -0.43985915184020996 L 16.0 -0.43985915184020996 L 16.0 -0.566417932510376 L 17.0 -0.566417932510376 L 17.0 -0.4868612587451935 L 18.0 -0.4868612587451935 L 18.0 -0.5349750518798828 L 19.0 -0.5349750518798828 L 19.0 -0.6267406940460205 L 20.0 -0.6267406940460205 L 20.0 -0.49618035554885864 L 21.0 -0.49618035554885864 L 21.0 -0.5940421223640442 L 22.0 -0.5940421223640442 L 22.0 -0.49017134308815 L 23.0 -0.49017134308815 L 23.0 -0.6792221665382385 L 24.0 -0.6792221665382385 L 24.0 -0.6494870185852051 L 25.0 -0.6494870185852051" style="vector-effect: non-scaling-stroke;fill:none;" /></g></g></g></g></g></g></g></g><g /></g></g></g></g></svg>