<?xml version="1.0" encoding="utf-8" ?>
<svg baseProfile="full" height="300" version="1.1" width="1056" xmlns="http://www.w3.org/2000/svg" xmlns:ev="http://www.w3.org/2001/xml-events" xmlns:xlink="http://www.w3.org/1999/xlink"><defs><marker id="arrow" markerHeight="3.5" markerWidth="5" orient="auto" refX="5.0" refY="1.7"><polygon points="0,0 5,1.75 0,3.5" /></marker></defs><g style="fill:white;"><g transform="matrix(1.0, 0.0, 0.0, 1.0, 528.4090909090908, 150.0)"><g transform="matrix(1082.2510822510822, 0.0, 0.0, 1082.2510822510822, 0.0, 0.0)"><g><g transform="matrix(1.0, 0.0, 0.0, 1.0, -0.0, -0.08000000000000002)"><g><g><g style="fill: #ffffff;stroke: black;stroke-width: 1.2000000000000002;" transform="matrix(1.0, 0.0, 0.0, 1.0, -0.4649999999999999, -0.052000000000000005)"><path d="M 0.0 0.0 L 0.9299999999999998 0.0 L 0.9299999999999998 0.264 L 0.0 0.264 L 0.0 0.0 Z" style="vector-effect: non-scaling-stroke;" /></g><g><g><g><g><g><g><g><g transform="matrix(1.0, 0.0, 0.0, 1.0, -0.4149999999999999, -0.03)"><g><g><g transform="matrix(1.0, 0.0, 0.0, 1.0, 0.075, 0.0)"><g transform="matrix(1.0, 0.0, 0.0, 1.0, 0.0, 0.03)"><g transform="matrix(0.01, 0.0, 0.0, 0.01, 0.0, 0.0)"><g><g><g transform="matrix(1.0, 0.0, 0.0, 1.0, 20.0, 0.0)"><g transform="matrix(1.0, 0.0, 0.0, 1.0, -27.5, -0.0)"><g><g style="fill: #d3d3d3;stroke: black;stroke-width: 1.2000000000000002;" transform="matrix(1.0, 0.0, 0.0, 1.0, 0.0, -3.0)"><path d="M 0.0 0.0 L 55.0 0.0 L 55.0 6.0 L 0.0 6.0 L 0.0 0.0 Z" style="vector-effect: non-scaling-stroke;" /></g><g transform="matrix(1.0, 0.0, 0.0, 1.0, 1.875, 0.0)"><g><g style="stroke: black;stroke-width: 1.2000000000000002;" transform="matrix(1.0, 0.0, 0.0, 1.0, 0.0, 0.0)"><g /></g><g style="fill: #ffa500;stroke: black;stroke-width: 1.2000000000000002;" transform="matrix(1.0, 0.0, 0.0, 1.0, 1.875, 0.0)"><text style="text-align:center; text-anchor:middle; dominant-baseline:middle;&#10;                      font-family:sans-serif; font-weight: bold;&#10;                      font-size:3px;&#10;                      vector-effect: non-scaling-stroke;" transform="translate(-5e-05, 0)">x</text></g></g></g></g></g></g><g><g><g><g><g><g><g><g style="stroke: black;stroke-width: 1.2000000000000002;" transform="matrix(1.0, 0.0, 0.0, 1.0, 0.0, 0.0)"><path d="M 0.0 -2.0 L 0.0 2.0" style="vector-effect: non-scaling-stroke;fill:none;" /></g><g style="stroke: #808080;stroke-width: 0.6000000000000001;" transform="matrix(1.0, 0.0, 0.0, 1.0, 0.0, 0.0)"><path d="M 0.0 0.0 L 40.0 0.0" style="vector-effect: non-scaling-stroke;fill:none;" /></g></g><g style="stroke: black;stroke-width: 2.4000000000000004;" transform="matrix(1.0, 0.0, 0.0, 1.0, 0.0, 0.0)"><path d="M 0.0 0.005311056971549988 L 1.0 0.005311056971549988 L 1.0 0.6617961525917053 L 2.0 0.6617961525917053 L 2.0 -0.029221951961517334 L 3.0 -0.029221951961517334 L 3.0 -0.5955145359039307 L 4.0 -0.5955145359039307 L 4.0 -0.28756967186927795 L 5.0 -0.28756967186927795 L 5.0 -1.1414746046066284 L 6.0 -1.1414746046066284 L 6.0 0.029801758006215096 L 7.0 0.029801758006215096 L 7.0 -0.5384460091590881 L 8.0 -0.5384460091590881 L 8.0 -0.7264551520347595 L 9.0 -0.7264551520347595 L 9.0 -0.7654497623443604 L 10.0 -0.7654497623443604 L 10.0 0.06270832568407059 L 11.0 0.06270832568407059 L 11.0 -1.5212970972061157 L 12.0 -1.5212970972061157 L 12.0 -0.8081479072570801 L 13.0 -0.8081479072570801 L 13.0 -1.4235832691192627 L 14.0 -1.4235832691192627 L 14.0 -0.31076791882514954 L 15.0 -0.31076791882514954 L 15.0 -0.3787614107131958 L 16.0 -0.3787614107131958 L 16.0 -1.1808154582977295 L 17.0 -1.1808154582977295 L 17.0 -0.852485179901123 L 18.0 -0.852485179901123 L 18.0 -1.745559573173523 L 19.0 -1.745559573173523 L 19.0 -0.6974199414253235 L 20.0 -0.6974199414253235 L 20.0 -0.5488577485084534 L 21.0 -0.5488577485084534 L 21.0 -0.821071445941925 L 22.0 -0.821071445941925 L 22.0 -0.8402944207191467 L 23.0 -0.8402944207191467 L 23.0 -0.12001878023147583 L 24.0 -0.12001878023147583 L 24.0 -1.3758478164672852 L 25.0 -1.3758478164672852 L 25.0 -0.7104760408401489 L 26.0 -0.7104760408401489 L 26.0 -0.8866549730300903 L 27.0 -0.8866549730300903 L 27.0 -0.5337659120559692 L 28.0 -0.5337659120559692 L 28.0 -1.97091805934906 L 29.0 -1.97091805934906 L 29.0 -1.27131187915802 L 30.0 -1.27131187915802 L 30.0 -1.3876806497573853 L 31.0 -1.3876806497573853 L 31.0 -1.7807198762893677 L 32.0 -1.7807198762893677 L 32.0 -0.7823610305786133 L 33.0 -0.7823610305786133 L 33.0 -1.4078423976898193 L 34.0 -1.4078423976898193 L 34.0 -1.8414782285690308 L 35.0 -1.8414782285690308 L 35.0 -0.1485409289598465 L 36.0 -0.1485409289598465 L 36.0 -1.0431902408599854 L 37.0 -1.0431902408599854 L 37.0 -0.09622325748205185 L 38.0 -0.09622325748205185 L 38.0 -0.26951152086257935 L 39.0 -0.26951152086257935 L 39.0 -1.3328336477279663 L 40.0 -1.3328336477279663" style="vector-effect: non-scaling-stroke;fill:none;" /></g></g><g style="stroke: black;stroke-width: 1.2000000000000002;" transform="matrix(1.0, 0.0, 0.0, 1.0, 0.0, 0.0)"><path d="M 0.0 -2.0 L 0.0 2.0" style="vector-effect: non-scaling-stroke;fill:none;" /></g></g><g style="stroke: black;stroke-width: 1.2000000000000002;" transform="matrix(1.0, 0.0, 0.0, 1.0, 0.0, 0.0)"><path d="M 10.0 -2.0 L 10.0 2.0" style="vector-effect: non-scaling-stroke;fill:none;" /></g></g><g style="stroke: black;stroke-width: 1.2000000000000002;" transform="matrix(1.0, 0.0, 0.0, 1.0, 0.0, 0.0)"><path d="M 20.0 -2.0 L 20.0 2.0" style="vector-effect: non-scaling-stroke;fill:none;" /></g></g><g style="stroke: black;stroke-width: 1.2000000000000002;" transform="matrix(1.0, 0.0, 0.0, 1.0, 0.0, 0.0)"><path d="M 30.0 -2.0 L 30.0 2.0" style="vector-effect: non-scaling-stroke;fill:none;" /></g></g></g></g><g><g><g><g><g><g><g><g style="stroke: black;stroke-width: 1.2000000000000002;" transform="matrix(1.0, 0.0, 0.0, 1.0, 0.0, 0.0)"><path d="M 0.0 -2.0 L 0.0 2.0" style="vector-effect: non-scaling-stroke;fill:none;" /></g><g style="stroke: #808080;stroke-width: 0.6000000000000001;" transform="matrix(1.0, 0.0, 0.0, 1.0, 0.0, 0.0)"><path d="M 0.0 0.0 L 40.0 0.0" style="vector-effect: non-scaling-stroke;fill:none;" /></g></g><g style="stroke: black;stroke-width: 2.4000000000000004;" transform="matrix(1.0, 0.0, 0.0, 1.0, 0.0, 0.0)"><path d="M 0.0 0.005311056971549988 L 1.0 0.005311056971549988 L 1.0 0.6617961525917053 L 2.0 0.6617961525917053 L 2.0 -0.029221951961517334 L 3.0 -0.029221951961517334 L 3.0 -0.5955145359039307 L 4.0 -0.5955145359039307 L 4.0 -0.28756967186927795 L 5.0 -0.28756967186927795 L 5.0 -1.1414746046066284 L 6.0 -1.1414746046066284 L 6.0 0.029801758006215096 L 7.0 0.029801758006215096 L 7.0 -0.5384460091590881 L 8.0 -0.5384460091590881 L 8.0 -0.7264551520347595 L 9.0 -0.7264551520347595 L 9.0 -0.7654497623443604 L 10.0 -0.7654497623443604 L 10.0 0.06270832568407059 L 11.0 0.06270832568407059 L 11.0 -1.5212970972061157 L 12.0 -1.5212970972061157 L 12.0 -0.8081479072570801 L 13.0 -0.8081479072570801 L 13.0 -1.4235832691192627 L 14.0 -1.4235832691192627 L 14.0 -0.31076791882514954 L 15.0 -0.31076791882514954 L 15.0 -0.3787614107131958 L 16.0 -0.3787614107131958 L 16.0 -1.1808154582977295 L 17.0 -1.1808154582977295 L 17.0 -0.852485179901123 L 18.0 -0.852485179901123 L 18.0 -1.745559573173523 L 19.0 -1.745559573173523 L 19.0 -0.6974199414253235 L 20.0 -0.6974199414253235 L 20.0 -0.5488577485084534 L 21.0 -0.5488577485084534 L 21.0 -0.821071445941925 L 22.0 -0.821071445941925 L 22.0 -0.8402944207191467 L 23.0 -0.8402944207191467 L 23.0 -0.12001878023147583 L 24.0 -0.12001878023147583 L 24.0 -1.3758478164672852 L 25.0 -1.3758478164672852 L 25.0 -0.7104760408401489 L 26.0 -0.7104760408401489 L 26.0 -0.8866549730300903 L 27.0 -0.8866549730300903 L 27.0 -0.5337659120559692 L 28.0 -0.5337659120559692 L 28.0 -1.97091805934906 L 29.0 -1.97091805934906 L 29.0 -1.27131187915802 L 30.0 -1.27131187915802 L 30.0 -1.3876806497573853 L 31.0 -1.3876806497573853 L 31.0 -1.7807198762893677 L 32.0 -1.7807198762893677 L 32.0 -0.7823610305786133 L 33.0 -0.7823610305786133 L 33.0 -1.4078423976898193 L 34.0 -1.4078423976898193 L 34.0 -1.8414782285690308 L 35.0 -1.8414782285690308 L 35.0 -0.1485409289598465 L 36.0 -0.1485409289598465 L 36.0 -1.0431902408599854 L 37.0 -1.0431902408599854 L 37.0 -0.09622325748205185 L 38.0 -0.09622325748205185 L 38.0 -0.26951152086257935 L 39.0 -0.26951152086257935 L 39.0 -1.3328336477279663 L 40.0 -1.3328336477279663" style="vector-effect: non-scaling-stroke;fill:none;" /></g></g><g style="stroke: black;stroke-width: 1.2000000000000002;" transform="matrix(1.0, 0.0, 0.0, 1.0, 0.0, 0.0)"><path d="M 0.0 -2.0 L 0.0 2.0" style="vector-effect: non-scaling-stroke;fill:none;" /></g></g><g style="stroke: black;stroke-width: 1.2000000000000002;" transform="matrix(1.0, 0.0, 0.0, 1.0, 0.0, 0.0)"><path d="M 10.0 -2.0 L 10.0 2.0" style="vector-effect: non-scaling-stroke;fill:none;" /></g></g><g style="stroke: black;stroke-width: 1.2000000000000002;" transform="matrix(1.0, 0.0, 0.0, 1.0, 0.0, 0.0)"><path d="M 20.0 -2.0 L 20.0 2.0" style="vector-effect: non-scaling-stroke;fill:none;" /></g></g><g style="stroke: black;stroke-width: 1.2000000000000002;" transform="matrix(1.0, 0.0, 0.0, 1.0, 0.0, 0.0)"><path d="M 30.0 -2.0 L 30.0 2.0" style="vector-effect: non-scaling-stroke;fill:none;" /></g></g></g></g></g></g></g><g style="stroke: black;stroke-width: 1.2000000000000002;" transform="matrix(1.0, 0.0, 0.0, 1.0, 0.565, 0.0)"><g /></g></g><g transform="matrix(1.0, 0.0, 0.0, 1.0, 0.58, 0.0)"><g transform="matrix(1.0, 0.0, 0.0, 1.0, 0.075, 0.0)"><g transform="matrix(1.0, 0.0, 0.0, 1.0, 0.0, 0.03)"><g transform="matrix(0.01, 0.0, 0.0, 0.01, 0.0, 0.0)"><g><g><g transform="matrix(1.0, 0.0, 0.0, 1.0, 5.0, 0.0)"><g transform="matrix(1.0, 0.0, 0.0, 1.0, -12.5, -0.0)"><g><g style="fill: #d3d3d3;stroke: black;stroke-width: 1.2000000000000002;" transform="matrix(1.0, 0.0, 0.0, 1.0, 0.0, -3.0)"><path d="M 0.0 0.0 L 25.0 0.0 L 25.0 6.0 L 0.0 6.0 L 0.0 0.0 Z" style="vector-effect: non-scaling-stroke;" /></g><g transform="matrix(1.0, 0.0, 0.0, 1.0, 1.875, 0.0)"><g><g style="stroke: black;stroke-width: 1.2000000000000002;" transform="matrix(1.0, 0.0, 0.0, 1.0, 0.0, 0.0)"><g /></g><g style="fill: #ffa500;stroke: black;stroke-width: 1.2000000000000002;" transform="matrix(1.0, 0.0, 0.0, 1.0, 1.875, 0.0)"><text style="text-align:center; text-anchor:middle; dominant-baseline:middle;&#10;                      font-family:sans-serif; font-weight: bold;&#10;                      font-size:3px;&#10;                      vector-effect: non-scaling-stroke;" transform="translate(-5e-05, 0)">y</text></g></g></g></g></g></g><g><g><g><g style="stroke: black;stroke-width: 1.2000000000000002;" transform="matrix(1.0, 0.0, 0.0, 1.0, 0.0, 0.0)"><path d="M 0.0 -2.0 L 0.0 2.0" style="vector-effect: non-scaling-stroke;fill:none;" /></g><g style="stroke: #808080;stroke-width: 0.6000000000000001;" transform="matrix(1.0, 0.0, 0.0, 1.0, 0.0, 0.0)"><path d="M 0.0 0.0 L 10.0 0.0" style="vector-effect: non-scaling-stroke;fill:none;" /></g></g><g style="stroke: black;stroke-width: 2.4000000000000004;" transform="matrix(1.0, 0.0, 0.0, 1.0, 0.0, 0.0)"><path d="M 0.0 -0.8747767806053162 L 1.0 -0.8747767806053162 L 1.0 -1.4892016649246216 L 2.0 -1.4892016649246216 L 2.0 0.11869626492261887 L 3.0 0.11869626492261887 L 3.0 -1.2941701412200928 L 4.0 -1.2941701412200928 L 4.0 -0.487885057926178 L 5.0 -0.487885057926178 L 5.0 -1.3998547792434692 L 6.0 -1.3998547792434692 L 6.0 -0.6406936049461365 L 7.0 -0.6406936049461365 L 7.0 -1.6183596849441528 L 8.0 -1.6183596849441528 L 8.0 -1.5249296426773071 L 9.0 -1.5249296426773071 L 9.0 -0.435707688331604 L 10.0 -0.435707688331604" style="vector-effect: non-scaling-stroke;fill:none;" /></g></g></g></g><g><g><g><g style="stroke: black;stroke-width: 1.2000000000000002;" transform="matrix(1.0, 0.0, 0.0, 1.0, 0.0, 0.0)"><path d="M 0.0 -2.0 L 0.0 2.0" style="vector-effect: non-scaling-stroke;fill:none;" /></g><g style="stroke: #808080;stroke-width: 0.6000000000000001;" transform="matrix(1.0, 0.0, 0.0, 1.0, 0.0, 0.0)"><path d="M 0.0 0.0 L 10.0 0.0" style="vector-effect: non-scaling-stroke;fill:none;" /></g></g><g style="stroke: black;stroke-width: 2.4000000000000004;" transform="matrix(1.0, 0.0, 0.0, 1.0, 0.0, 0.0)"><path d="M 0.0 -0.8747767806053162 L 1.0 -0.8747767806053162 L 1.0 -1.4892016649246216 L 2.0 -1.4892016649246216 L 2.0 0.11869626492261887 L 3.0 0.11869626492261887 L 3.0 -1.2941701412200928 L 4.0 -1.2941701412200928 L 4.0 -0.487885057926178 L 5.0 -0.487885057926178 L 5.0 -1.3998547792434692 L 6.0 -1.3998547792434692 L 6.0 -0.6406936049461365 L 7.0 -0.6406936049461365 L 7.0 -1.6183596849441528 L 8.0 -1.6183596849441528 L 8.0 -1.5249296426773071 L 9.0 -1.5249296426773071 L 9.0 -0.435707688331604 L 10.0 -0.435707688331604" style="vector-effect: non-scaling-stroke;fill:none;" /></g></g></g></g></g></g></g></g></g></g><g style="stroke: black;stroke-width: 1.2000000000000002;" transform="matrix(0.0, -1.0, 1.0, 0.0, 0.0, 0.08)"><g /></g></g><g transform="matrix(1.0, 0.0, 0.0, 1.0, 0.0, 0.16)"><g transform="matrix(1.0, 0.0, 0.0, 1.0, -0.125, -0.03)"><g transform="matrix(1.0, 0.0, 0.0, 1.0, 0.075, 0.0)"><g transform="matrix(1.0, 0.0, 0.0, 1.0, 0.0, 0.03)"><g transform="matrix(0.01, 0.0, 0.0, 0.01, 0.0, 0.0)"><g><g><g transform="matrix(1.0, 0.0, 0.0, 1.0, 5.0, 0.0)"><g transform="matrix(1.0, 0.0, 0.0, 1.0, -12.5, -0.0)"><g><g style="fill: #d3d3d3;stroke: black;stroke-width: 1.2000000000000002;" transform="matrix(1.0, 0.0, 0.0, 1.0, 0.0, -3.0)"><path d="M 0.0 0.0 L 25.0 0.0 L 25.0 6.0 L 0.0 6.0 L 0.0 0.0 Z" style="vector-effect: non-scaling-stroke;" /></g><g transform="matrix(1.0, 0.0, 0.0, 1.0, 1.875, 0.0)"><g><g style="stroke: black;stroke-width: 1.2000000000000002;" transform="matrix(1.0, 0.0, 0.0, 1.0, 0.0, 0.0)"><g /></g><g style="fill: #ffa500;stroke: black;stroke-width: 1.2000000000000002;" transform="matrix(1.0, 0.0, 0.0, 1.0, 1.875, 0.0)"><text style="text-align:center; text-anchor:middle; dominant-baseline:middle;&#10;                      font-family:sans-serif; font-weight: bold;&#10;                      font-size:3px;&#10;                      vector-effect: non-scaling-stroke;" transform="translate(-5e-05, 0)">f(x)</text></g></g></g></g></g></g><g><g><g><g style="stroke: black;stroke-width: 1.2000000000000002;" transform="matrix(1.0, 0.0, 0.0, 1.0, 0.0, 0.0)"><path d="M 0.0 -2.0 L 0.0 2.0" style="vector-effect: non-scaling-stroke;fill:none;" /></g><g style="stroke: #808080;stroke-width: 0.6000000000000001;" transform="matrix(1.0, 0.0, 0.0, 1.0, 0.0, 0.0)"><path d="M 0.0 0.0 L 10.0 0.0" style="vector-effect: non-scaling-stroke;fill:none;" /></g></g><g style="stroke: black;stroke-width: 2.4000000000000004;" transform="matrix(1.0, 0.0, 0.0, 1.0, 0.0, 0.0)"><path d="M 0.0 -0.46712976694107056 L 1.0 -0.46712976694107056 L 1.0 -0.8653230667114258 L 2.0 -0.8653230667114258 L 2.0 -0.6150063276290894 L 3.0 -0.6150063276290894 L 3.0 -0.8867397308349609 L 4.0 -0.8867397308349609 L 4.0 -0.9539159536361694 L 5.0 -0.9539159536361694 L 5.0 -0.5948132276535034 L 6.0 -0.5948132276535034 L 6.0 -0.7702147364616394 L 7.0 -0.7702147364616394 L 7.0 -0.5052300691604614 L 8.0 -0.5052300691604614 L 8.0 -1.1781110763549805 L 9.0 -1.1781110763549805 L 9.0 -1.0167537927627563 L 10.0 -1.0167537927627563" style="vector-effect: non-scaling-stroke;fill:none;" /></g></g></g></g><g><g><g><g style="stroke: black;stroke-width: 1.2000000000000002;" transform="matrix(1.0, 0.0, 0.0, 1.0, 0.0, 0.0)"><path d="M 0.0 -2.0 L 0.0 2.0" style="vector-effect: non-scaling-stroke;fill:none;" /></g><g style="stroke: #808080;stroke-width: 0.6000000000000001;" transform="matrix(1.0, 0.0, 0.0, 1.0, 0.0, 0.0)"><path d="M 0.0 0.0 L 10.0 0.0" style="vector-effect: non-scaling-stroke;fill:none;" /></g></g><g style="stroke: black;stroke-width: 2.4000000000000004;" transform="matrix(1.0, 0.0, 0.0, 1.0, 0.0, 0.0)"><path d="M 0.0 -0.46712976694107056 L 1.0 -0.46712976694107056 L 1.0 -0.8653230667114258 L 2.0 -0.8653230667114258 L 2.0 -0.6150063276290894 L 3.0 -0.6150063276290894 L 3.0 -0.8867397308349609 L 4.0 -0.8867397308349609 L 4.0 -0.9539159536361694 L 5.0 -0.9539159536361694 L 5.0 -0.5948132276535034 L 6.0 -0.5948132276535034 L 6.0 -0.7702147364616394 L 7.0 -0.7702147364616394 L 7.0 -0.5052300691604614 L 8.0 -0.5052300691604614 L 8.0 -1.1781110763549805 L 9.0 -1.1781110763549805 L 9.0 -1.0167537927627563 L 10.0 -1.0167537927627563" style="vector-effect: non-scaling-stroke;fill:none;" /></g></g></g></g></g></g></g></g></g></g><g transform="matrix(1.0, 0.0, 0.0, 1.0, -0.05, 0.16)"><g transform="matrix(1.0, 0.0, 0.0, 0.009999999999999995, 0.0, 0.0)"><g transform="matrix(0.01, 0.0, 0.0, 1.0, 0.0, 0.0)"><g><g><g style="fill: #ffffe0;stroke: #ffffe0;stroke-width: 1.2000000000000002;fill-opacity: 0.5;" transform="matrix(1.0, 0.0, 0.0, 1.0, 0.0, 0.0)"><path d="M 0.0 -2.0 L 0.0 2.0" style="vector-effect: non-scaling-stroke;fill:none;" /></g><g style="fill: #ffffe0;stroke: #ffffe0;stroke-width: 1.2000000000000002;fill-opacity: 0.5;" transform="matrix(1.0, 0.0, 0.0, 1.0, 0.0, 0.0)"><path d="M 0.0 -2.0 L 1.0 -2.0 L 1.0 -2.0 L 2.0 -2.0 L 2.0 -2.0 L 3.0 -2.0 L 3.0 -2.0 L 4.0 -2.0 L 4.0 -2.0 L 5.0 -2.0 L 5.0 -2.0 L 6.0 -2.0 L 6.0 -2.0 L 7.0 -2.0 L 7.0 -2.0 L 8.0 -2.0 L 8.0 -2.0 L 9.0 -2.0 L 9.0 -2.0 L 10.0 -2.0 L 10.0 -1.0167537927627563 L 9.0 -1.0167537927627563 L 9.0 -1.1781110763549805 L 8.0 -1.1781110763549805 L 8.0 -0.5052300691604614 L 7.0 -0.5052300691604614 L 7.0 -0.7702147364616394 L 6.0 -0.7702147364616394 L 6.0 -0.5948132276535034 L 5.0 -0.5948132276535034 L 5.0 -0.9539159536361694 L 4.0 -0.9539159536361694 L 4.0 -0.8867397308349609 L 3.0 -0.8867397308349609 L 3.0 -0.6150063276290894 L 2.0 -0.6150063276290894 L 2.0 -0.8653230667114258 L 1.0 -0.8653230667114258 L 1.0 -0.46712976694107056 L 0.0 -0.46712976694107056 Z" style="vector-effect: non-scaling-stroke;" /></g></g><g style="stroke: black;stroke-width: 1.2000000000000002;" transform="matrix(1.0, 0.0, 0.0, 1.0, 0.0, 0.0)"><path d="M 0.0 -0.46712976694107056 L 1.0 -0.46712976694107056 L 1.0 -0.8653230667114258 L 2.0 -0.8653230667114258 L 2.0 -0.6150063276290894 L 3.0 -0.6150063276290894 L 3.0 -0.8867397308349609 L 4.0 -0.8867397308349609 L 4.0 -0.9539159536361694 L 5.0 -0.9539159536361694 L 5.0 -0.5948132276535034 L 6.0 -0.5948132276535034 L 6.0 -0.7702147364616394 L 7.0 -0.7702147364616394 L 7.0 -0.5052300691604614 L 8.0 -0.5052300691604614 L 8.0 -1.1781110763549805 L 9.0 -1.1781110763549805 L 9.0 -1.0167537927627563 L 10.0 -1.0167537927627563" style="vector-effect: non-scaling-stroke;fill:none;" /></g></g></g></g></g></g><g transform="matrix(1.0, 0.0, 0.0, 1.0, -0.05, 0.16)"><g transform="matrix(1.0, 0.0, 0.0, 0.009999999999999995, 0.0, 0.0)"><g transform="matrix(0.01, 0.0, 0.0, 1.0, 0.0, 0.0)"><g><g><g style="fill: #add8e6;stroke: #add8e6;stroke-width: 1.2000000000000002;fill-opacity: 0.5;" transform="matrix(1.0, 0.0, 0.0, 1.0, 0.0, 0.0)"><path d="M 0.0 -2.0 L 0.0 2.0" style="vector-effect: non-scaling-stroke;fill:none;" /></g><g style="fill: #add8e6;stroke: #add8e6;stroke-width: 1.2000000000000002;fill-opacity: 0.5;" transform="matrix(1.0, 0.0, 0.0, 1.0, 0.0, 0.0)"><path d="M 0.0 -0.46712976694107056 L 1.0 -0.46712976694107056 L 1.0 -0.8653230667114258 L 2.0 -0.8653230667114258 L 2.0 -0.6150063276290894 L 3.0 -0.6150063276290894 L 3.0 -0.8867397308349609 L 4.0 -0.8867397308349609 L 4.0 -0.9539159536361694 L 5.0 -0.9539159536361694 L 5.0 -0.5948132276535034 L 6.0 -0.5948132276535034 L 6.0 -0.7702147364616394 L 7.0 -0.7702147364616394 L 7.0 -0.5052300691604614 L 8.0 -0.5052300691604614 L 8.0 -1.1781110763549805 L 9.0 -1.1781110763549805 L 9.0 -1.0167537927627563 L 10.0 -1.0167537927627563 L 10.0 -1.0167537927627563 L 9.0 -1.0167537927627563 L 9.0 -1.1781110763549805 L 8.0 -1.1781110763549805 L 8.0 -0.5052300691604614 L 7.0 -0.5052300691604614 L 7.0 -0.7702147364616394 L 6.0 -0.7702147364616394 L 6.0 -0.5948132276535034 L 5.0 -0.5948132276535034 L 5.0 -0.9539159536361694 L 4.0 -0.9539159536361694 L 4.0 -0.8867397308349609 L 3.0 -0.8867397308349609 L 3.0 -0.6150063276290894 L 2.0 -0.6150063276290894 L 2.0 -0.8653230667114258 L 1.0 -0.8653230667114258 L 1.0 -0.46712976694107056 L 0.0 -0.46712976694107056 Z" style="vector-effect: non-scaling-stroke;" /></g></g><g style="stroke: black;stroke-width: 1.2000000000000002;" transform="matrix(1.0, 0.0, 0.0, 1.0, 0.0, 0.0)"><path d="M 0.0 -0.46712976694107056 L 1.0 -0.46712976694107056 L 1.0 -0.8653230667114258 L 2.0 -0.8653230667114258 L 2.0 -0.6150063276290894 L 3.0 -0.6150063276290894 L 3.0 -0.8867397308349609 L 4.0 -0.8867397308349609 L 4.0 -0.9539159536361694 L 5.0 -0.9539159536361694 L 5.0 -0.5948132276535034 L 6.0 -0.5948132276535034 L 6.0 -0.7702147364616394 L 7.0 -0.7702147364616394 L 7.0 -0.5052300691604614 L 8.0 -0.5052300691604614 L 8.0 -1.1781110763549805 L 9.0 -1.1781110763549805 L 9.0 -1.0167537927627563 L 10.0 -1.0167537927627563" style="vector-effect: non-scaling-stroke;fill:none;" /></g></g></g></g></g></g><g transform="matrix(1.0, 0.0, 0.0, 1.0, -0.05, 0.16)"><g transform="matrix(1.0, 0.0, 0.0, 0.009999999999999995, 0.0, 0.0)"><g transform="matrix(0.01, 0.0, 0.0, 1.0, 0.0, 0.0)"><g><g><g style="fill: #ff8c00;stroke: #ff8c00;stroke-width: 1.2000000000000002;fill-opacity: 0.5;" transform="matrix(1.0, 0.0, 0.0, 1.0, 0.0, 0.0)"><path d="M 0.0 -2.0 L 0.0 2.0" style="vector-effect: non-scaling-stroke;fill:none;" /></g><g style="fill: #ff8c00;stroke: #ff8c00;stroke-width: 1.2000000000000002;fill-opacity: 0.5;" transform="matrix(1.0, 0.0, 0.0, 1.0, 0.0, 0.0)"><path d="M 0.0 -0.46712976694107056 L 1.0 -0.46712976694107056 L 1.0 -0.8653230667114258 L 2.0 -0.8653230667114258 L 2.0 -0.6150063276290894 L 3.0 -0.6150063276290894 L 3.0 -0.8867397308349609 L 4.0 -0.8867397308349609 L 4.0 -0.9539159536361694 L 5.0 -0.9539159536361694 L 5.0 -0.5948132276535034 L 6.0 -0.5948132276535034 L 6.0 -0.7702147364616394 L 7.0 -0.7702147364616394 L 7.0 -0.5052300691604614 L 8.0 -0.5052300691604614 L 8.0 -1.1781110763549805 L 9.0 -1.1781110763549805 L 9.0 -1.0167537927627563 L 10.0 -1.0167537927627563 L 10.0 -1.0167537927627563 L 9.0 -1.0167537927627563 L 9.0 -1.1781110763549805 L 8.0 -1.1781110763549805 L 8.0 -0.5052300691604614 L 7.0 -0.5052300691604614 L 7.0 -0.7702147364616394 L 6.0 -0.7702147364616394 L 6.0 -0.5948132276535034 L 5.0 -0.5948132276535034 L 5.0 -0.9539159536361694 L 4.0 -0.9539159536361694 L 4.0 -0.8867397308349609 L 3.0 -0.8867397308349609 L 3.0 -0.6150063276290894 L 2.0 -0.6150063276290894 L 2.0 -0.8653230667114258 L 1.0 -0.8653230667114258 L 1.0 -0.46712976694107056 L 0.0 -0.46712976694107056 Z" style="vector-effect: non-scaling-stroke;" /></g></g><g style="stroke: black;stroke-width: 1.2000000000000002;" transform="matrix(1.0, 0.0, 0.0, 1.0, 0.0, 0.0)"><path d="M 0.0 -0.46712976694107056 L 1.0 -0.46712976694107056 L 1.0 -0.8653230667114258 L 2.0 -0.8653230667114258 L 2.0 -0.6150063276290894 L 3.0 -0.6150063276290894 L 3.0 -0.8867397308349609 L 4.0 -0.8867397308349609 L 4.0 -0.9539159536361694 L 5.0 -0.9539159536361694 L 5.0 -0.5948132276535034 L 6.0 -0.5948132276535034 L 6.0 -0.7702147364616394 L 7.0 -0.7702147364616394 L 7.0 -0.5052300691604614 L 8.0 -0.5052300691604614 L 8.0 -1.1781110763549805 L 9.0 -1.1781110763549805 L 9.0 -1.0167537927627563 L 10.0 -1.0167537927627563" style="vector-effect: non-scaling-stroke;fill:none;" /></g></g></g></g></g></g><g transform="matrix(1.0, 0.0, 0.0, 1.0, -0.05, 0.16)"><g transform="matrix(1.0, 0.0, 0.0, 0.009999999999999995, 0.0, 0.0)"><g transform="matrix(0.01, 0.0, 0.0, 1.0, 0.0, 0.0)"><g><g><g style="fill: #0000ff;stroke: #0000ff;stroke-width: 1.2000000000000002;fill-opacity: 0.5;" transform="matrix(1.0, 0.0, 0.0, 1.0, 0.0, 0.0)"><path d="M 0.0 -2.0 L 0.0 2.0" style="vector-effect: non-scaling-stroke;fill:none;" /></g><g style="fill: #0000ff;stroke: #0000ff;stroke-width: 1.2000000000000002;fill-opacity: 0.5;" transform="matrix(1.0, 0.0, 0.0, 1.0, 0.0, 0.0)"><path d="M 0.0 -0.46712976694107056 L 1.0 -0.46712976694107056 L 1.0 -0.8653230667114258 L 2.0 -0.8653230667114258 L 2.0 -0.6150063276290894 L 3.0 -0.6150063276290894 L 3.0 -0.8867397308349609 L 4.0 -0.8867397308349609 L 4.0 -0.9539159536361694 L 5.0 -0.9539159536361694 L 5.0 -0.5948132276535034 L 6.0 -0.5948132276535034 L 6.0 -0.7702147364616394 L 7.0 -0.7702147364616394 L 7.0 -0.5052300691604614 L 8.0 -0.5052300691604614 L 8.0 -1.1781110763549805 L 9.0 -1.1781110763549805 L 9.0 -1.0167537927627563 L 10.0 -1.0167537927627563 L 10.0 -1.0167537927627563 L 9.0 -1.0167537927627563 L 9.0 -1.1781110763549805 L 8.0 -1.1781110763549805 L 8.0 -0.5052300691604614 L 7.0 -0.5052300691604614 L 7.0 -0.7702147364616394 L 6.0 -0.7702147364616394 L 6.0 -0.5948132276535034 L 5.0 -0.5948132276535034 L 5.0 -0.9539159536361694 L 4.0 -0.9539159536361694 L 4.0 -0.8867397308349609 L 3.0 -0.8867397308349609 L 3.0 -0.6150063276290894 L 2.0 -0.6150063276290894 L 2.0 -0.8653230667114258 L 1.0 -0.8653230667114258 L 1.0 -0.46712976694107056 L 0.0 -0.46712976694107056 Z" style="vector-effect: non-scaling-stroke;" /></g></g><g style="stroke: black;stroke-width: 1.2000000000000002;" transform="matrix(1.0, 0.0, 0.0, 1.0, 0.0, 0.0)"><path d="M 0.0 -0.46712976694107056 L 1.0 -0.46712976694107056 L 1.0 -0.8653230667114258 L 2.0 -0.8653230667114258 L 2.0 -0.6150063276290894 L 3.0 -0.6150063276290894 L 3.0 -0.8867397308349609 L 4.0 -0.8867397308349609 L 4.0 -0.9539159536361694 L 5.0 -0.9539159536361694 L 5.0 -0.5948132276535034 L 6.0 -0.5948132276535034 L 6.0 -0.7702147364616394 L 7.0 -0.7702147364616394 L 7.0 -0.5052300691604614 L 8.0 -0.5052300691604614 L 8.0 -1.1781110763549805 L 9.0 -1.1781110763549805 L 9.0 -1.0167537927627563 L 10.0 -1.0167537927627563" style="vector-effect: non-scaling-stroke;fill:none;" /></g></g></g></g></g></g></g></g><g><g><g><g><g><g><g transform="matrix(1.0, 0.0, 0.0, 1.0, -0.4149999999999999, -0.03)"><g><g><g transform="matrix(1.0, 0.0, 0.0, 1.0, 0.075, 0.0)"><g transform="matrix(1.0, 0.0, 0.0, 1.0, 0.0, 0.03)"><g transform="matrix(0.01, 0.0, 0.0, 0.01, 0.0, 0.0)"><g><g><g transform="matrix(1.0, 0.0, 0.0, 1.0, 20.0, 0.0)"><g transform="matrix(1.0, 0.0, 0.0, 1.0, -27.5, -0.0)"><g><g style="fill: #d3d3d3;stroke: black;stroke-width: 1.2000000000000002;" transform="matrix(1.0, 0.0, 0.0, 1.0, 0.0, -3.0)"><path d="M 0.0 0.0 L 55.0 0.0 L 55.0 6.0 L 0.0 6.0 L 0.0 0.0 Z" style="vector-effect: non-scaling-stroke;" /></g><g transform="matrix(1.0, 0.0, 0.0, 1.0, 1.875, 0.0)"><g><g style="stroke: black;stroke-width: 1.2000000000000002;" transform="matrix(1.0, 0.0, 0.0, 1.0, 0.0, 0.0)"><g /></g><g style="fill: #ffa500;stroke: black;stroke-width: 1.2000000000000002;" transform="matrix(1.0, 0.0, 0.0, 1.0, 1.875, 0.0)"><text style="text-align:center; text-anchor:middle; dominant-baseline:middle;&#10;                      font-family:sans-serif; font-weight: bold;&#10;                      font-size:3px;&#10;                      vector-effect: non-scaling-stroke;" transform="translate(-5e-05, 0)">x</text></g></g></g></g></g></g><g><g><g><g><g><g><g><g style="stroke: black;stroke-width: 1.2000000000000002;" transform="matrix(1.0, 0.0, 0.0, 1.0, 0.0, 0.0)"><path d="M 0.0 -2.0 L 0.0 2.0" style="vector-effect: non-scaling-stroke;fill:none;" /></g><g style="stroke: #808080;stroke-width: 0.6000000000000001;" transform="matrix(1.0, 0.0, 0.0, 1.0, 0.0, 0.0)"><path d="M 0.0 0.0 L 40.0 0.0" style="vector-effect: non-scaling-stroke;fill:none;" /></g></g><g style="stroke: black;stroke-width: 2.4000000000000004;" transform="matrix(1.0, 0.0, 0.0, 1.0, 0.0, 0.0)"><path d="M 0.0 0.005311056971549988 L 1.0 0.005311056971549988 L 1.0 0.6617961525917053 L 2.0 0.6617961525917053 L 2.0 -0.029221951961517334 L 3.0 -0.029221951961517334 L 3.0 -0.5955145359039307 L 4.0 -0.5955145359039307 L 4.0 -0.28756967186927795 L 5.0 -0.28756967186927795 L 5.0 -1.1414746046066284 L 6.0 -1.1414746046066284 L 6.0 0.029801758006215096 L 7.0 0.029801758006215096 L 7.0 -0.5384460091590881 L 8.0 -0.5384460091590881 L 8.0 -0.7264551520347595 L 9.0 -0.7264551520347595 L 9.0 -0.7654497623443604 L 10.0 -0.7654497623443604 L 10.0 0.06270832568407059 L 11.0 0.06270832568407059 L 11.0 -1.5212970972061157 L 12.0 -1.5212970972061157 L 12.0 -0.8081479072570801 L 13.0 -0.8081479072570801 L 13.0 -1.4235832691192627 L 14.0 -1.4235832691192627 L 14.0 -0.31076791882514954 L 15.0 -0.31076791882514954 L 15.0 -0.3787614107131958 L 16.0 -0.3787614107131958 L 16.0 -1.1808154582977295 L 17.0 -1.1808154582977295 L 17.0 -0.852485179901123 L 18.0 -0.852485179901123 L 18.0 -1.745559573173523 L 19.0 -1.745559573173523 L 19.0 -0.6974199414253235 L 20.0 -0.6974199414253235 L 20.0 -0.5488577485084534 L 21.0 -0.5488577485084534 L 21.0 -0.821071445941925 L 22.0 -0.821071445941925 L 22.0 -0.8402944207191467 L 23.0 -0.8402944207191467 L 23.0 -0.12001878023147583 L 24.0 -0.12001878023147583 L 24.0 -1.3758478164672852 L 25.0 -1.3758478164672852 L 25.0 -0.7104760408401489 L 26.0 -0.7104760408401489 L 26.0 -0.8866549730300903 L 27.0 -0.8866549730300903 L 27.0 -0.5337659120559692 L 28.0 -0.5337659120559692 L 28.0 -1.97091805934906 L 29.0 -1.97091805934906 L 29.0 -1.27131187915802 L 30.0 -1.27131187915802 L 30.0 -1.3876806497573853 L 31.0 -1.3876806497573853 L 31.0 -1.7807198762893677 L 32.0 -1.7807198762893677 L 32.0 -0.7823610305786133 L 33.0 -0.7823610305786133 L 33.0 -1.4078423976898193 L 34.0 -1.4078423976898193 L 34.0 -1.8414782285690308 L 35.0 -1.8414782285690308 L 35.0 -0.1485409289598465 L 36.0 -0.1485409289598465 L 36.0 -1.0431902408599854 L 37.0 -1.0431902408599854 L 37.0 -0.09622325748205185 L 38.0 -0.09622325748205185 L 38.0 -0.26951152086257935 L 39.0 -0.26951152086257935 L 39.0 -1.3328336477279663 L 40.0 -1.3328336477279663" style="vector-effect: non-scaling-stroke;fill:none;" /></g></g><g style="stroke: black;stroke-width: 1.2000000000000002;" transform="matrix(1.0, 0.0, 0.0, 1.0, 0.0, 0.0)"><path d="M 0.0 -2.0 L 0.0 2.0" style="vector-effect: non-scaling-stroke;fill:none;" /></g></g><g style="stroke: black;stroke-width: 1.2000000000000002;" transform="matrix(1.0, 0.0, 0.0, 1.0, 0.0, 0.0)"><path d="M 10.0 -2.0 L 10.0 2.0" style="vector-effect: non-scaling-stroke;fill:none;" /></g></g><g style="stroke: black;stroke-width: 1.2000000000000002;" transform="matrix(1.0, 0.0, 0.0, 1.0, 0.0, 0.0)"><path d="M 20.0 -2.0 L 20.0 2.0" style="vector-effect: non-scaling-stroke;fill:none;" /></g></g><g style="stroke: black;stroke-width: 1.2000000000000002;" transform="matrix(1.0, 0.0, 0.0, 1.0, 0.0, 0.0)"><path d="M 30.0 -2.0 L 30.0 2.0" style="vector-effect: non-scaling-stroke;fill:none;" /></g></g></g></g><g><g><g><g><g><g><g><g style="stroke: black;stroke-width: 1.2000000000000002;" transform="matrix(1.0, 0.0, 0.0, 1.0, 0.0, 0.0)"><path d="M 0.0 -2.0 L 0.0 2.0" style="vector-effect: non-scaling-stroke;fill:none;" /></g><g style="stroke: #808080;stroke-width: 0.6000000000000001;" transform="matrix(1.0, 0.0, 0.0, 1.0, 0.0, 0.0)"><path d="M 0.0 0.0 L 40.0 0.0" style="vector-effect: non-scaling-stroke;fill:none;" /></g></g><g style="stroke: black;stroke-width: 2.4000000000000004;" transform="matrix(1.0, 0.0, 0.0, 1.0, 0.0, 0.0)"><path d="M 0.0 0.005311056971549988 L 1.0 0.005311056971549988 L 1.0 0.6617961525917053 L 2.0 0.6617961525917053 L 2.0 -0.029221951961517334 L 3.0 -0.029221951961517334 L 3.0 -0.5955145359039307 L 4.0 -0.5955145359039307 L 4.0 -0.28756967186927795 L 5.0 -0.28756967186927795 L 5.0 -1.1414746046066284 L 6.0 -1.1414746046066284 L 6.0 0.029801758006215096 L 7.0 0.029801758006215096 L 7.0 -0.5384460091590881 L 8.0 -0.5384460091590881 L 8.0 -0.7264551520347595 L 9.0 -0.7264551520347595 L 9.0 -0.7654497623443604 L 10.0 -0.7654497623443604 L 10.0 0.06270832568407059 L 11.0 0.06270832568407059 L 11.0 -1.5212970972061157 L 12.0 -1.5212970972061157 L 12.0 -0.8081479072570801 L 13.0 -0.8081479072570801 L 13.0 -1.4235832691192627 L 14.0 -1.4235832691192627 L 14.0 -0.31076791882514954 L 15.0 -0.31076791882514954 L 15.0 -0.3787614107131958 L 16.0 -0.3787614107131958 L 16.0 -1.1808154582977295 L 17.0 -1.1808154582977295 L 17.0 -0.852485179901123 L 18.0 -0.852485179901123 L 18.0 -1.745559573173523 L 19.0 -1.745559573173523 L 19.0 -0.6974199414253235 L 20.0 -0.6974199414253235 L 20.0 -0.5488577485084534 L 21.0 -0.5488577485084534 L 21.0 -0.821071445941925 L 22.0 -0.821071445941925 L 22.0 -0.8402944207191467 L 23.0 -0.8402944207191467 L 23.0 -0.12001878023147583 L 24.0 -0.12001878023147583 L 24.0 -1.3758478164672852 L 25.0 -1.3758478164672852 L 25.0 -0.7104760408401489 L 26.0 -0.7104760408401489 L 26.0 -0.8866549730300903 L 27.0 -0.8866549730300903 L 27.0 -0.5337659120559692 L 28.0 -0.5337659120559692 L 28.0 -1.97091805934906 L 29.0 -1.97091805934906 L 29.0 -1.27131187915802 L 30.0 -1.27131187915802 L 30.0 -1.3876806497573853 L 31.0 -1.3876806497573853 L 31.0 -1.7807198762893677 L 32.0 -1.7807198762893677 L 32.0 -0.7823610305786133 L 33.0 -0.7823610305786133 L 33.0 -1.4078423976898193 L 34.0 -1.4078423976898193 L 34.0 -1.8414782285690308 L 35.0 -1.8414782285690308 L 35.0 -0.1485409289598465 L 36.0 -0.1485409289598465 L 36.0 -1.0431902408599854 L 37.0 -1.0431902408599854 L 37.0 -0.09622325748205185 L 38.0 -0.09622325748205185 L 38.0 -0.26951152086257935 L 39.0 -0.26951152086257935 L 39.0 -1.3328336477279663 L 40.0 -1.3328336477279663" style="vector-effect: non-scaling-stroke;fill:none;" /></g></g><g style="stroke: black;stroke-width: 1.2000000000000002;" transform="matrix(1.0, 0.0, 0.0, 1.0, 0.0, 0.0)"><path d="M 0.0 -2.0 L 0.0 2.0" style="vector-effect: non-scaling-stroke;fill:none;" /></g></g><g style="stroke: black;stroke-width: 1.2000000000000002;" transform="matrix(1.0, 0.0, 0.0, 1.0, 0.0, 0.0)"><path d="M 10.0 -2.0 L 10.0 2.0" style="vector-effect: non-scaling-stroke;fill:none;" /></g></g><g style="stroke: black;stroke-width: 1.2000000000000002;" transform="matrix(1.0, 0.0, 0.0, 1.0, 0.0, 0.0)"><path d="M 20.0 -2.0 L 20.0 2.0" style="vector-effect: non-scaling-stroke;fill:none;" /></g></g><g style="stroke: black;stroke-width: 1.2000000000000002;" transform="matrix(1.0, 0.0, 0.0, 1.0, 0.0, 0.0)"><path d="M 30.0 -2.0 L 30.0 2.0" style="vector-effect: non-scaling-stroke;fill:none;" /></g></g></g></g></g></g></g><g style="stroke: black;stroke-width: 1.2000000000000002;" transform="matrix(1.0, 0.0, 0.0, 1.0, 0.565, 0.0)"><g /></g></g><g transform="matrix(1.0, 0.0, 0.0, 1.0, 0.58, 0.0)"><g transform="matrix(1.0, 0.0, 0.0, 1.0, 0.075, 0.0)"><g transform="matrix(1.0, 0.0, 0.0, 1.0, 0.0, 0.03)"><g transform="matrix(0.01, 0.0, 0.0, 0.01, 0.0, 0.0)"><g><g><g transform="matrix(1.0, 0.0, 0.0, 1.0, 5.0, 0.0)"><g transform="matrix(1.0, 0.0, 0.0, 1.0, -12.5, -0.0)"><g><g style="fill: #d3d3d3;stroke: black;stroke-width: 1.2000000000000002;" transform="matrix(1.0, 0.0, 0.0, 1.0, 0.0, -3.0)"><path d="M 0.0 0.0 L 25.0 0.0 L 25.0 6.0 L 0.0 6.0 L 0.0 0.0 Z" style="vector-effect: non-scaling-stroke;" /></g><g transform="matrix(1.0, 0.0, 0.0, 1.0, 1.875, 0.0)"><g><g style="stroke: black;stroke-width: 1.2000000000000002;" transform="matrix(1.0, 0.0, 0.0, 1.0, 0.0, 0.0)"><g /></g><g style="fill: #ffa500;stroke: black;stroke-width: 1.2000000000000002;" transform="matrix(1.0, 0.0, 0.0, 1.0, 1.875, 0.0)"><text style="text-align:center; text-anchor:middle; dominant-baseline:middle;&#10;                      font-family:sans-serif; font-weight: bold;&#10;                      font-size:3px;&#10;                      vector-effect: non-scaling-stroke;" transform="translate(-5e-05, 0)">y</text></g></g></g></g></g></g><g><g><g><g style="stroke: black;stroke-width: 1.2000000000000002;" transform="matrix(1.0, 0.0, 0.0, 1.0, 0.0, 0.0)"><path d="M 0.0 -2.0 L 0.0 2.0" style="vector-effect: non-scaling-stroke;fill:none;" /></g><g style="stroke: #808080;stroke-width: 0.6000000000000001;" transform="matrix(1.0, 0.0, 0.0, 1.0, 0.0, 0.0)"><path d="M 0.0 0.0 L 10.0 0.0" style="vector-effect: non-scaling-stroke;fill:none;" /></g></g><g style="stroke: black;stroke-width: 2.4000000000000004;" transform="matrix(1.0, 0.0, 0.0, 1.0, 0.0, 0.0)"><path d="M 0.0 -0.8747767806053162 L 1.0 -0.8747767806053162 L 1.0 -1.4892016649246216 L 2.0 -1.4892016649246216 L 2.0 0.11869626492261887 L 3.0 0.11869626492261887 L 3.0 -1.2941701412200928 L 4.0 -1.2941701412200928 L 4.0 -0.487885057926178 L 5.0 -0.487885057926178 L 5.0 -1.3998547792434692 L 6.0 -1.3998547792434692 L 6.0 -0.6406936049461365 L 7.0 -0.6406936049461365 L 7.0 -1.6183596849441528 L 8.0 -1.6183596849441528 L 8.0 -1.5249296426773071 L 9.0 -1.5249296426773071 L 9.0 -0.435707688331604 L 10.0 -0.435707688331604" style="vector-effect: non-scaling-stroke;fill:none;" /></g></g></g></g><g><g><g><g style="stroke: black;stroke-width: 1.2000000000000002;" transform="matrix(1.0, 0.0, 0.0, 1.0, 0.0, 0.0)"><path d="M 0.0 -2.0 L 0.0 2.0" style="vector-effect: non-scaling-stroke;fill:none;" /></g><g style="stroke: #808080;stroke-width: 0.6000000000000001;" transform="matrix(1.0, 0.0, 0.0, 1.0, 0.0, 0.0)"><path d="M 0.0 0.0 L 10.0 0.0" style="vector-effect: non-scaling-stroke;fill:none;" /></g></g><g style="stroke: black;stroke-width: 2.4000000000000004;" transform="matrix(1.0, 0.0, 0.0, 1.0, 0.0, 0.0)"><path d="M 0.0 -0.8747767806053162 L 1.0 -0.8747767806053162 L 1.0 -1.4892016649246216 L 2.0 -1.4892016649246216 L 2.0 0.11869626492261887 L 3.0 0.11869626492261887 L 3.0 -1.2941701412200928 L 4.0 -1.2941701412200928 L 4.0 -0.487885057926178 L 5.0 -0.487885057926178 L 5.0 -1.3998547792434692 L 6.0 -1.3998547792434692 L 6.0 -0.6406936049461365 L 7.0 -0.6406936049461365 L 7.0 -1.6183596849441528 L 8.0 -1.6183596849441528 L 8.0 -1.5249296426773071 L 9.0 -1.5249296426773071 L 9.0 -0.435707688331604 L 10.0 -0.435707688331604" style="vector-effect: non-scaling-stroke;fill:none;" /></g></g></g></g></g></g></g></g></g></g><g style="stroke: black;stroke-width: 1.2000000000000002;" transform="matrix(0.0, -1.0, 1.0, 0.0, 0.0, 0.08)"><g /></g></g><g transform="matrix(1.0, 0.0, 0.0, 1.0, 0.0, 0.16)"><g transform="matrix(1.0, 0.0, 0.0, 1.0, -0.125, -0.03)"><g transform="matrix(1.0, 0.0, 0.0, 1.0, 0.075, 0.0)"><g transform="matrix(1.0, 0.0, 0.0, 1.0, 0.0, 0.03)"><g transform="matrix(0.01, 0.0, 0.0, 0.01, 0.0, 0.0)"><g><g><g transform="matrix(1.0, 0.0, 0.0, 1.0, 5.0, 0.0)"><g transform="matrix(1.0, 0.0, 0.0, 1.0, -12.5, -0.0)"><g><g style="fill: #d3d3d3;stroke: black;stroke-width: 1.2000000000000002;" transform="matrix(1.0, 0.0, 0.0, 1.0, 0.0, -3.0)"><path d="M 0.0 0.0 L 25.0 0.0 L 25.0 6.0 L 0.0 6.0 L 0.0 0.0 Z" style="vector-effect: non-scaling-stroke;" /></g><g transform="matrix(1.0, 0.0, 0.0, 1.0, 1.875, 0.0)"><g><g style="stroke: black;stroke-width: 1.2000000000000002;" transform="matrix(1.0, 0.0, 0.0, 1.0, 0.0, 0.0)"><g /></g><g style="fill: #ffa500;stroke: black;stroke-width: 1.2000000000000002;" transform="matrix(1.0, 0.0, 0.0, 1.0, 1.875, 0.0)"><text style="text-align:center; text-anchor:middle; dominant-baseline:middle;&#10;                      font-family:sans-serif; font-weight: bold;&#10;                      font-size:3px;&#10;                      vector-effect: non-scaling-stroke;" transform="translate(-5e-05, 0)">f(x)</text></g></g></g></g></g></g><g><g><g><g style="stroke: black;stroke-width: 1.2000000000000002;" transform="matrix(1.0, 0.0, 0.0, 1.0, 0.0, 0.0)"><path d="M 0.0 -2.0 L 0.0 2.0" style="vector-effect: non-scaling-stroke;fill:none;" /></g><g style="stroke: #808080;stroke-width: 0.6000000000000001;" transform="matrix(1.0, 0.0, 0.0, 1.0, 0.0, 0.0)"><path d="M 0.0 0.0 L 10.0 0.0" style="vector-effect: non-scaling-stroke;fill:none;" /></g></g><g style="stroke: black;stroke-width: 2.4000000000000004;" transform="matrix(1.0, 0.0, 0.0, 1.0, 0.0, 0.0)"><path d="M 0.0 -0.46712976694107056 L 1.0 -0.46712976694107056 L 1.0 -0.8653230667114258 L 2.0 -0.8653230667114258 L 2.0 -0.6150063276290894 L 3.0 -0.6150063276290894 L 3.0 -0.8867397308349609 L 4.0 -0.8867397308349609 L 4.0 -0.9539159536361694 L 5.0 -0.9539159536361694 L 5.0 -0.5948132276535034 L 6.0 -0.5948132276535034 L 6.0 -0.7702147364616394 L 7.0 -0.7702147364616394 L 7.0 -0.5052300691604614 L 8.0 -0.5052300691604614 L 8.0 -1.1781110763549805 L 9.0 -1.1781110763549805 L 9.0 -1.0167537927627563 L 10.0 -1.0167537927627563" style="vector-effect: non-scaling-stroke;fill:none;" /></g></g></g></g><g><g><g><g style="stroke: black;stroke-width: 1.2000000000000002;" transform="matrix(1.0, 0.0, 0.0, 1.0, 0.0, 0.0)"><path d="M 0.0 -2.0 L 0.0 2.0" style="vector-effect: non-scaling-stroke;fill:none;" /></g><g style="stroke: #808080;stroke-width: 0.6000000000000001;" transform="matrix(1.0, 0.0, 0.0, 1.0, 0.0, 0.0)"><path d="M 0.0 0.0 L 10.0 0.0" style="vector-effect: non-scaling-stroke;fill:none;" /></g></g><g style="stroke: black;stroke-width: 2.4000000000000004;" transform="matrix(1.0, 0.0, 0.0, 1.0, 0.0, 0.0)"><path d="M 0.0 -0.46712976694107056 L 1.0 -0.46712976694107056 L 1.0 -0.8653230667114258 L 2.0 -0.8653230667114258 L 2.0 -0.6150063276290894 L 3.0 -0.6150063276290894 L 3.0 -0.8867397308349609 L 4.0 -0.8867397308349609 L 4.0 -0.9539159536361694 L 5.0 -0.9539159536361694 L 5.0 -0.5948132276535034 L 6.0 -0.5948132276535034 L 6.0 -0.7702147364616394 L 7.0 -0.7702147364616394 L 7.0 -0.5052300691604614 L 8.0 -0.5052300691604614 L 8.0 -1.1781110763549805 L 9.0 -1.1781110763549805 L 9.0 -1.0167537927627563 L 10.0 -1.0167537927627563" style="vector-effect: non-scaling-stroke;fill:none;" /></g></g></g></g></g></g></g></g></g></g><g transform="matrix(1.0, 0.0, 0.0, 1.0, -0.05, 0.16)"><g transform="matrix(1.0, 0.0, 0.0, 0.009999999999999995, 0.0, 0.0)"><g transform="matrix(0.01, 0.0, 0.0, 1.0, 0.0, 0.0)"><g><g><g style="fill: #ffffe0;stroke: #ffffe0;stroke-width: 1.2000000000000002;fill-opacity: 0.5;" transform="matrix(1.0, 0.0, 0.0, 1.0, 0.0, 0.0)"><path d="M 0.0 -2.0 L 0.0 2.0" style="vector-effect: non-scaling-stroke;fill:none;" /></g><g style="fill: #ffffe0;stroke: #ffffe0;stroke-width: 1.2000000000000002;fill-opacity: 0.5;" transform="matrix(1.0, 0.0, 0.0, 1.0, 0.0, 0.0)"><path d="M 0.0 -2.0 L 1.0 -2.0 L 1.0 -2.0 L 2.0 -2.0 L 2.0 -2.0 L 3.0 -2.0 L 3.0 -2.0 L 4.0 -2.0 L 4.0 -2.0 L 5.0 -2.0 L 5.0 -2.0 L 6.0 -2.0 L 6.0 -2.0 L 7.0 -2.0 L 7.0 -2.0 L 8.0 -2.0 L 8.0 -2.0 L 9.0 -2.0 L 9.0 -2.0 L 10.0 -2.0 L 10.0 -1.0167537927627563 L 9.0 -1.0167537927627563 L 9.0 -1.1781110763549805 L 8.0 -1.1781110763549805 L 8.0 -0.5052300691604614 L 7.0 -0.5052300691604614 L 7.0 -0.7702147364616394 L 6.0 -0.7702147364616394 L 6.0 -0.5948132276535034 L 5.0 -0.5948132276535034 L 5.0 -0.9539159536361694 L 4.0 -0.9539159536361694 L 4.0 -0.8867397308349609 L 3.0 -0.8867397308349609 L 3.0 -0.6150063276290894 L 2.0 -0.6150063276290894 L 2.0 -0.8653230667114258 L 1.0 -0.8653230667114258 L 1.0 -0.46712976694107056 L 0.0 -0.46712976694107056 Z" style="vector-effect: non-scaling-stroke;" /></g></g><g style="stroke: black;stroke-width: 1.2000000000000002;" transform="matrix(1.0, 0.0, 0.0, 1.0, 0.0, 0.0)"><path d="M 0.0 -0.46712976694107056 L 1.0 -0.46712976694107056 L 1.0 -0.8653230667114258 L 2.0 -0.8653230667114258 L 2.0 -0.6150063276290894 L 3.0 -0.6150063276290894 L 3.0 -0.8867397308349609 L 4.0 -0.8867397308349609 L 4.0 -0.9539159536361694 L 5.0 -0.9539159536361694 L 5.0 -0.5948132276535034 L 6.0 -0.5948132276535034 L 6.0 -0.7702147364616394 L 7.0 -0.7702147364616394 L 7.0 -0.5052300691604614 L 8.0 -0.5052300691604614 L 8.0 -1.1781110763549805 L 9.0 -1.1781110763549805 L 9.0 -1.0167537927627563 L 10.0 -1.0167537927627563" style="vector-effect: non-scaling-stroke;fill:none;" /></g></g></g></g></g></g><g transform="matrix(1.0, 0.0, 0.0, 1.0, -0.05, 0.16)"><g transform="matrix(1.0, 0.0, 0.0, 0.009999999999999995, 0.0, 0.0)"><g transform="matrix(0.01, 0.0, 0.0, 1.0, 0.0, 0.0)"><g><g><g style="fill: #add8e6;stroke: #add8e6;stroke-width: 1.2000000000000002;fill-opacity: 0.5;" transform="matrix(1.0, 0.0, 0.0, 1.0, 0.0, 0.0)"><path d="M 0.0 -2.0 L 0.0 2.0" style="vector-effect: non-scaling-stroke;fill:none;" /></g><g style="fill: #add8e6;stroke: #add8e6;stroke-width: 1.2000000000000002;fill-opacity: 0.5;" transform="matrix(1.0, 0.0, 0.0, 1.0, 0.0, 0.0)"><path d="M 0.0 -0.46712976694107056 L 1.0 -0.46712976694107056 L 1.0 -0.8653230667114258 L 2.0 -0.8653230667114258 L 2.0 -0.6150063276290894 L 3.0 -0.6150063276290894 L 3.0 -0.8867397308349609 L 4.0 -0.8867397308349609 L 4.0 -0.9539159536361694 L 5.0 -0.9539159536361694 L 5.0 -0.5948132276535034 L 6.0 -0.5948132276535034 L 6.0 -0.7702147364616394 L 7.0 -0.7702147364616394 L 7.0 -0.5052300691604614 L 8.0 -0.5052300691604614 L 8.0 -1.1781110763549805 L 9.0 -1.1781110763549805 L 9.0 -1.0167537927627563 L 10.0 -1.0167537927627563 L 10.0 -1.0167537927627563 L 9.0 -1.0167537927627563 L 9.0 -1.1781110763549805 L 8.0 -1.1781110763549805 L 8.0 -0.5052300691604614 L 7.0 -0.5052300691604614 L 7.0 -0.7702147364616394 L 6.0 -0.7702147364616394 L 6.0 -0.5948132276535034 L 5.0 -0.5948132276535034 L 5.0 -0.9539159536361694 L 4.0 -0.9539159536361694 L 4.0 -0.8867397308349609 L 3.0 -0.8867397308349609 L 3.0 -0.6150063276290894 L 2.0 -0.6150063276290894 L 2.0 -0.8653230667114258 L 1.0 -0.8653230667114258 L 1.0 -0.46712976694107056 L 0.0 -0.46712976694107056 Z" style="vector-effect: non-scaling-stroke;" /></g></g><g style="stroke: black;stroke-width: 1.2000000000000002;" transform="matrix(1.0, 0.0, 0.0, 1.0, 0.0, 0.0)"><path d="M 0.0 -0.46712976694107056 L 1.0 -0.46712976694107056 L 1.0 -0.8653230667114258 L 2.0 -0.8653230667114258 L 2.0 -0.6150063276290894 L 3.0 -0.6150063276290894 L 3.0 -0.8867397308349609 L 4.0 -0.8867397308349609 L 4.0 -0.9539159536361694 L 5.0 -0.9539159536361694 L 5.0 -0.5948132276535034 L 6.0 -0.5948132276535034 L 6.0 -0.7702147364616394 L 7.0 -0.7702147364616394 L 7.0 -0.5052300691604614 L 8.0 -0.5052300691604614 L 8.0 -1.1781110763549805 L 9.0 -1.1781110763549805 L 9.0 -1.0167537927627563 L 10.0 -1.0167537927627563" style="vector-effect: non-scaling-stroke;fill:none;" /></g></g></g></g></g></g><g transform="matrix(1.0, 0.0, 0.0, 1.0, -0.05, 0.16)"><g transform="matrix(1.0, 0.0, 0.0, 0.009999999999999995, 0.0, 0.0)"><g transform="matrix(0.01, 0.0, 0.0, 1.0, 0.0, 0.0)"><g><g><g style="fill: #ff8c00;stroke: #ff8c00;stroke-width: 1.2000000000000002;fill-opacity: 0.5;" transform="matrix(1.0, 0.0, 0.0, 1.0, 0.0, 0.0)"><path d="M 0.0 -2.0 L 0.0 2.0" style="vector-effect: non-scaling-stroke;fill:none;" /></g><g style="fill: #ff8c00;stroke: #ff8c00;stroke-width: 1.2000000000000002;fill-opacity: 0.5;" transform="matrix(1.0, 0.0, 0.0, 1.0, 0.0, 0.0)"><path d="M 0.0 -0.46712976694107056 L 1.0 -0.46712976694107056 L 1.0 -0.8653230667114258 L 2.0 -0.8653230667114258 L 2.0 -0.6150063276290894 L 3.0 -0.6150063276290894 L 3.0 -0.8867397308349609 L 4.0 -0.8867397308349609 L 4.0 -0.9539159536361694 L 5.0 -0.9539159536361694 L 5.0 -0.5948132276535034 L 6.0 -0.5948132276535034 L 6.0 -0.7702147364616394 L 7.0 -0.7702147364616394 L 7.0 -0.5052300691604614 L 8.0 -0.5052300691604614 L 8.0 -1.1781110763549805 L 9.0 -1.1781110763549805 L 9.0 -1.0167537927627563 L 10.0 -1.0167537927627563 L 10.0 -1.0167537927627563 L 9.0 -1.0167537927627563 L 9.0 -1.1781110763549805 L 8.0 -1.1781110763549805 L 8.0 -0.5052300691604614 L 7.0 -0.5052300691604614 L 7.0 -0.7702147364616394 L 6.0 -0.7702147364616394 L 6.0 -0.5948132276535034 L 5.0 -0.5948132276535034 L 5.0 -0.9539159536361694 L 4.0 -0.9539159536361694 L 4.0 -0.8867397308349609 L 3.0 -0.8867397308349609 L 3.0 -0.6150063276290894 L 2.0 -0.6150063276290894 L 2.0 -0.8653230667114258 L 1.0 -0.8653230667114258 L 1.0 -0.46712976694107056 L 0.0 -0.46712976694107056 Z" style="vector-effect: non-scaling-stroke;" /></g></g><g style="stroke: black;stroke-width: 1.2000000000000002;" transform="matrix(1.0, 0.0, 0.0, 1.0, 0.0, 0.0)"><path d="M 0.0 -0.46712976694107056 L 1.0 -0.46712976694107056 L 1.0 -0.8653230667114258 L 2.0 -0.8653230667114258 L 2.0 -0.6150063276290894 L 3.0 -0.6150063276290894 L 3.0 -0.8867397308349609 L 4.0 -0.8867397308349609 L 4.0 -0.9539159536361694 L 5.0 -0.9539159536361694 L 5.0 -0.5948132276535034 L 6.0 -0.5948132276535034 L 6.0 -0.7702147364616394 L 7.0 -0.7702147364616394 L 7.0 -0.5052300691604614 L 8.0 -0.5052300691604614 L 8.0 -1.1781110763549805 L 9.0 -1.1781110763549805 L 9.0 -1.0167537927627563 L 10.0 -1.0167537927627563" style="vector-effect: non-scaling-stroke;fill:none;" /></g></g></g></g></g></g><g transform="matrix(1.0, 0.0, 0.0, 1.0, -0.05, 0.16)"><g transform="matrix(1.0, 0.0, 0.0, 0.009999999999999995, 0.0, 0.0)"><g transform="matrix(0.01, 0.0, 0.0, 1.0, 0.0, 0.0)"><g><g><g style="fill: #0000ff;stroke: #0000ff;stroke-width: 1.2000000000000002;fill-opacity: 0.5;" transform="matrix(1.0, 0.0, 0.0, 1.0, 0.0, 0.0)"><path d="M 0.0 -2.0 L 0.0 2.0" style="vector-effect: non-scaling-stroke;fill:none;" /></g><g style="fill: #0000ff;stroke: #0000ff;stroke-width: 1.2000000000000002;fill-opacity: 0.5;" transform="matrix(1.0, 0.0, 0.0, 1.0, 0.0, 0.0)"><path d="M 0.0 -0.46712976694107056 L 1.0 -0.46712976694107056 L 1.0 -0.8653230667114258 L 2.0 -0.8653230667114258 L 2.0 -0.6150063276290894 L 3.0 -0.6150063276290894 L 3.0 -0.8867397308349609 L 4.0 -0.8867397308349609 L 4.0 -0.9539159536361694 L 5.0 -0.9539159536361694 L 5.0 -0.5948132276535034 L 6.0 -0.5948132276535034 L 6.0 -0.7702147364616394 L 7.0 -0.7702147364616394 L 7.0 -0.5052300691604614 L 8.0 -0.5052300691604614 L 8.0 -1.1781110763549805 L 9.0 -1.1781110763549805 L 9.0 -1.0167537927627563 L 10.0 -1.0167537927627563 L 10.0 -1.0167537927627563 L 9.0 -1.0167537927627563 L 9.0 -1.1781110763549805 L 8.0 -1.1781110763549805 L 8.0 -0.5052300691604614 L 7.0 -0.5052300691604614 L 7.0 -0.7702147364616394 L 6.0 -0.7702147364616394 L 6.0 -0.5948132276535034 L 5.0 -0.5948132276535034 L 5.0 -0.9539159536361694 L 4.0 -0.9539159536361694 L 4.0 -0.8867397308349609 L 3.0 -0.8867397308349609 L 3.0 -0.6150063276290894 L 2.0 -0.6150063276290894 L 2.0 -0.8653230667114258 L 1.0 -0.8653230667114258 L 1.0 -0.46712976694107056 L 0.0 -0.46712976694107056 Z" style="vector-effect: non-scaling-stroke;" /></g></g><g style="stroke: black;stroke-width: 1.2000000000000002;" transform="matrix(1.0, 0.0, 0.0, 1.0, 0.0, 0.0)"><path d="M 0.0 -0.46712976694107056 L 1.0 -0.46712976694107056 L 1.0 -0.8653230667114258 L 2.0 -0.8653230667114258 L 2.0 -0.6150063276290894 L 3.0 -0.6150063276290894 L 3.0 -0.8867397308349609 L 4.0 -0.8867397308349609 L 4.0 -0.9539159536361694 L 5.0 -0.9539159536361694 L 5.0 -0.5948132276535034 L 6.0 -0.5948132276535034 L 6.0 -0.7702147364616394 L 7.0 -0.7702147364616394 L 7.0 -0.5052300691604614 L 8.0 -0.5052300691604614 L 8.0 -1.1781110763549805 L 9.0 -1.1781110763549805 L 9.0 -1.0167537927627563 L 10.0 -1.0167537927627563" style="vector-effect: non-scaling-stroke;fill:none;" /></g></g></g></g></g></g></g></g><g /></g></g></g></g></svg>