<?xml version="1.0" encoding="utf-8" ?>
<svg baseProfile="full" height="300" version="1.1" width="1056" xmlns="http://www.w3.org/2000/svg" xmlns:ev="http://www.w3.org/2001/xml-events" xmlns:xlink="http://www.w3.org/1999/xlink"><defs><marker id="arrow" markerHeight="3.5" markerWidth="5" orient="auto" refX="5.0" refY="1.7"><polygon points="0,0 5,1.75 0,3.5" /></marker></defs><g style="fill:white;"><g transform="matrix(1.0, 0.0, 0.0, 1.0, 528.409090909091, 150.0)"><g transform="matrix(1082.2510822510822, 0.0, 0.0, 1082.2510822510822, 0.0, 0.0)"><g><g transform="matrix(1.0, 0.0, 0.0, 1.0, -0.0, -0.08000000000000002)"><g><g><g style="fill: #ffffff;stroke: black;stroke-width: 1.2000000000000002;" transform="matrix(1.0, 0.0, 0.0, 1.0, -0.465, -0.052000000000000005)"><path d="M 0.0 0.0 L 0.93 0.0 L 0.93 0.264 L 0.0 0.264 L 0.0 0.0 Z" style="vector-effect: non-scaling-stroke;" /></g><g><g><g><g><g><g><g><g transform="matrix(1.0, 0.0, 0.0, 1.0, -0.41500000000000004, -0.03)"><g><g><g transform="matrix(1.0, 0.0, 0.0, 1.0, 0.075, 0.0)"><g transform="matrix(1.0, 0.0, 0.0, 1.0, 0.0, 0.03)"><g transform="matrix(0.01, 0.0, 0.0, 0.01, 0.0, 0.0)"><g><g><g transform="matrix(1.0, 0.0, 0.0, 1.0, 12.5, 0.0)"><g transform="matrix(1.0, 0.0, 0.0, 1.0, -20.0, -0.0)"><g><g style="fill: #d3d3d3;stroke: black;stroke-width: 1.2000000000000002;" transform="matrix(1.0, 0.0, 0.0, 1.0, 0.0, -3.0)"><path d="M 0.0 0.0 L 40.0 0.0 L 40.0 6.0 L 0.0 6.0 L 0.0 0.0 Z" style="vector-effect: non-scaling-stroke;" /></g><g transform="matrix(1.0, 0.0, 0.0, 1.0, 1.875, 0.0)"><g><g style="stroke: black;stroke-width: 1.2000000000000002;" transform="matrix(1.0, 0.0, 0.0, 1.0, 0.0, 0.0)"><g /></g><g style="fill: #ffa500;stroke: black;stroke-width: 1.2000000000000002;" transform="matrix(1.0, 0.0, 0.0, 1.0, 1.875, 0.0)"><text style="text-align:center; text-anchor:middle; dominant-baseline:middle;&#10;                      font-family:sans-serif; font-weight: bold;&#10;                      font-size:3px;&#10;                      vector-effect: non-scaling-stroke;" transform="translate(-5e-05, 0)">x</text></g></g></g></g></g></g><g><g><g><g><g><g><g><g><g style="stroke: black;stroke-width: 1.2000000000000002;" transform="matrix(1.0, 0.0, 0.0, 1.0, 0.0, 0.0)"><path d="M 0.0 -2.0 L 0.0 2.0" style="vector-effect: non-scaling-stroke;fill:none;" /></g><g style="stroke: #808080;stroke-width: 0.6000000000000001;" transform="matrix(1.0, 0.0, 0.0, 1.0, 0.0, 0.0)"><path d="M 0.0 0.0 L 25.0 0.0" style="vector-effect: non-scaling-stroke;fill:none;" /></g></g><g style="stroke: black;stroke-width: 2.4000000000000004;" transform="matrix(1.0, 0.0, 0.0, 1.0, 0.0, 0.0)"><path d="M 0.0 -0.9227485060691833 L 1.0 -0.9227485060691833 L 1.0 -0.9909365773200989 L 2.0 -0.9909365773200989 L 2.0 0.7891024351119995 L 3.0 0.7891024351119995 L 3.0 -0.07757601141929626 L 4.0 -0.07757601141929626 L 4.0 0.01911219209432602 L 5.0 0.01911219209432602 L 5.0 -0.8911665081977844 L 6.0 -0.8911665081977844 L 6.0 -1.1970560550689697 L 7.0 -1.1970560550689697 L 7.0 -0.5381621718406677 L 8.0 -0.5381621718406677 L 8.0 -0.9204915165901184 L 9.0 -0.9204915165901184 L 9.0 -1.1677565574645996 L 10.0 -1.1677565574645996 L 10.0 -0.10237627476453781 L 11.0 -0.10237627476453781 L 11.0 -1.0883831977844238 L 12.0 -1.0883831977844238 L 12.0 -1.2543400526046753 L 13.0 -1.2543400526046753 L 13.0 -1.146077275276184 L 14.0 -1.146077275276184 L 14.0 -1.46364164352417 L 15.0 -1.46364164352417 L 15.0 0.2734439969062805 L 16.0 0.2734439969062805 L 16.0 -0.6144730448722839 L 17.0 -0.6144730448722839 L 17.0 -0.4818328320980072 L 18.0 -0.4818328320980072 L 18.0 -0.8879019618034363 L 19.0 -0.8879019618034363 L 19.0 -0.9621256589889526 L 20.0 -0.9621256589889526 L 20.0 -0.560005247592926 L 21.0 -0.560005247592926 L 21.0 -1.7141392230987549 L 22.0 -1.7141392230987549 L 22.0 -0.17204943299293518 L 23.0 -0.17204943299293518 L 23.0 -1.0008693933486938 L 24.0 -1.0008693933486938 L 24.0 -0.29286766052246094 L 25.0 -0.29286766052246094" style="vector-effect: non-scaling-stroke;fill:none;" /></g></g><g style="stroke: black;stroke-width: 1.2000000000000002;" transform="matrix(1.0, 0.0, 0.0, 1.0, 0.0, 0.0)"><path d="M 0.0 -2.0 L 0.0 2.0" style="vector-effect: non-scaling-stroke;fill:none;" /></g></g><g style="stroke: black;stroke-width: 1.2000000000000002;" transform="matrix(1.0, 0.0, 0.0, 1.0, 0.0, 0.0)"><path d="M 5.0 -2.0 L 5.0 2.0" style="vector-effect: non-scaling-stroke;fill:none;" /></g></g><g style="stroke: black;stroke-width: 1.2000000000000002;" transform="matrix(1.0, 0.0, 0.0, 1.0, 0.0, 0.0)"><path d="M 10.0 -2.0 L 10.0 2.0" style="vector-effect: non-scaling-stroke;fill:none;" /></g></g><g style="stroke: black;stroke-width: 1.2000000000000002;" transform="matrix(1.0, 0.0, 0.0, 1.0, 0.0, 0.0)"><path d="M 15.0 -2.0 L 15.0 2.0" style="vector-effect: non-scaling-stroke;fill:none;" /></g></g><g style="stroke: black;stroke-width: 1.2000000000000002;" transform="matrix(1.0, 0.0, 0.0, 1.0, 0.0, 0.0)"><path d="M 20.0 -2.0 L 20.0 2.0" style="vector-effect: non-scaling-stroke;fill:none;" /></g></g></g></g><g><g><g><g><g><g><g><g><g style="stroke: black;stroke-width: 1.2000000000000002;" transform="matrix(1.0, 0.0, 0.0, 1.0, 0.0, 0.0)"><path d="M 0.0 -2.0 L 0.0 2.0" style="vector-effect: non-scaling-stroke;fill:none;" /></g><g style="stroke: #808080;stroke-width: 0.6000000000000001;" transform="matrix(1.0, 0.0, 0.0, 1.0, 0.0, 0.0)"><path d="M 0.0 0.0 L 25.0 0.0" style="vector-effect: non-scaling-stroke;fill:none;" /></g></g><g style="stroke: black;stroke-width: 2.4000000000000004;" transform="matrix(1.0, 0.0, 0.0, 1.0, 0.0, 0.0)"><path d="M 0.0 -0.9227485060691833 L 1.0 -0.9227485060691833 L 1.0 -0.9909365773200989 L 2.0 -0.9909365773200989 L 2.0 0.7891024351119995 L 3.0 0.7891024351119995 L 3.0 -0.07757601141929626 L 4.0 -0.07757601141929626 L 4.0 0.01911219209432602 L 5.0 0.01911219209432602 L 5.0 -0.8911665081977844 L 6.0 -0.8911665081977844 L 6.0 -1.1970560550689697 L 7.0 -1.1970560550689697 L 7.0 -0.5381621718406677 L 8.0 -0.5381621718406677 L 8.0 -0.9204915165901184 L 9.0 -0.9204915165901184 L 9.0 -1.1677565574645996 L 10.0 -1.1677565574645996 L 10.0 -0.10237627476453781 L 11.0 -0.10237627476453781 L 11.0 -1.0883831977844238 L 12.0 -1.0883831977844238 L 12.0 -1.2543400526046753 L 13.0 -1.2543400526046753 L 13.0 -1.146077275276184 L 14.0 -1.146077275276184 L 14.0 -1.46364164352417 L 15.0 -1.46364164352417 L 15.0 0.2734439969062805 L 16.0 0.2734439969062805 L 16.0 -0.6144730448722839 L 17.0 -0.6144730448722839 L 17.0 -0.4818328320980072 L 18.0 -0.4818328320980072 L 18.0 -0.8879019618034363 L 19.0 -0.8879019618034363 L 19.0 -0.9621256589889526 L 20.0 -0.9621256589889526 L 20.0 -0.560005247592926 L 21.0 -0.560005247592926 L 21.0 -1.7141392230987549 L 22.0 -1.7141392230987549 L 22.0 -0.17204943299293518 L 23.0 -0.17204943299293518 L 23.0 -1.0008693933486938 L 24.0 -1.0008693933486938 L 24.0 -0.29286766052246094 L 25.0 -0.29286766052246094" style="vector-effect: non-scaling-stroke;fill:none;" /></g></g><g style="stroke: black;stroke-width: 1.2000000000000002;" transform="matrix(1.0, 0.0, 0.0, 1.0, 0.0, 0.0)"><path d="M 0.0 -2.0 L 0.0 2.0" style="vector-effect: non-scaling-stroke;fill:none;" /></g></g><g style="stroke: black;stroke-width: 1.2000000000000002;" transform="matrix(1.0, 0.0, 0.0, 1.0, 0.0, 0.0)"><path d="M 5.0 -2.0 L 5.0 2.0" style="vector-effect: non-scaling-stroke;fill:none;" /></g></g><g style="stroke: black;stroke-width: 1.2000000000000002;" transform="matrix(1.0, 0.0, 0.0, 1.0, 0.0, 0.0)"><path d="M 10.0 -2.0 L 10.0 2.0" style="vector-effect: non-scaling-stroke;fill:none;" /></g></g><g style="stroke: black;stroke-width: 1.2000000000000002;" transform="matrix(1.0, 0.0, 0.0, 1.0, 0.0, 0.0)"><path d="M 15.0 -2.0 L 15.0 2.0" style="vector-effect: non-scaling-stroke;fill:none;" /></g></g><g style="stroke: black;stroke-width: 1.2000000000000002;" transform="matrix(1.0, 0.0, 0.0, 1.0, 0.0, 0.0)"><path d="M 20.0 -2.0 L 20.0 2.0" style="vector-effect: non-scaling-stroke;fill:none;" /></g></g></g></g></g></g></g><g style="stroke: black;stroke-width: 1.2000000000000002;" transform="matrix(1.0, 0.0, 0.0, 1.0, 0.41500000000000004, 0.0)"><g /></g></g><g transform="matrix(1.0, 0.0, 0.0, 1.0, 0.43000000000000005, 0.0)"><g transform="matrix(1.0, 0.0, 0.0, 1.0, 0.075, 0.0)"><g transform="matrix(1.0, 0.0, 0.0, 1.0, 0.0, 0.03)"><g transform="matrix(0.01, 0.0, 0.0, 0.01, 0.0, 0.0)"><g><g><g transform="matrix(1.0, 0.0, 0.0, 1.0, 12.5, 0.0)"><g transform="matrix(1.0, 0.0, 0.0, 1.0, -20.0, -0.0)"><g><g style="fill: #d3d3d3;stroke: black;stroke-width: 1.2000000000000002;" transform="matrix(1.0, 0.0, 0.0, 1.0, 0.0, -3.0)"><path d="M 0.0 0.0 L 40.0 0.0 L 40.0 6.0 L 0.0 6.0 L 0.0 0.0 Z" style="vector-effect: non-scaling-stroke;" /></g><g transform="matrix(1.0, 0.0, 0.0, 1.0, 1.875, 0.0)"><g><g style="stroke: black;stroke-width: 1.2000000000000002;" transform="matrix(1.0, 0.0, 0.0, 1.0, 0.0, 0.0)"><g /></g><g style="fill: #ffa500;stroke: black;stroke-width: 1.2000000000000002;" transform="matrix(1.0, 0.0, 0.0, 1.0, 1.875, 0.0)"><text style="text-align:center; text-anchor:middle; dominant-baseline:middle;&#10;                      font-family:sans-serif; font-weight: bold;&#10;                      font-size:3px;&#10;                      vector-effect: non-scaling-stroke;" transform="translate(-5e-05, 0)">y</text></g></g></g></g></g></g><g><g><g><g style="stroke: black;stroke-width: 1.2000000000000002;" transform="matrix(1.0, 0.0, 0.0, 1.0, 0.0, 0.0)"><path d="M 0.0 -2.0 L 0.0 2.0" style="vector-effect: non-scaling-stroke;fill:none;" /></g><g style="stroke: #808080;stroke-width: 0.6000000000000001;" transform="matrix(1.0, 0.0, 0.0, 1.0, 0.0, 0.0)"><path d="M 0.0 0.0 L 25.0 0.0" style="vector-effect: non-scaling-stroke;fill:none;" /></g></g><g style="stroke: black;stroke-width: 2.4000000000000004;" transform="matrix(1.0, 0.0, 0.0, 1.0, 0.0, 0.0)"><path d="M 0.0 -1.59687340259552 L 1.0 -1.59687340259552 L 1.0 -1.9491041898727417 L 2.0 -1.9491041898727417 L 2.0 -1.7712304592132568 L 3.0 -1.7712304592132568 L 3.0 -0.13592040538787842 L 4.0 -0.13592040538787842 L 4.0 -0.16275697946548462 L 5.0 -0.16275697946548462 L 5.0 -1.4939042329788208 L 6.0 -1.4939042329788208 L 6.0 -0.6856494545936584 L 7.0 -0.6856494545936584 L 7.0 -1.6778924465179443 L 8.0 -1.6778924465179443 L 8.0 -1.444204568862915 L 9.0 -1.444204568862915 L 9.0 -1.217467188835144 L 10.0 -1.217467188835144 L 10.0 -0.15922601521015167 L 11.0 -0.15922601521015167 L 11.0 -0.5722299814224243 L 12.0 -0.5722299814224243 L 12.0 -1.6945139169692993 L 13.0 -1.6945139169692993 L 13.0 -0.581519365310669 L 14.0 -0.581519365310669 L 14.0 -0.020752618089318275 L 15.0 -0.020752618089318275 L 15.0 -0.7649675011634827 L 16.0 -0.7649675011634827 L 16.0 -1.352418065071106 L 17.0 -1.352418065071106 L 17.0 -0.794601321220398 L 18.0 -0.794601321220398 L 18.0 -0.23699279129505157 L 19.0 -0.23699279129505157 L 19.0 -1.4524481296539307 L 20.0 -1.4524481296539307 L 20.0 -1.4297020435333252 L 21.0 -1.4297020435333252 L 21.0 0.10874383896589279 L 22.0 0.10874383896589279 L 22.0 -0.08931400626897812 L 23.0 -0.08931400626897812 L 23.0 -0.5557575225830078 L 24.0 -0.5557575225830078 L 24.0 -1.5842432975769043 L 25.0 -1.5842432975769043" style="vector-effect: non-scaling-stroke;fill:none;" /></g></g></g></g><g><g><g><g style="stroke: black;stroke-width: 1.2000000000000002;" transform="matrix(1.0, 0.0, 0.0, 1.0, 0.0, 0.0)"><path d="M 0.0 -2.0 L 0.0 2.0" style="vector-effect: non-scaling-stroke;fill:none;" /></g><g style="stroke: #808080;stroke-width: 0.6000000000000001;" transform="matrix(1.0, 0.0, 0.0, 1.0, 0.0, 0.0)"><path d="M 0.0 0.0 L 25.0 0.0" style="vector-effect: non-scaling-stroke;fill:none;" /></g></g><g style="stroke: black;stroke-width: 2.4000000000000004;" transform="matrix(1.0, 0.0, 0.0, 1.0, 0.0, 0.0)"><path d="M 0.0 -1.59687340259552 L 1.0 -1.59687340259552 L 1.0 -1.9491041898727417 L 2.0 -1.9491041898727417 L 2.0 -1.7712304592132568 L 3.0 -1.7712304592132568 L 3.0 -0.13592040538787842 L 4.0 -0.13592040538787842 L 4.0 -0.16275697946548462 L 5.0 -0.16275697946548462 L 5.0 -1.4939042329788208 L 6.0 -1.4939042329788208 L 6.0 -0.6856494545936584 L 7.0 -0.6856494545936584 L 7.0 -1.6778924465179443 L 8.0 -1.6778924465179443 L 8.0 -1.444204568862915 L 9.0 -1.444204568862915 L 9.0 -1.217467188835144 L 10.0 -1.217467188835144 L 10.0 -0.15922601521015167 L 11.0 -0.15922601521015167 L 11.0 -0.5722299814224243 L 12.0 -0.5722299814224243 L 12.0 -1.6945139169692993 L 13.0 -1.6945139169692993 L 13.0 -0.581519365310669 L 14.0 -0.581519365310669 L 14.0 -0.020752618089318275 L 15.0 -0.020752618089318275 L 15.0 -0.7649675011634827 L 16.0 -0.7649675011634827 L 16.0 -1.352418065071106 L 17.0 -1.352418065071106 L 17.0 -0.794601321220398 L 18.0 -0.794601321220398 L 18.0 -0.23699279129505157 L 19.0 -0.23699279129505157 L 19.0 -1.4524481296539307 L 20.0 -1.4524481296539307 L 20.0 -1.4297020435333252 L 21.0 -1.4297020435333252 L 21.0 0.10874383896589279 L 22.0 0.10874383896589279 L 22.0 -0.08931400626897812 L 23.0 -0.08931400626897812 L 23.0 -0.5557575225830078 L 24.0 -0.5557575225830078 L 24.0 -1.5842432975769043 L 25.0 -1.5842432975769043" style="vector-effect: non-scaling-stroke;fill:none;" /></g></g></g></g></g></g></g></g></g></g><g style="stroke: black;stroke-width: 1.2000000000000002;" transform="matrix(0.0, -1.0, 1.0, 0.0, 0.0, 0.08)"><g /></g></g><g transform="matrix(1.0, 0.0, 0.0, 1.0, 0.0, 0.16)"><g transform="matrix(1.0, 0.0, 0.0, 1.0, -0.2, -0.03)"><g transform="matrix(1.0, 0.0, 0.0, 1.0, 0.075, 0.0)"><g transform="matrix(1.0, 0.0, 0.0, 1.0, 0.0, 0.03)"><g transform="matrix(0.01, 0.0, 0.0, 0.01, 0.0, 0.0)"><g><g><g transform="matrix(1.0, 0.0, 0.0, 1.0, 12.5, 0.0)"><g transform="matrix(1.0, 0.0, 0.0, 1.0, -20.0, -0.0)"><g><g style="fill: #d3d3d3;stroke: black;stroke-width: 1.2000000000000002;" transform="matrix(1.0, 0.0, 0.0, 1.0, 0.0, -3.0)"><path d="M 0.0 0.0 L 40.0 0.0 L 40.0 6.0 L 0.0 6.0 L 0.0 0.0 Z" style="vector-effect: non-scaling-stroke;" /></g><g transform="matrix(1.0, 0.0, 0.0, 1.0, 1.875, 0.0)"><g><g style="stroke: black;stroke-width: 1.2000000000000002;" transform="matrix(1.0, 0.0, 0.0, 1.0, 0.0, 0.0)"><g /></g><g style="fill: #ffa500;stroke: black;stroke-width: 1.2000000000000002;" transform="matrix(1.0, 0.0, 0.0, 1.0, 1.875, 0.0)"><text style="text-align:center; text-anchor:middle; dominant-baseline:middle;&#10;                      font-family:sans-serif; font-weight: bold;&#10;                      font-size:3px;&#10;                      vector-effect: non-scaling-stroke;" transform="translate(-5e-05, 0)">f(x)</text></g></g></g></g></g></g><g><g><g><g style="stroke: black;stroke-width: 1.2000000000000002;" transform="matrix(1.0, 0.0, 0.0, 1.0, 0.0, 0.0)"><path d="M 0.0 -2.0 L 0.0 2.0" style="vector-effect: non-scaling-stroke;fill:none;" /></g><g style="stroke: #808080;stroke-width: 0.6000000000000001;" transform="matrix(1.0, 0.0, 0.0, 1.0, 0.0, 0.0)"><path d="M 0.0 0.0 L 25.0 0.0" style="vector-effect: non-scaling-stroke;fill:none;" /></g></g><g style="stroke: black;stroke-width: 2.4000000000000004;" transform="matrix(1.0, 0.0, 0.0, 1.0, 0.0, 0.0)"><path d="M 0.0 -0.2860249876976013 L 1.0 -0.2860249876976013 L 1.0 -0.2133413553237915 L 2.0 -0.2133413553237915 L 2.0 -0.20198750495910645 L 3.0 -0.20198750495910645 L 3.0 -0.11054203659296036 L 4.0 -0.11054203659296036 L 4.0 -0.1422637552022934 L 5.0 -0.1422637552022934 L 5.0 -0.5670746564865112 L 6.0 -0.5670746564865112 L 6.0 -0.3983592689037323 L 7.0 -0.3983592689037323 L 7.0 -0.533463716506958 L 8.0 -0.533463716506958 L 8.0 -0.3030012547969818 L 9.0 -0.3030012547969818 L 9.0 -0.4800564646720886 L 10.0 -0.4800564646720886 L 10.0 -0.49584293365478516 L 11.0 -0.49584293365478516 L 11.0 -0.3054375946521759 L 12.0 -0.3054375946521759 L 12.0 -0.5174416303634644 L 13.0 -0.5174416303634644 L 13.0 -0.3400228023529053 L 14.0 -0.3400228023529053 L 14.0 -0.5351146459579468 L 15.0 -0.5351146459579468 L 15.0 -0.26127976179122925 L 16.0 -0.26127976179122925 L 16.0 -0.12602508068084717 L 17.0 -0.12602508068084717 L 17.0 -0.21546192467212677 L 18.0 -0.21546192467212677 L 18.0 -0.18755881488323212 L 19.0 -0.18755881488323212 L 19.0 -0.35274678468704224 L 20.0 -0.35274678468704224 L 20.0 -0.4666758179664612 L 21.0 -0.4666758179664612 L 21.0 -0.3687005341053009 L 22.0 -0.3687005341053009 L 22.0 -0.49810296297073364 L 23.0 -0.49810296297073364 L 23.0 -0.30516958236694336 L 24.0 -0.30516958236694336 L 24.0 -0.4099307954311371 L 25.0 -0.4099307954311371" style="vector-effect: non-scaling-stroke;fill:none;" /></g></g></g></g><g><g><g><g style="stroke: black;stroke-width: 1.2000000000000002;" transform="matrix(1.0, 0.0, 0.0, 1.0, 0.0, 0.0)"><path d="M 0.0 -2.0 L 0.0 2.0" style="vector-effect: non-scaling-stroke;fill:none;" /></g><g style="stroke: #808080;stroke-width: 0.6000000000000001;" transform="matrix(1.0, 0.0, 0.0, 1.0, 0.0, 0.0)"><path d="M 0.0 0.0 L 25.0 0.0" style="vector-effect: non-scaling-stroke;fill:none;" /></g></g><g style="stroke: black;stroke-width: 2.4000000000000004;" transform="matrix(1.0, 0.0, 0.0, 1.0, 0.0, 0.0)"><path d="M 0.0 -0.2860249876976013 L 1.0 -0.2860249876976013 L 1.0 -0.2133413553237915 L 2.0 -0.2133413553237915 L 2.0 -0.20198750495910645 L 3.0 -0.20198750495910645 L 3.0 -0.11054203659296036 L 4.0 -0.11054203659296036 L 4.0 -0.1422637552022934 L 5.0 -0.1422637552022934 L 5.0 -0.5670746564865112 L 6.0 -0.5670746564865112 L 6.0 -0.3983592689037323 L 7.0 -0.3983592689037323 L 7.0 -0.533463716506958 L 8.0 -0.533463716506958 L 8.0 -0.3030012547969818 L 9.0 -0.3030012547969818 L 9.0 -0.4800564646720886 L 10.0 -0.4800564646720886 L 10.0 -0.49584293365478516 L 11.0 -0.49584293365478516 L 11.0 -0.3054375946521759 L 12.0 -0.3054375946521759 L 12.0 -0.5174416303634644 L 13.0 -0.5174416303634644 L 13.0 -0.3400228023529053 L 14.0 -0.3400228023529053 L 14.0 -0.5351146459579468 L 15.0 -0.5351146459579468 L 15.0 -0.26127976179122925 L 16.0 -0.26127976179122925 L 16.0 -0.12602508068084717 L 17.0 -0.12602508068084717 L 17.0 -0.21546192467212677 L 18.0 -0.21546192467212677 L 18.0 -0.18755881488323212 L 19.0 -0.18755881488323212 L 19.0 -0.35274678468704224 L 20.0 -0.35274678468704224 L 20.0 -0.4666758179664612 L 21.0 -0.4666758179664612 L 21.0 -0.3687005341053009 L 22.0 -0.3687005341053009 L 22.0 -0.49810296297073364 L 23.0 -0.49810296297073364 L 23.0 -0.30516958236694336 L 24.0 -0.30516958236694336 L 24.0 -0.4099307954311371 L 25.0 -0.4099307954311371" style="vector-effect: non-scaling-stroke;fill:none;" /></g></g></g></g></g></g></g></g></g></g><g transform="matrix(1.0, 0.0, 0.0, 1.0, -0.125, 0.16)"><g transform="matrix(1.0, 0.0, 0.0, 0.009999999999999995, 0.0, 0.0)"><g transform="matrix(0.01, 0.0, 0.0, 1.0, 0.0, 0.0)"><g><g><g style="fill: #ffffe0;stroke: #ffffe0;stroke-width: 1.2000000000000002;fill-opacity: 0.5;" transform="matrix(1.0, 0.0, 0.0, 1.0, 0.0, 0.0)"><path d="M 0.0 -2.0 L 0.0 2.0" style="vector-effect: non-scaling-stroke;fill:none;" /></g><g style="fill: #ffffe0;stroke: #ffffe0;stroke-width: 1.2000000000000002;fill-opacity: 0.5;" transform="matrix(1.0, 0.0, 0.0, 1.0, 0.0, 0.0)"><path d="M 0.0 -1.3708295822143555 L 1.0 -1.3708295822143555 L 1.0 -1.1044307947158813 L 2.0 -1.1044307947158813 L 2.0 -1.413451910018921 L 3.0 -1.413451910018921 L 3.0 -0.699882984161377 L 4.0 -0.699882984161377 L 4.0 -1.0259026288986206 L 5.0 -1.0259026288986206 L 5.0 -1.6518791913986206 L 6.0 -1.6518791913986206 L 6.0 -1.2983894348144531 L 7.0 -1.2983894348144531 L 7.0 -1.7255566120147705 L 8.0 -1.7255566120147705 L 8.0 -0.8990477323532104 L 9.0 -0.8990477323532104 L 9.0 -1.3800866603851318 L 10.0 -1.3800866603851318 L 10.0 -1.5746870040893555 L 11.0 -1.5746870040893555 L 11.0 -1.1935467720031738 L 12.0 -1.1935467720031738 L 12.0 -1.7393368482589722 L 13.0 -1.7393368482589722 L 13.0 -0.933089017868042 L 14.0 -0.933089017868042 L 14.0 -1.40534245967865 L 15.0 -1.40534245967865 L 15.0 -1.360985517501831 L 16.0 -1.360985517501831 L 16.0 -1.0200947523117065 L 17.0 -1.0200947523117065 L 17.0 -1.4179856777191162 L 18.0 -1.4179856777191162 L 18.0 -0.78062504529953 L 19.0 -0.78062504529953 L 19.0 -1.2319152355194092 L 20.0 -1.2319152355194092 L 20.0 -1.5574407577514648 L 21.0 -1.5574407577514648 L 21.0 -1.2568097114562988 L 22.0 -1.2568097114562988 L 22.0 -1.6842353343963623 L 23.0 -1.6842353343963623 L 23.0 -0.9041962623596191 L 24.0 -0.9041962623596191 L 24.0 -1.3040004968643188 L 25.0 -1.3040004968643188 L 25.0 -0.4099307954311371 L 24.0 -0.4099307954311371 L 24.0 -0.30516958236694336 L 23.0 -0.30516958236694336 L 23.0 -0.49810296297073364 L 22.0 -0.49810296297073364 L 22.0 -0.3687005341053009 L 21.0 -0.3687005341053009 L 21.0 -0.4666758179664612 L 20.0 -0.4666758179664612 L 20.0 -0.35274678468704224 L 19.0 -0.35274678468704224 L 19.0 -0.18755881488323212 L 18.0 -0.18755881488323212 L 18.0 -0.21546192467212677 L 17.0 -0.21546192467212677 L 17.0 -0.12602508068084717 L 16.0 -0.12602508068084717 L 16.0 -0.26127976179122925 L 15.0 -0.26127976179122925 L 15.0 -0.5351146459579468 L 14.0 -0.5351146459579468 L 14.0 -0.3400228023529053 L 13.0 -0.3400228023529053 L 13.0 -0.5174416303634644 L 12.0 -0.5174416303634644 L 12.0 -0.3054375946521759 L 11.0 -0.3054375946521759 L 11.0 -0.49584293365478516 L 10.0 -0.49584293365478516 L 10.0 -0.4800564646720886 L 9.0 -0.4800564646720886 L 9.0 -0.3030012547969818 L 8.0 -0.3030012547969818 L 8.0 -0.533463716506958 L 7.0 -0.533463716506958 L 7.0 -0.3983592689037323 L 6.0 -0.3983592689037323 L 6.0 -0.5670746564865112 L 5.0 -0.5670746564865112 L 5.0 -0.1422637552022934 L 4.0 -0.1422637552022934 L 4.0 -0.11054203659296036 L 3.0 -0.11054203659296036 L 3.0 -0.20198750495910645 L 2.0 -0.20198750495910645 L 2.0 -0.2133413553237915 L 1.0 -0.2133413553237915 L 1.0 -0.2860249876976013 L 0.0 -0.2860249876976013 Z" style="vector-effect: non-scaling-stroke;" /></g></g><g style="stroke: black;stroke-width: 1.2000000000000002;" transform="matrix(1.0, 0.0, 0.0, 1.0, 0.0, 0.0)"><path d="M 0.0 -0.2860249876976013 L 1.0 -0.2860249876976013 L 1.0 -0.2133413553237915 L 2.0 -0.2133413553237915 L 2.0 -0.20198750495910645 L 3.0 -0.20198750495910645 L 3.0 -0.11054203659296036 L 4.0 -0.11054203659296036 L 4.0 -0.1422637552022934 L 5.0 -0.1422637552022934 L 5.0 -0.5670746564865112 L 6.0 -0.5670746564865112 L 6.0 -0.3983592689037323 L 7.0 -0.3983592689037323 L 7.0 -0.533463716506958 L 8.0 -0.533463716506958 L 8.0 -0.3030012547969818 L 9.0 -0.3030012547969818 L 9.0 -0.4800564646720886 L 10.0 -0.4800564646720886 L 10.0 -0.49584293365478516 L 11.0 -0.49584293365478516 L 11.0 -0.3054375946521759 L 12.0 -0.3054375946521759 L 12.0 -0.5174416303634644 L 13.0 -0.5174416303634644 L 13.0 -0.3400228023529053 L 14.0 -0.3400228023529053 L 14.0 -0.5351146459579468 L 15.0 -0.5351146459579468 L 15.0 -0.26127976179122925 L 16.0 -0.26127976179122925 L 16.0 -0.12602508068084717 L 17.0 -0.12602508068084717 L 17.0 -0.21546192467212677 L 18.0 -0.21546192467212677 L 18.0 -0.18755881488323212 L 19.0 -0.18755881488323212 L 19.0 -0.35274678468704224 L 20.0 -0.35274678468704224 L 20.0 -0.4666758179664612 L 21.0 -0.4666758179664612 L 21.0 -0.3687005341053009 L 22.0 -0.3687005341053009 L 22.0 -0.49810296297073364 L 23.0 -0.49810296297073364 L 23.0 -0.30516958236694336 L 24.0 -0.30516958236694336 L 24.0 -0.4099307954311371 L 25.0 -0.4099307954311371" style="vector-effect: non-scaling-stroke;fill:none;" /></g></g></g></g></g></g><g transform="matrix(1.0, 0.0, 0.0, 1.0, -0.125, 0.16)"><g transform="matrix(1.0, 0.0, 0.0, 0.009999999999999995, 0.0, 0.0)"><g transform="matrix(0.01, 0.0, 0.0, 1.0, 0.0, 0.0)"><g><g><g style="fill: #add8e6;stroke: #add8e6;stroke-width: 1.2000000000000002;fill-opacity: 0.5;" transform="matrix(1.0, 0.0, 0.0, 1.0, 0.0, 0.0)"><path d="M 0.0 -2.0 L 0.0 2.0" style="vector-effect: non-scaling-stroke;fill:none;" /></g><g style="fill: #add8e6;stroke: #add8e6;stroke-width: 1.2000000000000002;fill-opacity: 0.5;" transform="matrix(1.0, 0.0, 0.0, 1.0, 0.0, 0.0)"><path d="M 0.0 -0.5155028700828552 L 1.0 -0.5155028700828552 L 1.0 -0.45026981830596924 L 2.0 -0.45026981830596924 L 2.0 -0.4418962001800537 L 3.0 -0.4418962001800537 L 3.0 -0.34449025988578796 L 4.0 -0.34449025988578796 L 4.0 -0.3762120008468628 L 5.0 -0.3762120008468628 L 5.0 -1.5147885084152222 L 6.0 -1.5147885084152222 L 6.0 -1.3460731506347656 L 7.0 -1.3460731506347656 L 7.0 -1.4692566394805908 L 8.0 -1.4692566394805908 L 8.0 -1.2507151365280151 L 9.0 -1.2507151365280151 L 9.0 -1.4396913051605225 L 10.0 -1.4396913051605225 L 10.0 -1.5031614303588867 L 11.0 -1.5031614303588867 L 11.0 -1.3157362937927246 L 12.0 -1.3157362937927246 L 12.0 -1.5486019849777222 L 13.0 -1.5486019849777222 L 13.0 -1.353301763534546 L 14.0 -1.353301763534546 L 14.0 -1.5543540716171265 L 15.0 -1.5543540716171265 L 15.0 -0.8156029582023621 L 16.0 -0.8156029582023621 L 16.0 -0.6624668836593628 L 17.0 -0.6624668836593628 L 17.0 -0.7444531321525574 L 18.0 -0.7444531321525574 L 18.0 -0.7240006327629089 L 19.0 -0.7240006327629089 L 19.0 -0.8772676587104797 L 20.0 -0.8772676587104797 L 20.0 -1.2117338180541992 L 21.0 -1.2117338180541992 L 21.0 -1.1137585639953613 L 22.0 -1.1137585639953613 L 22.0 -1.228259801864624 L 23.0 -1.228259801864624 L 23.0 -1.0561881065368652 L 24.0 -1.0561881065368652 L 24.0 -1.1579691171646118 L 25.0 -1.1579691171646118 L 25.0 -0.4099307954311371 L 24.0 -0.4099307954311371 L 24.0 -0.30516958236694336 L 23.0 -0.30516958236694336 L 23.0 -0.49810296297073364 L 22.0 -0.49810296297073364 L 22.0 -0.3687005341053009 L 21.0 -0.3687005341053009 L 21.0 -0.4666758179664612 L 20.0 -0.4666758179664612 L 20.0 -0.35274678468704224 L 19.0 -0.35274678468704224 L 19.0 -0.18755881488323212 L 18.0 -0.18755881488323212 L 18.0 -0.21546192467212677 L 17.0 -0.21546192467212677 L 17.0 -0.12602508068084717 L 16.0 -0.12602508068084717 L 16.0 -0.26127976179122925 L 15.0 -0.26127976179122925 L 15.0 -0.5351146459579468 L 14.0 -0.5351146459579468 L 14.0 -0.3400228023529053 L 13.0 -0.3400228023529053 L 13.0 -0.5174416303634644 L 12.0 -0.5174416303634644 L 12.0 -0.3054375946521759 L 11.0 -0.3054375946521759 L 11.0 -0.49584293365478516 L 10.0 -0.49584293365478516 L 10.0 -0.4800564646720886 L 9.0 -0.4800564646720886 L 9.0 -0.3030012547969818 L 8.0 -0.3030012547969818 L 8.0 -0.533463716506958 L 7.0 -0.533463716506958 L 7.0 -0.3983592689037323 L 6.0 -0.3983592689037323 L 6.0 -0.5670746564865112 L 5.0 -0.5670746564865112 L 5.0 -0.1422637552022934 L 4.0 -0.1422637552022934 L 4.0 -0.11054203659296036 L 3.0 -0.11054203659296036 L 3.0 -0.20198750495910645 L 2.0 -0.20198750495910645 L 2.0 -0.2133413553237915 L 1.0 -0.2133413553237915 L 1.0 -0.2860249876976013 L 0.0 -0.2860249876976013 Z" style="vector-effect: non-scaling-stroke;" /></g></g><g style="stroke: black;stroke-width: 1.2000000000000002;" transform="matrix(1.0, 0.0, 0.0, 1.0, 0.0, 0.0)"><path d="M 0.0 -0.2860249876976013 L 1.0 -0.2860249876976013 L 1.0 -0.2133413553237915 L 2.0 -0.2133413553237915 L 2.0 -0.20198750495910645 L 3.0 -0.20198750495910645 L 3.0 -0.11054203659296036 L 4.0 -0.11054203659296036 L 4.0 -0.1422637552022934 L 5.0 -0.1422637552022934 L 5.0 -0.5670746564865112 L 6.0 -0.5670746564865112 L 6.0 -0.3983592689037323 L 7.0 -0.3983592689037323 L 7.0 -0.533463716506958 L 8.0 -0.533463716506958 L 8.0 -0.3030012547969818 L 9.0 -0.3030012547969818 L 9.0 -0.4800564646720886 L 10.0 -0.4800564646720886 L 10.0 -0.49584293365478516 L 11.0 -0.49584293365478516 L 11.0 -0.3054375946521759 L 12.0 -0.3054375946521759 L 12.0 -0.5174416303634644 L 13.0 -0.5174416303634644 L 13.0 -0.3400228023529053 L 14.0 -0.3400228023529053 L 14.0 -0.5351146459579468 L 15.0 -0.5351146459579468 L 15.0 -0.26127976179122925 L 16.0 -0.26127976179122925 L 16.0 -0.12602508068084717 L 17.0 -0.12602508068084717 L 17.0 -0.21546192467212677 L 18.0 -0.21546192467212677 L 18.0 -0.18755881488323212 L 19.0 -0.18755881488323212 L 19.0 -0.35274678468704224 L 20.0 -0.35274678468704224 L 20.0 -0.4666758179664612 L 21.0 -0.4666758179664612 L 21.0 -0.3687005341053009 L 22.0 -0.3687005341053009 L 22.0 -0.49810296297073364 L 23.0 -0.49810296297073364 L 23.0 -0.30516958236694336 L 24.0 -0.30516958236694336 L 24.0 -0.4099307954311371 L 25.0 -0.4099307954311371" style="vector-effect: non-scaling-stroke;fill:none;" /></g></g></g></g></g></g><g transform="matrix(1.0, 0.0, 0.0, 1.0, -0.125, 0.16)"><g transform="matrix(1.0, 0.0, 0.0, 0.009999999999999995, 0.0, 0.0)"><g transform="matrix(0.01, 0.0, 0.0, 1.0, 0.0, 0.0)"><g><g><g style="fill: #ff8c00;stroke: #ff8c00;stroke-width: 1.2000000000000002;fill-opacity: 0.5;" transform="matrix(1.0, 0.0, 0.0, 1.0, 0.0, 0.0)"><path d="M 0.0 -2.0 L 0.0 2.0" style="vector-effect: non-scaling-stroke;fill:none;" /></g><g style="fill: #ff8c00;stroke: #ff8c00;stroke-width: 1.2000000000000002;fill-opacity: 0.5;" transform="matrix(1.0, 0.0, 0.0, 1.0, 0.0, 0.0)"><path d="M 0.0 -0.2860249876976013 L 1.0 -0.2860249876976013 L 1.0 -0.2133413553237915 L 2.0 -0.2133413553237915 L 2.0 -0.20198750495910645 L 3.0 -0.20198750495910645 L 3.0 -0.11054203659296036 L 4.0 -0.11054203659296036 L 4.0 -0.1422637552022934 L 5.0 -0.1422637552022934 L 5.0 -0.5670746564865112 L 6.0 -0.5670746564865112 L 6.0 -0.3983592689037323 L 7.0 -0.3983592689037323 L 7.0 -0.533463716506958 L 8.0 -0.533463716506958 L 8.0 -0.3030012547969818 L 9.0 -0.3030012547969818 L 9.0 -0.4800564646720886 L 10.0 -0.4800564646720886 L 10.0 -0.49584293365478516 L 11.0 -0.49584293365478516 L 11.0 -0.3054375946521759 L 12.0 -0.3054375946521759 L 12.0 -0.5174416303634644 L 13.0 -0.5174416303634644 L 13.0 -0.3400228023529053 L 14.0 -0.3400228023529053 L 14.0 -0.5351146459579468 L 15.0 -0.5351146459579468 L 15.0 -0.26127976179122925 L 16.0 -0.26127976179122925 L 16.0 -0.12602508068084717 L 17.0 -0.12602508068084717 L 17.0 -0.21546192467212677 L 18.0 -0.21546192467212677 L 18.0 -0.18755881488323212 L 19.0 -0.18755881488323212 L 19.0 -0.35274678468704224 L 20.0 -0.35274678468704224 L 20.0 -0.4666758179664612 L 21.0 -0.4666758179664612 L 21.0 -0.3687005341053009 L 22.0 -0.3687005341053009 L 22.0 -0.49810296297073364 L 23.0 -0.49810296297073364 L 23.0 -0.30516958236694336 L 24.0 -0.30516958236694336 L 24.0 -0.4099307954311371 L 25.0 -0.4099307954311371 L 25.0 -0.4099307954311371 L 24.0 -0.4099307954311371 L 24.0 -0.30516958236694336 L 23.0 -0.30516958236694336 L 23.0 -0.49810296297073364 L 22.0 -0.49810296297073364 L 22.0 -0.3687005341053009 L 21.0 -0.3687005341053009 L 21.0 -0.4666758179664612 L 20.0 -0.4666758179664612 L 20.0 -0.35274678468704224 L 19.0 -0.35274678468704224 L 19.0 -0.18755881488323212 L 18.0 -0.18755881488323212 L 18.0 -0.21546192467212677 L 17.0 -0.21546192467212677 L 17.0 -0.12602508068084717 L 16.0 -0.12602508068084717 L 16.0 -0.26127976179122925 L 15.0 -0.26127976179122925 L 15.0 -0.5351146459579468 L 14.0 -0.5351146459579468 L 14.0 -0.3400228023529053 L 13.0 -0.3400228023529053 L 13.0 -0.5174416303634644 L 12.0 -0.5174416303634644 L 12.0 -0.3054375946521759 L 11.0 -0.3054375946521759 L 11.0 -0.49584293365478516 L 10.0 -0.49584293365478516 L 10.0 -0.4800564646720886 L 9.0 -0.4800564646720886 L 9.0 -0.3030012547969818 L 8.0 -0.3030012547969818 L 8.0 -0.533463716506958 L 7.0 -0.533463716506958 L 7.0 -0.3983592689037323 L 6.0 -0.3983592689037323 L 6.0 -0.5670746564865112 L 5.0 -0.5670746564865112 L 5.0 -0.1422637552022934 L 4.0 -0.1422637552022934 L 4.0 -0.11054203659296036 L 3.0 -0.11054203659296036 L 3.0 -0.20198750495910645 L 2.0 -0.20198750495910645 L 2.0 -0.2133413553237915 L 1.0 -0.2133413553237915 L 1.0 -0.2860249876976013 L 0.0 -0.2860249876976013 Z" style="vector-effect: non-scaling-stroke;" /></g></g><g style="stroke: black;stroke-width: 1.2000000000000002;" transform="matrix(1.0, 0.0, 0.0, 1.0, 0.0, 0.0)"><path d="M 0.0 -0.2860249876976013 L 1.0 -0.2860249876976013 L 1.0 -0.2133413553237915 L 2.0 -0.2133413553237915 L 2.0 -0.20198750495910645 L 3.0 -0.20198750495910645 L 3.0 -0.11054203659296036 L 4.0 -0.11054203659296036 L 4.0 -0.1422637552022934 L 5.0 -0.1422637552022934 L 5.0 -0.5670746564865112 L 6.0 -0.5670746564865112 L 6.0 -0.3983592689037323 L 7.0 -0.3983592689037323 L 7.0 -0.533463716506958 L 8.0 -0.533463716506958 L 8.0 -0.3030012547969818 L 9.0 -0.3030012547969818 L 9.0 -0.4800564646720886 L 10.0 -0.4800564646720886 L 10.0 -0.49584293365478516 L 11.0 -0.49584293365478516 L 11.0 -0.3054375946521759 L 12.0 -0.3054375946521759 L 12.0 -0.5174416303634644 L 13.0 -0.5174416303634644 L 13.0 -0.3400228023529053 L 14.0 -0.3400228023529053 L 14.0 -0.5351146459579468 L 15.0 -0.5351146459579468 L 15.0 -0.26127976179122925 L 16.0 -0.26127976179122925 L 16.0 -0.12602508068084717 L 17.0 -0.12602508068084717 L 17.0 -0.21546192467212677 L 18.0 -0.21546192467212677 L 18.0 -0.18755881488323212 L 19.0 -0.18755881488323212 L 19.0 -0.35274678468704224 L 20.0 -0.35274678468704224 L 20.0 -0.4666758179664612 L 21.0 -0.4666758179664612 L 21.0 -0.3687005341053009 L 22.0 -0.3687005341053009 L 22.0 -0.49810296297073364 L 23.0 -0.49810296297073364 L 23.0 -0.30516958236694336 L 24.0 -0.30516958236694336 L 24.0 -0.4099307954311371 L 25.0 -0.4099307954311371" style="vector-effect: non-scaling-stroke;fill:none;" /></g></g></g></g></g></g><g transform="matrix(1.0, 0.0, 0.0, 1.0, -0.125, 0.16)"><g transform="matrix(1.0, 0.0, 0.0, 0.009999999999999995, 0.0, 0.0)"><g transform="matrix(0.01, 0.0, 0.0, 1.0, 0.0, 0.0)"><g><g><g style="fill: #0000ff;stroke: #0000ff;stroke-width: 1.2000000000000002;fill-opacity: 0.5;" transform="matrix(1.0, 0.0, 0.0, 1.0, 0.0, 0.0)"><path d="M 0.0 -2.0 L 0.0 2.0" style="vector-effect: non-scaling-stroke;fill:none;" /></g><g style="fill: #0000ff;stroke: #0000ff;stroke-width: 1.2000000000000002;fill-opacity: 0.5;" transform="matrix(1.0, 0.0, 0.0, 1.0, 0.0, 0.0)"><path d="M 0.0 -0.2860249876976013 L 1.0 -0.2860249876976013 L 1.0 -0.2133413553237915 L 2.0 -0.2133413553237915 L 2.0 -0.20198750495910645 L 3.0 -0.20198750495910645 L 3.0 -0.11054203659296036 L 4.0 -0.11054203659296036 L 4.0 -0.1422637552022934 L 5.0 -0.1422637552022934 L 5.0 -0.5670746564865112 L 6.0 -0.5670746564865112 L 6.0 -0.3983592689037323 L 7.0 -0.3983592689037323 L 7.0 -0.533463716506958 L 8.0 -0.533463716506958 L 8.0 -0.3030012547969818 L 9.0 -0.3030012547969818 L 9.0 -0.4800564646720886 L 10.0 -0.4800564646720886 L 10.0 -0.49584293365478516 L 11.0 -0.49584293365478516 L 11.0 -0.3054375946521759 L 12.0 -0.3054375946521759 L 12.0 -0.5174416303634644 L 13.0 -0.5174416303634644 L 13.0 -0.3400228023529053 L 14.0 -0.3400228023529053 L 14.0 -0.5351146459579468 L 15.0 -0.5351146459579468 L 15.0 -0.26127976179122925 L 16.0 -0.26127976179122925 L 16.0 -0.12602508068084717 L 17.0 -0.12602508068084717 L 17.0 -0.21546192467212677 L 18.0 -0.21546192467212677 L 18.0 -0.18755881488323212 L 19.0 -0.18755881488323212 L 19.0 -0.35274678468704224 L 20.0 -0.35274678468704224 L 20.0 -0.4666758179664612 L 21.0 -0.4666758179664612 L 21.0 -0.3687005341053009 L 22.0 -0.3687005341053009 L 22.0 -0.49810296297073364 L 23.0 -0.49810296297073364 L 23.0 -0.30516958236694336 L 24.0 -0.30516958236694336 L 24.0 -0.4099307954311371 L 25.0 -0.4099307954311371 L 25.0 -0.4099307954311371 L 24.0 -0.4099307954311371 L 24.0 -0.30516958236694336 L 23.0 -0.30516958236694336 L 23.0 -0.49810296297073364 L 22.0 -0.49810296297073364 L 22.0 -0.3687005341053009 L 21.0 -0.3687005341053009 L 21.0 -0.4666758179664612 L 20.0 -0.4666758179664612 L 20.0 -0.35274678468704224 L 19.0 -0.35274678468704224 L 19.0 -0.18755881488323212 L 18.0 -0.18755881488323212 L 18.0 -0.21546192467212677 L 17.0 -0.21546192467212677 L 17.0 -0.12602508068084717 L 16.0 -0.12602508068084717 L 16.0 -0.26127976179122925 L 15.0 -0.26127976179122925 L 15.0 -0.5351146459579468 L 14.0 -0.5351146459579468 L 14.0 -0.3400228023529053 L 13.0 -0.3400228023529053 L 13.0 -0.5174416303634644 L 12.0 -0.5174416303634644 L 12.0 -0.3054375946521759 L 11.0 -0.3054375946521759 L 11.0 -0.49584293365478516 L 10.0 -0.49584293365478516 L 10.0 -0.4800564646720886 L 9.0 -0.4800564646720886 L 9.0 -0.3030012547969818 L 8.0 -0.3030012547969818 L 8.0 -0.533463716506958 L 7.0 -0.533463716506958 L 7.0 -0.3983592689037323 L 6.0 -0.3983592689037323 L 6.0 -0.5670746564865112 L 5.0 -0.5670746564865112 L 5.0 -0.1422637552022934 L 4.0 -0.1422637552022934 L 4.0 -0.11054203659296036 L 3.0 -0.11054203659296036 L 3.0 -0.20198750495910645 L 2.0 -0.20198750495910645 L 2.0 -0.2133413553237915 L 1.0 -0.2133413553237915 L 1.0 -0.2860249876976013 L 0.0 -0.2860249876976013 Z" style="vector-effect: non-scaling-stroke;" /></g></g><g style="stroke: black;stroke-width: 1.2000000000000002;" transform="matrix(1.0, 0.0, 0.0, 1.0, 0.0, 0.0)"><path d="M 0.0 -0.2860249876976013 L 1.0 -0.2860249876976013 L 1.0 -0.2133413553237915 L 2.0 -0.2133413553237915 L 2.0 -0.20198750495910645 L 3.0 -0.20198750495910645 L 3.0 -0.11054203659296036 L 4.0 -0.11054203659296036 L 4.0 -0.1422637552022934 L 5.0 -0.1422637552022934 L 5.0 -0.5670746564865112 L 6.0 -0.5670746564865112 L 6.0 -0.3983592689037323 L 7.0 -0.3983592689037323 L 7.0 -0.533463716506958 L 8.0 -0.533463716506958 L 8.0 -0.3030012547969818 L 9.0 -0.3030012547969818 L 9.0 -0.4800564646720886 L 10.0 -0.4800564646720886 L 10.0 -0.49584293365478516 L 11.0 -0.49584293365478516 L 11.0 -0.3054375946521759 L 12.0 -0.3054375946521759 L 12.0 -0.5174416303634644 L 13.0 -0.5174416303634644 L 13.0 -0.3400228023529053 L 14.0 -0.3400228023529053 L 14.0 -0.5351146459579468 L 15.0 -0.5351146459579468 L 15.0 -0.26127976179122925 L 16.0 -0.26127976179122925 L 16.0 -0.12602508068084717 L 17.0 -0.12602508068084717 L 17.0 -0.21546192467212677 L 18.0 -0.21546192467212677 L 18.0 -0.18755881488323212 L 19.0 -0.18755881488323212 L 19.0 -0.35274678468704224 L 20.0 -0.35274678468704224 L 20.0 -0.4666758179664612 L 21.0 -0.4666758179664612 L 21.0 -0.3687005341053009 L 22.0 -0.3687005341053009 L 22.0 -0.49810296297073364 L 23.0 -0.49810296297073364 L 23.0 -0.30516958236694336 L 24.0 -0.30516958236694336 L 24.0 -0.4099307954311371 L 25.0 -0.4099307954311371" style="vector-effect: non-scaling-stroke;fill:none;" /></g></g></g></g></g></g></g></g><g><g><g><g><g><g><g transform="matrix(1.0, 0.0, 0.0, 1.0, -0.41500000000000004, -0.03)"><g><g><g transform="matrix(1.0, 0.0, 0.0, 1.0, 0.075, 0.0)"><g transform="matrix(1.0, 0.0, 0.0, 1.0, 0.0, 0.03)"><g transform="matrix(0.01, 0.0, 0.0, 0.01, 0.0, 0.0)"><g><g><g transform="matrix(1.0, 0.0, 0.0, 1.0, 12.5, 0.0)"><g transform="matrix(1.0, 0.0, 0.0, 1.0, -20.0, -0.0)"><g><g style="fill: #d3d3d3;stroke: black;stroke-width: 1.2000000000000002;" transform="matrix(1.0, 0.0, 0.0, 1.0, 0.0, -3.0)"><path d="M 0.0 0.0 L 40.0 0.0 L 40.0 6.0 L 0.0 6.0 L 0.0 0.0 Z" style="vector-effect: non-scaling-stroke;" /></g><g transform="matrix(1.0, 0.0, 0.0, 1.0, 1.875, 0.0)"><g><g style="stroke: black;stroke-width: 1.2000000000000002;" transform="matrix(1.0, 0.0, 0.0, 1.0, 0.0, 0.0)"><g /></g><g style="fill: #ffa500;stroke: black;stroke-width: 1.2000000000000002;" transform="matrix(1.0, 0.0, 0.0, 1.0, 1.875, 0.0)"><text style="text-align:center; text-anchor:middle; dominant-baseline:middle;&#10;                      font-family:sans-serif; font-weight: bold;&#10;                      font-size:3px;&#10;                      vector-effect: non-scaling-stroke;" transform="translate(-5e-05, 0)">x</text></g></g></g></g></g></g><g><g><g><g><g><g><g><g><g style="stroke: black;stroke-width: 1.2000000000000002;" transform="matrix(1.0, 0.0, 0.0, 1.0, 0.0, 0.0)"><path d="M 0.0 -2.0 L 0.0 2.0" style="vector-effect: non-scaling-stroke;fill:none;" /></g><g style="stroke: #808080;stroke-width: 0.6000000000000001;" transform="matrix(1.0, 0.0, 0.0, 1.0, 0.0, 0.0)"><path d="M 0.0 0.0 L 25.0 0.0" style="vector-effect: non-scaling-stroke;fill:none;" /></g></g><g style="stroke: black;stroke-width: 2.4000000000000004;" transform="matrix(1.0, 0.0, 0.0, 1.0, 0.0, 0.0)"><path d="M 0.0 -0.9227485060691833 L 1.0 -0.9227485060691833 L 1.0 -0.9909365773200989 L 2.0 -0.9909365773200989 L 2.0 0.7891024351119995 L 3.0 0.7891024351119995 L 3.0 -0.07757601141929626 L 4.0 -0.07757601141929626 L 4.0 0.01911219209432602 L 5.0 0.01911219209432602 L 5.0 -0.8911665081977844 L 6.0 -0.8911665081977844 L 6.0 -1.1970560550689697 L 7.0 -1.1970560550689697 L 7.0 -0.5381621718406677 L 8.0 -0.5381621718406677 L 8.0 -0.9204915165901184 L 9.0 -0.9204915165901184 L 9.0 -1.1677565574645996 L 10.0 -1.1677565574645996 L 10.0 -0.10237627476453781 L 11.0 -0.10237627476453781 L 11.0 -1.0883831977844238 L 12.0 -1.0883831977844238 L 12.0 -1.2543400526046753 L 13.0 -1.2543400526046753 L 13.0 -1.146077275276184 L 14.0 -1.146077275276184 L 14.0 -1.46364164352417 L 15.0 -1.46364164352417 L 15.0 0.2734439969062805 L 16.0 0.2734439969062805 L 16.0 -0.6144730448722839 L 17.0 -0.6144730448722839 L 17.0 -0.4818328320980072 L 18.0 -0.4818328320980072 L 18.0 -0.8879019618034363 L 19.0 -0.8879019618034363 L 19.0 -0.9621256589889526 L 20.0 -0.9621256589889526 L 20.0 -0.560005247592926 L 21.0 -0.560005247592926 L 21.0 -1.7141392230987549 L 22.0 -1.7141392230987549 L 22.0 -0.17204943299293518 L 23.0 -0.17204943299293518 L 23.0 -1.0008693933486938 L 24.0 -1.0008693933486938 L 24.0 -0.29286766052246094 L 25.0 -0.29286766052246094" style="vector-effect: non-scaling-stroke;fill:none;" /></g></g><g style="stroke: black;stroke-width: 1.2000000000000002;" transform="matrix(1.0, 0.0, 0.0, 1.0, 0.0, 0.0)"><path d="M 0.0 -2.0 L 0.0 2.0" style="vector-effect: non-scaling-stroke;fill:none;" /></g></g><g style="stroke: black;stroke-width: 1.2000000000000002;" transform="matrix(1.0, 0.0, 0.0, 1.0, 0.0, 0.0)"><path d="M 5.0 -2.0 L 5.0 2.0" style="vector-effect: non-scaling-stroke;fill:none;" /></g></g><g style="stroke: black;stroke-width: 1.2000000000000002;" transform="matrix(1.0, 0.0, 0.0, 1.0, 0.0, 0.0)"><path d="M 10.0 -2.0 L 10.0 2.0" style="vector-effect: non-scaling-stroke;fill:none;" /></g></g><g style="stroke: black;stroke-width: 1.2000000000000002;" transform="matrix(1.0, 0.0, 0.0, 1.0, 0.0, 0.0)"><path d="M 15.0 -2.0 L 15.0 2.0" style="vector-effect: non-scaling-stroke;fill:none;" /></g></g><g style="stroke: black;stroke-width: 1.2000000000000002;" transform="matrix(1.0, 0.0, 0.0, 1.0, 0.0, 0.0)"><path d="M 20.0 -2.0 L 20.0 2.0" style="vector-effect: non-scaling-stroke;fill:none;" /></g></g></g></g><g><g><g><g><g><g><g><g><g style="stroke: black;stroke-width: 1.2000000000000002;" transform="matrix(1.0, 0.0, 0.0, 1.0, 0.0, 0.0)"><path d="M 0.0 -2.0 L 0.0 2.0" style="vector-effect: non-scaling-stroke;fill:none;" /></g><g style="stroke: #808080;stroke-width: 0.6000000000000001;" transform="matrix(1.0, 0.0, 0.0, 1.0, 0.0, 0.0)"><path d="M 0.0 0.0 L 25.0 0.0" style="vector-effect: non-scaling-stroke;fill:none;" /></g></g><g style="stroke: black;stroke-width: 2.4000000000000004;" transform="matrix(1.0, 0.0, 0.0, 1.0, 0.0, 0.0)"><path d="M 0.0 -0.9227485060691833 L 1.0 -0.9227485060691833 L 1.0 -0.9909365773200989 L 2.0 -0.9909365773200989 L 2.0 0.7891024351119995 L 3.0 0.7891024351119995 L 3.0 -0.07757601141929626 L 4.0 -0.07757601141929626 L 4.0 0.01911219209432602 L 5.0 0.01911219209432602 L 5.0 -0.8911665081977844 L 6.0 -0.8911665081977844 L 6.0 -1.1970560550689697 L 7.0 -1.1970560550689697 L 7.0 -0.5381621718406677 L 8.0 -0.5381621718406677 L 8.0 -0.9204915165901184 L 9.0 -0.9204915165901184 L 9.0 -1.1677565574645996 L 10.0 -1.1677565574645996 L 10.0 -0.10237627476453781 L 11.0 -0.10237627476453781 L 11.0 -1.0883831977844238 L 12.0 -1.0883831977844238 L 12.0 -1.2543400526046753 L 13.0 -1.2543400526046753 L 13.0 -1.146077275276184 L 14.0 -1.146077275276184 L 14.0 -1.46364164352417 L 15.0 -1.46364164352417 L 15.0 0.2734439969062805 L 16.0 0.2734439969062805 L 16.0 -0.6144730448722839 L 17.0 -0.6144730448722839 L 17.0 -0.4818328320980072 L 18.0 -0.4818328320980072 L 18.0 -0.8879019618034363 L 19.0 -0.8879019618034363 L 19.0 -0.9621256589889526 L 20.0 -0.9621256589889526 L 20.0 -0.560005247592926 L 21.0 -0.560005247592926 L 21.0 -1.7141392230987549 L 22.0 -1.7141392230987549 L 22.0 -0.17204943299293518 L 23.0 -0.17204943299293518 L 23.0 -1.0008693933486938 L 24.0 -1.0008693933486938 L 24.0 -0.29286766052246094 L 25.0 -0.29286766052246094" style="vector-effect: non-scaling-stroke;fill:none;" /></g></g><g style="stroke: black;stroke-width: 1.2000000000000002;" transform="matrix(1.0, 0.0, 0.0, 1.0, 0.0, 0.0)"><path d="M 0.0 -2.0 L 0.0 2.0" style="vector-effect: non-scaling-stroke;fill:none;" /></g></g><g style="stroke: black;stroke-width: 1.2000000000000002;" transform="matrix(1.0, 0.0, 0.0, 1.0, 0.0, 0.0)"><path d="M 5.0 -2.0 L 5.0 2.0" style="vector-effect: non-scaling-stroke;fill:none;" /></g></g><g style="stroke: black;stroke-width: 1.2000000000000002;" transform="matrix(1.0, 0.0, 0.0, 1.0, 0.0, 0.0)"><path d="M 10.0 -2.0 L 10.0 2.0" style="vector-effect: non-scaling-stroke;fill:none;" /></g></g><g style="stroke: black;stroke-width: 1.2000000000000002;" transform="matrix(1.0, 0.0, 0.0, 1.0, 0.0, 0.0)"><path d="M 15.0 -2.0 L 15.0 2.0" style="vector-effect: non-scaling-stroke;fill:none;" /></g></g><g style="stroke: black;stroke-width: 1.2000000000000002;" transform="matrix(1.0, 0.0, 0.0, 1.0, 0.0, 0.0)"><path d="M 20.0 -2.0 L 20.0 2.0" style="vector-effect: non-scaling-stroke;fill:none;" /></g></g></g></g></g></g></g><g style="stroke: black;stroke-width: 1.2000000000000002;" transform="matrix(1.0, 0.0, 0.0, 1.0, 0.41500000000000004, 0.0)"><g /></g></g><g transform="matrix(1.0, 0.0, 0.0, 1.0, 0.43000000000000005, 0.0)"><g transform="matrix(1.0, 0.0, 0.0, 1.0, 0.075, 0.0)"><g transform="matrix(1.0, 0.0, 0.0, 1.0, 0.0, 0.03)"><g transform="matrix(0.01, 0.0, 0.0, 0.01, 0.0, 0.0)"><g><g><g transform="matrix(1.0, 0.0, 0.0, 1.0, 12.5, 0.0)"><g transform="matrix(1.0, 0.0, 0.0, 1.0, -20.0, -0.0)"><g><g style="fill: #d3d3d3;stroke: black;stroke-width: 1.2000000000000002;" transform="matrix(1.0, 0.0, 0.0, 1.0, 0.0, -3.0)"><path d="M 0.0 0.0 L 40.0 0.0 L 40.0 6.0 L 0.0 6.0 L 0.0 0.0 Z" style="vector-effect: non-scaling-stroke;" /></g><g transform="matrix(1.0, 0.0, 0.0, 1.0, 1.875, 0.0)"><g><g style="stroke: black;stroke-width: 1.2000000000000002;" transform="matrix(1.0, 0.0, 0.0, 1.0, 0.0, 0.0)"><g /></g><g style="fill: #ffa500;stroke: black;stroke-width: 1.2000000000000002;" transform="matrix(1.0, 0.0, 0.0, 1.0, 1.875, 0.0)"><text style="text-align:center; text-anchor:middle; dominant-baseline:middle;&#10;                      font-family:sans-serif; font-weight: bold;&#10;                      font-size:3px;&#10;                      vector-effect: non-scaling-stroke;" transform="translate(-5e-05, 0)">y</text></g></g></g></g></g></g><g><g><g><g style="stroke: black;stroke-width: 1.2000000000000002;" transform="matrix(1.0, 0.0, 0.0, 1.0, 0.0, 0.0)"><path d="M 0.0 -2.0 L 0.0 2.0" style="vector-effect: non-scaling-stroke;fill:none;" /></g><g style="stroke: #808080;stroke-width: 0.6000000000000001;" transform="matrix(1.0, 0.0, 0.0, 1.0, 0.0, 0.0)"><path d="M 0.0 0.0 L 25.0 0.0" style="vector-effect: non-scaling-stroke;fill:none;" /></g></g><g style="stroke: black;stroke-width: 2.4000000000000004;" transform="matrix(1.0, 0.0, 0.0, 1.0, 0.0, 0.0)"><path d="M 0.0 -1.59687340259552 L 1.0 -1.59687340259552 L 1.0 -1.9491041898727417 L 2.0 -1.9491041898727417 L 2.0 -1.7712304592132568 L 3.0 -1.7712304592132568 L 3.0 -0.13592040538787842 L 4.0 -0.13592040538787842 L 4.0 -0.16275697946548462 L 5.0 -0.16275697946548462 L 5.0 -1.4939042329788208 L 6.0 -1.4939042329788208 L 6.0 -0.6856494545936584 L 7.0 -0.6856494545936584 L 7.0 -1.6778924465179443 L 8.0 -1.6778924465179443 L 8.0 -1.444204568862915 L 9.0 -1.444204568862915 L 9.0 -1.217467188835144 L 10.0 -1.217467188835144 L 10.0 -0.15922601521015167 L 11.0 -0.15922601521015167 L 11.0 -0.5722299814224243 L 12.0 -0.5722299814224243 L 12.0 -1.6945139169692993 L 13.0 -1.6945139169692993 L 13.0 -0.581519365310669 L 14.0 -0.581519365310669 L 14.0 -0.020752618089318275 L 15.0 -0.020752618089318275 L 15.0 -0.7649675011634827 L 16.0 -0.7649675011634827 L 16.0 -1.352418065071106 L 17.0 -1.352418065071106 L 17.0 -0.794601321220398 L 18.0 -0.794601321220398 L 18.0 -0.23699279129505157 L 19.0 -0.23699279129505157 L 19.0 -1.4524481296539307 L 20.0 -1.4524481296539307 L 20.0 -1.4297020435333252 L 21.0 -1.4297020435333252 L 21.0 0.10874383896589279 L 22.0 0.10874383896589279 L 22.0 -0.08931400626897812 L 23.0 -0.08931400626897812 L 23.0 -0.5557575225830078 L 24.0 -0.5557575225830078 L 24.0 -1.5842432975769043 L 25.0 -1.5842432975769043" style="vector-effect: non-scaling-stroke;fill:none;" /></g></g></g></g><g><g><g><g style="stroke: black;stroke-width: 1.2000000000000002;" transform="matrix(1.0, 0.0, 0.0, 1.0, 0.0, 0.0)"><path d="M 0.0 -2.0 L 0.0 2.0" style="vector-effect: non-scaling-stroke;fill:none;" /></g><g style="stroke: #808080;stroke-width: 0.6000000000000001;" transform="matrix(1.0, 0.0, 0.0, 1.0, 0.0, 0.0)"><path d="M 0.0 0.0 L 25.0 0.0" style="vector-effect: non-scaling-stroke;fill:none;" /></g></g><g style="stroke: black;stroke-width: 2.4000000000000004;" transform="matrix(1.0, 0.0, 0.0, 1.0, 0.0, 0.0)"><path d="M 0.0 -1.59687340259552 L 1.0 -1.59687340259552 L 1.0 -1.9491041898727417 L 2.0 -1.9491041898727417 L 2.0 -1.7712304592132568 L 3.0 -1.7712304592132568 L 3.0 -0.13592040538787842 L 4.0 -0.13592040538787842 L 4.0 -0.16275697946548462 L 5.0 -0.16275697946548462 L 5.0 -1.4939042329788208 L 6.0 -1.4939042329788208 L 6.0 -0.6856494545936584 L 7.0 -0.6856494545936584 L 7.0 -1.6778924465179443 L 8.0 -1.6778924465179443 L 8.0 -1.444204568862915 L 9.0 -1.444204568862915 L 9.0 -1.217467188835144 L 10.0 -1.217467188835144 L 10.0 -0.15922601521015167 L 11.0 -0.15922601521015167 L 11.0 -0.5722299814224243 L 12.0 -0.5722299814224243 L 12.0 -1.6945139169692993 L 13.0 -1.6945139169692993 L 13.0 -0.581519365310669 L 14.0 -0.581519365310669 L 14.0 -0.020752618089318275 L 15.0 -0.020752618089318275 L 15.0 -0.7649675011634827 L 16.0 -0.7649675011634827 L 16.0 -1.352418065071106 L 17.0 -1.352418065071106 L 17.0 -0.794601321220398 L 18.0 -0.794601321220398 L 18.0 -0.23699279129505157 L 19.0 -0.23699279129505157 L 19.0 -1.4524481296539307 L 20.0 -1.4524481296539307 L 20.0 -1.4297020435333252 L 21.0 -1.4297020435333252 L 21.0 0.10874383896589279 L 22.0 0.10874383896589279 L 22.0 -0.08931400626897812 L 23.0 -0.08931400626897812 L 23.0 -0.5557575225830078 L 24.0 -0.5557575225830078 L 24.0 -1.5842432975769043 L 25.0 -1.5842432975769043" style="vector-effect: non-scaling-stroke;fill:none;" /></g></g></g></g></g></g></g></g></g></g><g style="stroke: black;stroke-width: 1.2000000000000002;" transform="matrix(0.0, -1.0, 1.0, 0.0, 0.0, 0.08)"><g /></g></g><g transform="matrix(1.0, 0.0, 0.0, 1.0, 0.0, 0.16)"><g transform="matrix(1.0, 0.0, 0.0, 1.0, -0.2, -0.03)"><g transform="matrix(1.0, 0.0, 0.0, 1.0, 0.075, 0.0)"><g transform="matrix(1.0, 0.0, 0.0, 1.0, 0.0, 0.03)"><g transform="matrix(0.01, 0.0, 0.0, 0.01, 0.0, 0.0)"><g><g><g transform="matrix(1.0, 0.0, 0.0, 1.0, 12.5, 0.0)"><g transform="matrix(1.0, 0.0, 0.0, 1.0, -20.0, -0.0)"><g><g style="fill: #d3d3d3;stroke: black;stroke-width: 1.2000000000000002;" transform="matrix(1.0, 0.0, 0.0, 1.0, 0.0, -3.0)"><path d="M 0.0 0.0 L 40.0 0.0 L 40.0 6.0 L 0.0 6.0 L 0.0 0.0 Z" style="vector-effect: non-scaling-stroke;" /></g><g transform="matrix(1.0, 0.0, 0.0, 1.0, 1.875, 0.0)"><g><g style="stroke: black;stroke-width: 1.2000000000000002;" transform="matrix(1.0, 0.0, 0.0, 1.0, 0.0, 0.0)"><g /></g><g style="fill: #ffa500;stroke: black;stroke-width: 1.2000000000000002;" transform="matrix(1.0, 0.0, 0.0, 1.0, 1.875, 0.0)"><text style="text-align:center; text-anchor:middle; dominant-baseline:middle;&#10;                      font-family:sans-serif; font-weight: bold;&#10;                      font-size:3px;&#10;                      vector-effect: non-scaling-stroke;" transform="translate(-5e-05, 0)">f(x)</text></g></g></g></g></g></g><g><g><g><g style="stroke: black;stroke-width: 1.2000000000000002;" transform="matrix(1.0, 0.0, 0.0, 1.0, 0.0, 0.0)"><path d="M 0.0 -2.0 L 0.0 2.0" style="vector-effect: non-scaling-stroke;fill:none;" /></g><g style="stroke: #808080;stroke-width: 0.6000000000000001;" transform="matrix(1.0, 0.0, 0.0, 1.0, 0.0, 0.0)"><path d="M 0.0 0.0 L 25.0 0.0" style="vector-effect: non-scaling-stroke;fill:none;" /></g></g><g style="stroke: black;stroke-width: 2.4000000000000004;" transform="matrix(1.0, 0.0, 0.0, 1.0, 0.0, 0.0)"><path d="M 0.0 -0.2860249876976013 L 1.0 -0.2860249876976013 L 1.0 -0.2133413553237915 L 2.0 -0.2133413553237915 L 2.0 -0.20198750495910645 L 3.0 -0.20198750495910645 L 3.0 -0.11054203659296036 L 4.0 -0.11054203659296036 L 4.0 -0.1422637552022934 L 5.0 -0.1422637552022934 L 5.0 -0.5670746564865112 L 6.0 -0.5670746564865112 L 6.0 -0.3983592689037323 L 7.0 -0.3983592689037323 L 7.0 -0.533463716506958 L 8.0 -0.533463716506958 L 8.0 -0.3030012547969818 L 9.0 -0.3030012547969818 L 9.0 -0.4800564646720886 L 10.0 -0.4800564646720886 L 10.0 -0.49584293365478516 L 11.0 -0.49584293365478516 L 11.0 -0.3054375946521759 L 12.0 -0.3054375946521759 L 12.0 -0.5174416303634644 L 13.0 -0.5174416303634644 L 13.0 -0.3400228023529053 L 14.0 -0.3400228023529053 L 14.0 -0.5351146459579468 L 15.0 -0.5351146459579468 L 15.0 -0.26127976179122925 L 16.0 -0.26127976179122925 L 16.0 -0.12602508068084717 L 17.0 -0.12602508068084717 L 17.0 -0.21546192467212677 L 18.0 -0.21546192467212677 L 18.0 -0.18755881488323212 L 19.0 -0.18755881488323212 L 19.0 -0.35274678468704224 L 20.0 -0.35274678468704224 L 20.0 -0.4666758179664612 L 21.0 -0.4666758179664612 L 21.0 -0.3687005341053009 L 22.0 -0.3687005341053009 L 22.0 -0.49810296297073364 L 23.0 -0.49810296297073364 L 23.0 -0.30516958236694336 L 24.0 -0.30516958236694336 L 24.0 -0.4099307954311371 L 25.0 -0.4099307954311371" style="vector-effect: non-scaling-stroke;fill:none;" /></g></g></g></g><g><g><g><g style="stroke: black;stroke-width: 1.2000000000000002;" transform="matrix(1.0, 0.0, 0.0, 1.0, 0.0, 0.0)"><path d="M 0.0 -2.0 L 0.0 2.0" style="vector-effect: non-scaling-stroke;fill:none;" /></g><g style="stroke: #808080;stroke-width: 0.6000000000000001;" transform="matrix(1.0, 0.0, 0.0, 1.0, 0.0, 0.0)"><path d="M 0.0 0.0 L 25.0 0.0" style="vector-effect: non-scaling-stroke;fill:none;" /></g></g><g style="stroke: black;stroke-width: 2.4000000000000004;" transform="matrix(1.0, 0.0, 0.0, 1.0, 0.0, 0.0)"><path d="M 0.0 -0.2860249876976013 L 1.0 -0.2860249876976013 L 1.0 -0.2133413553237915 L 2.0 -0.2133413553237915 L 2.0 -0.20198750495910645 L 3.0 -0.20198750495910645 L 3.0 -0.11054203659296036 L 4.0 -0.11054203659296036 L 4.0 -0.1422637552022934 L 5.0 -0.1422637552022934 L 5.0 -0.5670746564865112 L 6.0 -0.5670746564865112 L 6.0 -0.3983592689037323 L 7.0 -0.3983592689037323 L 7.0 -0.533463716506958 L 8.0 -0.533463716506958 L 8.0 -0.3030012547969818 L 9.0 -0.3030012547969818 L 9.0 -0.4800564646720886 L 10.0 -0.4800564646720886 L 10.0 -0.49584293365478516 L 11.0 -0.49584293365478516 L 11.0 -0.3054375946521759 L 12.0 -0.3054375946521759 L 12.0 -0.5174416303634644 L 13.0 -0.5174416303634644 L 13.0 -0.3400228023529053 L 14.0 -0.3400228023529053 L 14.0 -0.5351146459579468 L 15.0 -0.5351146459579468 L 15.0 -0.26127976179122925 L 16.0 -0.26127976179122925 L 16.0 -0.12602508068084717 L 17.0 -0.12602508068084717 L 17.0 -0.21546192467212677 L 18.0 -0.21546192467212677 L 18.0 -0.18755881488323212 L 19.0 -0.18755881488323212 L 19.0 -0.35274678468704224 L 20.0 -0.35274678468704224 L 20.0 -0.4666758179664612 L 21.0 -0.4666758179664612 L 21.0 -0.3687005341053009 L 22.0 -0.3687005341053009 L 22.0 -0.49810296297073364 L 23.0 -0.49810296297073364 L 23.0 -0.30516958236694336 L 24.0 -0.30516958236694336 L 24.0 -0.4099307954311371 L 25.0 -0.4099307954311371" style="vector-effect: non-scaling-stroke;fill:none;" /></g></g></g></g></g></g></g></g></g></g><g transform="matrix(1.0, 0.0, 0.0, 1.0, -0.125, 0.16)"><g transform="matrix(1.0, 0.0, 0.0, 0.009999999999999995, 0.0, 0.0)"><g transform="matrix(0.01, 0.0, 0.0, 1.0, 0.0, 0.0)"><g><g><g style="fill: #ffffe0;stroke: #ffffe0;stroke-width: 1.2000000000000002;fill-opacity: 0.5;" transform="matrix(1.0, 0.0, 0.0, 1.0, 0.0, 0.0)"><path d="M 0.0 -2.0 L 0.0 2.0" style="vector-effect: non-scaling-stroke;fill:none;" /></g><g style="fill: #ffffe0;stroke: #ffffe0;stroke-width: 1.2000000000000002;fill-opacity: 0.5;" transform="matrix(1.0, 0.0, 0.0, 1.0, 0.0, 0.0)"><path d="M 0.0 -1.3708295822143555 L 1.0 -1.3708295822143555 L 1.0 -1.1044307947158813 L 2.0 -1.1044307947158813 L 2.0 -1.413451910018921 L 3.0 -1.413451910018921 L 3.0 -0.699882984161377 L 4.0 -0.699882984161377 L 4.0 -1.0259026288986206 L 5.0 -1.0259026288986206 L 5.0 -1.6518791913986206 L 6.0 -1.6518791913986206 L 6.0 -1.2983894348144531 L 7.0 -1.2983894348144531 L 7.0 -1.7255566120147705 L 8.0 -1.7255566120147705 L 8.0 -0.8990477323532104 L 9.0 -0.8990477323532104 L 9.0 -1.3800866603851318 L 10.0 -1.3800866603851318 L 10.0 -1.5746870040893555 L 11.0 -1.5746870040893555 L 11.0 -1.1935467720031738 L 12.0 -1.1935467720031738 L 12.0 -1.7393368482589722 L 13.0 -1.7393368482589722 L 13.0 -0.933089017868042 L 14.0 -0.933089017868042 L 14.0 -1.40534245967865 L 15.0 -1.40534245967865 L 15.0 -1.360985517501831 L 16.0 -1.360985517501831 L 16.0 -1.0200947523117065 L 17.0 -1.0200947523117065 L 17.0 -1.4179856777191162 L 18.0 -1.4179856777191162 L 18.0 -0.78062504529953 L 19.0 -0.78062504529953 L 19.0 -1.2319152355194092 L 20.0 -1.2319152355194092 L 20.0 -1.5574407577514648 L 21.0 -1.5574407577514648 L 21.0 -1.2568097114562988 L 22.0 -1.2568097114562988 L 22.0 -1.6842353343963623 L 23.0 -1.6842353343963623 L 23.0 -0.9041962623596191 L 24.0 -0.9041962623596191 L 24.0 -1.3040004968643188 L 25.0 -1.3040004968643188 L 25.0 -0.4099307954311371 L 24.0 -0.4099307954311371 L 24.0 -0.30516958236694336 L 23.0 -0.30516958236694336 L 23.0 -0.49810296297073364 L 22.0 -0.49810296297073364 L 22.0 -0.3687005341053009 L 21.0 -0.3687005341053009 L 21.0 -0.4666758179664612 L 20.0 -0.4666758179664612 L 20.0 -0.35274678468704224 L 19.0 -0.35274678468704224 L 19.0 -0.18755881488323212 L 18.0 -0.18755881488323212 L 18.0 -0.21546192467212677 L 17.0 -0.21546192467212677 L 17.0 -0.12602508068084717 L 16.0 -0.12602508068084717 L 16.0 -0.26127976179122925 L 15.0 -0.26127976179122925 L 15.0 -0.5351146459579468 L 14.0 -0.5351146459579468 L 14.0 -0.3400228023529053 L 13.0 -0.3400228023529053 L 13.0 -0.5174416303634644 L 12.0 -0.5174416303634644 L 12.0 -0.3054375946521759 L 11.0 -0.3054375946521759 L 11.0 -0.49584293365478516 L 10.0 -0.49584293365478516 L 10.0 -0.4800564646720886 L 9.0 -0.4800564646720886 L 9.0 -0.3030012547969818 L 8.0 -0.3030012547969818 L 8.0 -0.533463716506958 L 7.0 -0.533463716506958 L 7.0 -0.3983592689037323 L 6.0 -0.3983592689037323 L 6.0 -0.5670746564865112 L 5.0 -0.5670746564865112 L 5.0 -0.1422637552022934 L 4.0 -0.1422637552022934 L 4.0 -0.11054203659296036 L 3.0 -0.11054203659296036 L 3.0 -0.20198750495910645 L 2.0 -0.20198750495910645 L 2.0 -0.2133413553237915 L 1.0 -0.2133413553237915 L 1.0 -0.2860249876976013 L 0.0 -0.2860249876976013 Z" style="vector-effect: non-scaling-stroke;" /></g></g><g style="stroke: black;stroke-width: 1.2000000000000002;" transform="matrix(1.0, 0.0, 0.0, 1.0, 0.0, 0.0)"><path d="M 0.0 -0.2860249876976013 L 1.0 -0.2860249876976013 L 1.0 -0.2133413553237915 L 2.0 -0.2133413553237915 L 2.0 -0.20198750495910645 L 3.0 -0.20198750495910645 L 3.0 -0.11054203659296036 L 4.0 -0.11054203659296036 L 4.0 -0.1422637552022934 L 5.0 -0.1422637552022934 L 5.0 -0.5670746564865112 L 6.0 -0.5670746564865112 L 6.0 -0.3983592689037323 L 7.0 -0.3983592689037323 L 7.0 -0.533463716506958 L 8.0 -0.533463716506958 L 8.0 -0.3030012547969818 L 9.0 -0.3030012547969818 L 9.0 -0.4800564646720886 L 10.0 -0.4800564646720886 L 10.0 -0.49584293365478516 L 11.0 -0.49584293365478516 L 11.0 -0.3054375946521759 L 12.0 -0.3054375946521759 L 12.0 -0.5174416303634644 L 13.0 -0.5174416303634644 L 13.0 -0.3400228023529053 L 14.0 -0.3400228023529053 L 14.0 -0.5351146459579468 L 15.0 -0.5351146459579468 L 15.0 -0.26127976179122925 L 16.0 -0.26127976179122925 L 16.0 -0.12602508068084717 L 17.0 -0.12602508068084717 L 17.0 -0.21546192467212677 L 18.0 -0.21546192467212677 L 18.0 -0.18755881488323212 L 19.0 -0.18755881488323212 L 19.0 -0.35274678468704224 L 20.0 -0.35274678468704224 L 20.0 -0.4666758179664612 L 21.0 -0.4666758179664612 L 21.0 -0.3687005341053009 L 22.0 -0.3687005341053009 L 22.0 -0.49810296297073364 L 23.0 -0.49810296297073364 L 23.0 -0.30516958236694336 L 24.0 -0.30516958236694336 L 24.0 -0.4099307954311371 L 25.0 -0.4099307954311371" style="vector-effect: non-scaling-stroke;fill:none;" /></g></g></g></g></g></g><g transform="matrix(1.0, 0.0, 0.0, 1.0, -0.125, 0.16)"><g transform="matrix(1.0, 0.0, 0.0, 0.009999999999999995, 0.0, 0.0)"><g transform="matrix(0.01, 0.0, 0.0, 1.0, 0.0, 0.0)"><g><g><g style="fill: #add8e6;stroke: #add8e6;stroke-width: 1.2000000000000002;fill-opacity: 0.5;" transform="matrix(1.0, 0.0, 0.0, 1.0, 0.0, 0.0)"><path d="M 0.0 -2.0 L 0.0 2.0" style="vector-effect: non-scaling-stroke;fill:none;" /></g><g style="fill: #add8e6;stroke: #add8e6;stroke-width: 1.2000000000000002;fill-opacity: 0.5;" transform="matrix(1.0, 0.0, 0.0, 1.0, 0.0, 0.0)"><path d="M 0.0 -0.5155028700828552 L 1.0 -0.5155028700828552 L 1.0 -0.45026981830596924 L 2.0 -0.45026981830596924 L 2.0 -0.4418962001800537 L 3.0 -0.4418962001800537 L 3.0 -0.34449025988578796 L 4.0 -0.34449025988578796 L 4.0 -0.3762120008468628 L 5.0 -0.3762120008468628 L 5.0 -1.5147885084152222 L 6.0 -1.5147885084152222 L 6.0 -1.3460731506347656 L 7.0 -1.3460731506347656 L 7.0 -1.4692566394805908 L 8.0 -1.4692566394805908 L 8.0 -1.2507151365280151 L 9.0 -1.2507151365280151 L 9.0 -1.4396913051605225 L 10.0 -1.4396913051605225 L 10.0 -1.5031614303588867 L 11.0 -1.5031614303588867 L 11.0 -1.3157362937927246 L 12.0 -1.3157362937927246 L 12.0 -1.5486019849777222 L 13.0 -1.5486019849777222 L 13.0 -1.353301763534546 L 14.0 -1.353301763534546 L 14.0 -1.5543540716171265 L 15.0 -1.5543540716171265 L 15.0 -0.8156029582023621 L 16.0 -0.8156029582023621 L 16.0 -0.6624668836593628 L 17.0 -0.6624668836593628 L 17.0 -0.7444531321525574 L 18.0 -0.7444531321525574 L 18.0 -0.7240006327629089 L 19.0 -0.7240006327629089 L 19.0 -0.8772676587104797 L 20.0 -0.8772676587104797 L 20.0 -1.2117338180541992 L 21.0 -1.2117338180541992 L 21.0 -1.1137585639953613 L 22.0 -1.1137585639953613 L 22.0 -1.228259801864624 L 23.0 -1.228259801864624 L 23.0 -1.0561881065368652 L 24.0 -1.0561881065368652 L 24.0 -1.1579691171646118 L 25.0 -1.1579691171646118 L 25.0 -0.4099307954311371 L 24.0 -0.4099307954311371 L 24.0 -0.30516958236694336 L 23.0 -0.30516958236694336 L 23.0 -0.49810296297073364 L 22.0 -0.49810296297073364 L 22.0 -0.3687005341053009 L 21.0 -0.3687005341053009 L 21.0 -0.4666758179664612 L 20.0 -0.4666758179664612 L 20.0 -0.35274678468704224 L 19.0 -0.35274678468704224 L 19.0 -0.18755881488323212 L 18.0 -0.18755881488323212 L 18.0 -0.21546192467212677 L 17.0 -0.21546192467212677 L 17.0 -0.12602508068084717 L 16.0 -0.12602508068084717 L 16.0 -0.26127976179122925 L 15.0 -0.26127976179122925 L 15.0 -0.5351146459579468 L 14.0 -0.5351146459579468 L 14.0 -0.3400228023529053 L 13.0 -0.3400228023529053 L 13.0 -0.5174416303634644 L 12.0 -0.5174416303634644 L 12.0 -0.3054375946521759 L 11.0 -0.3054375946521759 L 11.0 -0.49584293365478516 L 10.0 -0.49584293365478516 L 10.0 -0.4800564646720886 L 9.0 -0.4800564646720886 L 9.0 -0.3030012547969818 L 8.0 -0.3030012547969818 L 8.0 -0.533463716506958 L 7.0 -0.533463716506958 L 7.0 -0.3983592689037323 L 6.0 -0.3983592689037323 L 6.0 -0.5670746564865112 L 5.0 -0.5670746564865112 L 5.0 -0.1422637552022934 L 4.0 -0.1422637552022934 L 4.0 -0.11054203659296036 L 3.0 -0.11054203659296036 L 3.0 -0.20198750495910645 L 2.0 -0.20198750495910645 L 2.0 -0.2133413553237915 L 1.0 -0.2133413553237915 L 1.0 -0.2860249876976013 L 0.0 -0.2860249876976013 Z" style="vector-effect: non-scaling-stroke;" /></g></g><g style="stroke: black;stroke-width: 1.2000000000000002;" transform="matrix(1.0, 0.0, 0.0, 1.0, 0.0, 0.0)"><path d="M 0.0 -0.2860249876976013 L 1.0 -0.2860249876976013 L 1.0 -0.2133413553237915 L 2.0 -0.2133413553237915 L 2.0 -0.20198750495910645 L 3.0 -0.20198750495910645 L 3.0 -0.11054203659296036 L 4.0 -0.11054203659296036 L 4.0 -0.1422637552022934 L 5.0 -0.1422637552022934 L 5.0 -0.5670746564865112 L 6.0 -0.5670746564865112 L 6.0 -0.3983592689037323 L 7.0 -0.3983592689037323 L 7.0 -0.533463716506958 L 8.0 -0.533463716506958 L 8.0 -0.3030012547969818 L 9.0 -0.3030012547969818 L 9.0 -0.4800564646720886 L 10.0 -0.4800564646720886 L 10.0 -0.49584293365478516 L 11.0 -0.49584293365478516 L 11.0 -0.3054375946521759 L 12.0 -0.3054375946521759 L 12.0 -0.5174416303634644 L 13.0 -0.5174416303634644 L 13.0 -0.3400228023529053 L 14.0 -0.3400228023529053 L 14.0 -0.5351146459579468 L 15.0 -0.5351146459579468 L 15.0 -0.26127976179122925 L 16.0 -0.26127976179122925 L 16.0 -0.12602508068084717 L 17.0 -0.12602508068084717 L 17.0 -0.21546192467212677 L 18.0 -0.21546192467212677 L 18.0 -0.18755881488323212 L 19.0 -0.18755881488323212 L 19.0 -0.35274678468704224 L 20.0 -0.35274678468704224 L 20.0 -0.4666758179664612 L 21.0 -0.4666758179664612 L 21.0 -0.3687005341053009 L 22.0 -0.3687005341053009 L 22.0 -0.49810296297073364 L 23.0 -0.49810296297073364 L 23.0 -0.30516958236694336 L 24.0 -0.30516958236694336 L 24.0 -0.4099307954311371 L 25.0 -0.4099307954311371" style="vector-effect: non-scaling-stroke;fill:none;" /></g></g></g></g></g></g><g transform="matrix(1.0, 0.0, 0.0, 1.0, -0.125, 0.16)"><g transform="matrix(1.0, 0.0, 0.0, 0.009999999999999995, 0.0, 0.0)"><g transform="matrix(0.01, 0.0, 0.0, 1.0, 0.0, 0.0)"><g><g><g style="fill: #ff8c00;stroke: #ff8c00;stroke-width: 1.2000000000000002;fill-opacity: 0.5;" transform="matrix(1.0, 0.0, 0.0, 1.0, 0.0, 0.0)"><path d="M 0.0 -2.0 L 0.0 2.0" style="vector-effect: non-scaling-stroke;fill:none;" /></g><g style="fill: #ff8c00;stroke: #ff8c00;stroke-width: 1.2000000000000002;fill-opacity: 0.5;" transform="matrix(1.0, 0.0, 0.0, 1.0, 0.0, 0.0)"><path d="M 0.0 -0.2860249876976013 L 1.0 -0.2860249876976013 L 1.0 -0.2133413553237915 L 2.0 -0.2133413553237915 L 2.0 -0.20198750495910645 L 3.0 -0.20198750495910645 L 3.0 -0.11054203659296036 L 4.0 -0.11054203659296036 L 4.0 -0.1422637552022934 L 5.0 -0.1422637552022934 L 5.0 -0.5670746564865112 L 6.0 -0.5670746564865112 L 6.0 -0.3983592689037323 L 7.0 -0.3983592689037323 L 7.0 -0.533463716506958 L 8.0 -0.533463716506958 L 8.0 -0.3030012547969818 L 9.0 -0.3030012547969818 L 9.0 -0.4800564646720886 L 10.0 -0.4800564646720886 L 10.0 -0.49584293365478516 L 11.0 -0.49584293365478516 L 11.0 -0.3054375946521759 L 12.0 -0.3054375946521759 L 12.0 -0.5174416303634644 L 13.0 -0.5174416303634644 L 13.0 -0.3400228023529053 L 14.0 -0.3400228023529053 L 14.0 -0.5351146459579468 L 15.0 -0.5351146459579468 L 15.0 -0.26127976179122925 L 16.0 -0.26127976179122925 L 16.0 -0.12602508068084717 L 17.0 -0.12602508068084717 L 17.0 -0.21546192467212677 L 18.0 -0.21546192467212677 L 18.0 -0.18755881488323212 L 19.0 -0.18755881488323212 L 19.0 -0.35274678468704224 L 20.0 -0.35274678468704224 L 20.0 -0.4666758179664612 L 21.0 -0.4666758179664612 L 21.0 -0.3687005341053009 L 22.0 -0.3687005341053009 L 22.0 -0.49810296297073364 L 23.0 -0.49810296297073364 L 23.0 -0.30516958236694336 L 24.0 -0.30516958236694336 L 24.0 -0.4099307954311371 L 25.0 -0.4099307954311371 L 25.0 -0.4099307954311371 L 24.0 -0.4099307954311371 L 24.0 -0.30516958236694336 L 23.0 -0.30516958236694336 L 23.0 -0.49810296297073364 L 22.0 -0.49810296297073364 L 22.0 -0.3687005341053009 L 21.0 -0.3687005341053009 L 21.0 -0.4666758179664612 L 20.0 -0.4666758179664612 L 20.0 -0.35274678468704224 L 19.0 -0.35274678468704224 L 19.0 -0.18755881488323212 L 18.0 -0.18755881488323212 L 18.0 -0.21546192467212677 L 17.0 -0.21546192467212677 L 17.0 -0.12602508068084717 L 16.0 -0.12602508068084717 L 16.0 -0.26127976179122925 L 15.0 -0.26127976179122925 L 15.0 -0.5351146459579468 L 14.0 -0.5351146459579468 L 14.0 -0.3400228023529053 L 13.0 -0.3400228023529053 L 13.0 -0.5174416303634644 L 12.0 -0.5174416303634644 L 12.0 -0.3054375946521759 L 11.0 -0.3054375946521759 L 11.0 -0.49584293365478516 L 10.0 -0.49584293365478516 L 10.0 -0.4800564646720886 L 9.0 -0.4800564646720886 L 9.0 -0.3030012547969818 L 8.0 -0.3030012547969818 L 8.0 -0.533463716506958 L 7.0 -0.533463716506958 L 7.0 -0.3983592689037323 L 6.0 -0.3983592689037323 L 6.0 -0.5670746564865112 L 5.0 -0.5670746564865112 L 5.0 -0.1422637552022934 L 4.0 -0.1422637552022934 L 4.0 -0.11054203659296036 L 3.0 -0.11054203659296036 L 3.0 -0.20198750495910645 L 2.0 -0.20198750495910645 L 2.0 -0.2133413553237915 L 1.0 -0.2133413553237915 L 1.0 -0.2860249876976013 L 0.0 -0.2860249876976013 Z" style="vector-effect: non-scaling-stroke;" /></g></g><g style="stroke: black;stroke-width: 1.2000000000000002;" transform="matrix(1.0, 0.0, 0.0, 1.0, 0.0, 0.0)"><path d="M 0.0 -0.2860249876976013 L 1.0 -0.2860249876976013 L 1.0 -0.2133413553237915 L 2.0 -0.2133413553237915 L 2.0 -0.20198750495910645 L 3.0 -0.20198750495910645 L 3.0 -0.11054203659296036 L 4.0 -0.11054203659296036 L 4.0 -0.1422637552022934 L 5.0 -0.1422637552022934 L 5.0 -0.5670746564865112 L 6.0 -0.5670746564865112 L 6.0 -0.3983592689037323 L 7.0 -0.3983592689037323 L 7.0 -0.533463716506958 L 8.0 -0.533463716506958 L 8.0 -0.3030012547969818 L 9.0 -0.3030012547969818 L 9.0 -0.4800564646720886 L 10.0 -0.4800564646720886 L 10.0 -0.49584293365478516 L 11.0 -0.49584293365478516 L 11.0 -0.3054375946521759 L 12.0 -0.3054375946521759 L 12.0 -0.5174416303634644 L 13.0 -0.5174416303634644 L 13.0 -0.3400228023529053 L 14.0 -0.3400228023529053 L 14.0 -0.5351146459579468 L 15.0 -0.5351146459579468 L 15.0 -0.26127976179122925 L 16.0 -0.26127976179122925 L 16.0 -0.12602508068084717 L 17.0 -0.12602508068084717 L 17.0 -0.21546192467212677 L 18.0 -0.21546192467212677 L 18.0 -0.18755881488323212 L 19.0 -0.18755881488323212 L 19.0 -0.35274678468704224 L 20.0 -0.35274678468704224 L 20.0 -0.4666758179664612 L 21.0 -0.4666758179664612 L 21.0 -0.3687005341053009 L 22.0 -0.3687005341053009 L 22.0 -0.49810296297073364 L 23.0 -0.49810296297073364 L 23.0 -0.30516958236694336 L 24.0 -0.30516958236694336 L 24.0 -0.4099307954311371 L 25.0 -0.4099307954311371" style="vector-effect: non-scaling-stroke;fill:none;" /></g></g></g></g></g></g><g transform="matrix(1.0, 0.0, 0.0, 1.0, -0.125, 0.16)"><g transform="matrix(1.0, 0.0, 0.0, 0.009999999999999995, 0.0, 0.0)"><g transform="matrix(0.01, 0.0, 0.0, 1.0, 0.0, 0.0)"><g><g><g style="fill: #0000ff;stroke: #0000ff;stroke-width: 1.2000000000000002;fill-opacity: 0.5;" transform="matrix(1.0, 0.0, 0.0, 1.0, 0.0, 0.0)"><path d="M 0.0 -2.0 L 0.0 2.0" style="vector-effect: non-scaling-stroke;fill:none;" /></g><g style="fill: #0000ff;stroke: #0000ff;stroke-width: 1.2000000000000002;fill-opacity: 0.5;" transform="matrix(1.0, 0.0, 0.0, 1.0, 0.0, 0.0)"><path d="M 0.0 -0.2860249876976013 L 1.0 -0.2860249876976013 L 1.0 -0.2133413553237915 L 2.0 -0.2133413553237915 L 2.0 -0.20198750495910645 L 3.0 -0.20198750495910645 L 3.0 -0.11054203659296036 L 4.0 -0.11054203659296036 L 4.0 -0.1422637552022934 L 5.0 -0.1422637552022934 L 5.0 -0.5670746564865112 L 6.0 -0.5670746564865112 L 6.0 -0.3983592689037323 L 7.0 -0.3983592689037323 L 7.0 -0.533463716506958 L 8.0 -0.533463716506958 L 8.0 -0.3030012547969818 L 9.0 -0.3030012547969818 L 9.0 -0.4800564646720886 L 10.0 -0.4800564646720886 L 10.0 -0.49584293365478516 L 11.0 -0.49584293365478516 L 11.0 -0.3054375946521759 L 12.0 -0.3054375946521759 L 12.0 -0.5174416303634644 L 13.0 -0.5174416303634644 L 13.0 -0.3400228023529053 L 14.0 -0.3400228023529053 L 14.0 -0.5351146459579468 L 15.0 -0.5351146459579468 L 15.0 -0.26127976179122925 L 16.0 -0.26127976179122925 L 16.0 -0.12602508068084717 L 17.0 -0.12602508068084717 L 17.0 -0.21546192467212677 L 18.0 -0.21546192467212677 L 18.0 -0.18755881488323212 L 19.0 -0.18755881488323212 L 19.0 -0.35274678468704224 L 20.0 -0.35274678468704224 L 20.0 -0.4666758179664612 L 21.0 -0.4666758179664612 L 21.0 -0.3687005341053009 L 22.0 -0.3687005341053009 L 22.0 -0.49810296297073364 L 23.0 -0.49810296297073364 L 23.0 -0.30516958236694336 L 24.0 -0.30516958236694336 L 24.0 -0.4099307954311371 L 25.0 -0.4099307954311371 L 25.0 -0.4099307954311371 L 24.0 -0.4099307954311371 L 24.0 -0.30516958236694336 L 23.0 -0.30516958236694336 L 23.0 -0.49810296297073364 L 22.0 -0.49810296297073364 L 22.0 -0.3687005341053009 L 21.0 -0.3687005341053009 L 21.0 -0.4666758179664612 L 20.0 -0.4666758179664612 L 20.0 -0.35274678468704224 L 19.0 -0.35274678468704224 L 19.0 -0.18755881488323212 L 18.0 -0.18755881488323212 L 18.0 -0.21546192467212677 L 17.0 -0.21546192467212677 L 17.0 -0.12602508068084717 L 16.0 -0.12602508068084717 L 16.0 -0.26127976179122925 L 15.0 -0.26127976179122925 L 15.0 -0.5351146459579468 L 14.0 -0.5351146459579468 L 14.0 -0.3400228023529053 L 13.0 -0.3400228023529053 L 13.0 -0.5174416303634644 L 12.0 -0.5174416303634644 L 12.0 -0.3054375946521759 L 11.0 -0.3054375946521759 L 11.0 -0.49584293365478516 L 10.0 -0.49584293365478516 L 10.0 -0.4800564646720886 L 9.0 -0.4800564646720886 L 9.0 -0.3030012547969818 L 8.0 -0.3030012547969818 L 8.0 -0.533463716506958 L 7.0 -0.533463716506958 L 7.0 -0.3983592689037323 L 6.0 -0.3983592689037323 L 6.0 -0.5670746564865112 L 5.0 -0.5670746564865112 L 5.0 -0.1422637552022934 L 4.0 -0.1422637552022934 L 4.0 -0.11054203659296036 L 3.0 -0.11054203659296036 L 3.0 -0.20198750495910645 L 2.0 -0.20198750495910645 L 2.0 -0.2133413553237915 L 1.0 -0.2133413553237915 L 1.0 -0.2860249876976013 L 0.0 -0.2860249876976013 Z" style="vector-effect: non-scaling-stroke;" /></g></g><g style="stroke: black;stroke-width: 1.2000000000000002;" transform="matrix(1.0, 0.0, 0.0, 1.0, 0.0, 0.0)"><path d="M 0.0 -0.2860249876976013 L 1.0 -0.2860249876976013 L 1.0 -0.2133413553237915 L 2.0 -0.2133413553237915 L 2.0 -0.20198750495910645 L 3.0 -0.20198750495910645 L 3.0 -0.11054203659296036 L 4.0 -0.11054203659296036 L 4.0 -0.1422637552022934 L 5.0 -0.1422637552022934 L 5.0 -0.5670746564865112 L 6.0 -0.5670746564865112 L 6.0 -0.3983592689037323 L 7.0 -0.3983592689037323 L 7.0 -0.533463716506958 L 8.0 -0.533463716506958 L 8.0 -0.3030012547969818 L 9.0 -0.3030012547969818 L 9.0 -0.4800564646720886 L 10.0 -0.4800564646720886 L 10.0 -0.49584293365478516 L 11.0 -0.49584293365478516 L 11.0 -0.3054375946521759 L 12.0 -0.3054375946521759 L 12.0 -0.5174416303634644 L 13.0 -0.5174416303634644 L 13.0 -0.3400228023529053 L 14.0 -0.3400228023529053 L 14.0 -0.5351146459579468 L 15.0 -0.5351146459579468 L 15.0 -0.26127976179122925 L 16.0 -0.26127976179122925 L 16.0 -0.12602508068084717 L 17.0 -0.12602508068084717 L 17.0 -0.21546192467212677 L 18.0 -0.21546192467212677 L 18.0 -0.18755881488323212 L 19.0 -0.18755881488323212 L 19.0 -0.35274678468704224 L 20.0 -0.35274678468704224 L 20.0 -0.4666758179664612 L 21.0 -0.4666758179664612 L 21.0 -0.3687005341053009 L 22.0 -0.3687005341053009 L 22.0 -0.49810296297073364 L 23.0 -0.49810296297073364 L 23.0 -0.30516958236694336 L 24.0 -0.30516958236694336 L 24.0 -0.4099307954311371 L 25.0 -0.4099307954311371" style="vector-effect: non-scaling-stroke;fill:none;" /></g></g></g></g></g></g></g></g><g /></g></g></g></g></svg>