<?xml version="1.0" encoding="utf-8" ?>
<svg baseProfile="full" height="300" version="1.1" width="1056" xmlns="http://www.w3.org/2000/svg" xmlns:ev="http://www.w3.org/2001/xml-events" xmlns:xlink="http://www.w3.org/1999/xlink"><defs><marker id="arrow" markerHeight="3.5" markerWidth="5" orient="auto" refX="5.0" refY="1.7"><polygon points="0,0 5,1.75 0,3.5" /></marker></defs><g style="fill:white;"><g transform="matrix(1.0, 0.0, 0.0, 1.0, 528.409090909091, 150.0)"><g transform="matrix(1082.2510822510822, 0.0, 0.0, 1082.2510822510822, 0.0, 0.0)"><g><g transform="matrix(1.0, 0.0, 0.0, 1.0, -0.0, -0.08000000000000002)"><g><g><g style="fill: #ffffff;stroke: black;stroke-width: 1.2000000000000002;" transform="matrix(1.0, 0.0, 0.0, 1.0, -0.465, -0.052000000000000005)"><path d="M 0.0 0.0 L 0.93 0.0 L 0.93 0.264 L 0.0 0.264 L 0.0 0.0 Z" style="vector-effect: non-scaling-stroke;" /></g><g><g><g><g><g><g><g><g transform="matrix(1.0, 0.0, 0.0, 1.0, -0.41500000000000004, -0.03)"><g><g><g transform="matrix(1.0, 0.0, 0.0, 1.0, 0.075, 0.0)"><g transform="matrix(1.0, 0.0, 0.0, 1.0, 0.0, 0.03)"><g transform="matrix(0.01, 0.0, 0.0, 0.01, 0.0, 0.0)"><g><g><g transform="matrix(1.0, 0.0, 0.0, 1.0, 12.5, 0.0)"><g transform="matrix(1.0, 0.0, 0.0, 1.0, -20.0, -0.0)"><g><g style="fill: #d3d3d3;stroke: black;stroke-width: 1.2000000000000002;" transform="matrix(1.0, 0.0, 0.0, 1.0, 0.0, -3.0)"><path d="M 0.0 0.0 L 40.0 0.0 L 40.0 6.0 L 0.0 6.0 L 0.0 0.0 Z" style="vector-effect: non-scaling-stroke;" /></g><g transform="matrix(1.0, 0.0, 0.0, 1.0, 1.875, 0.0)"><g><g style="stroke: black;stroke-width: 1.2000000000000002;" transform="matrix(1.0, 0.0, 0.0, 1.0, 0.0, 0.0)"><g /></g><g style="fill: #ffa500;stroke: black;stroke-width: 1.2000000000000002;" transform="matrix(1.0, 0.0, 0.0, 1.0, 1.875, 0.0)"><text style="text-align:center; text-anchor:middle; dominant-baseline:middle;&#10;                      font-family:sans-serif; font-weight: bold;&#10;                      font-size:3px;&#10;                      vector-effect: non-scaling-stroke;" transform="translate(-5e-05, 0)">x</text></g></g></g></g></g></g><g><g><g><g><g><g><g><g><g style="stroke: black;stroke-width: 1.2000000000000002;" transform="matrix(1.0, 0.0, 0.0, 1.0, 0.0, 0.0)"><path d="M 0.0 -2.0 L 0.0 2.0" style="vector-effect: non-scaling-stroke;fill:none;" /></g><g style="stroke: #808080;stroke-width: 0.6000000000000001;" transform="matrix(1.0, 0.0, 0.0, 1.0, 0.0, 0.0)"><path d="M 0.0 0.0 L 25.0 0.0" style="vector-effect: non-scaling-stroke;fill:none;" /></g></g><g style="stroke: black;stroke-width: 2.4000000000000004;" transform="matrix(1.0, 0.0, 0.0, 1.0, 0.0, 0.0)"><path d="M 0.0 0.36892756819725037 L 1.0 0.36892756819725037 L 1.0 0.10681941360235214 L 2.0 0.10681941360235214 L 2.0 -0.40417441725730896 L 3.0 -0.40417441725730896 L 3.0 -0.45308804512023926 L 4.0 -0.45308804512023926 L 4.0 -0.6547780632972717 L 5.0 -0.6547780632972717 L 5.0 0.2719874083995819 L 6.0 0.2719874083995819 L 6.0 -0.2291276603937149 L 7.0 -0.2291276603937149 L 7.0 0.6312178373336792 L 8.0 0.6312178373336792 L 8.0 -0.04604702442884445 L 9.0 -0.04604702442884445 L 9.0 -0.6091361045837402 L 10.0 -0.6091361045837402 L 10.0 -0.9941620826721191 L 11.0 -0.9941620826721191 L 11.0 -1.3657546043395996 L 12.0 -1.3657546043395996 L 12.0 -0.5576217770576477 L 13.0 -0.5576217770576477 L 13.0 -1.5033526420593262 L 14.0 -1.5033526420593262 L 14.0 -0.9151825904846191 L 15.0 -0.9151825904846191 L 15.0 -1.642714500427246 L 16.0 -1.642714500427246 L 16.0 -1.4663134813308716 L 17.0 -1.4663134813308716 L 17.0 -1.3641618490219116 L 18.0 -1.3641618490219116 L 18.0 -0.9552580714225769 L 19.0 -0.9552580714225769 L 19.0 -0.5979908108711243 L 20.0 -0.5979908108711243 L 20.0 -1.0358208417892456 L 21.0 -1.0358208417892456 L 21.0 -0.6786758303642273 L 22.0 -0.6786758303642273 L 22.0 -1.435609221458435 L 23.0 -1.435609221458435 L 23.0 -0.7616475820541382 L 24.0 -0.7616475820541382 L 24.0 -0.7052664160728455 L 25.0 -0.7052664160728455" style="vector-effect: non-scaling-stroke;fill:none;" /></g></g><g style="stroke: black;stroke-width: 1.2000000000000002;" transform="matrix(1.0, 0.0, 0.0, 1.0, 0.0, 0.0)"><path d="M 0.0 -2.0 L 0.0 2.0" style="vector-effect: non-scaling-stroke;fill:none;" /></g></g><g style="stroke: black;stroke-width: 1.2000000000000002;" transform="matrix(1.0, 0.0, 0.0, 1.0, 0.0, 0.0)"><path d="M 5.0 -2.0 L 5.0 2.0" style="vector-effect: non-scaling-stroke;fill:none;" /></g></g><g style="stroke: black;stroke-width: 1.2000000000000002;" transform="matrix(1.0, 0.0, 0.0, 1.0, 0.0, 0.0)"><path d="M 10.0 -2.0 L 10.0 2.0" style="vector-effect: non-scaling-stroke;fill:none;" /></g></g><g style="stroke: black;stroke-width: 1.2000000000000002;" transform="matrix(1.0, 0.0, 0.0, 1.0, 0.0, 0.0)"><path d="M 15.0 -2.0 L 15.0 2.0" style="vector-effect: non-scaling-stroke;fill:none;" /></g></g><g style="stroke: black;stroke-width: 1.2000000000000002;" transform="matrix(1.0, 0.0, 0.0, 1.0, 0.0, 0.0)"><path d="M 20.0 -2.0 L 20.0 2.0" style="vector-effect: non-scaling-stroke;fill:none;" /></g></g></g></g><g><g><g><g><g><g><g><g><g style="stroke: black;stroke-width: 1.2000000000000002;" transform="matrix(1.0, 0.0, 0.0, 1.0, 0.0, 0.0)"><path d="M 0.0 -2.0 L 0.0 2.0" style="vector-effect: non-scaling-stroke;fill:none;" /></g><g style="stroke: #808080;stroke-width: 0.6000000000000001;" transform="matrix(1.0, 0.0, 0.0, 1.0, 0.0, 0.0)"><path d="M 0.0 0.0 L 25.0 0.0" style="vector-effect: non-scaling-stroke;fill:none;" /></g></g><g style="stroke: black;stroke-width: 2.4000000000000004;" transform="matrix(1.0, 0.0, 0.0, 1.0, 0.0, 0.0)"><path d="M 0.0 0.36892756819725037 L 1.0 0.36892756819725037 L 1.0 0.10681941360235214 L 2.0 0.10681941360235214 L 2.0 -0.40417441725730896 L 3.0 -0.40417441725730896 L 3.0 -0.45308804512023926 L 4.0 -0.45308804512023926 L 4.0 -0.6547780632972717 L 5.0 -0.6547780632972717 L 5.0 0.2719874083995819 L 6.0 0.2719874083995819 L 6.0 -0.2291276603937149 L 7.0 -0.2291276603937149 L 7.0 0.6312178373336792 L 8.0 0.6312178373336792 L 8.0 -0.04604702442884445 L 9.0 -0.04604702442884445 L 9.0 -0.6091361045837402 L 10.0 -0.6091361045837402 L 10.0 -0.9941620826721191 L 11.0 -0.9941620826721191 L 11.0 -1.3657546043395996 L 12.0 -1.3657546043395996 L 12.0 -0.5576217770576477 L 13.0 -0.5576217770576477 L 13.0 -1.5033526420593262 L 14.0 -1.5033526420593262 L 14.0 -0.9151825904846191 L 15.0 -0.9151825904846191 L 15.0 -1.642714500427246 L 16.0 -1.642714500427246 L 16.0 -1.4663134813308716 L 17.0 -1.4663134813308716 L 17.0 -1.3641618490219116 L 18.0 -1.3641618490219116 L 18.0 -0.9552580714225769 L 19.0 -0.9552580714225769 L 19.0 -0.5979908108711243 L 20.0 -0.5979908108711243 L 20.0 -1.0358208417892456 L 21.0 -1.0358208417892456 L 21.0 -0.6786758303642273 L 22.0 -0.6786758303642273 L 22.0 -1.435609221458435 L 23.0 -1.435609221458435 L 23.0 -0.7616475820541382 L 24.0 -0.7616475820541382 L 24.0 -0.7052664160728455 L 25.0 -0.7052664160728455" style="vector-effect: non-scaling-stroke;fill:none;" /></g></g><g style="stroke: black;stroke-width: 1.2000000000000002;" transform="matrix(1.0, 0.0, 0.0, 1.0, 0.0, 0.0)"><path d="M 0.0 -2.0 L 0.0 2.0" style="vector-effect: non-scaling-stroke;fill:none;" /></g></g><g style="stroke: black;stroke-width: 1.2000000000000002;" transform="matrix(1.0, 0.0, 0.0, 1.0, 0.0, 0.0)"><path d="M 5.0 -2.0 L 5.0 2.0" style="vector-effect: non-scaling-stroke;fill:none;" /></g></g><g style="stroke: black;stroke-width: 1.2000000000000002;" transform="matrix(1.0, 0.0, 0.0, 1.0, 0.0, 0.0)"><path d="M 10.0 -2.0 L 10.0 2.0" style="vector-effect: non-scaling-stroke;fill:none;" /></g></g><g style="stroke: black;stroke-width: 1.2000000000000002;" transform="matrix(1.0, 0.0, 0.0, 1.0, 0.0, 0.0)"><path d="M 15.0 -2.0 L 15.0 2.0" style="vector-effect: non-scaling-stroke;fill:none;" /></g></g><g style="stroke: black;stroke-width: 1.2000000000000002;" transform="matrix(1.0, 0.0, 0.0, 1.0, 0.0, 0.0)"><path d="M 20.0 -2.0 L 20.0 2.0" style="vector-effect: non-scaling-stroke;fill:none;" /></g></g></g></g></g></g></g><g style="stroke: black;stroke-width: 1.2000000000000002;" transform="matrix(1.0, 0.0, 0.0, 1.0, 0.41500000000000004, 0.0)"><g /></g></g><g transform="matrix(1.0, 0.0, 0.0, 1.0, 0.43000000000000005, 0.0)"><g transform="matrix(1.0, 0.0, 0.0, 1.0, 0.075, 0.0)"><g transform="matrix(1.0, 0.0, 0.0, 1.0, 0.0, 0.03)"><g transform="matrix(0.01, 0.0, 0.0, 0.01, 0.0, 0.0)"><g><g><g transform="matrix(1.0, 0.0, 0.0, 1.0, 12.5, 0.0)"><g transform="matrix(1.0, 0.0, 0.0, 1.0, -20.0, -0.0)"><g><g style="fill: #d3d3d3;stroke: black;stroke-width: 1.2000000000000002;" transform="matrix(1.0, 0.0, 0.0, 1.0, 0.0, -3.0)"><path d="M 0.0 0.0 L 40.0 0.0 L 40.0 6.0 L 0.0 6.0 L 0.0 0.0 Z" style="vector-effect: non-scaling-stroke;" /></g><g transform="matrix(1.0, 0.0, 0.0, 1.0, 1.875, 0.0)"><g><g style="stroke: black;stroke-width: 1.2000000000000002;" transform="matrix(1.0, 0.0, 0.0, 1.0, 0.0, 0.0)"><g /></g><g style="fill: #ffa500;stroke: black;stroke-width: 1.2000000000000002;" transform="matrix(1.0, 0.0, 0.0, 1.0, 1.875, 0.0)"><text style="text-align:center; text-anchor:middle; dominant-baseline:middle;&#10;                      font-family:sans-serif; font-weight: bold;&#10;                      font-size:3px;&#10;                      vector-effect: non-scaling-stroke;" transform="translate(-5e-05, 0)">y</text></g></g></g></g></g></g><g><g><g><g style="stroke: black;stroke-width: 1.2000000000000002;" transform="matrix(1.0, 0.0, 0.0, 1.0, 0.0, 0.0)"><path d="M 0.0 -2.0 L 0.0 2.0" style="vector-effect: non-scaling-stroke;fill:none;" /></g><g style="stroke: #808080;stroke-width: 0.6000000000000001;" transform="matrix(1.0, 0.0, 0.0, 1.0, 0.0, 0.0)"><path d="M 0.0 0.0 L 25.0 0.0" style="vector-effect: non-scaling-stroke;fill:none;" /></g></g><g style="stroke: black;stroke-width: 2.4000000000000004;" transform="matrix(1.0, 0.0, 0.0, 1.0, 0.0, 0.0)"><path d="M 0.0 -0.17914047837257385 L 1.0 -0.17914047837257385 L 1.0 -1.8140982389450073 L 2.0 -1.8140982389450073 L 2.0 -1.4809788465499878 L 3.0 -1.4809788465499878 L 3.0 -0.1399087905883789 L 4.0 -0.1399087905883789 L 4.0 -1.1240906715393066 L 5.0 -1.1240906715393066 L 5.0 -1.5293102264404297 L 6.0 -1.5293102264404297 L 6.0 -1.983750820159912 L 7.0 -1.983750820159912 L 7.0 -1.2204375267028809 L 8.0 -1.2204375267028809 L 8.0 -0.11166233569383621 L 9.0 -0.11166233569383621 L 9.0 -1.1134977340698242 L 10.0 -1.1134977340698242 L 10.0 -0.46122583746910095 L 11.0 -0.46122583746910095 L 11.0 -0.36684322357177734 L 12.0 -0.36684322357177734 L 12.0 -1.0981719493865967 L 13.0 -1.0981719493865967 L 13.0 -0.8180548548698425 L 14.0 -0.8180548548698425 L 14.0 -1.9024450778961182 L 15.0 -1.9024450778961182 L 15.0 -1.2284631729125977 L 16.0 -1.2284631729125977 L 16.0 -1.3120884895324707 L 17.0 -1.3120884895324707 L 17.0 -0.8512806296348572 L 18.0 -0.8512806296348572 L 18.0 -0.69685298204422 L 19.0 -0.69685298204422 L 19.0 -0.4450138509273529 L 20.0 -0.4450138509273529 L 20.0 -0.6431826949119568 L 21.0 -0.6431826949119568 L 21.0 -1.1062308549880981 L 22.0 -1.1062308549880981 L 22.0 -1.6847048997879028 L 23.0 -1.6847048997879028 L 23.0 0.05547328665852547 L 24.0 0.05547328665852547 L 24.0 -0.5061242580413818 L 25.0 -0.5061242580413818" style="vector-effect: non-scaling-stroke;fill:none;" /></g></g></g></g><g><g><g><g style="stroke: black;stroke-width: 1.2000000000000002;" transform="matrix(1.0, 0.0, 0.0, 1.0, 0.0, 0.0)"><path d="M 0.0 -2.0 L 0.0 2.0" style="vector-effect: non-scaling-stroke;fill:none;" /></g><g style="stroke: #808080;stroke-width: 0.6000000000000001;" transform="matrix(1.0, 0.0, 0.0, 1.0, 0.0, 0.0)"><path d="M 0.0 0.0 L 25.0 0.0" style="vector-effect: non-scaling-stroke;fill:none;" /></g></g><g style="stroke: black;stroke-width: 2.4000000000000004;" transform="matrix(1.0, 0.0, 0.0, 1.0, 0.0, 0.0)"><path d="M 0.0 -0.17914047837257385 L 1.0 -0.17914047837257385 L 1.0 -1.8140982389450073 L 2.0 -1.8140982389450073 L 2.0 -1.4809788465499878 L 3.0 -1.4809788465499878 L 3.0 -0.1399087905883789 L 4.0 -0.1399087905883789 L 4.0 -1.1240906715393066 L 5.0 -1.1240906715393066 L 5.0 -1.5293102264404297 L 6.0 -1.5293102264404297 L 6.0 -1.983750820159912 L 7.0 -1.983750820159912 L 7.0 -1.2204375267028809 L 8.0 -1.2204375267028809 L 8.0 -0.11166233569383621 L 9.0 -0.11166233569383621 L 9.0 -1.1134977340698242 L 10.0 -1.1134977340698242 L 10.0 -0.46122583746910095 L 11.0 -0.46122583746910095 L 11.0 -0.36684322357177734 L 12.0 -0.36684322357177734 L 12.0 -1.0981719493865967 L 13.0 -1.0981719493865967 L 13.0 -0.8180548548698425 L 14.0 -0.8180548548698425 L 14.0 -1.9024450778961182 L 15.0 -1.9024450778961182 L 15.0 -1.2284631729125977 L 16.0 -1.2284631729125977 L 16.0 -1.3120884895324707 L 17.0 -1.3120884895324707 L 17.0 -0.8512806296348572 L 18.0 -0.8512806296348572 L 18.0 -0.69685298204422 L 19.0 -0.69685298204422 L 19.0 -0.4450138509273529 L 20.0 -0.4450138509273529 L 20.0 -0.6431826949119568 L 21.0 -0.6431826949119568 L 21.0 -1.1062308549880981 L 22.0 -1.1062308549880981 L 22.0 -1.6847048997879028 L 23.0 -1.6847048997879028 L 23.0 0.05547328665852547 L 24.0 0.05547328665852547 L 24.0 -0.5061242580413818 L 25.0 -0.5061242580413818" style="vector-effect: non-scaling-stroke;fill:none;" /></g></g></g></g></g></g></g></g></g></g><g style="stroke: black;stroke-width: 1.2000000000000002;" transform="matrix(0.0, -1.0, 1.0, 0.0, 0.0, 0.08)"><g /></g></g><g transform="matrix(1.0, 0.0, 0.0, 1.0, 0.0, 0.16)"><g transform="matrix(1.0, 0.0, 0.0, 1.0, -0.2, -0.03)"><g transform="matrix(1.0, 0.0, 0.0, 1.0, 0.075, 0.0)"><g transform="matrix(1.0, 0.0, 0.0, 1.0, 0.0, 0.03)"><g transform="matrix(0.01, 0.0, 0.0, 0.01, 0.0, 0.0)"><g><g><g transform="matrix(1.0, 0.0, 0.0, 1.0, 12.5, 0.0)"><g transform="matrix(1.0, 0.0, 0.0, 1.0, -20.0, -0.0)"><g><g style="fill: #d3d3d3;stroke: black;stroke-width: 1.2000000000000002;" transform="matrix(1.0, 0.0, 0.0, 1.0, 0.0, -3.0)"><path d="M 0.0 0.0 L 40.0 0.0 L 40.0 6.0 L 0.0 6.0 L 0.0 0.0 Z" style="vector-effect: non-scaling-stroke;" /></g><g transform="matrix(1.0, 0.0, 0.0, 1.0, 1.875, 0.0)"><g><g style="stroke: black;stroke-width: 1.2000000000000002;" transform="matrix(1.0, 0.0, 0.0, 1.0, 0.0, 0.0)"><g /></g><g style="fill: #ffa500;stroke: black;stroke-width: 1.2000000000000002;" transform="matrix(1.0, 0.0, 0.0, 1.0, 1.875, 0.0)"><text style="text-align:center; text-anchor:middle; dominant-baseline:middle;&#10;                      font-family:sans-serif; font-weight: bold;&#10;                      font-size:3px;&#10;                      vector-effect: non-scaling-stroke;" transform="translate(-5e-05, 0)">f(x)</text></g></g></g></g></g></g><g><g><g><g style="stroke: black;stroke-width: 1.2000000000000002;" transform="matrix(1.0, 0.0, 0.0, 1.0, 0.0, 0.0)"><path d="M 0.0 -2.0 L 0.0 2.0" style="vector-effect: non-scaling-stroke;fill:none;" /></g><g style="stroke: #808080;stroke-width: 0.6000000000000001;" transform="matrix(1.0, 0.0, 0.0, 1.0, 0.0, 0.0)"><path d="M 0.0 0.0 L 25.0 0.0" style="vector-effect: non-scaling-stroke;fill:none;" /></g></g><g style="stroke: black;stroke-width: 2.4000000000000004;" transform="matrix(1.0, 0.0, 0.0, 1.0, 0.0, 0.0)"><path d="M 0.0 -0.0934709757566452 L 1.0 -0.0934709757566452 L 1.0 -0.05859219282865524 L 2.0 -0.05859219282865524 L 2.0 -0.12559255957603455 L 3.0 -0.12559255957603455 L 3.0 -0.054650597274303436 L 4.0 -0.054650597274303436 L 4.0 -0.07682979106903076 L 5.0 -0.07682979106903076 L 5.0 -0.04589021950960159 L 6.0 -0.04589021950960159 L 6.0 -0.04638252779841423 L 7.0 -0.04638252779841423 L 7.0 -0.0249056164175272 L 8.0 -0.0249056164175272 L 8.0 0.053054213523864746 L 9.0 0.053054213523864746 L 9.0 0.09226725250482559 L 10.0 0.09226725250482559 L 10.0 -0.4959389567375183 L 11.0 -0.4959389567375183 L 11.0 -0.7702319025993347 L 12.0 -0.7702319025993347 L 12.0 -0.6573103070259094 L 13.0 -0.6573103070259094 L 13.0 -0.17446081340312958 L 14.0 -0.17446081340312958 L 14.0 -0.4831346571445465 L 15.0 -0.4831346571445465 L 15.0 -0.47240281105041504 L 16.0 -0.47240281105041504 L 16.0 -0.8304179310798645 L 17.0 -0.8304179310798645 L 17.0 -0.7541084289550781 L 18.0 -0.7541084289550781 L 18.0 -0.21420231461524963 L 19.0 -0.21420231461524963 L 19.0 -0.6802300214767456 L 20.0 -0.6802300214767456 L 20.0 -0.3274874687194824 L 21.0 -0.3274874687194824 L 21.0 -0.5531584620475769 L 22.0 -0.5531584620475769 L 22.0 -0.5775398015975952 L 23.0 -0.5775398015975952 L 23.0 -0.18867431581020355 L 24.0 -0.18867431581020355 L 24.0 -0.5347124934196472 L 25.0 -0.5347124934196472" style="vector-effect: non-scaling-stroke;fill:none;" /></g></g></g></g><g><g><g><g style="stroke: black;stroke-width: 1.2000000000000002;" transform="matrix(1.0, 0.0, 0.0, 1.0, 0.0, 0.0)"><path d="M 0.0 -2.0 L 0.0 2.0" style="vector-effect: non-scaling-stroke;fill:none;" /></g><g style="stroke: #808080;stroke-width: 0.6000000000000001;" transform="matrix(1.0, 0.0, 0.0, 1.0, 0.0, 0.0)"><path d="M 0.0 0.0 L 25.0 0.0" style="vector-effect: non-scaling-stroke;fill:none;" /></g></g><g style="stroke: black;stroke-width: 2.4000000000000004;" transform="matrix(1.0, 0.0, 0.0, 1.0, 0.0, 0.0)"><path d="M 0.0 -0.0934709757566452 L 1.0 -0.0934709757566452 L 1.0 -0.05859219282865524 L 2.0 -0.05859219282865524 L 2.0 -0.12559255957603455 L 3.0 -0.12559255957603455 L 3.0 -0.054650597274303436 L 4.0 -0.054650597274303436 L 4.0 -0.07682979106903076 L 5.0 -0.07682979106903076 L 5.0 -0.04589021950960159 L 6.0 -0.04589021950960159 L 6.0 -0.04638252779841423 L 7.0 -0.04638252779841423 L 7.0 -0.0249056164175272 L 8.0 -0.0249056164175272 L 8.0 0.053054213523864746 L 9.0 0.053054213523864746 L 9.0 0.09226725250482559 L 10.0 0.09226725250482559 L 10.0 -0.4959389567375183 L 11.0 -0.4959389567375183 L 11.0 -0.7702319025993347 L 12.0 -0.7702319025993347 L 12.0 -0.6573103070259094 L 13.0 -0.6573103070259094 L 13.0 -0.17446081340312958 L 14.0 -0.17446081340312958 L 14.0 -0.4831346571445465 L 15.0 -0.4831346571445465 L 15.0 -0.47240281105041504 L 16.0 -0.47240281105041504 L 16.0 -0.8304179310798645 L 17.0 -0.8304179310798645 L 17.0 -0.7541084289550781 L 18.0 -0.7541084289550781 L 18.0 -0.21420231461524963 L 19.0 -0.21420231461524963 L 19.0 -0.6802300214767456 L 20.0 -0.6802300214767456 L 20.0 -0.3274874687194824 L 21.0 -0.3274874687194824 L 21.0 -0.5531584620475769 L 22.0 -0.5531584620475769 L 22.0 -0.5775398015975952 L 23.0 -0.5775398015975952 L 23.0 -0.18867431581020355 L 24.0 -0.18867431581020355 L 24.0 -0.5347124934196472 L 25.0 -0.5347124934196472" style="vector-effect: non-scaling-stroke;fill:none;" /></g></g></g></g></g></g></g></g></g></g><g transform="matrix(1.0, 0.0, 0.0, 1.0, -0.125, 0.16)"><g transform="matrix(1.0, 0.0, 0.0, 0.009999999999999995, 0.0, 0.0)"><g transform="matrix(0.01, 0.0, 0.0, 1.0, 0.0, 0.0)"><g><g><g style="fill: #ffffe0;stroke: #ffffe0;stroke-width: 1.2000000000000002;fill-opacity: 0.5;" transform="matrix(1.0, 0.0, 0.0, 1.0, 0.0, 0.0)"><path d="M 0.0 -2.0 L 0.0 2.0" style="vector-effect: non-scaling-stroke;fill:none;" /></g><g style="fill: #ffffe0;stroke: #ffffe0;stroke-width: 1.2000000000000002;fill-opacity: 0.5;" transform="matrix(1.0, 0.0, 0.0, 1.0, 0.0, 0.0)"><path d="M 0.0 -0.900368869304657 L 1.0 -0.900368869304657 L 1.0 -1.376599907875061 L 2.0 -1.376599907875061 L 2.0 -1.3951715230941772 L 3.0 -1.3951715230941772 L 3.0 -0.3981223702430725 L 4.0 -0.3981223702430725 L 4.0 -1.095324158668518 L 5.0 -1.095324158668518 L 5.0 -0.8550232648849487 L 6.0 -0.8550232648849487 L 6.0 -1.3621550798416138 L 7.0 -1.3621550798416138 L 7.0 -1.2942982912063599 L 8.0 -1.2942982912063599 L 8.0 -0.29004502296447754 L 9.0 -0.29004502296447754 L 9.0 -0.9277172088623047 L 10.0 -0.9277172088623047 L 10.0 -1.3125226497650146 L 11.0 -1.3125226497650146 L 11.0 -2.0 L 12.0 -2.0 L 12.0 -1.926889181137085 L 13.0 -1.926889181137085 L 13.0 -0.5186776518821716 L 14.0 -0.5186776518821716 L 14.0 -1.5053542852401733 L 15.0 -1.5053542852401733 L 15.0 -1.286006212234497 L 16.0 -1.286006212234497 L 16.0 -2.0 L 17.0 -2.0 L 17.0 -2.0 L 18.0 -2.0 L 18.0 -0.5628894567489624 L 19.0 -0.5628894567489624 L 19.0 -1.7054299116134644 L 20.0 -1.7054299116134644 L 20.0 -1.1351304054260254 L 21.0 -1.1351304054260254 L 21.0 -1.8704211711883545 L 22.0 -1.8704211711883545 L 22.0 -1.8232768774032593 L 23.0 -1.8232768774032593 L 23.0 -0.5269306898117065 L 24.0 -0.5269306898117065 L 24.0 -1.5420310497283936 L 25.0 -1.5420310497283936 L 25.0 -0.5347124934196472 L 24.0 -0.5347124934196472 L 24.0 -0.18867431581020355 L 23.0 -0.18867431581020355 L 23.0 -0.5775398015975952 L 22.0 -0.5775398015975952 L 22.0 -0.5531584620475769 L 21.0 -0.5531584620475769 L 21.0 -0.3274874687194824 L 20.0 -0.3274874687194824 L 20.0 -0.6802300214767456 L 19.0 -0.6802300214767456 L 19.0 -0.21420231461524963 L 18.0 -0.21420231461524963 L 18.0 -0.7541084289550781 L 17.0 -0.7541084289550781 L 17.0 -0.8304179310798645 L 16.0 -0.8304179310798645 L 16.0 -0.47240281105041504 L 15.0 -0.47240281105041504 L 15.0 -0.4831346571445465 L 14.0 -0.4831346571445465 L 14.0 -0.17446081340312958 L 13.0 -0.17446081340312958 L 13.0 -0.6573103070259094 L 12.0 -0.6573103070259094 L 12.0 -0.7702319025993347 L 11.0 -0.7702319025993347 L 11.0 -0.4959389567375183 L 10.0 -0.4959389567375183 L 10.0 0.09226725250482559 L 9.0 0.09226725250482559 L 9.0 0.053054213523864746 L 8.0 0.053054213523864746 L 8.0 -0.0249056164175272 L 7.0 -0.0249056164175272 L 7.0 -0.04638252779841423 L 6.0 -0.04638252779841423 L 6.0 -0.04589021950960159 L 5.0 -0.04589021950960159 L 5.0 -0.07682979106903076 L 4.0 -0.07682979106903076 L 4.0 -0.054650597274303436 L 3.0 -0.054650597274303436 L 3.0 -0.12559255957603455 L 2.0 -0.12559255957603455 L 2.0 -0.05859219282865524 L 1.0 -0.05859219282865524 L 1.0 -0.0934709757566452 L 0.0 -0.0934709757566452 Z" style="vector-effect: non-scaling-stroke;" /></g></g><g style="stroke: black;stroke-width: 1.2000000000000002;" transform="matrix(1.0, 0.0, 0.0, 1.0, 0.0, 0.0)"><path d="M 0.0 -0.0934709757566452 L 1.0 -0.0934709757566452 L 1.0 -0.05859219282865524 L 2.0 -0.05859219282865524 L 2.0 -0.12559255957603455 L 3.0 -0.12559255957603455 L 3.0 -0.054650597274303436 L 4.0 -0.054650597274303436 L 4.0 -0.07682979106903076 L 5.0 -0.07682979106903076 L 5.0 -0.04589021950960159 L 6.0 -0.04589021950960159 L 6.0 -0.04638252779841423 L 7.0 -0.04638252779841423 L 7.0 -0.0249056164175272 L 8.0 -0.0249056164175272 L 8.0 0.053054213523864746 L 9.0 0.053054213523864746 L 9.0 0.09226725250482559 L 10.0 0.09226725250482559 L 10.0 -0.4959389567375183 L 11.0 -0.4959389567375183 L 11.0 -0.7702319025993347 L 12.0 -0.7702319025993347 L 12.0 -0.6573103070259094 L 13.0 -0.6573103070259094 L 13.0 -0.17446081340312958 L 14.0 -0.17446081340312958 L 14.0 -0.4831346571445465 L 15.0 -0.4831346571445465 L 15.0 -0.47240281105041504 L 16.0 -0.47240281105041504 L 16.0 -0.8304179310798645 L 17.0 -0.8304179310798645 L 17.0 -0.7541084289550781 L 18.0 -0.7541084289550781 L 18.0 -0.21420231461524963 L 19.0 -0.21420231461524963 L 19.0 -0.6802300214767456 L 20.0 -0.6802300214767456 L 20.0 -0.3274874687194824 L 21.0 -0.3274874687194824 L 21.0 -0.5531584620475769 L 22.0 -0.5531584620475769 L 22.0 -0.5775398015975952 L 23.0 -0.5775398015975952 L 23.0 -0.18867431581020355 L 24.0 -0.18867431581020355 L 24.0 -0.5347124934196472 L 25.0 -0.5347124934196472" style="vector-effect: non-scaling-stroke;fill:none;" /></g></g></g></g></g></g><g transform="matrix(1.0, 0.0, 0.0, 1.0, -0.125, 0.16)"><g transform="matrix(1.0, 0.0, 0.0, 0.009999999999999995, 0.0, 0.0)"><g transform="matrix(0.01, 0.0, 0.0, 1.0, 0.0, 0.0)"><g><g><g style="fill: #add8e6;stroke: #add8e6;stroke-width: 1.2000000000000002;fill-opacity: 0.5;" transform="matrix(1.0, 0.0, 0.0, 1.0, 0.0, 0.0)"><path d="M 0.0 -2.0 L 0.0 2.0" style="vector-effect: non-scaling-stroke;fill:none;" /></g><g style="fill: #add8e6;stroke: #add8e6;stroke-width: 1.2000000000000002;fill-opacity: 0.5;" transform="matrix(1.0, 0.0, 0.0, 1.0, 0.0, 0.0)"><path d="M 0.0 -0.29910701513290405 L 1.0 -0.29910701513290405 L 1.0 -0.26683592796325684 L 2.0 -0.26683592796325684 L 2.0 -0.3356989324092865 L 3.0 -0.3356989324092865 L 3.0 -0.26214927434921265 L 4.0 -0.26214927434921265 L 4.0 -0.28470098972320557 L 5.0 -0.28470098972320557 L 5.0 -0.04328251630067825 L 6.0 -0.04328251630067825 L 6.0 -0.042284708470106125 L 7.0 -0.042284708470106125 L 7.0 -0.021739119663834572 L 8.0 -0.021739119663834572 L 8.0 0.05603444576263428 L 9.0 0.05603444576263428 L 9.0 0.0959925428032875 L 10.0 0.0959925428032875 L 10.0 -1.5658423900604248 L 11.0 -1.5658423900604248 L 11.0 -1.8550364971160889 L 12.0 -1.8550364971160889 L 12.0 -1.7242333889007568 L 13.0 -1.7242333889007568 L 13.0 -1.2443641424179077 L 14.0 -1.2443641424179077 L 14.0 -1.5560182332992554 L 15.0 -1.5560182332992554 L 15.0 -1.6793968677520752 L 16.0 -1.6793968677520752 L 16.0 -2.0 L 17.0 -2.0 L 17.0 -1.9700431823730469 L 18.0 -1.9700431823730469 L 18.0 -1.4256666898727417 L 19.0 -1.4256666898727417 L 19.0 -1.8961647748947144 L 20.0 -1.8961647748947144 L 20.0 -1.2543396949768066 L 21.0 -1.2543396949768066 L 21.0 -1.4770305156707764 L 22.0 -1.4770305156707764 L 22.0 -1.4894908666610718 L 23.0 -1.4894908666610718 L 23.0 -1.1110562086105347 L 24.0 -1.1110562086105347 L 24.0 -1.4407031536102295 L 25.0 -1.4407031536102295 L 25.0 -0.5347124934196472 L 24.0 -0.5347124934196472 L 24.0 -0.18867431581020355 L 23.0 -0.18867431581020355 L 23.0 -0.5775398015975952 L 22.0 -0.5775398015975952 L 22.0 -0.5531584620475769 L 21.0 -0.5531584620475769 L 21.0 -0.3274874687194824 L 20.0 -0.3274874687194824 L 20.0 -0.6802300214767456 L 19.0 -0.6802300214767456 L 19.0 -0.21420231461524963 L 18.0 -0.21420231461524963 L 18.0 -0.7541084289550781 L 17.0 -0.7541084289550781 L 17.0 -0.8304179310798645 L 16.0 -0.8304179310798645 L 16.0 -0.47240281105041504 L 15.0 -0.47240281105041504 L 15.0 -0.4831346571445465 L 14.0 -0.4831346571445465 L 14.0 -0.17446081340312958 L 13.0 -0.17446081340312958 L 13.0 -0.6573103070259094 L 12.0 -0.6573103070259094 L 12.0 -0.7702319025993347 L 11.0 -0.7702319025993347 L 11.0 -0.4959389567375183 L 10.0 -0.4959389567375183 L 10.0 0.09226725250482559 L 9.0 0.09226725250482559 L 9.0 0.053054213523864746 L 8.0 0.053054213523864746 L 8.0 -0.0249056164175272 L 7.0 -0.0249056164175272 L 7.0 -0.04638252779841423 L 6.0 -0.04638252779841423 L 6.0 -0.04589021950960159 L 5.0 -0.04589021950960159 L 5.0 -0.07682979106903076 L 4.0 -0.07682979106903076 L 4.0 -0.054650597274303436 L 3.0 -0.054650597274303436 L 3.0 -0.12559255957603455 L 2.0 -0.12559255957603455 L 2.0 -0.05859219282865524 L 1.0 -0.05859219282865524 L 1.0 -0.0934709757566452 L 0.0 -0.0934709757566452 Z" style="vector-effect: non-scaling-stroke;" /></g></g><g style="stroke: black;stroke-width: 1.2000000000000002;" transform="matrix(1.0, 0.0, 0.0, 1.0, 0.0, 0.0)"><path d="M 0.0 -0.0934709757566452 L 1.0 -0.0934709757566452 L 1.0 -0.05859219282865524 L 2.0 -0.05859219282865524 L 2.0 -0.12559255957603455 L 3.0 -0.12559255957603455 L 3.0 -0.054650597274303436 L 4.0 -0.054650597274303436 L 4.0 -0.07682979106903076 L 5.0 -0.07682979106903076 L 5.0 -0.04589021950960159 L 6.0 -0.04589021950960159 L 6.0 -0.04638252779841423 L 7.0 -0.04638252779841423 L 7.0 -0.0249056164175272 L 8.0 -0.0249056164175272 L 8.0 0.053054213523864746 L 9.0 0.053054213523864746 L 9.0 0.09226725250482559 L 10.0 0.09226725250482559 L 10.0 -0.4959389567375183 L 11.0 -0.4959389567375183 L 11.0 -0.7702319025993347 L 12.0 -0.7702319025993347 L 12.0 -0.6573103070259094 L 13.0 -0.6573103070259094 L 13.0 -0.17446081340312958 L 14.0 -0.17446081340312958 L 14.0 -0.4831346571445465 L 15.0 -0.4831346571445465 L 15.0 -0.47240281105041504 L 16.0 -0.47240281105041504 L 16.0 -0.8304179310798645 L 17.0 -0.8304179310798645 L 17.0 -0.7541084289550781 L 18.0 -0.7541084289550781 L 18.0 -0.21420231461524963 L 19.0 -0.21420231461524963 L 19.0 -0.6802300214767456 L 20.0 -0.6802300214767456 L 20.0 -0.3274874687194824 L 21.0 -0.3274874687194824 L 21.0 -0.5531584620475769 L 22.0 -0.5531584620475769 L 22.0 -0.5775398015975952 L 23.0 -0.5775398015975952 L 23.0 -0.18867431581020355 L 24.0 -0.18867431581020355 L 24.0 -0.5347124934196472 L 25.0 -0.5347124934196472" style="vector-effect: non-scaling-stroke;fill:none;" /></g></g></g></g></g></g><g transform="matrix(1.0, 0.0, 0.0, 1.0, -0.125, 0.16)"><g transform="matrix(1.0, 0.0, 0.0, 0.009999999999999995, 0.0, 0.0)"><g transform="matrix(0.01, 0.0, 0.0, 1.0, 0.0, 0.0)"><g><g><g style="fill: #ff8c00;stroke: #ff8c00;stroke-width: 1.2000000000000002;fill-opacity: 0.5;" transform="matrix(1.0, 0.0, 0.0, 1.0, 0.0, 0.0)"><path d="M 0.0 -2.0 L 0.0 2.0" style="vector-effect: non-scaling-stroke;fill:none;" /></g><g style="fill: #ff8c00;stroke: #ff8c00;stroke-width: 1.2000000000000002;fill-opacity: 0.5;" transform="matrix(1.0, 0.0, 0.0, 1.0, 0.0, 0.0)"><path d="M 0.0 -0.0934709757566452 L 1.0 -0.0934709757566452 L 1.0 -0.05859219282865524 L 2.0 -0.05859219282865524 L 2.0 -0.12559255957603455 L 3.0 -0.12559255957603455 L 3.0 -0.054650597274303436 L 4.0 -0.054650597274303436 L 4.0 -0.07682979106903076 L 5.0 -0.07682979106903076 L 5.0 -0.04589021950960159 L 6.0 -0.04589021950960159 L 6.0 -0.04638252779841423 L 7.0 -0.04638252779841423 L 7.0 -0.0249056164175272 L 8.0 -0.0249056164175272 L 8.0 0.053054213523864746 L 9.0 0.053054213523864746 L 9.0 0.09226725250482559 L 10.0 0.09226725250482559 L 10.0 -0.4959389567375183 L 11.0 -0.4959389567375183 L 11.0 -0.7702319025993347 L 12.0 -0.7702319025993347 L 12.0 -0.6573103070259094 L 13.0 -0.6573103070259094 L 13.0 -0.17446081340312958 L 14.0 -0.17446081340312958 L 14.0 -0.4831346571445465 L 15.0 -0.4831346571445465 L 15.0 -0.47240281105041504 L 16.0 -0.47240281105041504 L 16.0 -0.8304179310798645 L 17.0 -0.8304179310798645 L 17.0 -0.7541084289550781 L 18.0 -0.7541084289550781 L 18.0 -0.21420231461524963 L 19.0 -0.21420231461524963 L 19.0 -0.6802300214767456 L 20.0 -0.6802300214767456 L 20.0 -0.3274874687194824 L 21.0 -0.3274874687194824 L 21.0 -0.5531584620475769 L 22.0 -0.5531584620475769 L 22.0 -0.5775398015975952 L 23.0 -0.5775398015975952 L 23.0 -0.18867431581020355 L 24.0 -0.18867431581020355 L 24.0 -0.5347124934196472 L 25.0 -0.5347124934196472 L 25.0 -0.5347124934196472 L 24.0 -0.5347124934196472 L 24.0 -0.18867431581020355 L 23.0 -0.18867431581020355 L 23.0 -0.5775398015975952 L 22.0 -0.5775398015975952 L 22.0 -0.5531584620475769 L 21.0 -0.5531584620475769 L 21.0 -0.3274874687194824 L 20.0 -0.3274874687194824 L 20.0 -0.6802300214767456 L 19.0 -0.6802300214767456 L 19.0 -0.21420231461524963 L 18.0 -0.21420231461524963 L 18.0 -0.7541084289550781 L 17.0 -0.7541084289550781 L 17.0 -0.8304179310798645 L 16.0 -0.8304179310798645 L 16.0 -0.47240281105041504 L 15.0 -0.47240281105041504 L 15.0 -0.4831346571445465 L 14.0 -0.4831346571445465 L 14.0 -0.17446081340312958 L 13.0 -0.17446081340312958 L 13.0 -0.6573103070259094 L 12.0 -0.6573103070259094 L 12.0 -0.7702319025993347 L 11.0 -0.7702319025993347 L 11.0 -0.4959389567375183 L 10.0 -0.4959389567375183 L 10.0 0.09226725250482559 L 9.0 0.09226725250482559 L 9.0 0.053054213523864746 L 8.0 0.053054213523864746 L 8.0 -0.0249056164175272 L 7.0 -0.0249056164175272 L 7.0 -0.04638252779841423 L 6.0 -0.04638252779841423 L 6.0 -0.04589021950960159 L 5.0 -0.04589021950960159 L 5.0 -0.07682979106903076 L 4.0 -0.07682979106903076 L 4.0 -0.054650597274303436 L 3.0 -0.054650597274303436 L 3.0 -0.12559255957603455 L 2.0 -0.12559255957603455 L 2.0 -0.05859219282865524 L 1.0 -0.05859219282865524 L 1.0 -0.0934709757566452 L 0.0 -0.0934709757566452 Z" style="vector-effect: non-scaling-stroke;" /></g></g><g style="stroke: black;stroke-width: 1.2000000000000002;" transform="matrix(1.0, 0.0, 0.0, 1.0, 0.0, 0.0)"><path d="M 0.0 -0.0934709757566452 L 1.0 -0.0934709757566452 L 1.0 -0.05859219282865524 L 2.0 -0.05859219282865524 L 2.0 -0.12559255957603455 L 3.0 -0.12559255957603455 L 3.0 -0.054650597274303436 L 4.0 -0.054650597274303436 L 4.0 -0.07682979106903076 L 5.0 -0.07682979106903076 L 5.0 -0.04589021950960159 L 6.0 -0.04589021950960159 L 6.0 -0.04638252779841423 L 7.0 -0.04638252779841423 L 7.0 -0.0249056164175272 L 8.0 -0.0249056164175272 L 8.0 0.053054213523864746 L 9.0 0.053054213523864746 L 9.0 0.09226725250482559 L 10.0 0.09226725250482559 L 10.0 -0.4959389567375183 L 11.0 -0.4959389567375183 L 11.0 -0.7702319025993347 L 12.0 -0.7702319025993347 L 12.0 -0.6573103070259094 L 13.0 -0.6573103070259094 L 13.0 -0.17446081340312958 L 14.0 -0.17446081340312958 L 14.0 -0.4831346571445465 L 15.0 -0.4831346571445465 L 15.0 -0.47240281105041504 L 16.0 -0.47240281105041504 L 16.0 -0.8304179310798645 L 17.0 -0.8304179310798645 L 17.0 -0.7541084289550781 L 18.0 -0.7541084289550781 L 18.0 -0.21420231461524963 L 19.0 -0.21420231461524963 L 19.0 -0.6802300214767456 L 20.0 -0.6802300214767456 L 20.0 -0.3274874687194824 L 21.0 -0.3274874687194824 L 21.0 -0.5531584620475769 L 22.0 -0.5531584620475769 L 22.0 -0.5775398015975952 L 23.0 -0.5775398015975952 L 23.0 -0.18867431581020355 L 24.0 -0.18867431581020355 L 24.0 -0.5347124934196472 L 25.0 -0.5347124934196472" style="vector-effect: non-scaling-stroke;fill:none;" /></g></g></g></g></g></g><g transform="matrix(1.0, 0.0, 0.0, 1.0, -0.125, 0.16)"><g transform="matrix(1.0, 0.0, 0.0, 0.009999999999999995, 0.0, 0.0)"><g transform="matrix(0.01, 0.0, 0.0, 1.0, 0.0, 0.0)"><g><g><g style="fill: #0000ff;stroke: #0000ff;stroke-width: 1.2000000000000002;fill-opacity: 0.5;" transform="matrix(1.0, 0.0, 0.0, 1.0, 0.0, 0.0)"><path d="M 0.0 -2.0 L 0.0 2.0" style="vector-effect: non-scaling-stroke;fill:none;" /></g><g style="fill: #0000ff;stroke: #0000ff;stroke-width: 1.2000000000000002;fill-opacity: 0.5;" transform="matrix(1.0, 0.0, 0.0, 1.0, 0.0, 0.0)"><path d="M 0.0 -0.0934709757566452 L 1.0 -0.0934709757566452 L 1.0 -0.05859219282865524 L 2.0 -0.05859219282865524 L 2.0 -0.12559255957603455 L 3.0 -0.12559255957603455 L 3.0 -0.054650597274303436 L 4.0 -0.054650597274303436 L 4.0 -0.07682979106903076 L 5.0 -0.07682979106903076 L 5.0 -0.04589021950960159 L 6.0 -0.04589021950960159 L 6.0 -0.04638252779841423 L 7.0 -0.04638252779841423 L 7.0 -0.0249056164175272 L 8.0 -0.0249056164175272 L 8.0 0.053054213523864746 L 9.0 0.053054213523864746 L 9.0 0.09226725250482559 L 10.0 0.09226725250482559 L 10.0 -0.4959389567375183 L 11.0 -0.4959389567375183 L 11.0 -0.7702319025993347 L 12.0 -0.7702319025993347 L 12.0 -0.6573103070259094 L 13.0 -0.6573103070259094 L 13.0 -0.17446081340312958 L 14.0 -0.17446081340312958 L 14.0 -0.4831346571445465 L 15.0 -0.4831346571445465 L 15.0 -0.47240281105041504 L 16.0 -0.47240281105041504 L 16.0 -0.8304179310798645 L 17.0 -0.8304179310798645 L 17.0 -0.7541084289550781 L 18.0 -0.7541084289550781 L 18.0 -0.21420231461524963 L 19.0 -0.21420231461524963 L 19.0 -0.6802300214767456 L 20.0 -0.6802300214767456 L 20.0 -0.3274874687194824 L 21.0 -0.3274874687194824 L 21.0 -0.5531584620475769 L 22.0 -0.5531584620475769 L 22.0 -0.5775398015975952 L 23.0 -0.5775398015975952 L 23.0 -0.18867431581020355 L 24.0 -0.18867431581020355 L 24.0 -0.5347124934196472 L 25.0 -0.5347124934196472 L 25.0 -0.5347124934196472 L 24.0 -0.5347124934196472 L 24.0 -0.18867431581020355 L 23.0 -0.18867431581020355 L 23.0 -0.5775398015975952 L 22.0 -0.5775398015975952 L 22.0 -0.5531584620475769 L 21.0 -0.5531584620475769 L 21.0 -0.3274874687194824 L 20.0 -0.3274874687194824 L 20.0 -0.6802300214767456 L 19.0 -0.6802300214767456 L 19.0 -0.21420231461524963 L 18.0 -0.21420231461524963 L 18.0 -0.7541084289550781 L 17.0 -0.7541084289550781 L 17.0 -0.8304179310798645 L 16.0 -0.8304179310798645 L 16.0 -0.47240281105041504 L 15.0 -0.47240281105041504 L 15.0 -0.4831346571445465 L 14.0 -0.4831346571445465 L 14.0 -0.17446081340312958 L 13.0 -0.17446081340312958 L 13.0 -0.6573103070259094 L 12.0 -0.6573103070259094 L 12.0 -0.7702319025993347 L 11.0 -0.7702319025993347 L 11.0 -0.4959389567375183 L 10.0 -0.4959389567375183 L 10.0 0.09226725250482559 L 9.0 0.09226725250482559 L 9.0 0.053054213523864746 L 8.0 0.053054213523864746 L 8.0 -0.0249056164175272 L 7.0 -0.0249056164175272 L 7.0 -0.04638252779841423 L 6.0 -0.04638252779841423 L 6.0 -0.04589021950960159 L 5.0 -0.04589021950960159 L 5.0 -0.07682979106903076 L 4.0 -0.07682979106903076 L 4.0 -0.054650597274303436 L 3.0 -0.054650597274303436 L 3.0 -0.12559255957603455 L 2.0 -0.12559255957603455 L 2.0 -0.05859219282865524 L 1.0 -0.05859219282865524 L 1.0 -0.0934709757566452 L 0.0 -0.0934709757566452 Z" style="vector-effect: non-scaling-stroke;" /></g></g><g style="stroke: black;stroke-width: 1.2000000000000002;" transform="matrix(1.0, 0.0, 0.0, 1.0, 0.0, 0.0)"><path d="M 0.0 -0.0934709757566452 L 1.0 -0.0934709757566452 L 1.0 -0.05859219282865524 L 2.0 -0.05859219282865524 L 2.0 -0.12559255957603455 L 3.0 -0.12559255957603455 L 3.0 -0.054650597274303436 L 4.0 -0.054650597274303436 L 4.0 -0.07682979106903076 L 5.0 -0.07682979106903076 L 5.0 -0.04589021950960159 L 6.0 -0.04589021950960159 L 6.0 -0.04638252779841423 L 7.0 -0.04638252779841423 L 7.0 -0.0249056164175272 L 8.0 -0.0249056164175272 L 8.0 0.053054213523864746 L 9.0 0.053054213523864746 L 9.0 0.09226725250482559 L 10.0 0.09226725250482559 L 10.0 -0.4959389567375183 L 11.0 -0.4959389567375183 L 11.0 -0.7702319025993347 L 12.0 -0.7702319025993347 L 12.0 -0.6573103070259094 L 13.0 -0.6573103070259094 L 13.0 -0.17446081340312958 L 14.0 -0.17446081340312958 L 14.0 -0.4831346571445465 L 15.0 -0.4831346571445465 L 15.0 -0.47240281105041504 L 16.0 -0.47240281105041504 L 16.0 -0.8304179310798645 L 17.0 -0.8304179310798645 L 17.0 -0.7541084289550781 L 18.0 -0.7541084289550781 L 18.0 -0.21420231461524963 L 19.0 -0.21420231461524963 L 19.0 -0.6802300214767456 L 20.0 -0.6802300214767456 L 20.0 -0.3274874687194824 L 21.0 -0.3274874687194824 L 21.0 -0.5531584620475769 L 22.0 -0.5531584620475769 L 22.0 -0.5775398015975952 L 23.0 -0.5775398015975952 L 23.0 -0.18867431581020355 L 24.0 -0.18867431581020355 L 24.0 -0.5347124934196472 L 25.0 -0.5347124934196472" style="vector-effect: non-scaling-stroke;fill:none;" /></g></g></g></g></g></g></g></g><g><g><g><g><g><g><g transform="matrix(1.0, 0.0, 0.0, 1.0, -0.41500000000000004, -0.03)"><g><g><g transform="matrix(1.0, 0.0, 0.0, 1.0, 0.075, 0.0)"><g transform="matrix(1.0, 0.0, 0.0, 1.0, 0.0, 0.03)"><g transform="matrix(0.01, 0.0, 0.0, 0.01, 0.0, 0.0)"><g><g><g transform="matrix(1.0, 0.0, 0.0, 1.0, 12.5, 0.0)"><g transform="matrix(1.0, 0.0, 0.0, 1.0, -20.0, -0.0)"><g><g style="fill: #d3d3d3;stroke: black;stroke-width: 1.2000000000000002;" transform="matrix(1.0, 0.0, 0.0, 1.0, 0.0, -3.0)"><path d="M 0.0 0.0 L 40.0 0.0 L 40.0 6.0 L 0.0 6.0 L 0.0 0.0 Z" style="vector-effect: non-scaling-stroke;" /></g><g transform="matrix(1.0, 0.0, 0.0, 1.0, 1.875, 0.0)"><g><g style="stroke: black;stroke-width: 1.2000000000000002;" transform="matrix(1.0, 0.0, 0.0, 1.0, 0.0, 0.0)"><g /></g><g style="fill: #ffa500;stroke: black;stroke-width: 1.2000000000000002;" transform="matrix(1.0, 0.0, 0.0, 1.0, 1.875, 0.0)"><text style="text-align:center; text-anchor:middle; dominant-baseline:middle;&#10;                      font-family:sans-serif; font-weight: bold;&#10;                      font-size:3px;&#10;                      vector-effect: non-scaling-stroke;" transform="translate(-5e-05, 0)">x</text></g></g></g></g></g></g><g><g><g><g><g><g><g><g><g style="stroke: black;stroke-width: 1.2000000000000002;" transform="matrix(1.0, 0.0, 0.0, 1.0, 0.0, 0.0)"><path d="M 0.0 -2.0 L 0.0 2.0" style="vector-effect: non-scaling-stroke;fill:none;" /></g><g style="stroke: #808080;stroke-width: 0.6000000000000001;" transform="matrix(1.0, 0.0, 0.0, 1.0, 0.0, 0.0)"><path d="M 0.0 0.0 L 25.0 0.0" style="vector-effect: non-scaling-stroke;fill:none;" /></g></g><g style="stroke: black;stroke-width: 2.4000000000000004;" transform="matrix(1.0, 0.0, 0.0, 1.0, 0.0, 0.0)"><path d="M 0.0 0.36892756819725037 L 1.0 0.36892756819725037 L 1.0 0.10681941360235214 L 2.0 0.10681941360235214 L 2.0 -0.40417441725730896 L 3.0 -0.40417441725730896 L 3.0 -0.45308804512023926 L 4.0 -0.45308804512023926 L 4.0 -0.6547780632972717 L 5.0 -0.6547780632972717 L 5.0 0.2719874083995819 L 6.0 0.2719874083995819 L 6.0 -0.2291276603937149 L 7.0 -0.2291276603937149 L 7.0 0.6312178373336792 L 8.0 0.6312178373336792 L 8.0 -0.04604702442884445 L 9.0 -0.04604702442884445 L 9.0 -0.6091361045837402 L 10.0 -0.6091361045837402 L 10.0 -0.9941620826721191 L 11.0 -0.9941620826721191 L 11.0 -1.3657546043395996 L 12.0 -1.3657546043395996 L 12.0 -0.5576217770576477 L 13.0 -0.5576217770576477 L 13.0 -1.5033526420593262 L 14.0 -1.5033526420593262 L 14.0 -0.9151825904846191 L 15.0 -0.9151825904846191 L 15.0 -1.642714500427246 L 16.0 -1.642714500427246 L 16.0 -1.4663134813308716 L 17.0 -1.4663134813308716 L 17.0 -1.3641618490219116 L 18.0 -1.3641618490219116 L 18.0 -0.9552580714225769 L 19.0 -0.9552580714225769 L 19.0 -0.5979908108711243 L 20.0 -0.5979908108711243 L 20.0 -1.0358208417892456 L 21.0 -1.0358208417892456 L 21.0 -0.6786758303642273 L 22.0 -0.6786758303642273 L 22.0 -1.435609221458435 L 23.0 -1.435609221458435 L 23.0 -0.7616475820541382 L 24.0 -0.7616475820541382 L 24.0 -0.7052664160728455 L 25.0 -0.7052664160728455" style="vector-effect: non-scaling-stroke;fill:none;" /></g></g><g style="stroke: black;stroke-width: 1.2000000000000002;" transform="matrix(1.0, 0.0, 0.0, 1.0, 0.0, 0.0)"><path d="M 0.0 -2.0 L 0.0 2.0" style="vector-effect: non-scaling-stroke;fill:none;" /></g></g><g style="stroke: black;stroke-width: 1.2000000000000002;" transform="matrix(1.0, 0.0, 0.0, 1.0, 0.0, 0.0)"><path d="M 5.0 -2.0 L 5.0 2.0" style="vector-effect: non-scaling-stroke;fill:none;" /></g></g><g style="stroke: black;stroke-width: 1.2000000000000002;" transform="matrix(1.0, 0.0, 0.0, 1.0, 0.0, 0.0)"><path d="M 10.0 -2.0 L 10.0 2.0" style="vector-effect: non-scaling-stroke;fill:none;" /></g></g><g style="stroke: black;stroke-width: 1.2000000000000002;" transform="matrix(1.0, 0.0, 0.0, 1.0, 0.0, 0.0)"><path d="M 15.0 -2.0 L 15.0 2.0" style="vector-effect: non-scaling-stroke;fill:none;" /></g></g><g style="stroke: black;stroke-width: 1.2000000000000002;" transform="matrix(1.0, 0.0, 0.0, 1.0, 0.0, 0.0)"><path d="M 20.0 -2.0 L 20.0 2.0" style="vector-effect: non-scaling-stroke;fill:none;" /></g></g></g></g><g><g><g><g><g><g><g><g><g style="stroke: black;stroke-width: 1.2000000000000002;" transform="matrix(1.0, 0.0, 0.0, 1.0, 0.0, 0.0)"><path d="M 0.0 -2.0 L 0.0 2.0" style="vector-effect: non-scaling-stroke;fill:none;" /></g><g style="stroke: #808080;stroke-width: 0.6000000000000001;" transform="matrix(1.0, 0.0, 0.0, 1.0, 0.0, 0.0)"><path d="M 0.0 0.0 L 25.0 0.0" style="vector-effect: non-scaling-stroke;fill:none;" /></g></g><g style="stroke: black;stroke-width: 2.4000000000000004;" transform="matrix(1.0, 0.0, 0.0, 1.0, 0.0, 0.0)"><path d="M 0.0 0.36892756819725037 L 1.0 0.36892756819725037 L 1.0 0.10681941360235214 L 2.0 0.10681941360235214 L 2.0 -0.40417441725730896 L 3.0 -0.40417441725730896 L 3.0 -0.45308804512023926 L 4.0 -0.45308804512023926 L 4.0 -0.6547780632972717 L 5.0 -0.6547780632972717 L 5.0 0.2719874083995819 L 6.0 0.2719874083995819 L 6.0 -0.2291276603937149 L 7.0 -0.2291276603937149 L 7.0 0.6312178373336792 L 8.0 0.6312178373336792 L 8.0 -0.04604702442884445 L 9.0 -0.04604702442884445 L 9.0 -0.6091361045837402 L 10.0 -0.6091361045837402 L 10.0 -0.9941620826721191 L 11.0 -0.9941620826721191 L 11.0 -1.3657546043395996 L 12.0 -1.3657546043395996 L 12.0 -0.5576217770576477 L 13.0 -0.5576217770576477 L 13.0 -1.5033526420593262 L 14.0 -1.5033526420593262 L 14.0 -0.9151825904846191 L 15.0 -0.9151825904846191 L 15.0 -1.642714500427246 L 16.0 -1.642714500427246 L 16.0 -1.4663134813308716 L 17.0 -1.4663134813308716 L 17.0 -1.3641618490219116 L 18.0 -1.3641618490219116 L 18.0 -0.9552580714225769 L 19.0 -0.9552580714225769 L 19.0 -0.5979908108711243 L 20.0 -0.5979908108711243 L 20.0 -1.0358208417892456 L 21.0 -1.0358208417892456 L 21.0 -0.6786758303642273 L 22.0 -0.6786758303642273 L 22.0 -1.435609221458435 L 23.0 -1.435609221458435 L 23.0 -0.7616475820541382 L 24.0 -0.7616475820541382 L 24.0 -0.7052664160728455 L 25.0 -0.7052664160728455" style="vector-effect: non-scaling-stroke;fill:none;" /></g></g><g style="stroke: black;stroke-width: 1.2000000000000002;" transform="matrix(1.0, 0.0, 0.0, 1.0, 0.0, 0.0)"><path d="M 0.0 -2.0 L 0.0 2.0" style="vector-effect: non-scaling-stroke;fill:none;" /></g></g><g style="stroke: black;stroke-width: 1.2000000000000002;" transform="matrix(1.0, 0.0, 0.0, 1.0, 0.0, 0.0)"><path d="M 5.0 -2.0 L 5.0 2.0" style="vector-effect: non-scaling-stroke;fill:none;" /></g></g><g style="stroke: black;stroke-width: 1.2000000000000002;" transform="matrix(1.0, 0.0, 0.0, 1.0, 0.0, 0.0)"><path d="M 10.0 -2.0 L 10.0 2.0" style="vector-effect: non-scaling-stroke;fill:none;" /></g></g><g style="stroke: black;stroke-width: 1.2000000000000002;" transform="matrix(1.0, 0.0, 0.0, 1.0, 0.0, 0.0)"><path d="M 15.0 -2.0 L 15.0 2.0" style="vector-effect: non-scaling-stroke;fill:none;" /></g></g><g style="stroke: black;stroke-width: 1.2000000000000002;" transform="matrix(1.0, 0.0, 0.0, 1.0, 0.0, 0.0)"><path d="M 20.0 -2.0 L 20.0 2.0" style="vector-effect: non-scaling-stroke;fill:none;" /></g></g></g></g></g></g></g><g style="stroke: black;stroke-width: 1.2000000000000002;" transform="matrix(1.0, 0.0, 0.0, 1.0, 0.41500000000000004, 0.0)"><g /></g></g><g transform="matrix(1.0, 0.0, 0.0, 1.0, 0.43000000000000005, 0.0)"><g transform="matrix(1.0, 0.0, 0.0, 1.0, 0.075, 0.0)"><g transform="matrix(1.0, 0.0, 0.0, 1.0, 0.0, 0.03)"><g transform="matrix(0.01, 0.0, 0.0, 0.01, 0.0, 0.0)"><g><g><g transform="matrix(1.0, 0.0, 0.0, 1.0, 12.5, 0.0)"><g transform="matrix(1.0, 0.0, 0.0, 1.0, -20.0, -0.0)"><g><g style="fill: #d3d3d3;stroke: black;stroke-width: 1.2000000000000002;" transform="matrix(1.0, 0.0, 0.0, 1.0, 0.0, -3.0)"><path d="M 0.0 0.0 L 40.0 0.0 L 40.0 6.0 L 0.0 6.0 L 0.0 0.0 Z" style="vector-effect: non-scaling-stroke;" /></g><g transform="matrix(1.0, 0.0, 0.0, 1.0, 1.875, 0.0)"><g><g style="stroke: black;stroke-width: 1.2000000000000002;" transform="matrix(1.0, 0.0, 0.0, 1.0, 0.0, 0.0)"><g /></g><g style="fill: #ffa500;stroke: black;stroke-width: 1.2000000000000002;" transform="matrix(1.0, 0.0, 0.0, 1.0, 1.875, 0.0)"><text style="text-align:center; text-anchor:middle; dominant-baseline:middle;&#10;                      font-family:sans-serif; font-weight: bold;&#10;                      font-size:3px;&#10;                      vector-effect: non-scaling-stroke;" transform="translate(-5e-05, 0)">y</text></g></g></g></g></g></g><g><g><g><g style="stroke: black;stroke-width: 1.2000000000000002;" transform="matrix(1.0, 0.0, 0.0, 1.0, 0.0, 0.0)"><path d="M 0.0 -2.0 L 0.0 2.0" style="vector-effect: non-scaling-stroke;fill:none;" /></g><g style="stroke: #808080;stroke-width: 0.6000000000000001;" transform="matrix(1.0, 0.0, 0.0, 1.0, 0.0, 0.0)"><path d="M 0.0 0.0 L 25.0 0.0" style="vector-effect: non-scaling-stroke;fill:none;" /></g></g><g style="stroke: black;stroke-width: 2.4000000000000004;" transform="matrix(1.0, 0.0, 0.0, 1.0, 0.0, 0.0)"><path d="M 0.0 -0.17914047837257385 L 1.0 -0.17914047837257385 L 1.0 -1.8140982389450073 L 2.0 -1.8140982389450073 L 2.0 -1.4809788465499878 L 3.0 -1.4809788465499878 L 3.0 -0.1399087905883789 L 4.0 -0.1399087905883789 L 4.0 -1.1240906715393066 L 5.0 -1.1240906715393066 L 5.0 -1.5293102264404297 L 6.0 -1.5293102264404297 L 6.0 -1.983750820159912 L 7.0 -1.983750820159912 L 7.0 -1.2204375267028809 L 8.0 -1.2204375267028809 L 8.0 -0.11166233569383621 L 9.0 -0.11166233569383621 L 9.0 -1.1134977340698242 L 10.0 -1.1134977340698242 L 10.0 -0.46122583746910095 L 11.0 -0.46122583746910095 L 11.0 -0.36684322357177734 L 12.0 -0.36684322357177734 L 12.0 -1.0981719493865967 L 13.0 -1.0981719493865967 L 13.0 -0.8180548548698425 L 14.0 -0.8180548548698425 L 14.0 -1.9024450778961182 L 15.0 -1.9024450778961182 L 15.0 -1.2284631729125977 L 16.0 -1.2284631729125977 L 16.0 -1.3120884895324707 L 17.0 -1.3120884895324707 L 17.0 -0.8512806296348572 L 18.0 -0.8512806296348572 L 18.0 -0.69685298204422 L 19.0 -0.69685298204422 L 19.0 -0.4450138509273529 L 20.0 -0.4450138509273529 L 20.0 -0.6431826949119568 L 21.0 -0.6431826949119568 L 21.0 -1.1062308549880981 L 22.0 -1.1062308549880981 L 22.0 -1.6847048997879028 L 23.0 -1.6847048997879028 L 23.0 0.05547328665852547 L 24.0 0.05547328665852547 L 24.0 -0.5061242580413818 L 25.0 -0.5061242580413818" style="vector-effect: non-scaling-stroke;fill:none;" /></g></g></g></g><g><g><g><g style="stroke: black;stroke-width: 1.2000000000000002;" transform="matrix(1.0, 0.0, 0.0, 1.0, 0.0, 0.0)"><path d="M 0.0 -2.0 L 0.0 2.0" style="vector-effect: non-scaling-stroke;fill:none;" /></g><g style="stroke: #808080;stroke-width: 0.6000000000000001;" transform="matrix(1.0, 0.0, 0.0, 1.0, 0.0, 0.0)"><path d="M 0.0 0.0 L 25.0 0.0" style="vector-effect: non-scaling-stroke;fill:none;" /></g></g><g style="stroke: black;stroke-width: 2.4000000000000004;" transform="matrix(1.0, 0.0, 0.0, 1.0, 0.0, 0.0)"><path d="M 0.0 -0.17914047837257385 L 1.0 -0.17914047837257385 L 1.0 -1.8140982389450073 L 2.0 -1.8140982389450073 L 2.0 -1.4809788465499878 L 3.0 -1.4809788465499878 L 3.0 -0.1399087905883789 L 4.0 -0.1399087905883789 L 4.0 -1.1240906715393066 L 5.0 -1.1240906715393066 L 5.0 -1.5293102264404297 L 6.0 -1.5293102264404297 L 6.0 -1.983750820159912 L 7.0 -1.983750820159912 L 7.0 -1.2204375267028809 L 8.0 -1.2204375267028809 L 8.0 -0.11166233569383621 L 9.0 -0.11166233569383621 L 9.0 -1.1134977340698242 L 10.0 -1.1134977340698242 L 10.0 -0.46122583746910095 L 11.0 -0.46122583746910095 L 11.0 -0.36684322357177734 L 12.0 -0.36684322357177734 L 12.0 -1.0981719493865967 L 13.0 -1.0981719493865967 L 13.0 -0.8180548548698425 L 14.0 -0.8180548548698425 L 14.0 -1.9024450778961182 L 15.0 -1.9024450778961182 L 15.0 -1.2284631729125977 L 16.0 -1.2284631729125977 L 16.0 -1.3120884895324707 L 17.0 -1.3120884895324707 L 17.0 -0.8512806296348572 L 18.0 -0.8512806296348572 L 18.0 -0.69685298204422 L 19.0 -0.69685298204422 L 19.0 -0.4450138509273529 L 20.0 -0.4450138509273529 L 20.0 -0.6431826949119568 L 21.0 -0.6431826949119568 L 21.0 -1.1062308549880981 L 22.0 -1.1062308549880981 L 22.0 -1.6847048997879028 L 23.0 -1.6847048997879028 L 23.0 0.05547328665852547 L 24.0 0.05547328665852547 L 24.0 -0.5061242580413818 L 25.0 -0.5061242580413818" style="vector-effect: non-scaling-stroke;fill:none;" /></g></g></g></g></g></g></g></g></g></g><g style="stroke: black;stroke-width: 1.2000000000000002;" transform="matrix(0.0, -1.0, 1.0, 0.0, 0.0, 0.08)"><g /></g></g><g transform="matrix(1.0, 0.0, 0.0, 1.0, 0.0, 0.16)"><g transform="matrix(1.0, 0.0, 0.0, 1.0, -0.2, -0.03)"><g transform="matrix(1.0, 0.0, 0.0, 1.0, 0.075, 0.0)"><g transform="matrix(1.0, 0.0, 0.0, 1.0, 0.0, 0.03)"><g transform="matrix(0.01, 0.0, 0.0, 0.01, 0.0, 0.0)"><g><g><g transform="matrix(1.0, 0.0, 0.0, 1.0, 12.5, 0.0)"><g transform="matrix(1.0, 0.0, 0.0, 1.0, -20.0, -0.0)"><g><g style="fill: #d3d3d3;stroke: black;stroke-width: 1.2000000000000002;" transform="matrix(1.0, 0.0, 0.0, 1.0, 0.0, -3.0)"><path d="M 0.0 0.0 L 40.0 0.0 L 40.0 6.0 L 0.0 6.0 L 0.0 0.0 Z" style="vector-effect: non-scaling-stroke;" /></g><g transform="matrix(1.0, 0.0, 0.0, 1.0, 1.875, 0.0)"><g><g style="stroke: black;stroke-width: 1.2000000000000002;" transform="matrix(1.0, 0.0, 0.0, 1.0, 0.0, 0.0)"><g /></g><g style="fill: #ffa500;stroke: black;stroke-width: 1.2000000000000002;" transform="matrix(1.0, 0.0, 0.0, 1.0, 1.875, 0.0)"><text style="text-align:center; text-anchor:middle; dominant-baseline:middle;&#10;                      font-family:sans-serif; font-weight: bold;&#10;                      font-size:3px;&#10;                      vector-effect: non-scaling-stroke;" transform="translate(-5e-05, 0)">f(x)</text></g></g></g></g></g></g><g><g><g><g style="stroke: black;stroke-width: 1.2000000000000002;" transform="matrix(1.0, 0.0, 0.0, 1.0, 0.0, 0.0)"><path d="M 0.0 -2.0 L 0.0 2.0" style="vector-effect: non-scaling-stroke;fill:none;" /></g><g style="stroke: #808080;stroke-width: 0.6000000000000001;" transform="matrix(1.0, 0.0, 0.0, 1.0, 0.0, 0.0)"><path d="M 0.0 0.0 L 25.0 0.0" style="vector-effect: non-scaling-stroke;fill:none;" /></g></g><g style="stroke: black;stroke-width: 2.4000000000000004;" transform="matrix(1.0, 0.0, 0.0, 1.0, 0.0, 0.0)"><path d="M 0.0 -0.0934709757566452 L 1.0 -0.0934709757566452 L 1.0 -0.05859219282865524 L 2.0 -0.05859219282865524 L 2.0 -0.12559255957603455 L 3.0 -0.12559255957603455 L 3.0 -0.054650597274303436 L 4.0 -0.054650597274303436 L 4.0 -0.07682979106903076 L 5.0 -0.07682979106903076 L 5.0 -0.04589021950960159 L 6.0 -0.04589021950960159 L 6.0 -0.04638252779841423 L 7.0 -0.04638252779841423 L 7.0 -0.0249056164175272 L 8.0 -0.0249056164175272 L 8.0 0.053054213523864746 L 9.0 0.053054213523864746 L 9.0 0.09226725250482559 L 10.0 0.09226725250482559 L 10.0 -0.4959389567375183 L 11.0 -0.4959389567375183 L 11.0 -0.7702319025993347 L 12.0 -0.7702319025993347 L 12.0 -0.6573103070259094 L 13.0 -0.6573103070259094 L 13.0 -0.17446081340312958 L 14.0 -0.17446081340312958 L 14.0 -0.4831346571445465 L 15.0 -0.4831346571445465 L 15.0 -0.47240281105041504 L 16.0 -0.47240281105041504 L 16.0 -0.8304179310798645 L 17.0 -0.8304179310798645 L 17.0 -0.7541084289550781 L 18.0 -0.7541084289550781 L 18.0 -0.21420231461524963 L 19.0 -0.21420231461524963 L 19.0 -0.6802300214767456 L 20.0 -0.6802300214767456 L 20.0 -0.3274874687194824 L 21.0 -0.3274874687194824 L 21.0 -0.5531584620475769 L 22.0 -0.5531584620475769 L 22.0 -0.5775398015975952 L 23.0 -0.5775398015975952 L 23.0 -0.18867431581020355 L 24.0 -0.18867431581020355 L 24.0 -0.5347124934196472 L 25.0 -0.5347124934196472" style="vector-effect: non-scaling-stroke;fill:none;" /></g></g></g></g><g><g><g><g style="stroke: black;stroke-width: 1.2000000000000002;" transform="matrix(1.0, 0.0, 0.0, 1.0, 0.0, 0.0)"><path d="M 0.0 -2.0 L 0.0 2.0" style="vector-effect: non-scaling-stroke;fill:none;" /></g><g style="stroke: #808080;stroke-width: 0.6000000000000001;" transform="matrix(1.0, 0.0, 0.0, 1.0, 0.0, 0.0)"><path d="M 0.0 0.0 L 25.0 0.0" style="vector-effect: non-scaling-stroke;fill:none;" /></g></g><g style="stroke: black;stroke-width: 2.4000000000000004;" transform="matrix(1.0, 0.0, 0.0, 1.0, 0.0, 0.0)"><path d="M 0.0 -0.0934709757566452 L 1.0 -0.0934709757566452 L 1.0 -0.05859219282865524 L 2.0 -0.05859219282865524 L 2.0 -0.12559255957603455 L 3.0 -0.12559255957603455 L 3.0 -0.054650597274303436 L 4.0 -0.054650597274303436 L 4.0 -0.07682979106903076 L 5.0 -0.07682979106903076 L 5.0 -0.04589021950960159 L 6.0 -0.04589021950960159 L 6.0 -0.04638252779841423 L 7.0 -0.04638252779841423 L 7.0 -0.0249056164175272 L 8.0 -0.0249056164175272 L 8.0 0.053054213523864746 L 9.0 0.053054213523864746 L 9.0 0.09226725250482559 L 10.0 0.09226725250482559 L 10.0 -0.4959389567375183 L 11.0 -0.4959389567375183 L 11.0 -0.7702319025993347 L 12.0 -0.7702319025993347 L 12.0 -0.6573103070259094 L 13.0 -0.6573103070259094 L 13.0 -0.17446081340312958 L 14.0 -0.17446081340312958 L 14.0 -0.4831346571445465 L 15.0 -0.4831346571445465 L 15.0 -0.47240281105041504 L 16.0 -0.47240281105041504 L 16.0 -0.8304179310798645 L 17.0 -0.8304179310798645 L 17.0 -0.7541084289550781 L 18.0 -0.7541084289550781 L 18.0 -0.21420231461524963 L 19.0 -0.21420231461524963 L 19.0 -0.6802300214767456 L 20.0 -0.6802300214767456 L 20.0 -0.3274874687194824 L 21.0 -0.3274874687194824 L 21.0 -0.5531584620475769 L 22.0 -0.5531584620475769 L 22.0 -0.5775398015975952 L 23.0 -0.5775398015975952 L 23.0 -0.18867431581020355 L 24.0 -0.18867431581020355 L 24.0 -0.5347124934196472 L 25.0 -0.5347124934196472" style="vector-effect: non-scaling-stroke;fill:none;" /></g></g></g></g></g></g></g></g></g></g><g transform="matrix(1.0, 0.0, 0.0, 1.0, -0.125, 0.16)"><g transform="matrix(1.0, 0.0, 0.0, 0.009999999999999995, 0.0, 0.0)"><g transform="matrix(0.01, 0.0, 0.0, 1.0, 0.0, 0.0)"><g><g><g style="fill: #ffffe0;stroke: #ffffe0;stroke-width: 1.2000000000000002;fill-opacity: 0.5;" transform="matrix(1.0, 0.0, 0.0, 1.0, 0.0, 0.0)"><path d="M 0.0 -2.0 L 0.0 2.0" style="vector-effect: non-scaling-stroke;fill:none;" /></g><g style="fill: #ffffe0;stroke: #ffffe0;stroke-width: 1.2000000000000002;fill-opacity: 0.5;" transform="matrix(1.0, 0.0, 0.0, 1.0, 0.0, 0.0)"><path d="M 0.0 -0.900368869304657 L 1.0 -0.900368869304657 L 1.0 -1.376599907875061 L 2.0 -1.376599907875061 L 2.0 -1.3951715230941772 L 3.0 -1.3951715230941772 L 3.0 -0.3981223702430725 L 4.0 -0.3981223702430725 L 4.0 -1.095324158668518 L 5.0 -1.095324158668518 L 5.0 -0.8550232648849487 L 6.0 -0.8550232648849487 L 6.0 -1.3621550798416138 L 7.0 -1.3621550798416138 L 7.0 -1.2942982912063599 L 8.0 -1.2942982912063599 L 8.0 -0.29004502296447754 L 9.0 -0.29004502296447754 L 9.0 -0.9277172088623047 L 10.0 -0.9277172088623047 L 10.0 -1.3125226497650146 L 11.0 -1.3125226497650146 L 11.0 -2.0 L 12.0 -2.0 L 12.0 -1.926889181137085 L 13.0 -1.926889181137085 L 13.0 -0.5186776518821716 L 14.0 -0.5186776518821716 L 14.0 -1.5053542852401733 L 15.0 -1.5053542852401733 L 15.0 -1.286006212234497 L 16.0 -1.286006212234497 L 16.0 -2.0 L 17.0 -2.0 L 17.0 -2.0 L 18.0 -2.0 L 18.0 -0.5628894567489624 L 19.0 -0.5628894567489624 L 19.0 -1.7054299116134644 L 20.0 -1.7054299116134644 L 20.0 -1.1351304054260254 L 21.0 -1.1351304054260254 L 21.0 -1.8704211711883545 L 22.0 -1.8704211711883545 L 22.0 -1.8232768774032593 L 23.0 -1.8232768774032593 L 23.0 -0.5269306898117065 L 24.0 -0.5269306898117065 L 24.0 -1.5420310497283936 L 25.0 -1.5420310497283936 L 25.0 -0.5347124934196472 L 24.0 -0.5347124934196472 L 24.0 -0.18867431581020355 L 23.0 -0.18867431581020355 L 23.0 -0.5775398015975952 L 22.0 -0.5775398015975952 L 22.0 -0.5531584620475769 L 21.0 -0.5531584620475769 L 21.0 -0.3274874687194824 L 20.0 -0.3274874687194824 L 20.0 -0.6802300214767456 L 19.0 -0.6802300214767456 L 19.0 -0.21420231461524963 L 18.0 -0.21420231461524963 L 18.0 -0.7541084289550781 L 17.0 -0.7541084289550781 L 17.0 -0.8304179310798645 L 16.0 -0.8304179310798645 L 16.0 -0.47240281105041504 L 15.0 -0.47240281105041504 L 15.0 -0.4831346571445465 L 14.0 -0.4831346571445465 L 14.0 -0.17446081340312958 L 13.0 -0.17446081340312958 L 13.0 -0.6573103070259094 L 12.0 -0.6573103070259094 L 12.0 -0.7702319025993347 L 11.0 -0.7702319025993347 L 11.0 -0.4959389567375183 L 10.0 -0.4959389567375183 L 10.0 0.09226725250482559 L 9.0 0.09226725250482559 L 9.0 0.053054213523864746 L 8.0 0.053054213523864746 L 8.0 -0.0249056164175272 L 7.0 -0.0249056164175272 L 7.0 -0.04638252779841423 L 6.0 -0.04638252779841423 L 6.0 -0.04589021950960159 L 5.0 -0.04589021950960159 L 5.0 -0.07682979106903076 L 4.0 -0.07682979106903076 L 4.0 -0.054650597274303436 L 3.0 -0.054650597274303436 L 3.0 -0.12559255957603455 L 2.0 -0.12559255957603455 L 2.0 -0.05859219282865524 L 1.0 -0.05859219282865524 L 1.0 -0.0934709757566452 L 0.0 -0.0934709757566452 Z" style="vector-effect: non-scaling-stroke;" /></g></g><g style="stroke: black;stroke-width: 1.2000000000000002;" transform="matrix(1.0, 0.0, 0.0, 1.0, 0.0, 0.0)"><path d="M 0.0 -0.0934709757566452 L 1.0 -0.0934709757566452 L 1.0 -0.05859219282865524 L 2.0 -0.05859219282865524 L 2.0 -0.12559255957603455 L 3.0 -0.12559255957603455 L 3.0 -0.054650597274303436 L 4.0 -0.054650597274303436 L 4.0 -0.07682979106903076 L 5.0 -0.07682979106903076 L 5.0 -0.04589021950960159 L 6.0 -0.04589021950960159 L 6.0 -0.04638252779841423 L 7.0 -0.04638252779841423 L 7.0 -0.0249056164175272 L 8.0 -0.0249056164175272 L 8.0 0.053054213523864746 L 9.0 0.053054213523864746 L 9.0 0.09226725250482559 L 10.0 0.09226725250482559 L 10.0 -0.4959389567375183 L 11.0 -0.4959389567375183 L 11.0 -0.7702319025993347 L 12.0 -0.7702319025993347 L 12.0 -0.6573103070259094 L 13.0 -0.6573103070259094 L 13.0 -0.17446081340312958 L 14.0 -0.17446081340312958 L 14.0 -0.4831346571445465 L 15.0 -0.4831346571445465 L 15.0 -0.47240281105041504 L 16.0 -0.47240281105041504 L 16.0 -0.8304179310798645 L 17.0 -0.8304179310798645 L 17.0 -0.7541084289550781 L 18.0 -0.7541084289550781 L 18.0 -0.21420231461524963 L 19.0 -0.21420231461524963 L 19.0 -0.6802300214767456 L 20.0 -0.6802300214767456 L 20.0 -0.3274874687194824 L 21.0 -0.3274874687194824 L 21.0 -0.5531584620475769 L 22.0 -0.5531584620475769 L 22.0 -0.5775398015975952 L 23.0 -0.5775398015975952 L 23.0 -0.18867431581020355 L 24.0 -0.18867431581020355 L 24.0 -0.5347124934196472 L 25.0 -0.5347124934196472" style="vector-effect: non-scaling-stroke;fill:none;" /></g></g></g></g></g></g><g transform="matrix(1.0, 0.0, 0.0, 1.0, -0.125, 0.16)"><g transform="matrix(1.0, 0.0, 0.0, 0.009999999999999995, 0.0, 0.0)"><g transform="matrix(0.01, 0.0, 0.0, 1.0, 0.0, 0.0)"><g><g><g style="fill: #add8e6;stroke: #add8e6;stroke-width: 1.2000000000000002;fill-opacity: 0.5;" transform="matrix(1.0, 0.0, 0.0, 1.0, 0.0, 0.0)"><path d="M 0.0 -2.0 L 0.0 2.0" style="vector-effect: non-scaling-stroke;fill:none;" /></g><g style="fill: #add8e6;stroke: #add8e6;stroke-width: 1.2000000000000002;fill-opacity: 0.5;" transform="matrix(1.0, 0.0, 0.0, 1.0, 0.0, 0.0)"><path d="M 0.0 -0.29910701513290405 L 1.0 -0.29910701513290405 L 1.0 -0.26683592796325684 L 2.0 -0.26683592796325684 L 2.0 -0.3356989324092865 L 3.0 -0.3356989324092865 L 3.0 -0.26214927434921265 L 4.0 -0.26214927434921265 L 4.0 -0.28470098972320557 L 5.0 -0.28470098972320557 L 5.0 -0.04328251630067825 L 6.0 -0.04328251630067825 L 6.0 -0.042284708470106125 L 7.0 -0.042284708470106125 L 7.0 -0.021739119663834572 L 8.0 -0.021739119663834572 L 8.0 0.05603444576263428 L 9.0 0.05603444576263428 L 9.0 0.0959925428032875 L 10.0 0.0959925428032875 L 10.0 -1.5658423900604248 L 11.0 -1.5658423900604248 L 11.0 -1.8550364971160889 L 12.0 -1.8550364971160889 L 12.0 -1.7242333889007568 L 13.0 -1.7242333889007568 L 13.0 -1.2443641424179077 L 14.0 -1.2443641424179077 L 14.0 -1.5560182332992554 L 15.0 -1.5560182332992554 L 15.0 -1.6793968677520752 L 16.0 -1.6793968677520752 L 16.0 -2.0 L 17.0 -2.0 L 17.0 -1.9700431823730469 L 18.0 -1.9700431823730469 L 18.0 -1.4256666898727417 L 19.0 -1.4256666898727417 L 19.0 -1.8961647748947144 L 20.0 -1.8961647748947144 L 20.0 -1.2543396949768066 L 21.0 -1.2543396949768066 L 21.0 -1.4770305156707764 L 22.0 -1.4770305156707764 L 22.0 -1.4894908666610718 L 23.0 -1.4894908666610718 L 23.0 -1.1110562086105347 L 24.0 -1.1110562086105347 L 24.0 -1.4407031536102295 L 25.0 -1.4407031536102295 L 25.0 -0.5347124934196472 L 24.0 -0.5347124934196472 L 24.0 -0.18867431581020355 L 23.0 -0.18867431581020355 L 23.0 -0.5775398015975952 L 22.0 -0.5775398015975952 L 22.0 -0.5531584620475769 L 21.0 -0.5531584620475769 L 21.0 -0.3274874687194824 L 20.0 -0.3274874687194824 L 20.0 -0.6802300214767456 L 19.0 -0.6802300214767456 L 19.0 -0.21420231461524963 L 18.0 -0.21420231461524963 L 18.0 -0.7541084289550781 L 17.0 -0.7541084289550781 L 17.0 -0.8304179310798645 L 16.0 -0.8304179310798645 L 16.0 -0.47240281105041504 L 15.0 -0.47240281105041504 L 15.0 -0.4831346571445465 L 14.0 -0.4831346571445465 L 14.0 -0.17446081340312958 L 13.0 -0.17446081340312958 L 13.0 -0.6573103070259094 L 12.0 -0.6573103070259094 L 12.0 -0.7702319025993347 L 11.0 -0.7702319025993347 L 11.0 -0.4959389567375183 L 10.0 -0.4959389567375183 L 10.0 0.09226725250482559 L 9.0 0.09226725250482559 L 9.0 0.053054213523864746 L 8.0 0.053054213523864746 L 8.0 -0.0249056164175272 L 7.0 -0.0249056164175272 L 7.0 -0.04638252779841423 L 6.0 -0.04638252779841423 L 6.0 -0.04589021950960159 L 5.0 -0.04589021950960159 L 5.0 -0.07682979106903076 L 4.0 -0.07682979106903076 L 4.0 -0.054650597274303436 L 3.0 -0.054650597274303436 L 3.0 -0.12559255957603455 L 2.0 -0.12559255957603455 L 2.0 -0.05859219282865524 L 1.0 -0.05859219282865524 L 1.0 -0.0934709757566452 L 0.0 -0.0934709757566452 Z" style="vector-effect: non-scaling-stroke;" /></g></g><g style="stroke: black;stroke-width: 1.2000000000000002;" transform="matrix(1.0, 0.0, 0.0, 1.0, 0.0, 0.0)"><path d="M 0.0 -0.0934709757566452 L 1.0 -0.0934709757566452 L 1.0 -0.05859219282865524 L 2.0 -0.05859219282865524 L 2.0 -0.12559255957603455 L 3.0 -0.12559255957603455 L 3.0 -0.054650597274303436 L 4.0 -0.054650597274303436 L 4.0 -0.07682979106903076 L 5.0 -0.07682979106903076 L 5.0 -0.04589021950960159 L 6.0 -0.04589021950960159 L 6.0 -0.04638252779841423 L 7.0 -0.04638252779841423 L 7.0 -0.0249056164175272 L 8.0 -0.0249056164175272 L 8.0 0.053054213523864746 L 9.0 0.053054213523864746 L 9.0 0.09226725250482559 L 10.0 0.09226725250482559 L 10.0 -0.4959389567375183 L 11.0 -0.4959389567375183 L 11.0 -0.7702319025993347 L 12.0 -0.7702319025993347 L 12.0 -0.6573103070259094 L 13.0 -0.6573103070259094 L 13.0 -0.17446081340312958 L 14.0 -0.17446081340312958 L 14.0 -0.4831346571445465 L 15.0 -0.4831346571445465 L 15.0 -0.47240281105041504 L 16.0 -0.47240281105041504 L 16.0 -0.8304179310798645 L 17.0 -0.8304179310798645 L 17.0 -0.7541084289550781 L 18.0 -0.7541084289550781 L 18.0 -0.21420231461524963 L 19.0 -0.21420231461524963 L 19.0 -0.6802300214767456 L 20.0 -0.6802300214767456 L 20.0 -0.3274874687194824 L 21.0 -0.3274874687194824 L 21.0 -0.5531584620475769 L 22.0 -0.5531584620475769 L 22.0 -0.5775398015975952 L 23.0 -0.5775398015975952 L 23.0 -0.18867431581020355 L 24.0 -0.18867431581020355 L 24.0 -0.5347124934196472 L 25.0 -0.5347124934196472" style="vector-effect: non-scaling-stroke;fill:none;" /></g></g></g></g></g></g><g transform="matrix(1.0, 0.0, 0.0, 1.0, -0.125, 0.16)"><g transform="matrix(1.0, 0.0, 0.0, 0.009999999999999995, 0.0, 0.0)"><g transform="matrix(0.01, 0.0, 0.0, 1.0, 0.0, 0.0)"><g><g><g style="fill: #ff8c00;stroke: #ff8c00;stroke-width: 1.2000000000000002;fill-opacity: 0.5;" transform="matrix(1.0, 0.0, 0.0, 1.0, 0.0, 0.0)"><path d="M 0.0 -2.0 L 0.0 2.0" style="vector-effect: non-scaling-stroke;fill:none;" /></g><g style="fill: #ff8c00;stroke: #ff8c00;stroke-width: 1.2000000000000002;fill-opacity: 0.5;" transform="matrix(1.0, 0.0, 0.0, 1.0, 0.0, 0.0)"><path d="M 0.0 -0.0934709757566452 L 1.0 -0.0934709757566452 L 1.0 -0.05859219282865524 L 2.0 -0.05859219282865524 L 2.0 -0.12559255957603455 L 3.0 -0.12559255957603455 L 3.0 -0.054650597274303436 L 4.0 -0.054650597274303436 L 4.0 -0.07682979106903076 L 5.0 -0.07682979106903076 L 5.0 -0.04589021950960159 L 6.0 -0.04589021950960159 L 6.0 -0.04638252779841423 L 7.0 -0.04638252779841423 L 7.0 -0.0249056164175272 L 8.0 -0.0249056164175272 L 8.0 0.053054213523864746 L 9.0 0.053054213523864746 L 9.0 0.09226725250482559 L 10.0 0.09226725250482559 L 10.0 -0.4959389567375183 L 11.0 -0.4959389567375183 L 11.0 -0.7702319025993347 L 12.0 -0.7702319025993347 L 12.0 -0.6573103070259094 L 13.0 -0.6573103070259094 L 13.0 -0.17446081340312958 L 14.0 -0.17446081340312958 L 14.0 -0.4831346571445465 L 15.0 -0.4831346571445465 L 15.0 -0.47240281105041504 L 16.0 -0.47240281105041504 L 16.0 -0.8304179310798645 L 17.0 -0.8304179310798645 L 17.0 -0.7541084289550781 L 18.0 -0.7541084289550781 L 18.0 -0.21420231461524963 L 19.0 -0.21420231461524963 L 19.0 -0.6802300214767456 L 20.0 -0.6802300214767456 L 20.0 -0.3274874687194824 L 21.0 -0.3274874687194824 L 21.0 -0.5531584620475769 L 22.0 -0.5531584620475769 L 22.0 -0.5775398015975952 L 23.0 -0.5775398015975952 L 23.0 -0.18867431581020355 L 24.0 -0.18867431581020355 L 24.0 -0.5347124934196472 L 25.0 -0.5347124934196472 L 25.0 -0.5347124934196472 L 24.0 -0.5347124934196472 L 24.0 -0.18867431581020355 L 23.0 -0.18867431581020355 L 23.0 -0.5775398015975952 L 22.0 -0.5775398015975952 L 22.0 -0.5531584620475769 L 21.0 -0.5531584620475769 L 21.0 -0.3274874687194824 L 20.0 -0.3274874687194824 L 20.0 -0.6802300214767456 L 19.0 -0.6802300214767456 L 19.0 -0.21420231461524963 L 18.0 -0.21420231461524963 L 18.0 -0.7541084289550781 L 17.0 -0.7541084289550781 L 17.0 -0.8304179310798645 L 16.0 -0.8304179310798645 L 16.0 -0.47240281105041504 L 15.0 -0.47240281105041504 L 15.0 -0.4831346571445465 L 14.0 -0.4831346571445465 L 14.0 -0.17446081340312958 L 13.0 -0.17446081340312958 L 13.0 -0.6573103070259094 L 12.0 -0.6573103070259094 L 12.0 -0.7702319025993347 L 11.0 -0.7702319025993347 L 11.0 -0.4959389567375183 L 10.0 -0.4959389567375183 L 10.0 0.09226725250482559 L 9.0 0.09226725250482559 L 9.0 0.053054213523864746 L 8.0 0.053054213523864746 L 8.0 -0.0249056164175272 L 7.0 -0.0249056164175272 L 7.0 -0.04638252779841423 L 6.0 -0.04638252779841423 L 6.0 -0.04589021950960159 L 5.0 -0.04589021950960159 L 5.0 -0.07682979106903076 L 4.0 -0.07682979106903076 L 4.0 -0.054650597274303436 L 3.0 -0.054650597274303436 L 3.0 -0.12559255957603455 L 2.0 -0.12559255957603455 L 2.0 -0.05859219282865524 L 1.0 -0.05859219282865524 L 1.0 -0.0934709757566452 L 0.0 -0.0934709757566452 Z" style="vector-effect: non-scaling-stroke;" /></g></g><g style="stroke: black;stroke-width: 1.2000000000000002;" transform="matrix(1.0, 0.0, 0.0, 1.0, 0.0, 0.0)"><path d="M 0.0 -0.0934709757566452 L 1.0 -0.0934709757566452 L 1.0 -0.05859219282865524 L 2.0 -0.05859219282865524 L 2.0 -0.12559255957603455 L 3.0 -0.12559255957603455 L 3.0 -0.054650597274303436 L 4.0 -0.054650597274303436 L 4.0 -0.07682979106903076 L 5.0 -0.07682979106903076 L 5.0 -0.04589021950960159 L 6.0 -0.04589021950960159 L 6.0 -0.04638252779841423 L 7.0 -0.04638252779841423 L 7.0 -0.0249056164175272 L 8.0 -0.0249056164175272 L 8.0 0.053054213523864746 L 9.0 0.053054213523864746 L 9.0 0.09226725250482559 L 10.0 0.09226725250482559 L 10.0 -0.4959389567375183 L 11.0 -0.4959389567375183 L 11.0 -0.7702319025993347 L 12.0 -0.7702319025993347 L 12.0 -0.6573103070259094 L 13.0 -0.6573103070259094 L 13.0 -0.17446081340312958 L 14.0 -0.17446081340312958 L 14.0 -0.4831346571445465 L 15.0 -0.4831346571445465 L 15.0 -0.47240281105041504 L 16.0 -0.47240281105041504 L 16.0 -0.8304179310798645 L 17.0 -0.8304179310798645 L 17.0 -0.7541084289550781 L 18.0 -0.7541084289550781 L 18.0 -0.21420231461524963 L 19.0 -0.21420231461524963 L 19.0 -0.6802300214767456 L 20.0 -0.6802300214767456 L 20.0 -0.3274874687194824 L 21.0 -0.3274874687194824 L 21.0 -0.5531584620475769 L 22.0 -0.5531584620475769 L 22.0 -0.5775398015975952 L 23.0 -0.5775398015975952 L 23.0 -0.18867431581020355 L 24.0 -0.18867431581020355 L 24.0 -0.5347124934196472 L 25.0 -0.5347124934196472" style="vector-effect: non-scaling-stroke;fill:none;" /></g></g></g></g></g></g><g transform="matrix(1.0, 0.0, 0.0, 1.0, -0.125, 0.16)"><g transform="matrix(1.0, 0.0, 0.0, 0.009999999999999995, 0.0, 0.0)"><g transform="matrix(0.01, 0.0, 0.0, 1.0, 0.0, 0.0)"><g><g><g style="fill: #0000ff;stroke: #0000ff;stroke-width: 1.2000000000000002;fill-opacity: 0.5;" transform="matrix(1.0, 0.0, 0.0, 1.0, 0.0, 0.0)"><path d="M 0.0 -2.0 L 0.0 2.0" style="vector-effect: non-scaling-stroke;fill:none;" /></g><g style="fill: #0000ff;stroke: #0000ff;stroke-width: 1.2000000000000002;fill-opacity: 0.5;" transform="matrix(1.0, 0.0, 0.0, 1.0, 0.0, 0.0)"><path d="M 0.0 -0.0934709757566452 L 1.0 -0.0934709757566452 L 1.0 -0.05859219282865524 L 2.0 -0.05859219282865524 L 2.0 -0.12559255957603455 L 3.0 -0.12559255957603455 L 3.0 -0.054650597274303436 L 4.0 -0.054650597274303436 L 4.0 -0.07682979106903076 L 5.0 -0.07682979106903076 L 5.0 -0.04589021950960159 L 6.0 -0.04589021950960159 L 6.0 -0.04638252779841423 L 7.0 -0.04638252779841423 L 7.0 -0.0249056164175272 L 8.0 -0.0249056164175272 L 8.0 0.053054213523864746 L 9.0 0.053054213523864746 L 9.0 0.09226725250482559 L 10.0 0.09226725250482559 L 10.0 -0.4959389567375183 L 11.0 -0.4959389567375183 L 11.0 -0.7702319025993347 L 12.0 -0.7702319025993347 L 12.0 -0.6573103070259094 L 13.0 -0.6573103070259094 L 13.0 -0.17446081340312958 L 14.0 -0.17446081340312958 L 14.0 -0.4831346571445465 L 15.0 -0.4831346571445465 L 15.0 -0.47240281105041504 L 16.0 -0.47240281105041504 L 16.0 -0.8304179310798645 L 17.0 -0.8304179310798645 L 17.0 -0.7541084289550781 L 18.0 -0.7541084289550781 L 18.0 -0.21420231461524963 L 19.0 -0.21420231461524963 L 19.0 -0.6802300214767456 L 20.0 -0.6802300214767456 L 20.0 -0.3274874687194824 L 21.0 -0.3274874687194824 L 21.0 -0.5531584620475769 L 22.0 -0.5531584620475769 L 22.0 -0.5775398015975952 L 23.0 -0.5775398015975952 L 23.0 -0.18867431581020355 L 24.0 -0.18867431581020355 L 24.0 -0.5347124934196472 L 25.0 -0.5347124934196472 L 25.0 -0.5347124934196472 L 24.0 -0.5347124934196472 L 24.0 -0.18867431581020355 L 23.0 -0.18867431581020355 L 23.0 -0.5775398015975952 L 22.0 -0.5775398015975952 L 22.0 -0.5531584620475769 L 21.0 -0.5531584620475769 L 21.0 -0.3274874687194824 L 20.0 -0.3274874687194824 L 20.0 -0.6802300214767456 L 19.0 -0.6802300214767456 L 19.0 -0.21420231461524963 L 18.0 -0.21420231461524963 L 18.0 -0.7541084289550781 L 17.0 -0.7541084289550781 L 17.0 -0.8304179310798645 L 16.0 -0.8304179310798645 L 16.0 -0.47240281105041504 L 15.0 -0.47240281105041504 L 15.0 -0.4831346571445465 L 14.0 -0.4831346571445465 L 14.0 -0.17446081340312958 L 13.0 -0.17446081340312958 L 13.0 -0.6573103070259094 L 12.0 -0.6573103070259094 L 12.0 -0.7702319025993347 L 11.0 -0.7702319025993347 L 11.0 -0.4959389567375183 L 10.0 -0.4959389567375183 L 10.0 0.09226725250482559 L 9.0 0.09226725250482559 L 9.0 0.053054213523864746 L 8.0 0.053054213523864746 L 8.0 -0.0249056164175272 L 7.0 -0.0249056164175272 L 7.0 -0.04638252779841423 L 6.0 -0.04638252779841423 L 6.0 -0.04589021950960159 L 5.0 -0.04589021950960159 L 5.0 -0.07682979106903076 L 4.0 -0.07682979106903076 L 4.0 -0.054650597274303436 L 3.0 -0.054650597274303436 L 3.0 -0.12559255957603455 L 2.0 -0.12559255957603455 L 2.0 -0.05859219282865524 L 1.0 -0.05859219282865524 L 1.0 -0.0934709757566452 L 0.0 -0.0934709757566452 Z" style="vector-effect: non-scaling-stroke;" /></g></g><g style="stroke: black;stroke-width: 1.2000000000000002;" transform="matrix(1.0, 0.0, 0.0, 1.0, 0.0, 0.0)"><path d="M 0.0 -0.0934709757566452 L 1.0 -0.0934709757566452 L 1.0 -0.05859219282865524 L 2.0 -0.05859219282865524 L 2.0 -0.12559255957603455 L 3.0 -0.12559255957603455 L 3.0 -0.054650597274303436 L 4.0 -0.054650597274303436 L 4.0 -0.07682979106903076 L 5.0 -0.07682979106903076 L 5.0 -0.04589021950960159 L 6.0 -0.04589021950960159 L 6.0 -0.04638252779841423 L 7.0 -0.04638252779841423 L 7.0 -0.0249056164175272 L 8.0 -0.0249056164175272 L 8.0 0.053054213523864746 L 9.0 0.053054213523864746 L 9.0 0.09226725250482559 L 10.0 0.09226725250482559 L 10.0 -0.4959389567375183 L 11.0 -0.4959389567375183 L 11.0 -0.7702319025993347 L 12.0 -0.7702319025993347 L 12.0 -0.6573103070259094 L 13.0 -0.6573103070259094 L 13.0 -0.17446081340312958 L 14.0 -0.17446081340312958 L 14.0 -0.4831346571445465 L 15.0 -0.4831346571445465 L 15.0 -0.47240281105041504 L 16.0 -0.47240281105041504 L 16.0 -0.8304179310798645 L 17.0 -0.8304179310798645 L 17.0 -0.7541084289550781 L 18.0 -0.7541084289550781 L 18.0 -0.21420231461524963 L 19.0 -0.21420231461524963 L 19.0 -0.6802300214767456 L 20.0 -0.6802300214767456 L 20.0 -0.3274874687194824 L 21.0 -0.3274874687194824 L 21.0 -0.5531584620475769 L 22.0 -0.5531584620475769 L 22.0 -0.5775398015975952 L 23.0 -0.5775398015975952 L 23.0 -0.18867431581020355 L 24.0 -0.18867431581020355 L 24.0 -0.5347124934196472 L 25.0 -0.5347124934196472" style="vector-effect: non-scaling-stroke;fill:none;" /></g></g></g></g></g></g></g></g><g /></g></g></g></g></svg>