<?xml version="1.0" encoding="utf-8" ?>
<svg baseProfile="full" height="300" version="1.1" width="1056" xmlns="http://www.w3.org/2000/svg" xmlns:ev="http://www.w3.org/2001/xml-events" xmlns:xlink="http://www.w3.org/1999/xlink"><defs><marker id="arrow" markerHeight="3.5" markerWidth="5" orient="auto" refX="5.0" refY="1.7"><polygon points="0,0 5,1.75 0,3.5" /></marker></defs><g style="fill:white;"><g transform="matrix(1.0, 0.0, 0.0, 1.0, 528.4090909090908, 150.0)"><g transform="matrix(1082.2510822510822, 0.0, 0.0, 1082.2510822510822, 0.0, 0.0)"><g><g transform="matrix(1.0, 0.0, 0.0, 1.0, -0.0, -0.08000000000000002)"><g><g><g style="fill: #ffffff;stroke: black;stroke-width: 1.2000000000000002;" transform="matrix(1.0, 0.0, 0.0, 1.0, -0.4649999999999999, -0.052000000000000005)"><path d="M 0.0 0.0 L 0.9299999999999998 0.0 L 0.9299999999999998 0.264 L 0.0 0.264 L 0.0 0.0 Z" style="vector-effect: non-scaling-stroke;" /></g><g><g><g><g><g><g><g><g transform="matrix(1.0, 0.0, 0.0, 1.0, -0.4149999999999999, -0.03)"><g><g><g transform="matrix(1.0, 0.0, 0.0, 1.0, 0.075, 0.0)"><g transform="matrix(1.0, 0.0, 0.0, 1.0, 0.0, 0.03)"><g transform="matrix(0.01, 0.0, 0.0, 0.01, 0.0, 0.0)"><g><g><g transform="matrix(1.0, 0.0, 0.0, 1.0, 20.0, 0.0)"><g transform="matrix(1.0, 0.0, 0.0, 1.0, -27.5, -0.0)"><g><g style="fill: #d3d3d3;stroke: black;stroke-width: 1.2000000000000002;" transform="matrix(1.0, 0.0, 0.0, 1.0, 0.0, -3.0)"><path d="M 0.0 0.0 L 55.0 0.0 L 55.0 6.0 L 0.0 6.0 L 0.0 0.0 Z" style="vector-effect: non-scaling-stroke;" /></g><g transform="matrix(1.0, 0.0, 0.0, 1.0, 1.875, 0.0)"><g><g style="stroke: black;stroke-width: 1.2000000000000002;" transform="matrix(1.0, 0.0, 0.0, 1.0, 0.0, 0.0)"><g /></g><g style="fill: #ffa500;stroke: black;stroke-width: 1.2000000000000002;" transform="matrix(1.0, 0.0, 0.0, 1.0, 1.875, 0.0)"><text style="text-align:center; text-anchor:middle; dominant-baseline:middle;&#10;                      font-family:sans-serif; font-weight: bold;&#10;                      font-size:3px;&#10;                      vector-effect: non-scaling-stroke;" transform="translate(-5e-05, 0)">x</text></g></g></g></g></g></g><g><g><g><g><g><g><g><g style="stroke: black;stroke-width: 1.2000000000000002;" transform="matrix(1.0, 0.0, 0.0, 1.0, 0.0, 0.0)"><path d="M 0.0 -2.0 L 0.0 2.0" style="vector-effect: non-scaling-stroke;fill:none;" /></g><g style="stroke: #808080;stroke-width: 0.6000000000000001;" transform="matrix(1.0, 0.0, 0.0, 1.0, 0.0, 0.0)"><path d="M 0.0 0.0 L 40.0 0.0" style="vector-effect: non-scaling-stroke;fill:none;" /></g></g><g style="stroke: black;stroke-width: 2.4000000000000004;" transform="matrix(1.0, 0.0, 0.0, 1.0, 0.0, 0.0)"><path d="M 0.0 0.871941864490509 L 1.0 0.871941864490509 L 1.0 0.2536965608596802 L 2.0 0.2536965608596802 L 2.0 0.20256835222244263 L 3.0 0.20256835222244263 L 3.0 0.40527454018592834 L 4.0 0.40527454018592834 L 4.0 -0.26852527260780334 L 5.0 -0.26852527260780334 L 5.0 -0.35136839747428894 L 6.0 -0.35136839747428894 L 6.0 -0.6916482448577881 L 7.0 -0.6916482448577881 L 7.0 0.1972484141588211 L 8.0 0.1972484141588211 L 8.0 -0.9115141034126282 L 9.0 -0.9115141034126282 L 9.0 -0.4357282519340515 L 10.0 -0.4357282519340515 L 10.0 -0.227659672498703 L 11.0 -0.227659672498703 L 11.0 0.2672785520553589 L 12.0 0.2672785520553589 L 12.0 -0.09378920495510101 L 13.0 -0.09378920495510101 L 13.0 -0.03657596930861473 L 14.0 -0.03657596930861473 L 14.0 -0.7623620629310608 L 15.0 -0.7623620629310608 L 15.0 0.05543040484189987 L 16.0 0.05543040484189987 L 16.0 -1.6880478858947754 L 17.0 -1.6880478858947754 L 17.0 -0.9875346422195435 L 18.0 -0.9875346422195435 L 18.0 -1.693429946899414 L 19.0 -1.693429946899414 L 19.0 0.17093953490257263 L 20.0 0.17093953490257263 L 20.0 -1.04374361038208 L 21.0 -1.04374361038208 L 21.0 -0.29867035150527954 L 22.0 -0.29867035150527954 L 22.0 -0.9582696557044983 L 23.0 -0.9582696557044983 L 23.0 -0.444803386926651 L 24.0 -0.444803386926651 L 24.0 -0.6638801097869873 L 25.0 -0.6638801097869873 L 25.0 -1.389845848083496 L 26.0 -1.389845848083496 L 26.0 -1.0459502935409546 L 27.0 -1.0459502935409546 L 27.0 -1.874679446220398 L 28.0 -1.874679446220398 L 28.0 -0.8415325284004211 L 29.0 -0.8415325284004211 L 29.0 -1.8072394132614136 L 30.0 -1.8072394132614136 L 30.0 -0.18836985528469086 L 31.0 -0.18836985528469086 L 31.0 -1.7506518363952637 L 32.0 -1.7506518363952637 L 32.0 -1.2369564771652222 L 33.0 -1.2369564771652222 L 33.0 -1.3810935020446777 L 34.0 -1.3810935020446777 L 34.0 -1.3974287509918213 L 35.0 -1.3974287509918213 L 35.0 -1.7242653369903564 L 36.0 -1.7242653369903564 L 36.0 -1.3872874975204468 L 37.0 -1.3872874975204468 L 37.0 -1.2593145370483398 L 38.0 -1.2593145370483398 L 38.0 -1.8147130012512207 L 39.0 -1.8147130012512207 L 39.0 -1.395669937133789 L 40.0 -1.395669937133789" style="vector-effect: non-scaling-stroke;fill:none;" /></g></g><g style="stroke: black;stroke-width: 1.2000000000000002;" transform="matrix(1.0, 0.0, 0.0, 1.0, 0.0, 0.0)"><path d="M 0.0 -2.0 L 0.0 2.0" style="vector-effect: non-scaling-stroke;fill:none;" /></g></g><g style="stroke: black;stroke-width: 1.2000000000000002;" transform="matrix(1.0, 0.0, 0.0, 1.0, 0.0, 0.0)"><path d="M 10.0 -2.0 L 10.0 2.0" style="vector-effect: non-scaling-stroke;fill:none;" /></g></g><g style="stroke: black;stroke-width: 1.2000000000000002;" transform="matrix(1.0, 0.0, 0.0, 1.0, 0.0, 0.0)"><path d="M 20.0 -2.0 L 20.0 2.0" style="vector-effect: non-scaling-stroke;fill:none;" /></g></g><g style="stroke: black;stroke-width: 1.2000000000000002;" transform="matrix(1.0, 0.0, 0.0, 1.0, 0.0, 0.0)"><path d="M 30.0 -2.0 L 30.0 2.0" style="vector-effect: non-scaling-stroke;fill:none;" /></g></g></g></g><g><g><g><g><g><g><g><g style="stroke: black;stroke-width: 1.2000000000000002;" transform="matrix(1.0, 0.0, 0.0, 1.0, 0.0, 0.0)"><path d="M 0.0 -2.0 L 0.0 2.0" style="vector-effect: non-scaling-stroke;fill:none;" /></g><g style="stroke: #808080;stroke-width: 0.6000000000000001;" transform="matrix(1.0, 0.0, 0.0, 1.0, 0.0, 0.0)"><path d="M 0.0 0.0 L 40.0 0.0" style="vector-effect: non-scaling-stroke;fill:none;" /></g></g><g style="stroke: black;stroke-width: 2.4000000000000004;" transform="matrix(1.0, 0.0, 0.0, 1.0, 0.0, 0.0)"><path d="M 0.0 0.871941864490509 L 1.0 0.871941864490509 L 1.0 0.2536965608596802 L 2.0 0.2536965608596802 L 2.0 0.20256835222244263 L 3.0 0.20256835222244263 L 3.0 0.40527454018592834 L 4.0 0.40527454018592834 L 4.0 -0.26852527260780334 L 5.0 -0.26852527260780334 L 5.0 -0.35136839747428894 L 6.0 -0.35136839747428894 L 6.0 -0.6916482448577881 L 7.0 -0.6916482448577881 L 7.0 0.1972484141588211 L 8.0 0.1972484141588211 L 8.0 -0.9115141034126282 L 9.0 -0.9115141034126282 L 9.0 -0.4357282519340515 L 10.0 -0.4357282519340515 L 10.0 -0.227659672498703 L 11.0 -0.227659672498703 L 11.0 0.2672785520553589 L 12.0 0.2672785520553589 L 12.0 -0.09378920495510101 L 13.0 -0.09378920495510101 L 13.0 -0.03657596930861473 L 14.0 -0.03657596930861473 L 14.0 -0.7623620629310608 L 15.0 -0.7623620629310608 L 15.0 0.05543040484189987 L 16.0 0.05543040484189987 L 16.0 -1.6880478858947754 L 17.0 -1.6880478858947754 L 17.0 -0.9875346422195435 L 18.0 -0.9875346422195435 L 18.0 -1.693429946899414 L 19.0 -1.693429946899414 L 19.0 0.17093953490257263 L 20.0 0.17093953490257263 L 20.0 -1.04374361038208 L 21.0 -1.04374361038208 L 21.0 -0.29867035150527954 L 22.0 -0.29867035150527954 L 22.0 -0.9582696557044983 L 23.0 -0.9582696557044983 L 23.0 -0.444803386926651 L 24.0 -0.444803386926651 L 24.0 -0.6638801097869873 L 25.0 -0.6638801097869873 L 25.0 -1.389845848083496 L 26.0 -1.389845848083496 L 26.0 -1.0459502935409546 L 27.0 -1.0459502935409546 L 27.0 -1.874679446220398 L 28.0 -1.874679446220398 L 28.0 -0.8415325284004211 L 29.0 -0.8415325284004211 L 29.0 -1.8072394132614136 L 30.0 -1.8072394132614136 L 30.0 -0.18836985528469086 L 31.0 -0.18836985528469086 L 31.0 -1.7506518363952637 L 32.0 -1.7506518363952637 L 32.0 -1.2369564771652222 L 33.0 -1.2369564771652222 L 33.0 -1.3810935020446777 L 34.0 -1.3810935020446777 L 34.0 -1.3974287509918213 L 35.0 -1.3974287509918213 L 35.0 -1.7242653369903564 L 36.0 -1.7242653369903564 L 36.0 -1.3872874975204468 L 37.0 -1.3872874975204468 L 37.0 -1.2593145370483398 L 38.0 -1.2593145370483398 L 38.0 -1.8147130012512207 L 39.0 -1.8147130012512207 L 39.0 -1.395669937133789 L 40.0 -1.395669937133789" style="vector-effect: non-scaling-stroke;fill:none;" /></g></g><g style="stroke: black;stroke-width: 1.2000000000000002;" transform="matrix(1.0, 0.0, 0.0, 1.0, 0.0, 0.0)"><path d="M 0.0 -2.0 L 0.0 2.0" style="vector-effect: non-scaling-stroke;fill:none;" /></g></g><g style="stroke: black;stroke-width: 1.2000000000000002;" transform="matrix(1.0, 0.0, 0.0, 1.0, 0.0, 0.0)"><path d="M 10.0 -2.0 L 10.0 2.0" style="vector-effect: non-scaling-stroke;fill:none;" /></g></g><g style="stroke: black;stroke-width: 1.2000000000000002;" transform="matrix(1.0, 0.0, 0.0, 1.0, 0.0, 0.0)"><path d="M 20.0 -2.0 L 20.0 2.0" style="vector-effect: non-scaling-stroke;fill:none;" /></g></g><g style="stroke: black;stroke-width: 1.2000000000000002;" transform="matrix(1.0, 0.0, 0.0, 1.0, 0.0, 0.0)"><path d="M 30.0 -2.0 L 30.0 2.0" style="vector-effect: non-scaling-stroke;fill:none;" /></g></g></g></g></g></g></g><g style="stroke: black;stroke-width: 1.2000000000000002;" transform="matrix(1.0, 0.0, 0.0, 1.0, 0.565, 0.0)"><g /></g></g><g transform="matrix(1.0, 0.0, 0.0, 1.0, 0.58, 0.0)"><g transform="matrix(1.0, 0.0, 0.0, 1.0, 0.075, 0.0)"><g transform="matrix(1.0, 0.0, 0.0, 1.0, 0.0, 0.03)"><g transform="matrix(0.01, 0.0, 0.0, 0.01, 0.0, 0.0)"><g><g><g transform="matrix(1.0, 0.0, 0.0, 1.0, 5.0, 0.0)"><g transform="matrix(1.0, 0.0, 0.0, 1.0, -12.5, -0.0)"><g><g style="fill: #d3d3d3;stroke: black;stroke-width: 1.2000000000000002;" transform="matrix(1.0, 0.0, 0.0, 1.0, 0.0, -3.0)"><path d="M 0.0 0.0 L 25.0 0.0 L 25.0 6.0 L 0.0 6.0 L 0.0 0.0 Z" style="vector-effect: non-scaling-stroke;" /></g><g transform="matrix(1.0, 0.0, 0.0, 1.0, 1.875, 0.0)"><g><g style="stroke: black;stroke-width: 1.2000000000000002;" transform="matrix(1.0, 0.0, 0.0, 1.0, 0.0, 0.0)"><g /></g><g style="fill: #ffa500;stroke: black;stroke-width: 1.2000000000000002;" transform="matrix(1.0, 0.0, 0.0, 1.0, 1.875, 0.0)"><text style="text-align:center; text-anchor:middle; dominant-baseline:middle;&#10;                      font-family:sans-serif; font-weight: bold;&#10;                      font-size:3px;&#10;                      vector-effect: non-scaling-stroke;" transform="translate(-5e-05, 0)">y</text></g></g></g></g></g></g><g><g><g><g style="stroke: black;stroke-width: 1.2000000000000002;" transform="matrix(1.0, 0.0, 0.0, 1.0, 0.0, 0.0)"><path d="M 0.0 -2.0 L 0.0 2.0" style="vector-effect: non-scaling-stroke;fill:none;" /></g><g style="stroke: #808080;stroke-width: 0.6000000000000001;" transform="matrix(1.0, 0.0, 0.0, 1.0, 0.0, 0.0)"><path d="M 0.0 0.0 L 10.0 0.0" style="vector-effect: non-scaling-stroke;fill:none;" /></g></g><g style="stroke: black;stroke-width: 2.4000000000000004;" transform="matrix(1.0, 0.0, 0.0, 1.0, 0.0, 0.0)"><path d="M 0.0 -0.21278686821460724 L 1.0 -0.21278686821460724 L 1.0 -1.3385826349258423 L 2.0 -1.3385826349258423 L 2.0 -0.02134583704173565 L 3.0 -0.02134583704173565 L 3.0 -1.1525174379348755 L 4.0 -1.1525174379348755 L 4.0 -0.13235895335674286 L 5.0 -0.13235895335674286 L 5.0 -1.0333293676376343 L 6.0 -1.0333293676376343 L 6.0 -1.1160067319869995 L 7.0 -1.1160067319869995 L 7.0 -0.5435988306999207 L 8.0 -0.5435988306999207 L 8.0 -0.10872414708137512 L 9.0 -0.10872414708137512 L 9.0 -1.2195825576782227 L 10.0 -1.2195825576782227" style="vector-effect: non-scaling-stroke;fill:none;" /></g></g></g></g><g><g><g><g style="stroke: black;stroke-width: 1.2000000000000002;" transform="matrix(1.0, 0.0, 0.0, 1.0, 0.0, 0.0)"><path d="M 0.0 -2.0 L 0.0 2.0" style="vector-effect: non-scaling-stroke;fill:none;" /></g><g style="stroke: #808080;stroke-width: 0.6000000000000001;" transform="matrix(1.0, 0.0, 0.0, 1.0, 0.0, 0.0)"><path d="M 0.0 0.0 L 10.0 0.0" style="vector-effect: non-scaling-stroke;fill:none;" /></g></g><g style="stroke: black;stroke-width: 2.4000000000000004;" transform="matrix(1.0, 0.0, 0.0, 1.0, 0.0, 0.0)"><path d="M 0.0 -0.21278686821460724 L 1.0 -0.21278686821460724 L 1.0 -1.3385826349258423 L 2.0 -1.3385826349258423 L 2.0 -0.02134583704173565 L 3.0 -0.02134583704173565 L 3.0 -1.1525174379348755 L 4.0 -1.1525174379348755 L 4.0 -0.13235895335674286 L 5.0 -0.13235895335674286 L 5.0 -1.0333293676376343 L 6.0 -1.0333293676376343 L 6.0 -1.1160067319869995 L 7.0 -1.1160067319869995 L 7.0 -0.5435988306999207 L 8.0 -0.5435988306999207 L 8.0 -0.10872414708137512 L 9.0 -0.10872414708137512 L 9.0 -1.2195825576782227 L 10.0 -1.2195825576782227" style="vector-effect: non-scaling-stroke;fill:none;" /></g></g></g></g></g></g></g></g></g></g><g style="stroke: black;stroke-width: 1.2000000000000002;" transform="matrix(0.0, -1.0, 1.0, 0.0, 0.0, 0.08)"><g /></g></g><g transform="matrix(1.0, 0.0, 0.0, 1.0, 0.0, 0.16)"><g transform="matrix(1.0, 0.0, 0.0, 1.0, -0.27499999999999997, -0.03)"><g transform="matrix(1.0, 0.0, 0.0, 1.0, 0.075, 0.0)"><g transform="matrix(1.0, 0.0, 0.0, 1.0, 0.0, 0.03)"><g transform="matrix(0.01, 0.0, 0.0, 0.01, 0.0, 0.0)"><g><g><g transform="matrix(1.0, 0.0, 0.0, 1.0, 20.0, 0.0)"><g transform="matrix(1.0, 0.0, 0.0, 1.0, -27.5, -0.0)"><g><g style="fill: #d3d3d3;stroke: black;stroke-width: 1.2000000000000002;" transform="matrix(1.0, 0.0, 0.0, 1.0, 0.0, -3.0)"><path d="M 0.0 0.0 L 55.0 0.0 L 55.0 6.0 L 0.0 6.0 L 0.0 0.0 Z" style="vector-effect: non-scaling-stroke;" /></g><g transform="matrix(1.0, 0.0, 0.0, 1.0, 1.875, 0.0)"><g><g style="stroke: black;stroke-width: 1.2000000000000002;" transform="matrix(1.0, 0.0, 0.0, 1.0, 0.0, 0.0)"><g /></g><g style="fill: #ffa500;stroke: black;stroke-width: 1.2000000000000002;" transform="matrix(1.0, 0.0, 0.0, 1.0, 1.875, 0.0)"><text style="text-align:center; text-anchor:middle; dominant-baseline:middle;&#10;                      font-family:sans-serif; font-weight: bold;&#10;                      font-size:3px;&#10;                      vector-effect: non-scaling-stroke;" transform="translate(-5e-05, 0)">f(x)</text></g></g></g></g></g></g><g><g><g><g style="stroke: black;stroke-width: 1.2000000000000002;" transform="matrix(1.0, 0.0, 0.0, 1.0, 0.0, 0.0)"><path d="M 0.0 -2.0 L 0.0 2.0" style="vector-effect: non-scaling-stroke;fill:none;" /></g><g style="stroke: #808080;stroke-width: 0.6000000000000001;" transform="matrix(1.0, 0.0, 0.0, 1.0, 0.0, 0.0)"><path d="M 0.0 0.0 L 40.0 0.0" style="vector-effect: non-scaling-stroke;fill:none;" /></g></g><g style="stroke: black;stroke-width: 2.4000000000000004;" transform="matrix(1.0, 0.0, 0.0, 1.0, 0.0, 0.0)"><path d="M 0.0 0.09276889264583588 L 1.0 0.09276889264583588 L 1.0 0.1697968989610672 L 2.0 0.1697968989610672 L 2.0 0.002161995507776737 L 3.0 0.002161995507776737 L 3.0 0.23354299366474152 L 4.0 0.23354299366474152 L 4.0 -0.017770862206816673 L 5.0 -0.017770862206816673 L 5.0 -0.1815396398305893 L 6.0 -0.1815396398305893 L 6.0 -0.3859420418739319 L 7.0 -0.3859420418739319 L 7.0 0.05361200496554375 L 8.0 0.05361200496554375 L 8.0 -0.04955179616808891 L 9.0 -0.04955179616808891 L 9.0 -0.2657032907009125 L 10.0 -0.2657032907009125 L 10.0 -0.024221494793891907 L 11.0 -0.024221494793891907 L 11.0 0.17888721823692322 L 12.0 0.17888721823692322 L 12.0 -0.001001004595309496 L 13.0 -0.001001004595309496 L 13.0 -0.021077221259474754 L 14.0 -0.021077221259474754 L 14.0 -0.05045272409915924 L 15.0 -0.05045272409915924 L 15.0 0.02863893285393715 L 16.0 0.02863893285393715 L 16.0 -0.9419363737106323 L 17.0 -0.9419363737106323 L 17.0 -0.2684113383293152 L 18.0 -0.2684113383293152 L 18.0 -0.09205836057662964 L 19.0 -0.09205836057662964 L 19.0 0.10423743724822998 L 20.0 0.10423743724822998 L 20.0 -0.11104746907949448 L 21.0 -0.11104746907949448 L 21.0 -0.19989746809005737 L 22.0 -0.19989746809005737 L 22.0 -0.010227533988654613 L 23.0 -0.010227533988654613 L 23.0 -0.25632181763648987 L 24.0 -0.25632181763648987 L 24.0 -0.04393523931503296 L 25.0 -0.04393523931503296 L 25.0 -0.7180842757225037 L 26.0 -0.7180842757225037 L 26.0 -0.5836437940597534 L 27.0 -0.5836437940597534 L 27.0 -0.5095368027687073 L 28.0 -0.5095368027687073 L 28.0 -0.04574745148420334 L 29.0 -0.04574745148420334 L 29.0 -1.102038860321045 L 30.0 -1.102038860321045 L 30.0 -0.020041314885020256 L 31.0 -0.020041314885020256 L 31.0 -1.1716960668563843 L 32.0 -1.1716960668563843 L 32.0 -0.013201936148107052 L 33.0 -0.013201936148107052 L 33.0 -0.7958671450614929 L 34.0 -0.7958671450614929 L 34.0 -0.0924811065196991 L 35.0 -0.0924811065196991 L 35.0 -0.8908669948577881 L 36.0 -0.8908669948577881 L 36.0 -0.7741110920906067 L 37.0 -0.7741110920906067 L 37.0 -0.34228095412254333 L 38.0 -0.34228095412254333 L 38.0 -0.09865155816078186 L 39.0 -0.09865155816078186 L 39.0 -0.8510673642158508 L 40.0 -0.8510673642158508" style="vector-effect: non-scaling-stroke;fill:none;" /></g></g></g></g><g><g><g><g style="stroke: black;stroke-width: 1.2000000000000002;" transform="matrix(1.0, 0.0, 0.0, 1.0, 0.0, 0.0)"><path d="M 0.0 -2.0 L 0.0 2.0" style="vector-effect: non-scaling-stroke;fill:none;" /></g><g style="stroke: #808080;stroke-width: 0.6000000000000001;" transform="matrix(1.0, 0.0, 0.0, 1.0, 0.0, 0.0)"><path d="M 0.0 0.0 L 40.0 0.0" style="vector-effect: non-scaling-stroke;fill:none;" /></g></g><g style="stroke: black;stroke-width: 2.4000000000000004;" transform="matrix(1.0, 0.0, 0.0, 1.0, 0.0, 0.0)"><path d="M 0.0 0.09276889264583588 L 1.0 0.09276889264583588 L 1.0 0.1697968989610672 L 2.0 0.1697968989610672 L 2.0 0.002161995507776737 L 3.0 0.002161995507776737 L 3.0 0.23354299366474152 L 4.0 0.23354299366474152 L 4.0 -0.017770862206816673 L 5.0 -0.017770862206816673 L 5.0 -0.1815396398305893 L 6.0 -0.1815396398305893 L 6.0 -0.3859420418739319 L 7.0 -0.3859420418739319 L 7.0 0.05361200496554375 L 8.0 0.05361200496554375 L 8.0 -0.04955179616808891 L 9.0 -0.04955179616808891 L 9.0 -0.2657032907009125 L 10.0 -0.2657032907009125 L 10.0 -0.024221494793891907 L 11.0 -0.024221494793891907 L 11.0 0.17888721823692322 L 12.0 0.17888721823692322 L 12.0 -0.001001004595309496 L 13.0 -0.001001004595309496 L 13.0 -0.021077221259474754 L 14.0 -0.021077221259474754 L 14.0 -0.05045272409915924 L 15.0 -0.05045272409915924 L 15.0 0.02863893285393715 L 16.0 0.02863893285393715 L 16.0 -0.9419363737106323 L 17.0 -0.9419363737106323 L 17.0 -0.2684113383293152 L 18.0 -0.2684113383293152 L 18.0 -0.09205836057662964 L 19.0 -0.09205836057662964 L 19.0 0.10423743724822998 L 20.0 0.10423743724822998 L 20.0 -0.11104746907949448 L 21.0 -0.11104746907949448 L 21.0 -0.19989746809005737 L 22.0 -0.19989746809005737 L 22.0 -0.010227533988654613 L 23.0 -0.010227533988654613 L 23.0 -0.25632181763648987 L 24.0 -0.25632181763648987 L 24.0 -0.04393523931503296 L 25.0 -0.04393523931503296 L 25.0 -0.7180842757225037 L 26.0 -0.7180842757225037 L 26.0 -0.5836437940597534 L 27.0 -0.5836437940597534 L 27.0 -0.5095368027687073 L 28.0 -0.5095368027687073 L 28.0 -0.04574745148420334 L 29.0 -0.04574745148420334 L 29.0 -1.102038860321045 L 30.0 -1.102038860321045 L 30.0 -0.020041314885020256 L 31.0 -0.020041314885020256 L 31.0 -1.1716960668563843 L 32.0 -1.1716960668563843 L 32.0 -0.013201936148107052 L 33.0 -0.013201936148107052 L 33.0 -0.7958671450614929 L 34.0 -0.7958671450614929 L 34.0 -0.0924811065196991 L 35.0 -0.0924811065196991 L 35.0 -0.8908669948577881 L 36.0 -0.8908669948577881 L 36.0 -0.7741110920906067 L 37.0 -0.7741110920906067 L 37.0 -0.34228095412254333 L 38.0 -0.34228095412254333 L 38.0 -0.09865155816078186 L 39.0 -0.09865155816078186 L 39.0 -0.8510673642158508 L 40.0 -0.8510673642158508" style="vector-effect: non-scaling-stroke;fill:none;" /></g></g></g></g></g></g></g></g></g></g><g transform="matrix(1.0, 0.0, 0.0, 1.0, -0.19999999999999996, 0.16)"><g transform="matrix(1.0, 0.0, 0.0, 0.009999999999999995, 0.0, 0.0)"><g transform="matrix(0.01, 0.0, 0.0, 1.0, 0.0, 0.0)"><g><g><g style="fill: #ffffe0;stroke: #ffffe0;stroke-width: 1.2000000000000002;fill-opacity: 0.5;" transform="matrix(1.0, 0.0, 0.0, 1.0, 0.0, 0.0)"><path d="M 0.0 -2.0 L 0.0 2.0" style="vector-effect: non-scaling-stroke;fill:none;" /></g><g style="fill: #ffffe0;stroke: #ffffe0;stroke-width: 1.2000000000000002;fill-opacity: 0.5;" transform="matrix(1.0, 0.0, 0.0, 1.0, 0.0, 0.0)"><path d="M 0.0 -0.12031771242618561 L 1.0 -0.12031771242618561 L 1.0 -1.1683273315429688 L 2.0 -1.1683273315429688 L 2.0 -0.019188575446605682 L 3.0 -0.019188575446605682 L 3.0 -0.9198068976402283 L 4.0 -0.9198068976402283 L 4.0 -0.15001866221427917 L 5.0 -0.15001866221427917 L 5.0 -1.2156802415847778 L 6.0 -1.2156802415847778 L 6.0 -1.5035290718078613 L 7.0 -1.5035290718078613 L 7.0 -0.4899078607559204 L 8.0 -0.4899078607559204 L 8.0 -0.1583302766084671 L 9.0 -0.1583302766084671 L 9.0 -1.4846183061599731 L 10.0 -1.4846183061599731 L 10.0 -0.2369355708360672 L 11.0 -0.2369355708360672 L 11.0 -1.159237027168274 L 12.0 -1.159237027168274 L 12.0 -0.02233993262052536 L 13.0 -0.02233993262052536 L 13.0 -1.1736820936203003 L 14.0 -1.1736820936203003 L 14.0 -0.1827005296945572 L 15.0 -0.1827005296945572 L 15.0 -1.0047565698623657 L 16.0 -1.0047565698623657 L 16.0 -2.0 L 17.0 -2.0 L 17.0 -0.8137938380241394 L 18.0 -0.8137938380241394 L 18.0 -0.20083683729171753 L 19.0 -0.20083683729171753 L 19.0 -1.1154226064682007 L 20.0 -1.1154226064682007 L 20.0 -0.32413408160209656 L 21.0 -0.32413408160209656 L 21.0 -1.5395119190216064 L 22.0 -1.5395119190216064 L 22.0 -0.031554821878671646 L 23.0 -0.031554821878671646 L 23.0 -1.409671664237976 L 24.0 -1.409671664237976 L 24.0 -0.1761830449104309 L 25.0 -0.1761830449104309 L 25.0 -1.7492446899414062 L 26.0 -1.7492446899414062 L 26.0 -1.698250651359558 L 27.0 -1.698250651359558 L 27.0 -1.0519390106201172 L 28.0 -1.0519390106201172 L 28.0 -0.15489846467971802 L 29.0 -0.15489846467971802 L 29.0 -2.0 L 30.0 -2.0 L 30.0 -0.2329416573047638 L 31.0 -0.2329416573047638 L 31.0 -2.0 L 32.0 -2.0 L 32.0 -0.034529224038124084 L 33.0 -0.034529224038124084 L 33.0 -1.9521973133087158 L 34.0 -1.9521973133087158 L 34.0 -0.22435638308525085 L 35.0 -0.22435638308525085 L 35.0 -1.927987813949585 L 36.0 -1.927987813949585 L 36.0 -1.8946783542633057 L 37.0 -1.8946783542633057 L 37.0 -0.8876634836196899 L 38.0 -0.8876634836196899 L 38.0 -0.20817509293556213 L 39.0 -0.20817509293556213 L 39.0 -2.0 L 40.0 -2.0 L 40.0 -0.8510673642158508 L 39.0 -0.8510673642158508 L 39.0 -0.09865155816078186 L 38.0 -0.09865155816078186 L 38.0 -0.34228095412254333 L 37.0 -0.34228095412254333 L 37.0 -0.7741110920906067 L 36.0 -0.7741110920906067 L 36.0 -0.8908669948577881 L 35.0 -0.8908669948577881 L 35.0 -0.0924811065196991 L 34.0 -0.0924811065196991 L 34.0 -0.7958671450614929 L 33.0 -0.7958671450614929 L 33.0 -0.013201936148107052 L 32.0 -0.013201936148107052 L 32.0 -1.1716960668563843 L 31.0 -1.1716960668563843 L 31.0 -0.020041314885020256 L 30.0 -0.020041314885020256 L 30.0 -1.102038860321045 L 29.0 -1.102038860321045 L 29.0 -0.04574745148420334 L 28.0 -0.04574745148420334 L 28.0 -0.5095368027687073 L 27.0 -0.5095368027687073 L 27.0 -0.5836437940597534 L 26.0 -0.5836437940597534 L 26.0 -0.7180842757225037 L 25.0 -0.7180842757225037 L 25.0 -0.04393523931503296 L 24.0 -0.04393523931503296 L 24.0 -0.25632181763648987 L 23.0 -0.25632181763648987 L 23.0 -0.010227533988654613 L 22.0 -0.010227533988654613 L 22.0 -0.19989746809005737 L 21.0 -0.19989746809005737 L 21.0 -0.11104746907949448 L 20.0 -0.11104746907949448 L 20.0 0.10423743724822998 L 19.0 0.10423743724822998 L 19.0 -0.09205836057662964 L 18.0 -0.09205836057662964 L 18.0 -0.2684113383293152 L 17.0 -0.2684113383293152 L 17.0 -0.9419363737106323 L 16.0 -0.9419363737106323 L 16.0 0.02863893285393715 L 15.0 0.02863893285393715 L 15.0 -0.05045272409915924 L 14.0 -0.05045272409915924 L 14.0 -0.021077221259474754 L 13.0 -0.021077221259474754 L 13.0 -0.001001004595309496 L 12.0 -0.001001004595309496 L 12.0 0.17888721823692322 L 11.0 0.17888721823692322 L 11.0 -0.024221494793891907 L 10.0 -0.024221494793891907 L 10.0 -0.2657032907009125 L 9.0 -0.2657032907009125 L 9.0 -0.04955179616808891 L 8.0 -0.04955179616808891 L 8.0 0.05361200496554375 L 7.0 0.05361200496554375 L 7.0 -0.3859420418739319 L 6.0 -0.3859420418739319 L 6.0 -0.1815396398305893 L 5.0 -0.1815396398305893 L 5.0 -0.017770862206816673 L 4.0 -0.017770862206816673 L 4.0 0.23354299366474152 L 3.0 0.23354299366474152 L 3.0 0.002161995507776737 L 2.0 0.002161995507776737 L 2.0 0.1697968989610672 L 1.0 0.1697968989610672 L 1.0 0.09276889264583588 L 0.0 0.09276889264583588 Z" style="vector-effect: non-scaling-stroke;" /></g></g><g style="stroke: black;stroke-width: 1.2000000000000002;" transform="matrix(1.0, 0.0, 0.0, 1.0, 0.0, 0.0)"><path d="M 0.0 0.09276889264583588 L 1.0 0.09276889264583588 L 1.0 0.1697968989610672 L 2.0 0.1697968989610672 L 2.0 0.002161995507776737 L 3.0 0.002161995507776737 L 3.0 0.23354299366474152 L 4.0 0.23354299366474152 L 4.0 -0.017770862206816673 L 5.0 -0.017770862206816673 L 5.0 -0.1815396398305893 L 6.0 -0.1815396398305893 L 6.0 -0.3859420418739319 L 7.0 -0.3859420418739319 L 7.0 0.05361200496554375 L 8.0 0.05361200496554375 L 8.0 -0.04955179616808891 L 9.0 -0.04955179616808891 L 9.0 -0.2657032907009125 L 10.0 -0.2657032907009125 L 10.0 -0.024221494793891907 L 11.0 -0.024221494793891907 L 11.0 0.17888721823692322 L 12.0 0.17888721823692322 L 12.0 -0.001001004595309496 L 13.0 -0.001001004595309496 L 13.0 -0.021077221259474754 L 14.0 -0.021077221259474754 L 14.0 -0.05045272409915924 L 15.0 -0.05045272409915924 L 15.0 0.02863893285393715 L 16.0 0.02863893285393715 L 16.0 -0.9419363737106323 L 17.0 -0.9419363737106323 L 17.0 -0.2684113383293152 L 18.0 -0.2684113383293152 L 18.0 -0.09205836057662964 L 19.0 -0.09205836057662964 L 19.0 0.10423743724822998 L 20.0 0.10423743724822998 L 20.0 -0.11104746907949448 L 21.0 -0.11104746907949448 L 21.0 -0.19989746809005737 L 22.0 -0.19989746809005737 L 22.0 -0.010227533988654613 L 23.0 -0.010227533988654613 L 23.0 -0.25632181763648987 L 24.0 -0.25632181763648987 L 24.0 -0.04393523931503296 L 25.0 -0.04393523931503296 L 25.0 -0.7180842757225037 L 26.0 -0.7180842757225037 L 26.0 -0.5836437940597534 L 27.0 -0.5836437940597534 L 27.0 -0.5095368027687073 L 28.0 -0.5095368027687073 L 28.0 -0.04574745148420334 L 29.0 -0.04574745148420334 L 29.0 -1.102038860321045 L 30.0 -1.102038860321045 L 30.0 -0.020041314885020256 L 31.0 -0.020041314885020256 L 31.0 -1.1716960668563843 L 32.0 -1.1716960668563843 L 32.0 -0.013201936148107052 L 33.0 -0.013201936148107052 L 33.0 -0.7958671450614929 L 34.0 -0.7958671450614929 L 34.0 -0.0924811065196991 L 35.0 -0.0924811065196991 L 35.0 -0.8908669948577881 L 36.0 -0.8908669948577881 L 36.0 -0.7741110920906067 L 37.0 -0.7741110920906067 L 37.0 -0.34228095412254333 L 38.0 -0.34228095412254333 L 38.0 -0.09865155816078186 L 39.0 -0.09865155816078186 L 39.0 -0.8510673642158508 L 40.0 -0.8510673642158508" style="vector-effect: non-scaling-stroke;fill:none;" /></g></g></g></g></g></g><g transform="matrix(1.0, 0.0, 0.0, 1.0, -0.19999999999999996, 0.16)"><g transform="matrix(1.0, 0.0, 0.0, 0.009999999999999995, 0.0, 0.0)"><g transform="matrix(0.01, 0.0, 0.0, 1.0, 0.0, 0.0)"><g><g><g style="fill: #add8e6;stroke: #add8e6;stroke-width: 1.2000000000000002;fill-opacity: 0.5;" transform="matrix(1.0, 0.0, 0.0, 1.0, 0.0, 0.0)"><path d="M 0.0 -2.0 L 0.0 2.0" style="vector-effect: non-scaling-stroke;fill:none;" /></g><g style="fill: #add8e6;stroke: #add8e6;stroke-width: 1.2000000000000002;fill-opacity: 0.5;" transform="matrix(1.0, 0.0, 0.0, 1.0, 0.0, 0.0)"><path d="M 0.0 0.964486837387085 L 1.0 0.964486837387085 L 1.0 0.4246067404747009 L 2.0 0.4246067404747009 L 2.0 0.20472465455532074 L 3.0 0.20472465455532074 L 3.0 0.6388545632362366 L 4.0 0.6388545632362366 L 4.0 -0.28617802262306213 L 5.0 -0.28617802262306213 L 5.0 -0.5332070589065552 L 6.0 -0.5332070589065552 L 6.0 -1.080336093902588 L 7.0 -1.080336093902588 L 7.0 0.2510523796081543 L 8.0 0.2510523796081543 L 8.0 -0.9611303210258484 L 9.0 -0.9611303210258484 L 9.0 -0.7008172273635864 L 10.0 -0.7008172273635864 L 10.0 -0.25183671712875366 L 11.0 -0.25183671712875366 L 11.0 0.44561800360679626 L 12.0 0.44561800360679626 L 12.0 -0.0947851911187172 L 13.0 -0.0947851911187172 L 13.0 -0.05777133256196976 L 14.0 -0.05777133256196976 L 14.0 -0.8126471042633057 L 15.0 -0.8126471042633057 L 15.0 0.08414575457572937 L 16.0 0.08414575457572937 L 16.0 -2.0 L 17.0 -2.0 L 17.0 -1.2578485012054443 L 18.0 -1.2578485012054443 L 18.0 -1.7855753898620605 L 19.0 -1.7855753898620605 L 19.0 0.275600790977478 L 20.0 0.275600790977478 L 20.0 -1.1541287899017334 L 21.0 -1.1541287899017334 L 21.0 -0.49941080808639526 L 22.0 -0.49941080808639526 L 22.0 -0.9684653878211975 L 23.0 -0.9684653878211975 L 23.0 -0.7033566236495972 L 24.0 -0.7033566236495972 L 24.0 -0.707781970500946 L 25.0 -0.707781970500946 L 25.0 -2.0 L 26.0 -2.0 L 26.0 -1.6326855421066284 L 27.0 -1.6326855421066284 L 27.0 -2.0 L 28.0 -2.0 L 28.0 -0.8872905373573303 L 29.0 -0.8872905373573303 L 29.0 -2.0 L 30.0 -2.0 L 30.0 -0.20854100584983826 L 31.0 -0.20854100584983826 L 31.0 -2.0 L 32.0 -2.0 L 32.0 -1.250091552734375 L 33.0 -1.250091552734375 L 33.0 -2.0 L 34.0 -2.0 L 34.0 -1.4894649982452393 L 35.0 -1.4894649982452393 L 35.0 -2.0 L 36.0 -2.0 L 36.0 -2.0 L 37.0 -2.0 L 37.0 -1.6029192209243774 L 38.0 -1.6029192209243774 L 38.0 -1.913612961769104 L 39.0 -1.913612961769104 L 39.0 -2.0 L 40.0 -2.0 L 40.0 -0.8510673642158508 L 39.0 -0.8510673642158508 L 39.0 -0.09865155816078186 L 38.0 -0.09865155816078186 L 38.0 -0.34228095412254333 L 37.0 -0.34228095412254333 L 37.0 -0.7741110920906067 L 36.0 -0.7741110920906067 L 36.0 -0.8908669948577881 L 35.0 -0.8908669948577881 L 35.0 -0.0924811065196991 L 34.0 -0.0924811065196991 L 34.0 -0.7958671450614929 L 33.0 -0.7958671450614929 L 33.0 -0.013201936148107052 L 32.0 -0.013201936148107052 L 32.0 -1.1716960668563843 L 31.0 -1.1716960668563843 L 31.0 -0.020041314885020256 L 30.0 -0.020041314885020256 L 30.0 -1.102038860321045 L 29.0 -1.102038860321045 L 29.0 -0.04574745148420334 L 28.0 -0.04574745148420334 L 28.0 -0.5095368027687073 L 27.0 -0.5095368027687073 L 27.0 -0.5836437940597534 L 26.0 -0.5836437940597534 L 26.0 -0.7180842757225037 L 25.0 -0.7180842757225037 L 25.0 -0.04393523931503296 L 24.0 -0.04393523931503296 L 24.0 -0.25632181763648987 L 23.0 -0.25632181763648987 L 23.0 -0.010227533988654613 L 22.0 -0.010227533988654613 L 22.0 -0.19989746809005737 L 21.0 -0.19989746809005737 L 21.0 -0.11104746907949448 L 20.0 -0.11104746907949448 L 20.0 0.10423743724822998 L 19.0 0.10423743724822998 L 19.0 -0.09205836057662964 L 18.0 -0.09205836057662964 L 18.0 -0.2684113383293152 L 17.0 -0.2684113383293152 L 17.0 -0.9419363737106323 L 16.0 -0.9419363737106323 L 16.0 0.02863893285393715 L 15.0 0.02863893285393715 L 15.0 -0.05045272409915924 L 14.0 -0.05045272409915924 L 14.0 -0.021077221259474754 L 13.0 -0.021077221259474754 L 13.0 -0.001001004595309496 L 12.0 -0.001001004595309496 L 12.0 0.17888721823692322 L 11.0 0.17888721823692322 L 11.0 -0.024221494793891907 L 10.0 -0.024221494793891907 L 10.0 -0.2657032907009125 L 9.0 -0.2657032907009125 L 9.0 -0.04955179616808891 L 8.0 -0.04955179616808891 L 8.0 0.05361200496554375 L 7.0 0.05361200496554375 L 7.0 -0.3859420418739319 L 6.0 -0.3859420418739319 L 6.0 -0.1815396398305893 L 5.0 -0.1815396398305893 L 5.0 -0.017770862206816673 L 4.0 -0.017770862206816673 L 4.0 0.23354299366474152 L 3.0 0.23354299366474152 L 3.0 0.002161995507776737 L 2.0 0.002161995507776737 L 2.0 0.1697968989610672 L 1.0 0.1697968989610672 L 1.0 0.09276889264583588 L 0.0 0.09276889264583588 Z" style="vector-effect: non-scaling-stroke;" /></g></g><g style="stroke: black;stroke-width: 1.2000000000000002;" transform="matrix(1.0, 0.0, 0.0, 1.0, 0.0, 0.0)"><path d="M 0.0 0.09276889264583588 L 1.0 0.09276889264583588 L 1.0 0.1697968989610672 L 2.0 0.1697968989610672 L 2.0 0.002161995507776737 L 3.0 0.002161995507776737 L 3.0 0.23354299366474152 L 4.0 0.23354299366474152 L 4.0 -0.017770862206816673 L 5.0 -0.017770862206816673 L 5.0 -0.1815396398305893 L 6.0 -0.1815396398305893 L 6.0 -0.3859420418739319 L 7.0 -0.3859420418739319 L 7.0 0.05361200496554375 L 8.0 0.05361200496554375 L 8.0 -0.04955179616808891 L 9.0 -0.04955179616808891 L 9.0 -0.2657032907009125 L 10.0 -0.2657032907009125 L 10.0 -0.024221494793891907 L 11.0 -0.024221494793891907 L 11.0 0.17888721823692322 L 12.0 0.17888721823692322 L 12.0 -0.001001004595309496 L 13.0 -0.001001004595309496 L 13.0 -0.021077221259474754 L 14.0 -0.021077221259474754 L 14.0 -0.05045272409915924 L 15.0 -0.05045272409915924 L 15.0 0.02863893285393715 L 16.0 0.02863893285393715 L 16.0 -0.9419363737106323 L 17.0 -0.9419363737106323 L 17.0 -0.2684113383293152 L 18.0 -0.2684113383293152 L 18.0 -0.09205836057662964 L 19.0 -0.09205836057662964 L 19.0 0.10423743724822998 L 20.0 0.10423743724822998 L 20.0 -0.11104746907949448 L 21.0 -0.11104746907949448 L 21.0 -0.19989746809005737 L 22.0 -0.19989746809005737 L 22.0 -0.010227533988654613 L 23.0 -0.010227533988654613 L 23.0 -0.25632181763648987 L 24.0 -0.25632181763648987 L 24.0 -0.04393523931503296 L 25.0 -0.04393523931503296 L 25.0 -0.7180842757225037 L 26.0 -0.7180842757225037 L 26.0 -0.5836437940597534 L 27.0 -0.5836437940597534 L 27.0 -0.5095368027687073 L 28.0 -0.5095368027687073 L 28.0 -0.04574745148420334 L 29.0 -0.04574745148420334 L 29.0 -1.102038860321045 L 30.0 -1.102038860321045 L 30.0 -0.020041314885020256 L 31.0 -0.020041314885020256 L 31.0 -1.1716960668563843 L 32.0 -1.1716960668563843 L 32.0 -0.013201936148107052 L 33.0 -0.013201936148107052 L 33.0 -0.7958671450614929 L 34.0 -0.7958671450614929 L 34.0 -0.0924811065196991 L 35.0 -0.0924811065196991 L 35.0 -0.8908669948577881 L 36.0 -0.8908669948577881 L 36.0 -0.7741110920906067 L 37.0 -0.7741110920906067 L 37.0 -0.34228095412254333 L 38.0 -0.34228095412254333 L 38.0 -0.09865155816078186 L 39.0 -0.09865155816078186 L 39.0 -0.8510673642158508 L 40.0 -0.8510673642158508" style="vector-effect: non-scaling-stroke;fill:none;" /></g></g></g></g></g></g><g transform="matrix(1.0, 0.0, 0.0, 1.0, -0.19999999999999996, 0.16)"><g transform="matrix(1.0, 0.0, 0.0, 0.009999999999999995, 0.0, 0.0)"><g transform="matrix(0.01, 0.0, 0.0, 1.0, 0.0, 0.0)"><g><g><g style="fill: #ff8c00;stroke: #ff8c00;stroke-width: 1.2000000000000002;fill-opacity: 0.5;" transform="matrix(1.0, 0.0, 0.0, 1.0, 0.0, 0.0)"><path d="M 0.0 -2.0 L 0.0 2.0" style="vector-effect: non-scaling-stroke;fill:none;" /></g><g style="fill: #ff8c00;stroke: #ff8c00;stroke-width: 1.2000000000000002;fill-opacity: 0.5;" transform="matrix(1.0, 0.0, 0.0, 1.0, 0.0, 0.0)"><path d="M 0.0 0.09276889264583588 L 1.0 0.09276889264583588 L 1.0 0.1697968989610672 L 2.0 0.1697968989610672 L 2.0 0.002161995507776737 L 3.0 0.002161995507776737 L 3.0 0.23354299366474152 L 4.0 0.23354299366474152 L 4.0 -0.017770862206816673 L 5.0 -0.017770862206816673 L 5.0 -0.1815396398305893 L 6.0 -0.1815396398305893 L 6.0 -0.3859420418739319 L 7.0 -0.3859420418739319 L 7.0 0.05361200496554375 L 8.0 0.05361200496554375 L 8.0 -0.04955179616808891 L 9.0 -0.04955179616808891 L 9.0 -0.2657032907009125 L 10.0 -0.2657032907009125 L 10.0 -0.024221494793891907 L 11.0 -0.024221494793891907 L 11.0 0.17888721823692322 L 12.0 0.17888721823692322 L 12.0 -0.001001004595309496 L 13.0 -0.001001004595309496 L 13.0 -0.021077221259474754 L 14.0 -0.021077221259474754 L 14.0 -0.05045272409915924 L 15.0 -0.05045272409915924 L 15.0 0.02863893285393715 L 16.0 0.02863893285393715 L 16.0 -0.9419363737106323 L 17.0 -0.9419363737106323 L 17.0 -0.2684113383293152 L 18.0 -0.2684113383293152 L 18.0 -0.09205836057662964 L 19.0 -0.09205836057662964 L 19.0 0.10423743724822998 L 20.0 0.10423743724822998 L 20.0 -0.11104746907949448 L 21.0 -0.11104746907949448 L 21.0 -0.19989746809005737 L 22.0 -0.19989746809005737 L 22.0 -0.010227533988654613 L 23.0 -0.010227533988654613 L 23.0 -0.25632181763648987 L 24.0 -0.25632181763648987 L 24.0 -0.04393523931503296 L 25.0 -0.04393523931503296 L 25.0 -0.7180842757225037 L 26.0 -0.7180842757225037 L 26.0 -0.5836437940597534 L 27.0 -0.5836437940597534 L 27.0 -0.5095368027687073 L 28.0 -0.5095368027687073 L 28.0 -0.04574745148420334 L 29.0 -0.04574745148420334 L 29.0 -1.102038860321045 L 30.0 -1.102038860321045 L 30.0 -0.020041314885020256 L 31.0 -0.020041314885020256 L 31.0 -1.1716960668563843 L 32.0 -1.1716960668563843 L 32.0 -0.013201936148107052 L 33.0 -0.013201936148107052 L 33.0 -0.7958671450614929 L 34.0 -0.7958671450614929 L 34.0 -0.0924811065196991 L 35.0 -0.0924811065196991 L 35.0 -0.8908669948577881 L 36.0 -0.8908669948577881 L 36.0 -0.7741110920906067 L 37.0 -0.7741110920906067 L 37.0 -0.34228095412254333 L 38.0 -0.34228095412254333 L 38.0 -0.09865155816078186 L 39.0 -0.09865155816078186 L 39.0 -0.8510673642158508 L 40.0 -0.8510673642158508 L 40.0 -0.8510673642158508 L 39.0 -0.8510673642158508 L 39.0 -0.09865155816078186 L 38.0 -0.09865155816078186 L 38.0 -0.34228095412254333 L 37.0 -0.34228095412254333 L 37.0 -0.7741110920906067 L 36.0 -0.7741110920906067 L 36.0 -0.8908669948577881 L 35.0 -0.8908669948577881 L 35.0 -0.0924811065196991 L 34.0 -0.0924811065196991 L 34.0 -0.7958671450614929 L 33.0 -0.7958671450614929 L 33.0 -0.013201936148107052 L 32.0 -0.013201936148107052 L 32.0 -1.1716960668563843 L 31.0 -1.1716960668563843 L 31.0 -0.020041314885020256 L 30.0 -0.020041314885020256 L 30.0 -1.102038860321045 L 29.0 -1.102038860321045 L 29.0 -0.04574745148420334 L 28.0 -0.04574745148420334 L 28.0 -0.5095368027687073 L 27.0 -0.5095368027687073 L 27.0 -0.5836437940597534 L 26.0 -0.5836437940597534 L 26.0 -0.7180842757225037 L 25.0 -0.7180842757225037 L 25.0 -0.04393523931503296 L 24.0 -0.04393523931503296 L 24.0 -0.25632181763648987 L 23.0 -0.25632181763648987 L 23.0 -0.010227533988654613 L 22.0 -0.010227533988654613 L 22.0 -0.19989746809005737 L 21.0 -0.19989746809005737 L 21.0 -0.11104746907949448 L 20.0 -0.11104746907949448 L 20.0 0.10423743724822998 L 19.0 0.10423743724822998 L 19.0 -0.09205836057662964 L 18.0 -0.09205836057662964 L 18.0 -0.2684113383293152 L 17.0 -0.2684113383293152 L 17.0 -0.9419363737106323 L 16.0 -0.9419363737106323 L 16.0 0.02863893285393715 L 15.0 0.02863893285393715 L 15.0 -0.05045272409915924 L 14.0 -0.05045272409915924 L 14.0 -0.021077221259474754 L 13.0 -0.021077221259474754 L 13.0 -0.001001004595309496 L 12.0 -0.001001004595309496 L 12.0 0.17888721823692322 L 11.0 0.17888721823692322 L 11.0 -0.024221494793891907 L 10.0 -0.024221494793891907 L 10.0 -0.2657032907009125 L 9.0 -0.2657032907009125 L 9.0 -0.04955179616808891 L 8.0 -0.04955179616808891 L 8.0 0.05361200496554375 L 7.0 0.05361200496554375 L 7.0 -0.3859420418739319 L 6.0 -0.3859420418739319 L 6.0 -0.1815396398305893 L 5.0 -0.1815396398305893 L 5.0 -0.017770862206816673 L 4.0 -0.017770862206816673 L 4.0 0.23354299366474152 L 3.0 0.23354299366474152 L 3.0 0.002161995507776737 L 2.0 0.002161995507776737 L 2.0 0.1697968989610672 L 1.0 0.1697968989610672 L 1.0 0.09276889264583588 L 0.0 0.09276889264583588 Z" style="vector-effect: non-scaling-stroke;" /></g></g><g style="stroke: black;stroke-width: 1.2000000000000002;" transform="matrix(1.0, 0.0, 0.0, 1.0, 0.0, 0.0)"><path d="M 0.0 0.09276889264583588 L 1.0 0.09276889264583588 L 1.0 0.1697968989610672 L 2.0 0.1697968989610672 L 2.0 0.002161995507776737 L 3.0 0.002161995507776737 L 3.0 0.23354299366474152 L 4.0 0.23354299366474152 L 4.0 -0.017770862206816673 L 5.0 -0.017770862206816673 L 5.0 -0.1815396398305893 L 6.0 -0.1815396398305893 L 6.0 -0.3859420418739319 L 7.0 -0.3859420418739319 L 7.0 0.05361200496554375 L 8.0 0.05361200496554375 L 8.0 -0.04955179616808891 L 9.0 -0.04955179616808891 L 9.0 -0.2657032907009125 L 10.0 -0.2657032907009125 L 10.0 -0.024221494793891907 L 11.0 -0.024221494793891907 L 11.0 0.17888721823692322 L 12.0 0.17888721823692322 L 12.0 -0.001001004595309496 L 13.0 -0.001001004595309496 L 13.0 -0.021077221259474754 L 14.0 -0.021077221259474754 L 14.0 -0.05045272409915924 L 15.0 -0.05045272409915924 L 15.0 0.02863893285393715 L 16.0 0.02863893285393715 L 16.0 -0.9419363737106323 L 17.0 -0.9419363737106323 L 17.0 -0.2684113383293152 L 18.0 -0.2684113383293152 L 18.0 -0.09205836057662964 L 19.0 -0.09205836057662964 L 19.0 0.10423743724822998 L 20.0 0.10423743724822998 L 20.0 -0.11104746907949448 L 21.0 -0.11104746907949448 L 21.0 -0.19989746809005737 L 22.0 -0.19989746809005737 L 22.0 -0.010227533988654613 L 23.0 -0.010227533988654613 L 23.0 -0.25632181763648987 L 24.0 -0.25632181763648987 L 24.0 -0.04393523931503296 L 25.0 -0.04393523931503296 L 25.0 -0.7180842757225037 L 26.0 -0.7180842757225037 L 26.0 -0.5836437940597534 L 27.0 -0.5836437940597534 L 27.0 -0.5095368027687073 L 28.0 -0.5095368027687073 L 28.0 -0.04574745148420334 L 29.0 -0.04574745148420334 L 29.0 -1.102038860321045 L 30.0 -1.102038860321045 L 30.0 -0.020041314885020256 L 31.0 -0.020041314885020256 L 31.0 -1.1716960668563843 L 32.0 -1.1716960668563843 L 32.0 -0.013201936148107052 L 33.0 -0.013201936148107052 L 33.0 -0.7958671450614929 L 34.0 -0.7958671450614929 L 34.0 -0.0924811065196991 L 35.0 -0.0924811065196991 L 35.0 -0.8908669948577881 L 36.0 -0.8908669948577881 L 36.0 -0.7741110920906067 L 37.0 -0.7741110920906067 L 37.0 -0.34228095412254333 L 38.0 -0.34228095412254333 L 38.0 -0.09865155816078186 L 39.0 -0.09865155816078186 L 39.0 -0.8510673642158508 L 40.0 -0.8510673642158508" style="vector-effect: non-scaling-stroke;fill:none;" /></g></g></g></g></g></g><g transform="matrix(1.0, 0.0, 0.0, 1.0, -0.19999999999999996, 0.16)"><g transform="matrix(1.0, 0.0, 0.0, 0.009999999999999995, 0.0, 0.0)"><g transform="matrix(0.01, 0.0, 0.0, 1.0, 0.0, 0.0)"><g><g><g style="fill: #0000ff;stroke: #0000ff;stroke-width: 1.2000000000000002;fill-opacity: 0.5;" transform="matrix(1.0, 0.0, 0.0, 1.0, 0.0, 0.0)"><path d="M 0.0 -2.0 L 0.0 2.0" style="vector-effect: non-scaling-stroke;fill:none;" /></g><g style="fill: #0000ff;stroke: #0000ff;stroke-width: 1.2000000000000002;fill-opacity: 0.5;" transform="matrix(1.0, 0.0, 0.0, 1.0, 0.0, 0.0)"><path d="M 0.0 0.09276889264583588 L 1.0 0.09276889264583588 L 1.0 0.1697968989610672 L 2.0 0.1697968989610672 L 2.0 0.002161995507776737 L 3.0 0.002161995507776737 L 3.0 0.23354299366474152 L 4.0 0.23354299366474152 L 4.0 -0.017770862206816673 L 5.0 -0.017770862206816673 L 5.0 -0.1815396398305893 L 6.0 -0.1815396398305893 L 6.0 -0.3859420418739319 L 7.0 -0.3859420418739319 L 7.0 0.05361200496554375 L 8.0 0.05361200496554375 L 8.0 -0.04955179616808891 L 9.0 -0.04955179616808891 L 9.0 -0.2657032907009125 L 10.0 -0.2657032907009125 L 10.0 -0.024221494793891907 L 11.0 -0.024221494793891907 L 11.0 0.17888721823692322 L 12.0 0.17888721823692322 L 12.0 -0.001001004595309496 L 13.0 -0.001001004595309496 L 13.0 -0.021077221259474754 L 14.0 -0.021077221259474754 L 14.0 -0.05045272409915924 L 15.0 -0.05045272409915924 L 15.0 0.02863893285393715 L 16.0 0.02863893285393715 L 16.0 -0.9419363737106323 L 17.0 -0.9419363737106323 L 17.0 -0.2684113383293152 L 18.0 -0.2684113383293152 L 18.0 -0.09205836057662964 L 19.0 -0.09205836057662964 L 19.0 0.10423743724822998 L 20.0 0.10423743724822998 L 20.0 -0.11104746907949448 L 21.0 -0.11104746907949448 L 21.0 -0.19989746809005737 L 22.0 -0.19989746809005737 L 22.0 -0.010227533988654613 L 23.0 -0.010227533988654613 L 23.0 -0.25632181763648987 L 24.0 -0.25632181763648987 L 24.0 -0.04393523931503296 L 25.0 -0.04393523931503296 L 25.0 -0.7180842757225037 L 26.0 -0.7180842757225037 L 26.0 -0.5836437940597534 L 27.0 -0.5836437940597534 L 27.0 -0.5095368027687073 L 28.0 -0.5095368027687073 L 28.0 -0.04574745148420334 L 29.0 -0.04574745148420334 L 29.0 -1.102038860321045 L 30.0 -1.102038860321045 L 30.0 -0.020041314885020256 L 31.0 -0.020041314885020256 L 31.0 -1.1716960668563843 L 32.0 -1.1716960668563843 L 32.0 -0.013201936148107052 L 33.0 -0.013201936148107052 L 33.0 -0.7958671450614929 L 34.0 -0.7958671450614929 L 34.0 -0.0924811065196991 L 35.0 -0.0924811065196991 L 35.0 -0.8908669948577881 L 36.0 -0.8908669948577881 L 36.0 -0.7741110920906067 L 37.0 -0.7741110920906067 L 37.0 -0.34228095412254333 L 38.0 -0.34228095412254333 L 38.0 -0.09865155816078186 L 39.0 -0.09865155816078186 L 39.0 -0.8510673642158508 L 40.0 -0.8510673642158508 L 40.0 -0.8510673642158508 L 39.0 -0.8510673642158508 L 39.0 -0.09865155816078186 L 38.0 -0.09865155816078186 L 38.0 -0.34228095412254333 L 37.0 -0.34228095412254333 L 37.0 -0.7741110920906067 L 36.0 -0.7741110920906067 L 36.0 -0.8908669948577881 L 35.0 -0.8908669948577881 L 35.0 -0.0924811065196991 L 34.0 -0.0924811065196991 L 34.0 -0.7958671450614929 L 33.0 -0.7958671450614929 L 33.0 -0.013201936148107052 L 32.0 -0.013201936148107052 L 32.0 -1.1716960668563843 L 31.0 -1.1716960668563843 L 31.0 -0.020041314885020256 L 30.0 -0.020041314885020256 L 30.0 -1.102038860321045 L 29.0 -1.102038860321045 L 29.0 -0.04574745148420334 L 28.0 -0.04574745148420334 L 28.0 -0.5095368027687073 L 27.0 -0.5095368027687073 L 27.0 -0.5836437940597534 L 26.0 -0.5836437940597534 L 26.0 -0.7180842757225037 L 25.0 -0.7180842757225037 L 25.0 -0.04393523931503296 L 24.0 -0.04393523931503296 L 24.0 -0.25632181763648987 L 23.0 -0.25632181763648987 L 23.0 -0.010227533988654613 L 22.0 -0.010227533988654613 L 22.0 -0.19989746809005737 L 21.0 -0.19989746809005737 L 21.0 -0.11104746907949448 L 20.0 -0.11104746907949448 L 20.0 0.10423743724822998 L 19.0 0.10423743724822998 L 19.0 -0.09205836057662964 L 18.0 -0.09205836057662964 L 18.0 -0.2684113383293152 L 17.0 -0.2684113383293152 L 17.0 -0.9419363737106323 L 16.0 -0.9419363737106323 L 16.0 0.02863893285393715 L 15.0 0.02863893285393715 L 15.0 -0.05045272409915924 L 14.0 -0.05045272409915924 L 14.0 -0.021077221259474754 L 13.0 -0.021077221259474754 L 13.0 -0.001001004595309496 L 12.0 -0.001001004595309496 L 12.0 0.17888721823692322 L 11.0 0.17888721823692322 L 11.0 -0.024221494793891907 L 10.0 -0.024221494793891907 L 10.0 -0.2657032907009125 L 9.0 -0.2657032907009125 L 9.0 -0.04955179616808891 L 8.0 -0.04955179616808891 L 8.0 0.05361200496554375 L 7.0 0.05361200496554375 L 7.0 -0.3859420418739319 L 6.0 -0.3859420418739319 L 6.0 -0.1815396398305893 L 5.0 -0.1815396398305893 L 5.0 -0.017770862206816673 L 4.0 -0.017770862206816673 L 4.0 0.23354299366474152 L 3.0 0.23354299366474152 L 3.0 0.002161995507776737 L 2.0 0.002161995507776737 L 2.0 0.1697968989610672 L 1.0 0.1697968989610672 L 1.0 0.09276889264583588 L 0.0 0.09276889264583588 Z" style="vector-effect: non-scaling-stroke;" /></g></g><g style="stroke: black;stroke-width: 1.2000000000000002;" transform="matrix(1.0, 0.0, 0.0, 1.0, 0.0, 0.0)"><path d="M 0.0 0.09276889264583588 L 1.0 0.09276889264583588 L 1.0 0.1697968989610672 L 2.0 0.1697968989610672 L 2.0 0.002161995507776737 L 3.0 0.002161995507776737 L 3.0 0.23354299366474152 L 4.0 0.23354299366474152 L 4.0 -0.017770862206816673 L 5.0 -0.017770862206816673 L 5.0 -0.1815396398305893 L 6.0 -0.1815396398305893 L 6.0 -0.3859420418739319 L 7.0 -0.3859420418739319 L 7.0 0.05361200496554375 L 8.0 0.05361200496554375 L 8.0 -0.04955179616808891 L 9.0 -0.04955179616808891 L 9.0 -0.2657032907009125 L 10.0 -0.2657032907009125 L 10.0 -0.024221494793891907 L 11.0 -0.024221494793891907 L 11.0 0.17888721823692322 L 12.0 0.17888721823692322 L 12.0 -0.001001004595309496 L 13.0 -0.001001004595309496 L 13.0 -0.021077221259474754 L 14.0 -0.021077221259474754 L 14.0 -0.05045272409915924 L 15.0 -0.05045272409915924 L 15.0 0.02863893285393715 L 16.0 0.02863893285393715 L 16.0 -0.9419363737106323 L 17.0 -0.9419363737106323 L 17.0 -0.2684113383293152 L 18.0 -0.2684113383293152 L 18.0 -0.09205836057662964 L 19.0 -0.09205836057662964 L 19.0 0.10423743724822998 L 20.0 0.10423743724822998 L 20.0 -0.11104746907949448 L 21.0 -0.11104746907949448 L 21.0 -0.19989746809005737 L 22.0 -0.19989746809005737 L 22.0 -0.010227533988654613 L 23.0 -0.010227533988654613 L 23.0 -0.25632181763648987 L 24.0 -0.25632181763648987 L 24.0 -0.04393523931503296 L 25.0 -0.04393523931503296 L 25.0 -0.7180842757225037 L 26.0 -0.7180842757225037 L 26.0 -0.5836437940597534 L 27.0 -0.5836437940597534 L 27.0 -0.5095368027687073 L 28.0 -0.5095368027687073 L 28.0 -0.04574745148420334 L 29.0 -0.04574745148420334 L 29.0 -1.102038860321045 L 30.0 -1.102038860321045 L 30.0 -0.020041314885020256 L 31.0 -0.020041314885020256 L 31.0 -1.1716960668563843 L 32.0 -1.1716960668563843 L 32.0 -0.013201936148107052 L 33.0 -0.013201936148107052 L 33.0 -0.7958671450614929 L 34.0 -0.7958671450614929 L 34.0 -0.0924811065196991 L 35.0 -0.0924811065196991 L 35.0 -0.8908669948577881 L 36.0 -0.8908669948577881 L 36.0 -0.7741110920906067 L 37.0 -0.7741110920906067 L 37.0 -0.34228095412254333 L 38.0 -0.34228095412254333 L 38.0 -0.09865155816078186 L 39.0 -0.09865155816078186 L 39.0 -0.8510673642158508 L 40.0 -0.8510673642158508" style="vector-effect: non-scaling-stroke;fill:none;" /></g></g></g></g></g></g></g></g><g><g><g><g><g><g><g transform="matrix(1.0, 0.0, 0.0, 1.0, -0.4149999999999999, -0.03)"><g><g><g transform="matrix(1.0, 0.0, 0.0, 1.0, 0.075, 0.0)"><g transform="matrix(1.0, 0.0, 0.0, 1.0, 0.0, 0.03)"><g transform="matrix(0.01, 0.0, 0.0, 0.01, 0.0, 0.0)"><g><g><g transform="matrix(1.0, 0.0, 0.0, 1.0, 20.0, 0.0)"><g transform="matrix(1.0, 0.0, 0.0, 1.0, -27.5, -0.0)"><g><g style="fill: #d3d3d3;stroke: black;stroke-width: 1.2000000000000002;" transform="matrix(1.0, 0.0, 0.0, 1.0, 0.0, -3.0)"><path d="M 0.0 0.0 L 55.0 0.0 L 55.0 6.0 L 0.0 6.0 L 0.0 0.0 Z" style="vector-effect: non-scaling-stroke;" /></g><g transform="matrix(1.0, 0.0, 0.0, 1.0, 1.875, 0.0)"><g><g style="stroke: black;stroke-width: 1.2000000000000002;" transform="matrix(1.0, 0.0, 0.0, 1.0, 0.0, 0.0)"><g /></g><g style="fill: #ffa500;stroke: black;stroke-width: 1.2000000000000002;" transform="matrix(1.0, 0.0, 0.0, 1.0, 1.875, 0.0)"><text style="text-align:center; text-anchor:middle; dominant-baseline:middle;&#10;                      font-family:sans-serif; font-weight: bold;&#10;                      font-size:3px;&#10;                      vector-effect: non-scaling-stroke;" transform="translate(-5e-05, 0)">x</text></g></g></g></g></g></g><g><g><g><g><g><g><g><g style="stroke: black;stroke-width: 1.2000000000000002;" transform="matrix(1.0, 0.0, 0.0, 1.0, 0.0, 0.0)"><path d="M 0.0 -2.0 L 0.0 2.0" style="vector-effect: non-scaling-stroke;fill:none;" /></g><g style="stroke: #808080;stroke-width: 0.6000000000000001;" transform="matrix(1.0, 0.0, 0.0, 1.0, 0.0, 0.0)"><path d="M 0.0 0.0 L 40.0 0.0" style="vector-effect: non-scaling-stroke;fill:none;" /></g></g><g style="stroke: black;stroke-width: 2.4000000000000004;" transform="matrix(1.0, 0.0, 0.0, 1.0, 0.0, 0.0)"><path d="M 0.0 0.871941864490509 L 1.0 0.871941864490509 L 1.0 0.2536965608596802 L 2.0 0.2536965608596802 L 2.0 0.20256835222244263 L 3.0 0.20256835222244263 L 3.0 0.40527454018592834 L 4.0 0.40527454018592834 L 4.0 -0.26852527260780334 L 5.0 -0.26852527260780334 L 5.0 -0.35136839747428894 L 6.0 -0.35136839747428894 L 6.0 -0.6916482448577881 L 7.0 -0.6916482448577881 L 7.0 0.1972484141588211 L 8.0 0.1972484141588211 L 8.0 -0.9115141034126282 L 9.0 -0.9115141034126282 L 9.0 -0.4357282519340515 L 10.0 -0.4357282519340515 L 10.0 -0.227659672498703 L 11.0 -0.227659672498703 L 11.0 0.2672785520553589 L 12.0 0.2672785520553589 L 12.0 -0.09378920495510101 L 13.0 -0.09378920495510101 L 13.0 -0.03657596930861473 L 14.0 -0.03657596930861473 L 14.0 -0.7623620629310608 L 15.0 -0.7623620629310608 L 15.0 0.05543040484189987 L 16.0 0.05543040484189987 L 16.0 -1.6880478858947754 L 17.0 -1.6880478858947754 L 17.0 -0.9875346422195435 L 18.0 -0.9875346422195435 L 18.0 -1.693429946899414 L 19.0 -1.693429946899414 L 19.0 0.17093953490257263 L 20.0 0.17093953490257263 L 20.0 -1.04374361038208 L 21.0 -1.04374361038208 L 21.0 -0.29867035150527954 L 22.0 -0.29867035150527954 L 22.0 -0.9582696557044983 L 23.0 -0.9582696557044983 L 23.0 -0.444803386926651 L 24.0 -0.444803386926651 L 24.0 -0.6638801097869873 L 25.0 -0.6638801097869873 L 25.0 -1.389845848083496 L 26.0 -1.389845848083496 L 26.0 -1.0459502935409546 L 27.0 -1.0459502935409546 L 27.0 -1.874679446220398 L 28.0 -1.874679446220398 L 28.0 -0.8415325284004211 L 29.0 -0.8415325284004211 L 29.0 -1.8072394132614136 L 30.0 -1.8072394132614136 L 30.0 -0.18836985528469086 L 31.0 -0.18836985528469086 L 31.0 -1.7506518363952637 L 32.0 -1.7506518363952637 L 32.0 -1.2369564771652222 L 33.0 -1.2369564771652222 L 33.0 -1.3810935020446777 L 34.0 -1.3810935020446777 L 34.0 -1.3974287509918213 L 35.0 -1.3974287509918213 L 35.0 -1.7242653369903564 L 36.0 -1.7242653369903564 L 36.0 -1.3872874975204468 L 37.0 -1.3872874975204468 L 37.0 -1.2593145370483398 L 38.0 -1.2593145370483398 L 38.0 -1.8147130012512207 L 39.0 -1.8147130012512207 L 39.0 -1.395669937133789 L 40.0 -1.395669937133789" style="vector-effect: non-scaling-stroke;fill:none;" /></g></g><g style="stroke: black;stroke-width: 1.2000000000000002;" transform="matrix(1.0, 0.0, 0.0, 1.0, 0.0, 0.0)"><path d="M 0.0 -2.0 L 0.0 2.0" style="vector-effect: non-scaling-stroke;fill:none;" /></g></g><g style="stroke: black;stroke-width: 1.2000000000000002;" transform="matrix(1.0, 0.0, 0.0, 1.0, 0.0, 0.0)"><path d="M 10.0 -2.0 L 10.0 2.0" style="vector-effect: non-scaling-stroke;fill:none;" /></g></g><g style="stroke: black;stroke-width: 1.2000000000000002;" transform="matrix(1.0, 0.0, 0.0, 1.0, 0.0, 0.0)"><path d="M 20.0 -2.0 L 20.0 2.0" style="vector-effect: non-scaling-stroke;fill:none;" /></g></g><g style="stroke: black;stroke-width: 1.2000000000000002;" transform="matrix(1.0, 0.0, 0.0, 1.0, 0.0, 0.0)"><path d="M 30.0 -2.0 L 30.0 2.0" style="vector-effect: non-scaling-stroke;fill:none;" /></g></g></g></g><g><g><g><g><g><g><g><g style="stroke: black;stroke-width: 1.2000000000000002;" transform="matrix(1.0, 0.0, 0.0, 1.0, 0.0, 0.0)"><path d="M 0.0 -2.0 L 0.0 2.0" style="vector-effect: non-scaling-stroke;fill:none;" /></g><g style="stroke: #808080;stroke-width: 0.6000000000000001;" transform="matrix(1.0, 0.0, 0.0, 1.0, 0.0, 0.0)"><path d="M 0.0 0.0 L 40.0 0.0" style="vector-effect: non-scaling-stroke;fill:none;" /></g></g><g style="stroke: black;stroke-width: 2.4000000000000004;" transform="matrix(1.0, 0.0, 0.0, 1.0, 0.0, 0.0)"><path d="M 0.0 0.871941864490509 L 1.0 0.871941864490509 L 1.0 0.2536965608596802 L 2.0 0.2536965608596802 L 2.0 0.20256835222244263 L 3.0 0.20256835222244263 L 3.0 0.40527454018592834 L 4.0 0.40527454018592834 L 4.0 -0.26852527260780334 L 5.0 -0.26852527260780334 L 5.0 -0.35136839747428894 L 6.0 -0.35136839747428894 L 6.0 -0.6916482448577881 L 7.0 -0.6916482448577881 L 7.0 0.1972484141588211 L 8.0 0.1972484141588211 L 8.0 -0.9115141034126282 L 9.0 -0.9115141034126282 L 9.0 -0.4357282519340515 L 10.0 -0.4357282519340515 L 10.0 -0.227659672498703 L 11.0 -0.227659672498703 L 11.0 0.2672785520553589 L 12.0 0.2672785520553589 L 12.0 -0.09378920495510101 L 13.0 -0.09378920495510101 L 13.0 -0.03657596930861473 L 14.0 -0.03657596930861473 L 14.0 -0.7623620629310608 L 15.0 -0.7623620629310608 L 15.0 0.05543040484189987 L 16.0 0.05543040484189987 L 16.0 -1.6880478858947754 L 17.0 -1.6880478858947754 L 17.0 -0.9875346422195435 L 18.0 -0.9875346422195435 L 18.0 -1.693429946899414 L 19.0 -1.693429946899414 L 19.0 0.17093953490257263 L 20.0 0.17093953490257263 L 20.0 -1.04374361038208 L 21.0 -1.04374361038208 L 21.0 -0.29867035150527954 L 22.0 -0.29867035150527954 L 22.0 -0.9582696557044983 L 23.0 -0.9582696557044983 L 23.0 -0.444803386926651 L 24.0 -0.444803386926651 L 24.0 -0.6638801097869873 L 25.0 -0.6638801097869873 L 25.0 -1.389845848083496 L 26.0 -1.389845848083496 L 26.0 -1.0459502935409546 L 27.0 -1.0459502935409546 L 27.0 -1.874679446220398 L 28.0 -1.874679446220398 L 28.0 -0.8415325284004211 L 29.0 -0.8415325284004211 L 29.0 -1.8072394132614136 L 30.0 -1.8072394132614136 L 30.0 -0.18836985528469086 L 31.0 -0.18836985528469086 L 31.0 -1.7506518363952637 L 32.0 -1.7506518363952637 L 32.0 -1.2369564771652222 L 33.0 -1.2369564771652222 L 33.0 -1.3810935020446777 L 34.0 -1.3810935020446777 L 34.0 -1.3974287509918213 L 35.0 -1.3974287509918213 L 35.0 -1.7242653369903564 L 36.0 -1.7242653369903564 L 36.0 -1.3872874975204468 L 37.0 -1.3872874975204468 L 37.0 -1.2593145370483398 L 38.0 -1.2593145370483398 L 38.0 -1.8147130012512207 L 39.0 -1.8147130012512207 L 39.0 -1.395669937133789 L 40.0 -1.395669937133789" style="vector-effect: non-scaling-stroke;fill:none;" /></g></g><g style="stroke: black;stroke-width: 1.2000000000000002;" transform="matrix(1.0, 0.0, 0.0, 1.0, 0.0, 0.0)"><path d="M 0.0 -2.0 L 0.0 2.0" style="vector-effect: non-scaling-stroke;fill:none;" /></g></g><g style="stroke: black;stroke-width: 1.2000000000000002;" transform="matrix(1.0, 0.0, 0.0, 1.0, 0.0, 0.0)"><path d="M 10.0 -2.0 L 10.0 2.0" style="vector-effect: non-scaling-stroke;fill:none;" /></g></g><g style="stroke: black;stroke-width: 1.2000000000000002;" transform="matrix(1.0, 0.0, 0.0, 1.0, 0.0, 0.0)"><path d="M 20.0 -2.0 L 20.0 2.0" style="vector-effect: non-scaling-stroke;fill:none;" /></g></g><g style="stroke: black;stroke-width: 1.2000000000000002;" transform="matrix(1.0, 0.0, 0.0, 1.0, 0.0, 0.0)"><path d="M 30.0 -2.0 L 30.0 2.0" style="vector-effect: non-scaling-stroke;fill:none;" /></g></g></g></g></g></g></g><g style="stroke: black;stroke-width: 1.2000000000000002;" transform="matrix(1.0, 0.0, 0.0, 1.0, 0.565, 0.0)"><g /></g></g><g transform="matrix(1.0, 0.0, 0.0, 1.0, 0.58, 0.0)"><g transform="matrix(1.0, 0.0, 0.0, 1.0, 0.075, 0.0)"><g transform="matrix(1.0, 0.0, 0.0, 1.0, 0.0, 0.03)"><g transform="matrix(0.01, 0.0, 0.0, 0.01, 0.0, 0.0)"><g><g><g transform="matrix(1.0, 0.0, 0.0, 1.0, 5.0, 0.0)"><g transform="matrix(1.0, 0.0, 0.0, 1.0, -12.5, -0.0)"><g><g style="fill: #d3d3d3;stroke: black;stroke-width: 1.2000000000000002;" transform="matrix(1.0, 0.0, 0.0, 1.0, 0.0, -3.0)"><path d="M 0.0 0.0 L 25.0 0.0 L 25.0 6.0 L 0.0 6.0 L 0.0 0.0 Z" style="vector-effect: non-scaling-stroke;" /></g><g transform="matrix(1.0, 0.0, 0.0, 1.0, 1.875, 0.0)"><g><g style="stroke: black;stroke-width: 1.2000000000000002;" transform="matrix(1.0, 0.0, 0.0, 1.0, 0.0, 0.0)"><g /></g><g style="fill: #ffa500;stroke: black;stroke-width: 1.2000000000000002;" transform="matrix(1.0, 0.0, 0.0, 1.0, 1.875, 0.0)"><text style="text-align:center; text-anchor:middle; dominant-baseline:middle;&#10;                      font-family:sans-serif; font-weight: bold;&#10;                      font-size:3px;&#10;                      vector-effect: non-scaling-stroke;" transform="translate(-5e-05, 0)">y</text></g></g></g></g></g></g><g><g><g><g style="stroke: black;stroke-width: 1.2000000000000002;" transform="matrix(1.0, 0.0, 0.0, 1.0, 0.0, 0.0)"><path d="M 0.0 -2.0 L 0.0 2.0" style="vector-effect: non-scaling-stroke;fill:none;" /></g><g style="stroke: #808080;stroke-width: 0.6000000000000001;" transform="matrix(1.0, 0.0, 0.0, 1.0, 0.0, 0.0)"><path d="M 0.0 0.0 L 10.0 0.0" style="vector-effect: non-scaling-stroke;fill:none;" /></g></g><g style="stroke: black;stroke-width: 2.4000000000000004;" transform="matrix(1.0, 0.0, 0.0, 1.0, 0.0, 0.0)"><path d="M 0.0 -0.21278686821460724 L 1.0 -0.21278686821460724 L 1.0 -1.3385826349258423 L 2.0 -1.3385826349258423 L 2.0 -0.02134583704173565 L 3.0 -0.02134583704173565 L 3.0 -1.1525174379348755 L 4.0 -1.1525174379348755 L 4.0 -0.13235895335674286 L 5.0 -0.13235895335674286 L 5.0 -1.0333293676376343 L 6.0 -1.0333293676376343 L 6.0 -1.1160067319869995 L 7.0 -1.1160067319869995 L 7.0 -0.5435988306999207 L 8.0 -0.5435988306999207 L 8.0 -0.10872414708137512 L 9.0 -0.10872414708137512 L 9.0 -1.2195825576782227 L 10.0 -1.2195825576782227" style="vector-effect: non-scaling-stroke;fill:none;" /></g></g></g></g><g><g><g><g style="stroke: black;stroke-width: 1.2000000000000002;" transform="matrix(1.0, 0.0, 0.0, 1.0, 0.0, 0.0)"><path d="M 0.0 -2.0 L 0.0 2.0" style="vector-effect: non-scaling-stroke;fill:none;" /></g><g style="stroke: #808080;stroke-width: 0.6000000000000001;" transform="matrix(1.0, 0.0, 0.0, 1.0, 0.0, 0.0)"><path d="M 0.0 0.0 L 10.0 0.0" style="vector-effect: non-scaling-stroke;fill:none;" /></g></g><g style="stroke: black;stroke-width: 2.4000000000000004;" transform="matrix(1.0, 0.0, 0.0, 1.0, 0.0, 0.0)"><path d="M 0.0 -0.21278686821460724 L 1.0 -0.21278686821460724 L 1.0 -1.3385826349258423 L 2.0 -1.3385826349258423 L 2.0 -0.02134583704173565 L 3.0 -0.02134583704173565 L 3.0 -1.1525174379348755 L 4.0 -1.1525174379348755 L 4.0 -0.13235895335674286 L 5.0 -0.13235895335674286 L 5.0 -1.0333293676376343 L 6.0 -1.0333293676376343 L 6.0 -1.1160067319869995 L 7.0 -1.1160067319869995 L 7.0 -0.5435988306999207 L 8.0 -0.5435988306999207 L 8.0 -0.10872414708137512 L 9.0 -0.10872414708137512 L 9.0 -1.2195825576782227 L 10.0 -1.2195825576782227" style="vector-effect: non-scaling-stroke;fill:none;" /></g></g></g></g></g></g></g></g></g></g><g style="stroke: black;stroke-width: 1.2000000000000002;" transform="matrix(0.0, -1.0, 1.0, 0.0, 0.0, 0.08)"><g /></g></g><g transform="matrix(1.0, 0.0, 0.0, 1.0, 0.0, 0.16)"><g transform="matrix(1.0, 0.0, 0.0, 1.0, -0.27499999999999997, -0.03)"><g transform="matrix(1.0, 0.0, 0.0, 1.0, 0.075, 0.0)"><g transform="matrix(1.0, 0.0, 0.0, 1.0, 0.0, 0.03)"><g transform="matrix(0.01, 0.0, 0.0, 0.01, 0.0, 0.0)"><g><g><g transform="matrix(1.0, 0.0, 0.0, 1.0, 20.0, 0.0)"><g transform="matrix(1.0, 0.0, 0.0, 1.0, -27.5, -0.0)"><g><g style="fill: #d3d3d3;stroke: black;stroke-width: 1.2000000000000002;" transform="matrix(1.0, 0.0, 0.0, 1.0, 0.0, -3.0)"><path d="M 0.0 0.0 L 55.0 0.0 L 55.0 6.0 L 0.0 6.0 L 0.0 0.0 Z" style="vector-effect: non-scaling-stroke;" /></g><g transform="matrix(1.0, 0.0, 0.0, 1.0, 1.875, 0.0)"><g><g style="stroke: black;stroke-width: 1.2000000000000002;" transform="matrix(1.0, 0.0, 0.0, 1.0, 0.0, 0.0)"><g /></g><g style="fill: #ffa500;stroke: black;stroke-width: 1.2000000000000002;" transform="matrix(1.0, 0.0, 0.0, 1.0, 1.875, 0.0)"><text style="text-align:center; text-anchor:middle; dominant-baseline:middle;&#10;                      font-family:sans-serif; font-weight: bold;&#10;                      font-size:3px;&#10;                      vector-effect: non-scaling-stroke;" transform="translate(-5e-05, 0)">f(x)</text></g></g></g></g></g></g><g><g><g><g style="stroke: black;stroke-width: 1.2000000000000002;" transform="matrix(1.0, 0.0, 0.0, 1.0, 0.0, 0.0)"><path d="M 0.0 -2.0 L 0.0 2.0" style="vector-effect: non-scaling-stroke;fill:none;" /></g><g style="stroke: #808080;stroke-width: 0.6000000000000001;" transform="matrix(1.0, 0.0, 0.0, 1.0, 0.0, 0.0)"><path d="M 0.0 0.0 L 40.0 0.0" style="vector-effect: non-scaling-stroke;fill:none;" /></g></g><g style="stroke: black;stroke-width: 2.4000000000000004;" transform="matrix(1.0, 0.0, 0.0, 1.0, 0.0, 0.0)"><path d="M 0.0 0.09276889264583588 L 1.0 0.09276889264583588 L 1.0 0.1697968989610672 L 2.0 0.1697968989610672 L 2.0 0.002161995507776737 L 3.0 0.002161995507776737 L 3.0 0.23354299366474152 L 4.0 0.23354299366474152 L 4.0 -0.017770862206816673 L 5.0 -0.017770862206816673 L 5.0 -0.1815396398305893 L 6.0 -0.1815396398305893 L 6.0 -0.3859420418739319 L 7.0 -0.3859420418739319 L 7.0 0.05361200496554375 L 8.0 0.05361200496554375 L 8.0 -0.04955179616808891 L 9.0 -0.04955179616808891 L 9.0 -0.2657032907009125 L 10.0 -0.2657032907009125 L 10.0 -0.024221494793891907 L 11.0 -0.024221494793891907 L 11.0 0.17888721823692322 L 12.0 0.17888721823692322 L 12.0 -0.001001004595309496 L 13.0 -0.001001004595309496 L 13.0 -0.021077221259474754 L 14.0 -0.021077221259474754 L 14.0 -0.05045272409915924 L 15.0 -0.05045272409915924 L 15.0 0.02863893285393715 L 16.0 0.02863893285393715 L 16.0 -0.9419363737106323 L 17.0 -0.9419363737106323 L 17.0 -0.2684113383293152 L 18.0 -0.2684113383293152 L 18.0 -0.09205836057662964 L 19.0 -0.09205836057662964 L 19.0 0.10423743724822998 L 20.0 0.10423743724822998 L 20.0 -0.11104746907949448 L 21.0 -0.11104746907949448 L 21.0 -0.19989746809005737 L 22.0 -0.19989746809005737 L 22.0 -0.010227533988654613 L 23.0 -0.010227533988654613 L 23.0 -0.25632181763648987 L 24.0 -0.25632181763648987 L 24.0 -0.04393523931503296 L 25.0 -0.04393523931503296 L 25.0 -0.7180842757225037 L 26.0 -0.7180842757225037 L 26.0 -0.5836437940597534 L 27.0 -0.5836437940597534 L 27.0 -0.5095368027687073 L 28.0 -0.5095368027687073 L 28.0 -0.04574745148420334 L 29.0 -0.04574745148420334 L 29.0 -1.102038860321045 L 30.0 -1.102038860321045 L 30.0 -0.020041314885020256 L 31.0 -0.020041314885020256 L 31.0 -1.1716960668563843 L 32.0 -1.1716960668563843 L 32.0 -0.013201936148107052 L 33.0 -0.013201936148107052 L 33.0 -0.7958671450614929 L 34.0 -0.7958671450614929 L 34.0 -0.0924811065196991 L 35.0 -0.0924811065196991 L 35.0 -0.8908669948577881 L 36.0 -0.8908669948577881 L 36.0 -0.7741110920906067 L 37.0 -0.7741110920906067 L 37.0 -0.34228095412254333 L 38.0 -0.34228095412254333 L 38.0 -0.09865155816078186 L 39.0 -0.09865155816078186 L 39.0 -0.8510673642158508 L 40.0 -0.8510673642158508" style="vector-effect: non-scaling-stroke;fill:none;" /></g></g></g></g><g><g><g><g style="stroke: black;stroke-width: 1.2000000000000002;" transform="matrix(1.0, 0.0, 0.0, 1.0, 0.0, 0.0)"><path d="M 0.0 -2.0 L 0.0 2.0" style="vector-effect: non-scaling-stroke;fill:none;" /></g><g style="stroke: #808080;stroke-width: 0.6000000000000001;" transform="matrix(1.0, 0.0, 0.0, 1.0, 0.0, 0.0)"><path d="M 0.0 0.0 L 40.0 0.0" style="vector-effect: non-scaling-stroke;fill:none;" /></g></g><g style="stroke: black;stroke-width: 2.4000000000000004;" transform="matrix(1.0, 0.0, 0.0, 1.0, 0.0, 0.0)"><path d="M 0.0 0.09276889264583588 L 1.0 0.09276889264583588 L 1.0 0.1697968989610672 L 2.0 0.1697968989610672 L 2.0 0.002161995507776737 L 3.0 0.002161995507776737 L 3.0 0.23354299366474152 L 4.0 0.23354299366474152 L 4.0 -0.017770862206816673 L 5.0 -0.017770862206816673 L 5.0 -0.1815396398305893 L 6.0 -0.1815396398305893 L 6.0 -0.3859420418739319 L 7.0 -0.3859420418739319 L 7.0 0.05361200496554375 L 8.0 0.05361200496554375 L 8.0 -0.04955179616808891 L 9.0 -0.04955179616808891 L 9.0 -0.2657032907009125 L 10.0 -0.2657032907009125 L 10.0 -0.024221494793891907 L 11.0 -0.024221494793891907 L 11.0 0.17888721823692322 L 12.0 0.17888721823692322 L 12.0 -0.001001004595309496 L 13.0 -0.001001004595309496 L 13.0 -0.021077221259474754 L 14.0 -0.021077221259474754 L 14.0 -0.05045272409915924 L 15.0 -0.05045272409915924 L 15.0 0.02863893285393715 L 16.0 0.02863893285393715 L 16.0 -0.9419363737106323 L 17.0 -0.9419363737106323 L 17.0 -0.2684113383293152 L 18.0 -0.2684113383293152 L 18.0 -0.09205836057662964 L 19.0 -0.09205836057662964 L 19.0 0.10423743724822998 L 20.0 0.10423743724822998 L 20.0 -0.11104746907949448 L 21.0 -0.11104746907949448 L 21.0 -0.19989746809005737 L 22.0 -0.19989746809005737 L 22.0 -0.010227533988654613 L 23.0 -0.010227533988654613 L 23.0 -0.25632181763648987 L 24.0 -0.25632181763648987 L 24.0 -0.04393523931503296 L 25.0 -0.04393523931503296 L 25.0 -0.7180842757225037 L 26.0 -0.7180842757225037 L 26.0 -0.5836437940597534 L 27.0 -0.5836437940597534 L 27.0 -0.5095368027687073 L 28.0 -0.5095368027687073 L 28.0 -0.04574745148420334 L 29.0 -0.04574745148420334 L 29.0 -1.102038860321045 L 30.0 -1.102038860321045 L 30.0 -0.020041314885020256 L 31.0 -0.020041314885020256 L 31.0 -1.1716960668563843 L 32.0 -1.1716960668563843 L 32.0 -0.013201936148107052 L 33.0 -0.013201936148107052 L 33.0 -0.7958671450614929 L 34.0 -0.7958671450614929 L 34.0 -0.0924811065196991 L 35.0 -0.0924811065196991 L 35.0 -0.8908669948577881 L 36.0 -0.8908669948577881 L 36.0 -0.7741110920906067 L 37.0 -0.7741110920906067 L 37.0 -0.34228095412254333 L 38.0 -0.34228095412254333 L 38.0 -0.09865155816078186 L 39.0 -0.09865155816078186 L 39.0 -0.8510673642158508 L 40.0 -0.8510673642158508" style="vector-effect: non-scaling-stroke;fill:none;" /></g></g></g></g></g></g></g></g></g></g><g transform="matrix(1.0, 0.0, 0.0, 1.0, -0.19999999999999996, 0.16)"><g transform="matrix(1.0, 0.0, 0.0, 0.009999999999999995, 0.0, 0.0)"><g transform="matrix(0.01, 0.0, 0.0, 1.0, 0.0, 0.0)"><g><g><g style="fill: #ffffe0;stroke: #ffffe0;stroke-width: 1.2000000000000002;fill-opacity: 0.5;" transform="matrix(1.0, 0.0, 0.0, 1.0, 0.0, 0.0)"><path d="M 0.0 -2.0 L 0.0 2.0" style="vector-effect: non-scaling-stroke;fill:none;" /></g><g style="fill: #ffffe0;stroke: #ffffe0;stroke-width: 1.2000000000000002;fill-opacity: 0.5;" transform="matrix(1.0, 0.0, 0.0, 1.0, 0.0, 0.0)"><path d="M 0.0 -0.12031771242618561 L 1.0 -0.12031771242618561 L 1.0 -1.1683273315429688 L 2.0 -1.1683273315429688 L 2.0 -0.019188575446605682 L 3.0 -0.019188575446605682 L 3.0 -0.9198068976402283 L 4.0 -0.9198068976402283 L 4.0 -0.15001866221427917 L 5.0 -0.15001866221427917 L 5.0 -1.2156802415847778 L 6.0 -1.2156802415847778 L 6.0 -1.5035290718078613 L 7.0 -1.5035290718078613 L 7.0 -0.4899078607559204 L 8.0 -0.4899078607559204 L 8.0 -0.1583302766084671 L 9.0 -0.1583302766084671 L 9.0 -1.4846183061599731 L 10.0 -1.4846183061599731 L 10.0 -0.2369355708360672 L 11.0 -0.2369355708360672 L 11.0 -1.159237027168274 L 12.0 -1.159237027168274 L 12.0 -0.02233993262052536 L 13.0 -0.02233993262052536 L 13.0 -1.1736820936203003 L 14.0 -1.1736820936203003 L 14.0 -0.1827005296945572 L 15.0 -0.1827005296945572 L 15.0 -1.0047565698623657 L 16.0 -1.0047565698623657 L 16.0 -2.0 L 17.0 -2.0 L 17.0 -0.8137938380241394 L 18.0 -0.8137938380241394 L 18.0 -0.20083683729171753 L 19.0 -0.20083683729171753 L 19.0 -1.1154226064682007 L 20.0 -1.1154226064682007 L 20.0 -0.32413408160209656 L 21.0 -0.32413408160209656 L 21.0 -1.5395119190216064 L 22.0 -1.5395119190216064 L 22.0 -0.031554821878671646 L 23.0 -0.031554821878671646 L 23.0 -1.409671664237976 L 24.0 -1.409671664237976 L 24.0 -0.1761830449104309 L 25.0 -0.1761830449104309 L 25.0 -1.7492446899414062 L 26.0 -1.7492446899414062 L 26.0 -1.698250651359558 L 27.0 -1.698250651359558 L 27.0 -1.0519390106201172 L 28.0 -1.0519390106201172 L 28.0 -0.15489846467971802 L 29.0 -0.15489846467971802 L 29.0 -2.0 L 30.0 -2.0 L 30.0 -0.2329416573047638 L 31.0 -0.2329416573047638 L 31.0 -2.0 L 32.0 -2.0 L 32.0 -0.034529224038124084 L 33.0 -0.034529224038124084 L 33.0 -1.9521973133087158 L 34.0 -1.9521973133087158 L 34.0 -0.22435638308525085 L 35.0 -0.22435638308525085 L 35.0 -1.927987813949585 L 36.0 -1.927987813949585 L 36.0 -1.8946783542633057 L 37.0 -1.8946783542633057 L 37.0 -0.8876634836196899 L 38.0 -0.8876634836196899 L 38.0 -0.20817509293556213 L 39.0 -0.20817509293556213 L 39.0 -2.0 L 40.0 -2.0 L 40.0 -0.8510673642158508 L 39.0 -0.8510673642158508 L 39.0 -0.09865155816078186 L 38.0 -0.09865155816078186 L 38.0 -0.34228095412254333 L 37.0 -0.34228095412254333 L 37.0 -0.7741110920906067 L 36.0 -0.7741110920906067 L 36.0 -0.8908669948577881 L 35.0 -0.8908669948577881 L 35.0 -0.0924811065196991 L 34.0 -0.0924811065196991 L 34.0 -0.7958671450614929 L 33.0 -0.7958671450614929 L 33.0 -0.013201936148107052 L 32.0 -0.013201936148107052 L 32.0 -1.1716960668563843 L 31.0 -1.1716960668563843 L 31.0 -0.020041314885020256 L 30.0 -0.020041314885020256 L 30.0 -1.102038860321045 L 29.0 -1.102038860321045 L 29.0 -0.04574745148420334 L 28.0 -0.04574745148420334 L 28.0 -0.5095368027687073 L 27.0 -0.5095368027687073 L 27.0 -0.5836437940597534 L 26.0 -0.5836437940597534 L 26.0 -0.7180842757225037 L 25.0 -0.7180842757225037 L 25.0 -0.04393523931503296 L 24.0 -0.04393523931503296 L 24.0 -0.25632181763648987 L 23.0 -0.25632181763648987 L 23.0 -0.010227533988654613 L 22.0 -0.010227533988654613 L 22.0 -0.19989746809005737 L 21.0 -0.19989746809005737 L 21.0 -0.11104746907949448 L 20.0 -0.11104746907949448 L 20.0 0.10423743724822998 L 19.0 0.10423743724822998 L 19.0 -0.09205836057662964 L 18.0 -0.09205836057662964 L 18.0 -0.2684113383293152 L 17.0 -0.2684113383293152 L 17.0 -0.9419363737106323 L 16.0 -0.9419363737106323 L 16.0 0.02863893285393715 L 15.0 0.02863893285393715 L 15.0 -0.05045272409915924 L 14.0 -0.05045272409915924 L 14.0 -0.021077221259474754 L 13.0 -0.021077221259474754 L 13.0 -0.001001004595309496 L 12.0 -0.001001004595309496 L 12.0 0.17888721823692322 L 11.0 0.17888721823692322 L 11.0 -0.024221494793891907 L 10.0 -0.024221494793891907 L 10.0 -0.2657032907009125 L 9.0 -0.2657032907009125 L 9.0 -0.04955179616808891 L 8.0 -0.04955179616808891 L 8.0 0.05361200496554375 L 7.0 0.05361200496554375 L 7.0 -0.3859420418739319 L 6.0 -0.3859420418739319 L 6.0 -0.1815396398305893 L 5.0 -0.1815396398305893 L 5.0 -0.017770862206816673 L 4.0 -0.017770862206816673 L 4.0 0.23354299366474152 L 3.0 0.23354299366474152 L 3.0 0.002161995507776737 L 2.0 0.002161995507776737 L 2.0 0.1697968989610672 L 1.0 0.1697968989610672 L 1.0 0.09276889264583588 L 0.0 0.09276889264583588 Z" style="vector-effect: non-scaling-stroke;" /></g></g><g style="stroke: black;stroke-width: 1.2000000000000002;" transform="matrix(1.0, 0.0, 0.0, 1.0, 0.0, 0.0)"><path d="M 0.0 0.09276889264583588 L 1.0 0.09276889264583588 L 1.0 0.1697968989610672 L 2.0 0.1697968989610672 L 2.0 0.002161995507776737 L 3.0 0.002161995507776737 L 3.0 0.23354299366474152 L 4.0 0.23354299366474152 L 4.0 -0.017770862206816673 L 5.0 -0.017770862206816673 L 5.0 -0.1815396398305893 L 6.0 -0.1815396398305893 L 6.0 -0.3859420418739319 L 7.0 -0.3859420418739319 L 7.0 0.05361200496554375 L 8.0 0.05361200496554375 L 8.0 -0.04955179616808891 L 9.0 -0.04955179616808891 L 9.0 -0.2657032907009125 L 10.0 -0.2657032907009125 L 10.0 -0.024221494793891907 L 11.0 -0.024221494793891907 L 11.0 0.17888721823692322 L 12.0 0.17888721823692322 L 12.0 -0.001001004595309496 L 13.0 -0.001001004595309496 L 13.0 -0.021077221259474754 L 14.0 -0.021077221259474754 L 14.0 -0.05045272409915924 L 15.0 -0.05045272409915924 L 15.0 0.02863893285393715 L 16.0 0.02863893285393715 L 16.0 -0.9419363737106323 L 17.0 -0.9419363737106323 L 17.0 -0.2684113383293152 L 18.0 -0.2684113383293152 L 18.0 -0.09205836057662964 L 19.0 -0.09205836057662964 L 19.0 0.10423743724822998 L 20.0 0.10423743724822998 L 20.0 -0.11104746907949448 L 21.0 -0.11104746907949448 L 21.0 -0.19989746809005737 L 22.0 -0.19989746809005737 L 22.0 -0.010227533988654613 L 23.0 -0.010227533988654613 L 23.0 -0.25632181763648987 L 24.0 -0.25632181763648987 L 24.0 -0.04393523931503296 L 25.0 -0.04393523931503296 L 25.0 -0.7180842757225037 L 26.0 -0.7180842757225037 L 26.0 -0.5836437940597534 L 27.0 -0.5836437940597534 L 27.0 -0.5095368027687073 L 28.0 -0.5095368027687073 L 28.0 -0.04574745148420334 L 29.0 -0.04574745148420334 L 29.0 -1.102038860321045 L 30.0 -1.102038860321045 L 30.0 -0.020041314885020256 L 31.0 -0.020041314885020256 L 31.0 -1.1716960668563843 L 32.0 -1.1716960668563843 L 32.0 -0.013201936148107052 L 33.0 -0.013201936148107052 L 33.0 -0.7958671450614929 L 34.0 -0.7958671450614929 L 34.0 -0.0924811065196991 L 35.0 -0.0924811065196991 L 35.0 -0.8908669948577881 L 36.0 -0.8908669948577881 L 36.0 -0.7741110920906067 L 37.0 -0.7741110920906067 L 37.0 -0.34228095412254333 L 38.0 -0.34228095412254333 L 38.0 -0.09865155816078186 L 39.0 -0.09865155816078186 L 39.0 -0.8510673642158508 L 40.0 -0.8510673642158508" style="vector-effect: non-scaling-stroke;fill:none;" /></g></g></g></g></g></g><g transform="matrix(1.0, 0.0, 0.0, 1.0, -0.19999999999999996, 0.16)"><g transform="matrix(1.0, 0.0, 0.0, 0.009999999999999995, 0.0, 0.0)"><g transform="matrix(0.01, 0.0, 0.0, 1.0, 0.0, 0.0)"><g><g><g style="fill: #add8e6;stroke: #add8e6;stroke-width: 1.2000000000000002;fill-opacity: 0.5;" transform="matrix(1.0, 0.0, 0.0, 1.0, 0.0, 0.0)"><path d="M 0.0 -2.0 L 0.0 2.0" style="vector-effect: non-scaling-stroke;fill:none;" /></g><g style="fill: #add8e6;stroke: #add8e6;stroke-width: 1.2000000000000002;fill-opacity: 0.5;" transform="matrix(1.0, 0.0, 0.0, 1.0, 0.0, 0.0)"><path d="M 0.0 0.964486837387085 L 1.0 0.964486837387085 L 1.0 0.4246067404747009 L 2.0 0.4246067404747009 L 2.0 0.20472465455532074 L 3.0 0.20472465455532074 L 3.0 0.6388545632362366 L 4.0 0.6388545632362366 L 4.0 -0.28617802262306213 L 5.0 -0.28617802262306213 L 5.0 -0.5332070589065552 L 6.0 -0.5332070589065552 L 6.0 -1.080336093902588 L 7.0 -1.080336093902588 L 7.0 0.2510523796081543 L 8.0 0.2510523796081543 L 8.0 -0.9611303210258484 L 9.0 -0.9611303210258484 L 9.0 -0.7008172273635864 L 10.0 -0.7008172273635864 L 10.0 -0.25183671712875366 L 11.0 -0.25183671712875366 L 11.0 0.44561800360679626 L 12.0 0.44561800360679626 L 12.0 -0.0947851911187172 L 13.0 -0.0947851911187172 L 13.0 -0.05777133256196976 L 14.0 -0.05777133256196976 L 14.0 -0.8126471042633057 L 15.0 -0.8126471042633057 L 15.0 0.08414575457572937 L 16.0 0.08414575457572937 L 16.0 -2.0 L 17.0 -2.0 L 17.0 -1.2578485012054443 L 18.0 -1.2578485012054443 L 18.0 -1.7855753898620605 L 19.0 -1.7855753898620605 L 19.0 0.275600790977478 L 20.0 0.275600790977478 L 20.0 -1.1541287899017334 L 21.0 -1.1541287899017334 L 21.0 -0.49941080808639526 L 22.0 -0.49941080808639526 L 22.0 -0.9684653878211975 L 23.0 -0.9684653878211975 L 23.0 -0.7033566236495972 L 24.0 -0.7033566236495972 L 24.0 -0.707781970500946 L 25.0 -0.707781970500946 L 25.0 -2.0 L 26.0 -2.0 L 26.0 -1.6326855421066284 L 27.0 -1.6326855421066284 L 27.0 -2.0 L 28.0 -2.0 L 28.0 -0.8872905373573303 L 29.0 -0.8872905373573303 L 29.0 -2.0 L 30.0 -2.0 L 30.0 -0.20854100584983826 L 31.0 -0.20854100584983826 L 31.0 -2.0 L 32.0 -2.0 L 32.0 -1.250091552734375 L 33.0 -1.250091552734375 L 33.0 -2.0 L 34.0 -2.0 L 34.0 -1.4894649982452393 L 35.0 -1.4894649982452393 L 35.0 -2.0 L 36.0 -2.0 L 36.0 -2.0 L 37.0 -2.0 L 37.0 -1.6029192209243774 L 38.0 -1.6029192209243774 L 38.0 -1.913612961769104 L 39.0 -1.913612961769104 L 39.0 -2.0 L 40.0 -2.0 L 40.0 -0.8510673642158508 L 39.0 -0.8510673642158508 L 39.0 -0.09865155816078186 L 38.0 -0.09865155816078186 L 38.0 -0.34228095412254333 L 37.0 -0.34228095412254333 L 37.0 -0.7741110920906067 L 36.0 -0.7741110920906067 L 36.0 -0.8908669948577881 L 35.0 -0.8908669948577881 L 35.0 -0.0924811065196991 L 34.0 -0.0924811065196991 L 34.0 -0.7958671450614929 L 33.0 -0.7958671450614929 L 33.0 -0.013201936148107052 L 32.0 -0.013201936148107052 L 32.0 -1.1716960668563843 L 31.0 -1.1716960668563843 L 31.0 -0.020041314885020256 L 30.0 -0.020041314885020256 L 30.0 -1.102038860321045 L 29.0 -1.102038860321045 L 29.0 -0.04574745148420334 L 28.0 -0.04574745148420334 L 28.0 -0.5095368027687073 L 27.0 -0.5095368027687073 L 27.0 -0.5836437940597534 L 26.0 -0.5836437940597534 L 26.0 -0.7180842757225037 L 25.0 -0.7180842757225037 L 25.0 -0.04393523931503296 L 24.0 -0.04393523931503296 L 24.0 -0.25632181763648987 L 23.0 -0.25632181763648987 L 23.0 -0.010227533988654613 L 22.0 -0.010227533988654613 L 22.0 -0.19989746809005737 L 21.0 -0.19989746809005737 L 21.0 -0.11104746907949448 L 20.0 -0.11104746907949448 L 20.0 0.10423743724822998 L 19.0 0.10423743724822998 L 19.0 -0.09205836057662964 L 18.0 -0.09205836057662964 L 18.0 -0.2684113383293152 L 17.0 -0.2684113383293152 L 17.0 -0.9419363737106323 L 16.0 -0.9419363737106323 L 16.0 0.02863893285393715 L 15.0 0.02863893285393715 L 15.0 -0.05045272409915924 L 14.0 -0.05045272409915924 L 14.0 -0.021077221259474754 L 13.0 -0.021077221259474754 L 13.0 -0.001001004595309496 L 12.0 -0.001001004595309496 L 12.0 0.17888721823692322 L 11.0 0.17888721823692322 L 11.0 -0.024221494793891907 L 10.0 -0.024221494793891907 L 10.0 -0.2657032907009125 L 9.0 -0.2657032907009125 L 9.0 -0.04955179616808891 L 8.0 -0.04955179616808891 L 8.0 0.05361200496554375 L 7.0 0.05361200496554375 L 7.0 -0.3859420418739319 L 6.0 -0.3859420418739319 L 6.0 -0.1815396398305893 L 5.0 -0.1815396398305893 L 5.0 -0.017770862206816673 L 4.0 -0.017770862206816673 L 4.0 0.23354299366474152 L 3.0 0.23354299366474152 L 3.0 0.002161995507776737 L 2.0 0.002161995507776737 L 2.0 0.1697968989610672 L 1.0 0.1697968989610672 L 1.0 0.09276889264583588 L 0.0 0.09276889264583588 Z" style="vector-effect: non-scaling-stroke;" /></g></g><g style="stroke: black;stroke-width: 1.2000000000000002;" transform="matrix(1.0, 0.0, 0.0, 1.0, 0.0, 0.0)"><path d="M 0.0 0.09276889264583588 L 1.0 0.09276889264583588 L 1.0 0.1697968989610672 L 2.0 0.1697968989610672 L 2.0 0.002161995507776737 L 3.0 0.002161995507776737 L 3.0 0.23354299366474152 L 4.0 0.23354299366474152 L 4.0 -0.017770862206816673 L 5.0 -0.017770862206816673 L 5.0 -0.1815396398305893 L 6.0 -0.1815396398305893 L 6.0 -0.3859420418739319 L 7.0 -0.3859420418739319 L 7.0 0.05361200496554375 L 8.0 0.05361200496554375 L 8.0 -0.04955179616808891 L 9.0 -0.04955179616808891 L 9.0 -0.2657032907009125 L 10.0 -0.2657032907009125 L 10.0 -0.024221494793891907 L 11.0 -0.024221494793891907 L 11.0 0.17888721823692322 L 12.0 0.17888721823692322 L 12.0 -0.001001004595309496 L 13.0 -0.001001004595309496 L 13.0 -0.021077221259474754 L 14.0 -0.021077221259474754 L 14.0 -0.05045272409915924 L 15.0 -0.05045272409915924 L 15.0 0.02863893285393715 L 16.0 0.02863893285393715 L 16.0 -0.9419363737106323 L 17.0 -0.9419363737106323 L 17.0 -0.2684113383293152 L 18.0 -0.2684113383293152 L 18.0 -0.09205836057662964 L 19.0 -0.09205836057662964 L 19.0 0.10423743724822998 L 20.0 0.10423743724822998 L 20.0 -0.11104746907949448 L 21.0 -0.11104746907949448 L 21.0 -0.19989746809005737 L 22.0 -0.19989746809005737 L 22.0 -0.010227533988654613 L 23.0 -0.010227533988654613 L 23.0 -0.25632181763648987 L 24.0 -0.25632181763648987 L 24.0 -0.04393523931503296 L 25.0 -0.04393523931503296 L 25.0 -0.7180842757225037 L 26.0 -0.7180842757225037 L 26.0 -0.5836437940597534 L 27.0 -0.5836437940597534 L 27.0 -0.5095368027687073 L 28.0 -0.5095368027687073 L 28.0 -0.04574745148420334 L 29.0 -0.04574745148420334 L 29.0 -1.102038860321045 L 30.0 -1.102038860321045 L 30.0 -0.020041314885020256 L 31.0 -0.020041314885020256 L 31.0 -1.1716960668563843 L 32.0 -1.1716960668563843 L 32.0 -0.013201936148107052 L 33.0 -0.013201936148107052 L 33.0 -0.7958671450614929 L 34.0 -0.7958671450614929 L 34.0 -0.0924811065196991 L 35.0 -0.0924811065196991 L 35.0 -0.8908669948577881 L 36.0 -0.8908669948577881 L 36.0 -0.7741110920906067 L 37.0 -0.7741110920906067 L 37.0 -0.34228095412254333 L 38.0 -0.34228095412254333 L 38.0 -0.09865155816078186 L 39.0 -0.09865155816078186 L 39.0 -0.8510673642158508 L 40.0 -0.8510673642158508" style="vector-effect: non-scaling-stroke;fill:none;" /></g></g></g></g></g></g><g transform="matrix(1.0, 0.0, 0.0, 1.0, -0.19999999999999996, 0.16)"><g transform="matrix(1.0, 0.0, 0.0, 0.009999999999999995, 0.0, 0.0)"><g transform="matrix(0.01, 0.0, 0.0, 1.0, 0.0, 0.0)"><g><g><g style="fill: #ff8c00;stroke: #ff8c00;stroke-width: 1.2000000000000002;fill-opacity: 0.5;" transform="matrix(1.0, 0.0, 0.0, 1.0, 0.0, 0.0)"><path d="M 0.0 -2.0 L 0.0 2.0" style="vector-effect: non-scaling-stroke;fill:none;" /></g><g style="fill: #ff8c00;stroke: #ff8c00;stroke-width: 1.2000000000000002;fill-opacity: 0.5;" transform="matrix(1.0, 0.0, 0.0, 1.0, 0.0, 0.0)"><path d="M 0.0 0.09276889264583588 L 1.0 0.09276889264583588 L 1.0 0.1697968989610672 L 2.0 0.1697968989610672 L 2.0 0.002161995507776737 L 3.0 0.002161995507776737 L 3.0 0.23354299366474152 L 4.0 0.23354299366474152 L 4.0 -0.017770862206816673 L 5.0 -0.017770862206816673 L 5.0 -0.1815396398305893 L 6.0 -0.1815396398305893 L 6.0 -0.3859420418739319 L 7.0 -0.3859420418739319 L 7.0 0.05361200496554375 L 8.0 0.05361200496554375 L 8.0 -0.04955179616808891 L 9.0 -0.04955179616808891 L 9.0 -0.2657032907009125 L 10.0 -0.2657032907009125 L 10.0 -0.024221494793891907 L 11.0 -0.024221494793891907 L 11.0 0.17888721823692322 L 12.0 0.17888721823692322 L 12.0 -0.001001004595309496 L 13.0 -0.001001004595309496 L 13.0 -0.021077221259474754 L 14.0 -0.021077221259474754 L 14.0 -0.05045272409915924 L 15.0 -0.05045272409915924 L 15.0 0.02863893285393715 L 16.0 0.02863893285393715 L 16.0 -0.9419363737106323 L 17.0 -0.9419363737106323 L 17.0 -0.2684113383293152 L 18.0 -0.2684113383293152 L 18.0 -0.09205836057662964 L 19.0 -0.09205836057662964 L 19.0 0.10423743724822998 L 20.0 0.10423743724822998 L 20.0 -0.11104746907949448 L 21.0 -0.11104746907949448 L 21.0 -0.19989746809005737 L 22.0 -0.19989746809005737 L 22.0 -0.010227533988654613 L 23.0 -0.010227533988654613 L 23.0 -0.25632181763648987 L 24.0 -0.25632181763648987 L 24.0 -0.04393523931503296 L 25.0 -0.04393523931503296 L 25.0 -0.7180842757225037 L 26.0 -0.7180842757225037 L 26.0 -0.5836437940597534 L 27.0 -0.5836437940597534 L 27.0 -0.5095368027687073 L 28.0 -0.5095368027687073 L 28.0 -0.04574745148420334 L 29.0 -0.04574745148420334 L 29.0 -1.102038860321045 L 30.0 -1.102038860321045 L 30.0 -0.020041314885020256 L 31.0 -0.020041314885020256 L 31.0 -1.1716960668563843 L 32.0 -1.1716960668563843 L 32.0 -0.013201936148107052 L 33.0 -0.013201936148107052 L 33.0 -0.7958671450614929 L 34.0 -0.7958671450614929 L 34.0 -0.0924811065196991 L 35.0 -0.0924811065196991 L 35.0 -0.8908669948577881 L 36.0 -0.8908669948577881 L 36.0 -0.7741110920906067 L 37.0 -0.7741110920906067 L 37.0 -0.34228095412254333 L 38.0 -0.34228095412254333 L 38.0 -0.09865155816078186 L 39.0 -0.09865155816078186 L 39.0 -0.8510673642158508 L 40.0 -0.8510673642158508 L 40.0 -0.8510673642158508 L 39.0 -0.8510673642158508 L 39.0 -0.09865155816078186 L 38.0 -0.09865155816078186 L 38.0 -0.34228095412254333 L 37.0 -0.34228095412254333 L 37.0 -0.7741110920906067 L 36.0 -0.7741110920906067 L 36.0 -0.8908669948577881 L 35.0 -0.8908669948577881 L 35.0 -0.0924811065196991 L 34.0 -0.0924811065196991 L 34.0 -0.7958671450614929 L 33.0 -0.7958671450614929 L 33.0 -0.013201936148107052 L 32.0 -0.013201936148107052 L 32.0 -1.1716960668563843 L 31.0 -1.1716960668563843 L 31.0 -0.020041314885020256 L 30.0 -0.020041314885020256 L 30.0 -1.102038860321045 L 29.0 -1.102038860321045 L 29.0 -0.04574745148420334 L 28.0 -0.04574745148420334 L 28.0 -0.5095368027687073 L 27.0 -0.5095368027687073 L 27.0 -0.5836437940597534 L 26.0 -0.5836437940597534 L 26.0 -0.7180842757225037 L 25.0 -0.7180842757225037 L 25.0 -0.04393523931503296 L 24.0 -0.04393523931503296 L 24.0 -0.25632181763648987 L 23.0 -0.25632181763648987 L 23.0 -0.010227533988654613 L 22.0 -0.010227533988654613 L 22.0 -0.19989746809005737 L 21.0 -0.19989746809005737 L 21.0 -0.11104746907949448 L 20.0 -0.11104746907949448 L 20.0 0.10423743724822998 L 19.0 0.10423743724822998 L 19.0 -0.09205836057662964 L 18.0 -0.09205836057662964 L 18.0 -0.2684113383293152 L 17.0 -0.2684113383293152 L 17.0 -0.9419363737106323 L 16.0 -0.9419363737106323 L 16.0 0.02863893285393715 L 15.0 0.02863893285393715 L 15.0 -0.05045272409915924 L 14.0 -0.05045272409915924 L 14.0 -0.021077221259474754 L 13.0 -0.021077221259474754 L 13.0 -0.001001004595309496 L 12.0 -0.001001004595309496 L 12.0 0.17888721823692322 L 11.0 0.17888721823692322 L 11.0 -0.024221494793891907 L 10.0 -0.024221494793891907 L 10.0 -0.2657032907009125 L 9.0 -0.2657032907009125 L 9.0 -0.04955179616808891 L 8.0 -0.04955179616808891 L 8.0 0.05361200496554375 L 7.0 0.05361200496554375 L 7.0 -0.3859420418739319 L 6.0 -0.3859420418739319 L 6.0 -0.1815396398305893 L 5.0 -0.1815396398305893 L 5.0 -0.017770862206816673 L 4.0 -0.017770862206816673 L 4.0 0.23354299366474152 L 3.0 0.23354299366474152 L 3.0 0.002161995507776737 L 2.0 0.002161995507776737 L 2.0 0.1697968989610672 L 1.0 0.1697968989610672 L 1.0 0.09276889264583588 L 0.0 0.09276889264583588 Z" style="vector-effect: non-scaling-stroke;" /></g></g><g style="stroke: black;stroke-width: 1.2000000000000002;" transform="matrix(1.0, 0.0, 0.0, 1.0, 0.0, 0.0)"><path d="M 0.0 0.09276889264583588 L 1.0 0.09276889264583588 L 1.0 0.1697968989610672 L 2.0 0.1697968989610672 L 2.0 0.002161995507776737 L 3.0 0.002161995507776737 L 3.0 0.23354299366474152 L 4.0 0.23354299366474152 L 4.0 -0.017770862206816673 L 5.0 -0.017770862206816673 L 5.0 -0.1815396398305893 L 6.0 -0.1815396398305893 L 6.0 -0.3859420418739319 L 7.0 -0.3859420418739319 L 7.0 0.05361200496554375 L 8.0 0.05361200496554375 L 8.0 -0.04955179616808891 L 9.0 -0.04955179616808891 L 9.0 -0.2657032907009125 L 10.0 -0.2657032907009125 L 10.0 -0.024221494793891907 L 11.0 -0.024221494793891907 L 11.0 0.17888721823692322 L 12.0 0.17888721823692322 L 12.0 -0.001001004595309496 L 13.0 -0.001001004595309496 L 13.0 -0.021077221259474754 L 14.0 -0.021077221259474754 L 14.0 -0.05045272409915924 L 15.0 -0.05045272409915924 L 15.0 0.02863893285393715 L 16.0 0.02863893285393715 L 16.0 -0.9419363737106323 L 17.0 -0.9419363737106323 L 17.0 -0.2684113383293152 L 18.0 -0.2684113383293152 L 18.0 -0.09205836057662964 L 19.0 -0.09205836057662964 L 19.0 0.10423743724822998 L 20.0 0.10423743724822998 L 20.0 -0.11104746907949448 L 21.0 -0.11104746907949448 L 21.0 -0.19989746809005737 L 22.0 -0.19989746809005737 L 22.0 -0.010227533988654613 L 23.0 -0.010227533988654613 L 23.0 -0.25632181763648987 L 24.0 -0.25632181763648987 L 24.0 -0.04393523931503296 L 25.0 -0.04393523931503296 L 25.0 -0.7180842757225037 L 26.0 -0.7180842757225037 L 26.0 -0.5836437940597534 L 27.0 -0.5836437940597534 L 27.0 -0.5095368027687073 L 28.0 -0.5095368027687073 L 28.0 -0.04574745148420334 L 29.0 -0.04574745148420334 L 29.0 -1.102038860321045 L 30.0 -1.102038860321045 L 30.0 -0.020041314885020256 L 31.0 -0.020041314885020256 L 31.0 -1.1716960668563843 L 32.0 -1.1716960668563843 L 32.0 -0.013201936148107052 L 33.0 -0.013201936148107052 L 33.0 -0.7958671450614929 L 34.0 -0.7958671450614929 L 34.0 -0.0924811065196991 L 35.0 -0.0924811065196991 L 35.0 -0.8908669948577881 L 36.0 -0.8908669948577881 L 36.0 -0.7741110920906067 L 37.0 -0.7741110920906067 L 37.0 -0.34228095412254333 L 38.0 -0.34228095412254333 L 38.0 -0.09865155816078186 L 39.0 -0.09865155816078186 L 39.0 -0.8510673642158508 L 40.0 -0.8510673642158508" style="vector-effect: non-scaling-stroke;fill:none;" /></g></g></g></g></g></g><g transform="matrix(1.0, 0.0, 0.0, 1.0, -0.19999999999999996, 0.16)"><g transform="matrix(1.0, 0.0, 0.0, 0.009999999999999995, 0.0, 0.0)"><g transform="matrix(0.01, 0.0, 0.0, 1.0, 0.0, 0.0)"><g><g><g style="fill: #0000ff;stroke: #0000ff;stroke-width: 1.2000000000000002;fill-opacity: 0.5;" transform="matrix(1.0, 0.0, 0.0, 1.0, 0.0, 0.0)"><path d="M 0.0 -2.0 L 0.0 2.0" style="vector-effect: non-scaling-stroke;fill:none;" /></g><g style="fill: #0000ff;stroke: #0000ff;stroke-width: 1.2000000000000002;fill-opacity: 0.5;" transform="matrix(1.0, 0.0, 0.0, 1.0, 0.0, 0.0)"><path d="M 0.0 0.09276889264583588 L 1.0 0.09276889264583588 L 1.0 0.1697968989610672 L 2.0 0.1697968989610672 L 2.0 0.002161995507776737 L 3.0 0.002161995507776737 L 3.0 0.23354299366474152 L 4.0 0.23354299366474152 L 4.0 -0.017770862206816673 L 5.0 -0.017770862206816673 L 5.0 -0.1815396398305893 L 6.0 -0.1815396398305893 L 6.0 -0.3859420418739319 L 7.0 -0.3859420418739319 L 7.0 0.05361200496554375 L 8.0 0.05361200496554375 L 8.0 -0.04955179616808891 L 9.0 -0.04955179616808891 L 9.0 -0.2657032907009125 L 10.0 -0.2657032907009125 L 10.0 -0.024221494793891907 L 11.0 -0.024221494793891907 L 11.0 0.17888721823692322 L 12.0 0.17888721823692322 L 12.0 -0.001001004595309496 L 13.0 -0.001001004595309496 L 13.0 -0.021077221259474754 L 14.0 -0.021077221259474754 L 14.0 -0.05045272409915924 L 15.0 -0.05045272409915924 L 15.0 0.02863893285393715 L 16.0 0.02863893285393715 L 16.0 -0.9419363737106323 L 17.0 -0.9419363737106323 L 17.0 -0.2684113383293152 L 18.0 -0.2684113383293152 L 18.0 -0.09205836057662964 L 19.0 -0.09205836057662964 L 19.0 0.10423743724822998 L 20.0 0.10423743724822998 L 20.0 -0.11104746907949448 L 21.0 -0.11104746907949448 L 21.0 -0.19989746809005737 L 22.0 -0.19989746809005737 L 22.0 -0.010227533988654613 L 23.0 -0.010227533988654613 L 23.0 -0.25632181763648987 L 24.0 -0.25632181763648987 L 24.0 -0.04393523931503296 L 25.0 -0.04393523931503296 L 25.0 -0.7180842757225037 L 26.0 -0.7180842757225037 L 26.0 -0.5836437940597534 L 27.0 -0.5836437940597534 L 27.0 -0.5095368027687073 L 28.0 -0.5095368027687073 L 28.0 -0.04574745148420334 L 29.0 -0.04574745148420334 L 29.0 -1.102038860321045 L 30.0 -1.102038860321045 L 30.0 -0.020041314885020256 L 31.0 -0.020041314885020256 L 31.0 -1.1716960668563843 L 32.0 -1.1716960668563843 L 32.0 -0.013201936148107052 L 33.0 -0.013201936148107052 L 33.0 -0.7958671450614929 L 34.0 -0.7958671450614929 L 34.0 -0.0924811065196991 L 35.0 -0.0924811065196991 L 35.0 -0.8908669948577881 L 36.0 -0.8908669948577881 L 36.0 -0.7741110920906067 L 37.0 -0.7741110920906067 L 37.0 -0.34228095412254333 L 38.0 -0.34228095412254333 L 38.0 -0.09865155816078186 L 39.0 -0.09865155816078186 L 39.0 -0.8510673642158508 L 40.0 -0.8510673642158508 L 40.0 -0.8510673642158508 L 39.0 -0.8510673642158508 L 39.0 -0.09865155816078186 L 38.0 -0.09865155816078186 L 38.0 -0.34228095412254333 L 37.0 -0.34228095412254333 L 37.0 -0.7741110920906067 L 36.0 -0.7741110920906067 L 36.0 -0.8908669948577881 L 35.0 -0.8908669948577881 L 35.0 -0.0924811065196991 L 34.0 -0.0924811065196991 L 34.0 -0.7958671450614929 L 33.0 -0.7958671450614929 L 33.0 -0.013201936148107052 L 32.0 -0.013201936148107052 L 32.0 -1.1716960668563843 L 31.0 -1.1716960668563843 L 31.0 -0.020041314885020256 L 30.0 -0.020041314885020256 L 30.0 -1.102038860321045 L 29.0 -1.102038860321045 L 29.0 -0.04574745148420334 L 28.0 -0.04574745148420334 L 28.0 -0.5095368027687073 L 27.0 -0.5095368027687073 L 27.0 -0.5836437940597534 L 26.0 -0.5836437940597534 L 26.0 -0.7180842757225037 L 25.0 -0.7180842757225037 L 25.0 -0.04393523931503296 L 24.0 -0.04393523931503296 L 24.0 -0.25632181763648987 L 23.0 -0.25632181763648987 L 23.0 -0.010227533988654613 L 22.0 -0.010227533988654613 L 22.0 -0.19989746809005737 L 21.0 -0.19989746809005737 L 21.0 -0.11104746907949448 L 20.0 -0.11104746907949448 L 20.0 0.10423743724822998 L 19.0 0.10423743724822998 L 19.0 -0.09205836057662964 L 18.0 -0.09205836057662964 L 18.0 -0.2684113383293152 L 17.0 -0.2684113383293152 L 17.0 -0.9419363737106323 L 16.0 -0.9419363737106323 L 16.0 0.02863893285393715 L 15.0 0.02863893285393715 L 15.0 -0.05045272409915924 L 14.0 -0.05045272409915924 L 14.0 -0.021077221259474754 L 13.0 -0.021077221259474754 L 13.0 -0.001001004595309496 L 12.0 -0.001001004595309496 L 12.0 0.17888721823692322 L 11.0 0.17888721823692322 L 11.0 -0.024221494793891907 L 10.0 -0.024221494793891907 L 10.0 -0.2657032907009125 L 9.0 -0.2657032907009125 L 9.0 -0.04955179616808891 L 8.0 -0.04955179616808891 L 8.0 0.05361200496554375 L 7.0 0.05361200496554375 L 7.0 -0.3859420418739319 L 6.0 -0.3859420418739319 L 6.0 -0.1815396398305893 L 5.0 -0.1815396398305893 L 5.0 -0.017770862206816673 L 4.0 -0.017770862206816673 L 4.0 0.23354299366474152 L 3.0 0.23354299366474152 L 3.0 0.002161995507776737 L 2.0 0.002161995507776737 L 2.0 0.1697968989610672 L 1.0 0.1697968989610672 L 1.0 0.09276889264583588 L 0.0 0.09276889264583588 Z" style="vector-effect: non-scaling-stroke;" /></g></g><g style="stroke: black;stroke-width: 1.2000000000000002;" transform="matrix(1.0, 0.0, 0.0, 1.0, 0.0, 0.0)"><path d="M 0.0 0.09276889264583588 L 1.0 0.09276889264583588 L 1.0 0.1697968989610672 L 2.0 0.1697968989610672 L 2.0 0.002161995507776737 L 3.0 0.002161995507776737 L 3.0 0.23354299366474152 L 4.0 0.23354299366474152 L 4.0 -0.017770862206816673 L 5.0 -0.017770862206816673 L 5.0 -0.1815396398305893 L 6.0 -0.1815396398305893 L 6.0 -0.3859420418739319 L 7.0 -0.3859420418739319 L 7.0 0.05361200496554375 L 8.0 0.05361200496554375 L 8.0 -0.04955179616808891 L 9.0 -0.04955179616808891 L 9.0 -0.2657032907009125 L 10.0 -0.2657032907009125 L 10.0 -0.024221494793891907 L 11.0 -0.024221494793891907 L 11.0 0.17888721823692322 L 12.0 0.17888721823692322 L 12.0 -0.001001004595309496 L 13.0 -0.001001004595309496 L 13.0 -0.021077221259474754 L 14.0 -0.021077221259474754 L 14.0 -0.05045272409915924 L 15.0 -0.05045272409915924 L 15.0 0.02863893285393715 L 16.0 0.02863893285393715 L 16.0 -0.9419363737106323 L 17.0 -0.9419363737106323 L 17.0 -0.2684113383293152 L 18.0 -0.2684113383293152 L 18.0 -0.09205836057662964 L 19.0 -0.09205836057662964 L 19.0 0.10423743724822998 L 20.0 0.10423743724822998 L 20.0 -0.11104746907949448 L 21.0 -0.11104746907949448 L 21.0 -0.19989746809005737 L 22.0 -0.19989746809005737 L 22.0 -0.010227533988654613 L 23.0 -0.010227533988654613 L 23.0 -0.25632181763648987 L 24.0 -0.25632181763648987 L 24.0 -0.04393523931503296 L 25.0 -0.04393523931503296 L 25.0 -0.7180842757225037 L 26.0 -0.7180842757225037 L 26.0 -0.5836437940597534 L 27.0 -0.5836437940597534 L 27.0 -0.5095368027687073 L 28.0 -0.5095368027687073 L 28.0 -0.04574745148420334 L 29.0 -0.04574745148420334 L 29.0 -1.102038860321045 L 30.0 -1.102038860321045 L 30.0 -0.020041314885020256 L 31.0 -0.020041314885020256 L 31.0 -1.1716960668563843 L 32.0 -1.1716960668563843 L 32.0 -0.013201936148107052 L 33.0 -0.013201936148107052 L 33.0 -0.7958671450614929 L 34.0 -0.7958671450614929 L 34.0 -0.0924811065196991 L 35.0 -0.0924811065196991 L 35.0 -0.8908669948577881 L 36.0 -0.8908669948577881 L 36.0 -0.7741110920906067 L 37.0 -0.7741110920906067 L 37.0 -0.34228095412254333 L 38.0 -0.34228095412254333 L 38.0 -0.09865155816078186 L 39.0 -0.09865155816078186 L 39.0 -0.8510673642158508 L 40.0 -0.8510673642158508" style="vector-effect: non-scaling-stroke;fill:none;" /></g></g></g></g></g></g></g></g><g /></g></g></g></g></svg>