<?xml version="1.0" encoding="utf-8" ?>
<svg baseProfile="full" height="300" version="1.1" width="852" xmlns="http://www.w3.org/2000/svg" xmlns:ev="http://www.w3.org/2001/xml-events" xmlns:xlink="http://www.w3.org/1999/xlink"><defs><marker id="arrow" markerHeight="3.5" markerWidth="5" orient="auto" refX="5.0" refY="1.7"><polygon points="0,0 5,1.75 0,3.5" /></marker></defs><g style="fill:white;"><g transform="matrix(1.0, 0.0, 0.0, 1.0, 426.13636363636357, 150.0)"><g transform="matrix(1082.2510822510822, 0.0, 0.0, 1082.2510822510822, 0.0, 0.0)"><g><g transform="matrix(1.0, 0.0, 0.0, 1.0, -5.551115123125783e-17, -0.08000000000000002)"><g><g><g style="fill: #ffffff;stroke: black;stroke-width: 1.2000000000000002;" transform="matrix(1.0, 0.0, 0.0, 1.0, -0.3749999999999999, -0.052000000000000005)"><path d="M 0.0 0.0 L 0.7499999999999999 0.0 L 0.7499999999999999 0.264 L 0.0 0.264 L 0.0 0.0 Z" style="vector-effect: non-scaling-stroke;" /></g><g><g><g><g><g><g transform="matrix(1.0, 0.0, 0.0, 1.0, -0.08, -0.03)"><g transform="matrix(1.0, 0.0, 0.0, 1.0, 0.075, 0.0)"><g transform="matrix(1.0, 0.0, 0.0, 1.0, 0.0, 0.03)"><g transform="matrix(0.01, 0.0, 0.0, 0.01, 0.0, 0.0)"><g><g><g transform="matrix(1.0, 0.0, 0.0, 1.0, 0.5, 0.0)"><g transform="matrix(1.0, 0.0, 0.0, 1.0, -8.0, -0.0)"><g><g style="fill: #d3d3d3;stroke: black;stroke-width: 1.2000000000000002;" transform="matrix(1.0, 0.0, 0.0, 1.0, 0.0, -3.0)"><path d="M 0.0 0.0 L 16.0 0.0 L 16.0 6.0 L 0.0 6.0 L 0.0 0.0 Z" style="vector-effect: non-scaling-stroke;" /></g><g transform="matrix(1.0, 0.0, 0.0, 1.0, 1.875, 0.0)"><g><g style="stroke: black;stroke-width: 1.2000000000000002;" transform="matrix(1.0, 0.0, 0.0, 1.0, 0.0, 0.0)"><g /></g><g style="fill: #ffa500;stroke: black;stroke-width: 1.2000000000000002;" transform="matrix(1.0, 0.0, 0.0, 1.0, 1.875, 0.0)"><text style="text-align:center; text-anchor:middle; dominant-baseline:middle;&#10;                      font-family:sans-serif; font-weight: bold;&#10;                      font-size:3px;&#10;                      vector-effect: non-scaling-stroke;" transform="translate(-5e-05, 0)">x</text></g></g></g></g></g></g><g><g><g><g style="stroke: black;stroke-width: 1.2000000000000002;" transform="matrix(1.0, 0.0, 0.0, 1.0, 0.0, 0.0)"><path d="M 0.0 -2.0 L 0.0 2.0" style="vector-effect: non-scaling-stroke;fill:none;" /></g><g style="stroke: #808080;stroke-width: 0.6000000000000001;" transform="matrix(1.0, 0.0, 0.0, 1.0, 0.0, 0.0)"><path d="M 0.0 0.0 L 1.0 0.0" style="vector-effect: non-scaling-stroke;fill:none;" /></g></g><g style="stroke: black;stroke-width: 2.4000000000000004;" transform="matrix(1.0, 0.0, 0.0, 1.0, 0.0, 0.0)"><path d="M 0.0 0.2536965608596802 L 1.0 0.2536965608596802" style="vector-effect: non-scaling-stroke;fill:none;" /></g></g></g></g><g><g><g><g style="stroke: black;stroke-width: 1.2000000000000002;" transform="matrix(1.0, 0.0, 0.0, 1.0, 0.0, 0.0)"><path d="M 0.0 -2.0 L 0.0 2.0" style="vector-effect: non-scaling-stroke;fill:none;" /></g><g style="stroke: #808080;stroke-width: 0.6000000000000001;" transform="matrix(1.0, 0.0, 0.0, 1.0, 0.0, 0.0)"><path d="M 0.0 0.0 L 1.0 0.0" style="vector-effect: non-scaling-stroke;fill:none;" /></g></g><g style="stroke: black;stroke-width: 2.4000000000000004;" transform="matrix(1.0, 0.0, 0.0, 1.0, 0.0, 0.0)"><path d="M 0.0 0.2536965608596802 L 1.0 0.2536965608596802" style="vector-effect: non-scaling-stroke;fill:none;" /></g></g></g></g></g></g></g></g><g style="stroke: black;stroke-width: 1.2000000000000002;" transform="matrix(0.0, -1.0, 1.0, 0.0, 0.0, 0.08)"><g /></g></g><g transform="matrix(1.0, 0.0, 0.0, 1.0, 0.0, 0.16)"><g transform="matrix(1.0, 0.0, 0.0, 1.0, -0.32499999999999996, -0.03)"><g transform="matrix(1.0, 0.0, 0.0, 1.0, 0.075, 0.0)"><g transform="matrix(1.0, 0.0, 0.0, 1.0, 0.0, 0.03)"><g transform="matrix(0.01, 0.0, 0.0, 0.01, 0.0, 0.0)"><g><g><g transform="matrix(1.0, 0.0, 0.0, 1.0, 25.0, 0.0)"><g transform="matrix(1.0, 0.0, 0.0, 1.0, -32.5, -0.0)"><g><g style="fill: #d3d3d3;stroke: black;stroke-width: 1.2000000000000002;" transform="matrix(1.0, 0.0, 0.0, 1.0, 0.0, -3.0)"><path d="M 0.0 0.0 L 65.0 0.0 L 65.0 6.0 L 0.0 6.0 L 0.0 0.0 Z" style="vector-effect: non-scaling-stroke;" /></g><g transform="matrix(1.0, 0.0, 0.0, 1.0, 1.875, 0.0)"><g><g style="stroke: black;stroke-width: 1.2000000000000002;" transform="matrix(1.0, 0.0, 0.0, 1.0, 0.0, 0.0)"><g /></g><g style="fill: #ffa500;stroke: black;stroke-width: 1.2000000000000002;" transform="matrix(1.0, 0.0, 0.0, 1.0, 1.875, 0.0)"><text style="text-align:center; text-anchor:middle; dominant-baseline:middle;&#10;                      font-family:sans-serif; font-weight: bold;&#10;                      font-size:3px;&#10;                      vector-effect: non-scaling-stroke;" transform="translate(-5e-05, 0)">f(x)</text></g></g></g></g></g></g><g><g><g><g style="stroke: black;stroke-width: 1.2000000000000002;" transform="matrix(1.0, 0.0, 0.0, 1.0, 0.0, 0.0)"><path d="M 0.0 -2.0 L 0.0 2.0" style="vector-effect: non-scaling-stroke;fill:none;" /></g><g style="stroke: #808080;stroke-width: 0.6000000000000001;" transform="matrix(1.0, 0.0, 0.0, 1.0, 0.0, 0.0)"><path d="M 0.0 0.0 L 50.0 0.0" style="vector-effect: non-scaling-stroke;fill:none;" /></g></g><g style="stroke: black;stroke-width: 2.4000000000000004;" transform="matrix(1.0, 0.0, 0.0, 1.0, 0.0, 0.0)"><path d="M 0.0 0.0 L 1.0 0.0 L 1.0 0.005073931068181992 L 2.0 0.005073931068181992 L 2.0 0.010147862136363983 L 3.0 0.010147862136363983 L 3.0 0.015221793204545975 L 4.0 0.015221793204545975 L 4.0 0.020295724272727966 L 5.0 0.020295724272727966 L 5.0 0.025369657203555107 L 6.0 0.025369657203555107 L 6.0 0.03044358640909195 L 7.0 0.03044358640909195 L 7.0 0.03551751747727394 L 8.0 0.03551751747727394 L 8.0 0.04059144854545593 L 9.0 0.04059144854545593 L 9.0 0.04566538333892822 L 10.0 0.04566538333892822 L 10.0 0.050739314407110214 L 11.0 0.050739314407110214 L 11.0 0.05581324175000191 L 12.0 0.05581324175000191 L 12.0 0.0608871728181839 L 13.0 0.0608871728181839 L 13.0 0.06596110016107559 L 14.0 0.06596110016107559 L 14.0 0.07103503495454788 L 15.0 0.07103503495454788 L 15.0 0.07610896974802017 L 16.0 0.07610896974802017 L 16.0 0.08118289709091187 L 17.0 0.08118289709091187 L 17.0 0.08625683188438416 L 18.0 0.08625683188438416 L 18.0 0.09133076667785645 L 19.0 0.09133076667785645 L 19.0 0.09640469402074814 L 20.0 0.09640469402074814 L 20.0 0.10147862881422043 L 21.0 0.10147862881422043 L 21.0 0.10655254870653152 L 22.0 0.10655254870653152 L 22.0 0.11162648350000381 L 23.0 0.11162648350000381 L 23.0 0.1167004182934761 L 24.0 0.1167004182934761 L 24.0 0.1217743456363678 L 25.0 0.1217743456363678 L 25.0 0.1268482804298401 L 26.0 0.1268482804298401 L 26.0 0.13192220032215118 L 27.0 0.13192220032215118 L 27.0 0.13699615001678467 L 28.0 0.13699615001678467 L 28.0 0.14207006990909576 L 29.0 0.14207006990909576 L 29.0 0.14714400470256805 L 30.0 0.14714400470256805 L 30.0 0.15221793949604034 L 31.0 0.15221793949604034 L 31.0 0.15729187428951263 L 32.0 0.15729187428951263 L 32.0 0.16236579418182373 L 33.0 0.16236579418182373 L 33.0 0.16743974387645721 L 34.0 0.16743974387645721 L 34.0 0.1725136637687683 L 35.0 0.1725136637687683 L 35.0 0.1775875836610794 L 36.0 0.1775875836610794 L 36.0 0.1826615333557129 L 37.0 0.1826615333557129 L 37.0 0.187735453248024 L 38.0 0.187735453248024 L 38.0 0.19280938804149628 L 39.0 0.19280938804149628 L 39.0 0.19788330793380737 L 40.0 0.19788330793380737 L 40.0 0.20295725762844086 L 41.0 0.20295725762844086 L 41.0 0.20803117752075195 L 42.0 0.20803117752075195 L 42.0 0.21310509741306305 L 43.0 0.21310509741306305 L 43.0 0.21817904710769653 L 44.0 0.21817904710769653 L 44.0 0.22325296700000763 L 45.0 0.22325296700000763 L 45.0 0.22832690179347992 L 46.0 0.22832690179347992 L 46.0 0.2334008365869522 L 47.0 0.2334008365869522 L 47.0 0.2384747713804245 L 48.0 0.2384747713804245 L 48.0 0.2435486912727356 L 49.0 0.2435486912727356 L 49.0 0.24862264096736908 L 50.0 0.24862264096736908" style="vector-effect: non-scaling-stroke;fill:none;" /></g></g></g></g><g><g><g><g style="stroke: black;stroke-width: 1.2000000000000002;" transform="matrix(1.0, 0.0, 0.0, 1.0, 0.0, 0.0)"><path d="M 0.0 -2.0 L 0.0 2.0" style="vector-effect: non-scaling-stroke;fill:none;" /></g><g style="stroke: #808080;stroke-width: 0.6000000000000001;" transform="matrix(1.0, 0.0, 0.0, 1.0, 0.0, 0.0)"><path d="M 0.0 0.0 L 50.0 0.0" style="vector-effect: non-scaling-stroke;fill:none;" /></g></g><g style="stroke: black;stroke-width: 2.4000000000000004;" transform="matrix(1.0, 0.0, 0.0, 1.0, 0.0, 0.0)"><path d="M 0.0 0.0 L 1.0 0.0 L 1.0 0.005073931068181992 L 2.0 0.005073931068181992 L 2.0 0.010147862136363983 L 3.0 0.010147862136363983 L 3.0 0.015221793204545975 L 4.0 0.015221793204545975 L 4.0 0.020295724272727966 L 5.0 0.020295724272727966 L 5.0 0.025369657203555107 L 6.0 0.025369657203555107 L 6.0 0.03044358640909195 L 7.0 0.03044358640909195 L 7.0 0.03551751747727394 L 8.0 0.03551751747727394 L 8.0 0.04059144854545593 L 9.0 0.04059144854545593 L 9.0 0.04566538333892822 L 10.0 0.04566538333892822 L 10.0 0.050739314407110214 L 11.0 0.050739314407110214 L 11.0 0.05581324175000191 L 12.0 0.05581324175000191 L 12.0 0.0608871728181839 L 13.0 0.0608871728181839 L 13.0 0.06596110016107559 L 14.0 0.06596110016107559 L 14.0 0.07103503495454788 L 15.0 0.07103503495454788 L 15.0 0.07610896974802017 L 16.0 0.07610896974802017 L 16.0 0.08118289709091187 L 17.0 0.08118289709091187 L 17.0 0.08625683188438416 L 18.0 0.08625683188438416 L 18.0 0.09133076667785645 L 19.0 0.09133076667785645 L 19.0 0.09640469402074814 L 20.0 0.09640469402074814 L 20.0 0.10147862881422043 L 21.0 0.10147862881422043 L 21.0 0.10655254870653152 L 22.0 0.10655254870653152 L 22.0 0.11162648350000381 L 23.0 0.11162648350000381 L 23.0 0.1167004182934761 L 24.0 0.1167004182934761 L 24.0 0.1217743456363678 L 25.0 0.1217743456363678 L 25.0 0.1268482804298401 L 26.0 0.1268482804298401 L 26.0 0.13192220032215118 L 27.0 0.13192220032215118 L 27.0 0.13699615001678467 L 28.0 0.13699615001678467 L 28.0 0.14207006990909576 L 29.0 0.14207006990909576 L 29.0 0.14714400470256805 L 30.0 0.14714400470256805 L 30.0 0.15221793949604034 L 31.0 0.15221793949604034 L 31.0 0.15729187428951263 L 32.0 0.15729187428951263 L 32.0 0.16236579418182373 L 33.0 0.16236579418182373 L 33.0 0.16743974387645721 L 34.0 0.16743974387645721 L 34.0 0.1725136637687683 L 35.0 0.1725136637687683 L 35.0 0.1775875836610794 L 36.0 0.1775875836610794 L 36.0 0.1826615333557129 L 37.0 0.1826615333557129 L 37.0 0.187735453248024 L 38.0 0.187735453248024 L 38.0 0.19280938804149628 L 39.0 0.19280938804149628 L 39.0 0.19788330793380737 L 40.0 0.19788330793380737 L 40.0 0.20295725762844086 L 41.0 0.20295725762844086 L 41.0 0.20803117752075195 L 42.0 0.20803117752075195 L 42.0 0.21310509741306305 L 43.0 0.21310509741306305 L 43.0 0.21817904710769653 L 44.0 0.21817904710769653 L 44.0 0.22325296700000763 L 45.0 0.22325296700000763 L 45.0 0.22832690179347992 L 46.0 0.22832690179347992 L 46.0 0.2334008365869522 L 47.0 0.2334008365869522 L 47.0 0.2384747713804245 L 48.0 0.2384747713804245 L 48.0 0.2435486912727356 L 49.0 0.2435486912727356 L 49.0 0.24862264096736908 L 50.0 0.24862264096736908" style="vector-effect: non-scaling-stroke;fill:none;" /></g></g></g></g></g></g></g></g></g></g><g transform="matrix(1.0, 0.0, 0.0, 1.0, -0.24999999999999994, 0.16)"><g transform="matrix(1.0, 0.0, 0.0, 0.009999999999999995, 0.0, 0.0)"><g transform="matrix(0.01, 0.0, 0.0, 1.0, 0.0, 0.0)"><g><g><g style="fill: #ff0000;stroke: #ff0000;stroke-width: 1.2000000000000002;fill-opacity: 0.5;" transform="matrix(1.0, 0.0, 0.0, 1.0, 0.0, 0.0)"><path d="M 0.0 -2.0 L 0.0 2.0" style="vector-effect: non-scaling-stroke;fill:none;" /></g><g style="fill: #ff0000;stroke: #ff0000;stroke-width: 1.2000000000000002;fill-opacity: 0.5;" transform="matrix(1.0, 0.0, 0.0, 1.0, 0.0, 0.0)"><path d="M 0.0 -0.0 L 1.0 0.0 L 1.0 0.005073931068181992 L 2.0 0.005073931068181992 L 2.0 0.010147862136363983 L 3.0 0.010147862136363983 L 3.0 0.015221793204545975 L 4.0 0.015221793204545975 L 4.0 0.020295724272727966 L 5.0 0.020295724272727966 L 5.0 0.025369657203555107 L 6.0 0.025369657203555107 L 6.0 0.03044358640909195 L 7.0 0.03044358640909195 L 7.0 0.03551751747727394 L 8.0 0.03551751747727394 L 8.0 0.04059144854545593 L 9.0 0.04059144854545593 L 9.0 0.04566538333892822 L 10.0 0.04566538333892822 L 10.0 0.050739314407110214 L 11.0 0.050739314407110214 L 11.0 0.05581324175000191 L 12.0 0.05581324175000191 L 12.0 0.0608871728181839 L 13.0 0.0608871728181839 L 13.0 0.06596110016107559 L 14.0 0.06596110016107559 L 14.0 0.07103503495454788 L 15.0 0.07103503495454788 L 15.0 0.07610896974802017 L 16.0 0.07610896974802017 L 16.0 0.08118289709091187 L 17.0 0.08118289709091187 L 17.0 0.08625683188438416 L 18.0 0.08625683188438416 L 18.0 0.09133076667785645 L 19.0 0.09133076667785645 L 19.0 0.09640469402074814 L 20.0 0.09640469402074814 L 20.0 0.10147862881422043 L 21.0 0.10147862881422043 L 21.0 0.10655254870653152 L 22.0 0.10655254870653152 L 22.0 0.11162648350000381 L 23.0 0.11162648350000381 L 23.0 0.1167004182934761 L 24.0 0.1167004182934761 L 24.0 0.1217743456363678 L 25.0 0.1217743456363678 L 25.0 0.1268482804298401 L 26.0 0.1268482804298401 L 26.0 0.13192220032215118 L 27.0 0.13192220032215118 L 27.0 0.13699615001678467 L 28.0 0.13699615001678467 L 28.0 0.14207006990909576 L 29.0 0.14207006990909576 L 29.0 0.14714400470256805 L 30.0 0.14714400470256805 L 30.0 0.15221793949604034 L 31.0 0.15221793949604034 L 31.0 0.15729187428951263 L 32.0 0.15729187428951263 L 32.0 0.16236579418182373 L 33.0 0.16236579418182373 L 33.0 0.16743974387645721 L 34.0 0.16743974387645721 L 34.0 0.1725136637687683 L 35.0 0.1725136637687683 L 35.0 0.1775875836610794 L 36.0 0.1775875836610794 L 36.0 0.1826615333557129 L 37.0 0.1826615333557129 L 37.0 0.187735453248024 L 38.0 0.187735453248024 L 38.0 0.19280938804149628 L 39.0 0.19280938804149628 L 39.0 0.19788330793380737 L 40.0 0.19788330793380737 L 40.0 0.20295725762844086 L 41.0 0.20295725762844086 L 41.0 0.20803117752075195 L 42.0 0.20803117752075195 L 42.0 0.21310509741306305 L 43.0 0.21310509741306305 L 43.0 0.21817904710769653 L 44.0 0.21817904710769653 L 44.0 0.22325296700000763 L 45.0 0.22325296700000763 L 45.0 0.22832690179347992 L 46.0 0.22832690179347992 L 46.0 0.2334008365869522 L 47.0 0.2334008365869522 L 47.0 0.2384747713804245 L 48.0 0.2384747713804245 L 48.0 0.2435486912727356 L 49.0 0.2435486912727356 L 49.0 0.24862264096736908 L 50.0 0.24862264096736908 L 50.0 0.24862264096736908 L 49.0 0.24862264096736908 L 49.0 0.2435486912727356 L 48.0 0.2435486912727356 L 48.0 0.2384747713804245 L 47.0 0.2384747713804245 L 47.0 0.2334008365869522 L 46.0 0.2334008365869522 L 46.0 0.22832690179347992 L 45.0 0.22832690179347992 L 45.0 0.22325296700000763 L 44.0 0.22325296700000763 L 44.0 0.21817904710769653 L 43.0 0.21817904710769653 L 43.0 0.21310509741306305 L 42.0 0.21310509741306305 L 42.0 0.20803117752075195 L 41.0 0.20803117752075195 L 41.0 0.20295725762844086 L 40.0 0.20295725762844086 L 40.0 0.19788330793380737 L 39.0 0.19788330793380737 L 39.0 0.19280938804149628 L 38.0 0.19280938804149628 L 38.0 0.187735453248024 L 37.0 0.187735453248024 L 37.0 0.1826615333557129 L 36.0 0.1826615333557129 L 36.0 0.1775875836610794 L 35.0 0.1775875836610794 L 35.0 0.1725136637687683 L 34.0 0.1725136637687683 L 34.0 0.16743974387645721 L 33.0 0.16743974387645721 L 33.0 0.16236579418182373 L 32.0 0.16236579418182373 L 32.0 0.15729187428951263 L 31.0 0.15729187428951263 L 31.0 0.15221793949604034 L 30.0 0.15221793949604034 L 30.0 0.14714400470256805 L 29.0 0.14714400470256805 L 29.0 0.14207006990909576 L 28.0 0.14207006990909576 L 28.0 0.13699615001678467 L 27.0 0.13699615001678467 L 27.0 0.13192220032215118 L 26.0 0.13192220032215118 L 26.0 0.1268482804298401 L 25.0 0.1268482804298401 L 25.0 0.1217743456363678 L 24.0 0.1217743456363678 L 24.0 0.1167004182934761 L 23.0 0.1167004182934761 L 23.0 0.11162648350000381 L 22.0 0.11162648350000381 L 22.0 0.10655254870653152 L 21.0 0.10655254870653152 L 21.0 0.10147862881422043 L 20.0 0.10147862881422043 L 20.0 0.09640469402074814 L 19.0 0.09640469402074814 L 19.0 0.09133076667785645 L 18.0 0.09133076667785645 L 18.0 0.08625683188438416 L 17.0 0.08625683188438416 L 17.0 0.08118289709091187 L 16.0 0.08118289709091187 L 16.0 0.07610896974802017 L 15.0 0.07610896974802017 L 15.0 0.07103503495454788 L 14.0 0.07103503495454788 L 14.0 0.06596110016107559 L 13.0 0.06596110016107559 L 13.0 0.0608871728181839 L 12.0 0.0608871728181839 L 12.0 0.05581324175000191 L 11.0 0.05581324175000191 L 11.0 0.050739314407110214 L 10.0 0.050739314407110214 L 10.0 0.04566538333892822 L 9.0 0.04566538333892822 L 9.0 0.04059144854545593 L 8.0 0.04059144854545593 L 8.0 0.03551751747727394 L 7.0 0.03551751747727394 L 7.0 0.03044358640909195 L 6.0 0.03044358640909195 L 6.0 0.025369657203555107 L 5.0 0.025369657203555107 L 5.0 0.020295724272727966 L 4.0 0.020295724272727966 L 4.0 0.015221793204545975 L 3.0 0.015221793204545975 L 3.0 0.010147862136363983 L 2.0 0.010147862136363983 L 2.0 0.005073931068181992 L 1.0 0.005073931068181992 L 1.0 0.0 L 0.0 0.0 Z" style="vector-effect: non-scaling-stroke;" /></g></g><g style="stroke: black;stroke-width: 1.2000000000000002;" transform="matrix(1.0, 0.0, 0.0, 1.0, 0.0, 0.0)"><path d="M 0.0 0.0 L 1.0 0.0 L 1.0 0.005073931068181992 L 2.0 0.005073931068181992 L 2.0 0.010147862136363983 L 3.0 0.010147862136363983 L 3.0 0.015221793204545975 L 4.0 0.015221793204545975 L 4.0 0.020295724272727966 L 5.0 0.020295724272727966 L 5.0 0.025369657203555107 L 6.0 0.025369657203555107 L 6.0 0.03044358640909195 L 7.0 0.03044358640909195 L 7.0 0.03551751747727394 L 8.0 0.03551751747727394 L 8.0 0.04059144854545593 L 9.0 0.04059144854545593 L 9.0 0.04566538333892822 L 10.0 0.04566538333892822 L 10.0 0.050739314407110214 L 11.0 0.050739314407110214 L 11.0 0.05581324175000191 L 12.0 0.05581324175000191 L 12.0 0.0608871728181839 L 13.0 0.0608871728181839 L 13.0 0.06596110016107559 L 14.0 0.06596110016107559 L 14.0 0.07103503495454788 L 15.0 0.07103503495454788 L 15.0 0.07610896974802017 L 16.0 0.07610896974802017 L 16.0 0.08118289709091187 L 17.0 0.08118289709091187 L 17.0 0.08625683188438416 L 18.0 0.08625683188438416 L 18.0 0.09133076667785645 L 19.0 0.09133076667785645 L 19.0 0.09640469402074814 L 20.0 0.09640469402074814 L 20.0 0.10147862881422043 L 21.0 0.10147862881422043 L 21.0 0.10655254870653152 L 22.0 0.10655254870653152 L 22.0 0.11162648350000381 L 23.0 0.11162648350000381 L 23.0 0.1167004182934761 L 24.0 0.1167004182934761 L 24.0 0.1217743456363678 L 25.0 0.1217743456363678 L 25.0 0.1268482804298401 L 26.0 0.1268482804298401 L 26.0 0.13192220032215118 L 27.0 0.13192220032215118 L 27.0 0.13699615001678467 L 28.0 0.13699615001678467 L 28.0 0.14207006990909576 L 29.0 0.14207006990909576 L 29.0 0.14714400470256805 L 30.0 0.14714400470256805 L 30.0 0.15221793949604034 L 31.0 0.15221793949604034 L 31.0 0.15729187428951263 L 32.0 0.15729187428951263 L 32.0 0.16236579418182373 L 33.0 0.16236579418182373 L 33.0 0.16743974387645721 L 34.0 0.16743974387645721 L 34.0 0.1725136637687683 L 35.0 0.1725136637687683 L 35.0 0.1775875836610794 L 36.0 0.1775875836610794 L 36.0 0.1826615333557129 L 37.0 0.1826615333557129 L 37.0 0.187735453248024 L 38.0 0.187735453248024 L 38.0 0.19280938804149628 L 39.0 0.19280938804149628 L 39.0 0.19788330793380737 L 40.0 0.19788330793380737 L 40.0 0.20295725762844086 L 41.0 0.20295725762844086 L 41.0 0.20803117752075195 L 42.0 0.20803117752075195 L 42.0 0.21310509741306305 L 43.0 0.21310509741306305 L 43.0 0.21817904710769653 L 44.0 0.21817904710769653 L 44.0 0.22325296700000763 L 45.0 0.22325296700000763 L 45.0 0.22832690179347992 L 46.0 0.22832690179347992 L 46.0 0.2334008365869522 L 47.0 0.2334008365869522 L 47.0 0.2384747713804245 L 48.0 0.2384747713804245 L 48.0 0.2435486912727356 L 49.0 0.2435486912727356 L 49.0 0.24862264096736908 L 50.0 0.24862264096736908" style="vector-effect: non-scaling-stroke;fill:none;" /></g></g></g></g></g></g><g transform="matrix(1.0, 0.0, 0.0, 1.0, -0.24999999999999994, 0.16)"><g transform="matrix(1.0, 0.0, 0.0, 0.009999999999999995, 0.0, 0.0)"><g transform="matrix(0.01, 0.0, 0.0, 1.0, 0.0, 0.0)"><g><g><g style="fill: #ffffe0;stroke: #ffffe0;stroke-width: 1.2000000000000002;fill-opacity: 0.5;" transform="matrix(1.0, 0.0, 0.0, 1.0, 0.0, 0.0)"><path d="M 0.0 -2.0 L 0.0 2.0" style="vector-effect: non-scaling-stroke;fill:none;" /></g><g style="fill: #ffffe0;stroke: #ffffe0;stroke-width: 1.2000000000000002;fill-opacity: 0.5;" transform="matrix(1.0, 0.0, 0.0, 1.0, 0.0, 0.0)"><path d="M 0.0 -0.0 L 1.0 0.0 L 1.0 -0.03492637351155281 L 2.0 -0.03492637351155281 L 2.0 -0.06985274702310562 L 3.0 -0.06985274702310562 L 3.0 -0.10473255813121796 L 4.0 -0.10473255813121796 L 4.0 -0.13970549404621124 L 5.0 -0.13970549404621124 L 5.0 -0.17467842996120453 L 6.0 -0.17467842996120453 L 6.0 -0.2094651162624359 L 7.0 -0.2094651162624359 L 7.0 -0.2442517876625061 L 8.0 -0.2442517876625061 L 8.0 -0.2794109880924225 L 9.0 -0.2794109880924225 L 9.0 -0.3141976594924927 L 10.0 -0.3141976594924927 L 10.0 -0.34935685992240906 L 11.0 -0.34935685992240906 L 11.0 -0.38414353132247925 L 12.0 -0.38414353132247925 L 12.0 -0.4189302325248718 L 13.0 -0.4189302325248718 L 13.0 -0.4533443748950958 L 14.0 -0.4533443748950958 L 14.0 -0.4885035753250122 L 15.0 -0.4885035753250122 L 15.0 -0.5236627459526062 L 16.0 -0.5236627459526062 L 16.0 -0.558821976184845 L 17.0 -0.558821976184845 L 17.0 -0.593981146812439 L 18.0 -0.593981146812439 L 18.0 -0.6283953189849854 L 19.0 -0.6283953189849854 L 19.0 -0.6635545492172241 L 20.0 -0.6635545492172241 L 20.0 -0.6987137198448181 L 21.0 -0.6987137198448181 L 21.0 -0.7331278920173645 L 22.0 -0.7331278920173645 L 22.0 -0.7682870626449585 L 23.0 -0.7682870626449585 L 23.0 -0.8027012348175049 L 24.0 -0.8027012348175049 L 24.0 -0.8378604650497437 L 25.0 -0.8378604650497437 L 25.0 -0.8730196356773376 L 26.0 -0.8730196356773376 L 26.0 -0.9066887497901917 L 27.0 -0.9066887497901917 L 27.0 -0.9433380365371704 L 28.0 -0.9433380365371704 L 28.0 -0.9770071506500244 L 29.0 -0.9770071506500244 L 29.0 -1.013656497001648 L 30.0 -1.013656497001648 L 30.0 -1.0473254919052124 L 31.0 -1.0473254919052124 L 31.0 -1.0824847221374512 L 32.0 -1.0824847221374512 L 32.0 -1.11764395236969 L 33.0 -1.11764395236969 L 33.0 -1.1528031826019287 L 34.0 -1.1528031826019287 L 34.0 -1.187962293624878 L 35.0 -1.187962293624878 L 35.0 -1.221631407737732 L 36.0 -1.221631407737732 L 36.0 -1.2567906379699707 L 37.0 -1.2567906379699707 L 37.0 -1.2919498682022095 L 38.0 -1.2919498682022095 L 38.0 -1.3271090984344482 L 39.0 -1.3271090984344482 L 39.0 -1.3622682094573975 L 40.0 -1.3622682094573975 L 40.0 -1.3974274396896362 L 41.0 -1.3974274396896362 L 41.0 -1.4310965538024902 L 42.0 -1.4310965538024902 L 42.0 -1.466255784034729 L 43.0 -1.466255784034729 L 43.0 -1.5014150142669678 L 44.0 -1.5014150142669678 L 44.0 -1.536574125289917 L 45.0 -1.536574125289917 L 45.0 -1.5717333555221558 L 46.0 -1.5717333555221558 L 46.0 -1.6054024696350098 L 47.0 -1.6054024696350098 L 47.0 -1.6420518159866333 L 48.0 -1.6420518159866333 L 48.0 -1.6757209300994873 L 49.0 -1.6757209300994873 L 49.0 -1.7123701572418213 L 50.0 -1.7123701572418213 L 50.0 0.24862264096736908 L 49.0 0.24862264096736908 L 49.0 0.2435486912727356 L 48.0 0.2435486912727356 L 48.0 0.2384747713804245 L 47.0 0.2384747713804245 L 47.0 0.2334008365869522 L 46.0 0.2334008365869522 L 46.0 0.22832690179347992 L 45.0 0.22832690179347992 L 45.0 0.22325296700000763 L 44.0 0.22325296700000763 L 44.0 0.21817904710769653 L 43.0 0.21817904710769653 L 43.0 0.21310509741306305 L 42.0 0.21310509741306305 L 42.0 0.20803117752075195 L 41.0 0.20803117752075195 L 41.0 0.20295725762844086 L 40.0 0.20295725762844086 L 40.0 0.19788330793380737 L 39.0 0.19788330793380737 L 39.0 0.19280938804149628 L 38.0 0.19280938804149628 L 38.0 0.187735453248024 L 37.0 0.187735453248024 L 37.0 0.1826615333557129 L 36.0 0.1826615333557129 L 36.0 0.1775875836610794 L 35.0 0.1775875836610794 L 35.0 0.1725136637687683 L 34.0 0.1725136637687683 L 34.0 0.16743974387645721 L 33.0 0.16743974387645721 L 33.0 0.16236579418182373 L 32.0 0.16236579418182373 L 32.0 0.15729187428951263 L 31.0 0.15729187428951263 L 31.0 0.15221793949604034 L 30.0 0.15221793949604034 L 30.0 0.14714400470256805 L 29.0 0.14714400470256805 L 29.0 0.14207006990909576 L 28.0 0.14207006990909576 L 28.0 0.13699615001678467 L 27.0 0.13699615001678467 L 27.0 0.13192220032215118 L 26.0 0.13192220032215118 L 26.0 0.1268482804298401 L 25.0 0.1268482804298401 L 25.0 0.1217743456363678 L 24.0 0.1217743456363678 L 24.0 0.1167004182934761 L 23.0 0.1167004182934761 L 23.0 0.11162648350000381 L 22.0 0.11162648350000381 L 22.0 0.10655254870653152 L 21.0 0.10655254870653152 L 21.0 0.10147862881422043 L 20.0 0.10147862881422043 L 20.0 0.09640469402074814 L 19.0 0.09640469402074814 L 19.0 0.09133076667785645 L 18.0 0.09133076667785645 L 18.0 0.08625683188438416 L 17.0 0.08625683188438416 L 17.0 0.08118289709091187 L 16.0 0.08118289709091187 L 16.0 0.07610896974802017 L 15.0 0.07610896974802017 L 15.0 0.07103503495454788 L 14.0 0.07103503495454788 L 14.0 0.06596110016107559 L 13.0 0.06596110016107559 L 13.0 0.0608871728181839 L 12.0 0.0608871728181839 L 12.0 0.05581324175000191 L 11.0 0.05581324175000191 L 11.0 0.050739314407110214 L 10.0 0.050739314407110214 L 10.0 0.04566538333892822 L 9.0 0.04566538333892822 L 9.0 0.04059144854545593 L 8.0 0.04059144854545593 L 8.0 0.03551751747727394 L 7.0 0.03551751747727394 L 7.0 0.03044358640909195 L 6.0 0.03044358640909195 L 6.0 0.025369657203555107 L 5.0 0.025369657203555107 L 5.0 0.020295724272727966 L 4.0 0.020295724272727966 L 4.0 0.015221793204545975 L 3.0 0.015221793204545975 L 3.0 0.010147862136363983 L 2.0 0.010147862136363983 L 2.0 0.005073931068181992 L 1.0 0.005073931068181992 L 1.0 0.0 L 0.0 0.0 Z" style="vector-effect: non-scaling-stroke;" /></g></g><g style="stroke: black;stroke-width: 1.2000000000000002;" transform="matrix(1.0, 0.0, 0.0, 1.0, 0.0, 0.0)"><path d="M 0.0 0.0 L 1.0 0.0 L 1.0 0.005073931068181992 L 2.0 0.005073931068181992 L 2.0 0.010147862136363983 L 3.0 0.010147862136363983 L 3.0 0.015221793204545975 L 4.0 0.015221793204545975 L 4.0 0.020295724272727966 L 5.0 0.020295724272727966 L 5.0 0.025369657203555107 L 6.0 0.025369657203555107 L 6.0 0.03044358640909195 L 7.0 0.03044358640909195 L 7.0 0.03551751747727394 L 8.0 0.03551751747727394 L 8.0 0.04059144854545593 L 9.0 0.04059144854545593 L 9.0 0.04566538333892822 L 10.0 0.04566538333892822 L 10.0 0.050739314407110214 L 11.0 0.050739314407110214 L 11.0 0.05581324175000191 L 12.0 0.05581324175000191 L 12.0 0.0608871728181839 L 13.0 0.0608871728181839 L 13.0 0.06596110016107559 L 14.0 0.06596110016107559 L 14.0 0.07103503495454788 L 15.0 0.07103503495454788 L 15.0 0.07610896974802017 L 16.0 0.07610896974802017 L 16.0 0.08118289709091187 L 17.0 0.08118289709091187 L 17.0 0.08625683188438416 L 18.0 0.08625683188438416 L 18.0 0.09133076667785645 L 19.0 0.09133076667785645 L 19.0 0.09640469402074814 L 20.0 0.09640469402074814 L 20.0 0.10147862881422043 L 21.0 0.10147862881422043 L 21.0 0.10655254870653152 L 22.0 0.10655254870653152 L 22.0 0.11162648350000381 L 23.0 0.11162648350000381 L 23.0 0.1167004182934761 L 24.0 0.1167004182934761 L 24.0 0.1217743456363678 L 25.0 0.1217743456363678 L 25.0 0.1268482804298401 L 26.0 0.1268482804298401 L 26.0 0.13192220032215118 L 27.0 0.13192220032215118 L 27.0 0.13699615001678467 L 28.0 0.13699615001678467 L 28.0 0.14207006990909576 L 29.0 0.14207006990909576 L 29.0 0.14714400470256805 L 30.0 0.14714400470256805 L 30.0 0.15221793949604034 L 31.0 0.15221793949604034 L 31.0 0.15729187428951263 L 32.0 0.15729187428951263 L 32.0 0.16236579418182373 L 33.0 0.16236579418182373 L 33.0 0.16743974387645721 L 34.0 0.16743974387645721 L 34.0 0.1725136637687683 L 35.0 0.1725136637687683 L 35.0 0.1775875836610794 L 36.0 0.1775875836610794 L 36.0 0.1826615333557129 L 37.0 0.1826615333557129 L 37.0 0.187735453248024 L 38.0 0.187735453248024 L 38.0 0.19280938804149628 L 39.0 0.19280938804149628 L 39.0 0.19788330793380737 L 40.0 0.19788330793380737 L 40.0 0.20295725762844086 L 41.0 0.20295725762844086 L 41.0 0.20803117752075195 L 42.0 0.20803117752075195 L 42.0 0.21310509741306305 L 43.0 0.21310509741306305 L 43.0 0.21817904710769653 L 44.0 0.21817904710769653 L 44.0 0.22325296700000763 L 45.0 0.22325296700000763 L 45.0 0.22832690179347992 L 46.0 0.22832690179347992 L 46.0 0.2334008365869522 L 47.0 0.2334008365869522 L 47.0 0.2384747713804245 L 48.0 0.2384747713804245 L 48.0 0.2435486912727356 L 49.0 0.2435486912727356 L 49.0 0.24862264096736908 L 50.0 0.24862264096736908" style="vector-effect: non-scaling-stroke;fill:none;" /></g></g></g></g></g></g></g></g><g><g><g><g><g transform="matrix(1.0, 0.0, 0.0, 1.0, -0.08, -0.03)"><g transform="matrix(1.0, 0.0, 0.0, 1.0, 0.075, 0.0)"><g transform="matrix(1.0, 0.0, 0.0, 1.0, 0.0, 0.03)"><g transform="matrix(0.01, 0.0, 0.0, 0.01, 0.0, 0.0)"><g><g><g transform="matrix(1.0, 0.0, 0.0, 1.0, 0.5, 0.0)"><g transform="matrix(1.0, 0.0, 0.0, 1.0, -8.0, -0.0)"><g><g style="fill: #d3d3d3;stroke: black;stroke-width: 1.2000000000000002;" transform="matrix(1.0, 0.0, 0.0, 1.0, 0.0, -3.0)"><path d="M 0.0 0.0 L 16.0 0.0 L 16.0 6.0 L 0.0 6.0 L 0.0 0.0 Z" style="vector-effect: non-scaling-stroke;" /></g><g transform="matrix(1.0, 0.0, 0.0, 1.0, 1.875, 0.0)"><g><g style="stroke: black;stroke-width: 1.2000000000000002;" transform="matrix(1.0, 0.0, 0.0, 1.0, 0.0, 0.0)"><g /></g><g style="fill: #ffa500;stroke: black;stroke-width: 1.2000000000000002;" transform="matrix(1.0, 0.0, 0.0, 1.0, 1.875, 0.0)"><text style="text-align:center; text-anchor:middle; dominant-baseline:middle;&#10;                      font-family:sans-serif; font-weight: bold;&#10;                      font-size:3px;&#10;                      vector-effect: non-scaling-stroke;" transform="translate(-5e-05, 0)">x</text></g></g></g></g></g></g><g><g><g><g style="stroke: black;stroke-width: 1.2000000000000002;" transform="matrix(1.0, 0.0, 0.0, 1.0, 0.0, 0.0)"><path d="M 0.0 -2.0 L 0.0 2.0" style="vector-effect: non-scaling-stroke;fill:none;" /></g><g style="stroke: #808080;stroke-width: 0.6000000000000001;" transform="matrix(1.0, 0.0, 0.0, 1.0, 0.0, 0.0)"><path d="M 0.0 0.0 L 1.0 0.0" style="vector-effect: non-scaling-stroke;fill:none;" /></g></g><g style="stroke: black;stroke-width: 2.4000000000000004;" transform="matrix(1.0, 0.0, 0.0, 1.0, 0.0, 0.0)"><path d="M 0.0 0.2536965608596802 L 1.0 0.2536965608596802" style="vector-effect: non-scaling-stroke;fill:none;" /></g></g></g></g><g><g><g><g style="stroke: black;stroke-width: 1.2000000000000002;" transform="matrix(1.0, 0.0, 0.0, 1.0, 0.0, 0.0)"><path d="M 0.0 -2.0 L 0.0 2.0" style="vector-effect: non-scaling-stroke;fill:none;" /></g><g style="stroke: #808080;stroke-width: 0.6000000000000001;" transform="matrix(1.0, 0.0, 0.0, 1.0, 0.0, 0.0)"><path d="M 0.0 0.0 L 1.0 0.0" style="vector-effect: non-scaling-stroke;fill:none;" /></g></g><g style="stroke: black;stroke-width: 2.4000000000000004;" transform="matrix(1.0, 0.0, 0.0, 1.0, 0.0, 0.0)"><path d="M 0.0 0.2536965608596802 L 1.0 0.2536965608596802" style="vector-effect: non-scaling-stroke;fill:none;" /></g></g></g></g></g></g></g></g><g style="stroke: black;stroke-width: 1.2000000000000002;" transform="matrix(0.0, -1.0, 1.0, 0.0, 0.0, 0.08)"><g /></g></g><g transform="matrix(1.0, 0.0, 0.0, 1.0, 0.0, 0.16)"><g transform="matrix(1.0, 0.0, 0.0, 1.0, -0.32499999999999996, -0.03)"><g transform="matrix(1.0, 0.0, 0.0, 1.0, 0.075, 0.0)"><g transform="matrix(1.0, 0.0, 0.0, 1.0, 0.0, 0.03)"><g transform="matrix(0.01, 0.0, 0.0, 0.01, 0.0, 0.0)"><g><g><g transform="matrix(1.0, 0.0, 0.0, 1.0, 25.0, 0.0)"><g transform="matrix(1.0, 0.0, 0.0, 1.0, -32.5, -0.0)"><g><g style="fill: #d3d3d3;stroke: black;stroke-width: 1.2000000000000002;" transform="matrix(1.0, 0.0, 0.0, 1.0, 0.0, -3.0)"><path d="M 0.0 0.0 L 65.0 0.0 L 65.0 6.0 L 0.0 6.0 L 0.0 0.0 Z" style="vector-effect: non-scaling-stroke;" /></g><g transform="matrix(1.0, 0.0, 0.0, 1.0, 1.875, 0.0)"><g><g style="stroke: black;stroke-width: 1.2000000000000002;" transform="matrix(1.0, 0.0, 0.0, 1.0, 0.0, 0.0)"><g /></g><g style="fill: #ffa500;stroke: black;stroke-width: 1.2000000000000002;" transform="matrix(1.0, 0.0, 0.0, 1.0, 1.875, 0.0)"><text style="text-align:center; text-anchor:middle; dominant-baseline:middle;&#10;                      font-family:sans-serif; font-weight: bold;&#10;                      font-size:3px;&#10;                      vector-effect: non-scaling-stroke;" transform="translate(-5e-05, 0)">f(x)</text></g></g></g></g></g></g><g><g><g><g style="stroke: black;stroke-width: 1.2000000000000002;" transform="matrix(1.0, 0.0, 0.0, 1.0, 0.0, 0.0)"><path d="M 0.0 -2.0 L 0.0 2.0" style="vector-effect: non-scaling-stroke;fill:none;" /></g><g style="stroke: #808080;stroke-width: 0.6000000000000001;" transform="matrix(1.0, 0.0, 0.0, 1.0, 0.0, 0.0)"><path d="M 0.0 0.0 L 50.0 0.0" style="vector-effect: non-scaling-stroke;fill:none;" /></g></g><g style="stroke: black;stroke-width: 2.4000000000000004;" transform="matrix(1.0, 0.0, 0.0, 1.0, 0.0, 0.0)"><path d="M 0.0 0.0 L 1.0 0.0 L 1.0 0.005073931068181992 L 2.0 0.005073931068181992 L 2.0 0.010147862136363983 L 3.0 0.010147862136363983 L 3.0 0.015221793204545975 L 4.0 0.015221793204545975 L 4.0 0.020295724272727966 L 5.0 0.020295724272727966 L 5.0 0.025369657203555107 L 6.0 0.025369657203555107 L 6.0 0.03044358640909195 L 7.0 0.03044358640909195 L 7.0 0.03551751747727394 L 8.0 0.03551751747727394 L 8.0 0.04059144854545593 L 9.0 0.04059144854545593 L 9.0 0.04566538333892822 L 10.0 0.04566538333892822 L 10.0 0.050739314407110214 L 11.0 0.050739314407110214 L 11.0 0.05581324175000191 L 12.0 0.05581324175000191 L 12.0 0.0608871728181839 L 13.0 0.0608871728181839 L 13.0 0.06596110016107559 L 14.0 0.06596110016107559 L 14.0 0.07103503495454788 L 15.0 0.07103503495454788 L 15.0 0.07610896974802017 L 16.0 0.07610896974802017 L 16.0 0.08118289709091187 L 17.0 0.08118289709091187 L 17.0 0.08625683188438416 L 18.0 0.08625683188438416 L 18.0 0.09133076667785645 L 19.0 0.09133076667785645 L 19.0 0.09640469402074814 L 20.0 0.09640469402074814 L 20.0 0.10147862881422043 L 21.0 0.10147862881422043 L 21.0 0.10655254870653152 L 22.0 0.10655254870653152 L 22.0 0.11162648350000381 L 23.0 0.11162648350000381 L 23.0 0.1167004182934761 L 24.0 0.1167004182934761 L 24.0 0.1217743456363678 L 25.0 0.1217743456363678 L 25.0 0.1268482804298401 L 26.0 0.1268482804298401 L 26.0 0.13192220032215118 L 27.0 0.13192220032215118 L 27.0 0.13699615001678467 L 28.0 0.13699615001678467 L 28.0 0.14207006990909576 L 29.0 0.14207006990909576 L 29.0 0.14714400470256805 L 30.0 0.14714400470256805 L 30.0 0.15221793949604034 L 31.0 0.15221793949604034 L 31.0 0.15729187428951263 L 32.0 0.15729187428951263 L 32.0 0.16236579418182373 L 33.0 0.16236579418182373 L 33.0 0.16743974387645721 L 34.0 0.16743974387645721 L 34.0 0.1725136637687683 L 35.0 0.1725136637687683 L 35.0 0.1775875836610794 L 36.0 0.1775875836610794 L 36.0 0.1826615333557129 L 37.0 0.1826615333557129 L 37.0 0.187735453248024 L 38.0 0.187735453248024 L 38.0 0.19280938804149628 L 39.0 0.19280938804149628 L 39.0 0.19788330793380737 L 40.0 0.19788330793380737 L 40.0 0.20295725762844086 L 41.0 0.20295725762844086 L 41.0 0.20803117752075195 L 42.0 0.20803117752075195 L 42.0 0.21310509741306305 L 43.0 0.21310509741306305 L 43.0 0.21817904710769653 L 44.0 0.21817904710769653 L 44.0 0.22325296700000763 L 45.0 0.22325296700000763 L 45.0 0.22832690179347992 L 46.0 0.22832690179347992 L 46.0 0.2334008365869522 L 47.0 0.2334008365869522 L 47.0 0.2384747713804245 L 48.0 0.2384747713804245 L 48.0 0.2435486912727356 L 49.0 0.2435486912727356 L 49.0 0.24862264096736908 L 50.0 0.24862264096736908" style="vector-effect: non-scaling-stroke;fill:none;" /></g></g></g></g><g><g><g><g style="stroke: black;stroke-width: 1.2000000000000002;" transform="matrix(1.0, 0.0, 0.0, 1.0, 0.0, 0.0)"><path d="M 0.0 -2.0 L 0.0 2.0" style="vector-effect: non-scaling-stroke;fill:none;" /></g><g style="stroke: #808080;stroke-width: 0.6000000000000001;" transform="matrix(1.0, 0.0, 0.0, 1.0, 0.0, 0.0)"><path d="M 0.0 0.0 L 50.0 0.0" style="vector-effect: non-scaling-stroke;fill:none;" /></g></g><g style="stroke: black;stroke-width: 2.4000000000000004;" transform="matrix(1.0, 0.0, 0.0, 1.0, 0.0, 0.0)"><path d="M 0.0 0.0 L 1.0 0.0 L 1.0 0.005073931068181992 L 2.0 0.005073931068181992 L 2.0 0.010147862136363983 L 3.0 0.010147862136363983 L 3.0 0.015221793204545975 L 4.0 0.015221793204545975 L 4.0 0.020295724272727966 L 5.0 0.020295724272727966 L 5.0 0.025369657203555107 L 6.0 0.025369657203555107 L 6.0 0.03044358640909195 L 7.0 0.03044358640909195 L 7.0 0.03551751747727394 L 8.0 0.03551751747727394 L 8.0 0.04059144854545593 L 9.0 0.04059144854545593 L 9.0 0.04566538333892822 L 10.0 0.04566538333892822 L 10.0 0.050739314407110214 L 11.0 0.050739314407110214 L 11.0 0.05581324175000191 L 12.0 0.05581324175000191 L 12.0 0.0608871728181839 L 13.0 0.0608871728181839 L 13.0 0.06596110016107559 L 14.0 0.06596110016107559 L 14.0 0.07103503495454788 L 15.0 0.07103503495454788 L 15.0 0.07610896974802017 L 16.0 0.07610896974802017 L 16.0 0.08118289709091187 L 17.0 0.08118289709091187 L 17.0 0.08625683188438416 L 18.0 0.08625683188438416 L 18.0 0.09133076667785645 L 19.0 0.09133076667785645 L 19.0 0.09640469402074814 L 20.0 0.09640469402074814 L 20.0 0.10147862881422043 L 21.0 0.10147862881422043 L 21.0 0.10655254870653152 L 22.0 0.10655254870653152 L 22.0 0.11162648350000381 L 23.0 0.11162648350000381 L 23.0 0.1167004182934761 L 24.0 0.1167004182934761 L 24.0 0.1217743456363678 L 25.0 0.1217743456363678 L 25.0 0.1268482804298401 L 26.0 0.1268482804298401 L 26.0 0.13192220032215118 L 27.0 0.13192220032215118 L 27.0 0.13699615001678467 L 28.0 0.13699615001678467 L 28.0 0.14207006990909576 L 29.0 0.14207006990909576 L 29.0 0.14714400470256805 L 30.0 0.14714400470256805 L 30.0 0.15221793949604034 L 31.0 0.15221793949604034 L 31.0 0.15729187428951263 L 32.0 0.15729187428951263 L 32.0 0.16236579418182373 L 33.0 0.16236579418182373 L 33.0 0.16743974387645721 L 34.0 0.16743974387645721 L 34.0 0.1725136637687683 L 35.0 0.1725136637687683 L 35.0 0.1775875836610794 L 36.0 0.1775875836610794 L 36.0 0.1826615333557129 L 37.0 0.1826615333557129 L 37.0 0.187735453248024 L 38.0 0.187735453248024 L 38.0 0.19280938804149628 L 39.0 0.19280938804149628 L 39.0 0.19788330793380737 L 40.0 0.19788330793380737 L 40.0 0.20295725762844086 L 41.0 0.20295725762844086 L 41.0 0.20803117752075195 L 42.0 0.20803117752075195 L 42.0 0.21310509741306305 L 43.0 0.21310509741306305 L 43.0 0.21817904710769653 L 44.0 0.21817904710769653 L 44.0 0.22325296700000763 L 45.0 0.22325296700000763 L 45.0 0.22832690179347992 L 46.0 0.22832690179347992 L 46.0 0.2334008365869522 L 47.0 0.2334008365869522 L 47.0 0.2384747713804245 L 48.0 0.2384747713804245 L 48.0 0.2435486912727356 L 49.0 0.2435486912727356 L 49.0 0.24862264096736908 L 50.0 0.24862264096736908" style="vector-effect: non-scaling-stroke;fill:none;" /></g></g></g></g></g></g></g></g></g></g><g transform="matrix(1.0, 0.0, 0.0, 1.0, -0.24999999999999994, 0.16)"><g transform="matrix(1.0, 0.0, 0.0, 0.009999999999999995, 0.0, 0.0)"><g transform="matrix(0.01, 0.0, 0.0, 1.0, 0.0, 0.0)"><g><g><g style="fill: #ff0000;stroke: #ff0000;stroke-width: 1.2000000000000002;fill-opacity: 0.5;" transform="matrix(1.0, 0.0, 0.0, 1.0, 0.0, 0.0)"><path d="M 0.0 -2.0 L 0.0 2.0" style="vector-effect: non-scaling-stroke;fill:none;" /></g><g style="fill: #ff0000;stroke: #ff0000;stroke-width: 1.2000000000000002;fill-opacity: 0.5;" transform="matrix(1.0, 0.0, 0.0, 1.0, 0.0, 0.0)"><path d="M 0.0 -0.0 L 1.0 0.0 L 1.0 0.005073931068181992 L 2.0 0.005073931068181992 L 2.0 0.010147862136363983 L 3.0 0.010147862136363983 L 3.0 0.015221793204545975 L 4.0 0.015221793204545975 L 4.0 0.020295724272727966 L 5.0 0.020295724272727966 L 5.0 0.025369657203555107 L 6.0 0.025369657203555107 L 6.0 0.03044358640909195 L 7.0 0.03044358640909195 L 7.0 0.03551751747727394 L 8.0 0.03551751747727394 L 8.0 0.04059144854545593 L 9.0 0.04059144854545593 L 9.0 0.04566538333892822 L 10.0 0.04566538333892822 L 10.0 0.050739314407110214 L 11.0 0.050739314407110214 L 11.0 0.05581324175000191 L 12.0 0.05581324175000191 L 12.0 0.0608871728181839 L 13.0 0.0608871728181839 L 13.0 0.06596110016107559 L 14.0 0.06596110016107559 L 14.0 0.07103503495454788 L 15.0 0.07103503495454788 L 15.0 0.07610896974802017 L 16.0 0.07610896974802017 L 16.0 0.08118289709091187 L 17.0 0.08118289709091187 L 17.0 0.08625683188438416 L 18.0 0.08625683188438416 L 18.0 0.09133076667785645 L 19.0 0.09133076667785645 L 19.0 0.09640469402074814 L 20.0 0.09640469402074814 L 20.0 0.10147862881422043 L 21.0 0.10147862881422043 L 21.0 0.10655254870653152 L 22.0 0.10655254870653152 L 22.0 0.11162648350000381 L 23.0 0.11162648350000381 L 23.0 0.1167004182934761 L 24.0 0.1167004182934761 L 24.0 0.1217743456363678 L 25.0 0.1217743456363678 L 25.0 0.1268482804298401 L 26.0 0.1268482804298401 L 26.0 0.13192220032215118 L 27.0 0.13192220032215118 L 27.0 0.13699615001678467 L 28.0 0.13699615001678467 L 28.0 0.14207006990909576 L 29.0 0.14207006990909576 L 29.0 0.14714400470256805 L 30.0 0.14714400470256805 L 30.0 0.15221793949604034 L 31.0 0.15221793949604034 L 31.0 0.15729187428951263 L 32.0 0.15729187428951263 L 32.0 0.16236579418182373 L 33.0 0.16236579418182373 L 33.0 0.16743974387645721 L 34.0 0.16743974387645721 L 34.0 0.1725136637687683 L 35.0 0.1725136637687683 L 35.0 0.1775875836610794 L 36.0 0.1775875836610794 L 36.0 0.1826615333557129 L 37.0 0.1826615333557129 L 37.0 0.187735453248024 L 38.0 0.187735453248024 L 38.0 0.19280938804149628 L 39.0 0.19280938804149628 L 39.0 0.19788330793380737 L 40.0 0.19788330793380737 L 40.0 0.20295725762844086 L 41.0 0.20295725762844086 L 41.0 0.20803117752075195 L 42.0 0.20803117752075195 L 42.0 0.21310509741306305 L 43.0 0.21310509741306305 L 43.0 0.21817904710769653 L 44.0 0.21817904710769653 L 44.0 0.22325296700000763 L 45.0 0.22325296700000763 L 45.0 0.22832690179347992 L 46.0 0.22832690179347992 L 46.0 0.2334008365869522 L 47.0 0.2334008365869522 L 47.0 0.2384747713804245 L 48.0 0.2384747713804245 L 48.0 0.2435486912727356 L 49.0 0.2435486912727356 L 49.0 0.24862264096736908 L 50.0 0.24862264096736908 L 50.0 0.24862264096736908 L 49.0 0.24862264096736908 L 49.0 0.2435486912727356 L 48.0 0.2435486912727356 L 48.0 0.2384747713804245 L 47.0 0.2384747713804245 L 47.0 0.2334008365869522 L 46.0 0.2334008365869522 L 46.0 0.22832690179347992 L 45.0 0.22832690179347992 L 45.0 0.22325296700000763 L 44.0 0.22325296700000763 L 44.0 0.21817904710769653 L 43.0 0.21817904710769653 L 43.0 0.21310509741306305 L 42.0 0.21310509741306305 L 42.0 0.20803117752075195 L 41.0 0.20803117752075195 L 41.0 0.20295725762844086 L 40.0 0.20295725762844086 L 40.0 0.19788330793380737 L 39.0 0.19788330793380737 L 39.0 0.19280938804149628 L 38.0 0.19280938804149628 L 38.0 0.187735453248024 L 37.0 0.187735453248024 L 37.0 0.1826615333557129 L 36.0 0.1826615333557129 L 36.0 0.1775875836610794 L 35.0 0.1775875836610794 L 35.0 0.1725136637687683 L 34.0 0.1725136637687683 L 34.0 0.16743974387645721 L 33.0 0.16743974387645721 L 33.0 0.16236579418182373 L 32.0 0.16236579418182373 L 32.0 0.15729187428951263 L 31.0 0.15729187428951263 L 31.0 0.15221793949604034 L 30.0 0.15221793949604034 L 30.0 0.14714400470256805 L 29.0 0.14714400470256805 L 29.0 0.14207006990909576 L 28.0 0.14207006990909576 L 28.0 0.13699615001678467 L 27.0 0.13699615001678467 L 27.0 0.13192220032215118 L 26.0 0.13192220032215118 L 26.0 0.1268482804298401 L 25.0 0.1268482804298401 L 25.0 0.1217743456363678 L 24.0 0.1217743456363678 L 24.0 0.1167004182934761 L 23.0 0.1167004182934761 L 23.0 0.11162648350000381 L 22.0 0.11162648350000381 L 22.0 0.10655254870653152 L 21.0 0.10655254870653152 L 21.0 0.10147862881422043 L 20.0 0.10147862881422043 L 20.0 0.09640469402074814 L 19.0 0.09640469402074814 L 19.0 0.09133076667785645 L 18.0 0.09133076667785645 L 18.0 0.08625683188438416 L 17.0 0.08625683188438416 L 17.0 0.08118289709091187 L 16.0 0.08118289709091187 L 16.0 0.07610896974802017 L 15.0 0.07610896974802017 L 15.0 0.07103503495454788 L 14.0 0.07103503495454788 L 14.0 0.06596110016107559 L 13.0 0.06596110016107559 L 13.0 0.0608871728181839 L 12.0 0.0608871728181839 L 12.0 0.05581324175000191 L 11.0 0.05581324175000191 L 11.0 0.050739314407110214 L 10.0 0.050739314407110214 L 10.0 0.04566538333892822 L 9.0 0.04566538333892822 L 9.0 0.04059144854545593 L 8.0 0.04059144854545593 L 8.0 0.03551751747727394 L 7.0 0.03551751747727394 L 7.0 0.03044358640909195 L 6.0 0.03044358640909195 L 6.0 0.025369657203555107 L 5.0 0.025369657203555107 L 5.0 0.020295724272727966 L 4.0 0.020295724272727966 L 4.0 0.015221793204545975 L 3.0 0.015221793204545975 L 3.0 0.010147862136363983 L 2.0 0.010147862136363983 L 2.0 0.005073931068181992 L 1.0 0.005073931068181992 L 1.0 0.0 L 0.0 0.0 Z" style="vector-effect: non-scaling-stroke;" /></g></g><g style="stroke: black;stroke-width: 1.2000000000000002;" transform="matrix(1.0, 0.0, 0.0, 1.0, 0.0, 0.0)"><path d="M 0.0 0.0 L 1.0 0.0 L 1.0 0.005073931068181992 L 2.0 0.005073931068181992 L 2.0 0.010147862136363983 L 3.0 0.010147862136363983 L 3.0 0.015221793204545975 L 4.0 0.015221793204545975 L 4.0 0.020295724272727966 L 5.0 0.020295724272727966 L 5.0 0.025369657203555107 L 6.0 0.025369657203555107 L 6.0 0.03044358640909195 L 7.0 0.03044358640909195 L 7.0 0.03551751747727394 L 8.0 0.03551751747727394 L 8.0 0.04059144854545593 L 9.0 0.04059144854545593 L 9.0 0.04566538333892822 L 10.0 0.04566538333892822 L 10.0 0.050739314407110214 L 11.0 0.050739314407110214 L 11.0 0.05581324175000191 L 12.0 0.05581324175000191 L 12.0 0.0608871728181839 L 13.0 0.0608871728181839 L 13.0 0.06596110016107559 L 14.0 0.06596110016107559 L 14.0 0.07103503495454788 L 15.0 0.07103503495454788 L 15.0 0.07610896974802017 L 16.0 0.07610896974802017 L 16.0 0.08118289709091187 L 17.0 0.08118289709091187 L 17.0 0.08625683188438416 L 18.0 0.08625683188438416 L 18.0 0.09133076667785645 L 19.0 0.09133076667785645 L 19.0 0.09640469402074814 L 20.0 0.09640469402074814 L 20.0 0.10147862881422043 L 21.0 0.10147862881422043 L 21.0 0.10655254870653152 L 22.0 0.10655254870653152 L 22.0 0.11162648350000381 L 23.0 0.11162648350000381 L 23.0 0.1167004182934761 L 24.0 0.1167004182934761 L 24.0 0.1217743456363678 L 25.0 0.1217743456363678 L 25.0 0.1268482804298401 L 26.0 0.1268482804298401 L 26.0 0.13192220032215118 L 27.0 0.13192220032215118 L 27.0 0.13699615001678467 L 28.0 0.13699615001678467 L 28.0 0.14207006990909576 L 29.0 0.14207006990909576 L 29.0 0.14714400470256805 L 30.0 0.14714400470256805 L 30.0 0.15221793949604034 L 31.0 0.15221793949604034 L 31.0 0.15729187428951263 L 32.0 0.15729187428951263 L 32.0 0.16236579418182373 L 33.0 0.16236579418182373 L 33.0 0.16743974387645721 L 34.0 0.16743974387645721 L 34.0 0.1725136637687683 L 35.0 0.1725136637687683 L 35.0 0.1775875836610794 L 36.0 0.1775875836610794 L 36.0 0.1826615333557129 L 37.0 0.1826615333557129 L 37.0 0.187735453248024 L 38.0 0.187735453248024 L 38.0 0.19280938804149628 L 39.0 0.19280938804149628 L 39.0 0.19788330793380737 L 40.0 0.19788330793380737 L 40.0 0.20295725762844086 L 41.0 0.20295725762844086 L 41.0 0.20803117752075195 L 42.0 0.20803117752075195 L 42.0 0.21310509741306305 L 43.0 0.21310509741306305 L 43.0 0.21817904710769653 L 44.0 0.21817904710769653 L 44.0 0.22325296700000763 L 45.0 0.22325296700000763 L 45.0 0.22832690179347992 L 46.0 0.22832690179347992 L 46.0 0.2334008365869522 L 47.0 0.2334008365869522 L 47.0 0.2384747713804245 L 48.0 0.2384747713804245 L 48.0 0.2435486912727356 L 49.0 0.2435486912727356 L 49.0 0.24862264096736908 L 50.0 0.24862264096736908" style="vector-effect: non-scaling-stroke;fill:none;" /></g></g></g></g></g></g><g transform="matrix(1.0, 0.0, 0.0, 1.0, -0.24999999999999994, 0.16)"><g transform="matrix(1.0, 0.0, 0.0, 0.009999999999999995, 0.0, 0.0)"><g transform="matrix(0.01, 0.0, 0.0, 1.0, 0.0, 0.0)"><g><g><g style="fill: #ffffe0;stroke: #ffffe0;stroke-width: 1.2000000000000002;fill-opacity: 0.5;" transform="matrix(1.0, 0.0, 0.0, 1.0, 0.0, 0.0)"><path d="M 0.0 -2.0 L 0.0 2.0" style="vector-effect: non-scaling-stroke;fill:none;" /></g><g style="fill: #ffffe0;stroke: #ffffe0;stroke-width: 1.2000000000000002;fill-opacity: 0.5;" transform="matrix(1.0, 0.0, 0.0, 1.0, 0.0, 0.0)"><path d="M 0.0 -0.0 L 1.0 0.0 L 1.0 -0.03492637351155281 L 2.0 -0.03492637351155281 L 2.0 -0.06985274702310562 L 3.0 -0.06985274702310562 L 3.0 -0.10473255813121796 L 4.0 -0.10473255813121796 L 4.0 -0.13970549404621124 L 5.0 -0.13970549404621124 L 5.0 -0.17467842996120453 L 6.0 -0.17467842996120453 L 6.0 -0.2094651162624359 L 7.0 -0.2094651162624359 L 7.0 -0.2442517876625061 L 8.0 -0.2442517876625061 L 8.0 -0.2794109880924225 L 9.0 -0.2794109880924225 L 9.0 -0.3141976594924927 L 10.0 -0.3141976594924927 L 10.0 -0.34935685992240906 L 11.0 -0.34935685992240906 L 11.0 -0.38414353132247925 L 12.0 -0.38414353132247925 L 12.0 -0.4189302325248718 L 13.0 -0.4189302325248718 L 13.0 -0.4533443748950958 L 14.0 -0.4533443748950958 L 14.0 -0.4885035753250122 L 15.0 -0.4885035753250122 L 15.0 -0.5236627459526062 L 16.0 -0.5236627459526062 L 16.0 -0.558821976184845 L 17.0 -0.558821976184845 L 17.0 -0.593981146812439 L 18.0 -0.593981146812439 L 18.0 -0.6283953189849854 L 19.0 -0.6283953189849854 L 19.0 -0.6635545492172241 L 20.0 -0.6635545492172241 L 20.0 -0.6987137198448181 L 21.0 -0.6987137198448181 L 21.0 -0.7331278920173645 L 22.0 -0.7331278920173645 L 22.0 -0.7682870626449585 L 23.0 -0.7682870626449585 L 23.0 -0.8027012348175049 L 24.0 -0.8027012348175049 L 24.0 -0.8378604650497437 L 25.0 -0.8378604650497437 L 25.0 -0.8730196356773376 L 26.0 -0.8730196356773376 L 26.0 -0.9066887497901917 L 27.0 -0.9066887497901917 L 27.0 -0.9433380365371704 L 28.0 -0.9433380365371704 L 28.0 -0.9770071506500244 L 29.0 -0.9770071506500244 L 29.0 -1.013656497001648 L 30.0 -1.013656497001648 L 30.0 -1.0473254919052124 L 31.0 -1.0473254919052124 L 31.0 -1.0824847221374512 L 32.0 -1.0824847221374512 L 32.0 -1.11764395236969 L 33.0 -1.11764395236969 L 33.0 -1.1528031826019287 L 34.0 -1.1528031826019287 L 34.0 -1.187962293624878 L 35.0 -1.187962293624878 L 35.0 -1.221631407737732 L 36.0 -1.221631407737732 L 36.0 -1.2567906379699707 L 37.0 -1.2567906379699707 L 37.0 -1.2919498682022095 L 38.0 -1.2919498682022095 L 38.0 -1.3271090984344482 L 39.0 -1.3271090984344482 L 39.0 -1.3622682094573975 L 40.0 -1.3622682094573975 L 40.0 -1.3974274396896362 L 41.0 -1.3974274396896362 L 41.0 -1.4310965538024902 L 42.0 -1.4310965538024902 L 42.0 -1.466255784034729 L 43.0 -1.466255784034729 L 43.0 -1.5014150142669678 L 44.0 -1.5014150142669678 L 44.0 -1.536574125289917 L 45.0 -1.536574125289917 L 45.0 -1.5717333555221558 L 46.0 -1.5717333555221558 L 46.0 -1.6054024696350098 L 47.0 -1.6054024696350098 L 47.0 -1.6420518159866333 L 48.0 -1.6420518159866333 L 48.0 -1.6757209300994873 L 49.0 -1.6757209300994873 L 49.0 -1.7123701572418213 L 50.0 -1.7123701572418213 L 50.0 0.24862264096736908 L 49.0 0.24862264096736908 L 49.0 0.2435486912727356 L 48.0 0.2435486912727356 L 48.0 0.2384747713804245 L 47.0 0.2384747713804245 L 47.0 0.2334008365869522 L 46.0 0.2334008365869522 L 46.0 0.22832690179347992 L 45.0 0.22832690179347992 L 45.0 0.22325296700000763 L 44.0 0.22325296700000763 L 44.0 0.21817904710769653 L 43.0 0.21817904710769653 L 43.0 0.21310509741306305 L 42.0 0.21310509741306305 L 42.0 0.20803117752075195 L 41.0 0.20803117752075195 L 41.0 0.20295725762844086 L 40.0 0.20295725762844086 L 40.0 0.19788330793380737 L 39.0 0.19788330793380737 L 39.0 0.19280938804149628 L 38.0 0.19280938804149628 L 38.0 0.187735453248024 L 37.0 0.187735453248024 L 37.0 0.1826615333557129 L 36.0 0.1826615333557129 L 36.0 0.1775875836610794 L 35.0 0.1775875836610794 L 35.0 0.1725136637687683 L 34.0 0.1725136637687683 L 34.0 0.16743974387645721 L 33.0 0.16743974387645721 L 33.0 0.16236579418182373 L 32.0 0.16236579418182373 L 32.0 0.15729187428951263 L 31.0 0.15729187428951263 L 31.0 0.15221793949604034 L 30.0 0.15221793949604034 L 30.0 0.14714400470256805 L 29.0 0.14714400470256805 L 29.0 0.14207006990909576 L 28.0 0.14207006990909576 L 28.0 0.13699615001678467 L 27.0 0.13699615001678467 L 27.0 0.13192220032215118 L 26.0 0.13192220032215118 L 26.0 0.1268482804298401 L 25.0 0.1268482804298401 L 25.0 0.1217743456363678 L 24.0 0.1217743456363678 L 24.0 0.1167004182934761 L 23.0 0.1167004182934761 L 23.0 0.11162648350000381 L 22.0 0.11162648350000381 L 22.0 0.10655254870653152 L 21.0 0.10655254870653152 L 21.0 0.10147862881422043 L 20.0 0.10147862881422043 L 20.0 0.09640469402074814 L 19.0 0.09640469402074814 L 19.0 0.09133076667785645 L 18.0 0.09133076667785645 L 18.0 0.08625683188438416 L 17.0 0.08625683188438416 L 17.0 0.08118289709091187 L 16.0 0.08118289709091187 L 16.0 0.07610896974802017 L 15.0 0.07610896974802017 L 15.0 0.07103503495454788 L 14.0 0.07103503495454788 L 14.0 0.06596110016107559 L 13.0 0.06596110016107559 L 13.0 0.0608871728181839 L 12.0 0.0608871728181839 L 12.0 0.05581324175000191 L 11.0 0.05581324175000191 L 11.0 0.050739314407110214 L 10.0 0.050739314407110214 L 10.0 0.04566538333892822 L 9.0 0.04566538333892822 L 9.0 0.04059144854545593 L 8.0 0.04059144854545593 L 8.0 0.03551751747727394 L 7.0 0.03551751747727394 L 7.0 0.03044358640909195 L 6.0 0.03044358640909195 L 6.0 0.025369657203555107 L 5.0 0.025369657203555107 L 5.0 0.020295724272727966 L 4.0 0.020295724272727966 L 4.0 0.015221793204545975 L 3.0 0.015221793204545975 L 3.0 0.010147862136363983 L 2.0 0.010147862136363983 L 2.0 0.005073931068181992 L 1.0 0.005073931068181992 L 1.0 0.0 L 0.0 0.0 Z" style="vector-effect: non-scaling-stroke;" /></g></g><g style="stroke: black;stroke-width: 1.2000000000000002;" transform="matrix(1.0, 0.0, 0.0, 1.0, 0.0, 0.0)"><path d="M 0.0 0.0 L 1.0 0.0 L 1.0 0.005073931068181992 L 2.0 0.005073931068181992 L 2.0 0.010147862136363983 L 3.0 0.010147862136363983 L 3.0 0.015221793204545975 L 4.0 0.015221793204545975 L 4.0 0.020295724272727966 L 5.0 0.020295724272727966 L 5.0 0.025369657203555107 L 6.0 0.025369657203555107 L 6.0 0.03044358640909195 L 7.0 0.03044358640909195 L 7.0 0.03551751747727394 L 8.0 0.03551751747727394 L 8.0 0.04059144854545593 L 9.0 0.04059144854545593 L 9.0 0.04566538333892822 L 10.0 0.04566538333892822 L 10.0 0.050739314407110214 L 11.0 0.050739314407110214 L 11.0 0.05581324175000191 L 12.0 0.05581324175000191 L 12.0 0.0608871728181839 L 13.0 0.0608871728181839 L 13.0 0.06596110016107559 L 14.0 0.06596110016107559 L 14.0 0.07103503495454788 L 15.0 0.07103503495454788 L 15.0 0.07610896974802017 L 16.0 0.07610896974802017 L 16.0 0.08118289709091187 L 17.0 0.08118289709091187 L 17.0 0.08625683188438416 L 18.0 0.08625683188438416 L 18.0 0.09133076667785645 L 19.0 0.09133076667785645 L 19.0 0.09640469402074814 L 20.0 0.09640469402074814 L 20.0 0.10147862881422043 L 21.0 0.10147862881422043 L 21.0 0.10655254870653152 L 22.0 0.10655254870653152 L 22.0 0.11162648350000381 L 23.0 0.11162648350000381 L 23.0 0.1167004182934761 L 24.0 0.1167004182934761 L 24.0 0.1217743456363678 L 25.0 0.1217743456363678 L 25.0 0.1268482804298401 L 26.0 0.1268482804298401 L 26.0 0.13192220032215118 L 27.0 0.13192220032215118 L 27.0 0.13699615001678467 L 28.0 0.13699615001678467 L 28.0 0.14207006990909576 L 29.0 0.14207006990909576 L 29.0 0.14714400470256805 L 30.0 0.14714400470256805 L 30.0 0.15221793949604034 L 31.0 0.15221793949604034 L 31.0 0.15729187428951263 L 32.0 0.15729187428951263 L 32.0 0.16236579418182373 L 33.0 0.16236579418182373 L 33.0 0.16743974387645721 L 34.0 0.16743974387645721 L 34.0 0.1725136637687683 L 35.0 0.1725136637687683 L 35.0 0.1775875836610794 L 36.0 0.1775875836610794 L 36.0 0.1826615333557129 L 37.0 0.1826615333557129 L 37.0 0.187735453248024 L 38.0 0.187735453248024 L 38.0 0.19280938804149628 L 39.0 0.19280938804149628 L 39.0 0.19788330793380737 L 40.0 0.19788330793380737 L 40.0 0.20295725762844086 L 41.0 0.20295725762844086 L 41.0 0.20803117752075195 L 42.0 0.20803117752075195 L 42.0 0.21310509741306305 L 43.0 0.21310509741306305 L 43.0 0.21817904710769653 L 44.0 0.21817904710769653 L 44.0 0.22325296700000763 L 45.0 0.22325296700000763 L 45.0 0.22832690179347992 L 46.0 0.22832690179347992 L 46.0 0.2334008365869522 L 47.0 0.2334008365869522 L 47.0 0.2384747713804245 L 48.0 0.2384747713804245 L 48.0 0.2435486912727356 L 49.0 0.2435486912727356 L 49.0 0.24862264096736908 L 50.0 0.24862264096736908" style="vector-effect: non-scaling-stroke;fill:none;" /></g></g></g></g></g></g></g></g><g /></g></g></g></g></svg>