<?xml version="1.0" encoding="utf-8" ?>
<svg baseProfile="full" height="300" version="1.1" width="1118" xmlns="http://www.w3.org/2000/svg" xmlns:ev="http://www.w3.org/2001/xml-events" xmlns:xlink="http://www.w3.org/1999/xlink"><defs><marker id="arrow" markerHeight="3.5" markerWidth="5" orient="auto" refX="5.0" refY="1.7"><polygon points="0,0 5,1.75 0,3.5" /></marker></defs><g style="fill:white;"><g transform="matrix(1.0, 0.0, 0.0, 1.0, 559.2314379784609, 150.0)"><g transform="matrix(1054.6561772342495, 0.0, 0.0, 1054.6561772342495, 0.0, 0.0)"><g><g transform="matrix(1.0, 0.0, 0.0, 1.0, -0.0, -0.08000000000000002)"><g><g><g style="fill: #ffffff;stroke: black;stroke-width: 1.2000000000000002;" transform="matrix(1.0, 0.0, 0.0, 1.0, -0.505, -0.05545375823974609)"><path d="M 0.0 0.0 L 1.01 0.0 L 1.01 0.2709075164794922 L 0.0 0.2709075164794922 L 0.0 0.0 Z" style="vector-effect: non-scaling-stroke;" /></g><g><g><g><g><g><g><g><g transform="matrix(1.0, 0.0, 0.0, 1.0, -0.45499999999999996, -0.03287813186645508)"><g><g><g transform="matrix(1.0, 0.0, 0.0, 1.0, 0.075, 0.0)"><g transform="matrix(1.0, 0.0, 0.0, 1.0, 0.0, 0.0347968864440918)"><g transform="matrix(0.01, 0.0, 0.0, 0.01, 0.0, 0.0)"><g><g><g transform="matrix(1.0, 0.0, 0.0, 1.0, 24.5, -0.19187545776367188)"><g transform="matrix(1.0, 0.0, 0.0, 1.0, -32.0, -0.0)"><g><g style="fill: #d3d3d3;stroke: black;stroke-width: 1.2000000000000002;" transform="matrix(1.0, 0.0, 0.0, 1.0, 0.0, -3.287813186645508)"><path d="M 0.0 0.0 L 64.0 0.0 L 64.0 6.575626373291016 L 0.0 6.575626373291016 L 0.0 0.0 Z" style="vector-effect: non-scaling-stroke;" /></g><g transform="matrix(1.0, 0.0, 0.0, 1.0, 1.875, 0.0)"><g><g style="stroke: black;stroke-width: 1.2000000000000002;" transform="matrix(1.0, 0.0, 0.0, 1.0, 0.0, 0.0)"><g /></g><g style="fill: #ffa500;stroke: black;stroke-width: 1.2000000000000002;" transform="matrix(1.0, 0.0, 0.0, 1.0, 1.875, 0.0)"><text style="text-align:center; text-anchor:middle; dominant-baseline:middle;&#10;                      font-family:sans-serif; font-weight: bold;&#10;                      font-size:3px;&#10;                      vector-effect: non-scaling-stroke;" transform="translate(-5e-05, 0)">x</text></g></g></g></g></g></g><g><g><g><g><g><g><g><g><g><g><g style="stroke: black;stroke-width: 1.2000000000000002;" transform="matrix(1.0, 0.0, 0.0, 1.0, 0.0, 0.0)"><path d="M 0.0 -2.0 L 0.0 2.0" style="vector-effect: non-scaling-stroke;fill:none;" /></g><g style="stroke: #808080;stroke-width: 0.6000000000000001;" transform="matrix(1.0, 0.0, 0.0, 1.0, 0.0, 0.0)"><path d="M 0.0 0.0 L 49.0 0.0" style="vector-effect: non-scaling-stroke;fill:none;" /></g></g><g style="stroke: black;stroke-width: 2.4000000000000004;" transform="matrix(1.0, 0.0, 0.0, 1.0, 0.0, 0.0)"><path d="M 0.0 -0.7689275741577148 L 1.0 -0.7689275741577148 L 1.0 -0.5068194270133972 L 2.0 -0.5068194270133972 L 2.0 -0.8041744232177734 L 3.0 -0.8041744232177734 L 3.0 -0.8530880212783813 L 4.0 -0.8530880212783813 L 4.0 -1.0547780990600586 L 5.0 -1.0547780990600586 L 5.0 -0.6719874143600464 L 6.0 -0.6719874143600464 L 6.0 -0.6291276812553406 L 7.0 -0.6291276812553406 L 7.0 -1.0312178134918213 L 8.0 -1.0312178134918213 L 8.0 -0.4460470378398895 L 9.0 -0.4460470378398895 L 9.0 -1.0091360807418823 L 10.0 -1.0091360807418823 L 10.0 -1.3941620588302612 L 11.0 -1.3941620588302612 L 11.0 -1.7657545804977417 L 12.0 -1.7657545804977417 L 12.0 -0.9576218128204346 L 13.0 -0.9576218128204346 L 13.0 -1.9033526182174683 L 14.0 -1.9033526182174683 L 14.0 -1.3151825666427612 L 15.0 -1.3151825666427612 L 15.0 -2.0427145957946777 L 16.0 -2.0427145957946777 L 16.0 -1.8663134574890137 L 17.0 -1.8663134574890137 L 17.0 -1.7641618251800537 L 18.0 -1.7641618251800537 L 18.0 -1.3552581071853638 L 19.0 -1.3552581071853638 L 19.0 -0.9979908466339111 L 20.0 -0.9979908466339111 L 20.0 -1.4358208179473877 L 21.0 -1.4358208179473877 L 21.0 -1.0786758661270142 L 22.0 -1.0786758661270142 L 22.0 -1.8356091976165771 L 23.0 -1.8356091976165771 L 23.0 -1.1616475582122803 L 24.0 -1.1616475582122803 L 24.0 -1.1052664518356323 L 25.0 -1.1052664518356323 L 25.0 -0.5791404843330383 L 26.0 -0.5791404843330383 L 26.0 -2.2140982151031494 L 27.0 -2.2140982151031494 L 27.0 -1.8809788227081299 L 28.0 -1.8809788227081299 L 28.0 -0.539908766746521 L 29.0 -0.539908766746521 L 29.0 -1.5240906476974487 L 30.0 -1.5240906476974487 L 30.0 -1.9293102025985718 L 31.0 -1.9293102025985718 L 31.0 -2.3837509155273438 L 32.0 -2.3837509155273438 L 32.0 -1.620437502861023 L 33.0 -1.620437502861023 L 33.0 -0.5116623640060425 L 34.0 -0.5116623640060425 L 34.0 -1.5134977102279663 L 35.0 -1.5134977102279663 L 35.0 -0.8612258434295654 L 36.0 -0.8612258434295654 L 36.0 -0.7668431997299194 L 37.0 -0.7668431997299194 L 37.0 -1.4981719255447388 L 38.0 -1.4981719255447388 L 38.0 -1.2180548906326294 L 39.0 -1.2180548906326294 L 39.0 -2.30244517326355 L 40.0 -2.30244517326355 L 40.0 -1.6284631490707397 L 41.0 -1.6284631490707397 L 41.0 -1.7120884656906128 L 42.0 -1.7120884656906128 L 42.0 -1.251280665397644 L 43.0 -1.251280665397644 L 43.0 -1.0968530178070068 L 44.0 -1.0968530178070068 L 44.0 -0.8450138568878174 L 45.0 -0.8450138568878174 L 45.0 -1.0431827306747437 L 46.0 -1.0431827306747437 L 46.0 -1.5062308311462402 L 47.0 -1.5062308311462402 L 47.0 -2.084704875946045 L 48.0 -2.084704875946045 L 48.0 -0.45547330379486084 L 49.0 -0.45547330379486084" style="vector-effect: non-scaling-stroke;fill:none;" /></g></g><g style="stroke: black;stroke-width: 1.2000000000000002;" transform="matrix(1.0, 0.0, 0.0, 1.0, 0.0, 0.0)"><path d="M 0.0 -2.0 L 0.0 2.0" style="vector-effect: non-scaling-stroke;fill:none;" /></g></g><g style="stroke: black;stroke-width: 1.2000000000000002;" transform="matrix(1.0, 0.0, 0.0, 1.0, 0.0, 0.0)"><path d="M 7.0 -2.0 L 7.0 2.0" style="vector-effect: non-scaling-stroke;fill:none;" /></g></g><g style="stroke: black;stroke-width: 1.2000000000000002;" transform="matrix(1.0, 0.0, 0.0, 1.0, 0.0, 0.0)"><path d="M 14.0 -2.0 L 14.0 2.0" style="vector-effect: non-scaling-stroke;fill:none;" /></g></g><g style="stroke: black;stroke-width: 1.2000000000000002;" transform="matrix(1.0, 0.0, 0.0, 1.0, 0.0, 0.0)"><path d="M 21.0 -2.0 L 21.0 2.0" style="vector-effect: non-scaling-stroke;fill:none;" /></g></g><g style="stroke: black;stroke-width: 1.2000000000000002;" transform="matrix(1.0, 0.0, 0.0, 1.0, 0.0, 0.0)"><path d="M 28.0 -2.0 L 28.0 2.0" style="vector-effect: non-scaling-stroke;fill:none;" /></g></g><g style="stroke: black;stroke-width: 1.2000000000000002;" transform="matrix(1.0, 0.0, 0.0, 1.0, 0.0, 0.0)"><path d="M 35.0 -2.0 L 35.0 2.0" style="vector-effect: non-scaling-stroke;fill:none;" /></g></g><g style="stroke: black;stroke-width: 1.2000000000000002;" transform="matrix(1.0, 0.0, 0.0, 1.0, 0.0, 0.0)"><path d="M 42.0 -2.0 L 42.0 2.0" style="vector-effect: non-scaling-stroke;fill:none;" /></g></g></g></g><g><g><g><g><g><g><g><g><g><g><g style="stroke: black;stroke-width: 1.2000000000000002;" transform="matrix(1.0, 0.0, 0.0, 1.0, 0.0, 0.0)"><path d="M 0.0 -2.0 L 0.0 2.0" style="vector-effect: non-scaling-stroke;fill:none;" /></g><g style="stroke: #808080;stroke-width: 0.6000000000000001;" transform="matrix(1.0, 0.0, 0.0, 1.0, 0.0, 0.0)"><path d="M 0.0 0.0 L 49.0 0.0" style="vector-effect: non-scaling-stroke;fill:none;" /></g></g><g style="stroke: black;stroke-width: 2.4000000000000004;" transform="matrix(1.0, 0.0, 0.0, 1.0, 0.0, 0.0)"><path d="M 0.0 -0.7689275741577148 L 1.0 -0.7689275741577148 L 1.0 -0.5068194270133972 L 2.0 -0.5068194270133972 L 2.0 -0.8041744232177734 L 3.0 -0.8041744232177734 L 3.0 -0.8530880212783813 L 4.0 -0.8530880212783813 L 4.0 -1.0547780990600586 L 5.0 -1.0547780990600586 L 5.0 -0.6719874143600464 L 6.0 -0.6719874143600464 L 6.0 -0.6291276812553406 L 7.0 -0.6291276812553406 L 7.0 -1.0312178134918213 L 8.0 -1.0312178134918213 L 8.0 -0.4460470378398895 L 9.0 -0.4460470378398895 L 9.0 -1.0091360807418823 L 10.0 -1.0091360807418823 L 10.0 -1.3941620588302612 L 11.0 -1.3941620588302612 L 11.0 -1.7657545804977417 L 12.0 -1.7657545804977417 L 12.0 -0.9576218128204346 L 13.0 -0.9576218128204346 L 13.0 -1.9033526182174683 L 14.0 -1.9033526182174683 L 14.0 -1.3151825666427612 L 15.0 -1.3151825666427612 L 15.0 -2.0427145957946777 L 16.0 -2.0427145957946777 L 16.0 -1.8663134574890137 L 17.0 -1.8663134574890137 L 17.0 -1.7641618251800537 L 18.0 -1.7641618251800537 L 18.0 -1.3552581071853638 L 19.0 -1.3552581071853638 L 19.0 -0.9979908466339111 L 20.0 -0.9979908466339111 L 20.0 -1.4358208179473877 L 21.0 -1.4358208179473877 L 21.0 -1.0786758661270142 L 22.0 -1.0786758661270142 L 22.0 -1.8356091976165771 L 23.0 -1.8356091976165771 L 23.0 -1.1616475582122803 L 24.0 -1.1616475582122803 L 24.0 -1.1052664518356323 L 25.0 -1.1052664518356323 L 25.0 -0.5791404843330383 L 26.0 -0.5791404843330383 L 26.0 -2.2140982151031494 L 27.0 -2.2140982151031494 L 27.0 -1.8809788227081299 L 28.0 -1.8809788227081299 L 28.0 -0.539908766746521 L 29.0 -0.539908766746521 L 29.0 -1.5240906476974487 L 30.0 -1.5240906476974487 L 30.0 -1.9293102025985718 L 31.0 -1.9293102025985718 L 31.0 -2.3837509155273438 L 32.0 -2.3837509155273438 L 32.0 -1.620437502861023 L 33.0 -1.620437502861023 L 33.0 -0.5116623640060425 L 34.0 -0.5116623640060425 L 34.0 -1.5134977102279663 L 35.0 -1.5134977102279663 L 35.0 -0.8612258434295654 L 36.0 -0.8612258434295654 L 36.0 -0.7668431997299194 L 37.0 -0.7668431997299194 L 37.0 -1.4981719255447388 L 38.0 -1.4981719255447388 L 38.0 -1.2180548906326294 L 39.0 -1.2180548906326294 L 39.0 -2.30244517326355 L 40.0 -2.30244517326355 L 40.0 -1.6284631490707397 L 41.0 -1.6284631490707397 L 41.0 -1.7120884656906128 L 42.0 -1.7120884656906128 L 42.0 -1.251280665397644 L 43.0 -1.251280665397644 L 43.0 -1.0968530178070068 L 44.0 -1.0968530178070068 L 44.0 -0.8450138568878174 L 45.0 -0.8450138568878174 L 45.0 -1.0431827306747437 L 46.0 -1.0431827306747437 L 46.0 -1.5062308311462402 L 47.0 -1.5062308311462402 L 47.0 -2.084704875946045 L 48.0 -2.084704875946045 L 48.0 -0.45547330379486084 L 49.0 -0.45547330379486084" style="vector-effect: non-scaling-stroke;fill:none;" /></g></g><g style="stroke: black;stroke-width: 1.2000000000000002;" transform="matrix(1.0, 0.0, 0.0, 1.0, 0.0, 0.0)"><path d="M 0.0 -2.0 L 0.0 2.0" style="vector-effect: non-scaling-stroke;fill:none;" /></g></g><g style="stroke: black;stroke-width: 1.2000000000000002;" transform="matrix(1.0, 0.0, 0.0, 1.0, 0.0, 0.0)"><path d="M 7.0 -2.0 L 7.0 2.0" style="vector-effect: non-scaling-stroke;fill:none;" /></g></g><g style="stroke: black;stroke-width: 1.2000000000000002;" transform="matrix(1.0, 0.0, 0.0, 1.0, 0.0, 0.0)"><path d="M 14.0 -2.0 L 14.0 2.0" style="vector-effect: non-scaling-stroke;fill:none;" /></g></g><g style="stroke: black;stroke-width: 1.2000000000000002;" transform="matrix(1.0, 0.0, 0.0, 1.0, 0.0, 0.0)"><path d="M 21.0 -2.0 L 21.0 2.0" style="vector-effect: non-scaling-stroke;fill:none;" /></g></g><g style="stroke: black;stroke-width: 1.2000000000000002;" transform="matrix(1.0, 0.0, 0.0, 1.0, 0.0, 0.0)"><path d="M 28.0 -2.0 L 28.0 2.0" style="vector-effect: non-scaling-stroke;fill:none;" /></g></g><g style="stroke: black;stroke-width: 1.2000000000000002;" transform="matrix(1.0, 0.0, 0.0, 1.0, 0.0, 0.0)"><path d="M 35.0 -2.0 L 35.0 2.0" style="vector-effect: non-scaling-stroke;fill:none;" /></g></g><g style="stroke: black;stroke-width: 1.2000000000000002;" transform="matrix(1.0, 0.0, 0.0, 1.0, 0.0, 0.0)"><path d="M 42.0 -2.0 L 42.0 2.0" style="vector-effect: non-scaling-stroke;fill:none;" /></g></g></g></g></g></g></g><g style="stroke: black;stroke-width: 1.2000000000000002;" transform="matrix(1.0, 0.0, 0.0, 1.0, 0.6549999999999999, 0.0)"><g /></g></g><g transform="matrix(1.0, 0.0, 0.0, 1.0, 0.6699999999999999, 0.0)"><g transform="matrix(1.0, 0.0, 0.0, 1.0, 0.075, 0.0)"><g transform="matrix(1.0, 0.0, 0.0, 1.0, 0.0, 0.03)"><g transform="matrix(0.01, 0.0, 0.0, 0.01, 0.0, 0.0)"><g><g><g transform="matrix(1.0, 0.0, 0.0, 1.0, 4.5, 0.0)"><g transform="matrix(1.0, 0.0, 0.0, 1.0, -12.0, -0.0)"><g><g style="fill: #d3d3d3;stroke: black;stroke-width: 1.2000000000000002;" transform="matrix(1.0, 0.0, 0.0, 1.0, 0.0, -3.0)"><path d="M 0.0 0.0 L 24.0 0.0 L 24.0 6.0 L 0.0 6.0 L 0.0 0.0 Z" style="vector-effect: non-scaling-stroke;" /></g><g transform="matrix(1.0, 0.0, 0.0, 1.0, 1.875, 0.0)"><g><g style="stroke: black;stroke-width: 1.2000000000000002;" transform="matrix(1.0, 0.0, 0.0, 1.0, 0.0, 0.0)"><g /></g><g style="fill: #ffa500;stroke: black;stroke-width: 1.2000000000000002;" transform="matrix(1.0, 0.0, 0.0, 1.0, 1.875, 0.0)"><text style="text-align:center; text-anchor:middle; dominant-baseline:middle;&#10;                      font-family:sans-serif; font-weight: bold;&#10;                      font-size:3px;&#10;                      vector-effect: non-scaling-stroke;" transform="translate(-5e-05, 0)">y</text></g></g></g></g></g></g><g><g><g><g style="stroke: black;stroke-width: 1.2000000000000002;" transform="matrix(1.0, 0.0, 0.0, 1.0, 0.0, 0.0)"><path d="M 0.0 -2.0 L 0.0 2.0" style="vector-effect: non-scaling-stroke;fill:none;" /></g><g style="stroke: #808080;stroke-width: 0.6000000000000001;" transform="matrix(1.0, 0.0, 0.0, 1.0, 0.0, 0.0)"><path d="M 0.0 0.0 L 9.0 0.0" style="vector-effect: non-scaling-stroke;fill:none;" /></g></g><g style="stroke: black;stroke-width: 2.4000000000000004;" transform="matrix(1.0, 0.0, 0.0, 1.0, 0.0, 0.0)"><path d="M 0.0 -0.9061242341995239 L 1.0 -0.9061242341995239 L 1.0 -0.7689275741577148 L 2.0 -0.7689275741577148 L 2.0 -0.5068194270133972 L 3.0 -0.5068194270133972 L 3.0 -0.8041744232177734 L 4.0 -0.8041744232177734 L 4.0 -0.8530880212783813 L 5.0 -0.8530880212783813 L 5.0 -1.0547780990600586 L 6.0 -1.0547780990600586 L 6.0 -0.6719874143600464 L 7.0 -0.6719874143600464 L 7.0 -0.6291276812553406 L 8.0 -0.6291276812553406 L 8.0 -1.0312178134918213 L 9.0 -1.0312178134918213" style="vector-effect: non-scaling-stroke;fill:none;" /></g></g></g></g><g><g><g><g style="stroke: black;stroke-width: 1.2000000000000002;" transform="matrix(1.0, 0.0, 0.0, 1.0, 0.0, 0.0)"><path d="M 0.0 -2.0 L 0.0 2.0" style="vector-effect: non-scaling-stroke;fill:none;" /></g><g style="stroke: #808080;stroke-width: 0.6000000000000001;" transform="matrix(1.0, 0.0, 0.0, 1.0, 0.0, 0.0)"><path d="M 0.0 0.0 L 9.0 0.0" style="vector-effect: non-scaling-stroke;fill:none;" /></g></g><g style="stroke: black;stroke-width: 2.4000000000000004;" transform="matrix(1.0, 0.0, 0.0, 1.0, 0.0, 0.0)"><path d="M 0.0 -0.9061242341995239 L 1.0 -0.9061242341995239 L 1.0 -0.7689275741577148 L 2.0 -0.7689275741577148 L 2.0 -0.5068194270133972 L 3.0 -0.5068194270133972 L 3.0 -0.8041744232177734 L 4.0 -0.8041744232177734 L 4.0 -0.8530880212783813 L 5.0 -0.8530880212783813 L 5.0 -1.0547780990600586 L 6.0 -1.0547780990600586 L 6.0 -0.6719874143600464 L 7.0 -0.6719874143600464 L 7.0 -0.6291276812553406 L 8.0 -0.6291276812553406 L 8.0 -1.0312178134918213 L 9.0 -1.0312178134918213" style="vector-effect: non-scaling-stroke;fill:none;" /></g></g></g></g></g></g></g></g></g></g><g style="stroke: black;stroke-width: 1.2000000000000002;" transform="matrix(0.0, -1.0, 1.0, 0.0, 0.0, 0.08287813186645508)"><g /></g></g><g transform="matrix(1.0, 0.0, 0.0, 1.0, 0.0, 0.16287813186645508)"><g transform="matrix(1.0, 0.0, 0.0, 1.0, -0.2, -0.03)"><g transform="matrix(1.0, 0.0, 0.0, 1.0, 0.075, 0.0)"><g transform="matrix(1.0, 0.0, 0.0, 1.0, 0.0, 0.03)"><g transform="matrix(0.01, 0.0, 0.0, 0.01, 0.0, 0.0)"><g><g><g transform="matrix(1.0, 0.0, 0.0, 1.0, 12.5, 0.0)"><g transform="matrix(1.0, 0.0, 0.0, 1.0, -20.0, -0.0)"><g><g style="fill: #d3d3d3;stroke: black;stroke-width: 1.2000000000000002;" transform="matrix(1.0, 0.0, 0.0, 1.0, 0.0, -3.0)"><path d="M 0.0 0.0 L 40.0 0.0 L 40.0 6.0 L 0.0 6.0 L 0.0 0.0 Z" style="vector-effect: non-scaling-stroke;" /></g><g transform="matrix(1.0, 0.0, 0.0, 1.0, 1.875, 0.0)"><g><g style="stroke: black;stroke-width: 1.2000000000000002;" transform="matrix(1.0, 0.0, 0.0, 1.0, 0.0, 0.0)"><g /></g><g style="fill: #ffa500;stroke: black;stroke-width: 1.2000000000000002;" transform="matrix(1.0, 0.0, 0.0, 1.0, 1.875, 0.0)"><text style="text-align:center; text-anchor:middle; dominant-baseline:middle;&#10;                      font-family:sans-serif; font-weight: bold;&#10;                      font-size:3px;&#10;                      vector-effect: non-scaling-stroke;" transform="translate(-5e-05, 0)">f(x)</text></g></g></g></g></g></g><g><g><g><g style="stroke: black;stroke-width: 1.2000000000000002;" transform="matrix(1.0, 0.0, 0.0, 1.0, 0.0, 0.0)"><path d="M 0.0 -2.0 L 0.0 2.0" style="vector-effect: non-scaling-stroke;fill:none;" /></g><g style="stroke: #808080;stroke-width: 0.6000000000000001;" transform="matrix(1.0, 0.0, 0.0, 1.0, 0.0, 0.0)"><path d="M 0.0 0.0 L 25.0 0.0" style="vector-effect: non-scaling-stroke;fill:none;" /></g></g><g style="stroke: black;stroke-width: 2.4000000000000004;" transform="matrix(1.0, 0.0, 0.0, 1.0, 0.0, 0.0)"><path d="M 0.0 -0.43676242232322693 L 1.0 -0.43676242232322693 L 1.0 -0.4758961796760559 L 2.0 -0.4758961796760559 L 2.0 -0.5302310585975647 L 3.0 -0.5302310585975647 L 3.0 -0.47941505908966064 L 4.0 -0.47941505908966064 L 4.0 -0.5030596256256104 L 5.0 -0.5030596256256104 L 5.0 -0.5352910161018372 L 6.0 -0.5352910161018372 L 6.0 -0.5603580474853516 L 7.0 -0.5603580474853516 L 7.0 -0.5216578245162964 L 8.0 -0.5216578245162964 L 8.0 -0.5624536871910095 L 9.0 -0.5624536871910095 L 9.0 -0.582140326499939 L 10.0 -0.582140326499939 L 10.0 -0.5932311415672302 L 11.0 -0.5932311415672302 L 11.0 -0.6949551105499268 L 12.0 -0.6949551105499268 L 12.0 -0.5938664674758911 L 13.0 -0.5938664674758911 L 13.0 -0.5563145279884338 L 14.0 -0.5563145279884338 L 14.0 -0.5574023723602295 L 15.0 -0.5574023723602295 L 15.0 -0.519615888595581 L 16.0 -0.519615888595581 L 16.0 -0.6231359839439392 L 17.0 -0.6231359839439392 L 17.0 -0.6465348601341248 L 18.0 -0.6465348601341248 L 18.0 -0.5752411484718323 L 19.0 -0.5752411484718323 L 19.0 -0.6029913425445557 L 20.0 -0.6029913425445557 L 20.0 -0.44268056750297546 L 21.0 -0.44268056750297546 L 21.0 -0.5331452488899231 L 22.0 -0.5331452488899231 L 22.0 -0.6584582924842834 L 23.0 -0.6584582924842834 L 23.0 -0.6736156344413757 L 24.0 -0.6736156344413757 L 24.0 -0.5816048979759216 L 25.0 -0.5816048979759216" style="vector-effect: non-scaling-stroke;fill:none;" /></g></g></g></g><g><g><g><g style="stroke: black;stroke-width: 1.2000000000000002;" transform="matrix(1.0, 0.0, 0.0, 1.0, 0.0, 0.0)"><path d="M 0.0 -2.0 L 0.0 2.0" style="vector-effect: non-scaling-stroke;fill:none;" /></g><g style="stroke: #808080;stroke-width: 0.6000000000000001;" transform="matrix(1.0, 0.0, 0.0, 1.0, 0.0, 0.0)"><path d="M 0.0 0.0 L 25.0 0.0" style="vector-effect: non-scaling-stroke;fill:none;" /></g></g><g style="stroke: black;stroke-width: 2.4000000000000004;" transform="matrix(1.0, 0.0, 0.0, 1.0, 0.0, 0.0)"><path d="M 0.0 -0.43676242232322693 L 1.0 -0.43676242232322693 L 1.0 -0.4758961796760559 L 2.0 -0.4758961796760559 L 2.0 -0.5302310585975647 L 3.0 -0.5302310585975647 L 3.0 -0.47941505908966064 L 4.0 -0.47941505908966064 L 4.0 -0.5030596256256104 L 5.0 -0.5030596256256104 L 5.0 -0.5352910161018372 L 6.0 -0.5352910161018372 L 6.0 -0.5603580474853516 L 7.0 -0.5603580474853516 L 7.0 -0.5216578245162964 L 8.0 -0.5216578245162964 L 8.0 -0.5624536871910095 L 9.0 -0.5624536871910095 L 9.0 -0.582140326499939 L 10.0 -0.582140326499939 L 10.0 -0.5932311415672302 L 11.0 -0.5932311415672302 L 11.0 -0.6949551105499268 L 12.0 -0.6949551105499268 L 12.0 -0.5938664674758911 L 13.0 -0.5938664674758911 L 13.0 -0.5563145279884338 L 14.0 -0.5563145279884338 L 14.0 -0.5574023723602295 L 15.0 -0.5574023723602295 L 15.0 -0.519615888595581 L 16.0 -0.519615888595581 L 16.0 -0.6231359839439392 L 17.0 -0.6231359839439392 L 17.0 -0.6465348601341248 L 18.0 -0.6465348601341248 L 18.0 -0.5752411484718323 L 19.0 -0.5752411484718323 L 19.0 -0.6029913425445557 L 20.0 -0.6029913425445557 L 20.0 -0.44268056750297546 L 21.0 -0.44268056750297546 L 21.0 -0.5331452488899231 L 22.0 -0.5331452488899231 L 22.0 -0.6584582924842834 L 23.0 -0.6584582924842834 L 23.0 -0.6736156344413757 L 24.0 -0.6736156344413757 L 24.0 -0.5816048979759216 L 25.0 -0.5816048979759216" style="vector-effect: non-scaling-stroke;fill:none;" /></g></g></g></g></g></g></g></g></g></g><g transform="matrix(1.0, 0.0, 0.0, 1.0, -0.125, 0.16287813186645508)"><g transform="matrix(1.0, 0.0, 0.0, 0.009999999999999995, 0.0, 0.0)"><g transform="matrix(0.01, 0.0, 0.0, 1.0, 0.0, 0.0)"><g><g><g style="fill: #ffffe0;stroke: #ffffe0;stroke-width: 1.2000000000000002;fill-opacity: 0.5;" transform="matrix(1.0, 0.0, 0.0, 1.0, 0.0, 0.0)"><path d="M 0.0 -2.0 L 0.0 2.0" style="vector-effect: non-scaling-stroke;fill:none;" /></g><g style="fill: #ffffe0;stroke: #ffffe0;stroke-width: 1.2000000000000002;fill-opacity: 0.5;" transform="matrix(1.0, 0.0, 0.0, 1.0, 0.0, 0.0)"><path d="M 0.0 -1.2444053888320923 L 1.0 -1.2444053888320923 L 1.0 -1.2686378955841064 L 2.0 -1.2686378955841064 L 2.0 -1.3348937034606934 L 3.0 -1.3348937034606934 L 3.0 -1.278117299079895 L 4.0 -1.278117299079895 L 4.0 -1.3017618656158447 L 5.0 -1.3017618656158447 L 5.0 -1.3339931964874268 L 6.0 -1.3339931964874268 L 6.0 -1.3471393585205078 L 7.0 -1.3471393585205078 L 7.0 -1.3084391355514526 L 8.0 -1.3084391355514526 L 8.0 -1.3551955223083496 L 9.0 -1.3551955223083496 L 9.0 -1.3748821020126343 L 10.0 -1.3748821020126343 L 10.0 -1.4098148345947266 L 11.0 -1.4098148345947266 L 11.0 -1.487696886062622 L 12.0 -1.487696886062622 L 12.0 -1.4104501008987427 L 13.0 -1.4104501008987427 L 13.0 -1.3609771728515625 L 14.0 -1.3609771728515625 L 14.0 -1.362065076828003 L 15.0 -1.362065076828003 L 15.0 -1.3183181285858154 L 16.0 -1.3183181285858154 L 16.0 -1.4277987480163574 L 17.0 -1.4277987480163574 L 17.0 -1.4333162307739258 L 18.0 -1.4333162307739258 L 18.0 -1.391824722290039 L 19.0 -1.391824722290039 L 19.0 -1.395733118057251 L 20.0 -1.395733118057251 L 20.0 -1.2384026050567627 L 21.0 -1.2384026050567627 L 21.0 -1.3199265003204346 L 22.0 -1.3199265003204346 L 22.0 -1.4750418663024902 L 23.0 -1.4750418663024902 L 23.0 -1.4663574695587158 L 24.0 -1.4663574695587158 L 24.0 -1.3862676620483398 L 25.0 -1.3862676620483398 L 25.0 -0.5816048979759216 L 24.0 -0.5816048979759216 L 24.0 -0.6736156344413757 L 23.0 -0.6736156344413757 L 23.0 -0.6584582924842834 L 22.0 -0.6584582924842834 L 22.0 -0.5331452488899231 L 21.0 -0.5331452488899231 L 21.0 -0.44268056750297546 L 20.0 -0.44268056750297546 L 20.0 -0.6029913425445557 L 19.0 -0.6029913425445557 L 19.0 -0.5752411484718323 L 18.0 -0.5752411484718323 L 18.0 -0.6465348601341248 L 17.0 -0.6465348601341248 L 17.0 -0.6231359839439392 L 16.0 -0.6231359839439392 L 16.0 -0.519615888595581 L 15.0 -0.519615888595581 L 15.0 -0.5574023723602295 L 14.0 -0.5574023723602295 L 14.0 -0.5563145279884338 L 13.0 -0.5563145279884338 L 13.0 -0.5938664674758911 L 12.0 -0.5938664674758911 L 12.0 -0.6949551105499268 L 11.0 -0.6949551105499268 L 11.0 -0.5932311415672302 L 10.0 -0.5932311415672302 L 10.0 -0.582140326499939 L 9.0 -0.582140326499939 L 9.0 -0.5624536871910095 L 8.0 -0.5624536871910095 L 8.0 -0.5216578245162964 L 7.0 -0.5216578245162964 L 7.0 -0.5603580474853516 L 6.0 -0.5603580474853516 L 6.0 -0.5352910161018372 L 5.0 -0.5352910161018372 L 5.0 -0.5030596256256104 L 4.0 -0.5030596256256104 L 4.0 -0.47941505908966064 L 3.0 -0.47941505908966064 L 3.0 -0.5302310585975647 L 2.0 -0.5302310585975647 L 2.0 -0.4758961796760559 L 1.0 -0.4758961796760559 L 1.0 -0.43676242232322693 L 0.0 -0.43676242232322693 Z" style="vector-effect: non-scaling-stroke;" /></g></g><g style="stroke: black;stroke-width: 1.2000000000000002;" transform="matrix(1.0, 0.0, 0.0, 1.0, 0.0, 0.0)"><path d="M 0.0 -0.43676242232322693 L 1.0 -0.43676242232322693 L 1.0 -0.4758961796760559 L 2.0 -0.4758961796760559 L 2.0 -0.5302310585975647 L 3.0 -0.5302310585975647 L 3.0 -0.47941505908966064 L 4.0 -0.47941505908966064 L 4.0 -0.5030596256256104 L 5.0 -0.5030596256256104 L 5.0 -0.5352910161018372 L 6.0 -0.5352910161018372 L 6.0 -0.5603580474853516 L 7.0 -0.5603580474853516 L 7.0 -0.5216578245162964 L 8.0 -0.5216578245162964 L 8.0 -0.5624536871910095 L 9.0 -0.5624536871910095 L 9.0 -0.582140326499939 L 10.0 -0.582140326499939 L 10.0 -0.5932311415672302 L 11.0 -0.5932311415672302 L 11.0 -0.6949551105499268 L 12.0 -0.6949551105499268 L 12.0 -0.5938664674758911 L 13.0 -0.5938664674758911 L 13.0 -0.5563145279884338 L 14.0 -0.5563145279884338 L 14.0 -0.5574023723602295 L 15.0 -0.5574023723602295 L 15.0 -0.519615888595581 L 16.0 -0.519615888595581 L 16.0 -0.6231359839439392 L 17.0 -0.6231359839439392 L 17.0 -0.6465348601341248 L 18.0 -0.6465348601341248 L 18.0 -0.5752411484718323 L 19.0 -0.5752411484718323 L 19.0 -0.6029913425445557 L 20.0 -0.6029913425445557 L 20.0 -0.44268056750297546 L 21.0 -0.44268056750297546 L 21.0 -0.5331452488899231 L 22.0 -0.5331452488899231 L 22.0 -0.6584582924842834 L 23.0 -0.6584582924842834 L 23.0 -0.6736156344413757 L 24.0 -0.6736156344413757 L 24.0 -0.5816048979759216 L 25.0 -0.5816048979759216" style="vector-effect: non-scaling-stroke;fill:none;" /></g></g></g></g></g></g><g transform="matrix(1.0, 0.0, 0.0, 1.0, -0.125, 0.16287813186645508)"><g transform="matrix(1.0, 0.0, 0.0, 0.009999999999999995, 0.0, 0.0)"><g transform="matrix(0.01, 0.0, 0.0, 1.0, 0.0, 0.0)"><g><g><g style="fill: #add8e6;stroke: #add8e6;stroke-width: 1.2000000000000002;fill-opacity: 0.5;" transform="matrix(1.0, 0.0, 0.0, 1.0, 0.0, 0.0)"><path d="M 0.0 -2.0 L 0.0 2.0" style="vector-effect: non-scaling-stroke;fill:none;" /></g><g style="fill: #add8e6;stroke: #add8e6;stroke-width: 1.2000000000000002;fill-opacity: 0.5;" transform="matrix(1.0, 0.0, 0.0, 1.0, 0.0, 0.0)"><path d="M 0.0 -1.5275274515151978 L 1.0 -1.5275274515151978 L 1.0 -1.6560680866241455 L 2.0 -1.6560680866241455 L 2.0 -1.8474936485290527 L 3.0 -1.8474936485290527 L 3.0 -1.6864091157913208 L 4.0 -1.6864091157913208 L 4.0 -1.6951525211334229 L 5.0 -1.6951525211334229 L 5.0 -1.8585140705108643 L 6.0 -1.8585140705108643 L 6.0 -1.9551067352294922 L 7.0 -1.9551067352294922 L 7.0 -1.8508414030075073 L 8.0 -1.8508414030075073 L 8.0 -1.9035582542419434 L 9.0 -1.9035582542419434 L 9.0 -2.0 L 10.0 -2.0 L 10.0 -2.0 L 11.0 -2.0 L 11.0 -2.0 L 12.0 -2.0 L 12.0 -2.0 L 13.0 -2.0 L 13.0 -1.9510631561279297 L 14.0 -1.9510631561279297 L 14.0 -1.9163882732391357 L 15.0 -1.9163882732391357 L 15.0 -1.753432035446167 L 16.0 -1.753432035446167 L 16.0 -2.0 L 17.0 -2.0 L 17.0 -2.0 L 18.0 -2.0 L 18.0 -2.0 L 19.0 -2.0 L 19.0 -2.0 L 20.0 -2.0 L 20.0 -1.5811293125152588 L 21.0 -1.5811293125152588 L 21.0 -1.8802101612091064 L 22.0 -1.8802101612091064 L 22.0 -2.0 L 23.0 -2.0 L 23.0 -2.0 L 24.0 -2.0 L 24.0 -2.0 L 25.0 -2.0 L 25.0 -0.5816048979759216 L 24.0 -0.5816048979759216 L 24.0 -0.6736156344413757 L 23.0 -0.6736156344413757 L 23.0 -0.6584582924842834 L 22.0 -0.6584582924842834 L 22.0 -0.5331452488899231 L 21.0 -0.5331452488899231 L 21.0 -0.44268056750297546 L 20.0 -0.44268056750297546 L 20.0 -0.6029913425445557 L 19.0 -0.6029913425445557 L 19.0 -0.5752411484718323 L 18.0 -0.5752411484718323 L 18.0 -0.6465348601341248 L 17.0 -0.6465348601341248 L 17.0 -0.6231359839439392 L 16.0 -0.6231359839439392 L 16.0 -0.519615888595581 L 15.0 -0.519615888595581 L 15.0 -0.5574023723602295 L 14.0 -0.5574023723602295 L 14.0 -0.5563145279884338 L 13.0 -0.5563145279884338 L 13.0 -0.5938664674758911 L 12.0 -0.5938664674758911 L 12.0 -0.6949551105499268 L 11.0 -0.6949551105499268 L 11.0 -0.5932311415672302 L 10.0 -0.5932311415672302 L 10.0 -0.582140326499939 L 9.0 -0.582140326499939 L 9.0 -0.5624536871910095 L 8.0 -0.5624536871910095 L 8.0 -0.5216578245162964 L 7.0 -0.5216578245162964 L 7.0 -0.5603580474853516 L 6.0 -0.5603580474853516 L 6.0 -0.5352910161018372 L 5.0 -0.5352910161018372 L 5.0 -0.5030596256256104 L 4.0 -0.5030596256256104 L 4.0 -0.47941505908966064 L 3.0 -0.47941505908966064 L 3.0 -0.5302310585975647 L 2.0 -0.5302310585975647 L 2.0 -0.4758961796760559 L 1.0 -0.4758961796760559 L 1.0 -0.43676242232322693 L 0.0 -0.43676242232322693 Z" style="vector-effect: non-scaling-stroke;" /></g></g><g style="stroke: black;stroke-width: 1.2000000000000002;" transform="matrix(1.0, 0.0, 0.0, 1.0, 0.0, 0.0)"><path d="M 0.0 -0.43676242232322693 L 1.0 -0.43676242232322693 L 1.0 -0.4758961796760559 L 2.0 -0.4758961796760559 L 2.0 -0.5302310585975647 L 3.0 -0.5302310585975647 L 3.0 -0.47941505908966064 L 4.0 -0.47941505908966064 L 4.0 -0.5030596256256104 L 5.0 -0.5030596256256104 L 5.0 -0.5352910161018372 L 6.0 -0.5352910161018372 L 6.0 -0.5603580474853516 L 7.0 -0.5603580474853516 L 7.0 -0.5216578245162964 L 8.0 -0.5216578245162964 L 8.0 -0.5624536871910095 L 9.0 -0.5624536871910095 L 9.0 -0.582140326499939 L 10.0 -0.582140326499939 L 10.0 -0.5932311415672302 L 11.0 -0.5932311415672302 L 11.0 -0.6949551105499268 L 12.0 -0.6949551105499268 L 12.0 -0.5938664674758911 L 13.0 -0.5938664674758911 L 13.0 -0.5563145279884338 L 14.0 -0.5563145279884338 L 14.0 -0.5574023723602295 L 15.0 -0.5574023723602295 L 15.0 -0.519615888595581 L 16.0 -0.519615888595581 L 16.0 -0.6231359839439392 L 17.0 -0.6231359839439392 L 17.0 -0.6465348601341248 L 18.0 -0.6465348601341248 L 18.0 -0.5752411484718323 L 19.0 -0.5752411484718323 L 19.0 -0.6029913425445557 L 20.0 -0.6029913425445557 L 20.0 -0.44268056750297546 L 21.0 -0.44268056750297546 L 21.0 -0.5331452488899231 L 22.0 -0.5331452488899231 L 22.0 -0.6584582924842834 L 23.0 -0.6584582924842834 L 23.0 -0.6736156344413757 L 24.0 -0.6736156344413757 L 24.0 -0.5816048979759216 L 25.0 -0.5816048979759216" style="vector-effect: non-scaling-stroke;fill:none;" /></g></g></g></g></g></g><g transform="matrix(1.0, 0.0, 0.0, 1.0, -0.125, 0.16287813186645508)"><g transform="matrix(1.0, 0.0, 0.0, 0.009999999999999995, 0.0, 0.0)"><g transform="matrix(0.01, 0.0, 0.0, 1.0, 0.0, 0.0)"><g><g><g style="fill: #ff8c00;stroke: #ff8c00;stroke-width: 1.2000000000000002;fill-opacity: 0.5;" transform="matrix(1.0, 0.0, 0.0, 1.0, 0.0, 0.0)"><path d="M 0.0 -2.0 L 0.0 2.0" style="vector-effect: non-scaling-stroke;fill:none;" /></g><g style="fill: #ff8c00;stroke: #ff8c00;stroke-width: 1.2000000000000002;fill-opacity: 0.5;" transform="matrix(1.0, 0.0, 0.0, 1.0, 0.0, 0.0)"><path d="M 0.0 -0.43676242232322693 L 1.0 -0.43676242232322693 L 1.0 -0.4758961796760559 L 2.0 -0.4758961796760559 L 2.0 -0.5302310585975647 L 3.0 -0.5302310585975647 L 3.0 -0.47941505908966064 L 4.0 -0.47941505908966064 L 4.0 -0.5030596256256104 L 5.0 -0.5030596256256104 L 5.0 -0.5352910161018372 L 6.0 -0.5352910161018372 L 6.0 -0.5603580474853516 L 7.0 -0.5603580474853516 L 7.0 -0.5216578245162964 L 8.0 -0.5216578245162964 L 8.0 -0.5624536871910095 L 9.0 -0.5624536871910095 L 9.0 -0.582140326499939 L 10.0 -0.582140326499939 L 10.0 -0.5932311415672302 L 11.0 -0.5932311415672302 L 11.0 -0.6949551105499268 L 12.0 -0.6949551105499268 L 12.0 -0.5938664674758911 L 13.0 -0.5938664674758911 L 13.0 -0.5563145279884338 L 14.0 -0.5563145279884338 L 14.0 -0.5574023723602295 L 15.0 -0.5574023723602295 L 15.0 -0.519615888595581 L 16.0 -0.519615888595581 L 16.0 -0.6231359839439392 L 17.0 -0.6231359839439392 L 17.0 -0.6465348601341248 L 18.0 -0.6465348601341248 L 18.0 -0.5752411484718323 L 19.0 -0.5752411484718323 L 19.0 -0.6029913425445557 L 20.0 -0.6029913425445557 L 20.0 -0.44268056750297546 L 21.0 -0.44268056750297546 L 21.0 -0.5331452488899231 L 22.0 -0.5331452488899231 L 22.0 -0.6584582924842834 L 23.0 -0.6584582924842834 L 23.0 -0.6736156344413757 L 24.0 -0.6736156344413757 L 24.0 -0.5816048979759216 L 25.0 -0.5816048979759216 L 25.0 -0.5816048979759216 L 24.0 -0.5816048979759216 L 24.0 -0.6736156344413757 L 23.0 -0.6736156344413757 L 23.0 -0.6584582924842834 L 22.0 -0.6584582924842834 L 22.0 -0.5331452488899231 L 21.0 -0.5331452488899231 L 21.0 -0.44268056750297546 L 20.0 -0.44268056750297546 L 20.0 -0.6029913425445557 L 19.0 -0.6029913425445557 L 19.0 -0.5752411484718323 L 18.0 -0.5752411484718323 L 18.0 -0.6465348601341248 L 17.0 -0.6465348601341248 L 17.0 -0.6231359839439392 L 16.0 -0.6231359839439392 L 16.0 -0.519615888595581 L 15.0 -0.519615888595581 L 15.0 -0.5574023723602295 L 14.0 -0.5574023723602295 L 14.0 -0.5563145279884338 L 13.0 -0.5563145279884338 L 13.0 -0.5938664674758911 L 12.0 -0.5938664674758911 L 12.0 -0.6949551105499268 L 11.0 -0.6949551105499268 L 11.0 -0.5932311415672302 L 10.0 -0.5932311415672302 L 10.0 -0.582140326499939 L 9.0 -0.582140326499939 L 9.0 -0.5624536871910095 L 8.0 -0.5624536871910095 L 8.0 -0.5216578245162964 L 7.0 -0.5216578245162964 L 7.0 -0.5603580474853516 L 6.0 -0.5603580474853516 L 6.0 -0.5352910161018372 L 5.0 -0.5352910161018372 L 5.0 -0.5030596256256104 L 4.0 -0.5030596256256104 L 4.0 -0.47941505908966064 L 3.0 -0.47941505908966064 L 3.0 -0.5302310585975647 L 2.0 -0.5302310585975647 L 2.0 -0.4758961796760559 L 1.0 -0.4758961796760559 L 1.0 -0.43676242232322693 L 0.0 -0.43676242232322693 Z" style="vector-effect: non-scaling-stroke;" /></g></g><g style="stroke: black;stroke-width: 1.2000000000000002;" transform="matrix(1.0, 0.0, 0.0, 1.0, 0.0, 0.0)"><path d="M 0.0 -0.43676242232322693 L 1.0 -0.43676242232322693 L 1.0 -0.4758961796760559 L 2.0 -0.4758961796760559 L 2.0 -0.5302310585975647 L 3.0 -0.5302310585975647 L 3.0 -0.47941505908966064 L 4.0 -0.47941505908966064 L 4.0 -0.5030596256256104 L 5.0 -0.5030596256256104 L 5.0 -0.5352910161018372 L 6.0 -0.5352910161018372 L 6.0 -0.5603580474853516 L 7.0 -0.5603580474853516 L 7.0 -0.5216578245162964 L 8.0 -0.5216578245162964 L 8.0 -0.5624536871910095 L 9.0 -0.5624536871910095 L 9.0 -0.582140326499939 L 10.0 -0.582140326499939 L 10.0 -0.5932311415672302 L 11.0 -0.5932311415672302 L 11.0 -0.6949551105499268 L 12.0 -0.6949551105499268 L 12.0 -0.5938664674758911 L 13.0 -0.5938664674758911 L 13.0 -0.5563145279884338 L 14.0 -0.5563145279884338 L 14.0 -0.5574023723602295 L 15.0 -0.5574023723602295 L 15.0 -0.519615888595581 L 16.0 -0.519615888595581 L 16.0 -0.6231359839439392 L 17.0 -0.6231359839439392 L 17.0 -0.6465348601341248 L 18.0 -0.6465348601341248 L 18.0 -0.5752411484718323 L 19.0 -0.5752411484718323 L 19.0 -0.6029913425445557 L 20.0 -0.6029913425445557 L 20.0 -0.44268056750297546 L 21.0 -0.44268056750297546 L 21.0 -0.5331452488899231 L 22.0 -0.5331452488899231 L 22.0 -0.6584582924842834 L 23.0 -0.6584582924842834 L 23.0 -0.6736156344413757 L 24.0 -0.6736156344413757 L 24.0 -0.5816048979759216 L 25.0 -0.5816048979759216" style="vector-effect: non-scaling-stroke;fill:none;" /></g></g></g></g></g></g><g transform="matrix(1.0, 0.0, 0.0, 1.0, -0.125, 0.16287813186645508)"><g transform="matrix(1.0, 0.0, 0.0, 0.009999999999999995, 0.0, 0.0)"><g transform="matrix(0.01, 0.0, 0.0, 1.0, 0.0, 0.0)"><g><g><g style="fill: #0000ff;stroke: #0000ff;stroke-width: 1.2000000000000002;fill-opacity: 0.5;" transform="matrix(1.0, 0.0, 0.0, 1.0, 0.0, 0.0)"><path d="M 0.0 -2.0 L 0.0 2.0" style="vector-effect: non-scaling-stroke;fill:none;" /></g><g style="fill: #0000ff;stroke: #0000ff;stroke-width: 1.2000000000000002;fill-opacity: 0.5;" transform="matrix(1.0, 0.0, 0.0, 1.0, 0.0, 0.0)"><path d="M 0.0 -0.43676242232322693 L 1.0 -0.43676242232322693 L 1.0 -0.4758961796760559 L 2.0 -0.4758961796760559 L 2.0 -0.5302310585975647 L 3.0 -0.5302310585975647 L 3.0 -0.47941505908966064 L 4.0 -0.47941505908966064 L 4.0 -0.5030596256256104 L 5.0 -0.5030596256256104 L 5.0 -0.5352910161018372 L 6.0 -0.5352910161018372 L 6.0 -0.5603580474853516 L 7.0 -0.5603580474853516 L 7.0 -0.5216578245162964 L 8.0 -0.5216578245162964 L 8.0 -0.5624536871910095 L 9.0 -0.5624536871910095 L 9.0 -0.582140326499939 L 10.0 -0.582140326499939 L 10.0 -0.5932311415672302 L 11.0 -0.5932311415672302 L 11.0 -0.6949551105499268 L 12.0 -0.6949551105499268 L 12.0 -0.5938664674758911 L 13.0 -0.5938664674758911 L 13.0 -0.5563145279884338 L 14.0 -0.5563145279884338 L 14.0 -0.5574023723602295 L 15.0 -0.5574023723602295 L 15.0 -0.519615888595581 L 16.0 -0.519615888595581 L 16.0 -0.6231359839439392 L 17.0 -0.6231359839439392 L 17.0 -0.6465348601341248 L 18.0 -0.6465348601341248 L 18.0 -0.5752411484718323 L 19.0 -0.5752411484718323 L 19.0 -0.6029913425445557 L 20.0 -0.6029913425445557 L 20.0 -0.44268056750297546 L 21.0 -0.44268056750297546 L 21.0 -0.5331452488899231 L 22.0 -0.5331452488899231 L 22.0 -0.6584582924842834 L 23.0 -0.6584582924842834 L 23.0 -0.6736156344413757 L 24.0 -0.6736156344413757 L 24.0 -0.5816048979759216 L 25.0 -0.5816048979759216 L 25.0 -0.5816048979759216 L 24.0 -0.5816048979759216 L 24.0 -0.6736156344413757 L 23.0 -0.6736156344413757 L 23.0 -0.6584582924842834 L 22.0 -0.6584582924842834 L 22.0 -0.5331452488899231 L 21.0 -0.5331452488899231 L 21.0 -0.44268056750297546 L 20.0 -0.44268056750297546 L 20.0 -0.6029913425445557 L 19.0 -0.6029913425445557 L 19.0 -0.5752411484718323 L 18.0 -0.5752411484718323 L 18.0 -0.6465348601341248 L 17.0 -0.6465348601341248 L 17.0 -0.6231359839439392 L 16.0 -0.6231359839439392 L 16.0 -0.519615888595581 L 15.0 -0.519615888595581 L 15.0 -0.5574023723602295 L 14.0 -0.5574023723602295 L 14.0 -0.5563145279884338 L 13.0 -0.5563145279884338 L 13.0 -0.5938664674758911 L 12.0 -0.5938664674758911 L 12.0 -0.6949551105499268 L 11.0 -0.6949551105499268 L 11.0 -0.5932311415672302 L 10.0 -0.5932311415672302 L 10.0 -0.582140326499939 L 9.0 -0.582140326499939 L 9.0 -0.5624536871910095 L 8.0 -0.5624536871910095 L 8.0 -0.5216578245162964 L 7.0 -0.5216578245162964 L 7.0 -0.5603580474853516 L 6.0 -0.5603580474853516 L 6.0 -0.5352910161018372 L 5.0 -0.5352910161018372 L 5.0 -0.5030596256256104 L 4.0 -0.5030596256256104 L 4.0 -0.47941505908966064 L 3.0 -0.47941505908966064 L 3.0 -0.5302310585975647 L 2.0 -0.5302310585975647 L 2.0 -0.4758961796760559 L 1.0 -0.4758961796760559 L 1.0 -0.43676242232322693 L 0.0 -0.43676242232322693 Z" style="vector-effect: non-scaling-stroke;" /></g></g><g style="stroke: black;stroke-width: 1.2000000000000002;" transform="matrix(1.0, 0.0, 0.0, 1.0, 0.0, 0.0)"><path d="M 0.0 -0.43676242232322693 L 1.0 -0.43676242232322693 L 1.0 -0.4758961796760559 L 2.0 -0.4758961796760559 L 2.0 -0.5302310585975647 L 3.0 -0.5302310585975647 L 3.0 -0.47941505908966064 L 4.0 -0.47941505908966064 L 4.0 -0.5030596256256104 L 5.0 -0.5030596256256104 L 5.0 -0.5352910161018372 L 6.0 -0.5352910161018372 L 6.0 -0.5603580474853516 L 7.0 -0.5603580474853516 L 7.0 -0.5216578245162964 L 8.0 -0.5216578245162964 L 8.0 -0.5624536871910095 L 9.0 -0.5624536871910095 L 9.0 -0.582140326499939 L 10.0 -0.582140326499939 L 10.0 -0.5932311415672302 L 11.0 -0.5932311415672302 L 11.0 -0.6949551105499268 L 12.0 -0.6949551105499268 L 12.0 -0.5938664674758911 L 13.0 -0.5938664674758911 L 13.0 -0.5563145279884338 L 14.0 -0.5563145279884338 L 14.0 -0.5574023723602295 L 15.0 -0.5574023723602295 L 15.0 -0.519615888595581 L 16.0 -0.519615888595581 L 16.0 -0.6231359839439392 L 17.0 -0.6231359839439392 L 17.0 -0.6465348601341248 L 18.0 -0.6465348601341248 L 18.0 -0.5752411484718323 L 19.0 -0.5752411484718323 L 19.0 -0.6029913425445557 L 20.0 -0.6029913425445557 L 20.0 -0.44268056750297546 L 21.0 -0.44268056750297546 L 21.0 -0.5331452488899231 L 22.0 -0.5331452488899231 L 22.0 -0.6584582924842834 L 23.0 -0.6584582924842834 L 23.0 -0.6736156344413757 L 24.0 -0.6736156344413757 L 24.0 -0.5816048979759216 L 25.0 -0.5816048979759216" style="vector-effect: non-scaling-stroke;fill:none;" /></g></g></g></g></g></g></g></g><g><g><g><g><g><g><g transform="matrix(1.0, 0.0, 0.0, 1.0, -0.45499999999999996, -0.03287813186645508)"><g><g><g transform="matrix(1.0, 0.0, 0.0, 1.0, 0.075, 0.0)"><g transform="matrix(1.0, 0.0, 0.0, 1.0, 0.0, 0.0347968864440918)"><g transform="matrix(0.01, 0.0, 0.0, 0.01, 0.0, 0.0)"><g><g><g transform="matrix(1.0, 0.0, 0.0, 1.0, 24.5, -0.19187545776367188)"><g transform="matrix(1.0, 0.0, 0.0, 1.0, -32.0, -0.0)"><g><g style="fill: #d3d3d3;stroke: black;stroke-width: 1.2000000000000002;" transform="matrix(1.0, 0.0, 0.0, 1.0, 0.0, -3.287813186645508)"><path d="M 0.0 0.0 L 64.0 0.0 L 64.0 6.575626373291016 L 0.0 6.575626373291016 L 0.0 0.0 Z" style="vector-effect: non-scaling-stroke;" /></g><g transform="matrix(1.0, 0.0, 0.0, 1.0, 1.875, 0.0)"><g><g style="stroke: black;stroke-width: 1.2000000000000002;" transform="matrix(1.0, 0.0, 0.0, 1.0, 0.0, 0.0)"><g /></g><g style="fill: #ffa500;stroke: black;stroke-width: 1.2000000000000002;" transform="matrix(1.0, 0.0, 0.0, 1.0, 1.875, 0.0)"><text style="text-align:center; text-anchor:middle; dominant-baseline:middle;&#10;                      font-family:sans-serif; font-weight: bold;&#10;                      font-size:3px;&#10;                      vector-effect: non-scaling-stroke;" transform="translate(-5e-05, 0)">x</text></g></g></g></g></g></g><g><g><g><g><g><g><g><g><g><g><g style="stroke: black;stroke-width: 1.2000000000000002;" transform="matrix(1.0, 0.0, 0.0, 1.0, 0.0, 0.0)"><path d="M 0.0 -2.0 L 0.0 2.0" style="vector-effect: non-scaling-stroke;fill:none;" /></g><g style="stroke: #808080;stroke-width: 0.6000000000000001;" transform="matrix(1.0, 0.0, 0.0, 1.0, 0.0, 0.0)"><path d="M 0.0 0.0 L 49.0 0.0" style="vector-effect: non-scaling-stroke;fill:none;" /></g></g><g style="stroke: black;stroke-width: 2.4000000000000004;" transform="matrix(1.0, 0.0, 0.0, 1.0, 0.0, 0.0)"><path d="M 0.0 -0.7689275741577148 L 1.0 -0.7689275741577148 L 1.0 -0.5068194270133972 L 2.0 -0.5068194270133972 L 2.0 -0.8041744232177734 L 3.0 -0.8041744232177734 L 3.0 -0.8530880212783813 L 4.0 -0.8530880212783813 L 4.0 -1.0547780990600586 L 5.0 -1.0547780990600586 L 5.0 -0.6719874143600464 L 6.0 -0.6719874143600464 L 6.0 -0.6291276812553406 L 7.0 -0.6291276812553406 L 7.0 -1.0312178134918213 L 8.0 -1.0312178134918213 L 8.0 -0.4460470378398895 L 9.0 -0.4460470378398895 L 9.0 -1.0091360807418823 L 10.0 -1.0091360807418823 L 10.0 -1.3941620588302612 L 11.0 -1.3941620588302612 L 11.0 -1.7657545804977417 L 12.0 -1.7657545804977417 L 12.0 -0.9576218128204346 L 13.0 -0.9576218128204346 L 13.0 -1.9033526182174683 L 14.0 -1.9033526182174683 L 14.0 -1.3151825666427612 L 15.0 -1.3151825666427612 L 15.0 -2.0427145957946777 L 16.0 -2.0427145957946777 L 16.0 -1.8663134574890137 L 17.0 -1.8663134574890137 L 17.0 -1.7641618251800537 L 18.0 -1.7641618251800537 L 18.0 -1.3552581071853638 L 19.0 -1.3552581071853638 L 19.0 -0.9979908466339111 L 20.0 -0.9979908466339111 L 20.0 -1.4358208179473877 L 21.0 -1.4358208179473877 L 21.0 -1.0786758661270142 L 22.0 -1.0786758661270142 L 22.0 -1.8356091976165771 L 23.0 -1.8356091976165771 L 23.0 -1.1616475582122803 L 24.0 -1.1616475582122803 L 24.0 -1.1052664518356323 L 25.0 -1.1052664518356323 L 25.0 -0.5791404843330383 L 26.0 -0.5791404843330383 L 26.0 -2.2140982151031494 L 27.0 -2.2140982151031494 L 27.0 -1.8809788227081299 L 28.0 -1.8809788227081299 L 28.0 -0.539908766746521 L 29.0 -0.539908766746521 L 29.0 -1.5240906476974487 L 30.0 -1.5240906476974487 L 30.0 -1.9293102025985718 L 31.0 -1.9293102025985718 L 31.0 -2.3837509155273438 L 32.0 -2.3837509155273438 L 32.0 -1.620437502861023 L 33.0 -1.620437502861023 L 33.0 -0.5116623640060425 L 34.0 -0.5116623640060425 L 34.0 -1.5134977102279663 L 35.0 -1.5134977102279663 L 35.0 -0.8612258434295654 L 36.0 -0.8612258434295654 L 36.0 -0.7668431997299194 L 37.0 -0.7668431997299194 L 37.0 -1.4981719255447388 L 38.0 -1.4981719255447388 L 38.0 -1.2180548906326294 L 39.0 -1.2180548906326294 L 39.0 -2.30244517326355 L 40.0 -2.30244517326355 L 40.0 -1.6284631490707397 L 41.0 -1.6284631490707397 L 41.0 -1.7120884656906128 L 42.0 -1.7120884656906128 L 42.0 -1.251280665397644 L 43.0 -1.251280665397644 L 43.0 -1.0968530178070068 L 44.0 -1.0968530178070068 L 44.0 -0.8450138568878174 L 45.0 -0.8450138568878174 L 45.0 -1.0431827306747437 L 46.0 -1.0431827306747437 L 46.0 -1.5062308311462402 L 47.0 -1.5062308311462402 L 47.0 -2.084704875946045 L 48.0 -2.084704875946045 L 48.0 -0.45547330379486084 L 49.0 -0.45547330379486084" style="vector-effect: non-scaling-stroke;fill:none;" /></g></g><g style="stroke: black;stroke-width: 1.2000000000000002;" transform="matrix(1.0, 0.0, 0.0, 1.0, 0.0, 0.0)"><path d="M 0.0 -2.0 L 0.0 2.0" style="vector-effect: non-scaling-stroke;fill:none;" /></g></g><g style="stroke: black;stroke-width: 1.2000000000000002;" transform="matrix(1.0, 0.0, 0.0, 1.0, 0.0, 0.0)"><path d="M 7.0 -2.0 L 7.0 2.0" style="vector-effect: non-scaling-stroke;fill:none;" /></g></g><g style="stroke: black;stroke-width: 1.2000000000000002;" transform="matrix(1.0, 0.0, 0.0, 1.0, 0.0, 0.0)"><path d="M 14.0 -2.0 L 14.0 2.0" style="vector-effect: non-scaling-stroke;fill:none;" /></g></g><g style="stroke: black;stroke-width: 1.2000000000000002;" transform="matrix(1.0, 0.0, 0.0, 1.0, 0.0, 0.0)"><path d="M 21.0 -2.0 L 21.0 2.0" style="vector-effect: non-scaling-stroke;fill:none;" /></g></g><g style="stroke: black;stroke-width: 1.2000000000000002;" transform="matrix(1.0, 0.0, 0.0, 1.0, 0.0, 0.0)"><path d="M 28.0 -2.0 L 28.0 2.0" style="vector-effect: non-scaling-stroke;fill:none;" /></g></g><g style="stroke: black;stroke-width: 1.2000000000000002;" transform="matrix(1.0, 0.0, 0.0, 1.0, 0.0, 0.0)"><path d="M 35.0 -2.0 L 35.0 2.0" style="vector-effect: non-scaling-stroke;fill:none;" /></g></g><g style="stroke: black;stroke-width: 1.2000000000000002;" transform="matrix(1.0, 0.0, 0.0, 1.0, 0.0, 0.0)"><path d="M 42.0 -2.0 L 42.0 2.0" style="vector-effect: non-scaling-stroke;fill:none;" /></g></g></g></g><g><g><g><g><g><g><g><g><g><g><g style="stroke: black;stroke-width: 1.2000000000000002;" transform="matrix(1.0, 0.0, 0.0, 1.0, 0.0, 0.0)"><path d="M 0.0 -2.0 L 0.0 2.0" style="vector-effect: non-scaling-stroke;fill:none;" /></g><g style="stroke: #808080;stroke-width: 0.6000000000000001;" transform="matrix(1.0, 0.0, 0.0, 1.0, 0.0, 0.0)"><path d="M 0.0 0.0 L 49.0 0.0" style="vector-effect: non-scaling-stroke;fill:none;" /></g></g><g style="stroke: black;stroke-width: 2.4000000000000004;" transform="matrix(1.0, 0.0, 0.0, 1.0, 0.0, 0.0)"><path d="M 0.0 -0.7689275741577148 L 1.0 -0.7689275741577148 L 1.0 -0.5068194270133972 L 2.0 -0.5068194270133972 L 2.0 -0.8041744232177734 L 3.0 -0.8041744232177734 L 3.0 -0.8530880212783813 L 4.0 -0.8530880212783813 L 4.0 -1.0547780990600586 L 5.0 -1.0547780990600586 L 5.0 -0.6719874143600464 L 6.0 -0.6719874143600464 L 6.0 -0.6291276812553406 L 7.0 -0.6291276812553406 L 7.0 -1.0312178134918213 L 8.0 -1.0312178134918213 L 8.0 -0.4460470378398895 L 9.0 -0.4460470378398895 L 9.0 -1.0091360807418823 L 10.0 -1.0091360807418823 L 10.0 -1.3941620588302612 L 11.0 -1.3941620588302612 L 11.0 -1.7657545804977417 L 12.0 -1.7657545804977417 L 12.0 -0.9576218128204346 L 13.0 -0.9576218128204346 L 13.0 -1.9033526182174683 L 14.0 -1.9033526182174683 L 14.0 -1.3151825666427612 L 15.0 -1.3151825666427612 L 15.0 -2.0427145957946777 L 16.0 -2.0427145957946777 L 16.0 -1.8663134574890137 L 17.0 -1.8663134574890137 L 17.0 -1.7641618251800537 L 18.0 -1.7641618251800537 L 18.0 -1.3552581071853638 L 19.0 -1.3552581071853638 L 19.0 -0.9979908466339111 L 20.0 -0.9979908466339111 L 20.0 -1.4358208179473877 L 21.0 -1.4358208179473877 L 21.0 -1.0786758661270142 L 22.0 -1.0786758661270142 L 22.0 -1.8356091976165771 L 23.0 -1.8356091976165771 L 23.0 -1.1616475582122803 L 24.0 -1.1616475582122803 L 24.0 -1.1052664518356323 L 25.0 -1.1052664518356323 L 25.0 -0.5791404843330383 L 26.0 -0.5791404843330383 L 26.0 -2.2140982151031494 L 27.0 -2.2140982151031494 L 27.0 -1.8809788227081299 L 28.0 -1.8809788227081299 L 28.0 -0.539908766746521 L 29.0 -0.539908766746521 L 29.0 -1.5240906476974487 L 30.0 -1.5240906476974487 L 30.0 -1.9293102025985718 L 31.0 -1.9293102025985718 L 31.0 -2.3837509155273438 L 32.0 -2.3837509155273438 L 32.0 -1.620437502861023 L 33.0 -1.620437502861023 L 33.0 -0.5116623640060425 L 34.0 -0.5116623640060425 L 34.0 -1.5134977102279663 L 35.0 -1.5134977102279663 L 35.0 -0.8612258434295654 L 36.0 -0.8612258434295654 L 36.0 -0.7668431997299194 L 37.0 -0.7668431997299194 L 37.0 -1.4981719255447388 L 38.0 -1.4981719255447388 L 38.0 -1.2180548906326294 L 39.0 -1.2180548906326294 L 39.0 -2.30244517326355 L 40.0 -2.30244517326355 L 40.0 -1.6284631490707397 L 41.0 -1.6284631490707397 L 41.0 -1.7120884656906128 L 42.0 -1.7120884656906128 L 42.0 -1.251280665397644 L 43.0 -1.251280665397644 L 43.0 -1.0968530178070068 L 44.0 -1.0968530178070068 L 44.0 -0.8450138568878174 L 45.0 -0.8450138568878174 L 45.0 -1.0431827306747437 L 46.0 -1.0431827306747437 L 46.0 -1.5062308311462402 L 47.0 -1.5062308311462402 L 47.0 -2.084704875946045 L 48.0 -2.084704875946045 L 48.0 -0.45547330379486084 L 49.0 -0.45547330379486084" style="vector-effect: non-scaling-stroke;fill:none;" /></g></g><g style="stroke: black;stroke-width: 1.2000000000000002;" transform="matrix(1.0, 0.0, 0.0, 1.0, 0.0, 0.0)"><path d="M 0.0 -2.0 L 0.0 2.0" style="vector-effect: non-scaling-stroke;fill:none;" /></g></g><g style="stroke: black;stroke-width: 1.2000000000000002;" transform="matrix(1.0, 0.0, 0.0, 1.0, 0.0, 0.0)"><path d="M 7.0 -2.0 L 7.0 2.0" style="vector-effect: non-scaling-stroke;fill:none;" /></g></g><g style="stroke: black;stroke-width: 1.2000000000000002;" transform="matrix(1.0, 0.0, 0.0, 1.0, 0.0, 0.0)"><path d="M 14.0 -2.0 L 14.0 2.0" style="vector-effect: non-scaling-stroke;fill:none;" /></g></g><g style="stroke: black;stroke-width: 1.2000000000000002;" transform="matrix(1.0, 0.0, 0.0, 1.0, 0.0, 0.0)"><path d="M 21.0 -2.0 L 21.0 2.0" style="vector-effect: non-scaling-stroke;fill:none;" /></g></g><g style="stroke: black;stroke-width: 1.2000000000000002;" transform="matrix(1.0, 0.0, 0.0, 1.0, 0.0, 0.0)"><path d="M 28.0 -2.0 L 28.0 2.0" style="vector-effect: non-scaling-stroke;fill:none;" /></g></g><g style="stroke: black;stroke-width: 1.2000000000000002;" transform="matrix(1.0, 0.0, 0.0, 1.0, 0.0, 0.0)"><path d="M 35.0 -2.0 L 35.0 2.0" style="vector-effect: non-scaling-stroke;fill:none;" /></g></g><g style="stroke: black;stroke-width: 1.2000000000000002;" transform="matrix(1.0, 0.0, 0.0, 1.0, 0.0, 0.0)"><path d="M 42.0 -2.0 L 42.0 2.0" style="vector-effect: non-scaling-stroke;fill:none;" /></g></g></g></g></g></g></g><g style="stroke: black;stroke-width: 1.2000000000000002;" transform="matrix(1.0, 0.0, 0.0, 1.0, 0.6549999999999999, 0.0)"><g /></g></g><g transform="matrix(1.0, 0.0, 0.0, 1.0, 0.6699999999999999, 0.0)"><g transform="matrix(1.0, 0.0, 0.0, 1.0, 0.075, 0.0)"><g transform="matrix(1.0, 0.0, 0.0, 1.0, 0.0, 0.03)"><g transform="matrix(0.01, 0.0, 0.0, 0.01, 0.0, 0.0)"><g><g><g transform="matrix(1.0, 0.0, 0.0, 1.0, 4.5, 0.0)"><g transform="matrix(1.0, 0.0, 0.0, 1.0, -12.0, -0.0)"><g><g style="fill: #d3d3d3;stroke: black;stroke-width: 1.2000000000000002;" transform="matrix(1.0, 0.0, 0.0, 1.0, 0.0, -3.0)"><path d="M 0.0 0.0 L 24.0 0.0 L 24.0 6.0 L 0.0 6.0 L 0.0 0.0 Z" style="vector-effect: non-scaling-stroke;" /></g><g transform="matrix(1.0, 0.0, 0.0, 1.0, 1.875, 0.0)"><g><g style="stroke: black;stroke-width: 1.2000000000000002;" transform="matrix(1.0, 0.0, 0.0, 1.0, 0.0, 0.0)"><g /></g><g style="fill: #ffa500;stroke: black;stroke-width: 1.2000000000000002;" transform="matrix(1.0, 0.0, 0.0, 1.0, 1.875, 0.0)"><text style="text-align:center; text-anchor:middle; dominant-baseline:middle;&#10;                      font-family:sans-serif; font-weight: bold;&#10;                      font-size:3px;&#10;                      vector-effect: non-scaling-stroke;" transform="translate(-5e-05, 0)">y</text></g></g></g></g></g></g><g><g><g><g style="stroke: black;stroke-width: 1.2000000000000002;" transform="matrix(1.0, 0.0, 0.0, 1.0, 0.0, 0.0)"><path d="M 0.0 -2.0 L 0.0 2.0" style="vector-effect: non-scaling-stroke;fill:none;" /></g><g style="stroke: #808080;stroke-width: 0.6000000000000001;" transform="matrix(1.0, 0.0, 0.0, 1.0, 0.0, 0.0)"><path d="M 0.0 0.0 L 9.0 0.0" style="vector-effect: non-scaling-stroke;fill:none;" /></g></g><g style="stroke: black;stroke-width: 2.4000000000000004;" transform="matrix(1.0, 0.0, 0.0, 1.0, 0.0, 0.0)"><path d="M 0.0 -0.9061242341995239 L 1.0 -0.9061242341995239 L 1.0 -0.7689275741577148 L 2.0 -0.7689275741577148 L 2.0 -0.5068194270133972 L 3.0 -0.5068194270133972 L 3.0 -0.8041744232177734 L 4.0 -0.8041744232177734 L 4.0 -0.8530880212783813 L 5.0 -0.8530880212783813 L 5.0 -1.0547780990600586 L 6.0 -1.0547780990600586 L 6.0 -0.6719874143600464 L 7.0 -0.6719874143600464 L 7.0 -0.6291276812553406 L 8.0 -0.6291276812553406 L 8.0 -1.0312178134918213 L 9.0 -1.0312178134918213" style="vector-effect: non-scaling-stroke;fill:none;" /></g></g></g></g><g><g><g><g style="stroke: black;stroke-width: 1.2000000000000002;" transform="matrix(1.0, 0.0, 0.0, 1.0, 0.0, 0.0)"><path d="M 0.0 -2.0 L 0.0 2.0" style="vector-effect: non-scaling-stroke;fill:none;" /></g><g style="stroke: #808080;stroke-width: 0.6000000000000001;" transform="matrix(1.0, 0.0, 0.0, 1.0, 0.0, 0.0)"><path d="M 0.0 0.0 L 9.0 0.0" style="vector-effect: non-scaling-stroke;fill:none;" /></g></g><g style="stroke: black;stroke-width: 2.4000000000000004;" transform="matrix(1.0, 0.0, 0.0, 1.0, 0.0, 0.0)"><path d="M 0.0 -0.9061242341995239 L 1.0 -0.9061242341995239 L 1.0 -0.7689275741577148 L 2.0 -0.7689275741577148 L 2.0 -0.5068194270133972 L 3.0 -0.5068194270133972 L 3.0 -0.8041744232177734 L 4.0 -0.8041744232177734 L 4.0 -0.8530880212783813 L 5.0 -0.8530880212783813 L 5.0 -1.0547780990600586 L 6.0 -1.0547780990600586 L 6.0 -0.6719874143600464 L 7.0 -0.6719874143600464 L 7.0 -0.6291276812553406 L 8.0 -0.6291276812553406 L 8.0 -1.0312178134918213 L 9.0 -1.0312178134918213" style="vector-effect: non-scaling-stroke;fill:none;" /></g></g></g></g></g></g></g></g></g></g><g style="stroke: black;stroke-width: 1.2000000000000002;" transform="matrix(0.0, -1.0, 1.0, 0.0, 0.0, 0.08287813186645508)"><g /></g></g><g transform="matrix(1.0, 0.0, 0.0, 1.0, 0.0, 0.16287813186645508)"><g transform="matrix(1.0, 0.0, 0.0, 1.0, -0.2, -0.03)"><g transform="matrix(1.0, 0.0, 0.0, 1.0, 0.075, 0.0)"><g transform="matrix(1.0, 0.0, 0.0, 1.0, 0.0, 0.03)"><g transform="matrix(0.01, 0.0, 0.0, 0.01, 0.0, 0.0)"><g><g><g transform="matrix(1.0, 0.0, 0.0, 1.0, 12.5, 0.0)"><g transform="matrix(1.0, 0.0, 0.0, 1.0, -20.0, -0.0)"><g><g style="fill: #d3d3d3;stroke: black;stroke-width: 1.2000000000000002;" transform="matrix(1.0, 0.0, 0.0, 1.0, 0.0, -3.0)"><path d="M 0.0 0.0 L 40.0 0.0 L 40.0 6.0 L 0.0 6.0 L 0.0 0.0 Z" style="vector-effect: non-scaling-stroke;" /></g><g transform="matrix(1.0, 0.0, 0.0, 1.0, 1.875, 0.0)"><g><g style="stroke: black;stroke-width: 1.2000000000000002;" transform="matrix(1.0, 0.0, 0.0, 1.0, 0.0, 0.0)"><g /></g><g style="fill: #ffa500;stroke: black;stroke-width: 1.2000000000000002;" transform="matrix(1.0, 0.0, 0.0, 1.0, 1.875, 0.0)"><text style="text-align:center; text-anchor:middle; dominant-baseline:middle;&#10;                      font-family:sans-serif; font-weight: bold;&#10;                      font-size:3px;&#10;                      vector-effect: non-scaling-stroke;" transform="translate(-5e-05, 0)">f(x)</text></g></g></g></g></g></g><g><g><g><g style="stroke: black;stroke-width: 1.2000000000000002;" transform="matrix(1.0, 0.0, 0.0, 1.0, 0.0, 0.0)"><path d="M 0.0 -2.0 L 0.0 2.0" style="vector-effect: non-scaling-stroke;fill:none;" /></g><g style="stroke: #808080;stroke-width: 0.6000000000000001;" transform="matrix(1.0, 0.0, 0.0, 1.0, 0.0, 0.0)"><path d="M 0.0 0.0 L 25.0 0.0" style="vector-effect: non-scaling-stroke;fill:none;" /></g></g><g style="stroke: black;stroke-width: 2.4000000000000004;" transform="matrix(1.0, 0.0, 0.0, 1.0, 0.0, 0.0)"><path d="M 0.0 -0.43676242232322693 L 1.0 -0.43676242232322693 L 1.0 -0.4758961796760559 L 2.0 -0.4758961796760559 L 2.0 -0.5302310585975647 L 3.0 -0.5302310585975647 L 3.0 -0.47941505908966064 L 4.0 -0.47941505908966064 L 4.0 -0.5030596256256104 L 5.0 -0.5030596256256104 L 5.0 -0.5352910161018372 L 6.0 -0.5352910161018372 L 6.0 -0.5603580474853516 L 7.0 -0.5603580474853516 L 7.0 -0.5216578245162964 L 8.0 -0.5216578245162964 L 8.0 -0.5624536871910095 L 9.0 -0.5624536871910095 L 9.0 -0.582140326499939 L 10.0 -0.582140326499939 L 10.0 -0.5932311415672302 L 11.0 -0.5932311415672302 L 11.0 -0.6949551105499268 L 12.0 -0.6949551105499268 L 12.0 -0.5938664674758911 L 13.0 -0.5938664674758911 L 13.0 -0.5563145279884338 L 14.0 -0.5563145279884338 L 14.0 -0.5574023723602295 L 15.0 -0.5574023723602295 L 15.0 -0.519615888595581 L 16.0 -0.519615888595581 L 16.0 -0.6231359839439392 L 17.0 -0.6231359839439392 L 17.0 -0.6465348601341248 L 18.0 -0.6465348601341248 L 18.0 -0.5752411484718323 L 19.0 -0.5752411484718323 L 19.0 -0.6029913425445557 L 20.0 -0.6029913425445557 L 20.0 -0.44268056750297546 L 21.0 -0.44268056750297546 L 21.0 -0.5331452488899231 L 22.0 -0.5331452488899231 L 22.0 -0.6584582924842834 L 23.0 -0.6584582924842834 L 23.0 -0.6736156344413757 L 24.0 -0.6736156344413757 L 24.0 -0.5816048979759216 L 25.0 -0.5816048979759216" style="vector-effect: non-scaling-stroke;fill:none;" /></g></g></g></g><g><g><g><g style="stroke: black;stroke-width: 1.2000000000000002;" transform="matrix(1.0, 0.0, 0.0, 1.0, 0.0, 0.0)"><path d="M 0.0 -2.0 L 0.0 2.0" style="vector-effect: non-scaling-stroke;fill:none;" /></g><g style="stroke: #808080;stroke-width: 0.6000000000000001;" transform="matrix(1.0, 0.0, 0.0, 1.0, 0.0, 0.0)"><path d="M 0.0 0.0 L 25.0 0.0" style="vector-effect: non-scaling-stroke;fill:none;" /></g></g><g style="stroke: black;stroke-width: 2.4000000000000004;" transform="matrix(1.0, 0.0, 0.0, 1.0, 0.0, 0.0)"><path d="M 0.0 -0.43676242232322693 L 1.0 -0.43676242232322693 L 1.0 -0.4758961796760559 L 2.0 -0.4758961796760559 L 2.0 -0.5302310585975647 L 3.0 -0.5302310585975647 L 3.0 -0.47941505908966064 L 4.0 -0.47941505908966064 L 4.0 -0.5030596256256104 L 5.0 -0.5030596256256104 L 5.0 -0.5352910161018372 L 6.0 -0.5352910161018372 L 6.0 -0.5603580474853516 L 7.0 -0.5603580474853516 L 7.0 -0.5216578245162964 L 8.0 -0.5216578245162964 L 8.0 -0.5624536871910095 L 9.0 -0.5624536871910095 L 9.0 -0.582140326499939 L 10.0 -0.582140326499939 L 10.0 -0.5932311415672302 L 11.0 -0.5932311415672302 L 11.0 -0.6949551105499268 L 12.0 -0.6949551105499268 L 12.0 -0.5938664674758911 L 13.0 -0.5938664674758911 L 13.0 -0.5563145279884338 L 14.0 -0.5563145279884338 L 14.0 -0.5574023723602295 L 15.0 -0.5574023723602295 L 15.0 -0.519615888595581 L 16.0 -0.519615888595581 L 16.0 -0.6231359839439392 L 17.0 -0.6231359839439392 L 17.0 -0.6465348601341248 L 18.0 -0.6465348601341248 L 18.0 -0.5752411484718323 L 19.0 -0.5752411484718323 L 19.0 -0.6029913425445557 L 20.0 -0.6029913425445557 L 20.0 -0.44268056750297546 L 21.0 -0.44268056750297546 L 21.0 -0.5331452488899231 L 22.0 -0.5331452488899231 L 22.0 -0.6584582924842834 L 23.0 -0.6584582924842834 L 23.0 -0.6736156344413757 L 24.0 -0.6736156344413757 L 24.0 -0.5816048979759216 L 25.0 -0.5816048979759216" style="vector-effect: non-scaling-stroke;fill:none;" /></g></g></g></g></g></g></g></g></g></g><g transform="matrix(1.0, 0.0, 0.0, 1.0, -0.125, 0.16287813186645508)"><g transform="matrix(1.0, 0.0, 0.0, 0.009999999999999995, 0.0, 0.0)"><g transform="matrix(0.01, 0.0, 0.0, 1.0, 0.0, 0.0)"><g><g><g style="fill: #ffffe0;stroke: #ffffe0;stroke-width: 1.2000000000000002;fill-opacity: 0.5;" transform="matrix(1.0, 0.0, 0.0, 1.0, 0.0, 0.0)"><path d="M 0.0 -2.0 L 0.0 2.0" style="vector-effect: non-scaling-stroke;fill:none;" /></g><g style="fill: #ffffe0;stroke: #ffffe0;stroke-width: 1.2000000000000002;fill-opacity: 0.5;" transform="matrix(1.0, 0.0, 0.0, 1.0, 0.0, 0.0)"><path d="M 0.0 -1.2444053888320923 L 1.0 -1.2444053888320923 L 1.0 -1.2686378955841064 L 2.0 -1.2686378955841064 L 2.0 -1.3348937034606934 L 3.0 -1.3348937034606934 L 3.0 -1.278117299079895 L 4.0 -1.278117299079895 L 4.0 -1.3017618656158447 L 5.0 -1.3017618656158447 L 5.0 -1.3339931964874268 L 6.0 -1.3339931964874268 L 6.0 -1.3471393585205078 L 7.0 -1.3471393585205078 L 7.0 -1.3084391355514526 L 8.0 -1.3084391355514526 L 8.0 -1.3551955223083496 L 9.0 -1.3551955223083496 L 9.0 -1.3748821020126343 L 10.0 -1.3748821020126343 L 10.0 -1.4098148345947266 L 11.0 -1.4098148345947266 L 11.0 -1.487696886062622 L 12.0 -1.487696886062622 L 12.0 -1.4104501008987427 L 13.0 -1.4104501008987427 L 13.0 -1.3609771728515625 L 14.0 -1.3609771728515625 L 14.0 -1.362065076828003 L 15.0 -1.362065076828003 L 15.0 -1.3183181285858154 L 16.0 -1.3183181285858154 L 16.0 -1.4277987480163574 L 17.0 -1.4277987480163574 L 17.0 -1.4333162307739258 L 18.0 -1.4333162307739258 L 18.0 -1.391824722290039 L 19.0 -1.391824722290039 L 19.0 -1.395733118057251 L 20.0 -1.395733118057251 L 20.0 -1.2384026050567627 L 21.0 -1.2384026050567627 L 21.0 -1.3199265003204346 L 22.0 -1.3199265003204346 L 22.0 -1.4750418663024902 L 23.0 -1.4750418663024902 L 23.0 -1.4663574695587158 L 24.0 -1.4663574695587158 L 24.0 -1.3862676620483398 L 25.0 -1.3862676620483398 L 25.0 -0.5816048979759216 L 24.0 -0.5816048979759216 L 24.0 -0.6736156344413757 L 23.0 -0.6736156344413757 L 23.0 -0.6584582924842834 L 22.0 -0.6584582924842834 L 22.0 -0.5331452488899231 L 21.0 -0.5331452488899231 L 21.0 -0.44268056750297546 L 20.0 -0.44268056750297546 L 20.0 -0.6029913425445557 L 19.0 -0.6029913425445557 L 19.0 -0.5752411484718323 L 18.0 -0.5752411484718323 L 18.0 -0.6465348601341248 L 17.0 -0.6465348601341248 L 17.0 -0.6231359839439392 L 16.0 -0.6231359839439392 L 16.0 -0.519615888595581 L 15.0 -0.519615888595581 L 15.0 -0.5574023723602295 L 14.0 -0.5574023723602295 L 14.0 -0.5563145279884338 L 13.0 -0.5563145279884338 L 13.0 -0.5938664674758911 L 12.0 -0.5938664674758911 L 12.0 -0.6949551105499268 L 11.0 -0.6949551105499268 L 11.0 -0.5932311415672302 L 10.0 -0.5932311415672302 L 10.0 -0.582140326499939 L 9.0 -0.582140326499939 L 9.0 -0.5624536871910095 L 8.0 -0.5624536871910095 L 8.0 -0.5216578245162964 L 7.0 -0.5216578245162964 L 7.0 -0.5603580474853516 L 6.0 -0.5603580474853516 L 6.0 -0.5352910161018372 L 5.0 -0.5352910161018372 L 5.0 -0.5030596256256104 L 4.0 -0.5030596256256104 L 4.0 -0.47941505908966064 L 3.0 -0.47941505908966064 L 3.0 -0.5302310585975647 L 2.0 -0.5302310585975647 L 2.0 -0.4758961796760559 L 1.0 -0.4758961796760559 L 1.0 -0.43676242232322693 L 0.0 -0.43676242232322693 Z" style="vector-effect: non-scaling-stroke;" /></g></g><g style="stroke: black;stroke-width: 1.2000000000000002;" transform="matrix(1.0, 0.0, 0.0, 1.0, 0.0, 0.0)"><path d="M 0.0 -0.43676242232322693 L 1.0 -0.43676242232322693 L 1.0 -0.4758961796760559 L 2.0 -0.4758961796760559 L 2.0 -0.5302310585975647 L 3.0 -0.5302310585975647 L 3.0 -0.47941505908966064 L 4.0 -0.47941505908966064 L 4.0 -0.5030596256256104 L 5.0 -0.5030596256256104 L 5.0 -0.5352910161018372 L 6.0 -0.5352910161018372 L 6.0 -0.5603580474853516 L 7.0 -0.5603580474853516 L 7.0 -0.5216578245162964 L 8.0 -0.5216578245162964 L 8.0 -0.5624536871910095 L 9.0 -0.5624536871910095 L 9.0 -0.582140326499939 L 10.0 -0.582140326499939 L 10.0 -0.5932311415672302 L 11.0 -0.5932311415672302 L 11.0 -0.6949551105499268 L 12.0 -0.6949551105499268 L 12.0 -0.5938664674758911 L 13.0 -0.5938664674758911 L 13.0 -0.5563145279884338 L 14.0 -0.5563145279884338 L 14.0 -0.5574023723602295 L 15.0 -0.5574023723602295 L 15.0 -0.519615888595581 L 16.0 -0.519615888595581 L 16.0 -0.6231359839439392 L 17.0 -0.6231359839439392 L 17.0 -0.6465348601341248 L 18.0 -0.6465348601341248 L 18.0 -0.5752411484718323 L 19.0 -0.5752411484718323 L 19.0 -0.6029913425445557 L 20.0 -0.6029913425445557 L 20.0 -0.44268056750297546 L 21.0 -0.44268056750297546 L 21.0 -0.5331452488899231 L 22.0 -0.5331452488899231 L 22.0 -0.6584582924842834 L 23.0 -0.6584582924842834 L 23.0 -0.6736156344413757 L 24.0 -0.6736156344413757 L 24.0 -0.5816048979759216 L 25.0 -0.5816048979759216" style="vector-effect: non-scaling-stroke;fill:none;" /></g></g></g></g></g></g><g transform="matrix(1.0, 0.0, 0.0, 1.0, -0.125, 0.16287813186645508)"><g transform="matrix(1.0, 0.0, 0.0, 0.009999999999999995, 0.0, 0.0)"><g transform="matrix(0.01, 0.0, 0.0, 1.0, 0.0, 0.0)"><g><g><g style="fill: #add8e6;stroke: #add8e6;stroke-width: 1.2000000000000002;fill-opacity: 0.5;" transform="matrix(1.0, 0.0, 0.0, 1.0, 0.0, 0.0)"><path d="M 0.0 -2.0 L 0.0 2.0" style="vector-effect: non-scaling-stroke;fill:none;" /></g><g style="fill: #add8e6;stroke: #add8e6;stroke-width: 1.2000000000000002;fill-opacity: 0.5;" transform="matrix(1.0, 0.0, 0.0, 1.0, 0.0, 0.0)"><path d="M 0.0 -1.5275274515151978 L 1.0 -1.5275274515151978 L 1.0 -1.6560680866241455 L 2.0 -1.6560680866241455 L 2.0 -1.8474936485290527 L 3.0 -1.8474936485290527 L 3.0 -1.6864091157913208 L 4.0 -1.6864091157913208 L 4.0 -1.6951525211334229 L 5.0 -1.6951525211334229 L 5.0 -1.8585140705108643 L 6.0 -1.8585140705108643 L 6.0 -1.9551067352294922 L 7.0 -1.9551067352294922 L 7.0 -1.8508414030075073 L 8.0 -1.8508414030075073 L 8.0 -1.9035582542419434 L 9.0 -1.9035582542419434 L 9.0 -2.0 L 10.0 -2.0 L 10.0 -2.0 L 11.0 -2.0 L 11.0 -2.0 L 12.0 -2.0 L 12.0 -2.0 L 13.0 -2.0 L 13.0 -1.9510631561279297 L 14.0 -1.9510631561279297 L 14.0 -1.9163882732391357 L 15.0 -1.9163882732391357 L 15.0 -1.753432035446167 L 16.0 -1.753432035446167 L 16.0 -2.0 L 17.0 -2.0 L 17.0 -2.0 L 18.0 -2.0 L 18.0 -2.0 L 19.0 -2.0 L 19.0 -2.0 L 20.0 -2.0 L 20.0 -1.5811293125152588 L 21.0 -1.5811293125152588 L 21.0 -1.8802101612091064 L 22.0 -1.8802101612091064 L 22.0 -2.0 L 23.0 -2.0 L 23.0 -2.0 L 24.0 -2.0 L 24.0 -2.0 L 25.0 -2.0 L 25.0 -0.5816048979759216 L 24.0 -0.5816048979759216 L 24.0 -0.6736156344413757 L 23.0 -0.6736156344413757 L 23.0 -0.6584582924842834 L 22.0 -0.6584582924842834 L 22.0 -0.5331452488899231 L 21.0 -0.5331452488899231 L 21.0 -0.44268056750297546 L 20.0 -0.44268056750297546 L 20.0 -0.6029913425445557 L 19.0 -0.6029913425445557 L 19.0 -0.5752411484718323 L 18.0 -0.5752411484718323 L 18.0 -0.6465348601341248 L 17.0 -0.6465348601341248 L 17.0 -0.6231359839439392 L 16.0 -0.6231359839439392 L 16.0 -0.519615888595581 L 15.0 -0.519615888595581 L 15.0 -0.5574023723602295 L 14.0 -0.5574023723602295 L 14.0 -0.5563145279884338 L 13.0 -0.5563145279884338 L 13.0 -0.5938664674758911 L 12.0 -0.5938664674758911 L 12.0 -0.6949551105499268 L 11.0 -0.6949551105499268 L 11.0 -0.5932311415672302 L 10.0 -0.5932311415672302 L 10.0 -0.582140326499939 L 9.0 -0.582140326499939 L 9.0 -0.5624536871910095 L 8.0 -0.5624536871910095 L 8.0 -0.5216578245162964 L 7.0 -0.5216578245162964 L 7.0 -0.5603580474853516 L 6.0 -0.5603580474853516 L 6.0 -0.5352910161018372 L 5.0 -0.5352910161018372 L 5.0 -0.5030596256256104 L 4.0 -0.5030596256256104 L 4.0 -0.47941505908966064 L 3.0 -0.47941505908966064 L 3.0 -0.5302310585975647 L 2.0 -0.5302310585975647 L 2.0 -0.4758961796760559 L 1.0 -0.4758961796760559 L 1.0 -0.43676242232322693 L 0.0 -0.43676242232322693 Z" style="vector-effect: non-scaling-stroke;" /></g></g><g style="stroke: black;stroke-width: 1.2000000000000002;" transform="matrix(1.0, 0.0, 0.0, 1.0, 0.0, 0.0)"><path d="M 0.0 -0.43676242232322693 L 1.0 -0.43676242232322693 L 1.0 -0.4758961796760559 L 2.0 -0.4758961796760559 L 2.0 -0.5302310585975647 L 3.0 -0.5302310585975647 L 3.0 -0.47941505908966064 L 4.0 -0.47941505908966064 L 4.0 -0.5030596256256104 L 5.0 -0.5030596256256104 L 5.0 -0.5352910161018372 L 6.0 -0.5352910161018372 L 6.0 -0.5603580474853516 L 7.0 -0.5603580474853516 L 7.0 -0.5216578245162964 L 8.0 -0.5216578245162964 L 8.0 -0.5624536871910095 L 9.0 -0.5624536871910095 L 9.0 -0.582140326499939 L 10.0 -0.582140326499939 L 10.0 -0.5932311415672302 L 11.0 -0.5932311415672302 L 11.0 -0.6949551105499268 L 12.0 -0.6949551105499268 L 12.0 -0.5938664674758911 L 13.0 -0.5938664674758911 L 13.0 -0.5563145279884338 L 14.0 -0.5563145279884338 L 14.0 -0.5574023723602295 L 15.0 -0.5574023723602295 L 15.0 -0.519615888595581 L 16.0 -0.519615888595581 L 16.0 -0.6231359839439392 L 17.0 -0.6231359839439392 L 17.0 -0.6465348601341248 L 18.0 -0.6465348601341248 L 18.0 -0.5752411484718323 L 19.0 -0.5752411484718323 L 19.0 -0.6029913425445557 L 20.0 -0.6029913425445557 L 20.0 -0.44268056750297546 L 21.0 -0.44268056750297546 L 21.0 -0.5331452488899231 L 22.0 -0.5331452488899231 L 22.0 -0.6584582924842834 L 23.0 -0.6584582924842834 L 23.0 -0.6736156344413757 L 24.0 -0.6736156344413757 L 24.0 -0.5816048979759216 L 25.0 -0.5816048979759216" style="vector-effect: non-scaling-stroke;fill:none;" /></g></g></g></g></g></g><g transform="matrix(1.0, 0.0, 0.0, 1.0, -0.125, 0.16287813186645508)"><g transform="matrix(1.0, 0.0, 0.0, 0.009999999999999995, 0.0, 0.0)"><g transform="matrix(0.01, 0.0, 0.0, 1.0, 0.0, 0.0)"><g><g><g style="fill: #ff8c00;stroke: #ff8c00;stroke-width: 1.2000000000000002;fill-opacity: 0.5;" transform="matrix(1.0, 0.0, 0.0, 1.0, 0.0, 0.0)"><path d="M 0.0 -2.0 L 0.0 2.0" style="vector-effect: non-scaling-stroke;fill:none;" /></g><g style="fill: #ff8c00;stroke: #ff8c00;stroke-width: 1.2000000000000002;fill-opacity: 0.5;" transform="matrix(1.0, 0.0, 0.0, 1.0, 0.0, 0.0)"><path d="M 0.0 -0.43676242232322693 L 1.0 -0.43676242232322693 L 1.0 -0.4758961796760559 L 2.0 -0.4758961796760559 L 2.0 -0.5302310585975647 L 3.0 -0.5302310585975647 L 3.0 -0.47941505908966064 L 4.0 -0.47941505908966064 L 4.0 -0.5030596256256104 L 5.0 -0.5030596256256104 L 5.0 -0.5352910161018372 L 6.0 -0.5352910161018372 L 6.0 -0.5603580474853516 L 7.0 -0.5603580474853516 L 7.0 -0.5216578245162964 L 8.0 -0.5216578245162964 L 8.0 -0.5624536871910095 L 9.0 -0.5624536871910095 L 9.0 -0.582140326499939 L 10.0 -0.582140326499939 L 10.0 -0.5932311415672302 L 11.0 -0.5932311415672302 L 11.0 -0.6949551105499268 L 12.0 -0.6949551105499268 L 12.0 -0.5938664674758911 L 13.0 -0.5938664674758911 L 13.0 -0.5563145279884338 L 14.0 -0.5563145279884338 L 14.0 -0.5574023723602295 L 15.0 -0.5574023723602295 L 15.0 -0.519615888595581 L 16.0 -0.519615888595581 L 16.0 -0.6231359839439392 L 17.0 -0.6231359839439392 L 17.0 -0.6465348601341248 L 18.0 -0.6465348601341248 L 18.0 -0.5752411484718323 L 19.0 -0.5752411484718323 L 19.0 -0.6029913425445557 L 20.0 -0.6029913425445557 L 20.0 -0.44268056750297546 L 21.0 -0.44268056750297546 L 21.0 -0.5331452488899231 L 22.0 -0.5331452488899231 L 22.0 -0.6584582924842834 L 23.0 -0.6584582924842834 L 23.0 -0.6736156344413757 L 24.0 -0.6736156344413757 L 24.0 -0.5816048979759216 L 25.0 -0.5816048979759216 L 25.0 -0.5816048979759216 L 24.0 -0.5816048979759216 L 24.0 -0.6736156344413757 L 23.0 -0.6736156344413757 L 23.0 -0.6584582924842834 L 22.0 -0.6584582924842834 L 22.0 -0.5331452488899231 L 21.0 -0.5331452488899231 L 21.0 -0.44268056750297546 L 20.0 -0.44268056750297546 L 20.0 -0.6029913425445557 L 19.0 -0.6029913425445557 L 19.0 -0.5752411484718323 L 18.0 -0.5752411484718323 L 18.0 -0.6465348601341248 L 17.0 -0.6465348601341248 L 17.0 -0.6231359839439392 L 16.0 -0.6231359839439392 L 16.0 -0.519615888595581 L 15.0 -0.519615888595581 L 15.0 -0.5574023723602295 L 14.0 -0.5574023723602295 L 14.0 -0.5563145279884338 L 13.0 -0.5563145279884338 L 13.0 -0.5938664674758911 L 12.0 -0.5938664674758911 L 12.0 -0.6949551105499268 L 11.0 -0.6949551105499268 L 11.0 -0.5932311415672302 L 10.0 -0.5932311415672302 L 10.0 -0.582140326499939 L 9.0 -0.582140326499939 L 9.0 -0.5624536871910095 L 8.0 -0.5624536871910095 L 8.0 -0.5216578245162964 L 7.0 -0.5216578245162964 L 7.0 -0.5603580474853516 L 6.0 -0.5603580474853516 L 6.0 -0.5352910161018372 L 5.0 -0.5352910161018372 L 5.0 -0.5030596256256104 L 4.0 -0.5030596256256104 L 4.0 -0.47941505908966064 L 3.0 -0.47941505908966064 L 3.0 -0.5302310585975647 L 2.0 -0.5302310585975647 L 2.0 -0.4758961796760559 L 1.0 -0.4758961796760559 L 1.0 -0.43676242232322693 L 0.0 -0.43676242232322693 Z" style="vector-effect: non-scaling-stroke;" /></g></g><g style="stroke: black;stroke-width: 1.2000000000000002;" transform="matrix(1.0, 0.0, 0.0, 1.0, 0.0, 0.0)"><path d="M 0.0 -0.43676242232322693 L 1.0 -0.43676242232322693 L 1.0 -0.4758961796760559 L 2.0 -0.4758961796760559 L 2.0 -0.5302310585975647 L 3.0 -0.5302310585975647 L 3.0 -0.47941505908966064 L 4.0 -0.47941505908966064 L 4.0 -0.5030596256256104 L 5.0 -0.5030596256256104 L 5.0 -0.5352910161018372 L 6.0 -0.5352910161018372 L 6.0 -0.5603580474853516 L 7.0 -0.5603580474853516 L 7.0 -0.5216578245162964 L 8.0 -0.5216578245162964 L 8.0 -0.5624536871910095 L 9.0 -0.5624536871910095 L 9.0 -0.582140326499939 L 10.0 -0.582140326499939 L 10.0 -0.5932311415672302 L 11.0 -0.5932311415672302 L 11.0 -0.6949551105499268 L 12.0 -0.6949551105499268 L 12.0 -0.5938664674758911 L 13.0 -0.5938664674758911 L 13.0 -0.5563145279884338 L 14.0 -0.5563145279884338 L 14.0 -0.5574023723602295 L 15.0 -0.5574023723602295 L 15.0 -0.519615888595581 L 16.0 -0.519615888595581 L 16.0 -0.6231359839439392 L 17.0 -0.6231359839439392 L 17.0 -0.6465348601341248 L 18.0 -0.6465348601341248 L 18.0 -0.5752411484718323 L 19.0 -0.5752411484718323 L 19.0 -0.6029913425445557 L 20.0 -0.6029913425445557 L 20.0 -0.44268056750297546 L 21.0 -0.44268056750297546 L 21.0 -0.5331452488899231 L 22.0 -0.5331452488899231 L 22.0 -0.6584582924842834 L 23.0 -0.6584582924842834 L 23.0 -0.6736156344413757 L 24.0 -0.6736156344413757 L 24.0 -0.5816048979759216 L 25.0 -0.5816048979759216" style="vector-effect: non-scaling-stroke;fill:none;" /></g></g></g></g></g></g><g transform="matrix(1.0, 0.0, 0.0, 1.0, -0.125, 0.16287813186645508)"><g transform="matrix(1.0, 0.0, 0.0, 0.009999999999999995, 0.0, 0.0)"><g transform="matrix(0.01, 0.0, 0.0, 1.0, 0.0, 0.0)"><g><g><g style="fill: #0000ff;stroke: #0000ff;stroke-width: 1.2000000000000002;fill-opacity: 0.5;" transform="matrix(1.0, 0.0, 0.0, 1.0, 0.0, 0.0)"><path d="M 0.0 -2.0 L 0.0 2.0" style="vector-effect: non-scaling-stroke;fill:none;" /></g><g style="fill: #0000ff;stroke: #0000ff;stroke-width: 1.2000000000000002;fill-opacity: 0.5;" transform="matrix(1.0, 0.0, 0.0, 1.0, 0.0, 0.0)"><path d="M 0.0 -0.43676242232322693 L 1.0 -0.43676242232322693 L 1.0 -0.4758961796760559 L 2.0 -0.4758961796760559 L 2.0 -0.5302310585975647 L 3.0 -0.5302310585975647 L 3.0 -0.47941505908966064 L 4.0 -0.47941505908966064 L 4.0 -0.5030596256256104 L 5.0 -0.5030596256256104 L 5.0 -0.5352910161018372 L 6.0 -0.5352910161018372 L 6.0 -0.5603580474853516 L 7.0 -0.5603580474853516 L 7.0 -0.5216578245162964 L 8.0 -0.5216578245162964 L 8.0 -0.5624536871910095 L 9.0 -0.5624536871910095 L 9.0 -0.582140326499939 L 10.0 -0.582140326499939 L 10.0 -0.5932311415672302 L 11.0 -0.5932311415672302 L 11.0 -0.6949551105499268 L 12.0 -0.6949551105499268 L 12.0 -0.5938664674758911 L 13.0 -0.5938664674758911 L 13.0 -0.5563145279884338 L 14.0 -0.5563145279884338 L 14.0 -0.5574023723602295 L 15.0 -0.5574023723602295 L 15.0 -0.519615888595581 L 16.0 -0.519615888595581 L 16.0 -0.6231359839439392 L 17.0 -0.6231359839439392 L 17.0 -0.6465348601341248 L 18.0 -0.6465348601341248 L 18.0 -0.5752411484718323 L 19.0 -0.5752411484718323 L 19.0 -0.6029913425445557 L 20.0 -0.6029913425445557 L 20.0 -0.44268056750297546 L 21.0 -0.44268056750297546 L 21.0 -0.5331452488899231 L 22.0 -0.5331452488899231 L 22.0 -0.6584582924842834 L 23.0 -0.6584582924842834 L 23.0 -0.6736156344413757 L 24.0 -0.6736156344413757 L 24.0 -0.5816048979759216 L 25.0 -0.5816048979759216 L 25.0 -0.5816048979759216 L 24.0 -0.5816048979759216 L 24.0 -0.6736156344413757 L 23.0 -0.6736156344413757 L 23.0 -0.6584582924842834 L 22.0 -0.6584582924842834 L 22.0 -0.5331452488899231 L 21.0 -0.5331452488899231 L 21.0 -0.44268056750297546 L 20.0 -0.44268056750297546 L 20.0 -0.6029913425445557 L 19.0 -0.6029913425445557 L 19.0 -0.5752411484718323 L 18.0 -0.5752411484718323 L 18.0 -0.6465348601341248 L 17.0 -0.6465348601341248 L 17.0 -0.6231359839439392 L 16.0 -0.6231359839439392 L 16.0 -0.519615888595581 L 15.0 -0.519615888595581 L 15.0 -0.5574023723602295 L 14.0 -0.5574023723602295 L 14.0 -0.5563145279884338 L 13.0 -0.5563145279884338 L 13.0 -0.5938664674758911 L 12.0 -0.5938664674758911 L 12.0 -0.6949551105499268 L 11.0 -0.6949551105499268 L 11.0 -0.5932311415672302 L 10.0 -0.5932311415672302 L 10.0 -0.582140326499939 L 9.0 -0.582140326499939 L 9.0 -0.5624536871910095 L 8.0 -0.5624536871910095 L 8.0 -0.5216578245162964 L 7.0 -0.5216578245162964 L 7.0 -0.5603580474853516 L 6.0 -0.5603580474853516 L 6.0 -0.5352910161018372 L 5.0 -0.5352910161018372 L 5.0 -0.5030596256256104 L 4.0 -0.5030596256256104 L 4.0 -0.47941505908966064 L 3.0 -0.47941505908966064 L 3.0 -0.5302310585975647 L 2.0 -0.5302310585975647 L 2.0 -0.4758961796760559 L 1.0 -0.4758961796760559 L 1.0 -0.43676242232322693 L 0.0 -0.43676242232322693 Z" style="vector-effect: non-scaling-stroke;" /></g></g><g style="stroke: black;stroke-width: 1.2000000000000002;" transform="matrix(1.0, 0.0, 0.0, 1.0, 0.0, 0.0)"><path d="M 0.0 -0.43676242232322693 L 1.0 -0.43676242232322693 L 1.0 -0.4758961796760559 L 2.0 -0.4758961796760559 L 2.0 -0.5302310585975647 L 3.0 -0.5302310585975647 L 3.0 -0.47941505908966064 L 4.0 -0.47941505908966064 L 4.0 -0.5030596256256104 L 5.0 -0.5030596256256104 L 5.0 -0.5352910161018372 L 6.0 -0.5352910161018372 L 6.0 -0.5603580474853516 L 7.0 -0.5603580474853516 L 7.0 -0.5216578245162964 L 8.0 -0.5216578245162964 L 8.0 -0.5624536871910095 L 9.0 -0.5624536871910095 L 9.0 -0.582140326499939 L 10.0 -0.582140326499939 L 10.0 -0.5932311415672302 L 11.0 -0.5932311415672302 L 11.0 -0.6949551105499268 L 12.0 -0.6949551105499268 L 12.0 -0.5938664674758911 L 13.0 -0.5938664674758911 L 13.0 -0.5563145279884338 L 14.0 -0.5563145279884338 L 14.0 -0.5574023723602295 L 15.0 -0.5574023723602295 L 15.0 -0.519615888595581 L 16.0 -0.519615888595581 L 16.0 -0.6231359839439392 L 17.0 -0.6231359839439392 L 17.0 -0.6465348601341248 L 18.0 -0.6465348601341248 L 18.0 -0.5752411484718323 L 19.0 -0.5752411484718323 L 19.0 -0.6029913425445557 L 20.0 -0.6029913425445557 L 20.0 -0.44268056750297546 L 21.0 -0.44268056750297546 L 21.0 -0.5331452488899231 L 22.0 -0.5331452488899231 L 22.0 -0.6584582924842834 L 23.0 -0.6584582924842834 L 23.0 -0.6736156344413757 L 24.0 -0.6736156344413757 L 24.0 -0.5816048979759216 L 25.0 -0.5816048979759216" style="vector-effect: non-scaling-stroke;fill:none;" /></g></g></g></g></g></g></g></g><g /></g></g></g></g></svg>