<?xml version="1.0" encoding="utf-8" ?>
<svg baseProfile="full" height="300" version="1.1" width="1056" xmlns="http://www.w3.org/2000/svg" xmlns:ev="http://www.w3.org/2001/xml-events" xmlns:xlink="http://www.w3.org/1999/xlink"><defs><marker id="arrow" markerHeight="3.5" markerWidth="5" orient="auto" refX="5.0" refY="1.7"><polygon points="0,0 5,1.75 0,3.5" /></marker></defs><g style="fill:white;"><g transform="matrix(1.0, 0.0, 0.0, 1.0, 528.409090909091, 150.0)"><g transform="matrix(1082.2510822510822, 0.0, 0.0, 1082.2510822510822, 0.0, 0.0)"><g><g transform="matrix(1.0, 0.0, 0.0, 1.0, -0.0, -0.08000000000000002)"><g><g><g style="fill: #ffffff;stroke: black;stroke-width: 1.2000000000000002;" transform="matrix(1.0, 0.0, 0.0, 1.0, -0.465, -0.052000000000000005)"><path d="M 0.0 0.0 L 0.93 0.0 L 0.93 0.264 L 0.0 0.264 L 0.0 0.0 Z" style="vector-effect: non-scaling-stroke;" /></g><g><g><g><g><g><g><g><g transform="matrix(1.0, 0.0, 0.0, 1.0, -0.41500000000000004, -0.03)"><g><g><g transform="matrix(1.0, 0.0, 0.0, 1.0, 0.075, 0.0)"><g transform="matrix(1.0, 0.0, 0.0, 1.0, 0.0, 0.03)"><g transform="matrix(0.01, 0.0, 0.0, 0.01, 0.0, 0.0)"><g><g><g transform="matrix(1.0, 0.0, 0.0, 1.0, 12.5, 0.0)"><g transform="matrix(1.0, 0.0, 0.0, 1.0, -20.0, -0.0)"><g><g style="fill: #d3d3d3;stroke: black;stroke-width: 1.2000000000000002;" transform="matrix(1.0, 0.0, 0.0, 1.0, 0.0, -3.0)"><path d="M 0.0 0.0 L 40.0 0.0 L 40.0 6.0 L 0.0 6.0 L 0.0 0.0 Z" style="vector-effect: non-scaling-stroke;" /></g><g transform="matrix(1.0, 0.0, 0.0, 1.0, 1.875, 0.0)"><g><g style="stroke: black;stroke-width: 1.2000000000000002;" transform="matrix(1.0, 0.0, 0.0, 1.0, 0.0, 0.0)"><g /></g><g style="fill: #ffa500;stroke: black;stroke-width: 1.2000000000000002;" transform="matrix(1.0, 0.0, 0.0, 1.0, 1.875, 0.0)"><text style="text-align:center; text-anchor:middle; dominant-baseline:middle;&#10;                      font-family:sans-serif; font-weight: bold;&#10;                      font-size:3px;&#10;                      vector-effect: non-scaling-stroke;" transform="translate(-5e-05, 0)">x</text></g></g></g></g></g></g><g><g><g><g><g style="stroke: black;stroke-width: 1.2000000000000002;" transform="matrix(1.0, 0.0, 0.0, 1.0, 0.0, 0.0)"><path d="M 0.0 -2.0 L 0.0 2.0" style="vector-effect: non-scaling-stroke;fill:none;" /></g><g style="stroke: #808080;stroke-width: 0.6000000000000001;" transform="matrix(1.0, 0.0, 0.0, 1.0, 0.0, 0.0)"><path d="M 0.0 0.0 L 25.0 0.0" style="vector-effect: non-scaling-stroke;fill:none;" /></g></g><g style="stroke: black;stroke-width: 2.4000000000000004;" transform="matrix(1.0, 0.0, 0.0, 1.0, 0.0, 0.0)"><path d="M 0.0 0.871941864490509 L 1.0 0.871941864490509 L 1.0 0.2536965608596802 L 2.0 0.2536965608596802 L 2.0 0.20256835222244263 L 3.0 0.20256835222244263 L 3.0 0.40527454018592834 L 4.0 0.40527454018592834 L 4.0 -0.26852527260780334 L 5.0 -0.26852527260780334 L 5.0 -0.35136839747428894 L 6.0 -0.35136839747428894 L 6.0 -0.6916482448577881 L 7.0 -0.6916482448577881 L 7.0 0.1972484141588211 L 8.0 0.1972484141588211 L 8.0 -0.9115141034126282 L 9.0 -0.9115141034126282 L 9.0 -0.4357282519340515 L 10.0 -0.4357282519340515 L 10.0 -0.227659672498703 L 11.0 -0.227659672498703 L 11.0 0.2672785520553589 L 12.0 0.2672785520553589 L 12.0 -0.09378920495510101 L 13.0 -0.09378920495510101 L 13.0 -0.03657596930861473 L 14.0 -0.03657596930861473 L 14.0 -0.7623620629310608 L 15.0 -0.7623620629310608 L 15.0 0.05543040484189987 L 16.0 0.05543040484189987 L 16.0 -1.6880478858947754 L 17.0 -1.6880478858947754 L 17.0 -0.9875346422195435 L 18.0 -0.9875346422195435 L 18.0 -1.693429946899414 L 19.0 -1.693429946899414 L 19.0 0.17093953490257263 L 20.0 0.17093953490257263 L 20.0 -1.04374361038208 L 21.0 -1.04374361038208 L 21.0 -0.29867035150527954 L 22.0 -0.29867035150527954 L 22.0 -0.9582696557044983 L 23.0 -0.9582696557044983 L 23.0 -0.444803386926651 L 24.0 -0.444803386926651 L 24.0 -0.6638801097869873 L 25.0 -0.6638801097869873" style="vector-effect: non-scaling-stroke;fill:none;" /></g></g><g style="stroke: black;stroke-width: 1.2000000000000002;" transform="matrix(1.0, 0.0, 0.0, 1.0, 0.0, 0.0)"><path d="M 0.0 -2.0 L 0.0 2.0" style="vector-effect: non-scaling-stroke;fill:none;" /></g></g></g></g><g><g><g><g><g style="stroke: black;stroke-width: 1.2000000000000002;" transform="matrix(1.0, 0.0, 0.0, 1.0, 0.0, 0.0)"><path d="M 0.0 -2.0 L 0.0 2.0" style="vector-effect: non-scaling-stroke;fill:none;" /></g><g style="stroke: #808080;stroke-width: 0.6000000000000001;" transform="matrix(1.0, 0.0, 0.0, 1.0, 0.0, 0.0)"><path d="M 0.0 0.0 L 25.0 0.0" style="vector-effect: non-scaling-stroke;fill:none;" /></g></g><g style="stroke: black;stroke-width: 2.4000000000000004;" transform="matrix(1.0, 0.0, 0.0, 1.0, 0.0, 0.0)"><path d="M 0.0 0.871941864490509 L 1.0 0.871941864490509 L 1.0 0.2536965608596802 L 2.0 0.2536965608596802 L 2.0 0.20256835222244263 L 3.0 0.20256835222244263 L 3.0 0.40527454018592834 L 4.0 0.40527454018592834 L 4.0 -0.26852527260780334 L 5.0 -0.26852527260780334 L 5.0 -0.35136839747428894 L 6.0 -0.35136839747428894 L 6.0 -0.6916482448577881 L 7.0 -0.6916482448577881 L 7.0 0.1972484141588211 L 8.0 0.1972484141588211 L 8.0 -0.9115141034126282 L 9.0 -0.9115141034126282 L 9.0 -0.4357282519340515 L 10.0 -0.4357282519340515 L 10.0 -0.227659672498703 L 11.0 -0.227659672498703 L 11.0 0.2672785520553589 L 12.0 0.2672785520553589 L 12.0 -0.09378920495510101 L 13.0 -0.09378920495510101 L 13.0 -0.03657596930861473 L 14.0 -0.03657596930861473 L 14.0 -0.7623620629310608 L 15.0 -0.7623620629310608 L 15.0 0.05543040484189987 L 16.0 0.05543040484189987 L 16.0 -1.6880478858947754 L 17.0 -1.6880478858947754 L 17.0 -0.9875346422195435 L 18.0 -0.9875346422195435 L 18.0 -1.693429946899414 L 19.0 -1.693429946899414 L 19.0 0.17093953490257263 L 20.0 0.17093953490257263 L 20.0 -1.04374361038208 L 21.0 -1.04374361038208 L 21.0 -0.29867035150527954 L 22.0 -0.29867035150527954 L 22.0 -0.9582696557044983 L 23.0 -0.9582696557044983 L 23.0 -0.444803386926651 L 24.0 -0.444803386926651 L 24.0 -0.6638801097869873 L 25.0 -0.6638801097869873" style="vector-effect: non-scaling-stroke;fill:none;" /></g></g><g style="stroke: black;stroke-width: 1.2000000000000002;" transform="matrix(1.0, 0.0, 0.0, 1.0, 0.0, 0.0)"><path d="M 0.0 -2.0 L 0.0 2.0" style="vector-effect: non-scaling-stroke;fill:none;" /></g></g></g></g></g></g></g><g style="stroke: black;stroke-width: 1.2000000000000002;" transform="matrix(1.0, 0.0, 0.0, 1.0, 0.41500000000000004, 0.0)"><g /></g></g><g transform="matrix(1.0, 0.0, 0.0, 1.0, 0.43000000000000005, 0.0)"><g transform="matrix(1.0, 0.0, 0.0, 1.0, 0.075, 0.0)"><g transform="matrix(1.0, 0.0, 0.0, 1.0, 0.0, 0.03)"><g transform="matrix(0.01, 0.0, 0.0, 0.01, 0.0, 0.0)"><g><g><g transform="matrix(1.0, 0.0, 0.0, 1.0, 12.5, 0.0)"><g transform="matrix(1.0, 0.0, 0.0, 1.0, -20.0, -0.0)"><g><g style="fill: #d3d3d3;stroke: black;stroke-width: 1.2000000000000002;" transform="matrix(1.0, 0.0, 0.0, 1.0, 0.0, -3.0)"><path d="M 0.0 0.0 L 40.0 0.0 L 40.0 6.0 L 0.0 6.0 L 0.0 0.0 Z" style="vector-effect: non-scaling-stroke;" /></g><g transform="matrix(1.0, 0.0, 0.0, 1.0, 1.875, 0.0)"><g><g style="stroke: black;stroke-width: 1.2000000000000002;" transform="matrix(1.0, 0.0, 0.0, 1.0, 0.0, 0.0)"><g /></g><g style="fill: #ffa500;stroke: black;stroke-width: 1.2000000000000002;" transform="matrix(1.0, 0.0, 0.0, 1.0, 1.875, 0.0)"><text style="text-align:center; text-anchor:middle; dominant-baseline:middle;&#10;                      font-family:sans-serif; font-weight: bold;&#10;                      font-size:3px;&#10;                      vector-effect: non-scaling-stroke;" transform="translate(-5e-05, 0)">y</text></g></g></g></g></g></g><g><g><g><g style="stroke: black;stroke-width: 1.2000000000000002;" transform="matrix(1.0, 0.0, 0.0, 1.0, 0.0, 0.0)"><path d="M 0.0 -2.0 L 0.0 2.0" style="vector-effect: non-scaling-stroke;fill:none;" /></g><g style="stroke: #808080;stroke-width: 0.6000000000000001;" transform="matrix(1.0, 0.0, 0.0, 1.0, 0.0, 0.0)"><path d="M 0.0 0.0 L 25.0 0.0" style="vector-effect: non-scaling-stroke;fill:none;" /></g></g><g style="stroke: black;stroke-width: 2.4000000000000004;" transform="matrix(1.0, 0.0, 0.0, 1.0, 0.0, 0.0)"><path d="M 0.0 -1.389845848083496 L 1.0 -1.389845848083496 L 1.0 -1.0459502935409546 L 2.0 -1.0459502935409546 L 2.0 -1.874679446220398 L 3.0 -1.874679446220398 L 3.0 -0.8415325284004211 L 4.0 -0.8415325284004211 L 4.0 -1.8072394132614136 L 5.0 -1.8072394132614136 L 5.0 -0.18836985528469086 L 6.0 -0.18836985528469086 L 6.0 -1.7506518363952637 L 7.0 -1.7506518363952637 L 7.0 -1.2369564771652222 L 8.0 -1.2369564771652222 L 8.0 -1.3810935020446777 L 9.0 -1.3810935020446777 L 9.0 -1.3974287509918213 L 10.0 -1.3974287509918213 L 10.0 -1.7242653369903564 L 11.0 -1.7242653369903564 L 11.0 -1.3872874975204468 L 12.0 -1.3872874975204468 L 12.0 -1.2593145370483398 L 13.0 -1.2593145370483398 L 13.0 -1.8147130012512207 L 14.0 -1.8147130012512207 L 14.0 -1.395669937133789 L 15.0 -1.395669937133789 L 15.0 -0.21278686821460724 L 16.0 -0.21278686821460724 L 16.0 -1.3385826349258423 L 17.0 -1.3385826349258423 L 17.0 -0.02134583704173565 L 18.0 -0.02134583704173565 L 18.0 -1.1525174379348755 L 19.0 -1.1525174379348755 L 19.0 -0.13235895335674286 L 20.0 -0.13235895335674286 L 20.0 -1.0333293676376343 L 21.0 -1.0333293676376343 L 21.0 -1.1160067319869995 L 22.0 -1.1160067319869995 L 22.0 -0.5435988306999207 L 23.0 -0.5435988306999207 L 23.0 -0.10872414708137512 L 24.0 -0.10872414708137512 L 24.0 -1.2195825576782227 L 25.0 -1.2195825576782227" style="vector-effect: non-scaling-stroke;fill:none;" /></g></g></g></g><g><g><g><g style="stroke: black;stroke-width: 1.2000000000000002;" transform="matrix(1.0, 0.0, 0.0, 1.0, 0.0, 0.0)"><path d="M 0.0 -2.0 L 0.0 2.0" style="vector-effect: non-scaling-stroke;fill:none;" /></g><g style="stroke: #808080;stroke-width: 0.6000000000000001;" transform="matrix(1.0, 0.0, 0.0, 1.0, 0.0, 0.0)"><path d="M 0.0 0.0 L 25.0 0.0" style="vector-effect: non-scaling-stroke;fill:none;" /></g></g><g style="stroke: black;stroke-width: 2.4000000000000004;" transform="matrix(1.0, 0.0, 0.0, 1.0, 0.0, 0.0)"><path d="M 0.0 -1.389845848083496 L 1.0 -1.389845848083496 L 1.0 -1.0459502935409546 L 2.0 -1.0459502935409546 L 2.0 -1.874679446220398 L 3.0 -1.874679446220398 L 3.0 -0.8415325284004211 L 4.0 -0.8415325284004211 L 4.0 -1.8072394132614136 L 5.0 -1.8072394132614136 L 5.0 -0.18836985528469086 L 6.0 -0.18836985528469086 L 6.0 -1.7506518363952637 L 7.0 -1.7506518363952637 L 7.0 -1.2369564771652222 L 8.0 -1.2369564771652222 L 8.0 -1.3810935020446777 L 9.0 -1.3810935020446777 L 9.0 -1.3974287509918213 L 10.0 -1.3974287509918213 L 10.0 -1.7242653369903564 L 11.0 -1.7242653369903564 L 11.0 -1.3872874975204468 L 12.0 -1.3872874975204468 L 12.0 -1.2593145370483398 L 13.0 -1.2593145370483398 L 13.0 -1.8147130012512207 L 14.0 -1.8147130012512207 L 14.0 -1.395669937133789 L 15.0 -1.395669937133789 L 15.0 -0.21278686821460724 L 16.0 -0.21278686821460724 L 16.0 -1.3385826349258423 L 17.0 -1.3385826349258423 L 17.0 -0.02134583704173565 L 18.0 -0.02134583704173565 L 18.0 -1.1525174379348755 L 19.0 -1.1525174379348755 L 19.0 -0.13235895335674286 L 20.0 -0.13235895335674286 L 20.0 -1.0333293676376343 L 21.0 -1.0333293676376343 L 21.0 -1.1160067319869995 L 22.0 -1.1160067319869995 L 22.0 -0.5435988306999207 L 23.0 -0.5435988306999207 L 23.0 -0.10872414708137512 L 24.0 -0.10872414708137512 L 24.0 -1.2195825576782227 L 25.0 -1.2195825576782227" style="vector-effect: non-scaling-stroke;fill:none;" /></g></g></g></g></g></g></g></g></g></g><g style="stroke: black;stroke-width: 1.2000000000000002;" transform="matrix(0.0, -1.0, 1.0, 0.0, 0.0, 0.08)"><g /></g></g><g transform="matrix(1.0, 0.0, 0.0, 1.0, 0.0, 0.16)"><g transform="matrix(1.0, 0.0, 0.0, 1.0, -0.2, -0.03)"><g transform="matrix(1.0, 0.0, 0.0, 1.0, 0.075, 0.0)"><g transform="matrix(1.0, 0.0, 0.0, 1.0, 0.0, 0.03)"><g transform="matrix(0.01, 0.0, 0.0, 0.01, 0.0, 0.0)"><g><g><g transform="matrix(1.0, 0.0, 0.0, 1.0, 12.5, 0.0)"><g transform="matrix(1.0, 0.0, 0.0, 1.0, -20.0, -0.0)"><g><g style="fill: #d3d3d3;stroke: black;stroke-width: 1.2000000000000002;" transform="matrix(1.0, 0.0, 0.0, 1.0, 0.0, -3.0)"><path d="M 0.0 0.0 L 40.0 0.0 L 40.0 6.0 L 0.0 6.0 L 0.0 0.0 Z" style="vector-effect: non-scaling-stroke;" /></g><g transform="matrix(1.0, 0.0, 0.0, 1.0, 1.875, 0.0)"><g><g style="stroke: black;stroke-width: 1.2000000000000002;" transform="matrix(1.0, 0.0, 0.0, 1.0, 0.0, 0.0)"><g /></g><g style="fill: #ffa500;stroke: black;stroke-width: 1.2000000000000002;" transform="matrix(1.0, 0.0, 0.0, 1.0, 1.875, 0.0)"><text style="text-align:center; text-anchor:middle; dominant-baseline:middle;&#10;                      font-family:sans-serif; font-weight: bold;&#10;                      font-size:3px;&#10;                      vector-effect: non-scaling-stroke;" transform="translate(-5e-05, 0)">f(x)</text></g></g></g></g></g></g><g><g><g><g style="stroke: black;stroke-width: 1.2000000000000002;" transform="matrix(1.0, 0.0, 0.0, 1.0, 0.0, 0.0)"><path d="M 0.0 -2.0 L 0.0 2.0" style="vector-effect: non-scaling-stroke;fill:none;" /></g><g style="stroke: #808080;stroke-width: 0.6000000000000001;" transform="matrix(1.0, 0.0, 0.0, 1.0, 0.0, 0.0)"><path d="M 0.0 0.0 L 25.0 0.0" style="vector-effect: non-scaling-stroke;fill:none;" /></g></g><g style="stroke: black;stroke-width: 2.4000000000000004;" transform="matrix(1.0, 0.0, 0.0, 1.0, 0.0, 0.0)"><path d="M 0.0 -0.25895199179649353 L 1.0 -0.25895199179649353 L 1.0 -0.3961268663406372 L 2.0 -0.3961268663406372 L 2.0 -0.8360555171966553 L 3.0 -0.8360555171966553 L 3.0 -0.2181289941072464 L 4.0 -0.2181289941072464 L 4.0 -1.0378823280334473 L 5.0 -1.0378823280334473 L 5.0 -0.2698691189289093 L 6.0 -0.2698691189289093 L 6.0 -1.2211500406265259 L 7.0 -1.2211500406265259 L 7.0 -0.5198540091514587 L 8.0 -0.5198540091514587 L 8.0 -1.1463037729263306 L 9.0 -1.1463037729263306 L 9.0 -0.9165785312652588 L 10.0 -0.9165785312652588 L 10.0 -0.9759625196456909 L 11.0 -0.9759625196456909 L 11.0 -0.560004472732544 L 12.0 -0.560004472732544 L 12.0 -0.676551878452301 L 13.0 -0.676551878452301 L 13.0 -0.9256444573402405 L 14.0 -0.9256444573402405 L 14.0 -1.0790159702301025 L 15.0 -1.0790159702301025 L 15.0 -0.07867823541164398 L 16.0 -0.07867823541164398 L 16.0 -1.513315200805664 L 17.0 -1.513315200805664 L 17.0 -0.5044402480125427 L 18.0 -0.5044402480125427 L 18.0 -1.4229736328125 L 19.0 -1.4229736328125 L 19.0 0.019290290772914886 L 20.0 0.019290290772914886 L 20.0 -1.038536548614502 L 21.0 -1.038536548614502 L 21.0 -0.7073385715484619 L 22.0 -0.7073385715484619 L 22.0 -0.7509342432022095 L 23.0 -0.7509342432022095 L 23.0 -0.27676376700401306 L 24.0 -0.27676376700401306 L 24.0 -0.941731333732605 L 25.0 -0.941731333732605" style="vector-effect: non-scaling-stroke;fill:none;" /></g></g></g></g><g><g><g><g style="stroke: black;stroke-width: 1.2000000000000002;" transform="matrix(1.0, 0.0, 0.0, 1.0, 0.0, 0.0)"><path d="M 0.0 -2.0 L 0.0 2.0" style="vector-effect: non-scaling-stroke;fill:none;" /></g><g style="stroke: #808080;stroke-width: 0.6000000000000001;" transform="matrix(1.0, 0.0, 0.0, 1.0, 0.0, 0.0)"><path d="M 0.0 0.0 L 25.0 0.0" style="vector-effect: non-scaling-stroke;fill:none;" /></g></g><g style="stroke: black;stroke-width: 2.4000000000000004;" transform="matrix(1.0, 0.0, 0.0, 1.0, 0.0, 0.0)"><path d="M 0.0 -0.25895199179649353 L 1.0 -0.25895199179649353 L 1.0 -0.3961268663406372 L 2.0 -0.3961268663406372 L 2.0 -0.8360555171966553 L 3.0 -0.8360555171966553 L 3.0 -0.2181289941072464 L 4.0 -0.2181289941072464 L 4.0 -1.0378823280334473 L 5.0 -1.0378823280334473 L 5.0 -0.2698691189289093 L 6.0 -0.2698691189289093 L 6.0 -1.2211500406265259 L 7.0 -1.2211500406265259 L 7.0 -0.5198540091514587 L 8.0 -0.5198540091514587 L 8.0 -1.1463037729263306 L 9.0 -1.1463037729263306 L 9.0 -0.9165785312652588 L 10.0 -0.9165785312652588 L 10.0 -0.9759625196456909 L 11.0 -0.9759625196456909 L 11.0 -0.560004472732544 L 12.0 -0.560004472732544 L 12.0 -0.676551878452301 L 13.0 -0.676551878452301 L 13.0 -0.9256444573402405 L 14.0 -0.9256444573402405 L 14.0 -1.0790159702301025 L 15.0 -1.0790159702301025 L 15.0 -0.07867823541164398 L 16.0 -0.07867823541164398 L 16.0 -1.513315200805664 L 17.0 -1.513315200805664 L 17.0 -0.5044402480125427 L 18.0 -0.5044402480125427 L 18.0 -1.4229736328125 L 19.0 -1.4229736328125 L 19.0 0.019290290772914886 L 20.0 0.019290290772914886 L 20.0 -1.038536548614502 L 21.0 -1.038536548614502 L 21.0 -0.7073385715484619 L 22.0 -0.7073385715484619 L 22.0 -0.7509342432022095 L 23.0 -0.7509342432022095 L 23.0 -0.27676376700401306 L 24.0 -0.27676376700401306 L 24.0 -0.941731333732605 L 25.0 -0.941731333732605" style="vector-effect: non-scaling-stroke;fill:none;" /></g></g></g></g></g></g></g></g></g></g><g transform="matrix(1.0, 0.0, 0.0, 1.0, -0.125, 0.16)"><g transform="matrix(1.0, 0.0, 0.0, 0.009999999999999995, 0.0, 0.0)"><g transform="matrix(0.01, 0.0, 0.0, 1.0, 0.0, 0.0)"><g><g><g style="fill: #ffffe0;stroke: #ffffe0;stroke-width: 1.2000000000000002;fill-opacity: 0.5;" transform="matrix(1.0, 0.0, 0.0, 1.0, 0.0, 0.0)"><path d="M 0.0 -2.0 L 0.0 2.0" style="vector-effect: non-scaling-stroke;fill:none;" /></g><g style="fill: #ffffe0;stroke: #ffffe0;stroke-width: 1.2000000000000002;fill-opacity: 0.5;" transform="matrix(1.0, 0.0, 0.0, 1.0, 0.0, 0.0)"><path d="M 0.0 -1.2603100538253784 L 1.0 -1.2603100538253784 L 1.0 -1.3974848985671997 L 2.0 -1.3974848985671997 L 2.0 -1.8374135494232178 L 3.0 -1.8374135494232178 L 3.0 -1.2179969549179077 L 4.0 -1.2179969549179077 L 4.0 -2.0 L 5.0 -2.0 L 5.0 -1.2712271213531494 L 6.0 -1.2712271213531494 L 6.0 -2.0 L 7.0 -2.0 L 7.0 -1.521212100982666 L 8.0 -1.521212100982666 L 8.0 -2.0 L 9.0 -2.0 L 9.0 -1.9119760990142822 L 10.0 -1.9119760990142822 L 10.0 -1.9773205518722534 L 11.0 -1.9773205518722534 L 11.0 -1.5613625049591064 L 12.0 -1.5613625049591064 L 12.0 -1.6779098510742188 L 13.0 -1.6779098510742188 L 13.0 -1.9270024299621582 L 14.0 -1.9270024299621582 L 14.0 -2.0 L 15.0 -2.0 L 15.0 -1.078546166419983 L 16.0 -1.078546166419983 L 16.0 -2.0 L 17.0 -2.0 L 17.0 -1.50579833984375 L 18.0 -1.50579833984375 L 18.0 -2.0 L 19.0 -2.0 L 19.0 -0.9805776476860046 L 20.0 -0.9805776476860046 L 20.0 -2.0 L 21.0 -2.0 L 21.0 -1.7027361392974854 L 22.0 -1.7027361392974854 L 22.0 -1.752292275428772 L 23.0 -1.752292275428772 L 23.0 -1.2751415967941284 L 24.0 -1.2751415967941284 L 24.0 -1.9430893659591675 L 25.0 -1.9430893659591675 L 25.0 -0.941731333732605 L 24.0 -0.941731333732605 L 24.0 -0.27676376700401306 L 23.0 -0.27676376700401306 L 23.0 -0.7509342432022095 L 22.0 -0.7509342432022095 L 22.0 -0.7073385715484619 L 21.0 -0.7073385715484619 L 21.0 -1.038536548614502 L 20.0 -1.038536548614502 L 20.0 0.019290290772914886 L 19.0 0.019290290772914886 L 19.0 -1.4229736328125 L 18.0 -1.4229736328125 L 18.0 -0.5044402480125427 L 17.0 -0.5044402480125427 L 17.0 -1.513315200805664 L 16.0 -1.513315200805664 L 16.0 -0.07867823541164398 L 15.0 -0.07867823541164398 L 15.0 -1.0790159702301025 L 14.0 -1.0790159702301025 L 14.0 -0.9256444573402405 L 13.0 -0.9256444573402405 L 13.0 -0.676551878452301 L 12.0 -0.676551878452301 L 12.0 -0.560004472732544 L 11.0 -0.560004472732544 L 11.0 -0.9759625196456909 L 10.0 -0.9759625196456909 L 10.0 -0.9165785312652588 L 9.0 -0.9165785312652588 L 9.0 -1.1463037729263306 L 8.0 -1.1463037729263306 L 8.0 -0.5198540091514587 L 7.0 -0.5198540091514587 L 7.0 -1.2211500406265259 L 6.0 -1.2211500406265259 L 6.0 -0.2698691189289093 L 5.0 -0.2698691189289093 L 5.0 -1.0378823280334473 L 4.0 -1.0378823280334473 L 4.0 -0.2181289941072464 L 3.0 -0.2181289941072464 L 3.0 -0.8360555171966553 L 2.0 -0.8360555171966553 L 2.0 -0.3961268663406372 L 1.0 -0.3961268663406372 L 1.0 -0.25895199179649353 L 0.0 -0.25895199179649353 Z" style="vector-effect: non-scaling-stroke;" /></g></g><g style="stroke: black;stroke-width: 1.2000000000000002;" transform="matrix(1.0, 0.0, 0.0, 1.0, 0.0, 0.0)"><path d="M 0.0 -0.25895199179649353 L 1.0 -0.25895199179649353 L 1.0 -0.3961268663406372 L 2.0 -0.3961268663406372 L 2.0 -0.8360555171966553 L 3.0 -0.8360555171966553 L 3.0 -0.2181289941072464 L 4.0 -0.2181289941072464 L 4.0 -1.0378823280334473 L 5.0 -1.0378823280334473 L 5.0 -0.2698691189289093 L 6.0 -0.2698691189289093 L 6.0 -1.2211500406265259 L 7.0 -1.2211500406265259 L 7.0 -0.5198540091514587 L 8.0 -0.5198540091514587 L 8.0 -1.1463037729263306 L 9.0 -1.1463037729263306 L 9.0 -0.9165785312652588 L 10.0 -0.9165785312652588 L 10.0 -0.9759625196456909 L 11.0 -0.9759625196456909 L 11.0 -0.560004472732544 L 12.0 -0.560004472732544 L 12.0 -0.676551878452301 L 13.0 -0.676551878452301 L 13.0 -0.9256444573402405 L 14.0 -0.9256444573402405 L 14.0 -1.0790159702301025 L 15.0 -1.0790159702301025 L 15.0 -0.07867823541164398 L 16.0 -0.07867823541164398 L 16.0 -1.513315200805664 L 17.0 -1.513315200805664 L 17.0 -0.5044402480125427 L 18.0 -0.5044402480125427 L 18.0 -1.4229736328125 L 19.0 -1.4229736328125 L 19.0 0.019290290772914886 L 20.0 0.019290290772914886 L 20.0 -1.038536548614502 L 21.0 -1.038536548614502 L 21.0 -0.7073385715484619 L 22.0 -0.7073385715484619 L 22.0 -0.7509342432022095 L 23.0 -0.7509342432022095 L 23.0 -0.27676376700401306 L 24.0 -0.27676376700401306 L 24.0 -0.941731333732605 L 25.0 -0.941731333732605" style="vector-effect: non-scaling-stroke;fill:none;" /></g></g></g></g></g></g><g transform="matrix(1.0, 0.0, 0.0, 1.0, -0.125, 0.16)"><g transform="matrix(1.0, 0.0, 0.0, 0.009999999999999995, 0.0, 0.0)"><g transform="matrix(0.01, 0.0, 0.0, 1.0, 0.0, 0.0)"><g><g><g style="fill: #add8e6;stroke: #add8e6;stroke-width: 1.2000000000000002;fill-opacity: 0.5;" transform="matrix(1.0, 0.0, 0.0, 1.0, 0.0, 0.0)"><path d="M 0.0 -2.0 L 0.0 2.0" style="vector-effect: non-scaling-stroke;fill:none;" /></g><g style="fill: #add8e6;stroke: #add8e6;stroke-width: 1.2000000000000002;fill-opacity: 0.5;" transform="matrix(1.0, 0.0, 0.0, 1.0, 0.0, 0.0)"><path d="M 0.0 -1.2603100538253784 L 1.0 -1.2603100538253784 L 1.0 -1.3974848985671997 L 2.0 -1.3974848985671997 L 2.0 -1.8374135494232178 L 3.0 -1.8374135494232178 L 3.0 -1.2194870710372925 L 4.0 -1.2194870710372925 L 4.0 -2.0 L 5.0 -2.0 L 5.0 -1.2712271213531494 L 6.0 -1.2712271213531494 L 6.0 -2.0 L 7.0 -2.0 L 7.0 -1.521212100982666 L 8.0 -1.521212100982666 L 8.0 -2.0 L 9.0 -2.0 L 9.0 -1.9179365634918213 L 10.0 -1.9179365634918213 L 10.0 -1.9773205518722534 L 11.0 -1.9773205518722534 L 11.0 -1.5613625049591064 L 12.0 -1.5613625049591064 L 12.0 -1.6779098510742188 L 13.0 -1.6779098510742188 L 13.0 -1.9270024299621582 L 14.0 -1.9270024299621582 L 14.0 -2.0 L 15.0 -2.0 L 15.0 -1.078546166419983 L 16.0 -1.078546166419983 L 16.0 -2.0 L 17.0 -2.0 L 17.0 -1.50579833984375 L 18.0 -1.50579833984375 L 18.0 -2.0 L 19.0 -2.0 L 19.0 -0.9805776476860046 L 20.0 -0.9805776476860046 L 20.0 -2.0 L 21.0 -2.0 L 21.0 -1.7086966037750244 L 22.0 -1.7086966037750244 L 22.0 -1.752292275428772 L 23.0 -1.752292275428772 L 23.0 -1.2751415967941284 L 24.0 -1.2751415967941284 L 24.0 -1.9430893659591675 L 25.0 -1.9430893659591675 L 25.0 -0.941731333732605 L 24.0 -0.941731333732605 L 24.0 -0.27676376700401306 L 23.0 -0.27676376700401306 L 23.0 -0.7509342432022095 L 22.0 -0.7509342432022095 L 22.0 -0.7073385715484619 L 21.0 -0.7073385715484619 L 21.0 -1.038536548614502 L 20.0 -1.038536548614502 L 20.0 0.019290290772914886 L 19.0 0.019290290772914886 L 19.0 -1.4229736328125 L 18.0 -1.4229736328125 L 18.0 -0.5044402480125427 L 17.0 -0.5044402480125427 L 17.0 -1.513315200805664 L 16.0 -1.513315200805664 L 16.0 -0.07867823541164398 L 15.0 -0.07867823541164398 L 15.0 -1.0790159702301025 L 14.0 -1.0790159702301025 L 14.0 -0.9256444573402405 L 13.0 -0.9256444573402405 L 13.0 -0.676551878452301 L 12.0 -0.676551878452301 L 12.0 -0.560004472732544 L 11.0 -0.560004472732544 L 11.0 -0.9759625196456909 L 10.0 -0.9759625196456909 L 10.0 -0.9165785312652588 L 9.0 -0.9165785312652588 L 9.0 -1.1463037729263306 L 8.0 -1.1463037729263306 L 8.0 -0.5198540091514587 L 7.0 -0.5198540091514587 L 7.0 -1.2211500406265259 L 6.0 -1.2211500406265259 L 6.0 -0.2698691189289093 L 5.0 -0.2698691189289093 L 5.0 -1.0378823280334473 L 4.0 -1.0378823280334473 L 4.0 -0.2181289941072464 L 3.0 -0.2181289941072464 L 3.0 -0.8360555171966553 L 2.0 -0.8360555171966553 L 2.0 -0.3961268663406372 L 1.0 -0.3961268663406372 L 1.0 -0.25895199179649353 L 0.0 -0.25895199179649353 Z" style="vector-effect: non-scaling-stroke;" /></g></g><g style="stroke: black;stroke-width: 1.2000000000000002;" transform="matrix(1.0, 0.0, 0.0, 1.0, 0.0, 0.0)"><path d="M 0.0 -0.25895199179649353 L 1.0 -0.25895199179649353 L 1.0 -0.3961268663406372 L 2.0 -0.3961268663406372 L 2.0 -0.8360555171966553 L 3.0 -0.8360555171966553 L 3.0 -0.2181289941072464 L 4.0 -0.2181289941072464 L 4.0 -1.0378823280334473 L 5.0 -1.0378823280334473 L 5.0 -0.2698691189289093 L 6.0 -0.2698691189289093 L 6.0 -1.2211500406265259 L 7.0 -1.2211500406265259 L 7.0 -0.5198540091514587 L 8.0 -0.5198540091514587 L 8.0 -1.1463037729263306 L 9.0 -1.1463037729263306 L 9.0 -0.9165785312652588 L 10.0 -0.9165785312652588 L 10.0 -0.9759625196456909 L 11.0 -0.9759625196456909 L 11.0 -0.560004472732544 L 12.0 -0.560004472732544 L 12.0 -0.676551878452301 L 13.0 -0.676551878452301 L 13.0 -0.9256444573402405 L 14.0 -0.9256444573402405 L 14.0 -1.0790159702301025 L 15.0 -1.0790159702301025 L 15.0 -0.07867823541164398 L 16.0 -0.07867823541164398 L 16.0 -1.513315200805664 L 17.0 -1.513315200805664 L 17.0 -0.5044402480125427 L 18.0 -0.5044402480125427 L 18.0 -1.4229736328125 L 19.0 -1.4229736328125 L 19.0 0.019290290772914886 L 20.0 0.019290290772914886 L 20.0 -1.038536548614502 L 21.0 -1.038536548614502 L 21.0 -0.7073385715484619 L 22.0 -0.7073385715484619 L 22.0 -0.7509342432022095 L 23.0 -0.7509342432022095 L 23.0 -0.27676376700401306 L 24.0 -0.27676376700401306 L 24.0 -0.941731333732605 L 25.0 -0.941731333732605" style="vector-effect: non-scaling-stroke;fill:none;" /></g></g></g></g></g></g><g transform="matrix(1.0, 0.0, 0.0, 1.0, -0.125, 0.16)"><g transform="matrix(1.0, 0.0, 0.0, 0.009999999999999995, 0.0, 0.0)"><g transform="matrix(0.01, 0.0, 0.0, 1.0, 0.0, 0.0)"><g><g><g style="fill: #ff8c00;stroke: #ff8c00;stroke-width: 1.2000000000000002;fill-opacity: 0.5;" transform="matrix(1.0, 0.0, 0.0, 1.0, 0.0, 0.0)"><path d="M 0.0 -2.0 L 0.0 2.0" style="vector-effect: non-scaling-stroke;fill:none;" /></g><g style="fill: #ff8c00;stroke: #ff8c00;stroke-width: 1.2000000000000002;fill-opacity: 0.5;" transform="matrix(1.0, 0.0, 0.0, 1.0, 0.0, 0.0)"><path d="M 0.0 -0.25895199179649353 L 1.0 -0.25895199179649353 L 1.0 -0.3961268663406372 L 2.0 -0.3961268663406372 L 2.0 -0.8360555171966553 L 3.0 -0.8360555171966553 L 3.0 -0.2181289941072464 L 4.0 -0.2181289941072464 L 4.0 -1.0378823280334473 L 5.0 -1.0378823280334473 L 5.0 -0.2698691189289093 L 6.0 -0.2698691189289093 L 6.0 -1.2211500406265259 L 7.0 -1.2211500406265259 L 7.0 -0.5198540091514587 L 8.0 -0.5198540091514587 L 8.0 -1.1463037729263306 L 9.0 -1.1463037729263306 L 9.0 -0.9165785312652588 L 10.0 -0.9165785312652588 L 10.0 -0.9759625196456909 L 11.0 -0.9759625196456909 L 11.0 -0.560004472732544 L 12.0 -0.560004472732544 L 12.0 -0.676551878452301 L 13.0 -0.676551878452301 L 13.0 -0.9256444573402405 L 14.0 -0.9256444573402405 L 14.0 -1.0790159702301025 L 15.0 -1.0790159702301025 L 15.0 -0.07867823541164398 L 16.0 -0.07867823541164398 L 16.0 -1.513315200805664 L 17.0 -1.513315200805664 L 17.0 -0.5044402480125427 L 18.0 -0.5044402480125427 L 18.0 -1.4229736328125 L 19.0 -1.4229736328125 L 19.0 0.019290290772914886 L 20.0 0.019290290772914886 L 20.0 -1.038536548614502 L 21.0 -1.038536548614502 L 21.0 -0.7073385715484619 L 22.0 -0.7073385715484619 L 22.0 -0.7509342432022095 L 23.0 -0.7509342432022095 L 23.0 -0.27676376700401306 L 24.0 -0.27676376700401306 L 24.0 -0.941731333732605 L 25.0 -0.941731333732605 L 25.0 -0.941731333732605 L 24.0 -0.941731333732605 L 24.0 -0.27676376700401306 L 23.0 -0.27676376700401306 L 23.0 -0.7509342432022095 L 22.0 -0.7509342432022095 L 22.0 -0.7073385715484619 L 21.0 -0.7073385715484619 L 21.0 -1.038536548614502 L 20.0 -1.038536548614502 L 20.0 0.019290290772914886 L 19.0 0.019290290772914886 L 19.0 -1.4229736328125 L 18.0 -1.4229736328125 L 18.0 -0.5044402480125427 L 17.0 -0.5044402480125427 L 17.0 -1.513315200805664 L 16.0 -1.513315200805664 L 16.0 -0.07867823541164398 L 15.0 -0.07867823541164398 L 15.0 -1.0790159702301025 L 14.0 -1.0790159702301025 L 14.0 -0.9256444573402405 L 13.0 -0.9256444573402405 L 13.0 -0.676551878452301 L 12.0 -0.676551878452301 L 12.0 -0.560004472732544 L 11.0 -0.560004472732544 L 11.0 -0.9759625196456909 L 10.0 -0.9759625196456909 L 10.0 -0.9165785312652588 L 9.0 -0.9165785312652588 L 9.0 -1.1463037729263306 L 8.0 -1.1463037729263306 L 8.0 -0.5198540091514587 L 7.0 -0.5198540091514587 L 7.0 -1.2211500406265259 L 6.0 -1.2211500406265259 L 6.0 -0.2698691189289093 L 5.0 -0.2698691189289093 L 5.0 -1.0378823280334473 L 4.0 -1.0378823280334473 L 4.0 -0.2181289941072464 L 3.0 -0.2181289941072464 L 3.0 -0.8360555171966553 L 2.0 -0.8360555171966553 L 2.0 -0.3961268663406372 L 1.0 -0.3961268663406372 L 1.0 -0.25895199179649353 L 0.0 -0.25895199179649353 Z" style="vector-effect: non-scaling-stroke;" /></g></g><g style="stroke: black;stroke-width: 1.2000000000000002;" transform="matrix(1.0, 0.0, 0.0, 1.0, 0.0, 0.0)"><path d="M 0.0 -0.25895199179649353 L 1.0 -0.25895199179649353 L 1.0 -0.3961268663406372 L 2.0 -0.3961268663406372 L 2.0 -0.8360555171966553 L 3.0 -0.8360555171966553 L 3.0 -0.2181289941072464 L 4.0 -0.2181289941072464 L 4.0 -1.0378823280334473 L 5.0 -1.0378823280334473 L 5.0 -0.2698691189289093 L 6.0 -0.2698691189289093 L 6.0 -1.2211500406265259 L 7.0 -1.2211500406265259 L 7.0 -0.5198540091514587 L 8.0 -0.5198540091514587 L 8.0 -1.1463037729263306 L 9.0 -1.1463037729263306 L 9.0 -0.9165785312652588 L 10.0 -0.9165785312652588 L 10.0 -0.9759625196456909 L 11.0 -0.9759625196456909 L 11.0 -0.560004472732544 L 12.0 -0.560004472732544 L 12.0 -0.676551878452301 L 13.0 -0.676551878452301 L 13.0 -0.9256444573402405 L 14.0 -0.9256444573402405 L 14.0 -1.0790159702301025 L 15.0 -1.0790159702301025 L 15.0 -0.07867823541164398 L 16.0 -0.07867823541164398 L 16.0 -1.513315200805664 L 17.0 -1.513315200805664 L 17.0 -0.5044402480125427 L 18.0 -0.5044402480125427 L 18.0 -1.4229736328125 L 19.0 -1.4229736328125 L 19.0 0.019290290772914886 L 20.0 0.019290290772914886 L 20.0 -1.038536548614502 L 21.0 -1.038536548614502 L 21.0 -0.7073385715484619 L 22.0 -0.7073385715484619 L 22.0 -0.7509342432022095 L 23.0 -0.7509342432022095 L 23.0 -0.27676376700401306 L 24.0 -0.27676376700401306 L 24.0 -0.941731333732605 L 25.0 -0.941731333732605" style="vector-effect: non-scaling-stroke;fill:none;" /></g></g></g></g></g></g><g transform="matrix(1.0, 0.0, 0.0, 1.0, -0.125, 0.16)"><g transform="matrix(1.0, 0.0, 0.0, 0.009999999999999995, 0.0, 0.0)"><g transform="matrix(0.01, 0.0, 0.0, 1.0, 0.0, 0.0)"><g><g><g style="fill: #0000ff;stroke: #0000ff;stroke-width: 1.2000000000000002;fill-opacity: 0.5;" transform="matrix(1.0, 0.0, 0.0, 1.0, 0.0, 0.0)"><path d="M 0.0 -2.0 L 0.0 2.0" style="vector-effect: non-scaling-stroke;fill:none;" /></g><g style="fill: #0000ff;stroke: #0000ff;stroke-width: 1.2000000000000002;fill-opacity: 0.5;" transform="matrix(1.0, 0.0, 0.0, 1.0, 0.0, 0.0)"><path d="M 0.0 -0.25895199179649353 L 1.0 -0.25895199179649353 L 1.0 -0.3961268663406372 L 2.0 -0.3961268663406372 L 2.0 -0.8360555171966553 L 3.0 -0.8360555171966553 L 3.0 -0.2181289941072464 L 4.0 -0.2181289941072464 L 4.0 -1.0378823280334473 L 5.0 -1.0378823280334473 L 5.0 -0.2698691189289093 L 6.0 -0.2698691189289093 L 6.0 -1.2211500406265259 L 7.0 -1.2211500406265259 L 7.0 -0.5198540091514587 L 8.0 -0.5198540091514587 L 8.0 -1.1463037729263306 L 9.0 -1.1463037729263306 L 9.0 -0.9165785312652588 L 10.0 -0.9165785312652588 L 10.0 -0.9759625196456909 L 11.0 -0.9759625196456909 L 11.0 -0.560004472732544 L 12.0 -0.560004472732544 L 12.0 -0.676551878452301 L 13.0 -0.676551878452301 L 13.0 -0.9256444573402405 L 14.0 -0.9256444573402405 L 14.0 -1.0790159702301025 L 15.0 -1.0790159702301025 L 15.0 -0.07867823541164398 L 16.0 -0.07867823541164398 L 16.0 -1.513315200805664 L 17.0 -1.513315200805664 L 17.0 -0.5044402480125427 L 18.0 -0.5044402480125427 L 18.0 -1.4229736328125 L 19.0 -1.4229736328125 L 19.0 0.019290290772914886 L 20.0 0.019290290772914886 L 20.0 -1.038536548614502 L 21.0 -1.038536548614502 L 21.0 -0.7073385715484619 L 22.0 -0.7073385715484619 L 22.0 -0.7509342432022095 L 23.0 -0.7509342432022095 L 23.0 -0.27676376700401306 L 24.0 -0.27676376700401306 L 24.0 -0.941731333732605 L 25.0 -0.941731333732605 L 25.0 -0.941731333732605 L 24.0 -0.941731333732605 L 24.0 -0.27676376700401306 L 23.0 -0.27676376700401306 L 23.0 -0.7509342432022095 L 22.0 -0.7509342432022095 L 22.0 -0.7073385715484619 L 21.0 -0.7073385715484619 L 21.0 -1.038536548614502 L 20.0 -1.038536548614502 L 20.0 0.019290290772914886 L 19.0 0.019290290772914886 L 19.0 -1.4229736328125 L 18.0 -1.4229736328125 L 18.0 -0.5044402480125427 L 17.0 -0.5044402480125427 L 17.0 -1.513315200805664 L 16.0 -1.513315200805664 L 16.0 -0.07867823541164398 L 15.0 -0.07867823541164398 L 15.0 -1.0790159702301025 L 14.0 -1.0790159702301025 L 14.0 -0.9256444573402405 L 13.0 -0.9256444573402405 L 13.0 -0.676551878452301 L 12.0 -0.676551878452301 L 12.0 -0.560004472732544 L 11.0 -0.560004472732544 L 11.0 -0.9759625196456909 L 10.0 -0.9759625196456909 L 10.0 -0.9165785312652588 L 9.0 -0.9165785312652588 L 9.0 -1.1463037729263306 L 8.0 -1.1463037729263306 L 8.0 -0.5198540091514587 L 7.0 -0.5198540091514587 L 7.0 -1.2211500406265259 L 6.0 -1.2211500406265259 L 6.0 -0.2698691189289093 L 5.0 -0.2698691189289093 L 5.0 -1.0378823280334473 L 4.0 -1.0378823280334473 L 4.0 -0.2181289941072464 L 3.0 -0.2181289941072464 L 3.0 -0.8360555171966553 L 2.0 -0.8360555171966553 L 2.0 -0.3961268663406372 L 1.0 -0.3961268663406372 L 1.0 -0.25895199179649353 L 0.0 -0.25895199179649353 Z" style="vector-effect: non-scaling-stroke;" /></g></g><g style="stroke: black;stroke-width: 1.2000000000000002;" transform="matrix(1.0, 0.0, 0.0, 1.0, 0.0, 0.0)"><path d="M 0.0 -0.25895199179649353 L 1.0 -0.25895199179649353 L 1.0 -0.3961268663406372 L 2.0 -0.3961268663406372 L 2.0 -0.8360555171966553 L 3.0 -0.8360555171966553 L 3.0 -0.2181289941072464 L 4.0 -0.2181289941072464 L 4.0 -1.0378823280334473 L 5.0 -1.0378823280334473 L 5.0 -0.2698691189289093 L 6.0 -0.2698691189289093 L 6.0 -1.2211500406265259 L 7.0 -1.2211500406265259 L 7.0 -0.5198540091514587 L 8.0 -0.5198540091514587 L 8.0 -1.1463037729263306 L 9.0 -1.1463037729263306 L 9.0 -0.9165785312652588 L 10.0 -0.9165785312652588 L 10.0 -0.9759625196456909 L 11.0 -0.9759625196456909 L 11.0 -0.560004472732544 L 12.0 -0.560004472732544 L 12.0 -0.676551878452301 L 13.0 -0.676551878452301 L 13.0 -0.9256444573402405 L 14.0 -0.9256444573402405 L 14.0 -1.0790159702301025 L 15.0 -1.0790159702301025 L 15.0 -0.07867823541164398 L 16.0 -0.07867823541164398 L 16.0 -1.513315200805664 L 17.0 -1.513315200805664 L 17.0 -0.5044402480125427 L 18.0 -0.5044402480125427 L 18.0 -1.4229736328125 L 19.0 -1.4229736328125 L 19.0 0.019290290772914886 L 20.0 0.019290290772914886 L 20.0 -1.038536548614502 L 21.0 -1.038536548614502 L 21.0 -0.7073385715484619 L 22.0 -0.7073385715484619 L 22.0 -0.7509342432022095 L 23.0 -0.7509342432022095 L 23.0 -0.27676376700401306 L 24.0 -0.27676376700401306 L 24.0 -0.941731333732605 L 25.0 -0.941731333732605" style="vector-effect: non-scaling-stroke;fill:none;" /></g></g></g></g></g></g></g></g><g><g><g><g><g><g><g transform="matrix(1.0, 0.0, 0.0, 1.0, -0.41500000000000004, -0.03)"><g><g><g transform="matrix(1.0, 0.0, 0.0, 1.0, 0.075, 0.0)"><g transform="matrix(1.0, 0.0, 0.0, 1.0, 0.0, 0.03)"><g transform="matrix(0.01, 0.0, 0.0, 0.01, 0.0, 0.0)"><g><g><g transform="matrix(1.0, 0.0, 0.0, 1.0, 12.5, 0.0)"><g transform="matrix(1.0, 0.0, 0.0, 1.0, -20.0, -0.0)"><g><g style="fill: #d3d3d3;stroke: black;stroke-width: 1.2000000000000002;" transform="matrix(1.0, 0.0, 0.0, 1.0, 0.0, -3.0)"><path d="M 0.0 0.0 L 40.0 0.0 L 40.0 6.0 L 0.0 6.0 L 0.0 0.0 Z" style="vector-effect: non-scaling-stroke;" /></g><g transform="matrix(1.0, 0.0, 0.0, 1.0, 1.875, 0.0)"><g><g style="stroke: black;stroke-width: 1.2000000000000002;" transform="matrix(1.0, 0.0, 0.0, 1.0, 0.0, 0.0)"><g /></g><g style="fill: #ffa500;stroke: black;stroke-width: 1.2000000000000002;" transform="matrix(1.0, 0.0, 0.0, 1.0, 1.875, 0.0)"><text style="text-align:center; text-anchor:middle; dominant-baseline:middle;&#10;                      font-family:sans-serif; font-weight: bold;&#10;                      font-size:3px;&#10;                      vector-effect: non-scaling-stroke;" transform="translate(-5e-05, 0)">x</text></g></g></g></g></g></g><g><g><g><g><g style="stroke: black;stroke-width: 1.2000000000000002;" transform="matrix(1.0, 0.0, 0.0, 1.0, 0.0, 0.0)"><path d="M 0.0 -2.0 L 0.0 2.0" style="vector-effect: non-scaling-stroke;fill:none;" /></g><g style="stroke: #808080;stroke-width: 0.6000000000000001;" transform="matrix(1.0, 0.0, 0.0, 1.0, 0.0, 0.0)"><path d="M 0.0 0.0 L 25.0 0.0" style="vector-effect: non-scaling-stroke;fill:none;" /></g></g><g style="stroke: black;stroke-width: 2.4000000000000004;" transform="matrix(1.0, 0.0, 0.0, 1.0, 0.0, 0.0)"><path d="M 0.0 0.871941864490509 L 1.0 0.871941864490509 L 1.0 0.2536965608596802 L 2.0 0.2536965608596802 L 2.0 0.20256835222244263 L 3.0 0.20256835222244263 L 3.0 0.40527454018592834 L 4.0 0.40527454018592834 L 4.0 -0.26852527260780334 L 5.0 -0.26852527260780334 L 5.0 -0.35136839747428894 L 6.0 -0.35136839747428894 L 6.0 -0.6916482448577881 L 7.0 -0.6916482448577881 L 7.0 0.1972484141588211 L 8.0 0.1972484141588211 L 8.0 -0.9115141034126282 L 9.0 -0.9115141034126282 L 9.0 -0.4357282519340515 L 10.0 -0.4357282519340515 L 10.0 -0.227659672498703 L 11.0 -0.227659672498703 L 11.0 0.2672785520553589 L 12.0 0.2672785520553589 L 12.0 -0.09378920495510101 L 13.0 -0.09378920495510101 L 13.0 -0.03657596930861473 L 14.0 -0.03657596930861473 L 14.0 -0.7623620629310608 L 15.0 -0.7623620629310608 L 15.0 0.05543040484189987 L 16.0 0.05543040484189987 L 16.0 -1.6880478858947754 L 17.0 -1.6880478858947754 L 17.0 -0.9875346422195435 L 18.0 -0.9875346422195435 L 18.0 -1.693429946899414 L 19.0 -1.693429946899414 L 19.0 0.17093953490257263 L 20.0 0.17093953490257263 L 20.0 -1.04374361038208 L 21.0 -1.04374361038208 L 21.0 -0.29867035150527954 L 22.0 -0.29867035150527954 L 22.0 -0.9582696557044983 L 23.0 -0.9582696557044983 L 23.0 -0.444803386926651 L 24.0 -0.444803386926651 L 24.0 -0.6638801097869873 L 25.0 -0.6638801097869873" style="vector-effect: non-scaling-stroke;fill:none;" /></g></g><g style="stroke: black;stroke-width: 1.2000000000000002;" transform="matrix(1.0, 0.0, 0.0, 1.0, 0.0, 0.0)"><path d="M 0.0 -2.0 L 0.0 2.0" style="vector-effect: non-scaling-stroke;fill:none;" /></g></g></g></g><g><g><g><g><g style="stroke: black;stroke-width: 1.2000000000000002;" transform="matrix(1.0, 0.0, 0.0, 1.0, 0.0, 0.0)"><path d="M 0.0 -2.0 L 0.0 2.0" style="vector-effect: non-scaling-stroke;fill:none;" /></g><g style="stroke: #808080;stroke-width: 0.6000000000000001;" transform="matrix(1.0, 0.0, 0.0, 1.0, 0.0, 0.0)"><path d="M 0.0 0.0 L 25.0 0.0" style="vector-effect: non-scaling-stroke;fill:none;" /></g></g><g style="stroke: black;stroke-width: 2.4000000000000004;" transform="matrix(1.0, 0.0, 0.0, 1.0, 0.0, 0.0)"><path d="M 0.0 0.871941864490509 L 1.0 0.871941864490509 L 1.0 0.2536965608596802 L 2.0 0.2536965608596802 L 2.0 0.20256835222244263 L 3.0 0.20256835222244263 L 3.0 0.40527454018592834 L 4.0 0.40527454018592834 L 4.0 -0.26852527260780334 L 5.0 -0.26852527260780334 L 5.0 -0.35136839747428894 L 6.0 -0.35136839747428894 L 6.0 -0.6916482448577881 L 7.0 -0.6916482448577881 L 7.0 0.1972484141588211 L 8.0 0.1972484141588211 L 8.0 -0.9115141034126282 L 9.0 -0.9115141034126282 L 9.0 -0.4357282519340515 L 10.0 -0.4357282519340515 L 10.0 -0.227659672498703 L 11.0 -0.227659672498703 L 11.0 0.2672785520553589 L 12.0 0.2672785520553589 L 12.0 -0.09378920495510101 L 13.0 -0.09378920495510101 L 13.0 -0.03657596930861473 L 14.0 -0.03657596930861473 L 14.0 -0.7623620629310608 L 15.0 -0.7623620629310608 L 15.0 0.05543040484189987 L 16.0 0.05543040484189987 L 16.0 -1.6880478858947754 L 17.0 -1.6880478858947754 L 17.0 -0.9875346422195435 L 18.0 -0.9875346422195435 L 18.0 -1.693429946899414 L 19.0 -1.693429946899414 L 19.0 0.17093953490257263 L 20.0 0.17093953490257263 L 20.0 -1.04374361038208 L 21.0 -1.04374361038208 L 21.0 -0.29867035150527954 L 22.0 -0.29867035150527954 L 22.0 -0.9582696557044983 L 23.0 -0.9582696557044983 L 23.0 -0.444803386926651 L 24.0 -0.444803386926651 L 24.0 -0.6638801097869873 L 25.0 -0.6638801097869873" style="vector-effect: non-scaling-stroke;fill:none;" /></g></g><g style="stroke: black;stroke-width: 1.2000000000000002;" transform="matrix(1.0, 0.0, 0.0, 1.0, 0.0, 0.0)"><path d="M 0.0 -2.0 L 0.0 2.0" style="vector-effect: non-scaling-stroke;fill:none;" /></g></g></g></g></g></g></g><g style="stroke: black;stroke-width: 1.2000000000000002;" transform="matrix(1.0, 0.0, 0.0, 1.0, 0.41500000000000004, 0.0)"><g /></g></g><g transform="matrix(1.0, 0.0, 0.0, 1.0, 0.43000000000000005, 0.0)"><g transform="matrix(1.0, 0.0, 0.0, 1.0, 0.075, 0.0)"><g transform="matrix(1.0, 0.0, 0.0, 1.0, 0.0, 0.03)"><g transform="matrix(0.01, 0.0, 0.0, 0.01, 0.0, 0.0)"><g><g><g transform="matrix(1.0, 0.0, 0.0, 1.0, 12.5, 0.0)"><g transform="matrix(1.0, 0.0, 0.0, 1.0, -20.0, -0.0)"><g><g style="fill: #d3d3d3;stroke: black;stroke-width: 1.2000000000000002;" transform="matrix(1.0, 0.0, 0.0, 1.0, 0.0, -3.0)"><path d="M 0.0 0.0 L 40.0 0.0 L 40.0 6.0 L 0.0 6.0 L 0.0 0.0 Z" style="vector-effect: non-scaling-stroke;" /></g><g transform="matrix(1.0, 0.0, 0.0, 1.0, 1.875, 0.0)"><g><g style="stroke: black;stroke-width: 1.2000000000000002;" transform="matrix(1.0, 0.0, 0.0, 1.0, 0.0, 0.0)"><g /></g><g style="fill: #ffa500;stroke: black;stroke-width: 1.2000000000000002;" transform="matrix(1.0, 0.0, 0.0, 1.0, 1.875, 0.0)"><text style="text-align:center; text-anchor:middle; dominant-baseline:middle;&#10;                      font-family:sans-serif; font-weight: bold;&#10;                      font-size:3px;&#10;                      vector-effect: non-scaling-stroke;" transform="translate(-5e-05, 0)">y</text></g></g></g></g></g></g><g><g><g><g style="stroke: black;stroke-width: 1.2000000000000002;" transform="matrix(1.0, 0.0, 0.0, 1.0, 0.0, 0.0)"><path d="M 0.0 -2.0 L 0.0 2.0" style="vector-effect: non-scaling-stroke;fill:none;" /></g><g style="stroke: #808080;stroke-width: 0.6000000000000001;" transform="matrix(1.0, 0.0, 0.0, 1.0, 0.0, 0.0)"><path d="M 0.0 0.0 L 25.0 0.0" style="vector-effect: non-scaling-stroke;fill:none;" /></g></g><g style="stroke: black;stroke-width: 2.4000000000000004;" transform="matrix(1.0, 0.0, 0.0, 1.0, 0.0, 0.0)"><path d="M 0.0 -1.389845848083496 L 1.0 -1.389845848083496 L 1.0 -1.0459502935409546 L 2.0 -1.0459502935409546 L 2.0 -1.874679446220398 L 3.0 -1.874679446220398 L 3.0 -0.8415325284004211 L 4.0 -0.8415325284004211 L 4.0 -1.8072394132614136 L 5.0 -1.8072394132614136 L 5.0 -0.18836985528469086 L 6.0 -0.18836985528469086 L 6.0 -1.7506518363952637 L 7.0 -1.7506518363952637 L 7.0 -1.2369564771652222 L 8.0 -1.2369564771652222 L 8.0 -1.3810935020446777 L 9.0 -1.3810935020446777 L 9.0 -1.3974287509918213 L 10.0 -1.3974287509918213 L 10.0 -1.7242653369903564 L 11.0 -1.7242653369903564 L 11.0 -1.3872874975204468 L 12.0 -1.3872874975204468 L 12.0 -1.2593145370483398 L 13.0 -1.2593145370483398 L 13.0 -1.8147130012512207 L 14.0 -1.8147130012512207 L 14.0 -1.395669937133789 L 15.0 -1.395669937133789 L 15.0 -0.21278686821460724 L 16.0 -0.21278686821460724 L 16.0 -1.3385826349258423 L 17.0 -1.3385826349258423 L 17.0 -0.02134583704173565 L 18.0 -0.02134583704173565 L 18.0 -1.1525174379348755 L 19.0 -1.1525174379348755 L 19.0 -0.13235895335674286 L 20.0 -0.13235895335674286 L 20.0 -1.0333293676376343 L 21.0 -1.0333293676376343 L 21.0 -1.1160067319869995 L 22.0 -1.1160067319869995 L 22.0 -0.5435988306999207 L 23.0 -0.5435988306999207 L 23.0 -0.10872414708137512 L 24.0 -0.10872414708137512 L 24.0 -1.2195825576782227 L 25.0 -1.2195825576782227" style="vector-effect: non-scaling-stroke;fill:none;" /></g></g></g></g><g><g><g><g style="stroke: black;stroke-width: 1.2000000000000002;" transform="matrix(1.0, 0.0, 0.0, 1.0, 0.0, 0.0)"><path d="M 0.0 -2.0 L 0.0 2.0" style="vector-effect: non-scaling-stroke;fill:none;" /></g><g style="stroke: #808080;stroke-width: 0.6000000000000001;" transform="matrix(1.0, 0.0, 0.0, 1.0, 0.0, 0.0)"><path d="M 0.0 0.0 L 25.0 0.0" style="vector-effect: non-scaling-stroke;fill:none;" /></g></g><g style="stroke: black;stroke-width: 2.4000000000000004;" transform="matrix(1.0, 0.0, 0.0, 1.0, 0.0, 0.0)"><path d="M 0.0 -1.389845848083496 L 1.0 -1.389845848083496 L 1.0 -1.0459502935409546 L 2.0 -1.0459502935409546 L 2.0 -1.874679446220398 L 3.0 -1.874679446220398 L 3.0 -0.8415325284004211 L 4.0 -0.8415325284004211 L 4.0 -1.8072394132614136 L 5.0 -1.8072394132614136 L 5.0 -0.18836985528469086 L 6.0 -0.18836985528469086 L 6.0 -1.7506518363952637 L 7.0 -1.7506518363952637 L 7.0 -1.2369564771652222 L 8.0 -1.2369564771652222 L 8.0 -1.3810935020446777 L 9.0 -1.3810935020446777 L 9.0 -1.3974287509918213 L 10.0 -1.3974287509918213 L 10.0 -1.7242653369903564 L 11.0 -1.7242653369903564 L 11.0 -1.3872874975204468 L 12.0 -1.3872874975204468 L 12.0 -1.2593145370483398 L 13.0 -1.2593145370483398 L 13.0 -1.8147130012512207 L 14.0 -1.8147130012512207 L 14.0 -1.395669937133789 L 15.0 -1.395669937133789 L 15.0 -0.21278686821460724 L 16.0 -0.21278686821460724 L 16.0 -1.3385826349258423 L 17.0 -1.3385826349258423 L 17.0 -0.02134583704173565 L 18.0 -0.02134583704173565 L 18.0 -1.1525174379348755 L 19.0 -1.1525174379348755 L 19.0 -0.13235895335674286 L 20.0 -0.13235895335674286 L 20.0 -1.0333293676376343 L 21.0 -1.0333293676376343 L 21.0 -1.1160067319869995 L 22.0 -1.1160067319869995 L 22.0 -0.5435988306999207 L 23.0 -0.5435988306999207 L 23.0 -0.10872414708137512 L 24.0 -0.10872414708137512 L 24.0 -1.2195825576782227 L 25.0 -1.2195825576782227" style="vector-effect: non-scaling-stroke;fill:none;" /></g></g></g></g></g></g></g></g></g></g><g style="stroke: black;stroke-width: 1.2000000000000002;" transform="matrix(0.0, -1.0, 1.0, 0.0, 0.0, 0.08)"><g /></g></g><g transform="matrix(1.0, 0.0, 0.0, 1.0, 0.0, 0.16)"><g transform="matrix(1.0, 0.0, 0.0, 1.0, -0.2, -0.03)"><g transform="matrix(1.0, 0.0, 0.0, 1.0, 0.075, 0.0)"><g transform="matrix(1.0, 0.0, 0.0, 1.0, 0.0, 0.03)"><g transform="matrix(0.01, 0.0, 0.0, 0.01, 0.0, 0.0)"><g><g><g transform="matrix(1.0, 0.0, 0.0, 1.0, 12.5, 0.0)"><g transform="matrix(1.0, 0.0, 0.0, 1.0, -20.0, -0.0)"><g><g style="fill: #d3d3d3;stroke: black;stroke-width: 1.2000000000000002;" transform="matrix(1.0, 0.0, 0.0, 1.0, 0.0, -3.0)"><path d="M 0.0 0.0 L 40.0 0.0 L 40.0 6.0 L 0.0 6.0 L 0.0 0.0 Z" style="vector-effect: non-scaling-stroke;" /></g><g transform="matrix(1.0, 0.0, 0.0, 1.0, 1.875, 0.0)"><g><g style="stroke: black;stroke-width: 1.2000000000000002;" transform="matrix(1.0, 0.0, 0.0, 1.0, 0.0, 0.0)"><g /></g><g style="fill: #ffa500;stroke: black;stroke-width: 1.2000000000000002;" transform="matrix(1.0, 0.0, 0.0, 1.0, 1.875, 0.0)"><text style="text-align:center; text-anchor:middle; dominant-baseline:middle;&#10;                      font-family:sans-serif; font-weight: bold;&#10;                      font-size:3px;&#10;                      vector-effect: non-scaling-stroke;" transform="translate(-5e-05, 0)">f(x)</text></g></g></g></g></g></g><g><g><g><g style="stroke: black;stroke-width: 1.2000000000000002;" transform="matrix(1.0, 0.0, 0.0, 1.0, 0.0, 0.0)"><path d="M 0.0 -2.0 L 0.0 2.0" style="vector-effect: non-scaling-stroke;fill:none;" /></g><g style="stroke: #808080;stroke-width: 0.6000000000000001;" transform="matrix(1.0, 0.0, 0.0, 1.0, 0.0, 0.0)"><path d="M 0.0 0.0 L 25.0 0.0" style="vector-effect: non-scaling-stroke;fill:none;" /></g></g><g style="stroke: black;stroke-width: 2.4000000000000004;" transform="matrix(1.0, 0.0, 0.0, 1.0, 0.0, 0.0)"><path d="M 0.0 -0.25895199179649353 L 1.0 -0.25895199179649353 L 1.0 -0.3961268663406372 L 2.0 -0.3961268663406372 L 2.0 -0.8360555171966553 L 3.0 -0.8360555171966553 L 3.0 -0.2181289941072464 L 4.0 -0.2181289941072464 L 4.0 -1.0378823280334473 L 5.0 -1.0378823280334473 L 5.0 -0.2698691189289093 L 6.0 -0.2698691189289093 L 6.0 -1.2211500406265259 L 7.0 -1.2211500406265259 L 7.0 -0.5198540091514587 L 8.0 -0.5198540091514587 L 8.0 -1.1463037729263306 L 9.0 -1.1463037729263306 L 9.0 -0.9165785312652588 L 10.0 -0.9165785312652588 L 10.0 -0.9759625196456909 L 11.0 -0.9759625196456909 L 11.0 -0.560004472732544 L 12.0 -0.560004472732544 L 12.0 -0.676551878452301 L 13.0 -0.676551878452301 L 13.0 -0.9256444573402405 L 14.0 -0.9256444573402405 L 14.0 -1.0790159702301025 L 15.0 -1.0790159702301025 L 15.0 -0.07867823541164398 L 16.0 -0.07867823541164398 L 16.0 -1.513315200805664 L 17.0 -1.513315200805664 L 17.0 -0.5044402480125427 L 18.0 -0.5044402480125427 L 18.0 -1.4229736328125 L 19.0 -1.4229736328125 L 19.0 0.019290290772914886 L 20.0 0.019290290772914886 L 20.0 -1.038536548614502 L 21.0 -1.038536548614502 L 21.0 -0.7073385715484619 L 22.0 -0.7073385715484619 L 22.0 -0.7509342432022095 L 23.0 -0.7509342432022095 L 23.0 -0.27676376700401306 L 24.0 -0.27676376700401306 L 24.0 -0.941731333732605 L 25.0 -0.941731333732605" style="vector-effect: non-scaling-stroke;fill:none;" /></g></g></g></g><g><g><g><g style="stroke: black;stroke-width: 1.2000000000000002;" transform="matrix(1.0, 0.0, 0.0, 1.0, 0.0, 0.0)"><path d="M 0.0 -2.0 L 0.0 2.0" style="vector-effect: non-scaling-stroke;fill:none;" /></g><g style="stroke: #808080;stroke-width: 0.6000000000000001;" transform="matrix(1.0, 0.0, 0.0, 1.0, 0.0, 0.0)"><path d="M 0.0 0.0 L 25.0 0.0" style="vector-effect: non-scaling-stroke;fill:none;" /></g></g><g style="stroke: black;stroke-width: 2.4000000000000004;" transform="matrix(1.0, 0.0, 0.0, 1.0, 0.0, 0.0)"><path d="M 0.0 -0.25895199179649353 L 1.0 -0.25895199179649353 L 1.0 -0.3961268663406372 L 2.0 -0.3961268663406372 L 2.0 -0.8360555171966553 L 3.0 -0.8360555171966553 L 3.0 -0.2181289941072464 L 4.0 -0.2181289941072464 L 4.0 -1.0378823280334473 L 5.0 -1.0378823280334473 L 5.0 -0.2698691189289093 L 6.0 -0.2698691189289093 L 6.0 -1.2211500406265259 L 7.0 -1.2211500406265259 L 7.0 -0.5198540091514587 L 8.0 -0.5198540091514587 L 8.0 -1.1463037729263306 L 9.0 -1.1463037729263306 L 9.0 -0.9165785312652588 L 10.0 -0.9165785312652588 L 10.0 -0.9759625196456909 L 11.0 -0.9759625196456909 L 11.0 -0.560004472732544 L 12.0 -0.560004472732544 L 12.0 -0.676551878452301 L 13.0 -0.676551878452301 L 13.0 -0.9256444573402405 L 14.0 -0.9256444573402405 L 14.0 -1.0790159702301025 L 15.0 -1.0790159702301025 L 15.0 -0.07867823541164398 L 16.0 -0.07867823541164398 L 16.0 -1.513315200805664 L 17.0 -1.513315200805664 L 17.0 -0.5044402480125427 L 18.0 -0.5044402480125427 L 18.0 -1.4229736328125 L 19.0 -1.4229736328125 L 19.0 0.019290290772914886 L 20.0 0.019290290772914886 L 20.0 -1.038536548614502 L 21.0 -1.038536548614502 L 21.0 -0.7073385715484619 L 22.0 -0.7073385715484619 L 22.0 -0.7509342432022095 L 23.0 -0.7509342432022095 L 23.0 -0.27676376700401306 L 24.0 -0.27676376700401306 L 24.0 -0.941731333732605 L 25.0 -0.941731333732605" style="vector-effect: non-scaling-stroke;fill:none;" /></g></g></g></g></g></g></g></g></g></g><g transform="matrix(1.0, 0.0, 0.0, 1.0, -0.125, 0.16)"><g transform="matrix(1.0, 0.0, 0.0, 0.009999999999999995, 0.0, 0.0)"><g transform="matrix(0.01, 0.0, 0.0, 1.0, 0.0, 0.0)"><g><g><g style="fill: #ffffe0;stroke: #ffffe0;stroke-width: 1.2000000000000002;fill-opacity: 0.5;" transform="matrix(1.0, 0.0, 0.0, 1.0, 0.0, 0.0)"><path d="M 0.0 -2.0 L 0.0 2.0" style="vector-effect: non-scaling-stroke;fill:none;" /></g><g style="fill: #ffffe0;stroke: #ffffe0;stroke-width: 1.2000000000000002;fill-opacity: 0.5;" transform="matrix(1.0, 0.0, 0.0, 1.0, 0.0, 0.0)"><path d="M 0.0 -1.2603100538253784 L 1.0 -1.2603100538253784 L 1.0 -1.3974848985671997 L 2.0 -1.3974848985671997 L 2.0 -1.8374135494232178 L 3.0 -1.8374135494232178 L 3.0 -1.2179969549179077 L 4.0 -1.2179969549179077 L 4.0 -2.0 L 5.0 -2.0 L 5.0 -1.2712271213531494 L 6.0 -1.2712271213531494 L 6.0 -2.0 L 7.0 -2.0 L 7.0 -1.521212100982666 L 8.0 -1.521212100982666 L 8.0 -2.0 L 9.0 -2.0 L 9.0 -1.9119760990142822 L 10.0 -1.9119760990142822 L 10.0 -1.9773205518722534 L 11.0 -1.9773205518722534 L 11.0 -1.5613625049591064 L 12.0 -1.5613625049591064 L 12.0 -1.6779098510742188 L 13.0 -1.6779098510742188 L 13.0 -1.9270024299621582 L 14.0 -1.9270024299621582 L 14.0 -2.0 L 15.0 -2.0 L 15.0 -1.078546166419983 L 16.0 -1.078546166419983 L 16.0 -2.0 L 17.0 -2.0 L 17.0 -1.50579833984375 L 18.0 -1.50579833984375 L 18.0 -2.0 L 19.0 -2.0 L 19.0 -0.9805776476860046 L 20.0 -0.9805776476860046 L 20.0 -2.0 L 21.0 -2.0 L 21.0 -1.7027361392974854 L 22.0 -1.7027361392974854 L 22.0 -1.752292275428772 L 23.0 -1.752292275428772 L 23.0 -1.2751415967941284 L 24.0 -1.2751415967941284 L 24.0 -1.9430893659591675 L 25.0 -1.9430893659591675 L 25.0 -0.941731333732605 L 24.0 -0.941731333732605 L 24.0 -0.27676376700401306 L 23.0 -0.27676376700401306 L 23.0 -0.7509342432022095 L 22.0 -0.7509342432022095 L 22.0 -0.7073385715484619 L 21.0 -0.7073385715484619 L 21.0 -1.038536548614502 L 20.0 -1.038536548614502 L 20.0 0.019290290772914886 L 19.0 0.019290290772914886 L 19.0 -1.4229736328125 L 18.0 -1.4229736328125 L 18.0 -0.5044402480125427 L 17.0 -0.5044402480125427 L 17.0 -1.513315200805664 L 16.0 -1.513315200805664 L 16.0 -0.07867823541164398 L 15.0 -0.07867823541164398 L 15.0 -1.0790159702301025 L 14.0 -1.0790159702301025 L 14.0 -0.9256444573402405 L 13.0 -0.9256444573402405 L 13.0 -0.676551878452301 L 12.0 -0.676551878452301 L 12.0 -0.560004472732544 L 11.0 -0.560004472732544 L 11.0 -0.9759625196456909 L 10.0 -0.9759625196456909 L 10.0 -0.9165785312652588 L 9.0 -0.9165785312652588 L 9.0 -1.1463037729263306 L 8.0 -1.1463037729263306 L 8.0 -0.5198540091514587 L 7.0 -0.5198540091514587 L 7.0 -1.2211500406265259 L 6.0 -1.2211500406265259 L 6.0 -0.2698691189289093 L 5.0 -0.2698691189289093 L 5.0 -1.0378823280334473 L 4.0 -1.0378823280334473 L 4.0 -0.2181289941072464 L 3.0 -0.2181289941072464 L 3.0 -0.8360555171966553 L 2.0 -0.8360555171966553 L 2.0 -0.3961268663406372 L 1.0 -0.3961268663406372 L 1.0 -0.25895199179649353 L 0.0 -0.25895199179649353 Z" style="vector-effect: non-scaling-stroke;" /></g></g><g style="stroke: black;stroke-width: 1.2000000000000002;" transform="matrix(1.0, 0.0, 0.0, 1.0, 0.0, 0.0)"><path d="M 0.0 -0.25895199179649353 L 1.0 -0.25895199179649353 L 1.0 -0.3961268663406372 L 2.0 -0.3961268663406372 L 2.0 -0.8360555171966553 L 3.0 -0.8360555171966553 L 3.0 -0.2181289941072464 L 4.0 -0.2181289941072464 L 4.0 -1.0378823280334473 L 5.0 -1.0378823280334473 L 5.0 -0.2698691189289093 L 6.0 -0.2698691189289093 L 6.0 -1.2211500406265259 L 7.0 -1.2211500406265259 L 7.0 -0.5198540091514587 L 8.0 -0.5198540091514587 L 8.0 -1.1463037729263306 L 9.0 -1.1463037729263306 L 9.0 -0.9165785312652588 L 10.0 -0.9165785312652588 L 10.0 -0.9759625196456909 L 11.0 -0.9759625196456909 L 11.0 -0.560004472732544 L 12.0 -0.560004472732544 L 12.0 -0.676551878452301 L 13.0 -0.676551878452301 L 13.0 -0.9256444573402405 L 14.0 -0.9256444573402405 L 14.0 -1.0790159702301025 L 15.0 -1.0790159702301025 L 15.0 -0.07867823541164398 L 16.0 -0.07867823541164398 L 16.0 -1.513315200805664 L 17.0 -1.513315200805664 L 17.0 -0.5044402480125427 L 18.0 -0.5044402480125427 L 18.0 -1.4229736328125 L 19.0 -1.4229736328125 L 19.0 0.019290290772914886 L 20.0 0.019290290772914886 L 20.0 -1.038536548614502 L 21.0 -1.038536548614502 L 21.0 -0.7073385715484619 L 22.0 -0.7073385715484619 L 22.0 -0.7509342432022095 L 23.0 -0.7509342432022095 L 23.0 -0.27676376700401306 L 24.0 -0.27676376700401306 L 24.0 -0.941731333732605 L 25.0 -0.941731333732605" style="vector-effect: non-scaling-stroke;fill:none;" /></g></g></g></g></g></g><g transform="matrix(1.0, 0.0, 0.0, 1.0, -0.125, 0.16)"><g transform="matrix(1.0, 0.0, 0.0, 0.009999999999999995, 0.0, 0.0)"><g transform="matrix(0.01, 0.0, 0.0, 1.0, 0.0, 0.0)"><g><g><g style="fill: #add8e6;stroke: #add8e6;stroke-width: 1.2000000000000002;fill-opacity: 0.5;" transform="matrix(1.0, 0.0, 0.0, 1.0, 0.0, 0.0)"><path d="M 0.0 -2.0 L 0.0 2.0" style="vector-effect: non-scaling-stroke;fill:none;" /></g><g style="fill: #add8e6;stroke: #add8e6;stroke-width: 1.2000000000000002;fill-opacity: 0.5;" transform="matrix(1.0, 0.0, 0.0, 1.0, 0.0, 0.0)"><path d="M 0.0 -1.2603100538253784 L 1.0 -1.2603100538253784 L 1.0 -1.3974848985671997 L 2.0 -1.3974848985671997 L 2.0 -1.8374135494232178 L 3.0 -1.8374135494232178 L 3.0 -1.2194870710372925 L 4.0 -1.2194870710372925 L 4.0 -2.0 L 5.0 -2.0 L 5.0 -1.2712271213531494 L 6.0 -1.2712271213531494 L 6.0 -2.0 L 7.0 -2.0 L 7.0 -1.521212100982666 L 8.0 -1.521212100982666 L 8.0 -2.0 L 9.0 -2.0 L 9.0 -1.9179365634918213 L 10.0 -1.9179365634918213 L 10.0 -1.9773205518722534 L 11.0 -1.9773205518722534 L 11.0 -1.5613625049591064 L 12.0 -1.5613625049591064 L 12.0 -1.6779098510742188 L 13.0 -1.6779098510742188 L 13.0 -1.9270024299621582 L 14.0 -1.9270024299621582 L 14.0 -2.0 L 15.0 -2.0 L 15.0 -1.078546166419983 L 16.0 -1.078546166419983 L 16.0 -2.0 L 17.0 -2.0 L 17.0 -1.50579833984375 L 18.0 -1.50579833984375 L 18.0 -2.0 L 19.0 -2.0 L 19.0 -0.9805776476860046 L 20.0 -0.9805776476860046 L 20.0 -2.0 L 21.0 -2.0 L 21.0 -1.7086966037750244 L 22.0 -1.7086966037750244 L 22.0 -1.752292275428772 L 23.0 -1.752292275428772 L 23.0 -1.2751415967941284 L 24.0 -1.2751415967941284 L 24.0 -1.9430893659591675 L 25.0 -1.9430893659591675 L 25.0 -0.941731333732605 L 24.0 -0.941731333732605 L 24.0 -0.27676376700401306 L 23.0 -0.27676376700401306 L 23.0 -0.7509342432022095 L 22.0 -0.7509342432022095 L 22.0 -0.7073385715484619 L 21.0 -0.7073385715484619 L 21.0 -1.038536548614502 L 20.0 -1.038536548614502 L 20.0 0.019290290772914886 L 19.0 0.019290290772914886 L 19.0 -1.4229736328125 L 18.0 -1.4229736328125 L 18.0 -0.5044402480125427 L 17.0 -0.5044402480125427 L 17.0 -1.513315200805664 L 16.0 -1.513315200805664 L 16.0 -0.07867823541164398 L 15.0 -0.07867823541164398 L 15.0 -1.0790159702301025 L 14.0 -1.0790159702301025 L 14.0 -0.9256444573402405 L 13.0 -0.9256444573402405 L 13.0 -0.676551878452301 L 12.0 -0.676551878452301 L 12.0 -0.560004472732544 L 11.0 -0.560004472732544 L 11.0 -0.9759625196456909 L 10.0 -0.9759625196456909 L 10.0 -0.9165785312652588 L 9.0 -0.9165785312652588 L 9.0 -1.1463037729263306 L 8.0 -1.1463037729263306 L 8.0 -0.5198540091514587 L 7.0 -0.5198540091514587 L 7.0 -1.2211500406265259 L 6.0 -1.2211500406265259 L 6.0 -0.2698691189289093 L 5.0 -0.2698691189289093 L 5.0 -1.0378823280334473 L 4.0 -1.0378823280334473 L 4.0 -0.2181289941072464 L 3.0 -0.2181289941072464 L 3.0 -0.8360555171966553 L 2.0 -0.8360555171966553 L 2.0 -0.3961268663406372 L 1.0 -0.3961268663406372 L 1.0 -0.25895199179649353 L 0.0 -0.25895199179649353 Z" style="vector-effect: non-scaling-stroke;" /></g></g><g style="stroke: black;stroke-width: 1.2000000000000002;" transform="matrix(1.0, 0.0, 0.0, 1.0, 0.0, 0.0)"><path d="M 0.0 -0.25895199179649353 L 1.0 -0.25895199179649353 L 1.0 -0.3961268663406372 L 2.0 -0.3961268663406372 L 2.0 -0.8360555171966553 L 3.0 -0.8360555171966553 L 3.0 -0.2181289941072464 L 4.0 -0.2181289941072464 L 4.0 -1.0378823280334473 L 5.0 -1.0378823280334473 L 5.0 -0.2698691189289093 L 6.0 -0.2698691189289093 L 6.0 -1.2211500406265259 L 7.0 -1.2211500406265259 L 7.0 -0.5198540091514587 L 8.0 -0.5198540091514587 L 8.0 -1.1463037729263306 L 9.0 -1.1463037729263306 L 9.0 -0.9165785312652588 L 10.0 -0.9165785312652588 L 10.0 -0.9759625196456909 L 11.0 -0.9759625196456909 L 11.0 -0.560004472732544 L 12.0 -0.560004472732544 L 12.0 -0.676551878452301 L 13.0 -0.676551878452301 L 13.0 -0.9256444573402405 L 14.0 -0.9256444573402405 L 14.0 -1.0790159702301025 L 15.0 -1.0790159702301025 L 15.0 -0.07867823541164398 L 16.0 -0.07867823541164398 L 16.0 -1.513315200805664 L 17.0 -1.513315200805664 L 17.0 -0.5044402480125427 L 18.0 -0.5044402480125427 L 18.0 -1.4229736328125 L 19.0 -1.4229736328125 L 19.0 0.019290290772914886 L 20.0 0.019290290772914886 L 20.0 -1.038536548614502 L 21.0 -1.038536548614502 L 21.0 -0.7073385715484619 L 22.0 -0.7073385715484619 L 22.0 -0.7509342432022095 L 23.0 -0.7509342432022095 L 23.0 -0.27676376700401306 L 24.0 -0.27676376700401306 L 24.0 -0.941731333732605 L 25.0 -0.941731333732605" style="vector-effect: non-scaling-stroke;fill:none;" /></g></g></g></g></g></g><g transform="matrix(1.0, 0.0, 0.0, 1.0, -0.125, 0.16)"><g transform="matrix(1.0, 0.0, 0.0, 0.009999999999999995, 0.0, 0.0)"><g transform="matrix(0.01, 0.0, 0.0, 1.0, 0.0, 0.0)"><g><g><g style="fill: #ff8c00;stroke: #ff8c00;stroke-width: 1.2000000000000002;fill-opacity: 0.5;" transform="matrix(1.0, 0.0, 0.0, 1.0, 0.0, 0.0)"><path d="M 0.0 -2.0 L 0.0 2.0" style="vector-effect: non-scaling-stroke;fill:none;" /></g><g style="fill: #ff8c00;stroke: #ff8c00;stroke-width: 1.2000000000000002;fill-opacity: 0.5;" transform="matrix(1.0, 0.0, 0.0, 1.0, 0.0, 0.0)"><path d="M 0.0 -0.25895199179649353 L 1.0 -0.25895199179649353 L 1.0 -0.3961268663406372 L 2.0 -0.3961268663406372 L 2.0 -0.8360555171966553 L 3.0 -0.8360555171966553 L 3.0 -0.2181289941072464 L 4.0 -0.2181289941072464 L 4.0 -1.0378823280334473 L 5.0 -1.0378823280334473 L 5.0 -0.2698691189289093 L 6.0 -0.2698691189289093 L 6.0 -1.2211500406265259 L 7.0 -1.2211500406265259 L 7.0 -0.5198540091514587 L 8.0 -0.5198540091514587 L 8.0 -1.1463037729263306 L 9.0 -1.1463037729263306 L 9.0 -0.9165785312652588 L 10.0 -0.9165785312652588 L 10.0 -0.9759625196456909 L 11.0 -0.9759625196456909 L 11.0 -0.560004472732544 L 12.0 -0.560004472732544 L 12.0 -0.676551878452301 L 13.0 -0.676551878452301 L 13.0 -0.9256444573402405 L 14.0 -0.9256444573402405 L 14.0 -1.0790159702301025 L 15.0 -1.0790159702301025 L 15.0 -0.07867823541164398 L 16.0 -0.07867823541164398 L 16.0 -1.513315200805664 L 17.0 -1.513315200805664 L 17.0 -0.5044402480125427 L 18.0 -0.5044402480125427 L 18.0 -1.4229736328125 L 19.0 -1.4229736328125 L 19.0 0.019290290772914886 L 20.0 0.019290290772914886 L 20.0 -1.038536548614502 L 21.0 -1.038536548614502 L 21.0 -0.7073385715484619 L 22.0 -0.7073385715484619 L 22.0 -0.7509342432022095 L 23.0 -0.7509342432022095 L 23.0 -0.27676376700401306 L 24.0 -0.27676376700401306 L 24.0 -0.941731333732605 L 25.0 -0.941731333732605 L 25.0 -0.941731333732605 L 24.0 -0.941731333732605 L 24.0 -0.27676376700401306 L 23.0 -0.27676376700401306 L 23.0 -0.7509342432022095 L 22.0 -0.7509342432022095 L 22.0 -0.7073385715484619 L 21.0 -0.7073385715484619 L 21.0 -1.038536548614502 L 20.0 -1.038536548614502 L 20.0 0.019290290772914886 L 19.0 0.019290290772914886 L 19.0 -1.4229736328125 L 18.0 -1.4229736328125 L 18.0 -0.5044402480125427 L 17.0 -0.5044402480125427 L 17.0 -1.513315200805664 L 16.0 -1.513315200805664 L 16.0 -0.07867823541164398 L 15.0 -0.07867823541164398 L 15.0 -1.0790159702301025 L 14.0 -1.0790159702301025 L 14.0 -0.9256444573402405 L 13.0 -0.9256444573402405 L 13.0 -0.676551878452301 L 12.0 -0.676551878452301 L 12.0 -0.560004472732544 L 11.0 -0.560004472732544 L 11.0 -0.9759625196456909 L 10.0 -0.9759625196456909 L 10.0 -0.9165785312652588 L 9.0 -0.9165785312652588 L 9.0 -1.1463037729263306 L 8.0 -1.1463037729263306 L 8.0 -0.5198540091514587 L 7.0 -0.5198540091514587 L 7.0 -1.2211500406265259 L 6.0 -1.2211500406265259 L 6.0 -0.2698691189289093 L 5.0 -0.2698691189289093 L 5.0 -1.0378823280334473 L 4.0 -1.0378823280334473 L 4.0 -0.2181289941072464 L 3.0 -0.2181289941072464 L 3.0 -0.8360555171966553 L 2.0 -0.8360555171966553 L 2.0 -0.3961268663406372 L 1.0 -0.3961268663406372 L 1.0 -0.25895199179649353 L 0.0 -0.25895199179649353 Z" style="vector-effect: non-scaling-stroke;" /></g></g><g style="stroke: black;stroke-width: 1.2000000000000002;" transform="matrix(1.0, 0.0, 0.0, 1.0, 0.0, 0.0)"><path d="M 0.0 -0.25895199179649353 L 1.0 -0.25895199179649353 L 1.0 -0.3961268663406372 L 2.0 -0.3961268663406372 L 2.0 -0.8360555171966553 L 3.0 -0.8360555171966553 L 3.0 -0.2181289941072464 L 4.0 -0.2181289941072464 L 4.0 -1.0378823280334473 L 5.0 -1.0378823280334473 L 5.0 -0.2698691189289093 L 6.0 -0.2698691189289093 L 6.0 -1.2211500406265259 L 7.0 -1.2211500406265259 L 7.0 -0.5198540091514587 L 8.0 -0.5198540091514587 L 8.0 -1.1463037729263306 L 9.0 -1.1463037729263306 L 9.0 -0.9165785312652588 L 10.0 -0.9165785312652588 L 10.0 -0.9759625196456909 L 11.0 -0.9759625196456909 L 11.0 -0.560004472732544 L 12.0 -0.560004472732544 L 12.0 -0.676551878452301 L 13.0 -0.676551878452301 L 13.0 -0.9256444573402405 L 14.0 -0.9256444573402405 L 14.0 -1.0790159702301025 L 15.0 -1.0790159702301025 L 15.0 -0.07867823541164398 L 16.0 -0.07867823541164398 L 16.0 -1.513315200805664 L 17.0 -1.513315200805664 L 17.0 -0.5044402480125427 L 18.0 -0.5044402480125427 L 18.0 -1.4229736328125 L 19.0 -1.4229736328125 L 19.0 0.019290290772914886 L 20.0 0.019290290772914886 L 20.0 -1.038536548614502 L 21.0 -1.038536548614502 L 21.0 -0.7073385715484619 L 22.0 -0.7073385715484619 L 22.0 -0.7509342432022095 L 23.0 -0.7509342432022095 L 23.0 -0.27676376700401306 L 24.0 -0.27676376700401306 L 24.0 -0.941731333732605 L 25.0 -0.941731333732605" style="vector-effect: non-scaling-stroke;fill:none;" /></g></g></g></g></g></g><g transform="matrix(1.0, 0.0, 0.0, 1.0, -0.125, 0.16)"><g transform="matrix(1.0, 0.0, 0.0, 0.009999999999999995, 0.0, 0.0)"><g transform="matrix(0.01, 0.0, 0.0, 1.0, 0.0, 0.0)"><g><g><g style="fill: #0000ff;stroke: #0000ff;stroke-width: 1.2000000000000002;fill-opacity: 0.5;" transform="matrix(1.0, 0.0, 0.0, 1.0, 0.0, 0.0)"><path d="M 0.0 -2.0 L 0.0 2.0" style="vector-effect: non-scaling-stroke;fill:none;" /></g><g style="fill: #0000ff;stroke: #0000ff;stroke-width: 1.2000000000000002;fill-opacity: 0.5;" transform="matrix(1.0, 0.0, 0.0, 1.0, 0.0, 0.0)"><path d="M 0.0 -0.25895199179649353 L 1.0 -0.25895199179649353 L 1.0 -0.3961268663406372 L 2.0 -0.3961268663406372 L 2.0 -0.8360555171966553 L 3.0 -0.8360555171966553 L 3.0 -0.2181289941072464 L 4.0 -0.2181289941072464 L 4.0 -1.0378823280334473 L 5.0 -1.0378823280334473 L 5.0 -0.2698691189289093 L 6.0 -0.2698691189289093 L 6.0 -1.2211500406265259 L 7.0 -1.2211500406265259 L 7.0 -0.5198540091514587 L 8.0 -0.5198540091514587 L 8.0 -1.1463037729263306 L 9.0 -1.1463037729263306 L 9.0 -0.9165785312652588 L 10.0 -0.9165785312652588 L 10.0 -0.9759625196456909 L 11.0 -0.9759625196456909 L 11.0 -0.560004472732544 L 12.0 -0.560004472732544 L 12.0 -0.676551878452301 L 13.0 -0.676551878452301 L 13.0 -0.9256444573402405 L 14.0 -0.9256444573402405 L 14.0 -1.0790159702301025 L 15.0 -1.0790159702301025 L 15.0 -0.07867823541164398 L 16.0 -0.07867823541164398 L 16.0 -1.513315200805664 L 17.0 -1.513315200805664 L 17.0 -0.5044402480125427 L 18.0 -0.5044402480125427 L 18.0 -1.4229736328125 L 19.0 -1.4229736328125 L 19.0 0.019290290772914886 L 20.0 0.019290290772914886 L 20.0 -1.038536548614502 L 21.0 -1.038536548614502 L 21.0 -0.7073385715484619 L 22.0 -0.7073385715484619 L 22.0 -0.7509342432022095 L 23.0 -0.7509342432022095 L 23.0 -0.27676376700401306 L 24.0 -0.27676376700401306 L 24.0 -0.941731333732605 L 25.0 -0.941731333732605 L 25.0 -0.941731333732605 L 24.0 -0.941731333732605 L 24.0 -0.27676376700401306 L 23.0 -0.27676376700401306 L 23.0 -0.7509342432022095 L 22.0 -0.7509342432022095 L 22.0 -0.7073385715484619 L 21.0 -0.7073385715484619 L 21.0 -1.038536548614502 L 20.0 -1.038536548614502 L 20.0 0.019290290772914886 L 19.0 0.019290290772914886 L 19.0 -1.4229736328125 L 18.0 -1.4229736328125 L 18.0 -0.5044402480125427 L 17.0 -0.5044402480125427 L 17.0 -1.513315200805664 L 16.0 -1.513315200805664 L 16.0 -0.07867823541164398 L 15.0 -0.07867823541164398 L 15.0 -1.0790159702301025 L 14.0 -1.0790159702301025 L 14.0 -0.9256444573402405 L 13.0 -0.9256444573402405 L 13.0 -0.676551878452301 L 12.0 -0.676551878452301 L 12.0 -0.560004472732544 L 11.0 -0.560004472732544 L 11.0 -0.9759625196456909 L 10.0 -0.9759625196456909 L 10.0 -0.9165785312652588 L 9.0 -0.9165785312652588 L 9.0 -1.1463037729263306 L 8.0 -1.1463037729263306 L 8.0 -0.5198540091514587 L 7.0 -0.5198540091514587 L 7.0 -1.2211500406265259 L 6.0 -1.2211500406265259 L 6.0 -0.2698691189289093 L 5.0 -0.2698691189289093 L 5.0 -1.0378823280334473 L 4.0 -1.0378823280334473 L 4.0 -0.2181289941072464 L 3.0 -0.2181289941072464 L 3.0 -0.8360555171966553 L 2.0 -0.8360555171966553 L 2.0 -0.3961268663406372 L 1.0 -0.3961268663406372 L 1.0 -0.25895199179649353 L 0.0 -0.25895199179649353 Z" style="vector-effect: non-scaling-stroke;" /></g></g><g style="stroke: black;stroke-width: 1.2000000000000002;" transform="matrix(1.0, 0.0, 0.0, 1.0, 0.0, 0.0)"><path d="M 0.0 -0.25895199179649353 L 1.0 -0.25895199179649353 L 1.0 -0.3961268663406372 L 2.0 -0.3961268663406372 L 2.0 -0.8360555171966553 L 3.0 -0.8360555171966553 L 3.0 -0.2181289941072464 L 4.0 -0.2181289941072464 L 4.0 -1.0378823280334473 L 5.0 -1.0378823280334473 L 5.0 -0.2698691189289093 L 6.0 -0.2698691189289093 L 6.0 -1.2211500406265259 L 7.0 -1.2211500406265259 L 7.0 -0.5198540091514587 L 8.0 -0.5198540091514587 L 8.0 -1.1463037729263306 L 9.0 -1.1463037729263306 L 9.0 -0.9165785312652588 L 10.0 -0.9165785312652588 L 10.0 -0.9759625196456909 L 11.0 -0.9759625196456909 L 11.0 -0.560004472732544 L 12.0 -0.560004472732544 L 12.0 -0.676551878452301 L 13.0 -0.676551878452301 L 13.0 -0.9256444573402405 L 14.0 -0.9256444573402405 L 14.0 -1.0790159702301025 L 15.0 -1.0790159702301025 L 15.0 -0.07867823541164398 L 16.0 -0.07867823541164398 L 16.0 -1.513315200805664 L 17.0 -1.513315200805664 L 17.0 -0.5044402480125427 L 18.0 -0.5044402480125427 L 18.0 -1.4229736328125 L 19.0 -1.4229736328125 L 19.0 0.019290290772914886 L 20.0 0.019290290772914886 L 20.0 -1.038536548614502 L 21.0 -1.038536548614502 L 21.0 -0.7073385715484619 L 22.0 -0.7073385715484619 L 22.0 -0.7509342432022095 L 23.0 -0.7509342432022095 L 23.0 -0.27676376700401306 L 24.0 -0.27676376700401306 L 24.0 -0.941731333732605 L 25.0 -0.941731333732605" style="vector-effect: non-scaling-stroke;fill:none;" /></g></g></g></g></g></g></g></g><g /></g></g></g></g></svg>