<?xml version="1.0" encoding="utf-8" ?>
<svg baseProfile="full" height="300" version="1.1" width="1056" xmlns="http://www.w3.org/2000/svg" xmlns:ev="http://www.w3.org/2001/xml-events" xmlns:xlink="http://www.w3.org/1999/xlink"><defs><marker id="arrow" markerHeight="3.5" markerWidth="5" orient="auto" refX="5.0" refY="1.7"><polygon points="0,0 5,1.75 0,3.5" /></marker></defs><g style="fill:white;"><g transform="matrix(1.0, 0.0, 0.0, 1.0, 528.409090909091, 150.0)"><g transform="matrix(1082.2510822510822, 0.0, 0.0, 1082.2510822510822, 0.0, 0.0)"><g><g transform="matrix(1.0, 0.0, 0.0, 1.0, -0.0, -0.08000000000000002)"><g><g><g style="fill: #ffffff;stroke: black;stroke-width: 1.2000000000000002;" transform="matrix(1.0, 0.0, 0.0, 1.0, -0.465, -0.052000000000000005)"><path d="M 0.0 0.0 L 0.93 0.0 L 0.93 0.264 L 0.0 0.264 L 0.0 0.0 Z" style="vector-effect: non-scaling-stroke;" /></g><g><g><g><g><g><g><g><g transform="matrix(1.0, 0.0, 0.0, 1.0, -0.41500000000000004, -0.03)"><g><g><g transform="matrix(1.0, 0.0, 0.0, 1.0, 0.075, 0.0)"><g transform="matrix(1.0, 0.0, 0.0, 1.0, 0.0, 0.03)"><g transform="matrix(0.01, 0.0, 0.0, 0.01, 0.0, 0.0)"><g><g><g transform="matrix(1.0, 0.0, 0.0, 1.0, 12.5, 0.0)"><g transform="matrix(1.0, 0.0, 0.0, 1.0, -20.0, -0.0)"><g><g style="fill: #d3d3d3;stroke: black;stroke-width: 1.2000000000000002;" transform="matrix(1.0, 0.0, 0.0, 1.0, 0.0, -3.0)"><path d="M 0.0 0.0 L 40.0 0.0 L 40.0 6.0 L 0.0 6.0 L 0.0 0.0 Z" style="vector-effect: non-scaling-stroke;" /></g><g transform="matrix(1.0, 0.0, 0.0, 1.0, 1.875, 0.0)"><g><g style="stroke: black;stroke-width: 1.2000000000000002;" transform="matrix(1.0, 0.0, 0.0, 1.0, 0.0, 0.0)"><g /></g><g style="fill: #ffa500;stroke: black;stroke-width: 1.2000000000000002;" transform="matrix(1.0, 0.0, 0.0, 1.0, 1.875, 0.0)"><text style="text-align:center; text-anchor:middle; dominant-baseline:middle;&#10;                      font-family:sans-serif; font-weight: bold;&#10;                      font-size:3px;&#10;                      vector-effect: non-scaling-stroke;" transform="translate(-5e-05, 0)">x</text></g></g></g></g></g></g><g><g><g><g><g><g><g><g><g style="stroke: black;stroke-width: 1.2000000000000002;" transform="matrix(1.0, 0.0, 0.0, 1.0, 0.0, 0.0)"><path d="M 0.0 -2.0 L 0.0 2.0" style="vector-effect: non-scaling-stroke;fill:none;" /></g><g style="stroke: #808080;stroke-width: 0.6000000000000001;" transform="matrix(1.0, 0.0, 0.0, 1.0, 0.0, 0.0)"><path d="M 0.0 0.0 L 25.0 0.0" style="vector-effect: non-scaling-stroke;fill:none;" /></g></g><g style="stroke: black;stroke-width: 2.4000000000000004;" transform="matrix(1.0, 0.0, 0.0, 1.0, 0.0, 0.0)"><path d="M 0.0 0.6294554471969604 L 1.0 0.6294554471969604 L 1.0 -0.7630185484886169 L 2.0 -0.7630185484886169 L 2.0 0.7423406839370728 L 3.0 0.7423406839370728 L 3.0 -0.7195001244544983 L 4.0 -0.7195001244544983 L 4.0 -0.8506177663803101 L 5.0 -0.8506177663803101 L 5.0 -0.04162389412522316 L 6.0 -0.04162389412522316 L 6.0 -0.5394607186317444 L 7.0 -0.5394607186317444 L 7.0 0.6511825919151306 L 8.0 0.6511825919151306 L 8.0 -0.9970746040344238 L 9.0 -0.9970746040344238 L 9.0 -0.3729616403579712 L 10.0 -0.3729616403579712 L 10.0 -1.1159924268722534 L 11.0 -1.1159924268722534 L 11.0 -1.0723556280136108 L 12.0 -1.0723556280136108 L 12.0 -1.3392082452774048 L 13.0 -1.3392082452774048 L 13.0 -0.686776876449585 L 14.0 -0.686776876449585 L 14.0 0.2867467999458313 L 15.0 0.2867467999458313 L 15.0 -1.0087007284164429 L 16.0 -1.0087007284164429 L 16.0 -0.554456353187561 L 17.0 -0.554456353187561 L 17.0 -1.2993707656860352 L 18.0 -1.2993707656860352 L 18.0 -0.1132640615105629 L 19.0 -0.1132640615105629 L 19.0 -0.8664798736572266 L 20.0 -0.8664798736572266 L 20.0 -0.1250760704278946 L 21.0 -0.1250760704278946 L 21.0 -1.7989071607589722 L 22.0 -1.7989071607589722 L 22.0 -0.3140564560890198 L 23.0 -0.3140564560890198 L 23.0 -0.9732550978660583 L 24.0 -0.9732550978660583 L 24.0 -0.8565048575401306 L 25.0 -0.8565048575401306" style="vector-effect: non-scaling-stroke;fill:none;" /></g></g><g style="stroke: black;stroke-width: 1.2000000000000002;" transform="matrix(1.0, 0.0, 0.0, 1.0, 0.0, 0.0)"><path d="M 0.0 -2.0 L 0.0 2.0" style="vector-effect: non-scaling-stroke;fill:none;" /></g></g><g style="stroke: black;stroke-width: 1.2000000000000002;" transform="matrix(1.0, 0.0, 0.0, 1.0, 0.0, 0.0)"><path d="M 5.0 -2.0 L 5.0 2.0" style="vector-effect: non-scaling-stroke;fill:none;" /></g></g><g style="stroke: black;stroke-width: 1.2000000000000002;" transform="matrix(1.0, 0.0, 0.0, 1.0, 0.0, 0.0)"><path d="M 10.0 -2.0 L 10.0 2.0" style="vector-effect: non-scaling-stroke;fill:none;" /></g></g><g style="stroke: black;stroke-width: 1.2000000000000002;" transform="matrix(1.0, 0.0, 0.0, 1.0, 0.0, 0.0)"><path d="M 15.0 -2.0 L 15.0 2.0" style="vector-effect: non-scaling-stroke;fill:none;" /></g></g><g style="stroke: black;stroke-width: 1.2000000000000002;" transform="matrix(1.0, 0.0, 0.0, 1.0, 0.0, 0.0)"><path d="M 20.0 -2.0 L 20.0 2.0" style="vector-effect: non-scaling-stroke;fill:none;" /></g></g></g></g><g><g><g><g><g><g><g><g><g style="stroke: black;stroke-width: 1.2000000000000002;" transform="matrix(1.0, 0.0, 0.0, 1.0, 0.0, 0.0)"><path d="M 0.0 -2.0 L 0.0 2.0" style="vector-effect: non-scaling-stroke;fill:none;" /></g><g style="stroke: #808080;stroke-width: 0.6000000000000001;" transform="matrix(1.0, 0.0, 0.0, 1.0, 0.0, 0.0)"><path d="M 0.0 0.0 L 25.0 0.0" style="vector-effect: non-scaling-stroke;fill:none;" /></g></g><g style="stroke: black;stroke-width: 2.4000000000000004;" transform="matrix(1.0, 0.0, 0.0, 1.0, 0.0, 0.0)"><path d="M 0.0 0.6294554471969604 L 1.0 0.6294554471969604 L 1.0 -0.7630185484886169 L 2.0 -0.7630185484886169 L 2.0 0.7423406839370728 L 3.0 0.7423406839370728 L 3.0 -0.7195001244544983 L 4.0 -0.7195001244544983 L 4.0 -0.8506177663803101 L 5.0 -0.8506177663803101 L 5.0 -0.04162389412522316 L 6.0 -0.04162389412522316 L 6.0 -0.5394607186317444 L 7.0 -0.5394607186317444 L 7.0 0.6511825919151306 L 8.0 0.6511825919151306 L 8.0 -0.9970746040344238 L 9.0 -0.9970746040344238 L 9.0 -0.3729616403579712 L 10.0 -0.3729616403579712 L 10.0 -1.1159924268722534 L 11.0 -1.1159924268722534 L 11.0 -1.0723556280136108 L 12.0 -1.0723556280136108 L 12.0 -1.3392082452774048 L 13.0 -1.3392082452774048 L 13.0 -0.686776876449585 L 14.0 -0.686776876449585 L 14.0 0.2867467999458313 L 15.0 0.2867467999458313 L 15.0 -1.0087007284164429 L 16.0 -1.0087007284164429 L 16.0 -0.554456353187561 L 17.0 -0.554456353187561 L 17.0 -1.2993707656860352 L 18.0 -1.2993707656860352 L 18.0 -0.1132640615105629 L 19.0 -0.1132640615105629 L 19.0 -0.8664798736572266 L 20.0 -0.8664798736572266 L 20.0 -0.1250760704278946 L 21.0 -0.1250760704278946 L 21.0 -1.7989071607589722 L 22.0 -1.7989071607589722 L 22.0 -0.3140564560890198 L 23.0 -0.3140564560890198 L 23.0 -0.9732550978660583 L 24.0 -0.9732550978660583 L 24.0 -0.8565048575401306 L 25.0 -0.8565048575401306" style="vector-effect: non-scaling-stroke;fill:none;" /></g></g><g style="stroke: black;stroke-width: 1.2000000000000002;" transform="matrix(1.0, 0.0, 0.0, 1.0, 0.0, 0.0)"><path d="M 0.0 -2.0 L 0.0 2.0" style="vector-effect: non-scaling-stroke;fill:none;" /></g></g><g style="stroke: black;stroke-width: 1.2000000000000002;" transform="matrix(1.0, 0.0, 0.0, 1.0, 0.0, 0.0)"><path d="M 5.0 -2.0 L 5.0 2.0" style="vector-effect: non-scaling-stroke;fill:none;" /></g></g><g style="stroke: black;stroke-width: 1.2000000000000002;" transform="matrix(1.0, 0.0, 0.0, 1.0, 0.0, 0.0)"><path d="M 10.0 -2.0 L 10.0 2.0" style="vector-effect: non-scaling-stroke;fill:none;" /></g></g><g style="stroke: black;stroke-width: 1.2000000000000002;" transform="matrix(1.0, 0.0, 0.0, 1.0, 0.0, 0.0)"><path d="M 15.0 -2.0 L 15.0 2.0" style="vector-effect: non-scaling-stroke;fill:none;" /></g></g><g style="stroke: black;stroke-width: 1.2000000000000002;" transform="matrix(1.0, 0.0, 0.0, 1.0, 0.0, 0.0)"><path d="M 20.0 -2.0 L 20.0 2.0" style="vector-effect: non-scaling-stroke;fill:none;" /></g></g></g></g></g></g></g><g style="stroke: black;stroke-width: 1.2000000000000002;" transform="matrix(1.0, 0.0, 0.0, 1.0, 0.41500000000000004, 0.0)"><g /></g></g><g transform="matrix(1.0, 0.0, 0.0, 1.0, 0.43000000000000005, 0.0)"><g transform="matrix(1.0, 0.0, 0.0, 1.0, 0.075, 0.0)"><g transform="matrix(1.0, 0.0, 0.0, 1.0, 0.0, 0.03)"><g transform="matrix(0.01, 0.0, 0.0, 0.01, 0.0, 0.0)"><g><g><g transform="matrix(1.0, 0.0, 0.0, 1.0, 12.5, 0.0)"><g transform="matrix(1.0, 0.0, 0.0, 1.0, -20.0, -0.0)"><g><g style="fill: #d3d3d3;stroke: black;stroke-width: 1.2000000000000002;" transform="matrix(1.0, 0.0, 0.0, 1.0, 0.0, -3.0)"><path d="M 0.0 0.0 L 40.0 0.0 L 40.0 6.0 L 0.0 6.0 L 0.0 0.0 Z" style="vector-effect: non-scaling-stroke;" /></g><g transform="matrix(1.0, 0.0, 0.0, 1.0, 1.875, 0.0)"><g><g style="stroke: black;stroke-width: 1.2000000000000002;" transform="matrix(1.0, 0.0, 0.0, 1.0, 0.0, 0.0)"><g /></g><g style="fill: #ffa500;stroke: black;stroke-width: 1.2000000000000002;" transform="matrix(1.0, 0.0, 0.0, 1.0, 1.875, 0.0)"><text style="text-align:center; text-anchor:middle; dominant-baseline:middle;&#10;                      font-family:sans-serif; font-weight: bold;&#10;                      font-size:3px;&#10;                      vector-effect: non-scaling-stroke;" transform="translate(-5e-05, 0)">y</text></g></g></g></g></g></g><g><g><g><g style="stroke: black;stroke-width: 1.2000000000000002;" transform="matrix(1.0, 0.0, 0.0, 1.0, 0.0, 0.0)"><path d="M 0.0 -2.0 L 0.0 2.0" style="vector-effect: non-scaling-stroke;fill:none;" /></g><g style="stroke: #808080;stroke-width: 0.6000000000000001;" transform="matrix(1.0, 0.0, 0.0, 1.0, 0.0, 0.0)"><path d="M 0.0 0.0 L 25.0 0.0" style="vector-effect: non-scaling-stroke;fill:none;" /></g></g><g style="stroke: black;stroke-width: 2.4000000000000004;" transform="matrix(1.0, 0.0, 0.0, 1.0, 0.0, 0.0)"><path d="M 0.0 0.0058234576135873795 L 1.0 0.0058234576135873795 L 1.0 -1.0786224603652954 L 2.0 -1.0786224603652954 L 2.0 -0.603357195854187 L 3.0 -0.603357195854187 L 3.0 -0.774581789970398 L 4.0 -0.774581789970398 L 4.0 -0.32056427001953125 L 5.0 -0.32056427001953125 L 5.0 -0.13431136310100555 L 6.0 -0.13431136310100555 L 6.0 -0.7048913836479187 L 7.0 -0.7048913836479187 L 7.0 -0.9286437630653381 L 8.0 -0.9286437630653381 L 8.0 -0.566573441028595 L 9.0 -0.566573441028595 L 9.0 -0.8370925784111023 L 10.0 -0.8370925784111023 L 10.0 -1.097080111503601 L 11.0 -1.097080111503601 L 11.0 -1.520912528038025 L 12.0 -1.520912528038025 L 12.0 -0.42788299918174744 L 13.0 -0.42788299918174744 L 13.0 -0.9847083687782288 L 14.0 -0.9847083687782288 L 14.0 -1.7939623594284058 L 15.0 -1.7939623594284058 L 15.0 -1.3936399221420288 L 16.0 -1.3936399221420288 L 16.0 -0.647120475769043 L 17.0 -0.647120475769043 L 17.0 -1.794860601425171 L 18.0 -1.794860601425171 L 18.0 0.024191511794924736 L 19.0 0.024191511794924736 L 19.0 -0.2459212690591812 L 20.0 -0.2459212690591812 L 20.0 -1.0625756978988647 L 21.0 -1.0625756978988647 L 21.0 -0.7969610691070557 L 22.0 -0.7969610691070557 L 22.0 -1.5579208135604858 L 23.0 -1.5579208135604858 L 23.0 -0.23981119692325592 L 24.0 -0.23981119692325592 L 24.0 -0.12162651866674423 L 25.0 -0.12162651866674423" style="vector-effect: non-scaling-stroke;fill:none;" /></g></g></g></g><g><g><g><g style="stroke: black;stroke-width: 1.2000000000000002;" transform="matrix(1.0, 0.0, 0.0, 1.0, 0.0, 0.0)"><path d="M 0.0 -2.0 L 0.0 2.0" style="vector-effect: non-scaling-stroke;fill:none;" /></g><g style="stroke: #808080;stroke-width: 0.6000000000000001;" transform="matrix(1.0, 0.0, 0.0, 1.0, 0.0, 0.0)"><path d="M 0.0 0.0 L 25.0 0.0" style="vector-effect: non-scaling-stroke;fill:none;" /></g></g><g style="stroke: black;stroke-width: 2.4000000000000004;" transform="matrix(1.0, 0.0, 0.0, 1.0, 0.0, 0.0)"><path d="M 0.0 0.0058234576135873795 L 1.0 0.0058234576135873795 L 1.0 -1.0786224603652954 L 2.0 -1.0786224603652954 L 2.0 -0.603357195854187 L 3.0 -0.603357195854187 L 3.0 -0.774581789970398 L 4.0 -0.774581789970398 L 4.0 -0.32056427001953125 L 5.0 -0.32056427001953125 L 5.0 -0.13431136310100555 L 6.0 -0.13431136310100555 L 6.0 -0.7048913836479187 L 7.0 -0.7048913836479187 L 7.0 -0.9286437630653381 L 8.0 -0.9286437630653381 L 8.0 -0.566573441028595 L 9.0 -0.566573441028595 L 9.0 -0.8370925784111023 L 10.0 -0.8370925784111023 L 10.0 -1.097080111503601 L 11.0 -1.097080111503601 L 11.0 -1.520912528038025 L 12.0 -1.520912528038025 L 12.0 -0.42788299918174744 L 13.0 -0.42788299918174744 L 13.0 -0.9847083687782288 L 14.0 -0.9847083687782288 L 14.0 -1.7939623594284058 L 15.0 -1.7939623594284058 L 15.0 -1.3936399221420288 L 16.0 -1.3936399221420288 L 16.0 -0.647120475769043 L 17.0 -0.647120475769043 L 17.0 -1.794860601425171 L 18.0 -1.794860601425171 L 18.0 0.024191511794924736 L 19.0 0.024191511794924736 L 19.0 -0.2459212690591812 L 20.0 -0.2459212690591812 L 20.0 -1.0625756978988647 L 21.0 -1.0625756978988647 L 21.0 -0.7969610691070557 L 22.0 -0.7969610691070557 L 22.0 -1.5579208135604858 L 23.0 -1.5579208135604858 L 23.0 -0.23981119692325592 L 24.0 -0.23981119692325592 L 24.0 -0.12162651866674423 L 25.0 -0.12162651866674423" style="vector-effect: non-scaling-stroke;fill:none;" /></g></g></g></g></g></g></g></g></g></g><g style="stroke: black;stroke-width: 1.2000000000000002;" transform="matrix(0.0, -1.0, 1.0, 0.0, 0.0, 0.08)"><g /></g></g><g transform="matrix(1.0, 0.0, 0.0, 1.0, 0.0, 0.16)"><g transform="matrix(1.0, 0.0, 0.0, 1.0, -0.2, -0.03)"><g transform="matrix(1.0, 0.0, 0.0, 1.0, 0.075, 0.0)"><g transform="matrix(1.0, 0.0, 0.0, 1.0, 0.0, 0.03)"><g transform="matrix(0.01, 0.0, 0.0, 0.01, 0.0, 0.0)"><g><g><g transform="matrix(1.0, 0.0, 0.0, 1.0, 12.5, 0.0)"><g transform="matrix(1.0, 0.0, 0.0, 1.0, -20.0, -0.0)"><g><g style="fill: #d3d3d3;stroke: black;stroke-width: 1.2000000000000002;" transform="matrix(1.0, 0.0, 0.0, 1.0, 0.0, -3.0)"><path d="M 0.0 0.0 L 40.0 0.0 L 40.0 6.0 L 0.0 6.0 L 0.0 0.0 Z" style="vector-effect: non-scaling-stroke;" /></g><g transform="matrix(1.0, 0.0, 0.0, 1.0, 1.875, 0.0)"><g><g style="stroke: black;stroke-width: 1.2000000000000002;" transform="matrix(1.0, 0.0, 0.0, 1.0, 0.0, 0.0)"><g /></g><g style="fill: #ffa500;stroke: black;stroke-width: 1.2000000000000002;" transform="matrix(1.0, 0.0, 0.0, 1.0, 1.875, 0.0)"><text style="text-align:center; text-anchor:middle; dominant-baseline:middle;&#10;                      font-family:sans-serif; font-weight: bold;&#10;                      font-size:3px;&#10;                      vector-effect: non-scaling-stroke;" transform="translate(-5e-05, 0)">f(x)</text></g></g></g></g></g></g><g><g><g><g style="stroke: black;stroke-width: 1.2000000000000002;" transform="matrix(1.0, 0.0, 0.0, 1.0, 0.0, 0.0)"><path d="M 0.0 -2.0 L 0.0 2.0" style="vector-effect: non-scaling-stroke;fill:none;" /></g><g style="stroke: #808080;stroke-width: 0.6000000000000001;" transform="matrix(1.0, 0.0, 0.0, 1.0, 0.0, 0.0)"><path d="M 0.0 0.0 L 25.0 0.0" style="vector-effect: non-scaling-stroke;fill:none;" /></g></g><g style="stroke: black;stroke-width: 2.4000000000000004;" transform="matrix(1.0, 0.0, 0.0, 1.0, 0.0, 0.0)"><path d="M 0.0 -0.11983102560043335 L 1.0 -0.11983102560043335 L 1.0 0.012662231922149658 L 2.0 0.012662231922149658 L 2.0 -0.26277485489845276 L 3.0 -0.26277485489845276 L 3.0 0.05996658653020859 L 4.0 0.05996658653020859 L 4.0 0.06143968552350998 L 5.0 0.06143968552350998 L 5.0 -0.11436767876148224 L 6.0 -0.11436767876148224 L 6.0 -0.03772291541099548 L 7.0 -0.03772291541099548 L 7.0 -0.2618105411529541 L 8.0 -0.2618105411529541 L 8.0 0.023802006617188454 L 9.0 0.023802006617188454 L 9.0 0.0412711426615715 L 10.0 0.0412711426615715 L 10.0 -0.22591789066791534 L 11.0 -0.22591789066791534 L 11.0 -0.4212348461151123 L 12.0 -0.4212348461151123 L 12.0 -0.3028143048286438 L 13.0 -0.3028143048286438 L 13.0 -0.27053457498550415 L 14.0 -0.27053457498550415 L 14.0 -0.37919145822525024 L 15.0 -0.37919145822525024 L 15.0 -0.25726592540740967 L 16.0 -0.25726592540740967 L 16.0 -0.421891450881958 L 17.0 -0.421891450881958 L 17.0 -0.3232678174972534 L 18.0 -0.3232678174972534 L 18.0 -0.2580014169216156 L 19.0 -0.2580014169216156 L 19.0 -0.3251747786998749 L 20.0 -0.3251747786998749 L 20.0 -0.2851898670196533 L 21.0 -0.2851898670196533 L 21.0 -0.3193010687828064 L 22.0 -0.3193010687828064 L 22.0 -0.4961612820625305 L 23.0 -0.4961612820625305 L 23.0 -0.1607203483581543 L 24.0 -0.1607203483581543 L 24.0 -0.24528701603412628 L 25.0 -0.24528701603412628" style="vector-effect: non-scaling-stroke;fill:none;" /></g></g></g></g><g><g><g><g style="stroke: black;stroke-width: 1.2000000000000002;" transform="matrix(1.0, 0.0, 0.0, 1.0, 0.0, 0.0)"><path d="M 0.0 -2.0 L 0.0 2.0" style="vector-effect: non-scaling-stroke;fill:none;" /></g><g style="stroke: #808080;stroke-width: 0.6000000000000001;" transform="matrix(1.0, 0.0, 0.0, 1.0, 0.0, 0.0)"><path d="M 0.0 0.0 L 25.0 0.0" style="vector-effect: non-scaling-stroke;fill:none;" /></g></g><g style="stroke: black;stroke-width: 2.4000000000000004;" transform="matrix(1.0, 0.0, 0.0, 1.0, 0.0, 0.0)"><path d="M 0.0 -0.11983102560043335 L 1.0 -0.11983102560043335 L 1.0 0.012662231922149658 L 2.0 0.012662231922149658 L 2.0 -0.26277485489845276 L 3.0 -0.26277485489845276 L 3.0 0.05996658653020859 L 4.0 0.05996658653020859 L 4.0 0.06143968552350998 L 5.0 0.06143968552350998 L 5.0 -0.11436767876148224 L 6.0 -0.11436767876148224 L 6.0 -0.03772291541099548 L 7.0 -0.03772291541099548 L 7.0 -0.2618105411529541 L 8.0 -0.2618105411529541 L 8.0 0.023802006617188454 L 9.0 0.023802006617188454 L 9.0 0.0412711426615715 L 10.0 0.0412711426615715 L 10.0 -0.22591789066791534 L 11.0 -0.22591789066791534 L 11.0 -0.4212348461151123 L 12.0 -0.4212348461151123 L 12.0 -0.3028143048286438 L 13.0 -0.3028143048286438 L 13.0 -0.27053457498550415 L 14.0 -0.27053457498550415 L 14.0 -0.37919145822525024 L 15.0 -0.37919145822525024 L 15.0 -0.25726592540740967 L 16.0 -0.25726592540740967 L 16.0 -0.421891450881958 L 17.0 -0.421891450881958 L 17.0 -0.3232678174972534 L 18.0 -0.3232678174972534 L 18.0 -0.2580014169216156 L 19.0 -0.2580014169216156 L 19.0 -0.3251747786998749 L 20.0 -0.3251747786998749 L 20.0 -0.2851898670196533 L 21.0 -0.2851898670196533 L 21.0 -0.3193010687828064 L 22.0 -0.3193010687828064 L 22.0 -0.4961612820625305 L 23.0 -0.4961612820625305 L 23.0 -0.1607203483581543 L 24.0 -0.1607203483581543 L 24.0 -0.24528701603412628 L 25.0 -0.24528701603412628" style="vector-effect: non-scaling-stroke;fill:none;" /></g></g></g></g></g></g></g></g></g></g><g transform="matrix(1.0, 0.0, 0.0, 1.0, -0.125, 0.16)"><g transform="matrix(1.0, 0.0, 0.0, 0.009999999999999995, 0.0, 0.0)"><g transform="matrix(0.01, 0.0, 0.0, 1.0, 0.0, 0.0)"><g><g><g style="fill: #ffffe0;stroke: #ffffe0;stroke-width: 1.2000000000000002;fill-opacity: 0.5;" transform="matrix(1.0, 0.0, 0.0, 1.0, 0.0, 0.0)"><path d="M 0.0 -2.0 L 0.0 2.0" style="vector-effect: non-scaling-stroke;fill:none;" /></g><g style="fill: #ffffe0;stroke: #ffffe0;stroke-width: 1.2000000000000002;fill-opacity: 0.5;" transform="matrix(1.0, 0.0, 0.0, 1.0, 0.0, 0.0)"><path d="M 0.0 -0.8596736788749695 L 1.0 -0.8596736788749695 L 1.0 -0.9385907053947449 L 2.0 -0.9385907053947449 L 2.0 -1.3237375020980835 L 3.0 -1.3237375020980835 L 3.0 -0.4481630027294159 L 4.0 -0.4481630027294159 L 4.0 -0.6020345091819763 L 5.0 -0.6020345091819763 L 5.0 -0.8489949107170105 L 6.0 -0.8489949107170105 L 6.0 -0.9891620874404907 L 7.0 -0.9891620874404907 L 7.0 -1.3317139148712158 L 8.0 -1.3317139148712158 L 8.0 -0.4845138490200043 L 9.0 -0.4845138490200043 L 9.0 -0.6218305230140686 L 10.0 -0.6218305230140686 L 10.0 -0.9575648903846741 L 11.0 -0.9575648903846741 L 11.0 -1.3719289302825928 L 12.0 -1.3719289302825928 L 12.0 -1.3607966899871826 L 13.0 -1.3607966899871826 L 13.0 -0.7831345200538635 L 14.0 -0.7831345200538635 L 14.0 -1.0348424911499023 L 15.0 -1.0348424911499023 L 15.0 -0.9933832883834839 L 16.0 -0.9933832883834839 L 16.0 -1.3606646060943604 L 17.0 -1.3606646060943604 L 17.0 -1.3901909589767456 L 18.0 -1.3901909589767456 L 18.0 -0.7706013917922974 L 19.0 -0.7706013917922974 L 19.0 -0.9927468299865723 L 20.0 -0.9927468299865723 L 20.0 -1.0302479267120361 L 21.0 -1.0302479267120361 L 21.0 -1.2729754447937012 L 22.0 -1.2729754447937012 L 22.0 -1.5660645961761475 L 23.0 -1.5660645961761475 L 23.0 -0.6733202934265137 L 24.0 -0.6733202934265137 L 24.0 -0.9039183259010315 L 25.0 -0.9039183259010315 L 25.0 -0.24528701603412628 L 24.0 -0.24528701603412628 L 24.0 -0.1607203483581543 L 23.0 -0.1607203483581543 L 23.0 -0.4961612820625305 L 22.0 -0.4961612820625305 L 22.0 -0.3193010687828064 L 21.0 -0.3193010687828064 L 21.0 -0.2851898670196533 L 20.0 -0.2851898670196533 L 20.0 -0.3251747786998749 L 19.0 -0.3251747786998749 L 19.0 -0.2580014169216156 L 18.0 -0.2580014169216156 L 18.0 -0.3232678174972534 L 17.0 -0.3232678174972534 L 17.0 -0.421891450881958 L 16.0 -0.421891450881958 L 16.0 -0.25726592540740967 L 15.0 -0.25726592540740967 L 15.0 -0.37919145822525024 L 14.0 -0.37919145822525024 L 14.0 -0.27053457498550415 L 13.0 -0.27053457498550415 L 13.0 -0.3028143048286438 L 12.0 -0.3028143048286438 L 12.0 -0.4212348461151123 L 11.0 -0.4212348461151123 L 11.0 -0.22591789066791534 L 10.0 -0.22591789066791534 L 10.0 0.0412711426615715 L 9.0 0.0412711426615715 L 9.0 0.023802006617188454 L 8.0 0.023802006617188454 L 8.0 -0.2618105411529541 L 7.0 -0.2618105411529541 L 7.0 -0.03772291541099548 L 6.0 -0.03772291541099548 L 6.0 -0.11436767876148224 L 5.0 -0.11436767876148224 L 5.0 0.06143968552350998 L 4.0 0.06143968552350998 L 4.0 0.05996658653020859 L 3.0 0.05996658653020859 L 3.0 -0.26277485489845276 L 2.0 -0.26277485489845276 L 2.0 0.012662231922149658 L 1.0 0.012662231922149658 L 1.0 -0.11983102560043335 L 0.0 -0.11983102560043335 Z" style="vector-effect: non-scaling-stroke;" /></g></g><g style="stroke: black;stroke-width: 1.2000000000000002;" transform="matrix(1.0, 0.0, 0.0, 1.0, 0.0, 0.0)"><path d="M 0.0 -0.11983102560043335 L 1.0 -0.11983102560043335 L 1.0 0.012662231922149658 L 2.0 0.012662231922149658 L 2.0 -0.26277485489845276 L 3.0 -0.26277485489845276 L 3.0 0.05996658653020859 L 4.0 0.05996658653020859 L 4.0 0.06143968552350998 L 5.0 0.06143968552350998 L 5.0 -0.11436767876148224 L 6.0 -0.11436767876148224 L 6.0 -0.03772291541099548 L 7.0 -0.03772291541099548 L 7.0 -0.2618105411529541 L 8.0 -0.2618105411529541 L 8.0 0.023802006617188454 L 9.0 0.023802006617188454 L 9.0 0.0412711426615715 L 10.0 0.0412711426615715 L 10.0 -0.22591789066791534 L 11.0 -0.22591789066791534 L 11.0 -0.4212348461151123 L 12.0 -0.4212348461151123 L 12.0 -0.3028143048286438 L 13.0 -0.3028143048286438 L 13.0 -0.27053457498550415 L 14.0 -0.27053457498550415 L 14.0 -0.37919145822525024 L 15.0 -0.37919145822525024 L 15.0 -0.25726592540740967 L 16.0 -0.25726592540740967 L 16.0 -0.421891450881958 L 17.0 -0.421891450881958 L 17.0 -0.3232678174972534 L 18.0 -0.3232678174972534 L 18.0 -0.2580014169216156 L 19.0 -0.2580014169216156 L 19.0 -0.3251747786998749 L 20.0 -0.3251747786998749 L 20.0 -0.2851898670196533 L 21.0 -0.2851898670196533 L 21.0 -0.3193010687828064 L 22.0 -0.3193010687828064 L 22.0 -0.4961612820625305 L 23.0 -0.4961612820625305 L 23.0 -0.1607203483581543 L 24.0 -0.1607203483581543 L 24.0 -0.24528701603412628 L 25.0 -0.24528701603412628" style="vector-effect: non-scaling-stroke;fill:none;" /></g></g></g></g></g></g><g transform="matrix(1.0, 0.0, 0.0, 1.0, -0.125, 0.16)"><g transform="matrix(1.0, 0.0, 0.0, 0.009999999999999995, 0.0, 0.0)"><g transform="matrix(0.01, 0.0, 0.0, 1.0, 0.0, 0.0)"><g><g><g style="fill: #add8e6;stroke: #add8e6;stroke-width: 1.2000000000000002;fill-opacity: 0.5;" transform="matrix(1.0, 0.0, 0.0, 1.0, 0.0, 0.0)"><path d="M 0.0 -2.0 L 0.0 2.0" style="vector-effect: non-scaling-stroke;fill:none;" /></g><g style="fill: #add8e6;stroke: #add8e6;stroke-width: 1.2000000000000002;fill-opacity: 0.5;" transform="matrix(1.0, 0.0, 0.0, 1.0, 0.0, 0.0)"><path d="M 0.0 -0.3135461211204529 L 1.0 -0.3135461211204529 L 1.0 -0.17919021844863892 L 2.0 -0.17919021844863892 L 2.0 -0.4505294859409332 L 3.0 -0.4505294859409332 L 3.0 -0.131140798330307 L 4.0 -0.131140798330307 L 4.0 -0.12929517030715942 L 5.0 -0.12929517030715942 L 5.0 -0.37439292669296265 L 6.0 -0.37439292669296265 L 6.0 -0.29886576533317566 L 7.0 -0.29886576533317566 L 7.0 -0.5300314426422119 L 8.0 -0.5300314426422119 L 8.0 -0.2358507215976715 L 9.0 -0.2358507215976715 L 9.0 -0.21726399660110474 L 10.0 -0.21726399660110474 L 10.0 -1.0112091302871704 L 11.0 -1.0112091302871704 L 11.0 -1.210996389389038 L 12.0 -1.210996389389038 L 12.0 -1.0836350917816162 L 13.0 -1.0836350917816162 L 13.0 -1.0632762908935547 L 14.0 -1.0632762908935547 L 14.0 -1.1540517807006836 L 15.0 -1.1540517807006836 L 15.0 -1.0261658430099487 L 16.0 -1.0261658430099487 L 16.0 -1.178870439529419 L 17.0 -1.178870439529419 L 17.0 -1.0921677350997925 L 18.0 -1.0921677350997925 L 18.0 -1.026901364326477 L 19.0 -1.026901364326477 L 19.0 -1.1000351905822754 L 20.0 -1.1000351905822754 L 20.0 -1.107733964920044 L 21.0 -1.107733964920044 L 21.0 -1.1329045295715332 L 22.0 -1.1329045295715332 L 22.0 -1.3127448558807373 L 23.0 -1.3127448558807373 L 23.0 -0.9802842140197754 L 24.0 -0.9802842140197754 L 24.0 -1.0559102296829224 L 25.0 -1.0559102296829224 L 25.0 -0.24528701603412628 L 24.0 -0.24528701603412628 L 24.0 -0.1607203483581543 L 23.0 -0.1607203483581543 L 23.0 -0.4961612820625305 L 22.0 -0.4961612820625305 L 22.0 -0.3193010687828064 L 21.0 -0.3193010687828064 L 21.0 -0.2851898670196533 L 20.0 -0.2851898670196533 L 20.0 -0.3251747786998749 L 19.0 -0.3251747786998749 L 19.0 -0.2580014169216156 L 18.0 -0.2580014169216156 L 18.0 -0.3232678174972534 L 17.0 -0.3232678174972534 L 17.0 -0.421891450881958 L 16.0 -0.421891450881958 L 16.0 -0.25726592540740967 L 15.0 -0.25726592540740967 L 15.0 -0.37919145822525024 L 14.0 -0.37919145822525024 L 14.0 -0.27053457498550415 L 13.0 -0.27053457498550415 L 13.0 -0.3028143048286438 L 12.0 -0.3028143048286438 L 12.0 -0.4212348461151123 L 11.0 -0.4212348461151123 L 11.0 -0.22591789066791534 L 10.0 -0.22591789066791534 L 10.0 0.0412711426615715 L 9.0 0.0412711426615715 L 9.0 0.023802006617188454 L 8.0 0.023802006617188454 L 8.0 -0.2618105411529541 L 7.0 -0.2618105411529541 L 7.0 -0.03772291541099548 L 6.0 -0.03772291541099548 L 6.0 -0.11436767876148224 L 5.0 -0.11436767876148224 L 5.0 0.06143968552350998 L 4.0 0.06143968552350998 L 4.0 0.05996658653020859 L 3.0 0.05996658653020859 L 3.0 -0.26277485489845276 L 2.0 -0.26277485489845276 L 2.0 0.012662231922149658 L 1.0 0.012662231922149658 L 1.0 -0.11983102560043335 L 0.0 -0.11983102560043335 Z" style="vector-effect: non-scaling-stroke;" /></g></g><g style="stroke: black;stroke-width: 1.2000000000000002;" transform="matrix(1.0, 0.0, 0.0, 1.0, 0.0, 0.0)"><path d="M 0.0 -0.11983102560043335 L 1.0 -0.11983102560043335 L 1.0 0.012662231922149658 L 2.0 0.012662231922149658 L 2.0 -0.26277485489845276 L 3.0 -0.26277485489845276 L 3.0 0.05996658653020859 L 4.0 0.05996658653020859 L 4.0 0.06143968552350998 L 5.0 0.06143968552350998 L 5.0 -0.11436767876148224 L 6.0 -0.11436767876148224 L 6.0 -0.03772291541099548 L 7.0 -0.03772291541099548 L 7.0 -0.2618105411529541 L 8.0 -0.2618105411529541 L 8.0 0.023802006617188454 L 9.0 0.023802006617188454 L 9.0 0.0412711426615715 L 10.0 0.0412711426615715 L 10.0 -0.22591789066791534 L 11.0 -0.22591789066791534 L 11.0 -0.4212348461151123 L 12.0 -0.4212348461151123 L 12.0 -0.3028143048286438 L 13.0 -0.3028143048286438 L 13.0 -0.27053457498550415 L 14.0 -0.27053457498550415 L 14.0 -0.37919145822525024 L 15.0 -0.37919145822525024 L 15.0 -0.25726592540740967 L 16.0 -0.25726592540740967 L 16.0 -0.421891450881958 L 17.0 -0.421891450881958 L 17.0 -0.3232678174972534 L 18.0 -0.3232678174972534 L 18.0 -0.2580014169216156 L 19.0 -0.2580014169216156 L 19.0 -0.3251747786998749 L 20.0 -0.3251747786998749 L 20.0 -0.2851898670196533 L 21.0 -0.2851898670196533 L 21.0 -0.3193010687828064 L 22.0 -0.3193010687828064 L 22.0 -0.4961612820625305 L 23.0 -0.4961612820625305 L 23.0 -0.1607203483581543 L 24.0 -0.1607203483581543 L 24.0 -0.24528701603412628 L 25.0 -0.24528701603412628" style="vector-effect: non-scaling-stroke;fill:none;" /></g></g></g></g></g></g><g transform="matrix(1.0, 0.0, 0.0, 1.0, -0.125, 0.16)"><g transform="matrix(1.0, 0.0, 0.0, 0.009999999999999995, 0.0, 0.0)"><g transform="matrix(0.01, 0.0, 0.0, 1.0, 0.0, 0.0)"><g><g><g style="fill: #ff8c00;stroke: #ff8c00;stroke-width: 1.2000000000000002;fill-opacity: 0.5;" transform="matrix(1.0, 0.0, 0.0, 1.0, 0.0, 0.0)"><path d="M 0.0 -2.0 L 0.0 2.0" style="vector-effect: non-scaling-stroke;fill:none;" /></g><g style="fill: #ff8c00;stroke: #ff8c00;stroke-width: 1.2000000000000002;fill-opacity: 0.5;" transform="matrix(1.0, 0.0, 0.0, 1.0, 0.0, 0.0)"><path d="M 0.0 -0.11983102560043335 L 1.0 -0.11983102560043335 L 1.0 0.012662231922149658 L 2.0 0.012662231922149658 L 2.0 -0.26277485489845276 L 3.0 -0.26277485489845276 L 3.0 0.05996658653020859 L 4.0 0.05996658653020859 L 4.0 0.06143968552350998 L 5.0 0.06143968552350998 L 5.0 -0.11436767876148224 L 6.0 -0.11436767876148224 L 6.0 -0.03772291541099548 L 7.0 -0.03772291541099548 L 7.0 -0.2618105411529541 L 8.0 -0.2618105411529541 L 8.0 0.023802006617188454 L 9.0 0.023802006617188454 L 9.0 0.0412711426615715 L 10.0 0.0412711426615715 L 10.0 -0.22591789066791534 L 11.0 -0.22591789066791534 L 11.0 -0.4212348461151123 L 12.0 -0.4212348461151123 L 12.0 -0.3028143048286438 L 13.0 -0.3028143048286438 L 13.0 -0.27053457498550415 L 14.0 -0.27053457498550415 L 14.0 -0.37919145822525024 L 15.0 -0.37919145822525024 L 15.0 -0.25726592540740967 L 16.0 -0.25726592540740967 L 16.0 -0.421891450881958 L 17.0 -0.421891450881958 L 17.0 -0.3232678174972534 L 18.0 -0.3232678174972534 L 18.0 -0.2580014169216156 L 19.0 -0.2580014169216156 L 19.0 -0.3251747786998749 L 20.0 -0.3251747786998749 L 20.0 -0.2851898670196533 L 21.0 -0.2851898670196533 L 21.0 -0.3193010687828064 L 22.0 -0.3193010687828064 L 22.0 -0.4961612820625305 L 23.0 -0.4961612820625305 L 23.0 -0.1607203483581543 L 24.0 -0.1607203483581543 L 24.0 -0.24528701603412628 L 25.0 -0.24528701603412628 L 25.0 -0.24528701603412628 L 24.0 -0.24528701603412628 L 24.0 -0.1607203483581543 L 23.0 -0.1607203483581543 L 23.0 -0.4961612820625305 L 22.0 -0.4961612820625305 L 22.0 -0.3193010687828064 L 21.0 -0.3193010687828064 L 21.0 -0.2851898670196533 L 20.0 -0.2851898670196533 L 20.0 -0.3251747786998749 L 19.0 -0.3251747786998749 L 19.0 -0.2580014169216156 L 18.0 -0.2580014169216156 L 18.0 -0.3232678174972534 L 17.0 -0.3232678174972534 L 17.0 -0.421891450881958 L 16.0 -0.421891450881958 L 16.0 -0.25726592540740967 L 15.0 -0.25726592540740967 L 15.0 -0.37919145822525024 L 14.0 -0.37919145822525024 L 14.0 -0.27053457498550415 L 13.0 -0.27053457498550415 L 13.0 -0.3028143048286438 L 12.0 -0.3028143048286438 L 12.0 -0.4212348461151123 L 11.0 -0.4212348461151123 L 11.0 -0.22591789066791534 L 10.0 -0.22591789066791534 L 10.0 0.0412711426615715 L 9.0 0.0412711426615715 L 9.0 0.023802006617188454 L 8.0 0.023802006617188454 L 8.0 -0.2618105411529541 L 7.0 -0.2618105411529541 L 7.0 -0.03772291541099548 L 6.0 -0.03772291541099548 L 6.0 -0.11436767876148224 L 5.0 -0.11436767876148224 L 5.0 0.06143968552350998 L 4.0 0.06143968552350998 L 4.0 0.05996658653020859 L 3.0 0.05996658653020859 L 3.0 -0.26277485489845276 L 2.0 -0.26277485489845276 L 2.0 0.012662231922149658 L 1.0 0.012662231922149658 L 1.0 -0.11983102560043335 L 0.0 -0.11983102560043335 Z" style="vector-effect: non-scaling-stroke;" /></g></g><g style="stroke: black;stroke-width: 1.2000000000000002;" transform="matrix(1.0, 0.0, 0.0, 1.0, 0.0, 0.0)"><path d="M 0.0 -0.11983102560043335 L 1.0 -0.11983102560043335 L 1.0 0.012662231922149658 L 2.0 0.012662231922149658 L 2.0 -0.26277485489845276 L 3.0 -0.26277485489845276 L 3.0 0.05996658653020859 L 4.0 0.05996658653020859 L 4.0 0.06143968552350998 L 5.0 0.06143968552350998 L 5.0 -0.11436767876148224 L 6.0 -0.11436767876148224 L 6.0 -0.03772291541099548 L 7.0 -0.03772291541099548 L 7.0 -0.2618105411529541 L 8.0 -0.2618105411529541 L 8.0 0.023802006617188454 L 9.0 0.023802006617188454 L 9.0 0.0412711426615715 L 10.0 0.0412711426615715 L 10.0 -0.22591789066791534 L 11.0 -0.22591789066791534 L 11.0 -0.4212348461151123 L 12.0 -0.4212348461151123 L 12.0 -0.3028143048286438 L 13.0 -0.3028143048286438 L 13.0 -0.27053457498550415 L 14.0 -0.27053457498550415 L 14.0 -0.37919145822525024 L 15.0 -0.37919145822525024 L 15.0 -0.25726592540740967 L 16.0 -0.25726592540740967 L 16.0 -0.421891450881958 L 17.0 -0.421891450881958 L 17.0 -0.3232678174972534 L 18.0 -0.3232678174972534 L 18.0 -0.2580014169216156 L 19.0 -0.2580014169216156 L 19.0 -0.3251747786998749 L 20.0 -0.3251747786998749 L 20.0 -0.2851898670196533 L 21.0 -0.2851898670196533 L 21.0 -0.3193010687828064 L 22.0 -0.3193010687828064 L 22.0 -0.4961612820625305 L 23.0 -0.4961612820625305 L 23.0 -0.1607203483581543 L 24.0 -0.1607203483581543 L 24.0 -0.24528701603412628 L 25.0 -0.24528701603412628" style="vector-effect: non-scaling-stroke;fill:none;" /></g></g></g></g></g></g><g transform="matrix(1.0, 0.0, 0.0, 1.0, -0.125, 0.16)"><g transform="matrix(1.0, 0.0, 0.0, 0.009999999999999995, 0.0, 0.0)"><g transform="matrix(0.01, 0.0, 0.0, 1.0, 0.0, 0.0)"><g><g><g style="fill: #0000ff;stroke: #0000ff;stroke-width: 1.2000000000000002;fill-opacity: 0.5;" transform="matrix(1.0, 0.0, 0.0, 1.0, 0.0, 0.0)"><path d="M 0.0 -2.0 L 0.0 2.0" style="vector-effect: non-scaling-stroke;fill:none;" /></g><g style="fill: #0000ff;stroke: #0000ff;stroke-width: 1.2000000000000002;fill-opacity: 0.5;" transform="matrix(1.0, 0.0, 0.0, 1.0, 0.0, 0.0)"><path d="M 0.0 -0.11983102560043335 L 1.0 -0.11983102560043335 L 1.0 0.012662231922149658 L 2.0 0.012662231922149658 L 2.0 -0.26277485489845276 L 3.0 -0.26277485489845276 L 3.0 0.05996658653020859 L 4.0 0.05996658653020859 L 4.0 0.06143968552350998 L 5.0 0.06143968552350998 L 5.0 -0.11436767876148224 L 6.0 -0.11436767876148224 L 6.0 -0.03772291541099548 L 7.0 -0.03772291541099548 L 7.0 -0.2618105411529541 L 8.0 -0.2618105411529541 L 8.0 0.023802006617188454 L 9.0 0.023802006617188454 L 9.0 0.0412711426615715 L 10.0 0.0412711426615715 L 10.0 -0.22591789066791534 L 11.0 -0.22591789066791534 L 11.0 -0.4212348461151123 L 12.0 -0.4212348461151123 L 12.0 -0.3028143048286438 L 13.0 -0.3028143048286438 L 13.0 -0.27053457498550415 L 14.0 -0.27053457498550415 L 14.0 -0.37919145822525024 L 15.0 -0.37919145822525024 L 15.0 -0.25726592540740967 L 16.0 -0.25726592540740967 L 16.0 -0.421891450881958 L 17.0 -0.421891450881958 L 17.0 -0.3232678174972534 L 18.0 -0.3232678174972534 L 18.0 -0.2580014169216156 L 19.0 -0.2580014169216156 L 19.0 -0.3251747786998749 L 20.0 -0.3251747786998749 L 20.0 -0.2851898670196533 L 21.0 -0.2851898670196533 L 21.0 -0.3193010687828064 L 22.0 -0.3193010687828064 L 22.0 -0.4961612820625305 L 23.0 -0.4961612820625305 L 23.0 -0.1607203483581543 L 24.0 -0.1607203483581543 L 24.0 -0.24528701603412628 L 25.0 -0.24528701603412628 L 25.0 -0.24528701603412628 L 24.0 -0.24528701603412628 L 24.0 -0.1607203483581543 L 23.0 -0.1607203483581543 L 23.0 -0.4961612820625305 L 22.0 -0.4961612820625305 L 22.0 -0.3193010687828064 L 21.0 -0.3193010687828064 L 21.0 -0.2851898670196533 L 20.0 -0.2851898670196533 L 20.0 -0.3251747786998749 L 19.0 -0.3251747786998749 L 19.0 -0.2580014169216156 L 18.0 -0.2580014169216156 L 18.0 -0.3232678174972534 L 17.0 -0.3232678174972534 L 17.0 -0.421891450881958 L 16.0 -0.421891450881958 L 16.0 -0.25726592540740967 L 15.0 -0.25726592540740967 L 15.0 -0.37919145822525024 L 14.0 -0.37919145822525024 L 14.0 -0.27053457498550415 L 13.0 -0.27053457498550415 L 13.0 -0.3028143048286438 L 12.0 -0.3028143048286438 L 12.0 -0.4212348461151123 L 11.0 -0.4212348461151123 L 11.0 -0.22591789066791534 L 10.0 -0.22591789066791534 L 10.0 0.0412711426615715 L 9.0 0.0412711426615715 L 9.0 0.023802006617188454 L 8.0 0.023802006617188454 L 8.0 -0.2618105411529541 L 7.0 -0.2618105411529541 L 7.0 -0.03772291541099548 L 6.0 -0.03772291541099548 L 6.0 -0.11436767876148224 L 5.0 -0.11436767876148224 L 5.0 0.06143968552350998 L 4.0 0.06143968552350998 L 4.0 0.05996658653020859 L 3.0 0.05996658653020859 L 3.0 -0.26277485489845276 L 2.0 -0.26277485489845276 L 2.0 0.012662231922149658 L 1.0 0.012662231922149658 L 1.0 -0.11983102560043335 L 0.0 -0.11983102560043335 Z" style="vector-effect: non-scaling-stroke;" /></g></g><g style="stroke: black;stroke-width: 1.2000000000000002;" transform="matrix(1.0, 0.0, 0.0, 1.0, 0.0, 0.0)"><path d="M 0.0 -0.11983102560043335 L 1.0 -0.11983102560043335 L 1.0 0.012662231922149658 L 2.0 0.012662231922149658 L 2.0 -0.26277485489845276 L 3.0 -0.26277485489845276 L 3.0 0.05996658653020859 L 4.0 0.05996658653020859 L 4.0 0.06143968552350998 L 5.0 0.06143968552350998 L 5.0 -0.11436767876148224 L 6.0 -0.11436767876148224 L 6.0 -0.03772291541099548 L 7.0 -0.03772291541099548 L 7.0 -0.2618105411529541 L 8.0 -0.2618105411529541 L 8.0 0.023802006617188454 L 9.0 0.023802006617188454 L 9.0 0.0412711426615715 L 10.0 0.0412711426615715 L 10.0 -0.22591789066791534 L 11.0 -0.22591789066791534 L 11.0 -0.4212348461151123 L 12.0 -0.4212348461151123 L 12.0 -0.3028143048286438 L 13.0 -0.3028143048286438 L 13.0 -0.27053457498550415 L 14.0 -0.27053457498550415 L 14.0 -0.37919145822525024 L 15.0 -0.37919145822525024 L 15.0 -0.25726592540740967 L 16.0 -0.25726592540740967 L 16.0 -0.421891450881958 L 17.0 -0.421891450881958 L 17.0 -0.3232678174972534 L 18.0 -0.3232678174972534 L 18.0 -0.2580014169216156 L 19.0 -0.2580014169216156 L 19.0 -0.3251747786998749 L 20.0 -0.3251747786998749 L 20.0 -0.2851898670196533 L 21.0 -0.2851898670196533 L 21.0 -0.3193010687828064 L 22.0 -0.3193010687828064 L 22.0 -0.4961612820625305 L 23.0 -0.4961612820625305 L 23.0 -0.1607203483581543 L 24.0 -0.1607203483581543 L 24.0 -0.24528701603412628 L 25.0 -0.24528701603412628" style="vector-effect: non-scaling-stroke;fill:none;" /></g></g></g></g></g></g></g></g><g><g><g><g><g><g><g transform="matrix(1.0, 0.0, 0.0, 1.0, -0.41500000000000004, -0.03)"><g><g><g transform="matrix(1.0, 0.0, 0.0, 1.0, 0.075, 0.0)"><g transform="matrix(1.0, 0.0, 0.0, 1.0, 0.0, 0.03)"><g transform="matrix(0.01, 0.0, 0.0, 0.01, 0.0, 0.0)"><g><g><g transform="matrix(1.0, 0.0, 0.0, 1.0, 12.5, 0.0)"><g transform="matrix(1.0, 0.0, 0.0, 1.0, -20.0, -0.0)"><g><g style="fill: #d3d3d3;stroke: black;stroke-width: 1.2000000000000002;" transform="matrix(1.0, 0.0, 0.0, 1.0, 0.0, -3.0)"><path d="M 0.0 0.0 L 40.0 0.0 L 40.0 6.0 L 0.0 6.0 L 0.0 0.0 Z" style="vector-effect: non-scaling-stroke;" /></g><g transform="matrix(1.0, 0.0, 0.0, 1.0, 1.875, 0.0)"><g><g style="stroke: black;stroke-width: 1.2000000000000002;" transform="matrix(1.0, 0.0, 0.0, 1.0, 0.0, 0.0)"><g /></g><g style="fill: #ffa500;stroke: black;stroke-width: 1.2000000000000002;" transform="matrix(1.0, 0.0, 0.0, 1.0, 1.875, 0.0)"><text style="text-align:center; text-anchor:middle; dominant-baseline:middle;&#10;                      font-family:sans-serif; font-weight: bold;&#10;                      font-size:3px;&#10;                      vector-effect: non-scaling-stroke;" transform="translate(-5e-05, 0)">x</text></g></g></g></g></g></g><g><g><g><g><g><g><g><g><g style="stroke: black;stroke-width: 1.2000000000000002;" transform="matrix(1.0, 0.0, 0.0, 1.0, 0.0, 0.0)"><path d="M 0.0 -2.0 L 0.0 2.0" style="vector-effect: non-scaling-stroke;fill:none;" /></g><g style="stroke: #808080;stroke-width: 0.6000000000000001;" transform="matrix(1.0, 0.0, 0.0, 1.0, 0.0, 0.0)"><path d="M 0.0 0.0 L 25.0 0.0" style="vector-effect: non-scaling-stroke;fill:none;" /></g></g><g style="stroke: black;stroke-width: 2.4000000000000004;" transform="matrix(1.0, 0.0, 0.0, 1.0, 0.0, 0.0)"><path d="M 0.0 0.6294554471969604 L 1.0 0.6294554471969604 L 1.0 -0.7630185484886169 L 2.0 -0.7630185484886169 L 2.0 0.7423406839370728 L 3.0 0.7423406839370728 L 3.0 -0.7195001244544983 L 4.0 -0.7195001244544983 L 4.0 -0.8506177663803101 L 5.0 -0.8506177663803101 L 5.0 -0.04162389412522316 L 6.0 -0.04162389412522316 L 6.0 -0.5394607186317444 L 7.0 -0.5394607186317444 L 7.0 0.6511825919151306 L 8.0 0.6511825919151306 L 8.0 -0.9970746040344238 L 9.0 -0.9970746040344238 L 9.0 -0.3729616403579712 L 10.0 -0.3729616403579712 L 10.0 -1.1159924268722534 L 11.0 -1.1159924268722534 L 11.0 -1.0723556280136108 L 12.0 -1.0723556280136108 L 12.0 -1.3392082452774048 L 13.0 -1.3392082452774048 L 13.0 -0.686776876449585 L 14.0 -0.686776876449585 L 14.0 0.2867467999458313 L 15.0 0.2867467999458313 L 15.0 -1.0087007284164429 L 16.0 -1.0087007284164429 L 16.0 -0.554456353187561 L 17.0 -0.554456353187561 L 17.0 -1.2993707656860352 L 18.0 -1.2993707656860352 L 18.0 -0.1132640615105629 L 19.0 -0.1132640615105629 L 19.0 -0.8664798736572266 L 20.0 -0.8664798736572266 L 20.0 -0.1250760704278946 L 21.0 -0.1250760704278946 L 21.0 -1.7989071607589722 L 22.0 -1.7989071607589722 L 22.0 -0.3140564560890198 L 23.0 -0.3140564560890198 L 23.0 -0.9732550978660583 L 24.0 -0.9732550978660583 L 24.0 -0.8565048575401306 L 25.0 -0.8565048575401306" style="vector-effect: non-scaling-stroke;fill:none;" /></g></g><g style="stroke: black;stroke-width: 1.2000000000000002;" transform="matrix(1.0, 0.0, 0.0, 1.0, 0.0, 0.0)"><path d="M 0.0 -2.0 L 0.0 2.0" style="vector-effect: non-scaling-stroke;fill:none;" /></g></g><g style="stroke: black;stroke-width: 1.2000000000000002;" transform="matrix(1.0, 0.0, 0.0, 1.0, 0.0, 0.0)"><path d="M 5.0 -2.0 L 5.0 2.0" style="vector-effect: non-scaling-stroke;fill:none;" /></g></g><g style="stroke: black;stroke-width: 1.2000000000000002;" transform="matrix(1.0, 0.0, 0.0, 1.0, 0.0, 0.0)"><path d="M 10.0 -2.0 L 10.0 2.0" style="vector-effect: non-scaling-stroke;fill:none;" /></g></g><g style="stroke: black;stroke-width: 1.2000000000000002;" transform="matrix(1.0, 0.0, 0.0, 1.0, 0.0, 0.0)"><path d="M 15.0 -2.0 L 15.0 2.0" style="vector-effect: non-scaling-stroke;fill:none;" /></g></g><g style="stroke: black;stroke-width: 1.2000000000000002;" transform="matrix(1.0, 0.0, 0.0, 1.0, 0.0, 0.0)"><path d="M 20.0 -2.0 L 20.0 2.0" style="vector-effect: non-scaling-stroke;fill:none;" /></g></g></g></g><g><g><g><g><g><g><g><g><g style="stroke: black;stroke-width: 1.2000000000000002;" transform="matrix(1.0, 0.0, 0.0, 1.0, 0.0, 0.0)"><path d="M 0.0 -2.0 L 0.0 2.0" style="vector-effect: non-scaling-stroke;fill:none;" /></g><g style="stroke: #808080;stroke-width: 0.6000000000000001;" transform="matrix(1.0, 0.0, 0.0, 1.0, 0.0, 0.0)"><path d="M 0.0 0.0 L 25.0 0.0" style="vector-effect: non-scaling-stroke;fill:none;" /></g></g><g style="stroke: black;stroke-width: 2.4000000000000004;" transform="matrix(1.0, 0.0, 0.0, 1.0, 0.0, 0.0)"><path d="M 0.0 0.6294554471969604 L 1.0 0.6294554471969604 L 1.0 -0.7630185484886169 L 2.0 -0.7630185484886169 L 2.0 0.7423406839370728 L 3.0 0.7423406839370728 L 3.0 -0.7195001244544983 L 4.0 -0.7195001244544983 L 4.0 -0.8506177663803101 L 5.0 -0.8506177663803101 L 5.0 -0.04162389412522316 L 6.0 -0.04162389412522316 L 6.0 -0.5394607186317444 L 7.0 -0.5394607186317444 L 7.0 0.6511825919151306 L 8.0 0.6511825919151306 L 8.0 -0.9970746040344238 L 9.0 -0.9970746040344238 L 9.0 -0.3729616403579712 L 10.0 -0.3729616403579712 L 10.0 -1.1159924268722534 L 11.0 -1.1159924268722534 L 11.0 -1.0723556280136108 L 12.0 -1.0723556280136108 L 12.0 -1.3392082452774048 L 13.0 -1.3392082452774048 L 13.0 -0.686776876449585 L 14.0 -0.686776876449585 L 14.0 0.2867467999458313 L 15.0 0.2867467999458313 L 15.0 -1.0087007284164429 L 16.0 -1.0087007284164429 L 16.0 -0.554456353187561 L 17.0 -0.554456353187561 L 17.0 -1.2993707656860352 L 18.0 -1.2993707656860352 L 18.0 -0.1132640615105629 L 19.0 -0.1132640615105629 L 19.0 -0.8664798736572266 L 20.0 -0.8664798736572266 L 20.0 -0.1250760704278946 L 21.0 -0.1250760704278946 L 21.0 -1.7989071607589722 L 22.0 -1.7989071607589722 L 22.0 -0.3140564560890198 L 23.0 -0.3140564560890198 L 23.0 -0.9732550978660583 L 24.0 -0.9732550978660583 L 24.0 -0.8565048575401306 L 25.0 -0.8565048575401306" style="vector-effect: non-scaling-stroke;fill:none;" /></g></g><g style="stroke: black;stroke-width: 1.2000000000000002;" transform="matrix(1.0, 0.0, 0.0, 1.0, 0.0, 0.0)"><path d="M 0.0 -2.0 L 0.0 2.0" style="vector-effect: non-scaling-stroke;fill:none;" /></g></g><g style="stroke: black;stroke-width: 1.2000000000000002;" transform="matrix(1.0, 0.0, 0.0, 1.0, 0.0, 0.0)"><path d="M 5.0 -2.0 L 5.0 2.0" style="vector-effect: non-scaling-stroke;fill:none;" /></g></g><g style="stroke: black;stroke-width: 1.2000000000000002;" transform="matrix(1.0, 0.0, 0.0, 1.0, 0.0, 0.0)"><path d="M 10.0 -2.0 L 10.0 2.0" style="vector-effect: non-scaling-stroke;fill:none;" /></g></g><g style="stroke: black;stroke-width: 1.2000000000000002;" transform="matrix(1.0, 0.0, 0.0, 1.0, 0.0, 0.0)"><path d="M 15.0 -2.0 L 15.0 2.0" style="vector-effect: non-scaling-stroke;fill:none;" /></g></g><g style="stroke: black;stroke-width: 1.2000000000000002;" transform="matrix(1.0, 0.0, 0.0, 1.0, 0.0, 0.0)"><path d="M 20.0 -2.0 L 20.0 2.0" style="vector-effect: non-scaling-stroke;fill:none;" /></g></g></g></g></g></g></g><g style="stroke: black;stroke-width: 1.2000000000000002;" transform="matrix(1.0, 0.0, 0.0, 1.0, 0.41500000000000004, 0.0)"><g /></g></g><g transform="matrix(1.0, 0.0, 0.0, 1.0, 0.43000000000000005, 0.0)"><g transform="matrix(1.0, 0.0, 0.0, 1.0, 0.075, 0.0)"><g transform="matrix(1.0, 0.0, 0.0, 1.0, 0.0, 0.03)"><g transform="matrix(0.01, 0.0, 0.0, 0.01, 0.0, 0.0)"><g><g><g transform="matrix(1.0, 0.0, 0.0, 1.0, 12.5, 0.0)"><g transform="matrix(1.0, 0.0, 0.0, 1.0, -20.0, -0.0)"><g><g style="fill: #d3d3d3;stroke: black;stroke-width: 1.2000000000000002;" transform="matrix(1.0, 0.0, 0.0, 1.0, 0.0, -3.0)"><path d="M 0.0 0.0 L 40.0 0.0 L 40.0 6.0 L 0.0 6.0 L 0.0 0.0 Z" style="vector-effect: non-scaling-stroke;" /></g><g transform="matrix(1.0, 0.0, 0.0, 1.0, 1.875, 0.0)"><g><g style="stroke: black;stroke-width: 1.2000000000000002;" transform="matrix(1.0, 0.0, 0.0, 1.0, 0.0, 0.0)"><g /></g><g style="fill: #ffa500;stroke: black;stroke-width: 1.2000000000000002;" transform="matrix(1.0, 0.0, 0.0, 1.0, 1.875, 0.0)"><text style="text-align:center; text-anchor:middle; dominant-baseline:middle;&#10;                      font-family:sans-serif; font-weight: bold;&#10;                      font-size:3px;&#10;                      vector-effect: non-scaling-stroke;" transform="translate(-5e-05, 0)">y</text></g></g></g></g></g></g><g><g><g><g style="stroke: black;stroke-width: 1.2000000000000002;" transform="matrix(1.0, 0.0, 0.0, 1.0, 0.0, 0.0)"><path d="M 0.0 -2.0 L 0.0 2.0" style="vector-effect: non-scaling-stroke;fill:none;" /></g><g style="stroke: #808080;stroke-width: 0.6000000000000001;" transform="matrix(1.0, 0.0, 0.0, 1.0, 0.0, 0.0)"><path d="M 0.0 0.0 L 25.0 0.0" style="vector-effect: non-scaling-stroke;fill:none;" /></g></g><g style="stroke: black;stroke-width: 2.4000000000000004;" transform="matrix(1.0, 0.0, 0.0, 1.0, 0.0, 0.0)"><path d="M 0.0 0.0058234576135873795 L 1.0 0.0058234576135873795 L 1.0 -1.0786224603652954 L 2.0 -1.0786224603652954 L 2.0 -0.603357195854187 L 3.0 -0.603357195854187 L 3.0 -0.774581789970398 L 4.0 -0.774581789970398 L 4.0 -0.32056427001953125 L 5.0 -0.32056427001953125 L 5.0 -0.13431136310100555 L 6.0 -0.13431136310100555 L 6.0 -0.7048913836479187 L 7.0 -0.7048913836479187 L 7.0 -0.9286437630653381 L 8.0 -0.9286437630653381 L 8.0 -0.566573441028595 L 9.0 -0.566573441028595 L 9.0 -0.8370925784111023 L 10.0 -0.8370925784111023 L 10.0 -1.097080111503601 L 11.0 -1.097080111503601 L 11.0 -1.520912528038025 L 12.0 -1.520912528038025 L 12.0 -0.42788299918174744 L 13.0 -0.42788299918174744 L 13.0 -0.9847083687782288 L 14.0 -0.9847083687782288 L 14.0 -1.7939623594284058 L 15.0 -1.7939623594284058 L 15.0 -1.3936399221420288 L 16.0 -1.3936399221420288 L 16.0 -0.647120475769043 L 17.0 -0.647120475769043 L 17.0 -1.794860601425171 L 18.0 -1.794860601425171 L 18.0 0.024191511794924736 L 19.0 0.024191511794924736 L 19.0 -0.2459212690591812 L 20.0 -0.2459212690591812 L 20.0 -1.0625756978988647 L 21.0 -1.0625756978988647 L 21.0 -0.7969610691070557 L 22.0 -0.7969610691070557 L 22.0 -1.5579208135604858 L 23.0 -1.5579208135604858 L 23.0 -0.23981119692325592 L 24.0 -0.23981119692325592 L 24.0 -0.12162651866674423 L 25.0 -0.12162651866674423" style="vector-effect: non-scaling-stroke;fill:none;" /></g></g></g></g><g><g><g><g style="stroke: black;stroke-width: 1.2000000000000002;" transform="matrix(1.0, 0.0, 0.0, 1.0, 0.0, 0.0)"><path d="M 0.0 -2.0 L 0.0 2.0" style="vector-effect: non-scaling-stroke;fill:none;" /></g><g style="stroke: #808080;stroke-width: 0.6000000000000001;" transform="matrix(1.0, 0.0, 0.0, 1.0, 0.0, 0.0)"><path d="M 0.0 0.0 L 25.0 0.0" style="vector-effect: non-scaling-stroke;fill:none;" /></g></g><g style="stroke: black;stroke-width: 2.4000000000000004;" transform="matrix(1.0, 0.0, 0.0, 1.0, 0.0, 0.0)"><path d="M 0.0 0.0058234576135873795 L 1.0 0.0058234576135873795 L 1.0 -1.0786224603652954 L 2.0 -1.0786224603652954 L 2.0 -0.603357195854187 L 3.0 -0.603357195854187 L 3.0 -0.774581789970398 L 4.0 -0.774581789970398 L 4.0 -0.32056427001953125 L 5.0 -0.32056427001953125 L 5.0 -0.13431136310100555 L 6.0 -0.13431136310100555 L 6.0 -0.7048913836479187 L 7.0 -0.7048913836479187 L 7.0 -0.9286437630653381 L 8.0 -0.9286437630653381 L 8.0 -0.566573441028595 L 9.0 -0.566573441028595 L 9.0 -0.8370925784111023 L 10.0 -0.8370925784111023 L 10.0 -1.097080111503601 L 11.0 -1.097080111503601 L 11.0 -1.520912528038025 L 12.0 -1.520912528038025 L 12.0 -0.42788299918174744 L 13.0 -0.42788299918174744 L 13.0 -0.9847083687782288 L 14.0 -0.9847083687782288 L 14.0 -1.7939623594284058 L 15.0 -1.7939623594284058 L 15.0 -1.3936399221420288 L 16.0 -1.3936399221420288 L 16.0 -0.647120475769043 L 17.0 -0.647120475769043 L 17.0 -1.794860601425171 L 18.0 -1.794860601425171 L 18.0 0.024191511794924736 L 19.0 0.024191511794924736 L 19.0 -0.2459212690591812 L 20.0 -0.2459212690591812 L 20.0 -1.0625756978988647 L 21.0 -1.0625756978988647 L 21.0 -0.7969610691070557 L 22.0 -0.7969610691070557 L 22.0 -1.5579208135604858 L 23.0 -1.5579208135604858 L 23.0 -0.23981119692325592 L 24.0 -0.23981119692325592 L 24.0 -0.12162651866674423 L 25.0 -0.12162651866674423" style="vector-effect: non-scaling-stroke;fill:none;" /></g></g></g></g></g></g></g></g></g></g><g style="stroke: black;stroke-width: 1.2000000000000002;" transform="matrix(0.0, -1.0, 1.0, 0.0, 0.0, 0.08)"><g /></g></g><g transform="matrix(1.0, 0.0, 0.0, 1.0, 0.0, 0.16)"><g transform="matrix(1.0, 0.0, 0.0, 1.0, -0.2, -0.03)"><g transform="matrix(1.0, 0.0, 0.0, 1.0, 0.075, 0.0)"><g transform="matrix(1.0, 0.0, 0.0, 1.0, 0.0, 0.03)"><g transform="matrix(0.01, 0.0, 0.0, 0.01, 0.0, 0.0)"><g><g><g transform="matrix(1.0, 0.0, 0.0, 1.0, 12.5, 0.0)"><g transform="matrix(1.0, 0.0, 0.0, 1.0, -20.0, -0.0)"><g><g style="fill: #d3d3d3;stroke: black;stroke-width: 1.2000000000000002;" transform="matrix(1.0, 0.0, 0.0, 1.0, 0.0, -3.0)"><path d="M 0.0 0.0 L 40.0 0.0 L 40.0 6.0 L 0.0 6.0 L 0.0 0.0 Z" style="vector-effect: non-scaling-stroke;" /></g><g transform="matrix(1.0, 0.0, 0.0, 1.0, 1.875, 0.0)"><g><g style="stroke: black;stroke-width: 1.2000000000000002;" transform="matrix(1.0, 0.0, 0.0, 1.0, 0.0, 0.0)"><g /></g><g style="fill: #ffa500;stroke: black;stroke-width: 1.2000000000000002;" transform="matrix(1.0, 0.0, 0.0, 1.0, 1.875, 0.0)"><text style="text-align:center; text-anchor:middle; dominant-baseline:middle;&#10;                      font-family:sans-serif; font-weight: bold;&#10;                      font-size:3px;&#10;                      vector-effect: non-scaling-stroke;" transform="translate(-5e-05, 0)">f(x)</text></g></g></g></g></g></g><g><g><g><g style="stroke: black;stroke-width: 1.2000000000000002;" transform="matrix(1.0, 0.0, 0.0, 1.0, 0.0, 0.0)"><path d="M 0.0 -2.0 L 0.0 2.0" style="vector-effect: non-scaling-stroke;fill:none;" /></g><g style="stroke: #808080;stroke-width: 0.6000000000000001;" transform="matrix(1.0, 0.0, 0.0, 1.0, 0.0, 0.0)"><path d="M 0.0 0.0 L 25.0 0.0" style="vector-effect: non-scaling-stroke;fill:none;" /></g></g><g style="stroke: black;stroke-width: 2.4000000000000004;" transform="matrix(1.0, 0.0, 0.0, 1.0, 0.0, 0.0)"><path d="M 0.0 -0.11983102560043335 L 1.0 -0.11983102560043335 L 1.0 0.012662231922149658 L 2.0 0.012662231922149658 L 2.0 -0.26277485489845276 L 3.0 -0.26277485489845276 L 3.0 0.05996658653020859 L 4.0 0.05996658653020859 L 4.0 0.06143968552350998 L 5.0 0.06143968552350998 L 5.0 -0.11436767876148224 L 6.0 -0.11436767876148224 L 6.0 -0.03772291541099548 L 7.0 -0.03772291541099548 L 7.0 -0.2618105411529541 L 8.0 -0.2618105411529541 L 8.0 0.023802006617188454 L 9.0 0.023802006617188454 L 9.0 0.0412711426615715 L 10.0 0.0412711426615715 L 10.0 -0.22591789066791534 L 11.0 -0.22591789066791534 L 11.0 -0.4212348461151123 L 12.0 -0.4212348461151123 L 12.0 -0.3028143048286438 L 13.0 -0.3028143048286438 L 13.0 -0.27053457498550415 L 14.0 -0.27053457498550415 L 14.0 -0.37919145822525024 L 15.0 -0.37919145822525024 L 15.0 -0.25726592540740967 L 16.0 -0.25726592540740967 L 16.0 -0.421891450881958 L 17.0 -0.421891450881958 L 17.0 -0.3232678174972534 L 18.0 -0.3232678174972534 L 18.0 -0.2580014169216156 L 19.0 -0.2580014169216156 L 19.0 -0.3251747786998749 L 20.0 -0.3251747786998749 L 20.0 -0.2851898670196533 L 21.0 -0.2851898670196533 L 21.0 -0.3193010687828064 L 22.0 -0.3193010687828064 L 22.0 -0.4961612820625305 L 23.0 -0.4961612820625305 L 23.0 -0.1607203483581543 L 24.0 -0.1607203483581543 L 24.0 -0.24528701603412628 L 25.0 -0.24528701603412628" style="vector-effect: non-scaling-stroke;fill:none;" /></g></g></g></g><g><g><g><g style="stroke: black;stroke-width: 1.2000000000000002;" transform="matrix(1.0, 0.0, 0.0, 1.0, 0.0, 0.0)"><path d="M 0.0 -2.0 L 0.0 2.0" style="vector-effect: non-scaling-stroke;fill:none;" /></g><g style="stroke: #808080;stroke-width: 0.6000000000000001;" transform="matrix(1.0, 0.0, 0.0, 1.0, 0.0, 0.0)"><path d="M 0.0 0.0 L 25.0 0.0" style="vector-effect: non-scaling-stroke;fill:none;" /></g></g><g style="stroke: black;stroke-width: 2.4000000000000004;" transform="matrix(1.0, 0.0, 0.0, 1.0, 0.0, 0.0)"><path d="M 0.0 -0.11983102560043335 L 1.0 -0.11983102560043335 L 1.0 0.012662231922149658 L 2.0 0.012662231922149658 L 2.0 -0.26277485489845276 L 3.0 -0.26277485489845276 L 3.0 0.05996658653020859 L 4.0 0.05996658653020859 L 4.0 0.06143968552350998 L 5.0 0.06143968552350998 L 5.0 -0.11436767876148224 L 6.0 -0.11436767876148224 L 6.0 -0.03772291541099548 L 7.0 -0.03772291541099548 L 7.0 -0.2618105411529541 L 8.0 -0.2618105411529541 L 8.0 0.023802006617188454 L 9.0 0.023802006617188454 L 9.0 0.0412711426615715 L 10.0 0.0412711426615715 L 10.0 -0.22591789066791534 L 11.0 -0.22591789066791534 L 11.0 -0.4212348461151123 L 12.0 -0.4212348461151123 L 12.0 -0.3028143048286438 L 13.0 -0.3028143048286438 L 13.0 -0.27053457498550415 L 14.0 -0.27053457498550415 L 14.0 -0.37919145822525024 L 15.0 -0.37919145822525024 L 15.0 -0.25726592540740967 L 16.0 -0.25726592540740967 L 16.0 -0.421891450881958 L 17.0 -0.421891450881958 L 17.0 -0.3232678174972534 L 18.0 -0.3232678174972534 L 18.0 -0.2580014169216156 L 19.0 -0.2580014169216156 L 19.0 -0.3251747786998749 L 20.0 -0.3251747786998749 L 20.0 -0.2851898670196533 L 21.0 -0.2851898670196533 L 21.0 -0.3193010687828064 L 22.0 -0.3193010687828064 L 22.0 -0.4961612820625305 L 23.0 -0.4961612820625305 L 23.0 -0.1607203483581543 L 24.0 -0.1607203483581543 L 24.0 -0.24528701603412628 L 25.0 -0.24528701603412628" style="vector-effect: non-scaling-stroke;fill:none;" /></g></g></g></g></g></g></g></g></g></g><g transform="matrix(1.0, 0.0, 0.0, 1.0, -0.125, 0.16)"><g transform="matrix(1.0, 0.0, 0.0, 0.009999999999999995, 0.0, 0.0)"><g transform="matrix(0.01, 0.0, 0.0, 1.0, 0.0, 0.0)"><g><g><g style="fill: #ffffe0;stroke: #ffffe0;stroke-width: 1.2000000000000002;fill-opacity: 0.5;" transform="matrix(1.0, 0.0, 0.0, 1.0, 0.0, 0.0)"><path d="M 0.0 -2.0 L 0.0 2.0" style="vector-effect: non-scaling-stroke;fill:none;" /></g><g style="fill: #ffffe0;stroke: #ffffe0;stroke-width: 1.2000000000000002;fill-opacity: 0.5;" transform="matrix(1.0, 0.0, 0.0, 1.0, 0.0, 0.0)"><path d="M 0.0 -0.8596736788749695 L 1.0 -0.8596736788749695 L 1.0 -0.9385907053947449 L 2.0 -0.9385907053947449 L 2.0 -1.3237375020980835 L 3.0 -1.3237375020980835 L 3.0 -0.4481630027294159 L 4.0 -0.4481630027294159 L 4.0 -0.6020345091819763 L 5.0 -0.6020345091819763 L 5.0 -0.8489949107170105 L 6.0 -0.8489949107170105 L 6.0 -0.9891620874404907 L 7.0 -0.9891620874404907 L 7.0 -1.3317139148712158 L 8.0 -1.3317139148712158 L 8.0 -0.4845138490200043 L 9.0 -0.4845138490200043 L 9.0 -0.6218305230140686 L 10.0 -0.6218305230140686 L 10.0 -0.9575648903846741 L 11.0 -0.9575648903846741 L 11.0 -1.3719289302825928 L 12.0 -1.3719289302825928 L 12.0 -1.3607966899871826 L 13.0 -1.3607966899871826 L 13.0 -0.7831345200538635 L 14.0 -0.7831345200538635 L 14.0 -1.0348424911499023 L 15.0 -1.0348424911499023 L 15.0 -0.9933832883834839 L 16.0 -0.9933832883834839 L 16.0 -1.3606646060943604 L 17.0 -1.3606646060943604 L 17.0 -1.3901909589767456 L 18.0 -1.3901909589767456 L 18.0 -0.7706013917922974 L 19.0 -0.7706013917922974 L 19.0 -0.9927468299865723 L 20.0 -0.9927468299865723 L 20.0 -1.0302479267120361 L 21.0 -1.0302479267120361 L 21.0 -1.2729754447937012 L 22.0 -1.2729754447937012 L 22.0 -1.5660645961761475 L 23.0 -1.5660645961761475 L 23.0 -0.6733202934265137 L 24.0 -0.6733202934265137 L 24.0 -0.9039183259010315 L 25.0 -0.9039183259010315 L 25.0 -0.24528701603412628 L 24.0 -0.24528701603412628 L 24.0 -0.1607203483581543 L 23.0 -0.1607203483581543 L 23.0 -0.4961612820625305 L 22.0 -0.4961612820625305 L 22.0 -0.3193010687828064 L 21.0 -0.3193010687828064 L 21.0 -0.2851898670196533 L 20.0 -0.2851898670196533 L 20.0 -0.3251747786998749 L 19.0 -0.3251747786998749 L 19.0 -0.2580014169216156 L 18.0 -0.2580014169216156 L 18.0 -0.3232678174972534 L 17.0 -0.3232678174972534 L 17.0 -0.421891450881958 L 16.0 -0.421891450881958 L 16.0 -0.25726592540740967 L 15.0 -0.25726592540740967 L 15.0 -0.37919145822525024 L 14.0 -0.37919145822525024 L 14.0 -0.27053457498550415 L 13.0 -0.27053457498550415 L 13.0 -0.3028143048286438 L 12.0 -0.3028143048286438 L 12.0 -0.4212348461151123 L 11.0 -0.4212348461151123 L 11.0 -0.22591789066791534 L 10.0 -0.22591789066791534 L 10.0 0.0412711426615715 L 9.0 0.0412711426615715 L 9.0 0.023802006617188454 L 8.0 0.023802006617188454 L 8.0 -0.2618105411529541 L 7.0 -0.2618105411529541 L 7.0 -0.03772291541099548 L 6.0 -0.03772291541099548 L 6.0 -0.11436767876148224 L 5.0 -0.11436767876148224 L 5.0 0.06143968552350998 L 4.0 0.06143968552350998 L 4.0 0.05996658653020859 L 3.0 0.05996658653020859 L 3.0 -0.26277485489845276 L 2.0 -0.26277485489845276 L 2.0 0.012662231922149658 L 1.0 0.012662231922149658 L 1.0 -0.11983102560043335 L 0.0 -0.11983102560043335 Z" style="vector-effect: non-scaling-stroke;" /></g></g><g style="stroke: black;stroke-width: 1.2000000000000002;" transform="matrix(1.0, 0.0, 0.0, 1.0, 0.0, 0.0)"><path d="M 0.0 -0.11983102560043335 L 1.0 -0.11983102560043335 L 1.0 0.012662231922149658 L 2.0 0.012662231922149658 L 2.0 -0.26277485489845276 L 3.0 -0.26277485489845276 L 3.0 0.05996658653020859 L 4.0 0.05996658653020859 L 4.0 0.06143968552350998 L 5.0 0.06143968552350998 L 5.0 -0.11436767876148224 L 6.0 -0.11436767876148224 L 6.0 -0.03772291541099548 L 7.0 -0.03772291541099548 L 7.0 -0.2618105411529541 L 8.0 -0.2618105411529541 L 8.0 0.023802006617188454 L 9.0 0.023802006617188454 L 9.0 0.0412711426615715 L 10.0 0.0412711426615715 L 10.0 -0.22591789066791534 L 11.0 -0.22591789066791534 L 11.0 -0.4212348461151123 L 12.0 -0.4212348461151123 L 12.0 -0.3028143048286438 L 13.0 -0.3028143048286438 L 13.0 -0.27053457498550415 L 14.0 -0.27053457498550415 L 14.0 -0.37919145822525024 L 15.0 -0.37919145822525024 L 15.0 -0.25726592540740967 L 16.0 -0.25726592540740967 L 16.0 -0.421891450881958 L 17.0 -0.421891450881958 L 17.0 -0.3232678174972534 L 18.0 -0.3232678174972534 L 18.0 -0.2580014169216156 L 19.0 -0.2580014169216156 L 19.0 -0.3251747786998749 L 20.0 -0.3251747786998749 L 20.0 -0.2851898670196533 L 21.0 -0.2851898670196533 L 21.0 -0.3193010687828064 L 22.0 -0.3193010687828064 L 22.0 -0.4961612820625305 L 23.0 -0.4961612820625305 L 23.0 -0.1607203483581543 L 24.0 -0.1607203483581543 L 24.0 -0.24528701603412628 L 25.0 -0.24528701603412628" style="vector-effect: non-scaling-stroke;fill:none;" /></g></g></g></g></g></g><g transform="matrix(1.0, 0.0, 0.0, 1.0, -0.125, 0.16)"><g transform="matrix(1.0, 0.0, 0.0, 0.009999999999999995, 0.0, 0.0)"><g transform="matrix(0.01, 0.0, 0.0, 1.0, 0.0, 0.0)"><g><g><g style="fill: #add8e6;stroke: #add8e6;stroke-width: 1.2000000000000002;fill-opacity: 0.5;" transform="matrix(1.0, 0.0, 0.0, 1.0, 0.0, 0.0)"><path d="M 0.0 -2.0 L 0.0 2.0" style="vector-effect: non-scaling-stroke;fill:none;" /></g><g style="fill: #add8e6;stroke: #add8e6;stroke-width: 1.2000000000000002;fill-opacity: 0.5;" transform="matrix(1.0, 0.0, 0.0, 1.0, 0.0, 0.0)"><path d="M 0.0 -0.3135461211204529 L 1.0 -0.3135461211204529 L 1.0 -0.17919021844863892 L 2.0 -0.17919021844863892 L 2.0 -0.4505294859409332 L 3.0 -0.4505294859409332 L 3.0 -0.131140798330307 L 4.0 -0.131140798330307 L 4.0 -0.12929517030715942 L 5.0 -0.12929517030715942 L 5.0 -0.37439292669296265 L 6.0 -0.37439292669296265 L 6.0 -0.29886576533317566 L 7.0 -0.29886576533317566 L 7.0 -0.5300314426422119 L 8.0 -0.5300314426422119 L 8.0 -0.2358507215976715 L 9.0 -0.2358507215976715 L 9.0 -0.21726399660110474 L 10.0 -0.21726399660110474 L 10.0 -1.0112091302871704 L 11.0 -1.0112091302871704 L 11.0 -1.210996389389038 L 12.0 -1.210996389389038 L 12.0 -1.0836350917816162 L 13.0 -1.0836350917816162 L 13.0 -1.0632762908935547 L 14.0 -1.0632762908935547 L 14.0 -1.1540517807006836 L 15.0 -1.1540517807006836 L 15.0 -1.0261658430099487 L 16.0 -1.0261658430099487 L 16.0 -1.178870439529419 L 17.0 -1.178870439529419 L 17.0 -1.0921677350997925 L 18.0 -1.0921677350997925 L 18.0 -1.026901364326477 L 19.0 -1.026901364326477 L 19.0 -1.1000351905822754 L 20.0 -1.1000351905822754 L 20.0 -1.107733964920044 L 21.0 -1.107733964920044 L 21.0 -1.1329045295715332 L 22.0 -1.1329045295715332 L 22.0 -1.3127448558807373 L 23.0 -1.3127448558807373 L 23.0 -0.9802842140197754 L 24.0 -0.9802842140197754 L 24.0 -1.0559102296829224 L 25.0 -1.0559102296829224 L 25.0 -0.24528701603412628 L 24.0 -0.24528701603412628 L 24.0 -0.1607203483581543 L 23.0 -0.1607203483581543 L 23.0 -0.4961612820625305 L 22.0 -0.4961612820625305 L 22.0 -0.3193010687828064 L 21.0 -0.3193010687828064 L 21.0 -0.2851898670196533 L 20.0 -0.2851898670196533 L 20.0 -0.3251747786998749 L 19.0 -0.3251747786998749 L 19.0 -0.2580014169216156 L 18.0 -0.2580014169216156 L 18.0 -0.3232678174972534 L 17.0 -0.3232678174972534 L 17.0 -0.421891450881958 L 16.0 -0.421891450881958 L 16.0 -0.25726592540740967 L 15.0 -0.25726592540740967 L 15.0 -0.37919145822525024 L 14.0 -0.37919145822525024 L 14.0 -0.27053457498550415 L 13.0 -0.27053457498550415 L 13.0 -0.3028143048286438 L 12.0 -0.3028143048286438 L 12.0 -0.4212348461151123 L 11.0 -0.4212348461151123 L 11.0 -0.22591789066791534 L 10.0 -0.22591789066791534 L 10.0 0.0412711426615715 L 9.0 0.0412711426615715 L 9.0 0.023802006617188454 L 8.0 0.023802006617188454 L 8.0 -0.2618105411529541 L 7.0 -0.2618105411529541 L 7.0 -0.03772291541099548 L 6.0 -0.03772291541099548 L 6.0 -0.11436767876148224 L 5.0 -0.11436767876148224 L 5.0 0.06143968552350998 L 4.0 0.06143968552350998 L 4.0 0.05996658653020859 L 3.0 0.05996658653020859 L 3.0 -0.26277485489845276 L 2.0 -0.26277485489845276 L 2.0 0.012662231922149658 L 1.0 0.012662231922149658 L 1.0 -0.11983102560043335 L 0.0 -0.11983102560043335 Z" style="vector-effect: non-scaling-stroke;" /></g></g><g style="stroke: black;stroke-width: 1.2000000000000002;" transform="matrix(1.0, 0.0, 0.0, 1.0, 0.0, 0.0)"><path d="M 0.0 -0.11983102560043335 L 1.0 -0.11983102560043335 L 1.0 0.012662231922149658 L 2.0 0.012662231922149658 L 2.0 -0.26277485489845276 L 3.0 -0.26277485489845276 L 3.0 0.05996658653020859 L 4.0 0.05996658653020859 L 4.0 0.06143968552350998 L 5.0 0.06143968552350998 L 5.0 -0.11436767876148224 L 6.0 -0.11436767876148224 L 6.0 -0.03772291541099548 L 7.0 -0.03772291541099548 L 7.0 -0.2618105411529541 L 8.0 -0.2618105411529541 L 8.0 0.023802006617188454 L 9.0 0.023802006617188454 L 9.0 0.0412711426615715 L 10.0 0.0412711426615715 L 10.0 -0.22591789066791534 L 11.0 -0.22591789066791534 L 11.0 -0.4212348461151123 L 12.0 -0.4212348461151123 L 12.0 -0.3028143048286438 L 13.0 -0.3028143048286438 L 13.0 -0.27053457498550415 L 14.0 -0.27053457498550415 L 14.0 -0.37919145822525024 L 15.0 -0.37919145822525024 L 15.0 -0.25726592540740967 L 16.0 -0.25726592540740967 L 16.0 -0.421891450881958 L 17.0 -0.421891450881958 L 17.0 -0.3232678174972534 L 18.0 -0.3232678174972534 L 18.0 -0.2580014169216156 L 19.0 -0.2580014169216156 L 19.0 -0.3251747786998749 L 20.0 -0.3251747786998749 L 20.0 -0.2851898670196533 L 21.0 -0.2851898670196533 L 21.0 -0.3193010687828064 L 22.0 -0.3193010687828064 L 22.0 -0.4961612820625305 L 23.0 -0.4961612820625305 L 23.0 -0.1607203483581543 L 24.0 -0.1607203483581543 L 24.0 -0.24528701603412628 L 25.0 -0.24528701603412628" style="vector-effect: non-scaling-stroke;fill:none;" /></g></g></g></g></g></g><g transform="matrix(1.0, 0.0, 0.0, 1.0, -0.125, 0.16)"><g transform="matrix(1.0, 0.0, 0.0, 0.009999999999999995, 0.0, 0.0)"><g transform="matrix(0.01, 0.0, 0.0, 1.0, 0.0, 0.0)"><g><g><g style="fill: #ff8c00;stroke: #ff8c00;stroke-width: 1.2000000000000002;fill-opacity: 0.5;" transform="matrix(1.0, 0.0, 0.0, 1.0, 0.0, 0.0)"><path d="M 0.0 -2.0 L 0.0 2.0" style="vector-effect: non-scaling-stroke;fill:none;" /></g><g style="fill: #ff8c00;stroke: #ff8c00;stroke-width: 1.2000000000000002;fill-opacity: 0.5;" transform="matrix(1.0, 0.0, 0.0, 1.0, 0.0, 0.0)"><path d="M 0.0 -0.11983102560043335 L 1.0 -0.11983102560043335 L 1.0 0.012662231922149658 L 2.0 0.012662231922149658 L 2.0 -0.26277485489845276 L 3.0 -0.26277485489845276 L 3.0 0.05996658653020859 L 4.0 0.05996658653020859 L 4.0 0.06143968552350998 L 5.0 0.06143968552350998 L 5.0 -0.11436767876148224 L 6.0 -0.11436767876148224 L 6.0 -0.03772291541099548 L 7.0 -0.03772291541099548 L 7.0 -0.2618105411529541 L 8.0 -0.2618105411529541 L 8.0 0.023802006617188454 L 9.0 0.023802006617188454 L 9.0 0.0412711426615715 L 10.0 0.0412711426615715 L 10.0 -0.22591789066791534 L 11.0 -0.22591789066791534 L 11.0 -0.4212348461151123 L 12.0 -0.4212348461151123 L 12.0 -0.3028143048286438 L 13.0 -0.3028143048286438 L 13.0 -0.27053457498550415 L 14.0 -0.27053457498550415 L 14.0 -0.37919145822525024 L 15.0 -0.37919145822525024 L 15.0 -0.25726592540740967 L 16.0 -0.25726592540740967 L 16.0 -0.421891450881958 L 17.0 -0.421891450881958 L 17.0 -0.3232678174972534 L 18.0 -0.3232678174972534 L 18.0 -0.2580014169216156 L 19.0 -0.2580014169216156 L 19.0 -0.3251747786998749 L 20.0 -0.3251747786998749 L 20.0 -0.2851898670196533 L 21.0 -0.2851898670196533 L 21.0 -0.3193010687828064 L 22.0 -0.3193010687828064 L 22.0 -0.4961612820625305 L 23.0 -0.4961612820625305 L 23.0 -0.1607203483581543 L 24.0 -0.1607203483581543 L 24.0 -0.24528701603412628 L 25.0 -0.24528701603412628 L 25.0 -0.24528701603412628 L 24.0 -0.24528701603412628 L 24.0 -0.1607203483581543 L 23.0 -0.1607203483581543 L 23.0 -0.4961612820625305 L 22.0 -0.4961612820625305 L 22.0 -0.3193010687828064 L 21.0 -0.3193010687828064 L 21.0 -0.2851898670196533 L 20.0 -0.2851898670196533 L 20.0 -0.3251747786998749 L 19.0 -0.3251747786998749 L 19.0 -0.2580014169216156 L 18.0 -0.2580014169216156 L 18.0 -0.3232678174972534 L 17.0 -0.3232678174972534 L 17.0 -0.421891450881958 L 16.0 -0.421891450881958 L 16.0 -0.25726592540740967 L 15.0 -0.25726592540740967 L 15.0 -0.37919145822525024 L 14.0 -0.37919145822525024 L 14.0 -0.27053457498550415 L 13.0 -0.27053457498550415 L 13.0 -0.3028143048286438 L 12.0 -0.3028143048286438 L 12.0 -0.4212348461151123 L 11.0 -0.4212348461151123 L 11.0 -0.22591789066791534 L 10.0 -0.22591789066791534 L 10.0 0.0412711426615715 L 9.0 0.0412711426615715 L 9.0 0.023802006617188454 L 8.0 0.023802006617188454 L 8.0 -0.2618105411529541 L 7.0 -0.2618105411529541 L 7.0 -0.03772291541099548 L 6.0 -0.03772291541099548 L 6.0 -0.11436767876148224 L 5.0 -0.11436767876148224 L 5.0 0.06143968552350998 L 4.0 0.06143968552350998 L 4.0 0.05996658653020859 L 3.0 0.05996658653020859 L 3.0 -0.26277485489845276 L 2.0 -0.26277485489845276 L 2.0 0.012662231922149658 L 1.0 0.012662231922149658 L 1.0 -0.11983102560043335 L 0.0 -0.11983102560043335 Z" style="vector-effect: non-scaling-stroke;" /></g></g><g style="stroke: black;stroke-width: 1.2000000000000002;" transform="matrix(1.0, 0.0, 0.0, 1.0, 0.0, 0.0)"><path d="M 0.0 -0.11983102560043335 L 1.0 -0.11983102560043335 L 1.0 0.012662231922149658 L 2.0 0.012662231922149658 L 2.0 -0.26277485489845276 L 3.0 -0.26277485489845276 L 3.0 0.05996658653020859 L 4.0 0.05996658653020859 L 4.0 0.06143968552350998 L 5.0 0.06143968552350998 L 5.0 -0.11436767876148224 L 6.0 -0.11436767876148224 L 6.0 -0.03772291541099548 L 7.0 -0.03772291541099548 L 7.0 -0.2618105411529541 L 8.0 -0.2618105411529541 L 8.0 0.023802006617188454 L 9.0 0.023802006617188454 L 9.0 0.0412711426615715 L 10.0 0.0412711426615715 L 10.0 -0.22591789066791534 L 11.0 -0.22591789066791534 L 11.0 -0.4212348461151123 L 12.0 -0.4212348461151123 L 12.0 -0.3028143048286438 L 13.0 -0.3028143048286438 L 13.0 -0.27053457498550415 L 14.0 -0.27053457498550415 L 14.0 -0.37919145822525024 L 15.0 -0.37919145822525024 L 15.0 -0.25726592540740967 L 16.0 -0.25726592540740967 L 16.0 -0.421891450881958 L 17.0 -0.421891450881958 L 17.0 -0.3232678174972534 L 18.0 -0.3232678174972534 L 18.0 -0.2580014169216156 L 19.0 -0.2580014169216156 L 19.0 -0.3251747786998749 L 20.0 -0.3251747786998749 L 20.0 -0.2851898670196533 L 21.0 -0.2851898670196533 L 21.0 -0.3193010687828064 L 22.0 -0.3193010687828064 L 22.0 -0.4961612820625305 L 23.0 -0.4961612820625305 L 23.0 -0.1607203483581543 L 24.0 -0.1607203483581543 L 24.0 -0.24528701603412628 L 25.0 -0.24528701603412628" style="vector-effect: non-scaling-stroke;fill:none;" /></g></g></g></g></g></g><g transform="matrix(1.0, 0.0, 0.0, 1.0, -0.125, 0.16)"><g transform="matrix(1.0, 0.0, 0.0, 0.009999999999999995, 0.0, 0.0)"><g transform="matrix(0.01, 0.0, 0.0, 1.0, 0.0, 0.0)"><g><g><g style="fill: #0000ff;stroke: #0000ff;stroke-width: 1.2000000000000002;fill-opacity: 0.5;" transform="matrix(1.0, 0.0, 0.0, 1.0, 0.0, 0.0)"><path d="M 0.0 -2.0 L 0.0 2.0" style="vector-effect: non-scaling-stroke;fill:none;" /></g><g style="fill: #0000ff;stroke: #0000ff;stroke-width: 1.2000000000000002;fill-opacity: 0.5;" transform="matrix(1.0, 0.0, 0.0, 1.0, 0.0, 0.0)"><path d="M 0.0 -0.11983102560043335 L 1.0 -0.11983102560043335 L 1.0 0.012662231922149658 L 2.0 0.012662231922149658 L 2.0 -0.26277485489845276 L 3.0 -0.26277485489845276 L 3.0 0.05996658653020859 L 4.0 0.05996658653020859 L 4.0 0.06143968552350998 L 5.0 0.06143968552350998 L 5.0 -0.11436767876148224 L 6.0 -0.11436767876148224 L 6.0 -0.03772291541099548 L 7.0 -0.03772291541099548 L 7.0 -0.2618105411529541 L 8.0 -0.2618105411529541 L 8.0 0.023802006617188454 L 9.0 0.023802006617188454 L 9.0 0.0412711426615715 L 10.0 0.0412711426615715 L 10.0 -0.22591789066791534 L 11.0 -0.22591789066791534 L 11.0 -0.4212348461151123 L 12.0 -0.4212348461151123 L 12.0 -0.3028143048286438 L 13.0 -0.3028143048286438 L 13.0 -0.27053457498550415 L 14.0 -0.27053457498550415 L 14.0 -0.37919145822525024 L 15.0 -0.37919145822525024 L 15.0 -0.25726592540740967 L 16.0 -0.25726592540740967 L 16.0 -0.421891450881958 L 17.0 -0.421891450881958 L 17.0 -0.3232678174972534 L 18.0 -0.3232678174972534 L 18.0 -0.2580014169216156 L 19.0 -0.2580014169216156 L 19.0 -0.3251747786998749 L 20.0 -0.3251747786998749 L 20.0 -0.2851898670196533 L 21.0 -0.2851898670196533 L 21.0 -0.3193010687828064 L 22.0 -0.3193010687828064 L 22.0 -0.4961612820625305 L 23.0 -0.4961612820625305 L 23.0 -0.1607203483581543 L 24.0 -0.1607203483581543 L 24.0 -0.24528701603412628 L 25.0 -0.24528701603412628 L 25.0 -0.24528701603412628 L 24.0 -0.24528701603412628 L 24.0 -0.1607203483581543 L 23.0 -0.1607203483581543 L 23.0 -0.4961612820625305 L 22.0 -0.4961612820625305 L 22.0 -0.3193010687828064 L 21.0 -0.3193010687828064 L 21.0 -0.2851898670196533 L 20.0 -0.2851898670196533 L 20.0 -0.3251747786998749 L 19.0 -0.3251747786998749 L 19.0 -0.2580014169216156 L 18.0 -0.2580014169216156 L 18.0 -0.3232678174972534 L 17.0 -0.3232678174972534 L 17.0 -0.421891450881958 L 16.0 -0.421891450881958 L 16.0 -0.25726592540740967 L 15.0 -0.25726592540740967 L 15.0 -0.37919145822525024 L 14.0 -0.37919145822525024 L 14.0 -0.27053457498550415 L 13.0 -0.27053457498550415 L 13.0 -0.3028143048286438 L 12.0 -0.3028143048286438 L 12.0 -0.4212348461151123 L 11.0 -0.4212348461151123 L 11.0 -0.22591789066791534 L 10.0 -0.22591789066791534 L 10.0 0.0412711426615715 L 9.0 0.0412711426615715 L 9.0 0.023802006617188454 L 8.0 0.023802006617188454 L 8.0 -0.2618105411529541 L 7.0 -0.2618105411529541 L 7.0 -0.03772291541099548 L 6.0 -0.03772291541099548 L 6.0 -0.11436767876148224 L 5.0 -0.11436767876148224 L 5.0 0.06143968552350998 L 4.0 0.06143968552350998 L 4.0 0.05996658653020859 L 3.0 0.05996658653020859 L 3.0 -0.26277485489845276 L 2.0 -0.26277485489845276 L 2.0 0.012662231922149658 L 1.0 0.012662231922149658 L 1.0 -0.11983102560043335 L 0.0 -0.11983102560043335 Z" style="vector-effect: non-scaling-stroke;" /></g></g><g style="stroke: black;stroke-width: 1.2000000000000002;" transform="matrix(1.0, 0.0, 0.0, 1.0, 0.0, 0.0)"><path d="M 0.0 -0.11983102560043335 L 1.0 -0.11983102560043335 L 1.0 0.012662231922149658 L 2.0 0.012662231922149658 L 2.0 -0.26277485489845276 L 3.0 -0.26277485489845276 L 3.0 0.05996658653020859 L 4.0 0.05996658653020859 L 4.0 0.06143968552350998 L 5.0 0.06143968552350998 L 5.0 -0.11436767876148224 L 6.0 -0.11436767876148224 L 6.0 -0.03772291541099548 L 7.0 -0.03772291541099548 L 7.0 -0.2618105411529541 L 8.0 -0.2618105411529541 L 8.0 0.023802006617188454 L 9.0 0.023802006617188454 L 9.0 0.0412711426615715 L 10.0 0.0412711426615715 L 10.0 -0.22591789066791534 L 11.0 -0.22591789066791534 L 11.0 -0.4212348461151123 L 12.0 -0.4212348461151123 L 12.0 -0.3028143048286438 L 13.0 -0.3028143048286438 L 13.0 -0.27053457498550415 L 14.0 -0.27053457498550415 L 14.0 -0.37919145822525024 L 15.0 -0.37919145822525024 L 15.0 -0.25726592540740967 L 16.0 -0.25726592540740967 L 16.0 -0.421891450881958 L 17.0 -0.421891450881958 L 17.0 -0.3232678174972534 L 18.0 -0.3232678174972534 L 18.0 -0.2580014169216156 L 19.0 -0.2580014169216156 L 19.0 -0.3251747786998749 L 20.0 -0.3251747786998749 L 20.0 -0.2851898670196533 L 21.0 -0.2851898670196533 L 21.0 -0.3193010687828064 L 22.0 -0.3193010687828064 L 22.0 -0.4961612820625305 L 23.0 -0.4961612820625305 L 23.0 -0.1607203483581543 L 24.0 -0.1607203483581543 L 24.0 -0.24528701603412628 L 25.0 -0.24528701603412628" style="vector-effect: non-scaling-stroke;fill:none;" /></g></g></g></g></g></g></g></g><g /></g></g></g></g></svg>