<?xml version="1.0" encoding="utf-8" ?>
<svg baseProfile="full" height="300" version="1.1" width="1056" xmlns="http://www.w3.org/2000/svg" xmlns:ev="http://www.w3.org/2001/xml-events" xmlns:xlink="http://www.w3.org/1999/xlink"><defs><marker id="arrow" markerHeight="3.5" markerWidth="5" orient="auto" refX="5.0" refY="1.7"><polygon points="0,0 5,1.75 0,3.5" /></marker></defs><g style="fill:white;"><g transform="matrix(1.0, 0.0, 0.0, 1.0, 528.4090909090908, 150.0)"><g transform="matrix(1082.2510822510822, 0.0, 0.0, 1082.2510822510822, 0.0, 0.0)"><g><g transform="matrix(1.0, 0.0, 0.0, 1.0, -0.0, -0.08000000000000002)"><g><g><g style="fill: #ffffff;stroke: black;stroke-width: 1.2000000000000002;" transform="matrix(1.0, 0.0, 0.0, 1.0, -0.4649999999999999, -0.052000000000000005)"><path d="M 0.0 0.0 L 0.9299999999999998 0.0 L 0.9299999999999998 0.264 L 0.0 0.264 L 0.0 0.0 Z" style="vector-effect: non-scaling-stroke;" /></g><g><g><g><g><g><g><g><g transform="matrix(1.0, 0.0, 0.0, 1.0, -0.4149999999999999, -0.03)"><g><g><g transform="matrix(1.0, 0.0, 0.0, 1.0, 0.075, 0.0)"><g transform="matrix(1.0, 0.0, 0.0, 1.0, 0.0, 0.03)"><g transform="matrix(0.01, 0.0, 0.0, 0.01, 0.0, 0.0)"><g><g><g transform="matrix(1.0, 0.0, 0.0, 1.0, 20.0, 0.0)"><g transform="matrix(1.0, 0.0, 0.0, 1.0, -27.5, -0.0)"><g><g style="fill: #d3d3d3;stroke: black;stroke-width: 1.2000000000000002;" transform="matrix(1.0, 0.0, 0.0, 1.0, 0.0, -3.0)"><path d="M 0.0 0.0 L 55.0 0.0 L 55.0 6.0 L 0.0 6.0 L 0.0 0.0 Z" style="vector-effect: non-scaling-stroke;" /></g><g transform="matrix(1.0, 0.0, 0.0, 1.0, 1.875, 0.0)"><g><g style="stroke: black;stroke-width: 1.2000000000000002;" transform="matrix(1.0, 0.0, 0.0, 1.0, 0.0, 0.0)"><g /></g><g style="fill: #ffa500;stroke: black;stroke-width: 1.2000000000000002;" transform="matrix(1.0, 0.0, 0.0, 1.0, 1.875, 0.0)"><text style="text-align:center; text-anchor:middle; dominant-baseline:middle;&#10;                      font-family:sans-serif; font-weight: bold;&#10;                      font-size:3px;&#10;                      vector-effect: non-scaling-stroke;" transform="translate(-5e-05, 0)">x</text></g></g></g></g></g></g><g><g><g><g><g><g><g><g style="stroke: black;stroke-width: 1.2000000000000002;" transform="matrix(1.0, 0.0, 0.0, 1.0, 0.0, 0.0)"><path d="M 0.0 -2.0 L 0.0 2.0" style="vector-effect: non-scaling-stroke;fill:none;" /></g><g style="stroke: #808080;stroke-width: 0.6000000000000001;" transform="matrix(1.0, 0.0, 0.0, 1.0, 0.0, 0.0)"><path d="M 0.0 0.0 L 40.0 0.0" style="vector-effect: non-scaling-stroke;fill:none;" /></g></g><g style="stroke: black;stroke-width: 2.4000000000000004;" transform="matrix(1.0, 0.0, 0.0, 1.0, 0.0, 0.0)"><path d="M 0.0 0.36892756819725037 L 1.0 0.36892756819725037 L 1.0 0.10681941360235214 L 2.0 0.10681941360235214 L 2.0 -0.40417441725730896 L 3.0 -0.40417441725730896 L 3.0 -0.45308804512023926 L 4.0 -0.45308804512023926 L 4.0 -0.6547780632972717 L 5.0 -0.6547780632972717 L 5.0 0.2719874083995819 L 6.0 0.2719874083995819 L 6.0 -0.2291276603937149 L 7.0 -0.2291276603937149 L 7.0 0.6312178373336792 L 8.0 0.6312178373336792 L 8.0 -0.04604702442884445 L 9.0 -0.04604702442884445 L 9.0 -0.6091361045837402 L 10.0 -0.6091361045837402 L 10.0 -0.9941620826721191 L 11.0 -0.9941620826721191 L 11.0 -1.3657546043395996 L 12.0 -1.3657546043395996 L 12.0 -0.5576217770576477 L 13.0 -0.5576217770576477 L 13.0 -1.5033526420593262 L 14.0 -1.5033526420593262 L 14.0 -0.9151825904846191 L 15.0 -0.9151825904846191 L 15.0 -1.642714500427246 L 16.0 -1.642714500427246 L 16.0 -1.4663134813308716 L 17.0 -1.4663134813308716 L 17.0 -1.3641618490219116 L 18.0 -1.3641618490219116 L 18.0 -0.9552580714225769 L 19.0 -0.9552580714225769 L 19.0 -0.5979908108711243 L 20.0 -0.5979908108711243 L 20.0 -1.0358208417892456 L 21.0 -1.0358208417892456 L 21.0 -0.6786758303642273 L 22.0 -0.6786758303642273 L 22.0 -1.435609221458435 L 23.0 -1.435609221458435 L 23.0 -0.7616475820541382 L 24.0 -0.7616475820541382 L 24.0 -0.7052664160728455 L 25.0 -0.7052664160728455 L 25.0 -0.17914047837257385 L 26.0 -0.17914047837257385 L 26.0 -1.8140982389450073 L 27.0 -1.8140982389450073 L 27.0 -1.4809788465499878 L 28.0 -1.4809788465499878 L 28.0 -0.1399087905883789 L 29.0 -0.1399087905883789 L 29.0 -1.1240906715393066 L 30.0 -1.1240906715393066 L 30.0 -1.5293102264404297 L 31.0 -1.5293102264404297 L 31.0 -1.983750820159912 L 32.0 -1.983750820159912 L 32.0 -1.2204375267028809 L 33.0 -1.2204375267028809 L 33.0 -0.11166233569383621 L 34.0 -0.11166233569383621 L 34.0 -1.1134977340698242 L 35.0 -1.1134977340698242 L 35.0 -0.46122583746910095 L 36.0 -0.46122583746910095 L 36.0 -0.36684322357177734 L 37.0 -0.36684322357177734 L 37.0 -1.0981719493865967 L 38.0 -1.0981719493865967 L 38.0 -0.8180548548698425 L 39.0 -0.8180548548698425 L 39.0 -1.9024450778961182 L 40.0 -1.9024450778961182" style="vector-effect: non-scaling-stroke;fill:none;" /></g></g><g style="stroke: black;stroke-width: 1.2000000000000002;" transform="matrix(1.0, 0.0, 0.0, 1.0, 0.0, 0.0)"><path d="M 0.0 -2.0 L 0.0 2.0" style="vector-effect: non-scaling-stroke;fill:none;" /></g></g><g style="stroke: black;stroke-width: 1.2000000000000002;" transform="matrix(1.0, 0.0, 0.0, 1.0, 0.0, 0.0)"><path d="M 10.0 -2.0 L 10.0 2.0" style="vector-effect: non-scaling-stroke;fill:none;" /></g></g><g style="stroke: black;stroke-width: 1.2000000000000002;" transform="matrix(1.0, 0.0, 0.0, 1.0, 0.0, 0.0)"><path d="M 20.0 -2.0 L 20.0 2.0" style="vector-effect: non-scaling-stroke;fill:none;" /></g></g><g style="stroke: black;stroke-width: 1.2000000000000002;" transform="matrix(1.0, 0.0, 0.0, 1.0, 0.0, 0.0)"><path d="M 30.0 -2.0 L 30.0 2.0" style="vector-effect: non-scaling-stroke;fill:none;" /></g></g></g></g><g><g><g><g><g><g><g><g style="stroke: black;stroke-width: 1.2000000000000002;" transform="matrix(1.0, 0.0, 0.0, 1.0, 0.0, 0.0)"><path d="M 0.0 -2.0 L 0.0 2.0" style="vector-effect: non-scaling-stroke;fill:none;" /></g><g style="stroke: #808080;stroke-width: 0.6000000000000001;" transform="matrix(1.0, 0.0, 0.0, 1.0, 0.0, 0.0)"><path d="M 0.0 0.0 L 40.0 0.0" style="vector-effect: non-scaling-stroke;fill:none;" /></g></g><g style="stroke: black;stroke-width: 2.4000000000000004;" transform="matrix(1.0, 0.0, 0.0, 1.0, 0.0, 0.0)"><path d="M 0.0 0.36892756819725037 L 1.0 0.36892756819725037 L 1.0 0.10681941360235214 L 2.0 0.10681941360235214 L 2.0 -0.40417441725730896 L 3.0 -0.40417441725730896 L 3.0 -0.45308804512023926 L 4.0 -0.45308804512023926 L 4.0 -0.6547780632972717 L 5.0 -0.6547780632972717 L 5.0 0.2719874083995819 L 6.0 0.2719874083995819 L 6.0 -0.2291276603937149 L 7.0 -0.2291276603937149 L 7.0 0.6312178373336792 L 8.0 0.6312178373336792 L 8.0 -0.04604702442884445 L 9.0 -0.04604702442884445 L 9.0 -0.6091361045837402 L 10.0 -0.6091361045837402 L 10.0 -0.9941620826721191 L 11.0 -0.9941620826721191 L 11.0 -1.3657546043395996 L 12.0 -1.3657546043395996 L 12.0 -0.5576217770576477 L 13.0 -0.5576217770576477 L 13.0 -1.5033526420593262 L 14.0 -1.5033526420593262 L 14.0 -0.9151825904846191 L 15.0 -0.9151825904846191 L 15.0 -1.642714500427246 L 16.0 -1.642714500427246 L 16.0 -1.4663134813308716 L 17.0 -1.4663134813308716 L 17.0 -1.3641618490219116 L 18.0 -1.3641618490219116 L 18.0 -0.9552580714225769 L 19.0 -0.9552580714225769 L 19.0 -0.5979908108711243 L 20.0 -0.5979908108711243 L 20.0 -1.0358208417892456 L 21.0 -1.0358208417892456 L 21.0 -0.6786758303642273 L 22.0 -0.6786758303642273 L 22.0 -1.435609221458435 L 23.0 -1.435609221458435 L 23.0 -0.7616475820541382 L 24.0 -0.7616475820541382 L 24.0 -0.7052664160728455 L 25.0 -0.7052664160728455 L 25.0 -0.17914047837257385 L 26.0 -0.17914047837257385 L 26.0 -1.8140982389450073 L 27.0 -1.8140982389450073 L 27.0 -1.4809788465499878 L 28.0 -1.4809788465499878 L 28.0 -0.1399087905883789 L 29.0 -0.1399087905883789 L 29.0 -1.1240906715393066 L 30.0 -1.1240906715393066 L 30.0 -1.5293102264404297 L 31.0 -1.5293102264404297 L 31.0 -1.983750820159912 L 32.0 -1.983750820159912 L 32.0 -1.2204375267028809 L 33.0 -1.2204375267028809 L 33.0 -0.11166233569383621 L 34.0 -0.11166233569383621 L 34.0 -1.1134977340698242 L 35.0 -1.1134977340698242 L 35.0 -0.46122583746910095 L 36.0 -0.46122583746910095 L 36.0 -0.36684322357177734 L 37.0 -0.36684322357177734 L 37.0 -1.0981719493865967 L 38.0 -1.0981719493865967 L 38.0 -0.8180548548698425 L 39.0 -0.8180548548698425 L 39.0 -1.9024450778961182 L 40.0 -1.9024450778961182" style="vector-effect: non-scaling-stroke;fill:none;" /></g></g><g style="stroke: black;stroke-width: 1.2000000000000002;" transform="matrix(1.0, 0.0, 0.0, 1.0, 0.0, 0.0)"><path d="M 0.0 -2.0 L 0.0 2.0" style="vector-effect: non-scaling-stroke;fill:none;" /></g></g><g style="stroke: black;stroke-width: 1.2000000000000002;" transform="matrix(1.0, 0.0, 0.0, 1.0, 0.0, 0.0)"><path d="M 10.0 -2.0 L 10.0 2.0" style="vector-effect: non-scaling-stroke;fill:none;" /></g></g><g style="stroke: black;stroke-width: 1.2000000000000002;" transform="matrix(1.0, 0.0, 0.0, 1.0, 0.0, 0.0)"><path d="M 20.0 -2.0 L 20.0 2.0" style="vector-effect: non-scaling-stroke;fill:none;" /></g></g><g style="stroke: black;stroke-width: 1.2000000000000002;" transform="matrix(1.0, 0.0, 0.0, 1.0, 0.0, 0.0)"><path d="M 30.0 -2.0 L 30.0 2.0" style="vector-effect: non-scaling-stroke;fill:none;" /></g></g></g></g></g></g></g><g style="stroke: black;stroke-width: 1.2000000000000002;" transform="matrix(1.0, 0.0, 0.0, 1.0, 0.565, 0.0)"><g /></g></g><g transform="matrix(1.0, 0.0, 0.0, 1.0, 0.58, 0.0)"><g transform="matrix(1.0, 0.0, 0.0, 1.0, 0.075, 0.0)"><g transform="matrix(1.0, 0.0, 0.0, 1.0, 0.0, 0.03)"><g transform="matrix(0.01, 0.0, 0.0, 0.01, 0.0, 0.0)"><g><g><g transform="matrix(1.0, 0.0, 0.0, 1.0, 5.0, 0.0)"><g transform="matrix(1.0, 0.0, 0.0, 1.0, -12.5, -0.0)"><g><g style="fill: #d3d3d3;stroke: black;stroke-width: 1.2000000000000002;" transform="matrix(1.0, 0.0, 0.0, 1.0, 0.0, -3.0)"><path d="M 0.0 0.0 L 25.0 0.0 L 25.0 6.0 L 0.0 6.0 L 0.0 0.0 Z" style="vector-effect: non-scaling-stroke;" /></g><g transform="matrix(1.0, 0.0, 0.0, 1.0, 1.875, 0.0)"><g><g style="stroke: black;stroke-width: 1.2000000000000002;" transform="matrix(1.0, 0.0, 0.0, 1.0, 0.0, 0.0)"><g /></g><g style="fill: #ffa500;stroke: black;stroke-width: 1.2000000000000002;" transform="matrix(1.0, 0.0, 0.0, 1.0, 1.875, 0.0)"><text style="text-align:center; text-anchor:middle; dominant-baseline:middle;&#10;                      font-family:sans-serif; font-weight: bold;&#10;                      font-size:3px;&#10;                      vector-effect: non-scaling-stroke;" transform="translate(-5e-05, 0)">y</text></g></g></g></g></g></g><g><g><g><g style="stroke: black;stroke-width: 1.2000000000000002;" transform="matrix(1.0, 0.0, 0.0, 1.0, 0.0, 0.0)"><path d="M 0.0 -2.0 L 0.0 2.0" style="vector-effect: non-scaling-stroke;fill:none;" /></g><g style="stroke: #808080;stroke-width: 0.6000000000000001;" transform="matrix(1.0, 0.0, 0.0, 1.0, 0.0, 0.0)"><path d="M 0.0 0.0 L 10.0 0.0" style="vector-effect: non-scaling-stroke;fill:none;" /></g></g><g style="stroke: black;stroke-width: 2.4000000000000004;" transform="matrix(1.0, 0.0, 0.0, 1.0, 0.0, 0.0)"><path d="M 0.0 -1.2284631729125977 L 1.0 -1.2284631729125977 L 1.0 -1.3120884895324707 L 2.0 -1.3120884895324707 L 2.0 -0.8512806296348572 L 3.0 -0.8512806296348572 L 3.0 -0.69685298204422 L 4.0 -0.69685298204422 L 4.0 -0.4450138509273529 L 5.0 -0.4450138509273529 L 5.0 -0.6431826949119568 L 6.0 -0.6431826949119568 L 6.0 -1.1062308549880981 L 7.0 -1.1062308549880981 L 7.0 -1.6847048997879028 L 8.0 -1.6847048997879028 L 8.0 0.05547328665852547 L 9.0 0.05547328665852547 L 9.0 -0.5061242580413818 L 10.0 -0.5061242580413818" style="vector-effect: non-scaling-stroke;fill:none;" /></g></g></g></g><g><g><g><g style="stroke: black;stroke-width: 1.2000000000000002;" transform="matrix(1.0, 0.0, 0.0, 1.0, 0.0, 0.0)"><path d="M 0.0 -2.0 L 0.0 2.0" style="vector-effect: non-scaling-stroke;fill:none;" /></g><g style="stroke: #808080;stroke-width: 0.6000000000000001;" transform="matrix(1.0, 0.0, 0.0, 1.0, 0.0, 0.0)"><path d="M 0.0 0.0 L 10.0 0.0" style="vector-effect: non-scaling-stroke;fill:none;" /></g></g><g style="stroke: black;stroke-width: 2.4000000000000004;" transform="matrix(1.0, 0.0, 0.0, 1.0, 0.0, 0.0)"><path d="M 0.0 -1.2284631729125977 L 1.0 -1.2284631729125977 L 1.0 -1.3120884895324707 L 2.0 -1.3120884895324707 L 2.0 -0.8512806296348572 L 3.0 -0.8512806296348572 L 3.0 -0.69685298204422 L 4.0 -0.69685298204422 L 4.0 -0.4450138509273529 L 5.0 -0.4450138509273529 L 5.0 -0.6431826949119568 L 6.0 -0.6431826949119568 L 6.0 -1.1062308549880981 L 7.0 -1.1062308549880981 L 7.0 -1.6847048997879028 L 8.0 -1.6847048997879028 L 8.0 0.05547328665852547 L 9.0 0.05547328665852547 L 9.0 -0.5061242580413818 L 10.0 -0.5061242580413818" style="vector-effect: non-scaling-stroke;fill:none;" /></g></g></g></g></g></g></g></g></g></g><g style="stroke: black;stroke-width: 1.2000000000000002;" transform="matrix(0.0, -1.0, 1.0, 0.0, 0.0, 0.08)"><g /></g></g><g transform="matrix(1.0, 0.0, 0.0, 1.0, 0.0, 0.16)"><g transform="matrix(1.0, 0.0, 0.0, 1.0, -0.27499999999999997, -0.03)"><g transform="matrix(1.0, 0.0, 0.0, 1.0, 0.075, 0.0)"><g transform="matrix(1.0, 0.0, 0.0, 1.0, 0.0, 0.03)"><g transform="matrix(0.01, 0.0, 0.0, 0.01, 0.0, 0.0)"><g><g><g transform="matrix(1.0, 0.0, 0.0, 1.0, 20.0, 0.0)"><g transform="matrix(1.0, 0.0, 0.0, 1.0, -27.5, -0.0)"><g><g style="fill: #d3d3d3;stroke: black;stroke-width: 1.2000000000000002;" transform="matrix(1.0, 0.0, 0.0, 1.0, 0.0, -3.0)"><path d="M 0.0 0.0 L 55.0 0.0 L 55.0 6.0 L 0.0 6.0 L 0.0 0.0 Z" style="vector-effect: non-scaling-stroke;" /></g><g transform="matrix(1.0, 0.0, 0.0, 1.0, 1.875, 0.0)"><g><g style="stroke: black;stroke-width: 1.2000000000000002;" transform="matrix(1.0, 0.0, 0.0, 1.0, 0.0, 0.0)"><g /></g><g style="fill: #ffa500;stroke: black;stroke-width: 1.2000000000000002;" transform="matrix(1.0, 0.0, 0.0, 1.0, 1.875, 0.0)"><text style="text-align:center; text-anchor:middle; dominant-baseline:middle;&#10;                      font-family:sans-serif; font-weight: bold;&#10;                      font-size:3px;&#10;                      vector-effect: non-scaling-stroke;" transform="translate(-5e-05, 0)">f(x)</text></g></g></g></g></g></g><g><g><g><g style="stroke: black;stroke-width: 1.2000000000000002;" transform="matrix(1.0, 0.0, 0.0, 1.0, 0.0, 0.0)"><path d="M 0.0 -2.0 L 0.0 2.0" style="vector-effect: non-scaling-stroke;fill:none;" /></g><g style="stroke: #808080;stroke-width: 0.6000000000000001;" transform="matrix(1.0, 0.0, 0.0, 1.0, 0.0, 0.0)"><path d="M 0.0 0.0 L 40.0 0.0" style="vector-effect: non-scaling-stroke;fill:none;" /></g></g><g style="stroke: black;stroke-width: 2.4000000000000004;" transform="matrix(1.0, 0.0, 0.0, 1.0, 0.0, 0.0)"><path d="M 0.0 0.36892756819725037 L 1.0 0.36892756819725037 L 1.0 -0.9941620826721191 L 2.0 -0.9941620826721191 L 2.0 -1.0358208417892456 L 3.0 -1.0358208417892456 L 3.0 -1.5293102264404297 L 4.0 -1.5293102264404297 L 4.0 0.10681941360235214 L 5.0 0.10681941360235214 L 5.0 -1.3657546043395996 L 6.0 -1.3657546043395996 L 6.0 -0.6786758303642273 L 7.0 -0.6786758303642273 L 7.0 -1.983750820159912 L 8.0 -1.983750820159912 L 8.0 -0.40417441725730896 L 9.0 -0.40417441725730896 L 9.0 -0.5576217770576477 L 10.0 -0.5576217770576477 L 10.0 -1.435609221458435 L 11.0 -1.435609221458435 L 11.0 -1.2204375267028809 L 12.0 -1.2204375267028809 L 12.0 -0.45308804512023926 L 13.0 -0.45308804512023926 L 13.0 -1.5033526420593262 L 14.0 -1.5033526420593262 L 14.0 -0.7616475820541382 L 15.0 -0.7616475820541382 L 15.0 -0.11166233569383621 L 16.0 -0.11166233569383621 L 16.0 -0.6547780632972717 L 17.0 -0.6547780632972717 L 17.0 -0.9151825904846191 L 18.0 -0.9151825904846191 L 18.0 -0.7052664160728455 L 19.0 -0.7052664160728455 L 19.0 -1.1134977340698242 L 20.0 -1.1134977340698242 L 20.0 0.2719874083995819 L 21.0 0.2719874083995819 L 21.0 -1.642714500427246 L 22.0 -1.642714500427246 L 22.0 -0.17914047837257385 L 23.0 -0.17914047837257385 L 23.0 -0.46122583746910095 L 24.0 -0.46122583746910095 L 24.0 -0.2291276603937149 L 25.0 -0.2291276603937149 L 25.0 -1.4663134813308716 L 26.0 -1.4663134813308716 L 26.0 -1.8140982389450073 L 27.0 -1.8140982389450073 L 27.0 -0.36684322357177734 L 28.0 -0.36684322357177734 L 28.0 0.6312178373336792 L 29.0 0.6312178373336792 L 29.0 -1.3641618490219116 L 30.0 -1.3641618490219116 L 30.0 -1.4809788465499878 L 31.0 -1.4809788465499878 L 31.0 -1.0981719493865967 L 32.0 -1.0981719493865967 L 32.0 -0.04604702442884445 L 33.0 -0.04604702442884445 L 33.0 -0.9552580714225769 L 34.0 -0.9552580714225769 L 34.0 -0.1399087905883789 L 35.0 -0.1399087905883789 L 35.0 -0.8180548548698425 L 36.0 -0.8180548548698425 L 36.0 -0.6091361045837402 L 37.0 -0.6091361045837402 L 37.0 -0.5979908108711243 L 38.0 -0.5979908108711243 L 38.0 -1.1240906715393066 L 39.0 -1.1240906715393066 L 39.0 -1.9024450778961182 L 40.0 -1.9024450778961182" style="vector-effect: non-scaling-stroke;fill:none;" /></g></g></g></g><g><g><g><g style="stroke: black;stroke-width: 1.2000000000000002;" transform="matrix(1.0, 0.0, 0.0, 1.0, 0.0, 0.0)"><path d="M 0.0 -2.0 L 0.0 2.0" style="vector-effect: non-scaling-stroke;fill:none;" /></g><g style="stroke: #808080;stroke-width: 0.6000000000000001;" transform="matrix(1.0, 0.0, 0.0, 1.0, 0.0, 0.0)"><path d="M 0.0 0.0 L 40.0 0.0" style="vector-effect: non-scaling-stroke;fill:none;" /></g></g><g style="stroke: black;stroke-width: 2.4000000000000004;" transform="matrix(1.0, 0.0, 0.0, 1.0, 0.0, 0.0)"><path d="M 0.0 0.36892756819725037 L 1.0 0.36892756819725037 L 1.0 -0.9941620826721191 L 2.0 -0.9941620826721191 L 2.0 -1.0358208417892456 L 3.0 -1.0358208417892456 L 3.0 -1.5293102264404297 L 4.0 -1.5293102264404297 L 4.0 0.10681941360235214 L 5.0 0.10681941360235214 L 5.0 -1.3657546043395996 L 6.0 -1.3657546043395996 L 6.0 -0.6786758303642273 L 7.0 -0.6786758303642273 L 7.0 -1.983750820159912 L 8.0 -1.983750820159912 L 8.0 -0.40417441725730896 L 9.0 -0.40417441725730896 L 9.0 -0.5576217770576477 L 10.0 -0.5576217770576477 L 10.0 -1.435609221458435 L 11.0 -1.435609221458435 L 11.0 -1.2204375267028809 L 12.0 -1.2204375267028809 L 12.0 -0.45308804512023926 L 13.0 -0.45308804512023926 L 13.0 -1.5033526420593262 L 14.0 -1.5033526420593262 L 14.0 -0.7616475820541382 L 15.0 -0.7616475820541382 L 15.0 -0.11166233569383621 L 16.0 -0.11166233569383621 L 16.0 -0.6547780632972717 L 17.0 -0.6547780632972717 L 17.0 -0.9151825904846191 L 18.0 -0.9151825904846191 L 18.0 -0.7052664160728455 L 19.0 -0.7052664160728455 L 19.0 -1.1134977340698242 L 20.0 -1.1134977340698242 L 20.0 0.2719874083995819 L 21.0 0.2719874083995819 L 21.0 -1.642714500427246 L 22.0 -1.642714500427246 L 22.0 -0.17914047837257385 L 23.0 -0.17914047837257385 L 23.0 -0.46122583746910095 L 24.0 -0.46122583746910095 L 24.0 -0.2291276603937149 L 25.0 -0.2291276603937149 L 25.0 -1.4663134813308716 L 26.0 -1.4663134813308716 L 26.0 -1.8140982389450073 L 27.0 -1.8140982389450073 L 27.0 -0.36684322357177734 L 28.0 -0.36684322357177734 L 28.0 0.6312178373336792 L 29.0 0.6312178373336792 L 29.0 -1.3641618490219116 L 30.0 -1.3641618490219116 L 30.0 -1.4809788465499878 L 31.0 -1.4809788465499878 L 31.0 -1.0981719493865967 L 32.0 -1.0981719493865967 L 32.0 -0.04604702442884445 L 33.0 -0.04604702442884445 L 33.0 -0.9552580714225769 L 34.0 -0.9552580714225769 L 34.0 -0.1399087905883789 L 35.0 -0.1399087905883789 L 35.0 -0.8180548548698425 L 36.0 -0.8180548548698425 L 36.0 -0.6091361045837402 L 37.0 -0.6091361045837402 L 37.0 -0.5979908108711243 L 38.0 -0.5979908108711243 L 38.0 -1.1240906715393066 L 39.0 -1.1240906715393066 L 39.0 -1.9024450778961182 L 40.0 -1.9024450778961182" style="vector-effect: non-scaling-stroke;fill:none;" /></g></g></g></g></g></g></g></g></g></g><g transform="matrix(1.0, 0.0, 0.0, 1.0, -0.19999999999999996, 0.16)"><g transform="matrix(1.0, 0.0, 0.0, 0.009999999999999995, 0.0, 0.0)"><g transform="matrix(0.01, 0.0, 0.0, 1.0, 0.0, 0.0)"><g><g><g style="fill: #ffffe0;stroke: #ffffe0;stroke-width: 1.2000000000000002;fill-opacity: 0.5;" transform="matrix(1.0, 0.0, 0.0, 1.0, 0.0, 0.0)"><path d="M 0.0 -2.0 L 0.0 2.0" style="vector-effect: non-scaling-stroke;fill:none;" /></g><g style="fill: #ffffe0;stroke: #ffffe0;stroke-width: 1.2000000000000002;fill-opacity: 0.5;" transform="matrix(1.0, 0.0, 0.0, 1.0, 0.0, 0.0)"><path d="M 0.0 -1.6308082342147827 L 1.0 -1.6308082342147827 L 1.0 -2.0 L 2.0 -2.0 L 2.0 -2.0 L 3.0 -2.0 L 3.0 -2.0 L 4.0 -2.0 L 4.0 -1.8929164409637451 L 5.0 -1.8929164409637451 L 5.0 -2.0 L 6.0 -2.0 L 6.0 -2.0 L 7.0 -2.0 L 7.0 -2.0 L 8.0 -2.0 L 8.0 -2.0 L 9.0 -2.0 L 9.0 -2.0 L 10.0 -2.0 L 10.0 -2.0 L 11.0 -2.0 L 11.0 -2.0 L 12.0 -2.0 L 12.0 -2.0 L 13.0 -2.0 L 13.0 -2.0 L 14.0 -2.0 L 14.0 -2.0 L 15.0 -2.0 L 15.0 -2.0 L 16.0 -2.0 L 16.0 -2.0 L 17.0 -2.0 L 17.0 -2.0 L 18.0 -2.0 L 18.0 -2.0 L 19.0 -2.0 L 19.0 -2.0 L 20.0 -2.0 L 20.0 -1.7277483940124512 L 21.0 -1.7277483940124512 L 21.0 -2.0 L 22.0 -2.0 L 22.0 -2.0 L 23.0 -2.0 L 23.0 -2.0 L 24.0 -2.0 L 24.0 -2.0 L 25.0 -2.0 L 25.0 -2.0 L 26.0 -2.0 L 26.0 -2.0 L 27.0 -2.0 L 27.0 -2.0 L 28.0 -2.0 L 28.0 -1.3714982271194458 L 29.0 -1.3714982271194458 L 29.0 -2.0 L 30.0 -2.0 L 30.0 -2.0 L 31.0 -2.0 L 31.0 -2.0 L 32.0 -2.0 L 32.0 -2.0 L 33.0 -2.0 L 33.0 -2.0 L 34.0 -2.0 L 34.0 -2.0 L 35.0 -2.0 L 35.0 -2.0 L 36.0 -2.0 L 36.0 -2.0 L 37.0 -2.0 L 37.0 -2.0 L 38.0 -2.0 L 38.0 -2.0 L 39.0 -2.0 L 39.0 -2.0 L 40.0 -2.0 L 40.0 -1.9024450778961182 L 39.0 -1.9024450778961182 L 39.0 -1.1240906715393066 L 38.0 -1.1240906715393066 L 38.0 -0.5979908108711243 L 37.0 -0.5979908108711243 L 37.0 -0.6091361045837402 L 36.0 -0.6091361045837402 L 36.0 -0.8180548548698425 L 35.0 -0.8180548548698425 L 35.0 -0.1399087905883789 L 34.0 -0.1399087905883789 L 34.0 -0.9552580714225769 L 33.0 -0.9552580714225769 L 33.0 -0.04604702442884445 L 32.0 -0.04604702442884445 L 32.0 -1.0981719493865967 L 31.0 -1.0981719493865967 L 31.0 -1.4809788465499878 L 30.0 -1.4809788465499878 L 30.0 -1.3641618490219116 L 29.0 -1.3641618490219116 L 29.0 0.6312178373336792 L 28.0 0.6312178373336792 L 28.0 -0.36684322357177734 L 27.0 -0.36684322357177734 L 27.0 -1.8140982389450073 L 26.0 -1.8140982389450073 L 26.0 -1.4663134813308716 L 25.0 -1.4663134813308716 L 25.0 -0.2291276603937149 L 24.0 -0.2291276603937149 L 24.0 -0.46122583746910095 L 23.0 -0.46122583746910095 L 23.0 -0.17914047837257385 L 22.0 -0.17914047837257385 L 22.0 -1.642714500427246 L 21.0 -1.642714500427246 L 21.0 0.2719874083995819 L 20.0 0.2719874083995819 L 20.0 -1.1134977340698242 L 19.0 -1.1134977340698242 L 19.0 -0.7052664160728455 L 18.0 -0.7052664160728455 L 18.0 -0.9151825904846191 L 17.0 -0.9151825904846191 L 17.0 -0.6547780632972717 L 16.0 -0.6547780632972717 L 16.0 -0.11166233569383621 L 15.0 -0.11166233569383621 L 15.0 -0.7616475820541382 L 14.0 -0.7616475820541382 L 14.0 -1.5033526420593262 L 13.0 -1.5033526420593262 L 13.0 -0.45308804512023926 L 12.0 -0.45308804512023926 L 12.0 -1.2204375267028809 L 11.0 -1.2204375267028809 L 11.0 -1.435609221458435 L 10.0 -1.435609221458435 L 10.0 -0.5576217770576477 L 9.0 -0.5576217770576477 L 9.0 -0.40417441725730896 L 8.0 -0.40417441725730896 L 8.0 -1.983750820159912 L 7.0 -1.983750820159912 L 7.0 -0.6786758303642273 L 6.0 -0.6786758303642273 L 6.0 -1.3657546043395996 L 5.0 -1.3657546043395996 L 5.0 0.10681941360235214 L 4.0 0.10681941360235214 L 4.0 -1.5293102264404297 L 3.0 -1.5293102264404297 L 3.0 -1.0358208417892456 L 2.0 -1.0358208417892456 L 2.0 -0.9941620826721191 L 1.0 -0.9941620826721191 L 1.0 0.36892756819725037 L 0.0 0.36892756819725037 Z" style="vector-effect: non-scaling-stroke;" /></g></g><g style="stroke: black;stroke-width: 1.2000000000000002;" transform="matrix(1.0, 0.0, 0.0, 1.0, 0.0, 0.0)"><path d="M 0.0 0.36892756819725037 L 1.0 0.36892756819725037 L 1.0 -0.9941620826721191 L 2.0 -0.9941620826721191 L 2.0 -1.0358208417892456 L 3.0 -1.0358208417892456 L 3.0 -1.5293102264404297 L 4.0 -1.5293102264404297 L 4.0 0.10681941360235214 L 5.0 0.10681941360235214 L 5.0 -1.3657546043395996 L 6.0 -1.3657546043395996 L 6.0 -0.6786758303642273 L 7.0 -0.6786758303642273 L 7.0 -1.983750820159912 L 8.0 -1.983750820159912 L 8.0 -0.40417441725730896 L 9.0 -0.40417441725730896 L 9.0 -0.5576217770576477 L 10.0 -0.5576217770576477 L 10.0 -1.435609221458435 L 11.0 -1.435609221458435 L 11.0 -1.2204375267028809 L 12.0 -1.2204375267028809 L 12.0 -0.45308804512023926 L 13.0 -0.45308804512023926 L 13.0 -1.5033526420593262 L 14.0 -1.5033526420593262 L 14.0 -0.7616475820541382 L 15.0 -0.7616475820541382 L 15.0 -0.11166233569383621 L 16.0 -0.11166233569383621 L 16.0 -0.6547780632972717 L 17.0 -0.6547780632972717 L 17.0 -0.9151825904846191 L 18.0 -0.9151825904846191 L 18.0 -0.7052664160728455 L 19.0 -0.7052664160728455 L 19.0 -1.1134977340698242 L 20.0 -1.1134977340698242 L 20.0 0.2719874083995819 L 21.0 0.2719874083995819 L 21.0 -1.642714500427246 L 22.0 -1.642714500427246 L 22.0 -0.17914047837257385 L 23.0 -0.17914047837257385 L 23.0 -0.46122583746910095 L 24.0 -0.46122583746910095 L 24.0 -0.2291276603937149 L 25.0 -0.2291276603937149 L 25.0 -1.4663134813308716 L 26.0 -1.4663134813308716 L 26.0 -1.8140982389450073 L 27.0 -1.8140982389450073 L 27.0 -0.36684322357177734 L 28.0 -0.36684322357177734 L 28.0 0.6312178373336792 L 29.0 0.6312178373336792 L 29.0 -1.3641618490219116 L 30.0 -1.3641618490219116 L 30.0 -1.4809788465499878 L 31.0 -1.4809788465499878 L 31.0 -1.0981719493865967 L 32.0 -1.0981719493865967 L 32.0 -0.04604702442884445 L 33.0 -0.04604702442884445 L 33.0 -0.9552580714225769 L 34.0 -0.9552580714225769 L 34.0 -0.1399087905883789 L 35.0 -0.1399087905883789 L 35.0 -0.8180548548698425 L 36.0 -0.8180548548698425 L 36.0 -0.6091361045837402 L 37.0 -0.6091361045837402 L 37.0 -0.5979908108711243 L 38.0 -0.5979908108711243 L 38.0 -1.1240906715393066 L 39.0 -1.1240906715393066 L 39.0 -1.9024450778961182 L 40.0 -1.9024450778961182" style="vector-effect: non-scaling-stroke;fill:none;" /></g></g></g></g></g></g><g transform="matrix(1.0, 0.0, 0.0, 1.0, -0.19999999999999996, 0.16)"><g transform="matrix(1.0, 0.0, 0.0, 0.009999999999999995, 0.0, 0.0)"><g transform="matrix(0.01, 0.0, 0.0, 1.0, 0.0, 0.0)"><g><g><g style="fill: #add8e6;stroke: #add8e6;stroke-width: 1.2000000000000002;fill-opacity: 0.5;" transform="matrix(1.0, 0.0, 0.0, 1.0, 0.0, 0.0)"><path d="M 0.0 -2.0 L 0.0 2.0" style="vector-effect: non-scaling-stroke;fill:none;" /></g><g style="fill: #add8e6;stroke: #add8e6;stroke-width: 1.2000000000000002;fill-opacity: 0.5;" transform="matrix(1.0, 0.0, 0.0, 1.0, 0.0, 0.0)"><path d="M 0.0 0.36892756819725037 L 1.0 0.36892756819725037 L 1.0 -0.9941620826721191 L 2.0 -0.9941620826721191 L 2.0 -1.0358208417892456 L 3.0 -1.0358208417892456 L 3.0 -1.5293102264404297 L 4.0 -1.5293102264404297 L 4.0 0.10681941360235214 L 5.0 0.10681941360235214 L 5.0 -1.3657546043395996 L 6.0 -1.3657546043395996 L 6.0 -0.6786758303642273 L 7.0 -0.6786758303642273 L 7.0 -1.983750820159912 L 8.0 -1.983750820159912 L 8.0 -0.40417441725730896 L 9.0 -0.40417441725730896 L 9.0 -0.5576217770576477 L 10.0 -0.5576217770576477 L 10.0 -1.435609221458435 L 11.0 -1.435609221458435 L 11.0 -1.2204375267028809 L 12.0 -1.2204375267028809 L 12.0 -0.45308804512023926 L 13.0 -0.45308804512023926 L 13.0 -1.5033526420593262 L 14.0 -1.5033526420593262 L 14.0 -0.7616475820541382 L 15.0 -0.7616475820541382 L 15.0 -0.11166233569383621 L 16.0 -0.11166233569383621 L 16.0 -0.6547780632972717 L 17.0 -0.6547780632972717 L 17.0 -0.9151825904846191 L 18.0 -0.9151825904846191 L 18.0 -0.7052664160728455 L 19.0 -0.7052664160728455 L 19.0 -1.1134977340698242 L 20.0 -1.1134977340698242 L 20.0 0.2719874083995819 L 21.0 0.2719874083995819 L 21.0 -1.642714500427246 L 22.0 -1.642714500427246 L 22.0 -0.17914047837257385 L 23.0 -0.17914047837257385 L 23.0 -0.46122583746910095 L 24.0 -0.46122583746910095 L 24.0 -0.2291276603937149 L 25.0 -0.2291276603937149 L 25.0 -1.4663134813308716 L 26.0 -1.4663134813308716 L 26.0 -1.8140982389450073 L 27.0 -1.8140982389450073 L 27.0 -0.36684322357177734 L 28.0 -0.36684322357177734 L 28.0 0.6312178373336792 L 29.0 0.6312178373336792 L 29.0 -1.3641618490219116 L 30.0 -1.3641618490219116 L 30.0 -1.4809788465499878 L 31.0 -1.4809788465499878 L 31.0 -1.0981719493865967 L 32.0 -1.0981719493865967 L 32.0 -0.04604702442884445 L 33.0 -0.04604702442884445 L 33.0 -0.9552580714225769 L 34.0 -0.9552580714225769 L 34.0 -0.1399087905883789 L 35.0 -0.1399087905883789 L 35.0 -0.8180548548698425 L 36.0 -0.8180548548698425 L 36.0 -0.6091361045837402 L 37.0 -0.6091361045837402 L 37.0 -0.5979908108711243 L 38.0 -0.5979908108711243 L 38.0 -1.1240906715393066 L 39.0 -1.1240906715393066 L 39.0 -1.9024450778961182 L 40.0 -1.9024450778961182 L 40.0 -1.9024450778961182 L 39.0 -1.9024450778961182 L 39.0 -1.1240906715393066 L 38.0 -1.1240906715393066 L 38.0 -0.5979908108711243 L 37.0 -0.5979908108711243 L 37.0 -0.6091361045837402 L 36.0 -0.6091361045837402 L 36.0 -0.8180548548698425 L 35.0 -0.8180548548698425 L 35.0 -0.1399087905883789 L 34.0 -0.1399087905883789 L 34.0 -0.9552580714225769 L 33.0 -0.9552580714225769 L 33.0 -0.04604702442884445 L 32.0 -0.04604702442884445 L 32.0 -1.0981719493865967 L 31.0 -1.0981719493865967 L 31.0 -1.4809788465499878 L 30.0 -1.4809788465499878 L 30.0 -1.3641618490219116 L 29.0 -1.3641618490219116 L 29.0 0.6312178373336792 L 28.0 0.6312178373336792 L 28.0 -0.36684322357177734 L 27.0 -0.36684322357177734 L 27.0 -1.8140982389450073 L 26.0 -1.8140982389450073 L 26.0 -1.4663134813308716 L 25.0 -1.4663134813308716 L 25.0 -0.2291276603937149 L 24.0 -0.2291276603937149 L 24.0 -0.46122583746910095 L 23.0 -0.46122583746910095 L 23.0 -0.17914047837257385 L 22.0 -0.17914047837257385 L 22.0 -1.642714500427246 L 21.0 -1.642714500427246 L 21.0 0.2719874083995819 L 20.0 0.2719874083995819 L 20.0 -1.1134977340698242 L 19.0 -1.1134977340698242 L 19.0 -0.7052664160728455 L 18.0 -0.7052664160728455 L 18.0 -0.9151825904846191 L 17.0 -0.9151825904846191 L 17.0 -0.6547780632972717 L 16.0 -0.6547780632972717 L 16.0 -0.11166233569383621 L 15.0 -0.11166233569383621 L 15.0 -0.7616475820541382 L 14.0 -0.7616475820541382 L 14.0 -1.5033526420593262 L 13.0 -1.5033526420593262 L 13.0 -0.45308804512023926 L 12.0 -0.45308804512023926 L 12.0 -1.2204375267028809 L 11.0 -1.2204375267028809 L 11.0 -1.435609221458435 L 10.0 -1.435609221458435 L 10.0 -0.5576217770576477 L 9.0 -0.5576217770576477 L 9.0 -0.40417441725730896 L 8.0 -0.40417441725730896 L 8.0 -1.983750820159912 L 7.0 -1.983750820159912 L 7.0 -0.6786758303642273 L 6.0 -0.6786758303642273 L 6.0 -1.3657546043395996 L 5.0 -1.3657546043395996 L 5.0 0.10681941360235214 L 4.0 0.10681941360235214 L 4.0 -1.5293102264404297 L 3.0 -1.5293102264404297 L 3.0 -1.0358208417892456 L 2.0 -1.0358208417892456 L 2.0 -0.9941620826721191 L 1.0 -0.9941620826721191 L 1.0 0.36892756819725037 L 0.0 0.36892756819725037 Z" style="vector-effect: non-scaling-stroke;" /></g></g><g style="stroke: black;stroke-width: 1.2000000000000002;" transform="matrix(1.0, 0.0, 0.0, 1.0, 0.0, 0.0)"><path d="M 0.0 0.36892756819725037 L 1.0 0.36892756819725037 L 1.0 -0.9941620826721191 L 2.0 -0.9941620826721191 L 2.0 -1.0358208417892456 L 3.0 -1.0358208417892456 L 3.0 -1.5293102264404297 L 4.0 -1.5293102264404297 L 4.0 0.10681941360235214 L 5.0 0.10681941360235214 L 5.0 -1.3657546043395996 L 6.0 -1.3657546043395996 L 6.0 -0.6786758303642273 L 7.0 -0.6786758303642273 L 7.0 -1.983750820159912 L 8.0 -1.983750820159912 L 8.0 -0.40417441725730896 L 9.0 -0.40417441725730896 L 9.0 -0.5576217770576477 L 10.0 -0.5576217770576477 L 10.0 -1.435609221458435 L 11.0 -1.435609221458435 L 11.0 -1.2204375267028809 L 12.0 -1.2204375267028809 L 12.0 -0.45308804512023926 L 13.0 -0.45308804512023926 L 13.0 -1.5033526420593262 L 14.0 -1.5033526420593262 L 14.0 -0.7616475820541382 L 15.0 -0.7616475820541382 L 15.0 -0.11166233569383621 L 16.0 -0.11166233569383621 L 16.0 -0.6547780632972717 L 17.0 -0.6547780632972717 L 17.0 -0.9151825904846191 L 18.0 -0.9151825904846191 L 18.0 -0.7052664160728455 L 19.0 -0.7052664160728455 L 19.0 -1.1134977340698242 L 20.0 -1.1134977340698242 L 20.0 0.2719874083995819 L 21.0 0.2719874083995819 L 21.0 -1.642714500427246 L 22.0 -1.642714500427246 L 22.0 -0.17914047837257385 L 23.0 -0.17914047837257385 L 23.0 -0.46122583746910095 L 24.0 -0.46122583746910095 L 24.0 -0.2291276603937149 L 25.0 -0.2291276603937149 L 25.0 -1.4663134813308716 L 26.0 -1.4663134813308716 L 26.0 -1.8140982389450073 L 27.0 -1.8140982389450073 L 27.0 -0.36684322357177734 L 28.0 -0.36684322357177734 L 28.0 0.6312178373336792 L 29.0 0.6312178373336792 L 29.0 -1.3641618490219116 L 30.0 -1.3641618490219116 L 30.0 -1.4809788465499878 L 31.0 -1.4809788465499878 L 31.0 -1.0981719493865967 L 32.0 -1.0981719493865967 L 32.0 -0.04604702442884445 L 33.0 -0.04604702442884445 L 33.0 -0.9552580714225769 L 34.0 -0.9552580714225769 L 34.0 -0.1399087905883789 L 35.0 -0.1399087905883789 L 35.0 -0.8180548548698425 L 36.0 -0.8180548548698425 L 36.0 -0.6091361045837402 L 37.0 -0.6091361045837402 L 37.0 -0.5979908108711243 L 38.0 -0.5979908108711243 L 38.0 -1.1240906715393066 L 39.0 -1.1240906715393066 L 39.0 -1.9024450778961182 L 40.0 -1.9024450778961182" style="vector-effect: non-scaling-stroke;fill:none;" /></g></g></g></g></g></g><g transform="matrix(1.0, 0.0, 0.0, 1.0, -0.19999999999999996, 0.16)"><g transform="matrix(1.0, 0.0, 0.0, 0.009999999999999995, 0.0, 0.0)"><g transform="matrix(0.01, 0.0, 0.0, 1.0, 0.0, 0.0)"><g><g><g style="fill: #ff8c00;stroke: #ff8c00;stroke-width: 1.2000000000000002;fill-opacity: 0.5;" transform="matrix(1.0, 0.0, 0.0, 1.0, 0.0, 0.0)"><path d="M 0.0 -2.0 L 0.0 2.0" style="vector-effect: non-scaling-stroke;fill:none;" /></g><g style="fill: #ff8c00;stroke: #ff8c00;stroke-width: 1.2000000000000002;fill-opacity: 0.5;" transform="matrix(1.0, 0.0, 0.0, 1.0, 0.0, 0.0)"><path d="M 0.0 0.36892756819725037 L 1.0 0.36892756819725037 L 1.0 -0.9941620826721191 L 2.0 -0.9941620826721191 L 2.0 -1.0358208417892456 L 3.0 -1.0358208417892456 L 3.0 -1.5293102264404297 L 4.0 -1.5293102264404297 L 4.0 0.10681941360235214 L 5.0 0.10681941360235214 L 5.0 -1.3657546043395996 L 6.0 -1.3657546043395996 L 6.0 -0.6786758303642273 L 7.0 -0.6786758303642273 L 7.0 -1.983750820159912 L 8.0 -1.983750820159912 L 8.0 -0.40417441725730896 L 9.0 -0.40417441725730896 L 9.0 -0.5576217770576477 L 10.0 -0.5576217770576477 L 10.0 -1.435609221458435 L 11.0 -1.435609221458435 L 11.0 -1.2204375267028809 L 12.0 -1.2204375267028809 L 12.0 -0.45308804512023926 L 13.0 -0.45308804512023926 L 13.0 -1.5033526420593262 L 14.0 -1.5033526420593262 L 14.0 -0.7616475820541382 L 15.0 -0.7616475820541382 L 15.0 -0.11166233569383621 L 16.0 -0.11166233569383621 L 16.0 -0.6547780632972717 L 17.0 -0.6547780632972717 L 17.0 -0.9151825904846191 L 18.0 -0.9151825904846191 L 18.0 -0.7052664160728455 L 19.0 -0.7052664160728455 L 19.0 -1.1134977340698242 L 20.0 -1.1134977340698242 L 20.0 0.2719874083995819 L 21.0 0.2719874083995819 L 21.0 -1.642714500427246 L 22.0 -1.642714500427246 L 22.0 -0.17914047837257385 L 23.0 -0.17914047837257385 L 23.0 -0.46122583746910095 L 24.0 -0.46122583746910095 L 24.0 -0.2291276603937149 L 25.0 -0.2291276603937149 L 25.0 -1.4663134813308716 L 26.0 -1.4663134813308716 L 26.0 -1.8140982389450073 L 27.0 -1.8140982389450073 L 27.0 -0.36684322357177734 L 28.0 -0.36684322357177734 L 28.0 0.6312178373336792 L 29.0 0.6312178373336792 L 29.0 -1.3641618490219116 L 30.0 -1.3641618490219116 L 30.0 -1.4809788465499878 L 31.0 -1.4809788465499878 L 31.0 -1.0981719493865967 L 32.0 -1.0981719493865967 L 32.0 -0.04604702442884445 L 33.0 -0.04604702442884445 L 33.0 -0.9552580714225769 L 34.0 -0.9552580714225769 L 34.0 -0.1399087905883789 L 35.0 -0.1399087905883789 L 35.0 -0.8180548548698425 L 36.0 -0.8180548548698425 L 36.0 -0.6091361045837402 L 37.0 -0.6091361045837402 L 37.0 -0.5979908108711243 L 38.0 -0.5979908108711243 L 38.0 -1.1240906715393066 L 39.0 -1.1240906715393066 L 39.0 -1.9024450778961182 L 40.0 -1.9024450778961182 L 40.0 -1.9024450778961182 L 39.0 -1.9024450778961182 L 39.0 -1.1240906715393066 L 38.0 -1.1240906715393066 L 38.0 -0.5979908108711243 L 37.0 -0.5979908108711243 L 37.0 -0.6091361045837402 L 36.0 -0.6091361045837402 L 36.0 -0.8180548548698425 L 35.0 -0.8180548548698425 L 35.0 -0.1399087905883789 L 34.0 -0.1399087905883789 L 34.0 -0.9552580714225769 L 33.0 -0.9552580714225769 L 33.0 -0.04604702442884445 L 32.0 -0.04604702442884445 L 32.0 -1.0981719493865967 L 31.0 -1.0981719493865967 L 31.0 -1.4809788465499878 L 30.0 -1.4809788465499878 L 30.0 -1.3641618490219116 L 29.0 -1.3641618490219116 L 29.0 0.6312178373336792 L 28.0 0.6312178373336792 L 28.0 -0.36684322357177734 L 27.0 -0.36684322357177734 L 27.0 -1.8140982389450073 L 26.0 -1.8140982389450073 L 26.0 -1.4663134813308716 L 25.0 -1.4663134813308716 L 25.0 -0.2291276603937149 L 24.0 -0.2291276603937149 L 24.0 -0.46122583746910095 L 23.0 -0.46122583746910095 L 23.0 -0.17914047837257385 L 22.0 -0.17914047837257385 L 22.0 -1.642714500427246 L 21.0 -1.642714500427246 L 21.0 0.2719874083995819 L 20.0 0.2719874083995819 L 20.0 -1.1134977340698242 L 19.0 -1.1134977340698242 L 19.0 -0.7052664160728455 L 18.0 -0.7052664160728455 L 18.0 -0.9151825904846191 L 17.0 -0.9151825904846191 L 17.0 -0.6547780632972717 L 16.0 -0.6547780632972717 L 16.0 -0.11166233569383621 L 15.0 -0.11166233569383621 L 15.0 -0.7616475820541382 L 14.0 -0.7616475820541382 L 14.0 -1.5033526420593262 L 13.0 -1.5033526420593262 L 13.0 -0.45308804512023926 L 12.0 -0.45308804512023926 L 12.0 -1.2204375267028809 L 11.0 -1.2204375267028809 L 11.0 -1.435609221458435 L 10.0 -1.435609221458435 L 10.0 -0.5576217770576477 L 9.0 -0.5576217770576477 L 9.0 -0.40417441725730896 L 8.0 -0.40417441725730896 L 8.0 -1.983750820159912 L 7.0 -1.983750820159912 L 7.0 -0.6786758303642273 L 6.0 -0.6786758303642273 L 6.0 -1.3657546043395996 L 5.0 -1.3657546043395996 L 5.0 0.10681941360235214 L 4.0 0.10681941360235214 L 4.0 -1.5293102264404297 L 3.0 -1.5293102264404297 L 3.0 -1.0358208417892456 L 2.0 -1.0358208417892456 L 2.0 -0.9941620826721191 L 1.0 -0.9941620826721191 L 1.0 0.36892756819725037 L 0.0 0.36892756819725037 Z" style="vector-effect: non-scaling-stroke;" /></g></g><g style="stroke: black;stroke-width: 1.2000000000000002;" transform="matrix(1.0, 0.0, 0.0, 1.0, 0.0, 0.0)"><path d="M 0.0 0.36892756819725037 L 1.0 0.36892756819725037 L 1.0 -0.9941620826721191 L 2.0 -0.9941620826721191 L 2.0 -1.0358208417892456 L 3.0 -1.0358208417892456 L 3.0 -1.5293102264404297 L 4.0 -1.5293102264404297 L 4.0 0.10681941360235214 L 5.0 0.10681941360235214 L 5.0 -1.3657546043395996 L 6.0 -1.3657546043395996 L 6.0 -0.6786758303642273 L 7.0 -0.6786758303642273 L 7.0 -1.983750820159912 L 8.0 -1.983750820159912 L 8.0 -0.40417441725730896 L 9.0 -0.40417441725730896 L 9.0 -0.5576217770576477 L 10.0 -0.5576217770576477 L 10.0 -1.435609221458435 L 11.0 -1.435609221458435 L 11.0 -1.2204375267028809 L 12.0 -1.2204375267028809 L 12.0 -0.45308804512023926 L 13.0 -0.45308804512023926 L 13.0 -1.5033526420593262 L 14.0 -1.5033526420593262 L 14.0 -0.7616475820541382 L 15.0 -0.7616475820541382 L 15.0 -0.11166233569383621 L 16.0 -0.11166233569383621 L 16.0 -0.6547780632972717 L 17.0 -0.6547780632972717 L 17.0 -0.9151825904846191 L 18.0 -0.9151825904846191 L 18.0 -0.7052664160728455 L 19.0 -0.7052664160728455 L 19.0 -1.1134977340698242 L 20.0 -1.1134977340698242 L 20.0 0.2719874083995819 L 21.0 0.2719874083995819 L 21.0 -1.642714500427246 L 22.0 -1.642714500427246 L 22.0 -0.17914047837257385 L 23.0 -0.17914047837257385 L 23.0 -0.46122583746910095 L 24.0 -0.46122583746910095 L 24.0 -0.2291276603937149 L 25.0 -0.2291276603937149 L 25.0 -1.4663134813308716 L 26.0 -1.4663134813308716 L 26.0 -1.8140982389450073 L 27.0 -1.8140982389450073 L 27.0 -0.36684322357177734 L 28.0 -0.36684322357177734 L 28.0 0.6312178373336792 L 29.0 0.6312178373336792 L 29.0 -1.3641618490219116 L 30.0 -1.3641618490219116 L 30.0 -1.4809788465499878 L 31.0 -1.4809788465499878 L 31.0 -1.0981719493865967 L 32.0 -1.0981719493865967 L 32.0 -0.04604702442884445 L 33.0 -0.04604702442884445 L 33.0 -0.9552580714225769 L 34.0 -0.9552580714225769 L 34.0 -0.1399087905883789 L 35.0 -0.1399087905883789 L 35.0 -0.8180548548698425 L 36.0 -0.8180548548698425 L 36.0 -0.6091361045837402 L 37.0 -0.6091361045837402 L 37.0 -0.5979908108711243 L 38.0 -0.5979908108711243 L 38.0 -1.1240906715393066 L 39.0 -1.1240906715393066 L 39.0 -1.9024450778961182 L 40.0 -1.9024450778961182" style="vector-effect: non-scaling-stroke;fill:none;" /></g></g></g></g></g></g><g transform="matrix(1.0, 0.0, 0.0, 1.0, -0.19999999999999996, 0.16)"><g transform="matrix(1.0, 0.0, 0.0, 0.009999999999999995, 0.0, 0.0)"><g transform="matrix(0.01, 0.0, 0.0, 1.0, 0.0, 0.0)"><g><g><g style="fill: #0000ff;stroke: #0000ff;stroke-width: 1.2000000000000002;fill-opacity: 0.5;" transform="matrix(1.0, 0.0, 0.0, 1.0, 0.0, 0.0)"><path d="M 0.0 -2.0 L 0.0 2.0" style="vector-effect: non-scaling-stroke;fill:none;" /></g><g style="fill: #0000ff;stroke: #0000ff;stroke-width: 1.2000000000000002;fill-opacity: 0.5;" transform="matrix(1.0, 0.0, 0.0, 1.0, 0.0, 0.0)"><path d="M 0.0 0.36892756819725037 L 1.0 0.36892756819725037 L 1.0 -0.9941620826721191 L 2.0 -0.9941620826721191 L 2.0 -1.0358208417892456 L 3.0 -1.0358208417892456 L 3.0 -1.5293102264404297 L 4.0 -1.5293102264404297 L 4.0 0.10681941360235214 L 5.0 0.10681941360235214 L 5.0 -1.3657546043395996 L 6.0 -1.3657546043395996 L 6.0 -0.6786758303642273 L 7.0 -0.6786758303642273 L 7.0 -1.983750820159912 L 8.0 -1.983750820159912 L 8.0 -0.40417441725730896 L 9.0 -0.40417441725730896 L 9.0 -0.5576217770576477 L 10.0 -0.5576217770576477 L 10.0 -1.435609221458435 L 11.0 -1.435609221458435 L 11.0 -1.2204375267028809 L 12.0 -1.2204375267028809 L 12.0 -0.45308804512023926 L 13.0 -0.45308804512023926 L 13.0 -1.5033526420593262 L 14.0 -1.5033526420593262 L 14.0 -0.7616475820541382 L 15.0 -0.7616475820541382 L 15.0 -0.11166233569383621 L 16.0 -0.11166233569383621 L 16.0 -0.6547780632972717 L 17.0 -0.6547780632972717 L 17.0 -0.9151825904846191 L 18.0 -0.9151825904846191 L 18.0 -0.7052664160728455 L 19.0 -0.7052664160728455 L 19.0 -1.1134977340698242 L 20.0 -1.1134977340698242 L 20.0 0.2719874083995819 L 21.0 0.2719874083995819 L 21.0 -1.642714500427246 L 22.0 -1.642714500427246 L 22.0 -0.17914047837257385 L 23.0 -0.17914047837257385 L 23.0 -0.46122583746910095 L 24.0 -0.46122583746910095 L 24.0 -0.2291276603937149 L 25.0 -0.2291276603937149 L 25.0 -1.4663134813308716 L 26.0 -1.4663134813308716 L 26.0 -1.8140982389450073 L 27.0 -1.8140982389450073 L 27.0 -0.36684322357177734 L 28.0 -0.36684322357177734 L 28.0 0.6312178373336792 L 29.0 0.6312178373336792 L 29.0 -1.3641618490219116 L 30.0 -1.3641618490219116 L 30.0 -1.4809788465499878 L 31.0 -1.4809788465499878 L 31.0 -1.0981719493865967 L 32.0 -1.0981719493865967 L 32.0 -0.04604702442884445 L 33.0 -0.04604702442884445 L 33.0 -0.9552580714225769 L 34.0 -0.9552580714225769 L 34.0 -0.1399087905883789 L 35.0 -0.1399087905883789 L 35.0 -0.8180548548698425 L 36.0 -0.8180548548698425 L 36.0 -0.6091361045837402 L 37.0 -0.6091361045837402 L 37.0 -0.5979908108711243 L 38.0 -0.5979908108711243 L 38.0 -1.1240906715393066 L 39.0 -1.1240906715393066 L 39.0 -1.9024450778961182 L 40.0 -1.9024450778961182 L 40.0 -1.9024450778961182 L 39.0 -1.9024450778961182 L 39.0 -1.1240906715393066 L 38.0 -1.1240906715393066 L 38.0 -0.5979908108711243 L 37.0 -0.5979908108711243 L 37.0 -0.6091361045837402 L 36.0 -0.6091361045837402 L 36.0 -0.8180548548698425 L 35.0 -0.8180548548698425 L 35.0 -0.1399087905883789 L 34.0 -0.1399087905883789 L 34.0 -0.9552580714225769 L 33.0 -0.9552580714225769 L 33.0 -0.04604702442884445 L 32.0 -0.04604702442884445 L 32.0 -1.0981719493865967 L 31.0 -1.0981719493865967 L 31.0 -1.4809788465499878 L 30.0 -1.4809788465499878 L 30.0 -1.3641618490219116 L 29.0 -1.3641618490219116 L 29.0 0.6312178373336792 L 28.0 0.6312178373336792 L 28.0 -0.36684322357177734 L 27.0 -0.36684322357177734 L 27.0 -1.8140982389450073 L 26.0 -1.8140982389450073 L 26.0 -1.4663134813308716 L 25.0 -1.4663134813308716 L 25.0 -0.2291276603937149 L 24.0 -0.2291276603937149 L 24.0 -0.46122583746910095 L 23.0 -0.46122583746910095 L 23.0 -0.17914047837257385 L 22.0 -0.17914047837257385 L 22.0 -1.642714500427246 L 21.0 -1.642714500427246 L 21.0 0.2719874083995819 L 20.0 0.2719874083995819 L 20.0 -1.1134977340698242 L 19.0 -1.1134977340698242 L 19.0 -0.7052664160728455 L 18.0 -0.7052664160728455 L 18.0 -0.9151825904846191 L 17.0 -0.9151825904846191 L 17.0 -0.6547780632972717 L 16.0 -0.6547780632972717 L 16.0 -0.11166233569383621 L 15.0 -0.11166233569383621 L 15.0 -0.7616475820541382 L 14.0 -0.7616475820541382 L 14.0 -1.5033526420593262 L 13.0 -1.5033526420593262 L 13.0 -0.45308804512023926 L 12.0 -0.45308804512023926 L 12.0 -1.2204375267028809 L 11.0 -1.2204375267028809 L 11.0 -1.435609221458435 L 10.0 -1.435609221458435 L 10.0 -0.5576217770576477 L 9.0 -0.5576217770576477 L 9.0 -0.40417441725730896 L 8.0 -0.40417441725730896 L 8.0 -1.983750820159912 L 7.0 -1.983750820159912 L 7.0 -0.6786758303642273 L 6.0 -0.6786758303642273 L 6.0 -1.3657546043395996 L 5.0 -1.3657546043395996 L 5.0 0.10681941360235214 L 4.0 0.10681941360235214 L 4.0 -1.5293102264404297 L 3.0 -1.5293102264404297 L 3.0 -1.0358208417892456 L 2.0 -1.0358208417892456 L 2.0 -0.9941620826721191 L 1.0 -0.9941620826721191 L 1.0 0.36892756819725037 L 0.0 0.36892756819725037 Z" style="vector-effect: non-scaling-stroke;" /></g></g><g style="stroke: black;stroke-width: 1.2000000000000002;" transform="matrix(1.0, 0.0, 0.0, 1.0, 0.0, 0.0)"><path d="M 0.0 0.36892756819725037 L 1.0 0.36892756819725037 L 1.0 -0.9941620826721191 L 2.0 -0.9941620826721191 L 2.0 -1.0358208417892456 L 3.0 -1.0358208417892456 L 3.0 -1.5293102264404297 L 4.0 -1.5293102264404297 L 4.0 0.10681941360235214 L 5.0 0.10681941360235214 L 5.0 -1.3657546043395996 L 6.0 -1.3657546043395996 L 6.0 -0.6786758303642273 L 7.0 -0.6786758303642273 L 7.0 -1.983750820159912 L 8.0 -1.983750820159912 L 8.0 -0.40417441725730896 L 9.0 -0.40417441725730896 L 9.0 -0.5576217770576477 L 10.0 -0.5576217770576477 L 10.0 -1.435609221458435 L 11.0 -1.435609221458435 L 11.0 -1.2204375267028809 L 12.0 -1.2204375267028809 L 12.0 -0.45308804512023926 L 13.0 -0.45308804512023926 L 13.0 -1.5033526420593262 L 14.0 -1.5033526420593262 L 14.0 -0.7616475820541382 L 15.0 -0.7616475820541382 L 15.0 -0.11166233569383621 L 16.0 -0.11166233569383621 L 16.0 -0.6547780632972717 L 17.0 -0.6547780632972717 L 17.0 -0.9151825904846191 L 18.0 -0.9151825904846191 L 18.0 -0.7052664160728455 L 19.0 -0.7052664160728455 L 19.0 -1.1134977340698242 L 20.0 -1.1134977340698242 L 20.0 0.2719874083995819 L 21.0 0.2719874083995819 L 21.0 -1.642714500427246 L 22.0 -1.642714500427246 L 22.0 -0.17914047837257385 L 23.0 -0.17914047837257385 L 23.0 -0.46122583746910095 L 24.0 -0.46122583746910095 L 24.0 -0.2291276603937149 L 25.0 -0.2291276603937149 L 25.0 -1.4663134813308716 L 26.0 -1.4663134813308716 L 26.0 -1.8140982389450073 L 27.0 -1.8140982389450073 L 27.0 -0.36684322357177734 L 28.0 -0.36684322357177734 L 28.0 0.6312178373336792 L 29.0 0.6312178373336792 L 29.0 -1.3641618490219116 L 30.0 -1.3641618490219116 L 30.0 -1.4809788465499878 L 31.0 -1.4809788465499878 L 31.0 -1.0981719493865967 L 32.0 -1.0981719493865967 L 32.0 -0.04604702442884445 L 33.0 -0.04604702442884445 L 33.0 -0.9552580714225769 L 34.0 -0.9552580714225769 L 34.0 -0.1399087905883789 L 35.0 -0.1399087905883789 L 35.0 -0.8180548548698425 L 36.0 -0.8180548548698425 L 36.0 -0.6091361045837402 L 37.0 -0.6091361045837402 L 37.0 -0.5979908108711243 L 38.0 -0.5979908108711243 L 38.0 -1.1240906715393066 L 39.0 -1.1240906715393066 L 39.0 -1.9024450778961182 L 40.0 -1.9024450778961182" style="vector-effect: non-scaling-stroke;fill:none;" /></g></g></g></g></g></g></g></g><g><g><g><g><g><g><g transform="matrix(1.0, 0.0, 0.0, 1.0, -0.4149999999999999, -0.03)"><g><g><g transform="matrix(1.0, 0.0, 0.0, 1.0, 0.075, 0.0)"><g transform="matrix(1.0, 0.0, 0.0, 1.0, 0.0, 0.03)"><g transform="matrix(0.01, 0.0, 0.0, 0.01, 0.0, 0.0)"><g><g><g transform="matrix(1.0, 0.0, 0.0, 1.0, 20.0, 0.0)"><g transform="matrix(1.0, 0.0, 0.0, 1.0, -27.5, -0.0)"><g><g style="fill: #d3d3d3;stroke: black;stroke-width: 1.2000000000000002;" transform="matrix(1.0, 0.0, 0.0, 1.0, 0.0, -3.0)"><path d="M 0.0 0.0 L 55.0 0.0 L 55.0 6.0 L 0.0 6.0 L 0.0 0.0 Z" style="vector-effect: non-scaling-stroke;" /></g><g transform="matrix(1.0, 0.0, 0.0, 1.0, 1.875, 0.0)"><g><g style="stroke: black;stroke-width: 1.2000000000000002;" transform="matrix(1.0, 0.0, 0.0, 1.0, 0.0, 0.0)"><g /></g><g style="fill: #ffa500;stroke: black;stroke-width: 1.2000000000000002;" transform="matrix(1.0, 0.0, 0.0, 1.0, 1.875, 0.0)"><text style="text-align:center; text-anchor:middle; dominant-baseline:middle;&#10;                      font-family:sans-serif; font-weight: bold;&#10;                      font-size:3px;&#10;                      vector-effect: non-scaling-stroke;" transform="translate(-5e-05, 0)">x</text></g></g></g></g></g></g><g><g><g><g><g><g><g><g style="stroke: black;stroke-width: 1.2000000000000002;" transform="matrix(1.0, 0.0, 0.0, 1.0, 0.0, 0.0)"><path d="M 0.0 -2.0 L 0.0 2.0" style="vector-effect: non-scaling-stroke;fill:none;" /></g><g style="stroke: #808080;stroke-width: 0.6000000000000001;" transform="matrix(1.0, 0.0, 0.0, 1.0, 0.0, 0.0)"><path d="M 0.0 0.0 L 40.0 0.0" style="vector-effect: non-scaling-stroke;fill:none;" /></g></g><g style="stroke: black;stroke-width: 2.4000000000000004;" transform="matrix(1.0, 0.0, 0.0, 1.0, 0.0, 0.0)"><path d="M 0.0 0.36892756819725037 L 1.0 0.36892756819725037 L 1.0 0.10681941360235214 L 2.0 0.10681941360235214 L 2.0 -0.40417441725730896 L 3.0 -0.40417441725730896 L 3.0 -0.45308804512023926 L 4.0 -0.45308804512023926 L 4.0 -0.6547780632972717 L 5.0 -0.6547780632972717 L 5.0 0.2719874083995819 L 6.0 0.2719874083995819 L 6.0 -0.2291276603937149 L 7.0 -0.2291276603937149 L 7.0 0.6312178373336792 L 8.0 0.6312178373336792 L 8.0 -0.04604702442884445 L 9.0 -0.04604702442884445 L 9.0 -0.6091361045837402 L 10.0 -0.6091361045837402 L 10.0 -0.9941620826721191 L 11.0 -0.9941620826721191 L 11.0 -1.3657546043395996 L 12.0 -1.3657546043395996 L 12.0 -0.5576217770576477 L 13.0 -0.5576217770576477 L 13.0 -1.5033526420593262 L 14.0 -1.5033526420593262 L 14.0 -0.9151825904846191 L 15.0 -0.9151825904846191 L 15.0 -1.642714500427246 L 16.0 -1.642714500427246 L 16.0 -1.4663134813308716 L 17.0 -1.4663134813308716 L 17.0 -1.3641618490219116 L 18.0 -1.3641618490219116 L 18.0 -0.9552580714225769 L 19.0 -0.9552580714225769 L 19.0 -0.5979908108711243 L 20.0 -0.5979908108711243 L 20.0 -1.0358208417892456 L 21.0 -1.0358208417892456 L 21.0 -0.6786758303642273 L 22.0 -0.6786758303642273 L 22.0 -1.435609221458435 L 23.0 -1.435609221458435 L 23.0 -0.7616475820541382 L 24.0 -0.7616475820541382 L 24.0 -0.7052664160728455 L 25.0 -0.7052664160728455 L 25.0 -0.17914047837257385 L 26.0 -0.17914047837257385 L 26.0 -1.8140982389450073 L 27.0 -1.8140982389450073 L 27.0 -1.4809788465499878 L 28.0 -1.4809788465499878 L 28.0 -0.1399087905883789 L 29.0 -0.1399087905883789 L 29.0 -1.1240906715393066 L 30.0 -1.1240906715393066 L 30.0 -1.5293102264404297 L 31.0 -1.5293102264404297 L 31.0 -1.983750820159912 L 32.0 -1.983750820159912 L 32.0 -1.2204375267028809 L 33.0 -1.2204375267028809 L 33.0 -0.11166233569383621 L 34.0 -0.11166233569383621 L 34.0 -1.1134977340698242 L 35.0 -1.1134977340698242 L 35.0 -0.46122583746910095 L 36.0 -0.46122583746910095 L 36.0 -0.36684322357177734 L 37.0 -0.36684322357177734 L 37.0 -1.0981719493865967 L 38.0 -1.0981719493865967 L 38.0 -0.8180548548698425 L 39.0 -0.8180548548698425 L 39.0 -1.9024450778961182 L 40.0 -1.9024450778961182" style="vector-effect: non-scaling-stroke;fill:none;" /></g></g><g style="stroke: black;stroke-width: 1.2000000000000002;" transform="matrix(1.0, 0.0, 0.0, 1.0, 0.0, 0.0)"><path d="M 0.0 -2.0 L 0.0 2.0" style="vector-effect: non-scaling-stroke;fill:none;" /></g></g><g style="stroke: black;stroke-width: 1.2000000000000002;" transform="matrix(1.0, 0.0, 0.0, 1.0, 0.0, 0.0)"><path d="M 10.0 -2.0 L 10.0 2.0" style="vector-effect: non-scaling-stroke;fill:none;" /></g></g><g style="stroke: black;stroke-width: 1.2000000000000002;" transform="matrix(1.0, 0.0, 0.0, 1.0, 0.0, 0.0)"><path d="M 20.0 -2.0 L 20.0 2.0" style="vector-effect: non-scaling-stroke;fill:none;" /></g></g><g style="stroke: black;stroke-width: 1.2000000000000002;" transform="matrix(1.0, 0.0, 0.0, 1.0, 0.0, 0.0)"><path d="M 30.0 -2.0 L 30.0 2.0" style="vector-effect: non-scaling-stroke;fill:none;" /></g></g></g></g><g><g><g><g><g><g><g><g style="stroke: black;stroke-width: 1.2000000000000002;" transform="matrix(1.0, 0.0, 0.0, 1.0, 0.0, 0.0)"><path d="M 0.0 -2.0 L 0.0 2.0" style="vector-effect: non-scaling-stroke;fill:none;" /></g><g style="stroke: #808080;stroke-width: 0.6000000000000001;" transform="matrix(1.0, 0.0, 0.0, 1.0, 0.0, 0.0)"><path d="M 0.0 0.0 L 40.0 0.0" style="vector-effect: non-scaling-stroke;fill:none;" /></g></g><g style="stroke: black;stroke-width: 2.4000000000000004;" transform="matrix(1.0, 0.0, 0.0, 1.0, 0.0, 0.0)"><path d="M 0.0 0.36892756819725037 L 1.0 0.36892756819725037 L 1.0 0.10681941360235214 L 2.0 0.10681941360235214 L 2.0 -0.40417441725730896 L 3.0 -0.40417441725730896 L 3.0 -0.45308804512023926 L 4.0 -0.45308804512023926 L 4.0 -0.6547780632972717 L 5.0 -0.6547780632972717 L 5.0 0.2719874083995819 L 6.0 0.2719874083995819 L 6.0 -0.2291276603937149 L 7.0 -0.2291276603937149 L 7.0 0.6312178373336792 L 8.0 0.6312178373336792 L 8.0 -0.04604702442884445 L 9.0 -0.04604702442884445 L 9.0 -0.6091361045837402 L 10.0 -0.6091361045837402 L 10.0 -0.9941620826721191 L 11.0 -0.9941620826721191 L 11.0 -1.3657546043395996 L 12.0 -1.3657546043395996 L 12.0 -0.5576217770576477 L 13.0 -0.5576217770576477 L 13.0 -1.5033526420593262 L 14.0 -1.5033526420593262 L 14.0 -0.9151825904846191 L 15.0 -0.9151825904846191 L 15.0 -1.642714500427246 L 16.0 -1.642714500427246 L 16.0 -1.4663134813308716 L 17.0 -1.4663134813308716 L 17.0 -1.3641618490219116 L 18.0 -1.3641618490219116 L 18.0 -0.9552580714225769 L 19.0 -0.9552580714225769 L 19.0 -0.5979908108711243 L 20.0 -0.5979908108711243 L 20.0 -1.0358208417892456 L 21.0 -1.0358208417892456 L 21.0 -0.6786758303642273 L 22.0 -0.6786758303642273 L 22.0 -1.435609221458435 L 23.0 -1.435609221458435 L 23.0 -0.7616475820541382 L 24.0 -0.7616475820541382 L 24.0 -0.7052664160728455 L 25.0 -0.7052664160728455 L 25.0 -0.17914047837257385 L 26.0 -0.17914047837257385 L 26.0 -1.8140982389450073 L 27.0 -1.8140982389450073 L 27.0 -1.4809788465499878 L 28.0 -1.4809788465499878 L 28.0 -0.1399087905883789 L 29.0 -0.1399087905883789 L 29.0 -1.1240906715393066 L 30.0 -1.1240906715393066 L 30.0 -1.5293102264404297 L 31.0 -1.5293102264404297 L 31.0 -1.983750820159912 L 32.0 -1.983750820159912 L 32.0 -1.2204375267028809 L 33.0 -1.2204375267028809 L 33.0 -0.11166233569383621 L 34.0 -0.11166233569383621 L 34.0 -1.1134977340698242 L 35.0 -1.1134977340698242 L 35.0 -0.46122583746910095 L 36.0 -0.46122583746910095 L 36.0 -0.36684322357177734 L 37.0 -0.36684322357177734 L 37.0 -1.0981719493865967 L 38.0 -1.0981719493865967 L 38.0 -0.8180548548698425 L 39.0 -0.8180548548698425 L 39.0 -1.9024450778961182 L 40.0 -1.9024450778961182" style="vector-effect: non-scaling-stroke;fill:none;" /></g></g><g style="stroke: black;stroke-width: 1.2000000000000002;" transform="matrix(1.0, 0.0, 0.0, 1.0, 0.0, 0.0)"><path d="M 0.0 -2.0 L 0.0 2.0" style="vector-effect: non-scaling-stroke;fill:none;" /></g></g><g style="stroke: black;stroke-width: 1.2000000000000002;" transform="matrix(1.0, 0.0, 0.0, 1.0, 0.0, 0.0)"><path d="M 10.0 -2.0 L 10.0 2.0" style="vector-effect: non-scaling-stroke;fill:none;" /></g></g><g style="stroke: black;stroke-width: 1.2000000000000002;" transform="matrix(1.0, 0.0, 0.0, 1.0, 0.0, 0.0)"><path d="M 20.0 -2.0 L 20.0 2.0" style="vector-effect: non-scaling-stroke;fill:none;" /></g></g><g style="stroke: black;stroke-width: 1.2000000000000002;" transform="matrix(1.0, 0.0, 0.0, 1.0, 0.0, 0.0)"><path d="M 30.0 -2.0 L 30.0 2.0" style="vector-effect: non-scaling-stroke;fill:none;" /></g></g></g></g></g></g></g><g style="stroke: black;stroke-width: 1.2000000000000002;" transform="matrix(1.0, 0.0, 0.0, 1.0, 0.565, 0.0)"><g /></g></g><g transform="matrix(1.0, 0.0, 0.0, 1.0, 0.58, 0.0)"><g transform="matrix(1.0, 0.0, 0.0, 1.0, 0.075, 0.0)"><g transform="matrix(1.0, 0.0, 0.0, 1.0, 0.0, 0.03)"><g transform="matrix(0.01, 0.0, 0.0, 0.01, 0.0, 0.0)"><g><g><g transform="matrix(1.0, 0.0, 0.0, 1.0, 5.0, 0.0)"><g transform="matrix(1.0, 0.0, 0.0, 1.0, -12.5, -0.0)"><g><g style="fill: #d3d3d3;stroke: black;stroke-width: 1.2000000000000002;" transform="matrix(1.0, 0.0, 0.0, 1.0, 0.0, -3.0)"><path d="M 0.0 0.0 L 25.0 0.0 L 25.0 6.0 L 0.0 6.0 L 0.0 0.0 Z" style="vector-effect: non-scaling-stroke;" /></g><g transform="matrix(1.0, 0.0, 0.0, 1.0, 1.875, 0.0)"><g><g style="stroke: black;stroke-width: 1.2000000000000002;" transform="matrix(1.0, 0.0, 0.0, 1.0, 0.0, 0.0)"><g /></g><g style="fill: #ffa500;stroke: black;stroke-width: 1.2000000000000002;" transform="matrix(1.0, 0.0, 0.0, 1.0, 1.875, 0.0)"><text style="text-align:center; text-anchor:middle; dominant-baseline:middle;&#10;                      font-family:sans-serif; font-weight: bold;&#10;                      font-size:3px;&#10;                      vector-effect: non-scaling-stroke;" transform="translate(-5e-05, 0)">y</text></g></g></g></g></g></g><g><g><g><g style="stroke: black;stroke-width: 1.2000000000000002;" transform="matrix(1.0, 0.0, 0.0, 1.0, 0.0, 0.0)"><path d="M 0.0 -2.0 L 0.0 2.0" style="vector-effect: non-scaling-stroke;fill:none;" /></g><g style="stroke: #808080;stroke-width: 0.6000000000000001;" transform="matrix(1.0, 0.0, 0.0, 1.0, 0.0, 0.0)"><path d="M 0.0 0.0 L 10.0 0.0" style="vector-effect: non-scaling-stroke;fill:none;" /></g></g><g style="stroke: black;stroke-width: 2.4000000000000004;" transform="matrix(1.0, 0.0, 0.0, 1.0, 0.0, 0.0)"><path d="M 0.0 -1.2284631729125977 L 1.0 -1.2284631729125977 L 1.0 -1.3120884895324707 L 2.0 -1.3120884895324707 L 2.0 -0.8512806296348572 L 3.0 -0.8512806296348572 L 3.0 -0.69685298204422 L 4.0 -0.69685298204422 L 4.0 -0.4450138509273529 L 5.0 -0.4450138509273529 L 5.0 -0.6431826949119568 L 6.0 -0.6431826949119568 L 6.0 -1.1062308549880981 L 7.0 -1.1062308549880981 L 7.0 -1.6847048997879028 L 8.0 -1.6847048997879028 L 8.0 0.05547328665852547 L 9.0 0.05547328665852547 L 9.0 -0.5061242580413818 L 10.0 -0.5061242580413818" style="vector-effect: non-scaling-stroke;fill:none;" /></g></g></g></g><g><g><g><g style="stroke: black;stroke-width: 1.2000000000000002;" transform="matrix(1.0, 0.0, 0.0, 1.0, 0.0, 0.0)"><path d="M 0.0 -2.0 L 0.0 2.0" style="vector-effect: non-scaling-stroke;fill:none;" /></g><g style="stroke: #808080;stroke-width: 0.6000000000000001;" transform="matrix(1.0, 0.0, 0.0, 1.0, 0.0, 0.0)"><path d="M 0.0 0.0 L 10.0 0.0" style="vector-effect: non-scaling-stroke;fill:none;" /></g></g><g style="stroke: black;stroke-width: 2.4000000000000004;" transform="matrix(1.0, 0.0, 0.0, 1.0, 0.0, 0.0)"><path d="M 0.0 -1.2284631729125977 L 1.0 -1.2284631729125977 L 1.0 -1.3120884895324707 L 2.0 -1.3120884895324707 L 2.0 -0.8512806296348572 L 3.0 -0.8512806296348572 L 3.0 -0.69685298204422 L 4.0 -0.69685298204422 L 4.0 -0.4450138509273529 L 5.0 -0.4450138509273529 L 5.0 -0.6431826949119568 L 6.0 -0.6431826949119568 L 6.0 -1.1062308549880981 L 7.0 -1.1062308549880981 L 7.0 -1.6847048997879028 L 8.0 -1.6847048997879028 L 8.0 0.05547328665852547 L 9.0 0.05547328665852547 L 9.0 -0.5061242580413818 L 10.0 -0.5061242580413818" style="vector-effect: non-scaling-stroke;fill:none;" /></g></g></g></g></g></g></g></g></g></g><g style="stroke: black;stroke-width: 1.2000000000000002;" transform="matrix(0.0, -1.0, 1.0, 0.0, 0.0, 0.08)"><g /></g></g><g transform="matrix(1.0, 0.0, 0.0, 1.0, 0.0, 0.16)"><g transform="matrix(1.0, 0.0, 0.0, 1.0, -0.27499999999999997, -0.03)"><g transform="matrix(1.0, 0.0, 0.0, 1.0, 0.075, 0.0)"><g transform="matrix(1.0, 0.0, 0.0, 1.0, 0.0, 0.03)"><g transform="matrix(0.01, 0.0, 0.0, 0.01, 0.0, 0.0)"><g><g><g transform="matrix(1.0, 0.0, 0.0, 1.0, 20.0, 0.0)"><g transform="matrix(1.0, 0.0, 0.0, 1.0, -27.5, -0.0)"><g><g style="fill: #d3d3d3;stroke: black;stroke-width: 1.2000000000000002;" transform="matrix(1.0, 0.0, 0.0, 1.0, 0.0, -3.0)"><path d="M 0.0 0.0 L 55.0 0.0 L 55.0 6.0 L 0.0 6.0 L 0.0 0.0 Z" style="vector-effect: non-scaling-stroke;" /></g><g transform="matrix(1.0, 0.0, 0.0, 1.0, 1.875, 0.0)"><g><g style="stroke: black;stroke-width: 1.2000000000000002;" transform="matrix(1.0, 0.0, 0.0, 1.0, 0.0, 0.0)"><g /></g><g style="fill: #ffa500;stroke: black;stroke-width: 1.2000000000000002;" transform="matrix(1.0, 0.0, 0.0, 1.0, 1.875, 0.0)"><text style="text-align:center; text-anchor:middle; dominant-baseline:middle;&#10;                      font-family:sans-serif; font-weight: bold;&#10;                      font-size:3px;&#10;                      vector-effect: non-scaling-stroke;" transform="translate(-5e-05, 0)">f(x)</text></g></g></g></g></g></g><g><g><g><g style="stroke: black;stroke-width: 1.2000000000000002;" transform="matrix(1.0, 0.0, 0.0, 1.0, 0.0, 0.0)"><path d="M 0.0 -2.0 L 0.0 2.0" style="vector-effect: non-scaling-stroke;fill:none;" /></g><g style="stroke: #808080;stroke-width: 0.6000000000000001;" transform="matrix(1.0, 0.0, 0.0, 1.0, 0.0, 0.0)"><path d="M 0.0 0.0 L 40.0 0.0" style="vector-effect: non-scaling-stroke;fill:none;" /></g></g><g style="stroke: black;stroke-width: 2.4000000000000004;" transform="matrix(1.0, 0.0, 0.0, 1.0, 0.0, 0.0)"><path d="M 0.0 0.36892756819725037 L 1.0 0.36892756819725037 L 1.0 -0.9941620826721191 L 2.0 -0.9941620826721191 L 2.0 -1.0358208417892456 L 3.0 -1.0358208417892456 L 3.0 -1.5293102264404297 L 4.0 -1.5293102264404297 L 4.0 0.10681941360235214 L 5.0 0.10681941360235214 L 5.0 -1.3657546043395996 L 6.0 -1.3657546043395996 L 6.0 -0.6786758303642273 L 7.0 -0.6786758303642273 L 7.0 -1.983750820159912 L 8.0 -1.983750820159912 L 8.0 -0.40417441725730896 L 9.0 -0.40417441725730896 L 9.0 -0.5576217770576477 L 10.0 -0.5576217770576477 L 10.0 -1.435609221458435 L 11.0 -1.435609221458435 L 11.0 -1.2204375267028809 L 12.0 -1.2204375267028809 L 12.0 -0.45308804512023926 L 13.0 -0.45308804512023926 L 13.0 -1.5033526420593262 L 14.0 -1.5033526420593262 L 14.0 -0.7616475820541382 L 15.0 -0.7616475820541382 L 15.0 -0.11166233569383621 L 16.0 -0.11166233569383621 L 16.0 -0.6547780632972717 L 17.0 -0.6547780632972717 L 17.0 -0.9151825904846191 L 18.0 -0.9151825904846191 L 18.0 -0.7052664160728455 L 19.0 -0.7052664160728455 L 19.0 -1.1134977340698242 L 20.0 -1.1134977340698242 L 20.0 0.2719874083995819 L 21.0 0.2719874083995819 L 21.0 -1.642714500427246 L 22.0 -1.642714500427246 L 22.0 -0.17914047837257385 L 23.0 -0.17914047837257385 L 23.0 -0.46122583746910095 L 24.0 -0.46122583746910095 L 24.0 -0.2291276603937149 L 25.0 -0.2291276603937149 L 25.0 -1.4663134813308716 L 26.0 -1.4663134813308716 L 26.0 -1.8140982389450073 L 27.0 -1.8140982389450073 L 27.0 -0.36684322357177734 L 28.0 -0.36684322357177734 L 28.0 0.6312178373336792 L 29.0 0.6312178373336792 L 29.0 -1.3641618490219116 L 30.0 -1.3641618490219116 L 30.0 -1.4809788465499878 L 31.0 -1.4809788465499878 L 31.0 -1.0981719493865967 L 32.0 -1.0981719493865967 L 32.0 -0.04604702442884445 L 33.0 -0.04604702442884445 L 33.0 -0.9552580714225769 L 34.0 -0.9552580714225769 L 34.0 -0.1399087905883789 L 35.0 -0.1399087905883789 L 35.0 -0.8180548548698425 L 36.0 -0.8180548548698425 L 36.0 -0.6091361045837402 L 37.0 -0.6091361045837402 L 37.0 -0.5979908108711243 L 38.0 -0.5979908108711243 L 38.0 -1.1240906715393066 L 39.0 -1.1240906715393066 L 39.0 -1.9024450778961182 L 40.0 -1.9024450778961182" style="vector-effect: non-scaling-stroke;fill:none;" /></g></g></g></g><g><g><g><g style="stroke: black;stroke-width: 1.2000000000000002;" transform="matrix(1.0, 0.0, 0.0, 1.0, 0.0, 0.0)"><path d="M 0.0 -2.0 L 0.0 2.0" style="vector-effect: non-scaling-stroke;fill:none;" /></g><g style="stroke: #808080;stroke-width: 0.6000000000000001;" transform="matrix(1.0, 0.0, 0.0, 1.0, 0.0, 0.0)"><path d="M 0.0 0.0 L 40.0 0.0" style="vector-effect: non-scaling-stroke;fill:none;" /></g></g><g style="stroke: black;stroke-width: 2.4000000000000004;" transform="matrix(1.0, 0.0, 0.0, 1.0, 0.0, 0.0)"><path d="M 0.0 0.36892756819725037 L 1.0 0.36892756819725037 L 1.0 -0.9941620826721191 L 2.0 -0.9941620826721191 L 2.0 -1.0358208417892456 L 3.0 -1.0358208417892456 L 3.0 -1.5293102264404297 L 4.0 -1.5293102264404297 L 4.0 0.10681941360235214 L 5.0 0.10681941360235214 L 5.0 -1.3657546043395996 L 6.0 -1.3657546043395996 L 6.0 -0.6786758303642273 L 7.0 -0.6786758303642273 L 7.0 -1.983750820159912 L 8.0 -1.983750820159912 L 8.0 -0.40417441725730896 L 9.0 -0.40417441725730896 L 9.0 -0.5576217770576477 L 10.0 -0.5576217770576477 L 10.0 -1.435609221458435 L 11.0 -1.435609221458435 L 11.0 -1.2204375267028809 L 12.0 -1.2204375267028809 L 12.0 -0.45308804512023926 L 13.0 -0.45308804512023926 L 13.0 -1.5033526420593262 L 14.0 -1.5033526420593262 L 14.0 -0.7616475820541382 L 15.0 -0.7616475820541382 L 15.0 -0.11166233569383621 L 16.0 -0.11166233569383621 L 16.0 -0.6547780632972717 L 17.0 -0.6547780632972717 L 17.0 -0.9151825904846191 L 18.0 -0.9151825904846191 L 18.0 -0.7052664160728455 L 19.0 -0.7052664160728455 L 19.0 -1.1134977340698242 L 20.0 -1.1134977340698242 L 20.0 0.2719874083995819 L 21.0 0.2719874083995819 L 21.0 -1.642714500427246 L 22.0 -1.642714500427246 L 22.0 -0.17914047837257385 L 23.0 -0.17914047837257385 L 23.0 -0.46122583746910095 L 24.0 -0.46122583746910095 L 24.0 -0.2291276603937149 L 25.0 -0.2291276603937149 L 25.0 -1.4663134813308716 L 26.0 -1.4663134813308716 L 26.0 -1.8140982389450073 L 27.0 -1.8140982389450073 L 27.0 -0.36684322357177734 L 28.0 -0.36684322357177734 L 28.0 0.6312178373336792 L 29.0 0.6312178373336792 L 29.0 -1.3641618490219116 L 30.0 -1.3641618490219116 L 30.0 -1.4809788465499878 L 31.0 -1.4809788465499878 L 31.0 -1.0981719493865967 L 32.0 -1.0981719493865967 L 32.0 -0.04604702442884445 L 33.0 -0.04604702442884445 L 33.0 -0.9552580714225769 L 34.0 -0.9552580714225769 L 34.0 -0.1399087905883789 L 35.0 -0.1399087905883789 L 35.0 -0.8180548548698425 L 36.0 -0.8180548548698425 L 36.0 -0.6091361045837402 L 37.0 -0.6091361045837402 L 37.0 -0.5979908108711243 L 38.0 -0.5979908108711243 L 38.0 -1.1240906715393066 L 39.0 -1.1240906715393066 L 39.0 -1.9024450778961182 L 40.0 -1.9024450778961182" style="vector-effect: non-scaling-stroke;fill:none;" /></g></g></g></g></g></g></g></g></g></g><g transform="matrix(1.0, 0.0, 0.0, 1.0, -0.19999999999999996, 0.16)"><g transform="matrix(1.0, 0.0, 0.0, 0.009999999999999995, 0.0, 0.0)"><g transform="matrix(0.01, 0.0, 0.0, 1.0, 0.0, 0.0)"><g><g><g style="fill: #ffffe0;stroke: #ffffe0;stroke-width: 1.2000000000000002;fill-opacity: 0.5;" transform="matrix(1.0, 0.0, 0.0, 1.0, 0.0, 0.0)"><path d="M 0.0 -2.0 L 0.0 2.0" style="vector-effect: non-scaling-stroke;fill:none;" /></g><g style="fill: #ffffe0;stroke: #ffffe0;stroke-width: 1.2000000000000002;fill-opacity: 0.5;" transform="matrix(1.0, 0.0, 0.0, 1.0, 0.0, 0.0)"><path d="M 0.0 -1.6308082342147827 L 1.0 -1.6308082342147827 L 1.0 -2.0 L 2.0 -2.0 L 2.0 -2.0 L 3.0 -2.0 L 3.0 -2.0 L 4.0 -2.0 L 4.0 -1.8929164409637451 L 5.0 -1.8929164409637451 L 5.0 -2.0 L 6.0 -2.0 L 6.0 -2.0 L 7.0 -2.0 L 7.0 -2.0 L 8.0 -2.0 L 8.0 -2.0 L 9.0 -2.0 L 9.0 -2.0 L 10.0 -2.0 L 10.0 -2.0 L 11.0 -2.0 L 11.0 -2.0 L 12.0 -2.0 L 12.0 -2.0 L 13.0 -2.0 L 13.0 -2.0 L 14.0 -2.0 L 14.0 -2.0 L 15.0 -2.0 L 15.0 -2.0 L 16.0 -2.0 L 16.0 -2.0 L 17.0 -2.0 L 17.0 -2.0 L 18.0 -2.0 L 18.0 -2.0 L 19.0 -2.0 L 19.0 -2.0 L 20.0 -2.0 L 20.0 -1.7277483940124512 L 21.0 -1.7277483940124512 L 21.0 -2.0 L 22.0 -2.0 L 22.0 -2.0 L 23.0 -2.0 L 23.0 -2.0 L 24.0 -2.0 L 24.0 -2.0 L 25.0 -2.0 L 25.0 -2.0 L 26.0 -2.0 L 26.0 -2.0 L 27.0 -2.0 L 27.0 -2.0 L 28.0 -2.0 L 28.0 -1.3714982271194458 L 29.0 -1.3714982271194458 L 29.0 -2.0 L 30.0 -2.0 L 30.0 -2.0 L 31.0 -2.0 L 31.0 -2.0 L 32.0 -2.0 L 32.0 -2.0 L 33.0 -2.0 L 33.0 -2.0 L 34.0 -2.0 L 34.0 -2.0 L 35.0 -2.0 L 35.0 -2.0 L 36.0 -2.0 L 36.0 -2.0 L 37.0 -2.0 L 37.0 -2.0 L 38.0 -2.0 L 38.0 -2.0 L 39.0 -2.0 L 39.0 -2.0 L 40.0 -2.0 L 40.0 -1.9024450778961182 L 39.0 -1.9024450778961182 L 39.0 -1.1240906715393066 L 38.0 -1.1240906715393066 L 38.0 -0.5979908108711243 L 37.0 -0.5979908108711243 L 37.0 -0.6091361045837402 L 36.0 -0.6091361045837402 L 36.0 -0.8180548548698425 L 35.0 -0.8180548548698425 L 35.0 -0.1399087905883789 L 34.0 -0.1399087905883789 L 34.0 -0.9552580714225769 L 33.0 -0.9552580714225769 L 33.0 -0.04604702442884445 L 32.0 -0.04604702442884445 L 32.0 -1.0981719493865967 L 31.0 -1.0981719493865967 L 31.0 -1.4809788465499878 L 30.0 -1.4809788465499878 L 30.0 -1.3641618490219116 L 29.0 -1.3641618490219116 L 29.0 0.6312178373336792 L 28.0 0.6312178373336792 L 28.0 -0.36684322357177734 L 27.0 -0.36684322357177734 L 27.0 -1.8140982389450073 L 26.0 -1.8140982389450073 L 26.0 -1.4663134813308716 L 25.0 -1.4663134813308716 L 25.0 -0.2291276603937149 L 24.0 -0.2291276603937149 L 24.0 -0.46122583746910095 L 23.0 -0.46122583746910095 L 23.0 -0.17914047837257385 L 22.0 -0.17914047837257385 L 22.0 -1.642714500427246 L 21.0 -1.642714500427246 L 21.0 0.2719874083995819 L 20.0 0.2719874083995819 L 20.0 -1.1134977340698242 L 19.0 -1.1134977340698242 L 19.0 -0.7052664160728455 L 18.0 -0.7052664160728455 L 18.0 -0.9151825904846191 L 17.0 -0.9151825904846191 L 17.0 -0.6547780632972717 L 16.0 -0.6547780632972717 L 16.0 -0.11166233569383621 L 15.0 -0.11166233569383621 L 15.0 -0.7616475820541382 L 14.0 -0.7616475820541382 L 14.0 -1.5033526420593262 L 13.0 -1.5033526420593262 L 13.0 -0.45308804512023926 L 12.0 -0.45308804512023926 L 12.0 -1.2204375267028809 L 11.0 -1.2204375267028809 L 11.0 -1.435609221458435 L 10.0 -1.435609221458435 L 10.0 -0.5576217770576477 L 9.0 -0.5576217770576477 L 9.0 -0.40417441725730896 L 8.0 -0.40417441725730896 L 8.0 -1.983750820159912 L 7.0 -1.983750820159912 L 7.0 -0.6786758303642273 L 6.0 -0.6786758303642273 L 6.0 -1.3657546043395996 L 5.0 -1.3657546043395996 L 5.0 0.10681941360235214 L 4.0 0.10681941360235214 L 4.0 -1.5293102264404297 L 3.0 -1.5293102264404297 L 3.0 -1.0358208417892456 L 2.0 -1.0358208417892456 L 2.0 -0.9941620826721191 L 1.0 -0.9941620826721191 L 1.0 0.36892756819725037 L 0.0 0.36892756819725037 Z" style="vector-effect: non-scaling-stroke;" /></g></g><g style="stroke: black;stroke-width: 1.2000000000000002;" transform="matrix(1.0, 0.0, 0.0, 1.0, 0.0, 0.0)"><path d="M 0.0 0.36892756819725037 L 1.0 0.36892756819725037 L 1.0 -0.9941620826721191 L 2.0 -0.9941620826721191 L 2.0 -1.0358208417892456 L 3.0 -1.0358208417892456 L 3.0 -1.5293102264404297 L 4.0 -1.5293102264404297 L 4.0 0.10681941360235214 L 5.0 0.10681941360235214 L 5.0 -1.3657546043395996 L 6.0 -1.3657546043395996 L 6.0 -0.6786758303642273 L 7.0 -0.6786758303642273 L 7.0 -1.983750820159912 L 8.0 -1.983750820159912 L 8.0 -0.40417441725730896 L 9.0 -0.40417441725730896 L 9.0 -0.5576217770576477 L 10.0 -0.5576217770576477 L 10.0 -1.435609221458435 L 11.0 -1.435609221458435 L 11.0 -1.2204375267028809 L 12.0 -1.2204375267028809 L 12.0 -0.45308804512023926 L 13.0 -0.45308804512023926 L 13.0 -1.5033526420593262 L 14.0 -1.5033526420593262 L 14.0 -0.7616475820541382 L 15.0 -0.7616475820541382 L 15.0 -0.11166233569383621 L 16.0 -0.11166233569383621 L 16.0 -0.6547780632972717 L 17.0 -0.6547780632972717 L 17.0 -0.9151825904846191 L 18.0 -0.9151825904846191 L 18.0 -0.7052664160728455 L 19.0 -0.7052664160728455 L 19.0 -1.1134977340698242 L 20.0 -1.1134977340698242 L 20.0 0.2719874083995819 L 21.0 0.2719874083995819 L 21.0 -1.642714500427246 L 22.0 -1.642714500427246 L 22.0 -0.17914047837257385 L 23.0 -0.17914047837257385 L 23.0 -0.46122583746910095 L 24.0 -0.46122583746910095 L 24.0 -0.2291276603937149 L 25.0 -0.2291276603937149 L 25.0 -1.4663134813308716 L 26.0 -1.4663134813308716 L 26.0 -1.8140982389450073 L 27.0 -1.8140982389450073 L 27.0 -0.36684322357177734 L 28.0 -0.36684322357177734 L 28.0 0.6312178373336792 L 29.0 0.6312178373336792 L 29.0 -1.3641618490219116 L 30.0 -1.3641618490219116 L 30.0 -1.4809788465499878 L 31.0 -1.4809788465499878 L 31.0 -1.0981719493865967 L 32.0 -1.0981719493865967 L 32.0 -0.04604702442884445 L 33.0 -0.04604702442884445 L 33.0 -0.9552580714225769 L 34.0 -0.9552580714225769 L 34.0 -0.1399087905883789 L 35.0 -0.1399087905883789 L 35.0 -0.8180548548698425 L 36.0 -0.8180548548698425 L 36.0 -0.6091361045837402 L 37.0 -0.6091361045837402 L 37.0 -0.5979908108711243 L 38.0 -0.5979908108711243 L 38.0 -1.1240906715393066 L 39.0 -1.1240906715393066 L 39.0 -1.9024450778961182 L 40.0 -1.9024450778961182" style="vector-effect: non-scaling-stroke;fill:none;" /></g></g></g></g></g></g><g transform="matrix(1.0, 0.0, 0.0, 1.0, -0.19999999999999996, 0.16)"><g transform="matrix(1.0, 0.0, 0.0, 0.009999999999999995, 0.0, 0.0)"><g transform="matrix(0.01, 0.0, 0.0, 1.0, 0.0, 0.0)"><g><g><g style="fill: #add8e6;stroke: #add8e6;stroke-width: 1.2000000000000002;fill-opacity: 0.5;" transform="matrix(1.0, 0.0, 0.0, 1.0, 0.0, 0.0)"><path d="M 0.0 -2.0 L 0.0 2.0" style="vector-effect: non-scaling-stroke;fill:none;" /></g><g style="fill: #add8e6;stroke: #add8e6;stroke-width: 1.2000000000000002;fill-opacity: 0.5;" transform="matrix(1.0, 0.0, 0.0, 1.0, 0.0, 0.0)"><path d="M 0.0 0.36892756819725037 L 1.0 0.36892756819725037 L 1.0 -0.9941620826721191 L 2.0 -0.9941620826721191 L 2.0 -1.0358208417892456 L 3.0 -1.0358208417892456 L 3.0 -1.5293102264404297 L 4.0 -1.5293102264404297 L 4.0 0.10681941360235214 L 5.0 0.10681941360235214 L 5.0 -1.3657546043395996 L 6.0 -1.3657546043395996 L 6.0 -0.6786758303642273 L 7.0 -0.6786758303642273 L 7.0 -1.983750820159912 L 8.0 -1.983750820159912 L 8.0 -0.40417441725730896 L 9.0 -0.40417441725730896 L 9.0 -0.5576217770576477 L 10.0 -0.5576217770576477 L 10.0 -1.435609221458435 L 11.0 -1.435609221458435 L 11.0 -1.2204375267028809 L 12.0 -1.2204375267028809 L 12.0 -0.45308804512023926 L 13.0 -0.45308804512023926 L 13.0 -1.5033526420593262 L 14.0 -1.5033526420593262 L 14.0 -0.7616475820541382 L 15.0 -0.7616475820541382 L 15.0 -0.11166233569383621 L 16.0 -0.11166233569383621 L 16.0 -0.6547780632972717 L 17.0 -0.6547780632972717 L 17.0 -0.9151825904846191 L 18.0 -0.9151825904846191 L 18.0 -0.7052664160728455 L 19.0 -0.7052664160728455 L 19.0 -1.1134977340698242 L 20.0 -1.1134977340698242 L 20.0 0.2719874083995819 L 21.0 0.2719874083995819 L 21.0 -1.642714500427246 L 22.0 -1.642714500427246 L 22.0 -0.17914047837257385 L 23.0 -0.17914047837257385 L 23.0 -0.46122583746910095 L 24.0 -0.46122583746910095 L 24.0 -0.2291276603937149 L 25.0 -0.2291276603937149 L 25.0 -1.4663134813308716 L 26.0 -1.4663134813308716 L 26.0 -1.8140982389450073 L 27.0 -1.8140982389450073 L 27.0 -0.36684322357177734 L 28.0 -0.36684322357177734 L 28.0 0.6312178373336792 L 29.0 0.6312178373336792 L 29.0 -1.3641618490219116 L 30.0 -1.3641618490219116 L 30.0 -1.4809788465499878 L 31.0 -1.4809788465499878 L 31.0 -1.0981719493865967 L 32.0 -1.0981719493865967 L 32.0 -0.04604702442884445 L 33.0 -0.04604702442884445 L 33.0 -0.9552580714225769 L 34.0 -0.9552580714225769 L 34.0 -0.1399087905883789 L 35.0 -0.1399087905883789 L 35.0 -0.8180548548698425 L 36.0 -0.8180548548698425 L 36.0 -0.6091361045837402 L 37.0 -0.6091361045837402 L 37.0 -0.5979908108711243 L 38.0 -0.5979908108711243 L 38.0 -1.1240906715393066 L 39.0 -1.1240906715393066 L 39.0 -1.9024450778961182 L 40.0 -1.9024450778961182 L 40.0 -1.9024450778961182 L 39.0 -1.9024450778961182 L 39.0 -1.1240906715393066 L 38.0 -1.1240906715393066 L 38.0 -0.5979908108711243 L 37.0 -0.5979908108711243 L 37.0 -0.6091361045837402 L 36.0 -0.6091361045837402 L 36.0 -0.8180548548698425 L 35.0 -0.8180548548698425 L 35.0 -0.1399087905883789 L 34.0 -0.1399087905883789 L 34.0 -0.9552580714225769 L 33.0 -0.9552580714225769 L 33.0 -0.04604702442884445 L 32.0 -0.04604702442884445 L 32.0 -1.0981719493865967 L 31.0 -1.0981719493865967 L 31.0 -1.4809788465499878 L 30.0 -1.4809788465499878 L 30.0 -1.3641618490219116 L 29.0 -1.3641618490219116 L 29.0 0.6312178373336792 L 28.0 0.6312178373336792 L 28.0 -0.36684322357177734 L 27.0 -0.36684322357177734 L 27.0 -1.8140982389450073 L 26.0 -1.8140982389450073 L 26.0 -1.4663134813308716 L 25.0 -1.4663134813308716 L 25.0 -0.2291276603937149 L 24.0 -0.2291276603937149 L 24.0 -0.46122583746910095 L 23.0 -0.46122583746910095 L 23.0 -0.17914047837257385 L 22.0 -0.17914047837257385 L 22.0 -1.642714500427246 L 21.0 -1.642714500427246 L 21.0 0.2719874083995819 L 20.0 0.2719874083995819 L 20.0 -1.1134977340698242 L 19.0 -1.1134977340698242 L 19.0 -0.7052664160728455 L 18.0 -0.7052664160728455 L 18.0 -0.9151825904846191 L 17.0 -0.9151825904846191 L 17.0 -0.6547780632972717 L 16.0 -0.6547780632972717 L 16.0 -0.11166233569383621 L 15.0 -0.11166233569383621 L 15.0 -0.7616475820541382 L 14.0 -0.7616475820541382 L 14.0 -1.5033526420593262 L 13.0 -1.5033526420593262 L 13.0 -0.45308804512023926 L 12.0 -0.45308804512023926 L 12.0 -1.2204375267028809 L 11.0 -1.2204375267028809 L 11.0 -1.435609221458435 L 10.0 -1.435609221458435 L 10.0 -0.5576217770576477 L 9.0 -0.5576217770576477 L 9.0 -0.40417441725730896 L 8.0 -0.40417441725730896 L 8.0 -1.983750820159912 L 7.0 -1.983750820159912 L 7.0 -0.6786758303642273 L 6.0 -0.6786758303642273 L 6.0 -1.3657546043395996 L 5.0 -1.3657546043395996 L 5.0 0.10681941360235214 L 4.0 0.10681941360235214 L 4.0 -1.5293102264404297 L 3.0 -1.5293102264404297 L 3.0 -1.0358208417892456 L 2.0 -1.0358208417892456 L 2.0 -0.9941620826721191 L 1.0 -0.9941620826721191 L 1.0 0.36892756819725037 L 0.0 0.36892756819725037 Z" style="vector-effect: non-scaling-stroke;" /></g></g><g style="stroke: black;stroke-width: 1.2000000000000002;" transform="matrix(1.0, 0.0, 0.0, 1.0, 0.0, 0.0)"><path d="M 0.0 0.36892756819725037 L 1.0 0.36892756819725037 L 1.0 -0.9941620826721191 L 2.0 -0.9941620826721191 L 2.0 -1.0358208417892456 L 3.0 -1.0358208417892456 L 3.0 -1.5293102264404297 L 4.0 -1.5293102264404297 L 4.0 0.10681941360235214 L 5.0 0.10681941360235214 L 5.0 -1.3657546043395996 L 6.0 -1.3657546043395996 L 6.0 -0.6786758303642273 L 7.0 -0.6786758303642273 L 7.0 -1.983750820159912 L 8.0 -1.983750820159912 L 8.0 -0.40417441725730896 L 9.0 -0.40417441725730896 L 9.0 -0.5576217770576477 L 10.0 -0.5576217770576477 L 10.0 -1.435609221458435 L 11.0 -1.435609221458435 L 11.0 -1.2204375267028809 L 12.0 -1.2204375267028809 L 12.0 -0.45308804512023926 L 13.0 -0.45308804512023926 L 13.0 -1.5033526420593262 L 14.0 -1.5033526420593262 L 14.0 -0.7616475820541382 L 15.0 -0.7616475820541382 L 15.0 -0.11166233569383621 L 16.0 -0.11166233569383621 L 16.0 -0.6547780632972717 L 17.0 -0.6547780632972717 L 17.0 -0.9151825904846191 L 18.0 -0.9151825904846191 L 18.0 -0.7052664160728455 L 19.0 -0.7052664160728455 L 19.0 -1.1134977340698242 L 20.0 -1.1134977340698242 L 20.0 0.2719874083995819 L 21.0 0.2719874083995819 L 21.0 -1.642714500427246 L 22.0 -1.642714500427246 L 22.0 -0.17914047837257385 L 23.0 -0.17914047837257385 L 23.0 -0.46122583746910095 L 24.0 -0.46122583746910095 L 24.0 -0.2291276603937149 L 25.0 -0.2291276603937149 L 25.0 -1.4663134813308716 L 26.0 -1.4663134813308716 L 26.0 -1.8140982389450073 L 27.0 -1.8140982389450073 L 27.0 -0.36684322357177734 L 28.0 -0.36684322357177734 L 28.0 0.6312178373336792 L 29.0 0.6312178373336792 L 29.0 -1.3641618490219116 L 30.0 -1.3641618490219116 L 30.0 -1.4809788465499878 L 31.0 -1.4809788465499878 L 31.0 -1.0981719493865967 L 32.0 -1.0981719493865967 L 32.0 -0.04604702442884445 L 33.0 -0.04604702442884445 L 33.0 -0.9552580714225769 L 34.0 -0.9552580714225769 L 34.0 -0.1399087905883789 L 35.0 -0.1399087905883789 L 35.0 -0.8180548548698425 L 36.0 -0.8180548548698425 L 36.0 -0.6091361045837402 L 37.0 -0.6091361045837402 L 37.0 -0.5979908108711243 L 38.0 -0.5979908108711243 L 38.0 -1.1240906715393066 L 39.0 -1.1240906715393066 L 39.0 -1.9024450778961182 L 40.0 -1.9024450778961182" style="vector-effect: non-scaling-stroke;fill:none;" /></g></g></g></g></g></g><g transform="matrix(1.0, 0.0, 0.0, 1.0, -0.19999999999999996, 0.16)"><g transform="matrix(1.0, 0.0, 0.0, 0.009999999999999995, 0.0, 0.0)"><g transform="matrix(0.01, 0.0, 0.0, 1.0, 0.0, 0.0)"><g><g><g style="fill: #ff8c00;stroke: #ff8c00;stroke-width: 1.2000000000000002;fill-opacity: 0.5;" transform="matrix(1.0, 0.0, 0.0, 1.0, 0.0, 0.0)"><path d="M 0.0 -2.0 L 0.0 2.0" style="vector-effect: non-scaling-stroke;fill:none;" /></g><g style="fill: #ff8c00;stroke: #ff8c00;stroke-width: 1.2000000000000002;fill-opacity: 0.5;" transform="matrix(1.0, 0.0, 0.0, 1.0, 0.0, 0.0)"><path d="M 0.0 0.36892756819725037 L 1.0 0.36892756819725037 L 1.0 -0.9941620826721191 L 2.0 -0.9941620826721191 L 2.0 -1.0358208417892456 L 3.0 -1.0358208417892456 L 3.0 -1.5293102264404297 L 4.0 -1.5293102264404297 L 4.0 0.10681941360235214 L 5.0 0.10681941360235214 L 5.0 -1.3657546043395996 L 6.0 -1.3657546043395996 L 6.0 -0.6786758303642273 L 7.0 -0.6786758303642273 L 7.0 -1.983750820159912 L 8.0 -1.983750820159912 L 8.0 -0.40417441725730896 L 9.0 -0.40417441725730896 L 9.0 -0.5576217770576477 L 10.0 -0.5576217770576477 L 10.0 -1.435609221458435 L 11.0 -1.435609221458435 L 11.0 -1.2204375267028809 L 12.0 -1.2204375267028809 L 12.0 -0.45308804512023926 L 13.0 -0.45308804512023926 L 13.0 -1.5033526420593262 L 14.0 -1.5033526420593262 L 14.0 -0.7616475820541382 L 15.0 -0.7616475820541382 L 15.0 -0.11166233569383621 L 16.0 -0.11166233569383621 L 16.0 -0.6547780632972717 L 17.0 -0.6547780632972717 L 17.0 -0.9151825904846191 L 18.0 -0.9151825904846191 L 18.0 -0.7052664160728455 L 19.0 -0.7052664160728455 L 19.0 -1.1134977340698242 L 20.0 -1.1134977340698242 L 20.0 0.2719874083995819 L 21.0 0.2719874083995819 L 21.0 -1.642714500427246 L 22.0 -1.642714500427246 L 22.0 -0.17914047837257385 L 23.0 -0.17914047837257385 L 23.0 -0.46122583746910095 L 24.0 -0.46122583746910095 L 24.0 -0.2291276603937149 L 25.0 -0.2291276603937149 L 25.0 -1.4663134813308716 L 26.0 -1.4663134813308716 L 26.0 -1.8140982389450073 L 27.0 -1.8140982389450073 L 27.0 -0.36684322357177734 L 28.0 -0.36684322357177734 L 28.0 0.6312178373336792 L 29.0 0.6312178373336792 L 29.0 -1.3641618490219116 L 30.0 -1.3641618490219116 L 30.0 -1.4809788465499878 L 31.0 -1.4809788465499878 L 31.0 -1.0981719493865967 L 32.0 -1.0981719493865967 L 32.0 -0.04604702442884445 L 33.0 -0.04604702442884445 L 33.0 -0.9552580714225769 L 34.0 -0.9552580714225769 L 34.0 -0.1399087905883789 L 35.0 -0.1399087905883789 L 35.0 -0.8180548548698425 L 36.0 -0.8180548548698425 L 36.0 -0.6091361045837402 L 37.0 -0.6091361045837402 L 37.0 -0.5979908108711243 L 38.0 -0.5979908108711243 L 38.0 -1.1240906715393066 L 39.0 -1.1240906715393066 L 39.0 -1.9024450778961182 L 40.0 -1.9024450778961182 L 40.0 -1.9024450778961182 L 39.0 -1.9024450778961182 L 39.0 -1.1240906715393066 L 38.0 -1.1240906715393066 L 38.0 -0.5979908108711243 L 37.0 -0.5979908108711243 L 37.0 -0.6091361045837402 L 36.0 -0.6091361045837402 L 36.0 -0.8180548548698425 L 35.0 -0.8180548548698425 L 35.0 -0.1399087905883789 L 34.0 -0.1399087905883789 L 34.0 -0.9552580714225769 L 33.0 -0.9552580714225769 L 33.0 -0.04604702442884445 L 32.0 -0.04604702442884445 L 32.0 -1.0981719493865967 L 31.0 -1.0981719493865967 L 31.0 -1.4809788465499878 L 30.0 -1.4809788465499878 L 30.0 -1.3641618490219116 L 29.0 -1.3641618490219116 L 29.0 0.6312178373336792 L 28.0 0.6312178373336792 L 28.0 -0.36684322357177734 L 27.0 -0.36684322357177734 L 27.0 -1.8140982389450073 L 26.0 -1.8140982389450073 L 26.0 -1.4663134813308716 L 25.0 -1.4663134813308716 L 25.0 -0.2291276603937149 L 24.0 -0.2291276603937149 L 24.0 -0.46122583746910095 L 23.0 -0.46122583746910095 L 23.0 -0.17914047837257385 L 22.0 -0.17914047837257385 L 22.0 -1.642714500427246 L 21.0 -1.642714500427246 L 21.0 0.2719874083995819 L 20.0 0.2719874083995819 L 20.0 -1.1134977340698242 L 19.0 -1.1134977340698242 L 19.0 -0.7052664160728455 L 18.0 -0.7052664160728455 L 18.0 -0.9151825904846191 L 17.0 -0.9151825904846191 L 17.0 -0.6547780632972717 L 16.0 -0.6547780632972717 L 16.0 -0.11166233569383621 L 15.0 -0.11166233569383621 L 15.0 -0.7616475820541382 L 14.0 -0.7616475820541382 L 14.0 -1.5033526420593262 L 13.0 -1.5033526420593262 L 13.0 -0.45308804512023926 L 12.0 -0.45308804512023926 L 12.0 -1.2204375267028809 L 11.0 -1.2204375267028809 L 11.0 -1.435609221458435 L 10.0 -1.435609221458435 L 10.0 -0.5576217770576477 L 9.0 -0.5576217770576477 L 9.0 -0.40417441725730896 L 8.0 -0.40417441725730896 L 8.0 -1.983750820159912 L 7.0 -1.983750820159912 L 7.0 -0.6786758303642273 L 6.0 -0.6786758303642273 L 6.0 -1.3657546043395996 L 5.0 -1.3657546043395996 L 5.0 0.10681941360235214 L 4.0 0.10681941360235214 L 4.0 -1.5293102264404297 L 3.0 -1.5293102264404297 L 3.0 -1.0358208417892456 L 2.0 -1.0358208417892456 L 2.0 -0.9941620826721191 L 1.0 -0.9941620826721191 L 1.0 0.36892756819725037 L 0.0 0.36892756819725037 Z" style="vector-effect: non-scaling-stroke;" /></g></g><g style="stroke: black;stroke-width: 1.2000000000000002;" transform="matrix(1.0, 0.0, 0.0, 1.0, 0.0, 0.0)"><path d="M 0.0 0.36892756819725037 L 1.0 0.36892756819725037 L 1.0 -0.9941620826721191 L 2.0 -0.9941620826721191 L 2.0 -1.0358208417892456 L 3.0 -1.0358208417892456 L 3.0 -1.5293102264404297 L 4.0 -1.5293102264404297 L 4.0 0.10681941360235214 L 5.0 0.10681941360235214 L 5.0 -1.3657546043395996 L 6.0 -1.3657546043395996 L 6.0 -0.6786758303642273 L 7.0 -0.6786758303642273 L 7.0 -1.983750820159912 L 8.0 -1.983750820159912 L 8.0 -0.40417441725730896 L 9.0 -0.40417441725730896 L 9.0 -0.5576217770576477 L 10.0 -0.5576217770576477 L 10.0 -1.435609221458435 L 11.0 -1.435609221458435 L 11.0 -1.2204375267028809 L 12.0 -1.2204375267028809 L 12.0 -0.45308804512023926 L 13.0 -0.45308804512023926 L 13.0 -1.5033526420593262 L 14.0 -1.5033526420593262 L 14.0 -0.7616475820541382 L 15.0 -0.7616475820541382 L 15.0 -0.11166233569383621 L 16.0 -0.11166233569383621 L 16.0 -0.6547780632972717 L 17.0 -0.6547780632972717 L 17.0 -0.9151825904846191 L 18.0 -0.9151825904846191 L 18.0 -0.7052664160728455 L 19.0 -0.7052664160728455 L 19.0 -1.1134977340698242 L 20.0 -1.1134977340698242 L 20.0 0.2719874083995819 L 21.0 0.2719874083995819 L 21.0 -1.642714500427246 L 22.0 -1.642714500427246 L 22.0 -0.17914047837257385 L 23.0 -0.17914047837257385 L 23.0 -0.46122583746910095 L 24.0 -0.46122583746910095 L 24.0 -0.2291276603937149 L 25.0 -0.2291276603937149 L 25.0 -1.4663134813308716 L 26.0 -1.4663134813308716 L 26.0 -1.8140982389450073 L 27.0 -1.8140982389450073 L 27.0 -0.36684322357177734 L 28.0 -0.36684322357177734 L 28.0 0.6312178373336792 L 29.0 0.6312178373336792 L 29.0 -1.3641618490219116 L 30.0 -1.3641618490219116 L 30.0 -1.4809788465499878 L 31.0 -1.4809788465499878 L 31.0 -1.0981719493865967 L 32.0 -1.0981719493865967 L 32.0 -0.04604702442884445 L 33.0 -0.04604702442884445 L 33.0 -0.9552580714225769 L 34.0 -0.9552580714225769 L 34.0 -0.1399087905883789 L 35.0 -0.1399087905883789 L 35.0 -0.8180548548698425 L 36.0 -0.8180548548698425 L 36.0 -0.6091361045837402 L 37.0 -0.6091361045837402 L 37.0 -0.5979908108711243 L 38.0 -0.5979908108711243 L 38.0 -1.1240906715393066 L 39.0 -1.1240906715393066 L 39.0 -1.9024450778961182 L 40.0 -1.9024450778961182" style="vector-effect: non-scaling-stroke;fill:none;" /></g></g></g></g></g></g><g transform="matrix(1.0, 0.0, 0.0, 1.0, -0.19999999999999996, 0.16)"><g transform="matrix(1.0, 0.0, 0.0, 0.009999999999999995, 0.0, 0.0)"><g transform="matrix(0.01, 0.0, 0.0, 1.0, 0.0, 0.0)"><g><g><g style="fill: #0000ff;stroke: #0000ff;stroke-width: 1.2000000000000002;fill-opacity: 0.5;" transform="matrix(1.0, 0.0, 0.0, 1.0, 0.0, 0.0)"><path d="M 0.0 -2.0 L 0.0 2.0" style="vector-effect: non-scaling-stroke;fill:none;" /></g><g style="fill: #0000ff;stroke: #0000ff;stroke-width: 1.2000000000000002;fill-opacity: 0.5;" transform="matrix(1.0, 0.0, 0.0, 1.0, 0.0, 0.0)"><path d="M 0.0 0.36892756819725037 L 1.0 0.36892756819725037 L 1.0 -0.9941620826721191 L 2.0 -0.9941620826721191 L 2.0 -1.0358208417892456 L 3.0 -1.0358208417892456 L 3.0 -1.5293102264404297 L 4.0 -1.5293102264404297 L 4.0 0.10681941360235214 L 5.0 0.10681941360235214 L 5.0 -1.3657546043395996 L 6.0 -1.3657546043395996 L 6.0 -0.6786758303642273 L 7.0 -0.6786758303642273 L 7.0 -1.983750820159912 L 8.0 -1.983750820159912 L 8.0 -0.40417441725730896 L 9.0 -0.40417441725730896 L 9.0 -0.5576217770576477 L 10.0 -0.5576217770576477 L 10.0 -1.435609221458435 L 11.0 -1.435609221458435 L 11.0 -1.2204375267028809 L 12.0 -1.2204375267028809 L 12.0 -0.45308804512023926 L 13.0 -0.45308804512023926 L 13.0 -1.5033526420593262 L 14.0 -1.5033526420593262 L 14.0 -0.7616475820541382 L 15.0 -0.7616475820541382 L 15.0 -0.11166233569383621 L 16.0 -0.11166233569383621 L 16.0 -0.6547780632972717 L 17.0 -0.6547780632972717 L 17.0 -0.9151825904846191 L 18.0 -0.9151825904846191 L 18.0 -0.7052664160728455 L 19.0 -0.7052664160728455 L 19.0 -1.1134977340698242 L 20.0 -1.1134977340698242 L 20.0 0.2719874083995819 L 21.0 0.2719874083995819 L 21.0 -1.642714500427246 L 22.0 -1.642714500427246 L 22.0 -0.17914047837257385 L 23.0 -0.17914047837257385 L 23.0 -0.46122583746910095 L 24.0 -0.46122583746910095 L 24.0 -0.2291276603937149 L 25.0 -0.2291276603937149 L 25.0 -1.4663134813308716 L 26.0 -1.4663134813308716 L 26.0 -1.8140982389450073 L 27.0 -1.8140982389450073 L 27.0 -0.36684322357177734 L 28.0 -0.36684322357177734 L 28.0 0.6312178373336792 L 29.0 0.6312178373336792 L 29.0 -1.3641618490219116 L 30.0 -1.3641618490219116 L 30.0 -1.4809788465499878 L 31.0 -1.4809788465499878 L 31.0 -1.0981719493865967 L 32.0 -1.0981719493865967 L 32.0 -0.04604702442884445 L 33.0 -0.04604702442884445 L 33.0 -0.9552580714225769 L 34.0 -0.9552580714225769 L 34.0 -0.1399087905883789 L 35.0 -0.1399087905883789 L 35.0 -0.8180548548698425 L 36.0 -0.8180548548698425 L 36.0 -0.6091361045837402 L 37.0 -0.6091361045837402 L 37.0 -0.5979908108711243 L 38.0 -0.5979908108711243 L 38.0 -1.1240906715393066 L 39.0 -1.1240906715393066 L 39.0 -1.9024450778961182 L 40.0 -1.9024450778961182 L 40.0 -1.9024450778961182 L 39.0 -1.9024450778961182 L 39.0 -1.1240906715393066 L 38.0 -1.1240906715393066 L 38.0 -0.5979908108711243 L 37.0 -0.5979908108711243 L 37.0 -0.6091361045837402 L 36.0 -0.6091361045837402 L 36.0 -0.8180548548698425 L 35.0 -0.8180548548698425 L 35.0 -0.1399087905883789 L 34.0 -0.1399087905883789 L 34.0 -0.9552580714225769 L 33.0 -0.9552580714225769 L 33.0 -0.04604702442884445 L 32.0 -0.04604702442884445 L 32.0 -1.0981719493865967 L 31.0 -1.0981719493865967 L 31.0 -1.4809788465499878 L 30.0 -1.4809788465499878 L 30.0 -1.3641618490219116 L 29.0 -1.3641618490219116 L 29.0 0.6312178373336792 L 28.0 0.6312178373336792 L 28.0 -0.36684322357177734 L 27.0 -0.36684322357177734 L 27.0 -1.8140982389450073 L 26.0 -1.8140982389450073 L 26.0 -1.4663134813308716 L 25.0 -1.4663134813308716 L 25.0 -0.2291276603937149 L 24.0 -0.2291276603937149 L 24.0 -0.46122583746910095 L 23.0 -0.46122583746910095 L 23.0 -0.17914047837257385 L 22.0 -0.17914047837257385 L 22.0 -1.642714500427246 L 21.0 -1.642714500427246 L 21.0 0.2719874083995819 L 20.0 0.2719874083995819 L 20.0 -1.1134977340698242 L 19.0 -1.1134977340698242 L 19.0 -0.7052664160728455 L 18.0 -0.7052664160728455 L 18.0 -0.9151825904846191 L 17.0 -0.9151825904846191 L 17.0 -0.6547780632972717 L 16.0 -0.6547780632972717 L 16.0 -0.11166233569383621 L 15.0 -0.11166233569383621 L 15.0 -0.7616475820541382 L 14.0 -0.7616475820541382 L 14.0 -1.5033526420593262 L 13.0 -1.5033526420593262 L 13.0 -0.45308804512023926 L 12.0 -0.45308804512023926 L 12.0 -1.2204375267028809 L 11.0 -1.2204375267028809 L 11.0 -1.435609221458435 L 10.0 -1.435609221458435 L 10.0 -0.5576217770576477 L 9.0 -0.5576217770576477 L 9.0 -0.40417441725730896 L 8.0 -0.40417441725730896 L 8.0 -1.983750820159912 L 7.0 -1.983750820159912 L 7.0 -0.6786758303642273 L 6.0 -0.6786758303642273 L 6.0 -1.3657546043395996 L 5.0 -1.3657546043395996 L 5.0 0.10681941360235214 L 4.0 0.10681941360235214 L 4.0 -1.5293102264404297 L 3.0 -1.5293102264404297 L 3.0 -1.0358208417892456 L 2.0 -1.0358208417892456 L 2.0 -0.9941620826721191 L 1.0 -0.9941620826721191 L 1.0 0.36892756819725037 L 0.0 0.36892756819725037 Z" style="vector-effect: non-scaling-stroke;" /></g></g><g style="stroke: black;stroke-width: 1.2000000000000002;" transform="matrix(1.0, 0.0, 0.0, 1.0, 0.0, 0.0)"><path d="M 0.0 0.36892756819725037 L 1.0 0.36892756819725037 L 1.0 -0.9941620826721191 L 2.0 -0.9941620826721191 L 2.0 -1.0358208417892456 L 3.0 -1.0358208417892456 L 3.0 -1.5293102264404297 L 4.0 -1.5293102264404297 L 4.0 0.10681941360235214 L 5.0 0.10681941360235214 L 5.0 -1.3657546043395996 L 6.0 -1.3657546043395996 L 6.0 -0.6786758303642273 L 7.0 -0.6786758303642273 L 7.0 -1.983750820159912 L 8.0 -1.983750820159912 L 8.0 -0.40417441725730896 L 9.0 -0.40417441725730896 L 9.0 -0.5576217770576477 L 10.0 -0.5576217770576477 L 10.0 -1.435609221458435 L 11.0 -1.435609221458435 L 11.0 -1.2204375267028809 L 12.0 -1.2204375267028809 L 12.0 -0.45308804512023926 L 13.0 -0.45308804512023926 L 13.0 -1.5033526420593262 L 14.0 -1.5033526420593262 L 14.0 -0.7616475820541382 L 15.0 -0.7616475820541382 L 15.0 -0.11166233569383621 L 16.0 -0.11166233569383621 L 16.0 -0.6547780632972717 L 17.0 -0.6547780632972717 L 17.0 -0.9151825904846191 L 18.0 -0.9151825904846191 L 18.0 -0.7052664160728455 L 19.0 -0.7052664160728455 L 19.0 -1.1134977340698242 L 20.0 -1.1134977340698242 L 20.0 0.2719874083995819 L 21.0 0.2719874083995819 L 21.0 -1.642714500427246 L 22.0 -1.642714500427246 L 22.0 -0.17914047837257385 L 23.0 -0.17914047837257385 L 23.0 -0.46122583746910095 L 24.0 -0.46122583746910095 L 24.0 -0.2291276603937149 L 25.0 -0.2291276603937149 L 25.0 -1.4663134813308716 L 26.0 -1.4663134813308716 L 26.0 -1.8140982389450073 L 27.0 -1.8140982389450073 L 27.0 -0.36684322357177734 L 28.0 -0.36684322357177734 L 28.0 0.6312178373336792 L 29.0 0.6312178373336792 L 29.0 -1.3641618490219116 L 30.0 -1.3641618490219116 L 30.0 -1.4809788465499878 L 31.0 -1.4809788465499878 L 31.0 -1.0981719493865967 L 32.0 -1.0981719493865967 L 32.0 -0.04604702442884445 L 33.0 -0.04604702442884445 L 33.0 -0.9552580714225769 L 34.0 -0.9552580714225769 L 34.0 -0.1399087905883789 L 35.0 -0.1399087905883789 L 35.0 -0.8180548548698425 L 36.0 -0.8180548548698425 L 36.0 -0.6091361045837402 L 37.0 -0.6091361045837402 L 37.0 -0.5979908108711243 L 38.0 -0.5979908108711243 L 38.0 -1.1240906715393066 L 39.0 -1.1240906715393066 L 39.0 -1.9024450778961182 L 40.0 -1.9024450778961182" style="vector-effect: non-scaling-stroke;fill:none;" /></g></g></g></g></g></g></g></g><g /></g></g></g></g></svg>