<?xml version="1.0" encoding="utf-8" ?>
<svg baseProfile="full" height="300" version="1.1" width="1056" xmlns="http://www.w3.org/2000/svg" xmlns:ev="http://www.w3.org/2001/xml-events" xmlns:xlink="http://www.w3.org/1999/xlink"><defs><marker id="arrow" markerHeight="3.5" markerWidth="5" orient="auto" refX="5.0" refY="1.7"><polygon points="0,0 5,1.75 0,3.5" /></marker></defs><g style="fill:white;"><g transform="matrix(1.0, 0.0, 0.0, 1.0, 528.4090909090908, 150.0)"><g transform="matrix(1082.2510822510822, 0.0, 0.0, 1082.2510822510822, 0.0, 0.0)"><g><g transform="matrix(1.0, 0.0, 0.0, 1.0, -0.0, -0.08000000000000002)"><g><g><g style="fill: #ffffff;stroke: black;stroke-width: 1.2000000000000002;" transform="matrix(1.0, 0.0, 0.0, 1.0, -0.4649999999999999, -0.052000000000000005)"><path d="M 0.0 0.0 L 0.9299999999999998 0.0 L 0.9299999999999998 0.264 L 0.0 0.264 L 0.0 0.0 Z" style="vector-effect: non-scaling-stroke;" /></g><g><g><g><g><g><g><g><g transform="matrix(1.0, 0.0, 0.0, 1.0, -0.4149999999999999, -0.03)"><g><g><g transform="matrix(1.0, 0.0, 0.0, 1.0, 0.075, 0.0)"><g transform="matrix(1.0, 0.0, 0.0, 1.0, 0.0, 0.03)"><g transform="matrix(0.01, 0.0, 0.0, 0.01, 0.0, 0.0)"><g><g><g transform="matrix(1.0, 0.0, 0.0, 1.0, 20.0, 0.0)"><g transform="matrix(1.0, 0.0, 0.0, 1.0, -27.5, -0.0)"><g><g style="fill: #d3d3d3;stroke: black;stroke-width: 1.2000000000000002;" transform="matrix(1.0, 0.0, 0.0, 1.0, 0.0, -3.0)"><path d="M 0.0 0.0 L 55.0 0.0 L 55.0 6.0 L 0.0 6.0 L 0.0 0.0 Z" style="vector-effect: non-scaling-stroke;" /></g><g transform="matrix(1.0, 0.0, 0.0, 1.0, 1.875, 0.0)"><g><g style="stroke: black;stroke-width: 1.2000000000000002;" transform="matrix(1.0, 0.0, 0.0, 1.0, 0.0, 0.0)"><g /></g><g style="fill: #ffa500;stroke: black;stroke-width: 1.2000000000000002;" transform="matrix(1.0, 0.0, 0.0, 1.0, 1.875, 0.0)"><text style="text-align:center; text-anchor:middle; dominant-baseline:middle;&#10;                      font-family:sans-serif; font-weight: bold;&#10;                      font-size:3px;&#10;                      vector-effect: non-scaling-stroke;" transform="translate(-5e-05, 0)">x</text></g></g></g></g></g></g><g><g><g><g><g><g><g><g style="stroke: black;stroke-width: 1.2000000000000002;" transform="matrix(1.0, 0.0, 0.0, 1.0, 0.0, 0.0)"><path d="M 0.0 -2.0 L 0.0 2.0" style="vector-effect: non-scaling-stroke;fill:none;" /></g><g style="stroke: #808080;stroke-width: 0.6000000000000001;" transform="matrix(1.0, 0.0, 0.0, 1.0, 0.0, 0.0)"><path d="M 0.0 0.0 L 40.0 0.0" style="vector-effect: non-scaling-stroke;fill:none;" /></g></g><g style="stroke: black;stroke-width: 2.4000000000000004;" transform="matrix(1.0, 0.0, 0.0, 1.0, 0.0, 0.0)"><path d="M 0.0 -0.9227485060691833 L 1.0 -0.9227485060691833 L 1.0 -0.9909365773200989 L 2.0 -0.9909365773200989 L 2.0 0.7891024351119995 L 3.0 0.7891024351119995 L 3.0 -0.07757601141929626 L 4.0 -0.07757601141929626 L 4.0 0.01911219209432602 L 5.0 0.01911219209432602 L 5.0 -0.8911665081977844 L 6.0 -0.8911665081977844 L 6.0 -1.1970560550689697 L 7.0 -1.1970560550689697 L 7.0 -0.5381621718406677 L 8.0 -0.5381621718406677 L 8.0 -0.9204915165901184 L 9.0 -0.9204915165901184 L 9.0 -1.1677565574645996 L 10.0 -1.1677565574645996 L 10.0 -0.10237627476453781 L 11.0 -0.10237627476453781 L 11.0 -1.0883831977844238 L 12.0 -1.0883831977844238 L 12.0 -1.2543400526046753 L 13.0 -1.2543400526046753 L 13.0 -1.146077275276184 L 14.0 -1.146077275276184 L 14.0 -1.46364164352417 L 15.0 -1.46364164352417 L 15.0 0.2734439969062805 L 16.0 0.2734439969062805 L 16.0 -0.6144730448722839 L 17.0 -0.6144730448722839 L 17.0 -0.4818328320980072 L 18.0 -0.4818328320980072 L 18.0 -0.8879019618034363 L 19.0 -0.8879019618034363 L 19.0 -0.9621256589889526 L 20.0 -0.9621256589889526 L 20.0 -0.560005247592926 L 21.0 -0.560005247592926 L 21.0 -1.7141392230987549 L 22.0 -1.7141392230987549 L 22.0 -0.17204943299293518 L 23.0 -0.17204943299293518 L 23.0 -1.0008693933486938 L 24.0 -1.0008693933486938 L 24.0 -0.29286766052246094 L 25.0 -0.29286766052246094 L 25.0 -1.59687340259552 L 26.0 -1.59687340259552 L 26.0 -1.9491041898727417 L 27.0 -1.9491041898727417 L 27.0 -1.7712304592132568 L 28.0 -1.7712304592132568 L 28.0 -0.13592040538787842 L 29.0 -0.13592040538787842 L 29.0 -0.16275697946548462 L 30.0 -0.16275697946548462 L 30.0 -1.4939042329788208 L 31.0 -1.4939042329788208 L 31.0 -0.6856494545936584 L 32.0 -0.6856494545936584 L 32.0 -1.6778924465179443 L 33.0 -1.6778924465179443 L 33.0 -1.444204568862915 L 34.0 -1.444204568862915 L 34.0 -1.217467188835144 L 35.0 -1.217467188835144 L 35.0 -0.15922601521015167 L 36.0 -0.15922601521015167 L 36.0 -0.5722299814224243 L 37.0 -0.5722299814224243 L 37.0 -1.6945139169692993 L 38.0 -1.6945139169692993 L 38.0 -0.581519365310669 L 39.0 -0.581519365310669 L 39.0 -0.020752618089318275 L 40.0 -0.020752618089318275" style="vector-effect: non-scaling-stroke;fill:none;" /></g></g><g style="stroke: black;stroke-width: 1.2000000000000002;" transform="matrix(1.0, 0.0, 0.0, 1.0, 0.0, 0.0)"><path d="M 0.0 -2.0 L 0.0 2.0" style="vector-effect: non-scaling-stroke;fill:none;" /></g></g><g style="stroke: black;stroke-width: 1.2000000000000002;" transform="matrix(1.0, 0.0, 0.0, 1.0, 0.0, 0.0)"><path d="M 10.0 -2.0 L 10.0 2.0" style="vector-effect: non-scaling-stroke;fill:none;" /></g></g><g style="stroke: black;stroke-width: 1.2000000000000002;" transform="matrix(1.0, 0.0, 0.0, 1.0, 0.0, 0.0)"><path d="M 20.0 -2.0 L 20.0 2.0" style="vector-effect: non-scaling-stroke;fill:none;" /></g></g><g style="stroke: black;stroke-width: 1.2000000000000002;" transform="matrix(1.0, 0.0, 0.0, 1.0, 0.0, 0.0)"><path d="M 30.0 -2.0 L 30.0 2.0" style="vector-effect: non-scaling-stroke;fill:none;" /></g></g></g></g><g><g><g><g><g><g><g><g style="stroke: black;stroke-width: 1.2000000000000002;" transform="matrix(1.0, 0.0, 0.0, 1.0, 0.0, 0.0)"><path d="M 0.0 -2.0 L 0.0 2.0" style="vector-effect: non-scaling-stroke;fill:none;" /></g><g style="stroke: #808080;stroke-width: 0.6000000000000001;" transform="matrix(1.0, 0.0, 0.0, 1.0, 0.0, 0.0)"><path d="M 0.0 0.0 L 40.0 0.0" style="vector-effect: non-scaling-stroke;fill:none;" /></g></g><g style="stroke: black;stroke-width: 2.4000000000000004;" transform="matrix(1.0, 0.0, 0.0, 1.0, 0.0, 0.0)"><path d="M 0.0 -0.9227485060691833 L 1.0 -0.9227485060691833 L 1.0 -0.9909365773200989 L 2.0 -0.9909365773200989 L 2.0 0.7891024351119995 L 3.0 0.7891024351119995 L 3.0 -0.07757601141929626 L 4.0 -0.07757601141929626 L 4.0 0.01911219209432602 L 5.0 0.01911219209432602 L 5.0 -0.8911665081977844 L 6.0 -0.8911665081977844 L 6.0 -1.1970560550689697 L 7.0 -1.1970560550689697 L 7.0 -0.5381621718406677 L 8.0 -0.5381621718406677 L 8.0 -0.9204915165901184 L 9.0 -0.9204915165901184 L 9.0 -1.1677565574645996 L 10.0 -1.1677565574645996 L 10.0 -0.10237627476453781 L 11.0 -0.10237627476453781 L 11.0 -1.0883831977844238 L 12.0 -1.0883831977844238 L 12.0 -1.2543400526046753 L 13.0 -1.2543400526046753 L 13.0 -1.146077275276184 L 14.0 -1.146077275276184 L 14.0 -1.46364164352417 L 15.0 -1.46364164352417 L 15.0 0.2734439969062805 L 16.0 0.2734439969062805 L 16.0 -0.6144730448722839 L 17.0 -0.6144730448722839 L 17.0 -0.4818328320980072 L 18.0 -0.4818328320980072 L 18.0 -0.8879019618034363 L 19.0 -0.8879019618034363 L 19.0 -0.9621256589889526 L 20.0 -0.9621256589889526 L 20.0 -0.560005247592926 L 21.0 -0.560005247592926 L 21.0 -1.7141392230987549 L 22.0 -1.7141392230987549 L 22.0 -0.17204943299293518 L 23.0 -0.17204943299293518 L 23.0 -1.0008693933486938 L 24.0 -1.0008693933486938 L 24.0 -0.29286766052246094 L 25.0 -0.29286766052246094 L 25.0 -1.59687340259552 L 26.0 -1.59687340259552 L 26.0 -1.9491041898727417 L 27.0 -1.9491041898727417 L 27.0 -1.7712304592132568 L 28.0 -1.7712304592132568 L 28.0 -0.13592040538787842 L 29.0 -0.13592040538787842 L 29.0 -0.16275697946548462 L 30.0 -0.16275697946548462 L 30.0 -1.4939042329788208 L 31.0 -1.4939042329788208 L 31.0 -0.6856494545936584 L 32.0 -0.6856494545936584 L 32.0 -1.6778924465179443 L 33.0 -1.6778924465179443 L 33.0 -1.444204568862915 L 34.0 -1.444204568862915 L 34.0 -1.217467188835144 L 35.0 -1.217467188835144 L 35.0 -0.15922601521015167 L 36.0 -0.15922601521015167 L 36.0 -0.5722299814224243 L 37.0 -0.5722299814224243 L 37.0 -1.6945139169692993 L 38.0 -1.6945139169692993 L 38.0 -0.581519365310669 L 39.0 -0.581519365310669 L 39.0 -0.020752618089318275 L 40.0 -0.020752618089318275" style="vector-effect: non-scaling-stroke;fill:none;" /></g></g><g style="stroke: black;stroke-width: 1.2000000000000002;" transform="matrix(1.0, 0.0, 0.0, 1.0, 0.0, 0.0)"><path d="M 0.0 -2.0 L 0.0 2.0" style="vector-effect: non-scaling-stroke;fill:none;" /></g></g><g style="stroke: black;stroke-width: 1.2000000000000002;" transform="matrix(1.0, 0.0, 0.0, 1.0, 0.0, 0.0)"><path d="M 10.0 -2.0 L 10.0 2.0" style="vector-effect: non-scaling-stroke;fill:none;" /></g></g><g style="stroke: black;stroke-width: 1.2000000000000002;" transform="matrix(1.0, 0.0, 0.0, 1.0, 0.0, 0.0)"><path d="M 20.0 -2.0 L 20.0 2.0" style="vector-effect: non-scaling-stroke;fill:none;" /></g></g><g style="stroke: black;stroke-width: 1.2000000000000002;" transform="matrix(1.0, 0.0, 0.0, 1.0, 0.0, 0.0)"><path d="M 30.0 -2.0 L 30.0 2.0" style="vector-effect: non-scaling-stroke;fill:none;" /></g></g></g></g></g></g></g><g style="stroke: black;stroke-width: 1.2000000000000002;" transform="matrix(1.0, 0.0, 0.0, 1.0, 0.565, 0.0)"><g /></g></g><g transform="matrix(1.0, 0.0, 0.0, 1.0, 0.58, 0.0)"><g transform="matrix(1.0, 0.0, 0.0, 1.0, 0.075, 0.0)"><g transform="matrix(1.0, 0.0, 0.0, 1.0, 0.0, 0.03)"><g transform="matrix(0.01, 0.0, 0.0, 0.01, 0.0, 0.0)"><g><g><g transform="matrix(1.0, 0.0, 0.0, 1.0, 5.0, 0.0)"><g transform="matrix(1.0, 0.0, 0.0, 1.0, -12.5, -0.0)"><g><g style="fill: #d3d3d3;stroke: black;stroke-width: 1.2000000000000002;" transform="matrix(1.0, 0.0, 0.0, 1.0, 0.0, -3.0)"><path d="M 0.0 0.0 L 25.0 0.0 L 25.0 6.0 L 0.0 6.0 L 0.0 0.0 Z" style="vector-effect: non-scaling-stroke;" /></g><g transform="matrix(1.0, 0.0, 0.0, 1.0, 1.875, 0.0)"><g><g style="stroke: black;stroke-width: 1.2000000000000002;" transform="matrix(1.0, 0.0, 0.0, 1.0, 0.0, 0.0)"><g /></g><g style="fill: #ffa500;stroke: black;stroke-width: 1.2000000000000002;" transform="matrix(1.0, 0.0, 0.0, 1.0, 1.875, 0.0)"><text style="text-align:center; text-anchor:middle; dominant-baseline:middle;&#10;                      font-family:sans-serif; font-weight: bold;&#10;                      font-size:3px;&#10;                      vector-effect: non-scaling-stroke;" transform="translate(-5e-05, 0)">y</text></g></g></g></g></g></g><g><g><g><g style="stroke: black;stroke-width: 1.2000000000000002;" transform="matrix(1.0, 0.0, 0.0, 1.0, 0.0, 0.0)"><path d="M 0.0 -2.0 L 0.0 2.0" style="vector-effect: non-scaling-stroke;fill:none;" /></g><g style="stroke: #808080;stroke-width: 0.6000000000000001;" transform="matrix(1.0, 0.0, 0.0, 1.0, 0.0, 0.0)"><path d="M 0.0 0.0 L 10.0 0.0" style="vector-effect: non-scaling-stroke;fill:none;" /></g></g><g style="stroke: black;stroke-width: 2.4000000000000004;" transform="matrix(1.0, 0.0, 0.0, 1.0, 0.0, 0.0)"><path d="M 0.0 -0.7649675011634827 L 1.0 -0.7649675011634827 L 1.0 -1.352418065071106 L 2.0 -1.352418065071106 L 2.0 -0.794601321220398 L 3.0 -0.794601321220398 L 3.0 -0.23699279129505157 L 4.0 -0.23699279129505157 L 4.0 -1.4524481296539307 L 5.0 -1.4524481296539307 L 5.0 -1.4297020435333252 L 6.0 -1.4297020435333252 L 6.0 0.10874383896589279 L 7.0 0.10874383896589279 L 7.0 -0.08931400626897812 L 8.0 -0.08931400626897812 L 8.0 -0.5557575225830078 L 9.0 -0.5557575225830078 L 9.0 -1.5842432975769043 L 10.0 -1.5842432975769043" style="vector-effect: non-scaling-stroke;fill:none;" /></g></g></g></g><g><g><g><g style="stroke: black;stroke-width: 1.2000000000000002;" transform="matrix(1.0, 0.0, 0.0, 1.0, 0.0, 0.0)"><path d="M 0.0 -2.0 L 0.0 2.0" style="vector-effect: non-scaling-stroke;fill:none;" /></g><g style="stroke: #808080;stroke-width: 0.6000000000000001;" transform="matrix(1.0, 0.0, 0.0, 1.0, 0.0, 0.0)"><path d="M 0.0 0.0 L 10.0 0.0" style="vector-effect: non-scaling-stroke;fill:none;" /></g></g><g style="stroke: black;stroke-width: 2.4000000000000004;" transform="matrix(1.0, 0.0, 0.0, 1.0, 0.0, 0.0)"><path d="M 0.0 -0.7649675011634827 L 1.0 -0.7649675011634827 L 1.0 -1.352418065071106 L 2.0 -1.352418065071106 L 2.0 -0.794601321220398 L 3.0 -0.794601321220398 L 3.0 -0.23699279129505157 L 4.0 -0.23699279129505157 L 4.0 -1.4524481296539307 L 5.0 -1.4524481296539307 L 5.0 -1.4297020435333252 L 6.0 -1.4297020435333252 L 6.0 0.10874383896589279 L 7.0 0.10874383896589279 L 7.0 -0.08931400626897812 L 8.0 -0.08931400626897812 L 8.0 -0.5557575225830078 L 9.0 -0.5557575225830078 L 9.0 -1.5842432975769043 L 10.0 -1.5842432975769043" style="vector-effect: non-scaling-stroke;fill:none;" /></g></g></g></g></g></g></g></g></g></g><g style="stroke: black;stroke-width: 1.2000000000000002;" transform="matrix(0.0, -1.0, 1.0, 0.0, 0.0, 0.08)"><g /></g></g><g transform="matrix(1.0, 0.0, 0.0, 1.0, 0.0, 0.16)"><g transform="matrix(1.0, 0.0, 0.0, 1.0, -0.125, -0.03)"><g transform="matrix(1.0, 0.0, 0.0, 1.0, 0.075, 0.0)"><g transform="matrix(1.0, 0.0, 0.0, 1.0, 0.0, 0.03)"><g transform="matrix(0.01, 0.0, 0.0, 0.01, 0.0, 0.0)"><g><g><g transform="matrix(1.0, 0.0, 0.0, 1.0, 5.0, 0.0)"><g transform="matrix(1.0, 0.0, 0.0, 1.0, -12.5, -0.0)"><g><g style="fill: #d3d3d3;stroke: black;stroke-width: 1.2000000000000002;" transform="matrix(1.0, 0.0, 0.0, 1.0, 0.0, -3.0)"><path d="M 0.0 0.0 L 25.0 0.0 L 25.0 6.0 L 0.0 6.0 L 0.0 0.0 Z" style="vector-effect: non-scaling-stroke;" /></g><g transform="matrix(1.0, 0.0, 0.0, 1.0, 1.875, 0.0)"><g><g style="stroke: black;stroke-width: 1.2000000000000002;" transform="matrix(1.0, 0.0, 0.0, 1.0, 0.0, 0.0)"><g /></g><g style="fill: #ffa500;stroke: black;stroke-width: 1.2000000000000002;" transform="matrix(1.0, 0.0, 0.0, 1.0, 1.875, 0.0)"><text style="text-align:center; text-anchor:middle; dominant-baseline:middle;&#10;                      font-family:sans-serif; font-weight: bold;&#10;                      font-size:3px;&#10;                      vector-effect: non-scaling-stroke;" transform="translate(-5e-05, 0)">f(x)</text></g></g></g></g></g></g><g><g><g><g style="stroke: black;stroke-width: 1.2000000000000002;" transform="matrix(1.0, 0.0, 0.0, 1.0, 0.0, 0.0)"><path d="M 0.0 -2.0 L 0.0 2.0" style="vector-effect: non-scaling-stroke;fill:none;" /></g><g style="stroke: #808080;stroke-width: 0.6000000000000001;" transform="matrix(1.0, 0.0, 0.0, 1.0, 0.0, 0.0)"><path d="M 0.0 0.0 L 10.0 0.0" style="vector-effect: non-scaling-stroke;fill:none;" /></g></g><g style="stroke: black;stroke-width: 2.4000000000000004;" transform="matrix(1.0, 0.0, 0.0, 1.0, 0.0, 0.0)"><path d="M 0.0 -0.7697585821151733 L 1.0 -0.7697585821151733 L 1.0 -1.1197770833969116 L 2.0 -1.1197770833969116 L 2.0 -0.5787948369979858 L 3.0 -0.5787948369979858 L 3.0 -0.9171817898750305 L 4.0 -0.9171817898750305 L 4.0 -0.7387160658836365 L 5.0 -0.7387160658836365 L 5.0 -0.59345543384552 L 6.0 -0.59345543384552 L 6.0 -1.0832158327102661 L 7.0 -1.0832158327102661 L 7.0 -1.1214348077774048 L 8.0 -1.1214348077774048 L 8.0 -0.6314582824707031 L 9.0 -0.6314582824707031 L 9.0 -0.5783479809761047 L 10.0 -0.5783479809761047" style="vector-effect: non-scaling-stroke;fill:none;" /></g></g></g></g><g><g><g><g style="stroke: black;stroke-width: 1.2000000000000002;" transform="matrix(1.0, 0.0, 0.0, 1.0, 0.0, 0.0)"><path d="M 0.0 -2.0 L 0.0 2.0" style="vector-effect: non-scaling-stroke;fill:none;" /></g><g style="stroke: #808080;stroke-width: 0.6000000000000001;" transform="matrix(1.0, 0.0, 0.0, 1.0, 0.0, 0.0)"><path d="M 0.0 0.0 L 10.0 0.0" style="vector-effect: non-scaling-stroke;fill:none;" /></g></g><g style="stroke: black;stroke-width: 2.4000000000000004;" transform="matrix(1.0, 0.0, 0.0, 1.0, 0.0, 0.0)"><path d="M 0.0 -0.7697585821151733 L 1.0 -0.7697585821151733 L 1.0 -1.1197770833969116 L 2.0 -1.1197770833969116 L 2.0 -0.5787948369979858 L 3.0 -0.5787948369979858 L 3.0 -0.9171817898750305 L 4.0 -0.9171817898750305 L 4.0 -0.7387160658836365 L 5.0 -0.7387160658836365 L 5.0 -0.59345543384552 L 6.0 -0.59345543384552 L 6.0 -1.0832158327102661 L 7.0 -1.0832158327102661 L 7.0 -1.1214348077774048 L 8.0 -1.1214348077774048 L 8.0 -0.6314582824707031 L 9.0 -0.6314582824707031 L 9.0 -0.5783479809761047 L 10.0 -0.5783479809761047" style="vector-effect: non-scaling-stroke;fill:none;" /></g></g></g></g></g></g></g></g></g></g><g transform="matrix(1.0, 0.0, 0.0, 1.0, -0.05, 0.16)"><g transform="matrix(1.0, 0.0, 0.0, 0.009999999999999995, 0.0, 0.0)"><g transform="matrix(0.01, 0.0, 0.0, 1.0, 0.0, 0.0)"><g><g><g style="fill: #ffffe0;stroke: #ffffe0;stroke-width: 1.2000000000000002;fill-opacity: 0.5;" transform="matrix(1.0, 0.0, 0.0, 1.0, 0.0, 0.0)"><path d="M 0.0 -2.0 L 0.0 2.0" style="vector-effect: non-scaling-stroke;fill:none;" /></g><g style="fill: #ffffe0;stroke: #ffffe0;stroke-width: 1.2000000000000002;fill-opacity: 0.5;" transform="matrix(1.0, 0.0, 0.0, 1.0, 0.0, 0.0)"><path d="M 0.0 -2.0 L 1.0 -2.0 L 1.0 -2.0 L 2.0 -2.0 L 2.0 -2.0 L 3.0 -2.0 L 3.0 -2.0 L 4.0 -2.0 L 4.0 -2.0 L 5.0 -2.0 L 5.0 -2.0 L 6.0 -2.0 L 6.0 -2.0 L 7.0 -2.0 L 7.0 -2.0 L 8.0 -2.0 L 8.0 -2.0 L 9.0 -2.0 L 9.0 -2.0 L 10.0 -2.0 L 10.0 -0.5783479809761047 L 9.0 -0.5783479809761047 L 9.0 -0.6314582824707031 L 8.0 -0.6314582824707031 L 8.0 -1.1214348077774048 L 7.0 -1.1214348077774048 L 7.0 -1.0832158327102661 L 6.0 -1.0832158327102661 L 6.0 -0.59345543384552 L 5.0 -0.59345543384552 L 5.0 -0.7387160658836365 L 4.0 -0.7387160658836365 L 4.0 -0.9171817898750305 L 3.0 -0.9171817898750305 L 3.0 -0.5787948369979858 L 2.0 -0.5787948369979858 L 2.0 -1.1197770833969116 L 1.0 -1.1197770833969116 L 1.0 -0.7697585821151733 L 0.0 -0.7697585821151733 Z" style="vector-effect: non-scaling-stroke;" /></g></g><g style="stroke: black;stroke-width: 1.2000000000000002;" transform="matrix(1.0, 0.0, 0.0, 1.0, 0.0, 0.0)"><path d="M 0.0 -0.7697585821151733 L 1.0 -0.7697585821151733 L 1.0 -1.1197770833969116 L 2.0 -1.1197770833969116 L 2.0 -0.5787948369979858 L 3.0 -0.5787948369979858 L 3.0 -0.9171817898750305 L 4.0 -0.9171817898750305 L 4.0 -0.7387160658836365 L 5.0 -0.7387160658836365 L 5.0 -0.59345543384552 L 6.0 -0.59345543384552 L 6.0 -1.0832158327102661 L 7.0 -1.0832158327102661 L 7.0 -1.1214348077774048 L 8.0 -1.1214348077774048 L 8.0 -0.6314582824707031 L 9.0 -0.6314582824707031 L 9.0 -0.5783479809761047 L 10.0 -0.5783479809761047" style="vector-effect: non-scaling-stroke;fill:none;" /></g></g></g></g></g></g><g transform="matrix(1.0, 0.0, 0.0, 1.0, -0.05, 0.16)"><g transform="matrix(1.0, 0.0, 0.0, 0.009999999999999995, 0.0, 0.0)"><g transform="matrix(0.01, 0.0, 0.0, 1.0, 0.0, 0.0)"><g><g><g style="fill: #add8e6;stroke: #add8e6;stroke-width: 1.2000000000000002;fill-opacity: 0.5;" transform="matrix(1.0, 0.0, 0.0, 1.0, 0.0, 0.0)"><path d="M 0.0 -2.0 L 0.0 2.0" style="vector-effect: non-scaling-stroke;fill:none;" /></g><g style="fill: #add8e6;stroke: #add8e6;stroke-width: 1.2000000000000002;fill-opacity: 0.5;" transform="matrix(1.0, 0.0, 0.0, 1.0, 0.0, 0.0)"><path d="M 0.0 -0.7697585821151733 L 1.0 -0.7697585821151733 L 1.0 -1.1197770833969116 L 2.0 -1.1197770833969116 L 2.0 -0.5787948369979858 L 3.0 -0.5787948369979858 L 3.0 -0.9171817898750305 L 4.0 -0.9171817898750305 L 4.0 -0.7387160658836365 L 5.0 -0.7387160658836365 L 5.0 -0.59345543384552 L 6.0 -0.59345543384552 L 6.0 -1.0832158327102661 L 7.0 -1.0832158327102661 L 7.0 -1.1214348077774048 L 8.0 -1.1214348077774048 L 8.0 -0.6314582824707031 L 9.0 -0.6314582824707031 L 9.0 -0.5783479809761047 L 10.0 -0.5783479809761047 L 10.0 -0.5783479809761047 L 9.0 -0.5783479809761047 L 9.0 -0.6314582824707031 L 8.0 -0.6314582824707031 L 8.0 -1.1214348077774048 L 7.0 -1.1214348077774048 L 7.0 -1.0832158327102661 L 6.0 -1.0832158327102661 L 6.0 -0.59345543384552 L 5.0 -0.59345543384552 L 5.0 -0.7387160658836365 L 4.0 -0.7387160658836365 L 4.0 -0.9171817898750305 L 3.0 -0.9171817898750305 L 3.0 -0.5787948369979858 L 2.0 -0.5787948369979858 L 2.0 -1.1197770833969116 L 1.0 -1.1197770833969116 L 1.0 -0.7697585821151733 L 0.0 -0.7697585821151733 Z" style="vector-effect: non-scaling-stroke;" /></g></g><g style="stroke: black;stroke-width: 1.2000000000000002;" transform="matrix(1.0, 0.0, 0.0, 1.0, 0.0, 0.0)"><path d="M 0.0 -0.7697585821151733 L 1.0 -0.7697585821151733 L 1.0 -1.1197770833969116 L 2.0 -1.1197770833969116 L 2.0 -0.5787948369979858 L 3.0 -0.5787948369979858 L 3.0 -0.9171817898750305 L 4.0 -0.9171817898750305 L 4.0 -0.7387160658836365 L 5.0 -0.7387160658836365 L 5.0 -0.59345543384552 L 6.0 -0.59345543384552 L 6.0 -1.0832158327102661 L 7.0 -1.0832158327102661 L 7.0 -1.1214348077774048 L 8.0 -1.1214348077774048 L 8.0 -0.6314582824707031 L 9.0 -0.6314582824707031 L 9.0 -0.5783479809761047 L 10.0 -0.5783479809761047" style="vector-effect: non-scaling-stroke;fill:none;" /></g></g></g></g></g></g><g transform="matrix(1.0, 0.0, 0.0, 1.0, -0.05, 0.16)"><g transform="matrix(1.0, 0.0, 0.0, 0.009999999999999995, 0.0, 0.0)"><g transform="matrix(0.01, 0.0, 0.0, 1.0, 0.0, 0.0)"><g><g><g style="fill: #ff8c00;stroke: #ff8c00;stroke-width: 1.2000000000000002;fill-opacity: 0.5;" transform="matrix(1.0, 0.0, 0.0, 1.0, 0.0, 0.0)"><path d="M 0.0 -2.0 L 0.0 2.0" style="vector-effect: non-scaling-stroke;fill:none;" /></g><g style="fill: #ff8c00;stroke: #ff8c00;stroke-width: 1.2000000000000002;fill-opacity: 0.5;" transform="matrix(1.0, 0.0, 0.0, 1.0, 0.0, 0.0)"><path d="M 0.0 -0.7697585821151733 L 1.0 -0.7697585821151733 L 1.0 -1.1197770833969116 L 2.0 -1.1197770833969116 L 2.0 -0.5787948369979858 L 3.0 -0.5787948369979858 L 3.0 -0.9171817898750305 L 4.0 -0.9171817898750305 L 4.0 -0.7387160658836365 L 5.0 -0.7387160658836365 L 5.0 -0.59345543384552 L 6.0 -0.59345543384552 L 6.0 -1.0832158327102661 L 7.0 -1.0832158327102661 L 7.0 -1.1214348077774048 L 8.0 -1.1214348077774048 L 8.0 -0.6314582824707031 L 9.0 -0.6314582824707031 L 9.0 -0.5783479809761047 L 10.0 -0.5783479809761047 L 10.0 -0.5783479809761047 L 9.0 -0.5783479809761047 L 9.0 -0.6314582824707031 L 8.0 -0.6314582824707031 L 8.0 -1.1214348077774048 L 7.0 -1.1214348077774048 L 7.0 -1.0832158327102661 L 6.0 -1.0832158327102661 L 6.0 -0.59345543384552 L 5.0 -0.59345543384552 L 5.0 -0.7387160658836365 L 4.0 -0.7387160658836365 L 4.0 -0.9171817898750305 L 3.0 -0.9171817898750305 L 3.0 -0.5787948369979858 L 2.0 -0.5787948369979858 L 2.0 -1.1197770833969116 L 1.0 -1.1197770833969116 L 1.0 -0.7697585821151733 L 0.0 -0.7697585821151733 Z" style="vector-effect: non-scaling-stroke;" /></g></g><g style="stroke: black;stroke-width: 1.2000000000000002;" transform="matrix(1.0, 0.0, 0.0, 1.0, 0.0, 0.0)"><path d="M 0.0 -0.7697585821151733 L 1.0 -0.7697585821151733 L 1.0 -1.1197770833969116 L 2.0 -1.1197770833969116 L 2.0 -0.5787948369979858 L 3.0 -0.5787948369979858 L 3.0 -0.9171817898750305 L 4.0 -0.9171817898750305 L 4.0 -0.7387160658836365 L 5.0 -0.7387160658836365 L 5.0 -0.59345543384552 L 6.0 -0.59345543384552 L 6.0 -1.0832158327102661 L 7.0 -1.0832158327102661 L 7.0 -1.1214348077774048 L 8.0 -1.1214348077774048 L 8.0 -0.6314582824707031 L 9.0 -0.6314582824707031 L 9.0 -0.5783479809761047 L 10.0 -0.5783479809761047" style="vector-effect: non-scaling-stroke;fill:none;" /></g></g></g></g></g></g><g transform="matrix(1.0, 0.0, 0.0, 1.0, -0.05, 0.16)"><g transform="matrix(1.0, 0.0, 0.0, 0.009999999999999995, 0.0, 0.0)"><g transform="matrix(0.01, 0.0, 0.0, 1.0, 0.0, 0.0)"><g><g><g style="fill: #0000ff;stroke: #0000ff;stroke-width: 1.2000000000000002;fill-opacity: 0.5;" transform="matrix(1.0, 0.0, 0.0, 1.0, 0.0, 0.0)"><path d="M 0.0 -2.0 L 0.0 2.0" style="vector-effect: non-scaling-stroke;fill:none;" /></g><g style="fill: #0000ff;stroke: #0000ff;stroke-width: 1.2000000000000002;fill-opacity: 0.5;" transform="matrix(1.0, 0.0, 0.0, 1.0, 0.0, 0.0)"><path d="M 0.0 -0.7697585821151733 L 1.0 -0.7697585821151733 L 1.0 -1.1197770833969116 L 2.0 -1.1197770833969116 L 2.0 -0.5787948369979858 L 3.0 -0.5787948369979858 L 3.0 -0.9171817898750305 L 4.0 -0.9171817898750305 L 4.0 -0.7387160658836365 L 5.0 -0.7387160658836365 L 5.0 -0.59345543384552 L 6.0 -0.59345543384552 L 6.0 -1.0832158327102661 L 7.0 -1.0832158327102661 L 7.0 -1.1214348077774048 L 8.0 -1.1214348077774048 L 8.0 -0.6314582824707031 L 9.0 -0.6314582824707031 L 9.0 -0.5783479809761047 L 10.0 -0.5783479809761047 L 10.0 -0.5783479809761047 L 9.0 -0.5783479809761047 L 9.0 -0.6314582824707031 L 8.0 -0.6314582824707031 L 8.0 -1.1214348077774048 L 7.0 -1.1214348077774048 L 7.0 -1.0832158327102661 L 6.0 -1.0832158327102661 L 6.0 -0.59345543384552 L 5.0 -0.59345543384552 L 5.0 -0.7387160658836365 L 4.0 -0.7387160658836365 L 4.0 -0.9171817898750305 L 3.0 -0.9171817898750305 L 3.0 -0.5787948369979858 L 2.0 -0.5787948369979858 L 2.0 -1.1197770833969116 L 1.0 -1.1197770833969116 L 1.0 -0.7697585821151733 L 0.0 -0.7697585821151733 Z" style="vector-effect: non-scaling-stroke;" /></g></g><g style="stroke: black;stroke-width: 1.2000000000000002;" transform="matrix(1.0, 0.0, 0.0, 1.0, 0.0, 0.0)"><path d="M 0.0 -0.7697585821151733 L 1.0 -0.7697585821151733 L 1.0 -1.1197770833969116 L 2.0 -1.1197770833969116 L 2.0 -0.5787948369979858 L 3.0 -0.5787948369979858 L 3.0 -0.9171817898750305 L 4.0 -0.9171817898750305 L 4.0 -0.7387160658836365 L 5.0 -0.7387160658836365 L 5.0 -0.59345543384552 L 6.0 -0.59345543384552 L 6.0 -1.0832158327102661 L 7.0 -1.0832158327102661 L 7.0 -1.1214348077774048 L 8.0 -1.1214348077774048 L 8.0 -0.6314582824707031 L 9.0 -0.6314582824707031 L 9.0 -0.5783479809761047 L 10.0 -0.5783479809761047" style="vector-effect: non-scaling-stroke;fill:none;" /></g></g></g></g></g></g></g></g><g><g><g><g><g><g><g transform="matrix(1.0, 0.0, 0.0, 1.0, -0.4149999999999999, -0.03)"><g><g><g transform="matrix(1.0, 0.0, 0.0, 1.0, 0.075, 0.0)"><g transform="matrix(1.0, 0.0, 0.0, 1.0, 0.0, 0.03)"><g transform="matrix(0.01, 0.0, 0.0, 0.01, 0.0, 0.0)"><g><g><g transform="matrix(1.0, 0.0, 0.0, 1.0, 20.0, 0.0)"><g transform="matrix(1.0, 0.0, 0.0, 1.0, -27.5, -0.0)"><g><g style="fill: #d3d3d3;stroke: black;stroke-width: 1.2000000000000002;" transform="matrix(1.0, 0.0, 0.0, 1.0, 0.0, -3.0)"><path d="M 0.0 0.0 L 55.0 0.0 L 55.0 6.0 L 0.0 6.0 L 0.0 0.0 Z" style="vector-effect: non-scaling-stroke;" /></g><g transform="matrix(1.0, 0.0, 0.0, 1.0, 1.875, 0.0)"><g><g style="stroke: black;stroke-width: 1.2000000000000002;" transform="matrix(1.0, 0.0, 0.0, 1.0, 0.0, 0.0)"><g /></g><g style="fill: #ffa500;stroke: black;stroke-width: 1.2000000000000002;" transform="matrix(1.0, 0.0, 0.0, 1.0, 1.875, 0.0)"><text style="text-align:center; text-anchor:middle; dominant-baseline:middle;&#10;                      font-family:sans-serif; font-weight: bold;&#10;                      font-size:3px;&#10;                      vector-effect: non-scaling-stroke;" transform="translate(-5e-05, 0)">x</text></g></g></g></g></g></g><g><g><g><g><g><g><g><g style="stroke: black;stroke-width: 1.2000000000000002;" transform="matrix(1.0, 0.0, 0.0, 1.0, 0.0, 0.0)"><path d="M 0.0 -2.0 L 0.0 2.0" style="vector-effect: non-scaling-stroke;fill:none;" /></g><g style="stroke: #808080;stroke-width: 0.6000000000000001;" transform="matrix(1.0, 0.0, 0.0, 1.0, 0.0, 0.0)"><path d="M 0.0 0.0 L 40.0 0.0" style="vector-effect: non-scaling-stroke;fill:none;" /></g></g><g style="stroke: black;stroke-width: 2.4000000000000004;" transform="matrix(1.0, 0.0, 0.0, 1.0, 0.0, 0.0)"><path d="M 0.0 -0.9227485060691833 L 1.0 -0.9227485060691833 L 1.0 -0.9909365773200989 L 2.0 -0.9909365773200989 L 2.0 0.7891024351119995 L 3.0 0.7891024351119995 L 3.0 -0.07757601141929626 L 4.0 -0.07757601141929626 L 4.0 0.01911219209432602 L 5.0 0.01911219209432602 L 5.0 -0.8911665081977844 L 6.0 -0.8911665081977844 L 6.0 -1.1970560550689697 L 7.0 -1.1970560550689697 L 7.0 -0.5381621718406677 L 8.0 -0.5381621718406677 L 8.0 -0.9204915165901184 L 9.0 -0.9204915165901184 L 9.0 -1.1677565574645996 L 10.0 -1.1677565574645996 L 10.0 -0.10237627476453781 L 11.0 -0.10237627476453781 L 11.0 -1.0883831977844238 L 12.0 -1.0883831977844238 L 12.0 -1.2543400526046753 L 13.0 -1.2543400526046753 L 13.0 -1.146077275276184 L 14.0 -1.146077275276184 L 14.0 -1.46364164352417 L 15.0 -1.46364164352417 L 15.0 0.2734439969062805 L 16.0 0.2734439969062805 L 16.0 -0.6144730448722839 L 17.0 -0.6144730448722839 L 17.0 -0.4818328320980072 L 18.0 -0.4818328320980072 L 18.0 -0.8879019618034363 L 19.0 -0.8879019618034363 L 19.0 -0.9621256589889526 L 20.0 -0.9621256589889526 L 20.0 -0.560005247592926 L 21.0 -0.560005247592926 L 21.0 -1.7141392230987549 L 22.0 -1.7141392230987549 L 22.0 -0.17204943299293518 L 23.0 -0.17204943299293518 L 23.0 -1.0008693933486938 L 24.0 -1.0008693933486938 L 24.0 -0.29286766052246094 L 25.0 -0.29286766052246094 L 25.0 -1.59687340259552 L 26.0 -1.59687340259552 L 26.0 -1.9491041898727417 L 27.0 -1.9491041898727417 L 27.0 -1.7712304592132568 L 28.0 -1.7712304592132568 L 28.0 -0.13592040538787842 L 29.0 -0.13592040538787842 L 29.0 -0.16275697946548462 L 30.0 -0.16275697946548462 L 30.0 -1.4939042329788208 L 31.0 -1.4939042329788208 L 31.0 -0.6856494545936584 L 32.0 -0.6856494545936584 L 32.0 -1.6778924465179443 L 33.0 -1.6778924465179443 L 33.0 -1.444204568862915 L 34.0 -1.444204568862915 L 34.0 -1.217467188835144 L 35.0 -1.217467188835144 L 35.0 -0.15922601521015167 L 36.0 -0.15922601521015167 L 36.0 -0.5722299814224243 L 37.0 -0.5722299814224243 L 37.0 -1.6945139169692993 L 38.0 -1.6945139169692993 L 38.0 -0.581519365310669 L 39.0 -0.581519365310669 L 39.0 -0.020752618089318275 L 40.0 -0.020752618089318275" style="vector-effect: non-scaling-stroke;fill:none;" /></g></g><g style="stroke: black;stroke-width: 1.2000000000000002;" transform="matrix(1.0, 0.0, 0.0, 1.0, 0.0, 0.0)"><path d="M 0.0 -2.0 L 0.0 2.0" style="vector-effect: non-scaling-stroke;fill:none;" /></g></g><g style="stroke: black;stroke-width: 1.2000000000000002;" transform="matrix(1.0, 0.0, 0.0, 1.0, 0.0, 0.0)"><path d="M 10.0 -2.0 L 10.0 2.0" style="vector-effect: non-scaling-stroke;fill:none;" /></g></g><g style="stroke: black;stroke-width: 1.2000000000000002;" transform="matrix(1.0, 0.0, 0.0, 1.0, 0.0, 0.0)"><path d="M 20.0 -2.0 L 20.0 2.0" style="vector-effect: non-scaling-stroke;fill:none;" /></g></g><g style="stroke: black;stroke-width: 1.2000000000000002;" transform="matrix(1.0, 0.0, 0.0, 1.0, 0.0, 0.0)"><path d="M 30.0 -2.0 L 30.0 2.0" style="vector-effect: non-scaling-stroke;fill:none;" /></g></g></g></g><g><g><g><g><g><g><g><g style="stroke: black;stroke-width: 1.2000000000000002;" transform="matrix(1.0, 0.0, 0.0, 1.0, 0.0, 0.0)"><path d="M 0.0 -2.0 L 0.0 2.0" style="vector-effect: non-scaling-stroke;fill:none;" /></g><g style="stroke: #808080;stroke-width: 0.6000000000000001;" transform="matrix(1.0, 0.0, 0.0, 1.0, 0.0, 0.0)"><path d="M 0.0 0.0 L 40.0 0.0" style="vector-effect: non-scaling-stroke;fill:none;" /></g></g><g style="stroke: black;stroke-width: 2.4000000000000004;" transform="matrix(1.0, 0.0, 0.0, 1.0, 0.0, 0.0)"><path d="M 0.0 -0.9227485060691833 L 1.0 -0.9227485060691833 L 1.0 -0.9909365773200989 L 2.0 -0.9909365773200989 L 2.0 0.7891024351119995 L 3.0 0.7891024351119995 L 3.0 -0.07757601141929626 L 4.0 -0.07757601141929626 L 4.0 0.01911219209432602 L 5.0 0.01911219209432602 L 5.0 -0.8911665081977844 L 6.0 -0.8911665081977844 L 6.0 -1.1970560550689697 L 7.0 -1.1970560550689697 L 7.0 -0.5381621718406677 L 8.0 -0.5381621718406677 L 8.0 -0.9204915165901184 L 9.0 -0.9204915165901184 L 9.0 -1.1677565574645996 L 10.0 -1.1677565574645996 L 10.0 -0.10237627476453781 L 11.0 -0.10237627476453781 L 11.0 -1.0883831977844238 L 12.0 -1.0883831977844238 L 12.0 -1.2543400526046753 L 13.0 -1.2543400526046753 L 13.0 -1.146077275276184 L 14.0 -1.146077275276184 L 14.0 -1.46364164352417 L 15.0 -1.46364164352417 L 15.0 0.2734439969062805 L 16.0 0.2734439969062805 L 16.0 -0.6144730448722839 L 17.0 -0.6144730448722839 L 17.0 -0.4818328320980072 L 18.0 -0.4818328320980072 L 18.0 -0.8879019618034363 L 19.0 -0.8879019618034363 L 19.0 -0.9621256589889526 L 20.0 -0.9621256589889526 L 20.0 -0.560005247592926 L 21.0 -0.560005247592926 L 21.0 -1.7141392230987549 L 22.0 -1.7141392230987549 L 22.0 -0.17204943299293518 L 23.0 -0.17204943299293518 L 23.0 -1.0008693933486938 L 24.0 -1.0008693933486938 L 24.0 -0.29286766052246094 L 25.0 -0.29286766052246094 L 25.0 -1.59687340259552 L 26.0 -1.59687340259552 L 26.0 -1.9491041898727417 L 27.0 -1.9491041898727417 L 27.0 -1.7712304592132568 L 28.0 -1.7712304592132568 L 28.0 -0.13592040538787842 L 29.0 -0.13592040538787842 L 29.0 -0.16275697946548462 L 30.0 -0.16275697946548462 L 30.0 -1.4939042329788208 L 31.0 -1.4939042329788208 L 31.0 -0.6856494545936584 L 32.0 -0.6856494545936584 L 32.0 -1.6778924465179443 L 33.0 -1.6778924465179443 L 33.0 -1.444204568862915 L 34.0 -1.444204568862915 L 34.0 -1.217467188835144 L 35.0 -1.217467188835144 L 35.0 -0.15922601521015167 L 36.0 -0.15922601521015167 L 36.0 -0.5722299814224243 L 37.0 -0.5722299814224243 L 37.0 -1.6945139169692993 L 38.0 -1.6945139169692993 L 38.0 -0.581519365310669 L 39.0 -0.581519365310669 L 39.0 -0.020752618089318275 L 40.0 -0.020752618089318275" style="vector-effect: non-scaling-stroke;fill:none;" /></g></g><g style="stroke: black;stroke-width: 1.2000000000000002;" transform="matrix(1.0, 0.0, 0.0, 1.0, 0.0, 0.0)"><path d="M 0.0 -2.0 L 0.0 2.0" style="vector-effect: non-scaling-stroke;fill:none;" /></g></g><g style="stroke: black;stroke-width: 1.2000000000000002;" transform="matrix(1.0, 0.0, 0.0, 1.0, 0.0, 0.0)"><path d="M 10.0 -2.0 L 10.0 2.0" style="vector-effect: non-scaling-stroke;fill:none;" /></g></g><g style="stroke: black;stroke-width: 1.2000000000000002;" transform="matrix(1.0, 0.0, 0.0, 1.0, 0.0, 0.0)"><path d="M 20.0 -2.0 L 20.0 2.0" style="vector-effect: non-scaling-stroke;fill:none;" /></g></g><g style="stroke: black;stroke-width: 1.2000000000000002;" transform="matrix(1.0, 0.0, 0.0, 1.0, 0.0, 0.0)"><path d="M 30.0 -2.0 L 30.0 2.0" style="vector-effect: non-scaling-stroke;fill:none;" /></g></g></g></g></g></g></g><g style="stroke: black;stroke-width: 1.2000000000000002;" transform="matrix(1.0, 0.0, 0.0, 1.0, 0.565, 0.0)"><g /></g></g><g transform="matrix(1.0, 0.0, 0.0, 1.0, 0.58, 0.0)"><g transform="matrix(1.0, 0.0, 0.0, 1.0, 0.075, 0.0)"><g transform="matrix(1.0, 0.0, 0.0, 1.0, 0.0, 0.03)"><g transform="matrix(0.01, 0.0, 0.0, 0.01, 0.0, 0.0)"><g><g><g transform="matrix(1.0, 0.0, 0.0, 1.0, 5.0, 0.0)"><g transform="matrix(1.0, 0.0, 0.0, 1.0, -12.5, -0.0)"><g><g style="fill: #d3d3d3;stroke: black;stroke-width: 1.2000000000000002;" transform="matrix(1.0, 0.0, 0.0, 1.0, 0.0, -3.0)"><path d="M 0.0 0.0 L 25.0 0.0 L 25.0 6.0 L 0.0 6.0 L 0.0 0.0 Z" style="vector-effect: non-scaling-stroke;" /></g><g transform="matrix(1.0, 0.0, 0.0, 1.0, 1.875, 0.0)"><g><g style="stroke: black;stroke-width: 1.2000000000000002;" transform="matrix(1.0, 0.0, 0.0, 1.0, 0.0, 0.0)"><g /></g><g style="fill: #ffa500;stroke: black;stroke-width: 1.2000000000000002;" transform="matrix(1.0, 0.0, 0.0, 1.0, 1.875, 0.0)"><text style="text-align:center; text-anchor:middle; dominant-baseline:middle;&#10;                      font-family:sans-serif; font-weight: bold;&#10;                      font-size:3px;&#10;                      vector-effect: non-scaling-stroke;" transform="translate(-5e-05, 0)">y</text></g></g></g></g></g></g><g><g><g><g style="stroke: black;stroke-width: 1.2000000000000002;" transform="matrix(1.0, 0.0, 0.0, 1.0, 0.0, 0.0)"><path d="M 0.0 -2.0 L 0.0 2.0" style="vector-effect: non-scaling-stroke;fill:none;" /></g><g style="stroke: #808080;stroke-width: 0.6000000000000001;" transform="matrix(1.0, 0.0, 0.0, 1.0, 0.0, 0.0)"><path d="M 0.0 0.0 L 10.0 0.0" style="vector-effect: non-scaling-stroke;fill:none;" /></g></g><g style="stroke: black;stroke-width: 2.4000000000000004;" transform="matrix(1.0, 0.0, 0.0, 1.0, 0.0, 0.0)"><path d="M 0.0 -0.7649675011634827 L 1.0 -0.7649675011634827 L 1.0 -1.352418065071106 L 2.0 -1.352418065071106 L 2.0 -0.794601321220398 L 3.0 -0.794601321220398 L 3.0 -0.23699279129505157 L 4.0 -0.23699279129505157 L 4.0 -1.4524481296539307 L 5.0 -1.4524481296539307 L 5.0 -1.4297020435333252 L 6.0 -1.4297020435333252 L 6.0 0.10874383896589279 L 7.0 0.10874383896589279 L 7.0 -0.08931400626897812 L 8.0 -0.08931400626897812 L 8.0 -0.5557575225830078 L 9.0 -0.5557575225830078 L 9.0 -1.5842432975769043 L 10.0 -1.5842432975769043" style="vector-effect: non-scaling-stroke;fill:none;" /></g></g></g></g><g><g><g><g style="stroke: black;stroke-width: 1.2000000000000002;" transform="matrix(1.0, 0.0, 0.0, 1.0, 0.0, 0.0)"><path d="M 0.0 -2.0 L 0.0 2.0" style="vector-effect: non-scaling-stroke;fill:none;" /></g><g style="stroke: #808080;stroke-width: 0.6000000000000001;" transform="matrix(1.0, 0.0, 0.0, 1.0, 0.0, 0.0)"><path d="M 0.0 0.0 L 10.0 0.0" style="vector-effect: non-scaling-stroke;fill:none;" /></g></g><g style="stroke: black;stroke-width: 2.4000000000000004;" transform="matrix(1.0, 0.0, 0.0, 1.0, 0.0, 0.0)"><path d="M 0.0 -0.7649675011634827 L 1.0 -0.7649675011634827 L 1.0 -1.352418065071106 L 2.0 -1.352418065071106 L 2.0 -0.794601321220398 L 3.0 -0.794601321220398 L 3.0 -0.23699279129505157 L 4.0 -0.23699279129505157 L 4.0 -1.4524481296539307 L 5.0 -1.4524481296539307 L 5.0 -1.4297020435333252 L 6.0 -1.4297020435333252 L 6.0 0.10874383896589279 L 7.0 0.10874383896589279 L 7.0 -0.08931400626897812 L 8.0 -0.08931400626897812 L 8.0 -0.5557575225830078 L 9.0 -0.5557575225830078 L 9.0 -1.5842432975769043 L 10.0 -1.5842432975769043" style="vector-effect: non-scaling-stroke;fill:none;" /></g></g></g></g></g></g></g></g></g></g><g style="stroke: black;stroke-width: 1.2000000000000002;" transform="matrix(0.0, -1.0, 1.0, 0.0, 0.0, 0.08)"><g /></g></g><g transform="matrix(1.0, 0.0, 0.0, 1.0, 0.0, 0.16)"><g transform="matrix(1.0, 0.0, 0.0, 1.0, -0.125, -0.03)"><g transform="matrix(1.0, 0.0, 0.0, 1.0, 0.075, 0.0)"><g transform="matrix(1.0, 0.0, 0.0, 1.0, 0.0, 0.03)"><g transform="matrix(0.01, 0.0, 0.0, 0.01, 0.0, 0.0)"><g><g><g transform="matrix(1.0, 0.0, 0.0, 1.0, 5.0, 0.0)"><g transform="matrix(1.0, 0.0, 0.0, 1.0, -12.5, -0.0)"><g><g style="fill: #d3d3d3;stroke: black;stroke-width: 1.2000000000000002;" transform="matrix(1.0, 0.0, 0.0, 1.0, 0.0, -3.0)"><path d="M 0.0 0.0 L 25.0 0.0 L 25.0 6.0 L 0.0 6.0 L 0.0 0.0 Z" style="vector-effect: non-scaling-stroke;" /></g><g transform="matrix(1.0, 0.0, 0.0, 1.0, 1.875, 0.0)"><g><g style="stroke: black;stroke-width: 1.2000000000000002;" transform="matrix(1.0, 0.0, 0.0, 1.0, 0.0, 0.0)"><g /></g><g style="fill: #ffa500;stroke: black;stroke-width: 1.2000000000000002;" transform="matrix(1.0, 0.0, 0.0, 1.0, 1.875, 0.0)"><text style="text-align:center; text-anchor:middle; dominant-baseline:middle;&#10;                      font-family:sans-serif; font-weight: bold;&#10;                      font-size:3px;&#10;                      vector-effect: non-scaling-stroke;" transform="translate(-5e-05, 0)">f(x)</text></g></g></g></g></g></g><g><g><g><g style="stroke: black;stroke-width: 1.2000000000000002;" transform="matrix(1.0, 0.0, 0.0, 1.0, 0.0, 0.0)"><path d="M 0.0 -2.0 L 0.0 2.0" style="vector-effect: non-scaling-stroke;fill:none;" /></g><g style="stroke: #808080;stroke-width: 0.6000000000000001;" transform="matrix(1.0, 0.0, 0.0, 1.0, 0.0, 0.0)"><path d="M 0.0 0.0 L 10.0 0.0" style="vector-effect: non-scaling-stroke;fill:none;" /></g></g><g style="stroke: black;stroke-width: 2.4000000000000004;" transform="matrix(1.0, 0.0, 0.0, 1.0, 0.0, 0.0)"><path d="M 0.0 -0.7697585821151733 L 1.0 -0.7697585821151733 L 1.0 -1.1197770833969116 L 2.0 -1.1197770833969116 L 2.0 -0.5787948369979858 L 3.0 -0.5787948369979858 L 3.0 -0.9171817898750305 L 4.0 -0.9171817898750305 L 4.0 -0.7387160658836365 L 5.0 -0.7387160658836365 L 5.0 -0.59345543384552 L 6.0 -0.59345543384552 L 6.0 -1.0832158327102661 L 7.0 -1.0832158327102661 L 7.0 -1.1214348077774048 L 8.0 -1.1214348077774048 L 8.0 -0.6314582824707031 L 9.0 -0.6314582824707031 L 9.0 -0.5783479809761047 L 10.0 -0.5783479809761047" style="vector-effect: non-scaling-stroke;fill:none;" /></g></g></g></g><g><g><g><g style="stroke: black;stroke-width: 1.2000000000000002;" transform="matrix(1.0, 0.0, 0.0, 1.0, 0.0, 0.0)"><path d="M 0.0 -2.0 L 0.0 2.0" style="vector-effect: non-scaling-stroke;fill:none;" /></g><g style="stroke: #808080;stroke-width: 0.6000000000000001;" transform="matrix(1.0, 0.0, 0.0, 1.0, 0.0, 0.0)"><path d="M 0.0 0.0 L 10.0 0.0" style="vector-effect: non-scaling-stroke;fill:none;" /></g></g><g style="stroke: black;stroke-width: 2.4000000000000004;" transform="matrix(1.0, 0.0, 0.0, 1.0, 0.0, 0.0)"><path d="M 0.0 -0.7697585821151733 L 1.0 -0.7697585821151733 L 1.0 -1.1197770833969116 L 2.0 -1.1197770833969116 L 2.0 -0.5787948369979858 L 3.0 -0.5787948369979858 L 3.0 -0.9171817898750305 L 4.0 -0.9171817898750305 L 4.0 -0.7387160658836365 L 5.0 -0.7387160658836365 L 5.0 -0.59345543384552 L 6.0 -0.59345543384552 L 6.0 -1.0832158327102661 L 7.0 -1.0832158327102661 L 7.0 -1.1214348077774048 L 8.0 -1.1214348077774048 L 8.0 -0.6314582824707031 L 9.0 -0.6314582824707031 L 9.0 -0.5783479809761047 L 10.0 -0.5783479809761047" style="vector-effect: non-scaling-stroke;fill:none;" /></g></g></g></g></g></g></g></g></g></g><g transform="matrix(1.0, 0.0, 0.0, 1.0, -0.05, 0.16)"><g transform="matrix(1.0, 0.0, 0.0, 0.009999999999999995, 0.0, 0.0)"><g transform="matrix(0.01, 0.0, 0.0, 1.0, 0.0, 0.0)"><g><g><g style="fill: #ffffe0;stroke: #ffffe0;stroke-width: 1.2000000000000002;fill-opacity: 0.5;" transform="matrix(1.0, 0.0, 0.0, 1.0, 0.0, 0.0)"><path d="M 0.0 -2.0 L 0.0 2.0" style="vector-effect: non-scaling-stroke;fill:none;" /></g><g style="fill: #ffffe0;stroke: #ffffe0;stroke-width: 1.2000000000000002;fill-opacity: 0.5;" transform="matrix(1.0, 0.0, 0.0, 1.0, 0.0, 0.0)"><path d="M 0.0 -2.0 L 1.0 -2.0 L 1.0 -2.0 L 2.0 -2.0 L 2.0 -2.0 L 3.0 -2.0 L 3.0 -2.0 L 4.0 -2.0 L 4.0 -2.0 L 5.0 -2.0 L 5.0 -2.0 L 6.0 -2.0 L 6.0 -2.0 L 7.0 -2.0 L 7.0 -2.0 L 8.0 -2.0 L 8.0 -2.0 L 9.0 -2.0 L 9.0 -2.0 L 10.0 -2.0 L 10.0 -0.5783479809761047 L 9.0 -0.5783479809761047 L 9.0 -0.6314582824707031 L 8.0 -0.6314582824707031 L 8.0 -1.1214348077774048 L 7.0 -1.1214348077774048 L 7.0 -1.0832158327102661 L 6.0 -1.0832158327102661 L 6.0 -0.59345543384552 L 5.0 -0.59345543384552 L 5.0 -0.7387160658836365 L 4.0 -0.7387160658836365 L 4.0 -0.9171817898750305 L 3.0 -0.9171817898750305 L 3.0 -0.5787948369979858 L 2.0 -0.5787948369979858 L 2.0 -1.1197770833969116 L 1.0 -1.1197770833969116 L 1.0 -0.7697585821151733 L 0.0 -0.7697585821151733 Z" style="vector-effect: non-scaling-stroke;" /></g></g><g style="stroke: black;stroke-width: 1.2000000000000002;" transform="matrix(1.0, 0.0, 0.0, 1.0, 0.0, 0.0)"><path d="M 0.0 -0.7697585821151733 L 1.0 -0.7697585821151733 L 1.0 -1.1197770833969116 L 2.0 -1.1197770833969116 L 2.0 -0.5787948369979858 L 3.0 -0.5787948369979858 L 3.0 -0.9171817898750305 L 4.0 -0.9171817898750305 L 4.0 -0.7387160658836365 L 5.0 -0.7387160658836365 L 5.0 -0.59345543384552 L 6.0 -0.59345543384552 L 6.0 -1.0832158327102661 L 7.0 -1.0832158327102661 L 7.0 -1.1214348077774048 L 8.0 -1.1214348077774048 L 8.0 -0.6314582824707031 L 9.0 -0.6314582824707031 L 9.0 -0.5783479809761047 L 10.0 -0.5783479809761047" style="vector-effect: non-scaling-stroke;fill:none;" /></g></g></g></g></g></g><g transform="matrix(1.0, 0.0, 0.0, 1.0, -0.05, 0.16)"><g transform="matrix(1.0, 0.0, 0.0, 0.009999999999999995, 0.0, 0.0)"><g transform="matrix(0.01, 0.0, 0.0, 1.0, 0.0, 0.0)"><g><g><g style="fill: #add8e6;stroke: #add8e6;stroke-width: 1.2000000000000002;fill-opacity: 0.5;" transform="matrix(1.0, 0.0, 0.0, 1.0, 0.0, 0.0)"><path d="M 0.0 -2.0 L 0.0 2.0" style="vector-effect: non-scaling-stroke;fill:none;" /></g><g style="fill: #add8e6;stroke: #add8e6;stroke-width: 1.2000000000000002;fill-opacity: 0.5;" transform="matrix(1.0, 0.0, 0.0, 1.0, 0.0, 0.0)"><path d="M 0.0 -0.7697585821151733 L 1.0 -0.7697585821151733 L 1.0 -1.1197770833969116 L 2.0 -1.1197770833969116 L 2.0 -0.5787948369979858 L 3.0 -0.5787948369979858 L 3.0 -0.9171817898750305 L 4.0 -0.9171817898750305 L 4.0 -0.7387160658836365 L 5.0 -0.7387160658836365 L 5.0 -0.59345543384552 L 6.0 -0.59345543384552 L 6.0 -1.0832158327102661 L 7.0 -1.0832158327102661 L 7.0 -1.1214348077774048 L 8.0 -1.1214348077774048 L 8.0 -0.6314582824707031 L 9.0 -0.6314582824707031 L 9.0 -0.5783479809761047 L 10.0 -0.5783479809761047 L 10.0 -0.5783479809761047 L 9.0 -0.5783479809761047 L 9.0 -0.6314582824707031 L 8.0 -0.6314582824707031 L 8.0 -1.1214348077774048 L 7.0 -1.1214348077774048 L 7.0 -1.0832158327102661 L 6.0 -1.0832158327102661 L 6.0 -0.59345543384552 L 5.0 -0.59345543384552 L 5.0 -0.7387160658836365 L 4.0 -0.7387160658836365 L 4.0 -0.9171817898750305 L 3.0 -0.9171817898750305 L 3.0 -0.5787948369979858 L 2.0 -0.5787948369979858 L 2.0 -1.1197770833969116 L 1.0 -1.1197770833969116 L 1.0 -0.7697585821151733 L 0.0 -0.7697585821151733 Z" style="vector-effect: non-scaling-stroke;" /></g></g><g style="stroke: black;stroke-width: 1.2000000000000002;" transform="matrix(1.0, 0.0, 0.0, 1.0, 0.0, 0.0)"><path d="M 0.0 -0.7697585821151733 L 1.0 -0.7697585821151733 L 1.0 -1.1197770833969116 L 2.0 -1.1197770833969116 L 2.0 -0.5787948369979858 L 3.0 -0.5787948369979858 L 3.0 -0.9171817898750305 L 4.0 -0.9171817898750305 L 4.0 -0.7387160658836365 L 5.0 -0.7387160658836365 L 5.0 -0.59345543384552 L 6.0 -0.59345543384552 L 6.0 -1.0832158327102661 L 7.0 -1.0832158327102661 L 7.0 -1.1214348077774048 L 8.0 -1.1214348077774048 L 8.0 -0.6314582824707031 L 9.0 -0.6314582824707031 L 9.0 -0.5783479809761047 L 10.0 -0.5783479809761047" style="vector-effect: non-scaling-stroke;fill:none;" /></g></g></g></g></g></g><g transform="matrix(1.0, 0.0, 0.0, 1.0, -0.05, 0.16)"><g transform="matrix(1.0, 0.0, 0.0, 0.009999999999999995, 0.0, 0.0)"><g transform="matrix(0.01, 0.0, 0.0, 1.0, 0.0, 0.0)"><g><g><g style="fill: #ff8c00;stroke: #ff8c00;stroke-width: 1.2000000000000002;fill-opacity: 0.5;" transform="matrix(1.0, 0.0, 0.0, 1.0, 0.0, 0.0)"><path d="M 0.0 -2.0 L 0.0 2.0" style="vector-effect: non-scaling-stroke;fill:none;" /></g><g style="fill: #ff8c00;stroke: #ff8c00;stroke-width: 1.2000000000000002;fill-opacity: 0.5;" transform="matrix(1.0, 0.0, 0.0, 1.0, 0.0, 0.0)"><path d="M 0.0 -0.7697585821151733 L 1.0 -0.7697585821151733 L 1.0 -1.1197770833969116 L 2.0 -1.1197770833969116 L 2.0 -0.5787948369979858 L 3.0 -0.5787948369979858 L 3.0 -0.9171817898750305 L 4.0 -0.9171817898750305 L 4.0 -0.7387160658836365 L 5.0 -0.7387160658836365 L 5.0 -0.59345543384552 L 6.0 -0.59345543384552 L 6.0 -1.0832158327102661 L 7.0 -1.0832158327102661 L 7.0 -1.1214348077774048 L 8.0 -1.1214348077774048 L 8.0 -0.6314582824707031 L 9.0 -0.6314582824707031 L 9.0 -0.5783479809761047 L 10.0 -0.5783479809761047 L 10.0 -0.5783479809761047 L 9.0 -0.5783479809761047 L 9.0 -0.6314582824707031 L 8.0 -0.6314582824707031 L 8.0 -1.1214348077774048 L 7.0 -1.1214348077774048 L 7.0 -1.0832158327102661 L 6.0 -1.0832158327102661 L 6.0 -0.59345543384552 L 5.0 -0.59345543384552 L 5.0 -0.7387160658836365 L 4.0 -0.7387160658836365 L 4.0 -0.9171817898750305 L 3.0 -0.9171817898750305 L 3.0 -0.5787948369979858 L 2.0 -0.5787948369979858 L 2.0 -1.1197770833969116 L 1.0 -1.1197770833969116 L 1.0 -0.7697585821151733 L 0.0 -0.7697585821151733 Z" style="vector-effect: non-scaling-stroke;" /></g></g><g style="stroke: black;stroke-width: 1.2000000000000002;" transform="matrix(1.0, 0.0, 0.0, 1.0, 0.0, 0.0)"><path d="M 0.0 -0.7697585821151733 L 1.0 -0.7697585821151733 L 1.0 -1.1197770833969116 L 2.0 -1.1197770833969116 L 2.0 -0.5787948369979858 L 3.0 -0.5787948369979858 L 3.0 -0.9171817898750305 L 4.0 -0.9171817898750305 L 4.0 -0.7387160658836365 L 5.0 -0.7387160658836365 L 5.0 -0.59345543384552 L 6.0 -0.59345543384552 L 6.0 -1.0832158327102661 L 7.0 -1.0832158327102661 L 7.0 -1.1214348077774048 L 8.0 -1.1214348077774048 L 8.0 -0.6314582824707031 L 9.0 -0.6314582824707031 L 9.0 -0.5783479809761047 L 10.0 -0.5783479809761047" style="vector-effect: non-scaling-stroke;fill:none;" /></g></g></g></g></g></g><g transform="matrix(1.0, 0.0, 0.0, 1.0, -0.05, 0.16)"><g transform="matrix(1.0, 0.0, 0.0, 0.009999999999999995, 0.0, 0.0)"><g transform="matrix(0.01, 0.0, 0.0, 1.0, 0.0, 0.0)"><g><g><g style="fill: #0000ff;stroke: #0000ff;stroke-width: 1.2000000000000002;fill-opacity: 0.5;" transform="matrix(1.0, 0.0, 0.0, 1.0, 0.0, 0.0)"><path d="M 0.0 -2.0 L 0.0 2.0" style="vector-effect: non-scaling-stroke;fill:none;" /></g><g style="fill: #0000ff;stroke: #0000ff;stroke-width: 1.2000000000000002;fill-opacity: 0.5;" transform="matrix(1.0, 0.0, 0.0, 1.0, 0.0, 0.0)"><path d="M 0.0 -0.7697585821151733 L 1.0 -0.7697585821151733 L 1.0 -1.1197770833969116 L 2.0 -1.1197770833969116 L 2.0 -0.5787948369979858 L 3.0 -0.5787948369979858 L 3.0 -0.9171817898750305 L 4.0 -0.9171817898750305 L 4.0 -0.7387160658836365 L 5.0 -0.7387160658836365 L 5.0 -0.59345543384552 L 6.0 -0.59345543384552 L 6.0 -1.0832158327102661 L 7.0 -1.0832158327102661 L 7.0 -1.1214348077774048 L 8.0 -1.1214348077774048 L 8.0 -0.6314582824707031 L 9.0 -0.6314582824707031 L 9.0 -0.5783479809761047 L 10.0 -0.5783479809761047 L 10.0 -0.5783479809761047 L 9.0 -0.5783479809761047 L 9.0 -0.6314582824707031 L 8.0 -0.6314582824707031 L 8.0 -1.1214348077774048 L 7.0 -1.1214348077774048 L 7.0 -1.0832158327102661 L 6.0 -1.0832158327102661 L 6.0 -0.59345543384552 L 5.0 -0.59345543384552 L 5.0 -0.7387160658836365 L 4.0 -0.7387160658836365 L 4.0 -0.9171817898750305 L 3.0 -0.9171817898750305 L 3.0 -0.5787948369979858 L 2.0 -0.5787948369979858 L 2.0 -1.1197770833969116 L 1.0 -1.1197770833969116 L 1.0 -0.7697585821151733 L 0.0 -0.7697585821151733 Z" style="vector-effect: non-scaling-stroke;" /></g></g><g style="stroke: black;stroke-width: 1.2000000000000002;" transform="matrix(1.0, 0.0, 0.0, 1.0, 0.0, 0.0)"><path d="M 0.0 -0.7697585821151733 L 1.0 -0.7697585821151733 L 1.0 -1.1197770833969116 L 2.0 -1.1197770833969116 L 2.0 -0.5787948369979858 L 3.0 -0.5787948369979858 L 3.0 -0.9171817898750305 L 4.0 -0.9171817898750305 L 4.0 -0.7387160658836365 L 5.0 -0.7387160658836365 L 5.0 -0.59345543384552 L 6.0 -0.59345543384552 L 6.0 -1.0832158327102661 L 7.0 -1.0832158327102661 L 7.0 -1.1214348077774048 L 8.0 -1.1214348077774048 L 8.0 -0.6314582824707031 L 9.0 -0.6314582824707031 L 9.0 -0.5783479809761047 L 10.0 -0.5783479809761047" style="vector-effect: non-scaling-stroke;fill:none;" /></g></g></g></g></g></g></g></g><g /></g></g></g></g></svg>