<?xml version="1.0" encoding="utf-8" ?>
<svg baseProfile="full" height="300" version="1.1" width="1056" xmlns="http://www.w3.org/2000/svg" xmlns:ev="http://www.w3.org/2001/xml-events" xmlns:xlink="http://www.w3.org/1999/xlink"><defs><marker id="arrow" markerHeight="3.5" markerWidth="5" orient="auto" refX="5.0" refY="1.7"><polygon points="0,0 5,1.75 0,3.5" /></marker></defs><g style="fill:white;"><g transform="matrix(1.0, 0.0, 0.0, 1.0, 528.4090909090908, 150.0)"><g transform="matrix(1082.2510822510822, 0.0, 0.0, 1082.2510822510822, 0.0, 0.0)"><g><g transform="matrix(1.0, 0.0, 0.0, 1.0, -0.0, -0.08000000000000002)"><g><g><g style="fill: #ffffff;stroke: black;stroke-width: 1.2000000000000002;" transform="matrix(1.0, 0.0, 0.0, 1.0, -0.4649999999999999, -0.052000000000000005)"><path d="M 0.0 0.0 L 0.9299999999999998 0.0 L 0.9299999999999998 0.264 L 0.0 0.264 L 0.0 0.0 Z" style="vector-effect: non-scaling-stroke;" /></g><g><g><g><g><g><g><g><g transform="matrix(1.0, 0.0, 0.0, 1.0, -0.4149999999999999, -0.03)"><g><g><g transform="matrix(1.0, 0.0, 0.0, 1.0, 0.075, 0.0)"><g transform="matrix(1.0, 0.0, 0.0, 1.0, 0.0, 0.03)"><g transform="matrix(0.01, 0.0, 0.0, 0.01, 0.0, 0.0)"><g><g><g transform="matrix(1.0, 0.0, 0.0, 1.0, 20.0, 0.0)"><g transform="matrix(1.0, 0.0, 0.0, 1.0, -27.5, -0.0)"><g><g style="fill: #d3d3d3;stroke: black;stroke-width: 1.2000000000000002;" transform="matrix(1.0, 0.0, 0.0, 1.0, 0.0, -3.0)"><path d="M 0.0 0.0 L 55.0 0.0 L 55.0 6.0 L 0.0 6.0 L 0.0 0.0 Z" style="vector-effect: non-scaling-stroke;" /></g><g transform="matrix(1.0, 0.0, 0.0, 1.0, 1.875, 0.0)"><g><g style="stroke: black;stroke-width: 1.2000000000000002;" transform="matrix(1.0, 0.0, 0.0, 1.0, 0.0, 0.0)"><g /></g><g style="fill: #ffa500;stroke: black;stroke-width: 1.2000000000000002;" transform="matrix(1.0, 0.0, 0.0, 1.0, 1.875, 0.0)"><text style="text-align:center; text-anchor:middle; dominant-baseline:middle;&#10;                      font-family:sans-serif; font-weight: bold;&#10;                      font-size:3px;&#10;                      vector-effect: non-scaling-stroke;" transform="translate(-5e-05, 0)">x</text></g></g></g></g></g></g><g><g><g><g><g><g><g><g style="stroke: black;stroke-width: 1.2000000000000002;" transform="matrix(1.0, 0.0, 0.0, 1.0, 0.0, 0.0)"><path d="M 0.0 -2.0 L 0.0 2.0" style="vector-effect: non-scaling-stroke;fill:none;" /></g><g style="stroke: #808080;stroke-width: 0.6000000000000001;" transform="matrix(1.0, 0.0, 0.0, 1.0, 0.0, 0.0)"><path d="M 0.0 0.0 L 40.0 0.0" style="vector-effect: non-scaling-stroke;fill:none;" /></g></g><g style="stroke: black;stroke-width: 2.4000000000000004;" transform="matrix(1.0, 0.0, 0.0, 1.0, 0.0, 0.0)"><path d="M 0.0 0.6294554471969604 L 1.0 0.6294554471969604 L 1.0 -0.7630185484886169 L 2.0 -0.7630185484886169 L 2.0 0.7423406839370728 L 3.0 0.7423406839370728 L 3.0 -0.7195001244544983 L 4.0 -0.7195001244544983 L 4.0 -0.8506177663803101 L 5.0 -0.8506177663803101 L 5.0 -0.04162389412522316 L 6.0 -0.04162389412522316 L 6.0 -0.5394607186317444 L 7.0 -0.5394607186317444 L 7.0 0.6511825919151306 L 8.0 0.6511825919151306 L 8.0 -0.9970746040344238 L 9.0 -0.9970746040344238 L 9.0 -0.3729616403579712 L 10.0 -0.3729616403579712 L 10.0 -1.1159924268722534 L 11.0 -1.1159924268722534 L 11.0 -1.0723556280136108 L 12.0 -1.0723556280136108 L 12.0 -1.3392082452774048 L 13.0 -1.3392082452774048 L 13.0 -0.686776876449585 L 14.0 -0.686776876449585 L 14.0 0.2867467999458313 L 15.0 0.2867467999458313 L 15.0 -1.0087007284164429 L 16.0 -1.0087007284164429 L 16.0 -0.554456353187561 L 17.0 -0.554456353187561 L 17.0 -1.2993707656860352 L 18.0 -1.2993707656860352 L 18.0 -0.1132640615105629 L 19.0 -0.1132640615105629 L 19.0 -0.8664798736572266 L 20.0 -0.8664798736572266 L 20.0 -0.1250760704278946 L 21.0 -0.1250760704278946 L 21.0 -1.7989071607589722 L 22.0 -1.7989071607589722 L 22.0 -0.3140564560890198 L 23.0 -0.3140564560890198 L 23.0 -0.9732550978660583 L 24.0 -0.9732550978660583 L 24.0 -0.8565048575401306 L 25.0 -0.8565048575401306 L 25.0 0.0058234576135873795 L 26.0 0.0058234576135873795 L 26.0 -1.0786224603652954 L 27.0 -1.0786224603652954 L 27.0 -0.603357195854187 L 28.0 -0.603357195854187 L 28.0 -0.774581789970398 L 29.0 -0.774581789970398 L 29.0 -0.32056427001953125 L 30.0 -0.32056427001953125 L 30.0 -0.13431136310100555 L 31.0 -0.13431136310100555 L 31.0 -0.7048913836479187 L 32.0 -0.7048913836479187 L 32.0 -0.9286437630653381 L 33.0 -0.9286437630653381 L 33.0 -0.566573441028595 L 34.0 -0.566573441028595 L 34.0 -0.8370925784111023 L 35.0 -0.8370925784111023 L 35.0 -1.097080111503601 L 36.0 -1.097080111503601 L 36.0 -1.520912528038025 L 37.0 -1.520912528038025 L 37.0 -0.42788299918174744 L 38.0 -0.42788299918174744 L 38.0 -0.9847083687782288 L 39.0 -0.9847083687782288 L 39.0 -1.7939623594284058 L 40.0 -1.7939623594284058" style="vector-effect: non-scaling-stroke;fill:none;" /></g></g><g style="stroke: black;stroke-width: 1.2000000000000002;" transform="matrix(1.0, 0.0, 0.0, 1.0, 0.0, 0.0)"><path d="M 0.0 -2.0 L 0.0 2.0" style="vector-effect: non-scaling-stroke;fill:none;" /></g></g><g style="stroke: black;stroke-width: 1.2000000000000002;" transform="matrix(1.0, 0.0, 0.0, 1.0, 0.0, 0.0)"><path d="M 10.0 -2.0 L 10.0 2.0" style="vector-effect: non-scaling-stroke;fill:none;" /></g></g><g style="stroke: black;stroke-width: 1.2000000000000002;" transform="matrix(1.0, 0.0, 0.0, 1.0, 0.0, 0.0)"><path d="M 20.0 -2.0 L 20.0 2.0" style="vector-effect: non-scaling-stroke;fill:none;" /></g></g><g style="stroke: black;stroke-width: 1.2000000000000002;" transform="matrix(1.0, 0.0, 0.0, 1.0, 0.0, 0.0)"><path d="M 30.0 -2.0 L 30.0 2.0" style="vector-effect: non-scaling-stroke;fill:none;" /></g></g></g></g><g><g><g><g><g><g><g><g style="stroke: black;stroke-width: 1.2000000000000002;" transform="matrix(1.0, 0.0, 0.0, 1.0, 0.0, 0.0)"><path d="M 0.0 -2.0 L 0.0 2.0" style="vector-effect: non-scaling-stroke;fill:none;" /></g><g style="stroke: #808080;stroke-width: 0.6000000000000001;" transform="matrix(1.0, 0.0, 0.0, 1.0, 0.0, 0.0)"><path d="M 0.0 0.0 L 40.0 0.0" style="vector-effect: non-scaling-stroke;fill:none;" /></g></g><g style="stroke: black;stroke-width: 2.4000000000000004;" transform="matrix(1.0, 0.0, 0.0, 1.0, 0.0, 0.0)"><path d="M 0.0 0.6294554471969604 L 1.0 0.6294554471969604 L 1.0 -0.7630185484886169 L 2.0 -0.7630185484886169 L 2.0 0.7423406839370728 L 3.0 0.7423406839370728 L 3.0 -0.7195001244544983 L 4.0 -0.7195001244544983 L 4.0 -0.8506177663803101 L 5.0 -0.8506177663803101 L 5.0 -0.04162389412522316 L 6.0 -0.04162389412522316 L 6.0 -0.5394607186317444 L 7.0 -0.5394607186317444 L 7.0 0.6511825919151306 L 8.0 0.6511825919151306 L 8.0 -0.9970746040344238 L 9.0 -0.9970746040344238 L 9.0 -0.3729616403579712 L 10.0 -0.3729616403579712 L 10.0 -1.1159924268722534 L 11.0 -1.1159924268722534 L 11.0 -1.0723556280136108 L 12.0 -1.0723556280136108 L 12.0 -1.3392082452774048 L 13.0 -1.3392082452774048 L 13.0 -0.686776876449585 L 14.0 -0.686776876449585 L 14.0 0.2867467999458313 L 15.0 0.2867467999458313 L 15.0 -1.0087007284164429 L 16.0 -1.0087007284164429 L 16.0 -0.554456353187561 L 17.0 -0.554456353187561 L 17.0 -1.2993707656860352 L 18.0 -1.2993707656860352 L 18.0 -0.1132640615105629 L 19.0 -0.1132640615105629 L 19.0 -0.8664798736572266 L 20.0 -0.8664798736572266 L 20.0 -0.1250760704278946 L 21.0 -0.1250760704278946 L 21.0 -1.7989071607589722 L 22.0 -1.7989071607589722 L 22.0 -0.3140564560890198 L 23.0 -0.3140564560890198 L 23.0 -0.9732550978660583 L 24.0 -0.9732550978660583 L 24.0 -0.8565048575401306 L 25.0 -0.8565048575401306 L 25.0 0.0058234576135873795 L 26.0 0.0058234576135873795 L 26.0 -1.0786224603652954 L 27.0 -1.0786224603652954 L 27.0 -0.603357195854187 L 28.0 -0.603357195854187 L 28.0 -0.774581789970398 L 29.0 -0.774581789970398 L 29.0 -0.32056427001953125 L 30.0 -0.32056427001953125 L 30.0 -0.13431136310100555 L 31.0 -0.13431136310100555 L 31.0 -0.7048913836479187 L 32.0 -0.7048913836479187 L 32.0 -0.9286437630653381 L 33.0 -0.9286437630653381 L 33.0 -0.566573441028595 L 34.0 -0.566573441028595 L 34.0 -0.8370925784111023 L 35.0 -0.8370925784111023 L 35.0 -1.097080111503601 L 36.0 -1.097080111503601 L 36.0 -1.520912528038025 L 37.0 -1.520912528038025 L 37.0 -0.42788299918174744 L 38.0 -0.42788299918174744 L 38.0 -0.9847083687782288 L 39.0 -0.9847083687782288 L 39.0 -1.7939623594284058 L 40.0 -1.7939623594284058" style="vector-effect: non-scaling-stroke;fill:none;" /></g></g><g style="stroke: black;stroke-width: 1.2000000000000002;" transform="matrix(1.0, 0.0, 0.0, 1.0, 0.0, 0.0)"><path d="M 0.0 -2.0 L 0.0 2.0" style="vector-effect: non-scaling-stroke;fill:none;" /></g></g><g style="stroke: black;stroke-width: 1.2000000000000002;" transform="matrix(1.0, 0.0, 0.0, 1.0, 0.0, 0.0)"><path d="M 10.0 -2.0 L 10.0 2.0" style="vector-effect: non-scaling-stroke;fill:none;" /></g></g><g style="stroke: black;stroke-width: 1.2000000000000002;" transform="matrix(1.0, 0.0, 0.0, 1.0, 0.0, 0.0)"><path d="M 20.0 -2.0 L 20.0 2.0" style="vector-effect: non-scaling-stroke;fill:none;" /></g></g><g style="stroke: black;stroke-width: 1.2000000000000002;" transform="matrix(1.0, 0.0, 0.0, 1.0, 0.0, 0.0)"><path d="M 30.0 -2.0 L 30.0 2.0" style="vector-effect: non-scaling-stroke;fill:none;" /></g></g></g></g></g></g></g><g style="stroke: black;stroke-width: 1.2000000000000002;" transform="matrix(1.0, 0.0, 0.0, 1.0, 0.565, 0.0)"><g /></g></g><g transform="matrix(1.0, 0.0, 0.0, 1.0, 0.58, 0.0)"><g transform="matrix(1.0, 0.0, 0.0, 1.0, 0.075, 0.0)"><g transform="matrix(1.0, 0.0, 0.0, 1.0, 0.0, 0.03)"><g transform="matrix(0.01, 0.0, 0.0, 0.01, 0.0, 0.0)"><g><g><g transform="matrix(1.0, 0.0, 0.0, 1.0, 5.0, 0.0)"><g transform="matrix(1.0, 0.0, 0.0, 1.0, -12.5, -0.0)"><g><g style="fill: #d3d3d3;stroke: black;stroke-width: 1.2000000000000002;" transform="matrix(1.0, 0.0, 0.0, 1.0, 0.0, -3.0)"><path d="M 0.0 0.0 L 25.0 0.0 L 25.0 6.0 L 0.0 6.0 L 0.0 0.0 Z" style="vector-effect: non-scaling-stroke;" /></g><g transform="matrix(1.0, 0.0, 0.0, 1.0, 1.875, 0.0)"><g><g style="stroke: black;stroke-width: 1.2000000000000002;" transform="matrix(1.0, 0.0, 0.0, 1.0, 0.0, 0.0)"><g /></g><g style="fill: #ffa500;stroke: black;stroke-width: 1.2000000000000002;" transform="matrix(1.0, 0.0, 0.0, 1.0, 1.875, 0.0)"><text style="text-align:center; text-anchor:middle; dominant-baseline:middle;&#10;                      font-family:sans-serif; font-weight: bold;&#10;                      font-size:3px;&#10;                      vector-effect: non-scaling-stroke;" transform="translate(-5e-05, 0)">y</text></g></g></g></g></g></g><g><g><g><g style="stroke: black;stroke-width: 1.2000000000000002;" transform="matrix(1.0, 0.0, 0.0, 1.0, 0.0, 0.0)"><path d="M 0.0 -2.0 L 0.0 2.0" style="vector-effect: non-scaling-stroke;fill:none;" /></g><g style="stroke: #808080;stroke-width: 0.6000000000000001;" transform="matrix(1.0, 0.0, 0.0, 1.0, 0.0, 0.0)"><path d="M 0.0 0.0 L 10.0 0.0" style="vector-effect: non-scaling-stroke;fill:none;" /></g></g><g style="stroke: black;stroke-width: 2.4000000000000004;" transform="matrix(1.0, 0.0, 0.0, 1.0, 0.0, 0.0)"><path d="M 0.0 -1.3936399221420288 L 1.0 -1.3936399221420288 L 1.0 -0.647120475769043 L 2.0 -0.647120475769043 L 2.0 -1.794860601425171 L 3.0 -1.794860601425171 L 3.0 0.024191511794924736 L 4.0 0.024191511794924736 L 4.0 -0.2459212690591812 L 5.0 -0.2459212690591812 L 5.0 -1.0625756978988647 L 6.0 -1.0625756978988647 L 6.0 -0.7969610691070557 L 7.0 -0.7969610691070557 L 7.0 -1.5579208135604858 L 8.0 -1.5579208135604858 L 8.0 -0.23981119692325592 L 9.0 -0.23981119692325592 L 9.0 -0.12162651866674423 L 10.0 -0.12162651866674423" style="vector-effect: non-scaling-stroke;fill:none;" /></g></g></g></g><g><g><g><g style="stroke: black;stroke-width: 1.2000000000000002;" transform="matrix(1.0, 0.0, 0.0, 1.0, 0.0, 0.0)"><path d="M 0.0 -2.0 L 0.0 2.0" style="vector-effect: non-scaling-stroke;fill:none;" /></g><g style="stroke: #808080;stroke-width: 0.6000000000000001;" transform="matrix(1.0, 0.0, 0.0, 1.0, 0.0, 0.0)"><path d="M 0.0 0.0 L 10.0 0.0" style="vector-effect: non-scaling-stroke;fill:none;" /></g></g><g style="stroke: black;stroke-width: 2.4000000000000004;" transform="matrix(1.0, 0.0, 0.0, 1.0, 0.0, 0.0)"><path d="M 0.0 -1.3936399221420288 L 1.0 -1.3936399221420288 L 1.0 -0.647120475769043 L 2.0 -0.647120475769043 L 2.0 -1.794860601425171 L 3.0 -1.794860601425171 L 3.0 0.024191511794924736 L 4.0 0.024191511794924736 L 4.0 -0.2459212690591812 L 5.0 -0.2459212690591812 L 5.0 -1.0625756978988647 L 6.0 -1.0625756978988647 L 6.0 -0.7969610691070557 L 7.0 -0.7969610691070557 L 7.0 -1.5579208135604858 L 8.0 -1.5579208135604858 L 8.0 -0.23981119692325592 L 9.0 -0.23981119692325592 L 9.0 -0.12162651866674423 L 10.0 -0.12162651866674423" style="vector-effect: non-scaling-stroke;fill:none;" /></g></g></g></g></g></g></g></g></g></g><g style="stroke: black;stroke-width: 1.2000000000000002;" transform="matrix(0.0, -1.0, 1.0, 0.0, 0.0, 0.08)"><g /></g></g><g transform="matrix(1.0, 0.0, 0.0, 1.0, 0.0, 0.16)"><g transform="matrix(1.0, 0.0, 0.0, 1.0, -0.27499999999999997, -0.03)"><g transform="matrix(1.0, 0.0, 0.0, 1.0, 0.075, 0.0)"><g transform="matrix(1.0, 0.0, 0.0, 1.0, 0.0, 0.03)"><g transform="matrix(0.01, 0.0, 0.0, 0.01, 0.0, 0.0)"><g><g><g transform="matrix(1.0, 0.0, 0.0, 1.0, 20.0, 0.0)"><g transform="matrix(1.0, 0.0, 0.0, 1.0, -27.5, -0.0)"><g><g style="fill: #d3d3d3;stroke: black;stroke-width: 1.2000000000000002;" transform="matrix(1.0, 0.0, 0.0, 1.0, 0.0, -3.0)"><path d="M 0.0 0.0 L 55.0 0.0 L 55.0 6.0 L 0.0 6.0 L 0.0 0.0 Z" style="vector-effect: non-scaling-stroke;" /></g><g transform="matrix(1.0, 0.0, 0.0, 1.0, 1.875, 0.0)"><g><g style="stroke: black;stroke-width: 1.2000000000000002;" transform="matrix(1.0, 0.0, 0.0, 1.0, 0.0, 0.0)"><g /></g><g style="fill: #ffa500;stroke: black;stroke-width: 1.2000000000000002;" transform="matrix(1.0, 0.0, 0.0, 1.0, 1.875, 0.0)"><text style="text-align:center; text-anchor:middle; dominant-baseline:middle;&#10;                      font-family:sans-serif; font-weight: bold;&#10;                      font-size:3px;&#10;                      vector-effect: non-scaling-stroke;" transform="translate(-5e-05, 0)">f(x)</text></g></g></g></g></g></g><g><g><g><g style="stroke: black;stroke-width: 1.2000000000000002;" transform="matrix(1.0, 0.0, 0.0, 1.0, 0.0, 0.0)"><path d="M 0.0 -2.0 L 0.0 2.0" style="vector-effect: non-scaling-stroke;fill:none;" /></g><g style="stroke: #808080;stroke-width: 0.6000000000000001;" transform="matrix(1.0, 0.0, 0.0, 1.0, 0.0, 0.0)"><path d="M 0.0 0.0 L 40.0 0.0" style="vector-effect: non-scaling-stroke;fill:none;" /></g></g><g style="stroke: black;stroke-width: 2.4000000000000004;" transform="matrix(1.0, 0.0, 0.0, 1.0, 0.0, 0.0)"><path d="M 0.0 0.43861711025238037 L 1.0 0.43861711025238037 L 1.0 -0.24688246846199036 L 2.0 -0.24688246846199036 L 2.0 0.6661990284919739 L 3.0 0.6661990284919739 L 3.0 0.00870289746671915 L 4.0 0.00870289746671915 L 4.0 -0.10459250211715698 L 5.0 -0.10459250211715698 L 5.0 -0.02211426943540573 L 6.0 -0.02211426943540573 L 6.0 -0.2149645984172821 L 7.0 -0.2149645984172821 L 7.0 0.5072454810142517 L 8.0 0.5072454810142517 L 8.0 -0.11955482512712479 L 9.0 -0.11955482512712479 L 9.0 -0.022681012749671936 L 10.0 -0.022681012749671936 L 10.0 -0.7776458263397217 L 11.0 -0.7776458263397217 L 11.0 -0.34697163105010986 L 12.0 -0.34697163105010986 L 12.0 -1.2018460035324097 L 13.0 -1.2018460035324097 L 13.0 0.008307085372507572 L 14.0 0.008307085372507572 L 14.0 0.035258568823337555 L 15.0 0.035258568823337555 L 15.0 -0.535910427570343 L 16.0 -0.535910427570343 L 16.0 -0.22094006836414337 L 17.0 -0.22094006836414337 L 17.0 -1.0121583938598633 L 18.0 -1.0121583938598633 L 18.0 -0.013580994680523872 L 19.0 -0.013580994680523872 L 19.0 -0.05269346386194229 L 20.0 -0.05269346386194229 L 20.0 -0.08715550601482391 L 21.0 -0.08715550601482391 L 21.0 -0.582054853439331 L 22.0 -0.582054853439331 L 22.0 -0.28184378147125244 L 23.0 -0.28184378147125244 L 23.0 0.011772256344556808 L 24.0 0.011772256344556808 L 24.0 -0.10531637817621231 L 25.0 -0.10531637817621231 L 25.0 0.0030939322896301746 L 26.0 0.0030939322896301746 L 26.0 -0.4298100471496582 L 27.0 -0.4298100471496582 L 27.0 -0.4699913561344147 L 28.0 -0.4699913561344147 L 28.0 -0.09287669509649277 L 29.0 -0.09287669509649277 L 29.0 -0.0194945577532053 L 30.0 -0.0194945577532053 L 30.0 -0.09359084069728851 L 31.0 -0.09359084069728851 L 31.0 -0.2280748188495636 L 32.0 -0.2280748188495636 L 32.0 -0.8333930373191833 L 33.0 -0.8333930373191833 L 33.0 0.0068531339056789875 L 34.0 0.0068531339056789875 L 34.0 -0.10292943567037582 L 35.0 -0.10292943567037582 L 35.0 -0.5828653573989868 L 36.0 -0.5828653573989868 L 36.0 -0.6060540080070496 L 37.0 -0.6060540080070496 L 37.0 -0.33330392837524414 L 38.0 -0.33330392837524414 L 38.0 -0.11807204782962799 L 39.0 -0.11807204782962799 L 39.0 -0.1090966984629631 L 40.0 -0.1090966984629631" style="vector-effect: non-scaling-stroke;fill:none;" /></g></g></g></g><g><g><g><g style="stroke: black;stroke-width: 1.2000000000000002;" transform="matrix(1.0, 0.0, 0.0, 1.0, 0.0, 0.0)"><path d="M 0.0 -2.0 L 0.0 2.0" style="vector-effect: non-scaling-stroke;fill:none;" /></g><g style="stroke: #808080;stroke-width: 0.6000000000000001;" transform="matrix(1.0, 0.0, 0.0, 1.0, 0.0, 0.0)"><path d="M 0.0 0.0 L 40.0 0.0" style="vector-effect: non-scaling-stroke;fill:none;" /></g></g><g style="stroke: black;stroke-width: 2.4000000000000004;" transform="matrix(1.0, 0.0, 0.0, 1.0, 0.0, 0.0)"><path d="M 0.0 0.43861711025238037 L 1.0 0.43861711025238037 L 1.0 -0.24688246846199036 L 2.0 -0.24688246846199036 L 2.0 0.6661990284919739 L 3.0 0.6661990284919739 L 3.0 0.00870289746671915 L 4.0 0.00870289746671915 L 4.0 -0.10459250211715698 L 5.0 -0.10459250211715698 L 5.0 -0.02211426943540573 L 6.0 -0.02211426943540573 L 6.0 -0.2149645984172821 L 7.0 -0.2149645984172821 L 7.0 0.5072454810142517 L 8.0 0.5072454810142517 L 8.0 -0.11955482512712479 L 9.0 -0.11955482512712479 L 9.0 -0.022681012749671936 L 10.0 -0.022681012749671936 L 10.0 -0.7776458263397217 L 11.0 -0.7776458263397217 L 11.0 -0.34697163105010986 L 12.0 -0.34697163105010986 L 12.0 -1.2018460035324097 L 13.0 -1.2018460035324097 L 13.0 0.008307085372507572 L 14.0 0.008307085372507572 L 14.0 0.035258568823337555 L 15.0 0.035258568823337555 L 15.0 -0.535910427570343 L 16.0 -0.535910427570343 L 16.0 -0.22094006836414337 L 17.0 -0.22094006836414337 L 17.0 -1.0121583938598633 L 18.0 -1.0121583938598633 L 18.0 -0.013580994680523872 L 19.0 -0.013580994680523872 L 19.0 -0.05269346386194229 L 20.0 -0.05269346386194229 L 20.0 -0.08715550601482391 L 21.0 -0.08715550601482391 L 21.0 -0.582054853439331 L 22.0 -0.582054853439331 L 22.0 -0.28184378147125244 L 23.0 -0.28184378147125244 L 23.0 0.011772256344556808 L 24.0 0.011772256344556808 L 24.0 -0.10531637817621231 L 25.0 -0.10531637817621231 L 25.0 0.0030939322896301746 L 26.0 0.0030939322896301746 L 26.0 -0.4298100471496582 L 27.0 -0.4298100471496582 L 27.0 -0.4699913561344147 L 28.0 -0.4699913561344147 L 28.0 -0.09287669509649277 L 29.0 -0.09287669509649277 L 29.0 -0.0194945577532053 L 30.0 -0.0194945577532053 L 30.0 -0.09359084069728851 L 31.0 -0.09359084069728851 L 31.0 -0.2280748188495636 L 32.0 -0.2280748188495636 L 32.0 -0.8333930373191833 L 33.0 -0.8333930373191833 L 33.0 0.0068531339056789875 L 34.0 0.0068531339056789875 L 34.0 -0.10292943567037582 L 35.0 -0.10292943567037582 L 35.0 -0.5828653573989868 L 36.0 -0.5828653573989868 L 36.0 -0.6060540080070496 L 37.0 -0.6060540080070496 L 37.0 -0.33330392837524414 L 38.0 -0.33330392837524414 L 38.0 -0.11807204782962799 L 39.0 -0.11807204782962799 L 39.0 -0.1090966984629631 L 40.0 -0.1090966984629631" style="vector-effect: non-scaling-stroke;fill:none;" /></g></g></g></g></g></g></g></g></g></g><g transform="matrix(1.0, 0.0, 0.0, 1.0, -0.19999999999999996, 0.16)"><g transform="matrix(1.0, 0.0, 0.0, 0.009999999999999995, 0.0, 0.0)"><g transform="matrix(0.01, 0.0, 0.0, 1.0, 0.0, 0.0)"><g><g><g style="fill: #ffffe0;stroke: #ffffe0;stroke-width: 1.2000000000000002;fill-opacity: 0.5;" transform="matrix(1.0, 0.0, 0.0, 1.0, 0.0, 0.0)"><path d="M 0.0 -2.0 L 0.0 2.0" style="vector-effect: non-scaling-stroke;fill:none;" /></g><g style="fill: #ffffe0;stroke: #ffffe0;stroke-width: 1.2000000000000002;fill-opacity: 0.5;" transform="matrix(1.0, 0.0, 0.0, 1.0, 0.0, 0.0)"><path d="M 0.0 -0.9561315774917603 L 1.0 -0.9561315774917603 L 1.0 -0.895082950592041 L 2.0 -0.895082950592041 L 2.0 -1.1338613033294678 L 3.0 -1.1338613033294678 L 3.0 0.033010415732860565 L 4.0 0.033010415732860565 L 4.0 -0.3504616618156433 L 5.0 -0.3504616618156433 L 5.0 -1.084753394126892 L 6.0 -1.084753394126892 L 6.0 -1.012176752090454 L 7.0 -1.012176752090454 L 7.0 -1.054396152496338 L 8.0 -1.054396152496338 L 8.0 -0.36020857095718384 L 9.0 -0.36020857095718384 L 9.0 -0.14431174099445343 L 10.0 -0.14431174099445343 L 10.0 -2.0 L 11.0 -2.0 L 11.0 -0.9966622591018677 L 12.0 -0.9966622591018677 L 12.0 -2.0 L 13.0 -2.0 L 13.0 0.03252147138118744 L 14.0 0.03252147138118744 L 14.0 -0.21061059832572937 L 15.0 -0.21061059832572937 L 15.0 -1.6028335094451904 L 16.0 -1.6028335094451904 L 16.0 -1.0181522369384766 L 17.0 -1.0181522369384766 L 17.0 -2.0 L 18.0 -2.0 L 18.0 -0.25339657068252563 L 19.0 -0.25339657068252563 L 19.0 -0.17451044917106628 L 20.0 -0.17451044917106628 L 20.0 -1.4804140329360962 L 21.0 -1.4804140329360962 L 21.0 -1.2257850170135498 L 22.0 -1.2257850170135498 L 22.0 -2.0 L 23.0 -2.0 L 23.0 0.03598664328455925 L 24.0 0.03598664328455925 L 24.0 -0.3519305884838104 L 25.0 -0.3519305884838104 L 25.0 -1.0594985485076904 L 26.0 -1.0594985485076904 L 26.0 -1.2285122871398926 L 27.0 -1.2285122871398926 L 27.0 -2.0 L 28.0 -2.0 L 28.0 -0.33278539776802063 L 29.0 -0.33278539776802063 L 29.0 -0.14112529158592224 L 30.0 -0.14112529158592224 L 30.0 -1.4868494272232056 L 31.0 -1.4868494272232056 L 31.0 -0.8762753009796143 L 32.0 -0.8762753009796143 L 32.0 -2.0 L 33.0 -2.0 L 33.0 0.031114086508750916 L 34.0 0.031114086508750916 L 34.0 -0.34879860281944275 L 35.0 -0.34879860281944275 L 35.0 -1.64382803440094 L 36.0 -1.64382803440094 L 36.0 -1.4047563076019287 L 37.0 -1.4047563076019287 L 37.0 -1.8889851570129395 L 38.0 -1.8889851570129395 L 38.0 -0.35798072814941406 L 39.0 -0.35798072814941406 L 39.0 -0.2305411696434021 L 40.0 -0.2305411696434021 L 40.0 -0.1090966984629631 L 39.0 -0.1090966984629631 L 39.0 -0.11807204782962799 L 38.0 -0.11807204782962799 L 38.0 -0.33330392837524414 L 37.0 -0.33330392837524414 L 37.0 -0.6060540080070496 L 36.0 -0.6060540080070496 L 36.0 -0.5828653573989868 L 35.0 -0.5828653573989868 L 35.0 -0.10292943567037582 L 34.0 -0.10292943567037582 L 34.0 0.0068531339056789875 L 33.0 0.0068531339056789875 L 33.0 -0.8333930373191833 L 32.0 -0.8333930373191833 L 32.0 -0.2280748188495636 L 31.0 -0.2280748188495636 L 31.0 -0.09359084069728851 L 30.0 -0.09359084069728851 L 30.0 -0.0194945577532053 L 29.0 -0.0194945577532053 L 29.0 -0.09287669509649277 L 28.0 -0.09287669509649277 L 28.0 -0.4699913561344147 L 27.0 -0.4699913561344147 L 27.0 -0.4298100471496582 L 26.0 -0.4298100471496582 L 26.0 0.0030939322896301746 L 25.0 0.0030939322896301746 L 25.0 -0.10531637817621231 L 24.0 -0.10531637817621231 L 24.0 0.011772256344556808 L 23.0 0.011772256344556808 L 23.0 -0.28184378147125244 L 22.0 -0.28184378147125244 L 22.0 -0.582054853439331 L 21.0 -0.582054853439331 L 21.0 -0.08715550601482391 L 20.0 -0.08715550601482391 L 20.0 -0.05269346386194229 L 19.0 -0.05269346386194229 L 19.0 -0.013580994680523872 L 18.0 -0.013580994680523872 L 18.0 -1.0121583938598633 L 17.0 -1.0121583938598633 L 17.0 -0.22094006836414337 L 16.0 -0.22094006836414337 L 16.0 -0.535910427570343 L 15.0 -0.535910427570343 L 15.0 0.035258568823337555 L 14.0 0.035258568823337555 L 14.0 0.008307085372507572 L 13.0 0.008307085372507572 L 13.0 -1.2018460035324097 L 12.0 -1.2018460035324097 L 12.0 -0.34697163105010986 L 11.0 -0.34697163105010986 L 11.0 -0.7776458263397217 L 10.0 -0.7776458263397217 L 10.0 -0.022681012749671936 L 9.0 -0.022681012749671936 L 9.0 -0.11955482512712479 L 8.0 -0.11955482512712479 L 8.0 0.5072454810142517 L 7.0 0.5072454810142517 L 7.0 -0.2149645984172821 L 6.0 -0.2149645984172821 L 6.0 -0.02211426943540573 L 5.0 -0.02211426943540573 L 5.0 -0.10459250211715698 L 4.0 -0.10459250211715698 L 4.0 0.00870289746671915 L 3.0 0.00870289746671915 L 3.0 0.6661990284919739 L 2.0 0.6661990284919739 L 2.0 -0.24688246846199036 L 1.0 -0.24688246846199036 L 1.0 0.43861711025238037 L 0.0 0.43861711025238037 Z" style="vector-effect: non-scaling-stroke;" /></g></g><g style="stroke: black;stroke-width: 1.2000000000000002;" transform="matrix(1.0, 0.0, 0.0, 1.0, 0.0, 0.0)"><path d="M 0.0 0.43861711025238037 L 1.0 0.43861711025238037 L 1.0 -0.24688246846199036 L 2.0 -0.24688246846199036 L 2.0 0.6661990284919739 L 3.0 0.6661990284919739 L 3.0 0.00870289746671915 L 4.0 0.00870289746671915 L 4.0 -0.10459250211715698 L 5.0 -0.10459250211715698 L 5.0 -0.02211426943540573 L 6.0 -0.02211426943540573 L 6.0 -0.2149645984172821 L 7.0 -0.2149645984172821 L 7.0 0.5072454810142517 L 8.0 0.5072454810142517 L 8.0 -0.11955482512712479 L 9.0 -0.11955482512712479 L 9.0 -0.022681012749671936 L 10.0 -0.022681012749671936 L 10.0 -0.7776458263397217 L 11.0 -0.7776458263397217 L 11.0 -0.34697163105010986 L 12.0 -0.34697163105010986 L 12.0 -1.2018460035324097 L 13.0 -1.2018460035324097 L 13.0 0.008307085372507572 L 14.0 0.008307085372507572 L 14.0 0.035258568823337555 L 15.0 0.035258568823337555 L 15.0 -0.535910427570343 L 16.0 -0.535910427570343 L 16.0 -0.22094006836414337 L 17.0 -0.22094006836414337 L 17.0 -1.0121583938598633 L 18.0 -1.0121583938598633 L 18.0 -0.013580994680523872 L 19.0 -0.013580994680523872 L 19.0 -0.05269346386194229 L 20.0 -0.05269346386194229 L 20.0 -0.08715550601482391 L 21.0 -0.08715550601482391 L 21.0 -0.582054853439331 L 22.0 -0.582054853439331 L 22.0 -0.28184378147125244 L 23.0 -0.28184378147125244 L 23.0 0.011772256344556808 L 24.0 0.011772256344556808 L 24.0 -0.10531637817621231 L 25.0 -0.10531637817621231 L 25.0 0.0030939322896301746 L 26.0 0.0030939322896301746 L 26.0 -0.4298100471496582 L 27.0 -0.4298100471496582 L 27.0 -0.4699913561344147 L 28.0 -0.4699913561344147 L 28.0 -0.09287669509649277 L 29.0 -0.09287669509649277 L 29.0 -0.0194945577532053 L 30.0 -0.0194945577532053 L 30.0 -0.09359084069728851 L 31.0 -0.09359084069728851 L 31.0 -0.2280748188495636 L 32.0 -0.2280748188495636 L 32.0 -0.8333930373191833 L 33.0 -0.8333930373191833 L 33.0 0.0068531339056789875 L 34.0 0.0068531339056789875 L 34.0 -0.10292943567037582 L 35.0 -0.10292943567037582 L 35.0 -0.5828653573989868 L 36.0 -0.5828653573989868 L 36.0 -0.6060540080070496 L 37.0 -0.6060540080070496 L 37.0 -0.33330392837524414 L 38.0 -0.33330392837524414 L 38.0 -0.11807204782962799 L 39.0 -0.11807204782962799 L 39.0 -0.1090966984629631 L 40.0 -0.1090966984629631" style="vector-effect: non-scaling-stroke;fill:none;" /></g></g></g></g></g></g><g transform="matrix(1.0, 0.0, 0.0, 1.0, -0.19999999999999996, 0.16)"><g transform="matrix(1.0, 0.0, 0.0, 0.009999999999999995, 0.0, 0.0)"><g transform="matrix(0.01, 0.0, 0.0, 1.0, 0.0, 0.0)"><g><g><g style="fill: #add8e6;stroke: #add8e6;stroke-width: 1.2000000000000002;fill-opacity: 0.5;" transform="matrix(1.0, 0.0, 0.0, 1.0, 0.0, 0.0)"><path d="M 0.0 -2.0 L 0.0 2.0" style="vector-effect: non-scaling-stroke;fill:none;" /></g><g style="fill: #add8e6;stroke: #add8e6;stroke-width: 1.2000000000000002;fill-opacity: 0.5;" transform="matrix(1.0, 0.0, 0.0, 1.0, 0.0, 0.0)"><path d="M 0.0 1.070426344871521 L 1.0 1.070426344871521 L 1.0 -1.009821891784668 L 2.0 -1.009821891784668 L 2.0 1.411257028579712 L 3.0 1.411257028579712 L 3.0 -0.7107438445091248 L 4.0 -0.7107438445091248 L 4.0 -0.9547037482261658 L 5.0 -0.9547037482261658 L 5.0 -0.06383752077817917 L 6.0 -0.06383752077817917 L 6.0 -0.7543866634368896 L 7.0 -0.7543866634368896 L 7.0 1.1569361686706543 L 8.0 1.1569361686706543 L 8.0 -1.1164425611495972 L 9.0 -1.1164425611495972 L 9.0 -0.39558255672454834 L 10.0 -0.39558255672454834 L 10.0 -1.8922526836395264 L 11.0 -1.8922526836395264 L 11.0 -1.4228354692459106 L 12.0 -1.4228354692459106 L 12.0 -2.0 L 13.0 -2.0 L 13.0 -0.6784501671791077 L 14.0 -0.6784501671791077 L 14.0 0.32210591435432434 L 15.0 0.32210591435432434 L 15.0 -1.5491893291473389 L 16.0 -1.5491893291473389 L 16.0 -0.775263249874115 L 17.0 -0.775263249874115 L 17.0 -2.0 L 18.0 -2.0 L 18.0 -0.1268298178911209 L 19.0 -0.1268298178911209 L 19.0 -0.9191960096359253 L 20.0 -0.9191960096359253 L 20.0 -0.21232526004314423 L 21.0 -0.21232526004314423 L 21.0 -2.0 L 22.0 -2.0 L 22.0 -0.5947681665420532 L 23.0 -0.5947681665420532 L 23.0 -0.9614598155021667 L 24.0 -0.9614598155021667 L 24.0 -0.9621331691741943 L 25.0 -0.9621331691741943 L 25.0 0.008914697915315628 L 26.0 0.008914697915315628 L 26.0 -1.511634349822998 L 27.0 -1.511634349822998 L 27.0 -1.0749784708023071 L 28.0 -1.0749784708023071 L 28.0 -0.8669919967651367 L 29.0 -0.8669919967651367 L 29.0 -0.34005579352378845 L 30.0 -0.34005579352378845 L 30.0 -0.22770129144191742 L 31.0 -0.22770129144191742 L 31.0 -0.9343898296356201 L 32.0 -0.9343898296356201 L 32.0 -1.7632255554199219 L 33.0 -1.7632255554199219 L 33.0 -0.5596703886985779 L 34.0 -0.5596703886985779 L 34.0 -0.9396296143531799 L 35.0 -0.9396296143531799 L 35.0 -1.6795908212661743 L 36.0 -1.6795908212661743 L 36.0 -2.0 L 37.0 -2.0 L 37.0 -0.7594771385192871 L 38.0 -0.7594771385192871 L 38.0 -1.1022937297821045 L 39.0 -1.1022937297821045 L 39.0 -1.9024513959884644 L 40.0 -1.9024513959884644 L 40.0 -0.1090966984629631 L 39.0 -0.1090966984629631 L 39.0 -0.11807204782962799 L 38.0 -0.11807204782962799 L 38.0 -0.33330392837524414 L 37.0 -0.33330392837524414 L 37.0 -0.6060540080070496 L 36.0 -0.6060540080070496 L 36.0 -0.5828653573989868 L 35.0 -0.5828653573989868 L 35.0 -0.10292943567037582 L 34.0 -0.10292943567037582 L 34.0 0.0068531339056789875 L 33.0 0.0068531339056789875 L 33.0 -0.8333930373191833 L 32.0 -0.8333930373191833 L 32.0 -0.2280748188495636 L 31.0 -0.2280748188495636 L 31.0 -0.09359084069728851 L 30.0 -0.09359084069728851 L 30.0 -0.0194945577532053 L 29.0 -0.0194945577532053 L 29.0 -0.09287669509649277 L 28.0 -0.09287669509649277 L 28.0 -0.4699913561344147 L 27.0 -0.4699913561344147 L 27.0 -0.4298100471496582 L 26.0 -0.4298100471496582 L 26.0 0.0030939322896301746 L 25.0 0.0030939322896301746 L 25.0 -0.10531637817621231 L 24.0 -0.10531637817621231 L 24.0 0.011772256344556808 L 23.0 0.011772256344556808 L 23.0 -0.28184378147125244 L 22.0 -0.28184378147125244 L 22.0 -0.582054853439331 L 21.0 -0.582054853439331 L 21.0 -0.08715550601482391 L 20.0 -0.08715550601482391 L 20.0 -0.05269346386194229 L 19.0 -0.05269346386194229 L 19.0 -0.013580994680523872 L 18.0 -0.013580994680523872 L 18.0 -1.0121583938598633 L 17.0 -1.0121583938598633 L 17.0 -0.22094006836414337 L 16.0 -0.22094006836414337 L 16.0 -0.535910427570343 L 15.0 -0.535910427570343 L 15.0 0.035258568823337555 L 14.0 0.035258568823337555 L 14.0 0.008307085372507572 L 13.0 0.008307085372507572 L 13.0 -1.2018460035324097 L 12.0 -1.2018460035324097 L 12.0 -0.34697163105010986 L 11.0 -0.34697163105010986 L 11.0 -0.7776458263397217 L 10.0 -0.7776458263397217 L 10.0 -0.022681012749671936 L 9.0 -0.022681012749671936 L 9.0 -0.11955482512712479 L 8.0 -0.11955482512712479 L 8.0 0.5072454810142517 L 7.0 0.5072454810142517 L 7.0 -0.2149645984172821 L 6.0 -0.2149645984172821 L 6.0 -0.02211426943540573 L 5.0 -0.02211426943540573 L 5.0 -0.10459250211715698 L 4.0 -0.10459250211715698 L 4.0 0.00870289746671915 L 3.0 0.00870289746671915 L 3.0 0.6661990284919739 L 2.0 0.6661990284919739 L 2.0 -0.24688246846199036 L 1.0 -0.24688246846199036 L 1.0 0.43861711025238037 L 0.0 0.43861711025238037 Z" style="vector-effect: non-scaling-stroke;" /></g></g><g style="stroke: black;stroke-width: 1.2000000000000002;" transform="matrix(1.0, 0.0, 0.0, 1.0, 0.0, 0.0)"><path d="M 0.0 0.43861711025238037 L 1.0 0.43861711025238037 L 1.0 -0.24688246846199036 L 2.0 -0.24688246846199036 L 2.0 0.6661990284919739 L 3.0 0.6661990284919739 L 3.0 0.00870289746671915 L 4.0 0.00870289746671915 L 4.0 -0.10459250211715698 L 5.0 -0.10459250211715698 L 5.0 -0.02211426943540573 L 6.0 -0.02211426943540573 L 6.0 -0.2149645984172821 L 7.0 -0.2149645984172821 L 7.0 0.5072454810142517 L 8.0 0.5072454810142517 L 8.0 -0.11955482512712479 L 9.0 -0.11955482512712479 L 9.0 -0.022681012749671936 L 10.0 -0.022681012749671936 L 10.0 -0.7776458263397217 L 11.0 -0.7776458263397217 L 11.0 -0.34697163105010986 L 12.0 -0.34697163105010986 L 12.0 -1.2018460035324097 L 13.0 -1.2018460035324097 L 13.0 0.008307085372507572 L 14.0 0.008307085372507572 L 14.0 0.035258568823337555 L 15.0 0.035258568823337555 L 15.0 -0.535910427570343 L 16.0 -0.535910427570343 L 16.0 -0.22094006836414337 L 17.0 -0.22094006836414337 L 17.0 -1.0121583938598633 L 18.0 -1.0121583938598633 L 18.0 -0.013580994680523872 L 19.0 -0.013580994680523872 L 19.0 -0.05269346386194229 L 20.0 -0.05269346386194229 L 20.0 -0.08715550601482391 L 21.0 -0.08715550601482391 L 21.0 -0.582054853439331 L 22.0 -0.582054853439331 L 22.0 -0.28184378147125244 L 23.0 -0.28184378147125244 L 23.0 0.011772256344556808 L 24.0 0.011772256344556808 L 24.0 -0.10531637817621231 L 25.0 -0.10531637817621231 L 25.0 0.0030939322896301746 L 26.0 0.0030939322896301746 L 26.0 -0.4298100471496582 L 27.0 -0.4298100471496582 L 27.0 -0.4699913561344147 L 28.0 -0.4699913561344147 L 28.0 -0.09287669509649277 L 29.0 -0.09287669509649277 L 29.0 -0.0194945577532053 L 30.0 -0.0194945577532053 L 30.0 -0.09359084069728851 L 31.0 -0.09359084069728851 L 31.0 -0.2280748188495636 L 32.0 -0.2280748188495636 L 32.0 -0.8333930373191833 L 33.0 -0.8333930373191833 L 33.0 0.0068531339056789875 L 34.0 0.0068531339056789875 L 34.0 -0.10292943567037582 L 35.0 -0.10292943567037582 L 35.0 -0.5828653573989868 L 36.0 -0.5828653573989868 L 36.0 -0.6060540080070496 L 37.0 -0.6060540080070496 L 37.0 -0.33330392837524414 L 38.0 -0.33330392837524414 L 38.0 -0.11807204782962799 L 39.0 -0.11807204782962799 L 39.0 -0.1090966984629631 L 40.0 -0.1090966984629631" style="vector-effect: non-scaling-stroke;fill:none;" /></g></g></g></g></g></g><g transform="matrix(1.0, 0.0, 0.0, 1.0, -0.19999999999999996, 0.16)"><g transform="matrix(1.0, 0.0, 0.0, 0.009999999999999995, 0.0, 0.0)"><g transform="matrix(0.01, 0.0, 0.0, 1.0, 0.0, 0.0)"><g><g><g style="fill: #ff8c00;stroke: #ff8c00;stroke-width: 1.2000000000000002;fill-opacity: 0.5;" transform="matrix(1.0, 0.0, 0.0, 1.0, 0.0, 0.0)"><path d="M 0.0 -2.0 L 0.0 2.0" style="vector-effect: non-scaling-stroke;fill:none;" /></g><g style="fill: #ff8c00;stroke: #ff8c00;stroke-width: 1.2000000000000002;fill-opacity: 0.5;" transform="matrix(1.0, 0.0, 0.0, 1.0, 0.0, 0.0)"><path d="M 0.0 0.43861711025238037 L 1.0 0.43861711025238037 L 1.0 -0.24688246846199036 L 2.0 -0.24688246846199036 L 2.0 0.6661990284919739 L 3.0 0.6661990284919739 L 3.0 0.00870289746671915 L 4.0 0.00870289746671915 L 4.0 -0.10459250211715698 L 5.0 -0.10459250211715698 L 5.0 -0.02211426943540573 L 6.0 -0.02211426943540573 L 6.0 -0.2149645984172821 L 7.0 -0.2149645984172821 L 7.0 0.5072454810142517 L 8.0 0.5072454810142517 L 8.0 -0.11955482512712479 L 9.0 -0.11955482512712479 L 9.0 -0.022681012749671936 L 10.0 -0.022681012749671936 L 10.0 -0.7776458263397217 L 11.0 -0.7776458263397217 L 11.0 -0.34697163105010986 L 12.0 -0.34697163105010986 L 12.0 -1.2018460035324097 L 13.0 -1.2018460035324097 L 13.0 0.008307085372507572 L 14.0 0.008307085372507572 L 14.0 0.035258568823337555 L 15.0 0.035258568823337555 L 15.0 -0.535910427570343 L 16.0 -0.535910427570343 L 16.0 -0.22094006836414337 L 17.0 -0.22094006836414337 L 17.0 -1.0121583938598633 L 18.0 -1.0121583938598633 L 18.0 -0.013580994680523872 L 19.0 -0.013580994680523872 L 19.0 -0.05269346386194229 L 20.0 -0.05269346386194229 L 20.0 -0.08715550601482391 L 21.0 -0.08715550601482391 L 21.0 -0.582054853439331 L 22.0 -0.582054853439331 L 22.0 -0.28184378147125244 L 23.0 -0.28184378147125244 L 23.0 0.011772256344556808 L 24.0 0.011772256344556808 L 24.0 -0.10531637817621231 L 25.0 -0.10531637817621231 L 25.0 0.0030939322896301746 L 26.0 0.0030939322896301746 L 26.0 -0.4298100471496582 L 27.0 -0.4298100471496582 L 27.0 -0.4699913561344147 L 28.0 -0.4699913561344147 L 28.0 -0.09287669509649277 L 29.0 -0.09287669509649277 L 29.0 -0.0194945577532053 L 30.0 -0.0194945577532053 L 30.0 -0.09359084069728851 L 31.0 -0.09359084069728851 L 31.0 -0.2280748188495636 L 32.0 -0.2280748188495636 L 32.0 -0.8333930373191833 L 33.0 -0.8333930373191833 L 33.0 0.0068531339056789875 L 34.0 0.0068531339056789875 L 34.0 -0.10292943567037582 L 35.0 -0.10292943567037582 L 35.0 -0.5828653573989868 L 36.0 -0.5828653573989868 L 36.0 -0.6060540080070496 L 37.0 -0.6060540080070496 L 37.0 -0.33330392837524414 L 38.0 -0.33330392837524414 L 38.0 -0.11807204782962799 L 39.0 -0.11807204782962799 L 39.0 -0.1090966984629631 L 40.0 -0.1090966984629631 L 40.0 -0.1090966984629631 L 39.0 -0.1090966984629631 L 39.0 -0.11807204782962799 L 38.0 -0.11807204782962799 L 38.0 -0.33330392837524414 L 37.0 -0.33330392837524414 L 37.0 -0.6060540080070496 L 36.0 -0.6060540080070496 L 36.0 -0.5828653573989868 L 35.0 -0.5828653573989868 L 35.0 -0.10292943567037582 L 34.0 -0.10292943567037582 L 34.0 0.0068531339056789875 L 33.0 0.0068531339056789875 L 33.0 -0.8333930373191833 L 32.0 -0.8333930373191833 L 32.0 -0.2280748188495636 L 31.0 -0.2280748188495636 L 31.0 -0.09359084069728851 L 30.0 -0.09359084069728851 L 30.0 -0.0194945577532053 L 29.0 -0.0194945577532053 L 29.0 -0.09287669509649277 L 28.0 -0.09287669509649277 L 28.0 -0.4699913561344147 L 27.0 -0.4699913561344147 L 27.0 -0.4298100471496582 L 26.0 -0.4298100471496582 L 26.0 0.0030939322896301746 L 25.0 0.0030939322896301746 L 25.0 -0.10531637817621231 L 24.0 -0.10531637817621231 L 24.0 0.011772256344556808 L 23.0 0.011772256344556808 L 23.0 -0.28184378147125244 L 22.0 -0.28184378147125244 L 22.0 -0.582054853439331 L 21.0 -0.582054853439331 L 21.0 -0.08715550601482391 L 20.0 -0.08715550601482391 L 20.0 -0.05269346386194229 L 19.0 -0.05269346386194229 L 19.0 -0.013580994680523872 L 18.0 -0.013580994680523872 L 18.0 -1.0121583938598633 L 17.0 -1.0121583938598633 L 17.0 -0.22094006836414337 L 16.0 -0.22094006836414337 L 16.0 -0.535910427570343 L 15.0 -0.535910427570343 L 15.0 0.035258568823337555 L 14.0 0.035258568823337555 L 14.0 0.008307085372507572 L 13.0 0.008307085372507572 L 13.0 -1.2018460035324097 L 12.0 -1.2018460035324097 L 12.0 -0.34697163105010986 L 11.0 -0.34697163105010986 L 11.0 -0.7776458263397217 L 10.0 -0.7776458263397217 L 10.0 -0.022681012749671936 L 9.0 -0.022681012749671936 L 9.0 -0.11955482512712479 L 8.0 -0.11955482512712479 L 8.0 0.5072454810142517 L 7.0 0.5072454810142517 L 7.0 -0.2149645984172821 L 6.0 -0.2149645984172821 L 6.0 -0.02211426943540573 L 5.0 -0.02211426943540573 L 5.0 -0.10459250211715698 L 4.0 -0.10459250211715698 L 4.0 0.00870289746671915 L 3.0 0.00870289746671915 L 3.0 0.6661990284919739 L 2.0 0.6661990284919739 L 2.0 -0.24688246846199036 L 1.0 -0.24688246846199036 L 1.0 0.43861711025238037 L 0.0 0.43861711025238037 Z" style="vector-effect: non-scaling-stroke;" /></g></g><g style="stroke: black;stroke-width: 1.2000000000000002;" transform="matrix(1.0, 0.0, 0.0, 1.0, 0.0, 0.0)"><path d="M 0.0 0.43861711025238037 L 1.0 0.43861711025238037 L 1.0 -0.24688246846199036 L 2.0 -0.24688246846199036 L 2.0 0.6661990284919739 L 3.0 0.6661990284919739 L 3.0 0.00870289746671915 L 4.0 0.00870289746671915 L 4.0 -0.10459250211715698 L 5.0 -0.10459250211715698 L 5.0 -0.02211426943540573 L 6.0 -0.02211426943540573 L 6.0 -0.2149645984172821 L 7.0 -0.2149645984172821 L 7.0 0.5072454810142517 L 8.0 0.5072454810142517 L 8.0 -0.11955482512712479 L 9.0 -0.11955482512712479 L 9.0 -0.022681012749671936 L 10.0 -0.022681012749671936 L 10.0 -0.7776458263397217 L 11.0 -0.7776458263397217 L 11.0 -0.34697163105010986 L 12.0 -0.34697163105010986 L 12.0 -1.2018460035324097 L 13.0 -1.2018460035324097 L 13.0 0.008307085372507572 L 14.0 0.008307085372507572 L 14.0 0.035258568823337555 L 15.0 0.035258568823337555 L 15.0 -0.535910427570343 L 16.0 -0.535910427570343 L 16.0 -0.22094006836414337 L 17.0 -0.22094006836414337 L 17.0 -1.0121583938598633 L 18.0 -1.0121583938598633 L 18.0 -0.013580994680523872 L 19.0 -0.013580994680523872 L 19.0 -0.05269346386194229 L 20.0 -0.05269346386194229 L 20.0 -0.08715550601482391 L 21.0 -0.08715550601482391 L 21.0 -0.582054853439331 L 22.0 -0.582054853439331 L 22.0 -0.28184378147125244 L 23.0 -0.28184378147125244 L 23.0 0.011772256344556808 L 24.0 0.011772256344556808 L 24.0 -0.10531637817621231 L 25.0 -0.10531637817621231 L 25.0 0.0030939322896301746 L 26.0 0.0030939322896301746 L 26.0 -0.4298100471496582 L 27.0 -0.4298100471496582 L 27.0 -0.4699913561344147 L 28.0 -0.4699913561344147 L 28.0 -0.09287669509649277 L 29.0 -0.09287669509649277 L 29.0 -0.0194945577532053 L 30.0 -0.0194945577532053 L 30.0 -0.09359084069728851 L 31.0 -0.09359084069728851 L 31.0 -0.2280748188495636 L 32.0 -0.2280748188495636 L 32.0 -0.8333930373191833 L 33.0 -0.8333930373191833 L 33.0 0.0068531339056789875 L 34.0 0.0068531339056789875 L 34.0 -0.10292943567037582 L 35.0 -0.10292943567037582 L 35.0 -0.5828653573989868 L 36.0 -0.5828653573989868 L 36.0 -0.6060540080070496 L 37.0 -0.6060540080070496 L 37.0 -0.33330392837524414 L 38.0 -0.33330392837524414 L 38.0 -0.11807204782962799 L 39.0 -0.11807204782962799 L 39.0 -0.1090966984629631 L 40.0 -0.1090966984629631" style="vector-effect: non-scaling-stroke;fill:none;" /></g></g></g></g></g></g><g transform="matrix(1.0, 0.0, 0.0, 1.0, -0.19999999999999996, 0.16)"><g transform="matrix(1.0, 0.0, 0.0, 0.009999999999999995, 0.0, 0.0)"><g transform="matrix(0.01, 0.0, 0.0, 1.0, 0.0, 0.0)"><g><g><g style="fill: #0000ff;stroke: #0000ff;stroke-width: 1.2000000000000002;fill-opacity: 0.5;" transform="matrix(1.0, 0.0, 0.0, 1.0, 0.0, 0.0)"><path d="M 0.0 -2.0 L 0.0 2.0" style="vector-effect: non-scaling-stroke;fill:none;" /></g><g style="fill: #0000ff;stroke: #0000ff;stroke-width: 1.2000000000000002;fill-opacity: 0.5;" transform="matrix(1.0, 0.0, 0.0, 1.0, 0.0, 0.0)"><path d="M 0.0 0.43861711025238037 L 1.0 0.43861711025238037 L 1.0 -0.24688246846199036 L 2.0 -0.24688246846199036 L 2.0 0.6661990284919739 L 3.0 0.6661990284919739 L 3.0 0.00870289746671915 L 4.0 0.00870289746671915 L 4.0 -0.10459250211715698 L 5.0 -0.10459250211715698 L 5.0 -0.02211426943540573 L 6.0 -0.02211426943540573 L 6.0 -0.2149645984172821 L 7.0 -0.2149645984172821 L 7.0 0.5072454810142517 L 8.0 0.5072454810142517 L 8.0 -0.11955482512712479 L 9.0 -0.11955482512712479 L 9.0 -0.022681012749671936 L 10.0 -0.022681012749671936 L 10.0 -0.7776458263397217 L 11.0 -0.7776458263397217 L 11.0 -0.34697163105010986 L 12.0 -0.34697163105010986 L 12.0 -1.2018460035324097 L 13.0 -1.2018460035324097 L 13.0 0.008307085372507572 L 14.0 0.008307085372507572 L 14.0 0.035258568823337555 L 15.0 0.035258568823337555 L 15.0 -0.535910427570343 L 16.0 -0.535910427570343 L 16.0 -0.22094006836414337 L 17.0 -0.22094006836414337 L 17.0 -1.0121583938598633 L 18.0 -1.0121583938598633 L 18.0 -0.013580994680523872 L 19.0 -0.013580994680523872 L 19.0 -0.05269346386194229 L 20.0 -0.05269346386194229 L 20.0 -0.08715550601482391 L 21.0 -0.08715550601482391 L 21.0 -0.582054853439331 L 22.0 -0.582054853439331 L 22.0 -0.28184378147125244 L 23.0 -0.28184378147125244 L 23.0 0.011772256344556808 L 24.0 0.011772256344556808 L 24.0 -0.10531637817621231 L 25.0 -0.10531637817621231 L 25.0 0.0030939322896301746 L 26.0 0.0030939322896301746 L 26.0 -0.4298100471496582 L 27.0 -0.4298100471496582 L 27.0 -0.4699913561344147 L 28.0 -0.4699913561344147 L 28.0 -0.09287669509649277 L 29.0 -0.09287669509649277 L 29.0 -0.0194945577532053 L 30.0 -0.0194945577532053 L 30.0 -0.09359084069728851 L 31.0 -0.09359084069728851 L 31.0 -0.2280748188495636 L 32.0 -0.2280748188495636 L 32.0 -0.8333930373191833 L 33.0 -0.8333930373191833 L 33.0 0.0068531339056789875 L 34.0 0.0068531339056789875 L 34.0 -0.10292943567037582 L 35.0 -0.10292943567037582 L 35.0 -0.5828653573989868 L 36.0 -0.5828653573989868 L 36.0 -0.6060540080070496 L 37.0 -0.6060540080070496 L 37.0 -0.33330392837524414 L 38.0 -0.33330392837524414 L 38.0 -0.11807204782962799 L 39.0 -0.11807204782962799 L 39.0 -0.1090966984629631 L 40.0 -0.1090966984629631 L 40.0 -0.1090966984629631 L 39.0 -0.1090966984629631 L 39.0 -0.11807204782962799 L 38.0 -0.11807204782962799 L 38.0 -0.33330392837524414 L 37.0 -0.33330392837524414 L 37.0 -0.6060540080070496 L 36.0 -0.6060540080070496 L 36.0 -0.5828653573989868 L 35.0 -0.5828653573989868 L 35.0 -0.10292943567037582 L 34.0 -0.10292943567037582 L 34.0 0.0068531339056789875 L 33.0 0.0068531339056789875 L 33.0 -0.8333930373191833 L 32.0 -0.8333930373191833 L 32.0 -0.2280748188495636 L 31.0 -0.2280748188495636 L 31.0 -0.09359084069728851 L 30.0 -0.09359084069728851 L 30.0 -0.0194945577532053 L 29.0 -0.0194945577532053 L 29.0 -0.09287669509649277 L 28.0 -0.09287669509649277 L 28.0 -0.4699913561344147 L 27.0 -0.4699913561344147 L 27.0 -0.4298100471496582 L 26.0 -0.4298100471496582 L 26.0 0.0030939322896301746 L 25.0 0.0030939322896301746 L 25.0 -0.10531637817621231 L 24.0 -0.10531637817621231 L 24.0 0.011772256344556808 L 23.0 0.011772256344556808 L 23.0 -0.28184378147125244 L 22.0 -0.28184378147125244 L 22.0 -0.582054853439331 L 21.0 -0.582054853439331 L 21.0 -0.08715550601482391 L 20.0 -0.08715550601482391 L 20.0 -0.05269346386194229 L 19.0 -0.05269346386194229 L 19.0 -0.013580994680523872 L 18.0 -0.013580994680523872 L 18.0 -1.0121583938598633 L 17.0 -1.0121583938598633 L 17.0 -0.22094006836414337 L 16.0 -0.22094006836414337 L 16.0 -0.535910427570343 L 15.0 -0.535910427570343 L 15.0 0.035258568823337555 L 14.0 0.035258568823337555 L 14.0 0.008307085372507572 L 13.0 0.008307085372507572 L 13.0 -1.2018460035324097 L 12.0 -1.2018460035324097 L 12.0 -0.34697163105010986 L 11.0 -0.34697163105010986 L 11.0 -0.7776458263397217 L 10.0 -0.7776458263397217 L 10.0 -0.022681012749671936 L 9.0 -0.022681012749671936 L 9.0 -0.11955482512712479 L 8.0 -0.11955482512712479 L 8.0 0.5072454810142517 L 7.0 0.5072454810142517 L 7.0 -0.2149645984172821 L 6.0 -0.2149645984172821 L 6.0 -0.02211426943540573 L 5.0 -0.02211426943540573 L 5.0 -0.10459250211715698 L 4.0 -0.10459250211715698 L 4.0 0.00870289746671915 L 3.0 0.00870289746671915 L 3.0 0.6661990284919739 L 2.0 0.6661990284919739 L 2.0 -0.24688246846199036 L 1.0 -0.24688246846199036 L 1.0 0.43861711025238037 L 0.0 0.43861711025238037 Z" style="vector-effect: non-scaling-stroke;" /></g></g><g style="stroke: black;stroke-width: 1.2000000000000002;" transform="matrix(1.0, 0.0, 0.0, 1.0, 0.0, 0.0)"><path d="M 0.0 0.43861711025238037 L 1.0 0.43861711025238037 L 1.0 -0.24688246846199036 L 2.0 -0.24688246846199036 L 2.0 0.6661990284919739 L 3.0 0.6661990284919739 L 3.0 0.00870289746671915 L 4.0 0.00870289746671915 L 4.0 -0.10459250211715698 L 5.0 -0.10459250211715698 L 5.0 -0.02211426943540573 L 6.0 -0.02211426943540573 L 6.0 -0.2149645984172821 L 7.0 -0.2149645984172821 L 7.0 0.5072454810142517 L 8.0 0.5072454810142517 L 8.0 -0.11955482512712479 L 9.0 -0.11955482512712479 L 9.0 -0.022681012749671936 L 10.0 -0.022681012749671936 L 10.0 -0.7776458263397217 L 11.0 -0.7776458263397217 L 11.0 -0.34697163105010986 L 12.0 -0.34697163105010986 L 12.0 -1.2018460035324097 L 13.0 -1.2018460035324097 L 13.0 0.008307085372507572 L 14.0 0.008307085372507572 L 14.0 0.035258568823337555 L 15.0 0.035258568823337555 L 15.0 -0.535910427570343 L 16.0 -0.535910427570343 L 16.0 -0.22094006836414337 L 17.0 -0.22094006836414337 L 17.0 -1.0121583938598633 L 18.0 -1.0121583938598633 L 18.0 -0.013580994680523872 L 19.0 -0.013580994680523872 L 19.0 -0.05269346386194229 L 20.0 -0.05269346386194229 L 20.0 -0.08715550601482391 L 21.0 -0.08715550601482391 L 21.0 -0.582054853439331 L 22.0 -0.582054853439331 L 22.0 -0.28184378147125244 L 23.0 -0.28184378147125244 L 23.0 0.011772256344556808 L 24.0 0.011772256344556808 L 24.0 -0.10531637817621231 L 25.0 -0.10531637817621231 L 25.0 0.0030939322896301746 L 26.0 0.0030939322896301746 L 26.0 -0.4298100471496582 L 27.0 -0.4298100471496582 L 27.0 -0.4699913561344147 L 28.0 -0.4699913561344147 L 28.0 -0.09287669509649277 L 29.0 -0.09287669509649277 L 29.0 -0.0194945577532053 L 30.0 -0.0194945577532053 L 30.0 -0.09359084069728851 L 31.0 -0.09359084069728851 L 31.0 -0.2280748188495636 L 32.0 -0.2280748188495636 L 32.0 -0.8333930373191833 L 33.0 -0.8333930373191833 L 33.0 0.0068531339056789875 L 34.0 0.0068531339056789875 L 34.0 -0.10292943567037582 L 35.0 -0.10292943567037582 L 35.0 -0.5828653573989868 L 36.0 -0.5828653573989868 L 36.0 -0.6060540080070496 L 37.0 -0.6060540080070496 L 37.0 -0.33330392837524414 L 38.0 -0.33330392837524414 L 38.0 -0.11807204782962799 L 39.0 -0.11807204782962799 L 39.0 -0.1090966984629631 L 40.0 -0.1090966984629631" style="vector-effect: non-scaling-stroke;fill:none;" /></g></g></g></g></g></g></g></g><g><g><g><g><g><g><g transform="matrix(1.0, 0.0, 0.0, 1.0, -0.4149999999999999, -0.03)"><g><g><g transform="matrix(1.0, 0.0, 0.0, 1.0, 0.075, 0.0)"><g transform="matrix(1.0, 0.0, 0.0, 1.0, 0.0, 0.03)"><g transform="matrix(0.01, 0.0, 0.0, 0.01, 0.0, 0.0)"><g><g><g transform="matrix(1.0, 0.0, 0.0, 1.0, 20.0, 0.0)"><g transform="matrix(1.0, 0.0, 0.0, 1.0, -27.5, -0.0)"><g><g style="fill: #d3d3d3;stroke: black;stroke-width: 1.2000000000000002;" transform="matrix(1.0, 0.0, 0.0, 1.0, 0.0, -3.0)"><path d="M 0.0 0.0 L 55.0 0.0 L 55.0 6.0 L 0.0 6.0 L 0.0 0.0 Z" style="vector-effect: non-scaling-stroke;" /></g><g transform="matrix(1.0, 0.0, 0.0, 1.0, 1.875, 0.0)"><g><g style="stroke: black;stroke-width: 1.2000000000000002;" transform="matrix(1.0, 0.0, 0.0, 1.0, 0.0, 0.0)"><g /></g><g style="fill: #ffa500;stroke: black;stroke-width: 1.2000000000000002;" transform="matrix(1.0, 0.0, 0.0, 1.0, 1.875, 0.0)"><text style="text-align:center; text-anchor:middle; dominant-baseline:middle;&#10;                      font-family:sans-serif; font-weight: bold;&#10;                      font-size:3px;&#10;                      vector-effect: non-scaling-stroke;" transform="translate(-5e-05, 0)">x</text></g></g></g></g></g></g><g><g><g><g><g><g><g><g style="stroke: black;stroke-width: 1.2000000000000002;" transform="matrix(1.0, 0.0, 0.0, 1.0, 0.0, 0.0)"><path d="M 0.0 -2.0 L 0.0 2.0" style="vector-effect: non-scaling-stroke;fill:none;" /></g><g style="stroke: #808080;stroke-width: 0.6000000000000001;" transform="matrix(1.0, 0.0, 0.0, 1.0, 0.0, 0.0)"><path d="M 0.0 0.0 L 40.0 0.0" style="vector-effect: non-scaling-stroke;fill:none;" /></g></g><g style="stroke: black;stroke-width: 2.4000000000000004;" transform="matrix(1.0, 0.0, 0.0, 1.0, 0.0, 0.0)"><path d="M 0.0 0.6294554471969604 L 1.0 0.6294554471969604 L 1.0 -0.7630185484886169 L 2.0 -0.7630185484886169 L 2.0 0.7423406839370728 L 3.0 0.7423406839370728 L 3.0 -0.7195001244544983 L 4.0 -0.7195001244544983 L 4.0 -0.8506177663803101 L 5.0 -0.8506177663803101 L 5.0 -0.04162389412522316 L 6.0 -0.04162389412522316 L 6.0 -0.5394607186317444 L 7.0 -0.5394607186317444 L 7.0 0.6511825919151306 L 8.0 0.6511825919151306 L 8.0 -0.9970746040344238 L 9.0 -0.9970746040344238 L 9.0 -0.3729616403579712 L 10.0 -0.3729616403579712 L 10.0 -1.1159924268722534 L 11.0 -1.1159924268722534 L 11.0 -1.0723556280136108 L 12.0 -1.0723556280136108 L 12.0 -1.3392082452774048 L 13.0 -1.3392082452774048 L 13.0 -0.686776876449585 L 14.0 -0.686776876449585 L 14.0 0.2867467999458313 L 15.0 0.2867467999458313 L 15.0 -1.0087007284164429 L 16.0 -1.0087007284164429 L 16.0 -0.554456353187561 L 17.0 -0.554456353187561 L 17.0 -1.2993707656860352 L 18.0 -1.2993707656860352 L 18.0 -0.1132640615105629 L 19.0 -0.1132640615105629 L 19.0 -0.8664798736572266 L 20.0 -0.8664798736572266 L 20.0 -0.1250760704278946 L 21.0 -0.1250760704278946 L 21.0 -1.7989071607589722 L 22.0 -1.7989071607589722 L 22.0 -0.3140564560890198 L 23.0 -0.3140564560890198 L 23.0 -0.9732550978660583 L 24.0 -0.9732550978660583 L 24.0 -0.8565048575401306 L 25.0 -0.8565048575401306 L 25.0 0.0058234576135873795 L 26.0 0.0058234576135873795 L 26.0 -1.0786224603652954 L 27.0 -1.0786224603652954 L 27.0 -0.603357195854187 L 28.0 -0.603357195854187 L 28.0 -0.774581789970398 L 29.0 -0.774581789970398 L 29.0 -0.32056427001953125 L 30.0 -0.32056427001953125 L 30.0 -0.13431136310100555 L 31.0 -0.13431136310100555 L 31.0 -0.7048913836479187 L 32.0 -0.7048913836479187 L 32.0 -0.9286437630653381 L 33.0 -0.9286437630653381 L 33.0 -0.566573441028595 L 34.0 -0.566573441028595 L 34.0 -0.8370925784111023 L 35.0 -0.8370925784111023 L 35.0 -1.097080111503601 L 36.0 -1.097080111503601 L 36.0 -1.520912528038025 L 37.0 -1.520912528038025 L 37.0 -0.42788299918174744 L 38.0 -0.42788299918174744 L 38.0 -0.9847083687782288 L 39.0 -0.9847083687782288 L 39.0 -1.7939623594284058 L 40.0 -1.7939623594284058" style="vector-effect: non-scaling-stroke;fill:none;" /></g></g><g style="stroke: black;stroke-width: 1.2000000000000002;" transform="matrix(1.0, 0.0, 0.0, 1.0, 0.0, 0.0)"><path d="M 0.0 -2.0 L 0.0 2.0" style="vector-effect: non-scaling-stroke;fill:none;" /></g></g><g style="stroke: black;stroke-width: 1.2000000000000002;" transform="matrix(1.0, 0.0, 0.0, 1.0, 0.0, 0.0)"><path d="M 10.0 -2.0 L 10.0 2.0" style="vector-effect: non-scaling-stroke;fill:none;" /></g></g><g style="stroke: black;stroke-width: 1.2000000000000002;" transform="matrix(1.0, 0.0, 0.0, 1.0, 0.0, 0.0)"><path d="M 20.0 -2.0 L 20.0 2.0" style="vector-effect: non-scaling-stroke;fill:none;" /></g></g><g style="stroke: black;stroke-width: 1.2000000000000002;" transform="matrix(1.0, 0.0, 0.0, 1.0, 0.0, 0.0)"><path d="M 30.0 -2.0 L 30.0 2.0" style="vector-effect: non-scaling-stroke;fill:none;" /></g></g></g></g><g><g><g><g><g><g><g><g style="stroke: black;stroke-width: 1.2000000000000002;" transform="matrix(1.0, 0.0, 0.0, 1.0, 0.0, 0.0)"><path d="M 0.0 -2.0 L 0.0 2.0" style="vector-effect: non-scaling-stroke;fill:none;" /></g><g style="stroke: #808080;stroke-width: 0.6000000000000001;" transform="matrix(1.0, 0.0, 0.0, 1.0, 0.0, 0.0)"><path d="M 0.0 0.0 L 40.0 0.0" style="vector-effect: non-scaling-stroke;fill:none;" /></g></g><g style="stroke: black;stroke-width: 2.4000000000000004;" transform="matrix(1.0, 0.0, 0.0, 1.0, 0.0, 0.0)"><path d="M 0.0 0.6294554471969604 L 1.0 0.6294554471969604 L 1.0 -0.7630185484886169 L 2.0 -0.7630185484886169 L 2.0 0.7423406839370728 L 3.0 0.7423406839370728 L 3.0 -0.7195001244544983 L 4.0 -0.7195001244544983 L 4.0 -0.8506177663803101 L 5.0 -0.8506177663803101 L 5.0 -0.04162389412522316 L 6.0 -0.04162389412522316 L 6.0 -0.5394607186317444 L 7.0 -0.5394607186317444 L 7.0 0.6511825919151306 L 8.0 0.6511825919151306 L 8.0 -0.9970746040344238 L 9.0 -0.9970746040344238 L 9.0 -0.3729616403579712 L 10.0 -0.3729616403579712 L 10.0 -1.1159924268722534 L 11.0 -1.1159924268722534 L 11.0 -1.0723556280136108 L 12.0 -1.0723556280136108 L 12.0 -1.3392082452774048 L 13.0 -1.3392082452774048 L 13.0 -0.686776876449585 L 14.0 -0.686776876449585 L 14.0 0.2867467999458313 L 15.0 0.2867467999458313 L 15.0 -1.0087007284164429 L 16.0 -1.0087007284164429 L 16.0 -0.554456353187561 L 17.0 -0.554456353187561 L 17.0 -1.2993707656860352 L 18.0 -1.2993707656860352 L 18.0 -0.1132640615105629 L 19.0 -0.1132640615105629 L 19.0 -0.8664798736572266 L 20.0 -0.8664798736572266 L 20.0 -0.1250760704278946 L 21.0 -0.1250760704278946 L 21.0 -1.7989071607589722 L 22.0 -1.7989071607589722 L 22.0 -0.3140564560890198 L 23.0 -0.3140564560890198 L 23.0 -0.9732550978660583 L 24.0 -0.9732550978660583 L 24.0 -0.8565048575401306 L 25.0 -0.8565048575401306 L 25.0 0.0058234576135873795 L 26.0 0.0058234576135873795 L 26.0 -1.0786224603652954 L 27.0 -1.0786224603652954 L 27.0 -0.603357195854187 L 28.0 -0.603357195854187 L 28.0 -0.774581789970398 L 29.0 -0.774581789970398 L 29.0 -0.32056427001953125 L 30.0 -0.32056427001953125 L 30.0 -0.13431136310100555 L 31.0 -0.13431136310100555 L 31.0 -0.7048913836479187 L 32.0 -0.7048913836479187 L 32.0 -0.9286437630653381 L 33.0 -0.9286437630653381 L 33.0 -0.566573441028595 L 34.0 -0.566573441028595 L 34.0 -0.8370925784111023 L 35.0 -0.8370925784111023 L 35.0 -1.097080111503601 L 36.0 -1.097080111503601 L 36.0 -1.520912528038025 L 37.0 -1.520912528038025 L 37.0 -0.42788299918174744 L 38.0 -0.42788299918174744 L 38.0 -0.9847083687782288 L 39.0 -0.9847083687782288 L 39.0 -1.7939623594284058 L 40.0 -1.7939623594284058" style="vector-effect: non-scaling-stroke;fill:none;" /></g></g><g style="stroke: black;stroke-width: 1.2000000000000002;" transform="matrix(1.0, 0.0, 0.0, 1.0, 0.0, 0.0)"><path d="M 0.0 -2.0 L 0.0 2.0" style="vector-effect: non-scaling-stroke;fill:none;" /></g></g><g style="stroke: black;stroke-width: 1.2000000000000002;" transform="matrix(1.0, 0.0, 0.0, 1.0, 0.0, 0.0)"><path d="M 10.0 -2.0 L 10.0 2.0" style="vector-effect: non-scaling-stroke;fill:none;" /></g></g><g style="stroke: black;stroke-width: 1.2000000000000002;" transform="matrix(1.0, 0.0, 0.0, 1.0, 0.0, 0.0)"><path d="M 20.0 -2.0 L 20.0 2.0" style="vector-effect: non-scaling-stroke;fill:none;" /></g></g><g style="stroke: black;stroke-width: 1.2000000000000002;" transform="matrix(1.0, 0.0, 0.0, 1.0, 0.0, 0.0)"><path d="M 30.0 -2.0 L 30.0 2.0" style="vector-effect: non-scaling-stroke;fill:none;" /></g></g></g></g></g></g></g><g style="stroke: black;stroke-width: 1.2000000000000002;" transform="matrix(1.0, 0.0, 0.0, 1.0, 0.565, 0.0)"><g /></g></g><g transform="matrix(1.0, 0.0, 0.0, 1.0, 0.58, 0.0)"><g transform="matrix(1.0, 0.0, 0.0, 1.0, 0.075, 0.0)"><g transform="matrix(1.0, 0.0, 0.0, 1.0, 0.0, 0.03)"><g transform="matrix(0.01, 0.0, 0.0, 0.01, 0.0, 0.0)"><g><g><g transform="matrix(1.0, 0.0, 0.0, 1.0, 5.0, 0.0)"><g transform="matrix(1.0, 0.0, 0.0, 1.0, -12.5, -0.0)"><g><g style="fill: #d3d3d3;stroke: black;stroke-width: 1.2000000000000002;" transform="matrix(1.0, 0.0, 0.0, 1.0, 0.0, -3.0)"><path d="M 0.0 0.0 L 25.0 0.0 L 25.0 6.0 L 0.0 6.0 L 0.0 0.0 Z" style="vector-effect: non-scaling-stroke;" /></g><g transform="matrix(1.0, 0.0, 0.0, 1.0, 1.875, 0.0)"><g><g style="stroke: black;stroke-width: 1.2000000000000002;" transform="matrix(1.0, 0.0, 0.0, 1.0, 0.0, 0.0)"><g /></g><g style="fill: #ffa500;stroke: black;stroke-width: 1.2000000000000002;" transform="matrix(1.0, 0.0, 0.0, 1.0, 1.875, 0.0)"><text style="text-align:center; text-anchor:middle; dominant-baseline:middle;&#10;                      font-family:sans-serif; font-weight: bold;&#10;                      font-size:3px;&#10;                      vector-effect: non-scaling-stroke;" transform="translate(-5e-05, 0)">y</text></g></g></g></g></g></g><g><g><g><g style="stroke: black;stroke-width: 1.2000000000000002;" transform="matrix(1.0, 0.0, 0.0, 1.0, 0.0, 0.0)"><path d="M 0.0 -2.0 L 0.0 2.0" style="vector-effect: non-scaling-stroke;fill:none;" /></g><g style="stroke: #808080;stroke-width: 0.6000000000000001;" transform="matrix(1.0, 0.0, 0.0, 1.0, 0.0, 0.0)"><path d="M 0.0 0.0 L 10.0 0.0" style="vector-effect: non-scaling-stroke;fill:none;" /></g></g><g style="stroke: black;stroke-width: 2.4000000000000004;" transform="matrix(1.0, 0.0, 0.0, 1.0, 0.0, 0.0)"><path d="M 0.0 -1.3936399221420288 L 1.0 -1.3936399221420288 L 1.0 -0.647120475769043 L 2.0 -0.647120475769043 L 2.0 -1.794860601425171 L 3.0 -1.794860601425171 L 3.0 0.024191511794924736 L 4.0 0.024191511794924736 L 4.0 -0.2459212690591812 L 5.0 -0.2459212690591812 L 5.0 -1.0625756978988647 L 6.0 -1.0625756978988647 L 6.0 -0.7969610691070557 L 7.0 -0.7969610691070557 L 7.0 -1.5579208135604858 L 8.0 -1.5579208135604858 L 8.0 -0.23981119692325592 L 9.0 -0.23981119692325592 L 9.0 -0.12162651866674423 L 10.0 -0.12162651866674423" style="vector-effect: non-scaling-stroke;fill:none;" /></g></g></g></g><g><g><g><g style="stroke: black;stroke-width: 1.2000000000000002;" transform="matrix(1.0, 0.0, 0.0, 1.0, 0.0, 0.0)"><path d="M 0.0 -2.0 L 0.0 2.0" style="vector-effect: non-scaling-stroke;fill:none;" /></g><g style="stroke: #808080;stroke-width: 0.6000000000000001;" transform="matrix(1.0, 0.0, 0.0, 1.0, 0.0, 0.0)"><path d="M 0.0 0.0 L 10.0 0.0" style="vector-effect: non-scaling-stroke;fill:none;" /></g></g><g style="stroke: black;stroke-width: 2.4000000000000004;" transform="matrix(1.0, 0.0, 0.0, 1.0, 0.0, 0.0)"><path d="M 0.0 -1.3936399221420288 L 1.0 -1.3936399221420288 L 1.0 -0.647120475769043 L 2.0 -0.647120475769043 L 2.0 -1.794860601425171 L 3.0 -1.794860601425171 L 3.0 0.024191511794924736 L 4.0 0.024191511794924736 L 4.0 -0.2459212690591812 L 5.0 -0.2459212690591812 L 5.0 -1.0625756978988647 L 6.0 -1.0625756978988647 L 6.0 -0.7969610691070557 L 7.0 -0.7969610691070557 L 7.0 -1.5579208135604858 L 8.0 -1.5579208135604858 L 8.0 -0.23981119692325592 L 9.0 -0.23981119692325592 L 9.0 -0.12162651866674423 L 10.0 -0.12162651866674423" style="vector-effect: non-scaling-stroke;fill:none;" /></g></g></g></g></g></g></g></g></g></g><g style="stroke: black;stroke-width: 1.2000000000000002;" transform="matrix(0.0, -1.0, 1.0, 0.0, 0.0, 0.08)"><g /></g></g><g transform="matrix(1.0, 0.0, 0.0, 1.0, 0.0, 0.16)"><g transform="matrix(1.0, 0.0, 0.0, 1.0, -0.27499999999999997, -0.03)"><g transform="matrix(1.0, 0.0, 0.0, 1.0, 0.075, 0.0)"><g transform="matrix(1.0, 0.0, 0.0, 1.0, 0.0, 0.03)"><g transform="matrix(0.01, 0.0, 0.0, 0.01, 0.0, 0.0)"><g><g><g transform="matrix(1.0, 0.0, 0.0, 1.0, 20.0, 0.0)"><g transform="matrix(1.0, 0.0, 0.0, 1.0, -27.5, -0.0)"><g><g style="fill: #d3d3d3;stroke: black;stroke-width: 1.2000000000000002;" transform="matrix(1.0, 0.0, 0.0, 1.0, 0.0, -3.0)"><path d="M 0.0 0.0 L 55.0 0.0 L 55.0 6.0 L 0.0 6.0 L 0.0 0.0 Z" style="vector-effect: non-scaling-stroke;" /></g><g transform="matrix(1.0, 0.0, 0.0, 1.0, 1.875, 0.0)"><g><g style="stroke: black;stroke-width: 1.2000000000000002;" transform="matrix(1.0, 0.0, 0.0, 1.0, 0.0, 0.0)"><g /></g><g style="fill: #ffa500;stroke: black;stroke-width: 1.2000000000000002;" transform="matrix(1.0, 0.0, 0.0, 1.0, 1.875, 0.0)"><text style="text-align:center; text-anchor:middle; dominant-baseline:middle;&#10;                      font-family:sans-serif; font-weight: bold;&#10;                      font-size:3px;&#10;                      vector-effect: non-scaling-stroke;" transform="translate(-5e-05, 0)">f(x)</text></g></g></g></g></g></g><g><g><g><g style="stroke: black;stroke-width: 1.2000000000000002;" transform="matrix(1.0, 0.0, 0.0, 1.0, 0.0, 0.0)"><path d="M 0.0 -2.0 L 0.0 2.0" style="vector-effect: non-scaling-stroke;fill:none;" /></g><g style="stroke: #808080;stroke-width: 0.6000000000000001;" transform="matrix(1.0, 0.0, 0.0, 1.0, 0.0, 0.0)"><path d="M 0.0 0.0 L 40.0 0.0" style="vector-effect: non-scaling-stroke;fill:none;" /></g></g><g style="stroke: black;stroke-width: 2.4000000000000004;" transform="matrix(1.0, 0.0, 0.0, 1.0, 0.0, 0.0)"><path d="M 0.0 0.43861711025238037 L 1.0 0.43861711025238037 L 1.0 -0.24688246846199036 L 2.0 -0.24688246846199036 L 2.0 0.6661990284919739 L 3.0 0.6661990284919739 L 3.0 0.00870289746671915 L 4.0 0.00870289746671915 L 4.0 -0.10459250211715698 L 5.0 -0.10459250211715698 L 5.0 -0.02211426943540573 L 6.0 -0.02211426943540573 L 6.0 -0.2149645984172821 L 7.0 -0.2149645984172821 L 7.0 0.5072454810142517 L 8.0 0.5072454810142517 L 8.0 -0.11955482512712479 L 9.0 -0.11955482512712479 L 9.0 -0.022681012749671936 L 10.0 -0.022681012749671936 L 10.0 -0.7776458263397217 L 11.0 -0.7776458263397217 L 11.0 -0.34697163105010986 L 12.0 -0.34697163105010986 L 12.0 -1.2018460035324097 L 13.0 -1.2018460035324097 L 13.0 0.008307085372507572 L 14.0 0.008307085372507572 L 14.0 0.035258568823337555 L 15.0 0.035258568823337555 L 15.0 -0.535910427570343 L 16.0 -0.535910427570343 L 16.0 -0.22094006836414337 L 17.0 -0.22094006836414337 L 17.0 -1.0121583938598633 L 18.0 -1.0121583938598633 L 18.0 -0.013580994680523872 L 19.0 -0.013580994680523872 L 19.0 -0.05269346386194229 L 20.0 -0.05269346386194229 L 20.0 -0.08715550601482391 L 21.0 -0.08715550601482391 L 21.0 -0.582054853439331 L 22.0 -0.582054853439331 L 22.0 -0.28184378147125244 L 23.0 -0.28184378147125244 L 23.0 0.011772256344556808 L 24.0 0.011772256344556808 L 24.0 -0.10531637817621231 L 25.0 -0.10531637817621231 L 25.0 0.0030939322896301746 L 26.0 0.0030939322896301746 L 26.0 -0.4298100471496582 L 27.0 -0.4298100471496582 L 27.0 -0.4699913561344147 L 28.0 -0.4699913561344147 L 28.0 -0.09287669509649277 L 29.0 -0.09287669509649277 L 29.0 -0.0194945577532053 L 30.0 -0.0194945577532053 L 30.0 -0.09359084069728851 L 31.0 -0.09359084069728851 L 31.0 -0.2280748188495636 L 32.0 -0.2280748188495636 L 32.0 -0.8333930373191833 L 33.0 -0.8333930373191833 L 33.0 0.0068531339056789875 L 34.0 0.0068531339056789875 L 34.0 -0.10292943567037582 L 35.0 -0.10292943567037582 L 35.0 -0.5828653573989868 L 36.0 -0.5828653573989868 L 36.0 -0.6060540080070496 L 37.0 -0.6060540080070496 L 37.0 -0.33330392837524414 L 38.0 -0.33330392837524414 L 38.0 -0.11807204782962799 L 39.0 -0.11807204782962799 L 39.0 -0.1090966984629631 L 40.0 -0.1090966984629631" style="vector-effect: non-scaling-stroke;fill:none;" /></g></g></g></g><g><g><g><g style="stroke: black;stroke-width: 1.2000000000000002;" transform="matrix(1.0, 0.0, 0.0, 1.0, 0.0, 0.0)"><path d="M 0.0 -2.0 L 0.0 2.0" style="vector-effect: non-scaling-stroke;fill:none;" /></g><g style="stroke: #808080;stroke-width: 0.6000000000000001;" transform="matrix(1.0, 0.0, 0.0, 1.0, 0.0, 0.0)"><path d="M 0.0 0.0 L 40.0 0.0" style="vector-effect: non-scaling-stroke;fill:none;" /></g></g><g style="stroke: black;stroke-width: 2.4000000000000004;" transform="matrix(1.0, 0.0, 0.0, 1.0, 0.0, 0.0)"><path d="M 0.0 0.43861711025238037 L 1.0 0.43861711025238037 L 1.0 -0.24688246846199036 L 2.0 -0.24688246846199036 L 2.0 0.6661990284919739 L 3.0 0.6661990284919739 L 3.0 0.00870289746671915 L 4.0 0.00870289746671915 L 4.0 -0.10459250211715698 L 5.0 -0.10459250211715698 L 5.0 -0.02211426943540573 L 6.0 -0.02211426943540573 L 6.0 -0.2149645984172821 L 7.0 -0.2149645984172821 L 7.0 0.5072454810142517 L 8.0 0.5072454810142517 L 8.0 -0.11955482512712479 L 9.0 -0.11955482512712479 L 9.0 -0.022681012749671936 L 10.0 -0.022681012749671936 L 10.0 -0.7776458263397217 L 11.0 -0.7776458263397217 L 11.0 -0.34697163105010986 L 12.0 -0.34697163105010986 L 12.0 -1.2018460035324097 L 13.0 -1.2018460035324097 L 13.0 0.008307085372507572 L 14.0 0.008307085372507572 L 14.0 0.035258568823337555 L 15.0 0.035258568823337555 L 15.0 -0.535910427570343 L 16.0 -0.535910427570343 L 16.0 -0.22094006836414337 L 17.0 -0.22094006836414337 L 17.0 -1.0121583938598633 L 18.0 -1.0121583938598633 L 18.0 -0.013580994680523872 L 19.0 -0.013580994680523872 L 19.0 -0.05269346386194229 L 20.0 -0.05269346386194229 L 20.0 -0.08715550601482391 L 21.0 -0.08715550601482391 L 21.0 -0.582054853439331 L 22.0 -0.582054853439331 L 22.0 -0.28184378147125244 L 23.0 -0.28184378147125244 L 23.0 0.011772256344556808 L 24.0 0.011772256344556808 L 24.0 -0.10531637817621231 L 25.0 -0.10531637817621231 L 25.0 0.0030939322896301746 L 26.0 0.0030939322896301746 L 26.0 -0.4298100471496582 L 27.0 -0.4298100471496582 L 27.0 -0.4699913561344147 L 28.0 -0.4699913561344147 L 28.0 -0.09287669509649277 L 29.0 -0.09287669509649277 L 29.0 -0.0194945577532053 L 30.0 -0.0194945577532053 L 30.0 -0.09359084069728851 L 31.0 -0.09359084069728851 L 31.0 -0.2280748188495636 L 32.0 -0.2280748188495636 L 32.0 -0.8333930373191833 L 33.0 -0.8333930373191833 L 33.0 0.0068531339056789875 L 34.0 0.0068531339056789875 L 34.0 -0.10292943567037582 L 35.0 -0.10292943567037582 L 35.0 -0.5828653573989868 L 36.0 -0.5828653573989868 L 36.0 -0.6060540080070496 L 37.0 -0.6060540080070496 L 37.0 -0.33330392837524414 L 38.0 -0.33330392837524414 L 38.0 -0.11807204782962799 L 39.0 -0.11807204782962799 L 39.0 -0.1090966984629631 L 40.0 -0.1090966984629631" style="vector-effect: non-scaling-stroke;fill:none;" /></g></g></g></g></g></g></g></g></g></g><g transform="matrix(1.0, 0.0, 0.0, 1.0, -0.19999999999999996, 0.16)"><g transform="matrix(1.0, 0.0, 0.0, 0.009999999999999995, 0.0, 0.0)"><g transform="matrix(0.01, 0.0, 0.0, 1.0, 0.0, 0.0)"><g><g><g style="fill: #ffffe0;stroke: #ffffe0;stroke-width: 1.2000000000000002;fill-opacity: 0.5;" transform="matrix(1.0, 0.0, 0.0, 1.0, 0.0, 0.0)"><path d="M 0.0 -2.0 L 0.0 2.0" style="vector-effect: non-scaling-stroke;fill:none;" /></g><g style="fill: #ffffe0;stroke: #ffffe0;stroke-width: 1.2000000000000002;fill-opacity: 0.5;" transform="matrix(1.0, 0.0, 0.0, 1.0, 0.0, 0.0)"><path d="M 0.0 -0.9561315774917603 L 1.0 -0.9561315774917603 L 1.0 -0.895082950592041 L 2.0 -0.895082950592041 L 2.0 -1.1338613033294678 L 3.0 -1.1338613033294678 L 3.0 0.033010415732860565 L 4.0 0.033010415732860565 L 4.0 -0.3504616618156433 L 5.0 -0.3504616618156433 L 5.0 -1.084753394126892 L 6.0 -1.084753394126892 L 6.0 -1.012176752090454 L 7.0 -1.012176752090454 L 7.0 -1.054396152496338 L 8.0 -1.054396152496338 L 8.0 -0.36020857095718384 L 9.0 -0.36020857095718384 L 9.0 -0.14431174099445343 L 10.0 -0.14431174099445343 L 10.0 -2.0 L 11.0 -2.0 L 11.0 -0.9966622591018677 L 12.0 -0.9966622591018677 L 12.0 -2.0 L 13.0 -2.0 L 13.0 0.03252147138118744 L 14.0 0.03252147138118744 L 14.0 -0.21061059832572937 L 15.0 -0.21061059832572937 L 15.0 -1.6028335094451904 L 16.0 -1.6028335094451904 L 16.0 -1.0181522369384766 L 17.0 -1.0181522369384766 L 17.0 -2.0 L 18.0 -2.0 L 18.0 -0.25339657068252563 L 19.0 -0.25339657068252563 L 19.0 -0.17451044917106628 L 20.0 -0.17451044917106628 L 20.0 -1.4804140329360962 L 21.0 -1.4804140329360962 L 21.0 -1.2257850170135498 L 22.0 -1.2257850170135498 L 22.0 -2.0 L 23.0 -2.0 L 23.0 0.03598664328455925 L 24.0 0.03598664328455925 L 24.0 -0.3519305884838104 L 25.0 -0.3519305884838104 L 25.0 -1.0594985485076904 L 26.0 -1.0594985485076904 L 26.0 -1.2285122871398926 L 27.0 -1.2285122871398926 L 27.0 -2.0 L 28.0 -2.0 L 28.0 -0.33278539776802063 L 29.0 -0.33278539776802063 L 29.0 -0.14112529158592224 L 30.0 -0.14112529158592224 L 30.0 -1.4868494272232056 L 31.0 -1.4868494272232056 L 31.0 -0.8762753009796143 L 32.0 -0.8762753009796143 L 32.0 -2.0 L 33.0 -2.0 L 33.0 0.031114086508750916 L 34.0 0.031114086508750916 L 34.0 -0.34879860281944275 L 35.0 -0.34879860281944275 L 35.0 -1.64382803440094 L 36.0 -1.64382803440094 L 36.0 -1.4047563076019287 L 37.0 -1.4047563076019287 L 37.0 -1.8889851570129395 L 38.0 -1.8889851570129395 L 38.0 -0.35798072814941406 L 39.0 -0.35798072814941406 L 39.0 -0.2305411696434021 L 40.0 -0.2305411696434021 L 40.0 -0.1090966984629631 L 39.0 -0.1090966984629631 L 39.0 -0.11807204782962799 L 38.0 -0.11807204782962799 L 38.0 -0.33330392837524414 L 37.0 -0.33330392837524414 L 37.0 -0.6060540080070496 L 36.0 -0.6060540080070496 L 36.0 -0.5828653573989868 L 35.0 -0.5828653573989868 L 35.0 -0.10292943567037582 L 34.0 -0.10292943567037582 L 34.0 0.0068531339056789875 L 33.0 0.0068531339056789875 L 33.0 -0.8333930373191833 L 32.0 -0.8333930373191833 L 32.0 -0.2280748188495636 L 31.0 -0.2280748188495636 L 31.0 -0.09359084069728851 L 30.0 -0.09359084069728851 L 30.0 -0.0194945577532053 L 29.0 -0.0194945577532053 L 29.0 -0.09287669509649277 L 28.0 -0.09287669509649277 L 28.0 -0.4699913561344147 L 27.0 -0.4699913561344147 L 27.0 -0.4298100471496582 L 26.0 -0.4298100471496582 L 26.0 0.0030939322896301746 L 25.0 0.0030939322896301746 L 25.0 -0.10531637817621231 L 24.0 -0.10531637817621231 L 24.0 0.011772256344556808 L 23.0 0.011772256344556808 L 23.0 -0.28184378147125244 L 22.0 -0.28184378147125244 L 22.0 -0.582054853439331 L 21.0 -0.582054853439331 L 21.0 -0.08715550601482391 L 20.0 -0.08715550601482391 L 20.0 -0.05269346386194229 L 19.0 -0.05269346386194229 L 19.0 -0.013580994680523872 L 18.0 -0.013580994680523872 L 18.0 -1.0121583938598633 L 17.0 -1.0121583938598633 L 17.0 -0.22094006836414337 L 16.0 -0.22094006836414337 L 16.0 -0.535910427570343 L 15.0 -0.535910427570343 L 15.0 0.035258568823337555 L 14.0 0.035258568823337555 L 14.0 0.008307085372507572 L 13.0 0.008307085372507572 L 13.0 -1.2018460035324097 L 12.0 -1.2018460035324097 L 12.0 -0.34697163105010986 L 11.0 -0.34697163105010986 L 11.0 -0.7776458263397217 L 10.0 -0.7776458263397217 L 10.0 -0.022681012749671936 L 9.0 -0.022681012749671936 L 9.0 -0.11955482512712479 L 8.0 -0.11955482512712479 L 8.0 0.5072454810142517 L 7.0 0.5072454810142517 L 7.0 -0.2149645984172821 L 6.0 -0.2149645984172821 L 6.0 -0.02211426943540573 L 5.0 -0.02211426943540573 L 5.0 -0.10459250211715698 L 4.0 -0.10459250211715698 L 4.0 0.00870289746671915 L 3.0 0.00870289746671915 L 3.0 0.6661990284919739 L 2.0 0.6661990284919739 L 2.0 -0.24688246846199036 L 1.0 -0.24688246846199036 L 1.0 0.43861711025238037 L 0.0 0.43861711025238037 Z" style="vector-effect: non-scaling-stroke;" /></g></g><g style="stroke: black;stroke-width: 1.2000000000000002;" transform="matrix(1.0, 0.0, 0.0, 1.0, 0.0, 0.0)"><path d="M 0.0 0.43861711025238037 L 1.0 0.43861711025238037 L 1.0 -0.24688246846199036 L 2.0 -0.24688246846199036 L 2.0 0.6661990284919739 L 3.0 0.6661990284919739 L 3.0 0.00870289746671915 L 4.0 0.00870289746671915 L 4.0 -0.10459250211715698 L 5.0 -0.10459250211715698 L 5.0 -0.02211426943540573 L 6.0 -0.02211426943540573 L 6.0 -0.2149645984172821 L 7.0 -0.2149645984172821 L 7.0 0.5072454810142517 L 8.0 0.5072454810142517 L 8.0 -0.11955482512712479 L 9.0 -0.11955482512712479 L 9.0 -0.022681012749671936 L 10.0 -0.022681012749671936 L 10.0 -0.7776458263397217 L 11.0 -0.7776458263397217 L 11.0 -0.34697163105010986 L 12.0 -0.34697163105010986 L 12.0 -1.2018460035324097 L 13.0 -1.2018460035324097 L 13.0 0.008307085372507572 L 14.0 0.008307085372507572 L 14.0 0.035258568823337555 L 15.0 0.035258568823337555 L 15.0 -0.535910427570343 L 16.0 -0.535910427570343 L 16.0 -0.22094006836414337 L 17.0 -0.22094006836414337 L 17.0 -1.0121583938598633 L 18.0 -1.0121583938598633 L 18.0 -0.013580994680523872 L 19.0 -0.013580994680523872 L 19.0 -0.05269346386194229 L 20.0 -0.05269346386194229 L 20.0 -0.08715550601482391 L 21.0 -0.08715550601482391 L 21.0 -0.582054853439331 L 22.0 -0.582054853439331 L 22.0 -0.28184378147125244 L 23.0 -0.28184378147125244 L 23.0 0.011772256344556808 L 24.0 0.011772256344556808 L 24.0 -0.10531637817621231 L 25.0 -0.10531637817621231 L 25.0 0.0030939322896301746 L 26.0 0.0030939322896301746 L 26.0 -0.4298100471496582 L 27.0 -0.4298100471496582 L 27.0 -0.4699913561344147 L 28.0 -0.4699913561344147 L 28.0 -0.09287669509649277 L 29.0 -0.09287669509649277 L 29.0 -0.0194945577532053 L 30.0 -0.0194945577532053 L 30.0 -0.09359084069728851 L 31.0 -0.09359084069728851 L 31.0 -0.2280748188495636 L 32.0 -0.2280748188495636 L 32.0 -0.8333930373191833 L 33.0 -0.8333930373191833 L 33.0 0.0068531339056789875 L 34.0 0.0068531339056789875 L 34.0 -0.10292943567037582 L 35.0 -0.10292943567037582 L 35.0 -0.5828653573989868 L 36.0 -0.5828653573989868 L 36.0 -0.6060540080070496 L 37.0 -0.6060540080070496 L 37.0 -0.33330392837524414 L 38.0 -0.33330392837524414 L 38.0 -0.11807204782962799 L 39.0 -0.11807204782962799 L 39.0 -0.1090966984629631 L 40.0 -0.1090966984629631" style="vector-effect: non-scaling-stroke;fill:none;" /></g></g></g></g></g></g><g transform="matrix(1.0, 0.0, 0.0, 1.0, -0.19999999999999996, 0.16)"><g transform="matrix(1.0, 0.0, 0.0, 0.009999999999999995, 0.0, 0.0)"><g transform="matrix(0.01, 0.0, 0.0, 1.0, 0.0, 0.0)"><g><g><g style="fill: #add8e6;stroke: #add8e6;stroke-width: 1.2000000000000002;fill-opacity: 0.5;" transform="matrix(1.0, 0.0, 0.0, 1.0, 0.0, 0.0)"><path d="M 0.0 -2.0 L 0.0 2.0" style="vector-effect: non-scaling-stroke;fill:none;" /></g><g style="fill: #add8e6;stroke: #add8e6;stroke-width: 1.2000000000000002;fill-opacity: 0.5;" transform="matrix(1.0, 0.0, 0.0, 1.0, 0.0, 0.0)"><path d="M 0.0 1.070426344871521 L 1.0 1.070426344871521 L 1.0 -1.009821891784668 L 2.0 -1.009821891784668 L 2.0 1.411257028579712 L 3.0 1.411257028579712 L 3.0 -0.7107438445091248 L 4.0 -0.7107438445091248 L 4.0 -0.9547037482261658 L 5.0 -0.9547037482261658 L 5.0 -0.06383752077817917 L 6.0 -0.06383752077817917 L 6.0 -0.7543866634368896 L 7.0 -0.7543866634368896 L 7.0 1.1569361686706543 L 8.0 1.1569361686706543 L 8.0 -1.1164425611495972 L 9.0 -1.1164425611495972 L 9.0 -0.39558255672454834 L 10.0 -0.39558255672454834 L 10.0 -1.8922526836395264 L 11.0 -1.8922526836395264 L 11.0 -1.4228354692459106 L 12.0 -1.4228354692459106 L 12.0 -2.0 L 13.0 -2.0 L 13.0 -0.6784501671791077 L 14.0 -0.6784501671791077 L 14.0 0.32210591435432434 L 15.0 0.32210591435432434 L 15.0 -1.5491893291473389 L 16.0 -1.5491893291473389 L 16.0 -0.775263249874115 L 17.0 -0.775263249874115 L 17.0 -2.0 L 18.0 -2.0 L 18.0 -0.1268298178911209 L 19.0 -0.1268298178911209 L 19.0 -0.9191960096359253 L 20.0 -0.9191960096359253 L 20.0 -0.21232526004314423 L 21.0 -0.21232526004314423 L 21.0 -2.0 L 22.0 -2.0 L 22.0 -0.5947681665420532 L 23.0 -0.5947681665420532 L 23.0 -0.9614598155021667 L 24.0 -0.9614598155021667 L 24.0 -0.9621331691741943 L 25.0 -0.9621331691741943 L 25.0 0.008914697915315628 L 26.0 0.008914697915315628 L 26.0 -1.511634349822998 L 27.0 -1.511634349822998 L 27.0 -1.0749784708023071 L 28.0 -1.0749784708023071 L 28.0 -0.8669919967651367 L 29.0 -0.8669919967651367 L 29.0 -0.34005579352378845 L 30.0 -0.34005579352378845 L 30.0 -0.22770129144191742 L 31.0 -0.22770129144191742 L 31.0 -0.9343898296356201 L 32.0 -0.9343898296356201 L 32.0 -1.7632255554199219 L 33.0 -1.7632255554199219 L 33.0 -0.5596703886985779 L 34.0 -0.5596703886985779 L 34.0 -0.9396296143531799 L 35.0 -0.9396296143531799 L 35.0 -1.6795908212661743 L 36.0 -1.6795908212661743 L 36.0 -2.0 L 37.0 -2.0 L 37.0 -0.7594771385192871 L 38.0 -0.7594771385192871 L 38.0 -1.1022937297821045 L 39.0 -1.1022937297821045 L 39.0 -1.9024513959884644 L 40.0 -1.9024513959884644 L 40.0 -0.1090966984629631 L 39.0 -0.1090966984629631 L 39.0 -0.11807204782962799 L 38.0 -0.11807204782962799 L 38.0 -0.33330392837524414 L 37.0 -0.33330392837524414 L 37.0 -0.6060540080070496 L 36.0 -0.6060540080070496 L 36.0 -0.5828653573989868 L 35.0 -0.5828653573989868 L 35.0 -0.10292943567037582 L 34.0 -0.10292943567037582 L 34.0 0.0068531339056789875 L 33.0 0.0068531339056789875 L 33.0 -0.8333930373191833 L 32.0 -0.8333930373191833 L 32.0 -0.2280748188495636 L 31.0 -0.2280748188495636 L 31.0 -0.09359084069728851 L 30.0 -0.09359084069728851 L 30.0 -0.0194945577532053 L 29.0 -0.0194945577532053 L 29.0 -0.09287669509649277 L 28.0 -0.09287669509649277 L 28.0 -0.4699913561344147 L 27.0 -0.4699913561344147 L 27.0 -0.4298100471496582 L 26.0 -0.4298100471496582 L 26.0 0.0030939322896301746 L 25.0 0.0030939322896301746 L 25.0 -0.10531637817621231 L 24.0 -0.10531637817621231 L 24.0 0.011772256344556808 L 23.0 0.011772256344556808 L 23.0 -0.28184378147125244 L 22.0 -0.28184378147125244 L 22.0 -0.582054853439331 L 21.0 -0.582054853439331 L 21.0 -0.08715550601482391 L 20.0 -0.08715550601482391 L 20.0 -0.05269346386194229 L 19.0 -0.05269346386194229 L 19.0 -0.013580994680523872 L 18.0 -0.013580994680523872 L 18.0 -1.0121583938598633 L 17.0 -1.0121583938598633 L 17.0 -0.22094006836414337 L 16.0 -0.22094006836414337 L 16.0 -0.535910427570343 L 15.0 -0.535910427570343 L 15.0 0.035258568823337555 L 14.0 0.035258568823337555 L 14.0 0.008307085372507572 L 13.0 0.008307085372507572 L 13.0 -1.2018460035324097 L 12.0 -1.2018460035324097 L 12.0 -0.34697163105010986 L 11.0 -0.34697163105010986 L 11.0 -0.7776458263397217 L 10.0 -0.7776458263397217 L 10.0 -0.022681012749671936 L 9.0 -0.022681012749671936 L 9.0 -0.11955482512712479 L 8.0 -0.11955482512712479 L 8.0 0.5072454810142517 L 7.0 0.5072454810142517 L 7.0 -0.2149645984172821 L 6.0 -0.2149645984172821 L 6.0 -0.02211426943540573 L 5.0 -0.02211426943540573 L 5.0 -0.10459250211715698 L 4.0 -0.10459250211715698 L 4.0 0.00870289746671915 L 3.0 0.00870289746671915 L 3.0 0.6661990284919739 L 2.0 0.6661990284919739 L 2.0 -0.24688246846199036 L 1.0 -0.24688246846199036 L 1.0 0.43861711025238037 L 0.0 0.43861711025238037 Z" style="vector-effect: non-scaling-stroke;" /></g></g><g style="stroke: black;stroke-width: 1.2000000000000002;" transform="matrix(1.0, 0.0, 0.0, 1.0, 0.0, 0.0)"><path d="M 0.0 0.43861711025238037 L 1.0 0.43861711025238037 L 1.0 -0.24688246846199036 L 2.0 -0.24688246846199036 L 2.0 0.6661990284919739 L 3.0 0.6661990284919739 L 3.0 0.00870289746671915 L 4.0 0.00870289746671915 L 4.0 -0.10459250211715698 L 5.0 -0.10459250211715698 L 5.0 -0.02211426943540573 L 6.0 -0.02211426943540573 L 6.0 -0.2149645984172821 L 7.0 -0.2149645984172821 L 7.0 0.5072454810142517 L 8.0 0.5072454810142517 L 8.0 -0.11955482512712479 L 9.0 -0.11955482512712479 L 9.0 -0.022681012749671936 L 10.0 -0.022681012749671936 L 10.0 -0.7776458263397217 L 11.0 -0.7776458263397217 L 11.0 -0.34697163105010986 L 12.0 -0.34697163105010986 L 12.0 -1.2018460035324097 L 13.0 -1.2018460035324097 L 13.0 0.008307085372507572 L 14.0 0.008307085372507572 L 14.0 0.035258568823337555 L 15.0 0.035258568823337555 L 15.0 -0.535910427570343 L 16.0 -0.535910427570343 L 16.0 -0.22094006836414337 L 17.0 -0.22094006836414337 L 17.0 -1.0121583938598633 L 18.0 -1.0121583938598633 L 18.0 -0.013580994680523872 L 19.0 -0.013580994680523872 L 19.0 -0.05269346386194229 L 20.0 -0.05269346386194229 L 20.0 -0.08715550601482391 L 21.0 -0.08715550601482391 L 21.0 -0.582054853439331 L 22.0 -0.582054853439331 L 22.0 -0.28184378147125244 L 23.0 -0.28184378147125244 L 23.0 0.011772256344556808 L 24.0 0.011772256344556808 L 24.0 -0.10531637817621231 L 25.0 -0.10531637817621231 L 25.0 0.0030939322896301746 L 26.0 0.0030939322896301746 L 26.0 -0.4298100471496582 L 27.0 -0.4298100471496582 L 27.0 -0.4699913561344147 L 28.0 -0.4699913561344147 L 28.0 -0.09287669509649277 L 29.0 -0.09287669509649277 L 29.0 -0.0194945577532053 L 30.0 -0.0194945577532053 L 30.0 -0.09359084069728851 L 31.0 -0.09359084069728851 L 31.0 -0.2280748188495636 L 32.0 -0.2280748188495636 L 32.0 -0.8333930373191833 L 33.0 -0.8333930373191833 L 33.0 0.0068531339056789875 L 34.0 0.0068531339056789875 L 34.0 -0.10292943567037582 L 35.0 -0.10292943567037582 L 35.0 -0.5828653573989868 L 36.0 -0.5828653573989868 L 36.0 -0.6060540080070496 L 37.0 -0.6060540080070496 L 37.0 -0.33330392837524414 L 38.0 -0.33330392837524414 L 38.0 -0.11807204782962799 L 39.0 -0.11807204782962799 L 39.0 -0.1090966984629631 L 40.0 -0.1090966984629631" style="vector-effect: non-scaling-stroke;fill:none;" /></g></g></g></g></g></g><g transform="matrix(1.0, 0.0, 0.0, 1.0, -0.19999999999999996, 0.16)"><g transform="matrix(1.0, 0.0, 0.0, 0.009999999999999995, 0.0, 0.0)"><g transform="matrix(0.01, 0.0, 0.0, 1.0, 0.0, 0.0)"><g><g><g style="fill: #ff8c00;stroke: #ff8c00;stroke-width: 1.2000000000000002;fill-opacity: 0.5;" transform="matrix(1.0, 0.0, 0.0, 1.0, 0.0, 0.0)"><path d="M 0.0 -2.0 L 0.0 2.0" style="vector-effect: non-scaling-stroke;fill:none;" /></g><g style="fill: #ff8c00;stroke: #ff8c00;stroke-width: 1.2000000000000002;fill-opacity: 0.5;" transform="matrix(1.0, 0.0, 0.0, 1.0, 0.0, 0.0)"><path d="M 0.0 0.43861711025238037 L 1.0 0.43861711025238037 L 1.0 -0.24688246846199036 L 2.0 -0.24688246846199036 L 2.0 0.6661990284919739 L 3.0 0.6661990284919739 L 3.0 0.00870289746671915 L 4.0 0.00870289746671915 L 4.0 -0.10459250211715698 L 5.0 -0.10459250211715698 L 5.0 -0.02211426943540573 L 6.0 -0.02211426943540573 L 6.0 -0.2149645984172821 L 7.0 -0.2149645984172821 L 7.0 0.5072454810142517 L 8.0 0.5072454810142517 L 8.0 -0.11955482512712479 L 9.0 -0.11955482512712479 L 9.0 -0.022681012749671936 L 10.0 -0.022681012749671936 L 10.0 -0.7776458263397217 L 11.0 -0.7776458263397217 L 11.0 -0.34697163105010986 L 12.0 -0.34697163105010986 L 12.0 -1.2018460035324097 L 13.0 -1.2018460035324097 L 13.0 0.008307085372507572 L 14.0 0.008307085372507572 L 14.0 0.035258568823337555 L 15.0 0.035258568823337555 L 15.0 -0.535910427570343 L 16.0 -0.535910427570343 L 16.0 -0.22094006836414337 L 17.0 -0.22094006836414337 L 17.0 -1.0121583938598633 L 18.0 -1.0121583938598633 L 18.0 -0.013580994680523872 L 19.0 -0.013580994680523872 L 19.0 -0.05269346386194229 L 20.0 -0.05269346386194229 L 20.0 -0.08715550601482391 L 21.0 -0.08715550601482391 L 21.0 -0.582054853439331 L 22.0 -0.582054853439331 L 22.0 -0.28184378147125244 L 23.0 -0.28184378147125244 L 23.0 0.011772256344556808 L 24.0 0.011772256344556808 L 24.0 -0.10531637817621231 L 25.0 -0.10531637817621231 L 25.0 0.0030939322896301746 L 26.0 0.0030939322896301746 L 26.0 -0.4298100471496582 L 27.0 -0.4298100471496582 L 27.0 -0.4699913561344147 L 28.0 -0.4699913561344147 L 28.0 -0.09287669509649277 L 29.0 -0.09287669509649277 L 29.0 -0.0194945577532053 L 30.0 -0.0194945577532053 L 30.0 -0.09359084069728851 L 31.0 -0.09359084069728851 L 31.0 -0.2280748188495636 L 32.0 -0.2280748188495636 L 32.0 -0.8333930373191833 L 33.0 -0.8333930373191833 L 33.0 0.0068531339056789875 L 34.0 0.0068531339056789875 L 34.0 -0.10292943567037582 L 35.0 -0.10292943567037582 L 35.0 -0.5828653573989868 L 36.0 -0.5828653573989868 L 36.0 -0.6060540080070496 L 37.0 -0.6060540080070496 L 37.0 -0.33330392837524414 L 38.0 -0.33330392837524414 L 38.0 -0.11807204782962799 L 39.0 -0.11807204782962799 L 39.0 -0.1090966984629631 L 40.0 -0.1090966984629631 L 40.0 -0.1090966984629631 L 39.0 -0.1090966984629631 L 39.0 -0.11807204782962799 L 38.0 -0.11807204782962799 L 38.0 -0.33330392837524414 L 37.0 -0.33330392837524414 L 37.0 -0.6060540080070496 L 36.0 -0.6060540080070496 L 36.0 -0.5828653573989868 L 35.0 -0.5828653573989868 L 35.0 -0.10292943567037582 L 34.0 -0.10292943567037582 L 34.0 0.0068531339056789875 L 33.0 0.0068531339056789875 L 33.0 -0.8333930373191833 L 32.0 -0.8333930373191833 L 32.0 -0.2280748188495636 L 31.0 -0.2280748188495636 L 31.0 -0.09359084069728851 L 30.0 -0.09359084069728851 L 30.0 -0.0194945577532053 L 29.0 -0.0194945577532053 L 29.0 -0.09287669509649277 L 28.0 -0.09287669509649277 L 28.0 -0.4699913561344147 L 27.0 -0.4699913561344147 L 27.0 -0.4298100471496582 L 26.0 -0.4298100471496582 L 26.0 0.0030939322896301746 L 25.0 0.0030939322896301746 L 25.0 -0.10531637817621231 L 24.0 -0.10531637817621231 L 24.0 0.011772256344556808 L 23.0 0.011772256344556808 L 23.0 -0.28184378147125244 L 22.0 -0.28184378147125244 L 22.0 -0.582054853439331 L 21.0 -0.582054853439331 L 21.0 -0.08715550601482391 L 20.0 -0.08715550601482391 L 20.0 -0.05269346386194229 L 19.0 -0.05269346386194229 L 19.0 -0.013580994680523872 L 18.0 -0.013580994680523872 L 18.0 -1.0121583938598633 L 17.0 -1.0121583938598633 L 17.0 -0.22094006836414337 L 16.0 -0.22094006836414337 L 16.0 -0.535910427570343 L 15.0 -0.535910427570343 L 15.0 0.035258568823337555 L 14.0 0.035258568823337555 L 14.0 0.008307085372507572 L 13.0 0.008307085372507572 L 13.0 -1.2018460035324097 L 12.0 -1.2018460035324097 L 12.0 -0.34697163105010986 L 11.0 -0.34697163105010986 L 11.0 -0.7776458263397217 L 10.0 -0.7776458263397217 L 10.0 -0.022681012749671936 L 9.0 -0.022681012749671936 L 9.0 -0.11955482512712479 L 8.0 -0.11955482512712479 L 8.0 0.5072454810142517 L 7.0 0.5072454810142517 L 7.0 -0.2149645984172821 L 6.0 -0.2149645984172821 L 6.0 -0.02211426943540573 L 5.0 -0.02211426943540573 L 5.0 -0.10459250211715698 L 4.0 -0.10459250211715698 L 4.0 0.00870289746671915 L 3.0 0.00870289746671915 L 3.0 0.6661990284919739 L 2.0 0.6661990284919739 L 2.0 -0.24688246846199036 L 1.0 -0.24688246846199036 L 1.0 0.43861711025238037 L 0.0 0.43861711025238037 Z" style="vector-effect: non-scaling-stroke;" /></g></g><g style="stroke: black;stroke-width: 1.2000000000000002;" transform="matrix(1.0, 0.0, 0.0, 1.0, 0.0, 0.0)"><path d="M 0.0 0.43861711025238037 L 1.0 0.43861711025238037 L 1.0 -0.24688246846199036 L 2.0 -0.24688246846199036 L 2.0 0.6661990284919739 L 3.0 0.6661990284919739 L 3.0 0.00870289746671915 L 4.0 0.00870289746671915 L 4.0 -0.10459250211715698 L 5.0 -0.10459250211715698 L 5.0 -0.02211426943540573 L 6.0 -0.02211426943540573 L 6.0 -0.2149645984172821 L 7.0 -0.2149645984172821 L 7.0 0.5072454810142517 L 8.0 0.5072454810142517 L 8.0 -0.11955482512712479 L 9.0 -0.11955482512712479 L 9.0 -0.022681012749671936 L 10.0 -0.022681012749671936 L 10.0 -0.7776458263397217 L 11.0 -0.7776458263397217 L 11.0 -0.34697163105010986 L 12.0 -0.34697163105010986 L 12.0 -1.2018460035324097 L 13.0 -1.2018460035324097 L 13.0 0.008307085372507572 L 14.0 0.008307085372507572 L 14.0 0.035258568823337555 L 15.0 0.035258568823337555 L 15.0 -0.535910427570343 L 16.0 -0.535910427570343 L 16.0 -0.22094006836414337 L 17.0 -0.22094006836414337 L 17.0 -1.0121583938598633 L 18.0 -1.0121583938598633 L 18.0 -0.013580994680523872 L 19.0 -0.013580994680523872 L 19.0 -0.05269346386194229 L 20.0 -0.05269346386194229 L 20.0 -0.08715550601482391 L 21.0 -0.08715550601482391 L 21.0 -0.582054853439331 L 22.0 -0.582054853439331 L 22.0 -0.28184378147125244 L 23.0 -0.28184378147125244 L 23.0 0.011772256344556808 L 24.0 0.011772256344556808 L 24.0 -0.10531637817621231 L 25.0 -0.10531637817621231 L 25.0 0.0030939322896301746 L 26.0 0.0030939322896301746 L 26.0 -0.4298100471496582 L 27.0 -0.4298100471496582 L 27.0 -0.4699913561344147 L 28.0 -0.4699913561344147 L 28.0 -0.09287669509649277 L 29.0 -0.09287669509649277 L 29.0 -0.0194945577532053 L 30.0 -0.0194945577532053 L 30.0 -0.09359084069728851 L 31.0 -0.09359084069728851 L 31.0 -0.2280748188495636 L 32.0 -0.2280748188495636 L 32.0 -0.8333930373191833 L 33.0 -0.8333930373191833 L 33.0 0.0068531339056789875 L 34.0 0.0068531339056789875 L 34.0 -0.10292943567037582 L 35.0 -0.10292943567037582 L 35.0 -0.5828653573989868 L 36.0 -0.5828653573989868 L 36.0 -0.6060540080070496 L 37.0 -0.6060540080070496 L 37.0 -0.33330392837524414 L 38.0 -0.33330392837524414 L 38.0 -0.11807204782962799 L 39.0 -0.11807204782962799 L 39.0 -0.1090966984629631 L 40.0 -0.1090966984629631" style="vector-effect: non-scaling-stroke;fill:none;" /></g></g></g></g></g></g><g transform="matrix(1.0, 0.0, 0.0, 1.0, -0.19999999999999996, 0.16)"><g transform="matrix(1.0, 0.0, 0.0, 0.009999999999999995, 0.0, 0.0)"><g transform="matrix(0.01, 0.0, 0.0, 1.0, 0.0, 0.0)"><g><g><g style="fill: #0000ff;stroke: #0000ff;stroke-width: 1.2000000000000002;fill-opacity: 0.5;" transform="matrix(1.0, 0.0, 0.0, 1.0, 0.0, 0.0)"><path d="M 0.0 -2.0 L 0.0 2.0" style="vector-effect: non-scaling-stroke;fill:none;" /></g><g style="fill: #0000ff;stroke: #0000ff;stroke-width: 1.2000000000000002;fill-opacity: 0.5;" transform="matrix(1.0, 0.0, 0.0, 1.0, 0.0, 0.0)"><path d="M 0.0 0.43861711025238037 L 1.0 0.43861711025238037 L 1.0 -0.24688246846199036 L 2.0 -0.24688246846199036 L 2.0 0.6661990284919739 L 3.0 0.6661990284919739 L 3.0 0.00870289746671915 L 4.0 0.00870289746671915 L 4.0 -0.10459250211715698 L 5.0 -0.10459250211715698 L 5.0 -0.02211426943540573 L 6.0 -0.02211426943540573 L 6.0 -0.2149645984172821 L 7.0 -0.2149645984172821 L 7.0 0.5072454810142517 L 8.0 0.5072454810142517 L 8.0 -0.11955482512712479 L 9.0 -0.11955482512712479 L 9.0 -0.022681012749671936 L 10.0 -0.022681012749671936 L 10.0 -0.7776458263397217 L 11.0 -0.7776458263397217 L 11.0 -0.34697163105010986 L 12.0 -0.34697163105010986 L 12.0 -1.2018460035324097 L 13.0 -1.2018460035324097 L 13.0 0.008307085372507572 L 14.0 0.008307085372507572 L 14.0 0.035258568823337555 L 15.0 0.035258568823337555 L 15.0 -0.535910427570343 L 16.0 -0.535910427570343 L 16.0 -0.22094006836414337 L 17.0 -0.22094006836414337 L 17.0 -1.0121583938598633 L 18.0 -1.0121583938598633 L 18.0 -0.013580994680523872 L 19.0 -0.013580994680523872 L 19.0 -0.05269346386194229 L 20.0 -0.05269346386194229 L 20.0 -0.08715550601482391 L 21.0 -0.08715550601482391 L 21.0 -0.582054853439331 L 22.0 -0.582054853439331 L 22.0 -0.28184378147125244 L 23.0 -0.28184378147125244 L 23.0 0.011772256344556808 L 24.0 0.011772256344556808 L 24.0 -0.10531637817621231 L 25.0 -0.10531637817621231 L 25.0 0.0030939322896301746 L 26.0 0.0030939322896301746 L 26.0 -0.4298100471496582 L 27.0 -0.4298100471496582 L 27.0 -0.4699913561344147 L 28.0 -0.4699913561344147 L 28.0 -0.09287669509649277 L 29.0 -0.09287669509649277 L 29.0 -0.0194945577532053 L 30.0 -0.0194945577532053 L 30.0 -0.09359084069728851 L 31.0 -0.09359084069728851 L 31.0 -0.2280748188495636 L 32.0 -0.2280748188495636 L 32.0 -0.8333930373191833 L 33.0 -0.8333930373191833 L 33.0 0.0068531339056789875 L 34.0 0.0068531339056789875 L 34.0 -0.10292943567037582 L 35.0 -0.10292943567037582 L 35.0 -0.5828653573989868 L 36.0 -0.5828653573989868 L 36.0 -0.6060540080070496 L 37.0 -0.6060540080070496 L 37.0 -0.33330392837524414 L 38.0 -0.33330392837524414 L 38.0 -0.11807204782962799 L 39.0 -0.11807204782962799 L 39.0 -0.1090966984629631 L 40.0 -0.1090966984629631 L 40.0 -0.1090966984629631 L 39.0 -0.1090966984629631 L 39.0 -0.11807204782962799 L 38.0 -0.11807204782962799 L 38.0 -0.33330392837524414 L 37.0 -0.33330392837524414 L 37.0 -0.6060540080070496 L 36.0 -0.6060540080070496 L 36.0 -0.5828653573989868 L 35.0 -0.5828653573989868 L 35.0 -0.10292943567037582 L 34.0 -0.10292943567037582 L 34.0 0.0068531339056789875 L 33.0 0.0068531339056789875 L 33.0 -0.8333930373191833 L 32.0 -0.8333930373191833 L 32.0 -0.2280748188495636 L 31.0 -0.2280748188495636 L 31.0 -0.09359084069728851 L 30.0 -0.09359084069728851 L 30.0 -0.0194945577532053 L 29.0 -0.0194945577532053 L 29.0 -0.09287669509649277 L 28.0 -0.09287669509649277 L 28.0 -0.4699913561344147 L 27.0 -0.4699913561344147 L 27.0 -0.4298100471496582 L 26.0 -0.4298100471496582 L 26.0 0.0030939322896301746 L 25.0 0.0030939322896301746 L 25.0 -0.10531637817621231 L 24.0 -0.10531637817621231 L 24.0 0.011772256344556808 L 23.0 0.011772256344556808 L 23.0 -0.28184378147125244 L 22.0 -0.28184378147125244 L 22.0 -0.582054853439331 L 21.0 -0.582054853439331 L 21.0 -0.08715550601482391 L 20.0 -0.08715550601482391 L 20.0 -0.05269346386194229 L 19.0 -0.05269346386194229 L 19.0 -0.013580994680523872 L 18.0 -0.013580994680523872 L 18.0 -1.0121583938598633 L 17.0 -1.0121583938598633 L 17.0 -0.22094006836414337 L 16.0 -0.22094006836414337 L 16.0 -0.535910427570343 L 15.0 -0.535910427570343 L 15.0 0.035258568823337555 L 14.0 0.035258568823337555 L 14.0 0.008307085372507572 L 13.0 0.008307085372507572 L 13.0 -1.2018460035324097 L 12.0 -1.2018460035324097 L 12.0 -0.34697163105010986 L 11.0 -0.34697163105010986 L 11.0 -0.7776458263397217 L 10.0 -0.7776458263397217 L 10.0 -0.022681012749671936 L 9.0 -0.022681012749671936 L 9.0 -0.11955482512712479 L 8.0 -0.11955482512712479 L 8.0 0.5072454810142517 L 7.0 0.5072454810142517 L 7.0 -0.2149645984172821 L 6.0 -0.2149645984172821 L 6.0 -0.02211426943540573 L 5.0 -0.02211426943540573 L 5.0 -0.10459250211715698 L 4.0 -0.10459250211715698 L 4.0 0.00870289746671915 L 3.0 0.00870289746671915 L 3.0 0.6661990284919739 L 2.0 0.6661990284919739 L 2.0 -0.24688246846199036 L 1.0 -0.24688246846199036 L 1.0 0.43861711025238037 L 0.0 0.43861711025238037 Z" style="vector-effect: non-scaling-stroke;" /></g></g><g style="stroke: black;stroke-width: 1.2000000000000002;" transform="matrix(1.0, 0.0, 0.0, 1.0, 0.0, 0.0)"><path d="M 0.0 0.43861711025238037 L 1.0 0.43861711025238037 L 1.0 -0.24688246846199036 L 2.0 -0.24688246846199036 L 2.0 0.6661990284919739 L 3.0 0.6661990284919739 L 3.0 0.00870289746671915 L 4.0 0.00870289746671915 L 4.0 -0.10459250211715698 L 5.0 -0.10459250211715698 L 5.0 -0.02211426943540573 L 6.0 -0.02211426943540573 L 6.0 -0.2149645984172821 L 7.0 -0.2149645984172821 L 7.0 0.5072454810142517 L 8.0 0.5072454810142517 L 8.0 -0.11955482512712479 L 9.0 -0.11955482512712479 L 9.0 -0.022681012749671936 L 10.0 -0.022681012749671936 L 10.0 -0.7776458263397217 L 11.0 -0.7776458263397217 L 11.0 -0.34697163105010986 L 12.0 -0.34697163105010986 L 12.0 -1.2018460035324097 L 13.0 -1.2018460035324097 L 13.0 0.008307085372507572 L 14.0 0.008307085372507572 L 14.0 0.035258568823337555 L 15.0 0.035258568823337555 L 15.0 -0.535910427570343 L 16.0 -0.535910427570343 L 16.0 -0.22094006836414337 L 17.0 -0.22094006836414337 L 17.0 -1.0121583938598633 L 18.0 -1.0121583938598633 L 18.0 -0.013580994680523872 L 19.0 -0.013580994680523872 L 19.0 -0.05269346386194229 L 20.0 -0.05269346386194229 L 20.0 -0.08715550601482391 L 21.0 -0.08715550601482391 L 21.0 -0.582054853439331 L 22.0 -0.582054853439331 L 22.0 -0.28184378147125244 L 23.0 -0.28184378147125244 L 23.0 0.011772256344556808 L 24.0 0.011772256344556808 L 24.0 -0.10531637817621231 L 25.0 -0.10531637817621231 L 25.0 0.0030939322896301746 L 26.0 0.0030939322896301746 L 26.0 -0.4298100471496582 L 27.0 -0.4298100471496582 L 27.0 -0.4699913561344147 L 28.0 -0.4699913561344147 L 28.0 -0.09287669509649277 L 29.0 -0.09287669509649277 L 29.0 -0.0194945577532053 L 30.0 -0.0194945577532053 L 30.0 -0.09359084069728851 L 31.0 -0.09359084069728851 L 31.0 -0.2280748188495636 L 32.0 -0.2280748188495636 L 32.0 -0.8333930373191833 L 33.0 -0.8333930373191833 L 33.0 0.0068531339056789875 L 34.0 0.0068531339056789875 L 34.0 -0.10292943567037582 L 35.0 -0.10292943567037582 L 35.0 -0.5828653573989868 L 36.0 -0.5828653573989868 L 36.0 -0.6060540080070496 L 37.0 -0.6060540080070496 L 37.0 -0.33330392837524414 L 38.0 -0.33330392837524414 L 38.0 -0.11807204782962799 L 39.0 -0.11807204782962799 L 39.0 -0.1090966984629631 L 40.0 -0.1090966984629631" style="vector-effect: non-scaling-stroke;fill:none;" /></g></g></g></g></g></g></g></g><g /></g></g></g></g></svg>