<?xml version="1.0" encoding="utf-8" ?>
<svg baseProfile="full" height="300" version="1.1" width="852" xmlns="http://www.w3.org/2000/svg" xmlns:ev="http://www.w3.org/2001/xml-events" xmlns:xlink="http://www.w3.org/1999/xlink"><defs><marker id="arrow" markerHeight="3.5" markerWidth="5" orient="auto" refX="5.0" refY="1.7"><polygon points="0,0 5,1.75 0,3.5" /></marker></defs><g style="fill:white;"><g transform="matrix(1.0, 0.0, 0.0, 1.0, 426.13636363636357, 150.0)"><g transform="matrix(1082.2510822510822, 0.0, 0.0, 1082.2510822510822, 0.0, 0.0)"><g><g transform="matrix(1.0, 0.0, 0.0, 1.0, -5.551115123125783e-17, -0.08000000000000002)"><g><g><g style="fill: #ffffff;stroke: black;stroke-width: 1.2000000000000002;" transform="matrix(1.0, 0.0, 0.0, 1.0, -0.3749999999999999, -0.052000000000000005)"><path d="M 0.0 0.0 L 0.7499999999999999 0.0 L 0.7499999999999999 0.264 L 0.0 0.264 L 0.0 0.0 Z" style="vector-effect: non-scaling-stroke;" /></g><g><g><g><g><g><g transform="matrix(1.0, 0.0, 0.0, 1.0, -0.32499999999999996, -0.03)"><g transform="matrix(1.0, 0.0, 0.0, 1.0, 0.075, 0.0)"><g transform="matrix(1.0, 0.0, 0.0, 1.0, 0.0, 0.03)"><g transform="matrix(0.01, 0.0, 0.0, 0.01, 0.0, 0.0)"><g><g><g transform="matrix(1.0, 0.0, 0.0, 1.0, 25.0, 0.0)"><g transform="matrix(1.0, 0.0, 0.0, 1.0, -32.5, -0.0)"><g><g style="fill: #d3d3d3;stroke: black;stroke-width: 1.2000000000000002;" transform="matrix(1.0, 0.0, 0.0, 1.0, 0.0, -3.0)"><path d="M 0.0 0.0 L 65.0 0.0 L 65.0 6.0 L 0.0 6.0 L 0.0 0.0 Z" style="vector-effect: non-scaling-stroke;" /></g><g transform="matrix(1.0, 0.0, 0.0, 1.0, 1.875, 0.0)"><g><g style="stroke: black;stroke-width: 1.2000000000000002;" transform="matrix(1.0, 0.0, 0.0, 1.0, 0.0, 0.0)"><g /></g><g style="fill: #ffa500;stroke: black;stroke-width: 1.2000000000000002;" transform="matrix(1.0, 0.0, 0.0, 1.0, 1.875, 0.0)"><text style="text-align:center; text-anchor:middle; dominant-baseline:middle;&#10;                      font-family:sans-serif; font-weight: bold;&#10;                      font-size:3px;&#10;                      vector-effect: non-scaling-stroke;" transform="translate(-5e-05, 0)">x</text></g></g></g></g></g></g><g><g><g><g style="stroke: black;stroke-width: 1.2000000000000002;" transform="matrix(1.0, 0.0, 0.0, 1.0, 0.0, 0.0)"><path d="M 0.0 -2.0 L 0.0 2.0" style="vector-effect: non-scaling-stroke;fill:none;" /></g><g style="stroke: #808080;stroke-width: 0.6000000000000001;" transform="matrix(1.0, 0.0, 0.0, 1.0, 0.0, 0.0)"><path d="M 0.0 0.0 L 50.0 0.0" style="vector-effect: non-scaling-stroke;fill:none;" /></g></g><g style="stroke: black;stroke-width: 2.4000000000000004;" transform="matrix(1.0, 0.0, 0.0, 1.0, 0.0, 0.0)"><path d="M 0.0 -0.9227485060691833 L 1.0 -0.9227485060691833 L 1.0 -0.9909365773200989 L 2.0 -0.9909365773200989 L 2.0 0.7891024351119995 L 3.0 0.7891024351119995 L 3.0 -0.07757601141929626 L 4.0 -0.07757601141929626 L 4.0 0.01911219209432602 L 5.0 0.01911219209432602 L 5.0 -0.8911665081977844 L 6.0 -0.8911665081977844 L 6.0 -1.1970560550689697 L 7.0 -1.1970560550689697 L 7.0 -0.5381621718406677 L 8.0 -0.5381621718406677 L 8.0 -0.9204915165901184 L 9.0 -0.9204915165901184 L 9.0 -1.1677565574645996 L 10.0 -1.1677565574645996 L 10.0 -0.10237627476453781 L 11.0 -0.10237627476453781 L 11.0 -1.0883831977844238 L 12.0 -1.0883831977844238 L 12.0 -1.2543400526046753 L 13.0 -1.2543400526046753 L 13.0 -1.146077275276184 L 14.0 -1.146077275276184 L 14.0 -1.46364164352417 L 15.0 -1.46364164352417 L 15.0 0.2734439969062805 L 16.0 0.2734439969062805 L 16.0 -0.6144730448722839 L 17.0 -0.6144730448722839 L 17.0 -0.4818328320980072 L 18.0 -0.4818328320980072 L 18.0 -0.8879019618034363 L 19.0 -0.8879019618034363 L 19.0 -0.9621256589889526 L 20.0 -0.9621256589889526 L 20.0 -0.560005247592926 L 21.0 -0.560005247592926 L 21.0 -1.7141392230987549 L 22.0 -1.7141392230987549 L 22.0 -0.17204943299293518 L 23.0 -0.17204943299293518 L 23.0 -1.0008693933486938 L 24.0 -1.0008693933486938 L 24.0 -0.29286766052246094 L 25.0 -0.29286766052246094 L 25.0 -1.59687340259552 L 26.0 -1.59687340259552 L 26.0 -1.9491041898727417 L 27.0 -1.9491041898727417 L 27.0 -1.7712304592132568 L 28.0 -1.7712304592132568 L 28.0 -0.13592040538787842 L 29.0 -0.13592040538787842 L 29.0 -0.16275697946548462 L 30.0 -0.16275697946548462 L 30.0 -1.4939042329788208 L 31.0 -1.4939042329788208 L 31.0 -0.6856494545936584 L 32.0 -0.6856494545936584 L 32.0 -1.6778924465179443 L 33.0 -1.6778924465179443 L 33.0 -1.444204568862915 L 34.0 -1.444204568862915 L 34.0 -1.217467188835144 L 35.0 -1.217467188835144 L 35.0 -0.15922601521015167 L 36.0 -0.15922601521015167 L 36.0 -0.5722299814224243 L 37.0 -0.5722299814224243 L 37.0 -1.6945139169692993 L 38.0 -1.6945139169692993 L 38.0 -0.581519365310669 L 39.0 -0.581519365310669 L 39.0 -0.020752618089318275 L 40.0 -0.020752618089318275 L 40.0 -0.7649675011634827 L 41.0 -0.7649675011634827 L 41.0 -1.352418065071106 L 42.0 -1.352418065071106 L 42.0 -0.794601321220398 L 43.0 -0.794601321220398 L 43.0 -0.23699279129505157 L 44.0 -0.23699279129505157 L 44.0 -1.4524481296539307 L 45.0 -1.4524481296539307 L 45.0 -1.4297020435333252 L 46.0 -1.4297020435333252 L 46.0 0.10874383896589279 L 47.0 0.10874383896589279 L 47.0 -0.08931400626897812 L 48.0 -0.08931400626897812 L 48.0 -0.5557575225830078 L 49.0 -0.5557575225830078 L 49.0 -1.5842432975769043 L 50.0 -1.5842432975769043" style="vector-effect: non-scaling-stroke;fill:none;" /></g></g></g></g><g><g><g><g style="stroke: black;stroke-width: 1.2000000000000002;" transform="matrix(1.0, 0.0, 0.0, 1.0, 0.0, 0.0)"><path d="M 0.0 -2.0 L 0.0 2.0" style="vector-effect: non-scaling-stroke;fill:none;" /></g><g style="stroke: #808080;stroke-width: 0.6000000000000001;" transform="matrix(1.0, 0.0, 0.0, 1.0, 0.0, 0.0)"><path d="M 0.0 0.0 L 50.0 0.0" style="vector-effect: non-scaling-stroke;fill:none;" /></g></g><g style="stroke: black;stroke-width: 2.4000000000000004;" transform="matrix(1.0, 0.0, 0.0, 1.0, 0.0, 0.0)"><path d="M 0.0 -0.9227485060691833 L 1.0 -0.9227485060691833 L 1.0 -0.9909365773200989 L 2.0 -0.9909365773200989 L 2.0 0.7891024351119995 L 3.0 0.7891024351119995 L 3.0 -0.07757601141929626 L 4.0 -0.07757601141929626 L 4.0 0.01911219209432602 L 5.0 0.01911219209432602 L 5.0 -0.8911665081977844 L 6.0 -0.8911665081977844 L 6.0 -1.1970560550689697 L 7.0 -1.1970560550689697 L 7.0 -0.5381621718406677 L 8.0 -0.5381621718406677 L 8.0 -0.9204915165901184 L 9.0 -0.9204915165901184 L 9.0 -1.1677565574645996 L 10.0 -1.1677565574645996 L 10.0 -0.10237627476453781 L 11.0 -0.10237627476453781 L 11.0 -1.0883831977844238 L 12.0 -1.0883831977844238 L 12.0 -1.2543400526046753 L 13.0 -1.2543400526046753 L 13.0 -1.146077275276184 L 14.0 -1.146077275276184 L 14.0 -1.46364164352417 L 15.0 -1.46364164352417 L 15.0 0.2734439969062805 L 16.0 0.2734439969062805 L 16.0 -0.6144730448722839 L 17.0 -0.6144730448722839 L 17.0 -0.4818328320980072 L 18.0 -0.4818328320980072 L 18.0 -0.8879019618034363 L 19.0 -0.8879019618034363 L 19.0 -0.9621256589889526 L 20.0 -0.9621256589889526 L 20.0 -0.560005247592926 L 21.0 -0.560005247592926 L 21.0 -1.7141392230987549 L 22.0 -1.7141392230987549 L 22.0 -0.17204943299293518 L 23.0 -0.17204943299293518 L 23.0 -1.0008693933486938 L 24.0 -1.0008693933486938 L 24.0 -0.29286766052246094 L 25.0 -0.29286766052246094 L 25.0 -1.59687340259552 L 26.0 -1.59687340259552 L 26.0 -1.9491041898727417 L 27.0 -1.9491041898727417 L 27.0 -1.7712304592132568 L 28.0 -1.7712304592132568 L 28.0 -0.13592040538787842 L 29.0 -0.13592040538787842 L 29.0 -0.16275697946548462 L 30.0 -0.16275697946548462 L 30.0 -1.4939042329788208 L 31.0 -1.4939042329788208 L 31.0 -0.6856494545936584 L 32.0 -0.6856494545936584 L 32.0 -1.6778924465179443 L 33.0 -1.6778924465179443 L 33.0 -1.444204568862915 L 34.0 -1.444204568862915 L 34.0 -1.217467188835144 L 35.0 -1.217467188835144 L 35.0 -0.15922601521015167 L 36.0 -0.15922601521015167 L 36.0 -0.5722299814224243 L 37.0 -0.5722299814224243 L 37.0 -1.6945139169692993 L 38.0 -1.6945139169692993 L 38.0 -0.581519365310669 L 39.0 -0.581519365310669 L 39.0 -0.020752618089318275 L 40.0 -0.020752618089318275 L 40.0 -0.7649675011634827 L 41.0 -0.7649675011634827 L 41.0 -1.352418065071106 L 42.0 -1.352418065071106 L 42.0 -0.794601321220398 L 43.0 -0.794601321220398 L 43.0 -0.23699279129505157 L 44.0 -0.23699279129505157 L 44.0 -1.4524481296539307 L 45.0 -1.4524481296539307 L 45.0 -1.4297020435333252 L 46.0 -1.4297020435333252 L 46.0 0.10874383896589279 L 47.0 0.10874383896589279 L 47.0 -0.08931400626897812 L 48.0 -0.08931400626897812 L 48.0 -0.5557575225830078 L 49.0 -0.5557575225830078 L 49.0 -1.5842432975769043 L 50.0 -1.5842432975769043" style="vector-effect: non-scaling-stroke;fill:none;" /></g></g></g></g></g></g></g></g><g style="stroke: black;stroke-width: 1.2000000000000002;" transform="matrix(0.0, -1.0, 1.0, 0.0, 0.0, 0.08)"><g /></g></g><g transform="matrix(1.0, 0.0, 0.0, 1.0, 0.0, 0.16)"><g transform="matrix(1.0, 0.0, 0.0, 1.0, -0.32499999999999996, -0.03)"><g transform="matrix(1.0, 0.0, 0.0, 1.0, 0.075, 0.0)"><g transform="matrix(1.0, 0.0, 0.0, 1.0, 0.0, 0.03)"><g transform="matrix(0.01, 0.0, 0.0, 0.01, 0.0, 0.0)"><g><g><g transform="matrix(1.0, 0.0, 0.0, 1.0, 25.0, 0.0)"><g transform="matrix(1.0, 0.0, 0.0, 1.0, -32.5, -0.0)"><g><g style="fill: #d3d3d3;stroke: black;stroke-width: 1.2000000000000002;" transform="matrix(1.0, 0.0, 0.0, 1.0, 0.0, -3.0)"><path d="M 0.0 0.0 L 65.0 0.0 L 65.0 6.0 L 0.0 6.0 L 0.0 0.0 Z" style="vector-effect: non-scaling-stroke;" /></g><g transform="matrix(1.0, 0.0, 0.0, 1.0, 1.875, 0.0)"><g><g style="stroke: black;stroke-width: 1.2000000000000002;" transform="matrix(1.0, 0.0, 0.0, 1.0, 0.0, 0.0)"><g /></g><g style="fill: #ffa500;stroke: black;stroke-width: 1.2000000000000002;" transform="matrix(1.0, 0.0, 0.0, 1.0, 1.875, 0.0)"><text style="text-align:center; text-anchor:middle; dominant-baseline:middle;&#10;                      font-family:sans-serif; font-weight: bold;&#10;                      font-size:3px;&#10;                      vector-effect: non-scaling-stroke;" transform="translate(-5e-05, 0)">f(x)</text></g></g></g></g></g></g><g><g><g><g style="stroke: black;stroke-width: 1.2000000000000002;" transform="matrix(1.0, 0.0, 0.0, 1.0, 0.0, 0.0)"><path d="M 0.0 -2.0 L 0.0 2.0" style="vector-effect: non-scaling-stroke;fill:none;" /></g><g style="stroke: #808080;stroke-width: 0.6000000000000001;" transform="matrix(1.0, 0.0, 0.0, 1.0, 0.0, 0.0)"><path d="M 0.0 0.0 L 50.0 0.0" style="vector-effect: non-scaling-stroke;fill:none;" /></g></g><g style="stroke: black;stroke-width: 2.4000000000000004;" transform="matrix(1.0, 0.0, 0.0, 1.0, 0.0, 0.0)"><path d="M 0.0 -0.09227485209703445 L 1.0 -0.09227485209703445 L 1.0 -0.19136850535869598 L 2.0 -0.19136850535869598 L 2.0 -0.11245826631784439 L 3.0 -0.11245826631784439 L 3.0 -0.12021587044000626 L 4.0 -0.12021587044000626 L 4.0 -0.11830464750528336 L 5.0 -0.11830464750528336 L 5.0 -0.20742130279541016 L 6.0 -0.20742130279541016 L 6.0 -0.3271269202232361 L 7.0 -0.3271269202232361 L 7.0 -0.3809431195259094 L 8.0 -0.3809431195259094 L 8.0 -0.4729922413825989 L 9.0 -0.4729922413825989 L 9.0 -0.5897679924964905 L 10.0 -0.5897679924964905 L 10.0 -0.5077307224273682 L 11.0 -0.5077307224273682 L 11.0 -0.517475426197052 L 12.0 -0.517475426197052 L 12.0 -0.7218196988105774 L 13.0 -0.7218196988105774 L 13.0 -0.8286697268486023 L 14.0 -0.8286697268486023 L 14.0 -0.9769452214241028 L 15.0 -0.9769452214241028 L 15.0 -0.8604841232299805 L 16.0 -0.8604841232299805 L 16.0 -0.8022257685661316 L 17.0 -0.8022257685661316 L 17.0 -0.7965928912162781 L 18.0 -0.7965928912162781 L 18.0 -0.793333888053894 L 19.0 -0.793333888053894 L 19.0 -0.7727707624435425 L 20.0 -0.7727707624435425 L 20.0 -0.818533718585968 L 21.0 -0.818533718585968 L 21.0 -0.8811092376708984 L 22.0 -0.8811092376708984 L 22.0 -0.7728801965713501 L 23.0 -0.7728801965713501 L 23.0 -0.7583593726158142 L 24.0 -0.7583593726158142 L 24.0 -0.6412819623947144 L 25.0 -0.6412819623947144 L 25.0 -0.8283138275146484 L 26.0 -0.8283138275146484 L 26.0 -0.9617769122123718 L 27.0 -0.9617769122123718 L 27.0 -1.0907166004180908 L 28.0 -1.0907166004180908 L 28.0 -1.0155184268951416 L 29.0 -1.0155184268951416 L 29.0 -0.9355815649032593 L 30.0 -0.9355815649032593 L 30.0 -1.028971552848816 L 31.0 -1.028971552848816 L 31.0 -0.9261225461959839 L 32.0 -0.9261225461959839 L 32.0 -1.076706886291504 L 33.0 -1.076706886291504 L 33.0 -1.1210403442382812 L 34.0 -1.1210403442382812 L 34.0 -1.2135002613067627 L 35.0 -1.2135002613067627 L 35.0 -1.0697356462478638 L 36.0 -1.0697356462478638 L 36.0 -0.9320481419563293 L 37.0 -0.9320481419563293 L 37.0 -0.9243766069412231 L 38.0 -0.9243766069412231 L 38.0 -0.9689364433288574 L 39.0 -0.9689364433288574 L 39.0 -0.954736053943634 L 40.0 -0.954736053943634 L 40.0 -0.881842315196991 L 41.0 -0.881842315196991 L 41.0 -0.948519229888916 L 42.0 -0.948519229888916 L 42.0 -0.8601900339126587 L 43.0 -0.8601900339126587 L 43.0 -0.7394688725471497 L 44.0 -0.7394688725471497 L 44.0 -0.7629668712615967 L 45.0 -0.7629668712615967 L 45.0 -0.8900146484375 L 46.0 -0.8900146484375 L 46.0 -0.8219172358512878 L 47.0 -0.8219172358512878 L 47.0 -0.6613971590995789 L 48.0 -0.6613971590995789 L 48.0 -0.6588209867477417 L 49.0 -0.6588209867477417 L 49.0 -0.8151701092720032 L 50.0 -0.8151701092720032" style="vector-effect: non-scaling-stroke;fill:none;" /></g></g></g></g><g><g><g><g style="stroke: black;stroke-width: 1.2000000000000002;" transform="matrix(1.0, 0.0, 0.0, 1.0, 0.0, 0.0)"><path d="M 0.0 -2.0 L 0.0 2.0" style="vector-effect: non-scaling-stroke;fill:none;" /></g><g style="stroke: #808080;stroke-width: 0.6000000000000001;" transform="matrix(1.0, 0.0, 0.0, 1.0, 0.0, 0.0)"><path d="M 0.0 0.0 L 50.0 0.0" style="vector-effect: non-scaling-stroke;fill:none;" /></g></g><g style="stroke: black;stroke-width: 2.4000000000000004;" transform="matrix(1.0, 0.0, 0.0, 1.0, 0.0, 0.0)"><path d="M 0.0 -0.09227485209703445 L 1.0 -0.09227485209703445 L 1.0 -0.19136850535869598 L 2.0 -0.19136850535869598 L 2.0 -0.11245826631784439 L 3.0 -0.11245826631784439 L 3.0 -0.12021587044000626 L 4.0 -0.12021587044000626 L 4.0 -0.11830464750528336 L 5.0 -0.11830464750528336 L 5.0 -0.20742130279541016 L 6.0 -0.20742130279541016 L 6.0 -0.3271269202232361 L 7.0 -0.3271269202232361 L 7.0 -0.3809431195259094 L 8.0 -0.3809431195259094 L 8.0 -0.4729922413825989 L 9.0 -0.4729922413825989 L 9.0 -0.5897679924964905 L 10.0 -0.5897679924964905 L 10.0 -0.5077307224273682 L 11.0 -0.5077307224273682 L 11.0 -0.517475426197052 L 12.0 -0.517475426197052 L 12.0 -0.7218196988105774 L 13.0 -0.7218196988105774 L 13.0 -0.8286697268486023 L 14.0 -0.8286697268486023 L 14.0 -0.9769452214241028 L 15.0 -0.9769452214241028 L 15.0 -0.8604841232299805 L 16.0 -0.8604841232299805 L 16.0 -0.8022257685661316 L 17.0 -0.8022257685661316 L 17.0 -0.7965928912162781 L 18.0 -0.7965928912162781 L 18.0 -0.793333888053894 L 19.0 -0.793333888053894 L 19.0 -0.7727707624435425 L 20.0 -0.7727707624435425 L 20.0 -0.818533718585968 L 21.0 -0.818533718585968 L 21.0 -0.8811092376708984 L 22.0 -0.8811092376708984 L 22.0 -0.7728801965713501 L 23.0 -0.7728801965713501 L 23.0 -0.7583593726158142 L 24.0 -0.7583593726158142 L 24.0 -0.6412819623947144 L 25.0 -0.6412819623947144 L 25.0 -0.8283138275146484 L 26.0 -0.8283138275146484 L 26.0 -0.9617769122123718 L 27.0 -0.9617769122123718 L 27.0 -1.0907166004180908 L 28.0 -1.0907166004180908 L 28.0 -1.0155184268951416 L 29.0 -1.0155184268951416 L 29.0 -0.9355815649032593 L 30.0 -0.9355815649032593 L 30.0 -1.028971552848816 L 31.0 -1.028971552848816 L 31.0 -0.9261225461959839 L 32.0 -0.9261225461959839 L 32.0 -1.076706886291504 L 33.0 -1.076706886291504 L 33.0 -1.1210403442382812 L 34.0 -1.1210403442382812 L 34.0 -1.2135002613067627 L 35.0 -1.2135002613067627 L 35.0 -1.0697356462478638 L 36.0 -1.0697356462478638 L 36.0 -0.9320481419563293 L 37.0 -0.9320481419563293 L 37.0 -0.9243766069412231 L 38.0 -0.9243766069412231 L 38.0 -0.9689364433288574 L 39.0 -0.9689364433288574 L 39.0 -0.954736053943634 L 40.0 -0.954736053943634 L 40.0 -0.881842315196991 L 41.0 -0.881842315196991 L 41.0 -0.948519229888916 L 42.0 -0.948519229888916 L 42.0 -0.8601900339126587 L 43.0 -0.8601900339126587 L 43.0 -0.7394688725471497 L 44.0 -0.7394688725471497 L 44.0 -0.7629668712615967 L 45.0 -0.7629668712615967 L 45.0 -0.8900146484375 L 46.0 -0.8900146484375 L 46.0 -0.8219172358512878 L 47.0 -0.8219172358512878 L 47.0 -0.6613971590995789 L 48.0 -0.6613971590995789 L 48.0 -0.6588209867477417 L 49.0 -0.6588209867477417 L 49.0 -0.8151701092720032 L 50.0 -0.8151701092720032" style="vector-effect: non-scaling-stroke;fill:none;" /></g></g></g></g></g></g></g></g></g></g><g transform="matrix(1.0, 0.0, 0.0, 1.0, -0.24999999999999994, 0.16)"><g transform="matrix(1.0, 0.0, 0.0, 0.009999999999999995, 0.0, 0.0)"><g transform="matrix(0.01, 0.0, 0.0, 1.0, 0.0, 0.0)"><g><g><g style="fill: #ff0000;stroke: #ff0000;stroke-width: 1.2000000000000002;fill-opacity: 0.5;" transform="matrix(1.0, 0.0, 0.0, 1.0, 0.0, 0.0)"><path d="M 0.0 -2.0 L 0.0 2.0" style="vector-effect: non-scaling-stroke;fill:none;" /></g><g style="fill: #ff0000;stroke: #ff0000;stroke-width: 1.2000000000000002;fill-opacity: 0.5;" transform="matrix(1.0, 0.0, 0.0, 1.0, 0.0, 0.0)"><path d="M 0.0 -0.09227485209703445 L 1.0 -0.09227485209703445 L 1.0 -0.19136850535869598 L 2.0 -0.19136850535869598 L 2.0 -0.11245826631784439 L 3.0 -0.11245826631784439 L 3.0 -0.12021587044000626 L 4.0 -0.12021587044000626 L 4.0 -0.11830464750528336 L 5.0 -0.11830464750528336 L 5.0 -0.20742130279541016 L 6.0 -0.20742130279541016 L 6.0 -0.3271269202232361 L 7.0 -0.3271269202232361 L 7.0 -0.3809431195259094 L 8.0 -0.3809431195259094 L 8.0 -0.4729922413825989 L 9.0 -0.4729922413825989 L 9.0 -0.5897679924964905 L 10.0 -0.5897679924964905 L 10.0 -0.5077307224273682 L 11.0 -0.5077307224273682 L 11.0 -0.517475426197052 L 12.0 -0.517475426197052 L 12.0 -0.7218196988105774 L 13.0 -0.7218196988105774 L 13.0 -0.8286697268486023 L 14.0 -0.8286697268486023 L 14.0 -0.9769452214241028 L 15.0 -0.9769452214241028 L 15.0 -0.8604841232299805 L 16.0 -0.8604841232299805 L 16.0 -0.8022257685661316 L 17.0 -0.8022257685661316 L 17.0 -0.7965928912162781 L 18.0 -0.7965928912162781 L 18.0 -0.793333888053894 L 19.0 -0.793333888053894 L 19.0 -0.7727707624435425 L 20.0 -0.7727707624435425 L 20.0 -0.818533718585968 L 21.0 -0.818533718585968 L 21.0 -0.8811092376708984 L 22.0 -0.8811092376708984 L 22.0 -0.7728801965713501 L 23.0 -0.7728801965713501 L 23.0 -0.7583593726158142 L 24.0 -0.7583593726158142 L 24.0 -0.6412819623947144 L 25.0 -0.6412819623947144 L 25.0 -0.8283138275146484 L 26.0 -0.8283138275146484 L 26.0 -0.9617769122123718 L 27.0 -0.9617769122123718 L 27.0 -1.0907166004180908 L 28.0 -1.0907166004180908 L 28.0 -1.0155184268951416 L 29.0 -1.0155184268951416 L 29.0 -0.9355815649032593 L 30.0 -0.9355815649032593 L 30.0 -1.028971552848816 L 31.0 -1.028971552848816 L 31.0 -0.9261225461959839 L 32.0 -0.9261225461959839 L 32.0 -1.076706886291504 L 33.0 -1.076706886291504 L 33.0 -1.1210403442382812 L 34.0 -1.1210403442382812 L 34.0 -1.2135002613067627 L 35.0 -1.2135002613067627 L 35.0 -1.0697356462478638 L 36.0 -1.0697356462478638 L 36.0 -0.9320481419563293 L 37.0 -0.9320481419563293 L 37.0 -0.9243766069412231 L 38.0 -0.9243766069412231 L 38.0 -0.9689364433288574 L 39.0 -0.9689364433288574 L 39.0 -0.954736053943634 L 40.0 -0.954736053943634 L 40.0 -0.881842315196991 L 41.0 -0.881842315196991 L 41.0 -0.948519229888916 L 42.0 -0.948519229888916 L 42.0 -0.8601900339126587 L 43.0 -0.8601900339126587 L 43.0 -0.7394688725471497 L 44.0 -0.7394688725471497 L 44.0 -0.7629668712615967 L 45.0 -0.7629668712615967 L 45.0 -0.8900146484375 L 46.0 -0.8900146484375 L 46.0 -0.8219172358512878 L 47.0 -0.8219172358512878 L 47.0 -0.6613971590995789 L 48.0 -0.6613971590995789 L 48.0 -0.6588209867477417 L 49.0 -0.6588209867477417 L 49.0 -0.8151701092720032 L 50.0 -0.8151701092720032 L 50.0 -0.8151701092720032 L 49.0 -0.8151701092720032 L 49.0 -0.6588209867477417 L 48.0 -0.6588209867477417 L 48.0 -0.6613971590995789 L 47.0 -0.6613971590995789 L 47.0 -0.8219172358512878 L 46.0 -0.8219172358512878 L 46.0 -0.8900146484375 L 45.0 -0.8900146484375 L 45.0 -0.7629668712615967 L 44.0 -0.7629668712615967 L 44.0 -0.7394688725471497 L 43.0 -0.7394688725471497 L 43.0 -0.8601900339126587 L 42.0 -0.8601900339126587 L 42.0 -0.948519229888916 L 41.0 -0.948519229888916 L 41.0 -0.881842315196991 L 40.0 -0.881842315196991 L 40.0 -0.954736053943634 L 39.0 -0.954736053943634 L 39.0 -0.9689364433288574 L 38.0 -0.9689364433288574 L 38.0 -0.9243766069412231 L 37.0 -0.9243766069412231 L 37.0 -0.9320481419563293 L 36.0 -0.9320481419563293 L 36.0 -1.0697356462478638 L 35.0 -1.0697356462478638 L 35.0 -1.2135002613067627 L 34.0 -1.2135002613067627 L 34.0 -1.1210403442382812 L 33.0 -1.1210403442382812 L 33.0 -1.076706886291504 L 32.0 -1.076706886291504 L 32.0 -0.9261225461959839 L 31.0 -0.9261225461959839 L 31.0 -1.028971552848816 L 30.0 -1.028971552848816 L 30.0 -0.9355815649032593 L 29.0 -0.9355815649032593 L 29.0 -1.0155184268951416 L 28.0 -1.0155184268951416 L 28.0 -1.0907166004180908 L 27.0 -1.0907166004180908 L 27.0 -0.9617769122123718 L 26.0 -0.9617769122123718 L 26.0 -0.8283138275146484 L 25.0 -0.8283138275146484 L 25.0 -0.6412819623947144 L 24.0 -0.6412819623947144 L 24.0 -0.7583593726158142 L 23.0 -0.7583593726158142 L 23.0 -0.7728801965713501 L 22.0 -0.7728801965713501 L 22.0 -0.8811092376708984 L 21.0 -0.8811092376708984 L 21.0 -0.818533718585968 L 20.0 -0.818533718585968 L 20.0 -0.7727707624435425 L 19.0 -0.7727707624435425 L 19.0 -0.793333888053894 L 18.0 -0.793333888053894 L 18.0 -0.7965928912162781 L 17.0 -0.7965928912162781 L 17.0 -0.8022257685661316 L 16.0 -0.8022257685661316 L 16.0 -0.8604841232299805 L 15.0 -0.8604841232299805 L 15.0 -0.9769452214241028 L 14.0 -0.9769452214241028 L 14.0 -0.8286697268486023 L 13.0 -0.8286697268486023 L 13.0 -0.7218196988105774 L 12.0 -0.7218196988105774 L 12.0 -0.517475426197052 L 11.0 -0.517475426197052 L 11.0 -0.5077307224273682 L 10.0 -0.5077307224273682 L 10.0 -0.5897679924964905 L 9.0 -0.5897679924964905 L 9.0 -0.4729922413825989 L 8.0 -0.4729922413825989 L 8.0 -0.3809431195259094 L 7.0 -0.3809431195259094 L 7.0 -0.3271269202232361 L 6.0 -0.3271269202232361 L 6.0 -0.20742130279541016 L 5.0 -0.20742130279541016 L 5.0 -0.11830464750528336 L 4.0 -0.11830464750528336 L 4.0 -0.12021587044000626 L 3.0 -0.12021587044000626 L 3.0 -0.11245826631784439 L 2.0 -0.11245826631784439 L 2.0 -0.19136850535869598 L 1.0 -0.19136850535869598 L 1.0 -0.09227485209703445 L 0.0 -0.09227485209703445 Z" style="vector-effect: non-scaling-stroke;" /></g></g><g style="stroke: black;stroke-width: 1.2000000000000002;" transform="matrix(1.0, 0.0, 0.0, 1.0, 0.0, 0.0)"><path d="M 0.0 -0.09227485209703445 L 1.0 -0.09227485209703445 L 1.0 -0.19136850535869598 L 2.0 -0.19136850535869598 L 2.0 -0.11245826631784439 L 3.0 -0.11245826631784439 L 3.0 -0.12021587044000626 L 4.0 -0.12021587044000626 L 4.0 -0.11830464750528336 L 5.0 -0.11830464750528336 L 5.0 -0.20742130279541016 L 6.0 -0.20742130279541016 L 6.0 -0.3271269202232361 L 7.0 -0.3271269202232361 L 7.0 -0.3809431195259094 L 8.0 -0.3809431195259094 L 8.0 -0.4729922413825989 L 9.0 -0.4729922413825989 L 9.0 -0.5897679924964905 L 10.0 -0.5897679924964905 L 10.0 -0.5077307224273682 L 11.0 -0.5077307224273682 L 11.0 -0.517475426197052 L 12.0 -0.517475426197052 L 12.0 -0.7218196988105774 L 13.0 -0.7218196988105774 L 13.0 -0.8286697268486023 L 14.0 -0.8286697268486023 L 14.0 -0.9769452214241028 L 15.0 -0.9769452214241028 L 15.0 -0.8604841232299805 L 16.0 -0.8604841232299805 L 16.0 -0.8022257685661316 L 17.0 -0.8022257685661316 L 17.0 -0.7965928912162781 L 18.0 -0.7965928912162781 L 18.0 -0.793333888053894 L 19.0 -0.793333888053894 L 19.0 -0.7727707624435425 L 20.0 -0.7727707624435425 L 20.0 -0.818533718585968 L 21.0 -0.818533718585968 L 21.0 -0.8811092376708984 L 22.0 -0.8811092376708984 L 22.0 -0.7728801965713501 L 23.0 -0.7728801965713501 L 23.0 -0.7583593726158142 L 24.0 -0.7583593726158142 L 24.0 -0.6412819623947144 L 25.0 -0.6412819623947144 L 25.0 -0.8283138275146484 L 26.0 -0.8283138275146484 L 26.0 -0.9617769122123718 L 27.0 -0.9617769122123718 L 27.0 -1.0907166004180908 L 28.0 -1.0907166004180908 L 28.0 -1.0155184268951416 L 29.0 -1.0155184268951416 L 29.0 -0.9355815649032593 L 30.0 -0.9355815649032593 L 30.0 -1.028971552848816 L 31.0 -1.028971552848816 L 31.0 -0.9261225461959839 L 32.0 -0.9261225461959839 L 32.0 -1.076706886291504 L 33.0 -1.076706886291504 L 33.0 -1.1210403442382812 L 34.0 -1.1210403442382812 L 34.0 -1.2135002613067627 L 35.0 -1.2135002613067627 L 35.0 -1.0697356462478638 L 36.0 -1.0697356462478638 L 36.0 -0.9320481419563293 L 37.0 -0.9320481419563293 L 37.0 -0.9243766069412231 L 38.0 -0.9243766069412231 L 38.0 -0.9689364433288574 L 39.0 -0.9689364433288574 L 39.0 -0.954736053943634 L 40.0 -0.954736053943634 L 40.0 -0.881842315196991 L 41.0 -0.881842315196991 L 41.0 -0.948519229888916 L 42.0 -0.948519229888916 L 42.0 -0.8601900339126587 L 43.0 -0.8601900339126587 L 43.0 -0.7394688725471497 L 44.0 -0.7394688725471497 L 44.0 -0.7629668712615967 L 45.0 -0.7629668712615967 L 45.0 -0.8900146484375 L 46.0 -0.8900146484375 L 46.0 -0.8219172358512878 L 47.0 -0.8219172358512878 L 47.0 -0.6613971590995789 L 48.0 -0.6613971590995789 L 48.0 -0.6588209867477417 L 49.0 -0.6588209867477417 L 49.0 -0.8151701092720032 L 50.0 -0.8151701092720032" style="vector-effect: non-scaling-stroke;fill:none;" /></g></g></g></g></g></g><g transform="matrix(1.0, 0.0, 0.0, 1.0, -0.24999999999999994, 0.16)"><g transform="matrix(1.0, 0.0, 0.0, 0.009999999999999995, 0.0, 0.0)"><g transform="matrix(0.01, 0.0, 0.0, 1.0, 0.0, 0.0)"><g><g><g style="fill: #ffffe0;stroke: #ffffe0;stroke-width: 1.2000000000000002;fill-opacity: 0.5;" transform="matrix(1.0, 0.0, 0.0, 1.0, 0.0, 0.0)"><path d="M 0.0 -2.0 L 0.0 2.0" style="vector-effect: non-scaling-stroke;fill:none;" /></g><g style="fill: #ffffe0;stroke: #ffffe0;stroke-width: 1.2000000000000002;fill-opacity: 0.5;" transform="matrix(1.0, 0.0, 0.0, 1.0, 0.0, 0.0)"><path d="M 0.0 -0.8939573168754578 L 1.0 -0.8939573168754578 L 1.0 -0.9960312247276306 L 2.0 -0.9960312247276306 L 2.0 -0.9141407608985901 L 3.0 -0.9141407608985901 L 3.0 -0.921898365020752 L 4.0 -0.921898365020752 L 4.0 -0.919987142086029 L 5.0 -0.919987142086029 L 5.0 -1.0061235427856445 L 6.0 -1.0061235427856445 L 6.0 -1.1258292198181152 L 7.0 -1.1258292198181152 L 7.0 -1.1915662288665771 L 8.0 -1.1915662288665771 L 8.0 -1.2716944217681885 L 9.0 -1.2716944217681885 L 9.0 -1.376549243927002 L 10.0 -1.376549243927002 L 10.0 -0.5077307224273682 L 11.0 -0.5077307224273682 L 11.0 -0.517475426197052 L 12.0 -0.517475426197052 L 12.0 -0.7218196988105774 L 13.0 -0.7218196988105774 L 13.0 -0.8286697268486023 L 14.0 -0.8286697268486023 L 14.0 -0.9769452214241028 L 15.0 -0.9769452214241028 L 15.0 -0.8604841232299805 L 16.0 -0.8604841232299805 L 16.0 -0.8022257685661316 L 17.0 -0.8022257685661316 L 17.0 -0.7965928912162781 L 18.0 -0.7965928912162781 L 18.0 -0.793333888053894 L 19.0 -0.793333888053894 L 19.0 -0.7727707624435425 L 20.0 -0.7727707624435425 L 20.0 -1.6053149700164795 L 21.0 -1.6053149700164795 L 21.0 -1.691732406616211 L 22.0 -1.691732406616211 L 22.0 -1.5596615076065063 L 23.0 -1.5596615076065063 L 23.0 -1.5689826011657715 L 24.0 -1.5689826011657715 L 24.0 -1.4519051313400269 L 25.0 -1.4519051313400269 L 25.0 -1.638936996459961 L 26.0 -1.638936996459961 L 26.0 -1.772400140762329 L 27.0 -1.772400140762329 L 27.0 -1.9013397693634033 L 28.0 -1.9013397693634033 L 28.0 -1.826141595840454 L 29.0 -1.826141595840454 L 29.0 -1.7462047338485718 L 30.0 -1.7462047338485718 L 30.0 -1.028971552848816 L 31.0 -1.028971552848816 L 31.0 -0.9261225461959839 L 32.0 -0.9261225461959839 L 32.0 -1.076706886291504 L 33.0 -1.076706886291504 L 33.0 -1.1210403442382812 L 34.0 -1.1210403442382812 L 34.0 -1.2135002613067627 L 35.0 -1.2135002613067627 L 35.0 -1.8326750993728638 L 36.0 -1.8326750993728638 L 36.0 -1.7188293933868408 L 37.0 -1.7188293933868408 L 37.0 -1.7111579179763794 L 38.0 -1.7111579179763794 L 38.0 -1.77955961227417 L 39.0 -1.77955961227417 L 39.0 -1.7415173053741455 L 40.0 -1.7415173053741455 L 40.0 -1.6924655437469482 L 41.0 -1.6924655437469482 L 41.0 -1.7591423988342285 L 42.0 -1.7591423988342285 L 42.0 -1.646971344947815 L 43.0 -1.646971344947815 L 43.0 -1.5262501239776611 L 44.0 -1.5262501239776611 L 44.0 -1.5735900402069092 L 45.0 -1.5735900402069092 L 45.0 -0.8900146484375 L 46.0 -0.8900146484375 L 46.0 -0.8219172358512878 L 47.0 -0.8219172358512878 L 47.0 -0.6613971590995789 L 48.0 -0.6613971590995789 L 48.0 -0.6588209867477417 L 49.0 -0.6588209867477417 L 49.0 -0.8151701092720032 L 50.0 -0.8151701092720032 L 50.0 -0.8151701092720032 L 49.0 -0.8151701092720032 L 49.0 -0.6588209867477417 L 48.0 -0.6588209867477417 L 48.0 -0.6613971590995789 L 47.0 -0.6613971590995789 L 47.0 -0.8219172358512878 L 46.0 -0.8219172358512878 L 46.0 -0.8900146484375 L 45.0 -0.8900146484375 L 45.0 -0.7629668712615967 L 44.0 -0.7629668712615967 L 44.0 -0.7394688725471497 L 43.0 -0.7394688725471497 L 43.0 -0.8601900339126587 L 42.0 -0.8601900339126587 L 42.0 -0.948519229888916 L 41.0 -0.948519229888916 L 41.0 -0.881842315196991 L 40.0 -0.881842315196991 L 40.0 -0.954736053943634 L 39.0 -0.954736053943634 L 39.0 -0.9689364433288574 L 38.0 -0.9689364433288574 L 38.0 -0.9243766069412231 L 37.0 -0.9243766069412231 L 37.0 -0.9320481419563293 L 36.0 -0.9320481419563293 L 36.0 -1.0697356462478638 L 35.0 -1.0697356462478638 L 35.0 -1.2135002613067627 L 34.0 -1.2135002613067627 L 34.0 -1.1210403442382812 L 33.0 -1.1210403442382812 L 33.0 -1.076706886291504 L 32.0 -1.076706886291504 L 32.0 -0.9261225461959839 L 31.0 -0.9261225461959839 L 31.0 -1.028971552848816 L 30.0 -1.028971552848816 L 30.0 -0.9355815649032593 L 29.0 -0.9355815649032593 L 29.0 -1.0155184268951416 L 28.0 -1.0155184268951416 L 28.0 -1.0907166004180908 L 27.0 -1.0907166004180908 L 27.0 -0.9617769122123718 L 26.0 -0.9617769122123718 L 26.0 -0.8283138275146484 L 25.0 -0.8283138275146484 L 25.0 -0.6412819623947144 L 24.0 -0.6412819623947144 L 24.0 -0.7583593726158142 L 23.0 -0.7583593726158142 L 23.0 -0.7728801965713501 L 22.0 -0.7728801965713501 L 22.0 -0.8811092376708984 L 21.0 -0.8811092376708984 L 21.0 -0.818533718585968 L 20.0 -0.818533718585968 L 20.0 -0.7727707624435425 L 19.0 -0.7727707624435425 L 19.0 -0.793333888053894 L 18.0 -0.793333888053894 L 18.0 -0.7965928912162781 L 17.0 -0.7965928912162781 L 17.0 -0.8022257685661316 L 16.0 -0.8022257685661316 L 16.0 -0.8604841232299805 L 15.0 -0.8604841232299805 L 15.0 -0.9769452214241028 L 14.0 -0.9769452214241028 L 14.0 -0.8286697268486023 L 13.0 -0.8286697268486023 L 13.0 -0.7218196988105774 L 12.0 -0.7218196988105774 L 12.0 -0.517475426197052 L 11.0 -0.517475426197052 L 11.0 -0.5077307224273682 L 10.0 -0.5077307224273682 L 10.0 -0.5897679924964905 L 9.0 -0.5897679924964905 L 9.0 -0.4729922413825989 L 8.0 -0.4729922413825989 L 8.0 -0.3809431195259094 L 7.0 -0.3809431195259094 L 7.0 -0.3271269202232361 L 6.0 -0.3271269202232361 L 6.0 -0.20742130279541016 L 5.0 -0.20742130279541016 L 5.0 -0.11830464750528336 L 4.0 -0.11830464750528336 L 4.0 -0.12021587044000626 L 3.0 -0.12021587044000626 L 3.0 -0.11245826631784439 L 2.0 -0.11245826631784439 L 2.0 -0.19136850535869598 L 1.0 -0.19136850535869598 L 1.0 -0.09227485209703445 L 0.0 -0.09227485209703445 Z" style="vector-effect: non-scaling-stroke;" /></g></g><g style="stroke: black;stroke-width: 1.2000000000000002;" transform="matrix(1.0, 0.0, 0.0, 1.0, 0.0, 0.0)"><path d="M 0.0 -0.09227485209703445 L 1.0 -0.09227485209703445 L 1.0 -0.19136850535869598 L 2.0 -0.19136850535869598 L 2.0 -0.11245826631784439 L 3.0 -0.11245826631784439 L 3.0 -0.12021587044000626 L 4.0 -0.12021587044000626 L 4.0 -0.11830464750528336 L 5.0 -0.11830464750528336 L 5.0 -0.20742130279541016 L 6.0 -0.20742130279541016 L 6.0 -0.3271269202232361 L 7.0 -0.3271269202232361 L 7.0 -0.3809431195259094 L 8.0 -0.3809431195259094 L 8.0 -0.4729922413825989 L 9.0 -0.4729922413825989 L 9.0 -0.5897679924964905 L 10.0 -0.5897679924964905 L 10.0 -0.5077307224273682 L 11.0 -0.5077307224273682 L 11.0 -0.517475426197052 L 12.0 -0.517475426197052 L 12.0 -0.7218196988105774 L 13.0 -0.7218196988105774 L 13.0 -0.8286697268486023 L 14.0 -0.8286697268486023 L 14.0 -0.9769452214241028 L 15.0 -0.9769452214241028 L 15.0 -0.8604841232299805 L 16.0 -0.8604841232299805 L 16.0 -0.8022257685661316 L 17.0 -0.8022257685661316 L 17.0 -0.7965928912162781 L 18.0 -0.7965928912162781 L 18.0 -0.793333888053894 L 19.0 -0.793333888053894 L 19.0 -0.7727707624435425 L 20.0 -0.7727707624435425 L 20.0 -0.818533718585968 L 21.0 -0.818533718585968 L 21.0 -0.8811092376708984 L 22.0 -0.8811092376708984 L 22.0 -0.7728801965713501 L 23.0 -0.7728801965713501 L 23.0 -0.7583593726158142 L 24.0 -0.7583593726158142 L 24.0 -0.6412819623947144 L 25.0 -0.6412819623947144 L 25.0 -0.8283138275146484 L 26.0 -0.8283138275146484 L 26.0 -0.9617769122123718 L 27.0 -0.9617769122123718 L 27.0 -1.0907166004180908 L 28.0 -1.0907166004180908 L 28.0 -1.0155184268951416 L 29.0 -1.0155184268951416 L 29.0 -0.9355815649032593 L 30.0 -0.9355815649032593 L 30.0 -1.028971552848816 L 31.0 -1.028971552848816 L 31.0 -0.9261225461959839 L 32.0 -0.9261225461959839 L 32.0 -1.076706886291504 L 33.0 -1.076706886291504 L 33.0 -1.1210403442382812 L 34.0 -1.1210403442382812 L 34.0 -1.2135002613067627 L 35.0 -1.2135002613067627 L 35.0 -1.0697356462478638 L 36.0 -1.0697356462478638 L 36.0 -0.9320481419563293 L 37.0 -0.9320481419563293 L 37.0 -0.9243766069412231 L 38.0 -0.9243766069412231 L 38.0 -0.9689364433288574 L 39.0 -0.9689364433288574 L 39.0 -0.954736053943634 L 40.0 -0.954736053943634 L 40.0 -0.881842315196991 L 41.0 -0.881842315196991 L 41.0 -0.948519229888916 L 42.0 -0.948519229888916 L 42.0 -0.8601900339126587 L 43.0 -0.8601900339126587 L 43.0 -0.7394688725471497 L 44.0 -0.7394688725471497 L 44.0 -0.7629668712615967 L 45.0 -0.7629668712615967 L 45.0 -0.8900146484375 L 46.0 -0.8900146484375 L 46.0 -0.8219172358512878 L 47.0 -0.8219172358512878 L 47.0 -0.6613971590995789 L 48.0 -0.6613971590995789 L 48.0 -0.6588209867477417 L 49.0 -0.6588209867477417 L 49.0 -0.8151701092720032 L 50.0 -0.8151701092720032" style="vector-effect: non-scaling-stroke;fill:none;" /></g></g></g></g></g></g></g></g><g><g><g><g><g transform="matrix(1.0, 0.0, 0.0, 1.0, -0.32499999999999996, -0.03)"><g transform="matrix(1.0, 0.0, 0.0, 1.0, 0.075, 0.0)"><g transform="matrix(1.0, 0.0, 0.0, 1.0, 0.0, 0.03)"><g transform="matrix(0.01, 0.0, 0.0, 0.01, 0.0, 0.0)"><g><g><g transform="matrix(1.0, 0.0, 0.0, 1.0, 25.0, 0.0)"><g transform="matrix(1.0, 0.0, 0.0, 1.0, -32.5, -0.0)"><g><g style="fill: #d3d3d3;stroke: black;stroke-width: 1.2000000000000002;" transform="matrix(1.0, 0.0, 0.0, 1.0, 0.0, -3.0)"><path d="M 0.0 0.0 L 65.0 0.0 L 65.0 6.0 L 0.0 6.0 L 0.0 0.0 Z" style="vector-effect: non-scaling-stroke;" /></g><g transform="matrix(1.0, 0.0, 0.0, 1.0, 1.875, 0.0)"><g><g style="stroke: black;stroke-width: 1.2000000000000002;" transform="matrix(1.0, 0.0, 0.0, 1.0, 0.0, 0.0)"><g /></g><g style="fill: #ffa500;stroke: black;stroke-width: 1.2000000000000002;" transform="matrix(1.0, 0.0, 0.0, 1.0, 1.875, 0.0)"><text style="text-align:center; text-anchor:middle; dominant-baseline:middle;&#10;                      font-family:sans-serif; font-weight: bold;&#10;                      font-size:3px;&#10;                      vector-effect: non-scaling-stroke;" transform="translate(-5e-05, 0)">x</text></g></g></g></g></g></g><g><g><g><g style="stroke: black;stroke-width: 1.2000000000000002;" transform="matrix(1.0, 0.0, 0.0, 1.0, 0.0, 0.0)"><path d="M 0.0 -2.0 L 0.0 2.0" style="vector-effect: non-scaling-stroke;fill:none;" /></g><g style="stroke: #808080;stroke-width: 0.6000000000000001;" transform="matrix(1.0, 0.0, 0.0, 1.0, 0.0, 0.0)"><path d="M 0.0 0.0 L 50.0 0.0" style="vector-effect: non-scaling-stroke;fill:none;" /></g></g><g style="stroke: black;stroke-width: 2.4000000000000004;" transform="matrix(1.0, 0.0, 0.0, 1.0, 0.0, 0.0)"><path d="M 0.0 -0.9227485060691833 L 1.0 -0.9227485060691833 L 1.0 -0.9909365773200989 L 2.0 -0.9909365773200989 L 2.0 0.7891024351119995 L 3.0 0.7891024351119995 L 3.0 -0.07757601141929626 L 4.0 -0.07757601141929626 L 4.0 0.01911219209432602 L 5.0 0.01911219209432602 L 5.0 -0.8911665081977844 L 6.0 -0.8911665081977844 L 6.0 -1.1970560550689697 L 7.0 -1.1970560550689697 L 7.0 -0.5381621718406677 L 8.0 -0.5381621718406677 L 8.0 -0.9204915165901184 L 9.0 -0.9204915165901184 L 9.0 -1.1677565574645996 L 10.0 -1.1677565574645996 L 10.0 -0.10237627476453781 L 11.0 -0.10237627476453781 L 11.0 -1.0883831977844238 L 12.0 -1.0883831977844238 L 12.0 -1.2543400526046753 L 13.0 -1.2543400526046753 L 13.0 -1.146077275276184 L 14.0 -1.146077275276184 L 14.0 -1.46364164352417 L 15.0 -1.46364164352417 L 15.0 0.2734439969062805 L 16.0 0.2734439969062805 L 16.0 -0.6144730448722839 L 17.0 -0.6144730448722839 L 17.0 -0.4818328320980072 L 18.0 -0.4818328320980072 L 18.0 -0.8879019618034363 L 19.0 -0.8879019618034363 L 19.0 -0.9621256589889526 L 20.0 -0.9621256589889526 L 20.0 -0.560005247592926 L 21.0 -0.560005247592926 L 21.0 -1.7141392230987549 L 22.0 -1.7141392230987549 L 22.0 -0.17204943299293518 L 23.0 -0.17204943299293518 L 23.0 -1.0008693933486938 L 24.0 -1.0008693933486938 L 24.0 -0.29286766052246094 L 25.0 -0.29286766052246094 L 25.0 -1.59687340259552 L 26.0 -1.59687340259552 L 26.0 -1.9491041898727417 L 27.0 -1.9491041898727417 L 27.0 -1.7712304592132568 L 28.0 -1.7712304592132568 L 28.0 -0.13592040538787842 L 29.0 -0.13592040538787842 L 29.0 -0.16275697946548462 L 30.0 -0.16275697946548462 L 30.0 -1.4939042329788208 L 31.0 -1.4939042329788208 L 31.0 -0.6856494545936584 L 32.0 -0.6856494545936584 L 32.0 -1.6778924465179443 L 33.0 -1.6778924465179443 L 33.0 -1.444204568862915 L 34.0 -1.444204568862915 L 34.0 -1.217467188835144 L 35.0 -1.217467188835144 L 35.0 -0.15922601521015167 L 36.0 -0.15922601521015167 L 36.0 -0.5722299814224243 L 37.0 -0.5722299814224243 L 37.0 -1.6945139169692993 L 38.0 -1.6945139169692993 L 38.0 -0.581519365310669 L 39.0 -0.581519365310669 L 39.0 -0.020752618089318275 L 40.0 -0.020752618089318275 L 40.0 -0.7649675011634827 L 41.0 -0.7649675011634827 L 41.0 -1.352418065071106 L 42.0 -1.352418065071106 L 42.0 -0.794601321220398 L 43.0 -0.794601321220398 L 43.0 -0.23699279129505157 L 44.0 -0.23699279129505157 L 44.0 -1.4524481296539307 L 45.0 -1.4524481296539307 L 45.0 -1.4297020435333252 L 46.0 -1.4297020435333252 L 46.0 0.10874383896589279 L 47.0 0.10874383896589279 L 47.0 -0.08931400626897812 L 48.0 -0.08931400626897812 L 48.0 -0.5557575225830078 L 49.0 -0.5557575225830078 L 49.0 -1.5842432975769043 L 50.0 -1.5842432975769043" style="vector-effect: non-scaling-stroke;fill:none;" /></g></g></g></g><g><g><g><g style="stroke: black;stroke-width: 1.2000000000000002;" transform="matrix(1.0, 0.0, 0.0, 1.0, 0.0, 0.0)"><path d="M 0.0 -2.0 L 0.0 2.0" style="vector-effect: non-scaling-stroke;fill:none;" /></g><g style="stroke: #808080;stroke-width: 0.6000000000000001;" transform="matrix(1.0, 0.0, 0.0, 1.0, 0.0, 0.0)"><path d="M 0.0 0.0 L 50.0 0.0" style="vector-effect: non-scaling-stroke;fill:none;" /></g></g><g style="stroke: black;stroke-width: 2.4000000000000004;" transform="matrix(1.0, 0.0, 0.0, 1.0, 0.0, 0.0)"><path d="M 0.0 -0.9227485060691833 L 1.0 -0.9227485060691833 L 1.0 -0.9909365773200989 L 2.0 -0.9909365773200989 L 2.0 0.7891024351119995 L 3.0 0.7891024351119995 L 3.0 -0.07757601141929626 L 4.0 -0.07757601141929626 L 4.0 0.01911219209432602 L 5.0 0.01911219209432602 L 5.0 -0.8911665081977844 L 6.0 -0.8911665081977844 L 6.0 -1.1970560550689697 L 7.0 -1.1970560550689697 L 7.0 -0.5381621718406677 L 8.0 -0.5381621718406677 L 8.0 -0.9204915165901184 L 9.0 -0.9204915165901184 L 9.0 -1.1677565574645996 L 10.0 -1.1677565574645996 L 10.0 -0.10237627476453781 L 11.0 -0.10237627476453781 L 11.0 -1.0883831977844238 L 12.0 -1.0883831977844238 L 12.0 -1.2543400526046753 L 13.0 -1.2543400526046753 L 13.0 -1.146077275276184 L 14.0 -1.146077275276184 L 14.0 -1.46364164352417 L 15.0 -1.46364164352417 L 15.0 0.2734439969062805 L 16.0 0.2734439969062805 L 16.0 -0.6144730448722839 L 17.0 -0.6144730448722839 L 17.0 -0.4818328320980072 L 18.0 -0.4818328320980072 L 18.0 -0.8879019618034363 L 19.0 -0.8879019618034363 L 19.0 -0.9621256589889526 L 20.0 -0.9621256589889526 L 20.0 -0.560005247592926 L 21.0 -0.560005247592926 L 21.0 -1.7141392230987549 L 22.0 -1.7141392230987549 L 22.0 -0.17204943299293518 L 23.0 -0.17204943299293518 L 23.0 -1.0008693933486938 L 24.0 -1.0008693933486938 L 24.0 -0.29286766052246094 L 25.0 -0.29286766052246094 L 25.0 -1.59687340259552 L 26.0 -1.59687340259552 L 26.0 -1.9491041898727417 L 27.0 -1.9491041898727417 L 27.0 -1.7712304592132568 L 28.0 -1.7712304592132568 L 28.0 -0.13592040538787842 L 29.0 -0.13592040538787842 L 29.0 -0.16275697946548462 L 30.0 -0.16275697946548462 L 30.0 -1.4939042329788208 L 31.0 -1.4939042329788208 L 31.0 -0.6856494545936584 L 32.0 -0.6856494545936584 L 32.0 -1.6778924465179443 L 33.0 -1.6778924465179443 L 33.0 -1.444204568862915 L 34.0 -1.444204568862915 L 34.0 -1.217467188835144 L 35.0 -1.217467188835144 L 35.0 -0.15922601521015167 L 36.0 -0.15922601521015167 L 36.0 -0.5722299814224243 L 37.0 -0.5722299814224243 L 37.0 -1.6945139169692993 L 38.0 -1.6945139169692993 L 38.0 -0.581519365310669 L 39.0 -0.581519365310669 L 39.0 -0.020752618089318275 L 40.0 -0.020752618089318275 L 40.0 -0.7649675011634827 L 41.0 -0.7649675011634827 L 41.0 -1.352418065071106 L 42.0 -1.352418065071106 L 42.0 -0.794601321220398 L 43.0 -0.794601321220398 L 43.0 -0.23699279129505157 L 44.0 -0.23699279129505157 L 44.0 -1.4524481296539307 L 45.0 -1.4524481296539307 L 45.0 -1.4297020435333252 L 46.0 -1.4297020435333252 L 46.0 0.10874383896589279 L 47.0 0.10874383896589279 L 47.0 -0.08931400626897812 L 48.0 -0.08931400626897812 L 48.0 -0.5557575225830078 L 49.0 -0.5557575225830078 L 49.0 -1.5842432975769043 L 50.0 -1.5842432975769043" style="vector-effect: non-scaling-stroke;fill:none;" /></g></g></g></g></g></g></g></g><g style="stroke: black;stroke-width: 1.2000000000000002;" transform="matrix(0.0, -1.0, 1.0, 0.0, 0.0, 0.08)"><g /></g></g><g transform="matrix(1.0, 0.0, 0.0, 1.0, 0.0, 0.16)"><g transform="matrix(1.0, 0.0, 0.0, 1.0, -0.32499999999999996, -0.03)"><g transform="matrix(1.0, 0.0, 0.0, 1.0, 0.075, 0.0)"><g transform="matrix(1.0, 0.0, 0.0, 1.0, 0.0, 0.03)"><g transform="matrix(0.01, 0.0, 0.0, 0.01, 0.0, 0.0)"><g><g><g transform="matrix(1.0, 0.0, 0.0, 1.0, 25.0, 0.0)"><g transform="matrix(1.0, 0.0, 0.0, 1.0, -32.5, -0.0)"><g><g style="fill: #d3d3d3;stroke: black;stroke-width: 1.2000000000000002;" transform="matrix(1.0, 0.0, 0.0, 1.0, 0.0, -3.0)"><path d="M 0.0 0.0 L 65.0 0.0 L 65.0 6.0 L 0.0 6.0 L 0.0 0.0 Z" style="vector-effect: non-scaling-stroke;" /></g><g transform="matrix(1.0, 0.0, 0.0, 1.0, 1.875, 0.0)"><g><g style="stroke: black;stroke-width: 1.2000000000000002;" transform="matrix(1.0, 0.0, 0.0, 1.0, 0.0, 0.0)"><g /></g><g style="fill: #ffa500;stroke: black;stroke-width: 1.2000000000000002;" transform="matrix(1.0, 0.0, 0.0, 1.0, 1.875, 0.0)"><text style="text-align:center; text-anchor:middle; dominant-baseline:middle;&#10;                      font-family:sans-serif; font-weight: bold;&#10;                      font-size:3px;&#10;                      vector-effect: non-scaling-stroke;" transform="translate(-5e-05, 0)">f(x)</text></g></g></g></g></g></g><g><g><g><g style="stroke: black;stroke-width: 1.2000000000000002;" transform="matrix(1.0, 0.0, 0.0, 1.0, 0.0, 0.0)"><path d="M 0.0 -2.0 L 0.0 2.0" style="vector-effect: non-scaling-stroke;fill:none;" /></g><g style="stroke: #808080;stroke-width: 0.6000000000000001;" transform="matrix(1.0, 0.0, 0.0, 1.0, 0.0, 0.0)"><path d="M 0.0 0.0 L 50.0 0.0" style="vector-effect: non-scaling-stroke;fill:none;" /></g></g><g style="stroke: black;stroke-width: 2.4000000000000004;" transform="matrix(1.0, 0.0, 0.0, 1.0, 0.0, 0.0)"><path d="M 0.0 -0.09227485209703445 L 1.0 -0.09227485209703445 L 1.0 -0.19136850535869598 L 2.0 -0.19136850535869598 L 2.0 -0.11245826631784439 L 3.0 -0.11245826631784439 L 3.0 -0.12021587044000626 L 4.0 -0.12021587044000626 L 4.0 -0.11830464750528336 L 5.0 -0.11830464750528336 L 5.0 -0.20742130279541016 L 6.0 -0.20742130279541016 L 6.0 -0.3271269202232361 L 7.0 -0.3271269202232361 L 7.0 -0.3809431195259094 L 8.0 -0.3809431195259094 L 8.0 -0.4729922413825989 L 9.0 -0.4729922413825989 L 9.0 -0.5897679924964905 L 10.0 -0.5897679924964905 L 10.0 -0.5077307224273682 L 11.0 -0.5077307224273682 L 11.0 -0.517475426197052 L 12.0 -0.517475426197052 L 12.0 -0.7218196988105774 L 13.0 -0.7218196988105774 L 13.0 -0.8286697268486023 L 14.0 -0.8286697268486023 L 14.0 -0.9769452214241028 L 15.0 -0.9769452214241028 L 15.0 -0.8604841232299805 L 16.0 -0.8604841232299805 L 16.0 -0.8022257685661316 L 17.0 -0.8022257685661316 L 17.0 -0.7965928912162781 L 18.0 -0.7965928912162781 L 18.0 -0.793333888053894 L 19.0 -0.793333888053894 L 19.0 -0.7727707624435425 L 20.0 -0.7727707624435425 L 20.0 -0.818533718585968 L 21.0 -0.818533718585968 L 21.0 -0.8811092376708984 L 22.0 -0.8811092376708984 L 22.0 -0.7728801965713501 L 23.0 -0.7728801965713501 L 23.0 -0.7583593726158142 L 24.0 -0.7583593726158142 L 24.0 -0.6412819623947144 L 25.0 -0.6412819623947144 L 25.0 -0.8283138275146484 L 26.0 -0.8283138275146484 L 26.0 -0.9617769122123718 L 27.0 -0.9617769122123718 L 27.0 -1.0907166004180908 L 28.0 -1.0907166004180908 L 28.0 -1.0155184268951416 L 29.0 -1.0155184268951416 L 29.0 -0.9355815649032593 L 30.0 -0.9355815649032593 L 30.0 -1.028971552848816 L 31.0 -1.028971552848816 L 31.0 -0.9261225461959839 L 32.0 -0.9261225461959839 L 32.0 -1.076706886291504 L 33.0 -1.076706886291504 L 33.0 -1.1210403442382812 L 34.0 -1.1210403442382812 L 34.0 -1.2135002613067627 L 35.0 -1.2135002613067627 L 35.0 -1.0697356462478638 L 36.0 -1.0697356462478638 L 36.0 -0.9320481419563293 L 37.0 -0.9320481419563293 L 37.0 -0.9243766069412231 L 38.0 -0.9243766069412231 L 38.0 -0.9689364433288574 L 39.0 -0.9689364433288574 L 39.0 -0.954736053943634 L 40.0 -0.954736053943634 L 40.0 -0.881842315196991 L 41.0 -0.881842315196991 L 41.0 -0.948519229888916 L 42.0 -0.948519229888916 L 42.0 -0.8601900339126587 L 43.0 -0.8601900339126587 L 43.0 -0.7394688725471497 L 44.0 -0.7394688725471497 L 44.0 -0.7629668712615967 L 45.0 -0.7629668712615967 L 45.0 -0.8900146484375 L 46.0 -0.8900146484375 L 46.0 -0.8219172358512878 L 47.0 -0.8219172358512878 L 47.0 -0.6613971590995789 L 48.0 -0.6613971590995789 L 48.0 -0.6588209867477417 L 49.0 -0.6588209867477417 L 49.0 -0.8151701092720032 L 50.0 -0.8151701092720032" style="vector-effect: non-scaling-stroke;fill:none;" /></g></g></g></g><g><g><g><g style="stroke: black;stroke-width: 1.2000000000000002;" transform="matrix(1.0, 0.0, 0.0, 1.0, 0.0, 0.0)"><path d="M 0.0 -2.0 L 0.0 2.0" style="vector-effect: non-scaling-stroke;fill:none;" /></g><g style="stroke: #808080;stroke-width: 0.6000000000000001;" transform="matrix(1.0, 0.0, 0.0, 1.0, 0.0, 0.0)"><path d="M 0.0 0.0 L 50.0 0.0" style="vector-effect: non-scaling-stroke;fill:none;" /></g></g><g style="stroke: black;stroke-width: 2.4000000000000004;" transform="matrix(1.0, 0.0, 0.0, 1.0, 0.0, 0.0)"><path d="M 0.0 -0.09227485209703445 L 1.0 -0.09227485209703445 L 1.0 -0.19136850535869598 L 2.0 -0.19136850535869598 L 2.0 -0.11245826631784439 L 3.0 -0.11245826631784439 L 3.0 -0.12021587044000626 L 4.0 -0.12021587044000626 L 4.0 -0.11830464750528336 L 5.0 -0.11830464750528336 L 5.0 -0.20742130279541016 L 6.0 -0.20742130279541016 L 6.0 -0.3271269202232361 L 7.0 -0.3271269202232361 L 7.0 -0.3809431195259094 L 8.0 -0.3809431195259094 L 8.0 -0.4729922413825989 L 9.0 -0.4729922413825989 L 9.0 -0.5897679924964905 L 10.0 -0.5897679924964905 L 10.0 -0.5077307224273682 L 11.0 -0.5077307224273682 L 11.0 -0.517475426197052 L 12.0 -0.517475426197052 L 12.0 -0.7218196988105774 L 13.0 -0.7218196988105774 L 13.0 -0.8286697268486023 L 14.0 -0.8286697268486023 L 14.0 -0.9769452214241028 L 15.0 -0.9769452214241028 L 15.0 -0.8604841232299805 L 16.0 -0.8604841232299805 L 16.0 -0.8022257685661316 L 17.0 -0.8022257685661316 L 17.0 -0.7965928912162781 L 18.0 -0.7965928912162781 L 18.0 -0.793333888053894 L 19.0 -0.793333888053894 L 19.0 -0.7727707624435425 L 20.0 -0.7727707624435425 L 20.0 -0.818533718585968 L 21.0 -0.818533718585968 L 21.0 -0.8811092376708984 L 22.0 -0.8811092376708984 L 22.0 -0.7728801965713501 L 23.0 -0.7728801965713501 L 23.0 -0.7583593726158142 L 24.0 -0.7583593726158142 L 24.0 -0.6412819623947144 L 25.0 -0.6412819623947144 L 25.0 -0.8283138275146484 L 26.0 -0.8283138275146484 L 26.0 -0.9617769122123718 L 27.0 -0.9617769122123718 L 27.0 -1.0907166004180908 L 28.0 -1.0907166004180908 L 28.0 -1.0155184268951416 L 29.0 -1.0155184268951416 L 29.0 -0.9355815649032593 L 30.0 -0.9355815649032593 L 30.0 -1.028971552848816 L 31.0 -1.028971552848816 L 31.0 -0.9261225461959839 L 32.0 -0.9261225461959839 L 32.0 -1.076706886291504 L 33.0 -1.076706886291504 L 33.0 -1.1210403442382812 L 34.0 -1.1210403442382812 L 34.0 -1.2135002613067627 L 35.0 -1.2135002613067627 L 35.0 -1.0697356462478638 L 36.0 -1.0697356462478638 L 36.0 -0.9320481419563293 L 37.0 -0.9320481419563293 L 37.0 -0.9243766069412231 L 38.0 -0.9243766069412231 L 38.0 -0.9689364433288574 L 39.0 -0.9689364433288574 L 39.0 -0.954736053943634 L 40.0 -0.954736053943634 L 40.0 -0.881842315196991 L 41.0 -0.881842315196991 L 41.0 -0.948519229888916 L 42.0 -0.948519229888916 L 42.0 -0.8601900339126587 L 43.0 -0.8601900339126587 L 43.0 -0.7394688725471497 L 44.0 -0.7394688725471497 L 44.0 -0.7629668712615967 L 45.0 -0.7629668712615967 L 45.0 -0.8900146484375 L 46.0 -0.8900146484375 L 46.0 -0.8219172358512878 L 47.0 -0.8219172358512878 L 47.0 -0.6613971590995789 L 48.0 -0.6613971590995789 L 48.0 -0.6588209867477417 L 49.0 -0.6588209867477417 L 49.0 -0.8151701092720032 L 50.0 -0.8151701092720032" style="vector-effect: non-scaling-stroke;fill:none;" /></g></g></g></g></g></g></g></g></g></g><g transform="matrix(1.0, 0.0, 0.0, 1.0, -0.24999999999999994, 0.16)"><g transform="matrix(1.0, 0.0, 0.0, 0.009999999999999995, 0.0, 0.0)"><g transform="matrix(0.01, 0.0, 0.0, 1.0, 0.0, 0.0)"><g><g><g style="fill: #ff0000;stroke: #ff0000;stroke-width: 1.2000000000000002;fill-opacity: 0.5;" transform="matrix(1.0, 0.0, 0.0, 1.0, 0.0, 0.0)"><path d="M 0.0 -2.0 L 0.0 2.0" style="vector-effect: non-scaling-stroke;fill:none;" /></g><g style="fill: #ff0000;stroke: #ff0000;stroke-width: 1.2000000000000002;fill-opacity: 0.5;" transform="matrix(1.0, 0.0, 0.0, 1.0, 0.0, 0.0)"><path d="M 0.0 -0.09227485209703445 L 1.0 -0.09227485209703445 L 1.0 -0.19136850535869598 L 2.0 -0.19136850535869598 L 2.0 -0.11245826631784439 L 3.0 -0.11245826631784439 L 3.0 -0.12021587044000626 L 4.0 -0.12021587044000626 L 4.0 -0.11830464750528336 L 5.0 -0.11830464750528336 L 5.0 -0.20742130279541016 L 6.0 -0.20742130279541016 L 6.0 -0.3271269202232361 L 7.0 -0.3271269202232361 L 7.0 -0.3809431195259094 L 8.0 -0.3809431195259094 L 8.0 -0.4729922413825989 L 9.0 -0.4729922413825989 L 9.0 -0.5897679924964905 L 10.0 -0.5897679924964905 L 10.0 -0.5077307224273682 L 11.0 -0.5077307224273682 L 11.0 -0.517475426197052 L 12.0 -0.517475426197052 L 12.0 -0.7218196988105774 L 13.0 -0.7218196988105774 L 13.0 -0.8286697268486023 L 14.0 -0.8286697268486023 L 14.0 -0.9769452214241028 L 15.0 -0.9769452214241028 L 15.0 -0.8604841232299805 L 16.0 -0.8604841232299805 L 16.0 -0.8022257685661316 L 17.0 -0.8022257685661316 L 17.0 -0.7965928912162781 L 18.0 -0.7965928912162781 L 18.0 -0.793333888053894 L 19.0 -0.793333888053894 L 19.0 -0.7727707624435425 L 20.0 -0.7727707624435425 L 20.0 -0.818533718585968 L 21.0 -0.818533718585968 L 21.0 -0.8811092376708984 L 22.0 -0.8811092376708984 L 22.0 -0.7728801965713501 L 23.0 -0.7728801965713501 L 23.0 -0.7583593726158142 L 24.0 -0.7583593726158142 L 24.0 -0.6412819623947144 L 25.0 -0.6412819623947144 L 25.0 -0.8283138275146484 L 26.0 -0.8283138275146484 L 26.0 -0.9617769122123718 L 27.0 -0.9617769122123718 L 27.0 -1.0907166004180908 L 28.0 -1.0907166004180908 L 28.0 -1.0155184268951416 L 29.0 -1.0155184268951416 L 29.0 -0.9355815649032593 L 30.0 -0.9355815649032593 L 30.0 -1.028971552848816 L 31.0 -1.028971552848816 L 31.0 -0.9261225461959839 L 32.0 -0.9261225461959839 L 32.0 -1.076706886291504 L 33.0 -1.076706886291504 L 33.0 -1.1210403442382812 L 34.0 -1.1210403442382812 L 34.0 -1.2135002613067627 L 35.0 -1.2135002613067627 L 35.0 -1.0697356462478638 L 36.0 -1.0697356462478638 L 36.0 -0.9320481419563293 L 37.0 -0.9320481419563293 L 37.0 -0.9243766069412231 L 38.0 -0.9243766069412231 L 38.0 -0.9689364433288574 L 39.0 -0.9689364433288574 L 39.0 -0.954736053943634 L 40.0 -0.954736053943634 L 40.0 -0.881842315196991 L 41.0 -0.881842315196991 L 41.0 -0.948519229888916 L 42.0 -0.948519229888916 L 42.0 -0.8601900339126587 L 43.0 -0.8601900339126587 L 43.0 -0.7394688725471497 L 44.0 -0.7394688725471497 L 44.0 -0.7629668712615967 L 45.0 -0.7629668712615967 L 45.0 -0.8900146484375 L 46.0 -0.8900146484375 L 46.0 -0.8219172358512878 L 47.0 -0.8219172358512878 L 47.0 -0.6613971590995789 L 48.0 -0.6613971590995789 L 48.0 -0.6588209867477417 L 49.0 -0.6588209867477417 L 49.0 -0.8151701092720032 L 50.0 -0.8151701092720032 L 50.0 -0.8151701092720032 L 49.0 -0.8151701092720032 L 49.0 -0.6588209867477417 L 48.0 -0.6588209867477417 L 48.0 -0.6613971590995789 L 47.0 -0.6613971590995789 L 47.0 -0.8219172358512878 L 46.0 -0.8219172358512878 L 46.0 -0.8900146484375 L 45.0 -0.8900146484375 L 45.0 -0.7629668712615967 L 44.0 -0.7629668712615967 L 44.0 -0.7394688725471497 L 43.0 -0.7394688725471497 L 43.0 -0.8601900339126587 L 42.0 -0.8601900339126587 L 42.0 -0.948519229888916 L 41.0 -0.948519229888916 L 41.0 -0.881842315196991 L 40.0 -0.881842315196991 L 40.0 -0.954736053943634 L 39.0 -0.954736053943634 L 39.0 -0.9689364433288574 L 38.0 -0.9689364433288574 L 38.0 -0.9243766069412231 L 37.0 -0.9243766069412231 L 37.0 -0.9320481419563293 L 36.0 -0.9320481419563293 L 36.0 -1.0697356462478638 L 35.0 -1.0697356462478638 L 35.0 -1.2135002613067627 L 34.0 -1.2135002613067627 L 34.0 -1.1210403442382812 L 33.0 -1.1210403442382812 L 33.0 -1.076706886291504 L 32.0 -1.076706886291504 L 32.0 -0.9261225461959839 L 31.0 -0.9261225461959839 L 31.0 -1.028971552848816 L 30.0 -1.028971552848816 L 30.0 -0.9355815649032593 L 29.0 -0.9355815649032593 L 29.0 -1.0155184268951416 L 28.0 -1.0155184268951416 L 28.0 -1.0907166004180908 L 27.0 -1.0907166004180908 L 27.0 -0.9617769122123718 L 26.0 -0.9617769122123718 L 26.0 -0.8283138275146484 L 25.0 -0.8283138275146484 L 25.0 -0.6412819623947144 L 24.0 -0.6412819623947144 L 24.0 -0.7583593726158142 L 23.0 -0.7583593726158142 L 23.0 -0.7728801965713501 L 22.0 -0.7728801965713501 L 22.0 -0.8811092376708984 L 21.0 -0.8811092376708984 L 21.0 -0.818533718585968 L 20.0 -0.818533718585968 L 20.0 -0.7727707624435425 L 19.0 -0.7727707624435425 L 19.0 -0.793333888053894 L 18.0 -0.793333888053894 L 18.0 -0.7965928912162781 L 17.0 -0.7965928912162781 L 17.0 -0.8022257685661316 L 16.0 -0.8022257685661316 L 16.0 -0.8604841232299805 L 15.0 -0.8604841232299805 L 15.0 -0.9769452214241028 L 14.0 -0.9769452214241028 L 14.0 -0.8286697268486023 L 13.0 -0.8286697268486023 L 13.0 -0.7218196988105774 L 12.0 -0.7218196988105774 L 12.0 -0.517475426197052 L 11.0 -0.517475426197052 L 11.0 -0.5077307224273682 L 10.0 -0.5077307224273682 L 10.0 -0.5897679924964905 L 9.0 -0.5897679924964905 L 9.0 -0.4729922413825989 L 8.0 -0.4729922413825989 L 8.0 -0.3809431195259094 L 7.0 -0.3809431195259094 L 7.0 -0.3271269202232361 L 6.0 -0.3271269202232361 L 6.0 -0.20742130279541016 L 5.0 -0.20742130279541016 L 5.0 -0.11830464750528336 L 4.0 -0.11830464750528336 L 4.0 -0.12021587044000626 L 3.0 -0.12021587044000626 L 3.0 -0.11245826631784439 L 2.0 -0.11245826631784439 L 2.0 -0.19136850535869598 L 1.0 -0.19136850535869598 L 1.0 -0.09227485209703445 L 0.0 -0.09227485209703445 Z" style="vector-effect: non-scaling-stroke;" /></g></g><g style="stroke: black;stroke-width: 1.2000000000000002;" transform="matrix(1.0, 0.0, 0.0, 1.0, 0.0, 0.0)"><path d="M 0.0 -0.09227485209703445 L 1.0 -0.09227485209703445 L 1.0 -0.19136850535869598 L 2.0 -0.19136850535869598 L 2.0 -0.11245826631784439 L 3.0 -0.11245826631784439 L 3.0 -0.12021587044000626 L 4.0 -0.12021587044000626 L 4.0 -0.11830464750528336 L 5.0 -0.11830464750528336 L 5.0 -0.20742130279541016 L 6.0 -0.20742130279541016 L 6.0 -0.3271269202232361 L 7.0 -0.3271269202232361 L 7.0 -0.3809431195259094 L 8.0 -0.3809431195259094 L 8.0 -0.4729922413825989 L 9.0 -0.4729922413825989 L 9.0 -0.5897679924964905 L 10.0 -0.5897679924964905 L 10.0 -0.5077307224273682 L 11.0 -0.5077307224273682 L 11.0 -0.517475426197052 L 12.0 -0.517475426197052 L 12.0 -0.7218196988105774 L 13.0 -0.7218196988105774 L 13.0 -0.8286697268486023 L 14.0 -0.8286697268486023 L 14.0 -0.9769452214241028 L 15.0 -0.9769452214241028 L 15.0 -0.8604841232299805 L 16.0 -0.8604841232299805 L 16.0 -0.8022257685661316 L 17.0 -0.8022257685661316 L 17.0 -0.7965928912162781 L 18.0 -0.7965928912162781 L 18.0 -0.793333888053894 L 19.0 -0.793333888053894 L 19.0 -0.7727707624435425 L 20.0 -0.7727707624435425 L 20.0 -0.818533718585968 L 21.0 -0.818533718585968 L 21.0 -0.8811092376708984 L 22.0 -0.8811092376708984 L 22.0 -0.7728801965713501 L 23.0 -0.7728801965713501 L 23.0 -0.7583593726158142 L 24.0 -0.7583593726158142 L 24.0 -0.6412819623947144 L 25.0 -0.6412819623947144 L 25.0 -0.8283138275146484 L 26.0 -0.8283138275146484 L 26.0 -0.9617769122123718 L 27.0 -0.9617769122123718 L 27.0 -1.0907166004180908 L 28.0 -1.0907166004180908 L 28.0 -1.0155184268951416 L 29.0 -1.0155184268951416 L 29.0 -0.9355815649032593 L 30.0 -0.9355815649032593 L 30.0 -1.028971552848816 L 31.0 -1.028971552848816 L 31.0 -0.9261225461959839 L 32.0 -0.9261225461959839 L 32.0 -1.076706886291504 L 33.0 -1.076706886291504 L 33.0 -1.1210403442382812 L 34.0 -1.1210403442382812 L 34.0 -1.2135002613067627 L 35.0 -1.2135002613067627 L 35.0 -1.0697356462478638 L 36.0 -1.0697356462478638 L 36.0 -0.9320481419563293 L 37.0 -0.9320481419563293 L 37.0 -0.9243766069412231 L 38.0 -0.9243766069412231 L 38.0 -0.9689364433288574 L 39.0 -0.9689364433288574 L 39.0 -0.954736053943634 L 40.0 -0.954736053943634 L 40.0 -0.881842315196991 L 41.0 -0.881842315196991 L 41.0 -0.948519229888916 L 42.0 -0.948519229888916 L 42.0 -0.8601900339126587 L 43.0 -0.8601900339126587 L 43.0 -0.7394688725471497 L 44.0 -0.7394688725471497 L 44.0 -0.7629668712615967 L 45.0 -0.7629668712615967 L 45.0 -0.8900146484375 L 46.0 -0.8900146484375 L 46.0 -0.8219172358512878 L 47.0 -0.8219172358512878 L 47.0 -0.6613971590995789 L 48.0 -0.6613971590995789 L 48.0 -0.6588209867477417 L 49.0 -0.6588209867477417 L 49.0 -0.8151701092720032 L 50.0 -0.8151701092720032" style="vector-effect: non-scaling-stroke;fill:none;" /></g></g></g></g></g></g><g transform="matrix(1.0, 0.0, 0.0, 1.0, -0.24999999999999994, 0.16)"><g transform="matrix(1.0, 0.0, 0.0, 0.009999999999999995, 0.0, 0.0)"><g transform="matrix(0.01, 0.0, 0.0, 1.0, 0.0, 0.0)"><g><g><g style="fill: #ffffe0;stroke: #ffffe0;stroke-width: 1.2000000000000002;fill-opacity: 0.5;" transform="matrix(1.0, 0.0, 0.0, 1.0, 0.0, 0.0)"><path d="M 0.0 -2.0 L 0.0 2.0" style="vector-effect: non-scaling-stroke;fill:none;" /></g><g style="fill: #ffffe0;stroke: #ffffe0;stroke-width: 1.2000000000000002;fill-opacity: 0.5;" transform="matrix(1.0, 0.0, 0.0, 1.0, 0.0, 0.0)"><path d="M 0.0 -0.8939573168754578 L 1.0 -0.8939573168754578 L 1.0 -0.9960312247276306 L 2.0 -0.9960312247276306 L 2.0 -0.9141407608985901 L 3.0 -0.9141407608985901 L 3.0 -0.921898365020752 L 4.0 -0.921898365020752 L 4.0 -0.919987142086029 L 5.0 -0.919987142086029 L 5.0 -1.0061235427856445 L 6.0 -1.0061235427856445 L 6.0 -1.1258292198181152 L 7.0 -1.1258292198181152 L 7.0 -1.1915662288665771 L 8.0 -1.1915662288665771 L 8.0 -1.2716944217681885 L 9.0 -1.2716944217681885 L 9.0 -1.376549243927002 L 10.0 -1.376549243927002 L 10.0 -0.5077307224273682 L 11.0 -0.5077307224273682 L 11.0 -0.517475426197052 L 12.0 -0.517475426197052 L 12.0 -0.7218196988105774 L 13.0 -0.7218196988105774 L 13.0 -0.8286697268486023 L 14.0 -0.8286697268486023 L 14.0 -0.9769452214241028 L 15.0 -0.9769452214241028 L 15.0 -0.8604841232299805 L 16.0 -0.8604841232299805 L 16.0 -0.8022257685661316 L 17.0 -0.8022257685661316 L 17.0 -0.7965928912162781 L 18.0 -0.7965928912162781 L 18.0 -0.793333888053894 L 19.0 -0.793333888053894 L 19.0 -0.7727707624435425 L 20.0 -0.7727707624435425 L 20.0 -1.6053149700164795 L 21.0 -1.6053149700164795 L 21.0 -1.691732406616211 L 22.0 -1.691732406616211 L 22.0 -1.5596615076065063 L 23.0 -1.5596615076065063 L 23.0 -1.5689826011657715 L 24.0 -1.5689826011657715 L 24.0 -1.4519051313400269 L 25.0 -1.4519051313400269 L 25.0 -1.638936996459961 L 26.0 -1.638936996459961 L 26.0 -1.772400140762329 L 27.0 -1.772400140762329 L 27.0 -1.9013397693634033 L 28.0 -1.9013397693634033 L 28.0 -1.826141595840454 L 29.0 -1.826141595840454 L 29.0 -1.7462047338485718 L 30.0 -1.7462047338485718 L 30.0 -1.028971552848816 L 31.0 -1.028971552848816 L 31.0 -0.9261225461959839 L 32.0 -0.9261225461959839 L 32.0 -1.076706886291504 L 33.0 -1.076706886291504 L 33.0 -1.1210403442382812 L 34.0 -1.1210403442382812 L 34.0 -1.2135002613067627 L 35.0 -1.2135002613067627 L 35.0 -1.8326750993728638 L 36.0 -1.8326750993728638 L 36.0 -1.7188293933868408 L 37.0 -1.7188293933868408 L 37.0 -1.7111579179763794 L 38.0 -1.7111579179763794 L 38.0 -1.77955961227417 L 39.0 -1.77955961227417 L 39.0 -1.7415173053741455 L 40.0 -1.7415173053741455 L 40.0 -1.6924655437469482 L 41.0 -1.6924655437469482 L 41.0 -1.7591423988342285 L 42.0 -1.7591423988342285 L 42.0 -1.646971344947815 L 43.0 -1.646971344947815 L 43.0 -1.5262501239776611 L 44.0 -1.5262501239776611 L 44.0 -1.5735900402069092 L 45.0 -1.5735900402069092 L 45.0 -0.8900146484375 L 46.0 -0.8900146484375 L 46.0 -0.8219172358512878 L 47.0 -0.8219172358512878 L 47.0 -0.6613971590995789 L 48.0 -0.6613971590995789 L 48.0 -0.6588209867477417 L 49.0 -0.6588209867477417 L 49.0 -0.8151701092720032 L 50.0 -0.8151701092720032 L 50.0 -0.8151701092720032 L 49.0 -0.8151701092720032 L 49.0 -0.6588209867477417 L 48.0 -0.6588209867477417 L 48.0 -0.6613971590995789 L 47.0 -0.6613971590995789 L 47.0 -0.8219172358512878 L 46.0 -0.8219172358512878 L 46.0 -0.8900146484375 L 45.0 -0.8900146484375 L 45.0 -0.7629668712615967 L 44.0 -0.7629668712615967 L 44.0 -0.7394688725471497 L 43.0 -0.7394688725471497 L 43.0 -0.8601900339126587 L 42.0 -0.8601900339126587 L 42.0 -0.948519229888916 L 41.0 -0.948519229888916 L 41.0 -0.881842315196991 L 40.0 -0.881842315196991 L 40.0 -0.954736053943634 L 39.0 -0.954736053943634 L 39.0 -0.9689364433288574 L 38.0 -0.9689364433288574 L 38.0 -0.9243766069412231 L 37.0 -0.9243766069412231 L 37.0 -0.9320481419563293 L 36.0 -0.9320481419563293 L 36.0 -1.0697356462478638 L 35.0 -1.0697356462478638 L 35.0 -1.2135002613067627 L 34.0 -1.2135002613067627 L 34.0 -1.1210403442382812 L 33.0 -1.1210403442382812 L 33.0 -1.076706886291504 L 32.0 -1.076706886291504 L 32.0 -0.9261225461959839 L 31.0 -0.9261225461959839 L 31.0 -1.028971552848816 L 30.0 -1.028971552848816 L 30.0 -0.9355815649032593 L 29.0 -0.9355815649032593 L 29.0 -1.0155184268951416 L 28.0 -1.0155184268951416 L 28.0 -1.0907166004180908 L 27.0 -1.0907166004180908 L 27.0 -0.9617769122123718 L 26.0 -0.9617769122123718 L 26.0 -0.8283138275146484 L 25.0 -0.8283138275146484 L 25.0 -0.6412819623947144 L 24.0 -0.6412819623947144 L 24.0 -0.7583593726158142 L 23.0 -0.7583593726158142 L 23.0 -0.7728801965713501 L 22.0 -0.7728801965713501 L 22.0 -0.8811092376708984 L 21.0 -0.8811092376708984 L 21.0 -0.818533718585968 L 20.0 -0.818533718585968 L 20.0 -0.7727707624435425 L 19.0 -0.7727707624435425 L 19.0 -0.793333888053894 L 18.0 -0.793333888053894 L 18.0 -0.7965928912162781 L 17.0 -0.7965928912162781 L 17.0 -0.8022257685661316 L 16.0 -0.8022257685661316 L 16.0 -0.8604841232299805 L 15.0 -0.8604841232299805 L 15.0 -0.9769452214241028 L 14.0 -0.9769452214241028 L 14.0 -0.8286697268486023 L 13.0 -0.8286697268486023 L 13.0 -0.7218196988105774 L 12.0 -0.7218196988105774 L 12.0 -0.517475426197052 L 11.0 -0.517475426197052 L 11.0 -0.5077307224273682 L 10.0 -0.5077307224273682 L 10.0 -0.5897679924964905 L 9.0 -0.5897679924964905 L 9.0 -0.4729922413825989 L 8.0 -0.4729922413825989 L 8.0 -0.3809431195259094 L 7.0 -0.3809431195259094 L 7.0 -0.3271269202232361 L 6.0 -0.3271269202232361 L 6.0 -0.20742130279541016 L 5.0 -0.20742130279541016 L 5.0 -0.11830464750528336 L 4.0 -0.11830464750528336 L 4.0 -0.12021587044000626 L 3.0 -0.12021587044000626 L 3.0 -0.11245826631784439 L 2.0 -0.11245826631784439 L 2.0 -0.19136850535869598 L 1.0 -0.19136850535869598 L 1.0 -0.09227485209703445 L 0.0 -0.09227485209703445 Z" style="vector-effect: non-scaling-stroke;" /></g></g><g style="stroke: black;stroke-width: 1.2000000000000002;" transform="matrix(1.0, 0.0, 0.0, 1.0, 0.0, 0.0)"><path d="M 0.0 -0.09227485209703445 L 1.0 -0.09227485209703445 L 1.0 -0.19136850535869598 L 2.0 -0.19136850535869598 L 2.0 -0.11245826631784439 L 3.0 -0.11245826631784439 L 3.0 -0.12021587044000626 L 4.0 -0.12021587044000626 L 4.0 -0.11830464750528336 L 5.0 -0.11830464750528336 L 5.0 -0.20742130279541016 L 6.0 -0.20742130279541016 L 6.0 -0.3271269202232361 L 7.0 -0.3271269202232361 L 7.0 -0.3809431195259094 L 8.0 -0.3809431195259094 L 8.0 -0.4729922413825989 L 9.0 -0.4729922413825989 L 9.0 -0.5897679924964905 L 10.0 -0.5897679924964905 L 10.0 -0.5077307224273682 L 11.0 -0.5077307224273682 L 11.0 -0.517475426197052 L 12.0 -0.517475426197052 L 12.0 -0.7218196988105774 L 13.0 -0.7218196988105774 L 13.0 -0.8286697268486023 L 14.0 -0.8286697268486023 L 14.0 -0.9769452214241028 L 15.0 -0.9769452214241028 L 15.0 -0.8604841232299805 L 16.0 -0.8604841232299805 L 16.0 -0.8022257685661316 L 17.0 -0.8022257685661316 L 17.0 -0.7965928912162781 L 18.0 -0.7965928912162781 L 18.0 -0.793333888053894 L 19.0 -0.793333888053894 L 19.0 -0.7727707624435425 L 20.0 -0.7727707624435425 L 20.0 -0.818533718585968 L 21.0 -0.818533718585968 L 21.0 -0.8811092376708984 L 22.0 -0.8811092376708984 L 22.0 -0.7728801965713501 L 23.0 -0.7728801965713501 L 23.0 -0.7583593726158142 L 24.0 -0.7583593726158142 L 24.0 -0.6412819623947144 L 25.0 -0.6412819623947144 L 25.0 -0.8283138275146484 L 26.0 -0.8283138275146484 L 26.0 -0.9617769122123718 L 27.0 -0.9617769122123718 L 27.0 -1.0907166004180908 L 28.0 -1.0907166004180908 L 28.0 -1.0155184268951416 L 29.0 -1.0155184268951416 L 29.0 -0.9355815649032593 L 30.0 -0.9355815649032593 L 30.0 -1.028971552848816 L 31.0 -1.028971552848816 L 31.0 -0.9261225461959839 L 32.0 -0.9261225461959839 L 32.0 -1.076706886291504 L 33.0 -1.076706886291504 L 33.0 -1.1210403442382812 L 34.0 -1.1210403442382812 L 34.0 -1.2135002613067627 L 35.0 -1.2135002613067627 L 35.0 -1.0697356462478638 L 36.0 -1.0697356462478638 L 36.0 -0.9320481419563293 L 37.0 -0.9320481419563293 L 37.0 -0.9243766069412231 L 38.0 -0.9243766069412231 L 38.0 -0.9689364433288574 L 39.0 -0.9689364433288574 L 39.0 -0.954736053943634 L 40.0 -0.954736053943634 L 40.0 -0.881842315196991 L 41.0 -0.881842315196991 L 41.0 -0.948519229888916 L 42.0 -0.948519229888916 L 42.0 -0.8601900339126587 L 43.0 -0.8601900339126587 L 43.0 -0.7394688725471497 L 44.0 -0.7394688725471497 L 44.0 -0.7629668712615967 L 45.0 -0.7629668712615967 L 45.0 -0.8900146484375 L 46.0 -0.8900146484375 L 46.0 -0.8219172358512878 L 47.0 -0.8219172358512878 L 47.0 -0.6613971590995789 L 48.0 -0.6613971590995789 L 48.0 -0.6588209867477417 L 49.0 -0.6588209867477417 L 49.0 -0.8151701092720032 L 50.0 -0.8151701092720032" style="vector-effect: non-scaling-stroke;fill:none;" /></g></g></g></g></g></g></g></g><g /></g></g></g></g></svg>