<?xml version="1.0" encoding="utf-8" ?>
<svg baseProfile="full" height="300" version="1.1" width="1056" xmlns="http://www.w3.org/2000/svg" xmlns:ev="http://www.w3.org/2001/xml-events" xmlns:xlink="http://www.w3.org/1999/xlink"><defs><marker id="arrow" markerHeight="3.5" markerWidth="5" orient="auto" refX="5.0" refY="1.7"><polygon points="0,0 5,1.75 0,3.5" /></marker></defs><g style="fill:white;"><g transform="matrix(1.0, 0.0, 0.0, 1.0, 528.409090909091, 150.0)"><g transform="matrix(1082.2510822510822, 0.0, 0.0, 1082.2510822510822, 0.0, 0.0)"><g><g transform="matrix(1.0, 0.0, 0.0, 1.0, -0.0, -0.08000000000000002)"><g><g><g style="fill: #ffffff;stroke: black;stroke-width: 1.2000000000000002;" transform="matrix(1.0, 0.0, 0.0, 1.0, -0.465, -0.052000000000000005)"><path d="M 0.0 0.0 L 0.93 0.0 L 0.93 0.264 L 0.0 0.264 L 0.0 0.0 Z" style="vector-effect: non-scaling-stroke;" /></g><g><g><g><g><g><g><g><g transform="matrix(1.0, 0.0, 0.0, 1.0, -0.41500000000000004, -0.03)"><g><g><g transform="matrix(1.0, 0.0, 0.0, 1.0, 0.075, 0.0)"><g transform="matrix(1.0, 0.0, 0.0, 1.0, 0.0, 0.03)"><g transform="matrix(0.01, 0.0, 0.0, 0.01, 0.0, 0.0)"><g><g><g transform="matrix(1.0, 0.0, 0.0, 1.0, 12.5, 0.0)"><g transform="matrix(1.0, 0.0, 0.0, 1.0, -20.0, -0.0)"><g><g style="fill: #d3d3d3;stroke: black;stroke-width: 1.2000000000000002;" transform="matrix(1.0, 0.0, 0.0, 1.0, 0.0, -3.0)"><path d="M 0.0 0.0 L 40.0 0.0 L 40.0 6.0 L 0.0 6.0 L 0.0 0.0 Z" style="vector-effect: non-scaling-stroke;" /></g><g transform="matrix(1.0, 0.0, 0.0, 1.0, 1.875, 0.0)"><g><g style="stroke: black;stroke-width: 1.2000000000000002;" transform="matrix(1.0, 0.0, 0.0, 1.0, 0.0, 0.0)"><g /></g><g style="fill: #ffa500;stroke: black;stroke-width: 1.2000000000000002;" transform="matrix(1.0, 0.0, 0.0, 1.0, 1.875, 0.0)"><text style="text-align:center; text-anchor:middle; dominant-baseline:middle;&#10;                      font-family:sans-serif; font-weight: bold;&#10;                      font-size:3px;&#10;                      vector-effect: non-scaling-stroke;" transform="translate(-5e-05, 0)">x</text></g></g></g></g></g></g><g><g><g><g><g style="stroke: black;stroke-width: 1.2000000000000002;" transform="matrix(1.0, 0.0, 0.0, 1.0, 0.0, 0.0)"><path d="M 0.0 -2.0 L 0.0 2.0" style="vector-effect: non-scaling-stroke;fill:none;" /></g><g style="stroke: #808080;stroke-width: 0.6000000000000001;" transform="matrix(1.0, 0.0, 0.0, 1.0, 0.0, 0.0)"><path d="M 0.0 0.0 L 25.0 0.0" style="vector-effect: non-scaling-stroke;fill:none;" /></g></g><g style="stroke: black;stroke-width: 2.4000000000000004;" transform="matrix(1.0, 0.0, 0.0, 1.0, 0.0, 0.0)"><path d="M 0.0 0.6294554471969604 L 1.0 0.6294554471969604 L 1.0 -0.7630185484886169 L 2.0 -0.7630185484886169 L 2.0 0.7423406839370728 L 3.0 0.7423406839370728 L 3.0 -0.7195001244544983 L 4.0 -0.7195001244544983 L 4.0 -0.8506177663803101 L 5.0 -0.8506177663803101 L 5.0 -0.04162389412522316 L 6.0 -0.04162389412522316 L 6.0 -0.5394607186317444 L 7.0 -0.5394607186317444 L 7.0 0.6511825919151306 L 8.0 0.6511825919151306 L 8.0 -0.9970746040344238 L 9.0 -0.9970746040344238 L 9.0 -0.3729616403579712 L 10.0 -0.3729616403579712 L 10.0 -1.1159924268722534 L 11.0 -1.1159924268722534 L 11.0 -1.0723556280136108 L 12.0 -1.0723556280136108 L 12.0 -1.3392082452774048 L 13.0 -1.3392082452774048 L 13.0 -0.686776876449585 L 14.0 -0.686776876449585 L 14.0 0.2867467999458313 L 15.0 0.2867467999458313 L 15.0 -1.0087007284164429 L 16.0 -1.0087007284164429 L 16.0 -0.554456353187561 L 17.0 -0.554456353187561 L 17.0 -1.2993707656860352 L 18.0 -1.2993707656860352 L 18.0 -0.1132640615105629 L 19.0 -0.1132640615105629 L 19.0 -0.8664798736572266 L 20.0 -0.8664798736572266 L 20.0 -0.1250760704278946 L 21.0 -0.1250760704278946 L 21.0 -1.7989071607589722 L 22.0 -1.7989071607589722 L 22.0 -0.3140564560890198 L 23.0 -0.3140564560890198 L 23.0 -0.9732550978660583 L 24.0 -0.9732550978660583 L 24.0 -0.8565048575401306 L 25.0 -0.8565048575401306" style="vector-effect: non-scaling-stroke;fill:none;" /></g></g><g style="stroke: black;stroke-width: 1.2000000000000002;" transform="matrix(1.0, 0.0, 0.0, 1.0, 0.0, 0.0)"><path d="M 0.0 -2.0 L 0.0 2.0" style="vector-effect: non-scaling-stroke;fill:none;" /></g></g></g></g><g><g><g><g><g style="stroke: black;stroke-width: 1.2000000000000002;" transform="matrix(1.0, 0.0, 0.0, 1.0, 0.0, 0.0)"><path d="M 0.0 -2.0 L 0.0 2.0" style="vector-effect: non-scaling-stroke;fill:none;" /></g><g style="stroke: #808080;stroke-width: 0.6000000000000001;" transform="matrix(1.0, 0.0, 0.0, 1.0, 0.0, 0.0)"><path d="M 0.0 0.0 L 25.0 0.0" style="vector-effect: non-scaling-stroke;fill:none;" /></g></g><g style="stroke: black;stroke-width: 2.4000000000000004;" transform="matrix(1.0, 0.0, 0.0, 1.0, 0.0, 0.0)"><path d="M 0.0 0.6294554471969604 L 1.0 0.6294554471969604 L 1.0 -0.7630185484886169 L 2.0 -0.7630185484886169 L 2.0 0.7423406839370728 L 3.0 0.7423406839370728 L 3.0 -0.7195001244544983 L 4.0 -0.7195001244544983 L 4.0 -0.8506177663803101 L 5.0 -0.8506177663803101 L 5.0 -0.04162389412522316 L 6.0 -0.04162389412522316 L 6.0 -0.5394607186317444 L 7.0 -0.5394607186317444 L 7.0 0.6511825919151306 L 8.0 0.6511825919151306 L 8.0 -0.9970746040344238 L 9.0 -0.9970746040344238 L 9.0 -0.3729616403579712 L 10.0 -0.3729616403579712 L 10.0 -1.1159924268722534 L 11.0 -1.1159924268722534 L 11.0 -1.0723556280136108 L 12.0 -1.0723556280136108 L 12.0 -1.3392082452774048 L 13.0 -1.3392082452774048 L 13.0 -0.686776876449585 L 14.0 -0.686776876449585 L 14.0 0.2867467999458313 L 15.0 0.2867467999458313 L 15.0 -1.0087007284164429 L 16.0 -1.0087007284164429 L 16.0 -0.554456353187561 L 17.0 -0.554456353187561 L 17.0 -1.2993707656860352 L 18.0 -1.2993707656860352 L 18.0 -0.1132640615105629 L 19.0 -0.1132640615105629 L 19.0 -0.8664798736572266 L 20.0 -0.8664798736572266 L 20.0 -0.1250760704278946 L 21.0 -0.1250760704278946 L 21.0 -1.7989071607589722 L 22.0 -1.7989071607589722 L 22.0 -0.3140564560890198 L 23.0 -0.3140564560890198 L 23.0 -0.9732550978660583 L 24.0 -0.9732550978660583 L 24.0 -0.8565048575401306 L 25.0 -0.8565048575401306" style="vector-effect: non-scaling-stroke;fill:none;" /></g></g><g style="stroke: black;stroke-width: 1.2000000000000002;" transform="matrix(1.0, 0.0, 0.0, 1.0, 0.0, 0.0)"><path d="M 0.0 -2.0 L 0.0 2.0" style="vector-effect: non-scaling-stroke;fill:none;" /></g></g></g></g></g></g></g><g style="stroke: black;stroke-width: 1.2000000000000002;" transform="matrix(1.0, 0.0, 0.0, 1.0, 0.41500000000000004, 0.0)"><g /></g></g><g transform="matrix(1.0, 0.0, 0.0, 1.0, 0.43000000000000005, 0.0)"><g transform="matrix(1.0, 0.0, 0.0, 1.0, 0.075, 0.0)"><g transform="matrix(1.0, 0.0, 0.0, 1.0, 0.0, 0.03)"><g transform="matrix(0.01, 0.0, 0.0, 0.01, 0.0, 0.0)"><g><g><g transform="matrix(1.0, 0.0, 0.0, 1.0, 12.5, 0.0)"><g transform="matrix(1.0, 0.0, 0.0, 1.0, -20.0, -0.0)"><g><g style="fill: #d3d3d3;stroke: black;stroke-width: 1.2000000000000002;" transform="matrix(1.0, 0.0, 0.0, 1.0, 0.0, -3.0)"><path d="M 0.0 0.0 L 40.0 0.0 L 40.0 6.0 L 0.0 6.0 L 0.0 0.0 Z" style="vector-effect: non-scaling-stroke;" /></g><g transform="matrix(1.0, 0.0, 0.0, 1.0, 1.875, 0.0)"><g><g style="stroke: black;stroke-width: 1.2000000000000002;" transform="matrix(1.0, 0.0, 0.0, 1.0, 0.0, 0.0)"><g /></g><g style="fill: #ffa500;stroke: black;stroke-width: 1.2000000000000002;" transform="matrix(1.0, 0.0, 0.0, 1.0, 1.875, 0.0)"><text style="text-align:center; text-anchor:middle; dominant-baseline:middle;&#10;                      font-family:sans-serif; font-weight: bold;&#10;                      font-size:3px;&#10;                      vector-effect: non-scaling-stroke;" transform="translate(-5e-05, 0)">y</text></g></g></g></g></g></g><g><g><g><g style="stroke: black;stroke-width: 1.2000000000000002;" transform="matrix(1.0, 0.0, 0.0, 1.0, 0.0, 0.0)"><path d="M 0.0 -2.0 L 0.0 2.0" style="vector-effect: non-scaling-stroke;fill:none;" /></g><g style="stroke: #808080;stroke-width: 0.6000000000000001;" transform="matrix(1.0, 0.0, 0.0, 1.0, 0.0, 0.0)"><path d="M 0.0 0.0 L 25.0 0.0" style="vector-effect: non-scaling-stroke;fill:none;" /></g></g><g style="stroke: black;stroke-width: 2.4000000000000004;" transform="matrix(1.0, 0.0, 0.0, 1.0, 0.0, 0.0)"><path d="M 0.0 0.0058234576135873795 L 1.0 0.0058234576135873795 L 1.0 -1.0786224603652954 L 2.0 -1.0786224603652954 L 2.0 -0.603357195854187 L 3.0 -0.603357195854187 L 3.0 -0.774581789970398 L 4.0 -0.774581789970398 L 4.0 -0.32056427001953125 L 5.0 -0.32056427001953125 L 5.0 -0.13431136310100555 L 6.0 -0.13431136310100555 L 6.0 -0.7048913836479187 L 7.0 -0.7048913836479187 L 7.0 -0.9286437630653381 L 8.0 -0.9286437630653381 L 8.0 -0.566573441028595 L 9.0 -0.566573441028595 L 9.0 -0.8370925784111023 L 10.0 -0.8370925784111023 L 10.0 -1.097080111503601 L 11.0 -1.097080111503601 L 11.0 -1.520912528038025 L 12.0 -1.520912528038025 L 12.0 -0.42788299918174744 L 13.0 -0.42788299918174744 L 13.0 -0.9847083687782288 L 14.0 -0.9847083687782288 L 14.0 -1.7939623594284058 L 15.0 -1.7939623594284058 L 15.0 -1.3936399221420288 L 16.0 -1.3936399221420288 L 16.0 -0.647120475769043 L 17.0 -0.647120475769043 L 17.0 -1.794860601425171 L 18.0 -1.794860601425171 L 18.0 0.024191511794924736 L 19.0 0.024191511794924736 L 19.0 -0.2459212690591812 L 20.0 -0.2459212690591812 L 20.0 -1.0625756978988647 L 21.0 -1.0625756978988647 L 21.0 -0.7969610691070557 L 22.0 -0.7969610691070557 L 22.0 -1.5579208135604858 L 23.0 -1.5579208135604858 L 23.0 -0.23981119692325592 L 24.0 -0.23981119692325592 L 24.0 -0.12162651866674423 L 25.0 -0.12162651866674423" style="vector-effect: non-scaling-stroke;fill:none;" /></g></g></g></g><g><g><g><g style="stroke: black;stroke-width: 1.2000000000000002;" transform="matrix(1.0, 0.0, 0.0, 1.0, 0.0, 0.0)"><path d="M 0.0 -2.0 L 0.0 2.0" style="vector-effect: non-scaling-stroke;fill:none;" /></g><g style="stroke: #808080;stroke-width: 0.6000000000000001;" transform="matrix(1.0, 0.0, 0.0, 1.0, 0.0, 0.0)"><path d="M 0.0 0.0 L 25.0 0.0" style="vector-effect: non-scaling-stroke;fill:none;" /></g></g><g style="stroke: black;stroke-width: 2.4000000000000004;" transform="matrix(1.0, 0.0, 0.0, 1.0, 0.0, 0.0)"><path d="M 0.0 0.0058234576135873795 L 1.0 0.0058234576135873795 L 1.0 -1.0786224603652954 L 2.0 -1.0786224603652954 L 2.0 -0.603357195854187 L 3.0 -0.603357195854187 L 3.0 -0.774581789970398 L 4.0 -0.774581789970398 L 4.0 -0.32056427001953125 L 5.0 -0.32056427001953125 L 5.0 -0.13431136310100555 L 6.0 -0.13431136310100555 L 6.0 -0.7048913836479187 L 7.0 -0.7048913836479187 L 7.0 -0.9286437630653381 L 8.0 -0.9286437630653381 L 8.0 -0.566573441028595 L 9.0 -0.566573441028595 L 9.0 -0.8370925784111023 L 10.0 -0.8370925784111023 L 10.0 -1.097080111503601 L 11.0 -1.097080111503601 L 11.0 -1.520912528038025 L 12.0 -1.520912528038025 L 12.0 -0.42788299918174744 L 13.0 -0.42788299918174744 L 13.0 -0.9847083687782288 L 14.0 -0.9847083687782288 L 14.0 -1.7939623594284058 L 15.0 -1.7939623594284058 L 15.0 -1.3936399221420288 L 16.0 -1.3936399221420288 L 16.0 -0.647120475769043 L 17.0 -0.647120475769043 L 17.0 -1.794860601425171 L 18.0 -1.794860601425171 L 18.0 0.024191511794924736 L 19.0 0.024191511794924736 L 19.0 -0.2459212690591812 L 20.0 -0.2459212690591812 L 20.0 -1.0625756978988647 L 21.0 -1.0625756978988647 L 21.0 -0.7969610691070557 L 22.0 -0.7969610691070557 L 22.0 -1.5579208135604858 L 23.0 -1.5579208135604858 L 23.0 -0.23981119692325592 L 24.0 -0.23981119692325592 L 24.0 -0.12162651866674423 L 25.0 -0.12162651866674423" style="vector-effect: non-scaling-stroke;fill:none;" /></g></g></g></g></g></g></g></g></g></g><g style="stroke: black;stroke-width: 1.2000000000000002;" transform="matrix(0.0, -1.0, 1.0, 0.0, 0.0, 0.08)"><g /></g></g><g transform="matrix(1.0, 0.0, 0.0, 1.0, 0.0, 0.16)"><g transform="matrix(1.0, 0.0, 0.0, 1.0, -0.2, -0.03)"><g transform="matrix(1.0, 0.0, 0.0, 1.0, 0.075, 0.0)"><g transform="matrix(1.0, 0.0, 0.0, 1.0, 0.0, 0.03)"><g transform="matrix(0.01, 0.0, 0.0, 0.01, 0.0, 0.0)"><g><g><g transform="matrix(1.0, 0.0, 0.0, 1.0, 12.5, 0.0)"><g transform="matrix(1.0, 0.0, 0.0, 1.0, -20.0, -0.0)"><g><g style="fill: #d3d3d3;stroke: black;stroke-width: 1.2000000000000002;" transform="matrix(1.0, 0.0, 0.0, 1.0, 0.0, -3.0)"><path d="M 0.0 0.0 L 40.0 0.0 L 40.0 6.0 L 0.0 6.0 L 0.0 0.0 Z" style="vector-effect: non-scaling-stroke;" /></g><g transform="matrix(1.0, 0.0, 0.0, 1.0, 1.875, 0.0)"><g><g style="stroke: black;stroke-width: 1.2000000000000002;" transform="matrix(1.0, 0.0, 0.0, 1.0, 0.0, 0.0)"><g /></g><g style="fill: #ffa500;stroke: black;stroke-width: 1.2000000000000002;" transform="matrix(1.0, 0.0, 0.0, 1.0, 1.875, 0.0)"><text style="text-align:center; text-anchor:middle; dominant-baseline:middle;&#10;                      font-family:sans-serif; font-weight: bold;&#10;                      font-size:3px;&#10;                      vector-effect: non-scaling-stroke;" transform="translate(-5e-05, 0)">f(x)</text></g></g></g></g></g></g><g><g><g><g style="stroke: black;stroke-width: 1.2000000000000002;" transform="matrix(1.0, 0.0, 0.0, 1.0, 0.0, 0.0)"><path d="M 0.0 -2.0 L 0.0 2.0" style="vector-effect: non-scaling-stroke;fill:none;" /></g><g style="stroke: #808080;stroke-width: 0.6000000000000001;" transform="matrix(1.0, 0.0, 0.0, 1.0, 0.0, 0.0)"><path d="M 0.0 0.0 L 25.0 0.0" style="vector-effect: non-scaling-stroke;fill:none;" /></g></g><g style="stroke: black;stroke-width: 2.4000000000000004;" transform="matrix(1.0, 0.0, 0.0, 1.0, 0.0, 0.0)"><path d="M 0.0 0.31763944029808044 L 1.0 0.31763944029808044 L 1.0 -0.9208204746246338 L 2.0 -0.9208204746246338 L 2.0 0.06949174404144287 L 3.0 0.06949174404144287 L 3.0 -0.7470409870147705 L 4.0 -0.7470409870147705 L 4.0 -0.5855910181999207 L 5.0 -0.5855910181999207 L 5.0 -0.08796762675046921 L 6.0 -0.08796762675046921 L 6.0 -0.6221760511398315 L 7.0 -0.6221760511398315 L 7.0 -0.13873058557510376 L 8.0 -0.13873058557510376 L 8.0 -0.781823992729187 L 9.0 -0.781823992729187 L 9.0 -0.6050270795822144 L 10.0 -0.6050270795822144 L 10.0 -1.1065362691879272 L 11.0 -1.1065362691879272 L 11.0 -1.2966340780258179 L 12.0 -1.2966340780258179 L 12.0 -0.8835456371307373 L 13.0 -0.8835456371307373 L 13.0 -0.8357425928115845 L 14.0 -0.8357425928115845 L 14.0 -0.7536077499389648 L 15.0 -0.7536077499389648 L 15.0 -1.2011703252792358 L 16.0 -1.2011703252792358 L 16.0 -0.600788414478302 L 17.0 -0.600788414478302 L 17.0 -1.547115683555603 L 18.0 -1.547115683555603 L 18.0 -0.044536273926496506 L 19.0 -0.044536273926496506 L 19.0 -0.5562005639076233 L 20.0 -0.5562005639076233 L 20.0 -0.5938258767127991 L 21.0 -0.5938258767127991 L 21.0 -1.2979340553283691 L 22.0 -1.2979340553283691 L 22.0 -0.9359886646270752 L 23.0 -0.9359886646270752 L 23.0 -0.6065331697463989 L 24.0 -0.6065331697463989 L 24.0 -0.48906567692756653 L 25.0 -0.48906567692756653" style="vector-effect: non-scaling-stroke;fill:none;" /></g></g></g></g><g><g><g><g style="stroke: black;stroke-width: 1.2000000000000002;" transform="matrix(1.0, 0.0, 0.0, 1.0, 0.0, 0.0)"><path d="M 0.0 -2.0 L 0.0 2.0" style="vector-effect: non-scaling-stroke;fill:none;" /></g><g style="stroke: #808080;stroke-width: 0.6000000000000001;" transform="matrix(1.0, 0.0, 0.0, 1.0, 0.0, 0.0)"><path d="M 0.0 0.0 L 25.0 0.0" style="vector-effect: non-scaling-stroke;fill:none;" /></g></g><g style="stroke: black;stroke-width: 2.4000000000000004;" transform="matrix(1.0, 0.0, 0.0, 1.0, 0.0, 0.0)"><path d="M 0.0 0.31763944029808044 L 1.0 0.31763944029808044 L 1.0 -0.9208204746246338 L 2.0 -0.9208204746246338 L 2.0 0.06949174404144287 L 3.0 0.06949174404144287 L 3.0 -0.7470409870147705 L 4.0 -0.7470409870147705 L 4.0 -0.5855910181999207 L 5.0 -0.5855910181999207 L 5.0 -0.08796762675046921 L 6.0 -0.08796762675046921 L 6.0 -0.6221760511398315 L 7.0 -0.6221760511398315 L 7.0 -0.13873058557510376 L 8.0 -0.13873058557510376 L 8.0 -0.781823992729187 L 9.0 -0.781823992729187 L 9.0 -0.6050270795822144 L 10.0 -0.6050270795822144 L 10.0 -1.1065362691879272 L 11.0 -1.1065362691879272 L 11.0 -1.2966340780258179 L 12.0 -1.2966340780258179 L 12.0 -0.8835456371307373 L 13.0 -0.8835456371307373 L 13.0 -0.8357425928115845 L 14.0 -0.8357425928115845 L 14.0 -0.7536077499389648 L 15.0 -0.7536077499389648 L 15.0 -1.2011703252792358 L 16.0 -1.2011703252792358 L 16.0 -0.600788414478302 L 17.0 -0.600788414478302 L 17.0 -1.547115683555603 L 18.0 -1.547115683555603 L 18.0 -0.044536273926496506 L 19.0 -0.044536273926496506 L 19.0 -0.5562005639076233 L 20.0 -0.5562005639076233 L 20.0 -0.5938258767127991 L 21.0 -0.5938258767127991 L 21.0 -1.2979340553283691 L 22.0 -1.2979340553283691 L 22.0 -0.9359886646270752 L 23.0 -0.9359886646270752 L 23.0 -0.6065331697463989 L 24.0 -0.6065331697463989 L 24.0 -0.48906567692756653 L 25.0 -0.48906567692756653" style="vector-effect: non-scaling-stroke;fill:none;" /></g></g></g></g></g></g></g></g></g></g><g transform="matrix(1.0, 0.0, 0.0, 1.0, -0.125, 0.16)"><g transform="matrix(1.0, 0.0, 0.0, 0.009999999999999995, 0.0, 0.0)"><g transform="matrix(0.01, 0.0, 0.0, 1.0, 0.0, 0.0)"><g><g><g style="fill: #ffffe0;stroke: #ffffe0;stroke-width: 1.2000000000000002;fill-opacity: 0.5;" transform="matrix(1.0, 0.0, 0.0, 1.0, 0.0, 0.0)"><path d="M 0.0 -2.0 L 0.0 2.0" style="vector-effect: non-scaling-stroke;fill:none;" /></g><g style="fill: #ffffe0;stroke: #ffffe0;stroke-width: 1.2000000000000002;fill-opacity: 0.5;" transform="matrix(1.0, 0.0, 0.0, 1.0, 0.0, 0.0)"><path d="M 0.0 -0.6837185621261597 L 1.0 -0.6837185621261597 L 1.0 -1.9221785068511963 L 2.0 -1.9221785068511963 L 2.0 -0.9318662881851196 L 3.0 -0.9318662881851196 L 3.0 -1.748399019241333 L 4.0 -1.748399019241333 L 4.0 -1.586949110031128 L 5.0 -1.586949110031128 L 5.0 -1.08858060836792 L 6.0 -1.08858060836792 L 6.0 -1.623534083366394 L 7.0 -1.623534083366394 L 7.0 -1.1400885581970215 L 8.0 -1.1400885581970215 L 8.0 -1.7831820249557495 L 9.0 -1.7831820249557495 L 9.0 -1.6063851118087769 L 10.0 -1.6063851118087769 L 10.0 -2.0 L 11.0 -2.0 L 11.0 -2.0 L 12.0 -2.0 L 12.0 -1.8849036693572998 L 13.0 -1.8849036693572998 L 13.0 -1.837100625038147 L 14.0 -1.837100625038147 L 14.0 -1.7549657821655273 L 15.0 -1.7549657821655273 L 15.0 -2.0 L 16.0 -2.0 L 16.0 -1.6021463871002197 L 17.0 -1.6021463871002197 L 17.0 -2.0 L 18.0 -2.0 L 18.0 -1.044404149055481 L 19.0 -1.044404149055481 L 19.0 -1.557558536529541 L 20.0 -1.557558536529541 L 20.0 -1.5951838493347168 L 21.0 -1.5951838493347168 L 21.0 -2.0 L 22.0 -2.0 L 22.0 -1.9313862323760986 L 23.0 -1.9313862323760986 L 23.0 -1.6078912019729614 L 24.0 -1.6078912019729614 L 24.0 -1.4904236793518066 L 25.0 -1.4904236793518066 L 25.0 -0.48906567692756653 L 24.0 -0.48906567692756653 L 24.0 -0.6065331697463989 L 23.0 -0.6065331697463989 L 23.0 -0.9359886646270752 L 22.0 -0.9359886646270752 L 22.0 -1.2979340553283691 L 21.0 -1.2979340553283691 L 21.0 -0.5938258767127991 L 20.0 -0.5938258767127991 L 20.0 -0.5562005639076233 L 19.0 -0.5562005639076233 L 19.0 -0.044536273926496506 L 18.0 -0.044536273926496506 L 18.0 -1.547115683555603 L 17.0 -1.547115683555603 L 17.0 -0.600788414478302 L 16.0 -0.600788414478302 L 16.0 -1.2011703252792358 L 15.0 -1.2011703252792358 L 15.0 -0.7536077499389648 L 14.0 -0.7536077499389648 L 14.0 -0.8357425928115845 L 13.0 -0.8357425928115845 L 13.0 -0.8835456371307373 L 12.0 -0.8835456371307373 L 12.0 -1.2966340780258179 L 11.0 -1.2966340780258179 L 11.0 -1.1065362691879272 L 10.0 -1.1065362691879272 L 10.0 -0.6050270795822144 L 9.0 -0.6050270795822144 L 9.0 -0.781823992729187 L 8.0 -0.781823992729187 L 8.0 -0.13873058557510376 L 7.0 -0.13873058557510376 L 7.0 -0.6221760511398315 L 6.0 -0.6221760511398315 L 6.0 -0.08796762675046921 L 5.0 -0.08796762675046921 L 5.0 -0.5855910181999207 L 4.0 -0.5855910181999207 L 4.0 -0.7470409870147705 L 3.0 -0.7470409870147705 L 3.0 0.06949174404144287 L 2.0 0.06949174404144287 L 2.0 -0.9208204746246338 L 1.0 -0.9208204746246338 L 1.0 0.31763944029808044 L 0.0 0.31763944029808044 Z" style="vector-effect: non-scaling-stroke;" /></g></g><g style="stroke: black;stroke-width: 1.2000000000000002;" transform="matrix(1.0, 0.0, 0.0, 1.0, 0.0, 0.0)"><path d="M 0.0 0.31763944029808044 L 1.0 0.31763944029808044 L 1.0 -0.9208204746246338 L 2.0 -0.9208204746246338 L 2.0 0.06949174404144287 L 3.0 0.06949174404144287 L 3.0 -0.7470409870147705 L 4.0 -0.7470409870147705 L 4.0 -0.5855910181999207 L 5.0 -0.5855910181999207 L 5.0 -0.08796762675046921 L 6.0 -0.08796762675046921 L 6.0 -0.6221760511398315 L 7.0 -0.6221760511398315 L 7.0 -0.13873058557510376 L 8.0 -0.13873058557510376 L 8.0 -0.781823992729187 L 9.0 -0.781823992729187 L 9.0 -0.6050270795822144 L 10.0 -0.6050270795822144 L 10.0 -1.1065362691879272 L 11.0 -1.1065362691879272 L 11.0 -1.2966340780258179 L 12.0 -1.2966340780258179 L 12.0 -0.8835456371307373 L 13.0 -0.8835456371307373 L 13.0 -0.8357425928115845 L 14.0 -0.8357425928115845 L 14.0 -0.7536077499389648 L 15.0 -0.7536077499389648 L 15.0 -1.2011703252792358 L 16.0 -1.2011703252792358 L 16.0 -0.600788414478302 L 17.0 -0.600788414478302 L 17.0 -1.547115683555603 L 18.0 -1.547115683555603 L 18.0 -0.044536273926496506 L 19.0 -0.044536273926496506 L 19.0 -0.5562005639076233 L 20.0 -0.5562005639076233 L 20.0 -0.5938258767127991 L 21.0 -0.5938258767127991 L 21.0 -1.2979340553283691 L 22.0 -1.2979340553283691 L 22.0 -0.9359886646270752 L 23.0 -0.9359886646270752 L 23.0 -0.6065331697463989 L 24.0 -0.6065331697463989 L 24.0 -0.48906567692756653 L 25.0 -0.48906567692756653" style="vector-effect: non-scaling-stroke;fill:none;" /></g></g></g></g></g></g><g transform="matrix(1.0, 0.0, 0.0, 1.0, -0.125, 0.16)"><g transform="matrix(1.0, 0.0, 0.0, 0.009999999999999995, 0.0, 0.0)"><g transform="matrix(0.01, 0.0, 0.0, 1.0, 0.0, 0.0)"><g><g><g style="fill: #add8e6;stroke: #add8e6;stroke-width: 1.2000000000000002;fill-opacity: 0.5;" transform="matrix(1.0, 0.0, 0.0, 1.0, 0.0, 0.0)"><path d="M 0.0 -2.0 L 0.0 2.0" style="vector-effect: non-scaling-stroke;fill:none;" /></g><g style="fill: #add8e6;stroke: #add8e6;stroke-width: 1.2000000000000002;fill-opacity: 0.5;" transform="matrix(1.0, 0.0, 0.0, 1.0, 0.0, 0.0)"><path d="M 0.0 -0.6807383298873901 L 1.0 -0.6807383298873901 L 1.0 -1.9221785068511963 L 2.0 -1.9221785068511963 L 2.0 -0.9318662881851196 L 3.0 -0.9318662881851196 L 3.0 -1.748399019241333 L 4.0 -1.748399019241333 L 4.0 -1.586949110031128 L 5.0 -1.586949110031128 L 5.0 -1.0878355503082275 L 6.0 -1.0878355503082275 L 6.0 -1.623534083366394 L 7.0 -1.623534083366394 L 7.0 -1.1400885581970215 L 8.0 -1.1400885581970215 L 8.0 -1.7831820249557495 L 9.0 -1.7831820249557495 L 9.0 -1.6063851118087769 L 10.0 -1.6063851118087769 L 10.0 -2.0 L 11.0 -2.0 L 11.0 -2.0 L 12.0 -2.0 L 12.0 -1.8849036693572998 L 13.0 -1.8849036693572998 L 13.0 -1.837100625038147 L 14.0 -1.837100625038147 L 14.0 -1.7549657821655273 L 15.0 -1.7549657821655273 L 15.0 -2.0 L 16.0 -2.0 L 16.0 -1.6021463871002197 L 17.0 -1.6021463871002197 L 17.0 -2.0 L 18.0 -2.0 L 18.0 -1.0447766780853271 L 19.0 -1.0447766780853271 L 19.0 -1.557558536529541 L 20.0 -1.557558536529541 L 20.0 -1.5951838493347168 L 21.0 -1.5951838493347168 L 21.0 -2.0 L 22.0 -2.0 L 22.0 -1.9373466968536377 L 23.0 -1.9373466968536377 L 23.0 -1.6019307374954224 L 24.0 -1.6019307374954224 L 24.0 -1.4904236793518066 L 25.0 -1.4904236793518066 L 25.0 -0.48906567692756653 L 24.0 -0.48906567692756653 L 24.0 -0.6065331697463989 L 23.0 -0.6065331697463989 L 23.0 -0.9359886646270752 L 22.0 -0.9359886646270752 L 22.0 -1.2979340553283691 L 21.0 -1.2979340553283691 L 21.0 -0.5938258767127991 L 20.0 -0.5938258767127991 L 20.0 -0.5562005639076233 L 19.0 -0.5562005639076233 L 19.0 -0.044536273926496506 L 18.0 -0.044536273926496506 L 18.0 -1.547115683555603 L 17.0 -1.547115683555603 L 17.0 -0.600788414478302 L 16.0 -0.600788414478302 L 16.0 -1.2011703252792358 L 15.0 -1.2011703252792358 L 15.0 -0.7536077499389648 L 14.0 -0.7536077499389648 L 14.0 -0.8357425928115845 L 13.0 -0.8357425928115845 L 13.0 -0.8835456371307373 L 12.0 -0.8835456371307373 L 12.0 -1.2966340780258179 L 11.0 -1.2966340780258179 L 11.0 -1.1065362691879272 L 10.0 -1.1065362691879272 L 10.0 -0.6050270795822144 L 9.0 -0.6050270795822144 L 9.0 -0.781823992729187 L 8.0 -0.781823992729187 L 8.0 -0.13873058557510376 L 7.0 -0.13873058557510376 L 7.0 -0.6221760511398315 L 6.0 -0.6221760511398315 L 6.0 -0.08796762675046921 L 5.0 -0.08796762675046921 L 5.0 -0.5855910181999207 L 4.0 -0.5855910181999207 L 4.0 -0.7470409870147705 L 3.0 -0.7470409870147705 L 3.0 0.06949174404144287 L 2.0 0.06949174404144287 L 2.0 -0.9208204746246338 L 1.0 -0.9208204746246338 L 1.0 0.31763944029808044 L 0.0 0.31763944029808044 Z" style="vector-effect: non-scaling-stroke;" /></g></g><g style="stroke: black;stroke-width: 1.2000000000000002;" transform="matrix(1.0, 0.0, 0.0, 1.0, 0.0, 0.0)"><path d="M 0.0 0.31763944029808044 L 1.0 0.31763944029808044 L 1.0 -0.9208204746246338 L 2.0 -0.9208204746246338 L 2.0 0.06949174404144287 L 3.0 0.06949174404144287 L 3.0 -0.7470409870147705 L 4.0 -0.7470409870147705 L 4.0 -0.5855910181999207 L 5.0 -0.5855910181999207 L 5.0 -0.08796762675046921 L 6.0 -0.08796762675046921 L 6.0 -0.6221760511398315 L 7.0 -0.6221760511398315 L 7.0 -0.13873058557510376 L 8.0 -0.13873058557510376 L 8.0 -0.781823992729187 L 9.0 -0.781823992729187 L 9.0 -0.6050270795822144 L 10.0 -0.6050270795822144 L 10.0 -1.1065362691879272 L 11.0 -1.1065362691879272 L 11.0 -1.2966340780258179 L 12.0 -1.2966340780258179 L 12.0 -0.8835456371307373 L 13.0 -0.8835456371307373 L 13.0 -0.8357425928115845 L 14.0 -0.8357425928115845 L 14.0 -0.7536077499389648 L 15.0 -0.7536077499389648 L 15.0 -1.2011703252792358 L 16.0 -1.2011703252792358 L 16.0 -0.600788414478302 L 17.0 -0.600788414478302 L 17.0 -1.547115683555603 L 18.0 -1.547115683555603 L 18.0 -0.044536273926496506 L 19.0 -0.044536273926496506 L 19.0 -0.5562005639076233 L 20.0 -0.5562005639076233 L 20.0 -0.5938258767127991 L 21.0 -0.5938258767127991 L 21.0 -1.2979340553283691 L 22.0 -1.2979340553283691 L 22.0 -0.9359886646270752 L 23.0 -0.9359886646270752 L 23.0 -0.6065331697463989 L 24.0 -0.6065331697463989 L 24.0 -0.48906567692756653 L 25.0 -0.48906567692756653" style="vector-effect: non-scaling-stroke;fill:none;" /></g></g></g></g></g></g><g transform="matrix(1.0, 0.0, 0.0, 1.0, -0.125, 0.16)"><g transform="matrix(1.0, 0.0, 0.0, 0.009999999999999995, 0.0, 0.0)"><g transform="matrix(0.01, 0.0, 0.0, 1.0, 0.0, 0.0)"><g><g><g style="fill: #ff8c00;stroke: #ff8c00;stroke-width: 1.2000000000000002;fill-opacity: 0.5;" transform="matrix(1.0, 0.0, 0.0, 1.0, 0.0, 0.0)"><path d="M 0.0 -2.0 L 0.0 2.0" style="vector-effect: non-scaling-stroke;fill:none;" /></g><g style="fill: #ff8c00;stroke: #ff8c00;stroke-width: 1.2000000000000002;fill-opacity: 0.5;" transform="matrix(1.0, 0.0, 0.0, 1.0, 0.0, 0.0)"><path d="M 0.0 0.31763944029808044 L 1.0 0.31763944029808044 L 1.0 -0.9208204746246338 L 2.0 -0.9208204746246338 L 2.0 0.06949174404144287 L 3.0 0.06949174404144287 L 3.0 -0.7470409870147705 L 4.0 -0.7470409870147705 L 4.0 -0.5855910181999207 L 5.0 -0.5855910181999207 L 5.0 -0.08796762675046921 L 6.0 -0.08796762675046921 L 6.0 -0.6221760511398315 L 7.0 -0.6221760511398315 L 7.0 -0.13873058557510376 L 8.0 -0.13873058557510376 L 8.0 -0.781823992729187 L 9.0 -0.781823992729187 L 9.0 -0.6050270795822144 L 10.0 -0.6050270795822144 L 10.0 -1.1065362691879272 L 11.0 -1.1065362691879272 L 11.0 -1.2966340780258179 L 12.0 -1.2966340780258179 L 12.0 -0.8835456371307373 L 13.0 -0.8835456371307373 L 13.0 -0.8357425928115845 L 14.0 -0.8357425928115845 L 14.0 -0.7536077499389648 L 15.0 -0.7536077499389648 L 15.0 -1.2011703252792358 L 16.0 -1.2011703252792358 L 16.0 -0.600788414478302 L 17.0 -0.600788414478302 L 17.0 -1.547115683555603 L 18.0 -1.547115683555603 L 18.0 -0.044536273926496506 L 19.0 -0.044536273926496506 L 19.0 -0.5562005639076233 L 20.0 -0.5562005639076233 L 20.0 -0.5938258767127991 L 21.0 -0.5938258767127991 L 21.0 -1.2979340553283691 L 22.0 -1.2979340553283691 L 22.0 -0.9359886646270752 L 23.0 -0.9359886646270752 L 23.0 -0.6065331697463989 L 24.0 -0.6065331697463989 L 24.0 -0.48906567692756653 L 25.0 -0.48906567692756653 L 25.0 -0.48906567692756653 L 24.0 -0.48906567692756653 L 24.0 -0.6065331697463989 L 23.0 -0.6065331697463989 L 23.0 -0.9359886646270752 L 22.0 -0.9359886646270752 L 22.0 -1.2979340553283691 L 21.0 -1.2979340553283691 L 21.0 -0.5938258767127991 L 20.0 -0.5938258767127991 L 20.0 -0.5562005639076233 L 19.0 -0.5562005639076233 L 19.0 -0.044536273926496506 L 18.0 -0.044536273926496506 L 18.0 -1.547115683555603 L 17.0 -1.547115683555603 L 17.0 -0.600788414478302 L 16.0 -0.600788414478302 L 16.0 -1.2011703252792358 L 15.0 -1.2011703252792358 L 15.0 -0.7536077499389648 L 14.0 -0.7536077499389648 L 14.0 -0.8357425928115845 L 13.0 -0.8357425928115845 L 13.0 -0.8835456371307373 L 12.0 -0.8835456371307373 L 12.0 -1.2966340780258179 L 11.0 -1.2966340780258179 L 11.0 -1.1065362691879272 L 10.0 -1.1065362691879272 L 10.0 -0.6050270795822144 L 9.0 -0.6050270795822144 L 9.0 -0.781823992729187 L 8.0 -0.781823992729187 L 8.0 -0.13873058557510376 L 7.0 -0.13873058557510376 L 7.0 -0.6221760511398315 L 6.0 -0.6221760511398315 L 6.0 -0.08796762675046921 L 5.0 -0.08796762675046921 L 5.0 -0.5855910181999207 L 4.0 -0.5855910181999207 L 4.0 -0.7470409870147705 L 3.0 -0.7470409870147705 L 3.0 0.06949174404144287 L 2.0 0.06949174404144287 L 2.0 -0.9208204746246338 L 1.0 -0.9208204746246338 L 1.0 0.31763944029808044 L 0.0 0.31763944029808044 Z" style="vector-effect: non-scaling-stroke;" /></g></g><g style="stroke: black;stroke-width: 1.2000000000000002;" transform="matrix(1.0, 0.0, 0.0, 1.0, 0.0, 0.0)"><path d="M 0.0 0.31763944029808044 L 1.0 0.31763944029808044 L 1.0 -0.9208204746246338 L 2.0 -0.9208204746246338 L 2.0 0.06949174404144287 L 3.0 0.06949174404144287 L 3.0 -0.7470409870147705 L 4.0 -0.7470409870147705 L 4.0 -0.5855910181999207 L 5.0 -0.5855910181999207 L 5.0 -0.08796762675046921 L 6.0 -0.08796762675046921 L 6.0 -0.6221760511398315 L 7.0 -0.6221760511398315 L 7.0 -0.13873058557510376 L 8.0 -0.13873058557510376 L 8.0 -0.781823992729187 L 9.0 -0.781823992729187 L 9.0 -0.6050270795822144 L 10.0 -0.6050270795822144 L 10.0 -1.1065362691879272 L 11.0 -1.1065362691879272 L 11.0 -1.2966340780258179 L 12.0 -1.2966340780258179 L 12.0 -0.8835456371307373 L 13.0 -0.8835456371307373 L 13.0 -0.8357425928115845 L 14.0 -0.8357425928115845 L 14.0 -0.7536077499389648 L 15.0 -0.7536077499389648 L 15.0 -1.2011703252792358 L 16.0 -1.2011703252792358 L 16.0 -0.600788414478302 L 17.0 -0.600788414478302 L 17.0 -1.547115683555603 L 18.0 -1.547115683555603 L 18.0 -0.044536273926496506 L 19.0 -0.044536273926496506 L 19.0 -0.5562005639076233 L 20.0 -0.5562005639076233 L 20.0 -0.5938258767127991 L 21.0 -0.5938258767127991 L 21.0 -1.2979340553283691 L 22.0 -1.2979340553283691 L 22.0 -0.9359886646270752 L 23.0 -0.9359886646270752 L 23.0 -0.6065331697463989 L 24.0 -0.6065331697463989 L 24.0 -0.48906567692756653 L 25.0 -0.48906567692756653" style="vector-effect: non-scaling-stroke;fill:none;" /></g></g></g></g></g></g><g transform="matrix(1.0, 0.0, 0.0, 1.0, -0.125, 0.16)"><g transform="matrix(1.0, 0.0, 0.0, 0.009999999999999995, 0.0, 0.0)"><g transform="matrix(0.01, 0.0, 0.0, 1.0, 0.0, 0.0)"><g><g><g style="fill: #0000ff;stroke: #0000ff;stroke-width: 1.2000000000000002;fill-opacity: 0.5;" transform="matrix(1.0, 0.0, 0.0, 1.0, 0.0, 0.0)"><path d="M 0.0 -2.0 L 0.0 2.0" style="vector-effect: non-scaling-stroke;fill:none;" /></g><g style="fill: #0000ff;stroke: #0000ff;stroke-width: 1.2000000000000002;fill-opacity: 0.5;" transform="matrix(1.0, 0.0, 0.0, 1.0, 0.0, 0.0)"><path d="M 0.0 0.31763944029808044 L 1.0 0.31763944029808044 L 1.0 -0.9208204746246338 L 2.0 -0.9208204746246338 L 2.0 0.06949174404144287 L 3.0 0.06949174404144287 L 3.0 -0.7470409870147705 L 4.0 -0.7470409870147705 L 4.0 -0.5855910181999207 L 5.0 -0.5855910181999207 L 5.0 -0.08796762675046921 L 6.0 -0.08796762675046921 L 6.0 -0.6221760511398315 L 7.0 -0.6221760511398315 L 7.0 -0.13873058557510376 L 8.0 -0.13873058557510376 L 8.0 -0.781823992729187 L 9.0 -0.781823992729187 L 9.0 -0.6050270795822144 L 10.0 -0.6050270795822144 L 10.0 -1.1065362691879272 L 11.0 -1.1065362691879272 L 11.0 -1.2966340780258179 L 12.0 -1.2966340780258179 L 12.0 -0.8835456371307373 L 13.0 -0.8835456371307373 L 13.0 -0.8357425928115845 L 14.0 -0.8357425928115845 L 14.0 -0.7536077499389648 L 15.0 -0.7536077499389648 L 15.0 -1.2011703252792358 L 16.0 -1.2011703252792358 L 16.0 -0.600788414478302 L 17.0 -0.600788414478302 L 17.0 -1.547115683555603 L 18.0 -1.547115683555603 L 18.0 -0.044536273926496506 L 19.0 -0.044536273926496506 L 19.0 -0.5562005639076233 L 20.0 -0.5562005639076233 L 20.0 -0.5938258767127991 L 21.0 -0.5938258767127991 L 21.0 -1.2979340553283691 L 22.0 -1.2979340553283691 L 22.0 -0.9359886646270752 L 23.0 -0.9359886646270752 L 23.0 -0.6065331697463989 L 24.0 -0.6065331697463989 L 24.0 -0.48906567692756653 L 25.0 -0.48906567692756653 L 25.0 -0.48906567692756653 L 24.0 -0.48906567692756653 L 24.0 -0.6065331697463989 L 23.0 -0.6065331697463989 L 23.0 -0.9359886646270752 L 22.0 -0.9359886646270752 L 22.0 -1.2979340553283691 L 21.0 -1.2979340553283691 L 21.0 -0.5938258767127991 L 20.0 -0.5938258767127991 L 20.0 -0.5562005639076233 L 19.0 -0.5562005639076233 L 19.0 -0.044536273926496506 L 18.0 -0.044536273926496506 L 18.0 -1.547115683555603 L 17.0 -1.547115683555603 L 17.0 -0.600788414478302 L 16.0 -0.600788414478302 L 16.0 -1.2011703252792358 L 15.0 -1.2011703252792358 L 15.0 -0.7536077499389648 L 14.0 -0.7536077499389648 L 14.0 -0.8357425928115845 L 13.0 -0.8357425928115845 L 13.0 -0.8835456371307373 L 12.0 -0.8835456371307373 L 12.0 -1.2966340780258179 L 11.0 -1.2966340780258179 L 11.0 -1.1065362691879272 L 10.0 -1.1065362691879272 L 10.0 -0.6050270795822144 L 9.0 -0.6050270795822144 L 9.0 -0.781823992729187 L 8.0 -0.781823992729187 L 8.0 -0.13873058557510376 L 7.0 -0.13873058557510376 L 7.0 -0.6221760511398315 L 6.0 -0.6221760511398315 L 6.0 -0.08796762675046921 L 5.0 -0.08796762675046921 L 5.0 -0.5855910181999207 L 4.0 -0.5855910181999207 L 4.0 -0.7470409870147705 L 3.0 -0.7470409870147705 L 3.0 0.06949174404144287 L 2.0 0.06949174404144287 L 2.0 -0.9208204746246338 L 1.0 -0.9208204746246338 L 1.0 0.31763944029808044 L 0.0 0.31763944029808044 Z" style="vector-effect: non-scaling-stroke;" /></g></g><g style="stroke: black;stroke-width: 1.2000000000000002;" transform="matrix(1.0, 0.0, 0.0, 1.0, 0.0, 0.0)"><path d="M 0.0 0.31763944029808044 L 1.0 0.31763944029808044 L 1.0 -0.9208204746246338 L 2.0 -0.9208204746246338 L 2.0 0.06949174404144287 L 3.0 0.06949174404144287 L 3.0 -0.7470409870147705 L 4.0 -0.7470409870147705 L 4.0 -0.5855910181999207 L 5.0 -0.5855910181999207 L 5.0 -0.08796762675046921 L 6.0 -0.08796762675046921 L 6.0 -0.6221760511398315 L 7.0 -0.6221760511398315 L 7.0 -0.13873058557510376 L 8.0 -0.13873058557510376 L 8.0 -0.781823992729187 L 9.0 -0.781823992729187 L 9.0 -0.6050270795822144 L 10.0 -0.6050270795822144 L 10.0 -1.1065362691879272 L 11.0 -1.1065362691879272 L 11.0 -1.2966340780258179 L 12.0 -1.2966340780258179 L 12.0 -0.8835456371307373 L 13.0 -0.8835456371307373 L 13.0 -0.8357425928115845 L 14.0 -0.8357425928115845 L 14.0 -0.7536077499389648 L 15.0 -0.7536077499389648 L 15.0 -1.2011703252792358 L 16.0 -1.2011703252792358 L 16.0 -0.600788414478302 L 17.0 -0.600788414478302 L 17.0 -1.547115683555603 L 18.0 -1.547115683555603 L 18.0 -0.044536273926496506 L 19.0 -0.044536273926496506 L 19.0 -0.5562005639076233 L 20.0 -0.5562005639076233 L 20.0 -0.5938258767127991 L 21.0 -0.5938258767127991 L 21.0 -1.2979340553283691 L 22.0 -1.2979340553283691 L 22.0 -0.9359886646270752 L 23.0 -0.9359886646270752 L 23.0 -0.6065331697463989 L 24.0 -0.6065331697463989 L 24.0 -0.48906567692756653 L 25.0 -0.48906567692756653" style="vector-effect: non-scaling-stroke;fill:none;" /></g></g></g></g></g></g></g></g><g><g><g><g><g><g><g transform="matrix(1.0, 0.0, 0.0, 1.0, -0.41500000000000004, -0.03)"><g><g><g transform="matrix(1.0, 0.0, 0.0, 1.0, 0.075, 0.0)"><g transform="matrix(1.0, 0.0, 0.0, 1.0, 0.0, 0.03)"><g transform="matrix(0.01, 0.0, 0.0, 0.01, 0.0, 0.0)"><g><g><g transform="matrix(1.0, 0.0, 0.0, 1.0, 12.5, 0.0)"><g transform="matrix(1.0, 0.0, 0.0, 1.0, -20.0, -0.0)"><g><g style="fill: #d3d3d3;stroke: black;stroke-width: 1.2000000000000002;" transform="matrix(1.0, 0.0, 0.0, 1.0, 0.0, -3.0)"><path d="M 0.0 0.0 L 40.0 0.0 L 40.0 6.0 L 0.0 6.0 L 0.0 0.0 Z" style="vector-effect: non-scaling-stroke;" /></g><g transform="matrix(1.0, 0.0, 0.0, 1.0, 1.875, 0.0)"><g><g style="stroke: black;stroke-width: 1.2000000000000002;" transform="matrix(1.0, 0.0, 0.0, 1.0, 0.0, 0.0)"><g /></g><g style="fill: #ffa500;stroke: black;stroke-width: 1.2000000000000002;" transform="matrix(1.0, 0.0, 0.0, 1.0, 1.875, 0.0)"><text style="text-align:center; text-anchor:middle; dominant-baseline:middle;&#10;                      font-family:sans-serif; font-weight: bold;&#10;                      font-size:3px;&#10;                      vector-effect: non-scaling-stroke;" transform="translate(-5e-05, 0)">x</text></g></g></g></g></g></g><g><g><g><g><g style="stroke: black;stroke-width: 1.2000000000000002;" transform="matrix(1.0, 0.0, 0.0, 1.0, 0.0, 0.0)"><path d="M 0.0 -2.0 L 0.0 2.0" style="vector-effect: non-scaling-stroke;fill:none;" /></g><g style="stroke: #808080;stroke-width: 0.6000000000000001;" transform="matrix(1.0, 0.0, 0.0, 1.0, 0.0, 0.0)"><path d="M 0.0 0.0 L 25.0 0.0" style="vector-effect: non-scaling-stroke;fill:none;" /></g></g><g style="stroke: black;stroke-width: 2.4000000000000004;" transform="matrix(1.0, 0.0, 0.0, 1.0, 0.0, 0.0)"><path d="M 0.0 0.6294554471969604 L 1.0 0.6294554471969604 L 1.0 -0.7630185484886169 L 2.0 -0.7630185484886169 L 2.0 0.7423406839370728 L 3.0 0.7423406839370728 L 3.0 -0.7195001244544983 L 4.0 -0.7195001244544983 L 4.0 -0.8506177663803101 L 5.0 -0.8506177663803101 L 5.0 -0.04162389412522316 L 6.0 -0.04162389412522316 L 6.0 -0.5394607186317444 L 7.0 -0.5394607186317444 L 7.0 0.6511825919151306 L 8.0 0.6511825919151306 L 8.0 -0.9970746040344238 L 9.0 -0.9970746040344238 L 9.0 -0.3729616403579712 L 10.0 -0.3729616403579712 L 10.0 -1.1159924268722534 L 11.0 -1.1159924268722534 L 11.0 -1.0723556280136108 L 12.0 -1.0723556280136108 L 12.0 -1.3392082452774048 L 13.0 -1.3392082452774048 L 13.0 -0.686776876449585 L 14.0 -0.686776876449585 L 14.0 0.2867467999458313 L 15.0 0.2867467999458313 L 15.0 -1.0087007284164429 L 16.0 -1.0087007284164429 L 16.0 -0.554456353187561 L 17.0 -0.554456353187561 L 17.0 -1.2993707656860352 L 18.0 -1.2993707656860352 L 18.0 -0.1132640615105629 L 19.0 -0.1132640615105629 L 19.0 -0.8664798736572266 L 20.0 -0.8664798736572266 L 20.0 -0.1250760704278946 L 21.0 -0.1250760704278946 L 21.0 -1.7989071607589722 L 22.0 -1.7989071607589722 L 22.0 -0.3140564560890198 L 23.0 -0.3140564560890198 L 23.0 -0.9732550978660583 L 24.0 -0.9732550978660583 L 24.0 -0.8565048575401306 L 25.0 -0.8565048575401306" style="vector-effect: non-scaling-stroke;fill:none;" /></g></g><g style="stroke: black;stroke-width: 1.2000000000000002;" transform="matrix(1.0, 0.0, 0.0, 1.0, 0.0, 0.0)"><path d="M 0.0 -2.0 L 0.0 2.0" style="vector-effect: non-scaling-stroke;fill:none;" /></g></g></g></g><g><g><g><g><g style="stroke: black;stroke-width: 1.2000000000000002;" transform="matrix(1.0, 0.0, 0.0, 1.0, 0.0, 0.0)"><path d="M 0.0 -2.0 L 0.0 2.0" style="vector-effect: non-scaling-stroke;fill:none;" /></g><g style="stroke: #808080;stroke-width: 0.6000000000000001;" transform="matrix(1.0, 0.0, 0.0, 1.0, 0.0, 0.0)"><path d="M 0.0 0.0 L 25.0 0.0" style="vector-effect: non-scaling-stroke;fill:none;" /></g></g><g style="stroke: black;stroke-width: 2.4000000000000004;" transform="matrix(1.0, 0.0, 0.0, 1.0, 0.0, 0.0)"><path d="M 0.0 0.6294554471969604 L 1.0 0.6294554471969604 L 1.0 -0.7630185484886169 L 2.0 -0.7630185484886169 L 2.0 0.7423406839370728 L 3.0 0.7423406839370728 L 3.0 -0.7195001244544983 L 4.0 -0.7195001244544983 L 4.0 -0.8506177663803101 L 5.0 -0.8506177663803101 L 5.0 -0.04162389412522316 L 6.0 -0.04162389412522316 L 6.0 -0.5394607186317444 L 7.0 -0.5394607186317444 L 7.0 0.6511825919151306 L 8.0 0.6511825919151306 L 8.0 -0.9970746040344238 L 9.0 -0.9970746040344238 L 9.0 -0.3729616403579712 L 10.0 -0.3729616403579712 L 10.0 -1.1159924268722534 L 11.0 -1.1159924268722534 L 11.0 -1.0723556280136108 L 12.0 -1.0723556280136108 L 12.0 -1.3392082452774048 L 13.0 -1.3392082452774048 L 13.0 -0.686776876449585 L 14.0 -0.686776876449585 L 14.0 0.2867467999458313 L 15.0 0.2867467999458313 L 15.0 -1.0087007284164429 L 16.0 -1.0087007284164429 L 16.0 -0.554456353187561 L 17.0 -0.554456353187561 L 17.0 -1.2993707656860352 L 18.0 -1.2993707656860352 L 18.0 -0.1132640615105629 L 19.0 -0.1132640615105629 L 19.0 -0.8664798736572266 L 20.0 -0.8664798736572266 L 20.0 -0.1250760704278946 L 21.0 -0.1250760704278946 L 21.0 -1.7989071607589722 L 22.0 -1.7989071607589722 L 22.0 -0.3140564560890198 L 23.0 -0.3140564560890198 L 23.0 -0.9732550978660583 L 24.0 -0.9732550978660583 L 24.0 -0.8565048575401306 L 25.0 -0.8565048575401306" style="vector-effect: non-scaling-stroke;fill:none;" /></g></g><g style="stroke: black;stroke-width: 1.2000000000000002;" transform="matrix(1.0, 0.0, 0.0, 1.0, 0.0, 0.0)"><path d="M 0.0 -2.0 L 0.0 2.0" style="vector-effect: non-scaling-stroke;fill:none;" /></g></g></g></g></g></g></g><g style="stroke: black;stroke-width: 1.2000000000000002;" transform="matrix(1.0, 0.0, 0.0, 1.0, 0.41500000000000004, 0.0)"><g /></g></g><g transform="matrix(1.0, 0.0, 0.0, 1.0, 0.43000000000000005, 0.0)"><g transform="matrix(1.0, 0.0, 0.0, 1.0, 0.075, 0.0)"><g transform="matrix(1.0, 0.0, 0.0, 1.0, 0.0, 0.03)"><g transform="matrix(0.01, 0.0, 0.0, 0.01, 0.0, 0.0)"><g><g><g transform="matrix(1.0, 0.0, 0.0, 1.0, 12.5, 0.0)"><g transform="matrix(1.0, 0.0, 0.0, 1.0, -20.0, -0.0)"><g><g style="fill: #d3d3d3;stroke: black;stroke-width: 1.2000000000000002;" transform="matrix(1.0, 0.0, 0.0, 1.0, 0.0, -3.0)"><path d="M 0.0 0.0 L 40.0 0.0 L 40.0 6.0 L 0.0 6.0 L 0.0 0.0 Z" style="vector-effect: non-scaling-stroke;" /></g><g transform="matrix(1.0, 0.0, 0.0, 1.0, 1.875, 0.0)"><g><g style="stroke: black;stroke-width: 1.2000000000000002;" transform="matrix(1.0, 0.0, 0.0, 1.0, 0.0, 0.0)"><g /></g><g style="fill: #ffa500;stroke: black;stroke-width: 1.2000000000000002;" transform="matrix(1.0, 0.0, 0.0, 1.0, 1.875, 0.0)"><text style="text-align:center; text-anchor:middle; dominant-baseline:middle;&#10;                      font-family:sans-serif; font-weight: bold;&#10;                      font-size:3px;&#10;                      vector-effect: non-scaling-stroke;" transform="translate(-5e-05, 0)">y</text></g></g></g></g></g></g><g><g><g><g style="stroke: black;stroke-width: 1.2000000000000002;" transform="matrix(1.0, 0.0, 0.0, 1.0, 0.0, 0.0)"><path d="M 0.0 -2.0 L 0.0 2.0" style="vector-effect: non-scaling-stroke;fill:none;" /></g><g style="stroke: #808080;stroke-width: 0.6000000000000001;" transform="matrix(1.0, 0.0, 0.0, 1.0, 0.0, 0.0)"><path d="M 0.0 0.0 L 25.0 0.0" style="vector-effect: non-scaling-stroke;fill:none;" /></g></g><g style="stroke: black;stroke-width: 2.4000000000000004;" transform="matrix(1.0, 0.0, 0.0, 1.0, 0.0, 0.0)"><path d="M 0.0 0.0058234576135873795 L 1.0 0.0058234576135873795 L 1.0 -1.0786224603652954 L 2.0 -1.0786224603652954 L 2.0 -0.603357195854187 L 3.0 -0.603357195854187 L 3.0 -0.774581789970398 L 4.0 -0.774581789970398 L 4.0 -0.32056427001953125 L 5.0 -0.32056427001953125 L 5.0 -0.13431136310100555 L 6.0 -0.13431136310100555 L 6.0 -0.7048913836479187 L 7.0 -0.7048913836479187 L 7.0 -0.9286437630653381 L 8.0 -0.9286437630653381 L 8.0 -0.566573441028595 L 9.0 -0.566573441028595 L 9.0 -0.8370925784111023 L 10.0 -0.8370925784111023 L 10.0 -1.097080111503601 L 11.0 -1.097080111503601 L 11.0 -1.520912528038025 L 12.0 -1.520912528038025 L 12.0 -0.42788299918174744 L 13.0 -0.42788299918174744 L 13.0 -0.9847083687782288 L 14.0 -0.9847083687782288 L 14.0 -1.7939623594284058 L 15.0 -1.7939623594284058 L 15.0 -1.3936399221420288 L 16.0 -1.3936399221420288 L 16.0 -0.647120475769043 L 17.0 -0.647120475769043 L 17.0 -1.794860601425171 L 18.0 -1.794860601425171 L 18.0 0.024191511794924736 L 19.0 0.024191511794924736 L 19.0 -0.2459212690591812 L 20.0 -0.2459212690591812 L 20.0 -1.0625756978988647 L 21.0 -1.0625756978988647 L 21.0 -0.7969610691070557 L 22.0 -0.7969610691070557 L 22.0 -1.5579208135604858 L 23.0 -1.5579208135604858 L 23.0 -0.23981119692325592 L 24.0 -0.23981119692325592 L 24.0 -0.12162651866674423 L 25.0 -0.12162651866674423" style="vector-effect: non-scaling-stroke;fill:none;" /></g></g></g></g><g><g><g><g style="stroke: black;stroke-width: 1.2000000000000002;" transform="matrix(1.0, 0.0, 0.0, 1.0, 0.0, 0.0)"><path d="M 0.0 -2.0 L 0.0 2.0" style="vector-effect: non-scaling-stroke;fill:none;" /></g><g style="stroke: #808080;stroke-width: 0.6000000000000001;" transform="matrix(1.0, 0.0, 0.0, 1.0, 0.0, 0.0)"><path d="M 0.0 0.0 L 25.0 0.0" style="vector-effect: non-scaling-stroke;fill:none;" /></g></g><g style="stroke: black;stroke-width: 2.4000000000000004;" transform="matrix(1.0, 0.0, 0.0, 1.0, 0.0, 0.0)"><path d="M 0.0 0.0058234576135873795 L 1.0 0.0058234576135873795 L 1.0 -1.0786224603652954 L 2.0 -1.0786224603652954 L 2.0 -0.603357195854187 L 3.0 -0.603357195854187 L 3.0 -0.774581789970398 L 4.0 -0.774581789970398 L 4.0 -0.32056427001953125 L 5.0 -0.32056427001953125 L 5.0 -0.13431136310100555 L 6.0 -0.13431136310100555 L 6.0 -0.7048913836479187 L 7.0 -0.7048913836479187 L 7.0 -0.9286437630653381 L 8.0 -0.9286437630653381 L 8.0 -0.566573441028595 L 9.0 -0.566573441028595 L 9.0 -0.8370925784111023 L 10.0 -0.8370925784111023 L 10.0 -1.097080111503601 L 11.0 -1.097080111503601 L 11.0 -1.520912528038025 L 12.0 -1.520912528038025 L 12.0 -0.42788299918174744 L 13.0 -0.42788299918174744 L 13.0 -0.9847083687782288 L 14.0 -0.9847083687782288 L 14.0 -1.7939623594284058 L 15.0 -1.7939623594284058 L 15.0 -1.3936399221420288 L 16.0 -1.3936399221420288 L 16.0 -0.647120475769043 L 17.0 -0.647120475769043 L 17.0 -1.794860601425171 L 18.0 -1.794860601425171 L 18.0 0.024191511794924736 L 19.0 0.024191511794924736 L 19.0 -0.2459212690591812 L 20.0 -0.2459212690591812 L 20.0 -1.0625756978988647 L 21.0 -1.0625756978988647 L 21.0 -0.7969610691070557 L 22.0 -0.7969610691070557 L 22.0 -1.5579208135604858 L 23.0 -1.5579208135604858 L 23.0 -0.23981119692325592 L 24.0 -0.23981119692325592 L 24.0 -0.12162651866674423 L 25.0 -0.12162651866674423" style="vector-effect: non-scaling-stroke;fill:none;" /></g></g></g></g></g></g></g></g></g></g><g style="stroke: black;stroke-width: 1.2000000000000002;" transform="matrix(0.0, -1.0, 1.0, 0.0, 0.0, 0.08)"><g /></g></g><g transform="matrix(1.0, 0.0, 0.0, 1.0, 0.0, 0.16)"><g transform="matrix(1.0, 0.0, 0.0, 1.0, -0.2, -0.03)"><g transform="matrix(1.0, 0.0, 0.0, 1.0, 0.075, 0.0)"><g transform="matrix(1.0, 0.0, 0.0, 1.0, 0.0, 0.03)"><g transform="matrix(0.01, 0.0, 0.0, 0.01, 0.0, 0.0)"><g><g><g transform="matrix(1.0, 0.0, 0.0, 1.0, 12.5, 0.0)"><g transform="matrix(1.0, 0.0, 0.0, 1.0, -20.0, -0.0)"><g><g style="fill: #d3d3d3;stroke: black;stroke-width: 1.2000000000000002;" transform="matrix(1.0, 0.0, 0.0, 1.0, 0.0, -3.0)"><path d="M 0.0 0.0 L 40.0 0.0 L 40.0 6.0 L 0.0 6.0 L 0.0 0.0 Z" style="vector-effect: non-scaling-stroke;" /></g><g transform="matrix(1.0, 0.0, 0.0, 1.0, 1.875, 0.0)"><g><g style="stroke: black;stroke-width: 1.2000000000000002;" transform="matrix(1.0, 0.0, 0.0, 1.0, 0.0, 0.0)"><g /></g><g style="fill: #ffa500;stroke: black;stroke-width: 1.2000000000000002;" transform="matrix(1.0, 0.0, 0.0, 1.0, 1.875, 0.0)"><text style="text-align:center; text-anchor:middle; dominant-baseline:middle;&#10;                      font-family:sans-serif; font-weight: bold;&#10;                      font-size:3px;&#10;                      vector-effect: non-scaling-stroke;" transform="translate(-5e-05, 0)">f(x)</text></g></g></g></g></g></g><g><g><g><g style="stroke: black;stroke-width: 1.2000000000000002;" transform="matrix(1.0, 0.0, 0.0, 1.0, 0.0, 0.0)"><path d="M 0.0 -2.0 L 0.0 2.0" style="vector-effect: non-scaling-stroke;fill:none;" /></g><g style="stroke: #808080;stroke-width: 0.6000000000000001;" transform="matrix(1.0, 0.0, 0.0, 1.0, 0.0, 0.0)"><path d="M 0.0 0.0 L 25.0 0.0" style="vector-effect: non-scaling-stroke;fill:none;" /></g></g><g style="stroke: black;stroke-width: 2.4000000000000004;" transform="matrix(1.0, 0.0, 0.0, 1.0, 0.0, 0.0)"><path d="M 0.0 0.31763944029808044 L 1.0 0.31763944029808044 L 1.0 -0.9208204746246338 L 2.0 -0.9208204746246338 L 2.0 0.06949174404144287 L 3.0 0.06949174404144287 L 3.0 -0.7470409870147705 L 4.0 -0.7470409870147705 L 4.0 -0.5855910181999207 L 5.0 -0.5855910181999207 L 5.0 -0.08796762675046921 L 6.0 -0.08796762675046921 L 6.0 -0.6221760511398315 L 7.0 -0.6221760511398315 L 7.0 -0.13873058557510376 L 8.0 -0.13873058557510376 L 8.0 -0.781823992729187 L 9.0 -0.781823992729187 L 9.0 -0.6050270795822144 L 10.0 -0.6050270795822144 L 10.0 -1.1065362691879272 L 11.0 -1.1065362691879272 L 11.0 -1.2966340780258179 L 12.0 -1.2966340780258179 L 12.0 -0.8835456371307373 L 13.0 -0.8835456371307373 L 13.0 -0.8357425928115845 L 14.0 -0.8357425928115845 L 14.0 -0.7536077499389648 L 15.0 -0.7536077499389648 L 15.0 -1.2011703252792358 L 16.0 -1.2011703252792358 L 16.0 -0.600788414478302 L 17.0 -0.600788414478302 L 17.0 -1.547115683555603 L 18.0 -1.547115683555603 L 18.0 -0.044536273926496506 L 19.0 -0.044536273926496506 L 19.0 -0.5562005639076233 L 20.0 -0.5562005639076233 L 20.0 -0.5938258767127991 L 21.0 -0.5938258767127991 L 21.0 -1.2979340553283691 L 22.0 -1.2979340553283691 L 22.0 -0.9359886646270752 L 23.0 -0.9359886646270752 L 23.0 -0.6065331697463989 L 24.0 -0.6065331697463989 L 24.0 -0.48906567692756653 L 25.0 -0.48906567692756653" style="vector-effect: non-scaling-stroke;fill:none;" /></g></g></g></g><g><g><g><g style="stroke: black;stroke-width: 1.2000000000000002;" transform="matrix(1.0, 0.0, 0.0, 1.0, 0.0, 0.0)"><path d="M 0.0 -2.0 L 0.0 2.0" style="vector-effect: non-scaling-stroke;fill:none;" /></g><g style="stroke: #808080;stroke-width: 0.6000000000000001;" transform="matrix(1.0, 0.0, 0.0, 1.0, 0.0, 0.0)"><path d="M 0.0 0.0 L 25.0 0.0" style="vector-effect: non-scaling-stroke;fill:none;" /></g></g><g style="stroke: black;stroke-width: 2.4000000000000004;" transform="matrix(1.0, 0.0, 0.0, 1.0, 0.0, 0.0)"><path d="M 0.0 0.31763944029808044 L 1.0 0.31763944029808044 L 1.0 -0.9208204746246338 L 2.0 -0.9208204746246338 L 2.0 0.06949174404144287 L 3.0 0.06949174404144287 L 3.0 -0.7470409870147705 L 4.0 -0.7470409870147705 L 4.0 -0.5855910181999207 L 5.0 -0.5855910181999207 L 5.0 -0.08796762675046921 L 6.0 -0.08796762675046921 L 6.0 -0.6221760511398315 L 7.0 -0.6221760511398315 L 7.0 -0.13873058557510376 L 8.0 -0.13873058557510376 L 8.0 -0.781823992729187 L 9.0 -0.781823992729187 L 9.0 -0.6050270795822144 L 10.0 -0.6050270795822144 L 10.0 -1.1065362691879272 L 11.0 -1.1065362691879272 L 11.0 -1.2966340780258179 L 12.0 -1.2966340780258179 L 12.0 -0.8835456371307373 L 13.0 -0.8835456371307373 L 13.0 -0.8357425928115845 L 14.0 -0.8357425928115845 L 14.0 -0.7536077499389648 L 15.0 -0.7536077499389648 L 15.0 -1.2011703252792358 L 16.0 -1.2011703252792358 L 16.0 -0.600788414478302 L 17.0 -0.600788414478302 L 17.0 -1.547115683555603 L 18.0 -1.547115683555603 L 18.0 -0.044536273926496506 L 19.0 -0.044536273926496506 L 19.0 -0.5562005639076233 L 20.0 -0.5562005639076233 L 20.0 -0.5938258767127991 L 21.0 -0.5938258767127991 L 21.0 -1.2979340553283691 L 22.0 -1.2979340553283691 L 22.0 -0.9359886646270752 L 23.0 -0.9359886646270752 L 23.0 -0.6065331697463989 L 24.0 -0.6065331697463989 L 24.0 -0.48906567692756653 L 25.0 -0.48906567692756653" style="vector-effect: non-scaling-stroke;fill:none;" /></g></g></g></g></g></g></g></g></g></g><g transform="matrix(1.0, 0.0, 0.0, 1.0, -0.125, 0.16)"><g transform="matrix(1.0, 0.0, 0.0, 0.009999999999999995, 0.0, 0.0)"><g transform="matrix(0.01, 0.0, 0.0, 1.0, 0.0, 0.0)"><g><g><g style="fill: #ffffe0;stroke: #ffffe0;stroke-width: 1.2000000000000002;fill-opacity: 0.5;" transform="matrix(1.0, 0.0, 0.0, 1.0, 0.0, 0.0)"><path d="M 0.0 -2.0 L 0.0 2.0" style="vector-effect: non-scaling-stroke;fill:none;" /></g><g style="fill: #ffffe0;stroke: #ffffe0;stroke-width: 1.2000000000000002;fill-opacity: 0.5;" transform="matrix(1.0, 0.0, 0.0, 1.0, 0.0, 0.0)"><path d="M 0.0 -0.6837185621261597 L 1.0 -0.6837185621261597 L 1.0 -1.9221785068511963 L 2.0 -1.9221785068511963 L 2.0 -0.9318662881851196 L 3.0 -0.9318662881851196 L 3.0 -1.748399019241333 L 4.0 -1.748399019241333 L 4.0 -1.586949110031128 L 5.0 -1.586949110031128 L 5.0 -1.08858060836792 L 6.0 -1.08858060836792 L 6.0 -1.623534083366394 L 7.0 -1.623534083366394 L 7.0 -1.1400885581970215 L 8.0 -1.1400885581970215 L 8.0 -1.7831820249557495 L 9.0 -1.7831820249557495 L 9.0 -1.6063851118087769 L 10.0 -1.6063851118087769 L 10.0 -2.0 L 11.0 -2.0 L 11.0 -2.0 L 12.0 -2.0 L 12.0 -1.8849036693572998 L 13.0 -1.8849036693572998 L 13.0 -1.837100625038147 L 14.0 -1.837100625038147 L 14.0 -1.7549657821655273 L 15.0 -1.7549657821655273 L 15.0 -2.0 L 16.0 -2.0 L 16.0 -1.6021463871002197 L 17.0 -1.6021463871002197 L 17.0 -2.0 L 18.0 -2.0 L 18.0 -1.044404149055481 L 19.0 -1.044404149055481 L 19.0 -1.557558536529541 L 20.0 -1.557558536529541 L 20.0 -1.5951838493347168 L 21.0 -1.5951838493347168 L 21.0 -2.0 L 22.0 -2.0 L 22.0 -1.9313862323760986 L 23.0 -1.9313862323760986 L 23.0 -1.6078912019729614 L 24.0 -1.6078912019729614 L 24.0 -1.4904236793518066 L 25.0 -1.4904236793518066 L 25.0 -0.48906567692756653 L 24.0 -0.48906567692756653 L 24.0 -0.6065331697463989 L 23.0 -0.6065331697463989 L 23.0 -0.9359886646270752 L 22.0 -0.9359886646270752 L 22.0 -1.2979340553283691 L 21.0 -1.2979340553283691 L 21.0 -0.5938258767127991 L 20.0 -0.5938258767127991 L 20.0 -0.5562005639076233 L 19.0 -0.5562005639076233 L 19.0 -0.044536273926496506 L 18.0 -0.044536273926496506 L 18.0 -1.547115683555603 L 17.0 -1.547115683555603 L 17.0 -0.600788414478302 L 16.0 -0.600788414478302 L 16.0 -1.2011703252792358 L 15.0 -1.2011703252792358 L 15.0 -0.7536077499389648 L 14.0 -0.7536077499389648 L 14.0 -0.8357425928115845 L 13.0 -0.8357425928115845 L 13.0 -0.8835456371307373 L 12.0 -0.8835456371307373 L 12.0 -1.2966340780258179 L 11.0 -1.2966340780258179 L 11.0 -1.1065362691879272 L 10.0 -1.1065362691879272 L 10.0 -0.6050270795822144 L 9.0 -0.6050270795822144 L 9.0 -0.781823992729187 L 8.0 -0.781823992729187 L 8.0 -0.13873058557510376 L 7.0 -0.13873058557510376 L 7.0 -0.6221760511398315 L 6.0 -0.6221760511398315 L 6.0 -0.08796762675046921 L 5.0 -0.08796762675046921 L 5.0 -0.5855910181999207 L 4.0 -0.5855910181999207 L 4.0 -0.7470409870147705 L 3.0 -0.7470409870147705 L 3.0 0.06949174404144287 L 2.0 0.06949174404144287 L 2.0 -0.9208204746246338 L 1.0 -0.9208204746246338 L 1.0 0.31763944029808044 L 0.0 0.31763944029808044 Z" style="vector-effect: non-scaling-stroke;" /></g></g><g style="stroke: black;stroke-width: 1.2000000000000002;" transform="matrix(1.0, 0.0, 0.0, 1.0, 0.0, 0.0)"><path d="M 0.0 0.31763944029808044 L 1.0 0.31763944029808044 L 1.0 -0.9208204746246338 L 2.0 -0.9208204746246338 L 2.0 0.06949174404144287 L 3.0 0.06949174404144287 L 3.0 -0.7470409870147705 L 4.0 -0.7470409870147705 L 4.0 -0.5855910181999207 L 5.0 -0.5855910181999207 L 5.0 -0.08796762675046921 L 6.0 -0.08796762675046921 L 6.0 -0.6221760511398315 L 7.0 -0.6221760511398315 L 7.0 -0.13873058557510376 L 8.0 -0.13873058557510376 L 8.0 -0.781823992729187 L 9.0 -0.781823992729187 L 9.0 -0.6050270795822144 L 10.0 -0.6050270795822144 L 10.0 -1.1065362691879272 L 11.0 -1.1065362691879272 L 11.0 -1.2966340780258179 L 12.0 -1.2966340780258179 L 12.0 -0.8835456371307373 L 13.0 -0.8835456371307373 L 13.0 -0.8357425928115845 L 14.0 -0.8357425928115845 L 14.0 -0.7536077499389648 L 15.0 -0.7536077499389648 L 15.0 -1.2011703252792358 L 16.0 -1.2011703252792358 L 16.0 -0.600788414478302 L 17.0 -0.600788414478302 L 17.0 -1.547115683555603 L 18.0 -1.547115683555603 L 18.0 -0.044536273926496506 L 19.0 -0.044536273926496506 L 19.0 -0.5562005639076233 L 20.0 -0.5562005639076233 L 20.0 -0.5938258767127991 L 21.0 -0.5938258767127991 L 21.0 -1.2979340553283691 L 22.0 -1.2979340553283691 L 22.0 -0.9359886646270752 L 23.0 -0.9359886646270752 L 23.0 -0.6065331697463989 L 24.0 -0.6065331697463989 L 24.0 -0.48906567692756653 L 25.0 -0.48906567692756653" style="vector-effect: non-scaling-stroke;fill:none;" /></g></g></g></g></g></g><g transform="matrix(1.0, 0.0, 0.0, 1.0, -0.125, 0.16)"><g transform="matrix(1.0, 0.0, 0.0, 0.009999999999999995, 0.0, 0.0)"><g transform="matrix(0.01, 0.0, 0.0, 1.0, 0.0, 0.0)"><g><g><g style="fill: #add8e6;stroke: #add8e6;stroke-width: 1.2000000000000002;fill-opacity: 0.5;" transform="matrix(1.0, 0.0, 0.0, 1.0, 0.0, 0.0)"><path d="M 0.0 -2.0 L 0.0 2.0" style="vector-effect: non-scaling-stroke;fill:none;" /></g><g style="fill: #add8e6;stroke: #add8e6;stroke-width: 1.2000000000000002;fill-opacity: 0.5;" transform="matrix(1.0, 0.0, 0.0, 1.0, 0.0, 0.0)"><path d="M 0.0 -0.6807383298873901 L 1.0 -0.6807383298873901 L 1.0 -1.9221785068511963 L 2.0 -1.9221785068511963 L 2.0 -0.9318662881851196 L 3.0 -0.9318662881851196 L 3.0 -1.748399019241333 L 4.0 -1.748399019241333 L 4.0 -1.586949110031128 L 5.0 -1.586949110031128 L 5.0 -1.0878355503082275 L 6.0 -1.0878355503082275 L 6.0 -1.623534083366394 L 7.0 -1.623534083366394 L 7.0 -1.1400885581970215 L 8.0 -1.1400885581970215 L 8.0 -1.7831820249557495 L 9.0 -1.7831820249557495 L 9.0 -1.6063851118087769 L 10.0 -1.6063851118087769 L 10.0 -2.0 L 11.0 -2.0 L 11.0 -2.0 L 12.0 -2.0 L 12.0 -1.8849036693572998 L 13.0 -1.8849036693572998 L 13.0 -1.837100625038147 L 14.0 -1.837100625038147 L 14.0 -1.7549657821655273 L 15.0 -1.7549657821655273 L 15.0 -2.0 L 16.0 -2.0 L 16.0 -1.6021463871002197 L 17.0 -1.6021463871002197 L 17.0 -2.0 L 18.0 -2.0 L 18.0 -1.0447766780853271 L 19.0 -1.0447766780853271 L 19.0 -1.557558536529541 L 20.0 -1.557558536529541 L 20.0 -1.5951838493347168 L 21.0 -1.5951838493347168 L 21.0 -2.0 L 22.0 -2.0 L 22.0 -1.9373466968536377 L 23.0 -1.9373466968536377 L 23.0 -1.6019307374954224 L 24.0 -1.6019307374954224 L 24.0 -1.4904236793518066 L 25.0 -1.4904236793518066 L 25.0 -0.48906567692756653 L 24.0 -0.48906567692756653 L 24.0 -0.6065331697463989 L 23.0 -0.6065331697463989 L 23.0 -0.9359886646270752 L 22.0 -0.9359886646270752 L 22.0 -1.2979340553283691 L 21.0 -1.2979340553283691 L 21.0 -0.5938258767127991 L 20.0 -0.5938258767127991 L 20.0 -0.5562005639076233 L 19.0 -0.5562005639076233 L 19.0 -0.044536273926496506 L 18.0 -0.044536273926496506 L 18.0 -1.547115683555603 L 17.0 -1.547115683555603 L 17.0 -0.600788414478302 L 16.0 -0.600788414478302 L 16.0 -1.2011703252792358 L 15.0 -1.2011703252792358 L 15.0 -0.7536077499389648 L 14.0 -0.7536077499389648 L 14.0 -0.8357425928115845 L 13.0 -0.8357425928115845 L 13.0 -0.8835456371307373 L 12.0 -0.8835456371307373 L 12.0 -1.2966340780258179 L 11.0 -1.2966340780258179 L 11.0 -1.1065362691879272 L 10.0 -1.1065362691879272 L 10.0 -0.6050270795822144 L 9.0 -0.6050270795822144 L 9.0 -0.781823992729187 L 8.0 -0.781823992729187 L 8.0 -0.13873058557510376 L 7.0 -0.13873058557510376 L 7.0 -0.6221760511398315 L 6.0 -0.6221760511398315 L 6.0 -0.08796762675046921 L 5.0 -0.08796762675046921 L 5.0 -0.5855910181999207 L 4.0 -0.5855910181999207 L 4.0 -0.7470409870147705 L 3.0 -0.7470409870147705 L 3.0 0.06949174404144287 L 2.0 0.06949174404144287 L 2.0 -0.9208204746246338 L 1.0 -0.9208204746246338 L 1.0 0.31763944029808044 L 0.0 0.31763944029808044 Z" style="vector-effect: non-scaling-stroke;" /></g></g><g style="stroke: black;stroke-width: 1.2000000000000002;" transform="matrix(1.0, 0.0, 0.0, 1.0, 0.0, 0.0)"><path d="M 0.0 0.31763944029808044 L 1.0 0.31763944029808044 L 1.0 -0.9208204746246338 L 2.0 -0.9208204746246338 L 2.0 0.06949174404144287 L 3.0 0.06949174404144287 L 3.0 -0.7470409870147705 L 4.0 -0.7470409870147705 L 4.0 -0.5855910181999207 L 5.0 -0.5855910181999207 L 5.0 -0.08796762675046921 L 6.0 -0.08796762675046921 L 6.0 -0.6221760511398315 L 7.0 -0.6221760511398315 L 7.0 -0.13873058557510376 L 8.0 -0.13873058557510376 L 8.0 -0.781823992729187 L 9.0 -0.781823992729187 L 9.0 -0.6050270795822144 L 10.0 -0.6050270795822144 L 10.0 -1.1065362691879272 L 11.0 -1.1065362691879272 L 11.0 -1.2966340780258179 L 12.0 -1.2966340780258179 L 12.0 -0.8835456371307373 L 13.0 -0.8835456371307373 L 13.0 -0.8357425928115845 L 14.0 -0.8357425928115845 L 14.0 -0.7536077499389648 L 15.0 -0.7536077499389648 L 15.0 -1.2011703252792358 L 16.0 -1.2011703252792358 L 16.0 -0.600788414478302 L 17.0 -0.600788414478302 L 17.0 -1.547115683555603 L 18.0 -1.547115683555603 L 18.0 -0.044536273926496506 L 19.0 -0.044536273926496506 L 19.0 -0.5562005639076233 L 20.0 -0.5562005639076233 L 20.0 -0.5938258767127991 L 21.0 -0.5938258767127991 L 21.0 -1.2979340553283691 L 22.0 -1.2979340553283691 L 22.0 -0.9359886646270752 L 23.0 -0.9359886646270752 L 23.0 -0.6065331697463989 L 24.0 -0.6065331697463989 L 24.0 -0.48906567692756653 L 25.0 -0.48906567692756653" style="vector-effect: non-scaling-stroke;fill:none;" /></g></g></g></g></g></g><g transform="matrix(1.0, 0.0, 0.0, 1.0, -0.125, 0.16)"><g transform="matrix(1.0, 0.0, 0.0, 0.009999999999999995, 0.0, 0.0)"><g transform="matrix(0.01, 0.0, 0.0, 1.0, 0.0, 0.0)"><g><g><g style="fill: #ff8c00;stroke: #ff8c00;stroke-width: 1.2000000000000002;fill-opacity: 0.5;" transform="matrix(1.0, 0.0, 0.0, 1.0, 0.0, 0.0)"><path d="M 0.0 -2.0 L 0.0 2.0" style="vector-effect: non-scaling-stroke;fill:none;" /></g><g style="fill: #ff8c00;stroke: #ff8c00;stroke-width: 1.2000000000000002;fill-opacity: 0.5;" transform="matrix(1.0, 0.0, 0.0, 1.0, 0.0, 0.0)"><path d="M 0.0 0.31763944029808044 L 1.0 0.31763944029808044 L 1.0 -0.9208204746246338 L 2.0 -0.9208204746246338 L 2.0 0.06949174404144287 L 3.0 0.06949174404144287 L 3.0 -0.7470409870147705 L 4.0 -0.7470409870147705 L 4.0 -0.5855910181999207 L 5.0 -0.5855910181999207 L 5.0 -0.08796762675046921 L 6.0 -0.08796762675046921 L 6.0 -0.6221760511398315 L 7.0 -0.6221760511398315 L 7.0 -0.13873058557510376 L 8.0 -0.13873058557510376 L 8.0 -0.781823992729187 L 9.0 -0.781823992729187 L 9.0 -0.6050270795822144 L 10.0 -0.6050270795822144 L 10.0 -1.1065362691879272 L 11.0 -1.1065362691879272 L 11.0 -1.2966340780258179 L 12.0 -1.2966340780258179 L 12.0 -0.8835456371307373 L 13.0 -0.8835456371307373 L 13.0 -0.8357425928115845 L 14.0 -0.8357425928115845 L 14.0 -0.7536077499389648 L 15.0 -0.7536077499389648 L 15.0 -1.2011703252792358 L 16.0 -1.2011703252792358 L 16.0 -0.600788414478302 L 17.0 -0.600788414478302 L 17.0 -1.547115683555603 L 18.0 -1.547115683555603 L 18.0 -0.044536273926496506 L 19.0 -0.044536273926496506 L 19.0 -0.5562005639076233 L 20.0 -0.5562005639076233 L 20.0 -0.5938258767127991 L 21.0 -0.5938258767127991 L 21.0 -1.2979340553283691 L 22.0 -1.2979340553283691 L 22.0 -0.9359886646270752 L 23.0 -0.9359886646270752 L 23.0 -0.6065331697463989 L 24.0 -0.6065331697463989 L 24.0 -0.48906567692756653 L 25.0 -0.48906567692756653 L 25.0 -0.48906567692756653 L 24.0 -0.48906567692756653 L 24.0 -0.6065331697463989 L 23.0 -0.6065331697463989 L 23.0 -0.9359886646270752 L 22.0 -0.9359886646270752 L 22.0 -1.2979340553283691 L 21.0 -1.2979340553283691 L 21.0 -0.5938258767127991 L 20.0 -0.5938258767127991 L 20.0 -0.5562005639076233 L 19.0 -0.5562005639076233 L 19.0 -0.044536273926496506 L 18.0 -0.044536273926496506 L 18.0 -1.547115683555603 L 17.0 -1.547115683555603 L 17.0 -0.600788414478302 L 16.0 -0.600788414478302 L 16.0 -1.2011703252792358 L 15.0 -1.2011703252792358 L 15.0 -0.7536077499389648 L 14.0 -0.7536077499389648 L 14.0 -0.8357425928115845 L 13.0 -0.8357425928115845 L 13.0 -0.8835456371307373 L 12.0 -0.8835456371307373 L 12.0 -1.2966340780258179 L 11.0 -1.2966340780258179 L 11.0 -1.1065362691879272 L 10.0 -1.1065362691879272 L 10.0 -0.6050270795822144 L 9.0 -0.6050270795822144 L 9.0 -0.781823992729187 L 8.0 -0.781823992729187 L 8.0 -0.13873058557510376 L 7.0 -0.13873058557510376 L 7.0 -0.6221760511398315 L 6.0 -0.6221760511398315 L 6.0 -0.08796762675046921 L 5.0 -0.08796762675046921 L 5.0 -0.5855910181999207 L 4.0 -0.5855910181999207 L 4.0 -0.7470409870147705 L 3.0 -0.7470409870147705 L 3.0 0.06949174404144287 L 2.0 0.06949174404144287 L 2.0 -0.9208204746246338 L 1.0 -0.9208204746246338 L 1.0 0.31763944029808044 L 0.0 0.31763944029808044 Z" style="vector-effect: non-scaling-stroke;" /></g></g><g style="stroke: black;stroke-width: 1.2000000000000002;" transform="matrix(1.0, 0.0, 0.0, 1.0, 0.0, 0.0)"><path d="M 0.0 0.31763944029808044 L 1.0 0.31763944029808044 L 1.0 -0.9208204746246338 L 2.0 -0.9208204746246338 L 2.0 0.06949174404144287 L 3.0 0.06949174404144287 L 3.0 -0.7470409870147705 L 4.0 -0.7470409870147705 L 4.0 -0.5855910181999207 L 5.0 -0.5855910181999207 L 5.0 -0.08796762675046921 L 6.0 -0.08796762675046921 L 6.0 -0.6221760511398315 L 7.0 -0.6221760511398315 L 7.0 -0.13873058557510376 L 8.0 -0.13873058557510376 L 8.0 -0.781823992729187 L 9.0 -0.781823992729187 L 9.0 -0.6050270795822144 L 10.0 -0.6050270795822144 L 10.0 -1.1065362691879272 L 11.0 -1.1065362691879272 L 11.0 -1.2966340780258179 L 12.0 -1.2966340780258179 L 12.0 -0.8835456371307373 L 13.0 -0.8835456371307373 L 13.0 -0.8357425928115845 L 14.0 -0.8357425928115845 L 14.0 -0.7536077499389648 L 15.0 -0.7536077499389648 L 15.0 -1.2011703252792358 L 16.0 -1.2011703252792358 L 16.0 -0.600788414478302 L 17.0 -0.600788414478302 L 17.0 -1.547115683555603 L 18.0 -1.547115683555603 L 18.0 -0.044536273926496506 L 19.0 -0.044536273926496506 L 19.0 -0.5562005639076233 L 20.0 -0.5562005639076233 L 20.0 -0.5938258767127991 L 21.0 -0.5938258767127991 L 21.0 -1.2979340553283691 L 22.0 -1.2979340553283691 L 22.0 -0.9359886646270752 L 23.0 -0.9359886646270752 L 23.0 -0.6065331697463989 L 24.0 -0.6065331697463989 L 24.0 -0.48906567692756653 L 25.0 -0.48906567692756653" style="vector-effect: non-scaling-stroke;fill:none;" /></g></g></g></g></g></g><g transform="matrix(1.0, 0.0, 0.0, 1.0, -0.125, 0.16)"><g transform="matrix(1.0, 0.0, 0.0, 0.009999999999999995, 0.0, 0.0)"><g transform="matrix(0.01, 0.0, 0.0, 1.0, 0.0, 0.0)"><g><g><g style="fill: #0000ff;stroke: #0000ff;stroke-width: 1.2000000000000002;fill-opacity: 0.5;" transform="matrix(1.0, 0.0, 0.0, 1.0, 0.0, 0.0)"><path d="M 0.0 -2.0 L 0.0 2.0" style="vector-effect: non-scaling-stroke;fill:none;" /></g><g style="fill: #0000ff;stroke: #0000ff;stroke-width: 1.2000000000000002;fill-opacity: 0.5;" transform="matrix(1.0, 0.0, 0.0, 1.0, 0.0, 0.0)"><path d="M 0.0 0.31763944029808044 L 1.0 0.31763944029808044 L 1.0 -0.9208204746246338 L 2.0 -0.9208204746246338 L 2.0 0.06949174404144287 L 3.0 0.06949174404144287 L 3.0 -0.7470409870147705 L 4.0 -0.7470409870147705 L 4.0 -0.5855910181999207 L 5.0 -0.5855910181999207 L 5.0 -0.08796762675046921 L 6.0 -0.08796762675046921 L 6.0 -0.6221760511398315 L 7.0 -0.6221760511398315 L 7.0 -0.13873058557510376 L 8.0 -0.13873058557510376 L 8.0 -0.781823992729187 L 9.0 -0.781823992729187 L 9.0 -0.6050270795822144 L 10.0 -0.6050270795822144 L 10.0 -1.1065362691879272 L 11.0 -1.1065362691879272 L 11.0 -1.2966340780258179 L 12.0 -1.2966340780258179 L 12.0 -0.8835456371307373 L 13.0 -0.8835456371307373 L 13.0 -0.8357425928115845 L 14.0 -0.8357425928115845 L 14.0 -0.7536077499389648 L 15.0 -0.7536077499389648 L 15.0 -1.2011703252792358 L 16.0 -1.2011703252792358 L 16.0 -0.600788414478302 L 17.0 -0.600788414478302 L 17.0 -1.547115683555603 L 18.0 -1.547115683555603 L 18.0 -0.044536273926496506 L 19.0 -0.044536273926496506 L 19.0 -0.5562005639076233 L 20.0 -0.5562005639076233 L 20.0 -0.5938258767127991 L 21.0 -0.5938258767127991 L 21.0 -1.2979340553283691 L 22.0 -1.2979340553283691 L 22.0 -0.9359886646270752 L 23.0 -0.9359886646270752 L 23.0 -0.6065331697463989 L 24.0 -0.6065331697463989 L 24.0 -0.48906567692756653 L 25.0 -0.48906567692756653 L 25.0 -0.48906567692756653 L 24.0 -0.48906567692756653 L 24.0 -0.6065331697463989 L 23.0 -0.6065331697463989 L 23.0 -0.9359886646270752 L 22.0 -0.9359886646270752 L 22.0 -1.2979340553283691 L 21.0 -1.2979340553283691 L 21.0 -0.5938258767127991 L 20.0 -0.5938258767127991 L 20.0 -0.5562005639076233 L 19.0 -0.5562005639076233 L 19.0 -0.044536273926496506 L 18.0 -0.044536273926496506 L 18.0 -1.547115683555603 L 17.0 -1.547115683555603 L 17.0 -0.600788414478302 L 16.0 -0.600788414478302 L 16.0 -1.2011703252792358 L 15.0 -1.2011703252792358 L 15.0 -0.7536077499389648 L 14.0 -0.7536077499389648 L 14.0 -0.8357425928115845 L 13.0 -0.8357425928115845 L 13.0 -0.8835456371307373 L 12.0 -0.8835456371307373 L 12.0 -1.2966340780258179 L 11.0 -1.2966340780258179 L 11.0 -1.1065362691879272 L 10.0 -1.1065362691879272 L 10.0 -0.6050270795822144 L 9.0 -0.6050270795822144 L 9.0 -0.781823992729187 L 8.0 -0.781823992729187 L 8.0 -0.13873058557510376 L 7.0 -0.13873058557510376 L 7.0 -0.6221760511398315 L 6.0 -0.6221760511398315 L 6.0 -0.08796762675046921 L 5.0 -0.08796762675046921 L 5.0 -0.5855910181999207 L 4.0 -0.5855910181999207 L 4.0 -0.7470409870147705 L 3.0 -0.7470409870147705 L 3.0 0.06949174404144287 L 2.0 0.06949174404144287 L 2.0 -0.9208204746246338 L 1.0 -0.9208204746246338 L 1.0 0.31763944029808044 L 0.0 0.31763944029808044 Z" style="vector-effect: non-scaling-stroke;" /></g></g><g style="stroke: black;stroke-width: 1.2000000000000002;" transform="matrix(1.0, 0.0, 0.0, 1.0, 0.0, 0.0)"><path d="M 0.0 0.31763944029808044 L 1.0 0.31763944029808044 L 1.0 -0.9208204746246338 L 2.0 -0.9208204746246338 L 2.0 0.06949174404144287 L 3.0 0.06949174404144287 L 3.0 -0.7470409870147705 L 4.0 -0.7470409870147705 L 4.0 -0.5855910181999207 L 5.0 -0.5855910181999207 L 5.0 -0.08796762675046921 L 6.0 -0.08796762675046921 L 6.0 -0.6221760511398315 L 7.0 -0.6221760511398315 L 7.0 -0.13873058557510376 L 8.0 -0.13873058557510376 L 8.0 -0.781823992729187 L 9.0 -0.781823992729187 L 9.0 -0.6050270795822144 L 10.0 -0.6050270795822144 L 10.0 -1.1065362691879272 L 11.0 -1.1065362691879272 L 11.0 -1.2966340780258179 L 12.0 -1.2966340780258179 L 12.0 -0.8835456371307373 L 13.0 -0.8835456371307373 L 13.0 -0.8357425928115845 L 14.0 -0.8357425928115845 L 14.0 -0.7536077499389648 L 15.0 -0.7536077499389648 L 15.0 -1.2011703252792358 L 16.0 -1.2011703252792358 L 16.0 -0.600788414478302 L 17.0 -0.600788414478302 L 17.0 -1.547115683555603 L 18.0 -1.547115683555603 L 18.0 -0.044536273926496506 L 19.0 -0.044536273926496506 L 19.0 -0.5562005639076233 L 20.0 -0.5562005639076233 L 20.0 -0.5938258767127991 L 21.0 -0.5938258767127991 L 21.0 -1.2979340553283691 L 22.0 -1.2979340553283691 L 22.0 -0.9359886646270752 L 23.0 -0.9359886646270752 L 23.0 -0.6065331697463989 L 24.0 -0.6065331697463989 L 24.0 -0.48906567692756653 L 25.0 -0.48906567692756653" style="vector-effect: non-scaling-stroke;fill:none;" /></g></g></g></g></g></g></g></g><g /></g></g></g></g></svg>