<?xml version="1.0" encoding="utf-8" ?>
<svg baseProfile="full" height="300" version="1.1" width="1056" xmlns="http://www.w3.org/2000/svg" xmlns:ev="http://www.w3.org/2001/xml-events" xmlns:xlink="http://www.w3.org/1999/xlink"><defs><marker id="arrow" markerHeight="3.5" markerWidth="5" orient="auto" refX="5.0" refY="1.7"><polygon points="0,0 5,1.75 0,3.5" /></marker></defs><g style="fill:white;"><g transform="matrix(1.0, 0.0, 0.0, 1.0, 528.409090909091, 150.0)"><g transform="matrix(1082.2510822510822, 0.0, 0.0, 1082.2510822510822, 0.0, 0.0)"><g><g transform="matrix(1.0, 0.0, 0.0, 1.0, -0.0, -0.08000000000000002)"><g><g><g style="fill: #ffffff;stroke: black;stroke-width: 1.2000000000000002;" transform="matrix(1.0, 0.0, 0.0, 1.0, -0.465, -0.052000000000000005)"><path d="M 0.0 0.0 L 0.93 0.0 L 0.93 0.264 L 0.0 0.264 L 0.0 0.0 Z" style="vector-effect: non-scaling-stroke;" /></g><g><g><g><g><g><g><g><g transform="matrix(1.0, 0.0, 0.0, 1.0, -0.41500000000000004, -0.03)"><g><g><g transform="matrix(1.0, 0.0, 0.0, 1.0, 0.075, 0.0)"><g transform="matrix(1.0, 0.0, 0.0, 1.0, 0.0, 0.03)"><g transform="matrix(0.01, 0.0, 0.0, 0.01, 0.0, 0.0)"><g><g><g transform="matrix(1.0, 0.0, 0.0, 1.0, 12.5, 0.0)"><g transform="matrix(1.0, 0.0, 0.0, 1.0, -20.0, -0.0)"><g><g style="fill: #d3d3d3;stroke: black;stroke-width: 1.2000000000000002;" transform="matrix(1.0, 0.0, 0.0, 1.0, 0.0, -3.0)"><path d="M 0.0 0.0 L 40.0 0.0 L 40.0 6.0 L 0.0 6.0 L 0.0 0.0 Z" style="vector-effect: non-scaling-stroke;" /></g><g transform="matrix(1.0, 0.0, 0.0, 1.0, 1.875, 0.0)"><g><g style="stroke: black;stroke-width: 1.2000000000000002;" transform="matrix(1.0, 0.0, 0.0, 1.0, 0.0, 0.0)"><g /></g><g style="fill: #ffa500;stroke: black;stroke-width: 1.2000000000000002;" transform="matrix(1.0, 0.0, 0.0, 1.0, 1.875, 0.0)"><text style="text-align:center; text-anchor:middle; dominant-baseline:middle;&#10;                      font-family:sans-serif; font-weight: bold;&#10;                      font-size:3px;&#10;                      vector-effect: non-scaling-stroke;" transform="translate(-5e-05, 0)">x</text></g></g></g></g></g></g><g><g><g><g><g><g><g><g><g style="stroke: black;stroke-width: 1.2000000000000002;" transform="matrix(1.0, 0.0, 0.0, 1.0, 0.0, 0.0)"><path d="M 0.0 -2.0 L 0.0 2.0" style="vector-effect: non-scaling-stroke;fill:none;" /></g><g style="stroke: #808080;stroke-width: 0.6000000000000001;" transform="matrix(1.0, 0.0, 0.0, 1.0, 0.0, 0.0)"><path d="M 0.0 0.0 L 25.0 0.0" style="vector-effect: non-scaling-stroke;fill:none;" /></g></g><g style="stroke: black;stroke-width: 2.4000000000000004;" transform="matrix(1.0, 0.0, 0.0, 1.0, 0.0, 0.0)"><path d="M 0.0 0.005311056971549988 L 1.0 0.005311056971549988 L 1.0 0.6617961525917053 L 2.0 0.6617961525917053 L 2.0 -0.029221951961517334 L 3.0 -0.029221951961517334 L 3.0 -0.5955145359039307 L 4.0 -0.5955145359039307 L 4.0 -0.28756967186927795 L 5.0 -0.28756967186927795 L 5.0 -1.1414746046066284 L 6.0 -1.1414746046066284 L 6.0 0.029801758006215096 L 7.0 0.029801758006215096 L 7.0 -0.5384460091590881 L 8.0 -0.5384460091590881 L 8.0 -0.7264551520347595 L 9.0 -0.7264551520347595 L 9.0 -0.7654497623443604 L 10.0 -0.7654497623443604 L 10.0 0.06270832568407059 L 11.0 0.06270832568407059 L 11.0 -1.5212970972061157 L 12.0 -1.5212970972061157 L 12.0 -0.8081479072570801 L 13.0 -0.8081479072570801 L 13.0 -1.4235832691192627 L 14.0 -1.4235832691192627 L 14.0 -0.31076791882514954 L 15.0 -0.31076791882514954 L 15.0 -0.3787614107131958 L 16.0 -0.3787614107131958 L 16.0 -1.1808154582977295 L 17.0 -1.1808154582977295 L 17.0 -0.852485179901123 L 18.0 -0.852485179901123 L 18.0 -1.745559573173523 L 19.0 -1.745559573173523 L 19.0 -0.6974199414253235 L 20.0 -0.6974199414253235 L 20.0 -0.5488577485084534 L 21.0 -0.5488577485084534 L 21.0 -0.821071445941925 L 22.0 -0.821071445941925 L 22.0 -0.8402944207191467 L 23.0 -0.8402944207191467 L 23.0 -0.12001878023147583 L 24.0 -0.12001878023147583 L 24.0 -1.3758478164672852 L 25.0 -1.3758478164672852" style="vector-effect: non-scaling-stroke;fill:none;" /></g></g><g style="stroke: black;stroke-width: 1.2000000000000002;" transform="matrix(1.0, 0.0, 0.0, 1.0, 0.0, 0.0)"><path d="M 0.0 -2.0 L 0.0 2.0" style="vector-effect: non-scaling-stroke;fill:none;" /></g></g><g style="stroke: black;stroke-width: 1.2000000000000002;" transform="matrix(1.0, 0.0, 0.0, 1.0, 0.0, 0.0)"><path d="M 5.0 -2.0 L 5.0 2.0" style="vector-effect: non-scaling-stroke;fill:none;" /></g></g><g style="stroke: black;stroke-width: 1.2000000000000002;" transform="matrix(1.0, 0.0, 0.0, 1.0, 0.0, 0.0)"><path d="M 10.0 -2.0 L 10.0 2.0" style="vector-effect: non-scaling-stroke;fill:none;" /></g></g><g style="stroke: black;stroke-width: 1.2000000000000002;" transform="matrix(1.0, 0.0, 0.0, 1.0, 0.0, 0.0)"><path d="M 15.0 -2.0 L 15.0 2.0" style="vector-effect: non-scaling-stroke;fill:none;" /></g></g><g style="stroke: black;stroke-width: 1.2000000000000002;" transform="matrix(1.0, 0.0, 0.0, 1.0, 0.0, 0.0)"><path d="M 20.0 -2.0 L 20.0 2.0" style="vector-effect: non-scaling-stroke;fill:none;" /></g></g></g></g><g><g><g><g><g><g><g><g><g style="stroke: black;stroke-width: 1.2000000000000002;" transform="matrix(1.0, 0.0, 0.0, 1.0, 0.0, 0.0)"><path d="M 0.0 -2.0 L 0.0 2.0" style="vector-effect: non-scaling-stroke;fill:none;" /></g><g style="stroke: #808080;stroke-width: 0.6000000000000001;" transform="matrix(1.0, 0.0, 0.0, 1.0, 0.0, 0.0)"><path d="M 0.0 0.0 L 25.0 0.0" style="vector-effect: non-scaling-stroke;fill:none;" /></g></g><g style="stroke: black;stroke-width: 2.4000000000000004;" transform="matrix(1.0, 0.0, 0.0, 1.0, 0.0, 0.0)"><path d="M 0.0 0.005311056971549988 L 1.0 0.005311056971549988 L 1.0 0.6617961525917053 L 2.0 0.6617961525917053 L 2.0 -0.029221951961517334 L 3.0 -0.029221951961517334 L 3.0 -0.5955145359039307 L 4.0 -0.5955145359039307 L 4.0 -0.28756967186927795 L 5.0 -0.28756967186927795 L 5.0 -1.1414746046066284 L 6.0 -1.1414746046066284 L 6.0 0.029801758006215096 L 7.0 0.029801758006215096 L 7.0 -0.5384460091590881 L 8.0 -0.5384460091590881 L 8.0 -0.7264551520347595 L 9.0 -0.7264551520347595 L 9.0 -0.7654497623443604 L 10.0 -0.7654497623443604 L 10.0 0.06270832568407059 L 11.0 0.06270832568407059 L 11.0 -1.5212970972061157 L 12.0 -1.5212970972061157 L 12.0 -0.8081479072570801 L 13.0 -0.8081479072570801 L 13.0 -1.4235832691192627 L 14.0 -1.4235832691192627 L 14.0 -0.31076791882514954 L 15.0 -0.31076791882514954 L 15.0 -0.3787614107131958 L 16.0 -0.3787614107131958 L 16.0 -1.1808154582977295 L 17.0 -1.1808154582977295 L 17.0 -0.852485179901123 L 18.0 -0.852485179901123 L 18.0 -1.745559573173523 L 19.0 -1.745559573173523 L 19.0 -0.6974199414253235 L 20.0 -0.6974199414253235 L 20.0 -0.5488577485084534 L 21.0 -0.5488577485084534 L 21.0 -0.821071445941925 L 22.0 -0.821071445941925 L 22.0 -0.8402944207191467 L 23.0 -0.8402944207191467 L 23.0 -0.12001878023147583 L 24.0 -0.12001878023147583 L 24.0 -1.3758478164672852 L 25.0 -1.3758478164672852" style="vector-effect: non-scaling-stroke;fill:none;" /></g></g><g style="stroke: black;stroke-width: 1.2000000000000002;" transform="matrix(1.0, 0.0, 0.0, 1.0, 0.0, 0.0)"><path d="M 0.0 -2.0 L 0.0 2.0" style="vector-effect: non-scaling-stroke;fill:none;" /></g></g><g style="stroke: black;stroke-width: 1.2000000000000002;" transform="matrix(1.0, 0.0, 0.0, 1.0, 0.0, 0.0)"><path d="M 5.0 -2.0 L 5.0 2.0" style="vector-effect: non-scaling-stroke;fill:none;" /></g></g><g style="stroke: black;stroke-width: 1.2000000000000002;" transform="matrix(1.0, 0.0, 0.0, 1.0, 0.0, 0.0)"><path d="M 10.0 -2.0 L 10.0 2.0" style="vector-effect: non-scaling-stroke;fill:none;" /></g></g><g style="stroke: black;stroke-width: 1.2000000000000002;" transform="matrix(1.0, 0.0, 0.0, 1.0, 0.0, 0.0)"><path d="M 15.0 -2.0 L 15.0 2.0" style="vector-effect: non-scaling-stroke;fill:none;" /></g></g><g style="stroke: black;stroke-width: 1.2000000000000002;" transform="matrix(1.0, 0.0, 0.0, 1.0, 0.0, 0.0)"><path d="M 20.0 -2.0 L 20.0 2.0" style="vector-effect: non-scaling-stroke;fill:none;" /></g></g></g></g></g></g></g><g style="stroke: black;stroke-width: 1.2000000000000002;" transform="matrix(1.0, 0.0, 0.0, 1.0, 0.41500000000000004, 0.0)"><g /></g></g><g transform="matrix(1.0, 0.0, 0.0, 1.0, 0.43000000000000005, 0.0)"><g transform="matrix(1.0, 0.0, 0.0, 1.0, 0.075, 0.0)"><g transform="matrix(1.0, 0.0, 0.0, 1.0, 0.0, 0.03)"><g transform="matrix(0.01, 0.0, 0.0, 0.01, 0.0, 0.0)"><g><g><g transform="matrix(1.0, 0.0, 0.0, 1.0, 12.5, 0.0)"><g transform="matrix(1.0, 0.0, 0.0, 1.0, -20.0, -0.0)"><g><g style="fill: #d3d3d3;stroke: black;stroke-width: 1.2000000000000002;" transform="matrix(1.0, 0.0, 0.0, 1.0, 0.0, -3.0)"><path d="M 0.0 0.0 L 40.0 0.0 L 40.0 6.0 L 0.0 6.0 L 0.0 0.0 Z" style="vector-effect: non-scaling-stroke;" /></g><g transform="matrix(1.0, 0.0, 0.0, 1.0, 1.875, 0.0)"><g><g style="stroke: black;stroke-width: 1.2000000000000002;" transform="matrix(1.0, 0.0, 0.0, 1.0, 0.0, 0.0)"><g /></g><g style="fill: #ffa500;stroke: black;stroke-width: 1.2000000000000002;" transform="matrix(1.0, 0.0, 0.0, 1.0, 1.875, 0.0)"><text style="text-align:center; text-anchor:middle; dominant-baseline:middle;&#10;                      font-family:sans-serif; font-weight: bold;&#10;                      font-size:3px;&#10;                      vector-effect: non-scaling-stroke;" transform="translate(-5e-05, 0)">y</text></g></g></g></g></g></g><g><g><g><g style="stroke: black;stroke-width: 1.2000000000000002;" transform="matrix(1.0, 0.0, 0.0, 1.0, 0.0, 0.0)"><path d="M 0.0 -2.0 L 0.0 2.0" style="vector-effect: non-scaling-stroke;fill:none;" /></g><g style="stroke: #808080;stroke-width: 0.6000000000000001;" transform="matrix(1.0, 0.0, 0.0, 1.0, 0.0, 0.0)"><path d="M 0.0 0.0 L 25.0 0.0" style="vector-effect: non-scaling-stroke;fill:none;" /></g></g><g style="stroke: black;stroke-width: 2.4000000000000004;" transform="matrix(1.0, 0.0, 0.0, 1.0, 0.0, 0.0)"><path d="M 0.0 -0.7104760408401489 L 1.0 -0.7104760408401489 L 1.0 -0.8866549730300903 L 2.0 -0.8866549730300903 L 2.0 -0.5337659120559692 L 3.0 -0.5337659120559692 L 3.0 -1.97091805934906 L 4.0 -1.97091805934906 L 4.0 -1.27131187915802 L 5.0 -1.27131187915802 L 5.0 -1.3876806497573853 L 6.0 -1.3876806497573853 L 6.0 -1.7807198762893677 L 7.0 -1.7807198762893677 L 7.0 -0.7823610305786133 L 8.0 -0.7823610305786133 L 8.0 -1.4078423976898193 L 9.0 -1.4078423976898193 L 9.0 -1.8414782285690308 L 10.0 -1.8414782285690308 L 10.0 -0.1485409289598465 L 11.0 -0.1485409289598465 L 11.0 -1.0431902408599854 L 12.0 -1.0431902408599854 L 12.0 -0.09622325748205185 L 13.0 -0.09622325748205185 L 13.0 -0.26951152086257935 L 14.0 -0.26951152086257935 L 14.0 -1.3328336477279663 L 15.0 -1.3328336477279663 L 15.0 -0.8747767806053162 L 16.0 -0.8747767806053162 L 16.0 -1.4892016649246216 L 17.0 -1.4892016649246216 L 17.0 0.11869626492261887 L 18.0 0.11869626492261887 L 18.0 -1.2941701412200928 L 19.0 -1.2941701412200928 L 19.0 -0.487885057926178 L 20.0 -0.487885057926178 L 20.0 -1.3998547792434692 L 21.0 -1.3998547792434692 L 21.0 -0.6406936049461365 L 22.0 -0.6406936049461365 L 22.0 -1.6183596849441528 L 23.0 -1.6183596849441528 L 23.0 -1.5249296426773071 L 24.0 -1.5249296426773071 L 24.0 -0.435707688331604 L 25.0 -0.435707688331604" style="vector-effect: non-scaling-stroke;fill:none;" /></g></g></g></g><g><g><g><g style="stroke: black;stroke-width: 1.2000000000000002;" transform="matrix(1.0, 0.0, 0.0, 1.0, 0.0, 0.0)"><path d="M 0.0 -2.0 L 0.0 2.0" style="vector-effect: non-scaling-stroke;fill:none;" /></g><g style="stroke: #808080;stroke-width: 0.6000000000000001;" transform="matrix(1.0, 0.0, 0.0, 1.0, 0.0, 0.0)"><path d="M 0.0 0.0 L 25.0 0.0" style="vector-effect: non-scaling-stroke;fill:none;" /></g></g><g style="stroke: black;stroke-width: 2.4000000000000004;" transform="matrix(1.0, 0.0, 0.0, 1.0, 0.0, 0.0)"><path d="M 0.0 -0.7104760408401489 L 1.0 -0.7104760408401489 L 1.0 -0.8866549730300903 L 2.0 -0.8866549730300903 L 2.0 -0.5337659120559692 L 3.0 -0.5337659120559692 L 3.0 -1.97091805934906 L 4.0 -1.97091805934906 L 4.0 -1.27131187915802 L 5.0 -1.27131187915802 L 5.0 -1.3876806497573853 L 6.0 -1.3876806497573853 L 6.0 -1.7807198762893677 L 7.0 -1.7807198762893677 L 7.0 -0.7823610305786133 L 8.0 -0.7823610305786133 L 8.0 -1.4078423976898193 L 9.0 -1.4078423976898193 L 9.0 -1.8414782285690308 L 10.0 -1.8414782285690308 L 10.0 -0.1485409289598465 L 11.0 -0.1485409289598465 L 11.0 -1.0431902408599854 L 12.0 -1.0431902408599854 L 12.0 -0.09622325748205185 L 13.0 -0.09622325748205185 L 13.0 -0.26951152086257935 L 14.0 -0.26951152086257935 L 14.0 -1.3328336477279663 L 15.0 -1.3328336477279663 L 15.0 -0.8747767806053162 L 16.0 -0.8747767806053162 L 16.0 -1.4892016649246216 L 17.0 -1.4892016649246216 L 17.0 0.11869626492261887 L 18.0 0.11869626492261887 L 18.0 -1.2941701412200928 L 19.0 -1.2941701412200928 L 19.0 -0.487885057926178 L 20.0 -0.487885057926178 L 20.0 -1.3998547792434692 L 21.0 -1.3998547792434692 L 21.0 -0.6406936049461365 L 22.0 -0.6406936049461365 L 22.0 -1.6183596849441528 L 23.0 -1.6183596849441528 L 23.0 -1.5249296426773071 L 24.0 -1.5249296426773071 L 24.0 -0.435707688331604 L 25.0 -0.435707688331604" style="vector-effect: non-scaling-stroke;fill:none;" /></g></g></g></g></g></g></g></g></g></g><g style="stroke: black;stroke-width: 1.2000000000000002;" transform="matrix(0.0, -1.0, 1.0, 0.0, 0.0, 0.08)"><g /></g></g><g transform="matrix(1.0, 0.0, 0.0, 1.0, 0.0, 0.16)"><g transform="matrix(1.0, 0.0, 0.0, 1.0, -0.2, -0.03)"><g transform="matrix(1.0, 0.0, 0.0, 1.0, 0.075, 0.0)"><g transform="matrix(1.0, 0.0, 0.0, 1.0, 0.0, 0.03)"><g transform="matrix(0.01, 0.0, 0.0, 0.01, 0.0, 0.0)"><g><g><g transform="matrix(1.0, 0.0, 0.0, 1.0, 12.5, 0.0)"><g transform="matrix(1.0, 0.0, 0.0, 1.0, -20.0, -0.0)"><g><g style="fill: #d3d3d3;stroke: black;stroke-width: 1.2000000000000002;" transform="matrix(1.0, 0.0, 0.0, 1.0, 0.0, -3.0)"><path d="M 0.0 0.0 L 40.0 0.0 L 40.0 6.0 L 0.0 6.0 L 0.0 0.0 Z" style="vector-effect: non-scaling-stroke;" /></g><g transform="matrix(1.0, 0.0, 0.0, 1.0, 1.875, 0.0)"><g><g style="stroke: black;stroke-width: 1.2000000000000002;" transform="matrix(1.0, 0.0, 0.0, 1.0, 0.0, 0.0)"><g /></g><g style="fill: #ffa500;stroke: black;stroke-width: 1.2000000000000002;" transform="matrix(1.0, 0.0, 0.0, 1.0, 1.875, 0.0)"><text style="text-align:center; text-anchor:middle; dominant-baseline:middle;&#10;                      font-family:sans-serif; font-weight: bold;&#10;                      font-size:3px;&#10;                      vector-effect: non-scaling-stroke;" transform="translate(-5e-05, 0)">f(x)</text></g></g></g></g></g></g><g><g><g><g style="stroke: black;stroke-width: 1.2000000000000002;" transform="matrix(1.0, 0.0, 0.0, 1.0, 0.0, 0.0)"><path d="M 0.0 -2.0 L 0.0 2.0" style="vector-effect: non-scaling-stroke;fill:none;" /></g><g style="stroke: #808080;stroke-width: 0.6000000000000001;" transform="matrix(1.0, 0.0, 0.0, 1.0, 0.0, 0.0)"><path d="M 0.0 0.0 L 25.0 0.0" style="vector-effect: non-scaling-stroke;fill:none;" /></g></g><g style="stroke: black;stroke-width: 2.4000000000000004;" transform="matrix(1.0, 0.0, 0.0, 1.0, 0.0, 0.0)"><path d="M 0.0 -0.0005703598144464195 L 1.0 -0.0005703598144464195 L 1.0 0.008161334320902824 L 2.0 0.008161334320902824 L 2.0 0.012308066710829735 L 3.0 0.012308066710829735 L 3.0 -0.027492398396134377 L 4.0 -0.027492398396134377 L 4.0 0.07706482708454132 L 5.0 0.07706482708454132 L 5.0 -0.25566211342811584 L 6.0 -0.25566211342811584 L 6.0 -0.30929839611053467 L 7.0 -0.30929839611053467 L 7.0 -0.179032102227211 L 8.0 -0.179032102227211 L 8.0 -0.4460328221321106 L 9.0 -0.4460328221321106 L 9.0 -0.2801888585090637 L 10.0 -0.2801888585090637 L 10.0 -0.38669124245643616 L 11.0 -0.38669124245643616 L 11.0 -0.581556499004364 L 12.0 -0.581556499004364 L 12.0 -0.15684548020362854 L 13.0 -0.15684548020362854 L 13.0 -0.4552217125892639 L 14.0 -0.4552217125892639 L 14.0 -0.462878942489624 L 15.0 -0.462878942489624 L 15.0 -0.4537586271762848 L 16.0 -0.4537586271762848 L 16.0 -0.6374159455299377 L 17.0 -0.6374159455299377 L 17.0 -0.21295075118541718 L 18.0 -0.21295075118541718 L 18.0 -0.596123218536377 L 19.0 -0.596123218536377 L 19.0 -0.494769424200058 L 20.0 -0.494769424200058 L 20.0 -0.3685130178928375 L 21.0 -0.3685130178928375 L 21.0 -0.38855618238449097 L 22.0 -0.38855618238449097 L 22.0 -0.32285624742507935 L 23.0 -0.32285624742507935 L 23.0 -0.4717558026313782 L 24.0 -0.4717558026313782 L 24.0 -0.39877501130104065 L 25.0 -0.39877501130104065" style="vector-effect: non-scaling-stroke;fill:none;" /></g></g></g></g><g><g><g><g style="stroke: black;stroke-width: 1.2000000000000002;" transform="matrix(1.0, 0.0, 0.0, 1.0, 0.0, 0.0)"><path d="M 0.0 -2.0 L 0.0 2.0" style="vector-effect: non-scaling-stroke;fill:none;" /></g><g style="stroke: #808080;stroke-width: 0.6000000000000001;" transform="matrix(1.0, 0.0, 0.0, 1.0, 0.0, 0.0)"><path d="M 0.0 0.0 L 25.0 0.0" style="vector-effect: non-scaling-stroke;fill:none;" /></g></g><g style="stroke: black;stroke-width: 2.4000000000000004;" transform="matrix(1.0, 0.0, 0.0, 1.0, 0.0, 0.0)"><path d="M 0.0 -0.0005703598144464195 L 1.0 -0.0005703598144464195 L 1.0 0.008161334320902824 L 2.0 0.008161334320902824 L 2.0 0.012308066710829735 L 3.0 0.012308066710829735 L 3.0 -0.027492398396134377 L 4.0 -0.027492398396134377 L 4.0 0.07706482708454132 L 5.0 0.07706482708454132 L 5.0 -0.25566211342811584 L 6.0 -0.25566211342811584 L 6.0 -0.30929839611053467 L 7.0 -0.30929839611053467 L 7.0 -0.179032102227211 L 8.0 -0.179032102227211 L 8.0 -0.4460328221321106 L 9.0 -0.4460328221321106 L 9.0 -0.2801888585090637 L 10.0 -0.2801888585090637 L 10.0 -0.38669124245643616 L 11.0 -0.38669124245643616 L 11.0 -0.581556499004364 L 12.0 -0.581556499004364 L 12.0 -0.15684548020362854 L 13.0 -0.15684548020362854 L 13.0 -0.4552217125892639 L 14.0 -0.4552217125892639 L 14.0 -0.462878942489624 L 15.0 -0.462878942489624 L 15.0 -0.4537586271762848 L 16.0 -0.4537586271762848 L 16.0 -0.6374159455299377 L 17.0 -0.6374159455299377 L 17.0 -0.21295075118541718 L 18.0 -0.21295075118541718 L 18.0 -0.596123218536377 L 19.0 -0.596123218536377 L 19.0 -0.494769424200058 L 20.0 -0.494769424200058 L 20.0 -0.3685130178928375 L 21.0 -0.3685130178928375 L 21.0 -0.38855618238449097 L 22.0 -0.38855618238449097 L 22.0 -0.32285624742507935 L 23.0 -0.32285624742507935 L 23.0 -0.4717558026313782 L 24.0 -0.4717558026313782 L 24.0 -0.39877501130104065 L 25.0 -0.39877501130104065" style="vector-effect: non-scaling-stroke;fill:none;" /></g></g></g></g></g></g></g></g></g></g><g transform="matrix(1.0, 0.0, 0.0, 1.0, -0.125, 0.16)"><g transform="matrix(1.0, 0.0, 0.0, 0.009999999999999995, 0.0, 0.0)"><g transform="matrix(0.01, 0.0, 0.0, 1.0, 0.0, 0.0)"><g><g><g style="fill: #ffffe0;stroke: #ffffe0;stroke-width: 1.2000000000000002;fill-opacity: 0.5;" transform="matrix(1.0, 0.0, 0.0, 1.0, 0.0, 0.0)"><path d="M 0.0 -2.0 L 0.0 2.0" style="vector-effect: non-scaling-stroke;fill:none;" /></g><g style="fill: #ffffe0;stroke: #ffffe0;stroke-width: 1.2000000000000002;fill-opacity: 0.5;" transform="matrix(1.0, 0.0, 0.0, 1.0, 0.0, 0.0)"><path d="M 0.0 -0.9056761860847473 L 1.0 -0.9056761860847473 L 1.0 -1.1606485843658447 L 2.0 -1.1606485843658447 L 2.0 -0.5692097544670105 L 3.0 -0.5692097544670105 L 3.0 -1.3210994005203247 L 4.0 -1.3210994005203247 L 4.0 -0.9950737357139587 L 5.0 -0.9950737357139587 L 5.0 -1.1497317552566528 L 6.0 -1.1497317552566528 L 6.0 -1.48350989818573 L 7.0 -1.48350989818573 L 7.0 -0.7601773738861084 L 8.0 -0.7601773738861084 L 8.0 -1.7185919284820557 L 9.0 -1.7185919284820557 L 9.0 -1.3620131015777588 L 10.0 -1.3620131015777588 L 10.0 -1.2837411165237427 L 11.0 -1.2837411165237427 L 11.0 -1.743847131729126 L 12.0 -1.743847131729126 L 12.0 -0.7379907369613647 L 13.0 -0.7379907369613647 L 13.0 -1.7516226768493652 L 14.0 -1.7516226768493652 L 14.0 -1.5417230129241943 L 15.0 -1.5417230129241943 L 15.0 -1.3567689657211304 L 16.0 -1.3567689657211304 L 16.0 -1.7997064590454102 L 17.0 -1.7997064590454102 L 17.0 -0.8045268654823303 L 18.0 -0.8045268654823303 L 18.0 -1.8716626167297363 L 19.0 -1.8716626167297363 L 19.0 -1.5706332921981812 L 20.0 -1.5706332921981812 L 20.0 -1.271523356437683 L 21.0 -1.271523356437683 L 21.0 -1.556807279586792 L 22.0 -1.556807279586792 L 22.0 -0.9069817662239075 L 23.0 -0.9069817662239075 L 23.0 -1.7472951412200928 L 24.0 -1.7472951412200928 L 24.0 -1.4716585874557495 L 25.0 -1.4716585874557495 L 25.0 -0.39877501130104065 L 24.0 -0.39877501130104065 L 24.0 -0.4717558026313782 L 23.0 -0.4717558026313782 L 23.0 -0.32285624742507935 L 22.0 -0.32285624742507935 L 22.0 -0.38855618238449097 L 21.0 -0.38855618238449097 L 21.0 -0.3685130178928375 L 20.0 -0.3685130178928375 L 20.0 -0.494769424200058 L 19.0 -0.494769424200058 L 19.0 -0.596123218536377 L 18.0 -0.596123218536377 L 18.0 -0.21295075118541718 L 17.0 -0.21295075118541718 L 17.0 -0.6374159455299377 L 16.0 -0.6374159455299377 L 16.0 -0.4537586271762848 L 15.0 -0.4537586271762848 L 15.0 -0.462878942489624 L 14.0 -0.462878942489624 L 14.0 -0.4552217125892639 L 13.0 -0.4552217125892639 L 13.0 -0.15684548020362854 L 12.0 -0.15684548020362854 L 12.0 -0.581556499004364 L 11.0 -0.581556499004364 L 11.0 -0.38669124245643616 L 10.0 -0.38669124245643616 L 10.0 -0.2801888585090637 L 9.0 -0.2801888585090637 L 9.0 -0.4460328221321106 L 8.0 -0.4460328221321106 L 8.0 -0.179032102227211 L 7.0 -0.179032102227211 L 7.0 -0.30929839611053467 L 6.0 -0.30929839611053467 L 6.0 -0.25566211342811584 L 5.0 -0.25566211342811584 L 5.0 0.07706482708454132 L 4.0 0.07706482708454132 L 4.0 -0.027492398396134377 L 3.0 -0.027492398396134377 L 3.0 0.012308066710829735 L 2.0 0.012308066710829735 L 2.0 0.008161334320902824 L 1.0 0.008161334320902824 L 1.0 -0.0005703598144464195 L 0.0 -0.0005703598144464195 Z" style="vector-effect: non-scaling-stroke;" /></g></g><g style="stroke: black;stroke-width: 1.2000000000000002;" transform="matrix(1.0, 0.0, 0.0, 1.0, 0.0, 0.0)"><path d="M 0.0 -0.0005703598144464195 L 1.0 -0.0005703598144464195 L 1.0 0.008161334320902824 L 2.0 0.008161334320902824 L 2.0 0.012308066710829735 L 3.0 0.012308066710829735 L 3.0 -0.027492398396134377 L 4.0 -0.027492398396134377 L 4.0 0.07706482708454132 L 5.0 0.07706482708454132 L 5.0 -0.25566211342811584 L 6.0 -0.25566211342811584 L 6.0 -0.30929839611053467 L 7.0 -0.30929839611053467 L 7.0 -0.179032102227211 L 8.0 -0.179032102227211 L 8.0 -0.4460328221321106 L 9.0 -0.4460328221321106 L 9.0 -0.2801888585090637 L 10.0 -0.2801888585090637 L 10.0 -0.38669124245643616 L 11.0 -0.38669124245643616 L 11.0 -0.581556499004364 L 12.0 -0.581556499004364 L 12.0 -0.15684548020362854 L 13.0 -0.15684548020362854 L 13.0 -0.4552217125892639 L 14.0 -0.4552217125892639 L 14.0 -0.462878942489624 L 15.0 -0.462878942489624 L 15.0 -0.4537586271762848 L 16.0 -0.4537586271762848 L 16.0 -0.6374159455299377 L 17.0 -0.6374159455299377 L 17.0 -0.21295075118541718 L 18.0 -0.21295075118541718 L 18.0 -0.596123218536377 L 19.0 -0.596123218536377 L 19.0 -0.494769424200058 L 20.0 -0.494769424200058 L 20.0 -0.3685130178928375 L 21.0 -0.3685130178928375 L 21.0 -0.38855618238449097 L 22.0 -0.38855618238449097 L 22.0 -0.32285624742507935 L 23.0 -0.32285624742507935 L 23.0 -0.4717558026313782 L 24.0 -0.4717558026313782 L 24.0 -0.39877501130104065 L 25.0 -0.39877501130104065" style="vector-effect: non-scaling-stroke;fill:none;" /></g></g></g></g></g></g><g transform="matrix(1.0, 0.0, 0.0, 1.0, -0.125, 0.16)"><g transform="matrix(1.0, 0.0, 0.0, 0.009999999999999995, 0.0, 0.0)"><g transform="matrix(0.01, 0.0, 0.0, 1.0, 0.0, 0.0)"><g><g><g style="fill: #add8e6;stroke: #add8e6;stroke-width: 1.2000000000000002;fill-opacity: 0.5;" transform="matrix(1.0, 0.0, 0.0, 1.0, 0.0, 0.0)"><path d="M 0.0 -2.0 L 0.0 2.0" style="vector-effect: non-scaling-stroke;fill:none;" /></g><g style="fill: #add8e6;stroke: #add8e6;stroke-width: 1.2000000000000002;fill-opacity: 0.5;" transform="matrix(1.0, 0.0, 0.0, 1.0, 0.0, 0.0)"><path d="M 0.0 -0.04974419251084328 L 1.0 -0.04974419251084328 L 1.0 -0.042130082845687866 L 2.0 -0.042130082845687866 L 2.0 -0.035468779504299164 L 3.0 -0.035468779504299164 L 3.0 -0.07592117041349411 L 4.0 -0.07592117041349411 L 4.0 0.033106401562690735 L 5.0 0.033106401562690735 L 5.0 -0.875550389289856 L 6.0 -0.875550389289856 L 6.0 -0.9470680952072144 L 7.0 -0.9470680952072144 L 7.0 -0.8063709735870361 L 8.0 -0.8063709735870361 L 8.0 -1.0599606037139893 L 9.0 -1.0599606037139893 L 9.0 -0.9179585576057434 L 10.0 -0.9179585576057434 L 10.0 -1.1824132204055786 L 11.0 -1.1824132204055786 L 11.0 -1.3921797275543213 L 12.0 -1.3921797275543213 L 12.0 -0.9570378065109253 L 13.0 -0.9570378065109253 L 13.0 -1.250943660736084 L 14.0 -1.250943660736084 L 14.0 -1.2675416469573975 L 15.0 -1.2675416469573975 L 15.0 -1.4312747716903687 L 16.0 -1.4312747716903687 L 16.0 -1.603011131286621 L 17.0 -1.603011131286621 L 17.0 -1.1904668807983398 L 18.0 -1.1904668807983398 L 18.0 -1.5736393928527832 L 19.0 -1.5736393928527832 L 19.0 -1.4722856283187866 L 20.0 -1.4722856283187866 L 20.0 -1.1105908155441284 L 21.0 -1.1105908155441284 L 21.0 -1.12467360496521 L 22.0 -1.12467360496521 L 22.0 -1.070894479751587 L 23.0 -1.070894479751587 L 23.0 -1.1899917125701904 L 24.0 -1.1899917125701904 L 24.0 -1.1408528089523315 L 25.0 -1.1408528089523315 L 25.0 -0.39877501130104065 L 24.0 -0.39877501130104065 L 24.0 -0.4717558026313782 L 23.0 -0.4717558026313782 L 23.0 -0.32285624742507935 L 22.0 -0.32285624742507935 L 22.0 -0.38855618238449097 L 21.0 -0.38855618238449097 L 21.0 -0.3685130178928375 L 20.0 -0.3685130178928375 L 20.0 -0.494769424200058 L 19.0 -0.494769424200058 L 19.0 -0.596123218536377 L 18.0 -0.596123218536377 L 18.0 -0.21295075118541718 L 17.0 -0.21295075118541718 L 17.0 -0.6374159455299377 L 16.0 -0.6374159455299377 L 16.0 -0.4537586271762848 L 15.0 -0.4537586271762848 L 15.0 -0.462878942489624 L 14.0 -0.462878942489624 L 14.0 -0.4552217125892639 L 13.0 -0.4552217125892639 L 13.0 -0.15684548020362854 L 12.0 -0.15684548020362854 L 12.0 -0.581556499004364 L 11.0 -0.581556499004364 L 11.0 -0.38669124245643616 L 10.0 -0.38669124245643616 L 10.0 -0.2801888585090637 L 9.0 -0.2801888585090637 L 9.0 -0.4460328221321106 L 8.0 -0.4460328221321106 L 8.0 -0.179032102227211 L 7.0 -0.179032102227211 L 7.0 -0.30929839611053467 L 6.0 -0.30929839611053467 L 6.0 -0.25566211342811584 L 5.0 -0.25566211342811584 L 5.0 0.07706482708454132 L 4.0 0.07706482708454132 L 4.0 -0.027492398396134377 L 3.0 -0.027492398396134377 L 3.0 0.012308066710829735 L 2.0 0.012308066710829735 L 2.0 0.008161334320902824 L 1.0 0.008161334320902824 L 1.0 -0.0005703598144464195 L 0.0 -0.0005703598144464195 Z" style="vector-effect: non-scaling-stroke;" /></g></g><g style="stroke: black;stroke-width: 1.2000000000000002;" transform="matrix(1.0, 0.0, 0.0, 1.0, 0.0, 0.0)"><path d="M 0.0 -0.0005703598144464195 L 1.0 -0.0005703598144464195 L 1.0 0.008161334320902824 L 2.0 0.008161334320902824 L 2.0 0.012308066710829735 L 3.0 0.012308066710829735 L 3.0 -0.027492398396134377 L 4.0 -0.027492398396134377 L 4.0 0.07706482708454132 L 5.0 0.07706482708454132 L 5.0 -0.25566211342811584 L 6.0 -0.25566211342811584 L 6.0 -0.30929839611053467 L 7.0 -0.30929839611053467 L 7.0 -0.179032102227211 L 8.0 -0.179032102227211 L 8.0 -0.4460328221321106 L 9.0 -0.4460328221321106 L 9.0 -0.2801888585090637 L 10.0 -0.2801888585090637 L 10.0 -0.38669124245643616 L 11.0 -0.38669124245643616 L 11.0 -0.581556499004364 L 12.0 -0.581556499004364 L 12.0 -0.15684548020362854 L 13.0 -0.15684548020362854 L 13.0 -0.4552217125892639 L 14.0 -0.4552217125892639 L 14.0 -0.462878942489624 L 15.0 -0.462878942489624 L 15.0 -0.4537586271762848 L 16.0 -0.4537586271762848 L 16.0 -0.6374159455299377 L 17.0 -0.6374159455299377 L 17.0 -0.21295075118541718 L 18.0 -0.21295075118541718 L 18.0 -0.596123218536377 L 19.0 -0.596123218536377 L 19.0 -0.494769424200058 L 20.0 -0.494769424200058 L 20.0 -0.3685130178928375 L 21.0 -0.3685130178928375 L 21.0 -0.38855618238449097 L 22.0 -0.38855618238449097 L 22.0 -0.32285624742507935 L 23.0 -0.32285624742507935 L 23.0 -0.4717558026313782 L 24.0 -0.4717558026313782 L 24.0 -0.39877501130104065 L 25.0 -0.39877501130104065" style="vector-effect: non-scaling-stroke;fill:none;" /></g></g></g></g></g></g><g transform="matrix(1.0, 0.0, 0.0, 1.0, -0.125, 0.16)"><g transform="matrix(1.0, 0.0, 0.0, 0.009999999999999995, 0.0, 0.0)"><g transform="matrix(0.01, 0.0, 0.0, 1.0, 0.0, 0.0)"><g><g><g style="fill: #ff8c00;stroke: #ff8c00;stroke-width: 1.2000000000000002;fill-opacity: 0.5;" transform="matrix(1.0, 0.0, 0.0, 1.0, 0.0, 0.0)"><path d="M 0.0 -2.0 L 0.0 2.0" style="vector-effect: non-scaling-stroke;fill:none;" /></g><g style="fill: #ff8c00;stroke: #ff8c00;stroke-width: 1.2000000000000002;fill-opacity: 0.5;" transform="matrix(1.0, 0.0, 0.0, 1.0, 0.0, 0.0)"><path d="M 0.0 -0.0005703598144464195 L 1.0 -0.0005703598144464195 L 1.0 0.008161334320902824 L 2.0 0.008161334320902824 L 2.0 0.012308066710829735 L 3.0 0.012308066710829735 L 3.0 -0.027492398396134377 L 4.0 -0.027492398396134377 L 4.0 0.07706482708454132 L 5.0 0.07706482708454132 L 5.0 -0.25566211342811584 L 6.0 -0.25566211342811584 L 6.0 -0.30929839611053467 L 7.0 -0.30929839611053467 L 7.0 -0.179032102227211 L 8.0 -0.179032102227211 L 8.0 -0.4460328221321106 L 9.0 -0.4460328221321106 L 9.0 -0.2801888585090637 L 10.0 -0.2801888585090637 L 10.0 -0.38669124245643616 L 11.0 -0.38669124245643616 L 11.0 -0.581556499004364 L 12.0 -0.581556499004364 L 12.0 -0.15684548020362854 L 13.0 -0.15684548020362854 L 13.0 -0.4552217125892639 L 14.0 -0.4552217125892639 L 14.0 -0.462878942489624 L 15.0 -0.462878942489624 L 15.0 -0.4537586271762848 L 16.0 -0.4537586271762848 L 16.0 -0.6374159455299377 L 17.0 -0.6374159455299377 L 17.0 -0.21295075118541718 L 18.0 -0.21295075118541718 L 18.0 -0.596123218536377 L 19.0 -0.596123218536377 L 19.0 -0.494769424200058 L 20.0 -0.494769424200058 L 20.0 -0.3685130178928375 L 21.0 -0.3685130178928375 L 21.0 -0.38855618238449097 L 22.0 -0.38855618238449097 L 22.0 -0.32285624742507935 L 23.0 -0.32285624742507935 L 23.0 -0.4717558026313782 L 24.0 -0.4717558026313782 L 24.0 -0.39877501130104065 L 25.0 -0.39877501130104065 L 25.0 -0.39877501130104065 L 24.0 -0.39877501130104065 L 24.0 -0.4717558026313782 L 23.0 -0.4717558026313782 L 23.0 -0.32285624742507935 L 22.0 -0.32285624742507935 L 22.0 -0.38855618238449097 L 21.0 -0.38855618238449097 L 21.0 -0.3685130178928375 L 20.0 -0.3685130178928375 L 20.0 -0.494769424200058 L 19.0 -0.494769424200058 L 19.0 -0.596123218536377 L 18.0 -0.596123218536377 L 18.0 -0.21295075118541718 L 17.0 -0.21295075118541718 L 17.0 -0.6374159455299377 L 16.0 -0.6374159455299377 L 16.0 -0.4537586271762848 L 15.0 -0.4537586271762848 L 15.0 -0.462878942489624 L 14.0 -0.462878942489624 L 14.0 -0.4552217125892639 L 13.0 -0.4552217125892639 L 13.0 -0.15684548020362854 L 12.0 -0.15684548020362854 L 12.0 -0.581556499004364 L 11.0 -0.581556499004364 L 11.0 -0.38669124245643616 L 10.0 -0.38669124245643616 L 10.0 -0.2801888585090637 L 9.0 -0.2801888585090637 L 9.0 -0.4460328221321106 L 8.0 -0.4460328221321106 L 8.0 -0.179032102227211 L 7.0 -0.179032102227211 L 7.0 -0.30929839611053467 L 6.0 -0.30929839611053467 L 6.0 -0.25566211342811584 L 5.0 -0.25566211342811584 L 5.0 0.07706482708454132 L 4.0 0.07706482708454132 L 4.0 -0.027492398396134377 L 3.0 -0.027492398396134377 L 3.0 0.012308066710829735 L 2.0 0.012308066710829735 L 2.0 0.008161334320902824 L 1.0 0.008161334320902824 L 1.0 -0.0005703598144464195 L 0.0 -0.0005703598144464195 Z" style="vector-effect: non-scaling-stroke;" /></g></g><g style="stroke: black;stroke-width: 1.2000000000000002;" transform="matrix(1.0, 0.0, 0.0, 1.0, 0.0, 0.0)"><path d="M 0.0 -0.0005703598144464195 L 1.0 -0.0005703598144464195 L 1.0 0.008161334320902824 L 2.0 0.008161334320902824 L 2.0 0.012308066710829735 L 3.0 0.012308066710829735 L 3.0 -0.027492398396134377 L 4.0 -0.027492398396134377 L 4.0 0.07706482708454132 L 5.0 0.07706482708454132 L 5.0 -0.25566211342811584 L 6.0 -0.25566211342811584 L 6.0 -0.30929839611053467 L 7.0 -0.30929839611053467 L 7.0 -0.179032102227211 L 8.0 -0.179032102227211 L 8.0 -0.4460328221321106 L 9.0 -0.4460328221321106 L 9.0 -0.2801888585090637 L 10.0 -0.2801888585090637 L 10.0 -0.38669124245643616 L 11.0 -0.38669124245643616 L 11.0 -0.581556499004364 L 12.0 -0.581556499004364 L 12.0 -0.15684548020362854 L 13.0 -0.15684548020362854 L 13.0 -0.4552217125892639 L 14.0 -0.4552217125892639 L 14.0 -0.462878942489624 L 15.0 -0.462878942489624 L 15.0 -0.4537586271762848 L 16.0 -0.4537586271762848 L 16.0 -0.6374159455299377 L 17.0 -0.6374159455299377 L 17.0 -0.21295075118541718 L 18.0 -0.21295075118541718 L 18.0 -0.596123218536377 L 19.0 -0.596123218536377 L 19.0 -0.494769424200058 L 20.0 -0.494769424200058 L 20.0 -0.3685130178928375 L 21.0 -0.3685130178928375 L 21.0 -0.38855618238449097 L 22.0 -0.38855618238449097 L 22.0 -0.32285624742507935 L 23.0 -0.32285624742507935 L 23.0 -0.4717558026313782 L 24.0 -0.4717558026313782 L 24.0 -0.39877501130104065 L 25.0 -0.39877501130104065" style="vector-effect: non-scaling-stroke;fill:none;" /></g></g></g></g></g></g><g transform="matrix(1.0, 0.0, 0.0, 1.0, -0.125, 0.16)"><g transform="matrix(1.0, 0.0, 0.0, 0.009999999999999995, 0.0, 0.0)"><g transform="matrix(0.01, 0.0, 0.0, 1.0, 0.0, 0.0)"><g><g><g style="fill: #0000ff;stroke: #0000ff;stroke-width: 1.2000000000000002;fill-opacity: 0.5;" transform="matrix(1.0, 0.0, 0.0, 1.0, 0.0, 0.0)"><path d="M 0.0 -2.0 L 0.0 2.0" style="vector-effect: non-scaling-stroke;fill:none;" /></g><g style="fill: #0000ff;stroke: #0000ff;stroke-width: 1.2000000000000002;fill-opacity: 0.5;" transform="matrix(1.0, 0.0, 0.0, 1.0, 0.0, 0.0)"><path d="M 0.0 -0.0005703598144464195 L 1.0 -0.0005703598144464195 L 1.0 0.008161334320902824 L 2.0 0.008161334320902824 L 2.0 0.012308066710829735 L 3.0 0.012308066710829735 L 3.0 -0.027492398396134377 L 4.0 -0.027492398396134377 L 4.0 0.07706482708454132 L 5.0 0.07706482708454132 L 5.0 -0.25566211342811584 L 6.0 -0.25566211342811584 L 6.0 -0.30929839611053467 L 7.0 -0.30929839611053467 L 7.0 -0.179032102227211 L 8.0 -0.179032102227211 L 8.0 -0.4460328221321106 L 9.0 -0.4460328221321106 L 9.0 -0.2801888585090637 L 10.0 -0.2801888585090637 L 10.0 -0.38669124245643616 L 11.0 -0.38669124245643616 L 11.0 -0.581556499004364 L 12.0 -0.581556499004364 L 12.0 -0.15684548020362854 L 13.0 -0.15684548020362854 L 13.0 -0.4552217125892639 L 14.0 -0.4552217125892639 L 14.0 -0.462878942489624 L 15.0 -0.462878942489624 L 15.0 -0.4537586271762848 L 16.0 -0.4537586271762848 L 16.0 -0.6374159455299377 L 17.0 -0.6374159455299377 L 17.0 -0.21295075118541718 L 18.0 -0.21295075118541718 L 18.0 -0.596123218536377 L 19.0 -0.596123218536377 L 19.0 -0.494769424200058 L 20.0 -0.494769424200058 L 20.0 -0.3685130178928375 L 21.0 -0.3685130178928375 L 21.0 -0.38855618238449097 L 22.0 -0.38855618238449097 L 22.0 -0.32285624742507935 L 23.0 -0.32285624742507935 L 23.0 -0.4717558026313782 L 24.0 -0.4717558026313782 L 24.0 -0.39877501130104065 L 25.0 -0.39877501130104065 L 25.0 -0.39877501130104065 L 24.0 -0.39877501130104065 L 24.0 -0.4717558026313782 L 23.0 -0.4717558026313782 L 23.0 -0.32285624742507935 L 22.0 -0.32285624742507935 L 22.0 -0.38855618238449097 L 21.0 -0.38855618238449097 L 21.0 -0.3685130178928375 L 20.0 -0.3685130178928375 L 20.0 -0.494769424200058 L 19.0 -0.494769424200058 L 19.0 -0.596123218536377 L 18.0 -0.596123218536377 L 18.0 -0.21295075118541718 L 17.0 -0.21295075118541718 L 17.0 -0.6374159455299377 L 16.0 -0.6374159455299377 L 16.0 -0.4537586271762848 L 15.0 -0.4537586271762848 L 15.0 -0.462878942489624 L 14.0 -0.462878942489624 L 14.0 -0.4552217125892639 L 13.0 -0.4552217125892639 L 13.0 -0.15684548020362854 L 12.0 -0.15684548020362854 L 12.0 -0.581556499004364 L 11.0 -0.581556499004364 L 11.0 -0.38669124245643616 L 10.0 -0.38669124245643616 L 10.0 -0.2801888585090637 L 9.0 -0.2801888585090637 L 9.0 -0.4460328221321106 L 8.0 -0.4460328221321106 L 8.0 -0.179032102227211 L 7.0 -0.179032102227211 L 7.0 -0.30929839611053467 L 6.0 -0.30929839611053467 L 6.0 -0.25566211342811584 L 5.0 -0.25566211342811584 L 5.0 0.07706482708454132 L 4.0 0.07706482708454132 L 4.0 -0.027492398396134377 L 3.0 -0.027492398396134377 L 3.0 0.012308066710829735 L 2.0 0.012308066710829735 L 2.0 0.008161334320902824 L 1.0 0.008161334320902824 L 1.0 -0.0005703598144464195 L 0.0 -0.0005703598144464195 Z" style="vector-effect: non-scaling-stroke;" /></g></g><g style="stroke: black;stroke-width: 1.2000000000000002;" transform="matrix(1.0, 0.0, 0.0, 1.0, 0.0, 0.0)"><path d="M 0.0 -0.0005703598144464195 L 1.0 -0.0005703598144464195 L 1.0 0.008161334320902824 L 2.0 0.008161334320902824 L 2.0 0.012308066710829735 L 3.0 0.012308066710829735 L 3.0 -0.027492398396134377 L 4.0 -0.027492398396134377 L 4.0 0.07706482708454132 L 5.0 0.07706482708454132 L 5.0 -0.25566211342811584 L 6.0 -0.25566211342811584 L 6.0 -0.30929839611053467 L 7.0 -0.30929839611053467 L 7.0 -0.179032102227211 L 8.0 -0.179032102227211 L 8.0 -0.4460328221321106 L 9.0 -0.4460328221321106 L 9.0 -0.2801888585090637 L 10.0 -0.2801888585090637 L 10.0 -0.38669124245643616 L 11.0 -0.38669124245643616 L 11.0 -0.581556499004364 L 12.0 -0.581556499004364 L 12.0 -0.15684548020362854 L 13.0 -0.15684548020362854 L 13.0 -0.4552217125892639 L 14.0 -0.4552217125892639 L 14.0 -0.462878942489624 L 15.0 -0.462878942489624 L 15.0 -0.4537586271762848 L 16.0 -0.4537586271762848 L 16.0 -0.6374159455299377 L 17.0 -0.6374159455299377 L 17.0 -0.21295075118541718 L 18.0 -0.21295075118541718 L 18.0 -0.596123218536377 L 19.0 -0.596123218536377 L 19.0 -0.494769424200058 L 20.0 -0.494769424200058 L 20.0 -0.3685130178928375 L 21.0 -0.3685130178928375 L 21.0 -0.38855618238449097 L 22.0 -0.38855618238449097 L 22.0 -0.32285624742507935 L 23.0 -0.32285624742507935 L 23.0 -0.4717558026313782 L 24.0 -0.4717558026313782 L 24.0 -0.39877501130104065 L 25.0 -0.39877501130104065" style="vector-effect: non-scaling-stroke;fill:none;" /></g></g></g></g></g></g></g></g><g><g><g><g><g><g><g transform="matrix(1.0, 0.0, 0.0, 1.0, -0.41500000000000004, -0.03)"><g><g><g transform="matrix(1.0, 0.0, 0.0, 1.0, 0.075, 0.0)"><g transform="matrix(1.0, 0.0, 0.0, 1.0, 0.0, 0.03)"><g transform="matrix(0.01, 0.0, 0.0, 0.01, 0.0, 0.0)"><g><g><g transform="matrix(1.0, 0.0, 0.0, 1.0, 12.5, 0.0)"><g transform="matrix(1.0, 0.0, 0.0, 1.0, -20.0, -0.0)"><g><g style="fill: #d3d3d3;stroke: black;stroke-width: 1.2000000000000002;" transform="matrix(1.0, 0.0, 0.0, 1.0, 0.0, -3.0)"><path d="M 0.0 0.0 L 40.0 0.0 L 40.0 6.0 L 0.0 6.0 L 0.0 0.0 Z" style="vector-effect: non-scaling-stroke;" /></g><g transform="matrix(1.0, 0.0, 0.0, 1.0, 1.875, 0.0)"><g><g style="stroke: black;stroke-width: 1.2000000000000002;" transform="matrix(1.0, 0.0, 0.0, 1.0, 0.0, 0.0)"><g /></g><g style="fill: #ffa500;stroke: black;stroke-width: 1.2000000000000002;" transform="matrix(1.0, 0.0, 0.0, 1.0, 1.875, 0.0)"><text style="text-align:center; text-anchor:middle; dominant-baseline:middle;&#10;                      font-family:sans-serif; font-weight: bold;&#10;                      font-size:3px;&#10;                      vector-effect: non-scaling-stroke;" transform="translate(-5e-05, 0)">x</text></g></g></g></g></g></g><g><g><g><g><g><g><g><g><g style="stroke: black;stroke-width: 1.2000000000000002;" transform="matrix(1.0, 0.0, 0.0, 1.0, 0.0, 0.0)"><path d="M 0.0 -2.0 L 0.0 2.0" style="vector-effect: non-scaling-stroke;fill:none;" /></g><g style="stroke: #808080;stroke-width: 0.6000000000000001;" transform="matrix(1.0, 0.0, 0.0, 1.0, 0.0, 0.0)"><path d="M 0.0 0.0 L 25.0 0.0" style="vector-effect: non-scaling-stroke;fill:none;" /></g></g><g style="stroke: black;stroke-width: 2.4000000000000004;" transform="matrix(1.0, 0.0, 0.0, 1.0, 0.0, 0.0)"><path d="M 0.0 0.005311056971549988 L 1.0 0.005311056971549988 L 1.0 0.6617961525917053 L 2.0 0.6617961525917053 L 2.0 -0.029221951961517334 L 3.0 -0.029221951961517334 L 3.0 -0.5955145359039307 L 4.0 -0.5955145359039307 L 4.0 -0.28756967186927795 L 5.0 -0.28756967186927795 L 5.0 -1.1414746046066284 L 6.0 -1.1414746046066284 L 6.0 0.029801758006215096 L 7.0 0.029801758006215096 L 7.0 -0.5384460091590881 L 8.0 -0.5384460091590881 L 8.0 -0.7264551520347595 L 9.0 -0.7264551520347595 L 9.0 -0.7654497623443604 L 10.0 -0.7654497623443604 L 10.0 0.06270832568407059 L 11.0 0.06270832568407059 L 11.0 -1.5212970972061157 L 12.0 -1.5212970972061157 L 12.0 -0.8081479072570801 L 13.0 -0.8081479072570801 L 13.0 -1.4235832691192627 L 14.0 -1.4235832691192627 L 14.0 -0.31076791882514954 L 15.0 -0.31076791882514954 L 15.0 -0.3787614107131958 L 16.0 -0.3787614107131958 L 16.0 -1.1808154582977295 L 17.0 -1.1808154582977295 L 17.0 -0.852485179901123 L 18.0 -0.852485179901123 L 18.0 -1.745559573173523 L 19.0 -1.745559573173523 L 19.0 -0.6974199414253235 L 20.0 -0.6974199414253235 L 20.0 -0.5488577485084534 L 21.0 -0.5488577485084534 L 21.0 -0.821071445941925 L 22.0 -0.821071445941925 L 22.0 -0.8402944207191467 L 23.0 -0.8402944207191467 L 23.0 -0.12001878023147583 L 24.0 -0.12001878023147583 L 24.0 -1.3758478164672852 L 25.0 -1.3758478164672852" style="vector-effect: non-scaling-stroke;fill:none;" /></g></g><g style="stroke: black;stroke-width: 1.2000000000000002;" transform="matrix(1.0, 0.0, 0.0, 1.0, 0.0, 0.0)"><path d="M 0.0 -2.0 L 0.0 2.0" style="vector-effect: non-scaling-stroke;fill:none;" /></g></g><g style="stroke: black;stroke-width: 1.2000000000000002;" transform="matrix(1.0, 0.0, 0.0, 1.0, 0.0, 0.0)"><path d="M 5.0 -2.0 L 5.0 2.0" style="vector-effect: non-scaling-stroke;fill:none;" /></g></g><g style="stroke: black;stroke-width: 1.2000000000000002;" transform="matrix(1.0, 0.0, 0.0, 1.0, 0.0, 0.0)"><path d="M 10.0 -2.0 L 10.0 2.0" style="vector-effect: non-scaling-stroke;fill:none;" /></g></g><g style="stroke: black;stroke-width: 1.2000000000000002;" transform="matrix(1.0, 0.0, 0.0, 1.0, 0.0, 0.0)"><path d="M 15.0 -2.0 L 15.0 2.0" style="vector-effect: non-scaling-stroke;fill:none;" /></g></g><g style="stroke: black;stroke-width: 1.2000000000000002;" transform="matrix(1.0, 0.0, 0.0, 1.0, 0.0, 0.0)"><path d="M 20.0 -2.0 L 20.0 2.0" style="vector-effect: non-scaling-stroke;fill:none;" /></g></g></g></g><g><g><g><g><g><g><g><g><g style="stroke: black;stroke-width: 1.2000000000000002;" transform="matrix(1.0, 0.0, 0.0, 1.0, 0.0, 0.0)"><path d="M 0.0 -2.0 L 0.0 2.0" style="vector-effect: non-scaling-stroke;fill:none;" /></g><g style="stroke: #808080;stroke-width: 0.6000000000000001;" transform="matrix(1.0, 0.0, 0.0, 1.0, 0.0, 0.0)"><path d="M 0.0 0.0 L 25.0 0.0" style="vector-effect: non-scaling-stroke;fill:none;" /></g></g><g style="stroke: black;stroke-width: 2.4000000000000004;" transform="matrix(1.0, 0.0, 0.0, 1.0, 0.0, 0.0)"><path d="M 0.0 0.005311056971549988 L 1.0 0.005311056971549988 L 1.0 0.6617961525917053 L 2.0 0.6617961525917053 L 2.0 -0.029221951961517334 L 3.0 -0.029221951961517334 L 3.0 -0.5955145359039307 L 4.0 -0.5955145359039307 L 4.0 -0.28756967186927795 L 5.0 -0.28756967186927795 L 5.0 -1.1414746046066284 L 6.0 -1.1414746046066284 L 6.0 0.029801758006215096 L 7.0 0.029801758006215096 L 7.0 -0.5384460091590881 L 8.0 -0.5384460091590881 L 8.0 -0.7264551520347595 L 9.0 -0.7264551520347595 L 9.0 -0.7654497623443604 L 10.0 -0.7654497623443604 L 10.0 0.06270832568407059 L 11.0 0.06270832568407059 L 11.0 -1.5212970972061157 L 12.0 -1.5212970972061157 L 12.0 -0.8081479072570801 L 13.0 -0.8081479072570801 L 13.0 -1.4235832691192627 L 14.0 -1.4235832691192627 L 14.0 -0.31076791882514954 L 15.0 -0.31076791882514954 L 15.0 -0.3787614107131958 L 16.0 -0.3787614107131958 L 16.0 -1.1808154582977295 L 17.0 -1.1808154582977295 L 17.0 -0.852485179901123 L 18.0 -0.852485179901123 L 18.0 -1.745559573173523 L 19.0 -1.745559573173523 L 19.0 -0.6974199414253235 L 20.0 -0.6974199414253235 L 20.0 -0.5488577485084534 L 21.0 -0.5488577485084534 L 21.0 -0.821071445941925 L 22.0 -0.821071445941925 L 22.0 -0.8402944207191467 L 23.0 -0.8402944207191467 L 23.0 -0.12001878023147583 L 24.0 -0.12001878023147583 L 24.0 -1.3758478164672852 L 25.0 -1.3758478164672852" style="vector-effect: non-scaling-stroke;fill:none;" /></g></g><g style="stroke: black;stroke-width: 1.2000000000000002;" transform="matrix(1.0, 0.0, 0.0, 1.0, 0.0, 0.0)"><path d="M 0.0 -2.0 L 0.0 2.0" style="vector-effect: non-scaling-stroke;fill:none;" /></g></g><g style="stroke: black;stroke-width: 1.2000000000000002;" transform="matrix(1.0, 0.0, 0.0, 1.0, 0.0, 0.0)"><path d="M 5.0 -2.0 L 5.0 2.0" style="vector-effect: non-scaling-stroke;fill:none;" /></g></g><g style="stroke: black;stroke-width: 1.2000000000000002;" transform="matrix(1.0, 0.0, 0.0, 1.0, 0.0, 0.0)"><path d="M 10.0 -2.0 L 10.0 2.0" style="vector-effect: non-scaling-stroke;fill:none;" /></g></g><g style="stroke: black;stroke-width: 1.2000000000000002;" transform="matrix(1.0, 0.0, 0.0, 1.0, 0.0, 0.0)"><path d="M 15.0 -2.0 L 15.0 2.0" style="vector-effect: non-scaling-stroke;fill:none;" /></g></g><g style="stroke: black;stroke-width: 1.2000000000000002;" transform="matrix(1.0, 0.0, 0.0, 1.0, 0.0, 0.0)"><path d="M 20.0 -2.0 L 20.0 2.0" style="vector-effect: non-scaling-stroke;fill:none;" /></g></g></g></g></g></g></g><g style="stroke: black;stroke-width: 1.2000000000000002;" transform="matrix(1.0, 0.0, 0.0, 1.0, 0.41500000000000004, 0.0)"><g /></g></g><g transform="matrix(1.0, 0.0, 0.0, 1.0, 0.43000000000000005, 0.0)"><g transform="matrix(1.0, 0.0, 0.0, 1.0, 0.075, 0.0)"><g transform="matrix(1.0, 0.0, 0.0, 1.0, 0.0, 0.03)"><g transform="matrix(0.01, 0.0, 0.0, 0.01, 0.0, 0.0)"><g><g><g transform="matrix(1.0, 0.0, 0.0, 1.0, 12.5, 0.0)"><g transform="matrix(1.0, 0.0, 0.0, 1.0, -20.0, -0.0)"><g><g style="fill: #d3d3d3;stroke: black;stroke-width: 1.2000000000000002;" transform="matrix(1.0, 0.0, 0.0, 1.0, 0.0, -3.0)"><path d="M 0.0 0.0 L 40.0 0.0 L 40.0 6.0 L 0.0 6.0 L 0.0 0.0 Z" style="vector-effect: non-scaling-stroke;" /></g><g transform="matrix(1.0, 0.0, 0.0, 1.0, 1.875, 0.0)"><g><g style="stroke: black;stroke-width: 1.2000000000000002;" transform="matrix(1.0, 0.0, 0.0, 1.0, 0.0, 0.0)"><g /></g><g style="fill: #ffa500;stroke: black;stroke-width: 1.2000000000000002;" transform="matrix(1.0, 0.0, 0.0, 1.0, 1.875, 0.0)"><text style="text-align:center; text-anchor:middle; dominant-baseline:middle;&#10;                      font-family:sans-serif; font-weight: bold;&#10;                      font-size:3px;&#10;                      vector-effect: non-scaling-stroke;" transform="translate(-5e-05, 0)">y</text></g></g></g></g></g></g><g><g><g><g style="stroke: black;stroke-width: 1.2000000000000002;" transform="matrix(1.0, 0.0, 0.0, 1.0, 0.0, 0.0)"><path d="M 0.0 -2.0 L 0.0 2.0" style="vector-effect: non-scaling-stroke;fill:none;" /></g><g style="stroke: #808080;stroke-width: 0.6000000000000001;" transform="matrix(1.0, 0.0, 0.0, 1.0, 0.0, 0.0)"><path d="M 0.0 0.0 L 25.0 0.0" style="vector-effect: non-scaling-stroke;fill:none;" /></g></g><g style="stroke: black;stroke-width: 2.4000000000000004;" transform="matrix(1.0, 0.0, 0.0, 1.0, 0.0, 0.0)"><path d="M 0.0 -0.7104760408401489 L 1.0 -0.7104760408401489 L 1.0 -0.8866549730300903 L 2.0 -0.8866549730300903 L 2.0 -0.5337659120559692 L 3.0 -0.5337659120559692 L 3.0 -1.97091805934906 L 4.0 -1.97091805934906 L 4.0 -1.27131187915802 L 5.0 -1.27131187915802 L 5.0 -1.3876806497573853 L 6.0 -1.3876806497573853 L 6.0 -1.7807198762893677 L 7.0 -1.7807198762893677 L 7.0 -0.7823610305786133 L 8.0 -0.7823610305786133 L 8.0 -1.4078423976898193 L 9.0 -1.4078423976898193 L 9.0 -1.8414782285690308 L 10.0 -1.8414782285690308 L 10.0 -0.1485409289598465 L 11.0 -0.1485409289598465 L 11.0 -1.0431902408599854 L 12.0 -1.0431902408599854 L 12.0 -0.09622325748205185 L 13.0 -0.09622325748205185 L 13.0 -0.26951152086257935 L 14.0 -0.26951152086257935 L 14.0 -1.3328336477279663 L 15.0 -1.3328336477279663 L 15.0 -0.8747767806053162 L 16.0 -0.8747767806053162 L 16.0 -1.4892016649246216 L 17.0 -1.4892016649246216 L 17.0 0.11869626492261887 L 18.0 0.11869626492261887 L 18.0 -1.2941701412200928 L 19.0 -1.2941701412200928 L 19.0 -0.487885057926178 L 20.0 -0.487885057926178 L 20.0 -1.3998547792434692 L 21.0 -1.3998547792434692 L 21.0 -0.6406936049461365 L 22.0 -0.6406936049461365 L 22.0 -1.6183596849441528 L 23.0 -1.6183596849441528 L 23.0 -1.5249296426773071 L 24.0 -1.5249296426773071 L 24.0 -0.435707688331604 L 25.0 -0.435707688331604" style="vector-effect: non-scaling-stroke;fill:none;" /></g></g></g></g><g><g><g><g style="stroke: black;stroke-width: 1.2000000000000002;" transform="matrix(1.0, 0.0, 0.0, 1.0, 0.0, 0.0)"><path d="M 0.0 -2.0 L 0.0 2.0" style="vector-effect: non-scaling-stroke;fill:none;" /></g><g style="stroke: #808080;stroke-width: 0.6000000000000001;" transform="matrix(1.0, 0.0, 0.0, 1.0, 0.0, 0.0)"><path d="M 0.0 0.0 L 25.0 0.0" style="vector-effect: non-scaling-stroke;fill:none;" /></g></g><g style="stroke: black;stroke-width: 2.4000000000000004;" transform="matrix(1.0, 0.0, 0.0, 1.0, 0.0, 0.0)"><path d="M 0.0 -0.7104760408401489 L 1.0 -0.7104760408401489 L 1.0 -0.8866549730300903 L 2.0 -0.8866549730300903 L 2.0 -0.5337659120559692 L 3.0 -0.5337659120559692 L 3.0 -1.97091805934906 L 4.0 -1.97091805934906 L 4.0 -1.27131187915802 L 5.0 -1.27131187915802 L 5.0 -1.3876806497573853 L 6.0 -1.3876806497573853 L 6.0 -1.7807198762893677 L 7.0 -1.7807198762893677 L 7.0 -0.7823610305786133 L 8.0 -0.7823610305786133 L 8.0 -1.4078423976898193 L 9.0 -1.4078423976898193 L 9.0 -1.8414782285690308 L 10.0 -1.8414782285690308 L 10.0 -0.1485409289598465 L 11.0 -0.1485409289598465 L 11.0 -1.0431902408599854 L 12.0 -1.0431902408599854 L 12.0 -0.09622325748205185 L 13.0 -0.09622325748205185 L 13.0 -0.26951152086257935 L 14.0 -0.26951152086257935 L 14.0 -1.3328336477279663 L 15.0 -1.3328336477279663 L 15.0 -0.8747767806053162 L 16.0 -0.8747767806053162 L 16.0 -1.4892016649246216 L 17.0 -1.4892016649246216 L 17.0 0.11869626492261887 L 18.0 0.11869626492261887 L 18.0 -1.2941701412200928 L 19.0 -1.2941701412200928 L 19.0 -0.487885057926178 L 20.0 -0.487885057926178 L 20.0 -1.3998547792434692 L 21.0 -1.3998547792434692 L 21.0 -0.6406936049461365 L 22.0 -0.6406936049461365 L 22.0 -1.6183596849441528 L 23.0 -1.6183596849441528 L 23.0 -1.5249296426773071 L 24.0 -1.5249296426773071 L 24.0 -0.435707688331604 L 25.0 -0.435707688331604" style="vector-effect: non-scaling-stroke;fill:none;" /></g></g></g></g></g></g></g></g></g></g><g style="stroke: black;stroke-width: 1.2000000000000002;" transform="matrix(0.0, -1.0, 1.0, 0.0, 0.0, 0.08)"><g /></g></g><g transform="matrix(1.0, 0.0, 0.0, 1.0, 0.0, 0.16)"><g transform="matrix(1.0, 0.0, 0.0, 1.0, -0.2, -0.03)"><g transform="matrix(1.0, 0.0, 0.0, 1.0, 0.075, 0.0)"><g transform="matrix(1.0, 0.0, 0.0, 1.0, 0.0, 0.03)"><g transform="matrix(0.01, 0.0, 0.0, 0.01, 0.0, 0.0)"><g><g><g transform="matrix(1.0, 0.0, 0.0, 1.0, 12.5, 0.0)"><g transform="matrix(1.0, 0.0, 0.0, 1.0, -20.0, -0.0)"><g><g style="fill: #d3d3d3;stroke: black;stroke-width: 1.2000000000000002;" transform="matrix(1.0, 0.0, 0.0, 1.0, 0.0, -3.0)"><path d="M 0.0 0.0 L 40.0 0.0 L 40.0 6.0 L 0.0 6.0 L 0.0 0.0 Z" style="vector-effect: non-scaling-stroke;" /></g><g transform="matrix(1.0, 0.0, 0.0, 1.0, 1.875, 0.0)"><g><g style="stroke: black;stroke-width: 1.2000000000000002;" transform="matrix(1.0, 0.0, 0.0, 1.0, 0.0, 0.0)"><g /></g><g style="fill: #ffa500;stroke: black;stroke-width: 1.2000000000000002;" transform="matrix(1.0, 0.0, 0.0, 1.0, 1.875, 0.0)"><text style="text-align:center; text-anchor:middle; dominant-baseline:middle;&#10;                      font-family:sans-serif; font-weight: bold;&#10;                      font-size:3px;&#10;                      vector-effect: non-scaling-stroke;" transform="translate(-5e-05, 0)">f(x)</text></g></g></g></g></g></g><g><g><g><g style="stroke: black;stroke-width: 1.2000000000000002;" transform="matrix(1.0, 0.0, 0.0, 1.0, 0.0, 0.0)"><path d="M 0.0 -2.0 L 0.0 2.0" style="vector-effect: non-scaling-stroke;fill:none;" /></g><g style="stroke: #808080;stroke-width: 0.6000000000000001;" transform="matrix(1.0, 0.0, 0.0, 1.0, 0.0, 0.0)"><path d="M 0.0 0.0 L 25.0 0.0" style="vector-effect: non-scaling-stroke;fill:none;" /></g></g><g style="stroke: black;stroke-width: 2.4000000000000004;" transform="matrix(1.0, 0.0, 0.0, 1.0, 0.0, 0.0)"><path d="M 0.0 -0.0005703598144464195 L 1.0 -0.0005703598144464195 L 1.0 0.008161334320902824 L 2.0 0.008161334320902824 L 2.0 0.012308066710829735 L 3.0 0.012308066710829735 L 3.0 -0.027492398396134377 L 4.0 -0.027492398396134377 L 4.0 0.07706482708454132 L 5.0 0.07706482708454132 L 5.0 -0.25566211342811584 L 6.0 -0.25566211342811584 L 6.0 -0.30929839611053467 L 7.0 -0.30929839611053467 L 7.0 -0.179032102227211 L 8.0 -0.179032102227211 L 8.0 -0.4460328221321106 L 9.0 -0.4460328221321106 L 9.0 -0.2801888585090637 L 10.0 -0.2801888585090637 L 10.0 -0.38669124245643616 L 11.0 -0.38669124245643616 L 11.0 -0.581556499004364 L 12.0 -0.581556499004364 L 12.0 -0.15684548020362854 L 13.0 -0.15684548020362854 L 13.0 -0.4552217125892639 L 14.0 -0.4552217125892639 L 14.0 -0.462878942489624 L 15.0 -0.462878942489624 L 15.0 -0.4537586271762848 L 16.0 -0.4537586271762848 L 16.0 -0.6374159455299377 L 17.0 -0.6374159455299377 L 17.0 -0.21295075118541718 L 18.0 -0.21295075118541718 L 18.0 -0.596123218536377 L 19.0 -0.596123218536377 L 19.0 -0.494769424200058 L 20.0 -0.494769424200058 L 20.0 -0.3685130178928375 L 21.0 -0.3685130178928375 L 21.0 -0.38855618238449097 L 22.0 -0.38855618238449097 L 22.0 -0.32285624742507935 L 23.0 -0.32285624742507935 L 23.0 -0.4717558026313782 L 24.0 -0.4717558026313782 L 24.0 -0.39877501130104065 L 25.0 -0.39877501130104065" style="vector-effect: non-scaling-stroke;fill:none;" /></g></g></g></g><g><g><g><g style="stroke: black;stroke-width: 1.2000000000000002;" transform="matrix(1.0, 0.0, 0.0, 1.0, 0.0, 0.0)"><path d="M 0.0 -2.0 L 0.0 2.0" style="vector-effect: non-scaling-stroke;fill:none;" /></g><g style="stroke: #808080;stroke-width: 0.6000000000000001;" transform="matrix(1.0, 0.0, 0.0, 1.0, 0.0, 0.0)"><path d="M 0.0 0.0 L 25.0 0.0" style="vector-effect: non-scaling-stroke;fill:none;" /></g></g><g style="stroke: black;stroke-width: 2.4000000000000004;" transform="matrix(1.0, 0.0, 0.0, 1.0, 0.0, 0.0)"><path d="M 0.0 -0.0005703598144464195 L 1.0 -0.0005703598144464195 L 1.0 0.008161334320902824 L 2.0 0.008161334320902824 L 2.0 0.012308066710829735 L 3.0 0.012308066710829735 L 3.0 -0.027492398396134377 L 4.0 -0.027492398396134377 L 4.0 0.07706482708454132 L 5.0 0.07706482708454132 L 5.0 -0.25566211342811584 L 6.0 -0.25566211342811584 L 6.0 -0.30929839611053467 L 7.0 -0.30929839611053467 L 7.0 -0.179032102227211 L 8.0 -0.179032102227211 L 8.0 -0.4460328221321106 L 9.0 -0.4460328221321106 L 9.0 -0.2801888585090637 L 10.0 -0.2801888585090637 L 10.0 -0.38669124245643616 L 11.0 -0.38669124245643616 L 11.0 -0.581556499004364 L 12.0 -0.581556499004364 L 12.0 -0.15684548020362854 L 13.0 -0.15684548020362854 L 13.0 -0.4552217125892639 L 14.0 -0.4552217125892639 L 14.0 -0.462878942489624 L 15.0 -0.462878942489624 L 15.0 -0.4537586271762848 L 16.0 -0.4537586271762848 L 16.0 -0.6374159455299377 L 17.0 -0.6374159455299377 L 17.0 -0.21295075118541718 L 18.0 -0.21295075118541718 L 18.0 -0.596123218536377 L 19.0 -0.596123218536377 L 19.0 -0.494769424200058 L 20.0 -0.494769424200058 L 20.0 -0.3685130178928375 L 21.0 -0.3685130178928375 L 21.0 -0.38855618238449097 L 22.0 -0.38855618238449097 L 22.0 -0.32285624742507935 L 23.0 -0.32285624742507935 L 23.0 -0.4717558026313782 L 24.0 -0.4717558026313782 L 24.0 -0.39877501130104065 L 25.0 -0.39877501130104065" style="vector-effect: non-scaling-stroke;fill:none;" /></g></g></g></g></g></g></g></g></g></g><g transform="matrix(1.0, 0.0, 0.0, 1.0, -0.125, 0.16)"><g transform="matrix(1.0, 0.0, 0.0, 0.009999999999999995, 0.0, 0.0)"><g transform="matrix(0.01, 0.0, 0.0, 1.0, 0.0, 0.0)"><g><g><g style="fill: #ffffe0;stroke: #ffffe0;stroke-width: 1.2000000000000002;fill-opacity: 0.5;" transform="matrix(1.0, 0.0, 0.0, 1.0, 0.0, 0.0)"><path d="M 0.0 -2.0 L 0.0 2.0" style="vector-effect: non-scaling-stroke;fill:none;" /></g><g style="fill: #ffffe0;stroke: #ffffe0;stroke-width: 1.2000000000000002;fill-opacity: 0.5;" transform="matrix(1.0, 0.0, 0.0, 1.0, 0.0, 0.0)"><path d="M 0.0 -0.9056761860847473 L 1.0 -0.9056761860847473 L 1.0 -1.1606485843658447 L 2.0 -1.1606485843658447 L 2.0 -0.5692097544670105 L 3.0 -0.5692097544670105 L 3.0 -1.3210994005203247 L 4.0 -1.3210994005203247 L 4.0 -0.9950737357139587 L 5.0 -0.9950737357139587 L 5.0 -1.1497317552566528 L 6.0 -1.1497317552566528 L 6.0 -1.48350989818573 L 7.0 -1.48350989818573 L 7.0 -0.7601773738861084 L 8.0 -0.7601773738861084 L 8.0 -1.7185919284820557 L 9.0 -1.7185919284820557 L 9.0 -1.3620131015777588 L 10.0 -1.3620131015777588 L 10.0 -1.2837411165237427 L 11.0 -1.2837411165237427 L 11.0 -1.743847131729126 L 12.0 -1.743847131729126 L 12.0 -0.7379907369613647 L 13.0 -0.7379907369613647 L 13.0 -1.7516226768493652 L 14.0 -1.7516226768493652 L 14.0 -1.5417230129241943 L 15.0 -1.5417230129241943 L 15.0 -1.3567689657211304 L 16.0 -1.3567689657211304 L 16.0 -1.7997064590454102 L 17.0 -1.7997064590454102 L 17.0 -0.8045268654823303 L 18.0 -0.8045268654823303 L 18.0 -1.8716626167297363 L 19.0 -1.8716626167297363 L 19.0 -1.5706332921981812 L 20.0 -1.5706332921981812 L 20.0 -1.271523356437683 L 21.0 -1.271523356437683 L 21.0 -1.556807279586792 L 22.0 -1.556807279586792 L 22.0 -0.9069817662239075 L 23.0 -0.9069817662239075 L 23.0 -1.7472951412200928 L 24.0 -1.7472951412200928 L 24.0 -1.4716585874557495 L 25.0 -1.4716585874557495 L 25.0 -0.39877501130104065 L 24.0 -0.39877501130104065 L 24.0 -0.4717558026313782 L 23.0 -0.4717558026313782 L 23.0 -0.32285624742507935 L 22.0 -0.32285624742507935 L 22.0 -0.38855618238449097 L 21.0 -0.38855618238449097 L 21.0 -0.3685130178928375 L 20.0 -0.3685130178928375 L 20.0 -0.494769424200058 L 19.0 -0.494769424200058 L 19.0 -0.596123218536377 L 18.0 -0.596123218536377 L 18.0 -0.21295075118541718 L 17.0 -0.21295075118541718 L 17.0 -0.6374159455299377 L 16.0 -0.6374159455299377 L 16.0 -0.4537586271762848 L 15.0 -0.4537586271762848 L 15.0 -0.462878942489624 L 14.0 -0.462878942489624 L 14.0 -0.4552217125892639 L 13.0 -0.4552217125892639 L 13.0 -0.15684548020362854 L 12.0 -0.15684548020362854 L 12.0 -0.581556499004364 L 11.0 -0.581556499004364 L 11.0 -0.38669124245643616 L 10.0 -0.38669124245643616 L 10.0 -0.2801888585090637 L 9.0 -0.2801888585090637 L 9.0 -0.4460328221321106 L 8.0 -0.4460328221321106 L 8.0 -0.179032102227211 L 7.0 -0.179032102227211 L 7.0 -0.30929839611053467 L 6.0 -0.30929839611053467 L 6.0 -0.25566211342811584 L 5.0 -0.25566211342811584 L 5.0 0.07706482708454132 L 4.0 0.07706482708454132 L 4.0 -0.027492398396134377 L 3.0 -0.027492398396134377 L 3.0 0.012308066710829735 L 2.0 0.012308066710829735 L 2.0 0.008161334320902824 L 1.0 0.008161334320902824 L 1.0 -0.0005703598144464195 L 0.0 -0.0005703598144464195 Z" style="vector-effect: non-scaling-stroke;" /></g></g><g style="stroke: black;stroke-width: 1.2000000000000002;" transform="matrix(1.0, 0.0, 0.0, 1.0, 0.0, 0.0)"><path d="M 0.0 -0.0005703598144464195 L 1.0 -0.0005703598144464195 L 1.0 0.008161334320902824 L 2.0 0.008161334320902824 L 2.0 0.012308066710829735 L 3.0 0.012308066710829735 L 3.0 -0.027492398396134377 L 4.0 -0.027492398396134377 L 4.0 0.07706482708454132 L 5.0 0.07706482708454132 L 5.0 -0.25566211342811584 L 6.0 -0.25566211342811584 L 6.0 -0.30929839611053467 L 7.0 -0.30929839611053467 L 7.0 -0.179032102227211 L 8.0 -0.179032102227211 L 8.0 -0.4460328221321106 L 9.0 -0.4460328221321106 L 9.0 -0.2801888585090637 L 10.0 -0.2801888585090637 L 10.0 -0.38669124245643616 L 11.0 -0.38669124245643616 L 11.0 -0.581556499004364 L 12.0 -0.581556499004364 L 12.0 -0.15684548020362854 L 13.0 -0.15684548020362854 L 13.0 -0.4552217125892639 L 14.0 -0.4552217125892639 L 14.0 -0.462878942489624 L 15.0 -0.462878942489624 L 15.0 -0.4537586271762848 L 16.0 -0.4537586271762848 L 16.0 -0.6374159455299377 L 17.0 -0.6374159455299377 L 17.0 -0.21295075118541718 L 18.0 -0.21295075118541718 L 18.0 -0.596123218536377 L 19.0 -0.596123218536377 L 19.0 -0.494769424200058 L 20.0 -0.494769424200058 L 20.0 -0.3685130178928375 L 21.0 -0.3685130178928375 L 21.0 -0.38855618238449097 L 22.0 -0.38855618238449097 L 22.0 -0.32285624742507935 L 23.0 -0.32285624742507935 L 23.0 -0.4717558026313782 L 24.0 -0.4717558026313782 L 24.0 -0.39877501130104065 L 25.0 -0.39877501130104065" style="vector-effect: non-scaling-stroke;fill:none;" /></g></g></g></g></g></g><g transform="matrix(1.0, 0.0, 0.0, 1.0, -0.125, 0.16)"><g transform="matrix(1.0, 0.0, 0.0, 0.009999999999999995, 0.0, 0.0)"><g transform="matrix(0.01, 0.0, 0.0, 1.0, 0.0, 0.0)"><g><g><g style="fill: #add8e6;stroke: #add8e6;stroke-width: 1.2000000000000002;fill-opacity: 0.5;" transform="matrix(1.0, 0.0, 0.0, 1.0, 0.0, 0.0)"><path d="M 0.0 -2.0 L 0.0 2.0" style="vector-effect: non-scaling-stroke;fill:none;" /></g><g style="fill: #add8e6;stroke: #add8e6;stroke-width: 1.2000000000000002;fill-opacity: 0.5;" transform="matrix(1.0, 0.0, 0.0, 1.0, 0.0, 0.0)"><path d="M 0.0 -0.04974419251084328 L 1.0 -0.04974419251084328 L 1.0 -0.042130082845687866 L 2.0 -0.042130082845687866 L 2.0 -0.035468779504299164 L 3.0 -0.035468779504299164 L 3.0 -0.07592117041349411 L 4.0 -0.07592117041349411 L 4.0 0.033106401562690735 L 5.0 0.033106401562690735 L 5.0 -0.875550389289856 L 6.0 -0.875550389289856 L 6.0 -0.9470680952072144 L 7.0 -0.9470680952072144 L 7.0 -0.8063709735870361 L 8.0 -0.8063709735870361 L 8.0 -1.0599606037139893 L 9.0 -1.0599606037139893 L 9.0 -0.9179585576057434 L 10.0 -0.9179585576057434 L 10.0 -1.1824132204055786 L 11.0 -1.1824132204055786 L 11.0 -1.3921797275543213 L 12.0 -1.3921797275543213 L 12.0 -0.9570378065109253 L 13.0 -0.9570378065109253 L 13.0 -1.250943660736084 L 14.0 -1.250943660736084 L 14.0 -1.2675416469573975 L 15.0 -1.2675416469573975 L 15.0 -1.4312747716903687 L 16.0 -1.4312747716903687 L 16.0 -1.603011131286621 L 17.0 -1.603011131286621 L 17.0 -1.1904668807983398 L 18.0 -1.1904668807983398 L 18.0 -1.5736393928527832 L 19.0 -1.5736393928527832 L 19.0 -1.4722856283187866 L 20.0 -1.4722856283187866 L 20.0 -1.1105908155441284 L 21.0 -1.1105908155441284 L 21.0 -1.12467360496521 L 22.0 -1.12467360496521 L 22.0 -1.070894479751587 L 23.0 -1.070894479751587 L 23.0 -1.1899917125701904 L 24.0 -1.1899917125701904 L 24.0 -1.1408528089523315 L 25.0 -1.1408528089523315 L 25.0 -0.39877501130104065 L 24.0 -0.39877501130104065 L 24.0 -0.4717558026313782 L 23.0 -0.4717558026313782 L 23.0 -0.32285624742507935 L 22.0 -0.32285624742507935 L 22.0 -0.38855618238449097 L 21.0 -0.38855618238449097 L 21.0 -0.3685130178928375 L 20.0 -0.3685130178928375 L 20.0 -0.494769424200058 L 19.0 -0.494769424200058 L 19.0 -0.596123218536377 L 18.0 -0.596123218536377 L 18.0 -0.21295075118541718 L 17.0 -0.21295075118541718 L 17.0 -0.6374159455299377 L 16.0 -0.6374159455299377 L 16.0 -0.4537586271762848 L 15.0 -0.4537586271762848 L 15.0 -0.462878942489624 L 14.0 -0.462878942489624 L 14.0 -0.4552217125892639 L 13.0 -0.4552217125892639 L 13.0 -0.15684548020362854 L 12.0 -0.15684548020362854 L 12.0 -0.581556499004364 L 11.0 -0.581556499004364 L 11.0 -0.38669124245643616 L 10.0 -0.38669124245643616 L 10.0 -0.2801888585090637 L 9.0 -0.2801888585090637 L 9.0 -0.4460328221321106 L 8.0 -0.4460328221321106 L 8.0 -0.179032102227211 L 7.0 -0.179032102227211 L 7.0 -0.30929839611053467 L 6.0 -0.30929839611053467 L 6.0 -0.25566211342811584 L 5.0 -0.25566211342811584 L 5.0 0.07706482708454132 L 4.0 0.07706482708454132 L 4.0 -0.027492398396134377 L 3.0 -0.027492398396134377 L 3.0 0.012308066710829735 L 2.0 0.012308066710829735 L 2.0 0.008161334320902824 L 1.0 0.008161334320902824 L 1.0 -0.0005703598144464195 L 0.0 -0.0005703598144464195 Z" style="vector-effect: non-scaling-stroke;" /></g></g><g style="stroke: black;stroke-width: 1.2000000000000002;" transform="matrix(1.0, 0.0, 0.0, 1.0, 0.0, 0.0)"><path d="M 0.0 -0.0005703598144464195 L 1.0 -0.0005703598144464195 L 1.0 0.008161334320902824 L 2.0 0.008161334320902824 L 2.0 0.012308066710829735 L 3.0 0.012308066710829735 L 3.0 -0.027492398396134377 L 4.0 -0.027492398396134377 L 4.0 0.07706482708454132 L 5.0 0.07706482708454132 L 5.0 -0.25566211342811584 L 6.0 -0.25566211342811584 L 6.0 -0.30929839611053467 L 7.0 -0.30929839611053467 L 7.0 -0.179032102227211 L 8.0 -0.179032102227211 L 8.0 -0.4460328221321106 L 9.0 -0.4460328221321106 L 9.0 -0.2801888585090637 L 10.0 -0.2801888585090637 L 10.0 -0.38669124245643616 L 11.0 -0.38669124245643616 L 11.0 -0.581556499004364 L 12.0 -0.581556499004364 L 12.0 -0.15684548020362854 L 13.0 -0.15684548020362854 L 13.0 -0.4552217125892639 L 14.0 -0.4552217125892639 L 14.0 -0.462878942489624 L 15.0 -0.462878942489624 L 15.0 -0.4537586271762848 L 16.0 -0.4537586271762848 L 16.0 -0.6374159455299377 L 17.0 -0.6374159455299377 L 17.0 -0.21295075118541718 L 18.0 -0.21295075118541718 L 18.0 -0.596123218536377 L 19.0 -0.596123218536377 L 19.0 -0.494769424200058 L 20.0 -0.494769424200058 L 20.0 -0.3685130178928375 L 21.0 -0.3685130178928375 L 21.0 -0.38855618238449097 L 22.0 -0.38855618238449097 L 22.0 -0.32285624742507935 L 23.0 -0.32285624742507935 L 23.0 -0.4717558026313782 L 24.0 -0.4717558026313782 L 24.0 -0.39877501130104065 L 25.0 -0.39877501130104065" style="vector-effect: non-scaling-stroke;fill:none;" /></g></g></g></g></g></g><g transform="matrix(1.0, 0.0, 0.0, 1.0, -0.125, 0.16)"><g transform="matrix(1.0, 0.0, 0.0, 0.009999999999999995, 0.0, 0.0)"><g transform="matrix(0.01, 0.0, 0.0, 1.0, 0.0, 0.0)"><g><g><g style="fill: #ff8c00;stroke: #ff8c00;stroke-width: 1.2000000000000002;fill-opacity: 0.5;" transform="matrix(1.0, 0.0, 0.0, 1.0, 0.0, 0.0)"><path d="M 0.0 -2.0 L 0.0 2.0" style="vector-effect: non-scaling-stroke;fill:none;" /></g><g style="fill: #ff8c00;stroke: #ff8c00;stroke-width: 1.2000000000000002;fill-opacity: 0.5;" transform="matrix(1.0, 0.0, 0.0, 1.0, 0.0, 0.0)"><path d="M 0.0 -0.0005703598144464195 L 1.0 -0.0005703598144464195 L 1.0 0.008161334320902824 L 2.0 0.008161334320902824 L 2.0 0.012308066710829735 L 3.0 0.012308066710829735 L 3.0 -0.027492398396134377 L 4.0 -0.027492398396134377 L 4.0 0.07706482708454132 L 5.0 0.07706482708454132 L 5.0 -0.25566211342811584 L 6.0 -0.25566211342811584 L 6.0 -0.30929839611053467 L 7.0 -0.30929839611053467 L 7.0 -0.179032102227211 L 8.0 -0.179032102227211 L 8.0 -0.4460328221321106 L 9.0 -0.4460328221321106 L 9.0 -0.2801888585090637 L 10.0 -0.2801888585090637 L 10.0 -0.38669124245643616 L 11.0 -0.38669124245643616 L 11.0 -0.581556499004364 L 12.0 -0.581556499004364 L 12.0 -0.15684548020362854 L 13.0 -0.15684548020362854 L 13.0 -0.4552217125892639 L 14.0 -0.4552217125892639 L 14.0 -0.462878942489624 L 15.0 -0.462878942489624 L 15.0 -0.4537586271762848 L 16.0 -0.4537586271762848 L 16.0 -0.6374159455299377 L 17.0 -0.6374159455299377 L 17.0 -0.21295075118541718 L 18.0 -0.21295075118541718 L 18.0 -0.596123218536377 L 19.0 -0.596123218536377 L 19.0 -0.494769424200058 L 20.0 -0.494769424200058 L 20.0 -0.3685130178928375 L 21.0 -0.3685130178928375 L 21.0 -0.38855618238449097 L 22.0 -0.38855618238449097 L 22.0 -0.32285624742507935 L 23.0 -0.32285624742507935 L 23.0 -0.4717558026313782 L 24.0 -0.4717558026313782 L 24.0 -0.39877501130104065 L 25.0 -0.39877501130104065 L 25.0 -0.39877501130104065 L 24.0 -0.39877501130104065 L 24.0 -0.4717558026313782 L 23.0 -0.4717558026313782 L 23.0 -0.32285624742507935 L 22.0 -0.32285624742507935 L 22.0 -0.38855618238449097 L 21.0 -0.38855618238449097 L 21.0 -0.3685130178928375 L 20.0 -0.3685130178928375 L 20.0 -0.494769424200058 L 19.0 -0.494769424200058 L 19.0 -0.596123218536377 L 18.0 -0.596123218536377 L 18.0 -0.21295075118541718 L 17.0 -0.21295075118541718 L 17.0 -0.6374159455299377 L 16.0 -0.6374159455299377 L 16.0 -0.4537586271762848 L 15.0 -0.4537586271762848 L 15.0 -0.462878942489624 L 14.0 -0.462878942489624 L 14.0 -0.4552217125892639 L 13.0 -0.4552217125892639 L 13.0 -0.15684548020362854 L 12.0 -0.15684548020362854 L 12.0 -0.581556499004364 L 11.0 -0.581556499004364 L 11.0 -0.38669124245643616 L 10.0 -0.38669124245643616 L 10.0 -0.2801888585090637 L 9.0 -0.2801888585090637 L 9.0 -0.4460328221321106 L 8.0 -0.4460328221321106 L 8.0 -0.179032102227211 L 7.0 -0.179032102227211 L 7.0 -0.30929839611053467 L 6.0 -0.30929839611053467 L 6.0 -0.25566211342811584 L 5.0 -0.25566211342811584 L 5.0 0.07706482708454132 L 4.0 0.07706482708454132 L 4.0 -0.027492398396134377 L 3.0 -0.027492398396134377 L 3.0 0.012308066710829735 L 2.0 0.012308066710829735 L 2.0 0.008161334320902824 L 1.0 0.008161334320902824 L 1.0 -0.0005703598144464195 L 0.0 -0.0005703598144464195 Z" style="vector-effect: non-scaling-stroke;" /></g></g><g style="stroke: black;stroke-width: 1.2000000000000002;" transform="matrix(1.0, 0.0, 0.0, 1.0, 0.0, 0.0)"><path d="M 0.0 -0.0005703598144464195 L 1.0 -0.0005703598144464195 L 1.0 0.008161334320902824 L 2.0 0.008161334320902824 L 2.0 0.012308066710829735 L 3.0 0.012308066710829735 L 3.0 -0.027492398396134377 L 4.0 -0.027492398396134377 L 4.0 0.07706482708454132 L 5.0 0.07706482708454132 L 5.0 -0.25566211342811584 L 6.0 -0.25566211342811584 L 6.0 -0.30929839611053467 L 7.0 -0.30929839611053467 L 7.0 -0.179032102227211 L 8.0 -0.179032102227211 L 8.0 -0.4460328221321106 L 9.0 -0.4460328221321106 L 9.0 -0.2801888585090637 L 10.0 -0.2801888585090637 L 10.0 -0.38669124245643616 L 11.0 -0.38669124245643616 L 11.0 -0.581556499004364 L 12.0 -0.581556499004364 L 12.0 -0.15684548020362854 L 13.0 -0.15684548020362854 L 13.0 -0.4552217125892639 L 14.0 -0.4552217125892639 L 14.0 -0.462878942489624 L 15.0 -0.462878942489624 L 15.0 -0.4537586271762848 L 16.0 -0.4537586271762848 L 16.0 -0.6374159455299377 L 17.0 -0.6374159455299377 L 17.0 -0.21295075118541718 L 18.0 -0.21295075118541718 L 18.0 -0.596123218536377 L 19.0 -0.596123218536377 L 19.0 -0.494769424200058 L 20.0 -0.494769424200058 L 20.0 -0.3685130178928375 L 21.0 -0.3685130178928375 L 21.0 -0.38855618238449097 L 22.0 -0.38855618238449097 L 22.0 -0.32285624742507935 L 23.0 -0.32285624742507935 L 23.0 -0.4717558026313782 L 24.0 -0.4717558026313782 L 24.0 -0.39877501130104065 L 25.0 -0.39877501130104065" style="vector-effect: non-scaling-stroke;fill:none;" /></g></g></g></g></g></g><g transform="matrix(1.0, 0.0, 0.0, 1.0, -0.125, 0.16)"><g transform="matrix(1.0, 0.0, 0.0, 0.009999999999999995, 0.0, 0.0)"><g transform="matrix(0.01, 0.0, 0.0, 1.0, 0.0, 0.0)"><g><g><g style="fill: #0000ff;stroke: #0000ff;stroke-width: 1.2000000000000002;fill-opacity: 0.5;" transform="matrix(1.0, 0.0, 0.0, 1.0, 0.0, 0.0)"><path d="M 0.0 -2.0 L 0.0 2.0" style="vector-effect: non-scaling-stroke;fill:none;" /></g><g style="fill: #0000ff;stroke: #0000ff;stroke-width: 1.2000000000000002;fill-opacity: 0.5;" transform="matrix(1.0, 0.0, 0.0, 1.0, 0.0, 0.0)"><path d="M 0.0 -0.0005703598144464195 L 1.0 -0.0005703598144464195 L 1.0 0.008161334320902824 L 2.0 0.008161334320902824 L 2.0 0.012308066710829735 L 3.0 0.012308066710829735 L 3.0 -0.027492398396134377 L 4.0 -0.027492398396134377 L 4.0 0.07706482708454132 L 5.0 0.07706482708454132 L 5.0 -0.25566211342811584 L 6.0 -0.25566211342811584 L 6.0 -0.30929839611053467 L 7.0 -0.30929839611053467 L 7.0 -0.179032102227211 L 8.0 -0.179032102227211 L 8.0 -0.4460328221321106 L 9.0 -0.4460328221321106 L 9.0 -0.2801888585090637 L 10.0 -0.2801888585090637 L 10.0 -0.38669124245643616 L 11.0 -0.38669124245643616 L 11.0 -0.581556499004364 L 12.0 -0.581556499004364 L 12.0 -0.15684548020362854 L 13.0 -0.15684548020362854 L 13.0 -0.4552217125892639 L 14.0 -0.4552217125892639 L 14.0 -0.462878942489624 L 15.0 -0.462878942489624 L 15.0 -0.4537586271762848 L 16.0 -0.4537586271762848 L 16.0 -0.6374159455299377 L 17.0 -0.6374159455299377 L 17.0 -0.21295075118541718 L 18.0 -0.21295075118541718 L 18.0 -0.596123218536377 L 19.0 -0.596123218536377 L 19.0 -0.494769424200058 L 20.0 -0.494769424200058 L 20.0 -0.3685130178928375 L 21.0 -0.3685130178928375 L 21.0 -0.38855618238449097 L 22.0 -0.38855618238449097 L 22.0 -0.32285624742507935 L 23.0 -0.32285624742507935 L 23.0 -0.4717558026313782 L 24.0 -0.4717558026313782 L 24.0 -0.39877501130104065 L 25.0 -0.39877501130104065 L 25.0 -0.39877501130104065 L 24.0 -0.39877501130104065 L 24.0 -0.4717558026313782 L 23.0 -0.4717558026313782 L 23.0 -0.32285624742507935 L 22.0 -0.32285624742507935 L 22.0 -0.38855618238449097 L 21.0 -0.38855618238449097 L 21.0 -0.3685130178928375 L 20.0 -0.3685130178928375 L 20.0 -0.494769424200058 L 19.0 -0.494769424200058 L 19.0 -0.596123218536377 L 18.0 -0.596123218536377 L 18.0 -0.21295075118541718 L 17.0 -0.21295075118541718 L 17.0 -0.6374159455299377 L 16.0 -0.6374159455299377 L 16.0 -0.4537586271762848 L 15.0 -0.4537586271762848 L 15.0 -0.462878942489624 L 14.0 -0.462878942489624 L 14.0 -0.4552217125892639 L 13.0 -0.4552217125892639 L 13.0 -0.15684548020362854 L 12.0 -0.15684548020362854 L 12.0 -0.581556499004364 L 11.0 -0.581556499004364 L 11.0 -0.38669124245643616 L 10.0 -0.38669124245643616 L 10.0 -0.2801888585090637 L 9.0 -0.2801888585090637 L 9.0 -0.4460328221321106 L 8.0 -0.4460328221321106 L 8.0 -0.179032102227211 L 7.0 -0.179032102227211 L 7.0 -0.30929839611053467 L 6.0 -0.30929839611053467 L 6.0 -0.25566211342811584 L 5.0 -0.25566211342811584 L 5.0 0.07706482708454132 L 4.0 0.07706482708454132 L 4.0 -0.027492398396134377 L 3.0 -0.027492398396134377 L 3.0 0.012308066710829735 L 2.0 0.012308066710829735 L 2.0 0.008161334320902824 L 1.0 0.008161334320902824 L 1.0 -0.0005703598144464195 L 0.0 -0.0005703598144464195 Z" style="vector-effect: non-scaling-stroke;" /></g></g><g style="stroke: black;stroke-width: 1.2000000000000002;" transform="matrix(1.0, 0.0, 0.0, 1.0, 0.0, 0.0)"><path d="M 0.0 -0.0005703598144464195 L 1.0 -0.0005703598144464195 L 1.0 0.008161334320902824 L 2.0 0.008161334320902824 L 2.0 0.012308066710829735 L 3.0 0.012308066710829735 L 3.0 -0.027492398396134377 L 4.0 -0.027492398396134377 L 4.0 0.07706482708454132 L 5.0 0.07706482708454132 L 5.0 -0.25566211342811584 L 6.0 -0.25566211342811584 L 6.0 -0.30929839611053467 L 7.0 -0.30929839611053467 L 7.0 -0.179032102227211 L 8.0 -0.179032102227211 L 8.0 -0.4460328221321106 L 9.0 -0.4460328221321106 L 9.0 -0.2801888585090637 L 10.0 -0.2801888585090637 L 10.0 -0.38669124245643616 L 11.0 -0.38669124245643616 L 11.0 -0.581556499004364 L 12.0 -0.581556499004364 L 12.0 -0.15684548020362854 L 13.0 -0.15684548020362854 L 13.0 -0.4552217125892639 L 14.0 -0.4552217125892639 L 14.0 -0.462878942489624 L 15.0 -0.462878942489624 L 15.0 -0.4537586271762848 L 16.0 -0.4537586271762848 L 16.0 -0.6374159455299377 L 17.0 -0.6374159455299377 L 17.0 -0.21295075118541718 L 18.0 -0.21295075118541718 L 18.0 -0.596123218536377 L 19.0 -0.596123218536377 L 19.0 -0.494769424200058 L 20.0 -0.494769424200058 L 20.0 -0.3685130178928375 L 21.0 -0.3685130178928375 L 21.0 -0.38855618238449097 L 22.0 -0.38855618238449097 L 22.0 -0.32285624742507935 L 23.0 -0.32285624742507935 L 23.0 -0.4717558026313782 L 24.0 -0.4717558026313782 L 24.0 -0.39877501130104065 L 25.0 -0.39877501130104065" style="vector-effect: non-scaling-stroke;fill:none;" /></g></g></g></g></g></g></g></g><g /></g></g></g></g></svg>