<?xml version="1.0" encoding="utf-8" ?>
<svg baseProfile="full" height="300" version="1.1" width="1056" xmlns="http://www.w3.org/2000/svg" xmlns:ev="http://www.w3.org/2001/xml-events" xmlns:xlink="http://www.w3.org/1999/xlink"><defs><marker id="arrow" markerHeight="3.5" markerWidth="5" orient="auto" refX="5.0" refY="1.7"><polygon points="0,0 5,1.75 0,3.5" /></marker></defs><g style="fill:white;"><g transform="matrix(1.0, 0.0, 0.0, 1.0, 528.409090909091, 150.0)"><g transform="matrix(1082.2510822510822, 0.0, 0.0, 1082.2510822510822, 0.0, 0.0)"><g><g transform="matrix(1.0, 0.0, 0.0, 1.0, -0.0, -0.08000000000000002)"><g><g><g style="fill: #ffffff;stroke: black;stroke-width: 1.2000000000000002;" transform="matrix(1.0, 0.0, 0.0, 1.0, -0.465, -0.052000000000000005)"><path d="M 0.0 0.0 L 0.93 0.0 L 0.93 0.264 L 0.0 0.264 L 0.0 0.0 Z" style="vector-effect: non-scaling-stroke;" /></g><g><g><g><g><g><g><g><g transform="matrix(1.0, 0.0, 0.0, 1.0, -0.41500000000000004, -0.03)"><g><g><g transform="matrix(1.0, 0.0, 0.0, 1.0, 0.075, 0.0)"><g transform="matrix(1.0, 0.0, 0.0, 1.0, 0.0, 0.03)"><g transform="matrix(0.01, 0.0, 0.0, 0.01, 0.0, 0.0)"><g><g><g transform="matrix(1.0, 0.0, 0.0, 1.0, 12.5, 0.0)"><g transform="matrix(1.0, 0.0, 0.0, 1.0, -20.0, -0.0)"><g><g style="fill: #d3d3d3;stroke: black;stroke-width: 1.2000000000000002;" transform="matrix(1.0, 0.0, 0.0, 1.0, 0.0, -3.0)"><path d="M 0.0 0.0 L 40.0 0.0 L 40.0 6.0 L 0.0 6.0 L 0.0 0.0 Z" style="vector-effect: non-scaling-stroke;" /></g><g transform="matrix(1.0, 0.0, 0.0, 1.0, 1.875, 0.0)"><g><g style="stroke: black;stroke-width: 1.2000000000000002;" transform="matrix(1.0, 0.0, 0.0, 1.0, 0.0, 0.0)"><g /></g><g style="fill: #ffa500;stroke: black;stroke-width: 1.2000000000000002;" transform="matrix(1.0, 0.0, 0.0, 1.0, 1.875, 0.0)"><text style="text-align:center; text-anchor:middle; dominant-baseline:middle;&#10;                      font-family:sans-serif; font-weight: bold;&#10;                      font-size:3px;&#10;                      vector-effect: non-scaling-stroke;" transform="translate(-5e-05, 0)">x</text></g></g></g></g></g></g><g><g><g><g><g style="stroke: black;stroke-width: 1.2000000000000002;" transform="matrix(1.0, 0.0, 0.0, 1.0, 0.0, 0.0)"><path d="M 0.0 -2.0 L 0.0 2.0" style="vector-effect: non-scaling-stroke;fill:none;" /></g><g style="stroke: #808080;stroke-width: 0.6000000000000001;" transform="matrix(1.0, 0.0, 0.0, 1.0, 0.0, 0.0)"><path d="M 0.0 0.0 L 25.0 0.0" style="vector-effect: non-scaling-stroke;fill:none;" /></g></g><g style="stroke: black;stroke-width: 2.4000000000000004;" transform="matrix(1.0, 0.0, 0.0, 1.0, 0.0, 0.0)"><path d="M 0.0 0.6294554471969604 L 1.0 0.6294554471969604 L 1.0 -0.7630185484886169 L 2.0 -0.7630185484886169 L 2.0 0.7423406839370728 L 3.0 0.7423406839370728 L 3.0 -0.7195001244544983 L 4.0 -0.7195001244544983 L 4.0 -0.8506177663803101 L 5.0 -0.8506177663803101 L 5.0 -0.04162389412522316 L 6.0 -0.04162389412522316 L 6.0 -0.5394607186317444 L 7.0 -0.5394607186317444 L 7.0 0.6511825919151306 L 8.0 0.6511825919151306 L 8.0 -0.9970746040344238 L 9.0 -0.9970746040344238 L 9.0 -0.3729616403579712 L 10.0 -0.3729616403579712 L 10.0 -1.1159924268722534 L 11.0 -1.1159924268722534 L 11.0 -1.0723556280136108 L 12.0 -1.0723556280136108 L 12.0 -1.3392082452774048 L 13.0 -1.3392082452774048 L 13.0 -0.686776876449585 L 14.0 -0.686776876449585 L 14.0 0.2867467999458313 L 15.0 0.2867467999458313 L 15.0 -1.0087007284164429 L 16.0 -1.0087007284164429 L 16.0 -0.554456353187561 L 17.0 -0.554456353187561 L 17.0 -1.2993707656860352 L 18.0 -1.2993707656860352 L 18.0 -0.1132640615105629 L 19.0 -0.1132640615105629 L 19.0 -0.8664798736572266 L 20.0 -0.8664798736572266 L 20.0 -0.1250760704278946 L 21.0 -0.1250760704278946 L 21.0 -1.7989071607589722 L 22.0 -1.7989071607589722 L 22.0 -0.3140564560890198 L 23.0 -0.3140564560890198 L 23.0 -0.9732550978660583 L 24.0 -0.9732550978660583 L 24.0 -0.8565048575401306 L 25.0 -0.8565048575401306" style="vector-effect: non-scaling-stroke;fill:none;" /></g></g><g style="stroke: black;stroke-width: 1.2000000000000002;" transform="matrix(1.0, 0.0, 0.0, 1.0, 0.0, 0.0)"><path d="M 0.0 -2.0 L 0.0 2.0" style="vector-effect: non-scaling-stroke;fill:none;" /></g></g></g></g><g><g><g><g><g style="stroke: black;stroke-width: 1.2000000000000002;" transform="matrix(1.0, 0.0, 0.0, 1.0, 0.0, 0.0)"><path d="M 0.0 -2.0 L 0.0 2.0" style="vector-effect: non-scaling-stroke;fill:none;" /></g><g style="stroke: #808080;stroke-width: 0.6000000000000001;" transform="matrix(1.0, 0.0, 0.0, 1.0, 0.0, 0.0)"><path d="M 0.0 0.0 L 25.0 0.0" style="vector-effect: non-scaling-stroke;fill:none;" /></g></g><g style="stroke: black;stroke-width: 2.4000000000000004;" transform="matrix(1.0, 0.0, 0.0, 1.0, 0.0, 0.0)"><path d="M 0.0 0.6294554471969604 L 1.0 0.6294554471969604 L 1.0 -0.7630185484886169 L 2.0 -0.7630185484886169 L 2.0 0.7423406839370728 L 3.0 0.7423406839370728 L 3.0 -0.7195001244544983 L 4.0 -0.7195001244544983 L 4.0 -0.8506177663803101 L 5.0 -0.8506177663803101 L 5.0 -0.04162389412522316 L 6.0 -0.04162389412522316 L 6.0 -0.5394607186317444 L 7.0 -0.5394607186317444 L 7.0 0.6511825919151306 L 8.0 0.6511825919151306 L 8.0 -0.9970746040344238 L 9.0 -0.9970746040344238 L 9.0 -0.3729616403579712 L 10.0 -0.3729616403579712 L 10.0 -1.1159924268722534 L 11.0 -1.1159924268722534 L 11.0 -1.0723556280136108 L 12.0 -1.0723556280136108 L 12.0 -1.3392082452774048 L 13.0 -1.3392082452774048 L 13.0 -0.686776876449585 L 14.0 -0.686776876449585 L 14.0 0.2867467999458313 L 15.0 0.2867467999458313 L 15.0 -1.0087007284164429 L 16.0 -1.0087007284164429 L 16.0 -0.554456353187561 L 17.0 -0.554456353187561 L 17.0 -1.2993707656860352 L 18.0 -1.2993707656860352 L 18.0 -0.1132640615105629 L 19.0 -0.1132640615105629 L 19.0 -0.8664798736572266 L 20.0 -0.8664798736572266 L 20.0 -0.1250760704278946 L 21.0 -0.1250760704278946 L 21.0 -1.7989071607589722 L 22.0 -1.7989071607589722 L 22.0 -0.3140564560890198 L 23.0 -0.3140564560890198 L 23.0 -0.9732550978660583 L 24.0 -0.9732550978660583 L 24.0 -0.8565048575401306 L 25.0 -0.8565048575401306" style="vector-effect: non-scaling-stroke;fill:none;" /></g></g><g style="stroke: black;stroke-width: 1.2000000000000002;" transform="matrix(1.0, 0.0, 0.0, 1.0, 0.0, 0.0)"><path d="M 0.0 -2.0 L 0.0 2.0" style="vector-effect: non-scaling-stroke;fill:none;" /></g></g></g></g></g></g></g><g style="stroke: black;stroke-width: 1.2000000000000002;" transform="matrix(1.0, 0.0, 0.0, 1.0, 0.41500000000000004, 0.0)"><g /></g></g><g transform="matrix(1.0, 0.0, 0.0, 1.0, 0.43000000000000005, 0.0)"><g transform="matrix(1.0, 0.0, 0.0, 1.0, 0.075, 0.0)"><g transform="matrix(1.0, 0.0, 0.0, 1.0, 0.0, 0.03)"><g transform="matrix(0.01, 0.0, 0.0, 0.01, 0.0, 0.0)"><g><g><g transform="matrix(1.0, 0.0, 0.0, 1.0, 12.5, 0.0)"><g transform="matrix(1.0, 0.0, 0.0, 1.0, -20.0, -0.0)"><g><g style="fill: #d3d3d3;stroke: black;stroke-width: 1.2000000000000002;" transform="matrix(1.0, 0.0, 0.0, 1.0, 0.0, -3.0)"><path d="M 0.0 0.0 L 40.0 0.0 L 40.0 6.0 L 0.0 6.0 L 0.0 0.0 Z" style="vector-effect: non-scaling-stroke;" /></g><g transform="matrix(1.0, 0.0, 0.0, 1.0, 1.875, 0.0)"><g><g style="stroke: black;stroke-width: 1.2000000000000002;" transform="matrix(1.0, 0.0, 0.0, 1.0, 0.0, 0.0)"><g /></g><g style="fill: #ffa500;stroke: black;stroke-width: 1.2000000000000002;" transform="matrix(1.0, 0.0, 0.0, 1.0, 1.875, 0.0)"><text style="text-align:center; text-anchor:middle; dominant-baseline:middle;&#10;                      font-family:sans-serif; font-weight: bold;&#10;                      font-size:3px;&#10;                      vector-effect: non-scaling-stroke;" transform="translate(-5e-05, 0)">y</text></g></g></g></g></g></g><g><g><g><g style="stroke: black;stroke-width: 1.2000000000000002;" transform="matrix(1.0, 0.0, 0.0, 1.0, 0.0, 0.0)"><path d="M 0.0 -2.0 L 0.0 2.0" style="vector-effect: non-scaling-stroke;fill:none;" /></g><g style="stroke: #808080;stroke-width: 0.6000000000000001;" transform="matrix(1.0, 0.0, 0.0, 1.0, 0.0, 0.0)"><path d="M 0.0 0.0 L 25.0 0.0" style="vector-effect: non-scaling-stroke;fill:none;" /></g></g><g style="stroke: black;stroke-width: 2.4000000000000004;" transform="matrix(1.0, 0.0, 0.0, 1.0, 0.0, 0.0)"><path d="M 0.0 0.0058234576135873795 L 1.0 0.0058234576135873795 L 1.0 -1.0786224603652954 L 2.0 -1.0786224603652954 L 2.0 -0.603357195854187 L 3.0 -0.603357195854187 L 3.0 -0.774581789970398 L 4.0 -0.774581789970398 L 4.0 -0.32056427001953125 L 5.0 -0.32056427001953125 L 5.0 -0.13431136310100555 L 6.0 -0.13431136310100555 L 6.0 -0.7048913836479187 L 7.0 -0.7048913836479187 L 7.0 -0.9286437630653381 L 8.0 -0.9286437630653381 L 8.0 -0.566573441028595 L 9.0 -0.566573441028595 L 9.0 -0.8370925784111023 L 10.0 -0.8370925784111023 L 10.0 -1.097080111503601 L 11.0 -1.097080111503601 L 11.0 -1.520912528038025 L 12.0 -1.520912528038025 L 12.0 -0.42788299918174744 L 13.0 -0.42788299918174744 L 13.0 -0.9847083687782288 L 14.0 -0.9847083687782288 L 14.0 -1.7939623594284058 L 15.0 -1.7939623594284058 L 15.0 -1.3936399221420288 L 16.0 -1.3936399221420288 L 16.0 -0.647120475769043 L 17.0 -0.647120475769043 L 17.0 -1.794860601425171 L 18.0 -1.794860601425171 L 18.0 0.024191511794924736 L 19.0 0.024191511794924736 L 19.0 -0.2459212690591812 L 20.0 -0.2459212690591812 L 20.0 -1.0625756978988647 L 21.0 -1.0625756978988647 L 21.0 -0.7969610691070557 L 22.0 -0.7969610691070557 L 22.0 -1.5579208135604858 L 23.0 -1.5579208135604858 L 23.0 -0.23981119692325592 L 24.0 -0.23981119692325592 L 24.0 -0.12162651866674423 L 25.0 -0.12162651866674423" style="vector-effect: non-scaling-stroke;fill:none;" /></g></g></g></g><g><g><g><g style="stroke: black;stroke-width: 1.2000000000000002;" transform="matrix(1.0, 0.0, 0.0, 1.0, 0.0, 0.0)"><path d="M 0.0 -2.0 L 0.0 2.0" style="vector-effect: non-scaling-stroke;fill:none;" /></g><g style="stroke: #808080;stroke-width: 0.6000000000000001;" transform="matrix(1.0, 0.0, 0.0, 1.0, 0.0, 0.0)"><path d="M 0.0 0.0 L 25.0 0.0" style="vector-effect: non-scaling-stroke;fill:none;" /></g></g><g style="stroke: black;stroke-width: 2.4000000000000004;" transform="matrix(1.0, 0.0, 0.0, 1.0, 0.0, 0.0)"><path d="M 0.0 0.0058234576135873795 L 1.0 0.0058234576135873795 L 1.0 -1.0786224603652954 L 2.0 -1.0786224603652954 L 2.0 -0.603357195854187 L 3.0 -0.603357195854187 L 3.0 -0.774581789970398 L 4.0 -0.774581789970398 L 4.0 -0.32056427001953125 L 5.0 -0.32056427001953125 L 5.0 -0.13431136310100555 L 6.0 -0.13431136310100555 L 6.0 -0.7048913836479187 L 7.0 -0.7048913836479187 L 7.0 -0.9286437630653381 L 8.0 -0.9286437630653381 L 8.0 -0.566573441028595 L 9.0 -0.566573441028595 L 9.0 -0.8370925784111023 L 10.0 -0.8370925784111023 L 10.0 -1.097080111503601 L 11.0 -1.097080111503601 L 11.0 -1.520912528038025 L 12.0 -1.520912528038025 L 12.0 -0.42788299918174744 L 13.0 -0.42788299918174744 L 13.0 -0.9847083687782288 L 14.0 -0.9847083687782288 L 14.0 -1.7939623594284058 L 15.0 -1.7939623594284058 L 15.0 -1.3936399221420288 L 16.0 -1.3936399221420288 L 16.0 -0.647120475769043 L 17.0 -0.647120475769043 L 17.0 -1.794860601425171 L 18.0 -1.794860601425171 L 18.0 0.024191511794924736 L 19.0 0.024191511794924736 L 19.0 -0.2459212690591812 L 20.0 -0.2459212690591812 L 20.0 -1.0625756978988647 L 21.0 -1.0625756978988647 L 21.0 -0.7969610691070557 L 22.0 -0.7969610691070557 L 22.0 -1.5579208135604858 L 23.0 -1.5579208135604858 L 23.0 -0.23981119692325592 L 24.0 -0.23981119692325592 L 24.0 -0.12162651866674423 L 25.0 -0.12162651866674423" style="vector-effect: non-scaling-stroke;fill:none;" /></g></g></g></g></g></g></g></g></g></g><g style="stroke: black;stroke-width: 1.2000000000000002;" transform="matrix(0.0, -1.0, 1.0, 0.0, 0.0, 0.08)"><g /></g></g><g transform="matrix(1.0, 0.0, 0.0, 1.0, 0.0, 0.16)"><g transform="matrix(1.0, 0.0, 0.0, 1.0, -0.2, -0.03)"><g transform="matrix(1.0, 0.0, 0.0, 1.0, 0.075, 0.0)"><g transform="matrix(1.0, 0.0, 0.0, 1.0, 0.0, 0.03)"><g transform="matrix(0.01, 0.0, 0.0, 0.01, 0.0, 0.0)"><g><g><g transform="matrix(1.0, 0.0, 0.0, 1.0, 12.5, 0.0)"><g transform="matrix(1.0, 0.0, 0.0, 1.0, -20.0, -0.0)"><g><g style="fill: #d3d3d3;stroke: black;stroke-width: 1.2000000000000002;" transform="matrix(1.0, 0.0, 0.0, 1.0, 0.0, -3.0)"><path d="M 0.0 0.0 L 40.0 0.0 L 40.0 6.0 L 0.0 6.0 L 0.0 0.0 Z" style="vector-effect: non-scaling-stroke;" /></g><g transform="matrix(1.0, 0.0, 0.0, 1.0, 1.875, 0.0)"><g><g style="stroke: black;stroke-width: 1.2000000000000002;" transform="matrix(1.0, 0.0, 0.0, 1.0, 0.0, 0.0)"><g /></g><g style="fill: #ffa500;stroke: black;stroke-width: 1.2000000000000002;" transform="matrix(1.0, 0.0, 0.0, 1.0, 1.875, 0.0)"><text style="text-align:center; text-anchor:middle; dominant-baseline:middle;&#10;                      font-family:sans-serif; font-weight: bold;&#10;                      font-size:3px;&#10;                      vector-effect: non-scaling-stroke;" transform="translate(-5e-05, 0)">f(x)</text></g></g></g></g></g></g><g><g><g><g style="stroke: black;stroke-width: 1.2000000000000002;" transform="matrix(1.0, 0.0, 0.0, 1.0, 0.0, 0.0)"><path d="M 0.0 -2.0 L 0.0 2.0" style="vector-effect: non-scaling-stroke;fill:none;" /></g><g style="stroke: #808080;stroke-width: 0.6000000000000001;" transform="matrix(1.0, 0.0, 0.0, 1.0, 0.0, 0.0)"><path d="M 0.0 0.0 L 25.0 0.0" style="vector-effect: non-scaling-stroke;fill:none;" /></g></g><g style="stroke: black;stroke-width: 2.4000000000000004;" transform="matrix(1.0, 0.0, 0.0, 1.0, 0.0, 0.0)"><path d="M 0.0 -0.001832803594879806 L 1.0 -0.001832803594879806 L 1.0 -0.41150447726249695 L 2.0 -0.41150447726249695 L 2.0 0.22394829988479614 L 3.0 0.22394829988479614 L 3.0 -0.27865585684776306 L 4.0 -0.27865585684776306 L 4.0 -0.13633882999420166 L 5.0 -0.13633882999420166 L 5.0 -0.0027952808886766434 L 6.0 -0.0027952808886766434 L 6.0 -0.19013060629367828 L 7.0 -0.19013060629367828 L 7.0 0.30235832929611206 L 8.0 0.30235832929611206 L 8.0 -0.28245800733566284 L 9.0 -0.28245800733566284 L 9.0 -0.15610170364379883 L 10.0 -0.15610170364379883 L 10.0 -0.6121665239334106 L 11.0 -0.6121665239334106 L 11.0 -0.815479576587677 L 12.0 -0.815479576587677 L 12.0 -0.28651222586631775 L 13.0 -0.28651222586631775 L 13.0 -0.3381374776363373 L 14.0 -0.3381374776363373 L 14.0 0.2572064697742462 L 15.0 0.2572064697742462 L 15.0 -0.7028828263282776 L 16.0 -0.7028828263282776 L 16.0 -0.1794000267982483 L 17.0 -0.1794000267982483 L 17.0 -1.1660946607589722 L 18.0 -1.1660946607589722 L 18.0 0.001370014389976859 L 19.0 0.001370014389976859 L 19.0 -0.1065429151058197 L 20.0 -0.1065429151058197 L 20.0 -0.06645139306783676 L 21.0 -0.06645139306783676 L 21.0 -0.7168294787406921 L 22.0 -0.7168294787406921 L 22.0 -0.24463754892349243 L 23.0 -0.24463754892349243 L 23.0 -0.1166987344622612 L 24.0 -0.1166987344622612 L 24.0 -0.05208685249090195 L 25.0 -0.05208685249090195" style="vector-effect: non-scaling-stroke;fill:none;" /></g></g></g></g><g><g><g><g style="stroke: black;stroke-width: 1.2000000000000002;" transform="matrix(1.0, 0.0, 0.0, 1.0, 0.0, 0.0)"><path d="M 0.0 -2.0 L 0.0 2.0" style="vector-effect: non-scaling-stroke;fill:none;" /></g><g style="stroke: #808080;stroke-width: 0.6000000000000001;" transform="matrix(1.0, 0.0, 0.0, 1.0, 0.0, 0.0)"><path d="M 0.0 0.0 L 25.0 0.0" style="vector-effect: non-scaling-stroke;fill:none;" /></g></g><g style="stroke: black;stroke-width: 2.4000000000000004;" transform="matrix(1.0, 0.0, 0.0, 1.0, 0.0, 0.0)"><path d="M 0.0 -0.001832803594879806 L 1.0 -0.001832803594879806 L 1.0 -0.41150447726249695 L 2.0 -0.41150447726249695 L 2.0 0.22394829988479614 L 3.0 0.22394829988479614 L 3.0 -0.27865585684776306 L 4.0 -0.27865585684776306 L 4.0 -0.13633882999420166 L 5.0 -0.13633882999420166 L 5.0 -0.0027952808886766434 L 6.0 -0.0027952808886766434 L 6.0 -0.19013060629367828 L 7.0 -0.19013060629367828 L 7.0 0.30235832929611206 L 8.0 0.30235832929611206 L 8.0 -0.28245800733566284 L 9.0 -0.28245800733566284 L 9.0 -0.15610170364379883 L 10.0 -0.15610170364379883 L 10.0 -0.6121665239334106 L 11.0 -0.6121665239334106 L 11.0 -0.815479576587677 L 12.0 -0.815479576587677 L 12.0 -0.28651222586631775 L 13.0 -0.28651222586631775 L 13.0 -0.3381374776363373 L 14.0 -0.3381374776363373 L 14.0 0.2572064697742462 L 15.0 0.2572064697742462 L 15.0 -0.7028828263282776 L 16.0 -0.7028828263282776 L 16.0 -0.1794000267982483 L 17.0 -0.1794000267982483 L 17.0 -1.1660946607589722 L 18.0 -1.1660946607589722 L 18.0 0.001370014389976859 L 19.0 0.001370014389976859 L 19.0 -0.1065429151058197 L 20.0 -0.1065429151058197 L 20.0 -0.06645139306783676 L 21.0 -0.06645139306783676 L 21.0 -0.7168294787406921 L 22.0 -0.7168294787406921 L 22.0 -0.24463754892349243 L 23.0 -0.24463754892349243 L 23.0 -0.1166987344622612 L 24.0 -0.1166987344622612 L 24.0 -0.05208685249090195 L 25.0 -0.05208685249090195" style="vector-effect: non-scaling-stroke;fill:none;" /></g></g></g></g></g></g></g></g></g></g><g transform="matrix(1.0, 0.0, 0.0, 1.0, -0.125, 0.16)"><g transform="matrix(1.0, 0.0, 0.0, 0.009999999999999995, 0.0, 0.0)"><g transform="matrix(0.01, 0.0, 0.0, 1.0, 0.0, 0.0)"><g><g><g style="fill: #ffffe0;stroke: #ffffe0;stroke-width: 1.2000000000000002;fill-opacity: 0.5;" transform="matrix(1.0, 0.0, 0.0, 1.0, 0.0, 0.0)"><path d="M 0.0 -2.0 L 0.0 2.0" style="vector-effect: non-scaling-stroke;fill:none;" /></g><g style="fill: #ffffe0;stroke: #ffffe0;stroke-width: 1.2000000000000002;fill-opacity: 0.5;" transform="matrix(1.0, 0.0, 0.0, 1.0, 0.0, 0.0)"><path d="M 0.0 0.003999603912234306 L 1.0 0.003999603912234306 L 1.0 -1.4903485774993896 L 2.0 -1.4903485774993896 L 2.0 -0.3810388445854187 L 3.0 -0.3810388445854187 L 3.0 -1.0535162687301636 L 4.0 -1.0535162687301636 L 4.0 -0.45820391178131104 L 5.0 -0.45820391178131104 L 5.0 -0.13711528480052948 L 6.0 -0.13711528480052948 L 6.0 -0.896445631980896 L 7.0 -0.896445631980896 L 7.0 -0.6274741291999817 L 8.0 -0.6274741291999817 L 8.0 -0.8487021327018738 L 9.0 -0.8487021327018738 L 9.0 -0.9935469627380371 L 10.0 -0.9935469627380371 L 10.0 -1.7148524522781372 L 11.0 -1.7148524522781372 L 11.0 -2.0 L 12.0 -2.0 L 12.0 -0.7156656980514526 L 13.0 -0.7156656980514526 L 13.0 -1.3245943784713745 L 14.0 -1.3245943784713745 L 14.0 -1.5339131355285645 L 15.0 -1.5339131355285645 L 15.0 -2.0 L 16.0 -2.0 L 16.0 -0.8276005387306213 L 17.0 -0.8276005387306213 L 17.0 -2.0 L 18.0 -2.0 L 18.0 0.025561118498444557 L 19.0 0.025561118498444557 L 19.0 -0.3531571328639984 L 20.0 -0.3531571328639984 L 20.0 -1.1289042234420776 L 21.0 -1.1289042234420776 L 21.0 -1.5155317783355713 L 22.0 -1.5155317783355713 L 22.0 -1.8018088340759277 L 23.0 -1.8018088340759277 L 23.0 -0.35660743713378906 L 24.0 -0.35660743713378906 L 24.0 -0.17390385270118713 L 25.0 -0.17390385270118713 L 25.0 -0.05208685249090195 L 24.0 -0.05208685249090195 L 24.0 -0.1166987344622612 L 23.0 -0.1166987344622612 L 23.0 -0.24463754892349243 L 22.0 -0.24463754892349243 L 22.0 -0.7168294787406921 L 21.0 -0.7168294787406921 L 21.0 -0.06645139306783676 L 20.0 -0.06645139306783676 L 20.0 -0.1065429151058197 L 19.0 -0.1065429151058197 L 19.0 0.001370014389976859 L 18.0 0.001370014389976859 L 18.0 -1.1660946607589722 L 17.0 -1.1660946607589722 L 17.0 -0.1794000267982483 L 16.0 -0.1794000267982483 L 16.0 -0.7028828263282776 L 15.0 -0.7028828263282776 L 15.0 0.2572064697742462 L 14.0 0.2572064697742462 L 14.0 -0.3381374776363373 L 13.0 -0.3381374776363373 L 13.0 -0.28651222586631775 L 12.0 -0.28651222586631775 L 12.0 -0.815479576587677 L 11.0 -0.815479576587677 L 11.0 -0.6121665239334106 L 10.0 -0.6121665239334106 L 10.0 -0.15610170364379883 L 9.0 -0.15610170364379883 L 9.0 -0.28245800733566284 L 8.0 -0.28245800733566284 L 8.0 0.30235832929611206 L 7.0 0.30235832929611206 L 7.0 -0.19013060629367828 L 6.0 -0.19013060629367828 L 6.0 -0.0027952808886766434 L 5.0 -0.0027952808886766434 L 5.0 -0.13633882999420166 L 4.0 -0.13633882999420166 L 4.0 -0.27865585684776306 L 3.0 -0.27865585684776306 L 3.0 0.22394829988479614 L 2.0 0.22394829988479614 L 2.0 -0.41150447726249695 L 1.0 -0.41150447726249695 L 1.0 -0.001832803594879806 L 0.0 -0.001832803594879806 Z" style="vector-effect: non-scaling-stroke;" /></g></g><g style="stroke: black;stroke-width: 1.2000000000000002;" transform="matrix(1.0, 0.0, 0.0, 1.0, 0.0, 0.0)"><path d="M 0.0 -0.001832803594879806 L 1.0 -0.001832803594879806 L 1.0 -0.41150447726249695 L 2.0 -0.41150447726249695 L 2.0 0.22394829988479614 L 3.0 0.22394829988479614 L 3.0 -0.27865585684776306 L 4.0 -0.27865585684776306 L 4.0 -0.13633882999420166 L 5.0 -0.13633882999420166 L 5.0 -0.0027952808886766434 L 6.0 -0.0027952808886766434 L 6.0 -0.19013060629367828 L 7.0 -0.19013060629367828 L 7.0 0.30235832929611206 L 8.0 0.30235832929611206 L 8.0 -0.28245800733566284 L 9.0 -0.28245800733566284 L 9.0 -0.15610170364379883 L 10.0 -0.15610170364379883 L 10.0 -0.6121665239334106 L 11.0 -0.6121665239334106 L 11.0 -0.815479576587677 L 12.0 -0.815479576587677 L 12.0 -0.28651222586631775 L 13.0 -0.28651222586631775 L 13.0 -0.3381374776363373 L 14.0 -0.3381374776363373 L 14.0 0.2572064697742462 L 15.0 0.2572064697742462 L 15.0 -0.7028828263282776 L 16.0 -0.7028828263282776 L 16.0 -0.1794000267982483 L 17.0 -0.1794000267982483 L 17.0 -1.1660946607589722 L 18.0 -1.1660946607589722 L 18.0 0.001370014389976859 L 19.0 0.001370014389976859 L 19.0 -0.1065429151058197 L 20.0 -0.1065429151058197 L 20.0 -0.06645139306783676 L 21.0 -0.06645139306783676 L 21.0 -0.7168294787406921 L 22.0 -0.7168294787406921 L 22.0 -0.24463754892349243 L 23.0 -0.24463754892349243 L 23.0 -0.1166987344622612 L 24.0 -0.1166987344622612 L 24.0 -0.05208685249090195 L 25.0 -0.05208685249090195" style="vector-effect: non-scaling-stroke;fill:none;" /></g></g></g></g></g></g><g transform="matrix(1.0, 0.0, 0.0, 1.0, -0.125, 0.16)"><g transform="matrix(1.0, 0.0, 0.0, 0.009999999999999995, 0.0, 0.0)"><g transform="matrix(0.01, 0.0, 0.0, 1.0, 0.0, 0.0)"><g><g><g style="fill: #add8e6;stroke: #add8e6;stroke-width: 1.2000000000000002;fill-opacity: 0.5;" transform="matrix(1.0, 0.0, 0.0, 1.0, 0.0, 0.0)"><path d="M 0.0 -2.0 L 0.0 2.0" style="vector-effect: non-scaling-stroke;fill:none;" /></g><g style="fill: #add8e6;stroke: #add8e6;stroke-width: 1.2000000000000002;fill-opacity: 0.5;" transform="matrix(1.0, 0.0, 0.0, 1.0, 0.0, 0.0)"><path d="M 0.0 0.6276364922523499 L 1.0 0.6276364922523499 L 1.0 -1.1744439601898193 L 2.0 -1.1744439601898193 L 2.0 0.9675162434577942 L 3.0 0.9675162434577942 L 3.0 -0.9968918561935425 L 4.0 -0.9968918561935425 L 4.0 -0.9871951341629028 L 5.0 -0.9871951341629028 L 5.0 -0.044425398111343384 L 6.0 -0.044425398111343384 L 6.0 -0.731042742729187 L 7.0 -0.731042742729187 L 7.0 0.9550291895866394 L 8.0 0.9550291895866394 L 8.0 -1.2808358669281006 L 9.0 -1.2808358669281006 L 9.0 -0.530120849609375 L 10.0 -0.530120849609375 L 10.0 -1.7327338457107544 L 11.0 -1.7327338457107544 L 11.0 -1.8883631229400635 L 12.0 -1.8883631229400635 L 12.0 -1.6246365308761597 L 13.0 -1.6246365308761597 L 13.0 -1.0235909223556519 L 14.0 -1.0235909223556519 L 14.0 0.5462889671325684 L 15.0 0.5462889671325684 L 15.0 -1.7102012634277344 L 16.0 -1.7102012634277344 L 16.0 -0.7352133393287659 L 17.0 -0.7352133393287659 L 17.0 -2.0 L 18.0 -2.0 L 18.0 -0.11189045757055283 L 19.0 -0.11189045757055283 L 19.0 -0.9730454683303833 L 20.0 -0.9730454683303833 L 20.0 -0.19236621260643005 L 21.0 -0.19236621260643005 L 21.0 -2.0 L 22.0 -2.0 L 22.0 -0.559052050113678 L 23.0 -0.559052050113678 L 23.0 -1.0897445678710938 L 24.0 -1.0897445678710938 L 24.0 -0.9085310697555542 L 25.0 -0.9085310697555542 L 25.0 -0.05208685249090195 L 24.0 -0.05208685249090195 L 24.0 -0.1166987344622612 L 23.0 -0.1166987344622612 L 23.0 -0.24463754892349243 L 22.0 -0.24463754892349243 L 22.0 -0.7168294787406921 L 21.0 -0.7168294787406921 L 21.0 -0.06645139306783676 L 20.0 -0.06645139306783676 L 20.0 -0.1065429151058197 L 19.0 -0.1065429151058197 L 19.0 0.001370014389976859 L 18.0 0.001370014389976859 L 18.0 -1.1660946607589722 L 17.0 -1.1660946607589722 L 17.0 -0.1794000267982483 L 16.0 -0.1794000267982483 L 16.0 -0.7028828263282776 L 15.0 -0.7028828263282776 L 15.0 0.2572064697742462 L 14.0 0.2572064697742462 L 14.0 -0.3381374776363373 L 13.0 -0.3381374776363373 L 13.0 -0.28651222586631775 L 12.0 -0.28651222586631775 L 12.0 -0.815479576587677 L 11.0 -0.815479576587677 L 11.0 -0.6121665239334106 L 10.0 -0.6121665239334106 L 10.0 -0.15610170364379883 L 9.0 -0.15610170364379883 L 9.0 -0.28245800733566284 L 8.0 -0.28245800733566284 L 8.0 0.30235832929611206 L 7.0 0.30235832929611206 L 7.0 -0.19013060629367828 L 6.0 -0.19013060629367828 L 6.0 -0.0027952808886766434 L 5.0 -0.0027952808886766434 L 5.0 -0.13633882999420166 L 4.0 -0.13633882999420166 L 4.0 -0.27865585684776306 L 3.0 -0.27865585684776306 L 3.0 0.22394829988479614 L 2.0 0.22394829988479614 L 2.0 -0.41150447726249695 L 1.0 -0.41150447726249695 L 1.0 -0.001832803594879806 L 0.0 -0.001832803594879806 Z" style="vector-effect: non-scaling-stroke;" /></g></g><g style="stroke: black;stroke-width: 1.2000000000000002;" transform="matrix(1.0, 0.0, 0.0, 1.0, 0.0, 0.0)"><path d="M 0.0 -0.001832803594879806 L 1.0 -0.001832803594879806 L 1.0 -0.41150447726249695 L 2.0 -0.41150447726249695 L 2.0 0.22394829988479614 L 3.0 0.22394829988479614 L 3.0 -0.27865585684776306 L 4.0 -0.27865585684776306 L 4.0 -0.13633882999420166 L 5.0 -0.13633882999420166 L 5.0 -0.0027952808886766434 L 6.0 -0.0027952808886766434 L 6.0 -0.19013060629367828 L 7.0 -0.19013060629367828 L 7.0 0.30235832929611206 L 8.0 0.30235832929611206 L 8.0 -0.28245800733566284 L 9.0 -0.28245800733566284 L 9.0 -0.15610170364379883 L 10.0 -0.15610170364379883 L 10.0 -0.6121665239334106 L 11.0 -0.6121665239334106 L 11.0 -0.815479576587677 L 12.0 -0.815479576587677 L 12.0 -0.28651222586631775 L 13.0 -0.28651222586631775 L 13.0 -0.3381374776363373 L 14.0 -0.3381374776363373 L 14.0 0.2572064697742462 L 15.0 0.2572064697742462 L 15.0 -0.7028828263282776 L 16.0 -0.7028828263282776 L 16.0 -0.1794000267982483 L 17.0 -0.1794000267982483 L 17.0 -1.1660946607589722 L 18.0 -1.1660946607589722 L 18.0 0.001370014389976859 L 19.0 0.001370014389976859 L 19.0 -0.1065429151058197 L 20.0 -0.1065429151058197 L 20.0 -0.06645139306783676 L 21.0 -0.06645139306783676 L 21.0 -0.7168294787406921 L 22.0 -0.7168294787406921 L 22.0 -0.24463754892349243 L 23.0 -0.24463754892349243 L 23.0 -0.1166987344622612 L 24.0 -0.1166987344622612 L 24.0 -0.05208685249090195 L 25.0 -0.05208685249090195" style="vector-effect: non-scaling-stroke;fill:none;" /></g></g></g></g></g></g><g transform="matrix(1.0, 0.0, 0.0, 1.0, -0.125, 0.16)"><g transform="matrix(1.0, 0.0, 0.0, 0.009999999999999995, 0.0, 0.0)"><g transform="matrix(0.01, 0.0, 0.0, 1.0, 0.0, 0.0)"><g><g><g style="fill: #ff8c00;stroke: #ff8c00;stroke-width: 1.2000000000000002;fill-opacity: 0.5;" transform="matrix(1.0, 0.0, 0.0, 1.0, 0.0, 0.0)"><path d="M 0.0 -2.0 L 0.0 2.0" style="vector-effect: non-scaling-stroke;fill:none;" /></g><g style="fill: #ff8c00;stroke: #ff8c00;stroke-width: 1.2000000000000002;fill-opacity: 0.5;" transform="matrix(1.0, 0.0, 0.0, 1.0, 0.0, 0.0)"><path d="M 0.0 -0.001832803594879806 L 1.0 -0.001832803594879806 L 1.0 -0.41150447726249695 L 2.0 -0.41150447726249695 L 2.0 0.22394829988479614 L 3.0 0.22394829988479614 L 3.0 -0.27865585684776306 L 4.0 -0.27865585684776306 L 4.0 -0.13633882999420166 L 5.0 -0.13633882999420166 L 5.0 -0.0027952808886766434 L 6.0 -0.0027952808886766434 L 6.0 -0.19013060629367828 L 7.0 -0.19013060629367828 L 7.0 0.30235832929611206 L 8.0 0.30235832929611206 L 8.0 -0.28245800733566284 L 9.0 -0.28245800733566284 L 9.0 -0.15610170364379883 L 10.0 -0.15610170364379883 L 10.0 -0.6121665239334106 L 11.0 -0.6121665239334106 L 11.0 -0.815479576587677 L 12.0 -0.815479576587677 L 12.0 -0.28651222586631775 L 13.0 -0.28651222586631775 L 13.0 -0.3381374776363373 L 14.0 -0.3381374776363373 L 14.0 0.2572064697742462 L 15.0 0.2572064697742462 L 15.0 -0.7028828263282776 L 16.0 -0.7028828263282776 L 16.0 -0.1794000267982483 L 17.0 -0.1794000267982483 L 17.0 -1.1660946607589722 L 18.0 -1.1660946607589722 L 18.0 0.001370014389976859 L 19.0 0.001370014389976859 L 19.0 -0.1065429151058197 L 20.0 -0.1065429151058197 L 20.0 -0.06645139306783676 L 21.0 -0.06645139306783676 L 21.0 -0.7168294787406921 L 22.0 -0.7168294787406921 L 22.0 -0.24463754892349243 L 23.0 -0.24463754892349243 L 23.0 -0.1166987344622612 L 24.0 -0.1166987344622612 L 24.0 -0.05208685249090195 L 25.0 -0.05208685249090195 L 25.0 -0.05208685249090195 L 24.0 -0.05208685249090195 L 24.0 -0.1166987344622612 L 23.0 -0.1166987344622612 L 23.0 -0.24463754892349243 L 22.0 -0.24463754892349243 L 22.0 -0.7168294787406921 L 21.0 -0.7168294787406921 L 21.0 -0.06645139306783676 L 20.0 -0.06645139306783676 L 20.0 -0.1065429151058197 L 19.0 -0.1065429151058197 L 19.0 0.001370014389976859 L 18.0 0.001370014389976859 L 18.0 -1.1660946607589722 L 17.0 -1.1660946607589722 L 17.0 -0.1794000267982483 L 16.0 -0.1794000267982483 L 16.0 -0.7028828263282776 L 15.0 -0.7028828263282776 L 15.0 0.2572064697742462 L 14.0 0.2572064697742462 L 14.0 -0.3381374776363373 L 13.0 -0.3381374776363373 L 13.0 -0.28651222586631775 L 12.0 -0.28651222586631775 L 12.0 -0.815479576587677 L 11.0 -0.815479576587677 L 11.0 -0.6121665239334106 L 10.0 -0.6121665239334106 L 10.0 -0.15610170364379883 L 9.0 -0.15610170364379883 L 9.0 -0.28245800733566284 L 8.0 -0.28245800733566284 L 8.0 0.30235832929611206 L 7.0 0.30235832929611206 L 7.0 -0.19013060629367828 L 6.0 -0.19013060629367828 L 6.0 -0.0027952808886766434 L 5.0 -0.0027952808886766434 L 5.0 -0.13633882999420166 L 4.0 -0.13633882999420166 L 4.0 -0.27865585684776306 L 3.0 -0.27865585684776306 L 3.0 0.22394829988479614 L 2.0 0.22394829988479614 L 2.0 -0.41150447726249695 L 1.0 -0.41150447726249695 L 1.0 -0.001832803594879806 L 0.0 -0.001832803594879806 Z" style="vector-effect: non-scaling-stroke;" /></g></g><g style="stroke: black;stroke-width: 1.2000000000000002;" transform="matrix(1.0, 0.0, 0.0, 1.0, 0.0, 0.0)"><path d="M 0.0 -0.001832803594879806 L 1.0 -0.001832803594879806 L 1.0 -0.41150447726249695 L 2.0 -0.41150447726249695 L 2.0 0.22394829988479614 L 3.0 0.22394829988479614 L 3.0 -0.27865585684776306 L 4.0 -0.27865585684776306 L 4.0 -0.13633882999420166 L 5.0 -0.13633882999420166 L 5.0 -0.0027952808886766434 L 6.0 -0.0027952808886766434 L 6.0 -0.19013060629367828 L 7.0 -0.19013060629367828 L 7.0 0.30235832929611206 L 8.0 0.30235832929611206 L 8.0 -0.28245800733566284 L 9.0 -0.28245800733566284 L 9.0 -0.15610170364379883 L 10.0 -0.15610170364379883 L 10.0 -0.6121665239334106 L 11.0 -0.6121665239334106 L 11.0 -0.815479576587677 L 12.0 -0.815479576587677 L 12.0 -0.28651222586631775 L 13.0 -0.28651222586631775 L 13.0 -0.3381374776363373 L 14.0 -0.3381374776363373 L 14.0 0.2572064697742462 L 15.0 0.2572064697742462 L 15.0 -0.7028828263282776 L 16.0 -0.7028828263282776 L 16.0 -0.1794000267982483 L 17.0 -0.1794000267982483 L 17.0 -1.1660946607589722 L 18.0 -1.1660946607589722 L 18.0 0.001370014389976859 L 19.0 0.001370014389976859 L 19.0 -0.1065429151058197 L 20.0 -0.1065429151058197 L 20.0 -0.06645139306783676 L 21.0 -0.06645139306783676 L 21.0 -0.7168294787406921 L 22.0 -0.7168294787406921 L 22.0 -0.24463754892349243 L 23.0 -0.24463754892349243 L 23.0 -0.1166987344622612 L 24.0 -0.1166987344622612 L 24.0 -0.05208685249090195 L 25.0 -0.05208685249090195" style="vector-effect: non-scaling-stroke;fill:none;" /></g></g></g></g></g></g><g transform="matrix(1.0, 0.0, 0.0, 1.0, -0.125, 0.16)"><g transform="matrix(1.0, 0.0, 0.0, 0.009999999999999995, 0.0, 0.0)"><g transform="matrix(0.01, 0.0, 0.0, 1.0, 0.0, 0.0)"><g><g><g style="fill: #0000ff;stroke: #0000ff;stroke-width: 1.2000000000000002;fill-opacity: 0.5;" transform="matrix(1.0, 0.0, 0.0, 1.0, 0.0, 0.0)"><path d="M 0.0 -2.0 L 0.0 2.0" style="vector-effect: non-scaling-stroke;fill:none;" /></g><g style="fill: #0000ff;stroke: #0000ff;stroke-width: 1.2000000000000002;fill-opacity: 0.5;" transform="matrix(1.0, 0.0, 0.0, 1.0, 0.0, 0.0)"><path d="M 0.0 -0.001832803594879806 L 1.0 -0.001832803594879806 L 1.0 -0.41150447726249695 L 2.0 -0.41150447726249695 L 2.0 0.22394829988479614 L 3.0 0.22394829988479614 L 3.0 -0.27865585684776306 L 4.0 -0.27865585684776306 L 4.0 -0.13633882999420166 L 5.0 -0.13633882999420166 L 5.0 -0.0027952808886766434 L 6.0 -0.0027952808886766434 L 6.0 -0.19013060629367828 L 7.0 -0.19013060629367828 L 7.0 0.30235832929611206 L 8.0 0.30235832929611206 L 8.0 -0.28245800733566284 L 9.0 -0.28245800733566284 L 9.0 -0.15610170364379883 L 10.0 -0.15610170364379883 L 10.0 -0.6121665239334106 L 11.0 -0.6121665239334106 L 11.0 -0.815479576587677 L 12.0 -0.815479576587677 L 12.0 -0.28651222586631775 L 13.0 -0.28651222586631775 L 13.0 -0.3381374776363373 L 14.0 -0.3381374776363373 L 14.0 0.2572064697742462 L 15.0 0.2572064697742462 L 15.0 -0.7028828263282776 L 16.0 -0.7028828263282776 L 16.0 -0.1794000267982483 L 17.0 -0.1794000267982483 L 17.0 -1.1660946607589722 L 18.0 -1.1660946607589722 L 18.0 0.001370014389976859 L 19.0 0.001370014389976859 L 19.0 -0.1065429151058197 L 20.0 -0.1065429151058197 L 20.0 -0.06645139306783676 L 21.0 -0.06645139306783676 L 21.0 -0.7168294787406921 L 22.0 -0.7168294787406921 L 22.0 -0.24463754892349243 L 23.0 -0.24463754892349243 L 23.0 -0.1166987344622612 L 24.0 -0.1166987344622612 L 24.0 -0.05208685249090195 L 25.0 -0.05208685249090195 L 25.0 -0.05208685249090195 L 24.0 -0.05208685249090195 L 24.0 -0.1166987344622612 L 23.0 -0.1166987344622612 L 23.0 -0.24463754892349243 L 22.0 -0.24463754892349243 L 22.0 -0.7168294787406921 L 21.0 -0.7168294787406921 L 21.0 -0.06645139306783676 L 20.0 -0.06645139306783676 L 20.0 -0.1065429151058197 L 19.0 -0.1065429151058197 L 19.0 0.001370014389976859 L 18.0 0.001370014389976859 L 18.0 -1.1660946607589722 L 17.0 -1.1660946607589722 L 17.0 -0.1794000267982483 L 16.0 -0.1794000267982483 L 16.0 -0.7028828263282776 L 15.0 -0.7028828263282776 L 15.0 0.2572064697742462 L 14.0 0.2572064697742462 L 14.0 -0.3381374776363373 L 13.0 -0.3381374776363373 L 13.0 -0.28651222586631775 L 12.0 -0.28651222586631775 L 12.0 -0.815479576587677 L 11.0 -0.815479576587677 L 11.0 -0.6121665239334106 L 10.0 -0.6121665239334106 L 10.0 -0.15610170364379883 L 9.0 -0.15610170364379883 L 9.0 -0.28245800733566284 L 8.0 -0.28245800733566284 L 8.0 0.30235832929611206 L 7.0 0.30235832929611206 L 7.0 -0.19013060629367828 L 6.0 -0.19013060629367828 L 6.0 -0.0027952808886766434 L 5.0 -0.0027952808886766434 L 5.0 -0.13633882999420166 L 4.0 -0.13633882999420166 L 4.0 -0.27865585684776306 L 3.0 -0.27865585684776306 L 3.0 0.22394829988479614 L 2.0 0.22394829988479614 L 2.0 -0.41150447726249695 L 1.0 -0.41150447726249695 L 1.0 -0.001832803594879806 L 0.0 -0.001832803594879806 Z" style="vector-effect: non-scaling-stroke;" /></g></g><g style="stroke: black;stroke-width: 1.2000000000000002;" transform="matrix(1.0, 0.0, 0.0, 1.0, 0.0, 0.0)"><path d="M 0.0 -0.001832803594879806 L 1.0 -0.001832803594879806 L 1.0 -0.41150447726249695 L 2.0 -0.41150447726249695 L 2.0 0.22394829988479614 L 3.0 0.22394829988479614 L 3.0 -0.27865585684776306 L 4.0 -0.27865585684776306 L 4.0 -0.13633882999420166 L 5.0 -0.13633882999420166 L 5.0 -0.0027952808886766434 L 6.0 -0.0027952808886766434 L 6.0 -0.19013060629367828 L 7.0 -0.19013060629367828 L 7.0 0.30235832929611206 L 8.0 0.30235832929611206 L 8.0 -0.28245800733566284 L 9.0 -0.28245800733566284 L 9.0 -0.15610170364379883 L 10.0 -0.15610170364379883 L 10.0 -0.6121665239334106 L 11.0 -0.6121665239334106 L 11.0 -0.815479576587677 L 12.0 -0.815479576587677 L 12.0 -0.28651222586631775 L 13.0 -0.28651222586631775 L 13.0 -0.3381374776363373 L 14.0 -0.3381374776363373 L 14.0 0.2572064697742462 L 15.0 0.2572064697742462 L 15.0 -0.7028828263282776 L 16.0 -0.7028828263282776 L 16.0 -0.1794000267982483 L 17.0 -0.1794000267982483 L 17.0 -1.1660946607589722 L 18.0 -1.1660946607589722 L 18.0 0.001370014389976859 L 19.0 0.001370014389976859 L 19.0 -0.1065429151058197 L 20.0 -0.1065429151058197 L 20.0 -0.06645139306783676 L 21.0 -0.06645139306783676 L 21.0 -0.7168294787406921 L 22.0 -0.7168294787406921 L 22.0 -0.24463754892349243 L 23.0 -0.24463754892349243 L 23.0 -0.1166987344622612 L 24.0 -0.1166987344622612 L 24.0 -0.05208685249090195 L 25.0 -0.05208685249090195" style="vector-effect: non-scaling-stroke;fill:none;" /></g></g></g></g></g></g></g></g><g><g><g><g><g><g><g transform="matrix(1.0, 0.0, 0.0, 1.0, -0.41500000000000004, -0.03)"><g><g><g transform="matrix(1.0, 0.0, 0.0, 1.0, 0.075, 0.0)"><g transform="matrix(1.0, 0.0, 0.0, 1.0, 0.0, 0.03)"><g transform="matrix(0.01, 0.0, 0.0, 0.01, 0.0, 0.0)"><g><g><g transform="matrix(1.0, 0.0, 0.0, 1.0, 12.5, 0.0)"><g transform="matrix(1.0, 0.0, 0.0, 1.0, -20.0, -0.0)"><g><g style="fill: #d3d3d3;stroke: black;stroke-width: 1.2000000000000002;" transform="matrix(1.0, 0.0, 0.0, 1.0, 0.0, -3.0)"><path d="M 0.0 0.0 L 40.0 0.0 L 40.0 6.0 L 0.0 6.0 L 0.0 0.0 Z" style="vector-effect: non-scaling-stroke;" /></g><g transform="matrix(1.0, 0.0, 0.0, 1.0, 1.875, 0.0)"><g><g style="stroke: black;stroke-width: 1.2000000000000002;" transform="matrix(1.0, 0.0, 0.0, 1.0, 0.0, 0.0)"><g /></g><g style="fill: #ffa500;stroke: black;stroke-width: 1.2000000000000002;" transform="matrix(1.0, 0.0, 0.0, 1.0, 1.875, 0.0)"><text style="text-align:center; text-anchor:middle; dominant-baseline:middle;&#10;                      font-family:sans-serif; font-weight: bold;&#10;                      font-size:3px;&#10;                      vector-effect: non-scaling-stroke;" transform="translate(-5e-05, 0)">x</text></g></g></g></g></g></g><g><g><g><g><g style="stroke: black;stroke-width: 1.2000000000000002;" transform="matrix(1.0, 0.0, 0.0, 1.0, 0.0, 0.0)"><path d="M 0.0 -2.0 L 0.0 2.0" style="vector-effect: non-scaling-stroke;fill:none;" /></g><g style="stroke: #808080;stroke-width: 0.6000000000000001;" transform="matrix(1.0, 0.0, 0.0, 1.0, 0.0, 0.0)"><path d="M 0.0 0.0 L 25.0 0.0" style="vector-effect: non-scaling-stroke;fill:none;" /></g></g><g style="stroke: black;stroke-width: 2.4000000000000004;" transform="matrix(1.0, 0.0, 0.0, 1.0, 0.0, 0.0)"><path d="M 0.0 0.6294554471969604 L 1.0 0.6294554471969604 L 1.0 -0.7630185484886169 L 2.0 -0.7630185484886169 L 2.0 0.7423406839370728 L 3.0 0.7423406839370728 L 3.0 -0.7195001244544983 L 4.0 -0.7195001244544983 L 4.0 -0.8506177663803101 L 5.0 -0.8506177663803101 L 5.0 -0.04162389412522316 L 6.0 -0.04162389412522316 L 6.0 -0.5394607186317444 L 7.0 -0.5394607186317444 L 7.0 0.6511825919151306 L 8.0 0.6511825919151306 L 8.0 -0.9970746040344238 L 9.0 -0.9970746040344238 L 9.0 -0.3729616403579712 L 10.0 -0.3729616403579712 L 10.0 -1.1159924268722534 L 11.0 -1.1159924268722534 L 11.0 -1.0723556280136108 L 12.0 -1.0723556280136108 L 12.0 -1.3392082452774048 L 13.0 -1.3392082452774048 L 13.0 -0.686776876449585 L 14.0 -0.686776876449585 L 14.0 0.2867467999458313 L 15.0 0.2867467999458313 L 15.0 -1.0087007284164429 L 16.0 -1.0087007284164429 L 16.0 -0.554456353187561 L 17.0 -0.554456353187561 L 17.0 -1.2993707656860352 L 18.0 -1.2993707656860352 L 18.0 -0.1132640615105629 L 19.0 -0.1132640615105629 L 19.0 -0.8664798736572266 L 20.0 -0.8664798736572266 L 20.0 -0.1250760704278946 L 21.0 -0.1250760704278946 L 21.0 -1.7989071607589722 L 22.0 -1.7989071607589722 L 22.0 -0.3140564560890198 L 23.0 -0.3140564560890198 L 23.0 -0.9732550978660583 L 24.0 -0.9732550978660583 L 24.0 -0.8565048575401306 L 25.0 -0.8565048575401306" style="vector-effect: non-scaling-stroke;fill:none;" /></g></g><g style="stroke: black;stroke-width: 1.2000000000000002;" transform="matrix(1.0, 0.0, 0.0, 1.0, 0.0, 0.0)"><path d="M 0.0 -2.0 L 0.0 2.0" style="vector-effect: non-scaling-stroke;fill:none;" /></g></g></g></g><g><g><g><g><g style="stroke: black;stroke-width: 1.2000000000000002;" transform="matrix(1.0, 0.0, 0.0, 1.0, 0.0, 0.0)"><path d="M 0.0 -2.0 L 0.0 2.0" style="vector-effect: non-scaling-stroke;fill:none;" /></g><g style="stroke: #808080;stroke-width: 0.6000000000000001;" transform="matrix(1.0, 0.0, 0.0, 1.0, 0.0, 0.0)"><path d="M 0.0 0.0 L 25.0 0.0" style="vector-effect: non-scaling-stroke;fill:none;" /></g></g><g style="stroke: black;stroke-width: 2.4000000000000004;" transform="matrix(1.0, 0.0, 0.0, 1.0, 0.0, 0.0)"><path d="M 0.0 0.6294554471969604 L 1.0 0.6294554471969604 L 1.0 -0.7630185484886169 L 2.0 -0.7630185484886169 L 2.0 0.7423406839370728 L 3.0 0.7423406839370728 L 3.0 -0.7195001244544983 L 4.0 -0.7195001244544983 L 4.0 -0.8506177663803101 L 5.0 -0.8506177663803101 L 5.0 -0.04162389412522316 L 6.0 -0.04162389412522316 L 6.0 -0.5394607186317444 L 7.0 -0.5394607186317444 L 7.0 0.6511825919151306 L 8.0 0.6511825919151306 L 8.0 -0.9970746040344238 L 9.0 -0.9970746040344238 L 9.0 -0.3729616403579712 L 10.0 -0.3729616403579712 L 10.0 -1.1159924268722534 L 11.0 -1.1159924268722534 L 11.0 -1.0723556280136108 L 12.0 -1.0723556280136108 L 12.0 -1.3392082452774048 L 13.0 -1.3392082452774048 L 13.0 -0.686776876449585 L 14.0 -0.686776876449585 L 14.0 0.2867467999458313 L 15.0 0.2867467999458313 L 15.0 -1.0087007284164429 L 16.0 -1.0087007284164429 L 16.0 -0.554456353187561 L 17.0 -0.554456353187561 L 17.0 -1.2993707656860352 L 18.0 -1.2993707656860352 L 18.0 -0.1132640615105629 L 19.0 -0.1132640615105629 L 19.0 -0.8664798736572266 L 20.0 -0.8664798736572266 L 20.0 -0.1250760704278946 L 21.0 -0.1250760704278946 L 21.0 -1.7989071607589722 L 22.0 -1.7989071607589722 L 22.0 -0.3140564560890198 L 23.0 -0.3140564560890198 L 23.0 -0.9732550978660583 L 24.0 -0.9732550978660583 L 24.0 -0.8565048575401306 L 25.0 -0.8565048575401306" style="vector-effect: non-scaling-stroke;fill:none;" /></g></g><g style="stroke: black;stroke-width: 1.2000000000000002;" transform="matrix(1.0, 0.0, 0.0, 1.0, 0.0, 0.0)"><path d="M 0.0 -2.0 L 0.0 2.0" style="vector-effect: non-scaling-stroke;fill:none;" /></g></g></g></g></g></g></g><g style="stroke: black;stroke-width: 1.2000000000000002;" transform="matrix(1.0, 0.0, 0.0, 1.0, 0.41500000000000004, 0.0)"><g /></g></g><g transform="matrix(1.0, 0.0, 0.0, 1.0, 0.43000000000000005, 0.0)"><g transform="matrix(1.0, 0.0, 0.0, 1.0, 0.075, 0.0)"><g transform="matrix(1.0, 0.0, 0.0, 1.0, 0.0, 0.03)"><g transform="matrix(0.01, 0.0, 0.0, 0.01, 0.0, 0.0)"><g><g><g transform="matrix(1.0, 0.0, 0.0, 1.0, 12.5, 0.0)"><g transform="matrix(1.0, 0.0, 0.0, 1.0, -20.0, -0.0)"><g><g style="fill: #d3d3d3;stroke: black;stroke-width: 1.2000000000000002;" transform="matrix(1.0, 0.0, 0.0, 1.0, 0.0, -3.0)"><path d="M 0.0 0.0 L 40.0 0.0 L 40.0 6.0 L 0.0 6.0 L 0.0 0.0 Z" style="vector-effect: non-scaling-stroke;" /></g><g transform="matrix(1.0, 0.0, 0.0, 1.0, 1.875, 0.0)"><g><g style="stroke: black;stroke-width: 1.2000000000000002;" transform="matrix(1.0, 0.0, 0.0, 1.0, 0.0, 0.0)"><g /></g><g style="fill: #ffa500;stroke: black;stroke-width: 1.2000000000000002;" transform="matrix(1.0, 0.0, 0.0, 1.0, 1.875, 0.0)"><text style="text-align:center; text-anchor:middle; dominant-baseline:middle;&#10;                      font-family:sans-serif; font-weight: bold;&#10;                      font-size:3px;&#10;                      vector-effect: non-scaling-stroke;" transform="translate(-5e-05, 0)">y</text></g></g></g></g></g></g><g><g><g><g style="stroke: black;stroke-width: 1.2000000000000002;" transform="matrix(1.0, 0.0, 0.0, 1.0, 0.0, 0.0)"><path d="M 0.0 -2.0 L 0.0 2.0" style="vector-effect: non-scaling-stroke;fill:none;" /></g><g style="stroke: #808080;stroke-width: 0.6000000000000001;" transform="matrix(1.0, 0.0, 0.0, 1.0, 0.0, 0.0)"><path d="M 0.0 0.0 L 25.0 0.0" style="vector-effect: non-scaling-stroke;fill:none;" /></g></g><g style="stroke: black;stroke-width: 2.4000000000000004;" transform="matrix(1.0, 0.0, 0.0, 1.0, 0.0, 0.0)"><path d="M 0.0 0.0058234576135873795 L 1.0 0.0058234576135873795 L 1.0 -1.0786224603652954 L 2.0 -1.0786224603652954 L 2.0 -0.603357195854187 L 3.0 -0.603357195854187 L 3.0 -0.774581789970398 L 4.0 -0.774581789970398 L 4.0 -0.32056427001953125 L 5.0 -0.32056427001953125 L 5.0 -0.13431136310100555 L 6.0 -0.13431136310100555 L 6.0 -0.7048913836479187 L 7.0 -0.7048913836479187 L 7.0 -0.9286437630653381 L 8.0 -0.9286437630653381 L 8.0 -0.566573441028595 L 9.0 -0.566573441028595 L 9.0 -0.8370925784111023 L 10.0 -0.8370925784111023 L 10.0 -1.097080111503601 L 11.0 -1.097080111503601 L 11.0 -1.520912528038025 L 12.0 -1.520912528038025 L 12.0 -0.42788299918174744 L 13.0 -0.42788299918174744 L 13.0 -0.9847083687782288 L 14.0 -0.9847083687782288 L 14.0 -1.7939623594284058 L 15.0 -1.7939623594284058 L 15.0 -1.3936399221420288 L 16.0 -1.3936399221420288 L 16.0 -0.647120475769043 L 17.0 -0.647120475769043 L 17.0 -1.794860601425171 L 18.0 -1.794860601425171 L 18.0 0.024191511794924736 L 19.0 0.024191511794924736 L 19.0 -0.2459212690591812 L 20.0 -0.2459212690591812 L 20.0 -1.0625756978988647 L 21.0 -1.0625756978988647 L 21.0 -0.7969610691070557 L 22.0 -0.7969610691070557 L 22.0 -1.5579208135604858 L 23.0 -1.5579208135604858 L 23.0 -0.23981119692325592 L 24.0 -0.23981119692325592 L 24.0 -0.12162651866674423 L 25.0 -0.12162651866674423" style="vector-effect: non-scaling-stroke;fill:none;" /></g></g></g></g><g><g><g><g style="stroke: black;stroke-width: 1.2000000000000002;" transform="matrix(1.0, 0.0, 0.0, 1.0, 0.0, 0.0)"><path d="M 0.0 -2.0 L 0.0 2.0" style="vector-effect: non-scaling-stroke;fill:none;" /></g><g style="stroke: #808080;stroke-width: 0.6000000000000001;" transform="matrix(1.0, 0.0, 0.0, 1.0, 0.0, 0.0)"><path d="M 0.0 0.0 L 25.0 0.0" style="vector-effect: non-scaling-stroke;fill:none;" /></g></g><g style="stroke: black;stroke-width: 2.4000000000000004;" transform="matrix(1.0, 0.0, 0.0, 1.0, 0.0, 0.0)"><path d="M 0.0 0.0058234576135873795 L 1.0 0.0058234576135873795 L 1.0 -1.0786224603652954 L 2.0 -1.0786224603652954 L 2.0 -0.603357195854187 L 3.0 -0.603357195854187 L 3.0 -0.774581789970398 L 4.0 -0.774581789970398 L 4.0 -0.32056427001953125 L 5.0 -0.32056427001953125 L 5.0 -0.13431136310100555 L 6.0 -0.13431136310100555 L 6.0 -0.7048913836479187 L 7.0 -0.7048913836479187 L 7.0 -0.9286437630653381 L 8.0 -0.9286437630653381 L 8.0 -0.566573441028595 L 9.0 -0.566573441028595 L 9.0 -0.8370925784111023 L 10.0 -0.8370925784111023 L 10.0 -1.097080111503601 L 11.0 -1.097080111503601 L 11.0 -1.520912528038025 L 12.0 -1.520912528038025 L 12.0 -0.42788299918174744 L 13.0 -0.42788299918174744 L 13.0 -0.9847083687782288 L 14.0 -0.9847083687782288 L 14.0 -1.7939623594284058 L 15.0 -1.7939623594284058 L 15.0 -1.3936399221420288 L 16.0 -1.3936399221420288 L 16.0 -0.647120475769043 L 17.0 -0.647120475769043 L 17.0 -1.794860601425171 L 18.0 -1.794860601425171 L 18.0 0.024191511794924736 L 19.0 0.024191511794924736 L 19.0 -0.2459212690591812 L 20.0 -0.2459212690591812 L 20.0 -1.0625756978988647 L 21.0 -1.0625756978988647 L 21.0 -0.7969610691070557 L 22.0 -0.7969610691070557 L 22.0 -1.5579208135604858 L 23.0 -1.5579208135604858 L 23.0 -0.23981119692325592 L 24.0 -0.23981119692325592 L 24.0 -0.12162651866674423 L 25.0 -0.12162651866674423" style="vector-effect: non-scaling-stroke;fill:none;" /></g></g></g></g></g></g></g></g></g></g><g style="stroke: black;stroke-width: 1.2000000000000002;" transform="matrix(0.0, -1.0, 1.0, 0.0, 0.0, 0.08)"><g /></g></g><g transform="matrix(1.0, 0.0, 0.0, 1.0, 0.0, 0.16)"><g transform="matrix(1.0, 0.0, 0.0, 1.0, -0.2, -0.03)"><g transform="matrix(1.0, 0.0, 0.0, 1.0, 0.075, 0.0)"><g transform="matrix(1.0, 0.0, 0.0, 1.0, 0.0, 0.03)"><g transform="matrix(0.01, 0.0, 0.0, 0.01, 0.0, 0.0)"><g><g><g transform="matrix(1.0, 0.0, 0.0, 1.0, 12.5, 0.0)"><g transform="matrix(1.0, 0.0, 0.0, 1.0, -20.0, -0.0)"><g><g style="fill: #d3d3d3;stroke: black;stroke-width: 1.2000000000000002;" transform="matrix(1.0, 0.0, 0.0, 1.0, 0.0, -3.0)"><path d="M 0.0 0.0 L 40.0 0.0 L 40.0 6.0 L 0.0 6.0 L 0.0 0.0 Z" style="vector-effect: non-scaling-stroke;" /></g><g transform="matrix(1.0, 0.0, 0.0, 1.0, 1.875, 0.0)"><g><g style="stroke: black;stroke-width: 1.2000000000000002;" transform="matrix(1.0, 0.0, 0.0, 1.0, 0.0, 0.0)"><g /></g><g style="fill: #ffa500;stroke: black;stroke-width: 1.2000000000000002;" transform="matrix(1.0, 0.0, 0.0, 1.0, 1.875, 0.0)"><text style="text-align:center; text-anchor:middle; dominant-baseline:middle;&#10;                      font-family:sans-serif; font-weight: bold;&#10;                      font-size:3px;&#10;                      vector-effect: non-scaling-stroke;" transform="translate(-5e-05, 0)">f(x)</text></g></g></g></g></g></g><g><g><g><g style="stroke: black;stroke-width: 1.2000000000000002;" transform="matrix(1.0, 0.0, 0.0, 1.0, 0.0, 0.0)"><path d="M 0.0 -2.0 L 0.0 2.0" style="vector-effect: non-scaling-stroke;fill:none;" /></g><g style="stroke: #808080;stroke-width: 0.6000000000000001;" transform="matrix(1.0, 0.0, 0.0, 1.0, 0.0, 0.0)"><path d="M 0.0 0.0 L 25.0 0.0" style="vector-effect: non-scaling-stroke;fill:none;" /></g></g><g style="stroke: black;stroke-width: 2.4000000000000004;" transform="matrix(1.0, 0.0, 0.0, 1.0, 0.0, 0.0)"><path d="M 0.0 -0.001832803594879806 L 1.0 -0.001832803594879806 L 1.0 -0.41150447726249695 L 2.0 -0.41150447726249695 L 2.0 0.22394829988479614 L 3.0 0.22394829988479614 L 3.0 -0.27865585684776306 L 4.0 -0.27865585684776306 L 4.0 -0.13633882999420166 L 5.0 -0.13633882999420166 L 5.0 -0.0027952808886766434 L 6.0 -0.0027952808886766434 L 6.0 -0.19013060629367828 L 7.0 -0.19013060629367828 L 7.0 0.30235832929611206 L 8.0 0.30235832929611206 L 8.0 -0.28245800733566284 L 9.0 -0.28245800733566284 L 9.0 -0.15610170364379883 L 10.0 -0.15610170364379883 L 10.0 -0.6121665239334106 L 11.0 -0.6121665239334106 L 11.0 -0.815479576587677 L 12.0 -0.815479576587677 L 12.0 -0.28651222586631775 L 13.0 -0.28651222586631775 L 13.0 -0.3381374776363373 L 14.0 -0.3381374776363373 L 14.0 0.2572064697742462 L 15.0 0.2572064697742462 L 15.0 -0.7028828263282776 L 16.0 -0.7028828263282776 L 16.0 -0.1794000267982483 L 17.0 -0.1794000267982483 L 17.0 -1.1660946607589722 L 18.0 -1.1660946607589722 L 18.0 0.001370014389976859 L 19.0 0.001370014389976859 L 19.0 -0.1065429151058197 L 20.0 -0.1065429151058197 L 20.0 -0.06645139306783676 L 21.0 -0.06645139306783676 L 21.0 -0.7168294787406921 L 22.0 -0.7168294787406921 L 22.0 -0.24463754892349243 L 23.0 -0.24463754892349243 L 23.0 -0.1166987344622612 L 24.0 -0.1166987344622612 L 24.0 -0.05208685249090195 L 25.0 -0.05208685249090195" style="vector-effect: non-scaling-stroke;fill:none;" /></g></g></g></g><g><g><g><g style="stroke: black;stroke-width: 1.2000000000000002;" transform="matrix(1.0, 0.0, 0.0, 1.0, 0.0, 0.0)"><path d="M 0.0 -2.0 L 0.0 2.0" style="vector-effect: non-scaling-stroke;fill:none;" /></g><g style="stroke: #808080;stroke-width: 0.6000000000000001;" transform="matrix(1.0, 0.0, 0.0, 1.0, 0.0, 0.0)"><path d="M 0.0 0.0 L 25.0 0.0" style="vector-effect: non-scaling-stroke;fill:none;" /></g></g><g style="stroke: black;stroke-width: 2.4000000000000004;" transform="matrix(1.0, 0.0, 0.0, 1.0, 0.0, 0.0)"><path d="M 0.0 -0.001832803594879806 L 1.0 -0.001832803594879806 L 1.0 -0.41150447726249695 L 2.0 -0.41150447726249695 L 2.0 0.22394829988479614 L 3.0 0.22394829988479614 L 3.0 -0.27865585684776306 L 4.0 -0.27865585684776306 L 4.0 -0.13633882999420166 L 5.0 -0.13633882999420166 L 5.0 -0.0027952808886766434 L 6.0 -0.0027952808886766434 L 6.0 -0.19013060629367828 L 7.0 -0.19013060629367828 L 7.0 0.30235832929611206 L 8.0 0.30235832929611206 L 8.0 -0.28245800733566284 L 9.0 -0.28245800733566284 L 9.0 -0.15610170364379883 L 10.0 -0.15610170364379883 L 10.0 -0.6121665239334106 L 11.0 -0.6121665239334106 L 11.0 -0.815479576587677 L 12.0 -0.815479576587677 L 12.0 -0.28651222586631775 L 13.0 -0.28651222586631775 L 13.0 -0.3381374776363373 L 14.0 -0.3381374776363373 L 14.0 0.2572064697742462 L 15.0 0.2572064697742462 L 15.0 -0.7028828263282776 L 16.0 -0.7028828263282776 L 16.0 -0.1794000267982483 L 17.0 -0.1794000267982483 L 17.0 -1.1660946607589722 L 18.0 -1.1660946607589722 L 18.0 0.001370014389976859 L 19.0 0.001370014389976859 L 19.0 -0.1065429151058197 L 20.0 -0.1065429151058197 L 20.0 -0.06645139306783676 L 21.0 -0.06645139306783676 L 21.0 -0.7168294787406921 L 22.0 -0.7168294787406921 L 22.0 -0.24463754892349243 L 23.0 -0.24463754892349243 L 23.0 -0.1166987344622612 L 24.0 -0.1166987344622612 L 24.0 -0.05208685249090195 L 25.0 -0.05208685249090195" style="vector-effect: non-scaling-stroke;fill:none;" /></g></g></g></g></g></g></g></g></g></g><g transform="matrix(1.0, 0.0, 0.0, 1.0, -0.125, 0.16)"><g transform="matrix(1.0, 0.0, 0.0, 0.009999999999999995, 0.0, 0.0)"><g transform="matrix(0.01, 0.0, 0.0, 1.0, 0.0, 0.0)"><g><g><g style="fill: #ffffe0;stroke: #ffffe0;stroke-width: 1.2000000000000002;fill-opacity: 0.5;" transform="matrix(1.0, 0.0, 0.0, 1.0, 0.0, 0.0)"><path d="M 0.0 -2.0 L 0.0 2.0" style="vector-effect: non-scaling-stroke;fill:none;" /></g><g style="fill: #ffffe0;stroke: #ffffe0;stroke-width: 1.2000000000000002;fill-opacity: 0.5;" transform="matrix(1.0, 0.0, 0.0, 1.0, 0.0, 0.0)"><path d="M 0.0 0.003999603912234306 L 1.0 0.003999603912234306 L 1.0 -1.4903485774993896 L 2.0 -1.4903485774993896 L 2.0 -0.3810388445854187 L 3.0 -0.3810388445854187 L 3.0 -1.0535162687301636 L 4.0 -1.0535162687301636 L 4.0 -0.45820391178131104 L 5.0 -0.45820391178131104 L 5.0 -0.13711528480052948 L 6.0 -0.13711528480052948 L 6.0 -0.896445631980896 L 7.0 -0.896445631980896 L 7.0 -0.6274741291999817 L 8.0 -0.6274741291999817 L 8.0 -0.8487021327018738 L 9.0 -0.8487021327018738 L 9.0 -0.9935469627380371 L 10.0 -0.9935469627380371 L 10.0 -1.7148524522781372 L 11.0 -1.7148524522781372 L 11.0 -2.0 L 12.0 -2.0 L 12.0 -0.7156656980514526 L 13.0 -0.7156656980514526 L 13.0 -1.3245943784713745 L 14.0 -1.3245943784713745 L 14.0 -1.5339131355285645 L 15.0 -1.5339131355285645 L 15.0 -2.0 L 16.0 -2.0 L 16.0 -0.8276005387306213 L 17.0 -0.8276005387306213 L 17.0 -2.0 L 18.0 -2.0 L 18.0 0.025561118498444557 L 19.0 0.025561118498444557 L 19.0 -0.3531571328639984 L 20.0 -0.3531571328639984 L 20.0 -1.1289042234420776 L 21.0 -1.1289042234420776 L 21.0 -1.5155317783355713 L 22.0 -1.5155317783355713 L 22.0 -1.8018088340759277 L 23.0 -1.8018088340759277 L 23.0 -0.35660743713378906 L 24.0 -0.35660743713378906 L 24.0 -0.17390385270118713 L 25.0 -0.17390385270118713 L 25.0 -0.05208685249090195 L 24.0 -0.05208685249090195 L 24.0 -0.1166987344622612 L 23.0 -0.1166987344622612 L 23.0 -0.24463754892349243 L 22.0 -0.24463754892349243 L 22.0 -0.7168294787406921 L 21.0 -0.7168294787406921 L 21.0 -0.06645139306783676 L 20.0 -0.06645139306783676 L 20.0 -0.1065429151058197 L 19.0 -0.1065429151058197 L 19.0 0.001370014389976859 L 18.0 0.001370014389976859 L 18.0 -1.1660946607589722 L 17.0 -1.1660946607589722 L 17.0 -0.1794000267982483 L 16.0 -0.1794000267982483 L 16.0 -0.7028828263282776 L 15.0 -0.7028828263282776 L 15.0 0.2572064697742462 L 14.0 0.2572064697742462 L 14.0 -0.3381374776363373 L 13.0 -0.3381374776363373 L 13.0 -0.28651222586631775 L 12.0 -0.28651222586631775 L 12.0 -0.815479576587677 L 11.0 -0.815479576587677 L 11.0 -0.6121665239334106 L 10.0 -0.6121665239334106 L 10.0 -0.15610170364379883 L 9.0 -0.15610170364379883 L 9.0 -0.28245800733566284 L 8.0 -0.28245800733566284 L 8.0 0.30235832929611206 L 7.0 0.30235832929611206 L 7.0 -0.19013060629367828 L 6.0 -0.19013060629367828 L 6.0 -0.0027952808886766434 L 5.0 -0.0027952808886766434 L 5.0 -0.13633882999420166 L 4.0 -0.13633882999420166 L 4.0 -0.27865585684776306 L 3.0 -0.27865585684776306 L 3.0 0.22394829988479614 L 2.0 0.22394829988479614 L 2.0 -0.41150447726249695 L 1.0 -0.41150447726249695 L 1.0 -0.001832803594879806 L 0.0 -0.001832803594879806 Z" style="vector-effect: non-scaling-stroke;" /></g></g><g style="stroke: black;stroke-width: 1.2000000000000002;" transform="matrix(1.0, 0.0, 0.0, 1.0, 0.0, 0.0)"><path d="M 0.0 -0.001832803594879806 L 1.0 -0.001832803594879806 L 1.0 -0.41150447726249695 L 2.0 -0.41150447726249695 L 2.0 0.22394829988479614 L 3.0 0.22394829988479614 L 3.0 -0.27865585684776306 L 4.0 -0.27865585684776306 L 4.0 -0.13633882999420166 L 5.0 -0.13633882999420166 L 5.0 -0.0027952808886766434 L 6.0 -0.0027952808886766434 L 6.0 -0.19013060629367828 L 7.0 -0.19013060629367828 L 7.0 0.30235832929611206 L 8.0 0.30235832929611206 L 8.0 -0.28245800733566284 L 9.0 -0.28245800733566284 L 9.0 -0.15610170364379883 L 10.0 -0.15610170364379883 L 10.0 -0.6121665239334106 L 11.0 -0.6121665239334106 L 11.0 -0.815479576587677 L 12.0 -0.815479576587677 L 12.0 -0.28651222586631775 L 13.0 -0.28651222586631775 L 13.0 -0.3381374776363373 L 14.0 -0.3381374776363373 L 14.0 0.2572064697742462 L 15.0 0.2572064697742462 L 15.0 -0.7028828263282776 L 16.0 -0.7028828263282776 L 16.0 -0.1794000267982483 L 17.0 -0.1794000267982483 L 17.0 -1.1660946607589722 L 18.0 -1.1660946607589722 L 18.0 0.001370014389976859 L 19.0 0.001370014389976859 L 19.0 -0.1065429151058197 L 20.0 -0.1065429151058197 L 20.0 -0.06645139306783676 L 21.0 -0.06645139306783676 L 21.0 -0.7168294787406921 L 22.0 -0.7168294787406921 L 22.0 -0.24463754892349243 L 23.0 -0.24463754892349243 L 23.0 -0.1166987344622612 L 24.0 -0.1166987344622612 L 24.0 -0.05208685249090195 L 25.0 -0.05208685249090195" style="vector-effect: non-scaling-stroke;fill:none;" /></g></g></g></g></g></g><g transform="matrix(1.0, 0.0, 0.0, 1.0, -0.125, 0.16)"><g transform="matrix(1.0, 0.0, 0.0, 0.009999999999999995, 0.0, 0.0)"><g transform="matrix(0.01, 0.0, 0.0, 1.0, 0.0, 0.0)"><g><g><g style="fill: #add8e6;stroke: #add8e6;stroke-width: 1.2000000000000002;fill-opacity: 0.5;" transform="matrix(1.0, 0.0, 0.0, 1.0, 0.0, 0.0)"><path d="M 0.0 -2.0 L 0.0 2.0" style="vector-effect: non-scaling-stroke;fill:none;" /></g><g style="fill: #add8e6;stroke: #add8e6;stroke-width: 1.2000000000000002;fill-opacity: 0.5;" transform="matrix(1.0, 0.0, 0.0, 1.0, 0.0, 0.0)"><path d="M 0.0 0.6276364922523499 L 1.0 0.6276364922523499 L 1.0 -1.1744439601898193 L 2.0 -1.1744439601898193 L 2.0 0.9675162434577942 L 3.0 0.9675162434577942 L 3.0 -0.9968918561935425 L 4.0 -0.9968918561935425 L 4.0 -0.9871951341629028 L 5.0 -0.9871951341629028 L 5.0 -0.044425398111343384 L 6.0 -0.044425398111343384 L 6.0 -0.731042742729187 L 7.0 -0.731042742729187 L 7.0 0.9550291895866394 L 8.0 0.9550291895866394 L 8.0 -1.2808358669281006 L 9.0 -1.2808358669281006 L 9.0 -0.530120849609375 L 10.0 -0.530120849609375 L 10.0 -1.7327338457107544 L 11.0 -1.7327338457107544 L 11.0 -1.8883631229400635 L 12.0 -1.8883631229400635 L 12.0 -1.6246365308761597 L 13.0 -1.6246365308761597 L 13.0 -1.0235909223556519 L 14.0 -1.0235909223556519 L 14.0 0.5462889671325684 L 15.0 0.5462889671325684 L 15.0 -1.7102012634277344 L 16.0 -1.7102012634277344 L 16.0 -0.7352133393287659 L 17.0 -0.7352133393287659 L 17.0 -2.0 L 18.0 -2.0 L 18.0 -0.11189045757055283 L 19.0 -0.11189045757055283 L 19.0 -0.9730454683303833 L 20.0 -0.9730454683303833 L 20.0 -0.19236621260643005 L 21.0 -0.19236621260643005 L 21.0 -2.0 L 22.0 -2.0 L 22.0 -0.559052050113678 L 23.0 -0.559052050113678 L 23.0 -1.0897445678710938 L 24.0 -1.0897445678710938 L 24.0 -0.9085310697555542 L 25.0 -0.9085310697555542 L 25.0 -0.05208685249090195 L 24.0 -0.05208685249090195 L 24.0 -0.1166987344622612 L 23.0 -0.1166987344622612 L 23.0 -0.24463754892349243 L 22.0 -0.24463754892349243 L 22.0 -0.7168294787406921 L 21.0 -0.7168294787406921 L 21.0 -0.06645139306783676 L 20.0 -0.06645139306783676 L 20.0 -0.1065429151058197 L 19.0 -0.1065429151058197 L 19.0 0.001370014389976859 L 18.0 0.001370014389976859 L 18.0 -1.1660946607589722 L 17.0 -1.1660946607589722 L 17.0 -0.1794000267982483 L 16.0 -0.1794000267982483 L 16.0 -0.7028828263282776 L 15.0 -0.7028828263282776 L 15.0 0.2572064697742462 L 14.0 0.2572064697742462 L 14.0 -0.3381374776363373 L 13.0 -0.3381374776363373 L 13.0 -0.28651222586631775 L 12.0 -0.28651222586631775 L 12.0 -0.815479576587677 L 11.0 -0.815479576587677 L 11.0 -0.6121665239334106 L 10.0 -0.6121665239334106 L 10.0 -0.15610170364379883 L 9.0 -0.15610170364379883 L 9.0 -0.28245800733566284 L 8.0 -0.28245800733566284 L 8.0 0.30235832929611206 L 7.0 0.30235832929611206 L 7.0 -0.19013060629367828 L 6.0 -0.19013060629367828 L 6.0 -0.0027952808886766434 L 5.0 -0.0027952808886766434 L 5.0 -0.13633882999420166 L 4.0 -0.13633882999420166 L 4.0 -0.27865585684776306 L 3.0 -0.27865585684776306 L 3.0 0.22394829988479614 L 2.0 0.22394829988479614 L 2.0 -0.41150447726249695 L 1.0 -0.41150447726249695 L 1.0 -0.001832803594879806 L 0.0 -0.001832803594879806 Z" style="vector-effect: non-scaling-stroke;" /></g></g><g style="stroke: black;stroke-width: 1.2000000000000002;" transform="matrix(1.0, 0.0, 0.0, 1.0, 0.0, 0.0)"><path d="M 0.0 -0.001832803594879806 L 1.0 -0.001832803594879806 L 1.0 -0.41150447726249695 L 2.0 -0.41150447726249695 L 2.0 0.22394829988479614 L 3.0 0.22394829988479614 L 3.0 -0.27865585684776306 L 4.0 -0.27865585684776306 L 4.0 -0.13633882999420166 L 5.0 -0.13633882999420166 L 5.0 -0.0027952808886766434 L 6.0 -0.0027952808886766434 L 6.0 -0.19013060629367828 L 7.0 -0.19013060629367828 L 7.0 0.30235832929611206 L 8.0 0.30235832929611206 L 8.0 -0.28245800733566284 L 9.0 -0.28245800733566284 L 9.0 -0.15610170364379883 L 10.0 -0.15610170364379883 L 10.0 -0.6121665239334106 L 11.0 -0.6121665239334106 L 11.0 -0.815479576587677 L 12.0 -0.815479576587677 L 12.0 -0.28651222586631775 L 13.0 -0.28651222586631775 L 13.0 -0.3381374776363373 L 14.0 -0.3381374776363373 L 14.0 0.2572064697742462 L 15.0 0.2572064697742462 L 15.0 -0.7028828263282776 L 16.0 -0.7028828263282776 L 16.0 -0.1794000267982483 L 17.0 -0.1794000267982483 L 17.0 -1.1660946607589722 L 18.0 -1.1660946607589722 L 18.0 0.001370014389976859 L 19.0 0.001370014389976859 L 19.0 -0.1065429151058197 L 20.0 -0.1065429151058197 L 20.0 -0.06645139306783676 L 21.0 -0.06645139306783676 L 21.0 -0.7168294787406921 L 22.0 -0.7168294787406921 L 22.0 -0.24463754892349243 L 23.0 -0.24463754892349243 L 23.0 -0.1166987344622612 L 24.0 -0.1166987344622612 L 24.0 -0.05208685249090195 L 25.0 -0.05208685249090195" style="vector-effect: non-scaling-stroke;fill:none;" /></g></g></g></g></g></g><g transform="matrix(1.0, 0.0, 0.0, 1.0, -0.125, 0.16)"><g transform="matrix(1.0, 0.0, 0.0, 0.009999999999999995, 0.0, 0.0)"><g transform="matrix(0.01, 0.0, 0.0, 1.0, 0.0, 0.0)"><g><g><g style="fill: #ff8c00;stroke: #ff8c00;stroke-width: 1.2000000000000002;fill-opacity: 0.5;" transform="matrix(1.0, 0.0, 0.0, 1.0, 0.0, 0.0)"><path d="M 0.0 -2.0 L 0.0 2.0" style="vector-effect: non-scaling-stroke;fill:none;" /></g><g style="fill: #ff8c00;stroke: #ff8c00;stroke-width: 1.2000000000000002;fill-opacity: 0.5;" transform="matrix(1.0, 0.0, 0.0, 1.0, 0.0, 0.0)"><path d="M 0.0 -0.001832803594879806 L 1.0 -0.001832803594879806 L 1.0 -0.41150447726249695 L 2.0 -0.41150447726249695 L 2.0 0.22394829988479614 L 3.0 0.22394829988479614 L 3.0 -0.27865585684776306 L 4.0 -0.27865585684776306 L 4.0 -0.13633882999420166 L 5.0 -0.13633882999420166 L 5.0 -0.0027952808886766434 L 6.0 -0.0027952808886766434 L 6.0 -0.19013060629367828 L 7.0 -0.19013060629367828 L 7.0 0.30235832929611206 L 8.0 0.30235832929611206 L 8.0 -0.28245800733566284 L 9.0 -0.28245800733566284 L 9.0 -0.15610170364379883 L 10.0 -0.15610170364379883 L 10.0 -0.6121665239334106 L 11.0 -0.6121665239334106 L 11.0 -0.815479576587677 L 12.0 -0.815479576587677 L 12.0 -0.28651222586631775 L 13.0 -0.28651222586631775 L 13.0 -0.3381374776363373 L 14.0 -0.3381374776363373 L 14.0 0.2572064697742462 L 15.0 0.2572064697742462 L 15.0 -0.7028828263282776 L 16.0 -0.7028828263282776 L 16.0 -0.1794000267982483 L 17.0 -0.1794000267982483 L 17.0 -1.1660946607589722 L 18.0 -1.1660946607589722 L 18.0 0.001370014389976859 L 19.0 0.001370014389976859 L 19.0 -0.1065429151058197 L 20.0 -0.1065429151058197 L 20.0 -0.06645139306783676 L 21.0 -0.06645139306783676 L 21.0 -0.7168294787406921 L 22.0 -0.7168294787406921 L 22.0 -0.24463754892349243 L 23.0 -0.24463754892349243 L 23.0 -0.1166987344622612 L 24.0 -0.1166987344622612 L 24.0 -0.05208685249090195 L 25.0 -0.05208685249090195 L 25.0 -0.05208685249090195 L 24.0 -0.05208685249090195 L 24.0 -0.1166987344622612 L 23.0 -0.1166987344622612 L 23.0 -0.24463754892349243 L 22.0 -0.24463754892349243 L 22.0 -0.7168294787406921 L 21.0 -0.7168294787406921 L 21.0 -0.06645139306783676 L 20.0 -0.06645139306783676 L 20.0 -0.1065429151058197 L 19.0 -0.1065429151058197 L 19.0 0.001370014389976859 L 18.0 0.001370014389976859 L 18.0 -1.1660946607589722 L 17.0 -1.1660946607589722 L 17.0 -0.1794000267982483 L 16.0 -0.1794000267982483 L 16.0 -0.7028828263282776 L 15.0 -0.7028828263282776 L 15.0 0.2572064697742462 L 14.0 0.2572064697742462 L 14.0 -0.3381374776363373 L 13.0 -0.3381374776363373 L 13.0 -0.28651222586631775 L 12.0 -0.28651222586631775 L 12.0 -0.815479576587677 L 11.0 -0.815479576587677 L 11.0 -0.6121665239334106 L 10.0 -0.6121665239334106 L 10.0 -0.15610170364379883 L 9.0 -0.15610170364379883 L 9.0 -0.28245800733566284 L 8.0 -0.28245800733566284 L 8.0 0.30235832929611206 L 7.0 0.30235832929611206 L 7.0 -0.19013060629367828 L 6.0 -0.19013060629367828 L 6.0 -0.0027952808886766434 L 5.0 -0.0027952808886766434 L 5.0 -0.13633882999420166 L 4.0 -0.13633882999420166 L 4.0 -0.27865585684776306 L 3.0 -0.27865585684776306 L 3.0 0.22394829988479614 L 2.0 0.22394829988479614 L 2.0 -0.41150447726249695 L 1.0 -0.41150447726249695 L 1.0 -0.001832803594879806 L 0.0 -0.001832803594879806 Z" style="vector-effect: non-scaling-stroke;" /></g></g><g style="stroke: black;stroke-width: 1.2000000000000002;" transform="matrix(1.0, 0.0, 0.0, 1.0, 0.0, 0.0)"><path d="M 0.0 -0.001832803594879806 L 1.0 -0.001832803594879806 L 1.0 -0.41150447726249695 L 2.0 -0.41150447726249695 L 2.0 0.22394829988479614 L 3.0 0.22394829988479614 L 3.0 -0.27865585684776306 L 4.0 -0.27865585684776306 L 4.0 -0.13633882999420166 L 5.0 -0.13633882999420166 L 5.0 -0.0027952808886766434 L 6.0 -0.0027952808886766434 L 6.0 -0.19013060629367828 L 7.0 -0.19013060629367828 L 7.0 0.30235832929611206 L 8.0 0.30235832929611206 L 8.0 -0.28245800733566284 L 9.0 -0.28245800733566284 L 9.0 -0.15610170364379883 L 10.0 -0.15610170364379883 L 10.0 -0.6121665239334106 L 11.0 -0.6121665239334106 L 11.0 -0.815479576587677 L 12.0 -0.815479576587677 L 12.0 -0.28651222586631775 L 13.0 -0.28651222586631775 L 13.0 -0.3381374776363373 L 14.0 -0.3381374776363373 L 14.0 0.2572064697742462 L 15.0 0.2572064697742462 L 15.0 -0.7028828263282776 L 16.0 -0.7028828263282776 L 16.0 -0.1794000267982483 L 17.0 -0.1794000267982483 L 17.0 -1.1660946607589722 L 18.0 -1.1660946607589722 L 18.0 0.001370014389976859 L 19.0 0.001370014389976859 L 19.0 -0.1065429151058197 L 20.0 -0.1065429151058197 L 20.0 -0.06645139306783676 L 21.0 -0.06645139306783676 L 21.0 -0.7168294787406921 L 22.0 -0.7168294787406921 L 22.0 -0.24463754892349243 L 23.0 -0.24463754892349243 L 23.0 -0.1166987344622612 L 24.0 -0.1166987344622612 L 24.0 -0.05208685249090195 L 25.0 -0.05208685249090195" style="vector-effect: non-scaling-stroke;fill:none;" /></g></g></g></g></g></g><g transform="matrix(1.0, 0.0, 0.0, 1.0, -0.125, 0.16)"><g transform="matrix(1.0, 0.0, 0.0, 0.009999999999999995, 0.0, 0.0)"><g transform="matrix(0.01, 0.0, 0.0, 1.0, 0.0, 0.0)"><g><g><g style="fill: #0000ff;stroke: #0000ff;stroke-width: 1.2000000000000002;fill-opacity: 0.5;" transform="matrix(1.0, 0.0, 0.0, 1.0, 0.0, 0.0)"><path d="M 0.0 -2.0 L 0.0 2.0" style="vector-effect: non-scaling-stroke;fill:none;" /></g><g style="fill: #0000ff;stroke: #0000ff;stroke-width: 1.2000000000000002;fill-opacity: 0.5;" transform="matrix(1.0, 0.0, 0.0, 1.0, 0.0, 0.0)"><path d="M 0.0 -0.001832803594879806 L 1.0 -0.001832803594879806 L 1.0 -0.41150447726249695 L 2.0 -0.41150447726249695 L 2.0 0.22394829988479614 L 3.0 0.22394829988479614 L 3.0 -0.27865585684776306 L 4.0 -0.27865585684776306 L 4.0 -0.13633882999420166 L 5.0 -0.13633882999420166 L 5.0 -0.0027952808886766434 L 6.0 -0.0027952808886766434 L 6.0 -0.19013060629367828 L 7.0 -0.19013060629367828 L 7.0 0.30235832929611206 L 8.0 0.30235832929611206 L 8.0 -0.28245800733566284 L 9.0 -0.28245800733566284 L 9.0 -0.15610170364379883 L 10.0 -0.15610170364379883 L 10.0 -0.6121665239334106 L 11.0 -0.6121665239334106 L 11.0 -0.815479576587677 L 12.0 -0.815479576587677 L 12.0 -0.28651222586631775 L 13.0 -0.28651222586631775 L 13.0 -0.3381374776363373 L 14.0 -0.3381374776363373 L 14.0 0.2572064697742462 L 15.0 0.2572064697742462 L 15.0 -0.7028828263282776 L 16.0 -0.7028828263282776 L 16.0 -0.1794000267982483 L 17.0 -0.1794000267982483 L 17.0 -1.1660946607589722 L 18.0 -1.1660946607589722 L 18.0 0.001370014389976859 L 19.0 0.001370014389976859 L 19.0 -0.1065429151058197 L 20.0 -0.1065429151058197 L 20.0 -0.06645139306783676 L 21.0 -0.06645139306783676 L 21.0 -0.7168294787406921 L 22.0 -0.7168294787406921 L 22.0 -0.24463754892349243 L 23.0 -0.24463754892349243 L 23.0 -0.1166987344622612 L 24.0 -0.1166987344622612 L 24.0 -0.05208685249090195 L 25.0 -0.05208685249090195 L 25.0 -0.05208685249090195 L 24.0 -0.05208685249090195 L 24.0 -0.1166987344622612 L 23.0 -0.1166987344622612 L 23.0 -0.24463754892349243 L 22.0 -0.24463754892349243 L 22.0 -0.7168294787406921 L 21.0 -0.7168294787406921 L 21.0 -0.06645139306783676 L 20.0 -0.06645139306783676 L 20.0 -0.1065429151058197 L 19.0 -0.1065429151058197 L 19.0 0.001370014389976859 L 18.0 0.001370014389976859 L 18.0 -1.1660946607589722 L 17.0 -1.1660946607589722 L 17.0 -0.1794000267982483 L 16.0 -0.1794000267982483 L 16.0 -0.7028828263282776 L 15.0 -0.7028828263282776 L 15.0 0.2572064697742462 L 14.0 0.2572064697742462 L 14.0 -0.3381374776363373 L 13.0 -0.3381374776363373 L 13.0 -0.28651222586631775 L 12.0 -0.28651222586631775 L 12.0 -0.815479576587677 L 11.0 -0.815479576587677 L 11.0 -0.6121665239334106 L 10.0 -0.6121665239334106 L 10.0 -0.15610170364379883 L 9.0 -0.15610170364379883 L 9.0 -0.28245800733566284 L 8.0 -0.28245800733566284 L 8.0 0.30235832929611206 L 7.0 0.30235832929611206 L 7.0 -0.19013060629367828 L 6.0 -0.19013060629367828 L 6.0 -0.0027952808886766434 L 5.0 -0.0027952808886766434 L 5.0 -0.13633882999420166 L 4.0 -0.13633882999420166 L 4.0 -0.27865585684776306 L 3.0 -0.27865585684776306 L 3.0 0.22394829988479614 L 2.0 0.22394829988479614 L 2.0 -0.41150447726249695 L 1.0 -0.41150447726249695 L 1.0 -0.001832803594879806 L 0.0 -0.001832803594879806 Z" style="vector-effect: non-scaling-stroke;" /></g></g><g style="stroke: black;stroke-width: 1.2000000000000002;" transform="matrix(1.0, 0.0, 0.0, 1.0, 0.0, 0.0)"><path d="M 0.0 -0.001832803594879806 L 1.0 -0.001832803594879806 L 1.0 -0.41150447726249695 L 2.0 -0.41150447726249695 L 2.0 0.22394829988479614 L 3.0 0.22394829988479614 L 3.0 -0.27865585684776306 L 4.0 -0.27865585684776306 L 4.0 -0.13633882999420166 L 5.0 -0.13633882999420166 L 5.0 -0.0027952808886766434 L 6.0 -0.0027952808886766434 L 6.0 -0.19013060629367828 L 7.0 -0.19013060629367828 L 7.0 0.30235832929611206 L 8.0 0.30235832929611206 L 8.0 -0.28245800733566284 L 9.0 -0.28245800733566284 L 9.0 -0.15610170364379883 L 10.0 -0.15610170364379883 L 10.0 -0.6121665239334106 L 11.0 -0.6121665239334106 L 11.0 -0.815479576587677 L 12.0 -0.815479576587677 L 12.0 -0.28651222586631775 L 13.0 -0.28651222586631775 L 13.0 -0.3381374776363373 L 14.0 -0.3381374776363373 L 14.0 0.2572064697742462 L 15.0 0.2572064697742462 L 15.0 -0.7028828263282776 L 16.0 -0.7028828263282776 L 16.0 -0.1794000267982483 L 17.0 -0.1794000267982483 L 17.0 -1.1660946607589722 L 18.0 -1.1660946607589722 L 18.0 0.001370014389976859 L 19.0 0.001370014389976859 L 19.0 -0.1065429151058197 L 20.0 -0.1065429151058197 L 20.0 -0.06645139306783676 L 21.0 -0.06645139306783676 L 21.0 -0.7168294787406921 L 22.0 -0.7168294787406921 L 22.0 -0.24463754892349243 L 23.0 -0.24463754892349243 L 23.0 -0.1166987344622612 L 24.0 -0.1166987344622612 L 24.0 -0.05208685249090195 L 25.0 -0.05208685249090195" style="vector-effect: non-scaling-stroke;fill:none;" /></g></g></g></g></g></g></g></g><g /></g></g></g></g></svg>