<?xml version="1.0" encoding="utf-8" ?>
<svg baseProfile="full" height="300" version="1.1" width="1126" xmlns="http://www.w3.org/2000/svg" xmlns:ev="http://www.w3.org/2001/xml-events" xmlns:xlink="http://www.w3.org/1999/xlink"><defs><marker id="arrow" markerHeight="3.5" markerWidth="5" orient="auto" refX="5.0" refY="1.7"><polygon points="0,0 5,1.75 0,3.5" /></marker></defs><g style="fill:white;"><g transform="matrix(1.0, 0.0, 0.0, 1.0, 563.313815000755, 150.0)"><g transform="matrix(1062.3551438015181, 0.0, 0.0, 1062.3551438015181, 0.0, 0.0)"><g><g transform="matrix(1.0, 0.0, 0.0, 1.0, -0.0, -0.08000000000000002)"><g><g><g style="fill: #ffffff;stroke: black;stroke-width: 1.2000000000000002;" transform="matrix(1.0, 0.0, 0.0, 1.0, -0.505, -0.05447211480140686)"><path d="M 0.0 0.0 L 1.01 0.0 L 1.01 0.2689442296028137 L 0.0 0.2689442296028137 L 0.0 0.0 Z" style="vector-effect: non-scaling-stroke;" /></g><g><g><g><g><g><g><g><g transform="matrix(1.0, 0.0, 0.0, 1.0, -0.45499999999999996, -0.03206009566783905)"><g><g><g transform="matrix(1.0, 0.0, 0.0, 1.0, 0.075, 0.0)"><g transform="matrix(1.0, 0.0, 0.0, 1.0, 0.0, 0.033433492779731754)"><g transform="matrix(0.01, 0.0, 0.0, 0.01, 0.0, 0.0)"><g><g><g transform="matrix(1.0, 0.0, 0.0, 1.0, 24.5, -0.13733971118927002)"><g transform="matrix(1.0, 0.0, 0.0, 1.0, -32.0, -0.0)"><g><g style="fill: #d3d3d3;stroke: black;stroke-width: 1.2000000000000002;" transform="matrix(1.0, 0.0, 0.0, 1.0, 0.0, -3.206009566783905)"><path d="M 0.0 0.0 L 64.0 0.0 L 64.0 6.41201913356781 L 0.0 6.41201913356781 L 0.0 0.0 Z" style="vector-effect: non-scaling-stroke;" /></g><g transform="matrix(1.0, 0.0, 0.0, 1.0, 1.875, 0.0)"><g><g style="stroke: black;stroke-width: 1.2000000000000002;" transform="matrix(1.0, 0.0, 0.0, 1.0, 0.0, 0.0)"><g /></g><g style="fill: #ffa500;stroke: black;stroke-width: 1.2000000000000002;" transform="matrix(1.0, 0.0, 0.0, 1.0, 1.875, 0.0)"><text style="text-align:center; text-anchor:middle; dominant-baseline:middle;&#10;                      font-family:sans-serif; font-weight: bold;&#10;                      font-size:3px;&#10;                      vector-effect: non-scaling-stroke;" transform="translate(-5e-05, 0)">x</text></g></g></g></g></g></g><g><g><g><g><g><g><g><g><g><g><g style="stroke: black;stroke-width: 1.2000000000000002;" transform="matrix(1.0, 0.0, 0.0, 1.0, 0.0, 0.0)"><path d="M 0.0 -2.0 L 0.0 2.0" style="vector-effect: non-scaling-stroke;fill:none;" /></g><g style="stroke: #808080;stroke-width: 0.6000000000000001;" transform="matrix(1.0, 0.0, 0.0, 1.0, 0.0, 0.0)"><path d="M 0.0 0.0 L 49.0 0.0" style="vector-effect: non-scaling-stroke;fill:none;" /></g></g><g style="stroke: black;stroke-width: 2.4000000000000004;" transform="matrix(1.0, 0.0, 0.0, 1.0, 0.0, 0.0)"><path d="M 0.0 -1.271941900253296 L 1.0 -1.271941900253296 L 1.0 -0.6536965370178223 L 2.0 -0.6536965370178223 L 2.0 -0.6025683879852295 L 3.0 -0.6025683879852295 L 3.0 -0.8052745461463928 L 4.0 -0.8052745461463928 L 4.0 -0.6685252785682678 L 5.0 -0.6685252785682678 L 5.0 -0.7513684034347534 L 6.0 -0.7513684034347534 L 6.0 -1.0916482210159302 L 7.0 -1.0916482210159302 L 7.0 -0.5972484350204468 L 8.0 -0.5972484350204468 L 8.0 -1.311514139175415 L 9.0 -1.311514139175415 L 9.0 -0.8357282876968384 L 10.0 -0.8357282876968384 L 10.0 -0.6276596784591675 L 11.0 -0.6276596784591675 L 11.0 -0.667278528213501 L 12.0 -0.667278528213501 L 12.0 -0.4937891960144043 L 13.0 -0.4937891960144043 L 13.0 -0.4365759789943695 L 14.0 -0.4365759789943695 L 14.0 -1.1623620986938477 L 15.0 -1.1623620986938477 L 15.0 -0.45543041825294495 L 16.0 -0.45543041825294495 L 16.0 -2.088047981262207 L 17.0 -2.088047981262207 L 17.0 -1.3875346183776855 L 18.0 -1.3875346183776855 L 18.0 -2.0934300422668457 L 19.0 -2.0934300422668457 L 19.0 -0.5709395408630371 L 20.0 -0.5709395408630371 L 20.0 -1.4437435865402222 L 21.0 -1.4437435865402222 L 21.0 -0.6986703872680664 L 22.0 -0.6986703872680664 L 22.0 -1.3582696914672852 L 23.0 -1.3582696914672852 L 23.0 -0.8448033928871155 L 24.0 -0.8448033928871155 L 24.0 -1.0638800859451294 L 25.0 -1.0638800859451294 L 25.0 -1.7898458242416382 L 26.0 -1.7898458242416382 L 26.0 -1.4459502696990967 L 27.0 -1.4459502696990967 L 27.0 -2.27467942237854 L 28.0 -2.27467942237854 L 28.0 -1.241532564163208 L 29.0 -1.241532564163208 L 29.0 -2.2072393894195557 L 30.0 -2.2072393894195557 L 30.0 -0.5883698463439941 L 31.0 -0.5883698463439941 L 31.0 -2.1506519317626953 L 32.0 -2.1506519317626953 L 32.0 -1.6369564533233643 L 33.0 -1.6369564533233643 L 33.0 -1.7810934782028198 L 34.0 -1.7810934782028198 L 34.0 -1.7974287271499634 L 35.0 -1.7974287271499634 L 35.0 -2.124265432357788 L 36.0 -2.124265432357788 L 36.0 -1.7872874736785889 L 37.0 -1.7872874736785889 L 37.0 -1.659314513206482 L 38.0 -1.659314513206482 L 38.0 -2.2147130966186523 L 39.0 -2.2147130966186523 L 39.0 -1.7956699132919312 L 40.0 -1.7956699132919312 L 40.0 -0.6127868890762329 L 41.0 -0.6127868890762329 L 41.0 -1.7385826110839844 L 42.0 -1.7385826110839844 L 42.0 -0.4213458299636841 L 43.0 -0.4213458299636841 L 43.0 -1.5525174140930176 L 44.0 -1.5525174140930176 L 44.0 -0.5323589444160461 L 45.0 -0.5323589444160461 L 45.0 -1.4333293437957764 L 46.0 -1.4333293437957764 L 46.0 -1.5160067081451416 L 47.0 -1.5160067081451416 L 47.0 -0.9435988664627075 L 48.0 -0.9435988664627075 L 48.0 -0.5087241530418396 L 49.0 -0.5087241530418396" style="vector-effect: non-scaling-stroke;fill:none;" /></g></g><g style="stroke: black;stroke-width: 1.2000000000000002;" transform="matrix(1.0, 0.0, 0.0, 1.0, 0.0, 0.0)"><path d="M 0.0 -2.0 L 0.0 2.0" style="vector-effect: non-scaling-stroke;fill:none;" /></g></g><g style="stroke: black;stroke-width: 1.2000000000000002;" transform="matrix(1.0, 0.0, 0.0, 1.0, 0.0, 0.0)"><path d="M 7.0 -2.0 L 7.0 2.0" style="vector-effect: non-scaling-stroke;fill:none;" /></g></g><g style="stroke: black;stroke-width: 1.2000000000000002;" transform="matrix(1.0, 0.0, 0.0, 1.0, 0.0, 0.0)"><path d="M 14.0 -2.0 L 14.0 2.0" style="vector-effect: non-scaling-stroke;fill:none;" /></g></g><g style="stroke: black;stroke-width: 1.2000000000000002;" transform="matrix(1.0, 0.0, 0.0, 1.0, 0.0, 0.0)"><path d="M 21.0 -2.0 L 21.0 2.0" style="vector-effect: non-scaling-stroke;fill:none;" /></g></g><g style="stroke: black;stroke-width: 1.2000000000000002;" transform="matrix(1.0, 0.0, 0.0, 1.0, 0.0, 0.0)"><path d="M 28.0 -2.0 L 28.0 2.0" style="vector-effect: non-scaling-stroke;fill:none;" /></g></g><g style="stroke: black;stroke-width: 1.2000000000000002;" transform="matrix(1.0, 0.0, 0.0, 1.0, 0.0, 0.0)"><path d="M 35.0 -2.0 L 35.0 2.0" style="vector-effect: non-scaling-stroke;fill:none;" /></g></g><g style="stroke: black;stroke-width: 1.2000000000000002;" transform="matrix(1.0, 0.0, 0.0, 1.0, 0.0, 0.0)"><path d="M 42.0 -2.0 L 42.0 2.0" style="vector-effect: non-scaling-stroke;fill:none;" /></g></g></g></g><g><g><g><g><g><g><g><g><g><g><g style="stroke: black;stroke-width: 1.2000000000000002;" transform="matrix(1.0, 0.0, 0.0, 1.0, 0.0, 0.0)"><path d="M 0.0 -2.0 L 0.0 2.0" style="vector-effect: non-scaling-stroke;fill:none;" /></g><g style="stroke: #808080;stroke-width: 0.6000000000000001;" transform="matrix(1.0, 0.0, 0.0, 1.0, 0.0, 0.0)"><path d="M 0.0 0.0 L 49.0 0.0" style="vector-effect: non-scaling-stroke;fill:none;" /></g></g><g style="stroke: black;stroke-width: 2.4000000000000004;" transform="matrix(1.0, 0.0, 0.0, 1.0, 0.0, 0.0)"><path d="M 0.0 -1.271941900253296 L 1.0 -1.271941900253296 L 1.0 -0.6536965370178223 L 2.0 -0.6536965370178223 L 2.0 -0.6025683879852295 L 3.0 -0.6025683879852295 L 3.0 -0.8052745461463928 L 4.0 -0.8052745461463928 L 4.0 -0.6685252785682678 L 5.0 -0.6685252785682678 L 5.0 -0.7513684034347534 L 6.0 -0.7513684034347534 L 6.0 -1.0916482210159302 L 7.0 -1.0916482210159302 L 7.0 -0.5972484350204468 L 8.0 -0.5972484350204468 L 8.0 -1.311514139175415 L 9.0 -1.311514139175415 L 9.0 -0.8357282876968384 L 10.0 -0.8357282876968384 L 10.0 -0.6276596784591675 L 11.0 -0.6276596784591675 L 11.0 -0.667278528213501 L 12.0 -0.667278528213501 L 12.0 -0.4937891960144043 L 13.0 -0.4937891960144043 L 13.0 -0.4365759789943695 L 14.0 -0.4365759789943695 L 14.0 -1.1623620986938477 L 15.0 -1.1623620986938477 L 15.0 -0.45543041825294495 L 16.0 -0.45543041825294495 L 16.0 -2.088047981262207 L 17.0 -2.088047981262207 L 17.0 -1.3875346183776855 L 18.0 -1.3875346183776855 L 18.0 -2.0934300422668457 L 19.0 -2.0934300422668457 L 19.0 -0.5709395408630371 L 20.0 -0.5709395408630371 L 20.0 -1.4437435865402222 L 21.0 -1.4437435865402222 L 21.0 -0.6986703872680664 L 22.0 -0.6986703872680664 L 22.0 -1.3582696914672852 L 23.0 -1.3582696914672852 L 23.0 -0.8448033928871155 L 24.0 -0.8448033928871155 L 24.0 -1.0638800859451294 L 25.0 -1.0638800859451294 L 25.0 -1.7898458242416382 L 26.0 -1.7898458242416382 L 26.0 -1.4459502696990967 L 27.0 -1.4459502696990967 L 27.0 -2.27467942237854 L 28.0 -2.27467942237854 L 28.0 -1.241532564163208 L 29.0 -1.241532564163208 L 29.0 -2.2072393894195557 L 30.0 -2.2072393894195557 L 30.0 -0.5883698463439941 L 31.0 -0.5883698463439941 L 31.0 -2.1506519317626953 L 32.0 -2.1506519317626953 L 32.0 -1.6369564533233643 L 33.0 -1.6369564533233643 L 33.0 -1.7810934782028198 L 34.0 -1.7810934782028198 L 34.0 -1.7974287271499634 L 35.0 -1.7974287271499634 L 35.0 -2.124265432357788 L 36.0 -2.124265432357788 L 36.0 -1.7872874736785889 L 37.0 -1.7872874736785889 L 37.0 -1.659314513206482 L 38.0 -1.659314513206482 L 38.0 -2.2147130966186523 L 39.0 -2.2147130966186523 L 39.0 -1.7956699132919312 L 40.0 -1.7956699132919312 L 40.0 -0.6127868890762329 L 41.0 -0.6127868890762329 L 41.0 -1.7385826110839844 L 42.0 -1.7385826110839844 L 42.0 -0.4213458299636841 L 43.0 -0.4213458299636841 L 43.0 -1.5525174140930176 L 44.0 -1.5525174140930176 L 44.0 -0.5323589444160461 L 45.0 -0.5323589444160461 L 45.0 -1.4333293437957764 L 46.0 -1.4333293437957764 L 46.0 -1.5160067081451416 L 47.0 -1.5160067081451416 L 47.0 -0.9435988664627075 L 48.0 -0.9435988664627075 L 48.0 -0.5087241530418396 L 49.0 -0.5087241530418396" style="vector-effect: non-scaling-stroke;fill:none;" /></g></g><g style="stroke: black;stroke-width: 1.2000000000000002;" transform="matrix(1.0, 0.0, 0.0, 1.0, 0.0, 0.0)"><path d="M 0.0 -2.0 L 0.0 2.0" style="vector-effect: non-scaling-stroke;fill:none;" /></g></g><g style="stroke: black;stroke-width: 1.2000000000000002;" transform="matrix(1.0, 0.0, 0.0, 1.0, 0.0, 0.0)"><path d="M 7.0 -2.0 L 7.0 2.0" style="vector-effect: non-scaling-stroke;fill:none;" /></g></g><g style="stroke: black;stroke-width: 1.2000000000000002;" transform="matrix(1.0, 0.0, 0.0, 1.0, 0.0, 0.0)"><path d="M 14.0 -2.0 L 14.0 2.0" style="vector-effect: non-scaling-stroke;fill:none;" /></g></g><g style="stroke: black;stroke-width: 1.2000000000000002;" transform="matrix(1.0, 0.0, 0.0, 1.0, 0.0, 0.0)"><path d="M 21.0 -2.0 L 21.0 2.0" style="vector-effect: non-scaling-stroke;fill:none;" /></g></g><g style="stroke: black;stroke-width: 1.2000000000000002;" transform="matrix(1.0, 0.0, 0.0, 1.0, 0.0, 0.0)"><path d="M 28.0 -2.0 L 28.0 2.0" style="vector-effect: non-scaling-stroke;fill:none;" /></g></g><g style="stroke: black;stroke-width: 1.2000000000000002;" transform="matrix(1.0, 0.0, 0.0, 1.0, 0.0, 0.0)"><path d="M 35.0 -2.0 L 35.0 2.0" style="vector-effect: non-scaling-stroke;fill:none;" /></g></g><g style="stroke: black;stroke-width: 1.2000000000000002;" transform="matrix(1.0, 0.0, 0.0, 1.0, 0.0, 0.0)"><path d="M 42.0 -2.0 L 42.0 2.0" style="vector-effect: non-scaling-stroke;fill:none;" /></g></g></g></g></g></g></g><g style="stroke: black;stroke-width: 1.2000000000000002;" transform="matrix(1.0, 0.0, 0.0, 1.0, 0.6549999999999999, 0.0)"><g /></g></g><g transform="matrix(1.0, 0.0, 0.0, 1.0, 0.6699999999999999, 0.0)"><g transform="matrix(1.0, 0.0, 0.0, 1.0, 0.075, 0.0)"><g transform="matrix(1.0, 0.0, 0.0, 1.0, 0.0, 0.03)"><g transform="matrix(0.01, 0.0, 0.0, 0.01, 0.0, 0.0)"><g><g><g transform="matrix(1.0, 0.0, 0.0, 1.0, 4.5, 0.0)"><g transform="matrix(1.0, 0.0, 0.0, 1.0, -12.0, -0.0)"><g><g style="fill: #d3d3d3;stroke: black;stroke-width: 1.2000000000000002;" transform="matrix(1.0, 0.0, 0.0, 1.0, 0.0, -3.0)"><path d="M 0.0 0.0 L 24.0 0.0 L 24.0 6.0 L 0.0 6.0 L 0.0 0.0 Z" style="vector-effect: non-scaling-stroke;" /></g><g transform="matrix(1.0, 0.0, 0.0, 1.0, 1.875, 0.0)"><g><g style="stroke: black;stroke-width: 1.2000000000000002;" transform="matrix(1.0, 0.0, 0.0, 1.0, 0.0, 0.0)"><g /></g><g style="fill: #ffa500;stroke: black;stroke-width: 1.2000000000000002;" transform="matrix(1.0, 0.0, 0.0, 1.0, 1.875, 0.0)"><text style="text-align:center; text-anchor:middle; dominant-baseline:middle;&#10;                      font-family:sans-serif; font-weight: bold;&#10;                      font-size:3px;&#10;                      vector-effect: non-scaling-stroke;" transform="translate(-5e-05, 0)">y</text></g></g></g></g></g></g><g><g><g><g style="stroke: black;stroke-width: 1.2000000000000002;" transform="matrix(1.0, 0.0, 0.0, 1.0, 0.0, 0.0)"><path d="M 0.0 -2.0 L 0.0 2.0" style="vector-effect: non-scaling-stroke;fill:none;" /></g><g style="stroke: #808080;stroke-width: 0.6000000000000001;" transform="matrix(1.0, 0.0, 0.0, 1.0, 0.0, 0.0)"><path d="M 0.0 0.0 L 9.0 0.0" style="vector-effect: non-scaling-stroke;fill:none;" /></g></g><g style="stroke: black;stroke-width: 2.4000000000000004;" transform="matrix(1.0, 0.0, 0.0, 1.0, 0.0, 0.0)"><path d="M 0.0 -1.6195825338363647 L 1.0 -1.6195825338363647 L 1.0 -1.271941900253296 L 2.0 -1.271941900253296 L 2.0 -0.6536965370178223 L 3.0 -0.6536965370178223 L 3.0 -0.6025683879852295 L 4.0 -0.6025683879852295 L 4.0 -0.8052745461463928 L 5.0 -0.8052745461463928 L 5.0 -0.6685252785682678 L 6.0 -0.6685252785682678 L 6.0 -0.7513684034347534 L 7.0 -0.7513684034347534 L 7.0 -1.0916482210159302 L 8.0 -1.0916482210159302 L 8.0 -0.5972484350204468 L 9.0 -0.5972484350204468" style="vector-effect: non-scaling-stroke;fill:none;" /></g></g></g></g><g><g><g><g style="stroke: black;stroke-width: 1.2000000000000002;" transform="matrix(1.0, 0.0, 0.0, 1.0, 0.0, 0.0)"><path d="M 0.0 -2.0 L 0.0 2.0" style="vector-effect: non-scaling-stroke;fill:none;" /></g><g style="stroke: #808080;stroke-width: 0.6000000000000001;" transform="matrix(1.0, 0.0, 0.0, 1.0, 0.0, 0.0)"><path d="M 0.0 0.0 L 9.0 0.0" style="vector-effect: non-scaling-stroke;fill:none;" /></g></g><g style="stroke: black;stroke-width: 2.4000000000000004;" transform="matrix(1.0, 0.0, 0.0, 1.0, 0.0, 0.0)"><path d="M 0.0 -1.6195825338363647 L 1.0 -1.6195825338363647 L 1.0 -1.271941900253296 L 2.0 -1.271941900253296 L 2.0 -0.6536965370178223 L 3.0 -0.6536965370178223 L 3.0 -0.6025683879852295 L 4.0 -0.6025683879852295 L 4.0 -0.8052745461463928 L 5.0 -0.8052745461463928 L 5.0 -0.6685252785682678 L 6.0 -0.6685252785682678 L 6.0 -0.7513684034347534 L 7.0 -0.7513684034347534 L 7.0 -1.0916482210159302 L 8.0 -1.0916482210159302 L 8.0 -0.5972484350204468 L 9.0 -0.5972484350204468" style="vector-effect: non-scaling-stroke;fill:none;" /></g></g></g></g></g></g></g></g></g></g><g style="stroke: black;stroke-width: 1.2000000000000002;" transform="matrix(0.0, -1.0, 1.0, 0.0, 0.0, 0.08206009566783906)"><g /></g></g><g transform="matrix(1.0, 0.0, 0.0, 1.0, 0.0, 0.16206009566783905)"><g transform="matrix(1.0, 0.0, 0.0, 1.0, -0.2, -0.03)"><g transform="matrix(1.0, 0.0, 0.0, 1.0, 0.075, 0.0)"><g transform="matrix(1.0, 0.0, 0.0, 1.0, 0.0, 0.03)"><g transform="matrix(0.01, 0.0, 0.0, 0.01, 0.0, 0.0)"><g><g><g transform="matrix(1.0, 0.0, 0.0, 1.0, 12.5, 0.0)"><g transform="matrix(1.0, 0.0, 0.0, 1.0, -20.0, -0.0)"><g><g style="fill: #d3d3d3;stroke: black;stroke-width: 1.2000000000000002;" transform="matrix(1.0, 0.0, 0.0, 1.0, 0.0, -3.0)"><path d="M 0.0 0.0 L 40.0 0.0 L 40.0 6.0 L 0.0 6.0 L 0.0 0.0 Z" style="vector-effect: non-scaling-stroke;" /></g><g transform="matrix(1.0, 0.0, 0.0, 1.0, 1.875, 0.0)"><g><g style="stroke: black;stroke-width: 1.2000000000000002;" transform="matrix(1.0, 0.0, 0.0, 1.0, 0.0, 0.0)"><g /></g><g style="fill: #ffa500;stroke: black;stroke-width: 1.2000000000000002;" transform="matrix(1.0, 0.0, 0.0, 1.0, 1.875, 0.0)"><text style="text-align:center; text-anchor:middle; dominant-baseline:middle;&#10;                      font-family:sans-serif; font-weight: bold;&#10;                      font-size:3px;&#10;                      vector-effect: non-scaling-stroke;" transform="translate(-5e-05, 0)">f(x)</text></g></g></g></g></g></g><g><g><g><g style="stroke: black;stroke-width: 1.2000000000000002;" transform="matrix(1.0, 0.0, 0.0, 1.0, 0.0, 0.0)"><path d="M 0.0 -2.0 L 0.0 2.0" style="vector-effect: non-scaling-stroke;fill:none;" /></g><g style="stroke: #808080;stroke-width: 0.6000000000000001;" transform="matrix(1.0, 0.0, 0.0, 1.0, 0.0, 0.0)"><path d="M 0.0 0.0 L 25.0 0.0" style="vector-effect: non-scaling-stroke;fill:none;" /></g></g><g style="stroke: black;stroke-width: 2.4000000000000004;" transform="matrix(1.0, 0.0, 0.0, 1.0, 0.0, 0.0)"><path d="M 0.0 -0.43765050172805786 L 1.0 -0.43765050172805786 L 1.0 -0.42692995071411133 L 2.0 -0.42692995071411133 L 2.0 -0.45701053738594055 L 3.0 -0.45701053738594055 L 3.0 -0.4200107753276825 L 4.0 -0.4200107753276825 L 4.0 -0.3834494352340698 L 5.0 -0.3834494352340698 L 5.0 -0.45317256450653076 L 6.0 -0.45317256450653076 L 6.0 -0.5032818913459778 L 7.0 -0.5032818913459778 L 7.0 -0.5126804709434509 L 8.0 -0.5126804709434509 L 8.0 -0.48380398750305176 L 9.0 -0.48380398750305176 L 9.0 -0.49791115522384644 L 10.0 -0.49791115522384644 L 10.0 -0.5333389639854431 L 11.0 -0.5333389639854431 L 11.0 -0.5608725547790527 L 12.0 -0.5608725547790527 L 12.0 -0.7136071920394897 L 13.0 -0.7136071920394897 L 13.0 -0.7110483646392822 L 14.0 -0.7110483646392822 L 14.0 -0.7262124419212341 L 15.0 -0.7262124419212341 L 15.0 -0.6038077473640442 L 16.0 -0.6038077473640442 L 16.0 -0.6493574976921082 L 17.0 -0.6493574976921082 L 17.0 -0.656060516834259 L 18.0 -0.656060516834259 L 18.0 -0.707774817943573 L 19.0 -0.707774817943573 L 19.0 -0.7168729901313782 L 20.0 -0.7168729901313782 L 20.0 -0.6311535835266113 L 21.0 -0.6311535835266113 L 21.0 -0.6792514324188232 L 22.0 -0.6792514324188232 L 22.0 -0.6451314091682434 L 23.0 -0.6451314091682434 L 23.0 -0.7341789603233337 L 24.0 -0.7341789603233337 L 24.0 -0.6279088854789734 L 25.0 -0.6279088854789734" style="vector-effect: non-scaling-stroke;fill:none;" /></g></g></g></g><g><g><g><g style="stroke: black;stroke-width: 1.2000000000000002;" transform="matrix(1.0, 0.0, 0.0, 1.0, 0.0, 0.0)"><path d="M 0.0 -2.0 L 0.0 2.0" style="vector-effect: non-scaling-stroke;fill:none;" /></g><g style="stroke: #808080;stroke-width: 0.6000000000000001;" transform="matrix(1.0, 0.0, 0.0, 1.0, 0.0, 0.0)"><path d="M 0.0 0.0 L 25.0 0.0" style="vector-effect: non-scaling-stroke;fill:none;" /></g></g><g style="stroke: black;stroke-width: 2.4000000000000004;" transform="matrix(1.0, 0.0, 0.0, 1.0, 0.0, 0.0)"><path d="M 0.0 -0.43765050172805786 L 1.0 -0.43765050172805786 L 1.0 -0.42692995071411133 L 2.0 -0.42692995071411133 L 2.0 -0.45701053738594055 L 3.0 -0.45701053738594055 L 3.0 -0.4200107753276825 L 4.0 -0.4200107753276825 L 4.0 -0.3834494352340698 L 5.0 -0.3834494352340698 L 5.0 -0.45317256450653076 L 6.0 -0.45317256450653076 L 6.0 -0.5032818913459778 L 7.0 -0.5032818913459778 L 7.0 -0.5126804709434509 L 8.0 -0.5126804709434509 L 8.0 -0.48380398750305176 L 9.0 -0.48380398750305176 L 9.0 -0.49791115522384644 L 10.0 -0.49791115522384644 L 10.0 -0.5333389639854431 L 11.0 -0.5333389639854431 L 11.0 -0.5608725547790527 L 12.0 -0.5608725547790527 L 12.0 -0.7136071920394897 L 13.0 -0.7136071920394897 L 13.0 -0.7110483646392822 L 14.0 -0.7110483646392822 L 14.0 -0.7262124419212341 L 15.0 -0.7262124419212341 L 15.0 -0.6038077473640442 L 16.0 -0.6038077473640442 L 16.0 -0.6493574976921082 L 17.0 -0.6493574976921082 L 17.0 -0.656060516834259 L 18.0 -0.656060516834259 L 18.0 -0.707774817943573 L 19.0 -0.707774817943573 L 19.0 -0.7168729901313782 L 20.0 -0.7168729901313782 L 20.0 -0.6311535835266113 L 21.0 -0.6311535835266113 L 21.0 -0.6792514324188232 L 22.0 -0.6792514324188232 L 22.0 -0.6451314091682434 L 23.0 -0.6451314091682434 L 23.0 -0.7341789603233337 L 24.0 -0.7341789603233337 L 24.0 -0.6279088854789734 L 25.0 -0.6279088854789734" style="vector-effect: non-scaling-stroke;fill:none;" /></g></g></g></g></g></g></g></g></g></g><g transform="matrix(1.0, 0.0, 0.0, 1.0, -0.125, 0.16206009566783905)"><g transform="matrix(1.0, 0.0, 0.0, 0.009999999999999995, 0.0, 0.0)"><g transform="matrix(0.01, 0.0, 0.0, 1.0, 0.0, 0.0)"><g><g><g style="fill: #ffffe0;stroke: #ffffe0;stroke-width: 1.2000000000000002;fill-opacity: 0.5;" transform="matrix(1.0, 0.0, 0.0, 1.0, 0.0, 0.0)"><path d="M 0.0 -2.0 L 0.0 2.0" style="vector-effect: non-scaling-stroke;fill:none;" /></g><g style="fill: #ffffe0;stroke: #ffffe0;stroke-width: 1.2000000000000002;fill-opacity: 0.5;" transform="matrix(1.0, 0.0, 0.0, 1.0, 0.0, 0.0)"><path d="M 0.0 -1.334700345993042 L 1.0 -1.334700345993042 L 1.0 -1.3359007835388184 L 2.0 -1.3359007835388184 L 2.0 -1.3510801792144775 L 3.0 -1.3510801792144775 L 3.0 -1.3021595478057861 L 4.0 -1.3021595478057861 L 4.0 -1.2924202680587769 L 5.0 -1.2924202680587769 L 5.0 -1.3472422361373901 L 6.0 -1.3472422361373901 L 6.0 -1.3973515033721924 L 7.0 -1.3973515033721924 L 7.0 -1.400789737701416 L 8.0 -1.400789737701416 L 8.0 -1.3748934268951416 L 9.0 -1.3748934268951416 L 9.0 -1.389000654220581 L 10.0 -1.389000654220581 L 10.0 -1.4214482307434082 L 11.0 -1.4214482307434082 L 11.0 -1.454942226409912 L 12.0 -1.454942226409912 L 12.0 -1.6076768636703491 L 13.0 -1.6076768636703491 L 13.0 -1.5931971073150635 L 14.0 -1.5931971073150635 L 14.0 -1.590479850769043 L 15.0 -1.590479850769043 L 15.0 -1.4978773593902588 L 16.0 -1.4978773593902588 L 16.0 -1.5672690868377686 L 17.0 -1.5672690868377686 L 17.0 -1.5382091999053955 L 18.0 -1.5382091999053955 L 18.0 -1.6018445491790771 L 19.0 -1.6018445491790771 L 19.0 -1.622863531112671 L 20.0 -1.622863531112671 L 20.0 -1.560986042022705 L 21.0 -1.560986042022705 L 21.0 -1.5673606395721436 L 22.0 -1.5673606395721436 L 22.0 -1.539201021194458 L 23.0 -1.539201021194458 L 23.0 -1.634209156036377 L 24.0 -1.634209156036377 L 24.0 -1.5219786167144775 L 25.0 -1.5219786167144775 L 25.0 -0.6279088854789734 L 24.0 -0.6279088854789734 L 24.0 -0.7341789603233337 L 23.0 -0.7341789603233337 L 23.0 -0.6451314091682434 L 22.0 -0.6451314091682434 L 22.0 -0.6792514324188232 L 21.0 -0.6792514324188232 L 21.0 -0.6311535835266113 L 20.0 -0.6311535835266113 L 20.0 -0.7168729901313782 L 19.0 -0.7168729901313782 L 19.0 -0.707774817943573 L 18.0 -0.707774817943573 L 18.0 -0.656060516834259 L 17.0 -0.656060516834259 L 17.0 -0.6493574976921082 L 16.0 -0.6493574976921082 L 16.0 -0.6038077473640442 L 15.0 -0.6038077473640442 L 15.0 -0.7262124419212341 L 14.0 -0.7262124419212341 L 14.0 -0.7110483646392822 L 13.0 -0.7110483646392822 L 13.0 -0.7136071920394897 L 12.0 -0.7136071920394897 L 12.0 -0.5608725547790527 L 11.0 -0.5608725547790527 L 11.0 -0.5333389639854431 L 10.0 -0.5333389639854431 L 10.0 -0.49791115522384644 L 9.0 -0.49791115522384644 L 9.0 -0.48380398750305176 L 8.0 -0.48380398750305176 L 8.0 -0.5126804709434509 L 7.0 -0.5126804709434509 L 7.0 -0.5032818913459778 L 6.0 -0.5032818913459778 L 6.0 -0.45317256450653076 L 5.0 -0.45317256450653076 L 5.0 -0.3834494352340698 L 4.0 -0.3834494352340698 L 4.0 -0.4200107753276825 L 3.0 -0.4200107753276825 L 3.0 -0.45701053738594055 L 2.0 -0.45701053738594055 L 2.0 -0.42692995071411133 L 1.0 -0.42692995071411133 L 1.0 -0.43765050172805786 L 0.0 -0.43765050172805786 Z" style="vector-effect: non-scaling-stroke;" /></g></g><g style="stroke: black;stroke-width: 1.2000000000000002;" transform="matrix(1.0, 0.0, 0.0, 1.0, 0.0, 0.0)"><path d="M 0.0 -0.43765050172805786 L 1.0 -0.43765050172805786 L 1.0 -0.42692995071411133 L 2.0 -0.42692995071411133 L 2.0 -0.45701053738594055 L 3.0 -0.45701053738594055 L 3.0 -0.4200107753276825 L 4.0 -0.4200107753276825 L 4.0 -0.3834494352340698 L 5.0 -0.3834494352340698 L 5.0 -0.45317256450653076 L 6.0 -0.45317256450653076 L 6.0 -0.5032818913459778 L 7.0 -0.5032818913459778 L 7.0 -0.5126804709434509 L 8.0 -0.5126804709434509 L 8.0 -0.48380398750305176 L 9.0 -0.48380398750305176 L 9.0 -0.49791115522384644 L 10.0 -0.49791115522384644 L 10.0 -0.5333389639854431 L 11.0 -0.5333389639854431 L 11.0 -0.5608725547790527 L 12.0 -0.5608725547790527 L 12.0 -0.7136071920394897 L 13.0 -0.7136071920394897 L 13.0 -0.7110483646392822 L 14.0 -0.7110483646392822 L 14.0 -0.7262124419212341 L 15.0 -0.7262124419212341 L 15.0 -0.6038077473640442 L 16.0 -0.6038077473640442 L 16.0 -0.6493574976921082 L 17.0 -0.6493574976921082 L 17.0 -0.656060516834259 L 18.0 -0.656060516834259 L 18.0 -0.707774817943573 L 19.0 -0.707774817943573 L 19.0 -0.7168729901313782 L 20.0 -0.7168729901313782 L 20.0 -0.6311535835266113 L 21.0 -0.6311535835266113 L 21.0 -0.6792514324188232 L 22.0 -0.6792514324188232 L 22.0 -0.6451314091682434 L 23.0 -0.6451314091682434 L 23.0 -0.7341789603233337 L 24.0 -0.7341789603233337 L 24.0 -0.6279088854789734 L 25.0 -0.6279088854789734" style="vector-effect: non-scaling-stroke;fill:none;" /></g></g></g></g></g></g><g transform="matrix(1.0, 0.0, 0.0, 1.0, -0.125, 0.16206009566783905)"><g transform="matrix(1.0, 0.0, 0.0, 0.009999999999999995, 0.0, 0.0)"><g transform="matrix(0.01, 0.0, 0.0, 1.0, 0.0, 0.0)"><g><g><g style="fill: #add8e6;stroke: #add8e6;stroke-width: 1.2000000000000002;fill-opacity: 0.5;" transform="matrix(1.0, 0.0, 0.0, 1.0, 0.0, 0.0)"><path d="M 0.0 -2.0 L 0.0 2.0" style="vector-effect: non-scaling-stroke;fill:none;" /></g><g style="fill: #add8e6;stroke: #add8e6;stroke-width: 1.2000000000000002;fill-opacity: 0.5;" transform="matrix(1.0, 0.0, 0.0, 1.0, 0.0, 0.0)"><path d="M 0.0 -1.4449689388275146 L 1.0 -1.4449689388275146 L 1.0 -1.4223275184631348 L 2.0 -1.4223275184631348 L 2.0 -1.532874345779419 L 3.0 -1.532874345779419 L 3.0 -1.3051397800445557 L 4.0 -1.3051397800445557 L 4.0 -1.3073214292526245 L 5.0 -1.3073214292526245 L 5.0 -1.4932736158370972 L 6.0 -1.4932736158370972 L 6.0 -1.6000072956085205 L 7.0 -1.6000072956085205 L 7.0 -1.7584176063537598 L 8.0 -1.7584176063537598 L 8.0 -1.6103317737579346 L 9.0 -1.6103317737579346 L 9.0 -1.7347075939178467 L 10.0 -1.7347075939178467 L 10.0 -1.7135109901428223 L 11.0 -1.7135109901428223 L 11.0 -1.91389799118042 L 12.0 -1.91389799118042 L 12.0 -2.0 L 13.0 -2.0 L 13.0 -2.0 L 14.0 -2.0 L 14.0 -2.0 L 15.0 -2.0 L 15.0 -1.992595911026001 L 16.0 -1.992595911026001 L 16.0 -2.0 L 17.0 -2.0 L 17.0 -2.0 L 18.0 -2.0 L 18.0 -2.0 L 19.0 -2.0 L 19.0 -2.0 L 20.0 -2.0 L 20.0 -2.0 L 21.0 -2.0 L 21.0 -2.0 L 22.0 -2.0 L 22.0 -2.0 L 23.0 -2.0 L 23.0 -2.0 L 24.0 -2.0 L 24.0 -1.9868948459625244 L 25.0 -1.9868948459625244 L 25.0 -0.6279088854789734 L 24.0 -0.6279088854789734 L 24.0 -0.7341789603233337 L 23.0 -0.7341789603233337 L 23.0 -0.6451314091682434 L 22.0 -0.6451314091682434 L 22.0 -0.6792514324188232 L 21.0 -0.6792514324188232 L 21.0 -0.6311535835266113 L 20.0 -0.6311535835266113 L 20.0 -0.7168729901313782 L 19.0 -0.7168729901313782 L 19.0 -0.707774817943573 L 18.0 -0.707774817943573 L 18.0 -0.656060516834259 L 17.0 -0.656060516834259 L 17.0 -0.6493574976921082 L 16.0 -0.6493574976921082 L 16.0 -0.6038077473640442 L 15.0 -0.6038077473640442 L 15.0 -0.7262124419212341 L 14.0 -0.7262124419212341 L 14.0 -0.7110483646392822 L 13.0 -0.7110483646392822 L 13.0 -0.7136071920394897 L 12.0 -0.7136071920394897 L 12.0 -0.5608725547790527 L 11.0 -0.5608725547790527 L 11.0 -0.5333389639854431 L 10.0 -0.5333389639854431 L 10.0 -0.49791115522384644 L 9.0 -0.49791115522384644 L 9.0 -0.48380398750305176 L 8.0 -0.48380398750305176 L 8.0 -0.5126804709434509 L 7.0 -0.5126804709434509 L 7.0 -0.5032818913459778 L 6.0 -0.5032818913459778 L 6.0 -0.45317256450653076 L 5.0 -0.45317256450653076 L 5.0 -0.3834494352340698 L 4.0 -0.3834494352340698 L 4.0 -0.4200107753276825 L 3.0 -0.4200107753276825 L 3.0 -0.45701053738594055 L 2.0 -0.45701053738594055 L 2.0 -0.42692995071411133 L 1.0 -0.42692995071411133 L 1.0 -0.43765050172805786 L 0.0 -0.43765050172805786 Z" style="vector-effect: non-scaling-stroke;" /></g></g><g style="stroke: black;stroke-width: 1.2000000000000002;" transform="matrix(1.0, 0.0, 0.0, 1.0, 0.0, 0.0)"><path d="M 0.0 -0.43765050172805786 L 1.0 -0.43765050172805786 L 1.0 -0.42692995071411133 L 2.0 -0.42692995071411133 L 2.0 -0.45701053738594055 L 3.0 -0.45701053738594055 L 3.0 -0.4200107753276825 L 4.0 -0.4200107753276825 L 4.0 -0.3834494352340698 L 5.0 -0.3834494352340698 L 5.0 -0.45317256450653076 L 6.0 -0.45317256450653076 L 6.0 -0.5032818913459778 L 7.0 -0.5032818913459778 L 7.0 -0.5126804709434509 L 8.0 -0.5126804709434509 L 8.0 -0.48380398750305176 L 9.0 -0.48380398750305176 L 9.0 -0.49791115522384644 L 10.0 -0.49791115522384644 L 10.0 -0.5333389639854431 L 11.0 -0.5333389639854431 L 11.0 -0.5608725547790527 L 12.0 -0.5608725547790527 L 12.0 -0.7136071920394897 L 13.0 -0.7136071920394897 L 13.0 -0.7110483646392822 L 14.0 -0.7110483646392822 L 14.0 -0.7262124419212341 L 15.0 -0.7262124419212341 L 15.0 -0.6038077473640442 L 16.0 -0.6038077473640442 L 16.0 -0.6493574976921082 L 17.0 -0.6493574976921082 L 17.0 -0.656060516834259 L 18.0 -0.656060516834259 L 18.0 -0.707774817943573 L 19.0 -0.707774817943573 L 19.0 -0.7168729901313782 L 20.0 -0.7168729901313782 L 20.0 -0.6311535835266113 L 21.0 -0.6311535835266113 L 21.0 -0.6792514324188232 L 22.0 -0.6792514324188232 L 22.0 -0.6451314091682434 L 23.0 -0.6451314091682434 L 23.0 -0.7341789603233337 L 24.0 -0.7341789603233337 L 24.0 -0.6279088854789734 L 25.0 -0.6279088854789734" style="vector-effect: non-scaling-stroke;fill:none;" /></g></g></g></g></g></g><g transform="matrix(1.0, 0.0, 0.0, 1.0, -0.125, 0.16206009566783905)"><g transform="matrix(1.0, 0.0, 0.0, 0.009999999999999995, 0.0, 0.0)"><g transform="matrix(0.01, 0.0, 0.0, 1.0, 0.0, 0.0)"><g><g><g style="fill: #ff8c00;stroke: #ff8c00;stroke-width: 1.2000000000000002;fill-opacity: 0.5;" transform="matrix(1.0, 0.0, 0.0, 1.0, 0.0, 0.0)"><path d="M 0.0 -2.0 L 0.0 2.0" style="vector-effect: non-scaling-stroke;fill:none;" /></g><g style="fill: #ff8c00;stroke: #ff8c00;stroke-width: 1.2000000000000002;fill-opacity: 0.5;" transform="matrix(1.0, 0.0, 0.0, 1.0, 0.0, 0.0)"><path d="M 0.0 -0.43765050172805786 L 1.0 -0.43765050172805786 L 1.0 -0.42692995071411133 L 2.0 -0.42692995071411133 L 2.0 -0.45701053738594055 L 3.0 -0.45701053738594055 L 3.0 -0.4200107753276825 L 4.0 -0.4200107753276825 L 4.0 -0.3834494352340698 L 5.0 -0.3834494352340698 L 5.0 -0.45317256450653076 L 6.0 -0.45317256450653076 L 6.0 -0.5032818913459778 L 7.0 -0.5032818913459778 L 7.0 -0.5126804709434509 L 8.0 -0.5126804709434509 L 8.0 -0.48380398750305176 L 9.0 -0.48380398750305176 L 9.0 -0.49791115522384644 L 10.0 -0.49791115522384644 L 10.0 -0.5333389639854431 L 11.0 -0.5333389639854431 L 11.0 -0.5608725547790527 L 12.0 -0.5608725547790527 L 12.0 -0.7136071920394897 L 13.0 -0.7136071920394897 L 13.0 -0.7110483646392822 L 14.0 -0.7110483646392822 L 14.0 -0.7262124419212341 L 15.0 -0.7262124419212341 L 15.0 -0.6038077473640442 L 16.0 -0.6038077473640442 L 16.0 -0.6493574976921082 L 17.0 -0.6493574976921082 L 17.0 -0.656060516834259 L 18.0 -0.656060516834259 L 18.0 -0.707774817943573 L 19.0 -0.707774817943573 L 19.0 -0.7168729901313782 L 20.0 -0.7168729901313782 L 20.0 -0.6311535835266113 L 21.0 -0.6311535835266113 L 21.0 -0.6792514324188232 L 22.0 -0.6792514324188232 L 22.0 -0.6451314091682434 L 23.0 -0.6451314091682434 L 23.0 -0.7341789603233337 L 24.0 -0.7341789603233337 L 24.0 -0.6279088854789734 L 25.0 -0.6279088854789734 L 25.0 -0.6279088854789734 L 24.0 -0.6279088854789734 L 24.0 -0.7341789603233337 L 23.0 -0.7341789603233337 L 23.0 -0.6451314091682434 L 22.0 -0.6451314091682434 L 22.0 -0.6792514324188232 L 21.0 -0.6792514324188232 L 21.0 -0.6311535835266113 L 20.0 -0.6311535835266113 L 20.0 -0.7168729901313782 L 19.0 -0.7168729901313782 L 19.0 -0.707774817943573 L 18.0 -0.707774817943573 L 18.0 -0.656060516834259 L 17.0 -0.656060516834259 L 17.0 -0.6493574976921082 L 16.0 -0.6493574976921082 L 16.0 -0.6038077473640442 L 15.0 -0.6038077473640442 L 15.0 -0.7262124419212341 L 14.0 -0.7262124419212341 L 14.0 -0.7110483646392822 L 13.0 -0.7110483646392822 L 13.0 -0.7136071920394897 L 12.0 -0.7136071920394897 L 12.0 -0.5608725547790527 L 11.0 -0.5608725547790527 L 11.0 -0.5333389639854431 L 10.0 -0.5333389639854431 L 10.0 -0.49791115522384644 L 9.0 -0.49791115522384644 L 9.0 -0.48380398750305176 L 8.0 -0.48380398750305176 L 8.0 -0.5126804709434509 L 7.0 -0.5126804709434509 L 7.0 -0.5032818913459778 L 6.0 -0.5032818913459778 L 6.0 -0.45317256450653076 L 5.0 -0.45317256450653076 L 5.0 -0.3834494352340698 L 4.0 -0.3834494352340698 L 4.0 -0.4200107753276825 L 3.0 -0.4200107753276825 L 3.0 -0.45701053738594055 L 2.0 -0.45701053738594055 L 2.0 -0.42692995071411133 L 1.0 -0.42692995071411133 L 1.0 -0.43765050172805786 L 0.0 -0.43765050172805786 Z" style="vector-effect: non-scaling-stroke;" /></g></g><g style="stroke: black;stroke-width: 1.2000000000000002;" transform="matrix(1.0, 0.0, 0.0, 1.0, 0.0, 0.0)"><path d="M 0.0 -0.43765050172805786 L 1.0 -0.43765050172805786 L 1.0 -0.42692995071411133 L 2.0 -0.42692995071411133 L 2.0 -0.45701053738594055 L 3.0 -0.45701053738594055 L 3.0 -0.4200107753276825 L 4.0 -0.4200107753276825 L 4.0 -0.3834494352340698 L 5.0 -0.3834494352340698 L 5.0 -0.45317256450653076 L 6.0 -0.45317256450653076 L 6.0 -0.5032818913459778 L 7.0 -0.5032818913459778 L 7.0 -0.5126804709434509 L 8.0 -0.5126804709434509 L 8.0 -0.48380398750305176 L 9.0 -0.48380398750305176 L 9.0 -0.49791115522384644 L 10.0 -0.49791115522384644 L 10.0 -0.5333389639854431 L 11.0 -0.5333389639854431 L 11.0 -0.5608725547790527 L 12.0 -0.5608725547790527 L 12.0 -0.7136071920394897 L 13.0 -0.7136071920394897 L 13.0 -0.7110483646392822 L 14.0 -0.7110483646392822 L 14.0 -0.7262124419212341 L 15.0 -0.7262124419212341 L 15.0 -0.6038077473640442 L 16.0 -0.6038077473640442 L 16.0 -0.6493574976921082 L 17.0 -0.6493574976921082 L 17.0 -0.656060516834259 L 18.0 -0.656060516834259 L 18.0 -0.707774817943573 L 19.0 -0.707774817943573 L 19.0 -0.7168729901313782 L 20.0 -0.7168729901313782 L 20.0 -0.6311535835266113 L 21.0 -0.6311535835266113 L 21.0 -0.6792514324188232 L 22.0 -0.6792514324188232 L 22.0 -0.6451314091682434 L 23.0 -0.6451314091682434 L 23.0 -0.7341789603233337 L 24.0 -0.7341789603233337 L 24.0 -0.6279088854789734 L 25.0 -0.6279088854789734" style="vector-effect: non-scaling-stroke;fill:none;" /></g></g></g></g></g></g><g transform="matrix(1.0, 0.0, 0.0, 1.0, -0.125, 0.16206009566783905)"><g transform="matrix(1.0, 0.0, 0.0, 0.009999999999999995, 0.0, 0.0)"><g transform="matrix(0.01, 0.0, 0.0, 1.0, 0.0, 0.0)"><g><g><g style="fill: #0000ff;stroke: #0000ff;stroke-width: 1.2000000000000002;fill-opacity: 0.5;" transform="matrix(1.0, 0.0, 0.0, 1.0, 0.0, 0.0)"><path d="M 0.0 -2.0 L 0.0 2.0" style="vector-effect: non-scaling-stroke;fill:none;" /></g><g style="fill: #0000ff;stroke: #0000ff;stroke-width: 1.2000000000000002;fill-opacity: 0.5;" transform="matrix(1.0, 0.0, 0.0, 1.0, 0.0, 0.0)"><path d="M 0.0 -0.43765050172805786 L 1.0 -0.43765050172805786 L 1.0 -0.42692995071411133 L 2.0 -0.42692995071411133 L 2.0 -0.45701053738594055 L 3.0 -0.45701053738594055 L 3.0 -0.4200107753276825 L 4.0 -0.4200107753276825 L 4.0 -0.3834494352340698 L 5.0 -0.3834494352340698 L 5.0 -0.45317256450653076 L 6.0 -0.45317256450653076 L 6.0 -0.5032818913459778 L 7.0 -0.5032818913459778 L 7.0 -0.5126804709434509 L 8.0 -0.5126804709434509 L 8.0 -0.48380398750305176 L 9.0 -0.48380398750305176 L 9.0 -0.49791115522384644 L 10.0 -0.49791115522384644 L 10.0 -0.5333389639854431 L 11.0 -0.5333389639854431 L 11.0 -0.5608725547790527 L 12.0 -0.5608725547790527 L 12.0 -0.7136071920394897 L 13.0 -0.7136071920394897 L 13.0 -0.7110483646392822 L 14.0 -0.7110483646392822 L 14.0 -0.7262124419212341 L 15.0 -0.7262124419212341 L 15.0 -0.6038077473640442 L 16.0 -0.6038077473640442 L 16.0 -0.6493574976921082 L 17.0 -0.6493574976921082 L 17.0 -0.656060516834259 L 18.0 -0.656060516834259 L 18.0 -0.707774817943573 L 19.0 -0.707774817943573 L 19.0 -0.7168729901313782 L 20.0 -0.7168729901313782 L 20.0 -0.6311535835266113 L 21.0 -0.6311535835266113 L 21.0 -0.6792514324188232 L 22.0 -0.6792514324188232 L 22.0 -0.6451314091682434 L 23.0 -0.6451314091682434 L 23.0 -0.7341789603233337 L 24.0 -0.7341789603233337 L 24.0 -0.6279088854789734 L 25.0 -0.6279088854789734 L 25.0 -0.6279088854789734 L 24.0 -0.6279088854789734 L 24.0 -0.7341789603233337 L 23.0 -0.7341789603233337 L 23.0 -0.6451314091682434 L 22.0 -0.6451314091682434 L 22.0 -0.6792514324188232 L 21.0 -0.6792514324188232 L 21.0 -0.6311535835266113 L 20.0 -0.6311535835266113 L 20.0 -0.7168729901313782 L 19.0 -0.7168729901313782 L 19.0 -0.707774817943573 L 18.0 -0.707774817943573 L 18.0 -0.656060516834259 L 17.0 -0.656060516834259 L 17.0 -0.6493574976921082 L 16.0 -0.6493574976921082 L 16.0 -0.6038077473640442 L 15.0 -0.6038077473640442 L 15.0 -0.7262124419212341 L 14.0 -0.7262124419212341 L 14.0 -0.7110483646392822 L 13.0 -0.7110483646392822 L 13.0 -0.7136071920394897 L 12.0 -0.7136071920394897 L 12.0 -0.5608725547790527 L 11.0 -0.5608725547790527 L 11.0 -0.5333389639854431 L 10.0 -0.5333389639854431 L 10.0 -0.49791115522384644 L 9.0 -0.49791115522384644 L 9.0 -0.48380398750305176 L 8.0 -0.48380398750305176 L 8.0 -0.5126804709434509 L 7.0 -0.5126804709434509 L 7.0 -0.5032818913459778 L 6.0 -0.5032818913459778 L 6.0 -0.45317256450653076 L 5.0 -0.45317256450653076 L 5.0 -0.3834494352340698 L 4.0 -0.3834494352340698 L 4.0 -0.4200107753276825 L 3.0 -0.4200107753276825 L 3.0 -0.45701053738594055 L 2.0 -0.45701053738594055 L 2.0 -0.42692995071411133 L 1.0 -0.42692995071411133 L 1.0 -0.43765050172805786 L 0.0 -0.43765050172805786 Z" style="vector-effect: non-scaling-stroke;" /></g></g><g style="stroke: black;stroke-width: 1.2000000000000002;" transform="matrix(1.0, 0.0, 0.0, 1.0, 0.0, 0.0)"><path d="M 0.0 -0.43765050172805786 L 1.0 -0.43765050172805786 L 1.0 -0.42692995071411133 L 2.0 -0.42692995071411133 L 2.0 -0.45701053738594055 L 3.0 -0.45701053738594055 L 3.0 -0.4200107753276825 L 4.0 -0.4200107753276825 L 4.0 -0.3834494352340698 L 5.0 -0.3834494352340698 L 5.0 -0.45317256450653076 L 6.0 -0.45317256450653076 L 6.0 -0.5032818913459778 L 7.0 -0.5032818913459778 L 7.0 -0.5126804709434509 L 8.0 -0.5126804709434509 L 8.0 -0.48380398750305176 L 9.0 -0.48380398750305176 L 9.0 -0.49791115522384644 L 10.0 -0.49791115522384644 L 10.0 -0.5333389639854431 L 11.0 -0.5333389639854431 L 11.0 -0.5608725547790527 L 12.0 -0.5608725547790527 L 12.0 -0.7136071920394897 L 13.0 -0.7136071920394897 L 13.0 -0.7110483646392822 L 14.0 -0.7110483646392822 L 14.0 -0.7262124419212341 L 15.0 -0.7262124419212341 L 15.0 -0.6038077473640442 L 16.0 -0.6038077473640442 L 16.0 -0.6493574976921082 L 17.0 -0.6493574976921082 L 17.0 -0.656060516834259 L 18.0 -0.656060516834259 L 18.0 -0.707774817943573 L 19.0 -0.707774817943573 L 19.0 -0.7168729901313782 L 20.0 -0.7168729901313782 L 20.0 -0.6311535835266113 L 21.0 -0.6311535835266113 L 21.0 -0.6792514324188232 L 22.0 -0.6792514324188232 L 22.0 -0.6451314091682434 L 23.0 -0.6451314091682434 L 23.0 -0.7341789603233337 L 24.0 -0.7341789603233337 L 24.0 -0.6279088854789734 L 25.0 -0.6279088854789734" style="vector-effect: non-scaling-stroke;fill:none;" /></g></g></g></g></g></g></g></g><g><g><g><g><g><g><g transform="matrix(1.0, 0.0, 0.0, 1.0, -0.45499999999999996, -0.03206009566783905)"><g><g><g transform="matrix(1.0, 0.0, 0.0, 1.0, 0.075, 0.0)"><g transform="matrix(1.0, 0.0, 0.0, 1.0, 0.0, 0.033433492779731754)"><g transform="matrix(0.01, 0.0, 0.0, 0.01, 0.0, 0.0)"><g><g><g transform="matrix(1.0, 0.0, 0.0, 1.0, 24.5, -0.13733971118927002)"><g transform="matrix(1.0, 0.0, 0.0, 1.0, -32.0, -0.0)"><g><g style="fill: #d3d3d3;stroke: black;stroke-width: 1.2000000000000002;" transform="matrix(1.0, 0.0, 0.0, 1.0, 0.0, -3.206009566783905)"><path d="M 0.0 0.0 L 64.0 0.0 L 64.0 6.41201913356781 L 0.0 6.41201913356781 L 0.0 0.0 Z" style="vector-effect: non-scaling-stroke;" /></g><g transform="matrix(1.0, 0.0, 0.0, 1.0, 1.875, 0.0)"><g><g style="stroke: black;stroke-width: 1.2000000000000002;" transform="matrix(1.0, 0.0, 0.0, 1.0, 0.0, 0.0)"><g /></g><g style="fill: #ffa500;stroke: black;stroke-width: 1.2000000000000002;" transform="matrix(1.0, 0.0, 0.0, 1.0, 1.875, 0.0)"><text style="text-align:center; text-anchor:middle; dominant-baseline:middle;&#10;                      font-family:sans-serif; font-weight: bold;&#10;                      font-size:3px;&#10;                      vector-effect: non-scaling-stroke;" transform="translate(-5e-05, 0)">x</text></g></g></g></g></g></g><g><g><g><g><g><g><g><g><g><g><g style="stroke: black;stroke-width: 1.2000000000000002;" transform="matrix(1.0, 0.0, 0.0, 1.0, 0.0, 0.0)"><path d="M 0.0 -2.0 L 0.0 2.0" style="vector-effect: non-scaling-stroke;fill:none;" /></g><g style="stroke: #808080;stroke-width: 0.6000000000000001;" transform="matrix(1.0, 0.0, 0.0, 1.0, 0.0, 0.0)"><path d="M 0.0 0.0 L 49.0 0.0" style="vector-effect: non-scaling-stroke;fill:none;" /></g></g><g style="stroke: black;stroke-width: 2.4000000000000004;" transform="matrix(1.0, 0.0, 0.0, 1.0, 0.0, 0.0)"><path d="M 0.0 -1.271941900253296 L 1.0 -1.271941900253296 L 1.0 -0.6536965370178223 L 2.0 -0.6536965370178223 L 2.0 -0.6025683879852295 L 3.0 -0.6025683879852295 L 3.0 -0.8052745461463928 L 4.0 -0.8052745461463928 L 4.0 -0.6685252785682678 L 5.0 -0.6685252785682678 L 5.0 -0.7513684034347534 L 6.0 -0.7513684034347534 L 6.0 -1.0916482210159302 L 7.0 -1.0916482210159302 L 7.0 -0.5972484350204468 L 8.0 -0.5972484350204468 L 8.0 -1.311514139175415 L 9.0 -1.311514139175415 L 9.0 -0.8357282876968384 L 10.0 -0.8357282876968384 L 10.0 -0.6276596784591675 L 11.0 -0.6276596784591675 L 11.0 -0.667278528213501 L 12.0 -0.667278528213501 L 12.0 -0.4937891960144043 L 13.0 -0.4937891960144043 L 13.0 -0.4365759789943695 L 14.0 -0.4365759789943695 L 14.0 -1.1623620986938477 L 15.0 -1.1623620986938477 L 15.0 -0.45543041825294495 L 16.0 -0.45543041825294495 L 16.0 -2.088047981262207 L 17.0 -2.088047981262207 L 17.0 -1.3875346183776855 L 18.0 -1.3875346183776855 L 18.0 -2.0934300422668457 L 19.0 -2.0934300422668457 L 19.0 -0.5709395408630371 L 20.0 -0.5709395408630371 L 20.0 -1.4437435865402222 L 21.0 -1.4437435865402222 L 21.0 -0.6986703872680664 L 22.0 -0.6986703872680664 L 22.0 -1.3582696914672852 L 23.0 -1.3582696914672852 L 23.0 -0.8448033928871155 L 24.0 -0.8448033928871155 L 24.0 -1.0638800859451294 L 25.0 -1.0638800859451294 L 25.0 -1.7898458242416382 L 26.0 -1.7898458242416382 L 26.0 -1.4459502696990967 L 27.0 -1.4459502696990967 L 27.0 -2.27467942237854 L 28.0 -2.27467942237854 L 28.0 -1.241532564163208 L 29.0 -1.241532564163208 L 29.0 -2.2072393894195557 L 30.0 -2.2072393894195557 L 30.0 -0.5883698463439941 L 31.0 -0.5883698463439941 L 31.0 -2.1506519317626953 L 32.0 -2.1506519317626953 L 32.0 -1.6369564533233643 L 33.0 -1.6369564533233643 L 33.0 -1.7810934782028198 L 34.0 -1.7810934782028198 L 34.0 -1.7974287271499634 L 35.0 -1.7974287271499634 L 35.0 -2.124265432357788 L 36.0 -2.124265432357788 L 36.0 -1.7872874736785889 L 37.0 -1.7872874736785889 L 37.0 -1.659314513206482 L 38.0 -1.659314513206482 L 38.0 -2.2147130966186523 L 39.0 -2.2147130966186523 L 39.0 -1.7956699132919312 L 40.0 -1.7956699132919312 L 40.0 -0.6127868890762329 L 41.0 -0.6127868890762329 L 41.0 -1.7385826110839844 L 42.0 -1.7385826110839844 L 42.0 -0.4213458299636841 L 43.0 -0.4213458299636841 L 43.0 -1.5525174140930176 L 44.0 -1.5525174140930176 L 44.0 -0.5323589444160461 L 45.0 -0.5323589444160461 L 45.0 -1.4333293437957764 L 46.0 -1.4333293437957764 L 46.0 -1.5160067081451416 L 47.0 -1.5160067081451416 L 47.0 -0.9435988664627075 L 48.0 -0.9435988664627075 L 48.0 -0.5087241530418396 L 49.0 -0.5087241530418396" style="vector-effect: non-scaling-stroke;fill:none;" /></g></g><g style="stroke: black;stroke-width: 1.2000000000000002;" transform="matrix(1.0, 0.0, 0.0, 1.0, 0.0, 0.0)"><path d="M 0.0 -2.0 L 0.0 2.0" style="vector-effect: non-scaling-stroke;fill:none;" /></g></g><g style="stroke: black;stroke-width: 1.2000000000000002;" transform="matrix(1.0, 0.0, 0.0, 1.0, 0.0, 0.0)"><path d="M 7.0 -2.0 L 7.0 2.0" style="vector-effect: non-scaling-stroke;fill:none;" /></g></g><g style="stroke: black;stroke-width: 1.2000000000000002;" transform="matrix(1.0, 0.0, 0.0, 1.0, 0.0, 0.0)"><path d="M 14.0 -2.0 L 14.0 2.0" style="vector-effect: non-scaling-stroke;fill:none;" /></g></g><g style="stroke: black;stroke-width: 1.2000000000000002;" transform="matrix(1.0, 0.0, 0.0, 1.0, 0.0, 0.0)"><path d="M 21.0 -2.0 L 21.0 2.0" style="vector-effect: non-scaling-stroke;fill:none;" /></g></g><g style="stroke: black;stroke-width: 1.2000000000000002;" transform="matrix(1.0, 0.0, 0.0, 1.0, 0.0, 0.0)"><path d="M 28.0 -2.0 L 28.0 2.0" style="vector-effect: non-scaling-stroke;fill:none;" /></g></g><g style="stroke: black;stroke-width: 1.2000000000000002;" transform="matrix(1.0, 0.0, 0.0, 1.0, 0.0, 0.0)"><path d="M 35.0 -2.0 L 35.0 2.0" style="vector-effect: non-scaling-stroke;fill:none;" /></g></g><g style="stroke: black;stroke-width: 1.2000000000000002;" transform="matrix(1.0, 0.0, 0.0, 1.0, 0.0, 0.0)"><path d="M 42.0 -2.0 L 42.0 2.0" style="vector-effect: non-scaling-stroke;fill:none;" /></g></g></g></g><g><g><g><g><g><g><g><g><g><g><g style="stroke: black;stroke-width: 1.2000000000000002;" transform="matrix(1.0, 0.0, 0.0, 1.0, 0.0, 0.0)"><path d="M 0.0 -2.0 L 0.0 2.0" style="vector-effect: non-scaling-stroke;fill:none;" /></g><g style="stroke: #808080;stroke-width: 0.6000000000000001;" transform="matrix(1.0, 0.0, 0.0, 1.0, 0.0, 0.0)"><path d="M 0.0 0.0 L 49.0 0.0" style="vector-effect: non-scaling-stroke;fill:none;" /></g></g><g style="stroke: black;stroke-width: 2.4000000000000004;" transform="matrix(1.0, 0.0, 0.0, 1.0, 0.0, 0.0)"><path d="M 0.0 -1.271941900253296 L 1.0 -1.271941900253296 L 1.0 -0.6536965370178223 L 2.0 -0.6536965370178223 L 2.0 -0.6025683879852295 L 3.0 -0.6025683879852295 L 3.0 -0.8052745461463928 L 4.0 -0.8052745461463928 L 4.0 -0.6685252785682678 L 5.0 -0.6685252785682678 L 5.0 -0.7513684034347534 L 6.0 -0.7513684034347534 L 6.0 -1.0916482210159302 L 7.0 -1.0916482210159302 L 7.0 -0.5972484350204468 L 8.0 -0.5972484350204468 L 8.0 -1.311514139175415 L 9.0 -1.311514139175415 L 9.0 -0.8357282876968384 L 10.0 -0.8357282876968384 L 10.0 -0.6276596784591675 L 11.0 -0.6276596784591675 L 11.0 -0.667278528213501 L 12.0 -0.667278528213501 L 12.0 -0.4937891960144043 L 13.0 -0.4937891960144043 L 13.0 -0.4365759789943695 L 14.0 -0.4365759789943695 L 14.0 -1.1623620986938477 L 15.0 -1.1623620986938477 L 15.0 -0.45543041825294495 L 16.0 -0.45543041825294495 L 16.0 -2.088047981262207 L 17.0 -2.088047981262207 L 17.0 -1.3875346183776855 L 18.0 -1.3875346183776855 L 18.0 -2.0934300422668457 L 19.0 -2.0934300422668457 L 19.0 -0.5709395408630371 L 20.0 -0.5709395408630371 L 20.0 -1.4437435865402222 L 21.0 -1.4437435865402222 L 21.0 -0.6986703872680664 L 22.0 -0.6986703872680664 L 22.0 -1.3582696914672852 L 23.0 -1.3582696914672852 L 23.0 -0.8448033928871155 L 24.0 -0.8448033928871155 L 24.0 -1.0638800859451294 L 25.0 -1.0638800859451294 L 25.0 -1.7898458242416382 L 26.0 -1.7898458242416382 L 26.0 -1.4459502696990967 L 27.0 -1.4459502696990967 L 27.0 -2.27467942237854 L 28.0 -2.27467942237854 L 28.0 -1.241532564163208 L 29.0 -1.241532564163208 L 29.0 -2.2072393894195557 L 30.0 -2.2072393894195557 L 30.0 -0.5883698463439941 L 31.0 -0.5883698463439941 L 31.0 -2.1506519317626953 L 32.0 -2.1506519317626953 L 32.0 -1.6369564533233643 L 33.0 -1.6369564533233643 L 33.0 -1.7810934782028198 L 34.0 -1.7810934782028198 L 34.0 -1.7974287271499634 L 35.0 -1.7974287271499634 L 35.0 -2.124265432357788 L 36.0 -2.124265432357788 L 36.0 -1.7872874736785889 L 37.0 -1.7872874736785889 L 37.0 -1.659314513206482 L 38.0 -1.659314513206482 L 38.0 -2.2147130966186523 L 39.0 -2.2147130966186523 L 39.0 -1.7956699132919312 L 40.0 -1.7956699132919312 L 40.0 -0.6127868890762329 L 41.0 -0.6127868890762329 L 41.0 -1.7385826110839844 L 42.0 -1.7385826110839844 L 42.0 -0.4213458299636841 L 43.0 -0.4213458299636841 L 43.0 -1.5525174140930176 L 44.0 -1.5525174140930176 L 44.0 -0.5323589444160461 L 45.0 -0.5323589444160461 L 45.0 -1.4333293437957764 L 46.0 -1.4333293437957764 L 46.0 -1.5160067081451416 L 47.0 -1.5160067081451416 L 47.0 -0.9435988664627075 L 48.0 -0.9435988664627075 L 48.0 -0.5087241530418396 L 49.0 -0.5087241530418396" style="vector-effect: non-scaling-stroke;fill:none;" /></g></g><g style="stroke: black;stroke-width: 1.2000000000000002;" transform="matrix(1.0, 0.0, 0.0, 1.0, 0.0, 0.0)"><path d="M 0.0 -2.0 L 0.0 2.0" style="vector-effect: non-scaling-stroke;fill:none;" /></g></g><g style="stroke: black;stroke-width: 1.2000000000000002;" transform="matrix(1.0, 0.0, 0.0, 1.0, 0.0, 0.0)"><path d="M 7.0 -2.0 L 7.0 2.0" style="vector-effect: non-scaling-stroke;fill:none;" /></g></g><g style="stroke: black;stroke-width: 1.2000000000000002;" transform="matrix(1.0, 0.0, 0.0, 1.0, 0.0, 0.0)"><path d="M 14.0 -2.0 L 14.0 2.0" style="vector-effect: non-scaling-stroke;fill:none;" /></g></g><g style="stroke: black;stroke-width: 1.2000000000000002;" transform="matrix(1.0, 0.0, 0.0, 1.0, 0.0, 0.0)"><path d="M 21.0 -2.0 L 21.0 2.0" style="vector-effect: non-scaling-stroke;fill:none;" /></g></g><g style="stroke: black;stroke-width: 1.2000000000000002;" transform="matrix(1.0, 0.0, 0.0, 1.0, 0.0, 0.0)"><path d="M 28.0 -2.0 L 28.0 2.0" style="vector-effect: non-scaling-stroke;fill:none;" /></g></g><g style="stroke: black;stroke-width: 1.2000000000000002;" transform="matrix(1.0, 0.0, 0.0, 1.0, 0.0, 0.0)"><path d="M 35.0 -2.0 L 35.0 2.0" style="vector-effect: non-scaling-stroke;fill:none;" /></g></g><g style="stroke: black;stroke-width: 1.2000000000000002;" transform="matrix(1.0, 0.0, 0.0, 1.0, 0.0, 0.0)"><path d="M 42.0 -2.0 L 42.0 2.0" style="vector-effect: non-scaling-stroke;fill:none;" /></g></g></g></g></g></g></g><g style="stroke: black;stroke-width: 1.2000000000000002;" transform="matrix(1.0, 0.0, 0.0, 1.0, 0.6549999999999999, 0.0)"><g /></g></g><g transform="matrix(1.0, 0.0, 0.0, 1.0, 0.6699999999999999, 0.0)"><g transform="matrix(1.0, 0.0, 0.0, 1.0, 0.075, 0.0)"><g transform="matrix(1.0, 0.0, 0.0, 1.0, 0.0, 0.03)"><g transform="matrix(0.01, 0.0, 0.0, 0.01, 0.0, 0.0)"><g><g><g transform="matrix(1.0, 0.0, 0.0, 1.0, 4.5, 0.0)"><g transform="matrix(1.0, 0.0, 0.0, 1.0, -12.0, -0.0)"><g><g style="fill: #d3d3d3;stroke: black;stroke-width: 1.2000000000000002;" transform="matrix(1.0, 0.0, 0.0, 1.0, 0.0, -3.0)"><path d="M 0.0 0.0 L 24.0 0.0 L 24.0 6.0 L 0.0 6.0 L 0.0 0.0 Z" style="vector-effect: non-scaling-stroke;" /></g><g transform="matrix(1.0, 0.0, 0.0, 1.0, 1.875, 0.0)"><g><g style="stroke: black;stroke-width: 1.2000000000000002;" transform="matrix(1.0, 0.0, 0.0, 1.0, 0.0, 0.0)"><g /></g><g style="fill: #ffa500;stroke: black;stroke-width: 1.2000000000000002;" transform="matrix(1.0, 0.0, 0.0, 1.0, 1.875, 0.0)"><text style="text-align:center; text-anchor:middle; dominant-baseline:middle;&#10;                      font-family:sans-serif; font-weight: bold;&#10;                      font-size:3px;&#10;                      vector-effect: non-scaling-stroke;" transform="translate(-5e-05, 0)">y</text></g></g></g></g></g></g><g><g><g><g style="stroke: black;stroke-width: 1.2000000000000002;" transform="matrix(1.0, 0.0, 0.0, 1.0, 0.0, 0.0)"><path d="M 0.0 -2.0 L 0.0 2.0" style="vector-effect: non-scaling-stroke;fill:none;" /></g><g style="stroke: #808080;stroke-width: 0.6000000000000001;" transform="matrix(1.0, 0.0, 0.0, 1.0, 0.0, 0.0)"><path d="M 0.0 0.0 L 9.0 0.0" style="vector-effect: non-scaling-stroke;fill:none;" /></g></g><g style="stroke: black;stroke-width: 2.4000000000000004;" transform="matrix(1.0, 0.0, 0.0, 1.0, 0.0, 0.0)"><path d="M 0.0 -1.6195825338363647 L 1.0 -1.6195825338363647 L 1.0 -1.271941900253296 L 2.0 -1.271941900253296 L 2.0 -0.6536965370178223 L 3.0 -0.6536965370178223 L 3.0 -0.6025683879852295 L 4.0 -0.6025683879852295 L 4.0 -0.8052745461463928 L 5.0 -0.8052745461463928 L 5.0 -0.6685252785682678 L 6.0 -0.6685252785682678 L 6.0 -0.7513684034347534 L 7.0 -0.7513684034347534 L 7.0 -1.0916482210159302 L 8.0 -1.0916482210159302 L 8.0 -0.5972484350204468 L 9.0 -0.5972484350204468" style="vector-effect: non-scaling-stroke;fill:none;" /></g></g></g></g><g><g><g><g style="stroke: black;stroke-width: 1.2000000000000002;" transform="matrix(1.0, 0.0, 0.0, 1.0, 0.0, 0.0)"><path d="M 0.0 -2.0 L 0.0 2.0" style="vector-effect: non-scaling-stroke;fill:none;" /></g><g style="stroke: #808080;stroke-width: 0.6000000000000001;" transform="matrix(1.0, 0.0, 0.0, 1.0, 0.0, 0.0)"><path d="M 0.0 0.0 L 9.0 0.0" style="vector-effect: non-scaling-stroke;fill:none;" /></g></g><g style="stroke: black;stroke-width: 2.4000000000000004;" transform="matrix(1.0, 0.0, 0.0, 1.0, 0.0, 0.0)"><path d="M 0.0 -1.6195825338363647 L 1.0 -1.6195825338363647 L 1.0 -1.271941900253296 L 2.0 -1.271941900253296 L 2.0 -0.6536965370178223 L 3.0 -0.6536965370178223 L 3.0 -0.6025683879852295 L 4.0 -0.6025683879852295 L 4.0 -0.8052745461463928 L 5.0 -0.8052745461463928 L 5.0 -0.6685252785682678 L 6.0 -0.6685252785682678 L 6.0 -0.7513684034347534 L 7.0 -0.7513684034347534 L 7.0 -1.0916482210159302 L 8.0 -1.0916482210159302 L 8.0 -0.5972484350204468 L 9.0 -0.5972484350204468" style="vector-effect: non-scaling-stroke;fill:none;" /></g></g></g></g></g></g></g></g></g></g><g style="stroke: black;stroke-width: 1.2000000000000002;" transform="matrix(0.0, -1.0, 1.0, 0.0, 0.0, 0.08206009566783906)"><g /></g></g><g transform="matrix(1.0, 0.0, 0.0, 1.0, 0.0, 0.16206009566783905)"><g transform="matrix(1.0, 0.0, 0.0, 1.0, -0.2, -0.03)"><g transform="matrix(1.0, 0.0, 0.0, 1.0, 0.075, 0.0)"><g transform="matrix(1.0, 0.0, 0.0, 1.0, 0.0, 0.03)"><g transform="matrix(0.01, 0.0, 0.0, 0.01, 0.0, 0.0)"><g><g><g transform="matrix(1.0, 0.0, 0.0, 1.0, 12.5, 0.0)"><g transform="matrix(1.0, 0.0, 0.0, 1.0, -20.0, -0.0)"><g><g style="fill: #d3d3d3;stroke: black;stroke-width: 1.2000000000000002;" transform="matrix(1.0, 0.0, 0.0, 1.0, 0.0, -3.0)"><path d="M 0.0 0.0 L 40.0 0.0 L 40.0 6.0 L 0.0 6.0 L 0.0 0.0 Z" style="vector-effect: non-scaling-stroke;" /></g><g transform="matrix(1.0, 0.0, 0.0, 1.0, 1.875, 0.0)"><g><g style="stroke: black;stroke-width: 1.2000000000000002;" transform="matrix(1.0, 0.0, 0.0, 1.0, 0.0, 0.0)"><g /></g><g style="fill: #ffa500;stroke: black;stroke-width: 1.2000000000000002;" transform="matrix(1.0, 0.0, 0.0, 1.0, 1.875, 0.0)"><text style="text-align:center; text-anchor:middle; dominant-baseline:middle;&#10;                      font-family:sans-serif; font-weight: bold;&#10;                      font-size:3px;&#10;                      vector-effect: non-scaling-stroke;" transform="translate(-5e-05, 0)">f(x)</text></g></g></g></g></g></g><g><g><g><g style="stroke: black;stroke-width: 1.2000000000000002;" transform="matrix(1.0, 0.0, 0.0, 1.0, 0.0, 0.0)"><path d="M 0.0 -2.0 L 0.0 2.0" style="vector-effect: non-scaling-stroke;fill:none;" /></g><g style="stroke: #808080;stroke-width: 0.6000000000000001;" transform="matrix(1.0, 0.0, 0.0, 1.0, 0.0, 0.0)"><path d="M 0.0 0.0 L 25.0 0.0" style="vector-effect: non-scaling-stroke;fill:none;" /></g></g><g style="stroke: black;stroke-width: 2.4000000000000004;" transform="matrix(1.0, 0.0, 0.0, 1.0, 0.0, 0.0)"><path d="M 0.0 -0.43765050172805786 L 1.0 -0.43765050172805786 L 1.0 -0.42692995071411133 L 2.0 -0.42692995071411133 L 2.0 -0.45701053738594055 L 3.0 -0.45701053738594055 L 3.0 -0.4200107753276825 L 4.0 -0.4200107753276825 L 4.0 -0.3834494352340698 L 5.0 -0.3834494352340698 L 5.0 -0.45317256450653076 L 6.0 -0.45317256450653076 L 6.0 -0.5032818913459778 L 7.0 -0.5032818913459778 L 7.0 -0.5126804709434509 L 8.0 -0.5126804709434509 L 8.0 -0.48380398750305176 L 9.0 -0.48380398750305176 L 9.0 -0.49791115522384644 L 10.0 -0.49791115522384644 L 10.0 -0.5333389639854431 L 11.0 -0.5333389639854431 L 11.0 -0.5608725547790527 L 12.0 -0.5608725547790527 L 12.0 -0.7136071920394897 L 13.0 -0.7136071920394897 L 13.0 -0.7110483646392822 L 14.0 -0.7110483646392822 L 14.0 -0.7262124419212341 L 15.0 -0.7262124419212341 L 15.0 -0.6038077473640442 L 16.0 -0.6038077473640442 L 16.0 -0.6493574976921082 L 17.0 -0.6493574976921082 L 17.0 -0.656060516834259 L 18.0 -0.656060516834259 L 18.0 -0.707774817943573 L 19.0 -0.707774817943573 L 19.0 -0.7168729901313782 L 20.0 -0.7168729901313782 L 20.0 -0.6311535835266113 L 21.0 -0.6311535835266113 L 21.0 -0.6792514324188232 L 22.0 -0.6792514324188232 L 22.0 -0.6451314091682434 L 23.0 -0.6451314091682434 L 23.0 -0.7341789603233337 L 24.0 -0.7341789603233337 L 24.0 -0.6279088854789734 L 25.0 -0.6279088854789734" style="vector-effect: non-scaling-stroke;fill:none;" /></g></g></g></g><g><g><g><g style="stroke: black;stroke-width: 1.2000000000000002;" transform="matrix(1.0, 0.0, 0.0, 1.0, 0.0, 0.0)"><path d="M 0.0 -2.0 L 0.0 2.0" style="vector-effect: non-scaling-stroke;fill:none;" /></g><g style="stroke: #808080;stroke-width: 0.6000000000000001;" transform="matrix(1.0, 0.0, 0.0, 1.0, 0.0, 0.0)"><path d="M 0.0 0.0 L 25.0 0.0" style="vector-effect: non-scaling-stroke;fill:none;" /></g></g><g style="stroke: black;stroke-width: 2.4000000000000004;" transform="matrix(1.0, 0.0, 0.0, 1.0, 0.0, 0.0)"><path d="M 0.0 -0.43765050172805786 L 1.0 -0.43765050172805786 L 1.0 -0.42692995071411133 L 2.0 -0.42692995071411133 L 2.0 -0.45701053738594055 L 3.0 -0.45701053738594055 L 3.0 -0.4200107753276825 L 4.0 -0.4200107753276825 L 4.0 -0.3834494352340698 L 5.0 -0.3834494352340698 L 5.0 -0.45317256450653076 L 6.0 -0.45317256450653076 L 6.0 -0.5032818913459778 L 7.0 -0.5032818913459778 L 7.0 -0.5126804709434509 L 8.0 -0.5126804709434509 L 8.0 -0.48380398750305176 L 9.0 -0.48380398750305176 L 9.0 -0.49791115522384644 L 10.0 -0.49791115522384644 L 10.0 -0.5333389639854431 L 11.0 -0.5333389639854431 L 11.0 -0.5608725547790527 L 12.0 -0.5608725547790527 L 12.0 -0.7136071920394897 L 13.0 -0.7136071920394897 L 13.0 -0.7110483646392822 L 14.0 -0.7110483646392822 L 14.0 -0.7262124419212341 L 15.0 -0.7262124419212341 L 15.0 -0.6038077473640442 L 16.0 -0.6038077473640442 L 16.0 -0.6493574976921082 L 17.0 -0.6493574976921082 L 17.0 -0.656060516834259 L 18.0 -0.656060516834259 L 18.0 -0.707774817943573 L 19.0 -0.707774817943573 L 19.0 -0.7168729901313782 L 20.0 -0.7168729901313782 L 20.0 -0.6311535835266113 L 21.0 -0.6311535835266113 L 21.0 -0.6792514324188232 L 22.0 -0.6792514324188232 L 22.0 -0.6451314091682434 L 23.0 -0.6451314091682434 L 23.0 -0.7341789603233337 L 24.0 -0.7341789603233337 L 24.0 -0.6279088854789734 L 25.0 -0.6279088854789734" style="vector-effect: non-scaling-stroke;fill:none;" /></g></g></g></g></g></g></g></g></g></g><g transform="matrix(1.0, 0.0, 0.0, 1.0, -0.125, 0.16206009566783905)"><g transform="matrix(1.0, 0.0, 0.0, 0.009999999999999995, 0.0, 0.0)"><g transform="matrix(0.01, 0.0, 0.0, 1.0, 0.0, 0.0)"><g><g><g style="fill: #ffffe0;stroke: #ffffe0;stroke-width: 1.2000000000000002;fill-opacity: 0.5;" transform="matrix(1.0, 0.0, 0.0, 1.0, 0.0, 0.0)"><path d="M 0.0 -2.0 L 0.0 2.0" style="vector-effect: non-scaling-stroke;fill:none;" /></g><g style="fill: #ffffe0;stroke: #ffffe0;stroke-width: 1.2000000000000002;fill-opacity: 0.5;" transform="matrix(1.0, 0.0, 0.0, 1.0, 0.0, 0.0)"><path d="M 0.0 -1.334700345993042 L 1.0 -1.334700345993042 L 1.0 -1.3359007835388184 L 2.0 -1.3359007835388184 L 2.0 -1.3510801792144775 L 3.0 -1.3510801792144775 L 3.0 -1.3021595478057861 L 4.0 -1.3021595478057861 L 4.0 -1.2924202680587769 L 5.0 -1.2924202680587769 L 5.0 -1.3472422361373901 L 6.0 -1.3472422361373901 L 6.0 -1.3973515033721924 L 7.0 -1.3973515033721924 L 7.0 -1.400789737701416 L 8.0 -1.400789737701416 L 8.0 -1.3748934268951416 L 9.0 -1.3748934268951416 L 9.0 -1.389000654220581 L 10.0 -1.389000654220581 L 10.0 -1.4214482307434082 L 11.0 -1.4214482307434082 L 11.0 -1.454942226409912 L 12.0 -1.454942226409912 L 12.0 -1.6076768636703491 L 13.0 -1.6076768636703491 L 13.0 -1.5931971073150635 L 14.0 -1.5931971073150635 L 14.0 -1.590479850769043 L 15.0 -1.590479850769043 L 15.0 -1.4978773593902588 L 16.0 -1.4978773593902588 L 16.0 -1.5672690868377686 L 17.0 -1.5672690868377686 L 17.0 -1.5382091999053955 L 18.0 -1.5382091999053955 L 18.0 -1.6018445491790771 L 19.0 -1.6018445491790771 L 19.0 -1.622863531112671 L 20.0 -1.622863531112671 L 20.0 -1.560986042022705 L 21.0 -1.560986042022705 L 21.0 -1.5673606395721436 L 22.0 -1.5673606395721436 L 22.0 -1.539201021194458 L 23.0 -1.539201021194458 L 23.0 -1.634209156036377 L 24.0 -1.634209156036377 L 24.0 -1.5219786167144775 L 25.0 -1.5219786167144775 L 25.0 -0.6279088854789734 L 24.0 -0.6279088854789734 L 24.0 -0.7341789603233337 L 23.0 -0.7341789603233337 L 23.0 -0.6451314091682434 L 22.0 -0.6451314091682434 L 22.0 -0.6792514324188232 L 21.0 -0.6792514324188232 L 21.0 -0.6311535835266113 L 20.0 -0.6311535835266113 L 20.0 -0.7168729901313782 L 19.0 -0.7168729901313782 L 19.0 -0.707774817943573 L 18.0 -0.707774817943573 L 18.0 -0.656060516834259 L 17.0 -0.656060516834259 L 17.0 -0.6493574976921082 L 16.0 -0.6493574976921082 L 16.0 -0.6038077473640442 L 15.0 -0.6038077473640442 L 15.0 -0.7262124419212341 L 14.0 -0.7262124419212341 L 14.0 -0.7110483646392822 L 13.0 -0.7110483646392822 L 13.0 -0.7136071920394897 L 12.0 -0.7136071920394897 L 12.0 -0.5608725547790527 L 11.0 -0.5608725547790527 L 11.0 -0.5333389639854431 L 10.0 -0.5333389639854431 L 10.0 -0.49791115522384644 L 9.0 -0.49791115522384644 L 9.0 -0.48380398750305176 L 8.0 -0.48380398750305176 L 8.0 -0.5126804709434509 L 7.0 -0.5126804709434509 L 7.0 -0.5032818913459778 L 6.0 -0.5032818913459778 L 6.0 -0.45317256450653076 L 5.0 -0.45317256450653076 L 5.0 -0.3834494352340698 L 4.0 -0.3834494352340698 L 4.0 -0.4200107753276825 L 3.0 -0.4200107753276825 L 3.0 -0.45701053738594055 L 2.0 -0.45701053738594055 L 2.0 -0.42692995071411133 L 1.0 -0.42692995071411133 L 1.0 -0.43765050172805786 L 0.0 -0.43765050172805786 Z" style="vector-effect: non-scaling-stroke;" /></g></g><g style="stroke: black;stroke-width: 1.2000000000000002;" transform="matrix(1.0, 0.0, 0.0, 1.0, 0.0, 0.0)"><path d="M 0.0 -0.43765050172805786 L 1.0 -0.43765050172805786 L 1.0 -0.42692995071411133 L 2.0 -0.42692995071411133 L 2.0 -0.45701053738594055 L 3.0 -0.45701053738594055 L 3.0 -0.4200107753276825 L 4.0 -0.4200107753276825 L 4.0 -0.3834494352340698 L 5.0 -0.3834494352340698 L 5.0 -0.45317256450653076 L 6.0 -0.45317256450653076 L 6.0 -0.5032818913459778 L 7.0 -0.5032818913459778 L 7.0 -0.5126804709434509 L 8.0 -0.5126804709434509 L 8.0 -0.48380398750305176 L 9.0 -0.48380398750305176 L 9.0 -0.49791115522384644 L 10.0 -0.49791115522384644 L 10.0 -0.5333389639854431 L 11.0 -0.5333389639854431 L 11.0 -0.5608725547790527 L 12.0 -0.5608725547790527 L 12.0 -0.7136071920394897 L 13.0 -0.7136071920394897 L 13.0 -0.7110483646392822 L 14.0 -0.7110483646392822 L 14.0 -0.7262124419212341 L 15.0 -0.7262124419212341 L 15.0 -0.6038077473640442 L 16.0 -0.6038077473640442 L 16.0 -0.6493574976921082 L 17.0 -0.6493574976921082 L 17.0 -0.656060516834259 L 18.0 -0.656060516834259 L 18.0 -0.707774817943573 L 19.0 -0.707774817943573 L 19.0 -0.7168729901313782 L 20.0 -0.7168729901313782 L 20.0 -0.6311535835266113 L 21.0 -0.6311535835266113 L 21.0 -0.6792514324188232 L 22.0 -0.6792514324188232 L 22.0 -0.6451314091682434 L 23.0 -0.6451314091682434 L 23.0 -0.7341789603233337 L 24.0 -0.7341789603233337 L 24.0 -0.6279088854789734 L 25.0 -0.6279088854789734" style="vector-effect: non-scaling-stroke;fill:none;" /></g></g></g></g></g></g><g transform="matrix(1.0, 0.0, 0.0, 1.0, -0.125, 0.16206009566783905)"><g transform="matrix(1.0, 0.0, 0.0, 0.009999999999999995, 0.0, 0.0)"><g transform="matrix(0.01, 0.0, 0.0, 1.0, 0.0, 0.0)"><g><g><g style="fill: #add8e6;stroke: #add8e6;stroke-width: 1.2000000000000002;fill-opacity: 0.5;" transform="matrix(1.0, 0.0, 0.0, 1.0, 0.0, 0.0)"><path d="M 0.0 -2.0 L 0.0 2.0" style="vector-effect: non-scaling-stroke;fill:none;" /></g><g style="fill: #add8e6;stroke: #add8e6;stroke-width: 1.2000000000000002;fill-opacity: 0.5;" transform="matrix(1.0, 0.0, 0.0, 1.0, 0.0, 0.0)"><path d="M 0.0 -1.4449689388275146 L 1.0 -1.4449689388275146 L 1.0 -1.4223275184631348 L 2.0 -1.4223275184631348 L 2.0 -1.532874345779419 L 3.0 -1.532874345779419 L 3.0 -1.3051397800445557 L 4.0 -1.3051397800445557 L 4.0 -1.3073214292526245 L 5.0 -1.3073214292526245 L 5.0 -1.4932736158370972 L 6.0 -1.4932736158370972 L 6.0 -1.6000072956085205 L 7.0 -1.6000072956085205 L 7.0 -1.7584176063537598 L 8.0 -1.7584176063537598 L 8.0 -1.6103317737579346 L 9.0 -1.6103317737579346 L 9.0 -1.7347075939178467 L 10.0 -1.7347075939178467 L 10.0 -1.7135109901428223 L 11.0 -1.7135109901428223 L 11.0 -1.91389799118042 L 12.0 -1.91389799118042 L 12.0 -2.0 L 13.0 -2.0 L 13.0 -2.0 L 14.0 -2.0 L 14.0 -2.0 L 15.0 -2.0 L 15.0 -1.992595911026001 L 16.0 -1.992595911026001 L 16.0 -2.0 L 17.0 -2.0 L 17.0 -2.0 L 18.0 -2.0 L 18.0 -2.0 L 19.0 -2.0 L 19.0 -2.0 L 20.0 -2.0 L 20.0 -2.0 L 21.0 -2.0 L 21.0 -2.0 L 22.0 -2.0 L 22.0 -2.0 L 23.0 -2.0 L 23.0 -2.0 L 24.0 -2.0 L 24.0 -1.9868948459625244 L 25.0 -1.9868948459625244 L 25.0 -0.6279088854789734 L 24.0 -0.6279088854789734 L 24.0 -0.7341789603233337 L 23.0 -0.7341789603233337 L 23.0 -0.6451314091682434 L 22.0 -0.6451314091682434 L 22.0 -0.6792514324188232 L 21.0 -0.6792514324188232 L 21.0 -0.6311535835266113 L 20.0 -0.6311535835266113 L 20.0 -0.7168729901313782 L 19.0 -0.7168729901313782 L 19.0 -0.707774817943573 L 18.0 -0.707774817943573 L 18.0 -0.656060516834259 L 17.0 -0.656060516834259 L 17.0 -0.6493574976921082 L 16.0 -0.6493574976921082 L 16.0 -0.6038077473640442 L 15.0 -0.6038077473640442 L 15.0 -0.7262124419212341 L 14.0 -0.7262124419212341 L 14.0 -0.7110483646392822 L 13.0 -0.7110483646392822 L 13.0 -0.7136071920394897 L 12.0 -0.7136071920394897 L 12.0 -0.5608725547790527 L 11.0 -0.5608725547790527 L 11.0 -0.5333389639854431 L 10.0 -0.5333389639854431 L 10.0 -0.49791115522384644 L 9.0 -0.49791115522384644 L 9.0 -0.48380398750305176 L 8.0 -0.48380398750305176 L 8.0 -0.5126804709434509 L 7.0 -0.5126804709434509 L 7.0 -0.5032818913459778 L 6.0 -0.5032818913459778 L 6.0 -0.45317256450653076 L 5.0 -0.45317256450653076 L 5.0 -0.3834494352340698 L 4.0 -0.3834494352340698 L 4.0 -0.4200107753276825 L 3.0 -0.4200107753276825 L 3.0 -0.45701053738594055 L 2.0 -0.45701053738594055 L 2.0 -0.42692995071411133 L 1.0 -0.42692995071411133 L 1.0 -0.43765050172805786 L 0.0 -0.43765050172805786 Z" style="vector-effect: non-scaling-stroke;" /></g></g><g style="stroke: black;stroke-width: 1.2000000000000002;" transform="matrix(1.0, 0.0, 0.0, 1.0, 0.0, 0.0)"><path d="M 0.0 -0.43765050172805786 L 1.0 -0.43765050172805786 L 1.0 -0.42692995071411133 L 2.0 -0.42692995071411133 L 2.0 -0.45701053738594055 L 3.0 -0.45701053738594055 L 3.0 -0.4200107753276825 L 4.0 -0.4200107753276825 L 4.0 -0.3834494352340698 L 5.0 -0.3834494352340698 L 5.0 -0.45317256450653076 L 6.0 -0.45317256450653076 L 6.0 -0.5032818913459778 L 7.0 -0.5032818913459778 L 7.0 -0.5126804709434509 L 8.0 -0.5126804709434509 L 8.0 -0.48380398750305176 L 9.0 -0.48380398750305176 L 9.0 -0.49791115522384644 L 10.0 -0.49791115522384644 L 10.0 -0.5333389639854431 L 11.0 -0.5333389639854431 L 11.0 -0.5608725547790527 L 12.0 -0.5608725547790527 L 12.0 -0.7136071920394897 L 13.0 -0.7136071920394897 L 13.0 -0.7110483646392822 L 14.0 -0.7110483646392822 L 14.0 -0.7262124419212341 L 15.0 -0.7262124419212341 L 15.0 -0.6038077473640442 L 16.0 -0.6038077473640442 L 16.0 -0.6493574976921082 L 17.0 -0.6493574976921082 L 17.0 -0.656060516834259 L 18.0 -0.656060516834259 L 18.0 -0.707774817943573 L 19.0 -0.707774817943573 L 19.0 -0.7168729901313782 L 20.0 -0.7168729901313782 L 20.0 -0.6311535835266113 L 21.0 -0.6311535835266113 L 21.0 -0.6792514324188232 L 22.0 -0.6792514324188232 L 22.0 -0.6451314091682434 L 23.0 -0.6451314091682434 L 23.0 -0.7341789603233337 L 24.0 -0.7341789603233337 L 24.0 -0.6279088854789734 L 25.0 -0.6279088854789734" style="vector-effect: non-scaling-stroke;fill:none;" /></g></g></g></g></g></g><g transform="matrix(1.0, 0.0, 0.0, 1.0, -0.125, 0.16206009566783905)"><g transform="matrix(1.0, 0.0, 0.0, 0.009999999999999995, 0.0, 0.0)"><g transform="matrix(0.01, 0.0, 0.0, 1.0, 0.0, 0.0)"><g><g><g style="fill: #ff8c00;stroke: #ff8c00;stroke-width: 1.2000000000000002;fill-opacity: 0.5;" transform="matrix(1.0, 0.0, 0.0, 1.0, 0.0, 0.0)"><path d="M 0.0 -2.0 L 0.0 2.0" style="vector-effect: non-scaling-stroke;fill:none;" /></g><g style="fill: #ff8c00;stroke: #ff8c00;stroke-width: 1.2000000000000002;fill-opacity: 0.5;" transform="matrix(1.0, 0.0, 0.0, 1.0, 0.0, 0.0)"><path d="M 0.0 -0.43765050172805786 L 1.0 -0.43765050172805786 L 1.0 -0.42692995071411133 L 2.0 -0.42692995071411133 L 2.0 -0.45701053738594055 L 3.0 -0.45701053738594055 L 3.0 -0.4200107753276825 L 4.0 -0.4200107753276825 L 4.0 -0.3834494352340698 L 5.0 -0.3834494352340698 L 5.0 -0.45317256450653076 L 6.0 -0.45317256450653076 L 6.0 -0.5032818913459778 L 7.0 -0.5032818913459778 L 7.0 -0.5126804709434509 L 8.0 -0.5126804709434509 L 8.0 -0.48380398750305176 L 9.0 -0.48380398750305176 L 9.0 -0.49791115522384644 L 10.0 -0.49791115522384644 L 10.0 -0.5333389639854431 L 11.0 -0.5333389639854431 L 11.0 -0.5608725547790527 L 12.0 -0.5608725547790527 L 12.0 -0.7136071920394897 L 13.0 -0.7136071920394897 L 13.0 -0.7110483646392822 L 14.0 -0.7110483646392822 L 14.0 -0.7262124419212341 L 15.0 -0.7262124419212341 L 15.0 -0.6038077473640442 L 16.0 -0.6038077473640442 L 16.0 -0.6493574976921082 L 17.0 -0.6493574976921082 L 17.0 -0.656060516834259 L 18.0 -0.656060516834259 L 18.0 -0.707774817943573 L 19.0 -0.707774817943573 L 19.0 -0.7168729901313782 L 20.0 -0.7168729901313782 L 20.0 -0.6311535835266113 L 21.0 -0.6311535835266113 L 21.0 -0.6792514324188232 L 22.0 -0.6792514324188232 L 22.0 -0.6451314091682434 L 23.0 -0.6451314091682434 L 23.0 -0.7341789603233337 L 24.0 -0.7341789603233337 L 24.0 -0.6279088854789734 L 25.0 -0.6279088854789734 L 25.0 -0.6279088854789734 L 24.0 -0.6279088854789734 L 24.0 -0.7341789603233337 L 23.0 -0.7341789603233337 L 23.0 -0.6451314091682434 L 22.0 -0.6451314091682434 L 22.0 -0.6792514324188232 L 21.0 -0.6792514324188232 L 21.0 -0.6311535835266113 L 20.0 -0.6311535835266113 L 20.0 -0.7168729901313782 L 19.0 -0.7168729901313782 L 19.0 -0.707774817943573 L 18.0 -0.707774817943573 L 18.0 -0.656060516834259 L 17.0 -0.656060516834259 L 17.0 -0.6493574976921082 L 16.0 -0.6493574976921082 L 16.0 -0.6038077473640442 L 15.0 -0.6038077473640442 L 15.0 -0.7262124419212341 L 14.0 -0.7262124419212341 L 14.0 -0.7110483646392822 L 13.0 -0.7110483646392822 L 13.0 -0.7136071920394897 L 12.0 -0.7136071920394897 L 12.0 -0.5608725547790527 L 11.0 -0.5608725547790527 L 11.0 -0.5333389639854431 L 10.0 -0.5333389639854431 L 10.0 -0.49791115522384644 L 9.0 -0.49791115522384644 L 9.0 -0.48380398750305176 L 8.0 -0.48380398750305176 L 8.0 -0.5126804709434509 L 7.0 -0.5126804709434509 L 7.0 -0.5032818913459778 L 6.0 -0.5032818913459778 L 6.0 -0.45317256450653076 L 5.0 -0.45317256450653076 L 5.0 -0.3834494352340698 L 4.0 -0.3834494352340698 L 4.0 -0.4200107753276825 L 3.0 -0.4200107753276825 L 3.0 -0.45701053738594055 L 2.0 -0.45701053738594055 L 2.0 -0.42692995071411133 L 1.0 -0.42692995071411133 L 1.0 -0.43765050172805786 L 0.0 -0.43765050172805786 Z" style="vector-effect: non-scaling-stroke;" /></g></g><g style="stroke: black;stroke-width: 1.2000000000000002;" transform="matrix(1.0, 0.0, 0.0, 1.0, 0.0, 0.0)"><path d="M 0.0 -0.43765050172805786 L 1.0 -0.43765050172805786 L 1.0 -0.42692995071411133 L 2.0 -0.42692995071411133 L 2.0 -0.45701053738594055 L 3.0 -0.45701053738594055 L 3.0 -0.4200107753276825 L 4.0 -0.4200107753276825 L 4.0 -0.3834494352340698 L 5.0 -0.3834494352340698 L 5.0 -0.45317256450653076 L 6.0 -0.45317256450653076 L 6.0 -0.5032818913459778 L 7.0 -0.5032818913459778 L 7.0 -0.5126804709434509 L 8.0 -0.5126804709434509 L 8.0 -0.48380398750305176 L 9.0 -0.48380398750305176 L 9.0 -0.49791115522384644 L 10.0 -0.49791115522384644 L 10.0 -0.5333389639854431 L 11.0 -0.5333389639854431 L 11.0 -0.5608725547790527 L 12.0 -0.5608725547790527 L 12.0 -0.7136071920394897 L 13.0 -0.7136071920394897 L 13.0 -0.7110483646392822 L 14.0 -0.7110483646392822 L 14.0 -0.7262124419212341 L 15.0 -0.7262124419212341 L 15.0 -0.6038077473640442 L 16.0 -0.6038077473640442 L 16.0 -0.6493574976921082 L 17.0 -0.6493574976921082 L 17.0 -0.656060516834259 L 18.0 -0.656060516834259 L 18.0 -0.707774817943573 L 19.0 -0.707774817943573 L 19.0 -0.7168729901313782 L 20.0 -0.7168729901313782 L 20.0 -0.6311535835266113 L 21.0 -0.6311535835266113 L 21.0 -0.6792514324188232 L 22.0 -0.6792514324188232 L 22.0 -0.6451314091682434 L 23.0 -0.6451314091682434 L 23.0 -0.7341789603233337 L 24.0 -0.7341789603233337 L 24.0 -0.6279088854789734 L 25.0 -0.6279088854789734" style="vector-effect: non-scaling-stroke;fill:none;" /></g></g></g></g></g></g><g transform="matrix(1.0, 0.0, 0.0, 1.0, -0.125, 0.16206009566783905)"><g transform="matrix(1.0, 0.0, 0.0, 0.009999999999999995, 0.0, 0.0)"><g transform="matrix(0.01, 0.0, 0.0, 1.0, 0.0, 0.0)"><g><g><g style="fill: #0000ff;stroke: #0000ff;stroke-width: 1.2000000000000002;fill-opacity: 0.5;" transform="matrix(1.0, 0.0, 0.0, 1.0, 0.0, 0.0)"><path d="M 0.0 -2.0 L 0.0 2.0" style="vector-effect: non-scaling-stroke;fill:none;" /></g><g style="fill: #0000ff;stroke: #0000ff;stroke-width: 1.2000000000000002;fill-opacity: 0.5;" transform="matrix(1.0, 0.0, 0.0, 1.0, 0.0, 0.0)"><path d="M 0.0 -0.43765050172805786 L 1.0 -0.43765050172805786 L 1.0 -0.42692995071411133 L 2.0 -0.42692995071411133 L 2.0 -0.45701053738594055 L 3.0 -0.45701053738594055 L 3.0 -0.4200107753276825 L 4.0 -0.4200107753276825 L 4.0 -0.3834494352340698 L 5.0 -0.3834494352340698 L 5.0 -0.45317256450653076 L 6.0 -0.45317256450653076 L 6.0 -0.5032818913459778 L 7.0 -0.5032818913459778 L 7.0 -0.5126804709434509 L 8.0 -0.5126804709434509 L 8.0 -0.48380398750305176 L 9.0 -0.48380398750305176 L 9.0 -0.49791115522384644 L 10.0 -0.49791115522384644 L 10.0 -0.5333389639854431 L 11.0 -0.5333389639854431 L 11.0 -0.5608725547790527 L 12.0 -0.5608725547790527 L 12.0 -0.7136071920394897 L 13.0 -0.7136071920394897 L 13.0 -0.7110483646392822 L 14.0 -0.7110483646392822 L 14.0 -0.7262124419212341 L 15.0 -0.7262124419212341 L 15.0 -0.6038077473640442 L 16.0 -0.6038077473640442 L 16.0 -0.6493574976921082 L 17.0 -0.6493574976921082 L 17.0 -0.656060516834259 L 18.0 -0.656060516834259 L 18.0 -0.707774817943573 L 19.0 -0.707774817943573 L 19.0 -0.7168729901313782 L 20.0 -0.7168729901313782 L 20.0 -0.6311535835266113 L 21.0 -0.6311535835266113 L 21.0 -0.6792514324188232 L 22.0 -0.6792514324188232 L 22.0 -0.6451314091682434 L 23.0 -0.6451314091682434 L 23.0 -0.7341789603233337 L 24.0 -0.7341789603233337 L 24.0 -0.6279088854789734 L 25.0 -0.6279088854789734 L 25.0 -0.6279088854789734 L 24.0 -0.6279088854789734 L 24.0 -0.7341789603233337 L 23.0 -0.7341789603233337 L 23.0 -0.6451314091682434 L 22.0 -0.6451314091682434 L 22.0 -0.6792514324188232 L 21.0 -0.6792514324188232 L 21.0 -0.6311535835266113 L 20.0 -0.6311535835266113 L 20.0 -0.7168729901313782 L 19.0 -0.7168729901313782 L 19.0 -0.707774817943573 L 18.0 -0.707774817943573 L 18.0 -0.656060516834259 L 17.0 -0.656060516834259 L 17.0 -0.6493574976921082 L 16.0 -0.6493574976921082 L 16.0 -0.6038077473640442 L 15.0 -0.6038077473640442 L 15.0 -0.7262124419212341 L 14.0 -0.7262124419212341 L 14.0 -0.7110483646392822 L 13.0 -0.7110483646392822 L 13.0 -0.7136071920394897 L 12.0 -0.7136071920394897 L 12.0 -0.5608725547790527 L 11.0 -0.5608725547790527 L 11.0 -0.5333389639854431 L 10.0 -0.5333389639854431 L 10.0 -0.49791115522384644 L 9.0 -0.49791115522384644 L 9.0 -0.48380398750305176 L 8.0 -0.48380398750305176 L 8.0 -0.5126804709434509 L 7.0 -0.5126804709434509 L 7.0 -0.5032818913459778 L 6.0 -0.5032818913459778 L 6.0 -0.45317256450653076 L 5.0 -0.45317256450653076 L 5.0 -0.3834494352340698 L 4.0 -0.3834494352340698 L 4.0 -0.4200107753276825 L 3.0 -0.4200107753276825 L 3.0 -0.45701053738594055 L 2.0 -0.45701053738594055 L 2.0 -0.42692995071411133 L 1.0 -0.42692995071411133 L 1.0 -0.43765050172805786 L 0.0 -0.43765050172805786 Z" style="vector-effect: non-scaling-stroke;" /></g></g><g style="stroke: black;stroke-width: 1.2000000000000002;" transform="matrix(1.0, 0.0, 0.0, 1.0, 0.0, 0.0)"><path d="M 0.0 -0.43765050172805786 L 1.0 -0.43765050172805786 L 1.0 -0.42692995071411133 L 2.0 -0.42692995071411133 L 2.0 -0.45701053738594055 L 3.0 -0.45701053738594055 L 3.0 -0.4200107753276825 L 4.0 -0.4200107753276825 L 4.0 -0.3834494352340698 L 5.0 -0.3834494352340698 L 5.0 -0.45317256450653076 L 6.0 -0.45317256450653076 L 6.0 -0.5032818913459778 L 7.0 -0.5032818913459778 L 7.0 -0.5126804709434509 L 8.0 -0.5126804709434509 L 8.0 -0.48380398750305176 L 9.0 -0.48380398750305176 L 9.0 -0.49791115522384644 L 10.0 -0.49791115522384644 L 10.0 -0.5333389639854431 L 11.0 -0.5333389639854431 L 11.0 -0.5608725547790527 L 12.0 -0.5608725547790527 L 12.0 -0.7136071920394897 L 13.0 -0.7136071920394897 L 13.0 -0.7110483646392822 L 14.0 -0.7110483646392822 L 14.0 -0.7262124419212341 L 15.0 -0.7262124419212341 L 15.0 -0.6038077473640442 L 16.0 -0.6038077473640442 L 16.0 -0.6493574976921082 L 17.0 -0.6493574976921082 L 17.0 -0.656060516834259 L 18.0 -0.656060516834259 L 18.0 -0.707774817943573 L 19.0 -0.707774817943573 L 19.0 -0.7168729901313782 L 20.0 -0.7168729901313782 L 20.0 -0.6311535835266113 L 21.0 -0.6311535835266113 L 21.0 -0.6792514324188232 L 22.0 -0.6792514324188232 L 22.0 -0.6451314091682434 L 23.0 -0.6451314091682434 L 23.0 -0.7341789603233337 L 24.0 -0.7341789603233337 L 24.0 -0.6279088854789734 L 25.0 -0.6279088854789734" style="vector-effect: non-scaling-stroke;fill:none;" /></g></g></g></g></g></g></g></g><g /></g></g></g></g></svg>