<?xml version="1.0" encoding="utf-8" ?>
<svg baseProfile="full" height="300" version="1.1" width="852" xmlns="http://www.w3.org/2000/svg" xmlns:ev="http://www.w3.org/2001/xml-events" xmlns:xlink="http://www.w3.org/1999/xlink"><defs><marker id="arrow" markerHeight="3.5" markerWidth="5" orient="auto" refX="5.0" refY="1.7"><polygon points="0,0 5,1.75 0,3.5" /></marker></defs><g style="fill:white;"><g transform="matrix(1.0, 0.0, 0.0, 1.0, 426.13636363636357, 150.0)"><g transform="matrix(1082.2510822510822, 0.0, 0.0, 1082.2510822510822, 0.0, 0.0)"><g><g transform="matrix(1.0, 0.0, 0.0, 1.0, -5.551115123125783e-17, -0.08000000000000002)"><g><g><g style="fill: #ffffff;stroke: black;stroke-width: 1.2000000000000002;" transform="matrix(1.0, 0.0, 0.0, 1.0, -0.3749999999999999, -0.052000000000000005)"><path d="M 0.0 0.0 L 0.7499999999999999 0.0 L 0.7499999999999999 0.264 L 0.0 0.264 L 0.0 0.0 Z" style="vector-effect: non-scaling-stroke;" /></g><g><g><g><g><g><g transform="matrix(1.0, 0.0, 0.0, 1.0, -0.08, -0.03)"><g transform="matrix(1.0, 0.0, 0.0, 1.0, 0.075, 0.0)"><g transform="matrix(1.0, 0.0, 0.0, 1.0, 0.0, 0.03)"><g transform="matrix(0.01, 0.0, 0.0, 0.01, 0.0, 0.0)"><g><g><g transform="matrix(1.0, 0.0, 0.0, 1.0, 0.5, 0.0)"><g transform="matrix(1.0, 0.0, 0.0, 1.0, -8.0, -0.0)"><g><g style="fill: #d3d3d3;stroke: black;stroke-width: 1.2000000000000002;" transform="matrix(1.0, 0.0, 0.0, 1.0, 0.0, -3.0)"><path d="M 0.0 0.0 L 16.0 0.0 L 16.0 6.0 L 0.0 6.0 L 0.0 0.0 Z" style="vector-effect: non-scaling-stroke;" /></g><g transform="matrix(1.0, 0.0, 0.0, 1.0, 1.875, 0.0)"><g><g style="stroke: black;stroke-width: 1.2000000000000002;" transform="matrix(1.0, 0.0, 0.0, 1.0, 0.0, 0.0)"><g /></g><g style="fill: #ffa500;stroke: black;stroke-width: 1.2000000000000002;" transform="matrix(1.0, 0.0, 0.0, 1.0, 1.875, 0.0)"><text style="text-align:center; text-anchor:middle; dominant-baseline:middle;&#10;                      font-family:sans-serif; font-weight: bold;&#10;                      font-size:3px;&#10;                      vector-effect: non-scaling-stroke;" transform="translate(-5e-05, 0)">x</text></g></g></g></g></g></g><g><g><g><g style="stroke: black;stroke-width: 1.2000000000000002;" transform="matrix(1.0, 0.0, 0.0, 1.0, 0.0, 0.0)"><path d="M 0.0 -2.0 L 0.0 2.0" style="vector-effect: non-scaling-stroke;fill:none;" /></g><g style="stroke: #808080;stroke-width: 0.6000000000000001;" transform="matrix(1.0, 0.0, 0.0, 1.0, 0.0, 0.0)"><path d="M 0.0 0.0 L 1.0 0.0" style="vector-effect: non-scaling-stroke;fill:none;" /></g></g><g style="stroke: black;stroke-width: 2.4000000000000004;" transform="matrix(1.0, 0.0, 0.0, 1.0, 0.0, 0.0)"><path d="M 0.0 0.6617961525917053 L 1.0 0.6617961525917053" style="vector-effect: non-scaling-stroke;fill:none;" /></g></g></g></g><g><g><g><g style="stroke: black;stroke-width: 1.2000000000000002;" transform="matrix(1.0, 0.0, 0.0, 1.0, 0.0, 0.0)"><path d="M 0.0 -2.0 L 0.0 2.0" style="vector-effect: non-scaling-stroke;fill:none;" /></g><g style="stroke: #808080;stroke-width: 0.6000000000000001;" transform="matrix(1.0, 0.0, 0.0, 1.0, 0.0, 0.0)"><path d="M 0.0 0.0 L 1.0 0.0" style="vector-effect: non-scaling-stroke;fill:none;" /></g></g><g style="stroke: black;stroke-width: 2.4000000000000004;" transform="matrix(1.0, 0.0, 0.0, 1.0, 0.0, 0.0)"><path d="M 0.0 0.6617961525917053 L 1.0 0.6617961525917053" style="vector-effect: non-scaling-stroke;fill:none;" /></g></g></g></g></g></g></g></g><g style="stroke: black;stroke-width: 1.2000000000000002;" transform="matrix(0.0, -1.0, 1.0, 0.0, 0.0, 0.08)"><g /></g></g><g transform="matrix(1.0, 0.0, 0.0, 1.0, 0.0, 0.16)"><g transform="matrix(1.0, 0.0, 0.0, 1.0, -0.32499999999999996, -0.03)"><g transform="matrix(1.0, 0.0, 0.0, 1.0, 0.075, 0.0)"><g transform="matrix(1.0, 0.0, 0.0, 1.0, 0.0, 0.03)"><g transform="matrix(0.01, 0.0, 0.0, 0.01, 0.0, 0.0)"><g><g><g transform="matrix(1.0, 0.0, 0.0, 1.0, 25.0, 0.0)"><g transform="matrix(1.0, 0.0, 0.0, 1.0, -32.5, -0.0)"><g><g style="fill: #d3d3d3;stroke: black;stroke-width: 1.2000000000000002;" transform="matrix(1.0, 0.0, 0.0, 1.0, 0.0, -3.0)"><path d="M 0.0 0.0 L 65.0 0.0 L 65.0 6.0 L 0.0 6.0 L 0.0 0.0 Z" style="vector-effect: non-scaling-stroke;" /></g><g transform="matrix(1.0, 0.0, 0.0, 1.0, 1.875, 0.0)"><g><g style="stroke: black;stroke-width: 1.2000000000000002;" transform="matrix(1.0, 0.0, 0.0, 1.0, 0.0, 0.0)"><g /></g><g style="fill: #ffa500;stroke: black;stroke-width: 1.2000000000000002;" transform="matrix(1.0, 0.0, 0.0, 1.0, 1.875, 0.0)"><text style="text-align:center; text-anchor:middle; dominant-baseline:middle;&#10;                      font-family:sans-serif; font-weight: bold;&#10;                      font-size:3px;&#10;                      vector-effect: non-scaling-stroke;" transform="translate(-5e-05, 0)">f(x)</text></g></g></g></g></g></g><g><g><g><g style="stroke: black;stroke-width: 1.2000000000000002;" transform="matrix(1.0, 0.0, 0.0, 1.0, 0.0, 0.0)"><path d="M 0.0 -2.0 L 0.0 2.0" style="vector-effect: non-scaling-stroke;fill:none;" /></g><g style="stroke: #808080;stroke-width: 0.6000000000000001;" transform="matrix(1.0, 0.0, 0.0, 1.0, 0.0, 0.0)"><path d="M 0.0 0.0 L 50.0 0.0" style="vector-effect: non-scaling-stroke;fill:none;" /></g></g><g style="stroke: black;stroke-width: 2.4000000000000004;" transform="matrix(1.0, 0.0, 0.0, 1.0, 0.0, 0.0)"><path d="M 0.0 0.0 L 1.0 0.0 L 1.0 0.013235922902822495 L 2.0 0.013235922902822495 L 2.0 0.02647184580564499 L 3.0 0.02647184580564499 L 3.0 0.039707768708467484 L 4.0 0.039707768708467484 L 4.0 0.05294369161128998 L 5.0 0.05294369161128998 L 5.0 0.06617961823940277 L 6.0 0.06617961823940277 L 6.0 0.07941553741693497 L 7.0 0.07941553741693497 L 7.0 0.09265146404504776 L 8.0 0.09265146404504776 L 8.0 0.10588738322257996 L 9.0 0.10588738322257996 L 9.0 0.11912330985069275 L 10.0 0.11912330985069275 L 10.0 0.13235923647880554 L 11.0 0.13235923647880554 L 11.0 0.14559514820575714 L 12.0 0.14559514820575714 L 12.0 0.15883107483386993 L 13.0 0.15883107483386993 L 13.0 0.17206698656082153 L 14.0 0.17206698656082153 L 14.0 0.18530292809009552 L 15.0 0.18530292809009552 L 15.0 0.1985388547182083 L 16.0 0.1985388547182083 L 16.0 0.2117747664451599 L 17.0 0.2117747664451599 L 17.0 0.2250106930732727 L 18.0 0.2250106930732727 L 18.0 0.2382466197013855 L 19.0 0.2382466197013855 L 19.0 0.2514825463294983 L 20.0 0.2514825463294983 L 20.0 0.2647184729576111 L 21.0 0.2647184729576111 L 21.0 0.2779543697834015 L 22.0 0.2779543697834015 L 22.0 0.2911902964115143 L 23.0 0.2911902964115143 L 23.0 0.3044262230396271 L 24.0 0.3044262230396271 L 24.0 0.31766214966773987 L 25.0 0.31766214966773987 L 25.0 0.33089807629585266 L 26.0 0.33089807629585266 L 26.0 0.34413397312164307 L 27.0 0.34413397312164307 L 27.0 0.35736992955207825 L 28.0 0.35736992955207825 L 28.0 0.37060585618019104 L 29.0 0.37060585618019104 L 29.0 0.38384175300598145 L 30.0 0.38384175300598145 L 30.0 0.3970777094364166 L 31.0 0.3970777094364166 L 31.0 0.41031360626220703 L 32.0 0.41031360626220703 L 32.0 0.4235495328903198 L 33.0 0.4235495328903198 L 33.0 0.436785489320755 L 34.0 0.436785489320755 L 34.0 0.4500213861465454 L 35.0 0.4500213861465454 L 35.0 0.4632573127746582 L 36.0 0.4632573127746582 L 36.0 0.476493239402771 L 37.0 0.476493239402771 L 37.0 0.4897291660308838 L 38.0 0.4897291660308838 L 38.0 0.5029650926589966 L 39.0 0.5029650926589966 L 39.0 0.5162009596824646 L 40.0 0.5162009596824646 L 40.0 0.5294369459152222 L 41.0 0.5294369459152222 L 41.0 0.5426728129386902 L 42.0 0.5426728129386902 L 42.0 0.555908739566803 L 43.0 0.555908739566803 L 43.0 0.5691447257995605 L 44.0 0.5691447257995605 L 44.0 0.5823805928230286 L 45.0 0.5823805928230286 L 45.0 0.5956165194511414 L 46.0 0.5956165194511414 L 46.0 0.6088524460792542 L 47.0 0.6088524460792542 L 47.0 0.6220883727073669 L 48.0 0.6220883727073669 L 48.0 0.6353242993354797 L 49.0 0.6353242993354797 L 49.0 0.6485602259635925 L 50.0 0.6485602259635925" style="vector-effect: non-scaling-stroke;fill:none;" /></g></g></g></g><g><g><g><g style="stroke: black;stroke-width: 1.2000000000000002;" transform="matrix(1.0, 0.0, 0.0, 1.0, 0.0, 0.0)"><path d="M 0.0 -2.0 L 0.0 2.0" style="vector-effect: non-scaling-stroke;fill:none;" /></g><g style="stroke: #808080;stroke-width: 0.6000000000000001;" transform="matrix(1.0, 0.0, 0.0, 1.0, 0.0, 0.0)"><path d="M 0.0 0.0 L 50.0 0.0" style="vector-effect: non-scaling-stroke;fill:none;" /></g></g><g style="stroke: black;stroke-width: 2.4000000000000004;" transform="matrix(1.0, 0.0, 0.0, 1.0, 0.0, 0.0)"><path d="M 0.0 0.0 L 1.0 0.0 L 1.0 0.013235922902822495 L 2.0 0.013235922902822495 L 2.0 0.02647184580564499 L 3.0 0.02647184580564499 L 3.0 0.039707768708467484 L 4.0 0.039707768708467484 L 4.0 0.05294369161128998 L 5.0 0.05294369161128998 L 5.0 0.06617961823940277 L 6.0 0.06617961823940277 L 6.0 0.07941553741693497 L 7.0 0.07941553741693497 L 7.0 0.09265146404504776 L 8.0 0.09265146404504776 L 8.0 0.10588738322257996 L 9.0 0.10588738322257996 L 9.0 0.11912330985069275 L 10.0 0.11912330985069275 L 10.0 0.13235923647880554 L 11.0 0.13235923647880554 L 11.0 0.14559514820575714 L 12.0 0.14559514820575714 L 12.0 0.15883107483386993 L 13.0 0.15883107483386993 L 13.0 0.17206698656082153 L 14.0 0.17206698656082153 L 14.0 0.18530292809009552 L 15.0 0.18530292809009552 L 15.0 0.1985388547182083 L 16.0 0.1985388547182083 L 16.0 0.2117747664451599 L 17.0 0.2117747664451599 L 17.0 0.2250106930732727 L 18.0 0.2250106930732727 L 18.0 0.2382466197013855 L 19.0 0.2382466197013855 L 19.0 0.2514825463294983 L 20.0 0.2514825463294983 L 20.0 0.2647184729576111 L 21.0 0.2647184729576111 L 21.0 0.2779543697834015 L 22.0 0.2779543697834015 L 22.0 0.2911902964115143 L 23.0 0.2911902964115143 L 23.0 0.3044262230396271 L 24.0 0.3044262230396271 L 24.0 0.31766214966773987 L 25.0 0.31766214966773987 L 25.0 0.33089807629585266 L 26.0 0.33089807629585266 L 26.0 0.34413397312164307 L 27.0 0.34413397312164307 L 27.0 0.35736992955207825 L 28.0 0.35736992955207825 L 28.0 0.37060585618019104 L 29.0 0.37060585618019104 L 29.0 0.38384175300598145 L 30.0 0.38384175300598145 L 30.0 0.3970777094364166 L 31.0 0.3970777094364166 L 31.0 0.41031360626220703 L 32.0 0.41031360626220703 L 32.0 0.4235495328903198 L 33.0 0.4235495328903198 L 33.0 0.436785489320755 L 34.0 0.436785489320755 L 34.0 0.4500213861465454 L 35.0 0.4500213861465454 L 35.0 0.4632573127746582 L 36.0 0.4632573127746582 L 36.0 0.476493239402771 L 37.0 0.476493239402771 L 37.0 0.4897291660308838 L 38.0 0.4897291660308838 L 38.0 0.5029650926589966 L 39.0 0.5029650926589966 L 39.0 0.5162009596824646 L 40.0 0.5162009596824646 L 40.0 0.5294369459152222 L 41.0 0.5294369459152222 L 41.0 0.5426728129386902 L 42.0 0.5426728129386902 L 42.0 0.555908739566803 L 43.0 0.555908739566803 L 43.0 0.5691447257995605 L 44.0 0.5691447257995605 L 44.0 0.5823805928230286 L 45.0 0.5823805928230286 L 45.0 0.5956165194511414 L 46.0 0.5956165194511414 L 46.0 0.6088524460792542 L 47.0 0.6088524460792542 L 47.0 0.6220883727073669 L 48.0 0.6220883727073669 L 48.0 0.6353242993354797 L 49.0 0.6353242993354797 L 49.0 0.6485602259635925 L 50.0 0.6485602259635925" style="vector-effect: non-scaling-stroke;fill:none;" /></g></g></g></g></g></g></g></g></g></g><g transform="matrix(1.0, 0.0, 0.0, 1.0, -0.24999999999999994, 0.16)"><g transform="matrix(1.0, 0.0, 0.0, 0.009999999999999995, 0.0, 0.0)"><g transform="matrix(0.01, 0.0, 0.0, 1.0, 0.0, 0.0)"><g><g><g style="fill: #ff0000;stroke: #ff0000;stroke-width: 1.2000000000000002;fill-opacity: 0.5;" transform="matrix(1.0, 0.0, 0.0, 1.0, 0.0, 0.0)"><path d="M 0.0 -2.0 L 0.0 2.0" style="vector-effect: non-scaling-stroke;fill:none;" /></g><g style="fill: #ff0000;stroke: #ff0000;stroke-width: 1.2000000000000002;fill-opacity: 0.5;" transform="matrix(1.0, 0.0, 0.0, 1.0, 0.0, 0.0)"><path d="M 0.0 -0.0 L 1.0 0.0 L 1.0 0.013235922902822495 L 2.0 0.013235922902822495 L 2.0 0.02647184580564499 L 3.0 0.02647184580564499 L 3.0 0.039707768708467484 L 4.0 0.039707768708467484 L 4.0 0.05294369161128998 L 5.0 0.05294369161128998 L 5.0 0.06617961823940277 L 6.0 0.06617961823940277 L 6.0 0.07941553741693497 L 7.0 0.07941553741693497 L 7.0 0.09265146404504776 L 8.0 0.09265146404504776 L 8.0 0.10588738322257996 L 9.0 0.10588738322257996 L 9.0 0.11912330985069275 L 10.0 0.11912330985069275 L 10.0 0.13235923647880554 L 11.0 0.13235923647880554 L 11.0 0.14559514820575714 L 12.0 0.14559514820575714 L 12.0 0.15883107483386993 L 13.0 0.15883107483386993 L 13.0 0.17206698656082153 L 14.0 0.17206698656082153 L 14.0 0.18530292809009552 L 15.0 0.18530292809009552 L 15.0 0.1985388547182083 L 16.0 0.1985388547182083 L 16.0 0.2117747664451599 L 17.0 0.2117747664451599 L 17.0 0.2250106930732727 L 18.0 0.2250106930732727 L 18.0 0.2382466197013855 L 19.0 0.2382466197013855 L 19.0 0.2514825463294983 L 20.0 0.2514825463294983 L 20.0 0.2647184729576111 L 21.0 0.2647184729576111 L 21.0 0.2779543697834015 L 22.0 0.2779543697834015 L 22.0 0.2911902964115143 L 23.0 0.2911902964115143 L 23.0 0.3044262230396271 L 24.0 0.3044262230396271 L 24.0 0.31766214966773987 L 25.0 0.31766214966773987 L 25.0 0.33089807629585266 L 26.0 0.33089807629585266 L 26.0 0.34413397312164307 L 27.0 0.34413397312164307 L 27.0 0.35736992955207825 L 28.0 0.35736992955207825 L 28.0 0.37060585618019104 L 29.0 0.37060585618019104 L 29.0 0.38384175300598145 L 30.0 0.38384175300598145 L 30.0 0.3970777094364166 L 31.0 0.3970777094364166 L 31.0 0.41031360626220703 L 32.0 0.41031360626220703 L 32.0 0.4235495328903198 L 33.0 0.4235495328903198 L 33.0 0.436785489320755 L 34.0 0.436785489320755 L 34.0 0.4500213861465454 L 35.0 0.4500213861465454 L 35.0 0.4632573127746582 L 36.0 0.4632573127746582 L 36.0 0.476493239402771 L 37.0 0.476493239402771 L 37.0 0.4897291660308838 L 38.0 0.4897291660308838 L 38.0 0.5029650926589966 L 39.0 0.5029650926589966 L 39.0 0.5162009596824646 L 40.0 0.5162009596824646 L 40.0 0.5294369459152222 L 41.0 0.5294369459152222 L 41.0 0.5426728129386902 L 42.0 0.5426728129386902 L 42.0 0.555908739566803 L 43.0 0.555908739566803 L 43.0 0.5691447257995605 L 44.0 0.5691447257995605 L 44.0 0.5823805928230286 L 45.0 0.5823805928230286 L 45.0 0.5956165194511414 L 46.0 0.5956165194511414 L 46.0 0.6088524460792542 L 47.0 0.6088524460792542 L 47.0 0.6220883727073669 L 48.0 0.6220883727073669 L 48.0 0.6353242993354797 L 49.0 0.6353242993354797 L 49.0 0.6485602259635925 L 50.0 0.6485602259635925 L 50.0 0.6485602259635925 L 49.0 0.6485602259635925 L 49.0 0.6353242993354797 L 48.0 0.6353242993354797 L 48.0 0.6220883727073669 L 47.0 0.6220883727073669 L 47.0 0.6088524460792542 L 46.0 0.6088524460792542 L 46.0 0.5956165194511414 L 45.0 0.5956165194511414 L 45.0 0.5823805928230286 L 44.0 0.5823805928230286 L 44.0 0.5691447257995605 L 43.0 0.5691447257995605 L 43.0 0.555908739566803 L 42.0 0.555908739566803 L 42.0 0.5426728129386902 L 41.0 0.5426728129386902 L 41.0 0.5294369459152222 L 40.0 0.5294369459152222 L 40.0 0.5162009596824646 L 39.0 0.5162009596824646 L 39.0 0.5029650926589966 L 38.0 0.5029650926589966 L 38.0 0.4897291660308838 L 37.0 0.4897291660308838 L 37.0 0.476493239402771 L 36.0 0.476493239402771 L 36.0 0.4632573127746582 L 35.0 0.4632573127746582 L 35.0 0.4500213861465454 L 34.0 0.4500213861465454 L 34.0 0.436785489320755 L 33.0 0.436785489320755 L 33.0 0.4235495328903198 L 32.0 0.4235495328903198 L 32.0 0.41031360626220703 L 31.0 0.41031360626220703 L 31.0 0.3970777094364166 L 30.0 0.3970777094364166 L 30.0 0.38384175300598145 L 29.0 0.38384175300598145 L 29.0 0.37060585618019104 L 28.0 0.37060585618019104 L 28.0 0.35736992955207825 L 27.0 0.35736992955207825 L 27.0 0.34413397312164307 L 26.0 0.34413397312164307 L 26.0 0.33089807629585266 L 25.0 0.33089807629585266 L 25.0 0.31766214966773987 L 24.0 0.31766214966773987 L 24.0 0.3044262230396271 L 23.0 0.3044262230396271 L 23.0 0.2911902964115143 L 22.0 0.2911902964115143 L 22.0 0.2779543697834015 L 21.0 0.2779543697834015 L 21.0 0.2647184729576111 L 20.0 0.2647184729576111 L 20.0 0.2514825463294983 L 19.0 0.2514825463294983 L 19.0 0.2382466197013855 L 18.0 0.2382466197013855 L 18.0 0.2250106930732727 L 17.0 0.2250106930732727 L 17.0 0.2117747664451599 L 16.0 0.2117747664451599 L 16.0 0.1985388547182083 L 15.0 0.1985388547182083 L 15.0 0.18530292809009552 L 14.0 0.18530292809009552 L 14.0 0.17206698656082153 L 13.0 0.17206698656082153 L 13.0 0.15883107483386993 L 12.0 0.15883107483386993 L 12.0 0.14559514820575714 L 11.0 0.14559514820575714 L 11.0 0.13235923647880554 L 10.0 0.13235923647880554 L 10.0 0.11912330985069275 L 9.0 0.11912330985069275 L 9.0 0.10588738322257996 L 8.0 0.10588738322257996 L 8.0 0.09265146404504776 L 7.0 0.09265146404504776 L 7.0 0.07941553741693497 L 6.0 0.07941553741693497 L 6.0 0.06617961823940277 L 5.0 0.06617961823940277 L 5.0 0.05294369161128998 L 4.0 0.05294369161128998 L 4.0 0.039707768708467484 L 3.0 0.039707768708467484 L 3.0 0.02647184580564499 L 2.0 0.02647184580564499 L 2.0 0.013235922902822495 L 1.0 0.013235922902822495 L 1.0 0.0 L 0.0 0.0 Z" style="vector-effect: non-scaling-stroke;" /></g></g><g style="stroke: black;stroke-width: 1.2000000000000002;" transform="matrix(1.0, 0.0, 0.0, 1.0, 0.0, 0.0)"><path d="M 0.0 0.0 L 1.0 0.0 L 1.0 0.013235922902822495 L 2.0 0.013235922902822495 L 2.0 0.02647184580564499 L 3.0 0.02647184580564499 L 3.0 0.039707768708467484 L 4.0 0.039707768708467484 L 4.0 0.05294369161128998 L 5.0 0.05294369161128998 L 5.0 0.06617961823940277 L 6.0 0.06617961823940277 L 6.0 0.07941553741693497 L 7.0 0.07941553741693497 L 7.0 0.09265146404504776 L 8.0 0.09265146404504776 L 8.0 0.10588738322257996 L 9.0 0.10588738322257996 L 9.0 0.11912330985069275 L 10.0 0.11912330985069275 L 10.0 0.13235923647880554 L 11.0 0.13235923647880554 L 11.0 0.14559514820575714 L 12.0 0.14559514820575714 L 12.0 0.15883107483386993 L 13.0 0.15883107483386993 L 13.0 0.17206698656082153 L 14.0 0.17206698656082153 L 14.0 0.18530292809009552 L 15.0 0.18530292809009552 L 15.0 0.1985388547182083 L 16.0 0.1985388547182083 L 16.0 0.2117747664451599 L 17.0 0.2117747664451599 L 17.0 0.2250106930732727 L 18.0 0.2250106930732727 L 18.0 0.2382466197013855 L 19.0 0.2382466197013855 L 19.0 0.2514825463294983 L 20.0 0.2514825463294983 L 20.0 0.2647184729576111 L 21.0 0.2647184729576111 L 21.0 0.2779543697834015 L 22.0 0.2779543697834015 L 22.0 0.2911902964115143 L 23.0 0.2911902964115143 L 23.0 0.3044262230396271 L 24.0 0.3044262230396271 L 24.0 0.31766214966773987 L 25.0 0.31766214966773987 L 25.0 0.33089807629585266 L 26.0 0.33089807629585266 L 26.0 0.34413397312164307 L 27.0 0.34413397312164307 L 27.0 0.35736992955207825 L 28.0 0.35736992955207825 L 28.0 0.37060585618019104 L 29.0 0.37060585618019104 L 29.0 0.38384175300598145 L 30.0 0.38384175300598145 L 30.0 0.3970777094364166 L 31.0 0.3970777094364166 L 31.0 0.41031360626220703 L 32.0 0.41031360626220703 L 32.0 0.4235495328903198 L 33.0 0.4235495328903198 L 33.0 0.436785489320755 L 34.0 0.436785489320755 L 34.0 0.4500213861465454 L 35.0 0.4500213861465454 L 35.0 0.4632573127746582 L 36.0 0.4632573127746582 L 36.0 0.476493239402771 L 37.0 0.476493239402771 L 37.0 0.4897291660308838 L 38.0 0.4897291660308838 L 38.0 0.5029650926589966 L 39.0 0.5029650926589966 L 39.0 0.5162009596824646 L 40.0 0.5162009596824646 L 40.0 0.5294369459152222 L 41.0 0.5294369459152222 L 41.0 0.5426728129386902 L 42.0 0.5426728129386902 L 42.0 0.555908739566803 L 43.0 0.555908739566803 L 43.0 0.5691447257995605 L 44.0 0.5691447257995605 L 44.0 0.5823805928230286 L 45.0 0.5823805928230286 L 45.0 0.5956165194511414 L 46.0 0.5956165194511414 L 46.0 0.6088524460792542 L 47.0 0.6088524460792542 L 47.0 0.6220883727073669 L 48.0 0.6220883727073669 L 48.0 0.6353242993354797 L 49.0 0.6353242993354797 L 49.0 0.6485602259635925 L 50.0 0.6485602259635925" style="vector-effect: non-scaling-stroke;fill:none;" /></g></g></g></g></g></g><g transform="matrix(1.0, 0.0, 0.0, 1.0, -0.24999999999999994, 0.16)"><g transform="matrix(1.0, 0.0, 0.0, 0.009999999999999995, 0.0, 0.0)"><g transform="matrix(0.01, 0.0, 0.0, 1.0, 0.0, 0.0)"><g><g><g style="fill: #ffffe0;stroke: #ffffe0;stroke-width: 1.2000000000000002;fill-opacity: 0.5;" transform="matrix(1.0, 0.0, 0.0, 1.0, 0.0, 0.0)"><path d="M 0.0 -2.0 L 0.0 2.0" style="vector-effect: non-scaling-stroke;fill:none;" /></g><g style="fill: #ffffe0;stroke: #ffffe0;stroke-width: 1.2000000000000002;fill-opacity: 0.5;" transform="matrix(1.0, 0.0, 0.0, 1.0, 0.0, 0.0)"><path d="M 0.0 -0.0 L 1.0 0.0 L 1.0 -0.02681094780564308 L 2.0 -0.02681094780564308 L 2.0 -0.05362189561128616 L 3.0 -0.05362189561128616 L 3.0 -0.08061911165714264 L 4.0 -0.08061911165714264 L 4.0 -0.10724379122257233 L 5.0 -0.10724379122257233 L 5.0 -0.1342409998178482 L 6.0 -0.1342409998178482 L 6.0 -0.16123822331428528 L 7.0 -0.16123822331428528 L 7.0 -0.18823543190956116 L 8.0 -0.18823543190956116 L 8.0 -0.21448758244514465 L 9.0 -0.21448758244514465 L 9.0 -0.24148479104042053 L 10.0 -0.24148479104042053 L 10.0 -0.2684819996356964 L 11.0 -0.2684819996356964 L 11.0 -0.2939891219139099 L 12.0 -0.2939891219139099 L 12.0 -0.32247644662857056 L 13.0 -0.32247644662857056 L 13.0 -0.34798353910446167 L 14.0 -0.34798353910446167 L 14.0 -0.3764708638191223 L 15.0 -0.3764708638191223 L 15.0 -0.4019779562950134 L 16.0 -0.4019779562950134 L 16.0 -0.4289751648902893 L 17.0 -0.4289751648902893 L 17.0 -0.4559723734855652 L 18.0 -0.4559723734855652 L 18.0 -0.48296958208084106 L 19.0 -0.48296958208084106 L 19.0 -0.5114569067955017 L 20.0 -0.5114569067955017 L 20.0 -0.5369639992713928 L 21.0 -0.5369639992713928 L 21.0 -0.5624711513519287 L 22.0 -0.5624711513519287 L 22.0 -0.5879782438278198 L 23.0 -0.5879782438278198 L 23.0 -0.6164655685424805 L 24.0 -0.6164655685424805 L 24.0 -0.6449528932571411 L 25.0 -0.6449528932571411 L 25.0 -0.6704599857330322 L 26.0 -0.6704599857330322 L 26.0 -0.6959670782089233 L 27.0 -0.6959670782089233 L 27.0 -0.724454402923584 L 28.0 -0.724454402923584 L 28.0 -0.7529417276382446 L 29.0 -0.7529417276382446 L 29.0 -0.7784488201141357 L 30.0 -0.7784488201141357 L 30.0 -0.8039559125900269 L 31.0 -0.8039559125900269 L 31.0 -0.829463005065918 L 32.0 -0.829463005065918 L 32.0 -0.8579503297805786 L 33.0 -0.8579503297805786 L 33.0 -0.8864376544952393 L 34.0 -0.8864376544952393 L 34.0 -0.9119447469711304 L 35.0 -0.9119447469711304 L 35.0 -0.940432071685791 L 36.0 -0.940432071685791 L 36.0 -0.9659391641616821 L 37.0 -0.9659391641616821 L 37.0 -0.9944264888763428 L 38.0 -0.9944264888763428 L 38.0 -1.0229138135910034 L 39.0 -1.0229138135910034 L 39.0 -1.045440673828125 L 40.0 -1.045440673828125 L 40.0 -1.0739279985427856 L 41.0 -1.0739279985427856 L 41.0 -1.0964548587799072 L 42.0 -1.0964548587799072 L 42.0 -1.1249423027038574 L 43.0 -1.1249423027038574 L 43.0 -1.1534295082092285 L 44.0 -1.1534295082092285 L 44.0 -1.1759564876556396 L 45.0 -1.1759564876556396 L 45.0 -1.2044436931610107 L 46.0 -1.2044436931610107 L 46.0 -1.232931137084961 L 47.0 -1.232931137084961 L 47.0 -1.261418342590332 L 48.0 -1.261418342590332 L 48.0 -1.2899057865142822 L 49.0 -1.2899057865142822 L 49.0 -1.3124325275421143 L 50.0 -1.3124325275421143 L 50.0 0.6485602259635925 L 49.0 0.6485602259635925 L 49.0 0.6353242993354797 L 48.0 0.6353242993354797 L 48.0 0.6220883727073669 L 47.0 0.6220883727073669 L 47.0 0.6088524460792542 L 46.0 0.6088524460792542 L 46.0 0.5956165194511414 L 45.0 0.5956165194511414 L 45.0 0.5823805928230286 L 44.0 0.5823805928230286 L 44.0 0.5691447257995605 L 43.0 0.5691447257995605 L 43.0 0.555908739566803 L 42.0 0.555908739566803 L 42.0 0.5426728129386902 L 41.0 0.5426728129386902 L 41.0 0.5294369459152222 L 40.0 0.5294369459152222 L 40.0 0.5162009596824646 L 39.0 0.5162009596824646 L 39.0 0.5029650926589966 L 38.0 0.5029650926589966 L 38.0 0.4897291660308838 L 37.0 0.4897291660308838 L 37.0 0.476493239402771 L 36.0 0.476493239402771 L 36.0 0.4632573127746582 L 35.0 0.4632573127746582 L 35.0 0.4500213861465454 L 34.0 0.4500213861465454 L 34.0 0.436785489320755 L 33.0 0.436785489320755 L 33.0 0.4235495328903198 L 32.0 0.4235495328903198 L 32.0 0.41031360626220703 L 31.0 0.41031360626220703 L 31.0 0.3970777094364166 L 30.0 0.3970777094364166 L 30.0 0.38384175300598145 L 29.0 0.38384175300598145 L 29.0 0.37060585618019104 L 28.0 0.37060585618019104 L 28.0 0.35736992955207825 L 27.0 0.35736992955207825 L 27.0 0.34413397312164307 L 26.0 0.34413397312164307 L 26.0 0.33089807629585266 L 25.0 0.33089807629585266 L 25.0 0.31766214966773987 L 24.0 0.31766214966773987 L 24.0 0.3044262230396271 L 23.0 0.3044262230396271 L 23.0 0.2911902964115143 L 22.0 0.2911902964115143 L 22.0 0.2779543697834015 L 21.0 0.2779543697834015 L 21.0 0.2647184729576111 L 20.0 0.2647184729576111 L 20.0 0.2514825463294983 L 19.0 0.2514825463294983 L 19.0 0.2382466197013855 L 18.0 0.2382466197013855 L 18.0 0.2250106930732727 L 17.0 0.2250106930732727 L 17.0 0.2117747664451599 L 16.0 0.2117747664451599 L 16.0 0.1985388547182083 L 15.0 0.1985388547182083 L 15.0 0.18530292809009552 L 14.0 0.18530292809009552 L 14.0 0.17206698656082153 L 13.0 0.17206698656082153 L 13.0 0.15883107483386993 L 12.0 0.15883107483386993 L 12.0 0.14559514820575714 L 11.0 0.14559514820575714 L 11.0 0.13235923647880554 L 10.0 0.13235923647880554 L 10.0 0.11912330985069275 L 9.0 0.11912330985069275 L 9.0 0.10588738322257996 L 8.0 0.10588738322257996 L 8.0 0.09265146404504776 L 7.0 0.09265146404504776 L 7.0 0.07941553741693497 L 6.0 0.07941553741693497 L 6.0 0.06617961823940277 L 5.0 0.06617961823940277 L 5.0 0.05294369161128998 L 4.0 0.05294369161128998 L 4.0 0.039707768708467484 L 3.0 0.039707768708467484 L 3.0 0.02647184580564499 L 2.0 0.02647184580564499 L 2.0 0.013235922902822495 L 1.0 0.013235922902822495 L 1.0 0.0 L 0.0 0.0 Z" style="vector-effect: non-scaling-stroke;" /></g></g><g style="stroke: black;stroke-width: 1.2000000000000002;" transform="matrix(1.0, 0.0, 0.0, 1.0, 0.0, 0.0)"><path d="M 0.0 0.0 L 1.0 0.0 L 1.0 0.013235922902822495 L 2.0 0.013235922902822495 L 2.0 0.02647184580564499 L 3.0 0.02647184580564499 L 3.0 0.039707768708467484 L 4.0 0.039707768708467484 L 4.0 0.05294369161128998 L 5.0 0.05294369161128998 L 5.0 0.06617961823940277 L 6.0 0.06617961823940277 L 6.0 0.07941553741693497 L 7.0 0.07941553741693497 L 7.0 0.09265146404504776 L 8.0 0.09265146404504776 L 8.0 0.10588738322257996 L 9.0 0.10588738322257996 L 9.0 0.11912330985069275 L 10.0 0.11912330985069275 L 10.0 0.13235923647880554 L 11.0 0.13235923647880554 L 11.0 0.14559514820575714 L 12.0 0.14559514820575714 L 12.0 0.15883107483386993 L 13.0 0.15883107483386993 L 13.0 0.17206698656082153 L 14.0 0.17206698656082153 L 14.0 0.18530292809009552 L 15.0 0.18530292809009552 L 15.0 0.1985388547182083 L 16.0 0.1985388547182083 L 16.0 0.2117747664451599 L 17.0 0.2117747664451599 L 17.0 0.2250106930732727 L 18.0 0.2250106930732727 L 18.0 0.2382466197013855 L 19.0 0.2382466197013855 L 19.0 0.2514825463294983 L 20.0 0.2514825463294983 L 20.0 0.2647184729576111 L 21.0 0.2647184729576111 L 21.0 0.2779543697834015 L 22.0 0.2779543697834015 L 22.0 0.2911902964115143 L 23.0 0.2911902964115143 L 23.0 0.3044262230396271 L 24.0 0.3044262230396271 L 24.0 0.31766214966773987 L 25.0 0.31766214966773987 L 25.0 0.33089807629585266 L 26.0 0.33089807629585266 L 26.0 0.34413397312164307 L 27.0 0.34413397312164307 L 27.0 0.35736992955207825 L 28.0 0.35736992955207825 L 28.0 0.37060585618019104 L 29.0 0.37060585618019104 L 29.0 0.38384175300598145 L 30.0 0.38384175300598145 L 30.0 0.3970777094364166 L 31.0 0.3970777094364166 L 31.0 0.41031360626220703 L 32.0 0.41031360626220703 L 32.0 0.4235495328903198 L 33.0 0.4235495328903198 L 33.0 0.436785489320755 L 34.0 0.436785489320755 L 34.0 0.4500213861465454 L 35.0 0.4500213861465454 L 35.0 0.4632573127746582 L 36.0 0.4632573127746582 L 36.0 0.476493239402771 L 37.0 0.476493239402771 L 37.0 0.4897291660308838 L 38.0 0.4897291660308838 L 38.0 0.5029650926589966 L 39.0 0.5029650926589966 L 39.0 0.5162009596824646 L 40.0 0.5162009596824646 L 40.0 0.5294369459152222 L 41.0 0.5294369459152222 L 41.0 0.5426728129386902 L 42.0 0.5426728129386902 L 42.0 0.555908739566803 L 43.0 0.555908739566803 L 43.0 0.5691447257995605 L 44.0 0.5691447257995605 L 44.0 0.5823805928230286 L 45.0 0.5823805928230286 L 45.0 0.5956165194511414 L 46.0 0.5956165194511414 L 46.0 0.6088524460792542 L 47.0 0.6088524460792542 L 47.0 0.6220883727073669 L 48.0 0.6220883727073669 L 48.0 0.6353242993354797 L 49.0 0.6353242993354797 L 49.0 0.6485602259635925 L 50.0 0.6485602259635925" style="vector-effect: non-scaling-stroke;fill:none;" /></g></g></g></g></g></g></g></g><g><g><g><g><g transform="matrix(1.0, 0.0, 0.0, 1.0, -0.08, -0.03)"><g transform="matrix(1.0, 0.0, 0.0, 1.0, 0.075, 0.0)"><g transform="matrix(1.0, 0.0, 0.0, 1.0, 0.0, 0.03)"><g transform="matrix(0.01, 0.0, 0.0, 0.01, 0.0, 0.0)"><g><g><g transform="matrix(1.0, 0.0, 0.0, 1.0, 0.5, 0.0)"><g transform="matrix(1.0, 0.0, 0.0, 1.0, -8.0, -0.0)"><g><g style="fill: #d3d3d3;stroke: black;stroke-width: 1.2000000000000002;" transform="matrix(1.0, 0.0, 0.0, 1.0, 0.0, -3.0)"><path d="M 0.0 0.0 L 16.0 0.0 L 16.0 6.0 L 0.0 6.0 L 0.0 0.0 Z" style="vector-effect: non-scaling-stroke;" /></g><g transform="matrix(1.0, 0.0, 0.0, 1.0, 1.875, 0.0)"><g><g style="stroke: black;stroke-width: 1.2000000000000002;" transform="matrix(1.0, 0.0, 0.0, 1.0, 0.0, 0.0)"><g /></g><g style="fill: #ffa500;stroke: black;stroke-width: 1.2000000000000002;" transform="matrix(1.0, 0.0, 0.0, 1.0, 1.875, 0.0)"><text style="text-align:center; text-anchor:middle; dominant-baseline:middle;&#10;                      font-family:sans-serif; font-weight: bold;&#10;                      font-size:3px;&#10;                      vector-effect: non-scaling-stroke;" transform="translate(-5e-05, 0)">x</text></g></g></g></g></g></g><g><g><g><g style="stroke: black;stroke-width: 1.2000000000000002;" transform="matrix(1.0, 0.0, 0.0, 1.0, 0.0, 0.0)"><path d="M 0.0 -2.0 L 0.0 2.0" style="vector-effect: non-scaling-stroke;fill:none;" /></g><g style="stroke: #808080;stroke-width: 0.6000000000000001;" transform="matrix(1.0, 0.0, 0.0, 1.0, 0.0, 0.0)"><path d="M 0.0 0.0 L 1.0 0.0" style="vector-effect: non-scaling-stroke;fill:none;" /></g></g><g style="stroke: black;stroke-width: 2.4000000000000004;" transform="matrix(1.0, 0.0, 0.0, 1.0, 0.0, 0.0)"><path d="M 0.0 0.6617961525917053 L 1.0 0.6617961525917053" style="vector-effect: non-scaling-stroke;fill:none;" /></g></g></g></g><g><g><g><g style="stroke: black;stroke-width: 1.2000000000000002;" transform="matrix(1.0, 0.0, 0.0, 1.0, 0.0, 0.0)"><path d="M 0.0 -2.0 L 0.0 2.0" style="vector-effect: non-scaling-stroke;fill:none;" /></g><g style="stroke: #808080;stroke-width: 0.6000000000000001;" transform="matrix(1.0, 0.0, 0.0, 1.0, 0.0, 0.0)"><path d="M 0.0 0.0 L 1.0 0.0" style="vector-effect: non-scaling-stroke;fill:none;" /></g></g><g style="stroke: black;stroke-width: 2.4000000000000004;" transform="matrix(1.0, 0.0, 0.0, 1.0, 0.0, 0.0)"><path d="M 0.0 0.6617961525917053 L 1.0 0.6617961525917053" style="vector-effect: non-scaling-stroke;fill:none;" /></g></g></g></g></g></g></g></g><g style="stroke: black;stroke-width: 1.2000000000000002;" transform="matrix(0.0, -1.0, 1.0, 0.0, 0.0, 0.08)"><g /></g></g><g transform="matrix(1.0, 0.0, 0.0, 1.0, 0.0, 0.16)"><g transform="matrix(1.0, 0.0, 0.0, 1.0, -0.32499999999999996, -0.03)"><g transform="matrix(1.0, 0.0, 0.0, 1.0, 0.075, 0.0)"><g transform="matrix(1.0, 0.0, 0.0, 1.0, 0.0, 0.03)"><g transform="matrix(0.01, 0.0, 0.0, 0.01, 0.0, 0.0)"><g><g><g transform="matrix(1.0, 0.0, 0.0, 1.0, 25.0, 0.0)"><g transform="matrix(1.0, 0.0, 0.0, 1.0, -32.5, -0.0)"><g><g style="fill: #d3d3d3;stroke: black;stroke-width: 1.2000000000000002;" transform="matrix(1.0, 0.0, 0.0, 1.0, 0.0, -3.0)"><path d="M 0.0 0.0 L 65.0 0.0 L 65.0 6.0 L 0.0 6.0 L 0.0 0.0 Z" style="vector-effect: non-scaling-stroke;" /></g><g transform="matrix(1.0, 0.0, 0.0, 1.0, 1.875, 0.0)"><g><g style="stroke: black;stroke-width: 1.2000000000000002;" transform="matrix(1.0, 0.0, 0.0, 1.0, 0.0, 0.0)"><g /></g><g style="fill: #ffa500;stroke: black;stroke-width: 1.2000000000000002;" transform="matrix(1.0, 0.0, 0.0, 1.0, 1.875, 0.0)"><text style="text-align:center; text-anchor:middle; dominant-baseline:middle;&#10;                      font-family:sans-serif; font-weight: bold;&#10;                      font-size:3px;&#10;                      vector-effect: non-scaling-stroke;" transform="translate(-5e-05, 0)">f(x)</text></g></g></g></g></g></g><g><g><g><g style="stroke: black;stroke-width: 1.2000000000000002;" transform="matrix(1.0, 0.0, 0.0, 1.0, 0.0, 0.0)"><path d="M 0.0 -2.0 L 0.0 2.0" style="vector-effect: non-scaling-stroke;fill:none;" /></g><g style="stroke: #808080;stroke-width: 0.6000000000000001;" transform="matrix(1.0, 0.0, 0.0, 1.0, 0.0, 0.0)"><path d="M 0.0 0.0 L 50.0 0.0" style="vector-effect: non-scaling-stroke;fill:none;" /></g></g><g style="stroke: black;stroke-width: 2.4000000000000004;" transform="matrix(1.0, 0.0, 0.0, 1.0, 0.0, 0.0)"><path d="M 0.0 0.0 L 1.0 0.0 L 1.0 0.013235922902822495 L 2.0 0.013235922902822495 L 2.0 0.02647184580564499 L 3.0 0.02647184580564499 L 3.0 0.039707768708467484 L 4.0 0.039707768708467484 L 4.0 0.05294369161128998 L 5.0 0.05294369161128998 L 5.0 0.06617961823940277 L 6.0 0.06617961823940277 L 6.0 0.07941553741693497 L 7.0 0.07941553741693497 L 7.0 0.09265146404504776 L 8.0 0.09265146404504776 L 8.0 0.10588738322257996 L 9.0 0.10588738322257996 L 9.0 0.11912330985069275 L 10.0 0.11912330985069275 L 10.0 0.13235923647880554 L 11.0 0.13235923647880554 L 11.0 0.14559514820575714 L 12.0 0.14559514820575714 L 12.0 0.15883107483386993 L 13.0 0.15883107483386993 L 13.0 0.17206698656082153 L 14.0 0.17206698656082153 L 14.0 0.18530292809009552 L 15.0 0.18530292809009552 L 15.0 0.1985388547182083 L 16.0 0.1985388547182083 L 16.0 0.2117747664451599 L 17.0 0.2117747664451599 L 17.0 0.2250106930732727 L 18.0 0.2250106930732727 L 18.0 0.2382466197013855 L 19.0 0.2382466197013855 L 19.0 0.2514825463294983 L 20.0 0.2514825463294983 L 20.0 0.2647184729576111 L 21.0 0.2647184729576111 L 21.0 0.2779543697834015 L 22.0 0.2779543697834015 L 22.0 0.2911902964115143 L 23.0 0.2911902964115143 L 23.0 0.3044262230396271 L 24.0 0.3044262230396271 L 24.0 0.31766214966773987 L 25.0 0.31766214966773987 L 25.0 0.33089807629585266 L 26.0 0.33089807629585266 L 26.0 0.34413397312164307 L 27.0 0.34413397312164307 L 27.0 0.35736992955207825 L 28.0 0.35736992955207825 L 28.0 0.37060585618019104 L 29.0 0.37060585618019104 L 29.0 0.38384175300598145 L 30.0 0.38384175300598145 L 30.0 0.3970777094364166 L 31.0 0.3970777094364166 L 31.0 0.41031360626220703 L 32.0 0.41031360626220703 L 32.0 0.4235495328903198 L 33.0 0.4235495328903198 L 33.0 0.436785489320755 L 34.0 0.436785489320755 L 34.0 0.4500213861465454 L 35.0 0.4500213861465454 L 35.0 0.4632573127746582 L 36.0 0.4632573127746582 L 36.0 0.476493239402771 L 37.0 0.476493239402771 L 37.0 0.4897291660308838 L 38.0 0.4897291660308838 L 38.0 0.5029650926589966 L 39.0 0.5029650926589966 L 39.0 0.5162009596824646 L 40.0 0.5162009596824646 L 40.0 0.5294369459152222 L 41.0 0.5294369459152222 L 41.0 0.5426728129386902 L 42.0 0.5426728129386902 L 42.0 0.555908739566803 L 43.0 0.555908739566803 L 43.0 0.5691447257995605 L 44.0 0.5691447257995605 L 44.0 0.5823805928230286 L 45.0 0.5823805928230286 L 45.0 0.5956165194511414 L 46.0 0.5956165194511414 L 46.0 0.6088524460792542 L 47.0 0.6088524460792542 L 47.0 0.6220883727073669 L 48.0 0.6220883727073669 L 48.0 0.6353242993354797 L 49.0 0.6353242993354797 L 49.0 0.6485602259635925 L 50.0 0.6485602259635925" style="vector-effect: non-scaling-stroke;fill:none;" /></g></g></g></g><g><g><g><g style="stroke: black;stroke-width: 1.2000000000000002;" transform="matrix(1.0, 0.0, 0.0, 1.0, 0.0, 0.0)"><path d="M 0.0 -2.0 L 0.0 2.0" style="vector-effect: non-scaling-stroke;fill:none;" /></g><g style="stroke: #808080;stroke-width: 0.6000000000000001;" transform="matrix(1.0, 0.0, 0.0, 1.0, 0.0, 0.0)"><path d="M 0.0 0.0 L 50.0 0.0" style="vector-effect: non-scaling-stroke;fill:none;" /></g></g><g style="stroke: black;stroke-width: 2.4000000000000004;" transform="matrix(1.0, 0.0, 0.0, 1.0, 0.0, 0.0)"><path d="M 0.0 0.0 L 1.0 0.0 L 1.0 0.013235922902822495 L 2.0 0.013235922902822495 L 2.0 0.02647184580564499 L 3.0 0.02647184580564499 L 3.0 0.039707768708467484 L 4.0 0.039707768708467484 L 4.0 0.05294369161128998 L 5.0 0.05294369161128998 L 5.0 0.06617961823940277 L 6.0 0.06617961823940277 L 6.0 0.07941553741693497 L 7.0 0.07941553741693497 L 7.0 0.09265146404504776 L 8.0 0.09265146404504776 L 8.0 0.10588738322257996 L 9.0 0.10588738322257996 L 9.0 0.11912330985069275 L 10.0 0.11912330985069275 L 10.0 0.13235923647880554 L 11.0 0.13235923647880554 L 11.0 0.14559514820575714 L 12.0 0.14559514820575714 L 12.0 0.15883107483386993 L 13.0 0.15883107483386993 L 13.0 0.17206698656082153 L 14.0 0.17206698656082153 L 14.0 0.18530292809009552 L 15.0 0.18530292809009552 L 15.0 0.1985388547182083 L 16.0 0.1985388547182083 L 16.0 0.2117747664451599 L 17.0 0.2117747664451599 L 17.0 0.2250106930732727 L 18.0 0.2250106930732727 L 18.0 0.2382466197013855 L 19.0 0.2382466197013855 L 19.0 0.2514825463294983 L 20.0 0.2514825463294983 L 20.0 0.2647184729576111 L 21.0 0.2647184729576111 L 21.0 0.2779543697834015 L 22.0 0.2779543697834015 L 22.0 0.2911902964115143 L 23.0 0.2911902964115143 L 23.0 0.3044262230396271 L 24.0 0.3044262230396271 L 24.0 0.31766214966773987 L 25.0 0.31766214966773987 L 25.0 0.33089807629585266 L 26.0 0.33089807629585266 L 26.0 0.34413397312164307 L 27.0 0.34413397312164307 L 27.0 0.35736992955207825 L 28.0 0.35736992955207825 L 28.0 0.37060585618019104 L 29.0 0.37060585618019104 L 29.0 0.38384175300598145 L 30.0 0.38384175300598145 L 30.0 0.3970777094364166 L 31.0 0.3970777094364166 L 31.0 0.41031360626220703 L 32.0 0.41031360626220703 L 32.0 0.4235495328903198 L 33.0 0.4235495328903198 L 33.0 0.436785489320755 L 34.0 0.436785489320755 L 34.0 0.4500213861465454 L 35.0 0.4500213861465454 L 35.0 0.4632573127746582 L 36.0 0.4632573127746582 L 36.0 0.476493239402771 L 37.0 0.476493239402771 L 37.0 0.4897291660308838 L 38.0 0.4897291660308838 L 38.0 0.5029650926589966 L 39.0 0.5029650926589966 L 39.0 0.5162009596824646 L 40.0 0.5162009596824646 L 40.0 0.5294369459152222 L 41.0 0.5294369459152222 L 41.0 0.5426728129386902 L 42.0 0.5426728129386902 L 42.0 0.555908739566803 L 43.0 0.555908739566803 L 43.0 0.5691447257995605 L 44.0 0.5691447257995605 L 44.0 0.5823805928230286 L 45.0 0.5823805928230286 L 45.0 0.5956165194511414 L 46.0 0.5956165194511414 L 46.0 0.6088524460792542 L 47.0 0.6088524460792542 L 47.0 0.6220883727073669 L 48.0 0.6220883727073669 L 48.0 0.6353242993354797 L 49.0 0.6353242993354797 L 49.0 0.6485602259635925 L 50.0 0.6485602259635925" style="vector-effect: non-scaling-stroke;fill:none;" /></g></g></g></g></g></g></g></g></g></g><g transform="matrix(1.0, 0.0, 0.0, 1.0, -0.24999999999999994, 0.16)"><g transform="matrix(1.0, 0.0, 0.0, 0.009999999999999995, 0.0, 0.0)"><g transform="matrix(0.01, 0.0, 0.0, 1.0, 0.0, 0.0)"><g><g><g style="fill: #ff0000;stroke: #ff0000;stroke-width: 1.2000000000000002;fill-opacity: 0.5;" transform="matrix(1.0, 0.0, 0.0, 1.0, 0.0, 0.0)"><path d="M 0.0 -2.0 L 0.0 2.0" style="vector-effect: non-scaling-stroke;fill:none;" /></g><g style="fill: #ff0000;stroke: #ff0000;stroke-width: 1.2000000000000002;fill-opacity: 0.5;" transform="matrix(1.0, 0.0, 0.0, 1.0, 0.0, 0.0)"><path d="M 0.0 -0.0 L 1.0 0.0 L 1.0 0.013235922902822495 L 2.0 0.013235922902822495 L 2.0 0.02647184580564499 L 3.0 0.02647184580564499 L 3.0 0.039707768708467484 L 4.0 0.039707768708467484 L 4.0 0.05294369161128998 L 5.0 0.05294369161128998 L 5.0 0.06617961823940277 L 6.0 0.06617961823940277 L 6.0 0.07941553741693497 L 7.0 0.07941553741693497 L 7.0 0.09265146404504776 L 8.0 0.09265146404504776 L 8.0 0.10588738322257996 L 9.0 0.10588738322257996 L 9.0 0.11912330985069275 L 10.0 0.11912330985069275 L 10.0 0.13235923647880554 L 11.0 0.13235923647880554 L 11.0 0.14559514820575714 L 12.0 0.14559514820575714 L 12.0 0.15883107483386993 L 13.0 0.15883107483386993 L 13.0 0.17206698656082153 L 14.0 0.17206698656082153 L 14.0 0.18530292809009552 L 15.0 0.18530292809009552 L 15.0 0.1985388547182083 L 16.0 0.1985388547182083 L 16.0 0.2117747664451599 L 17.0 0.2117747664451599 L 17.0 0.2250106930732727 L 18.0 0.2250106930732727 L 18.0 0.2382466197013855 L 19.0 0.2382466197013855 L 19.0 0.2514825463294983 L 20.0 0.2514825463294983 L 20.0 0.2647184729576111 L 21.0 0.2647184729576111 L 21.0 0.2779543697834015 L 22.0 0.2779543697834015 L 22.0 0.2911902964115143 L 23.0 0.2911902964115143 L 23.0 0.3044262230396271 L 24.0 0.3044262230396271 L 24.0 0.31766214966773987 L 25.0 0.31766214966773987 L 25.0 0.33089807629585266 L 26.0 0.33089807629585266 L 26.0 0.34413397312164307 L 27.0 0.34413397312164307 L 27.0 0.35736992955207825 L 28.0 0.35736992955207825 L 28.0 0.37060585618019104 L 29.0 0.37060585618019104 L 29.0 0.38384175300598145 L 30.0 0.38384175300598145 L 30.0 0.3970777094364166 L 31.0 0.3970777094364166 L 31.0 0.41031360626220703 L 32.0 0.41031360626220703 L 32.0 0.4235495328903198 L 33.0 0.4235495328903198 L 33.0 0.436785489320755 L 34.0 0.436785489320755 L 34.0 0.4500213861465454 L 35.0 0.4500213861465454 L 35.0 0.4632573127746582 L 36.0 0.4632573127746582 L 36.0 0.476493239402771 L 37.0 0.476493239402771 L 37.0 0.4897291660308838 L 38.0 0.4897291660308838 L 38.0 0.5029650926589966 L 39.0 0.5029650926589966 L 39.0 0.5162009596824646 L 40.0 0.5162009596824646 L 40.0 0.5294369459152222 L 41.0 0.5294369459152222 L 41.0 0.5426728129386902 L 42.0 0.5426728129386902 L 42.0 0.555908739566803 L 43.0 0.555908739566803 L 43.0 0.5691447257995605 L 44.0 0.5691447257995605 L 44.0 0.5823805928230286 L 45.0 0.5823805928230286 L 45.0 0.5956165194511414 L 46.0 0.5956165194511414 L 46.0 0.6088524460792542 L 47.0 0.6088524460792542 L 47.0 0.6220883727073669 L 48.0 0.6220883727073669 L 48.0 0.6353242993354797 L 49.0 0.6353242993354797 L 49.0 0.6485602259635925 L 50.0 0.6485602259635925 L 50.0 0.6485602259635925 L 49.0 0.6485602259635925 L 49.0 0.6353242993354797 L 48.0 0.6353242993354797 L 48.0 0.6220883727073669 L 47.0 0.6220883727073669 L 47.0 0.6088524460792542 L 46.0 0.6088524460792542 L 46.0 0.5956165194511414 L 45.0 0.5956165194511414 L 45.0 0.5823805928230286 L 44.0 0.5823805928230286 L 44.0 0.5691447257995605 L 43.0 0.5691447257995605 L 43.0 0.555908739566803 L 42.0 0.555908739566803 L 42.0 0.5426728129386902 L 41.0 0.5426728129386902 L 41.0 0.5294369459152222 L 40.0 0.5294369459152222 L 40.0 0.5162009596824646 L 39.0 0.5162009596824646 L 39.0 0.5029650926589966 L 38.0 0.5029650926589966 L 38.0 0.4897291660308838 L 37.0 0.4897291660308838 L 37.0 0.476493239402771 L 36.0 0.476493239402771 L 36.0 0.4632573127746582 L 35.0 0.4632573127746582 L 35.0 0.4500213861465454 L 34.0 0.4500213861465454 L 34.0 0.436785489320755 L 33.0 0.436785489320755 L 33.0 0.4235495328903198 L 32.0 0.4235495328903198 L 32.0 0.41031360626220703 L 31.0 0.41031360626220703 L 31.0 0.3970777094364166 L 30.0 0.3970777094364166 L 30.0 0.38384175300598145 L 29.0 0.38384175300598145 L 29.0 0.37060585618019104 L 28.0 0.37060585618019104 L 28.0 0.35736992955207825 L 27.0 0.35736992955207825 L 27.0 0.34413397312164307 L 26.0 0.34413397312164307 L 26.0 0.33089807629585266 L 25.0 0.33089807629585266 L 25.0 0.31766214966773987 L 24.0 0.31766214966773987 L 24.0 0.3044262230396271 L 23.0 0.3044262230396271 L 23.0 0.2911902964115143 L 22.0 0.2911902964115143 L 22.0 0.2779543697834015 L 21.0 0.2779543697834015 L 21.0 0.2647184729576111 L 20.0 0.2647184729576111 L 20.0 0.2514825463294983 L 19.0 0.2514825463294983 L 19.0 0.2382466197013855 L 18.0 0.2382466197013855 L 18.0 0.2250106930732727 L 17.0 0.2250106930732727 L 17.0 0.2117747664451599 L 16.0 0.2117747664451599 L 16.0 0.1985388547182083 L 15.0 0.1985388547182083 L 15.0 0.18530292809009552 L 14.0 0.18530292809009552 L 14.0 0.17206698656082153 L 13.0 0.17206698656082153 L 13.0 0.15883107483386993 L 12.0 0.15883107483386993 L 12.0 0.14559514820575714 L 11.0 0.14559514820575714 L 11.0 0.13235923647880554 L 10.0 0.13235923647880554 L 10.0 0.11912330985069275 L 9.0 0.11912330985069275 L 9.0 0.10588738322257996 L 8.0 0.10588738322257996 L 8.0 0.09265146404504776 L 7.0 0.09265146404504776 L 7.0 0.07941553741693497 L 6.0 0.07941553741693497 L 6.0 0.06617961823940277 L 5.0 0.06617961823940277 L 5.0 0.05294369161128998 L 4.0 0.05294369161128998 L 4.0 0.039707768708467484 L 3.0 0.039707768708467484 L 3.0 0.02647184580564499 L 2.0 0.02647184580564499 L 2.0 0.013235922902822495 L 1.0 0.013235922902822495 L 1.0 0.0 L 0.0 0.0 Z" style="vector-effect: non-scaling-stroke;" /></g></g><g style="stroke: black;stroke-width: 1.2000000000000002;" transform="matrix(1.0, 0.0, 0.0, 1.0, 0.0, 0.0)"><path d="M 0.0 0.0 L 1.0 0.0 L 1.0 0.013235922902822495 L 2.0 0.013235922902822495 L 2.0 0.02647184580564499 L 3.0 0.02647184580564499 L 3.0 0.039707768708467484 L 4.0 0.039707768708467484 L 4.0 0.05294369161128998 L 5.0 0.05294369161128998 L 5.0 0.06617961823940277 L 6.0 0.06617961823940277 L 6.0 0.07941553741693497 L 7.0 0.07941553741693497 L 7.0 0.09265146404504776 L 8.0 0.09265146404504776 L 8.0 0.10588738322257996 L 9.0 0.10588738322257996 L 9.0 0.11912330985069275 L 10.0 0.11912330985069275 L 10.0 0.13235923647880554 L 11.0 0.13235923647880554 L 11.0 0.14559514820575714 L 12.0 0.14559514820575714 L 12.0 0.15883107483386993 L 13.0 0.15883107483386993 L 13.0 0.17206698656082153 L 14.0 0.17206698656082153 L 14.0 0.18530292809009552 L 15.0 0.18530292809009552 L 15.0 0.1985388547182083 L 16.0 0.1985388547182083 L 16.0 0.2117747664451599 L 17.0 0.2117747664451599 L 17.0 0.2250106930732727 L 18.0 0.2250106930732727 L 18.0 0.2382466197013855 L 19.0 0.2382466197013855 L 19.0 0.2514825463294983 L 20.0 0.2514825463294983 L 20.0 0.2647184729576111 L 21.0 0.2647184729576111 L 21.0 0.2779543697834015 L 22.0 0.2779543697834015 L 22.0 0.2911902964115143 L 23.0 0.2911902964115143 L 23.0 0.3044262230396271 L 24.0 0.3044262230396271 L 24.0 0.31766214966773987 L 25.0 0.31766214966773987 L 25.0 0.33089807629585266 L 26.0 0.33089807629585266 L 26.0 0.34413397312164307 L 27.0 0.34413397312164307 L 27.0 0.35736992955207825 L 28.0 0.35736992955207825 L 28.0 0.37060585618019104 L 29.0 0.37060585618019104 L 29.0 0.38384175300598145 L 30.0 0.38384175300598145 L 30.0 0.3970777094364166 L 31.0 0.3970777094364166 L 31.0 0.41031360626220703 L 32.0 0.41031360626220703 L 32.0 0.4235495328903198 L 33.0 0.4235495328903198 L 33.0 0.436785489320755 L 34.0 0.436785489320755 L 34.0 0.4500213861465454 L 35.0 0.4500213861465454 L 35.0 0.4632573127746582 L 36.0 0.4632573127746582 L 36.0 0.476493239402771 L 37.0 0.476493239402771 L 37.0 0.4897291660308838 L 38.0 0.4897291660308838 L 38.0 0.5029650926589966 L 39.0 0.5029650926589966 L 39.0 0.5162009596824646 L 40.0 0.5162009596824646 L 40.0 0.5294369459152222 L 41.0 0.5294369459152222 L 41.0 0.5426728129386902 L 42.0 0.5426728129386902 L 42.0 0.555908739566803 L 43.0 0.555908739566803 L 43.0 0.5691447257995605 L 44.0 0.5691447257995605 L 44.0 0.5823805928230286 L 45.0 0.5823805928230286 L 45.0 0.5956165194511414 L 46.0 0.5956165194511414 L 46.0 0.6088524460792542 L 47.0 0.6088524460792542 L 47.0 0.6220883727073669 L 48.0 0.6220883727073669 L 48.0 0.6353242993354797 L 49.0 0.6353242993354797 L 49.0 0.6485602259635925 L 50.0 0.6485602259635925" style="vector-effect: non-scaling-stroke;fill:none;" /></g></g></g></g></g></g><g transform="matrix(1.0, 0.0, 0.0, 1.0, -0.24999999999999994, 0.16)"><g transform="matrix(1.0, 0.0, 0.0, 0.009999999999999995, 0.0, 0.0)"><g transform="matrix(0.01, 0.0, 0.0, 1.0, 0.0, 0.0)"><g><g><g style="fill: #ffffe0;stroke: #ffffe0;stroke-width: 1.2000000000000002;fill-opacity: 0.5;" transform="matrix(1.0, 0.0, 0.0, 1.0, 0.0, 0.0)"><path d="M 0.0 -2.0 L 0.0 2.0" style="vector-effect: non-scaling-stroke;fill:none;" /></g><g style="fill: #ffffe0;stroke: #ffffe0;stroke-width: 1.2000000000000002;fill-opacity: 0.5;" transform="matrix(1.0, 0.0, 0.0, 1.0, 0.0, 0.0)"><path d="M 0.0 -0.0 L 1.0 0.0 L 1.0 -0.02681094780564308 L 2.0 -0.02681094780564308 L 2.0 -0.05362189561128616 L 3.0 -0.05362189561128616 L 3.0 -0.08061911165714264 L 4.0 -0.08061911165714264 L 4.0 -0.10724379122257233 L 5.0 -0.10724379122257233 L 5.0 -0.1342409998178482 L 6.0 -0.1342409998178482 L 6.0 -0.16123822331428528 L 7.0 -0.16123822331428528 L 7.0 -0.18823543190956116 L 8.0 -0.18823543190956116 L 8.0 -0.21448758244514465 L 9.0 -0.21448758244514465 L 9.0 -0.24148479104042053 L 10.0 -0.24148479104042053 L 10.0 -0.2684819996356964 L 11.0 -0.2684819996356964 L 11.0 -0.2939891219139099 L 12.0 -0.2939891219139099 L 12.0 -0.32247644662857056 L 13.0 -0.32247644662857056 L 13.0 -0.34798353910446167 L 14.0 -0.34798353910446167 L 14.0 -0.3764708638191223 L 15.0 -0.3764708638191223 L 15.0 -0.4019779562950134 L 16.0 -0.4019779562950134 L 16.0 -0.4289751648902893 L 17.0 -0.4289751648902893 L 17.0 -0.4559723734855652 L 18.0 -0.4559723734855652 L 18.0 -0.48296958208084106 L 19.0 -0.48296958208084106 L 19.0 -0.5114569067955017 L 20.0 -0.5114569067955017 L 20.0 -0.5369639992713928 L 21.0 -0.5369639992713928 L 21.0 -0.5624711513519287 L 22.0 -0.5624711513519287 L 22.0 -0.5879782438278198 L 23.0 -0.5879782438278198 L 23.0 -0.6164655685424805 L 24.0 -0.6164655685424805 L 24.0 -0.6449528932571411 L 25.0 -0.6449528932571411 L 25.0 -0.6704599857330322 L 26.0 -0.6704599857330322 L 26.0 -0.6959670782089233 L 27.0 -0.6959670782089233 L 27.0 -0.724454402923584 L 28.0 -0.724454402923584 L 28.0 -0.7529417276382446 L 29.0 -0.7529417276382446 L 29.0 -0.7784488201141357 L 30.0 -0.7784488201141357 L 30.0 -0.8039559125900269 L 31.0 -0.8039559125900269 L 31.0 -0.829463005065918 L 32.0 -0.829463005065918 L 32.0 -0.8579503297805786 L 33.0 -0.8579503297805786 L 33.0 -0.8864376544952393 L 34.0 -0.8864376544952393 L 34.0 -0.9119447469711304 L 35.0 -0.9119447469711304 L 35.0 -0.940432071685791 L 36.0 -0.940432071685791 L 36.0 -0.9659391641616821 L 37.0 -0.9659391641616821 L 37.0 -0.9944264888763428 L 38.0 -0.9944264888763428 L 38.0 -1.0229138135910034 L 39.0 -1.0229138135910034 L 39.0 -1.045440673828125 L 40.0 -1.045440673828125 L 40.0 -1.0739279985427856 L 41.0 -1.0739279985427856 L 41.0 -1.0964548587799072 L 42.0 -1.0964548587799072 L 42.0 -1.1249423027038574 L 43.0 -1.1249423027038574 L 43.0 -1.1534295082092285 L 44.0 -1.1534295082092285 L 44.0 -1.1759564876556396 L 45.0 -1.1759564876556396 L 45.0 -1.2044436931610107 L 46.0 -1.2044436931610107 L 46.0 -1.232931137084961 L 47.0 -1.232931137084961 L 47.0 -1.261418342590332 L 48.0 -1.261418342590332 L 48.0 -1.2899057865142822 L 49.0 -1.2899057865142822 L 49.0 -1.3124325275421143 L 50.0 -1.3124325275421143 L 50.0 0.6485602259635925 L 49.0 0.6485602259635925 L 49.0 0.6353242993354797 L 48.0 0.6353242993354797 L 48.0 0.6220883727073669 L 47.0 0.6220883727073669 L 47.0 0.6088524460792542 L 46.0 0.6088524460792542 L 46.0 0.5956165194511414 L 45.0 0.5956165194511414 L 45.0 0.5823805928230286 L 44.0 0.5823805928230286 L 44.0 0.5691447257995605 L 43.0 0.5691447257995605 L 43.0 0.555908739566803 L 42.0 0.555908739566803 L 42.0 0.5426728129386902 L 41.0 0.5426728129386902 L 41.0 0.5294369459152222 L 40.0 0.5294369459152222 L 40.0 0.5162009596824646 L 39.0 0.5162009596824646 L 39.0 0.5029650926589966 L 38.0 0.5029650926589966 L 38.0 0.4897291660308838 L 37.0 0.4897291660308838 L 37.0 0.476493239402771 L 36.0 0.476493239402771 L 36.0 0.4632573127746582 L 35.0 0.4632573127746582 L 35.0 0.4500213861465454 L 34.0 0.4500213861465454 L 34.0 0.436785489320755 L 33.0 0.436785489320755 L 33.0 0.4235495328903198 L 32.0 0.4235495328903198 L 32.0 0.41031360626220703 L 31.0 0.41031360626220703 L 31.0 0.3970777094364166 L 30.0 0.3970777094364166 L 30.0 0.38384175300598145 L 29.0 0.38384175300598145 L 29.0 0.37060585618019104 L 28.0 0.37060585618019104 L 28.0 0.35736992955207825 L 27.0 0.35736992955207825 L 27.0 0.34413397312164307 L 26.0 0.34413397312164307 L 26.0 0.33089807629585266 L 25.0 0.33089807629585266 L 25.0 0.31766214966773987 L 24.0 0.31766214966773987 L 24.0 0.3044262230396271 L 23.0 0.3044262230396271 L 23.0 0.2911902964115143 L 22.0 0.2911902964115143 L 22.0 0.2779543697834015 L 21.0 0.2779543697834015 L 21.0 0.2647184729576111 L 20.0 0.2647184729576111 L 20.0 0.2514825463294983 L 19.0 0.2514825463294983 L 19.0 0.2382466197013855 L 18.0 0.2382466197013855 L 18.0 0.2250106930732727 L 17.0 0.2250106930732727 L 17.0 0.2117747664451599 L 16.0 0.2117747664451599 L 16.0 0.1985388547182083 L 15.0 0.1985388547182083 L 15.0 0.18530292809009552 L 14.0 0.18530292809009552 L 14.0 0.17206698656082153 L 13.0 0.17206698656082153 L 13.0 0.15883107483386993 L 12.0 0.15883107483386993 L 12.0 0.14559514820575714 L 11.0 0.14559514820575714 L 11.0 0.13235923647880554 L 10.0 0.13235923647880554 L 10.0 0.11912330985069275 L 9.0 0.11912330985069275 L 9.0 0.10588738322257996 L 8.0 0.10588738322257996 L 8.0 0.09265146404504776 L 7.0 0.09265146404504776 L 7.0 0.07941553741693497 L 6.0 0.07941553741693497 L 6.0 0.06617961823940277 L 5.0 0.06617961823940277 L 5.0 0.05294369161128998 L 4.0 0.05294369161128998 L 4.0 0.039707768708467484 L 3.0 0.039707768708467484 L 3.0 0.02647184580564499 L 2.0 0.02647184580564499 L 2.0 0.013235922902822495 L 1.0 0.013235922902822495 L 1.0 0.0 L 0.0 0.0 Z" style="vector-effect: non-scaling-stroke;" /></g></g><g style="stroke: black;stroke-width: 1.2000000000000002;" transform="matrix(1.0, 0.0, 0.0, 1.0, 0.0, 0.0)"><path d="M 0.0 0.0 L 1.0 0.0 L 1.0 0.013235922902822495 L 2.0 0.013235922902822495 L 2.0 0.02647184580564499 L 3.0 0.02647184580564499 L 3.0 0.039707768708467484 L 4.0 0.039707768708467484 L 4.0 0.05294369161128998 L 5.0 0.05294369161128998 L 5.0 0.06617961823940277 L 6.0 0.06617961823940277 L 6.0 0.07941553741693497 L 7.0 0.07941553741693497 L 7.0 0.09265146404504776 L 8.0 0.09265146404504776 L 8.0 0.10588738322257996 L 9.0 0.10588738322257996 L 9.0 0.11912330985069275 L 10.0 0.11912330985069275 L 10.0 0.13235923647880554 L 11.0 0.13235923647880554 L 11.0 0.14559514820575714 L 12.0 0.14559514820575714 L 12.0 0.15883107483386993 L 13.0 0.15883107483386993 L 13.0 0.17206698656082153 L 14.0 0.17206698656082153 L 14.0 0.18530292809009552 L 15.0 0.18530292809009552 L 15.0 0.1985388547182083 L 16.0 0.1985388547182083 L 16.0 0.2117747664451599 L 17.0 0.2117747664451599 L 17.0 0.2250106930732727 L 18.0 0.2250106930732727 L 18.0 0.2382466197013855 L 19.0 0.2382466197013855 L 19.0 0.2514825463294983 L 20.0 0.2514825463294983 L 20.0 0.2647184729576111 L 21.0 0.2647184729576111 L 21.0 0.2779543697834015 L 22.0 0.2779543697834015 L 22.0 0.2911902964115143 L 23.0 0.2911902964115143 L 23.0 0.3044262230396271 L 24.0 0.3044262230396271 L 24.0 0.31766214966773987 L 25.0 0.31766214966773987 L 25.0 0.33089807629585266 L 26.0 0.33089807629585266 L 26.0 0.34413397312164307 L 27.0 0.34413397312164307 L 27.0 0.35736992955207825 L 28.0 0.35736992955207825 L 28.0 0.37060585618019104 L 29.0 0.37060585618019104 L 29.0 0.38384175300598145 L 30.0 0.38384175300598145 L 30.0 0.3970777094364166 L 31.0 0.3970777094364166 L 31.0 0.41031360626220703 L 32.0 0.41031360626220703 L 32.0 0.4235495328903198 L 33.0 0.4235495328903198 L 33.0 0.436785489320755 L 34.0 0.436785489320755 L 34.0 0.4500213861465454 L 35.0 0.4500213861465454 L 35.0 0.4632573127746582 L 36.0 0.4632573127746582 L 36.0 0.476493239402771 L 37.0 0.476493239402771 L 37.0 0.4897291660308838 L 38.0 0.4897291660308838 L 38.0 0.5029650926589966 L 39.0 0.5029650926589966 L 39.0 0.5162009596824646 L 40.0 0.5162009596824646 L 40.0 0.5294369459152222 L 41.0 0.5294369459152222 L 41.0 0.5426728129386902 L 42.0 0.5426728129386902 L 42.0 0.555908739566803 L 43.0 0.555908739566803 L 43.0 0.5691447257995605 L 44.0 0.5691447257995605 L 44.0 0.5823805928230286 L 45.0 0.5823805928230286 L 45.0 0.5956165194511414 L 46.0 0.5956165194511414 L 46.0 0.6088524460792542 L 47.0 0.6088524460792542 L 47.0 0.6220883727073669 L 48.0 0.6220883727073669 L 48.0 0.6353242993354797 L 49.0 0.6353242993354797 L 49.0 0.6485602259635925 L 50.0 0.6485602259635925" style="vector-effect: non-scaling-stroke;fill:none;" /></g></g></g></g></g></g></g></g><g /></g></g></g></g></svg>