<?xml version="1.0" encoding="utf-8" ?>
<svg baseProfile="full" height="300" version="1.1" width="1056" xmlns="http://www.w3.org/2000/svg" xmlns:ev="http://www.w3.org/2001/xml-events" xmlns:xlink="http://www.w3.org/1999/xlink"><defs><marker id="arrow" markerHeight="3.5" markerWidth="5" orient="auto" refX="5.0" refY="1.7"><polygon points="0,0 5,1.75 0,3.5" /></marker></defs><g style="fill:white;"><g transform="matrix(1.0, 0.0, 0.0, 1.0, 528.409090909091, 150.0)"><g transform="matrix(1082.2510822510822, 0.0, 0.0, 1082.2510822510822, 0.0, 0.0)"><g><g transform="matrix(1.0, 0.0, 0.0, 1.0, -0.0, -0.08000000000000002)"><g><g><g style="fill: #ffffff;stroke: black;stroke-width: 1.2000000000000002;" transform="matrix(1.0, 0.0, 0.0, 1.0, -0.465, -0.052000000000000005)"><path d="M 0.0 0.0 L 0.93 0.0 L 0.93 0.264 L 0.0 0.264 L 0.0 0.0 Z" style="vector-effect: non-scaling-stroke;" /></g><g><g><g><g><g><g><g><g transform="matrix(1.0, 0.0, 0.0, 1.0, -0.41500000000000004, -0.03)"><g><g><g transform="matrix(1.0, 0.0, 0.0, 1.0, 0.075, 0.0)"><g transform="matrix(1.0, 0.0, 0.0, 1.0, 0.0, 0.03)"><g transform="matrix(0.01, 0.0, 0.0, 0.01, 0.0, 0.0)"><g><g><g transform="matrix(1.0, 0.0, 0.0, 1.0, 12.5, 0.0)"><g transform="matrix(1.0, 0.0, 0.0, 1.0, -20.0, -0.0)"><g><g style="fill: #d3d3d3;stroke: black;stroke-width: 1.2000000000000002;" transform="matrix(1.0, 0.0, 0.0, 1.0, 0.0, -3.0)"><path d="M 0.0 0.0 L 40.0 0.0 L 40.0 6.0 L 0.0 6.0 L 0.0 0.0 Z" style="vector-effect: non-scaling-stroke;" /></g><g transform="matrix(1.0, 0.0, 0.0, 1.0, 1.875, 0.0)"><g><g style="stroke: black;stroke-width: 1.2000000000000002;" transform="matrix(1.0, 0.0, 0.0, 1.0, 0.0, 0.0)"><g /></g><g style="fill: #ffa500;stroke: black;stroke-width: 1.2000000000000002;" transform="matrix(1.0, 0.0, 0.0, 1.0, 1.875, 0.0)"><text style="text-align:center; text-anchor:middle; dominant-baseline:middle;&#10;                      font-family:sans-serif; font-weight: bold;&#10;                      font-size:3px;&#10;                      vector-effect: non-scaling-stroke;" transform="translate(-5e-05, 0)">x</text></g></g></g></g></g></g><g><g><g><g><g style="stroke: black;stroke-width: 1.2000000000000002;" transform="matrix(1.0, 0.0, 0.0, 1.0, 0.0, 0.0)"><path d="M 0.0 -2.0 L 0.0 2.0" style="vector-effect: non-scaling-stroke;fill:none;" /></g><g style="stroke: #808080;stroke-width: 0.6000000000000001;" transform="matrix(1.0, 0.0, 0.0, 1.0, 0.0, 0.0)"><path d="M 0.0 0.0 L 25.0 0.0" style="vector-effect: non-scaling-stroke;fill:none;" /></g></g><g style="stroke: black;stroke-width: 2.4000000000000004;" transform="matrix(1.0, 0.0, 0.0, 1.0, 0.0, 0.0)"><path d="M 0.0 -0.9227485060691833 L 1.0 -0.9227485060691833 L 1.0 -0.9909365773200989 L 2.0 -0.9909365773200989 L 2.0 0.7891024351119995 L 3.0 0.7891024351119995 L 3.0 -0.07757601141929626 L 4.0 -0.07757601141929626 L 4.0 0.01911219209432602 L 5.0 0.01911219209432602 L 5.0 -0.8911665081977844 L 6.0 -0.8911665081977844 L 6.0 -1.1970560550689697 L 7.0 -1.1970560550689697 L 7.0 -0.5381621718406677 L 8.0 -0.5381621718406677 L 8.0 -0.9204915165901184 L 9.0 -0.9204915165901184 L 9.0 -1.1677565574645996 L 10.0 -1.1677565574645996 L 10.0 -0.10237627476453781 L 11.0 -0.10237627476453781 L 11.0 -1.0883831977844238 L 12.0 -1.0883831977844238 L 12.0 -1.2543400526046753 L 13.0 -1.2543400526046753 L 13.0 -1.146077275276184 L 14.0 -1.146077275276184 L 14.0 -1.46364164352417 L 15.0 -1.46364164352417 L 15.0 0.2734439969062805 L 16.0 0.2734439969062805 L 16.0 -0.6144730448722839 L 17.0 -0.6144730448722839 L 17.0 -0.4818328320980072 L 18.0 -0.4818328320980072 L 18.0 -0.8879019618034363 L 19.0 -0.8879019618034363 L 19.0 -0.9621256589889526 L 20.0 -0.9621256589889526 L 20.0 -0.560005247592926 L 21.0 -0.560005247592926 L 21.0 -1.7141392230987549 L 22.0 -1.7141392230987549 L 22.0 -0.17204943299293518 L 23.0 -0.17204943299293518 L 23.0 -1.0008693933486938 L 24.0 -1.0008693933486938 L 24.0 -0.29286766052246094 L 25.0 -0.29286766052246094" style="vector-effect: non-scaling-stroke;fill:none;" /></g></g><g style="stroke: black;stroke-width: 1.2000000000000002;" transform="matrix(1.0, 0.0, 0.0, 1.0, 0.0, 0.0)"><path d="M 0.0 -2.0 L 0.0 2.0" style="vector-effect: non-scaling-stroke;fill:none;" /></g></g></g></g><g><g><g><g><g style="stroke: black;stroke-width: 1.2000000000000002;" transform="matrix(1.0, 0.0, 0.0, 1.0, 0.0, 0.0)"><path d="M 0.0 -2.0 L 0.0 2.0" style="vector-effect: non-scaling-stroke;fill:none;" /></g><g style="stroke: #808080;stroke-width: 0.6000000000000001;" transform="matrix(1.0, 0.0, 0.0, 1.0, 0.0, 0.0)"><path d="M 0.0 0.0 L 25.0 0.0" style="vector-effect: non-scaling-stroke;fill:none;" /></g></g><g style="stroke: black;stroke-width: 2.4000000000000004;" transform="matrix(1.0, 0.0, 0.0, 1.0, 0.0, 0.0)"><path d="M 0.0 -0.9227485060691833 L 1.0 -0.9227485060691833 L 1.0 -0.9909365773200989 L 2.0 -0.9909365773200989 L 2.0 0.7891024351119995 L 3.0 0.7891024351119995 L 3.0 -0.07757601141929626 L 4.0 -0.07757601141929626 L 4.0 0.01911219209432602 L 5.0 0.01911219209432602 L 5.0 -0.8911665081977844 L 6.0 -0.8911665081977844 L 6.0 -1.1970560550689697 L 7.0 -1.1970560550689697 L 7.0 -0.5381621718406677 L 8.0 -0.5381621718406677 L 8.0 -0.9204915165901184 L 9.0 -0.9204915165901184 L 9.0 -1.1677565574645996 L 10.0 -1.1677565574645996 L 10.0 -0.10237627476453781 L 11.0 -0.10237627476453781 L 11.0 -1.0883831977844238 L 12.0 -1.0883831977844238 L 12.0 -1.2543400526046753 L 13.0 -1.2543400526046753 L 13.0 -1.146077275276184 L 14.0 -1.146077275276184 L 14.0 -1.46364164352417 L 15.0 -1.46364164352417 L 15.0 0.2734439969062805 L 16.0 0.2734439969062805 L 16.0 -0.6144730448722839 L 17.0 -0.6144730448722839 L 17.0 -0.4818328320980072 L 18.0 -0.4818328320980072 L 18.0 -0.8879019618034363 L 19.0 -0.8879019618034363 L 19.0 -0.9621256589889526 L 20.0 -0.9621256589889526 L 20.0 -0.560005247592926 L 21.0 -0.560005247592926 L 21.0 -1.7141392230987549 L 22.0 -1.7141392230987549 L 22.0 -0.17204943299293518 L 23.0 -0.17204943299293518 L 23.0 -1.0008693933486938 L 24.0 -1.0008693933486938 L 24.0 -0.29286766052246094 L 25.0 -0.29286766052246094" style="vector-effect: non-scaling-stroke;fill:none;" /></g></g><g style="stroke: black;stroke-width: 1.2000000000000002;" transform="matrix(1.0, 0.0, 0.0, 1.0, 0.0, 0.0)"><path d="M 0.0 -2.0 L 0.0 2.0" style="vector-effect: non-scaling-stroke;fill:none;" /></g></g></g></g></g></g></g><g style="stroke: black;stroke-width: 1.2000000000000002;" transform="matrix(1.0, 0.0, 0.0, 1.0, 0.41500000000000004, 0.0)"><g /></g></g><g transform="matrix(1.0, 0.0, 0.0, 1.0, 0.43000000000000005, 0.0)"><g transform="matrix(1.0, 0.0, 0.0, 1.0, 0.075, 0.0)"><g transform="matrix(1.0, 0.0, 0.0, 1.0, 0.0, 0.03)"><g transform="matrix(0.01, 0.0, 0.0, 0.01, 0.0, 0.0)"><g><g><g transform="matrix(1.0, 0.0, 0.0, 1.0, 12.5, 0.0)"><g transform="matrix(1.0, 0.0, 0.0, 1.0, -20.0, -0.0)"><g><g style="fill: #d3d3d3;stroke: black;stroke-width: 1.2000000000000002;" transform="matrix(1.0, 0.0, 0.0, 1.0, 0.0, -3.0)"><path d="M 0.0 0.0 L 40.0 0.0 L 40.0 6.0 L 0.0 6.0 L 0.0 0.0 Z" style="vector-effect: non-scaling-stroke;" /></g><g transform="matrix(1.0, 0.0, 0.0, 1.0, 1.875, 0.0)"><g><g style="stroke: black;stroke-width: 1.2000000000000002;" transform="matrix(1.0, 0.0, 0.0, 1.0, 0.0, 0.0)"><g /></g><g style="fill: #ffa500;stroke: black;stroke-width: 1.2000000000000002;" transform="matrix(1.0, 0.0, 0.0, 1.0, 1.875, 0.0)"><text style="text-align:center; text-anchor:middle; dominant-baseline:middle;&#10;                      font-family:sans-serif; font-weight: bold;&#10;                      font-size:3px;&#10;                      vector-effect: non-scaling-stroke;" transform="translate(-5e-05, 0)">y</text></g></g></g></g></g></g><g><g><g><g style="stroke: black;stroke-width: 1.2000000000000002;" transform="matrix(1.0, 0.0, 0.0, 1.0, 0.0, 0.0)"><path d="M 0.0 -2.0 L 0.0 2.0" style="vector-effect: non-scaling-stroke;fill:none;" /></g><g style="stroke: #808080;stroke-width: 0.6000000000000001;" transform="matrix(1.0, 0.0, 0.0, 1.0, 0.0, 0.0)"><path d="M 0.0 0.0 L 25.0 0.0" style="vector-effect: non-scaling-stroke;fill:none;" /></g></g><g style="stroke: black;stroke-width: 2.4000000000000004;" transform="matrix(1.0, 0.0, 0.0, 1.0, 0.0, 0.0)"><path d="M 0.0 -1.59687340259552 L 1.0 -1.59687340259552 L 1.0 -1.9491041898727417 L 2.0 -1.9491041898727417 L 2.0 -1.7712304592132568 L 3.0 -1.7712304592132568 L 3.0 -0.13592040538787842 L 4.0 -0.13592040538787842 L 4.0 -0.16275697946548462 L 5.0 -0.16275697946548462 L 5.0 -1.4939042329788208 L 6.0 -1.4939042329788208 L 6.0 -0.6856494545936584 L 7.0 -0.6856494545936584 L 7.0 -1.6778924465179443 L 8.0 -1.6778924465179443 L 8.0 -1.444204568862915 L 9.0 -1.444204568862915 L 9.0 -1.217467188835144 L 10.0 -1.217467188835144 L 10.0 -0.15922601521015167 L 11.0 -0.15922601521015167 L 11.0 -0.5722299814224243 L 12.0 -0.5722299814224243 L 12.0 -1.6945139169692993 L 13.0 -1.6945139169692993 L 13.0 -0.581519365310669 L 14.0 -0.581519365310669 L 14.0 -0.020752618089318275 L 15.0 -0.020752618089318275 L 15.0 -0.7649675011634827 L 16.0 -0.7649675011634827 L 16.0 -1.352418065071106 L 17.0 -1.352418065071106 L 17.0 -0.794601321220398 L 18.0 -0.794601321220398 L 18.0 -0.23699279129505157 L 19.0 -0.23699279129505157 L 19.0 -1.4524481296539307 L 20.0 -1.4524481296539307 L 20.0 -1.4297020435333252 L 21.0 -1.4297020435333252 L 21.0 0.10874383896589279 L 22.0 0.10874383896589279 L 22.0 -0.08931400626897812 L 23.0 -0.08931400626897812 L 23.0 -0.5557575225830078 L 24.0 -0.5557575225830078 L 24.0 -1.5842432975769043 L 25.0 -1.5842432975769043" style="vector-effect: non-scaling-stroke;fill:none;" /></g></g></g></g><g><g><g><g style="stroke: black;stroke-width: 1.2000000000000002;" transform="matrix(1.0, 0.0, 0.0, 1.0, 0.0, 0.0)"><path d="M 0.0 -2.0 L 0.0 2.0" style="vector-effect: non-scaling-stroke;fill:none;" /></g><g style="stroke: #808080;stroke-width: 0.6000000000000001;" transform="matrix(1.0, 0.0, 0.0, 1.0, 0.0, 0.0)"><path d="M 0.0 0.0 L 25.0 0.0" style="vector-effect: non-scaling-stroke;fill:none;" /></g></g><g style="stroke: black;stroke-width: 2.4000000000000004;" transform="matrix(1.0, 0.0, 0.0, 1.0, 0.0, 0.0)"><path d="M 0.0 -1.59687340259552 L 1.0 -1.59687340259552 L 1.0 -1.9491041898727417 L 2.0 -1.9491041898727417 L 2.0 -1.7712304592132568 L 3.0 -1.7712304592132568 L 3.0 -0.13592040538787842 L 4.0 -0.13592040538787842 L 4.0 -0.16275697946548462 L 5.0 -0.16275697946548462 L 5.0 -1.4939042329788208 L 6.0 -1.4939042329788208 L 6.0 -0.6856494545936584 L 7.0 -0.6856494545936584 L 7.0 -1.6778924465179443 L 8.0 -1.6778924465179443 L 8.0 -1.444204568862915 L 9.0 -1.444204568862915 L 9.0 -1.217467188835144 L 10.0 -1.217467188835144 L 10.0 -0.15922601521015167 L 11.0 -0.15922601521015167 L 11.0 -0.5722299814224243 L 12.0 -0.5722299814224243 L 12.0 -1.6945139169692993 L 13.0 -1.6945139169692993 L 13.0 -0.581519365310669 L 14.0 -0.581519365310669 L 14.0 -0.020752618089318275 L 15.0 -0.020752618089318275 L 15.0 -0.7649675011634827 L 16.0 -0.7649675011634827 L 16.0 -1.352418065071106 L 17.0 -1.352418065071106 L 17.0 -0.794601321220398 L 18.0 -0.794601321220398 L 18.0 -0.23699279129505157 L 19.0 -0.23699279129505157 L 19.0 -1.4524481296539307 L 20.0 -1.4524481296539307 L 20.0 -1.4297020435333252 L 21.0 -1.4297020435333252 L 21.0 0.10874383896589279 L 22.0 0.10874383896589279 L 22.0 -0.08931400626897812 L 23.0 -0.08931400626897812 L 23.0 -0.5557575225830078 L 24.0 -0.5557575225830078 L 24.0 -1.5842432975769043 L 25.0 -1.5842432975769043" style="vector-effect: non-scaling-stroke;fill:none;" /></g></g></g></g></g></g></g></g></g></g><g style="stroke: black;stroke-width: 1.2000000000000002;" transform="matrix(0.0, -1.0, 1.0, 0.0, 0.0, 0.08)"><g /></g></g><g transform="matrix(1.0, 0.0, 0.0, 1.0, 0.0, 0.16)"><g transform="matrix(1.0, 0.0, 0.0, 1.0, -0.2, -0.03)"><g transform="matrix(1.0, 0.0, 0.0, 1.0, 0.075, 0.0)"><g transform="matrix(1.0, 0.0, 0.0, 1.0, 0.0, 0.03)"><g transform="matrix(0.01, 0.0, 0.0, 0.01, 0.0, 0.0)"><g><g><g transform="matrix(1.0, 0.0, 0.0, 1.0, 12.5, 0.0)"><g transform="matrix(1.0, 0.0, 0.0, 1.0, -20.0, -0.0)"><g><g style="fill: #d3d3d3;stroke: black;stroke-width: 1.2000000000000002;" transform="matrix(1.0, 0.0, 0.0, 1.0, 0.0, -3.0)"><path d="M 0.0 0.0 L 40.0 0.0 L 40.0 6.0 L 0.0 6.0 L 0.0 0.0 Z" style="vector-effect: non-scaling-stroke;" /></g><g transform="matrix(1.0, 0.0, 0.0, 1.0, 1.875, 0.0)"><g><g style="stroke: black;stroke-width: 1.2000000000000002;" transform="matrix(1.0, 0.0, 0.0, 1.0, 0.0, 0.0)"><g /></g><g style="fill: #ffa500;stroke: black;stroke-width: 1.2000000000000002;" transform="matrix(1.0, 0.0, 0.0, 1.0, 1.875, 0.0)"><text style="text-align:center; text-anchor:middle; dominant-baseline:middle;&#10;                      font-family:sans-serif; font-weight: bold;&#10;                      font-size:3px;&#10;                      vector-effect: non-scaling-stroke;" transform="translate(-5e-05, 0)">f(x)</text></g></g></g></g></g></g><g><g><g><g style="stroke: black;stroke-width: 1.2000000000000002;" transform="matrix(1.0, 0.0, 0.0, 1.0, 0.0, 0.0)"><path d="M 0.0 -2.0 L 0.0 2.0" style="vector-effect: non-scaling-stroke;fill:none;" /></g><g style="stroke: #808080;stroke-width: 0.6000000000000001;" transform="matrix(1.0, 0.0, 0.0, 1.0, 0.0, 0.0)"><path d="M 0.0 0.0 L 25.0 0.0" style="vector-effect: non-scaling-stroke;fill:none;" /></g></g><g style="stroke: black;stroke-width: 2.4000000000000004;" transform="matrix(1.0, 0.0, 0.0, 1.0, 0.0, 0.0)"><path d="M 0.0 -0.7367562651634216 L 1.0 -0.7367562651634216 L 1.0 -0.9657193422317505 L 2.0 -0.9657193422317505 L 2.0 0.6988411545753479 L 3.0 0.6988411545753479 L 3.0 -0.005272081587463617 L 4.0 -0.005272081587463617 L 4.0 0.0015553212724626064 L 5.0 0.0015553212724626064 L 5.0 -0.665658712387085 L 6.0 -0.665658712387085 L 6.0 -0.41038042306900024 L 7.0 -0.41038042306900024 L 7.0 -0.451489120721817 L 8.0 -0.451489120721817 L 8.0 -0.6646890044212341 L 9.0 -0.6646890044212341 L 9.0 -0.7108526229858398 L 10.0 -0.7108526229858398 L 10.0 -0.00815048348158598 L 11.0 -0.00815048348158598 L 11.0 -0.31140273809432983 L 12.0 -0.31140273809432983 L 12.0 -1.0627483129501343 L 13.0 -1.0627483129501343 L 13.0 -0.3332330584526062 L 14.0 -0.3332330584526062 L 14.0 -0.015187198296189308 L 15.0 -0.015187198296189308 L 15.0 0.10458788275718689 L 16.0 0.10458788275718689 L 16.0 -0.41551223397254944 L 17.0 -0.41551223397254944 L 17.0 -0.19143250584602356 L 18.0 -0.19143250584602356 L 18.0 -0.10521318018436432 L 19.0 -0.10521318018436432 L 19.0 -0.698718786239624 L 20.0 -0.698718786239624 L 20.0 -0.4003203213214874 L 21.0 -0.4003203213214874 L 21.0 0.09320104122161865 L 22.0 0.09320104122161865 L 22.0 -0.00768321193754673 L 23.0 -0.00768321193754673 L 23.0 -0.27812033891677856 L 24.0 -0.27812033891677856 L 24.0 -0.23198682069778442 L 25.0 -0.23198682069778442" style="vector-effect: non-scaling-stroke;fill:none;" /></g></g></g></g><g><g><g><g style="stroke: black;stroke-width: 1.2000000000000002;" transform="matrix(1.0, 0.0, 0.0, 1.0, 0.0, 0.0)"><path d="M 0.0 -2.0 L 0.0 2.0" style="vector-effect: non-scaling-stroke;fill:none;" /></g><g style="stroke: #808080;stroke-width: 0.6000000000000001;" transform="matrix(1.0, 0.0, 0.0, 1.0, 0.0, 0.0)"><path d="M 0.0 0.0 L 25.0 0.0" style="vector-effect: non-scaling-stroke;fill:none;" /></g></g><g style="stroke: black;stroke-width: 2.4000000000000004;" transform="matrix(1.0, 0.0, 0.0, 1.0, 0.0, 0.0)"><path d="M 0.0 -0.7367562651634216 L 1.0 -0.7367562651634216 L 1.0 -0.9657193422317505 L 2.0 -0.9657193422317505 L 2.0 0.6988411545753479 L 3.0 0.6988411545753479 L 3.0 -0.005272081587463617 L 4.0 -0.005272081587463617 L 4.0 0.0015553212724626064 L 5.0 0.0015553212724626064 L 5.0 -0.665658712387085 L 6.0 -0.665658712387085 L 6.0 -0.41038042306900024 L 7.0 -0.41038042306900024 L 7.0 -0.451489120721817 L 8.0 -0.451489120721817 L 8.0 -0.6646890044212341 L 9.0 -0.6646890044212341 L 9.0 -0.7108526229858398 L 10.0 -0.7108526229858398 L 10.0 -0.00815048348158598 L 11.0 -0.00815048348158598 L 11.0 -0.31140273809432983 L 12.0 -0.31140273809432983 L 12.0 -1.0627483129501343 L 13.0 -1.0627483129501343 L 13.0 -0.3332330584526062 L 14.0 -0.3332330584526062 L 14.0 -0.015187198296189308 L 15.0 -0.015187198296189308 L 15.0 0.10458788275718689 L 16.0 0.10458788275718689 L 16.0 -0.41551223397254944 L 17.0 -0.41551223397254944 L 17.0 -0.19143250584602356 L 18.0 -0.19143250584602356 L 18.0 -0.10521318018436432 L 19.0 -0.10521318018436432 L 19.0 -0.698718786239624 L 20.0 -0.698718786239624 L 20.0 -0.4003203213214874 L 21.0 -0.4003203213214874 L 21.0 0.09320104122161865 L 22.0 0.09320104122161865 L 22.0 -0.00768321193754673 L 23.0 -0.00768321193754673 L 23.0 -0.27812033891677856 L 24.0 -0.27812033891677856 L 24.0 -0.23198682069778442 L 25.0 -0.23198682069778442" style="vector-effect: non-scaling-stroke;fill:none;" /></g></g></g></g></g></g></g></g></g></g><g transform="matrix(1.0, 0.0, 0.0, 1.0, -0.125, 0.16)"><g transform="matrix(1.0, 0.0, 0.0, 0.009999999999999995, 0.0, 0.0)"><g transform="matrix(0.01, 0.0, 0.0, 1.0, 0.0, 0.0)"><g><g><g style="fill: #ffffe0;stroke: #ffffe0;stroke-width: 1.2000000000000002;fill-opacity: 0.5;" transform="matrix(1.0, 0.0, 0.0, 1.0, 0.0, 0.0)"><path d="M 0.0 -2.0 L 0.0 2.0" style="vector-effect: non-scaling-stroke;fill:none;" /></g><g style="fill: #ffffe0;stroke: #ffffe0;stroke-width: 1.2000000000000002;fill-opacity: 0.5;" transform="matrix(1.0, 0.0, 0.0, 1.0, 0.0, 0.0)"><path d="M 0.0 -2.0 L 1.0 -2.0 L 1.0 -2.0 L 2.0 -2.0 L 2.0 -1.0773773193359375 L 3.0 -1.0773773193359375 L 3.0 -0.1411520391702652 L 4.0 -0.1411520391702652 L 4.0 -0.16119329631328583 L 5.0 -0.16119329631328583 L 5.0 -2.0 L 6.0 -2.0 L 6.0 -1.0958337783813477 L 7.0 -1.0958337783813477 L 7.0 -2.0 L 8.0 -2.0 L 8.0 -2.0 L 9.0 -2.0 L 9.0 -1.9327478408813477 L 10.0 -1.9327478408813477 L 10.0 -0.16731351613998413 L 11.0 -0.16731351613998413 L 11.0 -0.8865875601768494 L 12.0 -0.8865875601768494 L 12.0 -2.0 L 13.0 -2.0 L 13.0 -0.9173585772514343 L 14.0 -0.9173585772514343 L 14.0 -0.03595568984746933 L 15.0 -0.03595568984746933 L 15.0 -0.6598416566848755 L 16.0 -0.6598416566848755 L 16.0 -1.7685376405715942 L 17.0 -1.7685376405715942 L 17.0 -0.9856643676757812 L 18.0 -0.9856643676757812 L 18.0 -0.34288668632507324 L 19.0 -0.34288668632507324 L 19.0 -2.0 L 20.0 -2.0 L 20.0 -1.83083176612854 L 21.0 -1.83083176612854 L 21.0 0.20197951793670654 L 22.0 0.20197951793670654 L 22.0 -0.09699704498052597 L 23.0 -0.09699704498052597 L 23.0 -0.8354237675666809 L 24.0 -0.8354237675666809 L 24.0 -1.8159801959991455 L 25.0 -1.8159801959991455 L 25.0 -0.23198682069778442 L 24.0 -0.23198682069778442 L 24.0 -0.27812033891677856 L 23.0 -0.27812033891677856 L 23.0 -0.00768321193754673 L 22.0 -0.00768321193754673 L 22.0 0.09320104122161865 L 21.0 0.09320104122161865 L 21.0 -0.4003203213214874 L 20.0 -0.4003203213214874 L 20.0 -0.698718786239624 L 19.0 -0.698718786239624 L 19.0 -0.10521318018436432 L 18.0 -0.10521318018436432 L 18.0 -0.19143250584602356 L 17.0 -0.19143250584602356 L 17.0 -0.41551223397254944 L 16.0 -0.41551223397254944 L 16.0 0.10458788275718689 L 15.0 0.10458788275718689 L 15.0 -0.015187198296189308 L 14.0 -0.015187198296189308 L 14.0 -0.3332330584526062 L 13.0 -0.3332330584526062 L 13.0 -1.0627483129501343 L 12.0 -1.0627483129501343 L 12.0 -0.31140273809432983 L 11.0 -0.31140273809432983 L 11.0 -0.00815048348158598 L 10.0 -0.00815048348158598 L 10.0 -0.7108526229858398 L 9.0 -0.7108526229858398 L 9.0 -0.6646890044212341 L 8.0 -0.6646890044212341 L 8.0 -0.451489120721817 L 7.0 -0.451489120721817 L 7.0 -0.41038042306900024 L 6.0 -0.41038042306900024 L 6.0 -0.665658712387085 L 5.0 -0.665658712387085 L 5.0 0.0015553212724626064 L 4.0 0.0015553212724626064 L 4.0 -0.005272081587463617 L 3.0 -0.005272081587463617 L 3.0 0.6988411545753479 L 2.0 0.6988411545753479 L 2.0 -0.9657193422317505 L 1.0 -0.9657193422317505 L 1.0 -0.7367562651634216 L 0.0 -0.7367562651634216 Z" style="vector-effect: non-scaling-stroke;" /></g></g><g style="stroke: black;stroke-width: 1.2000000000000002;" transform="matrix(1.0, 0.0, 0.0, 1.0, 0.0, 0.0)"><path d="M 0.0 -0.7367562651634216 L 1.0 -0.7367562651634216 L 1.0 -0.9657193422317505 L 2.0 -0.9657193422317505 L 2.0 0.6988411545753479 L 3.0 0.6988411545753479 L 3.0 -0.005272081587463617 L 4.0 -0.005272081587463617 L 4.0 0.0015553212724626064 L 5.0 0.0015553212724626064 L 5.0 -0.665658712387085 L 6.0 -0.665658712387085 L 6.0 -0.41038042306900024 L 7.0 -0.41038042306900024 L 7.0 -0.451489120721817 L 8.0 -0.451489120721817 L 8.0 -0.6646890044212341 L 9.0 -0.6646890044212341 L 9.0 -0.7108526229858398 L 10.0 -0.7108526229858398 L 10.0 -0.00815048348158598 L 11.0 -0.00815048348158598 L 11.0 -0.31140273809432983 L 12.0 -0.31140273809432983 L 12.0 -1.0627483129501343 L 13.0 -1.0627483129501343 L 13.0 -0.3332330584526062 L 14.0 -0.3332330584526062 L 14.0 -0.015187198296189308 L 15.0 -0.015187198296189308 L 15.0 0.10458788275718689 L 16.0 0.10458788275718689 L 16.0 -0.41551223397254944 L 17.0 -0.41551223397254944 L 17.0 -0.19143250584602356 L 18.0 -0.19143250584602356 L 18.0 -0.10521318018436432 L 19.0 -0.10521318018436432 L 19.0 -0.698718786239624 L 20.0 -0.698718786239624 L 20.0 -0.4003203213214874 L 21.0 -0.4003203213214874 L 21.0 0.09320104122161865 L 22.0 0.09320104122161865 L 22.0 -0.00768321193754673 L 23.0 -0.00768321193754673 L 23.0 -0.27812033891677856 L 24.0 -0.27812033891677856 L 24.0 -0.23198682069778442 L 25.0 -0.23198682069778442" style="vector-effect: non-scaling-stroke;fill:none;" /></g></g></g></g></g></g><g transform="matrix(1.0, 0.0, 0.0, 1.0, -0.125, 0.16)"><g transform="matrix(1.0, 0.0, 0.0, 0.009999999999999995, 0.0, 0.0)"><g transform="matrix(0.01, 0.0, 0.0, 1.0, 0.0, 0.0)"><g><g><g style="fill: #add8e6;stroke: #add8e6;stroke-width: 1.2000000000000002;fill-opacity: 0.5;" transform="matrix(1.0, 0.0, 0.0, 1.0, 0.0, 0.0)"><path d="M 0.0 -2.0 L 0.0 2.0" style="vector-effect: non-scaling-stroke;fill:none;" /></g><g style="fill: #add8e6;stroke: #add8e6;stroke-width: 1.2000000000000002;fill-opacity: 0.5;" transform="matrix(1.0, 0.0, 0.0, 1.0, 0.0, 0.0)"><path d="M 0.0 -1.660628318786621 L 1.0 -1.660628318786621 L 1.0 -1.9551564455032349 L 2.0 -1.9551564455032349 L 2.0 1.4856224060058594 L 3.0 1.4856224060058594 L 3.0 -0.08280468732118607 L 4.0 -0.08280468732118607 L 4.0 0.02067071758210659 L 5.0 0.02067071758210659 L 5.0 -1.5597283840179443 L 6.0 -1.5597283840179443 L 6.0 -1.608433723449707 L 7.0 -1.608433723449707 L 7.0 -0.9909111261367798 L 8.0 -0.9909111261367798 L 8.0 -1.5885610580444336 L 9.0 -1.5885610580444336 L 9.0 -1.8850641250610352 L 10.0 -1.8850641250610352 L 10.0 -0.11050283163785934 L 11.0 -0.11050283163785934 L 11.0 -1.402167797088623 L 12.0 -1.402167797088623 L 12.0 -2.0 L 13.0 -2.0 L 13.0 -1.4806225299835205 L 14.0 -1.4806225299835205 L 14.0 -1.4787606000900269 L 15.0 -1.4787606000900269 L 15.0 0.37876924872398376 L 16.0 0.37876924872398376 L 16.0 -1.0294400453567505 L 17.0 -1.0294400453567505 L 17.0 -0.6742300987243652 L 18.0 -0.6742300987243652 L 18.0 -0.9933223724365234 L 19.0 -0.9933223724365234 L 19.0 -1.6643140316009521 L 20.0 -1.6643140316009521 L 20.0 -0.9606039524078369 L 21.0 -0.9606039524078369 L 21.0 -1.6211775541305542 L 22.0 -1.6211775541305542 L 22.0 -0.17974506318569183 L 23.0 -0.17974506318569183 L 23.0 -1.2824585437774658 L 24.0 -1.2824585437774658 L 24.0 -0.5240495800971985 L 25.0 -0.5240495800971985 L 25.0 -0.23198682069778442 L 24.0 -0.23198682069778442 L 24.0 -0.27812033891677856 L 23.0 -0.27812033891677856 L 23.0 -0.00768321193754673 L 22.0 -0.00768321193754673 L 22.0 0.09320104122161865 L 21.0 0.09320104122161865 L 21.0 -0.4003203213214874 L 20.0 -0.4003203213214874 L 20.0 -0.698718786239624 L 19.0 -0.698718786239624 L 19.0 -0.10521318018436432 L 18.0 -0.10521318018436432 L 18.0 -0.19143250584602356 L 17.0 -0.19143250584602356 L 17.0 -0.41551223397254944 L 16.0 -0.41551223397254944 L 16.0 0.10458788275718689 L 15.0 0.10458788275718689 L 15.0 -0.015187198296189308 L 14.0 -0.015187198296189308 L 14.0 -0.3332330584526062 L 13.0 -0.3332330584526062 L 13.0 -1.0627483129501343 L 12.0 -1.0627483129501343 L 12.0 -0.31140273809432983 L 11.0 -0.31140273809432983 L 11.0 -0.00815048348158598 L 10.0 -0.00815048348158598 L 10.0 -0.7108526229858398 L 9.0 -0.7108526229858398 L 9.0 -0.6646890044212341 L 8.0 -0.6646890044212341 L 8.0 -0.451489120721817 L 7.0 -0.451489120721817 L 7.0 -0.41038042306900024 L 6.0 -0.41038042306900024 L 6.0 -0.665658712387085 L 5.0 -0.665658712387085 L 5.0 0.0015553212724626064 L 4.0 0.0015553212724626064 L 4.0 -0.005272081587463617 L 3.0 -0.005272081587463617 L 3.0 0.6988411545753479 L 2.0 0.6988411545753479 L 2.0 -0.9657193422317505 L 1.0 -0.9657193422317505 L 1.0 -0.7367562651634216 L 0.0 -0.7367562651634216 Z" style="vector-effect: non-scaling-stroke;" /></g></g><g style="stroke: black;stroke-width: 1.2000000000000002;" transform="matrix(1.0, 0.0, 0.0, 1.0, 0.0, 0.0)"><path d="M 0.0 -0.7367562651634216 L 1.0 -0.7367562651634216 L 1.0 -0.9657193422317505 L 2.0 -0.9657193422317505 L 2.0 0.6988411545753479 L 3.0 0.6988411545753479 L 3.0 -0.005272081587463617 L 4.0 -0.005272081587463617 L 4.0 0.0015553212724626064 L 5.0 0.0015553212724626064 L 5.0 -0.665658712387085 L 6.0 -0.665658712387085 L 6.0 -0.41038042306900024 L 7.0 -0.41038042306900024 L 7.0 -0.451489120721817 L 8.0 -0.451489120721817 L 8.0 -0.6646890044212341 L 9.0 -0.6646890044212341 L 9.0 -0.7108526229858398 L 10.0 -0.7108526229858398 L 10.0 -0.00815048348158598 L 11.0 -0.00815048348158598 L 11.0 -0.31140273809432983 L 12.0 -0.31140273809432983 L 12.0 -1.0627483129501343 L 13.0 -1.0627483129501343 L 13.0 -0.3332330584526062 L 14.0 -0.3332330584526062 L 14.0 -0.015187198296189308 L 15.0 -0.015187198296189308 L 15.0 0.10458788275718689 L 16.0 0.10458788275718689 L 16.0 -0.41551223397254944 L 17.0 -0.41551223397254944 L 17.0 -0.19143250584602356 L 18.0 -0.19143250584602356 L 18.0 -0.10521318018436432 L 19.0 -0.10521318018436432 L 19.0 -0.698718786239624 L 20.0 -0.698718786239624 L 20.0 -0.4003203213214874 L 21.0 -0.4003203213214874 L 21.0 0.09320104122161865 L 22.0 0.09320104122161865 L 22.0 -0.00768321193754673 L 23.0 -0.00768321193754673 L 23.0 -0.27812033891677856 L 24.0 -0.27812033891677856 L 24.0 -0.23198682069778442 L 25.0 -0.23198682069778442" style="vector-effect: non-scaling-stroke;fill:none;" /></g></g></g></g></g></g><g transform="matrix(1.0, 0.0, 0.0, 1.0, -0.125, 0.16)"><g transform="matrix(1.0, 0.0, 0.0, 0.009999999999999995, 0.0, 0.0)"><g transform="matrix(0.01, 0.0, 0.0, 1.0, 0.0, 0.0)"><g><g><g style="fill: #ff8c00;stroke: #ff8c00;stroke-width: 1.2000000000000002;fill-opacity: 0.5;" transform="matrix(1.0, 0.0, 0.0, 1.0, 0.0, 0.0)"><path d="M 0.0 -2.0 L 0.0 2.0" style="vector-effect: non-scaling-stroke;fill:none;" /></g><g style="fill: #ff8c00;stroke: #ff8c00;stroke-width: 1.2000000000000002;fill-opacity: 0.5;" transform="matrix(1.0, 0.0, 0.0, 1.0, 0.0, 0.0)"><path d="M 0.0 -0.7367562651634216 L 1.0 -0.7367562651634216 L 1.0 -0.9657193422317505 L 2.0 -0.9657193422317505 L 2.0 0.6988411545753479 L 3.0 0.6988411545753479 L 3.0 -0.005272081587463617 L 4.0 -0.005272081587463617 L 4.0 0.0015553212724626064 L 5.0 0.0015553212724626064 L 5.0 -0.665658712387085 L 6.0 -0.665658712387085 L 6.0 -0.41038042306900024 L 7.0 -0.41038042306900024 L 7.0 -0.451489120721817 L 8.0 -0.451489120721817 L 8.0 -0.6646890044212341 L 9.0 -0.6646890044212341 L 9.0 -0.7108526229858398 L 10.0 -0.7108526229858398 L 10.0 -0.00815048348158598 L 11.0 -0.00815048348158598 L 11.0 -0.31140273809432983 L 12.0 -0.31140273809432983 L 12.0 -1.0627483129501343 L 13.0 -1.0627483129501343 L 13.0 -0.3332330584526062 L 14.0 -0.3332330584526062 L 14.0 -0.015187198296189308 L 15.0 -0.015187198296189308 L 15.0 0.10458788275718689 L 16.0 0.10458788275718689 L 16.0 -0.41551223397254944 L 17.0 -0.41551223397254944 L 17.0 -0.19143250584602356 L 18.0 -0.19143250584602356 L 18.0 -0.10521318018436432 L 19.0 -0.10521318018436432 L 19.0 -0.698718786239624 L 20.0 -0.698718786239624 L 20.0 -0.4003203213214874 L 21.0 -0.4003203213214874 L 21.0 0.09320104122161865 L 22.0 0.09320104122161865 L 22.0 -0.00768321193754673 L 23.0 -0.00768321193754673 L 23.0 -0.27812033891677856 L 24.0 -0.27812033891677856 L 24.0 -0.23198682069778442 L 25.0 -0.23198682069778442 L 25.0 -0.23198682069778442 L 24.0 -0.23198682069778442 L 24.0 -0.27812033891677856 L 23.0 -0.27812033891677856 L 23.0 -0.00768321193754673 L 22.0 -0.00768321193754673 L 22.0 0.09320104122161865 L 21.0 0.09320104122161865 L 21.0 -0.4003203213214874 L 20.0 -0.4003203213214874 L 20.0 -0.698718786239624 L 19.0 -0.698718786239624 L 19.0 -0.10521318018436432 L 18.0 -0.10521318018436432 L 18.0 -0.19143250584602356 L 17.0 -0.19143250584602356 L 17.0 -0.41551223397254944 L 16.0 -0.41551223397254944 L 16.0 0.10458788275718689 L 15.0 0.10458788275718689 L 15.0 -0.015187198296189308 L 14.0 -0.015187198296189308 L 14.0 -0.3332330584526062 L 13.0 -0.3332330584526062 L 13.0 -1.0627483129501343 L 12.0 -1.0627483129501343 L 12.0 -0.31140273809432983 L 11.0 -0.31140273809432983 L 11.0 -0.00815048348158598 L 10.0 -0.00815048348158598 L 10.0 -0.7108526229858398 L 9.0 -0.7108526229858398 L 9.0 -0.6646890044212341 L 8.0 -0.6646890044212341 L 8.0 -0.451489120721817 L 7.0 -0.451489120721817 L 7.0 -0.41038042306900024 L 6.0 -0.41038042306900024 L 6.0 -0.665658712387085 L 5.0 -0.665658712387085 L 5.0 0.0015553212724626064 L 4.0 0.0015553212724626064 L 4.0 -0.005272081587463617 L 3.0 -0.005272081587463617 L 3.0 0.6988411545753479 L 2.0 0.6988411545753479 L 2.0 -0.9657193422317505 L 1.0 -0.9657193422317505 L 1.0 -0.7367562651634216 L 0.0 -0.7367562651634216 Z" style="vector-effect: non-scaling-stroke;" /></g></g><g style="stroke: black;stroke-width: 1.2000000000000002;" transform="matrix(1.0, 0.0, 0.0, 1.0, 0.0, 0.0)"><path d="M 0.0 -0.7367562651634216 L 1.0 -0.7367562651634216 L 1.0 -0.9657193422317505 L 2.0 -0.9657193422317505 L 2.0 0.6988411545753479 L 3.0 0.6988411545753479 L 3.0 -0.005272081587463617 L 4.0 -0.005272081587463617 L 4.0 0.0015553212724626064 L 5.0 0.0015553212724626064 L 5.0 -0.665658712387085 L 6.0 -0.665658712387085 L 6.0 -0.41038042306900024 L 7.0 -0.41038042306900024 L 7.0 -0.451489120721817 L 8.0 -0.451489120721817 L 8.0 -0.6646890044212341 L 9.0 -0.6646890044212341 L 9.0 -0.7108526229858398 L 10.0 -0.7108526229858398 L 10.0 -0.00815048348158598 L 11.0 -0.00815048348158598 L 11.0 -0.31140273809432983 L 12.0 -0.31140273809432983 L 12.0 -1.0627483129501343 L 13.0 -1.0627483129501343 L 13.0 -0.3332330584526062 L 14.0 -0.3332330584526062 L 14.0 -0.015187198296189308 L 15.0 -0.015187198296189308 L 15.0 0.10458788275718689 L 16.0 0.10458788275718689 L 16.0 -0.41551223397254944 L 17.0 -0.41551223397254944 L 17.0 -0.19143250584602356 L 18.0 -0.19143250584602356 L 18.0 -0.10521318018436432 L 19.0 -0.10521318018436432 L 19.0 -0.698718786239624 L 20.0 -0.698718786239624 L 20.0 -0.4003203213214874 L 21.0 -0.4003203213214874 L 21.0 0.09320104122161865 L 22.0 0.09320104122161865 L 22.0 -0.00768321193754673 L 23.0 -0.00768321193754673 L 23.0 -0.27812033891677856 L 24.0 -0.27812033891677856 L 24.0 -0.23198682069778442 L 25.0 -0.23198682069778442" style="vector-effect: non-scaling-stroke;fill:none;" /></g></g></g></g></g></g><g transform="matrix(1.0, 0.0, 0.0, 1.0, -0.125, 0.16)"><g transform="matrix(1.0, 0.0, 0.0, 0.009999999999999995, 0.0, 0.0)"><g transform="matrix(0.01, 0.0, 0.0, 1.0, 0.0, 0.0)"><g><g><g style="fill: #0000ff;stroke: #0000ff;stroke-width: 1.2000000000000002;fill-opacity: 0.5;" transform="matrix(1.0, 0.0, 0.0, 1.0, 0.0, 0.0)"><path d="M 0.0 -2.0 L 0.0 2.0" style="vector-effect: non-scaling-stroke;fill:none;" /></g><g style="fill: #0000ff;stroke: #0000ff;stroke-width: 1.2000000000000002;fill-opacity: 0.5;" transform="matrix(1.0, 0.0, 0.0, 1.0, 0.0, 0.0)"><path d="M 0.0 -0.7367562651634216 L 1.0 -0.7367562651634216 L 1.0 -0.9657193422317505 L 2.0 -0.9657193422317505 L 2.0 0.6988411545753479 L 3.0 0.6988411545753479 L 3.0 -0.005272081587463617 L 4.0 -0.005272081587463617 L 4.0 0.0015553212724626064 L 5.0 0.0015553212724626064 L 5.0 -0.665658712387085 L 6.0 -0.665658712387085 L 6.0 -0.41038042306900024 L 7.0 -0.41038042306900024 L 7.0 -0.451489120721817 L 8.0 -0.451489120721817 L 8.0 -0.6646890044212341 L 9.0 -0.6646890044212341 L 9.0 -0.7108526229858398 L 10.0 -0.7108526229858398 L 10.0 -0.00815048348158598 L 11.0 -0.00815048348158598 L 11.0 -0.31140273809432983 L 12.0 -0.31140273809432983 L 12.0 -1.0627483129501343 L 13.0 -1.0627483129501343 L 13.0 -0.3332330584526062 L 14.0 -0.3332330584526062 L 14.0 -0.015187198296189308 L 15.0 -0.015187198296189308 L 15.0 0.10458788275718689 L 16.0 0.10458788275718689 L 16.0 -0.41551223397254944 L 17.0 -0.41551223397254944 L 17.0 -0.19143250584602356 L 18.0 -0.19143250584602356 L 18.0 -0.10521318018436432 L 19.0 -0.10521318018436432 L 19.0 -0.698718786239624 L 20.0 -0.698718786239624 L 20.0 -0.4003203213214874 L 21.0 -0.4003203213214874 L 21.0 0.09320104122161865 L 22.0 0.09320104122161865 L 22.0 -0.00768321193754673 L 23.0 -0.00768321193754673 L 23.0 -0.27812033891677856 L 24.0 -0.27812033891677856 L 24.0 -0.23198682069778442 L 25.0 -0.23198682069778442 L 25.0 -0.23198682069778442 L 24.0 -0.23198682069778442 L 24.0 -0.27812033891677856 L 23.0 -0.27812033891677856 L 23.0 -0.00768321193754673 L 22.0 -0.00768321193754673 L 22.0 0.09320104122161865 L 21.0 0.09320104122161865 L 21.0 -0.4003203213214874 L 20.0 -0.4003203213214874 L 20.0 -0.698718786239624 L 19.0 -0.698718786239624 L 19.0 -0.10521318018436432 L 18.0 -0.10521318018436432 L 18.0 -0.19143250584602356 L 17.0 -0.19143250584602356 L 17.0 -0.41551223397254944 L 16.0 -0.41551223397254944 L 16.0 0.10458788275718689 L 15.0 0.10458788275718689 L 15.0 -0.015187198296189308 L 14.0 -0.015187198296189308 L 14.0 -0.3332330584526062 L 13.0 -0.3332330584526062 L 13.0 -1.0627483129501343 L 12.0 -1.0627483129501343 L 12.0 -0.31140273809432983 L 11.0 -0.31140273809432983 L 11.0 -0.00815048348158598 L 10.0 -0.00815048348158598 L 10.0 -0.7108526229858398 L 9.0 -0.7108526229858398 L 9.0 -0.6646890044212341 L 8.0 -0.6646890044212341 L 8.0 -0.451489120721817 L 7.0 -0.451489120721817 L 7.0 -0.41038042306900024 L 6.0 -0.41038042306900024 L 6.0 -0.665658712387085 L 5.0 -0.665658712387085 L 5.0 0.0015553212724626064 L 4.0 0.0015553212724626064 L 4.0 -0.005272081587463617 L 3.0 -0.005272081587463617 L 3.0 0.6988411545753479 L 2.0 0.6988411545753479 L 2.0 -0.9657193422317505 L 1.0 -0.9657193422317505 L 1.0 -0.7367562651634216 L 0.0 -0.7367562651634216 Z" style="vector-effect: non-scaling-stroke;" /></g></g><g style="stroke: black;stroke-width: 1.2000000000000002;" transform="matrix(1.0, 0.0, 0.0, 1.0, 0.0, 0.0)"><path d="M 0.0 -0.7367562651634216 L 1.0 -0.7367562651634216 L 1.0 -0.9657193422317505 L 2.0 -0.9657193422317505 L 2.0 0.6988411545753479 L 3.0 0.6988411545753479 L 3.0 -0.005272081587463617 L 4.0 -0.005272081587463617 L 4.0 0.0015553212724626064 L 5.0 0.0015553212724626064 L 5.0 -0.665658712387085 L 6.0 -0.665658712387085 L 6.0 -0.41038042306900024 L 7.0 -0.41038042306900024 L 7.0 -0.451489120721817 L 8.0 -0.451489120721817 L 8.0 -0.6646890044212341 L 9.0 -0.6646890044212341 L 9.0 -0.7108526229858398 L 10.0 -0.7108526229858398 L 10.0 -0.00815048348158598 L 11.0 -0.00815048348158598 L 11.0 -0.31140273809432983 L 12.0 -0.31140273809432983 L 12.0 -1.0627483129501343 L 13.0 -1.0627483129501343 L 13.0 -0.3332330584526062 L 14.0 -0.3332330584526062 L 14.0 -0.015187198296189308 L 15.0 -0.015187198296189308 L 15.0 0.10458788275718689 L 16.0 0.10458788275718689 L 16.0 -0.41551223397254944 L 17.0 -0.41551223397254944 L 17.0 -0.19143250584602356 L 18.0 -0.19143250584602356 L 18.0 -0.10521318018436432 L 19.0 -0.10521318018436432 L 19.0 -0.698718786239624 L 20.0 -0.698718786239624 L 20.0 -0.4003203213214874 L 21.0 -0.4003203213214874 L 21.0 0.09320104122161865 L 22.0 0.09320104122161865 L 22.0 -0.00768321193754673 L 23.0 -0.00768321193754673 L 23.0 -0.27812033891677856 L 24.0 -0.27812033891677856 L 24.0 -0.23198682069778442 L 25.0 -0.23198682069778442" style="vector-effect: non-scaling-stroke;fill:none;" /></g></g></g></g></g></g></g></g><g><g><g><g><g><g><g transform="matrix(1.0, 0.0, 0.0, 1.0, -0.41500000000000004, -0.03)"><g><g><g transform="matrix(1.0, 0.0, 0.0, 1.0, 0.075, 0.0)"><g transform="matrix(1.0, 0.0, 0.0, 1.0, 0.0, 0.03)"><g transform="matrix(0.01, 0.0, 0.0, 0.01, 0.0, 0.0)"><g><g><g transform="matrix(1.0, 0.0, 0.0, 1.0, 12.5, 0.0)"><g transform="matrix(1.0, 0.0, 0.0, 1.0, -20.0, -0.0)"><g><g style="fill: #d3d3d3;stroke: black;stroke-width: 1.2000000000000002;" transform="matrix(1.0, 0.0, 0.0, 1.0, 0.0, -3.0)"><path d="M 0.0 0.0 L 40.0 0.0 L 40.0 6.0 L 0.0 6.0 L 0.0 0.0 Z" style="vector-effect: non-scaling-stroke;" /></g><g transform="matrix(1.0, 0.0, 0.0, 1.0, 1.875, 0.0)"><g><g style="stroke: black;stroke-width: 1.2000000000000002;" transform="matrix(1.0, 0.0, 0.0, 1.0, 0.0, 0.0)"><g /></g><g style="fill: #ffa500;stroke: black;stroke-width: 1.2000000000000002;" transform="matrix(1.0, 0.0, 0.0, 1.0, 1.875, 0.0)"><text style="text-align:center; text-anchor:middle; dominant-baseline:middle;&#10;                      font-family:sans-serif; font-weight: bold;&#10;                      font-size:3px;&#10;                      vector-effect: non-scaling-stroke;" transform="translate(-5e-05, 0)">x</text></g></g></g></g></g></g><g><g><g><g><g style="stroke: black;stroke-width: 1.2000000000000002;" transform="matrix(1.0, 0.0, 0.0, 1.0, 0.0, 0.0)"><path d="M 0.0 -2.0 L 0.0 2.0" style="vector-effect: non-scaling-stroke;fill:none;" /></g><g style="stroke: #808080;stroke-width: 0.6000000000000001;" transform="matrix(1.0, 0.0, 0.0, 1.0, 0.0, 0.0)"><path d="M 0.0 0.0 L 25.0 0.0" style="vector-effect: non-scaling-stroke;fill:none;" /></g></g><g style="stroke: black;stroke-width: 2.4000000000000004;" transform="matrix(1.0, 0.0, 0.0, 1.0, 0.0, 0.0)"><path d="M 0.0 -0.9227485060691833 L 1.0 -0.9227485060691833 L 1.0 -0.9909365773200989 L 2.0 -0.9909365773200989 L 2.0 0.7891024351119995 L 3.0 0.7891024351119995 L 3.0 -0.07757601141929626 L 4.0 -0.07757601141929626 L 4.0 0.01911219209432602 L 5.0 0.01911219209432602 L 5.0 -0.8911665081977844 L 6.0 -0.8911665081977844 L 6.0 -1.1970560550689697 L 7.0 -1.1970560550689697 L 7.0 -0.5381621718406677 L 8.0 -0.5381621718406677 L 8.0 -0.9204915165901184 L 9.0 -0.9204915165901184 L 9.0 -1.1677565574645996 L 10.0 -1.1677565574645996 L 10.0 -0.10237627476453781 L 11.0 -0.10237627476453781 L 11.0 -1.0883831977844238 L 12.0 -1.0883831977844238 L 12.0 -1.2543400526046753 L 13.0 -1.2543400526046753 L 13.0 -1.146077275276184 L 14.0 -1.146077275276184 L 14.0 -1.46364164352417 L 15.0 -1.46364164352417 L 15.0 0.2734439969062805 L 16.0 0.2734439969062805 L 16.0 -0.6144730448722839 L 17.0 -0.6144730448722839 L 17.0 -0.4818328320980072 L 18.0 -0.4818328320980072 L 18.0 -0.8879019618034363 L 19.0 -0.8879019618034363 L 19.0 -0.9621256589889526 L 20.0 -0.9621256589889526 L 20.0 -0.560005247592926 L 21.0 -0.560005247592926 L 21.0 -1.7141392230987549 L 22.0 -1.7141392230987549 L 22.0 -0.17204943299293518 L 23.0 -0.17204943299293518 L 23.0 -1.0008693933486938 L 24.0 -1.0008693933486938 L 24.0 -0.29286766052246094 L 25.0 -0.29286766052246094" style="vector-effect: non-scaling-stroke;fill:none;" /></g></g><g style="stroke: black;stroke-width: 1.2000000000000002;" transform="matrix(1.0, 0.0, 0.0, 1.0, 0.0, 0.0)"><path d="M 0.0 -2.0 L 0.0 2.0" style="vector-effect: non-scaling-stroke;fill:none;" /></g></g></g></g><g><g><g><g><g style="stroke: black;stroke-width: 1.2000000000000002;" transform="matrix(1.0, 0.0, 0.0, 1.0, 0.0, 0.0)"><path d="M 0.0 -2.0 L 0.0 2.0" style="vector-effect: non-scaling-stroke;fill:none;" /></g><g style="stroke: #808080;stroke-width: 0.6000000000000001;" transform="matrix(1.0, 0.0, 0.0, 1.0, 0.0, 0.0)"><path d="M 0.0 0.0 L 25.0 0.0" style="vector-effect: non-scaling-stroke;fill:none;" /></g></g><g style="stroke: black;stroke-width: 2.4000000000000004;" transform="matrix(1.0, 0.0, 0.0, 1.0, 0.0, 0.0)"><path d="M 0.0 -0.9227485060691833 L 1.0 -0.9227485060691833 L 1.0 -0.9909365773200989 L 2.0 -0.9909365773200989 L 2.0 0.7891024351119995 L 3.0 0.7891024351119995 L 3.0 -0.07757601141929626 L 4.0 -0.07757601141929626 L 4.0 0.01911219209432602 L 5.0 0.01911219209432602 L 5.0 -0.8911665081977844 L 6.0 -0.8911665081977844 L 6.0 -1.1970560550689697 L 7.0 -1.1970560550689697 L 7.0 -0.5381621718406677 L 8.0 -0.5381621718406677 L 8.0 -0.9204915165901184 L 9.0 -0.9204915165901184 L 9.0 -1.1677565574645996 L 10.0 -1.1677565574645996 L 10.0 -0.10237627476453781 L 11.0 -0.10237627476453781 L 11.0 -1.0883831977844238 L 12.0 -1.0883831977844238 L 12.0 -1.2543400526046753 L 13.0 -1.2543400526046753 L 13.0 -1.146077275276184 L 14.0 -1.146077275276184 L 14.0 -1.46364164352417 L 15.0 -1.46364164352417 L 15.0 0.2734439969062805 L 16.0 0.2734439969062805 L 16.0 -0.6144730448722839 L 17.0 -0.6144730448722839 L 17.0 -0.4818328320980072 L 18.0 -0.4818328320980072 L 18.0 -0.8879019618034363 L 19.0 -0.8879019618034363 L 19.0 -0.9621256589889526 L 20.0 -0.9621256589889526 L 20.0 -0.560005247592926 L 21.0 -0.560005247592926 L 21.0 -1.7141392230987549 L 22.0 -1.7141392230987549 L 22.0 -0.17204943299293518 L 23.0 -0.17204943299293518 L 23.0 -1.0008693933486938 L 24.0 -1.0008693933486938 L 24.0 -0.29286766052246094 L 25.0 -0.29286766052246094" style="vector-effect: non-scaling-stroke;fill:none;" /></g></g><g style="stroke: black;stroke-width: 1.2000000000000002;" transform="matrix(1.0, 0.0, 0.0, 1.0, 0.0, 0.0)"><path d="M 0.0 -2.0 L 0.0 2.0" style="vector-effect: non-scaling-stroke;fill:none;" /></g></g></g></g></g></g></g><g style="stroke: black;stroke-width: 1.2000000000000002;" transform="matrix(1.0, 0.0, 0.0, 1.0, 0.41500000000000004, 0.0)"><g /></g></g><g transform="matrix(1.0, 0.0, 0.0, 1.0, 0.43000000000000005, 0.0)"><g transform="matrix(1.0, 0.0, 0.0, 1.0, 0.075, 0.0)"><g transform="matrix(1.0, 0.0, 0.0, 1.0, 0.0, 0.03)"><g transform="matrix(0.01, 0.0, 0.0, 0.01, 0.0, 0.0)"><g><g><g transform="matrix(1.0, 0.0, 0.0, 1.0, 12.5, 0.0)"><g transform="matrix(1.0, 0.0, 0.0, 1.0, -20.0, -0.0)"><g><g style="fill: #d3d3d3;stroke: black;stroke-width: 1.2000000000000002;" transform="matrix(1.0, 0.0, 0.0, 1.0, 0.0, -3.0)"><path d="M 0.0 0.0 L 40.0 0.0 L 40.0 6.0 L 0.0 6.0 L 0.0 0.0 Z" style="vector-effect: non-scaling-stroke;" /></g><g transform="matrix(1.0, 0.0, 0.0, 1.0, 1.875, 0.0)"><g><g style="stroke: black;stroke-width: 1.2000000000000002;" transform="matrix(1.0, 0.0, 0.0, 1.0, 0.0, 0.0)"><g /></g><g style="fill: #ffa500;stroke: black;stroke-width: 1.2000000000000002;" transform="matrix(1.0, 0.0, 0.0, 1.0, 1.875, 0.0)"><text style="text-align:center; text-anchor:middle; dominant-baseline:middle;&#10;                      font-family:sans-serif; font-weight: bold;&#10;                      font-size:3px;&#10;                      vector-effect: non-scaling-stroke;" transform="translate(-5e-05, 0)">y</text></g></g></g></g></g></g><g><g><g><g style="stroke: black;stroke-width: 1.2000000000000002;" transform="matrix(1.0, 0.0, 0.0, 1.0, 0.0, 0.0)"><path d="M 0.0 -2.0 L 0.0 2.0" style="vector-effect: non-scaling-stroke;fill:none;" /></g><g style="stroke: #808080;stroke-width: 0.6000000000000001;" transform="matrix(1.0, 0.0, 0.0, 1.0, 0.0, 0.0)"><path d="M 0.0 0.0 L 25.0 0.0" style="vector-effect: non-scaling-stroke;fill:none;" /></g></g><g style="stroke: black;stroke-width: 2.4000000000000004;" transform="matrix(1.0, 0.0, 0.0, 1.0, 0.0, 0.0)"><path d="M 0.0 -1.59687340259552 L 1.0 -1.59687340259552 L 1.0 -1.9491041898727417 L 2.0 -1.9491041898727417 L 2.0 -1.7712304592132568 L 3.0 -1.7712304592132568 L 3.0 -0.13592040538787842 L 4.0 -0.13592040538787842 L 4.0 -0.16275697946548462 L 5.0 -0.16275697946548462 L 5.0 -1.4939042329788208 L 6.0 -1.4939042329788208 L 6.0 -0.6856494545936584 L 7.0 -0.6856494545936584 L 7.0 -1.6778924465179443 L 8.0 -1.6778924465179443 L 8.0 -1.444204568862915 L 9.0 -1.444204568862915 L 9.0 -1.217467188835144 L 10.0 -1.217467188835144 L 10.0 -0.15922601521015167 L 11.0 -0.15922601521015167 L 11.0 -0.5722299814224243 L 12.0 -0.5722299814224243 L 12.0 -1.6945139169692993 L 13.0 -1.6945139169692993 L 13.0 -0.581519365310669 L 14.0 -0.581519365310669 L 14.0 -0.020752618089318275 L 15.0 -0.020752618089318275 L 15.0 -0.7649675011634827 L 16.0 -0.7649675011634827 L 16.0 -1.352418065071106 L 17.0 -1.352418065071106 L 17.0 -0.794601321220398 L 18.0 -0.794601321220398 L 18.0 -0.23699279129505157 L 19.0 -0.23699279129505157 L 19.0 -1.4524481296539307 L 20.0 -1.4524481296539307 L 20.0 -1.4297020435333252 L 21.0 -1.4297020435333252 L 21.0 0.10874383896589279 L 22.0 0.10874383896589279 L 22.0 -0.08931400626897812 L 23.0 -0.08931400626897812 L 23.0 -0.5557575225830078 L 24.0 -0.5557575225830078 L 24.0 -1.5842432975769043 L 25.0 -1.5842432975769043" style="vector-effect: non-scaling-stroke;fill:none;" /></g></g></g></g><g><g><g><g style="stroke: black;stroke-width: 1.2000000000000002;" transform="matrix(1.0, 0.0, 0.0, 1.0, 0.0, 0.0)"><path d="M 0.0 -2.0 L 0.0 2.0" style="vector-effect: non-scaling-stroke;fill:none;" /></g><g style="stroke: #808080;stroke-width: 0.6000000000000001;" transform="matrix(1.0, 0.0, 0.0, 1.0, 0.0, 0.0)"><path d="M 0.0 0.0 L 25.0 0.0" style="vector-effect: non-scaling-stroke;fill:none;" /></g></g><g style="stroke: black;stroke-width: 2.4000000000000004;" transform="matrix(1.0, 0.0, 0.0, 1.0, 0.0, 0.0)"><path d="M 0.0 -1.59687340259552 L 1.0 -1.59687340259552 L 1.0 -1.9491041898727417 L 2.0 -1.9491041898727417 L 2.0 -1.7712304592132568 L 3.0 -1.7712304592132568 L 3.0 -0.13592040538787842 L 4.0 -0.13592040538787842 L 4.0 -0.16275697946548462 L 5.0 -0.16275697946548462 L 5.0 -1.4939042329788208 L 6.0 -1.4939042329788208 L 6.0 -0.6856494545936584 L 7.0 -0.6856494545936584 L 7.0 -1.6778924465179443 L 8.0 -1.6778924465179443 L 8.0 -1.444204568862915 L 9.0 -1.444204568862915 L 9.0 -1.217467188835144 L 10.0 -1.217467188835144 L 10.0 -0.15922601521015167 L 11.0 -0.15922601521015167 L 11.0 -0.5722299814224243 L 12.0 -0.5722299814224243 L 12.0 -1.6945139169692993 L 13.0 -1.6945139169692993 L 13.0 -0.581519365310669 L 14.0 -0.581519365310669 L 14.0 -0.020752618089318275 L 15.0 -0.020752618089318275 L 15.0 -0.7649675011634827 L 16.0 -0.7649675011634827 L 16.0 -1.352418065071106 L 17.0 -1.352418065071106 L 17.0 -0.794601321220398 L 18.0 -0.794601321220398 L 18.0 -0.23699279129505157 L 19.0 -0.23699279129505157 L 19.0 -1.4524481296539307 L 20.0 -1.4524481296539307 L 20.0 -1.4297020435333252 L 21.0 -1.4297020435333252 L 21.0 0.10874383896589279 L 22.0 0.10874383896589279 L 22.0 -0.08931400626897812 L 23.0 -0.08931400626897812 L 23.0 -0.5557575225830078 L 24.0 -0.5557575225830078 L 24.0 -1.5842432975769043 L 25.0 -1.5842432975769043" style="vector-effect: non-scaling-stroke;fill:none;" /></g></g></g></g></g></g></g></g></g></g><g style="stroke: black;stroke-width: 1.2000000000000002;" transform="matrix(0.0, -1.0, 1.0, 0.0, 0.0, 0.08)"><g /></g></g><g transform="matrix(1.0, 0.0, 0.0, 1.0, 0.0, 0.16)"><g transform="matrix(1.0, 0.0, 0.0, 1.0, -0.2, -0.03)"><g transform="matrix(1.0, 0.0, 0.0, 1.0, 0.075, 0.0)"><g transform="matrix(1.0, 0.0, 0.0, 1.0, 0.0, 0.03)"><g transform="matrix(0.01, 0.0, 0.0, 0.01, 0.0, 0.0)"><g><g><g transform="matrix(1.0, 0.0, 0.0, 1.0, 12.5, 0.0)"><g transform="matrix(1.0, 0.0, 0.0, 1.0, -20.0, -0.0)"><g><g style="fill: #d3d3d3;stroke: black;stroke-width: 1.2000000000000002;" transform="matrix(1.0, 0.0, 0.0, 1.0, 0.0, -3.0)"><path d="M 0.0 0.0 L 40.0 0.0 L 40.0 6.0 L 0.0 6.0 L 0.0 0.0 Z" style="vector-effect: non-scaling-stroke;" /></g><g transform="matrix(1.0, 0.0, 0.0, 1.0, 1.875, 0.0)"><g><g style="stroke: black;stroke-width: 1.2000000000000002;" transform="matrix(1.0, 0.0, 0.0, 1.0, 0.0, 0.0)"><g /></g><g style="fill: #ffa500;stroke: black;stroke-width: 1.2000000000000002;" transform="matrix(1.0, 0.0, 0.0, 1.0, 1.875, 0.0)"><text style="text-align:center; text-anchor:middle; dominant-baseline:middle;&#10;                      font-family:sans-serif; font-weight: bold;&#10;                      font-size:3px;&#10;                      vector-effect: non-scaling-stroke;" transform="translate(-5e-05, 0)">f(x)</text></g></g></g></g></g></g><g><g><g><g style="stroke: black;stroke-width: 1.2000000000000002;" transform="matrix(1.0, 0.0, 0.0, 1.0, 0.0, 0.0)"><path d="M 0.0 -2.0 L 0.0 2.0" style="vector-effect: non-scaling-stroke;fill:none;" /></g><g style="stroke: #808080;stroke-width: 0.6000000000000001;" transform="matrix(1.0, 0.0, 0.0, 1.0, 0.0, 0.0)"><path d="M 0.0 0.0 L 25.0 0.0" style="vector-effect: non-scaling-stroke;fill:none;" /></g></g><g style="stroke: black;stroke-width: 2.4000000000000004;" transform="matrix(1.0, 0.0, 0.0, 1.0, 0.0, 0.0)"><path d="M 0.0 -0.7367562651634216 L 1.0 -0.7367562651634216 L 1.0 -0.9657193422317505 L 2.0 -0.9657193422317505 L 2.0 0.6988411545753479 L 3.0 0.6988411545753479 L 3.0 -0.005272081587463617 L 4.0 -0.005272081587463617 L 4.0 0.0015553212724626064 L 5.0 0.0015553212724626064 L 5.0 -0.665658712387085 L 6.0 -0.665658712387085 L 6.0 -0.41038042306900024 L 7.0 -0.41038042306900024 L 7.0 -0.451489120721817 L 8.0 -0.451489120721817 L 8.0 -0.6646890044212341 L 9.0 -0.6646890044212341 L 9.0 -0.7108526229858398 L 10.0 -0.7108526229858398 L 10.0 -0.00815048348158598 L 11.0 -0.00815048348158598 L 11.0 -0.31140273809432983 L 12.0 -0.31140273809432983 L 12.0 -1.0627483129501343 L 13.0 -1.0627483129501343 L 13.0 -0.3332330584526062 L 14.0 -0.3332330584526062 L 14.0 -0.015187198296189308 L 15.0 -0.015187198296189308 L 15.0 0.10458788275718689 L 16.0 0.10458788275718689 L 16.0 -0.41551223397254944 L 17.0 -0.41551223397254944 L 17.0 -0.19143250584602356 L 18.0 -0.19143250584602356 L 18.0 -0.10521318018436432 L 19.0 -0.10521318018436432 L 19.0 -0.698718786239624 L 20.0 -0.698718786239624 L 20.0 -0.4003203213214874 L 21.0 -0.4003203213214874 L 21.0 0.09320104122161865 L 22.0 0.09320104122161865 L 22.0 -0.00768321193754673 L 23.0 -0.00768321193754673 L 23.0 -0.27812033891677856 L 24.0 -0.27812033891677856 L 24.0 -0.23198682069778442 L 25.0 -0.23198682069778442" style="vector-effect: non-scaling-stroke;fill:none;" /></g></g></g></g><g><g><g><g style="stroke: black;stroke-width: 1.2000000000000002;" transform="matrix(1.0, 0.0, 0.0, 1.0, 0.0, 0.0)"><path d="M 0.0 -2.0 L 0.0 2.0" style="vector-effect: non-scaling-stroke;fill:none;" /></g><g style="stroke: #808080;stroke-width: 0.6000000000000001;" transform="matrix(1.0, 0.0, 0.0, 1.0, 0.0, 0.0)"><path d="M 0.0 0.0 L 25.0 0.0" style="vector-effect: non-scaling-stroke;fill:none;" /></g></g><g style="stroke: black;stroke-width: 2.4000000000000004;" transform="matrix(1.0, 0.0, 0.0, 1.0, 0.0, 0.0)"><path d="M 0.0 -0.7367562651634216 L 1.0 -0.7367562651634216 L 1.0 -0.9657193422317505 L 2.0 -0.9657193422317505 L 2.0 0.6988411545753479 L 3.0 0.6988411545753479 L 3.0 -0.005272081587463617 L 4.0 -0.005272081587463617 L 4.0 0.0015553212724626064 L 5.0 0.0015553212724626064 L 5.0 -0.665658712387085 L 6.0 -0.665658712387085 L 6.0 -0.41038042306900024 L 7.0 -0.41038042306900024 L 7.0 -0.451489120721817 L 8.0 -0.451489120721817 L 8.0 -0.6646890044212341 L 9.0 -0.6646890044212341 L 9.0 -0.7108526229858398 L 10.0 -0.7108526229858398 L 10.0 -0.00815048348158598 L 11.0 -0.00815048348158598 L 11.0 -0.31140273809432983 L 12.0 -0.31140273809432983 L 12.0 -1.0627483129501343 L 13.0 -1.0627483129501343 L 13.0 -0.3332330584526062 L 14.0 -0.3332330584526062 L 14.0 -0.015187198296189308 L 15.0 -0.015187198296189308 L 15.0 0.10458788275718689 L 16.0 0.10458788275718689 L 16.0 -0.41551223397254944 L 17.0 -0.41551223397254944 L 17.0 -0.19143250584602356 L 18.0 -0.19143250584602356 L 18.0 -0.10521318018436432 L 19.0 -0.10521318018436432 L 19.0 -0.698718786239624 L 20.0 -0.698718786239624 L 20.0 -0.4003203213214874 L 21.0 -0.4003203213214874 L 21.0 0.09320104122161865 L 22.0 0.09320104122161865 L 22.0 -0.00768321193754673 L 23.0 -0.00768321193754673 L 23.0 -0.27812033891677856 L 24.0 -0.27812033891677856 L 24.0 -0.23198682069778442 L 25.0 -0.23198682069778442" style="vector-effect: non-scaling-stroke;fill:none;" /></g></g></g></g></g></g></g></g></g></g><g transform="matrix(1.0, 0.0, 0.0, 1.0, -0.125, 0.16)"><g transform="matrix(1.0, 0.0, 0.0, 0.009999999999999995, 0.0, 0.0)"><g transform="matrix(0.01, 0.0, 0.0, 1.0, 0.0, 0.0)"><g><g><g style="fill: #ffffe0;stroke: #ffffe0;stroke-width: 1.2000000000000002;fill-opacity: 0.5;" transform="matrix(1.0, 0.0, 0.0, 1.0, 0.0, 0.0)"><path d="M 0.0 -2.0 L 0.0 2.0" style="vector-effect: non-scaling-stroke;fill:none;" /></g><g style="fill: #ffffe0;stroke: #ffffe0;stroke-width: 1.2000000000000002;fill-opacity: 0.5;" transform="matrix(1.0, 0.0, 0.0, 1.0, 0.0, 0.0)"><path d="M 0.0 -2.0 L 1.0 -2.0 L 1.0 -2.0 L 2.0 -2.0 L 2.0 -1.0773773193359375 L 3.0 -1.0773773193359375 L 3.0 -0.1411520391702652 L 4.0 -0.1411520391702652 L 4.0 -0.16119329631328583 L 5.0 -0.16119329631328583 L 5.0 -2.0 L 6.0 -2.0 L 6.0 -1.0958337783813477 L 7.0 -1.0958337783813477 L 7.0 -2.0 L 8.0 -2.0 L 8.0 -2.0 L 9.0 -2.0 L 9.0 -1.9327478408813477 L 10.0 -1.9327478408813477 L 10.0 -0.16731351613998413 L 11.0 -0.16731351613998413 L 11.0 -0.8865875601768494 L 12.0 -0.8865875601768494 L 12.0 -2.0 L 13.0 -2.0 L 13.0 -0.9173585772514343 L 14.0 -0.9173585772514343 L 14.0 -0.03595568984746933 L 15.0 -0.03595568984746933 L 15.0 -0.6598416566848755 L 16.0 -0.6598416566848755 L 16.0 -1.7685376405715942 L 17.0 -1.7685376405715942 L 17.0 -0.9856643676757812 L 18.0 -0.9856643676757812 L 18.0 -0.34288668632507324 L 19.0 -0.34288668632507324 L 19.0 -2.0 L 20.0 -2.0 L 20.0 -1.83083176612854 L 21.0 -1.83083176612854 L 21.0 0.20197951793670654 L 22.0 0.20197951793670654 L 22.0 -0.09699704498052597 L 23.0 -0.09699704498052597 L 23.0 -0.8354237675666809 L 24.0 -0.8354237675666809 L 24.0 -1.8159801959991455 L 25.0 -1.8159801959991455 L 25.0 -0.23198682069778442 L 24.0 -0.23198682069778442 L 24.0 -0.27812033891677856 L 23.0 -0.27812033891677856 L 23.0 -0.00768321193754673 L 22.0 -0.00768321193754673 L 22.0 0.09320104122161865 L 21.0 0.09320104122161865 L 21.0 -0.4003203213214874 L 20.0 -0.4003203213214874 L 20.0 -0.698718786239624 L 19.0 -0.698718786239624 L 19.0 -0.10521318018436432 L 18.0 -0.10521318018436432 L 18.0 -0.19143250584602356 L 17.0 -0.19143250584602356 L 17.0 -0.41551223397254944 L 16.0 -0.41551223397254944 L 16.0 0.10458788275718689 L 15.0 0.10458788275718689 L 15.0 -0.015187198296189308 L 14.0 -0.015187198296189308 L 14.0 -0.3332330584526062 L 13.0 -0.3332330584526062 L 13.0 -1.0627483129501343 L 12.0 -1.0627483129501343 L 12.0 -0.31140273809432983 L 11.0 -0.31140273809432983 L 11.0 -0.00815048348158598 L 10.0 -0.00815048348158598 L 10.0 -0.7108526229858398 L 9.0 -0.7108526229858398 L 9.0 -0.6646890044212341 L 8.0 -0.6646890044212341 L 8.0 -0.451489120721817 L 7.0 -0.451489120721817 L 7.0 -0.41038042306900024 L 6.0 -0.41038042306900024 L 6.0 -0.665658712387085 L 5.0 -0.665658712387085 L 5.0 0.0015553212724626064 L 4.0 0.0015553212724626064 L 4.0 -0.005272081587463617 L 3.0 -0.005272081587463617 L 3.0 0.6988411545753479 L 2.0 0.6988411545753479 L 2.0 -0.9657193422317505 L 1.0 -0.9657193422317505 L 1.0 -0.7367562651634216 L 0.0 -0.7367562651634216 Z" style="vector-effect: non-scaling-stroke;" /></g></g><g style="stroke: black;stroke-width: 1.2000000000000002;" transform="matrix(1.0, 0.0, 0.0, 1.0, 0.0, 0.0)"><path d="M 0.0 -0.7367562651634216 L 1.0 -0.7367562651634216 L 1.0 -0.9657193422317505 L 2.0 -0.9657193422317505 L 2.0 0.6988411545753479 L 3.0 0.6988411545753479 L 3.0 -0.005272081587463617 L 4.0 -0.005272081587463617 L 4.0 0.0015553212724626064 L 5.0 0.0015553212724626064 L 5.0 -0.665658712387085 L 6.0 -0.665658712387085 L 6.0 -0.41038042306900024 L 7.0 -0.41038042306900024 L 7.0 -0.451489120721817 L 8.0 -0.451489120721817 L 8.0 -0.6646890044212341 L 9.0 -0.6646890044212341 L 9.0 -0.7108526229858398 L 10.0 -0.7108526229858398 L 10.0 -0.00815048348158598 L 11.0 -0.00815048348158598 L 11.0 -0.31140273809432983 L 12.0 -0.31140273809432983 L 12.0 -1.0627483129501343 L 13.0 -1.0627483129501343 L 13.0 -0.3332330584526062 L 14.0 -0.3332330584526062 L 14.0 -0.015187198296189308 L 15.0 -0.015187198296189308 L 15.0 0.10458788275718689 L 16.0 0.10458788275718689 L 16.0 -0.41551223397254944 L 17.0 -0.41551223397254944 L 17.0 -0.19143250584602356 L 18.0 -0.19143250584602356 L 18.0 -0.10521318018436432 L 19.0 -0.10521318018436432 L 19.0 -0.698718786239624 L 20.0 -0.698718786239624 L 20.0 -0.4003203213214874 L 21.0 -0.4003203213214874 L 21.0 0.09320104122161865 L 22.0 0.09320104122161865 L 22.0 -0.00768321193754673 L 23.0 -0.00768321193754673 L 23.0 -0.27812033891677856 L 24.0 -0.27812033891677856 L 24.0 -0.23198682069778442 L 25.0 -0.23198682069778442" style="vector-effect: non-scaling-stroke;fill:none;" /></g></g></g></g></g></g><g transform="matrix(1.0, 0.0, 0.0, 1.0, -0.125, 0.16)"><g transform="matrix(1.0, 0.0, 0.0, 0.009999999999999995, 0.0, 0.0)"><g transform="matrix(0.01, 0.0, 0.0, 1.0, 0.0, 0.0)"><g><g><g style="fill: #add8e6;stroke: #add8e6;stroke-width: 1.2000000000000002;fill-opacity: 0.5;" transform="matrix(1.0, 0.0, 0.0, 1.0, 0.0, 0.0)"><path d="M 0.0 -2.0 L 0.0 2.0" style="vector-effect: non-scaling-stroke;fill:none;" /></g><g style="fill: #add8e6;stroke: #add8e6;stroke-width: 1.2000000000000002;fill-opacity: 0.5;" transform="matrix(1.0, 0.0, 0.0, 1.0, 0.0, 0.0)"><path d="M 0.0 -1.660628318786621 L 1.0 -1.660628318786621 L 1.0 -1.9551564455032349 L 2.0 -1.9551564455032349 L 2.0 1.4856224060058594 L 3.0 1.4856224060058594 L 3.0 -0.08280468732118607 L 4.0 -0.08280468732118607 L 4.0 0.02067071758210659 L 5.0 0.02067071758210659 L 5.0 -1.5597283840179443 L 6.0 -1.5597283840179443 L 6.0 -1.608433723449707 L 7.0 -1.608433723449707 L 7.0 -0.9909111261367798 L 8.0 -0.9909111261367798 L 8.0 -1.5885610580444336 L 9.0 -1.5885610580444336 L 9.0 -1.8850641250610352 L 10.0 -1.8850641250610352 L 10.0 -0.11050283163785934 L 11.0 -0.11050283163785934 L 11.0 -1.402167797088623 L 12.0 -1.402167797088623 L 12.0 -2.0 L 13.0 -2.0 L 13.0 -1.4806225299835205 L 14.0 -1.4806225299835205 L 14.0 -1.4787606000900269 L 15.0 -1.4787606000900269 L 15.0 0.37876924872398376 L 16.0 0.37876924872398376 L 16.0 -1.0294400453567505 L 17.0 -1.0294400453567505 L 17.0 -0.6742300987243652 L 18.0 -0.6742300987243652 L 18.0 -0.9933223724365234 L 19.0 -0.9933223724365234 L 19.0 -1.6643140316009521 L 20.0 -1.6643140316009521 L 20.0 -0.9606039524078369 L 21.0 -0.9606039524078369 L 21.0 -1.6211775541305542 L 22.0 -1.6211775541305542 L 22.0 -0.17974506318569183 L 23.0 -0.17974506318569183 L 23.0 -1.2824585437774658 L 24.0 -1.2824585437774658 L 24.0 -0.5240495800971985 L 25.0 -0.5240495800971985 L 25.0 -0.23198682069778442 L 24.0 -0.23198682069778442 L 24.0 -0.27812033891677856 L 23.0 -0.27812033891677856 L 23.0 -0.00768321193754673 L 22.0 -0.00768321193754673 L 22.0 0.09320104122161865 L 21.0 0.09320104122161865 L 21.0 -0.4003203213214874 L 20.0 -0.4003203213214874 L 20.0 -0.698718786239624 L 19.0 -0.698718786239624 L 19.0 -0.10521318018436432 L 18.0 -0.10521318018436432 L 18.0 -0.19143250584602356 L 17.0 -0.19143250584602356 L 17.0 -0.41551223397254944 L 16.0 -0.41551223397254944 L 16.0 0.10458788275718689 L 15.0 0.10458788275718689 L 15.0 -0.015187198296189308 L 14.0 -0.015187198296189308 L 14.0 -0.3332330584526062 L 13.0 -0.3332330584526062 L 13.0 -1.0627483129501343 L 12.0 -1.0627483129501343 L 12.0 -0.31140273809432983 L 11.0 -0.31140273809432983 L 11.0 -0.00815048348158598 L 10.0 -0.00815048348158598 L 10.0 -0.7108526229858398 L 9.0 -0.7108526229858398 L 9.0 -0.6646890044212341 L 8.0 -0.6646890044212341 L 8.0 -0.451489120721817 L 7.0 -0.451489120721817 L 7.0 -0.41038042306900024 L 6.0 -0.41038042306900024 L 6.0 -0.665658712387085 L 5.0 -0.665658712387085 L 5.0 0.0015553212724626064 L 4.0 0.0015553212724626064 L 4.0 -0.005272081587463617 L 3.0 -0.005272081587463617 L 3.0 0.6988411545753479 L 2.0 0.6988411545753479 L 2.0 -0.9657193422317505 L 1.0 -0.9657193422317505 L 1.0 -0.7367562651634216 L 0.0 -0.7367562651634216 Z" style="vector-effect: non-scaling-stroke;" /></g></g><g style="stroke: black;stroke-width: 1.2000000000000002;" transform="matrix(1.0, 0.0, 0.0, 1.0, 0.0, 0.0)"><path d="M 0.0 -0.7367562651634216 L 1.0 -0.7367562651634216 L 1.0 -0.9657193422317505 L 2.0 -0.9657193422317505 L 2.0 0.6988411545753479 L 3.0 0.6988411545753479 L 3.0 -0.005272081587463617 L 4.0 -0.005272081587463617 L 4.0 0.0015553212724626064 L 5.0 0.0015553212724626064 L 5.0 -0.665658712387085 L 6.0 -0.665658712387085 L 6.0 -0.41038042306900024 L 7.0 -0.41038042306900024 L 7.0 -0.451489120721817 L 8.0 -0.451489120721817 L 8.0 -0.6646890044212341 L 9.0 -0.6646890044212341 L 9.0 -0.7108526229858398 L 10.0 -0.7108526229858398 L 10.0 -0.00815048348158598 L 11.0 -0.00815048348158598 L 11.0 -0.31140273809432983 L 12.0 -0.31140273809432983 L 12.0 -1.0627483129501343 L 13.0 -1.0627483129501343 L 13.0 -0.3332330584526062 L 14.0 -0.3332330584526062 L 14.0 -0.015187198296189308 L 15.0 -0.015187198296189308 L 15.0 0.10458788275718689 L 16.0 0.10458788275718689 L 16.0 -0.41551223397254944 L 17.0 -0.41551223397254944 L 17.0 -0.19143250584602356 L 18.0 -0.19143250584602356 L 18.0 -0.10521318018436432 L 19.0 -0.10521318018436432 L 19.0 -0.698718786239624 L 20.0 -0.698718786239624 L 20.0 -0.4003203213214874 L 21.0 -0.4003203213214874 L 21.0 0.09320104122161865 L 22.0 0.09320104122161865 L 22.0 -0.00768321193754673 L 23.0 -0.00768321193754673 L 23.0 -0.27812033891677856 L 24.0 -0.27812033891677856 L 24.0 -0.23198682069778442 L 25.0 -0.23198682069778442" style="vector-effect: non-scaling-stroke;fill:none;" /></g></g></g></g></g></g><g transform="matrix(1.0, 0.0, 0.0, 1.0, -0.125, 0.16)"><g transform="matrix(1.0, 0.0, 0.0, 0.009999999999999995, 0.0, 0.0)"><g transform="matrix(0.01, 0.0, 0.0, 1.0, 0.0, 0.0)"><g><g><g style="fill: #ff8c00;stroke: #ff8c00;stroke-width: 1.2000000000000002;fill-opacity: 0.5;" transform="matrix(1.0, 0.0, 0.0, 1.0, 0.0, 0.0)"><path d="M 0.0 -2.0 L 0.0 2.0" style="vector-effect: non-scaling-stroke;fill:none;" /></g><g style="fill: #ff8c00;stroke: #ff8c00;stroke-width: 1.2000000000000002;fill-opacity: 0.5;" transform="matrix(1.0, 0.0, 0.0, 1.0, 0.0, 0.0)"><path d="M 0.0 -0.7367562651634216 L 1.0 -0.7367562651634216 L 1.0 -0.9657193422317505 L 2.0 -0.9657193422317505 L 2.0 0.6988411545753479 L 3.0 0.6988411545753479 L 3.0 -0.005272081587463617 L 4.0 -0.005272081587463617 L 4.0 0.0015553212724626064 L 5.0 0.0015553212724626064 L 5.0 -0.665658712387085 L 6.0 -0.665658712387085 L 6.0 -0.41038042306900024 L 7.0 -0.41038042306900024 L 7.0 -0.451489120721817 L 8.0 -0.451489120721817 L 8.0 -0.6646890044212341 L 9.0 -0.6646890044212341 L 9.0 -0.7108526229858398 L 10.0 -0.7108526229858398 L 10.0 -0.00815048348158598 L 11.0 -0.00815048348158598 L 11.0 -0.31140273809432983 L 12.0 -0.31140273809432983 L 12.0 -1.0627483129501343 L 13.0 -1.0627483129501343 L 13.0 -0.3332330584526062 L 14.0 -0.3332330584526062 L 14.0 -0.015187198296189308 L 15.0 -0.015187198296189308 L 15.0 0.10458788275718689 L 16.0 0.10458788275718689 L 16.0 -0.41551223397254944 L 17.0 -0.41551223397254944 L 17.0 -0.19143250584602356 L 18.0 -0.19143250584602356 L 18.0 -0.10521318018436432 L 19.0 -0.10521318018436432 L 19.0 -0.698718786239624 L 20.0 -0.698718786239624 L 20.0 -0.4003203213214874 L 21.0 -0.4003203213214874 L 21.0 0.09320104122161865 L 22.0 0.09320104122161865 L 22.0 -0.00768321193754673 L 23.0 -0.00768321193754673 L 23.0 -0.27812033891677856 L 24.0 -0.27812033891677856 L 24.0 -0.23198682069778442 L 25.0 -0.23198682069778442 L 25.0 -0.23198682069778442 L 24.0 -0.23198682069778442 L 24.0 -0.27812033891677856 L 23.0 -0.27812033891677856 L 23.0 -0.00768321193754673 L 22.0 -0.00768321193754673 L 22.0 0.09320104122161865 L 21.0 0.09320104122161865 L 21.0 -0.4003203213214874 L 20.0 -0.4003203213214874 L 20.0 -0.698718786239624 L 19.0 -0.698718786239624 L 19.0 -0.10521318018436432 L 18.0 -0.10521318018436432 L 18.0 -0.19143250584602356 L 17.0 -0.19143250584602356 L 17.0 -0.41551223397254944 L 16.0 -0.41551223397254944 L 16.0 0.10458788275718689 L 15.0 0.10458788275718689 L 15.0 -0.015187198296189308 L 14.0 -0.015187198296189308 L 14.0 -0.3332330584526062 L 13.0 -0.3332330584526062 L 13.0 -1.0627483129501343 L 12.0 -1.0627483129501343 L 12.0 -0.31140273809432983 L 11.0 -0.31140273809432983 L 11.0 -0.00815048348158598 L 10.0 -0.00815048348158598 L 10.0 -0.7108526229858398 L 9.0 -0.7108526229858398 L 9.0 -0.6646890044212341 L 8.0 -0.6646890044212341 L 8.0 -0.451489120721817 L 7.0 -0.451489120721817 L 7.0 -0.41038042306900024 L 6.0 -0.41038042306900024 L 6.0 -0.665658712387085 L 5.0 -0.665658712387085 L 5.0 0.0015553212724626064 L 4.0 0.0015553212724626064 L 4.0 -0.005272081587463617 L 3.0 -0.005272081587463617 L 3.0 0.6988411545753479 L 2.0 0.6988411545753479 L 2.0 -0.9657193422317505 L 1.0 -0.9657193422317505 L 1.0 -0.7367562651634216 L 0.0 -0.7367562651634216 Z" style="vector-effect: non-scaling-stroke;" /></g></g><g style="stroke: black;stroke-width: 1.2000000000000002;" transform="matrix(1.0, 0.0, 0.0, 1.0, 0.0, 0.0)"><path d="M 0.0 -0.7367562651634216 L 1.0 -0.7367562651634216 L 1.0 -0.9657193422317505 L 2.0 -0.9657193422317505 L 2.0 0.6988411545753479 L 3.0 0.6988411545753479 L 3.0 -0.005272081587463617 L 4.0 -0.005272081587463617 L 4.0 0.0015553212724626064 L 5.0 0.0015553212724626064 L 5.0 -0.665658712387085 L 6.0 -0.665658712387085 L 6.0 -0.41038042306900024 L 7.0 -0.41038042306900024 L 7.0 -0.451489120721817 L 8.0 -0.451489120721817 L 8.0 -0.6646890044212341 L 9.0 -0.6646890044212341 L 9.0 -0.7108526229858398 L 10.0 -0.7108526229858398 L 10.0 -0.00815048348158598 L 11.0 -0.00815048348158598 L 11.0 -0.31140273809432983 L 12.0 -0.31140273809432983 L 12.0 -1.0627483129501343 L 13.0 -1.0627483129501343 L 13.0 -0.3332330584526062 L 14.0 -0.3332330584526062 L 14.0 -0.015187198296189308 L 15.0 -0.015187198296189308 L 15.0 0.10458788275718689 L 16.0 0.10458788275718689 L 16.0 -0.41551223397254944 L 17.0 -0.41551223397254944 L 17.0 -0.19143250584602356 L 18.0 -0.19143250584602356 L 18.0 -0.10521318018436432 L 19.0 -0.10521318018436432 L 19.0 -0.698718786239624 L 20.0 -0.698718786239624 L 20.0 -0.4003203213214874 L 21.0 -0.4003203213214874 L 21.0 0.09320104122161865 L 22.0 0.09320104122161865 L 22.0 -0.00768321193754673 L 23.0 -0.00768321193754673 L 23.0 -0.27812033891677856 L 24.0 -0.27812033891677856 L 24.0 -0.23198682069778442 L 25.0 -0.23198682069778442" style="vector-effect: non-scaling-stroke;fill:none;" /></g></g></g></g></g></g><g transform="matrix(1.0, 0.0, 0.0, 1.0, -0.125, 0.16)"><g transform="matrix(1.0, 0.0, 0.0, 0.009999999999999995, 0.0, 0.0)"><g transform="matrix(0.01, 0.0, 0.0, 1.0, 0.0, 0.0)"><g><g><g style="fill: #0000ff;stroke: #0000ff;stroke-width: 1.2000000000000002;fill-opacity: 0.5;" transform="matrix(1.0, 0.0, 0.0, 1.0, 0.0, 0.0)"><path d="M 0.0 -2.0 L 0.0 2.0" style="vector-effect: non-scaling-stroke;fill:none;" /></g><g style="fill: #0000ff;stroke: #0000ff;stroke-width: 1.2000000000000002;fill-opacity: 0.5;" transform="matrix(1.0, 0.0, 0.0, 1.0, 0.0, 0.0)"><path d="M 0.0 -0.7367562651634216 L 1.0 -0.7367562651634216 L 1.0 -0.9657193422317505 L 2.0 -0.9657193422317505 L 2.0 0.6988411545753479 L 3.0 0.6988411545753479 L 3.0 -0.005272081587463617 L 4.0 -0.005272081587463617 L 4.0 0.0015553212724626064 L 5.0 0.0015553212724626064 L 5.0 -0.665658712387085 L 6.0 -0.665658712387085 L 6.0 -0.41038042306900024 L 7.0 -0.41038042306900024 L 7.0 -0.451489120721817 L 8.0 -0.451489120721817 L 8.0 -0.6646890044212341 L 9.0 -0.6646890044212341 L 9.0 -0.7108526229858398 L 10.0 -0.7108526229858398 L 10.0 -0.00815048348158598 L 11.0 -0.00815048348158598 L 11.0 -0.31140273809432983 L 12.0 -0.31140273809432983 L 12.0 -1.0627483129501343 L 13.0 -1.0627483129501343 L 13.0 -0.3332330584526062 L 14.0 -0.3332330584526062 L 14.0 -0.015187198296189308 L 15.0 -0.015187198296189308 L 15.0 0.10458788275718689 L 16.0 0.10458788275718689 L 16.0 -0.41551223397254944 L 17.0 -0.41551223397254944 L 17.0 -0.19143250584602356 L 18.0 -0.19143250584602356 L 18.0 -0.10521318018436432 L 19.0 -0.10521318018436432 L 19.0 -0.698718786239624 L 20.0 -0.698718786239624 L 20.0 -0.4003203213214874 L 21.0 -0.4003203213214874 L 21.0 0.09320104122161865 L 22.0 0.09320104122161865 L 22.0 -0.00768321193754673 L 23.0 -0.00768321193754673 L 23.0 -0.27812033891677856 L 24.0 -0.27812033891677856 L 24.0 -0.23198682069778442 L 25.0 -0.23198682069778442 L 25.0 -0.23198682069778442 L 24.0 -0.23198682069778442 L 24.0 -0.27812033891677856 L 23.0 -0.27812033891677856 L 23.0 -0.00768321193754673 L 22.0 -0.00768321193754673 L 22.0 0.09320104122161865 L 21.0 0.09320104122161865 L 21.0 -0.4003203213214874 L 20.0 -0.4003203213214874 L 20.0 -0.698718786239624 L 19.0 -0.698718786239624 L 19.0 -0.10521318018436432 L 18.0 -0.10521318018436432 L 18.0 -0.19143250584602356 L 17.0 -0.19143250584602356 L 17.0 -0.41551223397254944 L 16.0 -0.41551223397254944 L 16.0 0.10458788275718689 L 15.0 0.10458788275718689 L 15.0 -0.015187198296189308 L 14.0 -0.015187198296189308 L 14.0 -0.3332330584526062 L 13.0 -0.3332330584526062 L 13.0 -1.0627483129501343 L 12.0 -1.0627483129501343 L 12.0 -0.31140273809432983 L 11.0 -0.31140273809432983 L 11.0 -0.00815048348158598 L 10.0 -0.00815048348158598 L 10.0 -0.7108526229858398 L 9.0 -0.7108526229858398 L 9.0 -0.6646890044212341 L 8.0 -0.6646890044212341 L 8.0 -0.451489120721817 L 7.0 -0.451489120721817 L 7.0 -0.41038042306900024 L 6.0 -0.41038042306900024 L 6.0 -0.665658712387085 L 5.0 -0.665658712387085 L 5.0 0.0015553212724626064 L 4.0 0.0015553212724626064 L 4.0 -0.005272081587463617 L 3.0 -0.005272081587463617 L 3.0 0.6988411545753479 L 2.0 0.6988411545753479 L 2.0 -0.9657193422317505 L 1.0 -0.9657193422317505 L 1.0 -0.7367562651634216 L 0.0 -0.7367562651634216 Z" style="vector-effect: non-scaling-stroke;" /></g></g><g style="stroke: black;stroke-width: 1.2000000000000002;" transform="matrix(1.0, 0.0, 0.0, 1.0, 0.0, 0.0)"><path d="M 0.0 -0.7367562651634216 L 1.0 -0.7367562651634216 L 1.0 -0.9657193422317505 L 2.0 -0.9657193422317505 L 2.0 0.6988411545753479 L 3.0 0.6988411545753479 L 3.0 -0.005272081587463617 L 4.0 -0.005272081587463617 L 4.0 0.0015553212724626064 L 5.0 0.0015553212724626064 L 5.0 -0.665658712387085 L 6.0 -0.665658712387085 L 6.0 -0.41038042306900024 L 7.0 -0.41038042306900024 L 7.0 -0.451489120721817 L 8.0 -0.451489120721817 L 8.0 -0.6646890044212341 L 9.0 -0.6646890044212341 L 9.0 -0.7108526229858398 L 10.0 -0.7108526229858398 L 10.0 -0.00815048348158598 L 11.0 -0.00815048348158598 L 11.0 -0.31140273809432983 L 12.0 -0.31140273809432983 L 12.0 -1.0627483129501343 L 13.0 -1.0627483129501343 L 13.0 -0.3332330584526062 L 14.0 -0.3332330584526062 L 14.0 -0.015187198296189308 L 15.0 -0.015187198296189308 L 15.0 0.10458788275718689 L 16.0 0.10458788275718689 L 16.0 -0.41551223397254944 L 17.0 -0.41551223397254944 L 17.0 -0.19143250584602356 L 18.0 -0.19143250584602356 L 18.0 -0.10521318018436432 L 19.0 -0.10521318018436432 L 19.0 -0.698718786239624 L 20.0 -0.698718786239624 L 20.0 -0.4003203213214874 L 21.0 -0.4003203213214874 L 21.0 0.09320104122161865 L 22.0 0.09320104122161865 L 22.0 -0.00768321193754673 L 23.0 -0.00768321193754673 L 23.0 -0.27812033891677856 L 24.0 -0.27812033891677856 L 24.0 -0.23198682069778442 L 25.0 -0.23198682069778442" style="vector-effect: non-scaling-stroke;fill:none;" /></g></g></g></g></g></g></g></g><g /></g></g></g></g></svg>