<?xml version="1.0" encoding="utf-8" ?>
<svg baseProfile="full" height="300" version="1.1" width="852" xmlns="http://www.w3.org/2000/svg" xmlns:ev="http://www.w3.org/2001/xml-events" xmlns:xlink="http://www.w3.org/1999/xlink"><defs><marker id="arrow" markerHeight="3.5" markerWidth="5" orient="auto" refX="5.0" refY="1.7"><polygon points="0,0 5,1.75 0,3.5" /></marker></defs><g style="fill:white;"><g transform="matrix(1.0, 0.0, 0.0, 1.0, 426.13636363636357, 150.0)"><g transform="matrix(1082.2510822510822, 0.0, 0.0, 1082.2510822510822, 0.0, 0.0)"><g><g transform="matrix(1.0, 0.0, 0.0, 1.0, -5.551115123125783e-17, -0.08000000000000002)"><g><g><g style="fill: #ffffff;stroke: black;stroke-width: 1.2000000000000002;" transform="matrix(1.0, 0.0, 0.0, 1.0, -0.3749999999999999, -0.052000000000000005)"><path d="M 0.0 0.0 L 0.7499999999999999 0.0 L 0.7499999999999999 0.264 L 0.0 0.264 L 0.0 0.0 Z" style="vector-effect: non-scaling-stroke;" /></g><g><g><g><g><g><g transform="matrix(1.0, 0.0, 0.0, 1.0, -0.32499999999999996, -0.03)"><g transform="matrix(1.0, 0.0, 0.0, 1.0, 0.075, 0.0)"><g transform="matrix(1.0, 0.0, 0.0, 1.0, 0.0, 0.03)"><g transform="matrix(0.01, 0.0, 0.0, 0.01, 0.0, 0.0)"><g><g><g transform="matrix(1.0, 0.0, 0.0, 1.0, 25.0, 0.0)"><g transform="matrix(1.0, 0.0, 0.0, 1.0, -32.5, -0.0)"><g><g style="fill: #d3d3d3;stroke: black;stroke-width: 1.2000000000000002;" transform="matrix(1.0, 0.0, 0.0, 1.0, 0.0, -3.0)"><path d="M 0.0 0.0 L 65.0 0.0 L 65.0 6.0 L 0.0 6.0 L 0.0 0.0 Z" style="vector-effect: non-scaling-stroke;" /></g><g transform="matrix(1.0, 0.0, 0.0, 1.0, 1.875, 0.0)"><g><g style="stroke: black;stroke-width: 1.2000000000000002;" transform="matrix(1.0, 0.0, 0.0, 1.0, 0.0, 0.0)"><g /></g><g style="fill: #ffa500;stroke: black;stroke-width: 1.2000000000000002;" transform="matrix(1.0, 0.0, 0.0, 1.0, 1.875, 0.0)"><text style="text-align:center; text-anchor:middle; dominant-baseline:middle;&#10;                      font-family:sans-serif; font-weight: bold;&#10;                      font-size:3px;&#10;                      vector-effect: non-scaling-stroke;" transform="translate(-5e-05, 0)">x</text></g></g></g></g></g></g><g><g><g><g style="stroke: black;stroke-width: 1.2000000000000002;" transform="matrix(1.0, 0.0, 0.0, 1.0, 0.0, 0.0)"><path d="M 0.0 -2.0 L 0.0 2.0" style="vector-effect: non-scaling-stroke;fill:none;" /></g><g style="stroke: #808080;stroke-width: 0.6000000000000001;" transform="matrix(1.0, 0.0, 0.0, 1.0, 0.0, 0.0)"><path d="M 0.0 0.0 L 50.0 0.0" style="vector-effect: non-scaling-stroke;fill:none;" /></g></g><g style="stroke: black;stroke-width: 2.4000000000000004;" transform="matrix(1.0, 0.0, 0.0, 1.0, 0.0, 0.0)"><path d="M 0.0 0.36892756819725037 L 1.0 0.36892756819725037 L 1.0 0.10681941360235214 L 2.0 0.10681941360235214 L 2.0 -0.40417441725730896 L 3.0 -0.40417441725730896 L 3.0 -0.45308804512023926 L 4.0 -0.45308804512023926 L 4.0 -0.6547780632972717 L 5.0 -0.6547780632972717 L 5.0 0.2719874083995819 L 6.0 0.2719874083995819 L 6.0 -0.2291276603937149 L 7.0 -0.2291276603937149 L 7.0 0.6312178373336792 L 8.0 0.6312178373336792 L 8.0 -0.04604702442884445 L 9.0 -0.04604702442884445 L 9.0 -0.6091361045837402 L 10.0 -0.6091361045837402 L 10.0 -0.9941620826721191 L 11.0 -0.9941620826721191 L 11.0 -1.3657546043395996 L 12.0 -1.3657546043395996 L 12.0 -0.5576217770576477 L 13.0 -0.5576217770576477 L 13.0 -1.5033526420593262 L 14.0 -1.5033526420593262 L 14.0 -0.9151825904846191 L 15.0 -0.9151825904846191 L 15.0 -1.642714500427246 L 16.0 -1.642714500427246 L 16.0 -1.4663134813308716 L 17.0 -1.4663134813308716 L 17.0 -1.3641618490219116 L 18.0 -1.3641618490219116 L 18.0 -0.9552580714225769 L 19.0 -0.9552580714225769 L 19.0 -0.5979908108711243 L 20.0 -0.5979908108711243 L 20.0 -1.0358208417892456 L 21.0 -1.0358208417892456 L 21.0 -0.6786758303642273 L 22.0 -0.6786758303642273 L 22.0 -1.435609221458435 L 23.0 -1.435609221458435 L 23.0 -0.7616475820541382 L 24.0 -0.7616475820541382 L 24.0 -0.7052664160728455 L 25.0 -0.7052664160728455 L 25.0 -0.17914047837257385 L 26.0 -0.17914047837257385 L 26.0 -1.8140982389450073 L 27.0 -1.8140982389450073 L 27.0 -1.4809788465499878 L 28.0 -1.4809788465499878 L 28.0 -0.1399087905883789 L 29.0 -0.1399087905883789 L 29.0 -1.1240906715393066 L 30.0 -1.1240906715393066 L 30.0 -1.5293102264404297 L 31.0 -1.5293102264404297 L 31.0 -1.983750820159912 L 32.0 -1.983750820159912 L 32.0 -1.2204375267028809 L 33.0 -1.2204375267028809 L 33.0 -0.11166233569383621 L 34.0 -0.11166233569383621 L 34.0 -1.1134977340698242 L 35.0 -1.1134977340698242 L 35.0 -0.46122583746910095 L 36.0 -0.46122583746910095 L 36.0 -0.36684322357177734 L 37.0 -0.36684322357177734 L 37.0 -1.0981719493865967 L 38.0 -1.0981719493865967 L 38.0 -0.8180548548698425 L 39.0 -0.8180548548698425 L 39.0 -1.9024450778961182 L 40.0 -1.9024450778961182 L 40.0 -1.2284631729125977 L 41.0 -1.2284631729125977 L 41.0 -1.3120884895324707 L 42.0 -1.3120884895324707 L 42.0 -0.8512806296348572 L 43.0 -0.8512806296348572 L 43.0 -0.69685298204422 L 44.0 -0.69685298204422 L 44.0 -0.4450138509273529 L 45.0 -0.4450138509273529 L 45.0 -0.6431826949119568 L 46.0 -0.6431826949119568 L 46.0 -1.1062308549880981 L 47.0 -1.1062308549880981 L 47.0 -1.6847048997879028 L 48.0 -1.6847048997879028 L 48.0 0.05547328665852547 L 49.0 0.05547328665852547 L 49.0 -0.5061242580413818 L 50.0 -0.5061242580413818" style="vector-effect: non-scaling-stroke;fill:none;" /></g></g></g></g><g><g><g><g style="stroke: black;stroke-width: 1.2000000000000002;" transform="matrix(1.0, 0.0, 0.0, 1.0, 0.0, 0.0)"><path d="M 0.0 -2.0 L 0.0 2.0" style="vector-effect: non-scaling-stroke;fill:none;" /></g><g style="stroke: #808080;stroke-width: 0.6000000000000001;" transform="matrix(1.0, 0.0, 0.0, 1.0, 0.0, 0.0)"><path d="M 0.0 0.0 L 50.0 0.0" style="vector-effect: non-scaling-stroke;fill:none;" /></g></g><g style="stroke: black;stroke-width: 2.4000000000000004;" transform="matrix(1.0, 0.0, 0.0, 1.0, 0.0, 0.0)"><path d="M 0.0 0.36892756819725037 L 1.0 0.36892756819725037 L 1.0 0.10681941360235214 L 2.0 0.10681941360235214 L 2.0 -0.40417441725730896 L 3.0 -0.40417441725730896 L 3.0 -0.45308804512023926 L 4.0 -0.45308804512023926 L 4.0 -0.6547780632972717 L 5.0 -0.6547780632972717 L 5.0 0.2719874083995819 L 6.0 0.2719874083995819 L 6.0 -0.2291276603937149 L 7.0 -0.2291276603937149 L 7.0 0.6312178373336792 L 8.0 0.6312178373336792 L 8.0 -0.04604702442884445 L 9.0 -0.04604702442884445 L 9.0 -0.6091361045837402 L 10.0 -0.6091361045837402 L 10.0 -0.9941620826721191 L 11.0 -0.9941620826721191 L 11.0 -1.3657546043395996 L 12.0 -1.3657546043395996 L 12.0 -0.5576217770576477 L 13.0 -0.5576217770576477 L 13.0 -1.5033526420593262 L 14.0 -1.5033526420593262 L 14.0 -0.9151825904846191 L 15.0 -0.9151825904846191 L 15.0 -1.642714500427246 L 16.0 -1.642714500427246 L 16.0 -1.4663134813308716 L 17.0 -1.4663134813308716 L 17.0 -1.3641618490219116 L 18.0 -1.3641618490219116 L 18.0 -0.9552580714225769 L 19.0 -0.9552580714225769 L 19.0 -0.5979908108711243 L 20.0 -0.5979908108711243 L 20.0 -1.0358208417892456 L 21.0 -1.0358208417892456 L 21.0 -0.6786758303642273 L 22.0 -0.6786758303642273 L 22.0 -1.435609221458435 L 23.0 -1.435609221458435 L 23.0 -0.7616475820541382 L 24.0 -0.7616475820541382 L 24.0 -0.7052664160728455 L 25.0 -0.7052664160728455 L 25.0 -0.17914047837257385 L 26.0 -0.17914047837257385 L 26.0 -1.8140982389450073 L 27.0 -1.8140982389450073 L 27.0 -1.4809788465499878 L 28.0 -1.4809788465499878 L 28.0 -0.1399087905883789 L 29.0 -0.1399087905883789 L 29.0 -1.1240906715393066 L 30.0 -1.1240906715393066 L 30.0 -1.5293102264404297 L 31.0 -1.5293102264404297 L 31.0 -1.983750820159912 L 32.0 -1.983750820159912 L 32.0 -1.2204375267028809 L 33.0 -1.2204375267028809 L 33.0 -0.11166233569383621 L 34.0 -0.11166233569383621 L 34.0 -1.1134977340698242 L 35.0 -1.1134977340698242 L 35.0 -0.46122583746910095 L 36.0 -0.46122583746910095 L 36.0 -0.36684322357177734 L 37.0 -0.36684322357177734 L 37.0 -1.0981719493865967 L 38.0 -1.0981719493865967 L 38.0 -0.8180548548698425 L 39.0 -0.8180548548698425 L 39.0 -1.9024450778961182 L 40.0 -1.9024450778961182 L 40.0 -1.2284631729125977 L 41.0 -1.2284631729125977 L 41.0 -1.3120884895324707 L 42.0 -1.3120884895324707 L 42.0 -0.8512806296348572 L 43.0 -0.8512806296348572 L 43.0 -0.69685298204422 L 44.0 -0.69685298204422 L 44.0 -0.4450138509273529 L 45.0 -0.4450138509273529 L 45.0 -0.6431826949119568 L 46.0 -0.6431826949119568 L 46.0 -1.1062308549880981 L 47.0 -1.1062308549880981 L 47.0 -1.6847048997879028 L 48.0 -1.6847048997879028 L 48.0 0.05547328665852547 L 49.0 0.05547328665852547 L 49.0 -0.5061242580413818 L 50.0 -0.5061242580413818" style="vector-effect: non-scaling-stroke;fill:none;" /></g></g></g></g></g></g></g></g><g style="stroke: black;stroke-width: 1.2000000000000002;" transform="matrix(0.0, -1.0, 1.0, 0.0, 0.0, 0.08)"><g /></g></g><g transform="matrix(1.0, 0.0, 0.0, 1.0, 0.0, 0.16)"><g transform="matrix(1.0, 0.0, 0.0, 1.0, -0.32499999999999996, -0.03)"><g transform="matrix(1.0, 0.0, 0.0, 1.0, 0.075, 0.0)"><g transform="matrix(1.0, 0.0, 0.0, 1.0, 0.0, 0.03)"><g transform="matrix(0.01, 0.0, 0.0, 0.01, 0.0, 0.0)"><g><g><g transform="matrix(1.0, 0.0, 0.0, 1.0, 25.0, 0.0)"><g transform="matrix(1.0, 0.0, 0.0, 1.0, -32.5, -0.0)"><g><g style="fill: #d3d3d3;stroke: black;stroke-width: 1.2000000000000002;" transform="matrix(1.0, 0.0, 0.0, 1.0, 0.0, -3.0)"><path d="M 0.0 0.0 L 65.0 0.0 L 65.0 6.0 L 0.0 6.0 L 0.0 0.0 Z" style="vector-effect: non-scaling-stroke;" /></g><g transform="matrix(1.0, 0.0, 0.0, 1.0, 1.875, 0.0)"><g><g style="stroke: black;stroke-width: 1.2000000000000002;" transform="matrix(1.0, 0.0, 0.0, 1.0, 0.0, 0.0)"><g /></g><g style="fill: #ffa500;stroke: black;stroke-width: 1.2000000000000002;" transform="matrix(1.0, 0.0, 0.0, 1.0, 1.875, 0.0)"><text style="text-align:center; text-anchor:middle; dominant-baseline:middle;&#10;                      font-family:sans-serif; font-weight: bold;&#10;                      font-size:3px;&#10;                      vector-effect: non-scaling-stroke;" transform="translate(-5e-05, 0)">f(x)</text></g></g></g></g></g></g><g><g><g><g style="stroke: black;stroke-width: 1.2000000000000002;" transform="matrix(1.0, 0.0, 0.0, 1.0, 0.0, 0.0)"><path d="M 0.0 -2.0 L 0.0 2.0" style="vector-effect: non-scaling-stroke;fill:none;" /></g><g style="stroke: #808080;stroke-width: 0.6000000000000001;" transform="matrix(1.0, 0.0, 0.0, 1.0, 0.0, 0.0)"><path d="M 0.0 0.0 L 50.0 0.0" style="vector-effect: non-scaling-stroke;fill:none;" /></g></g><g style="stroke: black;stroke-width: 2.4000000000000004;" transform="matrix(1.0, 0.0, 0.0, 1.0, 0.0, 0.0)"><path d="M 0.0 0.03689275681972504 L 1.0 0.03689275681972504 L 1.0 0.04757469892501831 L 2.0 0.04757469892501831 L 2.0 0.007157257292419672 L 3.0 0.007157257292419672 L 3.0 -0.03815155476331711 L 4.0 -0.03815155476331711 L 4.0 -0.10362935066223145 L 5.0 -0.10362935066223145 L 5.0 -0.07643061876296997 L 6.0 -0.07643061876296997 L 6.0 -0.09934338182210922 L 7.0 -0.09934338182210922 L 7.0 -0.036221589893102646 L 8.0 -0.036221589893102646 L 8.0 -0.04082629829645157 L 9.0 -0.04082629829645157 L 9.0 -0.10173990577459335 L 10.0 -0.10173990577459335 L 10.0 -0.23804886639118195 L 11.0 -0.23804886639118195 L 11.0 -0.3853062689304352 L 12.0 -0.3853062689304352 L 12.0 -0.4006509780883789 L 13.0 -0.4006509780883789 L 13.0 -0.5056774616241455 L 14.0 -0.5056774616241455 L 14.0 -0.5317178964614868 L 15.0 -0.5317178964614868 L 15.0 -0.7231881618499756 L 16.0 -0.7231881618499756 L 16.0 -0.8469066619873047 L 17.0 -0.8469066619873047 L 17.0 -1.0464446544647217 L 18.0 -1.0464446544647217 L 18.0 -1.137365698814392 L 19.0 -1.137365698814392 L 19.0 -1.1362512111663818 L 20.0 -1.1362512111663818 L 20.0 -1.1404170989990234 L 21.0 -1.1404170989990234 L 21.0 -1.071709394454956 L 22.0 -1.071709394454956 L 22.0 -1.1595079898834229 L 23.0 -1.1595079898834229 L 23.0 -1.0853374004364014 L 24.0 -1.0853374004364014 L 24.0 -1.0643458366394043 L 25.0 -1.0643458366394043 L 25.0 -0.9179884791374207 L 26.0 -0.9179884791374207 L 26.0 -0.9527668952941895 L 27.0 -0.9527668952941895 L 27.0 -0.9644486308097839 L 28.0 -0.9644486308097839 L 28.0 -0.8829137086868286 L 29.0 -0.8829137086868286 L 29.0 -0.9355238080024719 L 30.0 -0.9355238080024719 L 30.0 -0.9848726391792297 L 31.0 -0.9848726391792297 L 31.0 -1.115380048751831 L 32.0 -1.115380048751831 L 32.0 -1.093862771987915 L 33.0 -1.093862771987915 L 33.0 -1.0288643836975098 L 34.0 -1.0288643836975098 L 34.0 -1.0696876049041748 L 35.0 -1.0696876049041748 L 35.0 -1.0978960990905762 L 36.0 -1.0978960990905762 L 36.0 -0.953170657157898 L 37.0 -0.953170657157898 L 37.0 -0.914889931678772 L 38.0 -0.914889931678772 L 38.0 -0.9827045202255249 L 39.0 -0.9827045202255249 L 39.0 -1.060539960861206 L 40.0 -1.060539960861206 L 40.0 -1.0304553508758545 L 41.0 -1.0304553508758545 L 41.0 -0.9632890820503235 L 42.0 -0.9632890820503235 L 42.0 -0.9263731837272644 L 43.0 -0.9263731837272644 L 43.0 -0.9848922491073608 L 44.0 -0.9848922491073608 L 44.0 -0.9180439114570618 L 45.0 -0.9180439114570618 L 45.0 -0.9362396001815796 L 46.0 -0.9362396001815796 L 46.0 -1.0101784467697144 L 47.0 -1.0101784467697144 L 47.0 -1.0688318014144897 L 48.0 -1.0688318014144897 L 48.0 -0.9814789891242981 L 49.0 -0.9814789891242981 L 49.0 -0.8418468236923218 L 50.0 -0.8418468236923218" style="vector-effect: non-scaling-stroke;fill:none;" /></g></g></g></g><g><g><g><g style="stroke: black;stroke-width: 1.2000000000000002;" transform="matrix(1.0, 0.0, 0.0, 1.0, 0.0, 0.0)"><path d="M 0.0 -2.0 L 0.0 2.0" style="vector-effect: non-scaling-stroke;fill:none;" /></g><g style="stroke: #808080;stroke-width: 0.6000000000000001;" transform="matrix(1.0, 0.0, 0.0, 1.0, 0.0, 0.0)"><path d="M 0.0 0.0 L 50.0 0.0" style="vector-effect: non-scaling-stroke;fill:none;" /></g></g><g style="stroke: black;stroke-width: 2.4000000000000004;" transform="matrix(1.0, 0.0, 0.0, 1.0, 0.0, 0.0)"><path d="M 0.0 0.03689275681972504 L 1.0 0.03689275681972504 L 1.0 0.04757469892501831 L 2.0 0.04757469892501831 L 2.0 0.007157257292419672 L 3.0 0.007157257292419672 L 3.0 -0.03815155476331711 L 4.0 -0.03815155476331711 L 4.0 -0.10362935066223145 L 5.0 -0.10362935066223145 L 5.0 -0.07643061876296997 L 6.0 -0.07643061876296997 L 6.0 -0.09934338182210922 L 7.0 -0.09934338182210922 L 7.0 -0.036221589893102646 L 8.0 -0.036221589893102646 L 8.0 -0.04082629829645157 L 9.0 -0.04082629829645157 L 9.0 -0.10173990577459335 L 10.0 -0.10173990577459335 L 10.0 -0.23804886639118195 L 11.0 -0.23804886639118195 L 11.0 -0.3853062689304352 L 12.0 -0.3853062689304352 L 12.0 -0.4006509780883789 L 13.0 -0.4006509780883789 L 13.0 -0.5056774616241455 L 14.0 -0.5056774616241455 L 14.0 -0.5317178964614868 L 15.0 -0.5317178964614868 L 15.0 -0.7231881618499756 L 16.0 -0.7231881618499756 L 16.0 -0.8469066619873047 L 17.0 -0.8469066619873047 L 17.0 -1.0464446544647217 L 18.0 -1.0464446544647217 L 18.0 -1.137365698814392 L 19.0 -1.137365698814392 L 19.0 -1.1362512111663818 L 20.0 -1.1362512111663818 L 20.0 -1.1404170989990234 L 21.0 -1.1404170989990234 L 21.0 -1.071709394454956 L 22.0 -1.071709394454956 L 22.0 -1.1595079898834229 L 23.0 -1.1595079898834229 L 23.0 -1.0853374004364014 L 24.0 -1.0853374004364014 L 24.0 -1.0643458366394043 L 25.0 -1.0643458366394043 L 25.0 -0.9179884791374207 L 26.0 -0.9179884791374207 L 26.0 -0.9527668952941895 L 27.0 -0.9527668952941895 L 27.0 -0.9644486308097839 L 28.0 -0.9644486308097839 L 28.0 -0.8829137086868286 L 29.0 -0.8829137086868286 L 29.0 -0.9355238080024719 L 30.0 -0.9355238080024719 L 30.0 -0.9848726391792297 L 31.0 -0.9848726391792297 L 31.0 -1.115380048751831 L 32.0 -1.115380048751831 L 32.0 -1.093862771987915 L 33.0 -1.093862771987915 L 33.0 -1.0288643836975098 L 34.0 -1.0288643836975098 L 34.0 -1.0696876049041748 L 35.0 -1.0696876049041748 L 35.0 -1.0978960990905762 L 36.0 -1.0978960990905762 L 36.0 -0.953170657157898 L 37.0 -0.953170657157898 L 37.0 -0.914889931678772 L 38.0 -0.914889931678772 L 38.0 -0.9827045202255249 L 39.0 -0.9827045202255249 L 39.0 -1.060539960861206 L 40.0 -1.060539960861206 L 40.0 -1.0304553508758545 L 41.0 -1.0304553508758545 L 41.0 -0.9632890820503235 L 42.0 -0.9632890820503235 L 42.0 -0.9263731837272644 L 43.0 -0.9263731837272644 L 43.0 -0.9848922491073608 L 44.0 -0.9848922491073608 L 44.0 -0.9180439114570618 L 45.0 -0.9180439114570618 L 45.0 -0.9362396001815796 L 46.0 -0.9362396001815796 L 46.0 -1.0101784467697144 L 47.0 -1.0101784467697144 L 47.0 -1.0688318014144897 L 48.0 -1.0688318014144897 L 48.0 -0.9814789891242981 L 49.0 -0.9814789891242981 L 49.0 -0.8418468236923218 L 50.0 -0.8418468236923218" style="vector-effect: non-scaling-stroke;fill:none;" /></g></g></g></g></g></g></g></g></g></g><g transform="matrix(1.0, 0.0, 0.0, 1.0, -0.24999999999999994, 0.16)"><g transform="matrix(1.0, 0.0, 0.0, 0.009999999999999995, 0.0, 0.0)"><g transform="matrix(0.01, 0.0, 0.0, 1.0, 0.0, 0.0)"><g><g><g style="fill: #ff0000;stroke: #ff0000;stroke-width: 1.2000000000000002;fill-opacity: 0.5;" transform="matrix(1.0, 0.0, 0.0, 1.0, 0.0, 0.0)"><path d="M 0.0 -2.0 L 0.0 2.0" style="vector-effect: non-scaling-stroke;fill:none;" /></g><g style="fill: #ff0000;stroke: #ff0000;stroke-width: 1.2000000000000002;fill-opacity: 0.5;" transform="matrix(1.0, 0.0, 0.0, 1.0, 0.0, 0.0)"><path d="M 0.0 0.03689275681972504 L 1.0 0.03689275681972504 L 1.0 0.04757469892501831 L 2.0 0.04757469892501831 L 2.0 0.007157257292419672 L 3.0 0.007157257292419672 L 3.0 -0.03815155476331711 L 4.0 -0.03815155476331711 L 4.0 -0.10362935066223145 L 5.0 -0.10362935066223145 L 5.0 -0.07643061876296997 L 6.0 -0.07643061876296997 L 6.0 -0.09934338182210922 L 7.0 -0.09934338182210922 L 7.0 -0.036221589893102646 L 8.0 -0.036221589893102646 L 8.0 -0.04082629829645157 L 9.0 -0.04082629829645157 L 9.0 -0.10173990577459335 L 10.0 -0.10173990577459335 L 10.0 -0.23804886639118195 L 11.0 -0.23804886639118195 L 11.0 -0.3853062689304352 L 12.0 -0.3853062689304352 L 12.0 -0.4006509780883789 L 13.0 -0.4006509780883789 L 13.0 -0.5056774616241455 L 14.0 -0.5056774616241455 L 14.0 -0.5317178964614868 L 15.0 -0.5317178964614868 L 15.0 -0.7231881618499756 L 16.0 -0.7231881618499756 L 16.0 -0.8469066619873047 L 17.0 -0.8469066619873047 L 17.0 -1.0464446544647217 L 18.0 -1.0464446544647217 L 18.0 -1.137365698814392 L 19.0 -1.137365698814392 L 19.0 -1.1362512111663818 L 20.0 -1.1362512111663818 L 20.0 -1.1404170989990234 L 21.0 -1.1404170989990234 L 21.0 -1.071709394454956 L 22.0 -1.071709394454956 L 22.0 -1.1595079898834229 L 23.0 -1.1595079898834229 L 23.0 -1.0853374004364014 L 24.0 -1.0853374004364014 L 24.0 -1.0643458366394043 L 25.0 -1.0643458366394043 L 25.0 -0.9179884791374207 L 26.0 -0.9179884791374207 L 26.0 -0.9527668952941895 L 27.0 -0.9527668952941895 L 27.0 -0.9644486308097839 L 28.0 -0.9644486308097839 L 28.0 -0.8829137086868286 L 29.0 -0.8829137086868286 L 29.0 -0.9355238080024719 L 30.0 -0.9355238080024719 L 30.0 -0.9848726391792297 L 31.0 -0.9848726391792297 L 31.0 -1.115380048751831 L 32.0 -1.115380048751831 L 32.0 -1.093862771987915 L 33.0 -1.093862771987915 L 33.0 -1.0288643836975098 L 34.0 -1.0288643836975098 L 34.0 -1.0696876049041748 L 35.0 -1.0696876049041748 L 35.0 -1.0978960990905762 L 36.0 -1.0978960990905762 L 36.0 -0.953170657157898 L 37.0 -0.953170657157898 L 37.0 -0.914889931678772 L 38.0 -0.914889931678772 L 38.0 -0.9827045202255249 L 39.0 -0.9827045202255249 L 39.0 -1.060539960861206 L 40.0 -1.060539960861206 L 40.0 -1.0304553508758545 L 41.0 -1.0304553508758545 L 41.0 -0.9632890820503235 L 42.0 -0.9632890820503235 L 42.0 -0.9263731837272644 L 43.0 -0.9263731837272644 L 43.0 -0.9848922491073608 L 44.0 -0.9848922491073608 L 44.0 -0.9180439114570618 L 45.0 -0.9180439114570618 L 45.0 -0.9362396001815796 L 46.0 -0.9362396001815796 L 46.0 -1.0101784467697144 L 47.0 -1.0101784467697144 L 47.0 -1.0688318014144897 L 48.0 -1.0688318014144897 L 48.0 -0.9814789891242981 L 49.0 -0.9814789891242981 L 49.0 -0.8418468236923218 L 50.0 -0.8418468236923218 L 50.0 -0.8418468236923218 L 49.0 -0.8418468236923218 L 49.0 -0.9814789891242981 L 48.0 -0.9814789891242981 L 48.0 -1.0688318014144897 L 47.0 -1.0688318014144897 L 47.0 -1.0101784467697144 L 46.0 -1.0101784467697144 L 46.0 -0.9362396001815796 L 45.0 -0.9362396001815796 L 45.0 -0.9180439114570618 L 44.0 -0.9180439114570618 L 44.0 -0.9848922491073608 L 43.0 -0.9848922491073608 L 43.0 -0.9263731837272644 L 42.0 -0.9263731837272644 L 42.0 -0.9632890820503235 L 41.0 -0.9632890820503235 L 41.0 -1.0304553508758545 L 40.0 -1.0304553508758545 L 40.0 -1.060539960861206 L 39.0 -1.060539960861206 L 39.0 -0.9827045202255249 L 38.0 -0.9827045202255249 L 38.0 -0.914889931678772 L 37.0 -0.914889931678772 L 37.0 -0.953170657157898 L 36.0 -0.953170657157898 L 36.0 -1.0978960990905762 L 35.0 -1.0978960990905762 L 35.0 -1.0696876049041748 L 34.0 -1.0696876049041748 L 34.0 -1.0288643836975098 L 33.0 -1.0288643836975098 L 33.0 -1.093862771987915 L 32.0 -1.093862771987915 L 32.0 -1.115380048751831 L 31.0 -1.115380048751831 L 31.0 -0.9848726391792297 L 30.0 -0.9848726391792297 L 30.0 -0.9355238080024719 L 29.0 -0.9355238080024719 L 29.0 -0.8829137086868286 L 28.0 -0.8829137086868286 L 28.0 -0.9644486308097839 L 27.0 -0.9644486308097839 L 27.0 -0.9527668952941895 L 26.0 -0.9527668952941895 L 26.0 -0.9179884791374207 L 25.0 -0.9179884791374207 L 25.0 -1.0643458366394043 L 24.0 -1.0643458366394043 L 24.0 -1.0853374004364014 L 23.0 -1.0853374004364014 L 23.0 -1.1595079898834229 L 22.0 -1.1595079898834229 L 22.0 -1.071709394454956 L 21.0 -1.071709394454956 L 21.0 -1.1404170989990234 L 20.0 -1.1404170989990234 L 20.0 -1.1362512111663818 L 19.0 -1.1362512111663818 L 19.0 -1.137365698814392 L 18.0 -1.137365698814392 L 18.0 -1.0464446544647217 L 17.0 -1.0464446544647217 L 17.0 -0.8469066619873047 L 16.0 -0.8469066619873047 L 16.0 -0.7231881618499756 L 15.0 -0.7231881618499756 L 15.0 -0.5317178964614868 L 14.0 -0.5317178964614868 L 14.0 -0.5056774616241455 L 13.0 -0.5056774616241455 L 13.0 -0.4006509780883789 L 12.0 -0.4006509780883789 L 12.0 -0.3853062689304352 L 11.0 -0.3853062689304352 L 11.0 -0.23804886639118195 L 10.0 -0.23804886639118195 L 10.0 -0.10173990577459335 L 9.0 -0.10173990577459335 L 9.0 -0.04082629829645157 L 8.0 -0.04082629829645157 L 8.0 -0.036221589893102646 L 7.0 -0.036221589893102646 L 7.0 -0.09934338182210922 L 6.0 -0.09934338182210922 L 6.0 -0.07643061876296997 L 5.0 -0.07643061876296997 L 5.0 -0.10362935066223145 L 4.0 -0.10362935066223145 L 4.0 -0.03815155476331711 L 3.0 -0.03815155476331711 L 3.0 0.007157257292419672 L 2.0 0.007157257292419672 L 2.0 0.04757469892501831 L 1.0 0.04757469892501831 L 1.0 0.03689275681972504 L 0.0 0.03689275681972504 Z" style="vector-effect: non-scaling-stroke;" /></g></g><g style="stroke: black;stroke-width: 1.2000000000000002;" transform="matrix(1.0, 0.0, 0.0, 1.0, 0.0, 0.0)"><path d="M 0.0 0.03689275681972504 L 1.0 0.03689275681972504 L 1.0 0.04757469892501831 L 2.0 0.04757469892501831 L 2.0 0.007157257292419672 L 3.0 0.007157257292419672 L 3.0 -0.03815155476331711 L 4.0 -0.03815155476331711 L 4.0 -0.10362935066223145 L 5.0 -0.10362935066223145 L 5.0 -0.07643061876296997 L 6.0 -0.07643061876296997 L 6.0 -0.09934338182210922 L 7.0 -0.09934338182210922 L 7.0 -0.036221589893102646 L 8.0 -0.036221589893102646 L 8.0 -0.04082629829645157 L 9.0 -0.04082629829645157 L 9.0 -0.10173990577459335 L 10.0 -0.10173990577459335 L 10.0 -0.23804886639118195 L 11.0 -0.23804886639118195 L 11.0 -0.3853062689304352 L 12.0 -0.3853062689304352 L 12.0 -0.4006509780883789 L 13.0 -0.4006509780883789 L 13.0 -0.5056774616241455 L 14.0 -0.5056774616241455 L 14.0 -0.5317178964614868 L 15.0 -0.5317178964614868 L 15.0 -0.7231881618499756 L 16.0 -0.7231881618499756 L 16.0 -0.8469066619873047 L 17.0 -0.8469066619873047 L 17.0 -1.0464446544647217 L 18.0 -1.0464446544647217 L 18.0 -1.137365698814392 L 19.0 -1.137365698814392 L 19.0 -1.1362512111663818 L 20.0 -1.1362512111663818 L 20.0 -1.1404170989990234 L 21.0 -1.1404170989990234 L 21.0 -1.071709394454956 L 22.0 -1.071709394454956 L 22.0 -1.1595079898834229 L 23.0 -1.1595079898834229 L 23.0 -1.0853374004364014 L 24.0 -1.0853374004364014 L 24.0 -1.0643458366394043 L 25.0 -1.0643458366394043 L 25.0 -0.9179884791374207 L 26.0 -0.9179884791374207 L 26.0 -0.9527668952941895 L 27.0 -0.9527668952941895 L 27.0 -0.9644486308097839 L 28.0 -0.9644486308097839 L 28.0 -0.8829137086868286 L 29.0 -0.8829137086868286 L 29.0 -0.9355238080024719 L 30.0 -0.9355238080024719 L 30.0 -0.9848726391792297 L 31.0 -0.9848726391792297 L 31.0 -1.115380048751831 L 32.0 -1.115380048751831 L 32.0 -1.093862771987915 L 33.0 -1.093862771987915 L 33.0 -1.0288643836975098 L 34.0 -1.0288643836975098 L 34.0 -1.0696876049041748 L 35.0 -1.0696876049041748 L 35.0 -1.0978960990905762 L 36.0 -1.0978960990905762 L 36.0 -0.953170657157898 L 37.0 -0.953170657157898 L 37.0 -0.914889931678772 L 38.0 -0.914889931678772 L 38.0 -0.9827045202255249 L 39.0 -0.9827045202255249 L 39.0 -1.060539960861206 L 40.0 -1.060539960861206 L 40.0 -1.0304553508758545 L 41.0 -1.0304553508758545 L 41.0 -0.9632890820503235 L 42.0 -0.9632890820503235 L 42.0 -0.9263731837272644 L 43.0 -0.9263731837272644 L 43.0 -0.9848922491073608 L 44.0 -0.9848922491073608 L 44.0 -0.9180439114570618 L 45.0 -0.9180439114570618 L 45.0 -0.9362396001815796 L 46.0 -0.9362396001815796 L 46.0 -1.0101784467697144 L 47.0 -1.0101784467697144 L 47.0 -1.0688318014144897 L 48.0 -1.0688318014144897 L 48.0 -0.9814789891242981 L 49.0 -0.9814789891242981 L 49.0 -0.8418468236923218 L 50.0 -0.8418468236923218" style="vector-effect: non-scaling-stroke;fill:none;" /></g></g></g></g></g></g><g transform="matrix(1.0, 0.0, 0.0, 1.0, -0.24999999999999994, 0.16)"><g transform="matrix(1.0, 0.0, 0.0, 0.009999999999999995, 0.0, 0.0)"><g transform="matrix(0.01, 0.0, 0.0, 1.0, 0.0, 0.0)"><g><g><g style="fill: #ffffe0;stroke: #ffffe0;stroke-width: 1.2000000000000002;fill-opacity: 0.5;" transform="matrix(1.0, 0.0, 0.0, 1.0, 0.0, 0.0)"><path d="M 0.0 -2.0 L 0.0 2.0" style="vector-effect: non-scaling-stroke;fill:none;" /></g><g style="fill: #ffffe0;stroke: #ffffe0;stroke-width: 1.2000000000000002;fill-opacity: 0.5;" transform="matrix(1.0, 0.0, 0.0, 1.0, 0.0, 0.0)"><path d="M 0.0 -0.7632995843887329 L 1.0 -0.7632995843887329 L 1.0 -0.7526176571846008 L 2.0 -0.7526176571846008 L 2.0 -0.7928488254547119 L 3.0 -0.7928488254547119 L 3.0 -0.8368538022041321 L 4.0 -0.8368538022041321 L 4.0 -0.9053118228912354 L 5.0 -0.9053118228912354 L 5.0 -0.8781130909919739 L 6.0 -0.8781130909919739 L 6.0 -0.9010258316993713 L 7.0 -0.9010258316993713 L 7.0 -0.8364139199256897 L 8.0 -0.8364139199256897 L 8.0 -0.8410186767578125 L 9.0 -0.8410186767578125 L 9.0 -0.9034223556518555 L 10.0 -0.9034223556518555 L 10.0 -0.23804886639118195 L 11.0 -0.23804886639118195 L 11.0 -0.3853062689304352 L 12.0 -0.3853062689304352 L 12.0 -0.4006509780883789 L 13.0 -0.4006509780883789 L 13.0 -0.5056774616241455 L 14.0 -0.5056774616241455 L 14.0 -0.5317178964614868 L 15.0 -0.5317178964614868 L 15.0 -0.7231881618499756 L 16.0 -0.7231881618499756 L 16.0 -0.8469066619873047 L 17.0 -0.8469066619873047 L 17.0 -1.0464446544647217 L 18.0 -1.0464446544647217 L 18.0 -1.137365698814392 L 19.0 -1.137365698814392 L 19.0 -1.1362512111663818 L 20.0 -1.1362512111663818 L 20.0 -1.9987239837646484 L 21.0 -1.9987239837646484 L 21.0 -1.834648847579956 L 22.0 -1.834648847579956 L 22.0 -1.9701311588287354 L 23.0 -1.9701311588287354 L 23.0 -1.9436442852020264 L 24.0 -1.9436442852020264 L 24.0 -1.8749690055847168 L 25.0 -1.8749690055847168 L 25.0 -1.728611707687378 L 26.0 -1.728611707687378 L 26.0 -1.763390064239502 L 27.0 -1.763390064239502 L 27.0 -1.7750718593597412 L 28.0 -1.7750718593597412 L 28.0 -1.6696950197219849 L 29.0 -1.6696950197219849 L 29.0 -1.7223050594329834 L 30.0 -1.7223050594329834 L 30.0 -0.9848726391792297 L 31.0 -0.9848726391792297 L 31.0 -1.115380048751831 L 32.0 -1.115380048751831 L 32.0 -1.093862771987915 L 33.0 -1.093862771987915 L 33.0 -1.0288643836975098 L 34.0 -1.0288643836975098 L 34.0 -1.0696876049041748 L 35.0 -1.0696876049041748 L 35.0 -1.9085192680358887 L 36.0 -1.9085192680358887 L 36.0 -1.716110110282898 L 37.0 -1.716110110282898 L 37.0 -1.7016712427139282 L 38.0 -1.7016712427139282 L 38.0 -1.745643973350525 L 39.0 -1.745643973350525 L 39.0 -1.8711631298065186 L 40.0 -1.8711631298065186 L 40.0 -1.7933948040008545 L 41.0 -1.7933948040008545 L 41.0 -1.7262284755706787 L 42.0 -1.7262284755706787 L 42.0 -1.7369964122772217 L 43.0 -1.7369964122772217 L 43.0 -1.7955154180526733 L 44.0 -1.7955154180526733 L 44.0 -1.7048251628875732 L 45.0 -1.7048251628875732 L 45.0 -0.9362396001815796 L 46.0 -0.9362396001815796 L 46.0 -1.0101784467697144 L 47.0 -1.0101784467697144 L 47.0 -1.0688318014144897 L 48.0 -1.0688318014144897 L 48.0 -0.9814789891242981 L 49.0 -0.9814789891242981 L 49.0 -0.8418468236923218 L 50.0 -0.8418468236923218 L 50.0 -0.8418468236923218 L 49.0 -0.8418468236923218 L 49.0 -0.9814789891242981 L 48.0 -0.9814789891242981 L 48.0 -1.0688318014144897 L 47.0 -1.0688318014144897 L 47.0 -1.0101784467697144 L 46.0 -1.0101784467697144 L 46.0 -0.9362396001815796 L 45.0 -0.9362396001815796 L 45.0 -0.9180439114570618 L 44.0 -0.9180439114570618 L 44.0 -0.9848922491073608 L 43.0 -0.9848922491073608 L 43.0 -0.9263731837272644 L 42.0 -0.9263731837272644 L 42.0 -0.9632890820503235 L 41.0 -0.9632890820503235 L 41.0 -1.0304553508758545 L 40.0 -1.0304553508758545 L 40.0 -1.060539960861206 L 39.0 -1.060539960861206 L 39.0 -0.9827045202255249 L 38.0 -0.9827045202255249 L 38.0 -0.914889931678772 L 37.0 -0.914889931678772 L 37.0 -0.953170657157898 L 36.0 -0.953170657157898 L 36.0 -1.0978960990905762 L 35.0 -1.0978960990905762 L 35.0 -1.0696876049041748 L 34.0 -1.0696876049041748 L 34.0 -1.0288643836975098 L 33.0 -1.0288643836975098 L 33.0 -1.093862771987915 L 32.0 -1.093862771987915 L 32.0 -1.115380048751831 L 31.0 -1.115380048751831 L 31.0 -0.9848726391792297 L 30.0 -0.9848726391792297 L 30.0 -0.9355238080024719 L 29.0 -0.9355238080024719 L 29.0 -0.8829137086868286 L 28.0 -0.8829137086868286 L 28.0 -0.9644486308097839 L 27.0 -0.9644486308097839 L 27.0 -0.9527668952941895 L 26.0 -0.9527668952941895 L 26.0 -0.9179884791374207 L 25.0 -0.9179884791374207 L 25.0 -1.0643458366394043 L 24.0 -1.0643458366394043 L 24.0 -1.0853374004364014 L 23.0 -1.0853374004364014 L 23.0 -1.1595079898834229 L 22.0 -1.1595079898834229 L 22.0 -1.071709394454956 L 21.0 -1.071709394454956 L 21.0 -1.1404170989990234 L 20.0 -1.1404170989990234 L 20.0 -1.1362512111663818 L 19.0 -1.1362512111663818 L 19.0 -1.137365698814392 L 18.0 -1.137365698814392 L 18.0 -1.0464446544647217 L 17.0 -1.0464446544647217 L 17.0 -0.8469066619873047 L 16.0 -0.8469066619873047 L 16.0 -0.7231881618499756 L 15.0 -0.7231881618499756 L 15.0 -0.5317178964614868 L 14.0 -0.5317178964614868 L 14.0 -0.5056774616241455 L 13.0 -0.5056774616241455 L 13.0 -0.4006509780883789 L 12.0 -0.4006509780883789 L 12.0 -0.3853062689304352 L 11.0 -0.3853062689304352 L 11.0 -0.23804886639118195 L 10.0 -0.23804886639118195 L 10.0 -0.10173990577459335 L 9.0 -0.10173990577459335 L 9.0 -0.04082629829645157 L 8.0 -0.04082629829645157 L 8.0 -0.036221589893102646 L 7.0 -0.036221589893102646 L 7.0 -0.09934338182210922 L 6.0 -0.09934338182210922 L 6.0 -0.07643061876296997 L 5.0 -0.07643061876296997 L 5.0 -0.10362935066223145 L 4.0 -0.10362935066223145 L 4.0 -0.03815155476331711 L 3.0 -0.03815155476331711 L 3.0 0.007157257292419672 L 2.0 0.007157257292419672 L 2.0 0.04757469892501831 L 1.0 0.04757469892501831 L 1.0 0.03689275681972504 L 0.0 0.03689275681972504 Z" style="vector-effect: non-scaling-stroke;" /></g></g><g style="stroke: black;stroke-width: 1.2000000000000002;" transform="matrix(1.0, 0.0, 0.0, 1.0, 0.0, 0.0)"><path d="M 0.0 0.03689275681972504 L 1.0 0.03689275681972504 L 1.0 0.04757469892501831 L 2.0 0.04757469892501831 L 2.0 0.007157257292419672 L 3.0 0.007157257292419672 L 3.0 -0.03815155476331711 L 4.0 -0.03815155476331711 L 4.0 -0.10362935066223145 L 5.0 -0.10362935066223145 L 5.0 -0.07643061876296997 L 6.0 -0.07643061876296997 L 6.0 -0.09934338182210922 L 7.0 -0.09934338182210922 L 7.0 -0.036221589893102646 L 8.0 -0.036221589893102646 L 8.0 -0.04082629829645157 L 9.0 -0.04082629829645157 L 9.0 -0.10173990577459335 L 10.0 -0.10173990577459335 L 10.0 -0.23804886639118195 L 11.0 -0.23804886639118195 L 11.0 -0.3853062689304352 L 12.0 -0.3853062689304352 L 12.0 -0.4006509780883789 L 13.0 -0.4006509780883789 L 13.0 -0.5056774616241455 L 14.0 -0.5056774616241455 L 14.0 -0.5317178964614868 L 15.0 -0.5317178964614868 L 15.0 -0.7231881618499756 L 16.0 -0.7231881618499756 L 16.0 -0.8469066619873047 L 17.0 -0.8469066619873047 L 17.0 -1.0464446544647217 L 18.0 -1.0464446544647217 L 18.0 -1.137365698814392 L 19.0 -1.137365698814392 L 19.0 -1.1362512111663818 L 20.0 -1.1362512111663818 L 20.0 -1.1404170989990234 L 21.0 -1.1404170989990234 L 21.0 -1.071709394454956 L 22.0 -1.071709394454956 L 22.0 -1.1595079898834229 L 23.0 -1.1595079898834229 L 23.0 -1.0853374004364014 L 24.0 -1.0853374004364014 L 24.0 -1.0643458366394043 L 25.0 -1.0643458366394043 L 25.0 -0.9179884791374207 L 26.0 -0.9179884791374207 L 26.0 -0.9527668952941895 L 27.0 -0.9527668952941895 L 27.0 -0.9644486308097839 L 28.0 -0.9644486308097839 L 28.0 -0.8829137086868286 L 29.0 -0.8829137086868286 L 29.0 -0.9355238080024719 L 30.0 -0.9355238080024719 L 30.0 -0.9848726391792297 L 31.0 -0.9848726391792297 L 31.0 -1.115380048751831 L 32.0 -1.115380048751831 L 32.0 -1.093862771987915 L 33.0 -1.093862771987915 L 33.0 -1.0288643836975098 L 34.0 -1.0288643836975098 L 34.0 -1.0696876049041748 L 35.0 -1.0696876049041748 L 35.0 -1.0978960990905762 L 36.0 -1.0978960990905762 L 36.0 -0.953170657157898 L 37.0 -0.953170657157898 L 37.0 -0.914889931678772 L 38.0 -0.914889931678772 L 38.0 -0.9827045202255249 L 39.0 -0.9827045202255249 L 39.0 -1.060539960861206 L 40.0 -1.060539960861206 L 40.0 -1.0304553508758545 L 41.0 -1.0304553508758545 L 41.0 -0.9632890820503235 L 42.0 -0.9632890820503235 L 42.0 -0.9263731837272644 L 43.0 -0.9263731837272644 L 43.0 -0.9848922491073608 L 44.0 -0.9848922491073608 L 44.0 -0.9180439114570618 L 45.0 -0.9180439114570618 L 45.0 -0.9362396001815796 L 46.0 -0.9362396001815796 L 46.0 -1.0101784467697144 L 47.0 -1.0101784467697144 L 47.0 -1.0688318014144897 L 48.0 -1.0688318014144897 L 48.0 -0.9814789891242981 L 49.0 -0.9814789891242981 L 49.0 -0.8418468236923218 L 50.0 -0.8418468236923218" style="vector-effect: non-scaling-stroke;fill:none;" /></g></g></g></g></g></g></g></g><g><g><g><g><g transform="matrix(1.0, 0.0, 0.0, 1.0, -0.32499999999999996, -0.03)"><g transform="matrix(1.0, 0.0, 0.0, 1.0, 0.075, 0.0)"><g transform="matrix(1.0, 0.0, 0.0, 1.0, 0.0, 0.03)"><g transform="matrix(0.01, 0.0, 0.0, 0.01, 0.0, 0.0)"><g><g><g transform="matrix(1.0, 0.0, 0.0, 1.0, 25.0, 0.0)"><g transform="matrix(1.0, 0.0, 0.0, 1.0, -32.5, -0.0)"><g><g style="fill: #d3d3d3;stroke: black;stroke-width: 1.2000000000000002;" transform="matrix(1.0, 0.0, 0.0, 1.0, 0.0, -3.0)"><path d="M 0.0 0.0 L 65.0 0.0 L 65.0 6.0 L 0.0 6.0 L 0.0 0.0 Z" style="vector-effect: non-scaling-stroke;" /></g><g transform="matrix(1.0, 0.0, 0.0, 1.0, 1.875, 0.0)"><g><g style="stroke: black;stroke-width: 1.2000000000000002;" transform="matrix(1.0, 0.0, 0.0, 1.0, 0.0, 0.0)"><g /></g><g style="fill: #ffa500;stroke: black;stroke-width: 1.2000000000000002;" transform="matrix(1.0, 0.0, 0.0, 1.0, 1.875, 0.0)"><text style="text-align:center; text-anchor:middle; dominant-baseline:middle;&#10;                      font-family:sans-serif; font-weight: bold;&#10;                      font-size:3px;&#10;                      vector-effect: non-scaling-stroke;" transform="translate(-5e-05, 0)">x</text></g></g></g></g></g></g><g><g><g><g style="stroke: black;stroke-width: 1.2000000000000002;" transform="matrix(1.0, 0.0, 0.0, 1.0, 0.0, 0.0)"><path d="M 0.0 -2.0 L 0.0 2.0" style="vector-effect: non-scaling-stroke;fill:none;" /></g><g style="stroke: #808080;stroke-width: 0.6000000000000001;" transform="matrix(1.0, 0.0, 0.0, 1.0, 0.0, 0.0)"><path d="M 0.0 0.0 L 50.0 0.0" style="vector-effect: non-scaling-stroke;fill:none;" /></g></g><g style="stroke: black;stroke-width: 2.4000000000000004;" transform="matrix(1.0, 0.0, 0.0, 1.0, 0.0, 0.0)"><path d="M 0.0 0.36892756819725037 L 1.0 0.36892756819725037 L 1.0 0.10681941360235214 L 2.0 0.10681941360235214 L 2.0 -0.40417441725730896 L 3.0 -0.40417441725730896 L 3.0 -0.45308804512023926 L 4.0 -0.45308804512023926 L 4.0 -0.6547780632972717 L 5.0 -0.6547780632972717 L 5.0 0.2719874083995819 L 6.0 0.2719874083995819 L 6.0 -0.2291276603937149 L 7.0 -0.2291276603937149 L 7.0 0.6312178373336792 L 8.0 0.6312178373336792 L 8.0 -0.04604702442884445 L 9.0 -0.04604702442884445 L 9.0 -0.6091361045837402 L 10.0 -0.6091361045837402 L 10.0 -0.9941620826721191 L 11.0 -0.9941620826721191 L 11.0 -1.3657546043395996 L 12.0 -1.3657546043395996 L 12.0 -0.5576217770576477 L 13.0 -0.5576217770576477 L 13.0 -1.5033526420593262 L 14.0 -1.5033526420593262 L 14.0 -0.9151825904846191 L 15.0 -0.9151825904846191 L 15.0 -1.642714500427246 L 16.0 -1.642714500427246 L 16.0 -1.4663134813308716 L 17.0 -1.4663134813308716 L 17.0 -1.3641618490219116 L 18.0 -1.3641618490219116 L 18.0 -0.9552580714225769 L 19.0 -0.9552580714225769 L 19.0 -0.5979908108711243 L 20.0 -0.5979908108711243 L 20.0 -1.0358208417892456 L 21.0 -1.0358208417892456 L 21.0 -0.6786758303642273 L 22.0 -0.6786758303642273 L 22.0 -1.435609221458435 L 23.0 -1.435609221458435 L 23.0 -0.7616475820541382 L 24.0 -0.7616475820541382 L 24.0 -0.7052664160728455 L 25.0 -0.7052664160728455 L 25.0 -0.17914047837257385 L 26.0 -0.17914047837257385 L 26.0 -1.8140982389450073 L 27.0 -1.8140982389450073 L 27.0 -1.4809788465499878 L 28.0 -1.4809788465499878 L 28.0 -0.1399087905883789 L 29.0 -0.1399087905883789 L 29.0 -1.1240906715393066 L 30.0 -1.1240906715393066 L 30.0 -1.5293102264404297 L 31.0 -1.5293102264404297 L 31.0 -1.983750820159912 L 32.0 -1.983750820159912 L 32.0 -1.2204375267028809 L 33.0 -1.2204375267028809 L 33.0 -0.11166233569383621 L 34.0 -0.11166233569383621 L 34.0 -1.1134977340698242 L 35.0 -1.1134977340698242 L 35.0 -0.46122583746910095 L 36.0 -0.46122583746910095 L 36.0 -0.36684322357177734 L 37.0 -0.36684322357177734 L 37.0 -1.0981719493865967 L 38.0 -1.0981719493865967 L 38.0 -0.8180548548698425 L 39.0 -0.8180548548698425 L 39.0 -1.9024450778961182 L 40.0 -1.9024450778961182 L 40.0 -1.2284631729125977 L 41.0 -1.2284631729125977 L 41.0 -1.3120884895324707 L 42.0 -1.3120884895324707 L 42.0 -0.8512806296348572 L 43.0 -0.8512806296348572 L 43.0 -0.69685298204422 L 44.0 -0.69685298204422 L 44.0 -0.4450138509273529 L 45.0 -0.4450138509273529 L 45.0 -0.6431826949119568 L 46.0 -0.6431826949119568 L 46.0 -1.1062308549880981 L 47.0 -1.1062308549880981 L 47.0 -1.6847048997879028 L 48.0 -1.6847048997879028 L 48.0 0.05547328665852547 L 49.0 0.05547328665852547 L 49.0 -0.5061242580413818 L 50.0 -0.5061242580413818" style="vector-effect: non-scaling-stroke;fill:none;" /></g></g></g></g><g><g><g><g style="stroke: black;stroke-width: 1.2000000000000002;" transform="matrix(1.0, 0.0, 0.0, 1.0, 0.0, 0.0)"><path d="M 0.0 -2.0 L 0.0 2.0" style="vector-effect: non-scaling-stroke;fill:none;" /></g><g style="stroke: #808080;stroke-width: 0.6000000000000001;" transform="matrix(1.0, 0.0, 0.0, 1.0, 0.0, 0.0)"><path d="M 0.0 0.0 L 50.0 0.0" style="vector-effect: non-scaling-stroke;fill:none;" /></g></g><g style="stroke: black;stroke-width: 2.4000000000000004;" transform="matrix(1.0, 0.0, 0.0, 1.0, 0.0, 0.0)"><path d="M 0.0 0.36892756819725037 L 1.0 0.36892756819725037 L 1.0 0.10681941360235214 L 2.0 0.10681941360235214 L 2.0 -0.40417441725730896 L 3.0 -0.40417441725730896 L 3.0 -0.45308804512023926 L 4.0 -0.45308804512023926 L 4.0 -0.6547780632972717 L 5.0 -0.6547780632972717 L 5.0 0.2719874083995819 L 6.0 0.2719874083995819 L 6.0 -0.2291276603937149 L 7.0 -0.2291276603937149 L 7.0 0.6312178373336792 L 8.0 0.6312178373336792 L 8.0 -0.04604702442884445 L 9.0 -0.04604702442884445 L 9.0 -0.6091361045837402 L 10.0 -0.6091361045837402 L 10.0 -0.9941620826721191 L 11.0 -0.9941620826721191 L 11.0 -1.3657546043395996 L 12.0 -1.3657546043395996 L 12.0 -0.5576217770576477 L 13.0 -0.5576217770576477 L 13.0 -1.5033526420593262 L 14.0 -1.5033526420593262 L 14.0 -0.9151825904846191 L 15.0 -0.9151825904846191 L 15.0 -1.642714500427246 L 16.0 -1.642714500427246 L 16.0 -1.4663134813308716 L 17.0 -1.4663134813308716 L 17.0 -1.3641618490219116 L 18.0 -1.3641618490219116 L 18.0 -0.9552580714225769 L 19.0 -0.9552580714225769 L 19.0 -0.5979908108711243 L 20.0 -0.5979908108711243 L 20.0 -1.0358208417892456 L 21.0 -1.0358208417892456 L 21.0 -0.6786758303642273 L 22.0 -0.6786758303642273 L 22.0 -1.435609221458435 L 23.0 -1.435609221458435 L 23.0 -0.7616475820541382 L 24.0 -0.7616475820541382 L 24.0 -0.7052664160728455 L 25.0 -0.7052664160728455 L 25.0 -0.17914047837257385 L 26.0 -0.17914047837257385 L 26.0 -1.8140982389450073 L 27.0 -1.8140982389450073 L 27.0 -1.4809788465499878 L 28.0 -1.4809788465499878 L 28.0 -0.1399087905883789 L 29.0 -0.1399087905883789 L 29.0 -1.1240906715393066 L 30.0 -1.1240906715393066 L 30.0 -1.5293102264404297 L 31.0 -1.5293102264404297 L 31.0 -1.983750820159912 L 32.0 -1.983750820159912 L 32.0 -1.2204375267028809 L 33.0 -1.2204375267028809 L 33.0 -0.11166233569383621 L 34.0 -0.11166233569383621 L 34.0 -1.1134977340698242 L 35.0 -1.1134977340698242 L 35.0 -0.46122583746910095 L 36.0 -0.46122583746910095 L 36.0 -0.36684322357177734 L 37.0 -0.36684322357177734 L 37.0 -1.0981719493865967 L 38.0 -1.0981719493865967 L 38.0 -0.8180548548698425 L 39.0 -0.8180548548698425 L 39.0 -1.9024450778961182 L 40.0 -1.9024450778961182 L 40.0 -1.2284631729125977 L 41.0 -1.2284631729125977 L 41.0 -1.3120884895324707 L 42.0 -1.3120884895324707 L 42.0 -0.8512806296348572 L 43.0 -0.8512806296348572 L 43.0 -0.69685298204422 L 44.0 -0.69685298204422 L 44.0 -0.4450138509273529 L 45.0 -0.4450138509273529 L 45.0 -0.6431826949119568 L 46.0 -0.6431826949119568 L 46.0 -1.1062308549880981 L 47.0 -1.1062308549880981 L 47.0 -1.6847048997879028 L 48.0 -1.6847048997879028 L 48.0 0.05547328665852547 L 49.0 0.05547328665852547 L 49.0 -0.5061242580413818 L 50.0 -0.5061242580413818" style="vector-effect: non-scaling-stroke;fill:none;" /></g></g></g></g></g></g></g></g><g style="stroke: black;stroke-width: 1.2000000000000002;" transform="matrix(0.0, -1.0, 1.0, 0.0, 0.0, 0.08)"><g /></g></g><g transform="matrix(1.0, 0.0, 0.0, 1.0, 0.0, 0.16)"><g transform="matrix(1.0, 0.0, 0.0, 1.0, -0.32499999999999996, -0.03)"><g transform="matrix(1.0, 0.0, 0.0, 1.0, 0.075, 0.0)"><g transform="matrix(1.0, 0.0, 0.0, 1.0, 0.0, 0.03)"><g transform="matrix(0.01, 0.0, 0.0, 0.01, 0.0, 0.0)"><g><g><g transform="matrix(1.0, 0.0, 0.0, 1.0, 25.0, 0.0)"><g transform="matrix(1.0, 0.0, 0.0, 1.0, -32.5, -0.0)"><g><g style="fill: #d3d3d3;stroke: black;stroke-width: 1.2000000000000002;" transform="matrix(1.0, 0.0, 0.0, 1.0, 0.0, -3.0)"><path d="M 0.0 0.0 L 65.0 0.0 L 65.0 6.0 L 0.0 6.0 L 0.0 0.0 Z" style="vector-effect: non-scaling-stroke;" /></g><g transform="matrix(1.0, 0.0, 0.0, 1.0, 1.875, 0.0)"><g><g style="stroke: black;stroke-width: 1.2000000000000002;" transform="matrix(1.0, 0.0, 0.0, 1.0, 0.0, 0.0)"><g /></g><g style="fill: #ffa500;stroke: black;stroke-width: 1.2000000000000002;" transform="matrix(1.0, 0.0, 0.0, 1.0, 1.875, 0.0)"><text style="text-align:center; text-anchor:middle; dominant-baseline:middle;&#10;                      font-family:sans-serif; font-weight: bold;&#10;                      font-size:3px;&#10;                      vector-effect: non-scaling-stroke;" transform="translate(-5e-05, 0)">f(x)</text></g></g></g></g></g></g><g><g><g><g style="stroke: black;stroke-width: 1.2000000000000002;" transform="matrix(1.0, 0.0, 0.0, 1.0, 0.0, 0.0)"><path d="M 0.0 -2.0 L 0.0 2.0" style="vector-effect: non-scaling-stroke;fill:none;" /></g><g style="stroke: #808080;stroke-width: 0.6000000000000001;" transform="matrix(1.0, 0.0, 0.0, 1.0, 0.0, 0.0)"><path d="M 0.0 0.0 L 50.0 0.0" style="vector-effect: non-scaling-stroke;fill:none;" /></g></g><g style="stroke: black;stroke-width: 2.4000000000000004;" transform="matrix(1.0, 0.0, 0.0, 1.0, 0.0, 0.0)"><path d="M 0.0 0.03689275681972504 L 1.0 0.03689275681972504 L 1.0 0.04757469892501831 L 2.0 0.04757469892501831 L 2.0 0.007157257292419672 L 3.0 0.007157257292419672 L 3.0 -0.03815155476331711 L 4.0 -0.03815155476331711 L 4.0 -0.10362935066223145 L 5.0 -0.10362935066223145 L 5.0 -0.07643061876296997 L 6.0 -0.07643061876296997 L 6.0 -0.09934338182210922 L 7.0 -0.09934338182210922 L 7.0 -0.036221589893102646 L 8.0 -0.036221589893102646 L 8.0 -0.04082629829645157 L 9.0 -0.04082629829645157 L 9.0 -0.10173990577459335 L 10.0 -0.10173990577459335 L 10.0 -0.23804886639118195 L 11.0 -0.23804886639118195 L 11.0 -0.3853062689304352 L 12.0 -0.3853062689304352 L 12.0 -0.4006509780883789 L 13.0 -0.4006509780883789 L 13.0 -0.5056774616241455 L 14.0 -0.5056774616241455 L 14.0 -0.5317178964614868 L 15.0 -0.5317178964614868 L 15.0 -0.7231881618499756 L 16.0 -0.7231881618499756 L 16.0 -0.8469066619873047 L 17.0 -0.8469066619873047 L 17.0 -1.0464446544647217 L 18.0 -1.0464446544647217 L 18.0 -1.137365698814392 L 19.0 -1.137365698814392 L 19.0 -1.1362512111663818 L 20.0 -1.1362512111663818 L 20.0 -1.1404170989990234 L 21.0 -1.1404170989990234 L 21.0 -1.071709394454956 L 22.0 -1.071709394454956 L 22.0 -1.1595079898834229 L 23.0 -1.1595079898834229 L 23.0 -1.0853374004364014 L 24.0 -1.0853374004364014 L 24.0 -1.0643458366394043 L 25.0 -1.0643458366394043 L 25.0 -0.9179884791374207 L 26.0 -0.9179884791374207 L 26.0 -0.9527668952941895 L 27.0 -0.9527668952941895 L 27.0 -0.9644486308097839 L 28.0 -0.9644486308097839 L 28.0 -0.8829137086868286 L 29.0 -0.8829137086868286 L 29.0 -0.9355238080024719 L 30.0 -0.9355238080024719 L 30.0 -0.9848726391792297 L 31.0 -0.9848726391792297 L 31.0 -1.115380048751831 L 32.0 -1.115380048751831 L 32.0 -1.093862771987915 L 33.0 -1.093862771987915 L 33.0 -1.0288643836975098 L 34.0 -1.0288643836975098 L 34.0 -1.0696876049041748 L 35.0 -1.0696876049041748 L 35.0 -1.0978960990905762 L 36.0 -1.0978960990905762 L 36.0 -0.953170657157898 L 37.0 -0.953170657157898 L 37.0 -0.914889931678772 L 38.0 -0.914889931678772 L 38.0 -0.9827045202255249 L 39.0 -0.9827045202255249 L 39.0 -1.060539960861206 L 40.0 -1.060539960861206 L 40.0 -1.0304553508758545 L 41.0 -1.0304553508758545 L 41.0 -0.9632890820503235 L 42.0 -0.9632890820503235 L 42.0 -0.9263731837272644 L 43.0 -0.9263731837272644 L 43.0 -0.9848922491073608 L 44.0 -0.9848922491073608 L 44.0 -0.9180439114570618 L 45.0 -0.9180439114570618 L 45.0 -0.9362396001815796 L 46.0 -0.9362396001815796 L 46.0 -1.0101784467697144 L 47.0 -1.0101784467697144 L 47.0 -1.0688318014144897 L 48.0 -1.0688318014144897 L 48.0 -0.9814789891242981 L 49.0 -0.9814789891242981 L 49.0 -0.8418468236923218 L 50.0 -0.8418468236923218" style="vector-effect: non-scaling-stroke;fill:none;" /></g></g></g></g><g><g><g><g style="stroke: black;stroke-width: 1.2000000000000002;" transform="matrix(1.0, 0.0, 0.0, 1.0, 0.0, 0.0)"><path d="M 0.0 -2.0 L 0.0 2.0" style="vector-effect: non-scaling-stroke;fill:none;" /></g><g style="stroke: #808080;stroke-width: 0.6000000000000001;" transform="matrix(1.0, 0.0, 0.0, 1.0, 0.0, 0.0)"><path d="M 0.0 0.0 L 50.0 0.0" style="vector-effect: non-scaling-stroke;fill:none;" /></g></g><g style="stroke: black;stroke-width: 2.4000000000000004;" transform="matrix(1.0, 0.0, 0.0, 1.0, 0.0, 0.0)"><path d="M 0.0 0.03689275681972504 L 1.0 0.03689275681972504 L 1.0 0.04757469892501831 L 2.0 0.04757469892501831 L 2.0 0.007157257292419672 L 3.0 0.007157257292419672 L 3.0 -0.03815155476331711 L 4.0 -0.03815155476331711 L 4.0 -0.10362935066223145 L 5.0 -0.10362935066223145 L 5.0 -0.07643061876296997 L 6.0 -0.07643061876296997 L 6.0 -0.09934338182210922 L 7.0 -0.09934338182210922 L 7.0 -0.036221589893102646 L 8.0 -0.036221589893102646 L 8.0 -0.04082629829645157 L 9.0 -0.04082629829645157 L 9.0 -0.10173990577459335 L 10.0 -0.10173990577459335 L 10.0 -0.23804886639118195 L 11.0 -0.23804886639118195 L 11.0 -0.3853062689304352 L 12.0 -0.3853062689304352 L 12.0 -0.4006509780883789 L 13.0 -0.4006509780883789 L 13.0 -0.5056774616241455 L 14.0 -0.5056774616241455 L 14.0 -0.5317178964614868 L 15.0 -0.5317178964614868 L 15.0 -0.7231881618499756 L 16.0 -0.7231881618499756 L 16.0 -0.8469066619873047 L 17.0 -0.8469066619873047 L 17.0 -1.0464446544647217 L 18.0 -1.0464446544647217 L 18.0 -1.137365698814392 L 19.0 -1.137365698814392 L 19.0 -1.1362512111663818 L 20.0 -1.1362512111663818 L 20.0 -1.1404170989990234 L 21.0 -1.1404170989990234 L 21.0 -1.071709394454956 L 22.0 -1.071709394454956 L 22.0 -1.1595079898834229 L 23.0 -1.1595079898834229 L 23.0 -1.0853374004364014 L 24.0 -1.0853374004364014 L 24.0 -1.0643458366394043 L 25.0 -1.0643458366394043 L 25.0 -0.9179884791374207 L 26.0 -0.9179884791374207 L 26.0 -0.9527668952941895 L 27.0 -0.9527668952941895 L 27.0 -0.9644486308097839 L 28.0 -0.9644486308097839 L 28.0 -0.8829137086868286 L 29.0 -0.8829137086868286 L 29.0 -0.9355238080024719 L 30.0 -0.9355238080024719 L 30.0 -0.9848726391792297 L 31.0 -0.9848726391792297 L 31.0 -1.115380048751831 L 32.0 -1.115380048751831 L 32.0 -1.093862771987915 L 33.0 -1.093862771987915 L 33.0 -1.0288643836975098 L 34.0 -1.0288643836975098 L 34.0 -1.0696876049041748 L 35.0 -1.0696876049041748 L 35.0 -1.0978960990905762 L 36.0 -1.0978960990905762 L 36.0 -0.953170657157898 L 37.0 -0.953170657157898 L 37.0 -0.914889931678772 L 38.0 -0.914889931678772 L 38.0 -0.9827045202255249 L 39.0 -0.9827045202255249 L 39.0 -1.060539960861206 L 40.0 -1.060539960861206 L 40.0 -1.0304553508758545 L 41.0 -1.0304553508758545 L 41.0 -0.9632890820503235 L 42.0 -0.9632890820503235 L 42.0 -0.9263731837272644 L 43.0 -0.9263731837272644 L 43.0 -0.9848922491073608 L 44.0 -0.9848922491073608 L 44.0 -0.9180439114570618 L 45.0 -0.9180439114570618 L 45.0 -0.9362396001815796 L 46.0 -0.9362396001815796 L 46.0 -1.0101784467697144 L 47.0 -1.0101784467697144 L 47.0 -1.0688318014144897 L 48.0 -1.0688318014144897 L 48.0 -0.9814789891242981 L 49.0 -0.9814789891242981 L 49.0 -0.8418468236923218 L 50.0 -0.8418468236923218" style="vector-effect: non-scaling-stroke;fill:none;" /></g></g></g></g></g></g></g></g></g></g><g transform="matrix(1.0, 0.0, 0.0, 1.0, -0.24999999999999994, 0.16)"><g transform="matrix(1.0, 0.0, 0.0, 0.009999999999999995, 0.0, 0.0)"><g transform="matrix(0.01, 0.0, 0.0, 1.0, 0.0, 0.0)"><g><g><g style="fill: #ff0000;stroke: #ff0000;stroke-width: 1.2000000000000002;fill-opacity: 0.5;" transform="matrix(1.0, 0.0, 0.0, 1.0, 0.0, 0.0)"><path d="M 0.0 -2.0 L 0.0 2.0" style="vector-effect: non-scaling-stroke;fill:none;" /></g><g style="fill: #ff0000;stroke: #ff0000;stroke-width: 1.2000000000000002;fill-opacity: 0.5;" transform="matrix(1.0, 0.0, 0.0, 1.0, 0.0, 0.0)"><path d="M 0.0 0.03689275681972504 L 1.0 0.03689275681972504 L 1.0 0.04757469892501831 L 2.0 0.04757469892501831 L 2.0 0.007157257292419672 L 3.0 0.007157257292419672 L 3.0 -0.03815155476331711 L 4.0 -0.03815155476331711 L 4.0 -0.10362935066223145 L 5.0 -0.10362935066223145 L 5.0 -0.07643061876296997 L 6.0 -0.07643061876296997 L 6.0 -0.09934338182210922 L 7.0 -0.09934338182210922 L 7.0 -0.036221589893102646 L 8.0 -0.036221589893102646 L 8.0 -0.04082629829645157 L 9.0 -0.04082629829645157 L 9.0 -0.10173990577459335 L 10.0 -0.10173990577459335 L 10.0 -0.23804886639118195 L 11.0 -0.23804886639118195 L 11.0 -0.3853062689304352 L 12.0 -0.3853062689304352 L 12.0 -0.4006509780883789 L 13.0 -0.4006509780883789 L 13.0 -0.5056774616241455 L 14.0 -0.5056774616241455 L 14.0 -0.5317178964614868 L 15.0 -0.5317178964614868 L 15.0 -0.7231881618499756 L 16.0 -0.7231881618499756 L 16.0 -0.8469066619873047 L 17.0 -0.8469066619873047 L 17.0 -1.0464446544647217 L 18.0 -1.0464446544647217 L 18.0 -1.137365698814392 L 19.0 -1.137365698814392 L 19.0 -1.1362512111663818 L 20.0 -1.1362512111663818 L 20.0 -1.1404170989990234 L 21.0 -1.1404170989990234 L 21.0 -1.071709394454956 L 22.0 -1.071709394454956 L 22.0 -1.1595079898834229 L 23.0 -1.1595079898834229 L 23.0 -1.0853374004364014 L 24.0 -1.0853374004364014 L 24.0 -1.0643458366394043 L 25.0 -1.0643458366394043 L 25.0 -0.9179884791374207 L 26.0 -0.9179884791374207 L 26.0 -0.9527668952941895 L 27.0 -0.9527668952941895 L 27.0 -0.9644486308097839 L 28.0 -0.9644486308097839 L 28.0 -0.8829137086868286 L 29.0 -0.8829137086868286 L 29.0 -0.9355238080024719 L 30.0 -0.9355238080024719 L 30.0 -0.9848726391792297 L 31.0 -0.9848726391792297 L 31.0 -1.115380048751831 L 32.0 -1.115380048751831 L 32.0 -1.093862771987915 L 33.0 -1.093862771987915 L 33.0 -1.0288643836975098 L 34.0 -1.0288643836975098 L 34.0 -1.0696876049041748 L 35.0 -1.0696876049041748 L 35.0 -1.0978960990905762 L 36.0 -1.0978960990905762 L 36.0 -0.953170657157898 L 37.0 -0.953170657157898 L 37.0 -0.914889931678772 L 38.0 -0.914889931678772 L 38.0 -0.9827045202255249 L 39.0 -0.9827045202255249 L 39.0 -1.060539960861206 L 40.0 -1.060539960861206 L 40.0 -1.0304553508758545 L 41.0 -1.0304553508758545 L 41.0 -0.9632890820503235 L 42.0 -0.9632890820503235 L 42.0 -0.9263731837272644 L 43.0 -0.9263731837272644 L 43.0 -0.9848922491073608 L 44.0 -0.9848922491073608 L 44.0 -0.9180439114570618 L 45.0 -0.9180439114570618 L 45.0 -0.9362396001815796 L 46.0 -0.9362396001815796 L 46.0 -1.0101784467697144 L 47.0 -1.0101784467697144 L 47.0 -1.0688318014144897 L 48.0 -1.0688318014144897 L 48.0 -0.9814789891242981 L 49.0 -0.9814789891242981 L 49.0 -0.8418468236923218 L 50.0 -0.8418468236923218 L 50.0 -0.8418468236923218 L 49.0 -0.8418468236923218 L 49.0 -0.9814789891242981 L 48.0 -0.9814789891242981 L 48.0 -1.0688318014144897 L 47.0 -1.0688318014144897 L 47.0 -1.0101784467697144 L 46.0 -1.0101784467697144 L 46.0 -0.9362396001815796 L 45.0 -0.9362396001815796 L 45.0 -0.9180439114570618 L 44.0 -0.9180439114570618 L 44.0 -0.9848922491073608 L 43.0 -0.9848922491073608 L 43.0 -0.9263731837272644 L 42.0 -0.9263731837272644 L 42.0 -0.9632890820503235 L 41.0 -0.9632890820503235 L 41.0 -1.0304553508758545 L 40.0 -1.0304553508758545 L 40.0 -1.060539960861206 L 39.0 -1.060539960861206 L 39.0 -0.9827045202255249 L 38.0 -0.9827045202255249 L 38.0 -0.914889931678772 L 37.0 -0.914889931678772 L 37.0 -0.953170657157898 L 36.0 -0.953170657157898 L 36.0 -1.0978960990905762 L 35.0 -1.0978960990905762 L 35.0 -1.0696876049041748 L 34.0 -1.0696876049041748 L 34.0 -1.0288643836975098 L 33.0 -1.0288643836975098 L 33.0 -1.093862771987915 L 32.0 -1.093862771987915 L 32.0 -1.115380048751831 L 31.0 -1.115380048751831 L 31.0 -0.9848726391792297 L 30.0 -0.9848726391792297 L 30.0 -0.9355238080024719 L 29.0 -0.9355238080024719 L 29.0 -0.8829137086868286 L 28.0 -0.8829137086868286 L 28.0 -0.9644486308097839 L 27.0 -0.9644486308097839 L 27.0 -0.9527668952941895 L 26.0 -0.9527668952941895 L 26.0 -0.9179884791374207 L 25.0 -0.9179884791374207 L 25.0 -1.0643458366394043 L 24.0 -1.0643458366394043 L 24.0 -1.0853374004364014 L 23.0 -1.0853374004364014 L 23.0 -1.1595079898834229 L 22.0 -1.1595079898834229 L 22.0 -1.071709394454956 L 21.0 -1.071709394454956 L 21.0 -1.1404170989990234 L 20.0 -1.1404170989990234 L 20.0 -1.1362512111663818 L 19.0 -1.1362512111663818 L 19.0 -1.137365698814392 L 18.0 -1.137365698814392 L 18.0 -1.0464446544647217 L 17.0 -1.0464446544647217 L 17.0 -0.8469066619873047 L 16.0 -0.8469066619873047 L 16.0 -0.7231881618499756 L 15.0 -0.7231881618499756 L 15.0 -0.5317178964614868 L 14.0 -0.5317178964614868 L 14.0 -0.5056774616241455 L 13.0 -0.5056774616241455 L 13.0 -0.4006509780883789 L 12.0 -0.4006509780883789 L 12.0 -0.3853062689304352 L 11.0 -0.3853062689304352 L 11.0 -0.23804886639118195 L 10.0 -0.23804886639118195 L 10.0 -0.10173990577459335 L 9.0 -0.10173990577459335 L 9.0 -0.04082629829645157 L 8.0 -0.04082629829645157 L 8.0 -0.036221589893102646 L 7.0 -0.036221589893102646 L 7.0 -0.09934338182210922 L 6.0 -0.09934338182210922 L 6.0 -0.07643061876296997 L 5.0 -0.07643061876296997 L 5.0 -0.10362935066223145 L 4.0 -0.10362935066223145 L 4.0 -0.03815155476331711 L 3.0 -0.03815155476331711 L 3.0 0.007157257292419672 L 2.0 0.007157257292419672 L 2.0 0.04757469892501831 L 1.0 0.04757469892501831 L 1.0 0.03689275681972504 L 0.0 0.03689275681972504 Z" style="vector-effect: non-scaling-stroke;" /></g></g><g style="stroke: black;stroke-width: 1.2000000000000002;" transform="matrix(1.0, 0.0, 0.0, 1.0, 0.0, 0.0)"><path d="M 0.0 0.03689275681972504 L 1.0 0.03689275681972504 L 1.0 0.04757469892501831 L 2.0 0.04757469892501831 L 2.0 0.007157257292419672 L 3.0 0.007157257292419672 L 3.0 -0.03815155476331711 L 4.0 -0.03815155476331711 L 4.0 -0.10362935066223145 L 5.0 -0.10362935066223145 L 5.0 -0.07643061876296997 L 6.0 -0.07643061876296997 L 6.0 -0.09934338182210922 L 7.0 -0.09934338182210922 L 7.0 -0.036221589893102646 L 8.0 -0.036221589893102646 L 8.0 -0.04082629829645157 L 9.0 -0.04082629829645157 L 9.0 -0.10173990577459335 L 10.0 -0.10173990577459335 L 10.0 -0.23804886639118195 L 11.0 -0.23804886639118195 L 11.0 -0.3853062689304352 L 12.0 -0.3853062689304352 L 12.0 -0.4006509780883789 L 13.0 -0.4006509780883789 L 13.0 -0.5056774616241455 L 14.0 -0.5056774616241455 L 14.0 -0.5317178964614868 L 15.0 -0.5317178964614868 L 15.0 -0.7231881618499756 L 16.0 -0.7231881618499756 L 16.0 -0.8469066619873047 L 17.0 -0.8469066619873047 L 17.0 -1.0464446544647217 L 18.0 -1.0464446544647217 L 18.0 -1.137365698814392 L 19.0 -1.137365698814392 L 19.0 -1.1362512111663818 L 20.0 -1.1362512111663818 L 20.0 -1.1404170989990234 L 21.0 -1.1404170989990234 L 21.0 -1.071709394454956 L 22.0 -1.071709394454956 L 22.0 -1.1595079898834229 L 23.0 -1.1595079898834229 L 23.0 -1.0853374004364014 L 24.0 -1.0853374004364014 L 24.0 -1.0643458366394043 L 25.0 -1.0643458366394043 L 25.0 -0.9179884791374207 L 26.0 -0.9179884791374207 L 26.0 -0.9527668952941895 L 27.0 -0.9527668952941895 L 27.0 -0.9644486308097839 L 28.0 -0.9644486308097839 L 28.0 -0.8829137086868286 L 29.0 -0.8829137086868286 L 29.0 -0.9355238080024719 L 30.0 -0.9355238080024719 L 30.0 -0.9848726391792297 L 31.0 -0.9848726391792297 L 31.0 -1.115380048751831 L 32.0 -1.115380048751831 L 32.0 -1.093862771987915 L 33.0 -1.093862771987915 L 33.0 -1.0288643836975098 L 34.0 -1.0288643836975098 L 34.0 -1.0696876049041748 L 35.0 -1.0696876049041748 L 35.0 -1.0978960990905762 L 36.0 -1.0978960990905762 L 36.0 -0.953170657157898 L 37.0 -0.953170657157898 L 37.0 -0.914889931678772 L 38.0 -0.914889931678772 L 38.0 -0.9827045202255249 L 39.0 -0.9827045202255249 L 39.0 -1.060539960861206 L 40.0 -1.060539960861206 L 40.0 -1.0304553508758545 L 41.0 -1.0304553508758545 L 41.0 -0.9632890820503235 L 42.0 -0.9632890820503235 L 42.0 -0.9263731837272644 L 43.0 -0.9263731837272644 L 43.0 -0.9848922491073608 L 44.0 -0.9848922491073608 L 44.0 -0.9180439114570618 L 45.0 -0.9180439114570618 L 45.0 -0.9362396001815796 L 46.0 -0.9362396001815796 L 46.0 -1.0101784467697144 L 47.0 -1.0101784467697144 L 47.0 -1.0688318014144897 L 48.0 -1.0688318014144897 L 48.0 -0.9814789891242981 L 49.0 -0.9814789891242981 L 49.0 -0.8418468236923218 L 50.0 -0.8418468236923218" style="vector-effect: non-scaling-stroke;fill:none;" /></g></g></g></g></g></g><g transform="matrix(1.0, 0.0, 0.0, 1.0, -0.24999999999999994, 0.16)"><g transform="matrix(1.0, 0.0, 0.0, 0.009999999999999995, 0.0, 0.0)"><g transform="matrix(0.01, 0.0, 0.0, 1.0, 0.0, 0.0)"><g><g><g style="fill: #ffffe0;stroke: #ffffe0;stroke-width: 1.2000000000000002;fill-opacity: 0.5;" transform="matrix(1.0, 0.0, 0.0, 1.0, 0.0, 0.0)"><path d="M 0.0 -2.0 L 0.0 2.0" style="vector-effect: non-scaling-stroke;fill:none;" /></g><g style="fill: #ffffe0;stroke: #ffffe0;stroke-width: 1.2000000000000002;fill-opacity: 0.5;" transform="matrix(1.0, 0.0, 0.0, 1.0, 0.0, 0.0)"><path d="M 0.0 -0.7632995843887329 L 1.0 -0.7632995843887329 L 1.0 -0.7526176571846008 L 2.0 -0.7526176571846008 L 2.0 -0.7928488254547119 L 3.0 -0.7928488254547119 L 3.0 -0.8368538022041321 L 4.0 -0.8368538022041321 L 4.0 -0.9053118228912354 L 5.0 -0.9053118228912354 L 5.0 -0.8781130909919739 L 6.0 -0.8781130909919739 L 6.0 -0.9010258316993713 L 7.0 -0.9010258316993713 L 7.0 -0.8364139199256897 L 8.0 -0.8364139199256897 L 8.0 -0.8410186767578125 L 9.0 -0.8410186767578125 L 9.0 -0.9034223556518555 L 10.0 -0.9034223556518555 L 10.0 -0.23804886639118195 L 11.0 -0.23804886639118195 L 11.0 -0.3853062689304352 L 12.0 -0.3853062689304352 L 12.0 -0.4006509780883789 L 13.0 -0.4006509780883789 L 13.0 -0.5056774616241455 L 14.0 -0.5056774616241455 L 14.0 -0.5317178964614868 L 15.0 -0.5317178964614868 L 15.0 -0.7231881618499756 L 16.0 -0.7231881618499756 L 16.0 -0.8469066619873047 L 17.0 -0.8469066619873047 L 17.0 -1.0464446544647217 L 18.0 -1.0464446544647217 L 18.0 -1.137365698814392 L 19.0 -1.137365698814392 L 19.0 -1.1362512111663818 L 20.0 -1.1362512111663818 L 20.0 -1.9987239837646484 L 21.0 -1.9987239837646484 L 21.0 -1.834648847579956 L 22.0 -1.834648847579956 L 22.0 -1.9701311588287354 L 23.0 -1.9701311588287354 L 23.0 -1.9436442852020264 L 24.0 -1.9436442852020264 L 24.0 -1.8749690055847168 L 25.0 -1.8749690055847168 L 25.0 -1.728611707687378 L 26.0 -1.728611707687378 L 26.0 -1.763390064239502 L 27.0 -1.763390064239502 L 27.0 -1.7750718593597412 L 28.0 -1.7750718593597412 L 28.0 -1.6696950197219849 L 29.0 -1.6696950197219849 L 29.0 -1.7223050594329834 L 30.0 -1.7223050594329834 L 30.0 -0.9848726391792297 L 31.0 -0.9848726391792297 L 31.0 -1.115380048751831 L 32.0 -1.115380048751831 L 32.0 -1.093862771987915 L 33.0 -1.093862771987915 L 33.0 -1.0288643836975098 L 34.0 -1.0288643836975098 L 34.0 -1.0696876049041748 L 35.0 -1.0696876049041748 L 35.0 -1.9085192680358887 L 36.0 -1.9085192680358887 L 36.0 -1.716110110282898 L 37.0 -1.716110110282898 L 37.0 -1.7016712427139282 L 38.0 -1.7016712427139282 L 38.0 -1.745643973350525 L 39.0 -1.745643973350525 L 39.0 -1.8711631298065186 L 40.0 -1.8711631298065186 L 40.0 -1.7933948040008545 L 41.0 -1.7933948040008545 L 41.0 -1.7262284755706787 L 42.0 -1.7262284755706787 L 42.0 -1.7369964122772217 L 43.0 -1.7369964122772217 L 43.0 -1.7955154180526733 L 44.0 -1.7955154180526733 L 44.0 -1.7048251628875732 L 45.0 -1.7048251628875732 L 45.0 -0.9362396001815796 L 46.0 -0.9362396001815796 L 46.0 -1.0101784467697144 L 47.0 -1.0101784467697144 L 47.0 -1.0688318014144897 L 48.0 -1.0688318014144897 L 48.0 -0.9814789891242981 L 49.0 -0.9814789891242981 L 49.0 -0.8418468236923218 L 50.0 -0.8418468236923218 L 50.0 -0.8418468236923218 L 49.0 -0.8418468236923218 L 49.0 -0.9814789891242981 L 48.0 -0.9814789891242981 L 48.0 -1.0688318014144897 L 47.0 -1.0688318014144897 L 47.0 -1.0101784467697144 L 46.0 -1.0101784467697144 L 46.0 -0.9362396001815796 L 45.0 -0.9362396001815796 L 45.0 -0.9180439114570618 L 44.0 -0.9180439114570618 L 44.0 -0.9848922491073608 L 43.0 -0.9848922491073608 L 43.0 -0.9263731837272644 L 42.0 -0.9263731837272644 L 42.0 -0.9632890820503235 L 41.0 -0.9632890820503235 L 41.0 -1.0304553508758545 L 40.0 -1.0304553508758545 L 40.0 -1.060539960861206 L 39.0 -1.060539960861206 L 39.0 -0.9827045202255249 L 38.0 -0.9827045202255249 L 38.0 -0.914889931678772 L 37.0 -0.914889931678772 L 37.0 -0.953170657157898 L 36.0 -0.953170657157898 L 36.0 -1.0978960990905762 L 35.0 -1.0978960990905762 L 35.0 -1.0696876049041748 L 34.0 -1.0696876049041748 L 34.0 -1.0288643836975098 L 33.0 -1.0288643836975098 L 33.0 -1.093862771987915 L 32.0 -1.093862771987915 L 32.0 -1.115380048751831 L 31.0 -1.115380048751831 L 31.0 -0.9848726391792297 L 30.0 -0.9848726391792297 L 30.0 -0.9355238080024719 L 29.0 -0.9355238080024719 L 29.0 -0.8829137086868286 L 28.0 -0.8829137086868286 L 28.0 -0.9644486308097839 L 27.0 -0.9644486308097839 L 27.0 -0.9527668952941895 L 26.0 -0.9527668952941895 L 26.0 -0.9179884791374207 L 25.0 -0.9179884791374207 L 25.0 -1.0643458366394043 L 24.0 -1.0643458366394043 L 24.0 -1.0853374004364014 L 23.0 -1.0853374004364014 L 23.0 -1.1595079898834229 L 22.0 -1.1595079898834229 L 22.0 -1.071709394454956 L 21.0 -1.071709394454956 L 21.0 -1.1404170989990234 L 20.0 -1.1404170989990234 L 20.0 -1.1362512111663818 L 19.0 -1.1362512111663818 L 19.0 -1.137365698814392 L 18.0 -1.137365698814392 L 18.0 -1.0464446544647217 L 17.0 -1.0464446544647217 L 17.0 -0.8469066619873047 L 16.0 -0.8469066619873047 L 16.0 -0.7231881618499756 L 15.0 -0.7231881618499756 L 15.0 -0.5317178964614868 L 14.0 -0.5317178964614868 L 14.0 -0.5056774616241455 L 13.0 -0.5056774616241455 L 13.0 -0.4006509780883789 L 12.0 -0.4006509780883789 L 12.0 -0.3853062689304352 L 11.0 -0.3853062689304352 L 11.0 -0.23804886639118195 L 10.0 -0.23804886639118195 L 10.0 -0.10173990577459335 L 9.0 -0.10173990577459335 L 9.0 -0.04082629829645157 L 8.0 -0.04082629829645157 L 8.0 -0.036221589893102646 L 7.0 -0.036221589893102646 L 7.0 -0.09934338182210922 L 6.0 -0.09934338182210922 L 6.0 -0.07643061876296997 L 5.0 -0.07643061876296997 L 5.0 -0.10362935066223145 L 4.0 -0.10362935066223145 L 4.0 -0.03815155476331711 L 3.0 -0.03815155476331711 L 3.0 0.007157257292419672 L 2.0 0.007157257292419672 L 2.0 0.04757469892501831 L 1.0 0.04757469892501831 L 1.0 0.03689275681972504 L 0.0 0.03689275681972504 Z" style="vector-effect: non-scaling-stroke;" /></g></g><g style="stroke: black;stroke-width: 1.2000000000000002;" transform="matrix(1.0, 0.0, 0.0, 1.0, 0.0, 0.0)"><path d="M 0.0 0.03689275681972504 L 1.0 0.03689275681972504 L 1.0 0.04757469892501831 L 2.0 0.04757469892501831 L 2.0 0.007157257292419672 L 3.0 0.007157257292419672 L 3.0 -0.03815155476331711 L 4.0 -0.03815155476331711 L 4.0 -0.10362935066223145 L 5.0 -0.10362935066223145 L 5.0 -0.07643061876296997 L 6.0 -0.07643061876296997 L 6.0 -0.09934338182210922 L 7.0 -0.09934338182210922 L 7.0 -0.036221589893102646 L 8.0 -0.036221589893102646 L 8.0 -0.04082629829645157 L 9.0 -0.04082629829645157 L 9.0 -0.10173990577459335 L 10.0 -0.10173990577459335 L 10.0 -0.23804886639118195 L 11.0 -0.23804886639118195 L 11.0 -0.3853062689304352 L 12.0 -0.3853062689304352 L 12.0 -0.4006509780883789 L 13.0 -0.4006509780883789 L 13.0 -0.5056774616241455 L 14.0 -0.5056774616241455 L 14.0 -0.5317178964614868 L 15.0 -0.5317178964614868 L 15.0 -0.7231881618499756 L 16.0 -0.7231881618499756 L 16.0 -0.8469066619873047 L 17.0 -0.8469066619873047 L 17.0 -1.0464446544647217 L 18.0 -1.0464446544647217 L 18.0 -1.137365698814392 L 19.0 -1.137365698814392 L 19.0 -1.1362512111663818 L 20.0 -1.1362512111663818 L 20.0 -1.1404170989990234 L 21.0 -1.1404170989990234 L 21.0 -1.071709394454956 L 22.0 -1.071709394454956 L 22.0 -1.1595079898834229 L 23.0 -1.1595079898834229 L 23.0 -1.0853374004364014 L 24.0 -1.0853374004364014 L 24.0 -1.0643458366394043 L 25.0 -1.0643458366394043 L 25.0 -0.9179884791374207 L 26.0 -0.9179884791374207 L 26.0 -0.9527668952941895 L 27.0 -0.9527668952941895 L 27.0 -0.9644486308097839 L 28.0 -0.9644486308097839 L 28.0 -0.8829137086868286 L 29.0 -0.8829137086868286 L 29.0 -0.9355238080024719 L 30.0 -0.9355238080024719 L 30.0 -0.9848726391792297 L 31.0 -0.9848726391792297 L 31.0 -1.115380048751831 L 32.0 -1.115380048751831 L 32.0 -1.093862771987915 L 33.0 -1.093862771987915 L 33.0 -1.0288643836975098 L 34.0 -1.0288643836975098 L 34.0 -1.0696876049041748 L 35.0 -1.0696876049041748 L 35.0 -1.0978960990905762 L 36.0 -1.0978960990905762 L 36.0 -0.953170657157898 L 37.0 -0.953170657157898 L 37.0 -0.914889931678772 L 38.0 -0.914889931678772 L 38.0 -0.9827045202255249 L 39.0 -0.9827045202255249 L 39.0 -1.060539960861206 L 40.0 -1.060539960861206 L 40.0 -1.0304553508758545 L 41.0 -1.0304553508758545 L 41.0 -0.9632890820503235 L 42.0 -0.9632890820503235 L 42.0 -0.9263731837272644 L 43.0 -0.9263731837272644 L 43.0 -0.9848922491073608 L 44.0 -0.9848922491073608 L 44.0 -0.9180439114570618 L 45.0 -0.9180439114570618 L 45.0 -0.9362396001815796 L 46.0 -0.9362396001815796 L 46.0 -1.0101784467697144 L 47.0 -1.0101784467697144 L 47.0 -1.0688318014144897 L 48.0 -1.0688318014144897 L 48.0 -0.9814789891242981 L 49.0 -0.9814789891242981 L 49.0 -0.8418468236923218 L 50.0 -0.8418468236923218" style="vector-effect: non-scaling-stroke;fill:none;" /></g></g></g></g></g></g></g></g><g /></g></g></g></g></svg>