<?xml version="1.0" encoding="utf-8" ?>
<svg baseProfile="full" height="300" version="1.1" width="852" xmlns="http://www.w3.org/2000/svg" xmlns:ev="http://www.w3.org/2001/xml-events" xmlns:xlink="http://www.w3.org/1999/xlink"><defs><marker id="arrow" markerHeight="3.5" markerWidth="5" orient="auto" refX="5.0" refY="1.7"><polygon points="0,0 5,1.75 0,3.5" /></marker></defs><g style="fill:white;"><g transform="matrix(1.0, 0.0, 0.0, 1.0, 426.13636363636357, 150.0)"><g transform="matrix(1082.2510822510822, 0.0, 0.0, 1082.2510822510822, 0.0, 0.0)"><g><g transform="matrix(1.0, 0.0, 0.0, 1.0, -5.551115123125783e-17, -0.08000000000000002)"><g><g><g style="fill: #ffffff;stroke: black;stroke-width: 1.2000000000000002;" transform="matrix(1.0, 0.0, 0.0, 1.0, -0.3749999999999999, -0.052000000000000005)"><path d="M 0.0 0.0 L 0.7499999999999999 0.0 L 0.7499999999999999 0.264 L 0.0 0.264 L 0.0 0.0 Z" style="vector-effect: non-scaling-stroke;" /></g><g><g><g><g><g><g transform="matrix(1.0, 0.0, 0.0, 1.0, -0.08, -0.03)"><g transform="matrix(1.0, 0.0, 0.0, 1.0, 0.075, 0.0)"><g transform="matrix(1.0, 0.0, 0.0, 1.0, 0.0, 0.03)"><g transform="matrix(0.01, 0.0, 0.0, 0.01, 0.0, 0.0)"><g><g><g transform="matrix(1.0, 0.0, 0.0, 1.0, 0.5, 0.0)"><g transform="matrix(1.0, 0.0, 0.0, 1.0, -8.0, -0.0)"><g><g style="fill: #d3d3d3;stroke: black;stroke-width: 1.2000000000000002;" transform="matrix(1.0, 0.0, 0.0, 1.0, 0.0, -3.0)"><path d="M 0.0 0.0 L 16.0 0.0 L 16.0 6.0 L 0.0 6.0 L 0.0 0.0 Z" style="vector-effect: non-scaling-stroke;" /></g><g transform="matrix(1.0, 0.0, 0.0, 1.0, 1.875, 0.0)"><g><g style="stroke: black;stroke-width: 1.2000000000000002;" transform="matrix(1.0, 0.0, 0.0, 1.0, 0.0, 0.0)"><g /></g><g style="fill: #ffa500;stroke: black;stroke-width: 1.2000000000000002;" transform="matrix(1.0, 0.0, 0.0, 1.0, 1.875, 0.0)"><text style="text-align:center; text-anchor:middle; dominant-baseline:middle;&#10;                      font-family:sans-serif; font-weight: bold;&#10;                      font-size:3px;&#10;                      vector-effect: non-scaling-stroke;" transform="translate(-5e-05, 0)">x</text></g></g></g></g></g></g><g><g><g><g style="stroke: black;stroke-width: 1.2000000000000002;" transform="matrix(1.0, 0.0, 0.0, 1.0, 0.0, 0.0)"><path d="M 0.0 -2.0 L 0.0 2.0" style="vector-effect: non-scaling-stroke;fill:none;" /></g><g style="stroke: #808080;stroke-width: 0.6000000000000001;" transform="matrix(1.0, 0.0, 0.0, 1.0, 0.0, 0.0)"><path d="M 0.0 0.0 L 1.0 0.0" style="vector-effect: non-scaling-stroke;fill:none;" /></g></g><g style="stroke: black;stroke-width: 2.4000000000000004;" transform="matrix(1.0, 0.0, 0.0, 1.0, 0.0, 0.0)"><path d="M 0.0 -0.9909365773200989 L 1.0 -0.9909365773200989" style="vector-effect: non-scaling-stroke;fill:none;" /></g></g></g></g><g><g><g><g style="stroke: black;stroke-width: 1.2000000000000002;" transform="matrix(1.0, 0.0, 0.0, 1.0, 0.0, 0.0)"><path d="M 0.0 -2.0 L 0.0 2.0" style="vector-effect: non-scaling-stroke;fill:none;" /></g><g style="stroke: #808080;stroke-width: 0.6000000000000001;" transform="matrix(1.0, 0.0, 0.0, 1.0, 0.0, 0.0)"><path d="M 0.0 0.0 L 1.0 0.0" style="vector-effect: non-scaling-stroke;fill:none;" /></g></g><g style="stroke: black;stroke-width: 2.4000000000000004;" transform="matrix(1.0, 0.0, 0.0, 1.0, 0.0, 0.0)"><path d="M 0.0 -0.9909365773200989 L 1.0 -0.9909365773200989" style="vector-effect: non-scaling-stroke;fill:none;" /></g></g></g></g></g></g></g></g><g style="stroke: black;stroke-width: 1.2000000000000002;" transform="matrix(0.0, -1.0, 1.0, 0.0, 0.0, 0.08)"><g /></g></g><g transform="matrix(1.0, 0.0, 0.0, 1.0, 0.0, 0.16)"><g transform="matrix(1.0, 0.0, 0.0, 1.0, -0.32499999999999996, -0.03)"><g transform="matrix(1.0, 0.0, 0.0, 1.0, 0.075, 0.0)"><g transform="matrix(1.0, 0.0, 0.0, 1.0, 0.0, 0.03)"><g transform="matrix(0.01, 0.0, 0.0, 0.01, 0.0, 0.0)"><g><g><g transform="matrix(1.0, 0.0, 0.0, 1.0, 25.0, 0.0)"><g transform="matrix(1.0, 0.0, 0.0, 1.0, -32.5, -0.0)"><g><g style="fill: #d3d3d3;stroke: black;stroke-width: 1.2000000000000002;" transform="matrix(1.0, 0.0, 0.0, 1.0, 0.0, -3.0)"><path d="M 0.0 0.0 L 65.0 0.0 L 65.0 6.0 L 0.0 6.0 L 0.0 0.0 Z" style="vector-effect: non-scaling-stroke;" /></g><g transform="matrix(1.0, 0.0, 0.0, 1.0, 1.875, 0.0)"><g><g style="stroke: black;stroke-width: 1.2000000000000002;" transform="matrix(1.0, 0.0, 0.0, 1.0, 0.0, 0.0)"><g /></g><g style="fill: #ffa500;stroke: black;stroke-width: 1.2000000000000002;" transform="matrix(1.0, 0.0, 0.0, 1.0, 1.875, 0.0)"><text style="text-align:center; text-anchor:middle; dominant-baseline:middle;&#10;                      font-family:sans-serif; font-weight: bold;&#10;                      font-size:3px;&#10;                      vector-effect: non-scaling-stroke;" transform="translate(-5e-05, 0)">f(x)</text></g></g></g></g></g></g><g><g><g><g style="stroke: black;stroke-width: 1.2000000000000002;" transform="matrix(1.0, 0.0, 0.0, 1.0, 0.0, 0.0)"><path d="M 0.0 -2.0 L 0.0 2.0" style="vector-effect: non-scaling-stroke;fill:none;" /></g><g style="stroke: #808080;stroke-width: 0.6000000000000001;" transform="matrix(1.0, 0.0, 0.0, 1.0, 0.0, 0.0)"><path d="M 0.0 0.0 L 50.0 0.0" style="vector-effect: non-scaling-stroke;fill:none;" /></g></g><g style="stroke: black;stroke-width: 2.4000000000000004;" transform="matrix(1.0, 0.0, 0.0, 1.0, 0.0, 0.0)"><path d="M 0.0 -0.0 L 1.0 0.0 L 1.0 -0.019818730652332306 L 2.0 -0.019818730652332306 L 2.0 -0.03963746130466461 L 3.0 -0.03963746130466461 L 3.0 -0.05945619195699692 L 4.0 -0.05945619195699692 L 4.0 -0.07927492260932922 L 5.0 -0.07927492260932922 L 5.0 -0.09909366071224213 L 6.0 -0.09909366071224213 L 6.0 -0.11891238391399384 L 7.0 -0.11891238391399384 L 7.0 -0.13873112201690674 L 8.0 -0.13873112201690674 L 8.0 -0.15854984521865845 L 9.0 -0.15854984521865845 L 9.0 -0.17836859822273254 L 10.0 -0.17836859822273254 L 10.0 -0.19818732142448425 L 11.0 -0.19818732142448425 L 11.0 -0.21800604462623596 L 12.0 -0.21800604462623596 L 12.0 -0.23782476782798767 L 13.0 -0.23782476782798767 L 13.0 -0.2576434910297394 L 14.0 -0.2576434910297394 L 14.0 -0.2774622440338135 L 15.0 -0.2774622440338135 L 15.0 -0.2972809970378876 L 16.0 -0.2972809970378876 L 16.0 -0.3170996904373169 L 17.0 -0.3170996904373169 L 17.0 -0.336918443441391 L 18.0 -0.336918443441391 L 18.0 -0.3567371964454651 L 19.0 -0.3567371964454651 L 19.0 -0.3765558898448944 L 20.0 -0.3765558898448944 L 20.0 -0.3963746428489685 L 21.0 -0.3963746428489685 L 21.0 -0.4161933362483978 L 22.0 -0.4161933362483978 L 22.0 -0.4360120892524719 L 23.0 -0.4360120892524719 L 23.0 -0.455830842256546 L 24.0 -0.455830842256546 L 24.0 -0.47564953565597534 L 25.0 -0.47564953565597534 L 25.0 -0.49546828866004944 L 26.0 -0.49546828866004944 L 26.0 -0.5152869820594788 L 27.0 -0.5152869820594788 L 27.0 -0.5351057648658752 L 28.0 -0.5351057648658752 L 28.0 -0.554924488067627 L 29.0 -0.554924488067627 L 29.0 -0.5747432112693787 L 30.0 -0.5747432112693787 L 30.0 -0.5945619940757751 L 31.0 -0.5945619940757751 L 31.0 -0.6143806576728821 L 32.0 -0.6143806576728821 L 32.0 -0.6341993808746338 L 33.0 -0.6341993808746338 L 33.0 -0.6540181636810303 L 34.0 -0.6540181636810303 L 34.0 -0.673836886882782 L 35.0 -0.673836886882782 L 35.0 -0.6936556100845337 L 36.0 -0.6936556100845337 L 36.0 -0.7134743928909302 L 37.0 -0.7134743928909302 L 37.0 -0.7332930564880371 L 38.0 -0.7332930564880371 L 38.0 -0.7531117796897888 L 39.0 -0.7531117796897888 L 39.0 -0.7729305028915405 L 40.0 -0.7729305028915405 L 40.0 -0.792749285697937 L 41.0 -0.792749285697937 L 41.0 -0.8125680088996887 L 42.0 -0.8125680088996887 L 42.0 -0.8323866724967957 L 43.0 -0.8323866724967957 L 43.0 -0.8522054553031921 L 44.0 -0.8522054553031921 L 44.0 -0.8720241785049438 L 45.0 -0.8720241785049438 L 45.0 -0.8918429017066956 L 46.0 -0.8918429017066956 L 46.0 -0.911661684513092 L 47.0 -0.911661684513092 L 47.0 -0.9314804077148438 L 48.0 -0.9314804077148438 L 48.0 -0.9512990713119507 L 49.0 -0.9512990713119507 L 49.0 -0.9711178541183472 L 50.0 -0.9711178541183472" style="vector-effect: non-scaling-stroke;fill:none;" /></g></g></g></g><g><g><g><g style="stroke: black;stroke-width: 1.2000000000000002;" transform="matrix(1.0, 0.0, 0.0, 1.0, 0.0, 0.0)"><path d="M 0.0 -2.0 L 0.0 2.0" style="vector-effect: non-scaling-stroke;fill:none;" /></g><g style="stroke: #808080;stroke-width: 0.6000000000000001;" transform="matrix(1.0, 0.0, 0.0, 1.0, 0.0, 0.0)"><path d="M 0.0 0.0 L 50.0 0.0" style="vector-effect: non-scaling-stroke;fill:none;" /></g></g><g style="stroke: black;stroke-width: 2.4000000000000004;" transform="matrix(1.0, 0.0, 0.0, 1.0, 0.0, 0.0)"><path d="M 0.0 -0.0 L 1.0 0.0 L 1.0 -0.019818730652332306 L 2.0 -0.019818730652332306 L 2.0 -0.03963746130466461 L 3.0 -0.03963746130466461 L 3.0 -0.05945619195699692 L 4.0 -0.05945619195699692 L 4.0 -0.07927492260932922 L 5.0 -0.07927492260932922 L 5.0 -0.09909366071224213 L 6.0 -0.09909366071224213 L 6.0 -0.11891238391399384 L 7.0 -0.11891238391399384 L 7.0 -0.13873112201690674 L 8.0 -0.13873112201690674 L 8.0 -0.15854984521865845 L 9.0 -0.15854984521865845 L 9.0 -0.17836859822273254 L 10.0 -0.17836859822273254 L 10.0 -0.19818732142448425 L 11.0 -0.19818732142448425 L 11.0 -0.21800604462623596 L 12.0 -0.21800604462623596 L 12.0 -0.23782476782798767 L 13.0 -0.23782476782798767 L 13.0 -0.2576434910297394 L 14.0 -0.2576434910297394 L 14.0 -0.2774622440338135 L 15.0 -0.2774622440338135 L 15.0 -0.2972809970378876 L 16.0 -0.2972809970378876 L 16.0 -0.3170996904373169 L 17.0 -0.3170996904373169 L 17.0 -0.336918443441391 L 18.0 -0.336918443441391 L 18.0 -0.3567371964454651 L 19.0 -0.3567371964454651 L 19.0 -0.3765558898448944 L 20.0 -0.3765558898448944 L 20.0 -0.3963746428489685 L 21.0 -0.3963746428489685 L 21.0 -0.4161933362483978 L 22.0 -0.4161933362483978 L 22.0 -0.4360120892524719 L 23.0 -0.4360120892524719 L 23.0 -0.455830842256546 L 24.0 -0.455830842256546 L 24.0 -0.47564953565597534 L 25.0 -0.47564953565597534 L 25.0 -0.49546828866004944 L 26.0 -0.49546828866004944 L 26.0 -0.5152869820594788 L 27.0 -0.5152869820594788 L 27.0 -0.5351057648658752 L 28.0 -0.5351057648658752 L 28.0 -0.554924488067627 L 29.0 -0.554924488067627 L 29.0 -0.5747432112693787 L 30.0 -0.5747432112693787 L 30.0 -0.5945619940757751 L 31.0 -0.5945619940757751 L 31.0 -0.6143806576728821 L 32.0 -0.6143806576728821 L 32.0 -0.6341993808746338 L 33.0 -0.6341993808746338 L 33.0 -0.6540181636810303 L 34.0 -0.6540181636810303 L 34.0 -0.673836886882782 L 35.0 -0.673836886882782 L 35.0 -0.6936556100845337 L 36.0 -0.6936556100845337 L 36.0 -0.7134743928909302 L 37.0 -0.7134743928909302 L 37.0 -0.7332930564880371 L 38.0 -0.7332930564880371 L 38.0 -0.7531117796897888 L 39.0 -0.7531117796897888 L 39.0 -0.7729305028915405 L 40.0 -0.7729305028915405 L 40.0 -0.792749285697937 L 41.0 -0.792749285697937 L 41.0 -0.8125680088996887 L 42.0 -0.8125680088996887 L 42.0 -0.8323866724967957 L 43.0 -0.8323866724967957 L 43.0 -0.8522054553031921 L 44.0 -0.8522054553031921 L 44.0 -0.8720241785049438 L 45.0 -0.8720241785049438 L 45.0 -0.8918429017066956 L 46.0 -0.8918429017066956 L 46.0 -0.911661684513092 L 47.0 -0.911661684513092 L 47.0 -0.9314804077148438 L 48.0 -0.9314804077148438 L 48.0 -0.9512990713119507 L 49.0 -0.9512990713119507 L 49.0 -0.9711178541183472 L 50.0 -0.9711178541183472" style="vector-effect: non-scaling-stroke;fill:none;" /></g></g></g></g></g></g></g></g></g></g><g transform="matrix(1.0, 0.0, 0.0, 1.0, -0.24999999999999994, 0.16)"><g transform="matrix(1.0, 0.0, 0.0, 0.009999999999999995, 0.0, 0.0)"><g transform="matrix(0.01, 0.0, 0.0, 1.0, 0.0, 0.0)"><g><g><g style="fill: #ff0000;stroke: #ff0000;stroke-width: 1.2000000000000002;fill-opacity: 0.5;" transform="matrix(1.0, 0.0, 0.0, 1.0, 0.0, 0.0)"><path d="M 0.0 -2.0 L 0.0 2.0" style="vector-effect: non-scaling-stroke;fill:none;" /></g><g style="fill: #ff0000;stroke: #ff0000;stroke-width: 1.2000000000000002;fill-opacity: 0.5;" transform="matrix(1.0, 0.0, 0.0, 1.0, 0.0, 0.0)"><path d="M 0.0 -0.0 L 1.0 0.0 L 1.0 -0.019818730652332306 L 2.0 -0.019818730652332306 L 2.0 -0.03963746130466461 L 3.0 -0.03963746130466461 L 3.0 -0.05945619195699692 L 4.0 -0.05945619195699692 L 4.0 -0.07927492260932922 L 5.0 -0.07927492260932922 L 5.0 -0.09909366071224213 L 6.0 -0.09909366071224213 L 6.0 -0.11891238391399384 L 7.0 -0.11891238391399384 L 7.0 -0.13873112201690674 L 8.0 -0.13873112201690674 L 8.0 -0.15854984521865845 L 9.0 -0.15854984521865845 L 9.0 -0.17836859822273254 L 10.0 -0.17836859822273254 L 10.0 -0.19818732142448425 L 11.0 -0.19818732142448425 L 11.0 -0.21800604462623596 L 12.0 -0.21800604462623596 L 12.0 -0.23782476782798767 L 13.0 -0.23782476782798767 L 13.0 -0.2576434910297394 L 14.0 -0.2576434910297394 L 14.0 -0.2774622440338135 L 15.0 -0.2774622440338135 L 15.0 -0.2972809970378876 L 16.0 -0.2972809970378876 L 16.0 -0.3170996904373169 L 17.0 -0.3170996904373169 L 17.0 -0.336918443441391 L 18.0 -0.336918443441391 L 18.0 -0.3567371964454651 L 19.0 -0.3567371964454651 L 19.0 -0.3765558898448944 L 20.0 -0.3765558898448944 L 20.0 -0.3963746428489685 L 21.0 -0.3963746428489685 L 21.0 -0.4161933362483978 L 22.0 -0.4161933362483978 L 22.0 -0.4360120892524719 L 23.0 -0.4360120892524719 L 23.0 -0.455830842256546 L 24.0 -0.455830842256546 L 24.0 -0.47564953565597534 L 25.0 -0.47564953565597534 L 25.0 -0.49546828866004944 L 26.0 -0.49546828866004944 L 26.0 -0.5152869820594788 L 27.0 -0.5152869820594788 L 27.0 -0.5351057648658752 L 28.0 -0.5351057648658752 L 28.0 -0.554924488067627 L 29.0 -0.554924488067627 L 29.0 -0.5747432112693787 L 30.0 -0.5747432112693787 L 30.0 -0.5945619940757751 L 31.0 -0.5945619940757751 L 31.0 -0.6143806576728821 L 32.0 -0.6143806576728821 L 32.0 -0.6341993808746338 L 33.0 -0.6341993808746338 L 33.0 -0.6540181636810303 L 34.0 -0.6540181636810303 L 34.0 -0.673836886882782 L 35.0 -0.673836886882782 L 35.0 -0.6936556100845337 L 36.0 -0.6936556100845337 L 36.0 -0.7134743928909302 L 37.0 -0.7134743928909302 L 37.0 -0.7332930564880371 L 38.0 -0.7332930564880371 L 38.0 -0.7531117796897888 L 39.0 -0.7531117796897888 L 39.0 -0.7729305028915405 L 40.0 -0.7729305028915405 L 40.0 -0.792749285697937 L 41.0 -0.792749285697937 L 41.0 -0.8125680088996887 L 42.0 -0.8125680088996887 L 42.0 -0.8323866724967957 L 43.0 -0.8323866724967957 L 43.0 -0.8522054553031921 L 44.0 -0.8522054553031921 L 44.0 -0.8720241785049438 L 45.0 -0.8720241785049438 L 45.0 -0.8918429017066956 L 46.0 -0.8918429017066956 L 46.0 -0.911661684513092 L 47.0 -0.911661684513092 L 47.0 -0.9314804077148438 L 48.0 -0.9314804077148438 L 48.0 -0.9512990713119507 L 49.0 -0.9512990713119507 L 49.0 -0.9711178541183472 L 50.0 -0.9711178541183472 L 50.0 -0.9711178541183472 L 49.0 -0.9711178541183472 L 49.0 -0.9512990713119507 L 48.0 -0.9512990713119507 L 48.0 -0.9314804077148438 L 47.0 -0.9314804077148438 L 47.0 -0.911661684513092 L 46.0 -0.911661684513092 L 46.0 -0.8918429017066956 L 45.0 -0.8918429017066956 L 45.0 -0.8720241785049438 L 44.0 -0.8720241785049438 L 44.0 -0.8522054553031921 L 43.0 -0.8522054553031921 L 43.0 -0.8323866724967957 L 42.0 -0.8323866724967957 L 42.0 -0.8125680088996887 L 41.0 -0.8125680088996887 L 41.0 -0.792749285697937 L 40.0 -0.792749285697937 L 40.0 -0.7729305028915405 L 39.0 -0.7729305028915405 L 39.0 -0.7531117796897888 L 38.0 -0.7531117796897888 L 38.0 -0.7332930564880371 L 37.0 -0.7332930564880371 L 37.0 -0.7134743928909302 L 36.0 -0.7134743928909302 L 36.0 -0.6936556100845337 L 35.0 -0.6936556100845337 L 35.0 -0.673836886882782 L 34.0 -0.673836886882782 L 34.0 -0.6540181636810303 L 33.0 -0.6540181636810303 L 33.0 -0.6341993808746338 L 32.0 -0.6341993808746338 L 32.0 -0.6143806576728821 L 31.0 -0.6143806576728821 L 31.0 -0.5945619940757751 L 30.0 -0.5945619940757751 L 30.0 -0.5747432112693787 L 29.0 -0.5747432112693787 L 29.0 -0.554924488067627 L 28.0 -0.554924488067627 L 28.0 -0.5351057648658752 L 27.0 -0.5351057648658752 L 27.0 -0.5152869820594788 L 26.0 -0.5152869820594788 L 26.0 -0.49546828866004944 L 25.0 -0.49546828866004944 L 25.0 -0.47564953565597534 L 24.0 -0.47564953565597534 L 24.0 -0.455830842256546 L 23.0 -0.455830842256546 L 23.0 -0.4360120892524719 L 22.0 -0.4360120892524719 L 22.0 -0.4161933362483978 L 21.0 -0.4161933362483978 L 21.0 -0.3963746428489685 L 20.0 -0.3963746428489685 L 20.0 -0.3765558898448944 L 19.0 -0.3765558898448944 L 19.0 -0.3567371964454651 L 18.0 -0.3567371964454651 L 18.0 -0.336918443441391 L 17.0 -0.336918443441391 L 17.0 -0.3170996904373169 L 16.0 -0.3170996904373169 L 16.0 -0.2972809970378876 L 15.0 -0.2972809970378876 L 15.0 -0.2774622440338135 L 14.0 -0.2774622440338135 L 14.0 -0.2576434910297394 L 13.0 -0.2576434910297394 L 13.0 -0.23782476782798767 L 12.0 -0.23782476782798767 L 12.0 -0.21800604462623596 L 11.0 -0.21800604462623596 L 11.0 -0.19818732142448425 L 10.0 -0.19818732142448425 L 10.0 -0.17836859822273254 L 9.0 -0.17836859822273254 L 9.0 -0.15854984521865845 L 8.0 -0.15854984521865845 L 8.0 -0.13873112201690674 L 7.0 -0.13873112201690674 L 7.0 -0.11891238391399384 L 6.0 -0.11891238391399384 L 6.0 -0.09909366071224213 L 5.0 -0.09909366071224213 L 5.0 -0.07927492260932922 L 4.0 -0.07927492260932922 L 4.0 -0.05945619195699692 L 3.0 -0.05945619195699692 L 3.0 -0.03963746130466461 L 2.0 -0.03963746130466461 L 2.0 -0.019818730652332306 L 1.0 -0.019818730652332306 L 1.0 0.0 L 0.0 0.0 Z" style="vector-effect: non-scaling-stroke;" /></g></g><g style="stroke: black;stroke-width: 1.2000000000000002;" transform="matrix(1.0, 0.0, 0.0, 1.0, 0.0, 0.0)"><path d="M 0.0 -0.0 L 1.0 0.0 L 1.0 -0.019818730652332306 L 2.0 -0.019818730652332306 L 2.0 -0.03963746130466461 L 3.0 -0.03963746130466461 L 3.0 -0.05945619195699692 L 4.0 -0.05945619195699692 L 4.0 -0.07927492260932922 L 5.0 -0.07927492260932922 L 5.0 -0.09909366071224213 L 6.0 -0.09909366071224213 L 6.0 -0.11891238391399384 L 7.0 -0.11891238391399384 L 7.0 -0.13873112201690674 L 8.0 -0.13873112201690674 L 8.0 -0.15854984521865845 L 9.0 -0.15854984521865845 L 9.0 -0.17836859822273254 L 10.0 -0.17836859822273254 L 10.0 -0.19818732142448425 L 11.0 -0.19818732142448425 L 11.0 -0.21800604462623596 L 12.0 -0.21800604462623596 L 12.0 -0.23782476782798767 L 13.0 -0.23782476782798767 L 13.0 -0.2576434910297394 L 14.0 -0.2576434910297394 L 14.0 -0.2774622440338135 L 15.0 -0.2774622440338135 L 15.0 -0.2972809970378876 L 16.0 -0.2972809970378876 L 16.0 -0.3170996904373169 L 17.0 -0.3170996904373169 L 17.0 -0.336918443441391 L 18.0 -0.336918443441391 L 18.0 -0.3567371964454651 L 19.0 -0.3567371964454651 L 19.0 -0.3765558898448944 L 20.0 -0.3765558898448944 L 20.0 -0.3963746428489685 L 21.0 -0.3963746428489685 L 21.0 -0.4161933362483978 L 22.0 -0.4161933362483978 L 22.0 -0.4360120892524719 L 23.0 -0.4360120892524719 L 23.0 -0.455830842256546 L 24.0 -0.455830842256546 L 24.0 -0.47564953565597534 L 25.0 -0.47564953565597534 L 25.0 -0.49546828866004944 L 26.0 -0.49546828866004944 L 26.0 -0.5152869820594788 L 27.0 -0.5152869820594788 L 27.0 -0.5351057648658752 L 28.0 -0.5351057648658752 L 28.0 -0.554924488067627 L 29.0 -0.554924488067627 L 29.0 -0.5747432112693787 L 30.0 -0.5747432112693787 L 30.0 -0.5945619940757751 L 31.0 -0.5945619940757751 L 31.0 -0.6143806576728821 L 32.0 -0.6143806576728821 L 32.0 -0.6341993808746338 L 33.0 -0.6341993808746338 L 33.0 -0.6540181636810303 L 34.0 -0.6540181636810303 L 34.0 -0.673836886882782 L 35.0 -0.673836886882782 L 35.0 -0.6936556100845337 L 36.0 -0.6936556100845337 L 36.0 -0.7134743928909302 L 37.0 -0.7134743928909302 L 37.0 -0.7332930564880371 L 38.0 -0.7332930564880371 L 38.0 -0.7531117796897888 L 39.0 -0.7531117796897888 L 39.0 -0.7729305028915405 L 40.0 -0.7729305028915405 L 40.0 -0.792749285697937 L 41.0 -0.792749285697937 L 41.0 -0.8125680088996887 L 42.0 -0.8125680088996887 L 42.0 -0.8323866724967957 L 43.0 -0.8323866724967957 L 43.0 -0.8522054553031921 L 44.0 -0.8522054553031921 L 44.0 -0.8720241785049438 L 45.0 -0.8720241785049438 L 45.0 -0.8918429017066956 L 46.0 -0.8918429017066956 L 46.0 -0.911661684513092 L 47.0 -0.911661684513092 L 47.0 -0.9314804077148438 L 48.0 -0.9314804077148438 L 48.0 -0.9512990713119507 L 49.0 -0.9512990713119507 L 49.0 -0.9711178541183472 L 50.0 -0.9711178541183472" style="vector-effect: non-scaling-stroke;fill:none;" /></g></g></g></g></g></g><g transform="matrix(1.0, 0.0, 0.0, 1.0, -0.24999999999999994, 0.16)"><g transform="matrix(1.0, 0.0, 0.0, 0.009999999999999995, 0.0, 0.0)"><g transform="matrix(0.01, 0.0, 0.0, 1.0, 0.0, 0.0)"><g><g><g style="fill: #ffffe0;stroke: #ffffe0;stroke-width: 1.2000000000000002;fill-opacity: 0.5;" transform="matrix(1.0, 0.0, 0.0, 1.0, 0.0, 0.0)"><path d="M 0.0 -2.0 L 0.0 2.0" style="vector-effect: non-scaling-stroke;fill:none;" /></g><g style="fill: #ffffe0;stroke: #ffffe0;stroke-width: 1.2000000000000002;fill-opacity: 0.5;" transform="matrix(1.0, 0.0, 0.0, 1.0, 0.0, 0.0)"><path d="M 0.0 -0.0 L 1.0 0.0 L 1.0 -0.05986560136079788 L 2.0 -0.05986560136079788 L 2.0 -0.11973120272159576 L 3.0 -0.11973120272159576 L 3.0 -0.17978307604789734 L 4.0 -0.17978307604789734 L 4.0 -0.23946240544319153 L 5.0 -0.23946240544319153 L 5.0 -0.2995142936706543 L 6.0 -0.2995142936706543 L 6.0 -0.3595661520957947 L 7.0 -0.3595661520957947 L 7.0 -0.4188729524612427 L 8.0 -0.4188729524612427 L 8.0 -0.47892481088638306 L 9.0 -0.47892481088638306 L 9.0 -0.5374865531921387 L 10.0 -0.5374865531921387 L 10.0 -0.5990285873413086 L 11.0 -0.5990285873413086 L 11.0 -0.6590803861618042 L 12.0 -0.6590803861618042 L 12.0 -0.7191323041915894 L 13.0 -0.7191323041915894 L 13.0 -0.779184103012085 L 14.0 -0.779184103012085 L 14.0 -0.8377459049224854 L 15.0 -0.8377459049224854 L 15.0 -0.8963077068328857 L 16.0 -0.8963077068328857 L 16.0 -0.9578496217727661 L 17.0 -0.9578496217727661 L 17.0 -1.0164114236831665 L 18.0 -1.0164114236831665 L 18.0 -1.0749731063842773 L 19.0 -1.0749731063842773 L 19.0 -1.1394953727722168 L 20.0 -1.1394953727722168 L 20.0 -1.1980571746826172 L 21.0 -1.1980571746826172 L 21.0 -1.2595990896224976 L 22.0 -1.2595990896224976 L 22.0 -1.3181607723236084 L 23.0 -1.3181607723236084 L 23.0 -1.3767225742340088 L 24.0 -1.3767225742340088 L 24.0 -1.4382646083831787 L 25.0 -1.4382646083831787 L 25.0 -1.4968262910842896 L 26.0 -1.4968262910842896 L 26.0 -1.55836820602417 L 27.0 -1.55836820602417 L 27.0 -1.6199102401733398 L 28.0 -1.6199102401733398 L 28.0 -1.6754918098449707 L 29.0 -1.6754918098449707 L 29.0 -1.7370338439941406 L 30.0 -1.7370338439941406 L 30.0 -1.7926154136657715 L 31.0 -1.7926154136657715 L 31.0 -1.8601176738739014 L 32.0 -1.8601176738739014 L 32.0 -1.9156992435455322 L 33.0 -1.9156992435455322 L 33.0 -1.9772412776947021 L 34.0 -1.9772412776947021 L 34.0 -2.0 L 35.0 -2.0 L 35.0 -2.0 L 36.0 -2.0 L 36.0 -2.0 L 37.0 -2.0 L 37.0 -2.0 L 38.0 -2.0 L 38.0 -2.0 L 39.0 -2.0 L 39.0 -2.0 L 40.0 -2.0 L 40.0 -2.0 L 41.0 -2.0 L 41.0 -2.0 L 42.0 -2.0 L 42.0 -2.0 L 43.0 -2.0 L 43.0 -2.0 L 44.0 -2.0 L 44.0 -2.0 L 45.0 -2.0 L 45.0 -2.0 L 46.0 -2.0 L 46.0 -2.0 L 47.0 -2.0 L 47.0 -2.0 L 48.0 -2.0 L 48.0 -2.0 L 49.0 -2.0 L 49.0 -2.0 L 50.0 -2.0 L 50.0 -0.9711178541183472 L 49.0 -0.9711178541183472 L 49.0 -0.9512990713119507 L 48.0 -0.9512990713119507 L 48.0 -0.9314804077148438 L 47.0 -0.9314804077148438 L 47.0 -0.911661684513092 L 46.0 -0.911661684513092 L 46.0 -0.8918429017066956 L 45.0 -0.8918429017066956 L 45.0 -0.8720241785049438 L 44.0 -0.8720241785049438 L 44.0 -0.8522054553031921 L 43.0 -0.8522054553031921 L 43.0 -0.8323866724967957 L 42.0 -0.8323866724967957 L 42.0 -0.8125680088996887 L 41.0 -0.8125680088996887 L 41.0 -0.792749285697937 L 40.0 -0.792749285697937 L 40.0 -0.7729305028915405 L 39.0 -0.7729305028915405 L 39.0 -0.7531117796897888 L 38.0 -0.7531117796897888 L 38.0 -0.7332930564880371 L 37.0 -0.7332930564880371 L 37.0 -0.7134743928909302 L 36.0 -0.7134743928909302 L 36.0 -0.6936556100845337 L 35.0 -0.6936556100845337 L 35.0 -0.673836886882782 L 34.0 -0.673836886882782 L 34.0 -0.6540181636810303 L 33.0 -0.6540181636810303 L 33.0 -0.6341993808746338 L 32.0 -0.6341993808746338 L 32.0 -0.6143806576728821 L 31.0 -0.6143806576728821 L 31.0 -0.5945619940757751 L 30.0 -0.5945619940757751 L 30.0 -0.5747432112693787 L 29.0 -0.5747432112693787 L 29.0 -0.554924488067627 L 28.0 -0.554924488067627 L 28.0 -0.5351057648658752 L 27.0 -0.5351057648658752 L 27.0 -0.5152869820594788 L 26.0 -0.5152869820594788 L 26.0 -0.49546828866004944 L 25.0 -0.49546828866004944 L 25.0 -0.47564953565597534 L 24.0 -0.47564953565597534 L 24.0 -0.455830842256546 L 23.0 -0.455830842256546 L 23.0 -0.4360120892524719 L 22.0 -0.4360120892524719 L 22.0 -0.4161933362483978 L 21.0 -0.4161933362483978 L 21.0 -0.3963746428489685 L 20.0 -0.3963746428489685 L 20.0 -0.3765558898448944 L 19.0 -0.3765558898448944 L 19.0 -0.3567371964454651 L 18.0 -0.3567371964454651 L 18.0 -0.336918443441391 L 17.0 -0.336918443441391 L 17.0 -0.3170996904373169 L 16.0 -0.3170996904373169 L 16.0 -0.2972809970378876 L 15.0 -0.2972809970378876 L 15.0 -0.2774622440338135 L 14.0 -0.2774622440338135 L 14.0 -0.2576434910297394 L 13.0 -0.2576434910297394 L 13.0 -0.23782476782798767 L 12.0 -0.23782476782798767 L 12.0 -0.21800604462623596 L 11.0 -0.21800604462623596 L 11.0 -0.19818732142448425 L 10.0 -0.19818732142448425 L 10.0 -0.17836859822273254 L 9.0 -0.17836859822273254 L 9.0 -0.15854984521865845 L 8.0 -0.15854984521865845 L 8.0 -0.13873112201690674 L 7.0 -0.13873112201690674 L 7.0 -0.11891238391399384 L 6.0 -0.11891238391399384 L 6.0 -0.09909366071224213 L 5.0 -0.09909366071224213 L 5.0 -0.07927492260932922 L 4.0 -0.07927492260932922 L 4.0 -0.05945619195699692 L 3.0 -0.05945619195699692 L 3.0 -0.03963746130466461 L 2.0 -0.03963746130466461 L 2.0 -0.019818730652332306 L 1.0 -0.019818730652332306 L 1.0 0.0 L 0.0 0.0 Z" style="vector-effect: non-scaling-stroke;" /></g></g><g style="stroke: black;stroke-width: 1.2000000000000002;" transform="matrix(1.0, 0.0, 0.0, 1.0, 0.0, 0.0)"><path d="M 0.0 -0.0 L 1.0 0.0 L 1.0 -0.019818730652332306 L 2.0 -0.019818730652332306 L 2.0 -0.03963746130466461 L 3.0 -0.03963746130466461 L 3.0 -0.05945619195699692 L 4.0 -0.05945619195699692 L 4.0 -0.07927492260932922 L 5.0 -0.07927492260932922 L 5.0 -0.09909366071224213 L 6.0 -0.09909366071224213 L 6.0 -0.11891238391399384 L 7.0 -0.11891238391399384 L 7.0 -0.13873112201690674 L 8.0 -0.13873112201690674 L 8.0 -0.15854984521865845 L 9.0 -0.15854984521865845 L 9.0 -0.17836859822273254 L 10.0 -0.17836859822273254 L 10.0 -0.19818732142448425 L 11.0 -0.19818732142448425 L 11.0 -0.21800604462623596 L 12.0 -0.21800604462623596 L 12.0 -0.23782476782798767 L 13.0 -0.23782476782798767 L 13.0 -0.2576434910297394 L 14.0 -0.2576434910297394 L 14.0 -0.2774622440338135 L 15.0 -0.2774622440338135 L 15.0 -0.2972809970378876 L 16.0 -0.2972809970378876 L 16.0 -0.3170996904373169 L 17.0 -0.3170996904373169 L 17.0 -0.336918443441391 L 18.0 -0.336918443441391 L 18.0 -0.3567371964454651 L 19.0 -0.3567371964454651 L 19.0 -0.3765558898448944 L 20.0 -0.3765558898448944 L 20.0 -0.3963746428489685 L 21.0 -0.3963746428489685 L 21.0 -0.4161933362483978 L 22.0 -0.4161933362483978 L 22.0 -0.4360120892524719 L 23.0 -0.4360120892524719 L 23.0 -0.455830842256546 L 24.0 -0.455830842256546 L 24.0 -0.47564953565597534 L 25.0 -0.47564953565597534 L 25.0 -0.49546828866004944 L 26.0 -0.49546828866004944 L 26.0 -0.5152869820594788 L 27.0 -0.5152869820594788 L 27.0 -0.5351057648658752 L 28.0 -0.5351057648658752 L 28.0 -0.554924488067627 L 29.0 -0.554924488067627 L 29.0 -0.5747432112693787 L 30.0 -0.5747432112693787 L 30.0 -0.5945619940757751 L 31.0 -0.5945619940757751 L 31.0 -0.6143806576728821 L 32.0 -0.6143806576728821 L 32.0 -0.6341993808746338 L 33.0 -0.6341993808746338 L 33.0 -0.6540181636810303 L 34.0 -0.6540181636810303 L 34.0 -0.673836886882782 L 35.0 -0.673836886882782 L 35.0 -0.6936556100845337 L 36.0 -0.6936556100845337 L 36.0 -0.7134743928909302 L 37.0 -0.7134743928909302 L 37.0 -0.7332930564880371 L 38.0 -0.7332930564880371 L 38.0 -0.7531117796897888 L 39.0 -0.7531117796897888 L 39.0 -0.7729305028915405 L 40.0 -0.7729305028915405 L 40.0 -0.792749285697937 L 41.0 -0.792749285697937 L 41.0 -0.8125680088996887 L 42.0 -0.8125680088996887 L 42.0 -0.8323866724967957 L 43.0 -0.8323866724967957 L 43.0 -0.8522054553031921 L 44.0 -0.8522054553031921 L 44.0 -0.8720241785049438 L 45.0 -0.8720241785049438 L 45.0 -0.8918429017066956 L 46.0 -0.8918429017066956 L 46.0 -0.911661684513092 L 47.0 -0.911661684513092 L 47.0 -0.9314804077148438 L 48.0 -0.9314804077148438 L 48.0 -0.9512990713119507 L 49.0 -0.9512990713119507 L 49.0 -0.9711178541183472 L 50.0 -0.9711178541183472" style="vector-effect: non-scaling-stroke;fill:none;" /></g></g></g></g></g></g></g></g><g><g><g><g><g transform="matrix(1.0, 0.0, 0.0, 1.0, -0.08, -0.03)"><g transform="matrix(1.0, 0.0, 0.0, 1.0, 0.075, 0.0)"><g transform="matrix(1.0, 0.0, 0.0, 1.0, 0.0, 0.03)"><g transform="matrix(0.01, 0.0, 0.0, 0.01, 0.0, 0.0)"><g><g><g transform="matrix(1.0, 0.0, 0.0, 1.0, 0.5, 0.0)"><g transform="matrix(1.0, 0.0, 0.0, 1.0, -8.0, -0.0)"><g><g style="fill: #d3d3d3;stroke: black;stroke-width: 1.2000000000000002;" transform="matrix(1.0, 0.0, 0.0, 1.0, 0.0, -3.0)"><path d="M 0.0 0.0 L 16.0 0.0 L 16.0 6.0 L 0.0 6.0 L 0.0 0.0 Z" style="vector-effect: non-scaling-stroke;" /></g><g transform="matrix(1.0, 0.0, 0.0, 1.0, 1.875, 0.0)"><g><g style="stroke: black;stroke-width: 1.2000000000000002;" transform="matrix(1.0, 0.0, 0.0, 1.0, 0.0, 0.0)"><g /></g><g style="fill: #ffa500;stroke: black;stroke-width: 1.2000000000000002;" transform="matrix(1.0, 0.0, 0.0, 1.0, 1.875, 0.0)"><text style="text-align:center; text-anchor:middle; dominant-baseline:middle;&#10;                      font-family:sans-serif; font-weight: bold;&#10;                      font-size:3px;&#10;                      vector-effect: non-scaling-stroke;" transform="translate(-5e-05, 0)">x</text></g></g></g></g></g></g><g><g><g><g style="stroke: black;stroke-width: 1.2000000000000002;" transform="matrix(1.0, 0.0, 0.0, 1.0, 0.0, 0.0)"><path d="M 0.0 -2.0 L 0.0 2.0" style="vector-effect: non-scaling-stroke;fill:none;" /></g><g style="stroke: #808080;stroke-width: 0.6000000000000001;" transform="matrix(1.0, 0.0, 0.0, 1.0, 0.0, 0.0)"><path d="M 0.0 0.0 L 1.0 0.0" style="vector-effect: non-scaling-stroke;fill:none;" /></g></g><g style="stroke: black;stroke-width: 2.4000000000000004;" transform="matrix(1.0, 0.0, 0.0, 1.0, 0.0, 0.0)"><path d="M 0.0 -0.9909365773200989 L 1.0 -0.9909365773200989" style="vector-effect: non-scaling-stroke;fill:none;" /></g></g></g></g><g><g><g><g style="stroke: black;stroke-width: 1.2000000000000002;" transform="matrix(1.0, 0.0, 0.0, 1.0, 0.0, 0.0)"><path d="M 0.0 -2.0 L 0.0 2.0" style="vector-effect: non-scaling-stroke;fill:none;" /></g><g style="stroke: #808080;stroke-width: 0.6000000000000001;" transform="matrix(1.0, 0.0, 0.0, 1.0, 0.0, 0.0)"><path d="M 0.0 0.0 L 1.0 0.0" style="vector-effect: non-scaling-stroke;fill:none;" /></g></g><g style="stroke: black;stroke-width: 2.4000000000000004;" transform="matrix(1.0, 0.0, 0.0, 1.0, 0.0, 0.0)"><path d="M 0.0 -0.9909365773200989 L 1.0 -0.9909365773200989" style="vector-effect: non-scaling-stroke;fill:none;" /></g></g></g></g></g></g></g></g><g style="stroke: black;stroke-width: 1.2000000000000002;" transform="matrix(0.0, -1.0, 1.0, 0.0, 0.0, 0.08)"><g /></g></g><g transform="matrix(1.0, 0.0, 0.0, 1.0, 0.0, 0.16)"><g transform="matrix(1.0, 0.0, 0.0, 1.0, -0.32499999999999996, -0.03)"><g transform="matrix(1.0, 0.0, 0.0, 1.0, 0.075, 0.0)"><g transform="matrix(1.0, 0.0, 0.0, 1.0, 0.0, 0.03)"><g transform="matrix(0.01, 0.0, 0.0, 0.01, 0.0, 0.0)"><g><g><g transform="matrix(1.0, 0.0, 0.0, 1.0, 25.0, 0.0)"><g transform="matrix(1.0, 0.0, 0.0, 1.0, -32.5, -0.0)"><g><g style="fill: #d3d3d3;stroke: black;stroke-width: 1.2000000000000002;" transform="matrix(1.0, 0.0, 0.0, 1.0, 0.0, -3.0)"><path d="M 0.0 0.0 L 65.0 0.0 L 65.0 6.0 L 0.0 6.0 L 0.0 0.0 Z" style="vector-effect: non-scaling-stroke;" /></g><g transform="matrix(1.0, 0.0, 0.0, 1.0, 1.875, 0.0)"><g><g style="stroke: black;stroke-width: 1.2000000000000002;" transform="matrix(1.0, 0.0, 0.0, 1.0, 0.0, 0.0)"><g /></g><g style="fill: #ffa500;stroke: black;stroke-width: 1.2000000000000002;" transform="matrix(1.0, 0.0, 0.0, 1.0, 1.875, 0.0)"><text style="text-align:center; text-anchor:middle; dominant-baseline:middle;&#10;                      font-family:sans-serif; font-weight: bold;&#10;                      font-size:3px;&#10;                      vector-effect: non-scaling-stroke;" transform="translate(-5e-05, 0)">f(x)</text></g></g></g></g></g></g><g><g><g><g style="stroke: black;stroke-width: 1.2000000000000002;" transform="matrix(1.0, 0.0, 0.0, 1.0, 0.0, 0.0)"><path d="M 0.0 -2.0 L 0.0 2.0" style="vector-effect: non-scaling-stroke;fill:none;" /></g><g style="stroke: #808080;stroke-width: 0.6000000000000001;" transform="matrix(1.0, 0.0, 0.0, 1.0, 0.0, 0.0)"><path d="M 0.0 0.0 L 50.0 0.0" style="vector-effect: non-scaling-stroke;fill:none;" /></g></g><g style="stroke: black;stroke-width: 2.4000000000000004;" transform="matrix(1.0, 0.0, 0.0, 1.0, 0.0, 0.0)"><path d="M 0.0 -0.0 L 1.0 0.0 L 1.0 -0.019818730652332306 L 2.0 -0.019818730652332306 L 2.0 -0.03963746130466461 L 3.0 -0.03963746130466461 L 3.0 -0.05945619195699692 L 4.0 -0.05945619195699692 L 4.0 -0.07927492260932922 L 5.0 -0.07927492260932922 L 5.0 -0.09909366071224213 L 6.0 -0.09909366071224213 L 6.0 -0.11891238391399384 L 7.0 -0.11891238391399384 L 7.0 -0.13873112201690674 L 8.0 -0.13873112201690674 L 8.0 -0.15854984521865845 L 9.0 -0.15854984521865845 L 9.0 -0.17836859822273254 L 10.0 -0.17836859822273254 L 10.0 -0.19818732142448425 L 11.0 -0.19818732142448425 L 11.0 -0.21800604462623596 L 12.0 -0.21800604462623596 L 12.0 -0.23782476782798767 L 13.0 -0.23782476782798767 L 13.0 -0.2576434910297394 L 14.0 -0.2576434910297394 L 14.0 -0.2774622440338135 L 15.0 -0.2774622440338135 L 15.0 -0.2972809970378876 L 16.0 -0.2972809970378876 L 16.0 -0.3170996904373169 L 17.0 -0.3170996904373169 L 17.0 -0.336918443441391 L 18.0 -0.336918443441391 L 18.0 -0.3567371964454651 L 19.0 -0.3567371964454651 L 19.0 -0.3765558898448944 L 20.0 -0.3765558898448944 L 20.0 -0.3963746428489685 L 21.0 -0.3963746428489685 L 21.0 -0.4161933362483978 L 22.0 -0.4161933362483978 L 22.0 -0.4360120892524719 L 23.0 -0.4360120892524719 L 23.0 -0.455830842256546 L 24.0 -0.455830842256546 L 24.0 -0.47564953565597534 L 25.0 -0.47564953565597534 L 25.0 -0.49546828866004944 L 26.0 -0.49546828866004944 L 26.0 -0.5152869820594788 L 27.0 -0.5152869820594788 L 27.0 -0.5351057648658752 L 28.0 -0.5351057648658752 L 28.0 -0.554924488067627 L 29.0 -0.554924488067627 L 29.0 -0.5747432112693787 L 30.0 -0.5747432112693787 L 30.0 -0.5945619940757751 L 31.0 -0.5945619940757751 L 31.0 -0.6143806576728821 L 32.0 -0.6143806576728821 L 32.0 -0.6341993808746338 L 33.0 -0.6341993808746338 L 33.0 -0.6540181636810303 L 34.0 -0.6540181636810303 L 34.0 -0.673836886882782 L 35.0 -0.673836886882782 L 35.0 -0.6936556100845337 L 36.0 -0.6936556100845337 L 36.0 -0.7134743928909302 L 37.0 -0.7134743928909302 L 37.0 -0.7332930564880371 L 38.0 -0.7332930564880371 L 38.0 -0.7531117796897888 L 39.0 -0.7531117796897888 L 39.0 -0.7729305028915405 L 40.0 -0.7729305028915405 L 40.0 -0.792749285697937 L 41.0 -0.792749285697937 L 41.0 -0.8125680088996887 L 42.0 -0.8125680088996887 L 42.0 -0.8323866724967957 L 43.0 -0.8323866724967957 L 43.0 -0.8522054553031921 L 44.0 -0.8522054553031921 L 44.0 -0.8720241785049438 L 45.0 -0.8720241785049438 L 45.0 -0.8918429017066956 L 46.0 -0.8918429017066956 L 46.0 -0.911661684513092 L 47.0 -0.911661684513092 L 47.0 -0.9314804077148438 L 48.0 -0.9314804077148438 L 48.0 -0.9512990713119507 L 49.0 -0.9512990713119507 L 49.0 -0.9711178541183472 L 50.0 -0.9711178541183472" style="vector-effect: non-scaling-stroke;fill:none;" /></g></g></g></g><g><g><g><g style="stroke: black;stroke-width: 1.2000000000000002;" transform="matrix(1.0, 0.0, 0.0, 1.0, 0.0, 0.0)"><path d="M 0.0 -2.0 L 0.0 2.0" style="vector-effect: non-scaling-stroke;fill:none;" /></g><g style="stroke: #808080;stroke-width: 0.6000000000000001;" transform="matrix(1.0, 0.0, 0.0, 1.0, 0.0, 0.0)"><path d="M 0.0 0.0 L 50.0 0.0" style="vector-effect: non-scaling-stroke;fill:none;" /></g></g><g style="stroke: black;stroke-width: 2.4000000000000004;" transform="matrix(1.0, 0.0, 0.0, 1.0, 0.0, 0.0)"><path d="M 0.0 -0.0 L 1.0 0.0 L 1.0 -0.019818730652332306 L 2.0 -0.019818730652332306 L 2.0 -0.03963746130466461 L 3.0 -0.03963746130466461 L 3.0 -0.05945619195699692 L 4.0 -0.05945619195699692 L 4.0 -0.07927492260932922 L 5.0 -0.07927492260932922 L 5.0 -0.09909366071224213 L 6.0 -0.09909366071224213 L 6.0 -0.11891238391399384 L 7.0 -0.11891238391399384 L 7.0 -0.13873112201690674 L 8.0 -0.13873112201690674 L 8.0 -0.15854984521865845 L 9.0 -0.15854984521865845 L 9.0 -0.17836859822273254 L 10.0 -0.17836859822273254 L 10.0 -0.19818732142448425 L 11.0 -0.19818732142448425 L 11.0 -0.21800604462623596 L 12.0 -0.21800604462623596 L 12.0 -0.23782476782798767 L 13.0 -0.23782476782798767 L 13.0 -0.2576434910297394 L 14.0 -0.2576434910297394 L 14.0 -0.2774622440338135 L 15.0 -0.2774622440338135 L 15.0 -0.2972809970378876 L 16.0 -0.2972809970378876 L 16.0 -0.3170996904373169 L 17.0 -0.3170996904373169 L 17.0 -0.336918443441391 L 18.0 -0.336918443441391 L 18.0 -0.3567371964454651 L 19.0 -0.3567371964454651 L 19.0 -0.3765558898448944 L 20.0 -0.3765558898448944 L 20.0 -0.3963746428489685 L 21.0 -0.3963746428489685 L 21.0 -0.4161933362483978 L 22.0 -0.4161933362483978 L 22.0 -0.4360120892524719 L 23.0 -0.4360120892524719 L 23.0 -0.455830842256546 L 24.0 -0.455830842256546 L 24.0 -0.47564953565597534 L 25.0 -0.47564953565597534 L 25.0 -0.49546828866004944 L 26.0 -0.49546828866004944 L 26.0 -0.5152869820594788 L 27.0 -0.5152869820594788 L 27.0 -0.5351057648658752 L 28.0 -0.5351057648658752 L 28.0 -0.554924488067627 L 29.0 -0.554924488067627 L 29.0 -0.5747432112693787 L 30.0 -0.5747432112693787 L 30.0 -0.5945619940757751 L 31.0 -0.5945619940757751 L 31.0 -0.6143806576728821 L 32.0 -0.6143806576728821 L 32.0 -0.6341993808746338 L 33.0 -0.6341993808746338 L 33.0 -0.6540181636810303 L 34.0 -0.6540181636810303 L 34.0 -0.673836886882782 L 35.0 -0.673836886882782 L 35.0 -0.6936556100845337 L 36.0 -0.6936556100845337 L 36.0 -0.7134743928909302 L 37.0 -0.7134743928909302 L 37.0 -0.7332930564880371 L 38.0 -0.7332930564880371 L 38.0 -0.7531117796897888 L 39.0 -0.7531117796897888 L 39.0 -0.7729305028915405 L 40.0 -0.7729305028915405 L 40.0 -0.792749285697937 L 41.0 -0.792749285697937 L 41.0 -0.8125680088996887 L 42.0 -0.8125680088996887 L 42.0 -0.8323866724967957 L 43.0 -0.8323866724967957 L 43.0 -0.8522054553031921 L 44.0 -0.8522054553031921 L 44.0 -0.8720241785049438 L 45.0 -0.8720241785049438 L 45.0 -0.8918429017066956 L 46.0 -0.8918429017066956 L 46.0 -0.911661684513092 L 47.0 -0.911661684513092 L 47.0 -0.9314804077148438 L 48.0 -0.9314804077148438 L 48.0 -0.9512990713119507 L 49.0 -0.9512990713119507 L 49.0 -0.9711178541183472 L 50.0 -0.9711178541183472" style="vector-effect: non-scaling-stroke;fill:none;" /></g></g></g></g></g></g></g></g></g></g><g transform="matrix(1.0, 0.0, 0.0, 1.0, -0.24999999999999994, 0.16)"><g transform="matrix(1.0, 0.0, 0.0, 0.009999999999999995, 0.0, 0.0)"><g transform="matrix(0.01, 0.0, 0.0, 1.0, 0.0, 0.0)"><g><g><g style="fill: #ff0000;stroke: #ff0000;stroke-width: 1.2000000000000002;fill-opacity: 0.5;" transform="matrix(1.0, 0.0, 0.0, 1.0, 0.0, 0.0)"><path d="M 0.0 -2.0 L 0.0 2.0" style="vector-effect: non-scaling-stroke;fill:none;" /></g><g style="fill: #ff0000;stroke: #ff0000;stroke-width: 1.2000000000000002;fill-opacity: 0.5;" transform="matrix(1.0, 0.0, 0.0, 1.0, 0.0, 0.0)"><path d="M 0.0 -0.0 L 1.0 0.0 L 1.0 -0.019818730652332306 L 2.0 -0.019818730652332306 L 2.0 -0.03963746130466461 L 3.0 -0.03963746130466461 L 3.0 -0.05945619195699692 L 4.0 -0.05945619195699692 L 4.0 -0.07927492260932922 L 5.0 -0.07927492260932922 L 5.0 -0.09909366071224213 L 6.0 -0.09909366071224213 L 6.0 -0.11891238391399384 L 7.0 -0.11891238391399384 L 7.0 -0.13873112201690674 L 8.0 -0.13873112201690674 L 8.0 -0.15854984521865845 L 9.0 -0.15854984521865845 L 9.0 -0.17836859822273254 L 10.0 -0.17836859822273254 L 10.0 -0.19818732142448425 L 11.0 -0.19818732142448425 L 11.0 -0.21800604462623596 L 12.0 -0.21800604462623596 L 12.0 -0.23782476782798767 L 13.0 -0.23782476782798767 L 13.0 -0.2576434910297394 L 14.0 -0.2576434910297394 L 14.0 -0.2774622440338135 L 15.0 -0.2774622440338135 L 15.0 -0.2972809970378876 L 16.0 -0.2972809970378876 L 16.0 -0.3170996904373169 L 17.0 -0.3170996904373169 L 17.0 -0.336918443441391 L 18.0 -0.336918443441391 L 18.0 -0.3567371964454651 L 19.0 -0.3567371964454651 L 19.0 -0.3765558898448944 L 20.0 -0.3765558898448944 L 20.0 -0.3963746428489685 L 21.0 -0.3963746428489685 L 21.0 -0.4161933362483978 L 22.0 -0.4161933362483978 L 22.0 -0.4360120892524719 L 23.0 -0.4360120892524719 L 23.0 -0.455830842256546 L 24.0 -0.455830842256546 L 24.0 -0.47564953565597534 L 25.0 -0.47564953565597534 L 25.0 -0.49546828866004944 L 26.0 -0.49546828866004944 L 26.0 -0.5152869820594788 L 27.0 -0.5152869820594788 L 27.0 -0.5351057648658752 L 28.0 -0.5351057648658752 L 28.0 -0.554924488067627 L 29.0 -0.554924488067627 L 29.0 -0.5747432112693787 L 30.0 -0.5747432112693787 L 30.0 -0.5945619940757751 L 31.0 -0.5945619940757751 L 31.0 -0.6143806576728821 L 32.0 -0.6143806576728821 L 32.0 -0.6341993808746338 L 33.0 -0.6341993808746338 L 33.0 -0.6540181636810303 L 34.0 -0.6540181636810303 L 34.0 -0.673836886882782 L 35.0 -0.673836886882782 L 35.0 -0.6936556100845337 L 36.0 -0.6936556100845337 L 36.0 -0.7134743928909302 L 37.0 -0.7134743928909302 L 37.0 -0.7332930564880371 L 38.0 -0.7332930564880371 L 38.0 -0.7531117796897888 L 39.0 -0.7531117796897888 L 39.0 -0.7729305028915405 L 40.0 -0.7729305028915405 L 40.0 -0.792749285697937 L 41.0 -0.792749285697937 L 41.0 -0.8125680088996887 L 42.0 -0.8125680088996887 L 42.0 -0.8323866724967957 L 43.0 -0.8323866724967957 L 43.0 -0.8522054553031921 L 44.0 -0.8522054553031921 L 44.0 -0.8720241785049438 L 45.0 -0.8720241785049438 L 45.0 -0.8918429017066956 L 46.0 -0.8918429017066956 L 46.0 -0.911661684513092 L 47.0 -0.911661684513092 L 47.0 -0.9314804077148438 L 48.0 -0.9314804077148438 L 48.0 -0.9512990713119507 L 49.0 -0.9512990713119507 L 49.0 -0.9711178541183472 L 50.0 -0.9711178541183472 L 50.0 -0.9711178541183472 L 49.0 -0.9711178541183472 L 49.0 -0.9512990713119507 L 48.0 -0.9512990713119507 L 48.0 -0.9314804077148438 L 47.0 -0.9314804077148438 L 47.0 -0.911661684513092 L 46.0 -0.911661684513092 L 46.0 -0.8918429017066956 L 45.0 -0.8918429017066956 L 45.0 -0.8720241785049438 L 44.0 -0.8720241785049438 L 44.0 -0.8522054553031921 L 43.0 -0.8522054553031921 L 43.0 -0.8323866724967957 L 42.0 -0.8323866724967957 L 42.0 -0.8125680088996887 L 41.0 -0.8125680088996887 L 41.0 -0.792749285697937 L 40.0 -0.792749285697937 L 40.0 -0.7729305028915405 L 39.0 -0.7729305028915405 L 39.0 -0.7531117796897888 L 38.0 -0.7531117796897888 L 38.0 -0.7332930564880371 L 37.0 -0.7332930564880371 L 37.0 -0.7134743928909302 L 36.0 -0.7134743928909302 L 36.0 -0.6936556100845337 L 35.0 -0.6936556100845337 L 35.0 -0.673836886882782 L 34.0 -0.673836886882782 L 34.0 -0.6540181636810303 L 33.0 -0.6540181636810303 L 33.0 -0.6341993808746338 L 32.0 -0.6341993808746338 L 32.0 -0.6143806576728821 L 31.0 -0.6143806576728821 L 31.0 -0.5945619940757751 L 30.0 -0.5945619940757751 L 30.0 -0.5747432112693787 L 29.0 -0.5747432112693787 L 29.0 -0.554924488067627 L 28.0 -0.554924488067627 L 28.0 -0.5351057648658752 L 27.0 -0.5351057648658752 L 27.0 -0.5152869820594788 L 26.0 -0.5152869820594788 L 26.0 -0.49546828866004944 L 25.0 -0.49546828866004944 L 25.0 -0.47564953565597534 L 24.0 -0.47564953565597534 L 24.0 -0.455830842256546 L 23.0 -0.455830842256546 L 23.0 -0.4360120892524719 L 22.0 -0.4360120892524719 L 22.0 -0.4161933362483978 L 21.0 -0.4161933362483978 L 21.0 -0.3963746428489685 L 20.0 -0.3963746428489685 L 20.0 -0.3765558898448944 L 19.0 -0.3765558898448944 L 19.0 -0.3567371964454651 L 18.0 -0.3567371964454651 L 18.0 -0.336918443441391 L 17.0 -0.336918443441391 L 17.0 -0.3170996904373169 L 16.0 -0.3170996904373169 L 16.0 -0.2972809970378876 L 15.0 -0.2972809970378876 L 15.0 -0.2774622440338135 L 14.0 -0.2774622440338135 L 14.0 -0.2576434910297394 L 13.0 -0.2576434910297394 L 13.0 -0.23782476782798767 L 12.0 -0.23782476782798767 L 12.0 -0.21800604462623596 L 11.0 -0.21800604462623596 L 11.0 -0.19818732142448425 L 10.0 -0.19818732142448425 L 10.0 -0.17836859822273254 L 9.0 -0.17836859822273254 L 9.0 -0.15854984521865845 L 8.0 -0.15854984521865845 L 8.0 -0.13873112201690674 L 7.0 -0.13873112201690674 L 7.0 -0.11891238391399384 L 6.0 -0.11891238391399384 L 6.0 -0.09909366071224213 L 5.0 -0.09909366071224213 L 5.0 -0.07927492260932922 L 4.0 -0.07927492260932922 L 4.0 -0.05945619195699692 L 3.0 -0.05945619195699692 L 3.0 -0.03963746130466461 L 2.0 -0.03963746130466461 L 2.0 -0.019818730652332306 L 1.0 -0.019818730652332306 L 1.0 0.0 L 0.0 0.0 Z" style="vector-effect: non-scaling-stroke;" /></g></g><g style="stroke: black;stroke-width: 1.2000000000000002;" transform="matrix(1.0, 0.0, 0.0, 1.0, 0.0, 0.0)"><path d="M 0.0 -0.0 L 1.0 0.0 L 1.0 -0.019818730652332306 L 2.0 -0.019818730652332306 L 2.0 -0.03963746130466461 L 3.0 -0.03963746130466461 L 3.0 -0.05945619195699692 L 4.0 -0.05945619195699692 L 4.0 -0.07927492260932922 L 5.0 -0.07927492260932922 L 5.0 -0.09909366071224213 L 6.0 -0.09909366071224213 L 6.0 -0.11891238391399384 L 7.0 -0.11891238391399384 L 7.0 -0.13873112201690674 L 8.0 -0.13873112201690674 L 8.0 -0.15854984521865845 L 9.0 -0.15854984521865845 L 9.0 -0.17836859822273254 L 10.0 -0.17836859822273254 L 10.0 -0.19818732142448425 L 11.0 -0.19818732142448425 L 11.0 -0.21800604462623596 L 12.0 -0.21800604462623596 L 12.0 -0.23782476782798767 L 13.0 -0.23782476782798767 L 13.0 -0.2576434910297394 L 14.0 -0.2576434910297394 L 14.0 -0.2774622440338135 L 15.0 -0.2774622440338135 L 15.0 -0.2972809970378876 L 16.0 -0.2972809970378876 L 16.0 -0.3170996904373169 L 17.0 -0.3170996904373169 L 17.0 -0.336918443441391 L 18.0 -0.336918443441391 L 18.0 -0.3567371964454651 L 19.0 -0.3567371964454651 L 19.0 -0.3765558898448944 L 20.0 -0.3765558898448944 L 20.0 -0.3963746428489685 L 21.0 -0.3963746428489685 L 21.0 -0.4161933362483978 L 22.0 -0.4161933362483978 L 22.0 -0.4360120892524719 L 23.0 -0.4360120892524719 L 23.0 -0.455830842256546 L 24.0 -0.455830842256546 L 24.0 -0.47564953565597534 L 25.0 -0.47564953565597534 L 25.0 -0.49546828866004944 L 26.0 -0.49546828866004944 L 26.0 -0.5152869820594788 L 27.0 -0.5152869820594788 L 27.0 -0.5351057648658752 L 28.0 -0.5351057648658752 L 28.0 -0.554924488067627 L 29.0 -0.554924488067627 L 29.0 -0.5747432112693787 L 30.0 -0.5747432112693787 L 30.0 -0.5945619940757751 L 31.0 -0.5945619940757751 L 31.0 -0.6143806576728821 L 32.0 -0.6143806576728821 L 32.0 -0.6341993808746338 L 33.0 -0.6341993808746338 L 33.0 -0.6540181636810303 L 34.0 -0.6540181636810303 L 34.0 -0.673836886882782 L 35.0 -0.673836886882782 L 35.0 -0.6936556100845337 L 36.0 -0.6936556100845337 L 36.0 -0.7134743928909302 L 37.0 -0.7134743928909302 L 37.0 -0.7332930564880371 L 38.0 -0.7332930564880371 L 38.0 -0.7531117796897888 L 39.0 -0.7531117796897888 L 39.0 -0.7729305028915405 L 40.0 -0.7729305028915405 L 40.0 -0.792749285697937 L 41.0 -0.792749285697937 L 41.0 -0.8125680088996887 L 42.0 -0.8125680088996887 L 42.0 -0.8323866724967957 L 43.0 -0.8323866724967957 L 43.0 -0.8522054553031921 L 44.0 -0.8522054553031921 L 44.0 -0.8720241785049438 L 45.0 -0.8720241785049438 L 45.0 -0.8918429017066956 L 46.0 -0.8918429017066956 L 46.0 -0.911661684513092 L 47.0 -0.911661684513092 L 47.0 -0.9314804077148438 L 48.0 -0.9314804077148438 L 48.0 -0.9512990713119507 L 49.0 -0.9512990713119507 L 49.0 -0.9711178541183472 L 50.0 -0.9711178541183472" style="vector-effect: non-scaling-stroke;fill:none;" /></g></g></g></g></g></g><g transform="matrix(1.0, 0.0, 0.0, 1.0, -0.24999999999999994, 0.16)"><g transform="matrix(1.0, 0.0, 0.0, 0.009999999999999995, 0.0, 0.0)"><g transform="matrix(0.01, 0.0, 0.0, 1.0, 0.0, 0.0)"><g><g><g style="fill: #ffffe0;stroke: #ffffe0;stroke-width: 1.2000000000000002;fill-opacity: 0.5;" transform="matrix(1.0, 0.0, 0.0, 1.0, 0.0, 0.0)"><path d="M 0.0 -2.0 L 0.0 2.0" style="vector-effect: non-scaling-stroke;fill:none;" /></g><g style="fill: #ffffe0;stroke: #ffffe0;stroke-width: 1.2000000000000002;fill-opacity: 0.5;" transform="matrix(1.0, 0.0, 0.0, 1.0, 0.0, 0.0)"><path d="M 0.0 -0.0 L 1.0 0.0 L 1.0 -0.05986560136079788 L 2.0 -0.05986560136079788 L 2.0 -0.11973120272159576 L 3.0 -0.11973120272159576 L 3.0 -0.17978307604789734 L 4.0 -0.17978307604789734 L 4.0 -0.23946240544319153 L 5.0 -0.23946240544319153 L 5.0 -0.2995142936706543 L 6.0 -0.2995142936706543 L 6.0 -0.3595661520957947 L 7.0 -0.3595661520957947 L 7.0 -0.4188729524612427 L 8.0 -0.4188729524612427 L 8.0 -0.47892481088638306 L 9.0 -0.47892481088638306 L 9.0 -0.5374865531921387 L 10.0 -0.5374865531921387 L 10.0 -0.5990285873413086 L 11.0 -0.5990285873413086 L 11.0 -0.6590803861618042 L 12.0 -0.6590803861618042 L 12.0 -0.7191323041915894 L 13.0 -0.7191323041915894 L 13.0 -0.779184103012085 L 14.0 -0.779184103012085 L 14.0 -0.8377459049224854 L 15.0 -0.8377459049224854 L 15.0 -0.8963077068328857 L 16.0 -0.8963077068328857 L 16.0 -0.9578496217727661 L 17.0 -0.9578496217727661 L 17.0 -1.0164114236831665 L 18.0 -1.0164114236831665 L 18.0 -1.0749731063842773 L 19.0 -1.0749731063842773 L 19.0 -1.1394953727722168 L 20.0 -1.1394953727722168 L 20.0 -1.1980571746826172 L 21.0 -1.1980571746826172 L 21.0 -1.2595990896224976 L 22.0 -1.2595990896224976 L 22.0 -1.3181607723236084 L 23.0 -1.3181607723236084 L 23.0 -1.3767225742340088 L 24.0 -1.3767225742340088 L 24.0 -1.4382646083831787 L 25.0 -1.4382646083831787 L 25.0 -1.4968262910842896 L 26.0 -1.4968262910842896 L 26.0 -1.55836820602417 L 27.0 -1.55836820602417 L 27.0 -1.6199102401733398 L 28.0 -1.6199102401733398 L 28.0 -1.6754918098449707 L 29.0 -1.6754918098449707 L 29.0 -1.7370338439941406 L 30.0 -1.7370338439941406 L 30.0 -1.7926154136657715 L 31.0 -1.7926154136657715 L 31.0 -1.8601176738739014 L 32.0 -1.8601176738739014 L 32.0 -1.9156992435455322 L 33.0 -1.9156992435455322 L 33.0 -1.9772412776947021 L 34.0 -1.9772412776947021 L 34.0 -2.0 L 35.0 -2.0 L 35.0 -2.0 L 36.0 -2.0 L 36.0 -2.0 L 37.0 -2.0 L 37.0 -2.0 L 38.0 -2.0 L 38.0 -2.0 L 39.0 -2.0 L 39.0 -2.0 L 40.0 -2.0 L 40.0 -2.0 L 41.0 -2.0 L 41.0 -2.0 L 42.0 -2.0 L 42.0 -2.0 L 43.0 -2.0 L 43.0 -2.0 L 44.0 -2.0 L 44.0 -2.0 L 45.0 -2.0 L 45.0 -2.0 L 46.0 -2.0 L 46.0 -2.0 L 47.0 -2.0 L 47.0 -2.0 L 48.0 -2.0 L 48.0 -2.0 L 49.0 -2.0 L 49.0 -2.0 L 50.0 -2.0 L 50.0 -0.9711178541183472 L 49.0 -0.9711178541183472 L 49.0 -0.9512990713119507 L 48.0 -0.9512990713119507 L 48.0 -0.9314804077148438 L 47.0 -0.9314804077148438 L 47.0 -0.911661684513092 L 46.0 -0.911661684513092 L 46.0 -0.8918429017066956 L 45.0 -0.8918429017066956 L 45.0 -0.8720241785049438 L 44.0 -0.8720241785049438 L 44.0 -0.8522054553031921 L 43.0 -0.8522054553031921 L 43.0 -0.8323866724967957 L 42.0 -0.8323866724967957 L 42.0 -0.8125680088996887 L 41.0 -0.8125680088996887 L 41.0 -0.792749285697937 L 40.0 -0.792749285697937 L 40.0 -0.7729305028915405 L 39.0 -0.7729305028915405 L 39.0 -0.7531117796897888 L 38.0 -0.7531117796897888 L 38.0 -0.7332930564880371 L 37.0 -0.7332930564880371 L 37.0 -0.7134743928909302 L 36.0 -0.7134743928909302 L 36.0 -0.6936556100845337 L 35.0 -0.6936556100845337 L 35.0 -0.673836886882782 L 34.0 -0.673836886882782 L 34.0 -0.6540181636810303 L 33.0 -0.6540181636810303 L 33.0 -0.6341993808746338 L 32.0 -0.6341993808746338 L 32.0 -0.6143806576728821 L 31.0 -0.6143806576728821 L 31.0 -0.5945619940757751 L 30.0 -0.5945619940757751 L 30.0 -0.5747432112693787 L 29.0 -0.5747432112693787 L 29.0 -0.554924488067627 L 28.0 -0.554924488067627 L 28.0 -0.5351057648658752 L 27.0 -0.5351057648658752 L 27.0 -0.5152869820594788 L 26.0 -0.5152869820594788 L 26.0 -0.49546828866004944 L 25.0 -0.49546828866004944 L 25.0 -0.47564953565597534 L 24.0 -0.47564953565597534 L 24.0 -0.455830842256546 L 23.0 -0.455830842256546 L 23.0 -0.4360120892524719 L 22.0 -0.4360120892524719 L 22.0 -0.4161933362483978 L 21.0 -0.4161933362483978 L 21.0 -0.3963746428489685 L 20.0 -0.3963746428489685 L 20.0 -0.3765558898448944 L 19.0 -0.3765558898448944 L 19.0 -0.3567371964454651 L 18.0 -0.3567371964454651 L 18.0 -0.336918443441391 L 17.0 -0.336918443441391 L 17.0 -0.3170996904373169 L 16.0 -0.3170996904373169 L 16.0 -0.2972809970378876 L 15.0 -0.2972809970378876 L 15.0 -0.2774622440338135 L 14.0 -0.2774622440338135 L 14.0 -0.2576434910297394 L 13.0 -0.2576434910297394 L 13.0 -0.23782476782798767 L 12.0 -0.23782476782798767 L 12.0 -0.21800604462623596 L 11.0 -0.21800604462623596 L 11.0 -0.19818732142448425 L 10.0 -0.19818732142448425 L 10.0 -0.17836859822273254 L 9.0 -0.17836859822273254 L 9.0 -0.15854984521865845 L 8.0 -0.15854984521865845 L 8.0 -0.13873112201690674 L 7.0 -0.13873112201690674 L 7.0 -0.11891238391399384 L 6.0 -0.11891238391399384 L 6.0 -0.09909366071224213 L 5.0 -0.09909366071224213 L 5.0 -0.07927492260932922 L 4.0 -0.07927492260932922 L 4.0 -0.05945619195699692 L 3.0 -0.05945619195699692 L 3.0 -0.03963746130466461 L 2.0 -0.03963746130466461 L 2.0 -0.019818730652332306 L 1.0 -0.019818730652332306 L 1.0 0.0 L 0.0 0.0 Z" style="vector-effect: non-scaling-stroke;" /></g></g><g style="stroke: black;stroke-width: 1.2000000000000002;" transform="matrix(1.0, 0.0, 0.0, 1.0, 0.0, 0.0)"><path d="M 0.0 -0.0 L 1.0 0.0 L 1.0 -0.019818730652332306 L 2.0 -0.019818730652332306 L 2.0 -0.03963746130466461 L 3.0 -0.03963746130466461 L 3.0 -0.05945619195699692 L 4.0 -0.05945619195699692 L 4.0 -0.07927492260932922 L 5.0 -0.07927492260932922 L 5.0 -0.09909366071224213 L 6.0 -0.09909366071224213 L 6.0 -0.11891238391399384 L 7.0 -0.11891238391399384 L 7.0 -0.13873112201690674 L 8.0 -0.13873112201690674 L 8.0 -0.15854984521865845 L 9.0 -0.15854984521865845 L 9.0 -0.17836859822273254 L 10.0 -0.17836859822273254 L 10.0 -0.19818732142448425 L 11.0 -0.19818732142448425 L 11.0 -0.21800604462623596 L 12.0 -0.21800604462623596 L 12.0 -0.23782476782798767 L 13.0 -0.23782476782798767 L 13.0 -0.2576434910297394 L 14.0 -0.2576434910297394 L 14.0 -0.2774622440338135 L 15.0 -0.2774622440338135 L 15.0 -0.2972809970378876 L 16.0 -0.2972809970378876 L 16.0 -0.3170996904373169 L 17.0 -0.3170996904373169 L 17.0 -0.336918443441391 L 18.0 -0.336918443441391 L 18.0 -0.3567371964454651 L 19.0 -0.3567371964454651 L 19.0 -0.3765558898448944 L 20.0 -0.3765558898448944 L 20.0 -0.3963746428489685 L 21.0 -0.3963746428489685 L 21.0 -0.4161933362483978 L 22.0 -0.4161933362483978 L 22.0 -0.4360120892524719 L 23.0 -0.4360120892524719 L 23.0 -0.455830842256546 L 24.0 -0.455830842256546 L 24.0 -0.47564953565597534 L 25.0 -0.47564953565597534 L 25.0 -0.49546828866004944 L 26.0 -0.49546828866004944 L 26.0 -0.5152869820594788 L 27.0 -0.5152869820594788 L 27.0 -0.5351057648658752 L 28.0 -0.5351057648658752 L 28.0 -0.554924488067627 L 29.0 -0.554924488067627 L 29.0 -0.5747432112693787 L 30.0 -0.5747432112693787 L 30.0 -0.5945619940757751 L 31.0 -0.5945619940757751 L 31.0 -0.6143806576728821 L 32.0 -0.6143806576728821 L 32.0 -0.6341993808746338 L 33.0 -0.6341993808746338 L 33.0 -0.6540181636810303 L 34.0 -0.6540181636810303 L 34.0 -0.673836886882782 L 35.0 -0.673836886882782 L 35.0 -0.6936556100845337 L 36.0 -0.6936556100845337 L 36.0 -0.7134743928909302 L 37.0 -0.7134743928909302 L 37.0 -0.7332930564880371 L 38.0 -0.7332930564880371 L 38.0 -0.7531117796897888 L 39.0 -0.7531117796897888 L 39.0 -0.7729305028915405 L 40.0 -0.7729305028915405 L 40.0 -0.792749285697937 L 41.0 -0.792749285697937 L 41.0 -0.8125680088996887 L 42.0 -0.8125680088996887 L 42.0 -0.8323866724967957 L 43.0 -0.8323866724967957 L 43.0 -0.8522054553031921 L 44.0 -0.8522054553031921 L 44.0 -0.8720241785049438 L 45.0 -0.8720241785049438 L 45.0 -0.8918429017066956 L 46.0 -0.8918429017066956 L 46.0 -0.911661684513092 L 47.0 -0.911661684513092 L 47.0 -0.9314804077148438 L 48.0 -0.9314804077148438 L 48.0 -0.9512990713119507 L 49.0 -0.9512990713119507 L 49.0 -0.9711178541183472 L 50.0 -0.9711178541183472" style="vector-effect: non-scaling-stroke;fill:none;" /></g></g></g></g></g></g></g></g><g /></g></g></g></g></svg>