<?xml version="1.0" encoding="utf-8" ?>
<svg baseProfile="full" height="300" version="1.1" width="1121" xmlns="http://www.w3.org/2000/svg" xmlns:ev="http://www.w3.org/2001/xml-events" xmlns:xlink="http://www.w3.org/1999/xlink"><defs><marker id="arrow" markerHeight="3.5" markerWidth="5" orient="auto" refX="5.0" refY="1.7"><polygon points="0,0 5,1.75 0,3.5" /></marker></defs><g style="fill:white;"><g transform="matrix(1.0, 0.0, 0.0, 1.0, 560.521784758394, 150.0)"><g transform="matrix(1057.0896459375654, 0.0, 0.0, 1057.0896459375654, 0.0, 0.0)"><g><g transform="matrix(1.0, 0.0, 0.0, 1.0, -0.0, -0.07999999999999999)"><g><g><g style="fill: #ffffff;stroke: black;stroke-width: 1.2000000000000002;" transform="matrix(1.0, 0.0, 0.0, 1.0, -0.505, -0.055141937494277954)"><path d="M 0.0 0.0 L 1.01 0.0 L 1.01 0.2702838749885559 L 0.0 0.2702838749885559 L 0.0 0.0 Z" style="vector-effect: non-scaling-stroke;" /></g><g><g><g><g><g><g><g><g transform="matrix(1.0, 0.0, 0.0, 1.0, -0.45499999999999996, -0.032618281245231626)"><g><g><g transform="matrix(1.0, 0.0, 0.0, 1.0, 0.075, 0.0)"><g transform="matrix(1.0, 0.0, 0.0, 1.0, 0.0, 0.03436380207538605)"><g transform="matrix(0.01, 0.0, 0.0, 0.01, 0.0, 0.0)"><g><g><g transform="matrix(1.0, 0.0, 0.0, 1.0, 24.5, -0.1745520830154419)"><g transform="matrix(1.0, 0.0, 0.0, 1.0, -32.0, -0.0)"><g><g style="fill: #d3d3d3;stroke: black;stroke-width: 1.2000000000000002;" transform="matrix(1.0, 0.0, 0.0, 1.0, 0.0, -3.261828124523163)"><path d="M 0.0 0.0 L 64.0 0.0 L 64.0 6.523656249046326 L 0.0 6.523656249046326 L 0.0 0.0 Z" style="vector-effect: non-scaling-stroke;" /></g><g transform="matrix(1.0, 0.0, 0.0, 1.0, 1.875, 0.0)"><g><g style="stroke: black;stroke-width: 1.2000000000000002;" transform="matrix(1.0, 0.0, 0.0, 1.0, 0.0, 0.0)"><g /></g><g style="fill: #ffa500;stroke: black;stroke-width: 1.2000000000000002;" transform="matrix(1.0, 0.0, 0.0, 1.0, 1.875, 0.0)"><text style="text-align:center; text-anchor:middle; dominant-baseline:middle;&#10;                      font-family:sans-serif; font-weight: bold;&#10;                      font-size:3px;&#10;                      vector-effect: non-scaling-stroke;" transform="translate(-5e-05, 0)">x</text></g></g></g></g></g></g><g><g><g><g><g><g><g><g><g><g><g style="stroke: black;stroke-width: 1.2000000000000002;" transform="matrix(1.0, 0.0, 0.0, 1.0, 0.0, 0.0)"><path d="M 0.0 -2.0 L 0.0 2.0" style="vector-effect: non-scaling-stroke;fill:none;" /></g><g style="stroke: #808080;stroke-width: 0.6000000000000001;" transform="matrix(1.0, 0.0, 0.0, 1.0, 0.0, 0.0)"><path d="M 0.0 0.0 L 49.0 0.0" style="vector-effect: non-scaling-stroke;fill:none;" /></g></g><g style="stroke: black;stroke-width: 2.4000000000000004;" transform="matrix(1.0, 0.0, 0.0, 1.0, 0.0, 0.0)"><path d="M 0.0 -1.3227485418319702 L 1.0 -1.3227485418319702 L 1.0 -1.3909366130828857 L 2.0 -1.3909366130828857 L 2.0 -1.1891024112701416 L 3.0 -1.1891024112701416 L 3.0 -0.47757601737976074 L 4.0 -0.47757601737976074 L 4.0 -0.4191122055053711 L 5.0 -0.4191122055053711 L 5.0 -1.2911665439605713 L 6.0 -1.2911665439605713 L 6.0 -1.5970560312271118 L 7.0 -1.5970560312271118 L 7.0 -0.9381622076034546 L 8.0 -0.9381622076034546 L 8.0 -1.3204915523529053 L 9.0 -1.3204915523529053 L 9.0 -1.5677565336227417 L 10.0 -1.5677565336227417 L 10.0 -0.5023762583732605 L 11.0 -0.5023762583732605 L 11.0 -1.488383173942566 L 12.0 -1.488383173942566 L 12.0 -1.6543400287628174 L 13.0 -1.6543400287628174 L 13.0 -1.5460772514343262 L 14.0 -1.5460772514343262 L 14.0 -1.863641619682312 L 15.0 -1.863641619682312 L 15.0 -0.6734440326690674 L 16.0 -0.6734440326690674 L 16.0 -1.0144730806350708 L 17.0 -1.0144730806350708 L 17.0 -0.8818328380584717 L 18.0 -0.8818328380584717 L 18.0 -1.2879019975662231 L 19.0 -1.2879019975662231 L 19.0 -1.3621256351470947 L 20.0 -1.3621256351470947 L 20.0 -0.9600052833557129 L 21.0 -0.9600052833557129 L 21.0 -2.1141393184661865 L 22.0 -2.1141393184661865 L 22.0 -0.5720494389533997 L 23.0 -0.5720494389533997 L 23.0 -1.400869369506836 L 24.0 -1.400869369506836 L 24.0 -0.692867636680603 L 25.0 -0.692867636680603 L 25.0 -1.996873378753662 L 26.0 -1.996873378753662 L 26.0 -2.349104166030884 L 27.0 -2.349104166030884 L 27.0 -2.1712305545806885 L 28.0 -2.1712305545806885 L 28.0 -0.5359203815460205 L 29.0 -0.5359203815460205 L 29.0 -0.5627570152282715 L 30.0 -0.5627570152282715 L 30.0 -1.893904209136963 L 31.0 -1.893904209136963 L 31.0 -1.0856494903564453 L 32.0 -1.0856494903564453 L 32.0 -2.077892541885376 L 33.0 -2.077892541885376 L 33.0 -1.8442045450210571 L 34.0 -1.8442045450210571 L 34.0 -1.6174671649932861 L 35.0 -1.6174671649932861 L 35.0 -0.5592260360717773 L 36.0 -0.5592260360717773 L 36.0 -0.9722299575805664 L 37.0 -0.9722299575805664 L 37.0 -2.0945138931274414 L 38.0 -2.0945138931274414 L 38.0 -0.981519341468811 L 39.0 -0.981519341468811 L 39.0 -0.420752614736557 L 40.0 -0.420752614736557 L 40.0 -1.1649675369262695 L 41.0 -1.1649675369262695 L 41.0 -1.752418041229248 L 42.0 -1.752418041229248 L 42.0 -1.19460129737854 L 43.0 -1.19460129737854 L 43.0 -0.6369928121566772 L 44.0 -0.6369928121566772 L 44.0 -1.8524481058120728 L 45.0 -1.8524481058120728 L 45.0 -1.8297020196914673 L 46.0 -1.8297020196914673 L 46.0 -0.5087438225746155 L 47.0 -0.5087438225746155 L 47.0 -0.4893140196800232 L 48.0 -0.4893140196800232 L 48.0 -0.9557574987411499 L 49.0 -0.9557574987411499" style="vector-effect: non-scaling-stroke;fill:none;" /></g></g><g style="stroke: black;stroke-width: 1.2000000000000002;" transform="matrix(1.0, 0.0, 0.0, 1.0, 0.0, 0.0)"><path d="M 0.0 -2.0 L 0.0 2.0" style="vector-effect: non-scaling-stroke;fill:none;" /></g></g><g style="stroke: black;stroke-width: 1.2000000000000002;" transform="matrix(1.0, 0.0, 0.0, 1.0, 0.0, 0.0)"><path d="M 7.0 -2.0 L 7.0 2.0" style="vector-effect: non-scaling-stroke;fill:none;" /></g></g><g style="stroke: black;stroke-width: 1.2000000000000002;" transform="matrix(1.0, 0.0, 0.0, 1.0, 0.0, 0.0)"><path d="M 14.0 -2.0 L 14.0 2.0" style="vector-effect: non-scaling-stroke;fill:none;" /></g></g><g style="stroke: black;stroke-width: 1.2000000000000002;" transform="matrix(1.0, 0.0, 0.0, 1.0, 0.0, 0.0)"><path d="M 21.0 -2.0 L 21.0 2.0" style="vector-effect: non-scaling-stroke;fill:none;" /></g></g><g style="stroke: black;stroke-width: 1.2000000000000002;" transform="matrix(1.0, 0.0, 0.0, 1.0, 0.0, 0.0)"><path d="M 28.0 -2.0 L 28.0 2.0" style="vector-effect: non-scaling-stroke;fill:none;" /></g></g><g style="stroke: black;stroke-width: 1.2000000000000002;" transform="matrix(1.0, 0.0, 0.0, 1.0, 0.0, 0.0)"><path d="M 35.0 -2.0 L 35.0 2.0" style="vector-effect: non-scaling-stroke;fill:none;" /></g></g><g style="stroke: black;stroke-width: 1.2000000000000002;" transform="matrix(1.0, 0.0, 0.0, 1.0, 0.0, 0.0)"><path d="M 42.0 -2.0 L 42.0 2.0" style="vector-effect: non-scaling-stroke;fill:none;" /></g></g></g></g><g><g><g><g><g><g><g><g><g><g><g style="stroke: black;stroke-width: 1.2000000000000002;" transform="matrix(1.0, 0.0, 0.0, 1.0, 0.0, 0.0)"><path d="M 0.0 -2.0 L 0.0 2.0" style="vector-effect: non-scaling-stroke;fill:none;" /></g><g style="stroke: #808080;stroke-width: 0.6000000000000001;" transform="matrix(1.0, 0.0, 0.0, 1.0, 0.0, 0.0)"><path d="M 0.0 0.0 L 49.0 0.0" style="vector-effect: non-scaling-stroke;fill:none;" /></g></g><g style="stroke: black;stroke-width: 2.4000000000000004;" transform="matrix(1.0, 0.0, 0.0, 1.0, 0.0, 0.0)"><path d="M 0.0 -1.3227485418319702 L 1.0 -1.3227485418319702 L 1.0 -1.3909366130828857 L 2.0 -1.3909366130828857 L 2.0 -1.1891024112701416 L 3.0 -1.1891024112701416 L 3.0 -0.47757601737976074 L 4.0 -0.47757601737976074 L 4.0 -0.4191122055053711 L 5.0 -0.4191122055053711 L 5.0 -1.2911665439605713 L 6.0 -1.2911665439605713 L 6.0 -1.5970560312271118 L 7.0 -1.5970560312271118 L 7.0 -0.9381622076034546 L 8.0 -0.9381622076034546 L 8.0 -1.3204915523529053 L 9.0 -1.3204915523529053 L 9.0 -1.5677565336227417 L 10.0 -1.5677565336227417 L 10.0 -0.5023762583732605 L 11.0 -0.5023762583732605 L 11.0 -1.488383173942566 L 12.0 -1.488383173942566 L 12.0 -1.6543400287628174 L 13.0 -1.6543400287628174 L 13.0 -1.5460772514343262 L 14.0 -1.5460772514343262 L 14.0 -1.863641619682312 L 15.0 -1.863641619682312 L 15.0 -0.6734440326690674 L 16.0 -0.6734440326690674 L 16.0 -1.0144730806350708 L 17.0 -1.0144730806350708 L 17.0 -0.8818328380584717 L 18.0 -0.8818328380584717 L 18.0 -1.2879019975662231 L 19.0 -1.2879019975662231 L 19.0 -1.3621256351470947 L 20.0 -1.3621256351470947 L 20.0 -0.9600052833557129 L 21.0 -0.9600052833557129 L 21.0 -2.1141393184661865 L 22.0 -2.1141393184661865 L 22.0 -0.5720494389533997 L 23.0 -0.5720494389533997 L 23.0 -1.400869369506836 L 24.0 -1.400869369506836 L 24.0 -0.692867636680603 L 25.0 -0.692867636680603 L 25.0 -1.996873378753662 L 26.0 -1.996873378753662 L 26.0 -2.349104166030884 L 27.0 -2.349104166030884 L 27.0 -2.1712305545806885 L 28.0 -2.1712305545806885 L 28.0 -0.5359203815460205 L 29.0 -0.5359203815460205 L 29.0 -0.5627570152282715 L 30.0 -0.5627570152282715 L 30.0 -1.893904209136963 L 31.0 -1.893904209136963 L 31.0 -1.0856494903564453 L 32.0 -1.0856494903564453 L 32.0 -2.077892541885376 L 33.0 -2.077892541885376 L 33.0 -1.8442045450210571 L 34.0 -1.8442045450210571 L 34.0 -1.6174671649932861 L 35.0 -1.6174671649932861 L 35.0 -0.5592260360717773 L 36.0 -0.5592260360717773 L 36.0 -0.9722299575805664 L 37.0 -0.9722299575805664 L 37.0 -2.0945138931274414 L 38.0 -2.0945138931274414 L 38.0 -0.981519341468811 L 39.0 -0.981519341468811 L 39.0 -0.420752614736557 L 40.0 -0.420752614736557 L 40.0 -1.1649675369262695 L 41.0 -1.1649675369262695 L 41.0 -1.752418041229248 L 42.0 -1.752418041229248 L 42.0 -1.19460129737854 L 43.0 -1.19460129737854 L 43.0 -0.6369928121566772 L 44.0 -0.6369928121566772 L 44.0 -1.8524481058120728 L 45.0 -1.8524481058120728 L 45.0 -1.8297020196914673 L 46.0 -1.8297020196914673 L 46.0 -0.5087438225746155 L 47.0 -0.5087438225746155 L 47.0 -0.4893140196800232 L 48.0 -0.4893140196800232 L 48.0 -0.9557574987411499 L 49.0 -0.9557574987411499" style="vector-effect: non-scaling-stroke;fill:none;" /></g></g><g style="stroke: black;stroke-width: 1.2000000000000002;" transform="matrix(1.0, 0.0, 0.0, 1.0, 0.0, 0.0)"><path d="M 0.0 -2.0 L 0.0 2.0" style="vector-effect: non-scaling-stroke;fill:none;" /></g></g><g style="stroke: black;stroke-width: 1.2000000000000002;" transform="matrix(1.0, 0.0, 0.0, 1.0, 0.0, 0.0)"><path d="M 7.0 -2.0 L 7.0 2.0" style="vector-effect: non-scaling-stroke;fill:none;" /></g></g><g style="stroke: black;stroke-width: 1.2000000000000002;" transform="matrix(1.0, 0.0, 0.0, 1.0, 0.0, 0.0)"><path d="M 14.0 -2.0 L 14.0 2.0" style="vector-effect: non-scaling-stroke;fill:none;" /></g></g><g style="stroke: black;stroke-width: 1.2000000000000002;" transform="matrix(1.0, 0.0, 0.0, 1.0, 0.0, 0.0)"><path d="M 21.0 -2.0 L 21.0 2.0" style="vector-effect: non-scaling-stroke;fill:none;" /></g></g><g style="stroke: black;stroke-width: 1.2000000000000002;" transform="matrix(1.0, 0.0, 0.0, 1.0, 0.0, 0.0)"><path d="M 28.0 -2.0 L 28.0 2.0" style="vector-effect: non-scaling-stroke;fill:none;" /></g></g><g style="stroke: black;stroke-width: 1.2000000000000002;" transform="matrix(1.0, 0.0, 0.0, 1.0, 0.0, 0.0)"><path d="M 35.0 -2.0 L 35.0 2.0" style="vector-effect: non-scaling-stroke;fill:none;" /></g></g><g style="stroke: black;stroke-width: 1.2000000000000002;" transform="matrix(1.0, 0.0, 0.0, 1.0, 0.0, 0.0)"><path d="M 42.0 -2.0 L 42.0 2.0" style="vector-effect: non-scaling-stroke;fill:none;" /></g></g></g></g></g></g></g><g style="stroke: black;stroke-width: 1.2000000000000002;" transform="matrix(1.0, 0.0, 0.0, 1.0, 0.6549999999999999, 0.0)"><g /></g></g><g transform="matrix(1.0, 0.0, 0.0, 1.0, 0.6699999999999999, 0.0)"><g transform="matrix(1.0, 0.0, 0.0, 1.0, 0.075, 0.0)"><g transform="matrix(1.0, 0.0, 0.0, 1.0, 0.0, 0.03)"><g transform="matrix(0.01, 0.0, 0.0, 0.01, 0.0, 0.0)"><g><g><g transform="matrix(1.0, 0.0, 0.0, 1.0, 4.5, 0.0)"><g transform="matrix(1.0, 0.0, 0.0, 1.0, -12.0, -0.0)"><g><g style="fill: #d3d3d3;stroke: black;stroke-width: 1.2000000000000002;" transform="matrix(1.0, 0.0, 0.0, 1.0, 0.0, -3.0)"><path d="M 0.0 0.0 L 24.0 0.0 L 24.0 6.0 L 0.0 6.0 L 0.0 0.0 Z" style="vector-effect: non-scaling-stroke;" /></g><g transform="matrix(1.0, 0.0, 0.0, 1.0, 1.875, 0.0)"><g><g style="stroke: black;stroke-width: 1.2000000000000002;" transform="matrix(1.0, 0.0, 0.0, 1.0, 0.0, 0.0)"><g /></g><g style="fill: #ffa500;stroke: black;stroke-width: 1.2000000000000002;" transform="matrix(1.0, 0.0, 0.0, 1.0, 1.875, 0.0)"><text style="text-align:center; text-anchor:middle; dominant-baseline:middle;&#10;                      font-family:sans-serif; font-weight: bold;&#10;                      font-size:3px;&#10;                      vector-effect: non-scaling-stroke;" transform="translate(-5e-05, 0)">y</text></g></g></g></g></g></g><g><g><g><g style="stroke: black;stroke-width: 1.2000000000000002;" transform="matrix(1.0, 0.0, 0.0, 1.0, 0.0, 0.0)"><path d="M 0.0 -2.0 L 0.0 2.0" style="vector-effect: non-scaling-stroke;fill:none;" /></g><g style="stroke: #808080;stroke-width: 0.6000000000000001;" transform="matrix(1.0, 0.0, 0.0, 1.0, 0.0, 0.0)"><path d="M 0.0 0.0 L 9.0 0.0" style="vector-effect: non-scaling-stroke;fill:none;" /></g></g><g style="stroke: black;stroke-width: 2.4000000000000004;" transform="matrix(1.0, 0.0, 0.0, 1.0, 0.0, 0.0)"><path d="M 0.0 -1.9842432737350464 L 1.0 -1.9842432737350464 L 1.0 -1.3227485418319702 L 2.0 -1.3227485418319702 L 2.0 -1.3909366130828857 L 3.0 -1.3909366130828857 L 3.0 -1.1891024112701416 L 4.0 -1.1891024112701416 L 4.0 -0.47757601737976074 L 5.0 -0.47757601737976074 L 5.0 -0.4191122055053711 L 6.0 -0.4191122055053711 L 6.0 -1.2911665439605713 L 7.0 -1.2911665439605713 L 7.0 -1.5970560312271118 L 8.0 -1.5970560312271118 L 8.0 -0.9381622076034546 L 9.0 -0.9381622076034546" style="vector-effect: non-scaling-stroke;fill:none;" /></g></g></g></g><g><g><g><g style="stroke: black;stroke-width: 1.2000000000000002;" transform="matrix(1.0, 0.0, 0.0, 1.0, 0.0, 0.0)"><path d="M 0.0 -2.0 L 0.0 2.0" style="vector-effect: non-scaling-stroke;fill:none;" /></g><g style="stroke: #808080;stroke-width: 0.6000000000000001;" transform="matrix(1.0, 0.0, 0.0, 1.0, 0.0, 0.0)"><path d="M 0.0 0.0 L 9.0 0.0" style="vector-effect: non-scaling-stroke;fill:none;" /></g></g><g style="stroke: black;stroke-width: 2.4000000000000004;" transform="matrix(1.0, 0.0, 0.0, 1.0, 0.0, 0.0)"><path d="M 0.0 -1.9842432737350464 L 1.0 -1.9842432737350464 L 1.0 -1.3227485418319702 L 2.0 -1.3227485418319702 L 2.0 -1.3909366130828857 L 3.0 -1.3909366130828857 L 3.0 -1.1891024112701416 L 4.0 -1.1891024112701416 L 4.0 -0.47757601737976074 L 5.0 -0.47757601737976074 L 5.0 -0.4191122055053711 L 6.0 -0.4191122055053711 L 6.0 -1.2911665439605713 L 7.0 -1.2911665439605713 L 7.0 -1.5970560312271118 L 8.0 -1.5970560312271118 L 8.0 -0.9381622076034546 L 9.0 -0.9381622076034546" style="vector-effect: non-scaling-stroke;fill:none;" /></g></g></g></g></g></g></g></g></g></g><g style="stroke: black;stroke-width: 1.2000000000000002;" transform="matrix(0.0, -1.0, 1.0, 0.0, 0.0, 0.08261828124523163)"><g /></g></g><g transform="matrix(1.0, 0.0, 0.0, 1.0, 0.0, 0.16261828124523162)"><g transform="matrix(1.0, 0.0, 0.0, 1.0, -0.2, -0.03)"><g transform="matrix(1.0, 0.0, 0.0, 1.0, 0.075, 0.0)"><g transform="matrix(1.0, 0.0, 0.0, 1.0, 0.0, 0.03)"><g transform="matrix(0.01, 0.0, 0.0, 0.01, 0.0, 0.0)"><g><g><g transform="matrix(1.0, 0.0, 0.0, 1.0, 12.5, 0.0)"><g transform="matrix(1.0, 0.0, 0.0, 1.0, -20.0, -0.0)"><g><g style="fill: #d3d3d3;stroke: black;stroke-width: 1.2000000000000002;" transform="matrix(1.0, 0.0, 0.0, 1.0, 0.0, -3.0)"><path d="M 0.0 0.0 L 40.0 0.0 L 40.0 6.0 L 0.0 6.0 L 0.0 0.0 Z" style="vector-effect: non-scaling-stroke;" /></g><g transform="matrix(1.0, 0.0, 0.0, 1.0, 1.875, 0.0)"><g><g style="stroke: black;stroke-width: 1.2000000000000002;" transform="matrix(1.0, 0.0, 0.0, 1.0, 0.0, 0.0)"><g /></g><g style="fill: #ffa500;stroke: black;stroke-width: 1.2000000000000002;" transform="matrix(1.0, 0.0, 0.0, 1.0, 1.875, 0.0)"><text style="text-align:center; text-anchor:middle; dominant-baseline:middle;&#10;                      font-family:sans-serif; font-weight: bold;&#10;                      font-size:3px;&#10;                      vector-effect: non-scaling-stroke;" transform="translate(-5e-05, 0)">f(x)</text></g></g></g></g></g></g><g><g><g><g style="stroke: black;stroke-width: 1.2000000000000002;" transform="matrix(1.0, 0.0, 0.0, 1.0, 0.0, 0.0)"><path d="M 0.0 -2.0 L 0.0 2.0" style="vector-effect: non-scaling-stroke;fill:none;" /></g><g style="stroke: #808080;stroke-width: 0.6000000000000001;" transform="matrix(1.0, 0.0, 0.0, 1.0, 0.0, 0.0)"><path d="M 0.0 0.0 L 25.0 0.0" style="vector-effect: non-scaling-stroke;fill:none;" /></g></g><g style="stroke: black;stroke-width: 2.4000000000000004;" transform="matrix(1.0, 0.0, 0.0, 1.0, 0.0, 0.0)"><path d="M 0.0 -0.7197384834289551 L 1.0 -0.7197384834289551 L 1.0 -0.6024218797683716 L 2.0 -0.6024218797683716 L 2.0 -0.5682520866394043 L 3.0 -0.5682520866394043 L 3.0 -0.5429346561431885 L 4.0 -0.5429346561431885 L 4.0 -0.7059851884841919 L 5.0 -0.7059851884841919 L 5.0 -0.7616262435913086 L 6.0 -0.7616262435913086 L 6.0 -0.5929703712463379 L 7.0 -0.5929703712463379 L 7.0 -0.7111943960189819 L 8.0 -0.7111943960189819 L 8.0 -0.7660436630249023 L 9.0 -0.7660436630249023 L 9.0 -1.0135174989700317 L 10.0 -1.0135174989700317 L 10.0 -0.7078631520271301 L 11.0 -0.7078631520271301 L 11.0 -0.5730099678039551 L 12.0 -0.5730099678039551 L 12.0 -0.7740539908409119 L 13.0 -0.7740539908409119 L 13.0 -0.8089159727096558 L 14.0 -0.8089159727096558 L 14.0 -0.9580315947532654 L 15.0 -0.9580315947532654 L 15.0 -0.7133167386054993 L 16.0 -0.7133167386054993 L 16.0 -0.6389820575714111 L 17.0 -0.6389820575714111 L 17.0 -0.8212066292762756 L 18.0 -0.8212066292762756 L 18.0 -0.742892324924469 L 19.0 -0.742892324924469 L 19.0 -1.0092726945877075 L 20.0 -1.0092726945877075 L 20.0 -0.5970472097396851 L 21.0 -0.5970472097396851 L 21.0 -0.7331720590591431 L 22.0 -0.7331720590591431 L 22.0 -0.9450638890266418 L 23.0 -0.9450638890266418 L 23.0 -0.7199006676673889 L 24.0 -0.7199006676673889 L 24.0 -0.7187992334365845 L 25.0 -0.7187992334365845" style="vector-effect: non-scaling-stroke;fill:none;" /></g></g></g></g><g><g><g><g style="stroke: black;stroke-width: 1.2000000000000002;" transform="matrix(1.0, 0.0, 0.0, 1.0, 0.0, 0.0)"><path d="M 0.0 -2.0 L 0.0 2.0" style="vector-effect: non-scaling-stroke;fill:none;" /></g><g style="stroke: #808080;stroke-width: 0.6000000000000001;" transform="matrix(1.0, 0.0, 0.0, 1.0, 0.0, 0.0)"><path d="M 0.0 0.0 L 25.0 0.0" style="vector-effect: non-scaling-stroke;fill:none;" /></g></g><g style="stroke: black;stroke-width: 2.4000000000000004;" transform="matrix(1.0, 0.0, 0.0, 1.0, 0.0, 0.0)"><path d="M 0.0 -0.7197384834289551 L 1.0 -0.7197384834289551 L 1.0 -0.6024218797683716 L 2.0 -0.6024218797683716 L 2.0 -0.5682520866394043 L 3.0 -0.5682520866394043 L 3.0 -0.5429346561431885 L 4.0 -0.5429346561431885 L 4.0 -0.7059851884841919 L 5.0 -0.7059851884841919 L 5.0 -0.7616262435913086 L 6.0 -0.7616262435913086 L 6.0 -0.5929703712463379 L 7.0 -0.5929703712463379 L 7.0 -0.7111943960189819 L 8.0 -0.7111943960189819 L 8.0 -0.7660436630249023 L 9.0 -0.7660436630249023 L 9.0 -1.0135174989700317 L 10.0 -1.0135174989700317 L 10.0 -0.7078631520271301 L 11.0 -0.7078631520271301 L 11.0 -0.5730099678039551 L 12.0 -0.5730099678039551 L 12.0 -0.7740539908409119 L 13.0 -0.7740539908409119 L 13.0 -0.8089159727096558 L 14.0 -0.8089159727096558 L 14.0 -0.9580315947532654 L 15.0 -0.9580315947532654 L 15.0 -0.7133167386054993 L 16.0 -0.7133167386054993 L 16.0 -0.6389820575714111 L 17.0 -0.6389820575714111 L 17.0 -0.8212066292762756 L 18.0 -0.8212066292762756 L 18.0 -0.742892324924469 L 19.0 -0.742892324924469 L 19.0 -1.0092726945877075 L 20.0 -1.0092726945877075 L 20.0 -0.5970472097396851 L 21.0 -0.5970472097396851 L 21.0 -0.7331720590591431 L 22.0 -0.7331720590591431 L 22.0 -0.9450638890266418 L 23.0 -0.9450638890266418 L 23.0 -0.7199006676673889 L 24.0 -0.7199006676673889 L 24.0 -0.7187992334365845 L 25.0 -0.7187992334365845" style="vector-effect: non-scaling-stroke;fill:none;" /></g></g></g></g></g></g></g></g></g></g><g transform="matrix(1.0, 0.0, 0.0, 1.0, -0.125, 0.16261828124523162)"><g transform="matrix(1.0, 0.0, 0.0, 0.009999999999999995, 0.0, 0.0)"><g transform="matrix(0.01, 0.0, 0.0, 1.0, 0.0, 0.0)"><g><g><g style="fill: #ffffe0;stroke: #ffffe0;stroke-width: 1.2000000000000002;fill-opacity: 0.5;" transform="matrix(1.0, 0.0, 0.0, 1.0, 0.0, 0.0)"><path d="M 0.0 -2.0 L 0.0 2.0" style="vector-effect: non-scaling-stroke;fill:none;" /></g><g style="fill: #ffffe0;stroke: #ffffe0;stroke-width: 1.2000000000000002;fill-opacity: 0.5;" transform="matrix(1.0, 0.0, 0.0, 1.0, 0.0, 0.0)"><path d="M 0.0 -1.8879895210266113 L 1.0 -1.8879895210266113 L 1.0 -1.788554310798645 L 2.0 -1.788554310798645 L 2.0 -1.7245821952819824 L 3.0 -1.7245821952819824 L 3.0 -1.74098801612854 L 4.0 -1.74098801612854 L 4.0 -1.8801966905593872 L 5.0 -1.8801966905593872 L 5.0 -1.953719139099121 L 6.0 -1.953719139099121 L 6.0 -1.7791028022766113 L 7.0 -1.7791028022766113 L 7.0 -1.9032872915267944 L 8.0 -1.9032872915267944 L 8.0 -1.981978416442871 L 9.0 -1.981978416442871 L 9.0 -2.0 L 10.0 -2.0 L 10.0 -1.8880350589752197 L 11.0 -1.8880350589752197 L 11.0 -1.7412610054016113 L 12.0 -1.7412610054016113 L 12.0 -1.96018648147583 L 13.0 -1.96018648147583 L 13.0 -1.983127474784851 L 14.0 -1.983127474784851 L 14.0 -2.0 L 15.0 -2.0 L 15.0 -1.8815677165985107 L 16.0 -1.8815677165985107 L 16.0 -1.8310749530792236 L 17.0 -1.8310749530792236 L 17.0 -1.977536678314209 L 18.0 -1.977536678314209 L 18.0 -1.9230642318725586 L 19.0 -1.9230642318725586 L 19.0 -2.0 L 20.0 -2.0 L 20.0 -1.7712587118148804 L 21.0 -1.7712587118148804 L 21.0 -1.9133440256118774 L 22.0 -1.9133440256118774 L 22.0 -2.0 L 23.0 -2.0 L 23.0 -1.9060330390930176 L 24.0 -1.9060330390930176 L 24.0 -1.8989711999893188 L 25.0 -1.8989711999893188 L 25.0 -0.7187992334365845 L 24.0 -0.7187992334365845 L 24.0 -0.7199006676673889 L 23.0 -0.7199006676673889 L 23.0 -0.9450638890266418 L 22.0 -0.9450638890266418 L 22.0 -0.7331720590591431 L 21.0 -0.7331720590591431 L 21.0 -0.5970472097396851 L 20.0 -0.5970472097396851 L 20.0 -1.0092726945877075 L 19.0 -1.0092726945877075 L 19.0 -0.742892324924469 L 18.0 -0.742892324924469 L 18.0 -0.8212066292762756 L 17.0 -0.8212066292762756 L 17.0 -0.6389820575714111 L 16.0 -0.6389820575714111 L 16.0 -0.7133167386054993 L 15.0 -0.7133167386054993 L 15.0 -0.9580315947532654 L 14.0 -0.9580315947532654 L 14.0 -0.8089159727096558 L 13.0 -0.8089159727096558 L 13.0 -0.7740539908409119 L 12.0 -0.7740539908409119 L 12.0 -0.5730099678039551 L 11.0 -0.5730099678039551 L 11.0 -0.7078631520271301 L 10.0 -0.7078631520271301 L 10.0 -1.0135174989700317 L 9.0 -1.0135174989700317 L 9.0 -0.7660436630249023 L 8.0 -0.7660436630249023 L 8.0 -0.7111943960189819 L 7.0 -0.7111943960189819 L 7.0 -0.5929703712463379 L 6.0 -0.5929703712463379 L 6.0 -0.7616262435913086 L 5.0 -0.7616262435913086 L 5.0 -0.7059851884841919 L 4.0 -0.7059851884841919 L 4.0 -0.5429346561431885 L 3.0 -0.5429346561431885 L 3.0 -0.5682520866394043 L 2.0 -0.5682520866394043 L 2.0 -0.6024218797683716 L 1.0 -0.6024218797683716 L 1.0 -0.7197384834289551 L 0.0 -0.7197384834289551 Z" style="vector-effect: non-scaling-stroke;" /></g></g><g style="stroke: black;stroke-width: 1.2000000000000002;" transform="matrix(1.0, 0.0, 0.0, 1.0, 0.0, 0.0)"><path d="M 0.0 -0.7197384834289551 L 1.0 -0.7197384834289551 L 1.0 -0.6024218797683716 L 2.0 -0.6024218797683716 L 2.0 -0.5682520866394043 L 3.0 -0.5682520866394043 L 3.0 -0.5429346561431885 L 4.0 -0.5429346561431885 L 4.0 -0.7059851884841919 L 5.0 -0.7059851884841919 L 5.0 -0.7616262435913086 L 6.0 -0.7616262435913086 L 6.0 -0.5929703712463379 L 7.0 -0.5929703712463379 L 7.0 -0.7111943960189819 L 8.0 -0.7111943960189819 L 8.0 -0.7660436630249023 L 9.0 -0.7660436630249023 L 9.0 -1.0135174989700317 L 10.0 -1.0135174989700317 L 10.0 -0.7078631520271301 L 11.0 -0.7078631520271301 L 11.0 -0.5730099678039551 L 12.0 -0.5730099678039551 L 12.0 -0.7740539908409119 L 13.0 -0.7740539908409119 L 13.0 -0.8089159727096558 L 14.0 -0.8089159727096558 L 14.0 -0.9580315947532654 L 15.0 -0.9580315947532654 L 15.0 -0.7133167386054993 L 16.0 -0.7133167386054993 L 16.0 -0.6389820575714111 L 17.0 -0.6389820575714111 L 17.0 -0.8212066292762756 L 18.0 -0.8212066292762756 L 18.0 -0.742892324924469 L 19.0 -0.742892324924469 L 19.0 -1.0092726945877075 L 20.0 -1.0092726945877075 L 20.0 -0.5970472097396851 L 21.0 -0.5970472097396851 L 21.0 -0.7331720590591431 L 22.0 -0.7331720590591431 L 22.0 -0.9450638890266418 L 23.0 -0.9450638890266418 L 23.0 -0.7199006676673889 L 24.0 -0.7199006676673889 L 24.0 -0.7187992334365845 L 25.0 -0.7187992334365845" style="vector-effect: non-scaling-stroke;fill:none;" /></g></g></g></g></g></g><g transform="matrix(1.0, 0.0, 0.0, 1.0, -0.125, 0.16261828124523162)"><g transform="matrix(1.0, 0.0, 0.0, 0.009999999999999995, 0.0, 0.0)"><g transform="matrix(0.01, 0.0, 0.0, 1.0, 0.0, 0.0)"><g><g><g style="fill: #add8e6;stroke: #add8e6;stroke-width: 1.2000000000000002;fill-opacity: 0.5;" transform="matrix(1.0, 0.0, 0.0, 1.0, 0.0, 0.0)"><path d="M 0.0 -2.0 L 0.0 2.0" style="vector-effect: non-scaling-stroke;fill:none;" /></g><g style="fill: #add8e6;stroke: #add8e6;stroke-width: 1.2000000000000002;fill-opacity: 0.5;" transform="matrix(1.0, 0.0, 0.0, 1.0, 0.0, 0.0)"><path d="M 0.0 -1.9654755592346191 L 1.0 -1.9654755592346191 L 1.0 -1.6097403764724731 L 2.0 -1.6097403764724731 L 2.0 -1.5278868675231934 L 3.0 -1.5278868675231934 L 3.0 -1.5979368686676025 L 4.0 -1.5979368686676025 L 4.0 -1.9994059801101685 L 5.0 -1.9994059801101685 L 5.0 -2.0 L 6.0 -2.0 L 6.0 -1.5764470100402832 L 7.0 -1.5764470100402832 L 7.0 -1.9211686849594116 L 8.0 -1.9211686849594116 L 8.0 -2.0 L 9.0 -2.0 L 9.0 -2.0 L 10.0 -2.0 L 10.0 -1.8939955234527588 L 11.0 -1.8939955234527588 L 11.0 -1.5326447486877441 L 12.0 -1.5326447486877441 L 12.0 -2.0 L 13.0 -2.0 L 13.0 -2.0 L 14.0 -2.0 L 14.0 -2.0 L 15.0 -2.0 L 15.0 -1.8934886455535889 L 16.0 -1.8934886455535889 L 16.0 -1.7893517017364502 L 17.0 -1.7893517017364502 L 17.0 -2.0 L 18.0 -2.0 L 18.0 -2.0 L 19.0 -2.0 L 19.0 -2.0 L 20.0 -2.0 L 20.0 -1.735495924949646 L 21.0 -1.735495924949646 L 21.0 -2.0 L 22.0 -2.0 L 22.0 -2.0 L 23.0 -2.0 L 23.0 -1.8821911811828613 L 24.0 -1.8821911811828613 L 24.0 -1.922813057899475 L 25.0 -1.922813057899475 L 25.0 -0.7187992334365845 L 24.0 -0.7187992334365845 L 24.0 -0.7199006676673889 L 23.0 -0.7199006676673889 L 23.0 -0.9450638890266418 L 22.0 -0.9450638890266418 L 22.0 -0.7331720590591431 L 21.0 -0.7331720590591431 L 21.0 -0.5970472097396851 L 20.0 -0.5970472097396851 L 20.0 -1.0092726945877075 L 19.0 -1.0092726945877075 L 19.0 -0.742892324924469 L 18.0 -0.742892324924469 L 18.0 -0.8212066292762756 L 17.0 -0.8212066292762756 L 17.0 -0.6389820575714111 L 16.0 -0.6389820575714111 L 16.0 -0.7133167386054993 L 15.0 -0.7133167386054993 L 15.0 -0.9580315947532654 L 14.0 -0.9580315947532654 L 14.0 -0.8089159727096558 L 13.0 -0.8089159727096558 L 13.0 -0.7740539908409119 L 12.0 -0.7740539908409119 L 12.0 -0.5730099678039551 L 11.0 -0.5730099678039551 L 11.0 -0.7078631520271301 L 10.0 -0.7078631520271301 L 10.0 -1.0135174989700317 L 9.0 -1.0135174989700317 L 9.0 -0.7660436630249023 L 8.0 -0.7660436630249023 L 8.0 -0.7111943960189819 L 7.0 -0.7111943960189819 L 7.0 -0.5929703712463379 L 6.0 -0.5929703712463379 L 6.0 -0.7616262435913086 L 5.0 -0.7616262435913086 L 5.0 -0.7059851884841919 L 4.0 -0.7059851884841919 L 4.0 -0.5429346561431885 L 3.0 -0.5429346561431885 L 3.0 -0.5682520866394043 L 2.0 -0.5682520866394043 L 2.0 -0.6024218797683716 L 1.0 -0.6024218797683716 L 1.0 -0.7197384834289551 L 0.0 -0.7197384834289551 Z" style="vector-effect: non-scaling-stroke;" /></g></g><g style="stroke: black;stroke-width: 1.2000000000000002;" transform="matrix(1.0, 0.0, 0.0, 1.0, 0.0, 0.0)"><path d="M 0.0 -0.7197384834289551 L 1.0 -0.7197384834289551 L 1.0 -0.6024218797683716 L 2.0 -0.6024218797683716 L 2.0 -0.5682520866394043 L 3.0 -0.5682520866394043 L 3.0 -0.5429346561431885 L 4.0 -0.5429346561431885 L 4.0 -0.7059851884841919 L 5.0 -0.7059851884841919 L 5.0 -0.7616262435913086 L 6.0 -0.7616262435913086 L 6.0 -0.5929703712463379 L 7.0 -0.5929703712463379 L 7.0 -0.7111943960189819 L 8.0 -0.7111943960189819 L 8.0 -0.7660436630249023 L 9.0 -0.7660436630249023 L 9.0 -1.0135174989700317 L 10.0 -1.0135174989700317 L 10.0 -0.7078631520271301 L 11.0 -0.7078631520271301 L 11.0 -0.5730099678039551 L 12.0 -0.5730099678039551 L 12.0 -0.7740539908409119 L 13.0 -0.7740539908409119 L 13.0 -0.8089159727096558 L 14.0 -0.8089159727096558 L 14.0 -0.9580315947532654 L 15.0 -0.9580315947532654 L 15.0 -0.7133167386054993 L 16.0 -0.7133167386054993 L 16.0 -0.6389820575714111 L 17.0 -0.6389820575714111 L 17.0 -0.8212066292762756 L 18.0 -0.8212066292762756 L 18.0 -0.742892324924469 L 19.0 -0.742892324924469 L 19.0 -1.0092726945877075 L 20.0 -1.0092726945877075 L 20.0 -0.5970472097396851 L 21.0 -0.5970472097396851 L 21.0 -0.7331720590591431 L 22.0 -0.7331720590591431 L 22.0 -0.9450638890266418 L 23.0 -0.9450638890266418 L 23.0 -0.7199006676673889 L 24.0 -0.7199006676673889 L 24.0 -0.7187992334365845 L 25.0 -0.7187992334365845" style="vector-effect: non-scaling-stroke;fill:none;" /></g></g></g></g></g></g><g transform="matrix(1.0, 0.0, 0.0, 1.0, -0.125, 0.16261828124523162)"><g transform="matrix(1.0, 0.0, 0.0, 0.009999999999999995, 0.0, 0.0)"><g transform="matrix(0.01, 0.0, 0.0, 1.0, 0.0, 0.0)"><g><g><g style="fill: #ff8c00;stroke: #ff8c00;stroke-width: 1.2000000000000002;fill-opacity: 0.5;" transform="matrix(1.0, 0.0, 0.0, 1.0, 0.0, 0.0)"><path d="M 0.0 -2.0 L 0.0 2.0" style="vector-effect: non-scaling-stroke;fill:none;" /></g><g style="fill: #ff8c00;stroke: #ff8c00;stroke-width: 1.2000000000000002;fill-opacity: 0.5;" transform="matrix(1.0, 0.0, 0.0, 1.0, 0.0, 0.0)"><path d="M 0.0 -0.7197384834289551 L 1.0 -0.7197384834289551 L 1.0 -0.6024218797683716 L 2.0 -0.6024218797683716 L 2.0 -0.5682520866394043 L 3.0 -0.5682520866394043 L 3.0 -0.5429346561431885 L 4.0 -0.5429346561431885 L 4.0 -0.7059851884841919 L 5.0 -0.7059851884841919 L 5.0 -0.7616262435913086 L 6.0 -0.7616262435913086 L 6.0 -0.5929703712463379 L 7.0 -0.5929703712463379 L 7.0 -0.7111943960189819 L 8.0 -0.7111943960189819 L 8.0 -0.7660436630249023 L 9.0 -0.7660436630249023 L 9.0 -1.0135174989700317 L 10.0 -1.0135174989700317 L 10.0 -0.7078631520271301 L 11.0 -0.7078631520271301 L 11.0 -0.5730099678039551 L 12.0 -0.5730099678039551 L 12.0 -0.7740539908409119 L 13.0 -0.7740539908409119 L 13.0 -0.8089159727096558 L 14.0 -0.8089159727096558 L 14.0 -0.9580315947532654 L 15.0 -0.9580315947532654 L 15.0 -0.7133167386054993 L 16.0 -0.7133167386054993 L 16.0 -0.6389820575714111 L 17.0 -0.6389820575714111 L 17.0 -0.8212066292762756 L 18.0 -0.8212066292762756 L 18.0 -0.742892324924469 L 19.0 -0.742892324924469 L 19.0 -1.0092726945877075 L 20.0 -1.0092726945877075 L 20.0 -0.5970472097396851 L 21.0 -0.5970472097396851 L 21.0 -0.7331720590591431 L 22.0 -0.7331720590591431 L 22.0 -0.9450638890266418 L 23.0 -0.9450638890266418 L 23.0 -0.7199006676673889 L 24.0 -0.7199006676673889 L 24.0 -0.7187992334365845 L 25.0 -0.7187992334365845 L 25.0 -0.7187992334365845 L 24.0 -0.7187992334365845 L 24.0 -0.7199006676673889 L 23.0 -0.7199006676673889 L 23.0 -0.9450638890266418 L 22.0 -0.9450638890266418 L 22.0 -0.7331720590591431 L 21.0 -0.7331720590591431 L 21.0 -0.5970472097396851 L 20.0 -0.5970472097396851 L 20.0 -1.0092726945877075 L 19.0 -1.0092726945877075 L 19.0 -0.742892324924469 L 18.0 -0.742892324924469 L 18.0 -0.8212066292762756 L 17.0 -0.8212066292762756 L 17.0 -0.6389820575714111 L 16.0 -0.6389820575714111 L 16.0 -0.7133167386054993 L 15.0 -0.7133167386054993 L 15.0 -0.9580315947532654 L 14.0 -0.9580315947532654 L 14.0 -0.8089159727096558 L 13.0 -0.8089159727096558 L 13.0 -0.7740539908409119 L 12.0 -0.7740539908409119 L 12.0 -0.5730099678039551 L 11.0 -0.5730099678039551 L 11.0 -0.7078631520271301 L 10.0 -0.7078631520271301 L 10.0 -1.0135174989700317 L 9.0 -1.0135174989700317 L 9.0 -0.7660436630249023 L 8.0 -0.7660436630249023 L 8.0 -0.7111943960189819 L 7.0 -0.7111943960189819 L 7.0 -0.5929703712463379 L 6.0 -0.5929703712463379 L 6.0 -0.7616262435913086 L 5.0 -0.7616262435913086 L 5.0 -0.7059851884841919 L 4.0 -0.7059851884841919 L 4.0 -0.5429346561431885 L 3.0 -0.5429346561431885 L 3.0 -0.5682520866394043 L 2.0 -0.5682520866394043 L 2.0 -0.6024218797683716 L 1.0 -0.6024218797683716 L 1.0 -0.7197384834289551 L 0.0 -0.7197384834289551 Z" style="vector-effect: non-scaling-stroke;" /></g></g><g style="stroke: black;stroke-width: 1.2000000000000002;" transform="matrix(1.0, 0.0, 0.0, 1.0, 0.0, 0.0)"><path d="M 0.0 -0.7197384834289551 L 1.0 -0.7197384834289551 L 1.0 -0.6024218797683716 L 2.0 -0.6024218797683716 L 2.0 -0.5682520866394043 L 3.0 -0.5682520866394043 L 3.0 -0.5429346561431885 L 4.0 -0.5429346561431885 L 4.0 -0.7059851884841919 L 5.0 -0.7059851884841919 L 5.0 -0.7616262435913086 L 6.0 -0.7616262435913086 L 6.0 -0.5929703712463379 L 7.0 -0.5929703712463379 L 7.0 -0.7111943960189819 L 8.0 -0.7111943960189819 L 8.0 -0.7660436630249023 L 9.0 -0.7660436630249023 L 9.0 -1.0135174989700317 L 10.0 -1.0135174989700317 L 10.0 -0.7078631520271301 L 11.0 -0.7078631520271301 L 11.0 -0.5730099678039551 L 12.0 -0.5730099678039551 L 12.0 -0.7740539908409119 L 13.0 -0.7740539908409119 L 13.0 -0.8089159727096558 L 14.0 -0.8089159727096558 L 14.0 -0.9580315947532654 L 15.0 -0.9580315947532654 L 15.0 -0.7133167386054993 L 16.0 -0.7133167386054993 L 16.0 -0.6389820575714111 L 17.0 -0.6389820575714111 L 17.0 -0.8212066292762756 L 18.0 -0.8212066292762756 L 18.0 -0.742892324924469 L 19.0 -0.742892324924469 L 19.0 -1.0092726945877075 L 20.0 -1.0092726945877075 L 20.0 -0.5970472097396851 L 21.0 -0.5970472097396851 L 21.0 -0.7331720590591431 L 22.0 -0.7331720590591431 L 22.0 -0.9450638890266418 L 23.0 -0.9450638890266418 L 23.0 -0.7199006676673889 L 24.0 -0.7199006676673889 L 24.0 -0.7187992334365845 L 25.0 -0.7187992334365845" style="vector-effect: non-scaling-stroke;fill:none;" /></g></g></g></g></g></g><g transform="matrix(1.0, 0.0, 0.0, 1.0, -0.125, 0.16261828124523162)"><g transform="matrix(1.0, 0.0, 0.0, 0.009999999999999995, 0.0, 0.0)"><g transform="matrix(0.01, 0.0, 0.0, 1.0, 0.0, 0.0)"><g><g><g style="fill: #0000ff;stroke: #0000ff;stroke-width: 1.2000000000000002;fill-opacity: 0.5;" transform="matrix(1.0, 0.0, 0.0, 1.0, 0.0, 0.0)"><path d="M 0.0 -2.0 L 0.0 2.0" style="vector-effect: non-scaling-stroke;fill:none;" /></g><g style="fill: #0000ff;stroke: #0000ff;stroke-width: 1.2000000000000002;fill-opacity: 0.5;" transform="matrix(1.0, 0.0, 0.0, 1.0, 0.0, 0.0)"><path d="M 0.0 -0.7197384834289551 L 1.0 -0.7197384834289551 L 1.0 -0.6024218797683716 L 2.0 -0.6024218797683716 L 2.0 -0.5682520866394043 L 3.0 -0.5682520866394043 L 3.0 -0.5429346561431885 L 4.0 -0.5429346561431885 L 4.0 -0.7059851884841919 L 5.0 -0.7059851884841919 L 5.0 -0.7616262435913086 L 6.0 -0.7616262435913086 L 6.0 -0.5929703712463379 L 7.0 -0.5929703712463379 L 7.0 -0.7111943960189819 L 8.0 -0.7111943960189819 L 8.0 -0.7660436630249023 L 9.0 -0.7660436630249023 L 9.0 -1.0135174989700317 L 10.0 -1.0135174989700317 L 10.0 -0.7078631520271301 L 11.0 -0.7078631520271301 L 11.0 -0.5730099678039551 L 12.0 -0.5730099678039551 L 12.0 -0.7740539908409119 L 13.0 -0.7740539908409119 L 13.0 -0.8089159727096558 L 14.0 -0.8089159727096558 L 14.0 -0.9580315947532654 L 15.0 -0.9580315947532654 L 15.0 -0.7133167386054993 L 16.0 -0.7133167386054993 L 16.0 -0.6389820575714111 L 17.0 -0.6389820575714111 L 17.0 -0.8212066292762756 L 18.0 -0.8212066292762756 L 18.0 -0.742892324924469 L 19.0 -0.742892324924469 L 19.0 -1.0092726945877075 L 20.0 -1.0092726945877075 L 20.0 -0.5970472097396851 L 21.0 -0.5970472097396851 L 21.0 -0.7331720590591431 L 22.0 -0.7331720590591431 L 22.0 -0.9450638890266418 L 23.0 -0.9450638890266418 L 23.0 -0.7199006676673889 L 24.0 -0.7199006676673889 L 24.0 -0.7187992334365845 L 25.0 -0.7187992334365845 L 25.0 -0.7187992334365845 L 24.0 -0.7187992334365845 L 24.0 -0.7199006676673889 L 23.0 -0.7199006676673889 L 23.0 -0.9450638890266418 L 22.0 -0.9450638890266418 L 22.0 -0.7331720590591431 L 21.0 -0.7331720590591431 L 21.0 -0.5970472097396851 L 20.0 -0.5970472097396851 L 20.0 -1.0092726945877075 L 19.0 -1.0092726945877075 L 19.0 -0.742892324924469 L 18.0 -0.742892324924469 L 18.0 -0.8212066292762756 L 17.0 -0.8212066292762756 L 17.0 -0.6389820575714111 L 16.0 -0.6389820575714111 L 16.0 -0.7133167386054993 L 15.0 -0.7133167386054993 L 15.0 -0.9580315947532654 L 14.0 -0.9580315947532654 L 14.0 -0.8089159727096558 L 13.0 -0.8089159727096558 L 13.0 -0.7740539908409119 L 12.0 -0.7740539908409119 L 12.0 -0.5730099678039551 L 11.0 -0.5730099678039551 L 11.0 -0.7078631520271301 L 10.0 -0.7078631520271301 L 10.0 -1.0135174989700317 L 9.0 -1.0135174989700317 L 9.0 -0.7660436630249023 L 8.0 -0.7660436630249023 L 8.0 -0.7111943960189819 L 7.0 -0.7111943960189819 L 7.0 -0.5929703712463379 L 6.0 -0.5929703712463379 L 6.0 -0.7616262435913086 L 5.0 -0.7616262435913086 L 5.0 -0.7059851884841919 L 4.0 -0.7059851884841919 L 4.0 -0.5429346561431885 L 3.0 -0.5429346561431885 L 3.0 -0.5682520866394043 L 2.0 -0.5682520866394043 L 2.0 -0.6024218797683716 L 1.0 -0.6024218797683716 L 1.0 -0.7197384834289551 L 0.0 -0.7197384834289551 Z" style="vector-effect: non-scaling-stroke;" /></g></g><g style="stroke: black;stroke-width: 1.2000000000000002;" transform="matrix(1.0, 0.0, 0.0, 1.0, 0.0, 0.0)"><path d="M 0.0 -0.7197384834289551 L 1.0 -0.7197384834289551 L 1.0 -0.6024218797683716 L 2.0 -0.6024218797683716 L 2.0 -0.5682520866394043 L 3.0 -0.5682520866394043 L 3.0 -0.5429346561431885 L 4.0 -0.5429346561431885 L 4.0 -0.7059851884841919 L 5.0 -0.7059851884841919 L 5.0 -0.7616262435913086 L 6.0 -0.7616262435913086 L 6.0 -0.5929703712463379 L 7.0 -0.5929703712463379 L 7.0 -0.7111943960189819 L 8.0 -0.7111943960189819 L 8.0 -0.7660436630249023 L 9.0 -0.7660436630249023 L 9.0 -1.0135174989700317 L 10.0 -1.0135174989700317 L 10.0 -0.7078631520271301 L 11.0 -0.7078631520271301 L 11.0 -0.5730099678039551 L 12.0 -0.5730099678039551 L 12.0 -0.7740539908409119 L 13.0 -0.7740539908409119 L 13.0 -0.8089159727096558 L 14.0 -0.8089159727096558 L 14.0 -0.9580315947532654 L 15.0 -0.9580315947532654 L 15.0 -0.7133167386054993 L 16.0 -0.7133167386054993 L 16.0 -0.6389820575714111 L 17.0 -0.6389820575714111 L 17.0 -0.8212066292762756 L 18.0 -0.8212066292762756 L 18.0 -0.742892324924469 L 19.0 -0.742892324924469 L 19.0 -1.0092726945877075 L 20.0 -1.0092726945877075 L 20.0 -0.5970472097396851 L 21.0 -0.5970472097396851 L 21.0 -0.7331720590591431 L 22.0 -0.7331720590591431 L 22.0 -0.9450638890266418 L 23.0 -0.9450638890266418 L 23.0 -0.7199006676673889 L 24.0 -0.7199006676673889 L 24.0 -0.7187992334365845 L 25.0 -0.7187992334365845" style="vector-effect: non-scaling-stroke;fill:none;" /></g></g></g></g></g></g></g></g><g><g><g><g><g><g><g transform="matrix(1.0, 0.0, 0.0, 1.0, -0.45499999999999996, -0.032618281245231626)"><g><g><g transform="matrix(1.0, 0.0, 0.0, 1.0, 0.075, 0.0)"><g transform="matrix(1.0, 0.0, 0.0, 1.0, 0.0, 0.03436380207538605)"><g transform="matrix(0.01, 0.0, 0.0, 0.01, 0.0, 0.0)"><g><g><g transform="matrix(1.0, 0.0, 0.0, 1.0, 24.5, -0.1745520830154419)"><g transform="matrix(1.0, 0.0, 0.0, 1.0, -32.0, -0.0)"><g><g style="fill: #d3d3d3;stroke: black;stroke-width: 1.2000000000000002;" transform="matrix(1.0, 0.0, 0.0, 1.0, 0.0, -3.261828124523163)"><path d="M 0.0 0.0 L 64.0 0.0 L 64.0 6.523656249046326 L 0.0 6.523656249046326 L 0.0 0.0 Z" style="vector-effect: non-scaling-stroke;" /></g><g transform="matrix(1.0, 0.0, 0.0, 1.0, 1.875, 0.0)"><g><g style="stroke: black;stroke-width: 1.2000000000000002;" transform="matrix(1.0, 0.0, 0.0, 1.0, 0.0, 0.0)"><g /></g><g style="fill: #ffa500;stroke: black;stroke-width: 1.2000000000000002;" transform="matrix(1.0, 0.0, 0.0, 1.0, 1.875, 0.0)"><text style="text-align:center; text-anchor:middle; dominant-baseline:middle;&#10;                      font-family:sans-serif; font-weight: bold;&#10;                      font-size:3px;&#10;                      vector-effect: non-scaling-stroke;" transform="translate(-5e-05, 0)">x</text></g></g></g></g></g></g><g><g><g><g><g><g><g><g><g><g><g style="stroke: black;stroke-width: 1.2000000000000002;" transform="matrix(1.0, 0.0, 0.0, 1.0, 0.0, 0.0)"><path d="M 0.0 -2.0 L 0.0 2.0" style="vector-effect: non-scaling-stroke;fill:none;" /></g><g style="stroke: #808080;stroke-width: 0.6000000000000001;" transform="matrix(1.0, 0.0, 0.0, 1.0, 0.0, 0.0)"><path d="M 0.0 0.0 L 49.0 0.0" style="vector-effect: non-scaling-stroke;fill:none;" /></g></g><g style="stroke: black;stroke-width: 2.4000000000000004;" transform="matrix(1.0, 0.0, 0.0, 1.0, 0.0, 0.0)"><path d="M 0.0 -1.3227485418319702 L 1.0 -1.3227485418319702 L 1.0 -1.3909366130828857 L 2.0 -1.3909366130828857 L 2.0 -1.1891024112701416 L 3.0 -1.1891024112701416 L 3.0 -0.47757601737976074 L 4.0 -0.47757601737976074 L 4.0 -0.4191122055053711 L 5.0 -0.4191122055053711 L 5.0 -1.2911665439605713 L 6.0 -1.2911665439605713 L 6.0 -1.5970560312271118 L 7.0 -1.5970560312271118 L 7.0 -0.9381622076034546 L 8.0 -0.9381622076034546 L 8.0 -1.3204915523529053 L 9.0 -1.3204915523529053 L 9.0 -1.5677565336227417 L 10.0 -1.5677565336227417 L 10.0 -0.5023762583732605 L 11.0 -0.5023762583732605 L 11.0 -1.488383173942566 L 12.0 -1.488383173942566 L 12.0 -1.6543400287628174 L 13.0 -1.6543400287628174 L 13.0 -1.5460772514343262 L 14.0 -1.5460772514343262 L 14.0 -1.863641619682312 L 15.0 -1.863641619682312 L 15.0 -0.6734440326690674 L 16.0 -0.6734440326690674 L 16.0 -1.0144730806350708 L 17.0 -1.0144730806350708 L 17.0 -0.8818328380584717 L 18.0 -0.8818328380584717 L 18.0 -1.2879019975662231 L 19.0 -1.2879019975662231 L 19.0 -1.3621256351470947 L 20.0 -1.3621256351470947 L 20.0 -0.9600052833557129 L 21.0 -0.9600052833557129 L 21.0 -2.1141393184661865 L 22.0 -2.1141393184661865 L 22.0 -0.5720494389533997 L 23.0 -0.5720494389533997 L 23.0 -1.400869369506836 L 24.0 -1.400869369506836 L 24.0 -0.692867636680603 L 25.0 -0.692867636680603 L 25.0 -1.996873378753662 L 26.0 -1.996873378753662 L 26.0 -2.349104166030884 L 27.0 -2.349104166030884 L 27.0 -2.1712305545806885 L 28.0 -2.1712305545806885 L 28.0 -0.5359203815460205 L 29.0 -0.5359203815460205 L 29.0 -0.5627570152282715 L 30.0 -0.5627570152282715 L 30.0 -1.893904209136963 L 31.0 -1.893904209136963 L 31.0 -1.0856494903564453 L 32.0 -1.0856494903564453 L 32.0 -2.077892541885376 L 33.0 -2.077892541885376 L 33.0 -1.8442045450210571 L 34.0 -1.8442045450210571 L 34.0 -1.6174671649932861 L 35.0 -1.6174671649932861 L 35.0 -0.5592260360717773 L 36.0 -0.5592260360717773 L 36.0 -0.9722299575805664 L 37.0 -0.9722299575805664 L 37.0 -2.0945138931274414 L 38.0 -2.0945138931274414 L 38.0 -0.981519341468811 L 39.0 -0.981519341468811 L 39.0 -0.420752614736557 L 40.0 -0.420752614736557 L 40.0 -1.1649675369262695 L 41.0 -1.1649675369262695 L 41.0 -1.752418041229248 L 42.0 -1.752418041229248 L 42.0 -1.19460129737854 L 43.0 -1.19460129737854 L 43.0 -0.6369928121566772 L 44.0 -0.6369928121566772 L 44.0 -1.8524481058120728 L 45.0 -1.8524481058120728 L 45.0 -1.8297020196914673 L 46.0 -1.8297020196914673 L 46.0 -0.5087438225746155 L 47.0 -0.5087438225746155 L 47.0 -0.4893140196800232 L 48.0 -0.4893140196800232 L 48.0 -0.9557574987411499 L 49.0 -0.9557574987411499" style="vector-effect: non-scaling-stroke;fill:none;" /></g></g><g style="stroke: black;stroke-width: 1.2000000000000002;" transform="matrix(1.0, 0.0, 0.0, 1.0, 0.0, 0.0)"><path d="M 0.0 -2.0 L 0.0 2.0" style="vector-effect: non-scaling-stroke;fill:none;" /></g></g><g style="stroke: black;stroke-width: 1.2000000000000002;" transform="matrix(1.0, 0.0, 0.0, 1.0, 0.0, 0.0)"><path d="M 7.0 -2.0 L 7.0 2.0" style="vector-effect: non-scaling-stroke;fill:none;" /></g></g><g style="stroke: black;stroke-width: 1.2000000000000002;" transform="matrix(1.0, 0.0, 0.0, 1.0, 0.0, 0.0)"><path d="M 14.0 -2.0 L 14.0 2.0" style="vector-effect: non-scaling-stroke;fill:none;" /></g></g><g style="stroke: black;stroke-width: 1.2000000000000002;" transform="matrix(1.0, 0.0, 0.0, 1.0, 0.0, 0.0)"><path d="M 21.0 -2.0 L 21.0 2.0" style="vector-effect: non-scaling-stroke;fill:none;" /></g></g><g style="stroke: black;stroke-width: 1.2000000000000002;" transform="matrix(1.0, 0.0, 0.0, 1.0, 0.0, 0.0)"><path d="M 28.0 -2.0 L 28.0 2.0" style="vector-effect: non-scaling-stroke;fill:none;" /></g></g><g style="stroke: black;stroke-width: 1.2000000000000002;" transform="matrix(1.0, 0.0, 0.0, 1.0, 0.0, 0.0)"><path d="M 35.0 -2.0 L 35.0 2.0" style="vector-effect: non-scaling-stroke;fill:none;" /></g></g><g style="stroke: black;stroke-width: 1.2000000000000002;" transform="matrix(1.0, 0.0, 0.0, 1.0, 0.0, 0.0)"><path d="M 42.0 -2.0 L 42.0 2.0" style="vector-effect: non-scaling-stroke;fill:none;" /></g></g></g></g><g><g><g><g><g><g><g><g><g><g><g style="stroke: black;stroke-width: 1.2000000000000002;" transform="matrix(1.0, 0.0, 0.0, 1.0, 0.0, 0.0)"><path d="M 0.0 -2.0 L 0.0 2.0" style="vector-effect: non-scaling-stroke;fill:none;" /></g><g style="stroke: #808080;stroke-width: 0.6000000000000001;" transform="matrix(1.0, 0.0, 0.0, 1.0, 0.0, 0.0)"><path d="M 0.0 0.0 L 49.0 0.0" style="vector-effect: non-scaling-stroke;fill:none;" /></g></g><g style="stroke: black;stroke-width: 2.4000000000000004;" transform="matrix(1.0, 0.0, 0.0, 1.0, 0.0, 0.0)"><path d="M 0.0 -1.3227485418319702 L 1.0 -1.3227485418319702 L 1.0 -1.3909366130828857 L 2.0 -1.3909366130828857 L 2.0 -1.1891024112701416 L 3.0 -1.1891024112701416 L 3.0 -0.47757601737976074 L 4.0 -0.47757601737976074 L 4.0 -0.4191122055053711 L 5.0 -0.4191122055053711 L 5.0 -1.2911665439605713 L 6.0 -1.2911665439605713 L 6.0 -1.5970560312271118 L 7.0 -1.5970560312271118 L 7.0 -0.9381622076034546 L 8.0 -0.9381622076034546 L 8.0 -1.3204915523529053 L 9.0 -1.3204915523529053 L 9.0 -1.5677565336227417 L 10.0 -1.5677565336227417 L 10.0 -0.5023762583732605 L 11.0 -0.5023762583732605 L 11.0 -1.488383173942566 L 12.0 -1.488383173942566 L 12.0 -1.6543400287628174 L 13.0 -1.6543400287628174 L 13.0 -1.5460772514343262 L 14.0 -1.5460772514343262 L 14.0 -1.863641619682312 L 15.0 -1.863641619682312 L 15.0 -0.6734440326690674 L 16.0 -0.6734440326690674 L 16.0 -1.0144730806350708 L 17.0 -1.0144730806350708 L 17.0 -0.8818328380584717 L 18.0 -0.8818328380584717 L 18.0 -1.2879019975662231 L 19.0 -1.2879019975662231 L 19.0 -1.3621256351470947 L 20.0 -1.3621256351470947 L 20.0 -0.9600052833557129 L 21.0 -0.9600052833557129 L 21.0 -2.1141393184661865 L 22.0 -2.1141393184661865 L 22.0 -0.5720494389533997 L 23.0 -0.5720494389533997 L 23.0 -1.400869369506836 L 24.0 -1.400869369506836 L 24.0 -0.692867636680603 L 25.0 -0.692867636680603 L 25.0 -1.996873378753662 L 26.0 -1.996873378753662 L 26.0 -2.349104166030884 L 27.0 -2.349104166030884 L 27.0 -2.1712305545806885 L 28.0 -2.1712305545806885 L 28.0 -0.5359203815460205 L 29.0 -0.5359203815460205 L 29.0 -0.5627570152282715 L 30.0 -0.5627570152282715 L 30.0 -1.893904209136963 L 31.0 -1.893904209136963 L 31.0 -1.0856494903564453 L 32.0 -1.0856494903564453 L 32.0 -2.077892541885376 L 33.0 -2.077892541885376 L 33.0 -1.8442045450210571 L 34.0 -1.8442045450210571 L 34.0 -1.6174671649932861 L 35.0 -1.6174671649932861 L 35.0 -0.5592260360717773 L 36.0 -0.5592260360717773 L 36.0 -0.9722299575805664 L 37.0 -0.9722299575805664 L 37.0 -2.0945138931274414 L 38.0 -2.0945138931274414 L 38.0 -0.981519341468811 L 39.0 -0.981519341468811 L 39.0 -0.420752614736557 L 40.0 -0.420752614736557 L 40.0 -1.1649675369262695 L 41.0 -1.1649675369262695 L 41.0 -1.752418041229248 L 42.0 -1.752418041229248 L 42.0 -1.19460129737854 L 43.0 -1.19460129737854 L 43.0 -0.6369928121566772 L 44.0 -0.6369928121566772 L 44.0 -1.8524481058120728 L 45.0 -1.8524481058120728 L 45.0 -1.8297020196914673 L 46.0 -1.8297020196914673 L 46.0 -0.5087438225746155 L 47.0 -0.5087438225746155 L 47.0 -0.4893140196800232 L 48.0 -0.4893140196800232 L 48.0 -0.9557574987411499 L 49.0 -0.9557574987411499" style="vector-effect: non-scaling-stroke;fill:none;" /></g></g><g style="stroke: black;stroke-width: 1.2000000000000002;" transform="matrix(1.0, 0.0, 0.0, 1.0, 0.0, 0.0)"><path d="M 0.0 -2.0 L 0.0 2.0" style="vector-effect: non-scaling-stroke;fill:none;" /></g></g><g style="stroke: black;stroke-width: 1.2000000000000002;" transform="matrix(1.0, 0.0, 0.0, 1.0, 0.0, 0.0)"><path d="M 7.0 -2.0 L 7.0 2.0" style="vector-effect: non-scaling-stroke;fill:none;" /></g></g><g style="stroke: black;stroke-width: 1.2000000000000002;" transform="matrix(1.0, 0.0, 0.0, 1.0, 0.0, 0.0)"><path d="M 14.0 -2.0 L 14.0 2.0" style="vector-effect: non-scaling-stroke;fill:none;" /></g></g><g style="stroke: black;stroke-width: 1.2000000000000002;" transform="matrix(1.0, 0.0, 0.0, 1.0, 0.0, 0.0)"><path d="M 21.0 -2.0 L 21.0 2.0" style="vector-effect: non-scaling-stroke;fill:none;" /></g></g><g style="stroke: black;stroke-width: 1.2000000000000002;" transform="matrix(1.0, 0.0, 0.0, 1.0, 0.0, 0.0)"><path d="M 28.0 -2.0 L 28.0 2.0" style="vector-effect: non-scaling-stroke;fill:none;" /></g></g><g style="stroke: black;stroke-width: 1.2000000000000002;" transform="matrix(1.0, 0.0, 0.0, 1.0, 0.0, 0.0)"><path d="M 35.0 -2.0 L 35.0 2.0" style="vector-effect: non-scaling-stroke;fill:none;" /></g></g><g style="stroke: black;stroke-width: 1.2000000000000002;" transform="matrix(1.0, 0.0, 0.0, 1.0, 0.0, 0.0)"><path d="M 42.0 -2.0 L 42.0 2.0" style="vector-effect: non-scaling-stroke;fill:none;" /></g></g></g></g></g></g></g><g style="stroke: black;stroke-width: 1.2000000000000002;" transform="matrix(1.0, 0.0, 0.0, 1.0, 0.6549999999999999, 0.0)"><g /></g></g><g transform="matrix(1.0, 0.0, 0.0, 1.0, 0.6699999999999999, 0.0)"><g transform="matrix(1.0, 0.0, 0.0, 1.0, 0.075, 0.0)"><g transform="matrix(1.0, 0.0, 0.0, 1.0, 0.0, 0.03)"><g transform="matrix(0.01, 0.0, 0.0, 0.01, 0.0, 0.0)"><g><g><g transform="matrix(1.0, 0.0, 0.0, 1.0, 4.5, 0.0)"><g transform="matrix(1.0, 0.0, 0.0, 1.0, -12.0, -0.0)"><g><g style="fill: #d3d3d3;stroke: black;stroke-width: 1.2000000000000002;" transform="matrix(1.0, 0.0, 0.0, 1.0, 0.0, -3.0)"><path d="M 0.0 0.0 L 24.0 0.0 L 24.0 6.0 L 0.0 6.0 L 0.0 0.0 Z" style="vector-effect: non-scaling-stroke;" /></g><g transform="matrix(1.0, 0.0, 0.0, 1.0, 1.875, 0.0)"><g><g style="stroke: black;stroke-width: 1.2000000000000002;" transform="matrix(1.0, 0.0, 0.0, 1.0, 0.0, 0.0)"><g /></g><g style="fill: #ffa500;stroke: black;stroke-width: 1.2000000000000002;" transform="matrix(1.0, 0.0, 0.0, 1.0, 1.875, 0.0)"><text style="text-align:center; text-anchor:middle; dominant-baseline:middle;&#10;                      font-family:sans-serif; font-weight: bold;&#10;                      font-size:3px;&#10;                      vector-effect: non-scaling-stroke;" transform="translate(-5e-05, 0)">y</text></g></g></g></g></g></g><g><g><g><g style="stroke: black;stroke-width: 1.2000000000000002;" transform="matrix(1.0, 0.0, 0.0, 1.0, 0.0, 0.0)"><path d="M 0.0 -2.0 L 0.0 2.0" style="vector-effect: non-scaling-stroke;fill:none;" /></g><g style="stroke: #808080;stroke-width: 0.6000000000000001;" transform="matrix(1.0, 0.0, 0.0, 1.0, 0.0, 0.0)"><path d="M 0.0 0.0 L 9.0 0.0" style="vector-effect: non-scaling-stroke;fill:none;" /></g></g><g style="stroke: black;stroke-width: 2.4000000000000004;" transform="matrix(1.0, 0.0, 0.0, 1.0, 0.0, 0.0)"><path d="M 0.0 -1.9842432737350464 L 1.0 -1.9842432737350464 L 1.0 -1.3227485418319702 L 2.0 -1.3227485418319702 L 2.0 -1.3909366130828857 L 3.0 -1.3909366130828857 L 3.0 -1.1891024112701416 L 4.0 -1.1891024112701416 L 4.0 -0.47757601737976074 L 5.0 -0.47757601737976074 L 5.0 -0.4191122055053711 L 6.0 -0.4191122055053711 L 6.0 -1.2911665439605713 L 7.0 -1.2911665439605713 L 7.0 -1.5970560312271118 L 8.0 -1.5970560312271118 L 8.0 -0.9381622076034546 L 9.0 -0.9381622076034546" style="vector-effect: non-scaling-stroke;fill:none;" /></g></g></g></g><g><g><g><g style="stroke: black;stroke-width: 1.2000000000000002;" transform="matrix(1.0, 0.0, 0.0, 1.0, 0.0, 0.0)"><path d="M 0.0 -2.0 L 0.0 2.0" style="vector-effect: non-scaling-stroke;fill:none;" /></g><g style="stroke: #808080;stroke-width: 0.6000000000000001;" transform="matrix(1.0, 0.0, 0.0, 1.0, 0.0, 0.0)"><path d="M 0.0 0.0 L 9.0 0.0" style="vector-effect: non-scaling-stroke;fill:none;" /></g></g><g style="stroke: black;stroke-width: 2.4000000000000004;" transform="matrix(1.0, 0.0, 0.0, 1.0, 0.0, 0.0)"><path d="M 0.0 -1.9842432737350464 L 1.0 -1.9842432737350464 L 1.0 -1.3227485418319702 L 2.0 -1.3227485418319702 L 2.0 -1.3909366130828857 L 3.0 -1.3909366130828857 L 3.0 -1.1891024112701416 L 4.0 -1.1891024112701416 L 4.0 -0.47757601737976074 L 5.0 -0.47757601737976074 L 5.0 -0.4191122055053711 L 6.0 -0.4191122055053711 L 6.0 -1.2911665439605713 L 7.0 -1.2911665439605713 L 7.0 -1.5970560312271118 L 8.0 -1.5970560312271118 L 8.0 -0.9381622076034546 L 9.0 -0.9381622076034546" style="vector-effect: non-scaling-stroke;fill:none;" /></g></g></g></g></g></g></g></g></g></g><g style="stroke: black;stroke-width: 1.2000000000000002;" transform="matrix(0.0, -1.0, 1.0, 0.0, 0.0, 0.08261828124523163)"><g /></g></g><g transform="matrix(1.0, 0.0, 0.0, 1.0, 0.0, 0.16261828124523162)"><g transform="matrix(1.0, 0.0, 0.0, 1.0, -0.2, -0.03)"><g transform="matrix(1.0, 0.0, 0.0, 1.0, 0.075, 0.0)"><g transform="matrix(1.0, 0.0, 0.0, 1.0, 0.0, 0.03)"><g transform="matrix(0.01, 0.0, 0.0, 0.01, 0.0, 0.0)"><g><g><g transform="matrix(1.0, 0.0, 0.0, 1.0, 12.5, 0.0)"><g transform="matrix(1.0, 0.0, 0.0, 1.0, -20.0, -0.0)"><g><g style="fill: #d3d3d3;stroke: black;stroke-width: 1.2000000000000002;" transform="matrix(1.0, 0.0, 0.0, 1.0, 0.0, -3.0)"><path d="M 0.0 0.0 L 40.0 0.0 L 40.0 6.0 L 0.0 6.0 L 0.0 0.0 Z" style="vector-effect: non-scaling-stroke;" /></g><g transform="matrix(1.0, 0.0, 0.0, 1.0, 1.875, 0.0)"><g><g style="stroke: black;stroke-width: 1.2000000000000002;" transform="matrix(1.0, 0.0, 0.0, 1.0, 0.0, 0.0)"><g /></g><g style="fill: #ffa500;stroke: black;stroke-width: 1.2000000000000002;" transform="matrix(1.0, 0.0, 0.0, 1.0, 1.875, 0.0)"><text style="text-align:center; text-anchor:middle; dominant-baseline:middle;&#10;                      font-family:sans-serif; font-weight: bold;&#10;                      font-size:3px;&#10;                      vector-effect: non-scaling-stroke;" transform="translate(-5e-05, 0)">f(x)</text></g></g></g></g></g></g><g><g><g><g style="stroke: black;stroke-width: 1.2000000000000002;" transform="matrix(1.0, 0.0, 0.0, 1.0, 0.0, 0.0)"><path d="M 0.0 -2.0 L 0.0 2.0" style="vector-effect: non-scaling-stroke;fill:none;" /></g><g style="stroke: #808080;stroke-width: 0.6000000000000001;" transform="matrix(1.0, 0.0, 0.0, 1.0, 0.0, 0.0)"><path d="M 0.0 0.0 L 25.0 0.0" style="vector-effect: non-scaling-stroke;fill:none;" /></g></g><g style="stroke: black;stroke-width: 2.4000000000000004;" transform="matrix(1.0, 0.0, 0.0, 1.0, 0.0, 0.0)"><path d="M 0.0 -0.7197384834289551 L 1.0 -0.7197384834289551 L 1.0 -0.6024218797683716 L 2.0 -0.6024218797683716 L 2.0 -0.5682520866394043 L 3.0 -0.5682520866394043 L 3.0 -0.5429346561431885 L 4.0 -0.5429346561431885 L 4.0 -0.7059851884841919 L 5.0 -0.7059851884841919 L 5.0 -0.7616262435913086 L 6.0 -0.7616262435913086 L 6.0 -0.5929703712463379 L 7.0 -0.5929703712463379 L 7.0 -0.7111943960189819 L 8.0 -0.7111943960189819 L 8.0 -0.7660436630249023 L 9.0 -0.7660436630249023 L 9.0 -1.0135174989700317 L 10.0 -1.0135174989700317 L 10.0 -0.7078631520271301 L 11.0 -0.7078631520271301 L 11.0 -0.5730099678039551 L 12.0 -0.5730099678039551 L 12.0 -0.7740539908409119 L 13.0 -0.7740539908409119 L 13.0 -0.8089159727096558 L 14.0 -0.8089159727096558 L 14.0 -0.9580315947532654 L 15.0 -0.9580315947532654 L 15.0 -0.7133167386054993 L 16.0 -0.7133167386054993 L 16.0 -0.6389820575714111 L 17.0 -0.6389820575714111 L 17.0 -0.8212066292762756 L 18.0 -0.8212066292762756 L 18.0 -0.742892324924469 L 19.0 -0.742892324924469 L 19.0 -1.0092726945877075 L 20.0 -1.0092726945877075 L 20.0 -0.5970472097396851 L 21.0 -0.5970472097396851 L 21.0 -0.7331720590591431 L 22.0 -0.7331720590591431 L 22.0 -0.9450638890266418 L 23.0 -0.9450638890266418 L 23.0 -0.7199006676673889 L 24.0 -0.7199006676673889 L 24.0 -0.7187992334365845 L 25.0 -0.7187992334365845" style="vector-effect: non-scaling-stroke;fill:none;" /></g></g></g></g><g><g><g><g style="stroke: black;stroke-width: 1.2000000000000002;" transform="matrix(1.0, 0.0, 0.0, 1.0, 0.0, 0.0)"><path d="M 0.0 -2.0 L 0.0 2.0" style="vector-effect: non-scaling-stroke;fill:none;" /></g><g style="stroke: #808080;stroke-width: 0.6000000000000001;" transform="matrix(1.0, 0.0, 0.0, 1.0, 0.0, 0.0)"><path d="M 0.0 0.0 L 25.0 0.0" style="vector-effect: non-scaling-stroke;fill:none;" /></g></g><g style="stroke: black;stroke-width: 2.4000000000000004;" transform="matrix(1.0, 0.0, 0.0, 1.0, 0.0, 0.0)"><path d="M 0.0 -0.7197384834289551 L 1.0 -0.7197384834289551 L 1.0 -0.6024218797683716 L 2.0 -0.6024218797683716 L 2.0 -0.5682520866394043 L 3.0 -0.5682520866394043 L 3.0 -0.5429346561431885 L 4.0 -0.5429346561431885 L 4.0 -0.7059851884841919 L 5.0 -0.7059851884841919 L 5.0 -0.7616262435913086 L 6.0 -0.7616262435913086 L 6.0 -0.5929703712463379 L 7.0 -0.5929703712463379 L 7.0 -0.7111943960189819 L 8.0 -0.7111943960189819 L 8.0 -0.7660436630249023 L 9.0 -0.7660436630249023 L 9.0 -1.0135174989700317 L 10.0 -1.0135174989700317 L 10.0 -0.7078631520271301 L 11.0 -0.7078631520271301 L 11.0 -0.5730099678039551 L 12.0 -0.5730099678039551 L 12.0 -0.7740539908409119 L 13.0 -0.7740539908409119 L 13.0 -0.8089159727096558 L 14.0 -0.8089159727096558 L 14.0 -0.9580315947532654 L 15.0 -0.9580315947532654 L 15.0 -0.7133167386054993 L 16.0 -0.7133167386054993 L 16.0 -0.6389820575714111 L 17.0 -0.6389820575714111 L 17.0 -0.8212066292762756 L 18.0 -0.8212066292762756 L 18.0 -0.742892324924469 L 19.0 -0.742892324924469 L 19.0 -1.0092726945877075 L 20.0 -1.0092726945877075 L 20.0 -0.5970472097396851 L 21.0 -0.5970472097396851 L 21.0 -0.7331720590591431 L 22.0 -0.7331720590591431 L 22.0 -0.9450638890266418 L 23.0 -0.9450638890266418 L 23.0 -0.7199006676673889 L 24.0 -0.7199006676673889 L 24.0 -0.7187992334365845 L 25.0 -0.7187992334365845" style="vector-effect: non-scaling-stroke;fill:none;" /></g></g></g></g></g></g></g></g></g></g><g transform="matrix(1.0, 0.0, 0.0, 1.0, -0.125, 0.16261828124523162)"><g transform="matrix(1.0, 0.0, 0.0, 0.009999999999999995, 0.0, 0.0)"><g transform="matrix(0.01, 0.0, 0.0, 1.0, 0.0, 0.0)"><g><g><g style="fill: #ffffe0;stroke: #ffffe0;stroke-width: 1.2000000000000002;fill-opacity: 0.5;" transform="matrix(1.0, 0.0, 0.0, 1.0, 0.0, 0.0)"><path d="M 0.0 -2.0 L 0.0 2.0" style="vector-effect: non-scaling-stroke;fill:none;" /></g><g style="fill: #ffffe0;stroke: #ffffe0;stroke-width: 1.2000000000000002;fill-opacity: 0.5;" transform="matrix(1.0, 0.0, 0.0, 1.0, 0.0, 0.0)"><path d="M 0.0 -1.8879895210266113 L 1.0 -1.8879895210266113 L 1.0 -1.788554310798645 L 2.0 -1.788554310798645 L 2.0 -1.7245821952819824 L 3.0 -1.7245821952819824 L 3.0 -1.74098801612854 L 4.0 -1.74098801612854 L 4.0 -1.8801966905593872 L 5.0 -1.8801966905593872 L 5.0 -1.953719139099121 L 6.0 -1.953719139099121 L 6.0 -1.7791028022766113 L 7.0 -1.7791028022766113 L 7.0 -1.9032872915267944 L 8.0 -1.9032872915267944 L 8.0 -1.981978416442871 L 9.0 -1.981978416442871 L 9.0 -2.0 L 10.0 -2.0 L 10.0 -1.8880350589752197 L 11.0 -1.8880350589752197 L 11.0 -1.7412610054016113 L 12.0 -1.7412610054016113 L 12.0 -1.96018648147583 L 13.0 -1.96018648147583 L 13.0 -1.983127474784851 L 14.0 -1.983127474784851 L 14.0 -2.0 L 15.0 -2.0 L 15.0 -1.8815677165985107 L 16.0 -1.8815677165985107 L 16.0 -1.8310749530792236 L 17.0 -1.8310749530792236 L 17.0 -1.977536678314209 L 18.0 -1.977536678314209 L 18.0 -1.9230642318725586 L 19.0 -1.9230642318725586 L 19.0 -2.0 L 20.0 -2.0 L 20.0 -1.7712587118148804 L 21.0 -1.7712587118148804 L 21.0 -1.9133440256118774 L 22.0 -1.9133440256118774 L 22.0 -2.0 L 23.0 -2.0 L 23.0 -1.9060330390930176 L 24.0 -1.9060330390930176 L 24.0 -1.8989711999893188 L 25.0 -1.8989711999893188 L 25.0 -0.7187992334365845 L 24.0 -0.7187992334365845 L 24.0 -0.7199006676673889 L 23.0 -0.7199006676673889 L 23.0 -0.9450638890266418 L 22.0 -0.9450638890266418 L 22.0 -0.7331720590591431 L 21.0 -0.7331720590591431 L 21.0 -0.5970472097396851 L 20.0 -0.5970472097396851 L 20.0 -1.0092726945877075 L 19.0 -1.0092726945877075 L 19.0 -0.742892324924469 L 18.0 -0.742892324924469 L 18.0 -0.8212066292762756 L 17.0 -0.8212066292762756 L 17.0 -0.6389820575714111 L 16.0 -0.6389820575714111 L 16.0 -0.7133167386054993 L 15.0 -0.7133167386054993 L 15.0 -0.9580315947532654 L 14.0 -0.9580315947532654 L 14.0 -0.8089159727096558 L 13.0 -0.8089159727096558 L 13.0 -0.7740539908409119 L 12.0 -0.7740539908409119 L 12.0 -0.5730099678039551 L 11.0 -0.5730099678039551 L 11.0 -0.7078631520271301 L 10.0 -0.7078631520271301 L 10.0 -1.0135174989700317 L 9.0 -1.0135174989700317 L 9.0 -0.7660436630249023 L 8.0 -0.7660436630249023 L 8.0 -0.7111943960189819 L 7.0 -0.7111943960189819 L 7.0 -0.5929703712463379 L 6.0 -0.5929703712463379 L 6.0 -0.7616262435913086 L 5.0 -0.7616262435913086 L 5.0 -0.7059851884841919 L 4.0 -0.7059851884841919 L 4.0 -0.5429346561431885 L 3.0 -0.5429346561431885 L 3.0 -0.5682520866394043 L 2.0 -0.5682520866394043 L 2.0 -0.6024218797683716 L 1.0 -0.6024218797683716 L 1.0 -0.7197384834289551 L 0.0 -0.7197384834289551 Z" style="vector-effect: non-scaling-stroke;" /></g></g><g style="stroke: black;stroke-width: 1.2000000000000002;" transform="matrix(1.0, 0.0, 0.0, 1.0, 0.0, 0.0)"><path d="M 0.0 -0.7197384834289551 L 1.0 -0.7197384834289551 L 1.0 -0.6024218797683716 L 2.0 -0.6024218797683716 L 2.0 -0.5682520866394043 L 3.0 -0.5682520866394043 L 3.0 -0.5429346561431885 L 4.0 -0.5429346561431885 L 4.0 -0.7059851884841919 L 5.0 -0.7059851884841919 L 5.0 -0.7616262435913086 L 6.0 -0.7616262435913086 L 6.0 -0.5929703712463379 L 7.0 -0.5929703712463379 L 7.0 -0.7111943960189819 L 8.0 -0.7111943960189819 L 8.0 -0.7660436630249023 L 9.0 -0.7660436630249023 L 9.0 -1.0135174989700317 L 10.0 -1.0135174989700317 L 10.0 -0.7078631520271301 L 11.0 -0.7078631520271301 L 11.0 -0.5730099678039551 L 12.0 -0.5730099678039551 L 12.0 -0.7740539908409119 L 13.0 -0.7740539908409119 L 13.0 -0.8089159727096558 L 14.0 -0.8089159727096558 L 14.0 -0.9580315947532654 L 15.0 -0.9580315947532654 L 15.0 -0.7133167386054993 L 16.0 -0.7133167386054993 L 16.0 -0.6389820575714111 L 17.0 -0.6389820575714111 L 17.0 -0.8212066292762756 L 18.0 -0.8212066292762756 L 18.0 -0.742892324924469 L 19.0 -0.742892324924469 L 19.0 -1.0092726945877075 L 20.0 -1.0092726945877075 L 20.0 -0.5970472097396851 L 21.0 -0.5970472097396851 L 21.0 -0.7331720590591431 L 22.0 -0.7331720590591431 L 22.0 -0.9450638890266418 L 23.0 -0.9450638890266418 L 23.0 -0.7199006676673889 L 24.0 -0.7199006676673889 L 24.0 -0.7187992334365845 L 25.0 -0.7187992334365845" style="vector-effect: non-scaling-stroke;fill:none;" /></g></g></g></g></g></g><g transform="matrix(1.0, 0.0, 0.0, 1.0, -0.125, 0.16261828124523162)"><g transform="matrix(1.0, 0.0, 0.0, 0.009999999999999995, 0.0, 0.0)"><g transform="matrix(0.01, 0.0, 0.0, 1.0, 0.0, 0.0)"><g><g><g style="fill: #add8e6;stroke: #add8e6;stroke-width: 1.2000000000000002;fill-opacity: 0.5;" transform="matrix(1.0, 0.0, 0.0, 1.0, 0.0, 0.0)"><path d="M 0.0 -2.0 L 0.0 2.0" style="vector-effect: non-scaling-stroke;fill:none;" /></g><g style="fill: #add8e6;stroke: #add8e6;stroke-width: 1.2000000000000002;fill-opacity: 0.5;" transform="matrix(1.0, 0.0, 0.0, 1.0, 0.0, 0.0)"><path d="M 0.0 -1.9654755592346191 L 1.0 -1.9654755592346191 L 1.0 -1.6097403764724731 L 2.0 -1.6097403764724731 L 2.0 -1.5278868675231934 L 3.0 -1.5278868675231934 L 3.0 -1.5979368686676025 L 4.0 -1.5979368686676025 L 4.0 -1.9994059801101685 L 5.0 -1.9994059801101685 L 5.0 -2.0 L 6.0 -2.0 L 6.0 -1.5764470100402832 L 7.0 -1.5764470100402832 L 7.0 -1.9211686849594116 L 8.0 -1.9211686849594116 L 8.0 -2.0 L 9.0 -2.0 L 9.0 -2.0 L 10.0 -2.0 L 10.0 -1.8939955234527588 L 11.0 -1.8939955234527588 L 11.0 -1.5326447486877441 L 12.0 -1.5326447486877441 L 12.0 -2.0 L 13.0 -2.0 L 13.0 -2.0 L 14.0 -2.0 L 14.0 -2.0 L 15.0 -2.0 L 15.0 -1.8934886455535889 L 16.0 -1.8934886455535889 L 16.0 -1.7893517017364502 L 17.0 -1.7893517017364502 L 17.0 -2.0 L 18.0 -2.0 L 18.0 -2.0 L 19.0 -2.0 L 19.0 -2.0 L 20.0 -2.0 L 20.0 -1.735495924949646 L 21.0 -1.735495924949646 L 21.0 -2.0 L 22.0 -2.0 L 22.0 -2.0 L 23.0 -2.0 L 23.0 -1.8821911811828613 L 24.0 -1.8821911811828613 L 24.0 -1.922813057899475 L 25.0 -1.922813057899475 L 25.0 -0.7187992334365845 L 24.0 -0.7187992334365845 L 24.0 -0.7199006676673889 L 23.0 -0.7199006676673889 L 23.0 -0.9450638890266418 L 22.0 -0.9450638890266418 L 22.0 -0.7331720590591431 L 21.0 -0.7331720590591431 L 21.0 -0.5970472097396851 L 20.0 -0.5970472097396851 L 20.0 -1.0092726945877075 L 19.0 -1.0092726945877075 L 19.0 -0.742892324924469 L 18.0 -0.742892324924469 L 18.0 -0.8212066292762756 L 17.0 -0.8212066292762756 L 17.0 -0.6389820575714111 L 16.0 -0.6389820575714111 L 16.0 -0.7133167386054993 L 15.0 -0.7133167386054993 L 15.0 -0.9580315947532654 L 14.0 -0.9580315947532654 L 14.0 -0.8089159727096558 L 13.0 -0.8089159727096558 L 13.0 -0.7740539908409119 L 12.0 -0.7740539908409119 L 12.0 -0.5730099678039551 L 11.0 -0.5730099678039551 L 11.0 -0.7078631520271301 L 10.0 -0.7078631520271301 L 10.0 -1.0135174989700317 L 9.0 -1.0135174989700317 L 9.0 -0.7660436630249023 L 8.0 -0.7660436630249023 L 8.0 -0.7111943960189819 L 7.0 -0.7111943960189819 L 7.0 -0.5929703712463379 L 6.0 -0.5929703712463379 L 6.0 -0.7616262435913086 L 5.0 -0.7616262435913086 L 5.0 -0.7059851884841919 L 4.0 -0.7059851884841919 L 4.0 -0.5429346561431885 L 3.0 -0.5429346561431885 L 3.0 -0.5682520866394043 L 2.0 -0.5682520866394043 L 2.0 -0.6024218797683716 L 1.0 -0.6024218797683716 L 1.0 -0.7197384834289551 L 0.0 -0.7197384834289551 Z" style="vector-effect: non-scaling-stroke;" /></g></g><g style="stroke: black;stroke-width: 1.2000000000000002;" transform="matrix(1.0, 0.0, 0.0, 1.0, 0.0, 0.0)"><path d="M 0.0 -0.7197384834289551 L 1.0 -0.7197384834289551 L 1.0 -0.6024218797683716 L 2.0 -0.6024218797683716 L 2.0 -0.5682520866394043 L 3.0 -0.5682520866394043 L 3.0 -0.5429346561431885 L 4.0 -0.5429346561431885 L 4.0 -0.7059851884841919 L 5.0 -0.7059851884841919 L 5.0 -0.7616262435913086 L 6.0 -0.7616262435913086 L 6.0 -0.5929703712463379 L 7.0 -0.5929703712463379 L 7.0 -0.7111943960189819 L 8.0 -0.7111943960189819 L 8.0 -0.7660436630249023 L 9.0 -0.7660436630249023 L 9.0 -1.0135174989700317 L 10.0 -1.0135174989700317 L 10.0 -0.7078631520271301 L 11.0 -0.7078631520271301 L 11.0 -0.5730099678039551 L 12.0 -0.5730099678039551 L 12.0 -0.7740539908409119 L 13.0 -0.7740539908409119 L 13.0 -0.8089159727096558 L 14.0 -0.8089159727096558 L 14.0 -0.9580315947532654 L 15.0 -0.9580315947532654 L 15.0 -0.7133167386054993 L 16.0 -0.7133167386054993 L 16.0 -0.6389820575714111 L 17.0 -0.6389820575714111 L 17.0 -0.8212066292762756 L 18.0 -0.8212066292762756 L 18.0 -0.742892324924469 L 19.0 -0.742892324924469 L 19.0 -1.0092726945877075 L 20.0 -1.0092726945877075 L 20.0 -0.5970472097396851 L 21.0 -0.5970472097396851 L 21.0 -0.7331720590591431 L 22.0 -0.7331720590591431 L 22.0 -0.9450638890266418 L 23.0 -0.9450638890266418 L 23.0 -0.7199006676673889 L 24.0 -0.7199006676673889 L 24.0 -0.7187992334365845 L 25.0 -0.7187992334365845" style="vector-effect: non-scaling-stroke;fill:none;" /></g></g></g></g></g></g><g transform="matrix(1.0, 0.0, 0.0, 1.0, -0.125, 0.16261828124523162)"><g transform="matrix(1.0, 0.0, 0.0, 0.009999999999999995, 0.0, 0.0)"><g transform="matrix(0.01, 0.0, 0.0, 1.0, 0.0, 0.0)"><g><g><g style="fill: #ff8c00;stroke: #ff8c00;stroke-width: 1.2000000000000002;fill-opacity: 0.5;" transform="matrix(1.0, 0.0, 0.0, 1.0, 0.0, 0.0)"><path d="M 0.0 -2.0 L 0.0 2.0" style="vector-effect: non-scaling-stroke;fill:none;" /></g><g style="fill: #ff8c00;stroke: #ff8c00;stroke-width: 1.2000000000000002;fill-opacity: 0.5;" transform="matrix(1.0, 0.0, 0.0, 1.0, 0.0, 0.0)"><path d="M 0.0 -0.7197384834289551 L 1.0 -0.7197384834289551 L 1.0 -0.6024218797683716 L 2.0 -0.6024218797683716 L 2.0 -0.5682520866394043 L 3.0 -0.5682520866394043 L 3.0 -0.5429346561431885 L 4.0 -0.5429346561431885 L 4.0 -0.7059851884841919 L 5.0 -0.7059851884841919 L 5.0 -0.7616262435913086 L 6.0 -0.7616262435913086 L 6.0 -0.5929703712463379 L 7.0 -0.5929703712463379 L 7.0 -0.7111943960189819 L 8.0 -0.7111943960189819 L 8.0 -0.7660436630249023 L 9.0 -0.7660436630249023 L 9.0 -1.0135174989700317 L 10.0 -1.0135174989700317 L 10.0 -0.7078631520271301 L 11.0 -0.7078631520271301 L 11.0 -0.5730099678039551 L 12.0 -0.5730099678039551 L 12.0 -0.7740539908409119 L 13.0 -0.7740539908409119 L 13.0 -0.8089159727096558 L 14.0 -0.8089159727096558 L 14.0 -0.9580315947532654 L 15.0 -0.9580315947532654 L 15.0 -0.7133167386054993 L 16.0 -0.7133167386054993 L 16.0 -0.6389820575714111 L 17.0 -0.6389820575714111 L 17.0 -0.8212066292762756 L 18.0 -0.8212066292762756 L 18.0 -0.742892324924469 L 19.0 -0.742892324924469 L 19.0 -1.0092726945877075 L 20.0 -1.0092726945877075 L 20.0 -0.5970472097396851 L 21.0 -0.5970472097396851 L 21.0 -0.7331720590591431 L 22.0 -0.7331720590591431 L 22.0 -0.9450638890266418 L 23.0 -0.9450638890266418 L 23.0 -0.7199006676673889 L 24.0 -0.7199006676673889 L 24.0 -0.7187992334365845 L 25.0 -0.7187992334365845 L 25.0 -0.7187992334365845 L 24.0 -0.7187992334365845 L 24.0 -0.7199006676673889 L 23.0 -0.7199006676673889 L 23.0 -0.9450638890266418 L 22.0 -0.9450638890266418 L 22.0 -0.7331720590591431 L 21.0 -0.7331720590591431 L 21.0 -0.5970472097396851 L 20.0 -0.5970472097396851 L 20.0 -1.0092726945877075 L 19.0 -1.0092726945877075 L 19.0 -0.742892324924469 L 18.0 -0.742892324924469 L 18.0 -0.8212066292762756 L 17.0 -0.8212066292762756 L 17.0 -0.6389820575714111 L 16.0 -0.6389820575714111 L 16.0 -0.7133167386054993 L 15.0 -0.7133167386054993 L 15.0 -0.9580315947532654 L 14.0 -0.9580315947532654 L 14.0 -0.8089159727096558 L 13.0 -0.8089159727096558 L 13.0 -0.7740539908409119 L 12.0 -0.7740539908409119 L 12.0 -0.5730099678039551 L 11.0 -0.5730099678039551 L 11.0 -0.7078631520271301 L 10.0 -0.7078631520271301 L 10.0 -1.0135174989700317 L 9.0 -1.0135174989700317 L 9.0 -0.7660436630249023 L 8.0 -0.7660436630249023 L 8.0 -0.7111943960189819 L 7.0 -0.7111943960189819 L 7.0 -0.5929703712463379 L 6.0 -0.5929703712463379 L 6.0 -0.7616262435913086 L 5.0 -0.7616262435913086 L 5.0 -0.7059851884841919 L 4.0 -0.7059851884841919 L 4.0 -0.5429346561431885 L 3.0 -0.5429346561431885 L 3.0 -0.5682520866394043 L 2.0 -0.5682520866394043 L 2.0 -0.6024218797683716 L 1.0 -0.6024218797683716 L 1.0 -0.7197384834289551 L 0.0 -0.7197384834289551 Z" style="vector-effect: non-scaling-stroke;" /></g></g><g style="stroke: black;stroke-width: 1.2000000000000002;" transform="matrix(1.0, 0.0, 0.0, 1.0, 0.0, 0.0)"><path d="M 0.0 -0.7197384834289551 L 1.0 -0.7197384834289551 L 1.0 -0.6024218797683716 L 2.0 -0.6024218797683716 L 2.0 -0.5682520866394043 L 3.0 -0.5682520866394043 L 3.0 -0.5429346561431885 L 4.0 -0.5429346561431885 L 4.0 -0.7059851884841919 L 5.0 -0.7059851884841919 L 5.0 -0.7616262435913086 L 6.0 -0.7616262435913086 L 6.0 -0.5929703712463379 L 7.0 -0.5929703712463379 L 7.0 -0.7111943960189819 L 8.0 -0.7111943960189819 L 8.0 -0.7660436630249023 L 9.0 -0.7660436630249023 L 9.0 -1.0135174989700317 L 10.0 -1.0135174989700317 L 10.0 -0.7078631520271301 L 11.0 -0.7078631520271301 L 11.0 -0.5730099678039551 L 12.0 -0.5730099678039551 L 12.0 -0.7740539908409119 L 13.0 -0.7740539908409119 L 13.0 -0.8089159727096558 L 14.0 -0.8089159727096558 L 14.0 -0.9580315947532654 L 15.0 -0.9580315947532654 L 15.0 -0.7133167386054993 L 16.0 -0.7133167386054993 L 16.0 -0.6389820575714111 L 17.0 -0.6389820575714111 L 17.0 -0.8212066292762756 L 18.0 -0.8212066292762756 L 18.0 -0.742892324924469 L 19.0 -0.742892324924469 L 19.0 -1.0092726945877075 L 20.0 -1.0092726945877075 L 20.0 -0.5970472097396851 L 21.0 -0.5970472097396851 L 21.0 -0.7331720590591431 L 22.0 -0.7331720590591431 L 22.0 -0.9450638890266418 L 23.0 -0.9450638890266418 L 23.0 -0.7199006676673889 L 24.0 -0.7199006676673889 L 24.0 -0.7187992334365845 L 25.0 -0.7187992334365845" style="vector-effect: non-scaling-stroke;fill:none;" /></g></g></g></g></g></g><g transform="matrix(1.0, 0.0, 0.0, 1.0, -0.125, 0.16261828124523162)"><g transform="matrix(1.0, 0.0, 0.0, 0.009999999999999995, 0.0, 0.0)"><g transform="matrix(0.01, 0.0, 0.0, 1.0, 0.0, 0.0)"><g><g><g style="fill: #0000ff;stroke: #0000ff;stroke-width: 1.2000000000000002;fill-opacity: 0.5;" transform="matrix(1.0, 0.0, 0.0, 1.0, 0.0, 0.0)"><path d="M 0.0 -2.0 L 0.0 2.0" style="vector-effect: non-scaling-stroke;fill:none;" /></g><g style="fill: #0000ff;stroke: #0000ff;stroke-width: 1.2000000000000002;fill-opacity: 0.5;" transform="matrix(1.0, 0.0, 0.0, 1.0, 0.0, 0.0)"><path d="M 0.0 -0.7197384834289551 L 1.0 -0.7197384834289551 L 1.0 -0.6024218797683716 L 2.0 -0.6024218797683716 L 2.0 -0.5682520866394043 L 3.0 -0.5682520866394043 L 3.0 -0.5429346561431885 L 4.0 -0.5429346561431885 L 4.0 -0.7059851884841919 L 5.0 -0.7059851884841919 L 5.0 -0.7616262435913086 L 6.0 -0.7616262435913086 L 6.0 -0.5929703712463379 L 7.0 -0.5929703712463379 L 7.0 -0.7111943960189819 L 8.0 -0.7111943960189819 L 8.0 -0.7660436630249023 L 9.0 -0.7660436630249023 L 9.0 -1.0135174989700317 L 10.0 -1.0135174989700317 L 10.0 -0.7078631520271301 L 11.0 -0.7078631520271301 L 11.0 -0.5730099678039551 L 12.0 -0.5730099678039551 L 12.0 -0.7740539908409119 L 13.0 -0.7740539908409119 L 13.0 -0.8089159727096558 L 14.0 -0.8089159727096558 L 14.0 -0.9580315947532654 L 15.0 -0.9580315947532654 L 15.0 -0.7133167386054993 L 16.0 -0.7133167386054993 L 16.0 -0.6389820575714111 L 17.0 -0.6389820575714111 L 17.0 -0.8212066292762756 L 18.0 -0.8212066292762756 L 18.0 -0.742892324924469 L 19.0 -0.742892324924469 L 19.0 -1.0092726945877075 L 20.0 -1.0092726945877075 L 20.0 -0.5970472097396851 L 21.0 -0.5970472097396851 L 21.0 -0.7331720590591431 L 22.0 -0.7331720590591431 L 22.0 -0.9450638890266418 L 23.0 -0.9450638890266418 L 23.0 -0.7199006676673889 L 24.0 -0.7199006676673889 L 24.0 -0.7187992334365845 L 25.0 -0.7187992334365845 L 25.0 -0.7187992334365845 L 24.0 -0.7187992334365845 L 24.0 -0.7199006676673889 L 23.0 -0.7199006676673889 L 23.0 -0.9450638890266418 L 22.0 -0.9450638890266418 L 22.0 -0.7331720590591431 L 21.0 -0.7331720590591431 L 21.0 -0.5970472097396851 L 20.0 -0.5970472097396851 L 20.0 -1.0092726945877075 L 19.0 -1.0092726945877075 L 19.0 -0.742892324924469 L 18.0 -0.742892324924469 L 18.0 -0.8212066292762756 L 17.0 -0.8212066292762756 L 17.0 -0.6389820575714111 L 16.0 -0.6389820575714111 L 16.0 -0.7133167386054993 L 15.0 -0.7133167386054993 L 15.0 -0.9580315947532654 L 14.0 -0.9580315947532654 L 14.0 -0.8089159727096558 L 13.0 -0.8089159727096558 L 13.0 -0.7740539908409119 L 12.0 -0.7740539908409119 L 12.0 -0.5730099678039551 L 11.0 -0.5730099678039551 L 11.0 -0.7078631520271301 L 10.0 -0.7078631520271301 L 10.0 -1.0135174989700317 L 9.0 -1.0135174989700317 L 9.0 -0.7660436630249023 L 8.0 -0.7660436630249023 L 8.0 -0.7111943960189819 L 7.0 -0.7111943960189819 L 7.0 -0.5929703712463379 L 6.0 -0.5929703712463379 L 6.0 -0.7616262435913086 L 5.0 -0.7616262435913086 L 5.0 -0.7059851884841919 L 4.0 -0.7059851884841919 L 4.0 -0.5429346561431885 L 3.0 -0.5429346561431885 L 3.0 -0.5682520866394043 L 2.0 -0.5682520866394043 L 2.0 -0.6024218797683716 L 1.0 -0.6024218797683716 L 1.0 -0.7197384834289551 L 0.0 -0.7197384834289551 Z" style="vector-effect: non-scaling-stroke;" /></g></g><g style="stroke: black;stroke-width: 1.2000000000000002;" transform="matrix(1.0, 0.0, 0.0, 1.0, 0.0, 0.0)"><path d="M 0.0 -0.7197384834289551 L 1.0 -0.7197384834289551 L 1.0 -0.6024218797683716 L 2.0 -0.6024218797683716 L 2.0 -0.5682520866394043 L 3.0 -0.5682520866394043 L 3.0 -0.5429346561431885 L 4.0 -0.5429346561431885 L 4.0 -0.7059851884841919 L 5.0 -0.7059851884841919 L 5.0 -0.7616262435913086 L 6.0 -0.7616262435913086 L 6.0 -0.5929703712463379 L 7.0 -0.5929703712463379 L 7.0 -0.7111943960189819 L 8.0 -0.7111943960189819 L 8.0 -0.7660436630249023 L 9.0 -0.7660436630249023 L 9.0 -1.0135174989700317 L 10.0 -1.0135174989700317 L 10.0 -0.7078631520271301 L 11.0 -0.7078631520271301 L 11.0 -0.5730099678039551 L 12.0 -0.5730099678039551 L 12.0 -0.7740539908409119 L 13.0 -0.7740539908409119 L 13.0 -0.8089159727096558 L 14.0 -0.8089159727096558 L 14.0 -0.9580315947532654 L 15.0 -0.9580315947532654 L 15.0 -0.7133167386054993 L 16.0 -0.7133167386054993 L 16.0 -0.6389820575714111 L 17.0 -0.6389820575714111 L 17.0 -0.8212066292762756 L 18.0 -0.8212066292762756 L 18.0 -0.742892324924469 L 19.0 -0.742892324924469 L 19.0 -1.0092726945877075 L 20.0 -1.0092726945877075 L 20.0 -0.5970472097396851 L 21.0 -0.5970472097396851 L 21.0 -0.7331720590591431 L 22.0 -0.7331720590591431 L 22.0 -0.9450638890266418 L 23.0 -0.9450638890266418 L 23.0 -0.7199006676673889 L 24.0 -0.7199006676673889 L 24.0 -0.7187992334365845 L 25.0 -0.7187992334365845" style="vector-effect: non-scaling-stroke;fill:none;" /></g></g></g></g></g></g></g></g><g /></g></g></g></g></svg>