<?xml version="1.0" encoding="utf-8" ?>
<svg baseProfile="full" height="300" version="1.1" width="1056" xmlns="http://www.w3.org/2000/svg" xmlns:ev="http://www.w3.org/2001/xml-events" xmlns:xlink="http://www.w3.org/1999/xlink"><defs><marker id="arrow" markerHeight="3.5" markerWidth="5" orient="auto" refX="5.0" refY="1.7"><polygon points="0,0 5,1.75 0,3.5" /></marker></defs><g style="fill:white;"><g transform="matrix(1.0, 0.0, 0.0, 1.0, 528.409090909091, 150.0)"><g transform="matrix(1082.2510822510822, 0.0, 0.0, 1082.2510822510822, 0.0, 0.0)"><g><g transform="matrix(1.0, 0.0, 0.0, 1.0, -0.0, -0.08000000000000002)"><g><g><g style="fill: #ffffff;stroke: black;stroke-width: 1.2000000000000002;" transform="matrix(1.0, 0.0, 0.0, 1.0, -0.465, -0.052000000000000005)"><path d="M 0.0 0.0 L 0.93 0.0 L 0.93 0.264 L 0.0 0.264 L 0.0 0.0 Z" style="vector-effect: non-scaling-stroke;" /></g><g><g><g><g><g><g><g><g transform="matrix(1.0, 0.0, 0.0, 1.0, -0.41500000000000004, -0.03)"><g><g><g transform="matrix(1.0, 0.0, 0.0, 1.0, 0.075, 0.0)"><g transform="matrix(1.0, 0.0, 0.0, 1.0, 0.0, 0.03)"><g transform="matrix(0.01, 0.0, 0.0, 0.01, 0.0, 0.0)"><g><g><g transform="matrix(1.0, 0.0, 0.0, 1.0, 12.5, 0.0)"><g transform="matrix(1.0, 0.0, 0.0, 1.0, -20.0, -0.0)"><g><g style="fill: #d3d3d3;stroke: black;stroke-width: 1.2000000000000002;" transform="matrix(1.0, 0.0, 0.0, 1.0, 0.0, -3.0)"><path d="M 0.0 0.0 L 40.0 0.0 L 40.0 6.0 L 0.0 6.0 L 0.0 0.0 Z" style="vector-effect: non-scaling-stroke;" /></g><g transform="matrix(1.0, 0.0, 0.0, 1.0, 1.875, 0.0)"><g><g style="stroke: black;stroke-width: 1.2000000000000002;" transform="matrix(1.0, 0.0, 0.0, 1.0, 0.0, 0.0)"><g /></g><g style="fill: #ffa500;stroke: black;stroke-width: 1.2000000000000002;" transform="matrix(1.0, 0.0, 0.0, 1.0, 1.875, 0.0)"><text style="text-align:center; text-anchor:middle; dominant-baseline:middle;&#10;                      font-family:sans-serif; font-weight: bold;&#10;                      font-size:3px;&#10;                      vector-effect: non-scaling-stroke;" transform="translate(-5e-05, 0)">x</text></g></g></g></g></g></g><g><g><g><g><g style="stroke: black;stroke-width: 1.2000000000000002;" transform="matrix(1.0, 0.0, 0.0, 1.0, 0.0, 0.0)"><path d="M 0.0 -2.0 L 0.0 2.0" style="vector-effect: non-scaling-stroke;fill:none;" /></g><g style="stroke: #808080;stroke-width: 0.6000000000000001;" transform="matrix(1.0, 0.0, 0.0, 1.0, 0.0, 0.0)"><path d="M 0.0 0.0 L 25.0 0.0" style="vector-effect: non-scaling-stroke;fill:none;" /></g></g><g style="stroke: black;stroke-width: 2.4000000000000004;" transform="matrix(1.0, 0.0, 0.0, 1.0, 0.0, 0.0)"><path d="M 0.0 0.871941864490509 L 1.0 0.871941864490509 L 1.0 0.2536965608596802 L 2.0 0.2536965608596802 L 2.0 0.20256835222244263 L 3.0 0.20256835222244263 L 3.0 0.40527454018592834 L 4.0 0.40527454018592834 L 4.0 -0.26852527260780334 L 5.0 -0.26852527260780334 L 5.0 -0.35136839747428894 L 6.0 -0.35136839747428894 L 6.0 -0.6916482448577881 L 7.0 -0.6916482448577881 L 7.0 0.1972484141588211 L 8.0 0.1972484141588211 L 8.0 -0.9115141034126282 L 9.0 -0.9115141034126282 L 9.0 -0.4357282519340515 L 10.0 -0.4357282519340515 L 10.0 -0.227659672498703 L 11.0 -0.227659672498703 L 11.0 0.2672785520553589 L 12.0 0.2672785520553589 L 12.0 -0.09378920495510101 L 13.0 -0.09378920495510101 L 13.0 -0.03657596930861473 L 14.0 -0.03657596930861473 L 14.0 -0.7623620629310608 L 15.0 -0.7623620629310608 L 15.0 0.05543040484189987 L 16.0 0.05543040484189987 L 16.0 -1.6880478858947754 L 17.0 -1.6880478858947754 L 17.0 -0.9875346422195435 L 18.0 -0.9875346422195435 L 18.0 -1.693429946899414 L 19.0 -1.693429946899414 L 19.0 0.17093953490257263 L 20.0 0.17093953490257263 L 20.0 -1.04374361038208 L 21.0 -1.04374361038208 L 21.0 -0.29867035150527954 L 22.0 -0.29867035150527954 L 22.0 -0.9582696557044983 L 23.0 -0.9582696557044983 L 23.0 -0.444803386926651 L 24.0 -0.444803386926651 L 24.0 -0.6638801097869873 L 25.0 -0.6638801097869873" style="vector-effect: non-scaling-stroke;fill:none;" /></g></g><g style="stroke: black;stroke-width: 1.2000000000000002;" transform="matrix(1.0, 0.0, 0.0, 1.0, 0.0, 0.0)"><path d="M 0.0 -2.0 L 0.0 2.0" style="vector-effect: non-scaling-stroke;fill:none;" /></g></g></g></g><g><g><g><g><g style="stroke: black;stroke-width: 1.2000000000000002;" transform="matrix(1.0, 0.0, 0.0, 1.0, 0.0, 0.0)"><path d="M 0.0 -2.0 L 0.0 2.0" style="vector-effect: non-scaling-stroke;fill:none;" /></g><g style="stroke: #808080;stroke-width: 0.6000000000000001;" transform="matrix(1.0, 0.0, 0.0, 1.0, 0.0, 0.0)"><path d="M 0.0 0.0 L 25.0 0.0" style="vector-effect: non-scaling-stroke;fill:none;" /></g></g><g style="stroke: black;stroke-width: 2.4000000000000004;" transform="matrix(1.0, 0.0, 0.0, 1.0, 0.0, 0.0)"><path d="M 0.0 0.871941864490509 L 1.0 0.871941864490509 L 1.0 0.2536965608596802 L 2.0 0.2536965608596802 L 2.0 0.20256835222244263 L 3.0 0.20256835222244263 L 3.0 0.40527454018592834 L 4.0 0.40527454018592834 L 4.0 -0.26852527260780334 L 5.0 -0.26852527260780334 L 5.0 -0.35136839747428894 L 6.0 -0.35136839747428894 L 6.0 -0.6916482448577881 L 7.0 -0.6916482448577881 L 7.0 0.1972484141588211 L 8.0 0.1972484141588211 L 8.0 -0.9115141034126282 L 9.0 -0.9115141034126282 L 9.0 -0.4357282519340515 L 10.0 -0.4357282519340515 L 10.0 -0.227659672498703 L 11.0 -0.227659672498703 L 11.0 0.2672785520553589 L 12.0 0.2672785520553589 L 12.0 -0.09378920495510101 L 13.0 -0.09378920495510101 L 13.0 -0.03657596930861473 L 14.0 -0.03657596930861473 L 14.0 -0.7623620629310608 L 15.0 -0.7623620629310608 L 15.0 0.05543040484189987 L 16.0 0.05543040484189987 L 16.0 -1.6880478858947754 L 17.0 -1.6880478858947754 L 17.0 -0.9875346422195435 L 18.0 -0.9875346422195435 L 18.0 -1.693429946899414 L 19.0 -1.693429946899414 L 19.0 0.17093953490257263 L 20.0 0.17093953490257263 L 20.0 -1.04374361038208 L 21.0 -1.04374361038208 L 21.0 -0.29867035150527954 L 22.0 -0.29867035150527954 L 22.0 -0.9582696557044983 L 23.0 -0.9582696557044983 L 23.0 -0.444803386926651 L 24.0 -0.444803386926651 L 24.0 -0.6638801097869873 L 25.0 -0.6638801097869873" style="vector-effect: non-scaling-stroke;fill:none;" /></g></g><g style="stroke: black;stroke-width: 1.2000000000000002;" transform="matrix(1.0, 0.0, 0.0, 1.0, 0.0, 0.0)"><path d="M 0.0 -2.0 L 0.0 2.0" style="vector-effect: non-scaling-stroke;fill:none;" /></g></g></g></g></g></g></g><g style="stroke: black;stroke-width: 1.2000000000000002;" transform="matrix(1.0, 0.0, 0.0, 1.0, 0.41500000000000004, 0.0)"><g /></g></g><g transform="matrix(1.0, 0.0, 0.0, 1.0, 0.43000000000000005, 0.0)"><g transform="matrix(1.0, 0.0, 0.0, 1.0, 0.075, 0.0)"><g transform="matrix(1.0, 0.0, 0.0, 1.0, 0.0, 0.03)"><g transform="matrix(0.01, 0.0, 0.0, 0.01, 0.0, 0.0)"><g><g><g transform="matrix(1.0, 0.0, 0.0, 1.0, 12.5, 0.0)"><g transform="matrix(1.0, 0.0, 0.0, 1.0, -20.0, -0.0)"><g><g style="fill: #d3d3d3;stroke: black;stroke-width: 1.2000000000000002;" transform="matrix(1.0, 0.0, 0.0, 1.0, 0.0, -3.0)"><path d="M 0.0 0.0 L 40.0 0.0 L 40.0 6.0 L 0.0 6.0 L 0.0 0.0 Z" style="vector-effect: non-scaling-stroke;" /></g><g transform="matrix(1.0, 0.0, 0.0, 1.0, 1.875, 0.0)"><g><g style="stroke: black;stroke-width: 1.2000000000000002;" transform="matrix(1.0, 0.0, 0.0, 1.0, 0.0, 0.0)"><g /></g><g style="fill: #ffa500;stroke: black;stroke-width: 1.2000000000000002;" transform="matrix(1.0, 0.0, 0.0, 1.0, 1.875, 0.0)"><text style="text-align:center; text-anchor:middle; dominant-baseline:middle;&#10;                      font-family:sans-serif; font-weight: bold;&#10;                      font-size:3px;&#10;                      vector-effect: non-scaling-stroke;" transform="translate(-5e-05, 0)">y</text></g></g></g></g></g></g><g><g><g><g style="stroke: black;stroke-width: 1.2000000000000002;" transform="matrix(1.0, 0.0, 0.0, 1.0, 0.0, 0.0)"><path d="M 0.0 -2.0 L 0.0 2.0" style="vector-effect: non-scaling-stroke;fill:none;" /></g><g style="stroke: #808080;stroke-width: 0.6000000000000001;" transform="matrix(1.0, 0.0, 0.0, 1.0, 0.0, 0.0)"><path d="M 0.0 0.0 L 25.0 0.0" style="vector-effect: non-scaling-stroke;fill:none;" /></g></g><g style="stroke: black;stroke-width: 2.4000000000000004;" transform="matrix(1.0, 0.0, 0.0, 1.0, 0.0, 0.0)"><path d="M 0.0 -1.389845848083496 L 1.0 -1.389845848083496 L 1.0 -1.0459502935409546 L 2.0 -1.0459502935409546 L 2.0 -1.874679446220398 L 3.0 -1.874679446220398 L 3.0 -0.8415325284004211 L 4.0 -0.8415325284004211 L 4.0 -1.8072394132614136 L 5.0 -1.8072394132614136 L 5.0 -0.18836985528469086 L 6.0 -0.18836985528469086 L 6.0 -1.7506518363952637 L 7.0 -1.7506518363952637 L 7.0 -1.2369564771652222 L 8.0 -1.2369564771652222 L 8.0 -1.3810935020446777 L 9.0 -1.3810935020446777 L 9.0 -1.3974287509918213 L 10.0 -1.3974287509918213 L 10.0 -1.7242653369903564 L 11.0 -1.7242653369903564 L 11.0 -1.3872874975204468 L 12.0 -1.3872874975204468 L 12.0 -1.2593145370483398 L 13.0 -1.2593145370483398 L 13.0 -1.8147130012512207 L 14.0 -1.8147130012512207 L 14.0 -1.395669937133789 L 15.0 -1.395669937133789 L 15.0 -0.21278686821460724 L 16.0 -0.21278686821460724 L 16.0 -1.3385826349258423 L 17.0 -1.3385826349258423 L 17.0 -0.02134583704173565 L 18.0 -0.02134583704173565 L 18.0 -1.1525174379348755 L 19.0 -1.1525174379348755 L 19.0 -0.13235895335674286 L 20.0 -0.13235895335674286 L 20.0 -1.0333293676376343 L 21.0 -1.0333293676376343 L 21.0 -1.1160067319869995 L 22.0 -1.1160067319869995 L 22.0 -0.5435988306999207 L 23.0 -0.5435988306999207 L 23.0 -0.10872414708137512 L 24.0 -0.10872414708137512 L 24.0 -1.2195825576782227 L 25.0 -1.2195825576782227" style="vector-effect: non-scaling-stroke;fill:none;" /></g></g></g></g><g><g><g><g style="stroke: black;stroke-width: 1.2000000000000002;" transform="matrix(1.0, 0.0, 0.0, 1.0, 0.0, 0.0)"><path d="M 0.0 -2.0 L 0.0 2.0" style="vector-effect: non-scaling-stroke;fill:none;" /></g><g style="stroke: #808080;stroke-width: 0.6000000000000001;" transform="matrix(1.0, 0.0, 0.0, 1.0, 0.0, 0.0)"><path d="M 0.0 0.0 L 25.0 0.0" style="vector-effect: non-scaling-stroke;fill:none;" /></g></g><g style="stroke: black;stroke-width: 2.4000000000000004;" transform="matrix(1.0, 0.0, 0.0, 1.0, 0.0, 0.0)"><path d="M 0.0 -1.389845848083496 L 1.0 -1.389845848083496 L 1.0 -1.0459502935409546 L 2.0 -1.0459502935409546 L 2.0 -1.874679446220398 L 3.0 -1.874679446220398 L 3.0 -0.8415325284004211 L 4.0 -0.8415325284004211 L 4.0 -1.8072394132614136 L 5.0 -1.8072394132614136 L 5.0 -0.18836985528469086 L 6.0 -0.18836985528469086 L 6.0 -1.7506518363952637 L 7.0 -1.7506518363952637 L 7.0 -1.2369564771652222 L 8.0 -1.2369564771652222 L 8.0 -1.3810935020446777 L 9.0 -1.3810935020446777 L 9.0 -1.3974287509918213 L 10.0 -1.3974287509918213 L 10.0 -1.7242653369903564 L 11.0 -1.7242653369903564 L 11.0 -1.3872874975204468 L 12.0 -1.3872874975204468 L 12.0 -1.2593145370483398 L 13.0 -1.2593145370483398 L 13.0 -1.8147130012512207 L 14.0 -1.8147130012512207 L 14.0 -1.395669937133789 L 15.0 -1.395669937133789 L 15.0 -0.21278686821460724 L 16.0 -0.21278686821460724 L 16.0 -1.3385826349258423 L 17.0 -1.3385826349258423 L 17.0 -0.02134583704173565 L 18.0 -0.02134583704173565 L 18.0 -1.1525174379348755 L 19.0 -1.1525174379348755 L 19.0 -0.13235895335674286 L 20.0 -0.13235895335674286 L 20.0 -1.0333293676376343 L 21.0 -1.0333293676376343 L 21.0 -1.1160067319869995 L 22.0 -1.1160067319869995 L 22.0 -0.5435988306999207 L 23.0 -0.5435988306999207 L 23.0 -0.10872414708137512 L 24.0 -0.10872414708137512 L 24.0 -1.2195825576782227 L 25.0 -1.2195825576782227" style="vector-effect: non-scaling-stroke;fill:none;" /></g></g></g></g></g></g></g></g></g></g><g style="stroke: black;stroke-width: 1.2000000000000002;" transform="matrix(0.0, -1.0, 1.0, 0.0, 0.0, 0.08)"><g /></g></g><g transform="matrix(1.0, 0.0, 0.0, 1.0, 0.0, 0.16)"><g transform="matrix(1.0, 0.0, 0.0, 1.0, -0.2, -0.03)"><g transform="matrix(1.0, 0.0, 0.0, 1.0, 0.075, 0.0)"><g transform="matrix(1.0, 0.0, 0.0, 1.0, 0.0, 0.03)"><g transform="matrix(0.01, 0.0, 0.0, 0.01, 0.0, 0.0)"><g><g><g transform="matrix(1.0, 0.0, 0.0, 1.0, 12.5, 0.0)"><g transform="matrix(1.0, 0.0, 0.0, 1.0, -20.0, -0.0)"><g><g style="fill: #d3d3d3;stroke: black;stroke-width: 1.2000000000000002;" transform="matrix(1.0, 0.0, 0.0, 1.0, 0.0, -3.0)"><path d="M 0.0 0.0 L 40.0 0.0 L 40.0 6.0 L 0.0 6.0 L 0.0 0.0 Z" style="vector-effect: non-scaling-stroke;" /></g><g transform="matrix(1.0, 0.0, 0.0, 1.0, 1.875, 0.0)"><g><g style="stroke: black;stroke-width: 1.2000000000000002;" transform="matrix(1.0, 0.0, 0.0, 1.0, 0.0, 0.0)"><g /></g><g style="fill: #ffa500;stroke: black;stroke-width: 1.2000000000000002;" transform="matrix(1.0, 0.0, 0.0, 1.0, 1.875, 0.0)"><text style="text-align:center; text-anchor:middle; dominant-baseline:middle;&#10;                      font-family:sans-serif; font-weight: bold;&#10;                      font-size:3px;&#10;                      vector-effect: non-scaling-stroke;" transform="translate(-5e-05, 0)">f(x)</text></g></g></g></g></g></g><g><g><g><g style="stroke: black;stroke-width: 1.2000000000000002;" transform="matrix(1.0, 0.0, 0.0, 1.0, 0.0, 0.0)"><path d="M 0.0 -2.0 L 0.0 2.0" style="vector-effect: non-scaling-stroke;fill:none;" /></g><g style="stroke: #808080;stroke-width: 0.6000000000000001;" transform="matrix(1.0, 0.0, 0.0, 1.0, 0.0, 0.0)"><path d="M 0.0 0.0 L 25.0 0.0" style="vector-effect: non-scaling-stroke;fill:none;" /></g></g><g style="stroke: black;stroke-width: 2.4000000000000004;" transform="matrix(1.0, 0.0, 0.0, 1.0, 0.0, 0.0)"><path d="M 0.0 0.6059324145317078 L 1.0 0.6059324145317078 L 1.0 0.13267698884010315 L 2.0 0.13267698884010315 L 2.0 0.18987536430358887 L 3.0 0.18987536430358887 L 3.0 0.17052584886550903 L 4.0 0.17052584886550903 L 4.0 -0.24264472723007202 L 5.0 -0.24264472723007202 L 5.0 -0.03309360891580582 L 6.0 -0.03309360891580582 L 6.0 -0.6054176092147827 L 7.0 -0.6054176092147827 L 7.0 0.12199385464191437 L 8.0 0.12199385464191437 L 8.0 -0.6294431090354919 L 9.0 -0.6294431090354919 L 9.0 -0.30444958806037903 L 10.0 -0.30444958806037903 L 10.0 -0.1962728351354599 L 11.0 -0.1962728351354599 L 11.0 0.18539609014987946 L 12.0 0.18539609014987946 L 12.0 -0.05905505642294884 L 13.0 -0.05905505642294884 L 13.0 -0.033187445253133774 L 14.0 -0.033187445253133774 L 14.0 -0.5320029258728027 L 15.0 -0.5320029258728027 L 15.0 0.005897431168705225 L 16.0 0.005897431168705225 L 16.0 -1.129795789718628 L 17.0 -1.129795789718628 L 17.0 -0.010539877228438854 L 18.0 -0.010539877228438854 L 18.0 -0.9758538007736206 L 19.0 -0.9758538007736206 L 19.0 0.011312688700854778 L 20.0 0.011312688700854778 L 20.0 -0.5392654538154602 L 21.0 -0.5392654538154602 L 21.0 -0.16665905714035034 L 22.0 -0.16665905714035034 L 22.0 -0.2604571282863617 L 23.0 -0.2604571282863617 L 23.0 -0.02418043464422226 L 24.0 -0.02418043464422226 L 24.0 -0.4048283100128174 L 25.0 -0.4048283100128174" style="vector-effect: non-scaling-stroke;fill:none;" /></g></g></g></g><g><g><g><g style="stroke: black;stroke-width: 1.2000000000000002;" transform="matrix(1.0, 0.0, 0.0, 1.0, 0.0, 0.0)"><path d="M 0.0 -2.0 L 0.0 2.0" style="vector-effect: non-scaling-stroke;fill:none;" /></g><g style="stroke: #808080;stroke-width: 0.6000000000000001;" transform="matrix(1.0, 0.0, 0.0, 1.0, 0.0, 0.0)"><path d="M 0.0 0.0 L 25.0 0.0" style="vector-effect: non-scaling-stroke;fill:none;" /></g></g><g style="stroke: black;stroke-width: 2.4000000000000004;" transform="matrix(1.0, 0.0, 0.0, 1.0, 0.0, 0.0)"><path d="M 0.0 0.6059324145317078 L 1.0 0.6059324145317078 L 1.0 0.13267698884010315 L 2.0 0.13267698884010315 L 2.0 0.18987536430358887 L 3.0 0.18987536430358887 L 3.0 0.17052584886550903 L 4.0 0.17052584886550903 L 4.0 -0.24264472723007202 L 5.0 -0.24264472723007202 L 5.0 -0.03309360891580582 L 6.0 -0.03309360891580582 L 6.0 -0.6054176092147827 L 7.0 -0.6054176092147827 L 7.0 0.12199385464191437 L 8.0 0.12199385464191437 L 8.0 -0.6294431090354919 L 9.0 -0.6294431090354919 L 9.0 -0.30444958806037903 L 10.0 -0.30444958806037903 L 10.0 -0.1962728351354599 L 11.0 -0.1962728351354599 L 11.0 0.18539609014987946 L 12.0 0.18539609014987946 L 12.0 -0.05905505642294884 L 13.0 -0.05905505642294884 L 13.0 -0.033187445253133774 L 14.0 -0.033187445253133774 L 14.0 -0.5320029258728027 L 15.0 -0.5320029258728027 L 15.0 0.005897431168705225 L 16.0 0.005897431168705225 L 16.0 -1.129795789718628 L 17.0 -1.129795789718628 L 17.0 -0.010539877228438854 L 18.0 -0.010539877228438854 L 18.0 -0.9758538007736206 L 19.0 -0.9758538007736206 L 19.0 0.011312688700854778 L 20.0 0.011312688700854778 L 20.0 -0.5392654538154602 L 21.0 -0.5392654538154602 L 21.0 -0.16665905714035034 L 22.0 -0.16665905714035034 L 22.0 -0.2604571282863617 L 23.0 -0.2604571282863617 L 23.0 -0.02418043464422226 L 24.0 -0.02418043464422226 L 24.0 -0.4048283100128174 L 25.0 -0.4048283100128174" style="vector-effect: non-scaling-stroke;fill:none;" /></g></g></g></g></g></g></g></g></g></g><g transform="matrix(1.0, 0.0, 0.0, 1.0, -0.125, 0.16)"><g transform="matrix(1.0, 0.0, 0.0, 0.009999999999999995, 0.0, 0.0)"><g transform="matrix(0.01, 0.0, 0.0, 1.0, 0.0, 0.0)"><g><g><g style="fill: #ffffe0;stroke: #ffffe0;stroke-width: 1.2000000000000002;fill-opacity: 0.5;" transform="matrix(1.0, 0.0, 0.0, 1.0, 0.0, 0.0)"><path d="M 0.0 -2.0 L 0.0 2.0" style="vector-effect: non-scaling-stroke;fill:none;" /></g><g style="fill: #ffffe0;stroke: #ffffe0;stroke-width: 1.2000000000000002;fill-opacity: 0.5;" transform="matrix(1.0, 0.0, 0.0, 1.0, 0.0, 0.0)"><path d="M 0.0 -0.7888162732124329 L 1.0 -0.7888162732124329 L 1.0 -0.9118944406509399 L 2.0 -0.9118944406509399 L 2.0 -1.6846907138824463 L 3.0 -1.6846907138824463 L 3.0 -0.6698996424674988 L 4.0 -0.6698996424674988 L 4.0 -2.0 L 5.0 -2.0 L 5.0 -0.22122076153755188 L 6.0 -0.22122076153755188 L 6.0 -2.0 L 7.0 -2.0 L 7.0 -1.1148024797439575 L 8.0 -1.1148024797439575 L 8.0 -2.0 L 9.0 -2.0 L 9.0 -1.7021784782409668 L 10.0 -1.7021784782409668 L 10.0 -1.920337200164795 L 11.0 -1.920337200164795 L 11.0 -1.2004119157791138 L 12.0 -1.2004119157791138 L 12.0 -1.3182032108306885 L 13.0 -1.3182032108306885 L 13.0 -1.8477762937545776 L 14.0 -1.8477762937545776 L 14.0 -1.9267516136169434 L 15.0 -1.9267516136169434 L 15.0 -0.20690977573394775 L 16.0 -0.20690977573394775 L 16.0 -2.0 L 17.0 -2.0 L 17.0 -0.03186716511845589 L 18.0 -0.03186716511845589 L 18.0 -2.0 L 19.0 -2.0 L 19.0 -0.12102825194597244 L 20.0 -0.12102825194597244 L 20.0 -1.5763862133026123 L 21.0 -1.5763862133026123 L 21.0 -1.2827560901641846 L 22.0 -1.2827560901641846 L 22.0 -0.8058396577835083 L 23.0 -0.8058396577835083 L 23.0 -0.13295891880989075 L 24.0 -0.13295891880989075 L 24.0 -1.6237432956695557 L 25.0 -1.6237432956695557 L 25.0 -0.4048283100128174 L 24.0 -0.4048283100128174 L 24.0 -0.02418043464422226 L 23.0 -0.02418043464422226 L 23.0 -0.2604571282863617 L 22.0 -0.2604571282863617 L 22.0 -0.16665905714035034 L 21.0 -0.16665905714035034 L 21.0 -0.5392654538154602 L 20.0 -0.5392654538154602 L 20.0 0.011312688700854778 L 19.0 0.011312688700854778 L 19.0 -0.9758538007736206 L 18.0 -0.9758538007736206 L 18.0 -0.010539877228438854 L 17.0 -0.010539877228438854 L 17.0 -1.129795789718628 L 16.0 -1.129795789718628 L 16.0 0.005897431168705225 L 15.0 0.005897431168705225 L 15.0 -0.5320029258728027 L 14.0 -0.5320029258728027 L 14.0 -0.033187445253133774 L 13.0 -0.033187445253133774 L 13.0 -0.05905505642294884 L 12.0 -0.05905505642294884 L 12.0 0.18539609014987946 L 11.0 0.18539609014987946 L 11.0 -0.1962728351354599 L 10.0 -0.1962728351354599 L 10.0 -0.30444958806037903 L 9.0 -0.30444958806037903 L 9.0 -0.6294431090354919 L 8.0 -0.6294431090354919 L 8.0 0.12199385464191437 L 7.0 0.12199385464191437 L 7.0 -0.6054176092147827 L 6.0 -0.6054176092147827 L 6.0 -0.03309360891580582 L 5.0 -0.03309360891580582 L 5.0 -0.24264472723007202 L 4.0 -0.24264472723007202 L 4.0 0.17052584886550903 L 3.0 0.17052584886550903 L 3.0 0.18987536430358887 L 2.0 0.18987536430358887 L 2.0 0.13267698884010315 L 1.0 0.13267698884010315 L 1.0 0.6059324145317078 L 0.0 0.6059324145317078 Z" style="vector-effect: non-scaling-stroke;" /></g></g><g style="stroke: black;stroke-width: 1.2000000000000002;" transform="matrix(1.0, 0.0, 0.0, 1.0, 0.0, 0.0)"><path d="M 0.0 0.6059324145317078 L 1.0 0.6059324145317078 L 1.0 0.13267698884010315 L 2.0 0.13267698884010315 L 2.0 0.18987536430358887 L 3.0 0.18987536430358887 L 3.0 0.17052584886550903 L 4.0 0.17052584886550903 L 4.0 -0.24264472723007202 L 5.0 -0.24264472723007202 L 5.0 -0.03309360891580582 L 6.0 -0.03309360891580582 L 6.0 -0.6054176092147827 L 7.0 -0.6054176092147827 L 7.0 0.12199385464191437 L 8.0 0.12199385464191437 L 8.0 -0.6294431090354919 L 9.0 -0.6294431090354919 L 9.0 -0.30444958806037903 L 10.0 -0.30444958806037903 L 10.0 -0.1962728351354599 L 11.0 -0.1962728351354599 L 11.0 0.18539609014987946 L 12.0 0.18539609014987946 L 12.0 -0.05905505642294884 L 13.0 -0.05905505642294884 L 13.0 -0.033187445253133774 L 14.0 -0.033187445253133774 L 14.0 -0.5320029258728027 L 15.0 -0.5320029258728027 L 15.0 0.005897431168705225 L 16.0 0.005897431168705225 L 16.0 -1.129795789718628 L 17.0 -1.129795789718628 L 17.0 -0.010539877228438854 L 18.0 -0.010539877228438854 L 18.0 -0.9758538007736206 L 19.0 -0.9758538007736206 L 19.0 0.011312688700854778 L 20.0 0.011312688700854778 L 20.0 -0.5392654538154602 L 21.0 -0.5392654538154602 L 21.0 -0.16665905714035034 L 22.0 -0.16665905714035034 L 22.0 -0.2604571282863617 L 23.0 -0.2604571282863617 L 23.0 -0.02418043464422226 L 24.0 -0.02418043464422226 L 24.0 -0.4048283100128174 L 25.0 -0.4048283100128174" style="vector-effect: non-scaling-stroke;fill:none;" /></g></g></g></g></g></g><g transform="matrix(1.0, 0.0, 0.0, 1.0, -0.125, 0.16)"><g transform="matrix(1.0, 0.0, 0.0, 0.009999999999999995, 0.0, 0.0)"><g transform="matrix(0.01, 0.0, 0.0, 1.0, 0.0, 0.0)"><g><g><g style="fill: #add8e6;stroke: #add8e6;stroke-width: 1.2000000000000002;fill-opacity: 0.5;" transform="matrix(1.0, 0.0, 0.0, 1.0, 0.0, 0.0)"><path d="M 0.0 -2.0 L 0.0 2.0" style="vector-effect: non-scaling-stroke;fill:none;" /></g><g style="fill: #add8e6;stroke: #add8e6;stroke-width: 1.2000000000000002;fill-opacity: 0.5;" transform="matrix(1.0, 0.0, 0.0, 1.0, 0.0, 0.0)"><path d="M 0.0 1.4761602878570557 L 1.0 1.4761602878570557 L 1.0 0.38748684525489807 L 2.0 0.38748684525489807 L 2.0 0.392531156539917 L 3.0 0.392531156539917 L 3.0 0.57732754945755 L 4.0 0.57732754945755 L 4.0 -0.5123557448387146 L 5.0 -0.5123557448387146 L 5.0 -0.3843884766101837 L 6.0 -0.3843884766101837 L 6.0 -1.302791953086853 L 7.0 -1.302791953086853 L 7.0 0.3194342255592346 L 8.0 0.3194342255592346 L 8.0 -1.5413942337036133 L 9.0 -1.5413942337036133 L 9.0 -0.7425436973571777 L 10.0 -0.7425436973571777 L 10.0 -0.42426061630249023 L 11.0 -0.42426061630249023 L 11.0 0.4536169767379761 L 12.0 0.4536169767379761 L 12.0 -0.15293237566947937 L 13.0 -0.15293237566947937 L 13.0 -0.06969529390335083 L 14.0 -0.06969529390335083 L 14.0 -1.2949423789978027 L 15.0 -1.2949423789978027 L 15.0 0.06131112575531006 L 16.0 0.06131112575531006 L 16.0 -2.0 L 17.0 -2.0 L 17.0 -0.9980212450027466 L 18.0 -0.9980212450027466 L 18.0 -2.0 L 19.0 -2.0 L 19.0 0.18221038579940796 L 20.0 0.18221038579940796 L 20.0 -1.5823466777801514 L 21.0 -1.5823466777801514 L 21.0 -0.46617239713668823 L 22.0 -0.46617239713668823 L 22.0 -1.2200919389724731 L 23.0 -1.2200919389724731 L 23.0 -0.4689801037311554 L 24.0 -0.4689801037311554 L 24.0 -1.0694200992584229 L 25.0 -1.0694200992584229 L 25.0 -0.4048283100128174 L 24.0 -0.4048283100128174 L 24.0 -0.02418043464422226 L 23.0 -0.02418043464422226 L 23.0 -0.2604571282863617 L 22.0 -0.2604571282863617 L 22.0 -0.16665905714035034 L 21.0 -0.16665905714035034 L 21.0 -0.5392654538154602 L 20.0 -0.5392654538154602 L 20.0 0.011312688700854778 L 19.0 0.011312688700854778 L 19.0 -0.9758538007736206 L 18.0 -0.9758538007736206 L 18.0 -0.010539877228438854 L 17.0 -0.010539877228438854 L 17.0 -1.129795789718628 L 16.0 -1.129795789718628 L 16.0 0.005897431168705225 L 15.0 0.005897431168705225 L 15.0 -0.5320029258728027 L 14.0 -0.5320029258728027 L 14.0 -0.033187445253133774 L 13.0 -0.033187445253133774 L 13.0 -0.05905505642294884 L 12.0 -0.05905505642294884 L 12.0 0.18539609014987946 L 11.0 0.18539609014987946 L 11.0 -0.1962728351354599 L 10.0 -0.1962728351354599 L 10.0 -0.30444958806037903 L 9.0 -0.30444958806037903 L 9.0 -0.6294431090354919 L 8.0 -0.6294431090354919 L 8.0 0.12199385464191437 L 7.0 0.12199385464191437 L 7.0 -0.6054176092147827 L 6.0 -0.6054176092147827 L 6.0 -0.03309360891580582 L 5.0 -0.03309360891580582 L 5.0 -0.24264472723007202 L 4.0 -0.24264472723007202 L 4.0 0.17052584886550903 L 3.0 0.17052584886550903 L 3.0 0.18987536430358887 L 2.0 0.18987536430358887 L 2.0 0.13267698884010315 L 1.0 0.13267698884010315 L 1.0 0.6059324145317078 L 0.0 0.6059324145317078 Z" style="vector-effect: non-scaling-stroke;" /></g></g><g style="stroke: black;stroke-width: 1.2000000000000002;" transform="matrix(1.0, 0.0, 0.0, 1.0, 0.0, 0.0)"><path d="M 0.0 0.6059324145317078 L 1.0 0.6059324145317078 L 1.0 0.13267698884010315 L 2.0 0.13267698884010315 L 2.0 0.18987536430358887 L 3.0 0.18987536430358887 L 3.0 0.17052584886550903 L 4.0 0.17052584886550903 L 4.0 -0.24264472723007202 L 5.0 -0.24264472723007202 L 5.0 -0.03309360891580582 L 6.0 -0.03309360891580582 L 6.0 -0.6054176092147827 L 7.0 -0.6054176092147827 L 7.0 0.12199385464191437 L 8.0 0.12199385464191437 L 8.0 -0.6294431090354919 L 9.0 -0.6294431090354919 L 9.0 -0.30444958806037903 L 10.0 -0.30444958806037903 L 10.0 -0.1962728351354599 L 11.0 -0.1962728351354599 L 11.0 0.18539609014987946 L 12.0 0.18539609014987946 L 12.0 -0.05905505642294884 L 13.0 -0.05905505642294884 L 13.0 -0.033187445253133774 L 14.0 -0.033187445253133774 L 14.0 -0.5320029258728027 L 15.0 -0.5320029258728027 L 15.0 0.005897431168705225 L 16.0 0.005897431168705225 L 16.0 -1.129795789718628 L 17.0 -1.129795789718628 L 17.0 -0.010539877228438854 L 18.0 -0.010539877228438854 L 18.0 -0.9758538007736206 L 19.0 -0.9758538007736206 L 19.0 0.011312688700854778 L 20.0 0.011312688700854778 L 20.0 -0.5392654538154602 L 21.0 -0.5392654538154602 L 21.0 -0.16665905714035034 L 22.0 -0.16665905714035034 L 22.0 -0.2604571282863617 L 23.0 -0.2604571282863617 L 23.0 -0.02418043464422226 L 24.0 -0.02418043464422226 L 24.0 -0.4048283100128174 L 25.0 -0.4048283100128174" style="vector-effect: non-scaling-stroke;fill:none;" /></g></g></g></g></g></g><g transform="matrix(1.0, 0.0, 0.0, 1.0, -0.125, 0.16)"><g transform="matrix(1.0, 0.0, 0.0, 0.009999999999999995, 0.0, 0.0)"><g transform="matrix(0.01, 0.0, 0.0, 1.0, 0.0, 0.0)"><g><g><g style="fill: #ff8c00;stroke: #ff8c00;stroke-width: 1.2000000000000002;fill-opacity: 0.5;" transform="matrix(1.0, 0.0, 0.0, 1.0, 0.0, 0.0)"><path d="M 0.0 -2.0 L 0.0 2.0" style="vector-effect: non-scaling-stroke;fill:none;" /></g><g style="fill: #ff8c00;stroke: #ff8c00;stroke-width: 1.2000000000000002;fill-opacity: 0.5;" transform="matrix(1.0, 0.0, 0.0, 1.0, 0.0, 0.0)"><path d="M 0.0 0.6059324145317078 L 1.0 0.6059324145317078 L 1.0 0.13267698884010315 L 2.0 0.13267698884010315 L 2.0 0.18987536430358887 L 3.0 0.18987536430358887 L 3.0 0.17052584886550903 L 4.0 0.17052584886550903 L 4.0 -0.24264472723007202 L 5.0 -0.24264472723007202 L 5.0 -0.03309360891580582 L 6.0 -0.03309360891580582 L 6.0 -0.6054176092147827 L 7.0 -0.6054176092147827 L 7.0 0.12199385464191437 L 8.0 0.12199385464191437 L 8.0 -0.6294431090354919 L 9.0 -0.6294431090354919 L 9.0 -0.30444958806037903 L 10.0 -0.30444958806037903 L 10.0 -0.1962728351354599 L 11.0 -0.1962728351354599 L 11.0 0.18539609014987946 L 12.0 0.18539609014987946 L 12.0 -0.05905505642294884 L 13.0 -0.05905505642294884 L 13.0 -0.033187445253133774 L 14.0 -0.033187445253133774 L 14.0 -0.5320029258728027 L 15.0 -0.5320029258728027 L 15.0 0.005897431168705225 L 16.0 0.005897431168705225 L 16.0 -1.129795789718628 L 17.0 -1.129795789718628 L 17.0 -0.010539877228438854 L 18.0 -0.010539877228438854 L 18.0 -0.9758538007736206 L 19.0 -0.9758538007736206 L 19.0 0.011312688700854778 L 20.0 0.011312688700854778 L 20.0 -0.5392654538154602 L 21.0 -0.5392654538154602 L 21.0 -0.16665905714035034 L 22.0 -0.16665905714035034 L 22.0 -0.2604571282863617 L 23.0 -0.2604571282863617 L 23.0 -0.02418043464422226 L 24.0 -0.02418043464422226 L 24.0 -0.4048283100128174 L 25.0 -0.4048283100128174 L 25.0 -0.4048283100128174 L 24.0 -0.4048283100128174 L 24.0 -0.02418043464422226 L 23.0 -0.02418043464422226 L 23.0 -0.2604571282863617 L 22.0 -0.2604571282863617 L 22.0 -0.16665905714035034 L 21.0 -0.16665905714035034 L 21.0 -0.5392654538154602 L 20.0 -0.5392654538154602 L 20.0 0.011312688700854778 L 19.0 0.011312688700854778 L 19.0 -0.9758538007736206 L 18.0 -0.9758538007736206 L 18.0 -0.010539877228438854 L 17.0 -0.010539877228438854 L 17.0 -1.129795789718628 L 16.0 -1.129795789718628 L 16.0 0.005897431168705225 L 15.0 0.005897431168705225 L 15.0 -0.5320029258728027 L 14.0 -0.5320029258728027 L 14.0 -0.033187445253133774 L 13.0 -0.033187445253133774 L 13.0 -0.05905505642294884 L 12.0 -0.05905505642294884 L 12.0 0.18539609014987946 L 11.0 0.18539609014987946 L 11.0 -0.1962728351354599 L 10.0 -0.1962728351354599 L 10.0 -0.30444958806037903 L 9.0 -0.30444958806037903 L 9.0 -0.6294431090354919 L 8.0 -0.6294431090354919 L 8.0 0.12199385464191437 L 7.0 0.12199385464191437 L 7.0 -0.6054176092147827 L 6.0 -0.6054176092147827 L 6.0 -0.03309360891580582 L 5.0 -0.03309360891580582 L 5.0 -0.24264472723007202 L 4.0 -0.24264472723007202 L 4.0 0.17052584886550903 L 3.0 0.17052584886550903 L 3.0 0.18987536430358887 L 2.0 0.18987536430358887 L 2.0 0.13267698884010315 L 1.0 0.13267698884010315 L 1.0 0.6059324145317078 L 0.0 0.6059324145317078 Z" style="vector-effect: non-scaling-stroke;" /></g></g><g style="stroke: black;stroke-width: 1.2000000000000002;" transform="matrix(1.0, 0.0, 0.0, 1.0, 0.0, 0.0)"><path d="M 0.0 0.6059324145317078 L 1.0 0.6059324145317078 L 1.0 0.13267698884010315 L 2.0 0.13267698884010315 L 2.0 0.18987536430358887 L 3.0 0.18987536430358887 L 3.0 0.17052584886550903 L 4.0 0.17052584886550903 L 4.0 -0.24264472723007202 L 5.0 -0.24264472723007202 L 5.0 -0.03309360891580582 L 6.0 -0.03309360891580582 L 6.0 -0.6054176092147827 L 7.0 -0.6054176092147827 L 7.0 0.12199385464191437 L 8.0 0.12199385464191437 L 8.0 -0.6294431090354919 L 9.0 -0.6294431090354919 L 9.0 -0.30444958806037903 L 10.0 -0.30444958806037903 L 10.0 -0.1962728351354599 L 11.0 -0.1962728351354599 L 11.0 0.18539609014987946 L 12.0 0.18539609014987946 L 12.0 -0.05905505642294884 L 13.0 -0.05905505642294884 L 13.0 -0.033187445253133774 L 14.0 -0.033187445253133774 L 14.0 -0.5320029258728027 L 15.0 -0.5320029258728027 L 15.0 0.005897431168705225 L 16.0 0.005897431168705225 L 16.0 -1.129795789718628 L 17.0 -1.129795789718628 L 17.0 -0.010539877228438854 L 18.0 -0.010539877228438854 L 18.0 -0.9758538007736206 L 19.0 -0.9758538007736206 L 19.0 0.011312688700854778 L 20.0 0.011312688700854778 L 20.0 -0.5392654538154602 L 21.0 -0.5392654538154602 L 21.0 -0.16665905714035034 L 22.0 -0.16665905714035034 L 22.0 -0.2604571282863617 L 23.0 -0.2604571282863617 L 23.0 -0.02418043464422226 L 24.0 -0.02418043464422226 L 24.0 -0.4048283100128174 L 25.0 -0.4048283100128174" style="vector-effect: non-scaling-stroke;fill:none;" /></g></g></g></g></g></g><g transform="matrix(1.0, 0.0, 0.0, 1.0, -0.125, 0.16)"><g transform="matrix(1.0, 0.0, 0.0, 0.009999999999999995, 0.0, 0.0)"><g transform="matrix(0.01, 0.0, 0.0, 1.0, 0.0, 0.0)"><g><g><g style="fill: #0000ff;stroke: #0000ff;stroke-width: 1.2000000000000002;fill-opacity: 0.5;" transform="matrix(1.0, 0.0, 0.0, 1.0, 0.0, 0.0)"><path d="M 0.0 -2.0 L 0.0 2.0" style="vector-effect: non-scaling-stroke;fill:none;" /></g><g style="fill: #0000ff;stroke: #0000ff;stroke-width: 1.2000000000000002;fill-opacity: 0.5;" transform="matrix(1.0, 0.0, 0.0, 1.0, 0.0, 0.0)"><path d="M 0.0 0.6059324145317078 L 1.0 0.6059324145317078 L 1.0 0.13267698884010315 L 2.0 0.13267698884010315 L 2.0 0.18987536430358887 L 3.0 0.18987536430358887 L 3.0 0.17052584886550903 L 4.0 0.17052584886550903 L 4.0 -0.24264472723007202 L 5.0 -0.24264472723007202 L 5.0 -0.03309360891580582 L 6.0 -0.03309360891580582 L 6.0 -0.6054176092147827 L 7.0 -0.6054176092147827 L 7.0 0.12199385464191437 L 8.0 0.12199385464191437 L 8.0 -0.6294431090354919 L 9.0 -0.6294431090354919 L 9.0 -0.30444958806037903 L 10.0 -0.30444958806037903 L 10.0 -0.1962728351354599 L 11.0 -0.1962728351354599 L 11.0 0.18539609014987946 L 12.0 0.18539609014987946 L 12.0 -0.05905505642294884 L 13.0 -0.05905505642294884 L 13.0 -0.033187445253133774 L 14.0 -0.033187445253133774 L 14.0 -0.5320029258728027 L 15.0 -0.5320029258728027 L 15.0 0.005897431168705225 L 16.0 0.005897431168705225 L 16.0 -1.129795789718628 L 17.0 -1.129795789718628 L 17.0 -0.010539877228438854 L 18.0 -0.010539877228438854 L 18.0 -0.9758538007736206 L 19.0 -0.9758538007736206 L 19.0 0.011312688700854778 L 20.0 0.011312688700854778 L 20.0 -0.5392654538154602 L 21.0 -0.5392654538154602 L 21.0 -0.16665905714035034 L 22.0 -0.16665905714035034 L 22.0 -0.2604571282863617 L 23.0 -0.2604571282863617 L 23.0 -0.02418043464422226 L 24.0 -0.02418043464422226 L 24.0 -0.4048283100128174 L 25.0 -0.4048283100128174 L 25.0 -0.4048283100128174 L 24.0 -0.4048283100128174 L 24.0 -0.02418043464422226 L 23.0 -0.02418043464422226 L 23.0 -0.2604571282863617 L 22.0 -0.2604571282863617 L 22.0 -0.16665905714035034 L 21.0 -0.16665905714035034 L 21.0 -0.5392654538154602 L 20.0 -0.5392654538154602 L 20.0 0.011312688700854778 L 19.0 0.011312688700854778 L 19.0 -0.9758538007736206 L 18.0 -0.9758538007736206 L 18.0 -0.010539877228438854 L 17.0 -0.010539877228438854 L 17.0 -1.129795789718628 L 16.0 -1.129795789718628 L 16.0 0.005897431168705225 L 15.0 0.005897431168705225 L 15.0 -0.5320029258728027 L 14.0 -0.5320029258728027 L 14.0 -0.033187445253133774 L 13.0 -0.033187445253133774 L 13.0 -0.05905505642294884 L 12.0 -0.05905505642294884 L 12.0 0.18539609014987946 L 11.0 0.18539609014987946 L 11.0 -0.1962728351354599 L 10.0 -0.1962728351354599 L 10.0 -0.30444958806037903 L 9.0 -0.30444958806037903 L 9.0 -0.6294431090354919 L 8.0 -0.6294431090354919 L 8.0 0.12199385464191437 L 7.0 0.12199385464191437 L 7.0 -0.6054176092147827 L 6.0 -0.6054176092147827 L 6.0 -0.03309360891580582 L 5.0 -0.03309360891580582 L 5.0 -0.24264472723007202 L 4.0 -0.24264472723007202 L 4.0 0.17052584886550903 L 3.0 0.17052584886550903 L 3.0 0.18987536430358887 L 2.0 0.18987536430358887 L 2.0 0.13267698884010315 L 1.0 0.13267698884010315 L 1.0 0.6059324145317078 L 0.0 0.6059324145317078 Z" style="vector-effect: non-scaling-stroke;" /></g></g><g style="stroke: black;stroke-width: 1.2000000000000002;" transform="matrix(1.0, 0.0, 0.0, 1.0, 0.0, 0.0)"><path d="M 0.0 0.6059324145317078 L 1.0 0.6059324145317078 L 1.0 0.13267698884010315 L 2.0 0.13267698884010315 L 2.0 0.18987536430358887 L 3.0 0.18987536430358887 L 3.0 0.17052584886550903 L 4.0 0.17052584886550903 L 4.0 -0.24264472723007202 L 5.0 -0.24264472723007202 L 5.0 -0.03309360891580582 L 6.0 -0.03309360891580582 L 6.0 -0.6054176092147827 L 7.0 -0.6054176092147827 L 7.0 0.12199385464191437 L 8.0 0.12199385464191437 L 8.0 -0.6294431090354919 L 9.0 -0.6294431090354919 L 9.0 -0.30444958806037903 L 10.0 -0.30444958806037903 L 10.0 -0.1962728351354599 L 11.0 -0.1962728351354599 L 11.0 0.18539609014987946 L 12.0 0.18539609014987946 L 12.0 -0.05905505642294884 L 13.0 -0.05905505642294884 L 13.0 -0.033187445253133774 L 14.0 -0.033187445253133774 L 14.0 -0.5320029258728027 L 15.0 -0.5320029258728027 L 15.0 0.005897431168705225 L 16.0 0.005897431168705225 L 16.0 -1.129795789718628 L 17.0 -1.129795789718628 L 17.0 -0.010539877228438854 L 18.0 -0.010539877228438854 L 18.0 -0.9758538007736206 L 19.0 -0.9758538007736206 L 19.0 0.011312688700854778 L 20.0 0.011312688700854778 L 20.0 -0.5392654538154602 L 21.0 -0.5392654538154602 L 21.0 -0.16665905714035034 L 22.0 -0.16665905714035034 L 22.0 -0.2604571282863617 L 23.0 -0.2604571282863617 L 23.0 -0.02418043464422226 L 24.0 -0.02418043464422226 L 24.0 -0.4048283100128174 L 25.0 -0.4048283100128174" style="vector-effect: non-scaling-stroke;fill:none;" /></g></g></g></g></g></g></g></g><g><g><g><g><g><g><g transform="matrix(1.0, 0.0, 0.0, 1.0, -0.41500000000000004, -0.03)"><g><g><g transform="matrix(1.0, 0.0, 0.0, 1.0, 0.075, 0.0)"><g transform="matrix(1.0, 0.0, 0.0, 1.0, 0.0, 0.03)"><g transform="matrix(0.01, 0.0, 0.0, 0.01, 0.0, 0.0)"><g><g><g transform="matrix(1.0, 0.0, 0.0, 1.0, 12.5, 0.0)"><g transform="matrix(1.0, 0.0, 0.0, 1.0, -20.0, -0.0)"><g><g style="fill: #d3d3d3;stroke: black;stroke-width: 1.2000000000000002;" transform="matrix(1.0, 0.0, 0.0, 1.0, 0.0, -3.0)"><path d="M 0.0 0.0 L 40.0 0.0 L 40.0 6.0 L 0.0 6.0 L 0.0 0.0 Z" style="vector-effect: non-scaling-stroke;" /></g><g transform="matrix(1.0, 0.0, 0.0, 1.0, 1.875, 0.0)"><g><g style="stroke: black;stroke-width: 1.2000000000000002;" transform="matrix(1.0, 0.0, 0.0, 1.0, 0.0, 0.0)"><g /></g><g style="fill: #ffa500;stroke: black;stroke-width: 1.2000000000000002;" transform="matrix(1.0, 0.0, 0.0, 1.0, 1.875, 0.0)"><text style="text-align:center; text-anchor:middle; dominant-baseline:middle;&#10;                      font-family:sans-serif; font-weight: bold;&#10;                      font-size:3px;&#10;                      vector-effect: non-scaling-stroke;" transform="translate(-5e-05, 0)">x</text></g></g></g></g></g></g><g><g><g><g><g style="stroke: black;stroke-width: 1.2000000000000002;" transform="matrix(1.0, 0.0, 0.0, 1.0, 0.0, 0.0)"><path d="M 0.0 -2.0 L 0.0 2.0" style="vector-effect: non-scaling-stroke;fill:none;" /></g><g style="stroke: #808080;stroke-width: 0.6000000000000001;" transform="matrix(1.0, 0.0, 0.0, 1.0, 0.0, 0.0)"><path d="M 0.0 0.0 L 25.0 0.0" style="vector-effect: non-scaling-stroke;fill:none;" /></g></g><g style="stroke: black;stroke-width: 2.4000000000000004;" transform="matrix(1.0, 0.0, 0.0, 1.0, 0.0, 0.0)"><path d="M 0.0 0.871941864490509 L 1.0 0.871941864490509 L 1.0 0.2536965608596802 L 2.0 0.2536965608596802 L 2.0 0.20256835222244263 L 3.0 0.20256835222244263 L 3.0 0.40527454018592834 L 4.0 0.40527454018592834 L 4.0 -0.26852527260780334 L 5.0 -0.26852527260780334 L 5.0 -0.35136839747428894 L 6.0 -0.35136839747428894 L 6.0 -0.6916482448577881 L 7.0 -0.6916482448577881 L 7.0 0.1972484141588211 L 8.0 0.1972484141588211 L 8.0 -0.9115141034126282 L 9.0 -0.9115141034126282 L 9.0 -0.4357282519340515 L 10.0 -0.4357282519340515 L 10.0 -0.227659672498703 L 11.0 -0.227659672498703 L 11.0 0.2672785520553589 L 12.0 0.2672785520553589 L 12.0 -0.09378920495510101 L 13.0 -0.09378920495510101 L 13.0 -0.03657596930861473 L 14.0 -0.03657596930861473 L 14.0 -0.7623620629310608 L 15.0 -0.7623620629310608 L 15.0 0.05543040484189987 L 16.0 0.05543040484189987 L 16.0 -1.6880478858947754 L 17.0 -1.6880478858947754 L 17.0 -0.9875346422195435 L 18.0 -0.9875346422195435 L 18.0 -1.693429946899414 L 19.0 -1.693429946899414 L 19.0 0.17093953490257263 L 20.0 0.17093953490257263 L 20.0 -1.04374361038208 L 21.0 -1.04374361038208 L 21.0 -0.29867035150527954 L 22.0 -0.29867035150527954 L 22.0 -0.9582696557044983 L 23.0 -0.9582696557044983 L 23.0 -0.444803386926651 L 24.0 -0.444803386926651 L 24.0 -0.6638801097869873 L 25.0 -0.6638801097869873" style="vector-effect: non-scaling-stroke;fill:none;" /></g></g><g style="stroke: black;stroke-width: 1.2000000000000002;" transform="matrix(1.0, 0.0, 0.0, 1.0, 0.0, 0.0)"><path d="M 0.0 -2.0 L 0.0 2.0" style="vector-effect: non-scaling-stroke;fill:none;" /></g></g></g></g><g><g><g><g><g style="stroke: black;stroke-width: 1.2000000000000002;" transform="matrix(1.0, 0.0, 0.0, 1.0, 0.0, 0.0)"><path d="M 0.0 -2.0 L 0.0 2.0" style="vector-effect: non-scaling-stroke;fill:none;" /></g><g style="stroke: #808080;stroke-width: 0.6000000000000001;" transform="matrix(1.0, 0.0, 0.0, 1.0, 0.0, 0.0)"><path d="M 0.0 0.0 L 25.0 0.0" style="vector-effect: non-scaling-stroke;fill:none;" /></g></g><g style="stroke: black;stroke-width: 2.4000000000000004;" transform="matrix(1.0, 0.0, 0.0, 1.0, 0.0, 0.0)"><path d="M 0.0 0.871941864490509 L 1.0 0.871941864490509 L 1.0 0.2536965608596802 L 2.0 0.2536965608596802 L 2.0 0.20256835222244263 L 3.0 0.20256835222244263 L 3.0 0.40527454018592834 L 4.0 0.40527454018592834 L 4.0 -0.26852527260780334 L 5.0 -0.26852527260780334 L 5.0 -0.35136839747428894 L 6.0 -0.35136839747428894 L 6.0 -0.6916482448577881 L 7.0 -0.6916482448577881 L 7.0 0.1972484141588211 L 8.0 0.1972484141588211 L 8.0 -0.9115141034126282 L 9.0 -0.9115141034126282 L 9.0 -0.4357282519340515 L 10.0 -0.4357282519340515 L 10.0 -0.227659672498703 L 11.0 -0.227659672498703 L 11.0 0.2672785520553589 L 12.0 0.2672785520553589 L 12.0 -0.09378920495510101 L 13.0 -0.09378920495510101 L 13.0 -0.03657596930861473 L 14.0 -0.03657596930861473 L 14.0 -0.7623620629310608 L 15.0 -0.7623620629310608 L 15.0 0.05543040484189987 L 16.0 0.05543040484189987 L 16.0 -1.6880478858947754 L 17.0 -1.6880478858947754 L 17.0 -0.9875346422195435 L 18.0 -0.9875346422195435 L 18.0 -1.693429946899414 L 19.0 -1.693429946899414 L 19.0 0.17093953490257263 L 20.0 0.17093953490257263 L 20.0 -1.04374361038208 L 21.0 -1.04374361038208 L 21.0 -0.29867035150527954 L 22.0 -0.29867035150527954 L 22.0 -0.9582696557044983 L 23.0 -0.9582696557044983 L 23.0 -0.444803386926651 L 24.0 -0.444803386926651 L 24.0 -0.6638801097869873 L 25.0 -0.6638801097869873" style="vector-effect: non-scaling-stroke;fill:none;" /></g></g><g style="stroke: black;stroke-width: 1.2000000000000002;" transform="matrix(1.0, 0.0, 0.0, 1.0, 0.0, 0.0)"><path d="M 0.0 -2.0 L 0.0 2.0" style="vector-effect: non-scaling-stroke;fill:none;" /></g></g></g></g></g></g></g><g style="stroke: black;stroke-width: 1.2000000000000002;" transform="matrix(1.0, 0.0, 0.0, 1.0, 0.41500000000000004, 0.0)"><g /></g></g><g transform="matrix(1.0, 0.0, 0.0, 1.0, 0.43000000000000005, 0.0)"><g transform="matrix(1.0, 0.0, 0.0, 1.0, 0.075, 0.0)"><g transform="matrix(1.0, 0.0, 0.0, 1.0, 0.0, 0.03)"><g transform="matrix(0.01, 0.0, 0.0, 0.01, 0.0, 0.0)"><g><g><g transform="matrix(1.0, 0.0, 0.0, 1.0, 12.5, 0.0)"><g transform="matrix(1.0, 0.0, 0.0, 1.0, -20.0, -0.0)"><g><g style="fill: #d3d3d3;stroke: black;stroke-width: 1.2000000000000002;" transform="matrix(1.0, 0.0, 0.0, 1.0, 0.0, -3.0)"><path d="M 0.0 0.0 L 40.0 0.0 L 40.0 6.0 L 0.0 6.0 L 0.0 0.0 Z" style="vector-effect: non-scaling-stroke;" /></g><g transform="matrix(1.0, 0.0, 0.0, 1.0, 1.875, 0.0)"><g><g style="stroke: black;stroke-width: 1.2000000000000002;" transform="matrix(1.0, 0.0, 0.0, 1.0, 0.0, 0.0)"><g /></g><g style="fill: #ffa500;stroke: black;stroke-width: 1.2000000000000002;" transform="matrix(1.0, 0.0, 0.0, 1.0, 1.875, 0.0)"><text style="text-align:center; text-anchor:middle; dominant-baseline:middle;&#10;                      font-family:sans-serif; font-weight: bold;&#10;                      font-size:3px;&#10;                      vector-effect: non-scaling-stroke;" transform="translate(-5e-05, 0)">y</text></g></g></g></g></g></g><g><g><g><g style="stroke: black;stroke-width: 1.2000000000000002;" transform="matrix(1.0, 0.0, 0.0, 1.0, 0.0, 0.0)"><path d="M 0.0 -2.0 L 0.0 2.0" style="vector-effect: non-scaling-stroke;fill:none;" /></g><g style="stroke: #808080;stroke-width: 0.6000000000000001;" transform="matrix(1.0, 0.0, 0.0, 1.0, 0.0, 0.0)"><path d="M 0.0 0.0 L 25.0 0.0" style="vector-effect: non-scaling-stroke;fill:none;" /></g></g><g style="stroke: black;stroke-width: 2.4000000000000004;" transform="matrix(1.0, 0.0, 0.0, 1.0, 0.0, 0.0)"><path d="M 0.0 -1.389845848083496 L 1.0 -1.389845848083496 L 1.0 -1.0459502935409546 L 2.0 -1.0459502935409546 L 2.0 -1.874679446220398 L 3.0 -1.874679446220398 L 3.0 -0.8415325284004211 L 4.0 -0.8415325284004211 L 4.0 -1.8072394132614136 L 5.0 -1.8072394132614136 L 5.0 -0.18836985528469086 L 6.0 -0.18836985528469086 L 6.0 -1.7506518363952637 L 7.0 -1.7506518363952637 L 7.0 -1.2369564771652222 L 8.0 -1.2369564771652222 L 8.0 -1.3810935020446777 L 9.0 -1.3810935020446777 L 9.0 -1.3974287509918213 L 10.0 -1.3974287509918213 L 10.0 -1.7242653369903564 L 11.0 -1.7242653369903564 L 11.0 -1.3872874975204468 L 12.0 -1.3872874975204468 L 12.0 -1.2593145370483398 L 13.0 -1.2593145370483398 L 13.0 -1.8147130012512207 L 14.0 -1.8147130012512207 L 14.0 -1.395669937133789 L 15.0 -1.395669937133789 L 15.0 -0.21278686821460724 L 16.0 -0.21278686821460724 L 16.0 -1.3385826349258423 L 17.0 -1.3385826349258423 L 17.0 -0.02134583704173565 L 18.0 -0.02134583704173565 L 18.0 -1.1525174379348755 L 19.0 -1.1525174379348755 L 19.0 -0.13235895335674286 L 20.0 -0.13235895335674286 L 20.0 -1.0333293676376343 L 21.0 -1.0333293676376343 L 21.0 -1.1160067319869995 L 22.0 -1.1160067319869995 L 22.0 -0.5435988306999207 L 23.0 -0.5435988306999207 L 23.0 -0.10872414708137512 L 24.0 -0.10872414708137512 L 24.0 -1.2195825576782227 L 25.0 -1.2195825576782227" style="vector-effect: non-scaling-stroke;fill:none;" /></g></g></g></g><g><g><g><g style="stroke: black;stroke-width: 1.2000000000000002;" transform="matrix(1.0, 0.0, 0.0, 1.0, 0.0, 0.0)"><path d="M 0.0 -2.0 L 0.0 2.0" style="vector-effect: non-scaling-stroke;fill:none;" /></g><g style="stroke: #808080;stroke-width: 0.6000000000000001;" transform="matrix(1.0, 0.0, 0.0, 1.0, 0.0, 0.0)"><path d="M 0.0 0.0 L 25.0 0.0" style="vector-effect: non-scaling-stroke;fill:none;" /></g></g><g style="stroke: black;stroke-width: 2.4000000000000004;" transform="matrix(1.0, 0.0, 0.0, 1.0, 0.0, 0.0)"><path d="M 0.0 -1.389845848083496 L 1.0 -1.389845848083496 L 1.0 -1.0459502935409546 L 2.0 -1.0459502935409546 L 2.0 -1.874679446220398 L 3.0 -1.874679446220398 L 3.0 -0.8415325284004211 L 4.0 -0.8415325284004211 L 4.0 -1.8072394132614136 L 5.0 -1.8072394132614136 L 5.0 -0.18836985528469086 L 6.0 -0.18836985528469086 L 6.0 -1.7506518363952637 L 7.0 -1.7506518363952637 L 7.0 -1.2369564771652222 L 8.0 -1.2369564771652222 L 8.0 -1.3810935020446777 L 9.0 -1.3810935020446777 L 9.0 -1.3974287509918213 L 10.0 -1.3974287509918213 L 10.0 -1.7242653369903564 L 11.0 -1.7242653369903564 L 11.0 -1.3872874975204468 L 12.0 -1.3872874975204468 L 12.0 -1.2593145370483398 L 13.0 -1.2593145370483398 L 13.0 -1.8147130012512207 L 14.0 -1.8147130012512207 L 14.0 -1.395669937133789 L 15.0 -1.395669937133789 L 15.0 -0.21278686821460724 L 16.0 -0.21278686821460724 L 16.0 -1.3385826349258423 L 17.0 -1.3385826349258423 L 17.0 -0.02134583704173565 L 18.0 -0.02134583704173565 L 18.0 -1.1525174379348755 L 19.0 -1.1525174379348755 L 19.0 -0.13235895335674286 L 20.0 -0.13235895335674286 L 20.0 -1.0333293676376343 L 21.0 -1.0333293676376343 L 21.0 -1.1160067319869995 L 22.0 -1.1160067319869995 L 22.0 -0.5435988306999207 L 23.0 -0.5435988306999207 L 23.0 -0.10872414708137512 L 24.0 -0.10872414708137512 L 24.0 -1.2195825576782227 L 25.0 -1.2195825576782227" style="vector-effect: non-scaling-stroke;fill:none;" /></g></g></g></g></g></g></g></g></g></g><g style="stroke: black;stroke-width: 1.2000000000000002;" transform="matrix(0.0, -1.0, 1.0, 0.0, 0.0, 0.08)"><g /></g></g><g transform="matrix(1.0, 0.0, 0.0, 1.0, 0.0, 0.16)"><g transform="matrix(1.0, 0.0, 0.0, 1.0, -0.2, -0.03)"><g transform="matrix(1.0, 0.0, 0.0, 1.0, 0.075, 0.0)"><g transform="matrix(1.0, 0.0, 0.0, 1.0, 0.0, 0.03)"><g transform="matrix(0.01, 0.0, 0.0, 0.01, 0.0, 0.0)"><g><g><g transform="matrix(1.0, 0.0, 0.0, 1.0, 12.5, 0.0)"><g transform="matrix(1.0, 0.0, 0.0, 1.0, -20.0, -0.0)"><g><g style="fill: #d3d3d3;stroke: black;stroke-width: 1.2000000000000002;" transform="matrix(1.0, 0.0, 0.0, 1.0, 0.0, -3.0)"><path d="M 0.0 0.0 L 40.0 0.0 L 40.0 6.0 L 0.0 6.0 L 0.0 0.0 Z" style="vector-effect: non-scaling-stroke;" /></g><g transform="matrix(1.0, 0.0, 0.0, 1.0, 1.875, 0.0)"><g><g style="stroke: black;stroke-width: 1.2000000000000002;" transform="matrix(1.0, 0.0, 0.0, 1.0, 0.0, 0.0)"><g /></g><g style="fill: #ffa500;stroke: black;stroke-width: 1.2000000000000002;" transform="matrix(1.0, 0.0, 0.0, 1.0, 1.875, 0.0)"><text style="text-align:center; text-anchor:middle; dominant-baseline:middle;&#10;                      font-family:sans-serif; font-weight: bold;&#10;                      font-size:3px;&#10;                      vector-effect: non-scaling-stroke;" transform="translate(-5e-05, 0)">f(x)</text></g></g></g></g></g></g><g><g><g><g style="stroke: black;stroke-width: 1.2000000000000002;" transform="matrix(1.0, 0.0, 0.0, 1.0, 0.0, 0.0)"><path d="M 0.0 -2.0 L 0.0 2.0" style="vector-effect: non-scaling-stroke;fill:none;" /></g><g style="stroke: #808080;stroke-width: 0.6000000000000001;" transform="matrix(1.0, 0.0, 0.0, 1.0, 0.0, 0.0)"><path d="M 0.0 0.0 L 25.0 0.0" style="vector-effect: non-scaling-stroke;fill:none;" /></g></g><g style="stroke: black;stroke-width: 2.4000000000000004;" transform="matrix(1.0, 0.0, 0.0, 1.0, 0.0, 0.0)"><path d="M 0.0 0.6059324145317078 L 1.0 0.6059324145317078 L 1.0 0.13267698884010315 L 2.0 0.13267698884010315 L 2.0 0.18987536430358887 L 3.0 0.18987536430358887 L 3.0 0.17052584886550903 L 4.0 0.17052584886550903 L 4.0 -0.24264472723007202 L 5.0 -0.24264472723007202 L 5.0 -0.03309360891580582 L 6.0 -0.03309360891580582 L 6.0 -0.6054176092147827 L 7.0 -0.6054176092147827 L 7.0 0.12199385464191437 L 8.0 0.12199385464191437 L 8.0 -0.6294431090354919 L 9.0 -0.6294431090354919 L 9.0 -0.30444958806037903 L 10.0 -0.30444958806037903 L 10.0 -0.1962728351354599 L 11.0 -0.1962728351354599 L 11.0 0.18539609014987946 L 12.0 0.18539609014987946 L 12.0 -0.05905505642294884 L 13.0 -0.05905505642294884 L 13.0 -0.033187445253133774 L 14.0 -0.033187445253133774 L 14.0 -0.5320029258728027 L 15.0 -0.5320029258728027 L 15.0 0.005897431168705225 L 16.0 0.005897431168705225 L 16.0 -1.129795789718628 L 17.0 -1.129795789718628 L 17.0 -0.010539877228438854 L 18.0 -0.010539877228438854 L 18.0 -0.9758538007736206 L 19.0 -0.9758538007736206 L 19.0 0.011312688700854778 L 20.0 0.011312688700854778 L 20.0 -0.5392654538154602 L 21.0 -0.5392654538154602 L 21.0 -0.16665905714035034 L 22.0 -0.16665905714035034 L 22.0 -0.2604571282863617 L 23.0 -0.2604571282863617 L 23.0 -0.02418043464422226 L 24.0 -0.02418043464422226 L 24.0 -0.4048283100128174 L 25.0 -0.4048283100128174" style="vector-effect: non-scaling-stroke;fill:none;" /></g></g></g></g><g><g><g><g style="stroke: black;stroke-width: 1.2000000000000002;" transform="matrix(1.0, 0.0, 0.0, 1.0, 0.0, 0.0)"><path d="M 0.0 -2.0 L 0.0 2.0" style="vector-effect: non-scaling-stroke;fill:none;" /></g><g style="stroke: #808080;stroke-width: 0.6000000000000001;" transform="matrix(1.0, 0.0, 0.0, 1.0, 0.0, 0.0)"><path d="M 0.0 0.0 L 25.0 0.0" style="vector-effect: non-scaling-stroke;fill:none;" /></g></g><g style="stroke: black;stroke-width: 2.4000000000000004;" transform="matrix(1.0, 0.0, 0.0, 1.0, 0.0, 0.0)"><path d="M 0.0 0.6059324145317078 L 1.0 0.6059324145317078 L 1.0 0.13267698884010315 L 2.0 0.13267698884010315 L 2.0 0.18987536430358887 L 3.0 0.18987536430358887 L 3.0 0.17052584886550903 L 4.0 0.17052584886550903 L 4.0 -0.24264472723007202 L 5.0 -0.24264472723007202 L 5.0 -0.03309360891580582 L 6.0 -0.03309360891580582 L 6.0 -0.6054176092147827 L 7.0 -0.6054176092147827 L 7.0 0.12199385464191437 L 8.0 0.12199385464191437 L 8.0 -0.6294431090354919 L 9.0 -0.6294431090354919 L 9.0 -0.30444958806037903 L 10.0 -0.30444958806037903 L 10.0 -0.1962728351354599 L 11.0 -0.1962728351354599 L 11.0 0.18539609014987946 L 12.0 0.18539609014987946 L 12.0 -0.05905505642294884 L 13.0 -0.05905505642294884 L 13.0 -0.033187445253133774 L 14.0 -0.033187445253133774 L 14.0 -0.5320029258728027 L 15.0 -0.5320029258728027 L 15.0 0.005897431168705225 L 16.0 0.005897431168705225 L 16.0 -1.129795789718628 L 17.0 -1.129795789718628 L 17.0 -0.010539877228438854 L 18.0 -0.010539877228438854 L 18.0 -0.9758538007736206 L 19.0 -0.9758538007736206 L 19.0 0.011312688700854778 L 20.0 0.011312688700854778 L 20.0 -0.5392654538154602 L 21.0 -0.5392654538154602 L 21.0 -0.16665905714035034 L 22.0 -0.16665905714035034 L 22.0 -0.2604571282863617 L 23.0 -0.2604571282863617 L 23.0 -0.02418043464422226 L 24.0 -0.02418043464422226 L 24.0 -0.4048283100128174 L 25.0 -0.4048283100128174" style="vector-effect: non-scaling-stroke;fill:none;" /></g></g></g></g></g></g></g></g></g></g><g transform="matrix(1.0, 0.0, 0.0, 1.0, -0.125, 0.16)"><g transform="matrix(1.0, 0.0, 0.0, 0.009999999999999995, 0.0, 0.0)"><g transform="matrix(0.01, 0.0, 0.0, 1.0, 0.0, 0.0)"><g><g><g style="fill: #ffffe0;stroke: #ffffe0;stroke-width: 1.2000000000000002;fill-opacity: 0.5;" transform="matrix(1.0, 0.0, 0.0, 1.0, 0.0, 0.0)"><path d="M 0.0 -2.0 L 0.0 2.0" style="vector-effect: non-scaling-stroke;fill:none;" /></g><g style="fill: #ffffe0;stroke: #ffffe0;stroke-width: 1.2000000000000002;fill-opacity: 0.5;" transform="matrix(1.0, 0.0, 0.0, 1.0, 0.0, 0.0)"><path d="M 0.0 -0.7888162732124329 L 1.0 -0.7888162732124329 L 1.0 -0.9118944406509399 L 2.0 -0.9118944406509399 L 2.0 -1.6846907138824463 L 3.0 -1.6846907138824463 L 3.0 -0.6698996424674988 L 4.0 -0.6698996424674988 L 4.0 -2.0 L 5.0 -2.0 L 5.0 -0.22122076153755188 L 6.0 -0.22122076153755188 L 6.0 -2.0 L 7.0 -2.0 L 7.0 -1.1148024797439575 L 8.0 -1.1148024797439575 L 8.0 -2.0 L 9.0 -2.0 L 9.0 -1.7021784782409668 L 10.0 -1.7021784782409668 L 10.0 -1.920337200164795 L 11.0 -1.920337200164795 L 11.0 -1.2004119157791138 L 12.0 -1.2004119157791138 L 12.0 -1.3182032108306885 L 13.0 -1.3182032108306885 L 13.0 -1.8477762937545776 L 14.0 -1.8477762937545776 L 14.0 -1.9267516136169434 L 15.0 -1.9267516136169434 L 15.0 -0.20690977573394775 L 16.0 -0.20690977573394775 L 16.0 -2.0 L 17.0 -2.0 L 17.0 -0.03186716511845589 L 18.0 -0.03186716511845589 L 18.0 -2.0 L 19.0 -2.0 L 19.0 -0.12102825194597244 L 20.0 -0.12102825194597244 L 20.0 -1.5763862133026123 L 21.0 -1.5763862133026123 L 21.0 -1.2827560901641846 L 22.0 -1.2827560901641846 L 22.0 -0.8058396577835083 L 23.0 -0.8058396577835083 L 23.0 -0.13295891880989075 L 24.0 -0.13295891880989075 L 24.0 -1.6237432956695557 L 25.0 -1.6237432956695557 L 25.0 -0.4048283100128174 L 24.0 -0.4048283100128174 L 24.0 -0.02418043464422226 L 23.0 -0.02418043464422226 L 23.0 -0.2604571282863617 L 22.0 -0.2604571282863617 L 22.0 -0.16665905714035034 L 21.0 -0.16665905714035034 L 21.0 -0.5392654538154602 L 20.0 -0.5392654538154602 L 20.0 0.011312688700854778 L 19.0 0.011312688700854778 L 19.0 -0.9758538007736206 L 18.0 -0.9758538007736206 L 18.0 -0.010539877228438854 L 17.0 -0.010539877228438854 L 17.0 -1.129795789718628 L 16.0 -1.129795789718628 L 16.0 0.005897431168705225 L 15.0 0.005897431168705225 L 15.0 -0.5320029258728027 L 14.0 -0.5320029258728027 L 14.0 -0.033187445253133774 L 13.0 -0.033187445253133774 L 13.0 -0.05905505642294884 L 12.0 -0.05905505642294884 L 12.0 0.18539609014987946 L 11.0 0.18539609014987946 L 11.0 -0.1962728351354599 L 10.0 -0.1962728351354599 L 10.0 -0.30444958806037903 L 9.0 -0.30444958806037903 L 9.0 -0.6294431090354919 L 8.0 -0.6294431090354919 L 8.0 0.12199385464191437 L 7.0 0.12199385464191437 L 7.0 -0.6054176092147827 L 6.0 -0.6054176092147827 L 6.0 -0.03309360891580582 L 5.0 -0.03309360891580582 L 5.0 -0.24264472723007202 L 4.0 -0.24264472723007202 L 4.0 0.17052584886550903 L 3.0 0.17052584886550903 L 3.0 0.18987536430358887 L 2.0 0.18987536430358887 L 2.0 0.13267698884010315 L 1.0 0.13267698884010315 L 1.0 0.6059324145317078 L 0.0 0.6059324145317078 Z" style="vector-effect: non-scaling-stroke;" /></g></g><g style="stroke: black;stroke-width: 1.2000000000000002;" transform="matrix(1.0, 0.0, 0.0, 1.0, 0.0, 0.0)"><path d="M 0.0 0.6059324145317078 L 1.0 0.6059324145317078 L 1.0 0.13267698884010315 L 2.0 0.13267698884010315 L 2.0 0.18987536430358887 L 3.0 0.18987536430358887 L 3.0 0.17052584886550903 L 4.0 0.17052584886550903 L 4.0 -0.24264472723007202 L 5.0 -0.24264472723007202 L 5.0 -0.03309360891580582 L 6.0 -0.03309360891580582 L 6.0 -0.6054176092147827 L 7.0 -0.6054176092147827 L 7.0 0.12199385464191437 L 8.0 0.12199385464191437 L 8.0 -0.6294431090354919 L 9.0 -0.6294431090354919 L 9.0 -0.30444958806037903 L 10.0 -0.30444958806037903 L 10.0 -0.1962728351354599 L 11.0 -0.1962728351354599 L 11.0 0.18539609014987946 L 12.0 0.18539609014987946 L 12.0 -0.05905505642294884 L 13.0 -0.05905505642294884 L 13.0 -0.033187445253133774 L 14.0 -0.033187445253133774 L 14.0 -0.5320029258728027 L 15.0 -0.5320029258728027 L 15.0 0.005897431168705225 L 16.0 0.005897431168705225 L 16.0 -1.129795789718628 L 17.0 -1.129795789718628 L 17.0 -0.010539877228438854 L 18.0 -0.010539877228438854 L 18.0 -0.9758538007736206 L 19.0 -0.9758538007736206 L 19.0 0.011312688700854778 L 20.0 0.011312688700854778 L 20.0 -0.5392654538154602 L 21.0 -0.5392654538154602 L 21.0 -0.16665905714035034 L 22.0 -0.16665905714035034 L 22.0 -0.2604571282863617 L 23.0 -0.2604571282863617 L 23.0 -0.02418043464422226 L 24.0 -0.02418043464422226 L 24.0 -0.4048283100128174 L 25.0 -0.4048283100128174" style="vector-effect: non-scaling-stroke;fill:none;" /></g></g></g></g></g></g><g transform="matrix(1.0, 0.0, 0.0, 1.0, -0.125, 0.16)"><g transform="matrix(1.0, 0.0, 0.0, 0.009999999999999995, 0.0, 0.0)"><g transform="matrix(0.01, 0.0, 0.0, 1.0, 0.0, 0.0)"><g><g><g style="fill: #add8e6;stroke: #add8e6;stroke-width: 1.2000000000000002;fill-opacity: 0.5;" transform="matrix(1.0, 0.0, 0.0, 1.0, 0.0, 0.0)"><path d="M 0.0 -2.0 L 0.0 2.0" style="vector-effect: non-scaling-stroke;fill:none;" /></g><g style="fill: #add8e6;stroke: #add8e6;stroke-width: 1.2000000000000002;fill-opacity: 0.5;" transform="matrix(1.0, 0.0, 0.0, 1.0, 0.0, 0.0)"><path d="M 0.0 1.4761602878570557 L 1.0 1.4761602878570557 L 1.0 0.38748684525489807 L 2.0 0.38748684525489807 L 2.0 0.392531156539917 L 3.0 0.392531156539917 L 3.0 0.57732754945755 L 4.0 0.57732754945755 L 4.0 -0.5123557448387146 L 5.0 -0.5123557448387146 L 5.0 -0.3843884766101837 L 6.0 -0.3843884766101837 L 6.0 -1.302791953086853 L 7.0 -1.302791953086853 L 7.0 0.3194342255592346 L 8.0 0.3194342255592346 L 8.0 -1.5413942337036133 L 9.0 -1.5413942337036133 L 9.0 -0.7425436973571777 L 10.0 -0.7425436973571777 L 10.0 -0.42426061630249023 L 11.0 -0.42426061630249023 L 11.0 0.4536169767379761 L 12.0 0.4536169767379761 L 12.0 -0.15293237566947937 L 13.0 -0.15293237566947937 L 13.0 -0.06969529390335083 L 14.0 -0.06969529390335083 L 14.0 -1.2949423789978027 L 15.0 -1.2949423789978027 L 15.0 0.06131112575531006 L 16.0 0.06131112575531006 L 16.0 -2.0 L 17.0 -2.0 L 17.0 -0.9980212450027466 L 18.0 -0.9980212450027466 L 18.0 -2.0 L 19.0 -2.0 L 19.0 0.18221038579940796 L 20.0 0.18221038579940796 L 20.0 -1.5823466777801514 L 21.0 -1.5823466777801514 L 21.0 -0.46617239713668823 L 22.0 -0.46617239713668823 L 22.0 -1.2200919389724731 L 23.0 -1.2200919389724731 L 23.0 -0.4689801037311554 L 24.0 -0.4689801037311554 L 24.0 -1.0694200992584229 L 25.0 -1.0694200992584229 L 25.0 -0.4048283100128174 L 24.0 -0.4048283100128174 L 24.0 -0.02418043464422226 L 23.0 -0.02418043464422226 L 23.0 -0.2604571282863617 L 22.0 -0.2604571282863617 L 22.0 -0.16665905714035034 L 21.0 -0.16665905714035034 L 21.0 -0.5392654538154602 L 20.0 -0.5392654538154602 L 20.0 0.011312688700854778 L 19.0 0.011312688700854778 L 19.0 -0.9758538007736206 L 18.0 -0.9758538007736206 L 18.0 -0.010539877228438854 L 17.0 -0.010539877228438854 L 17.0 -1.129795789718628 L 16.0 -1.129795789718628 L 16.0 0.005897431168705225 L 15.0 0.005897431168705225 L 15.0 -0.5320029258728027 L 14.0 -0.5320029258728027 L 14.0 -0.033187445253133774 L 13.0 -0.033187445253133774 L 13.0 -0.05905505642294884 L 12.0 -0.05905505642294884 L 12.0 0.18539609014987946 L 11.0 0.18539609014987946 L 11.0 -0.1962728351354599 L 10.0 -0.1962728351354599 L 10.0 -0.30444958806037903 L 9.0 -0.30444958806037903 L 9.0 -0.6294431090354919 L 8.0 -0.6294431090354919 L 8.0 0.12199385464191437 L 7.0 0.12199385464191437 L 7.0 -0.6054176092147827 L 6.0 -0.6054176092147827 L 6.0 -0.03309360891580582 L 5.0 -0.03309360891580582 L 5.0 -0.24264472723007202 L 4.0 -0.24264472723007202 L 4.0 0.17052584886550903 L 3.0 0.17052584886550903 L 3.0 0.18987536430358887 L 2.0 0.18987536430358887 L 2.0 0.13267698884010315 L 1.0 0.13267698884010315 L 1.0 0.6059324145317078 L 0.0 0.6059324145317078 Z" style="vector-effect: non-scaling-stroke;" /></g></g><g style="stroke: black;stroke-width: 1.2000000000000002;" transform="matrix(1.0, 0.0, 0.0, 1.0, 0.0, 0.0)"><path d="M 0.0 0.6059324145317078 L 1.0 0.6059324145317078 L 1.0 0.13267698884010315 L 2.0 0.13267698884010315 L 2.0 0.18987536430358887 L 3.0 0.18987536430358887 L 3.0 0.17052584886550903 L 4.0 0.17052584886550903 L 4.0 -0.24264472723007202 L 5.0 -0.24264472723007202 L 5.0 -0.03309360891580582 L 6.0 -0.03309360891580582 L 6.0 -0.6054176092147827 L 7.0 -0.6054176092147827 L 7.0 0.12199385464191437 L 8.0 0.12199385464191437 L 8.0 -0.6294431090354919 L 9.0 -0.6294431090354919 L 9.0 -0.30444958806037903 L 10.0 -0.30444958806037903 L 10.0 -0.1962728351354599 L 11.0 -0.1962728351354599 L 11.0 0.18539609014987946 L 12.0 0.18539609014987946 L 12.0 -0.05905505642294884 L 13.0 -0.05905505642294884 L 13.0 -0.033187445253133774 L 14.0 -0.033187445253133774 L 14.0 -0.5320029258728027 L 15.0 -0.5320029258728027 L 15.0 0.005897431168705225 L 16.0 0.005897431168705225 L 16.0 -1.129795789718628 L 17.0 -1.129795789718628 L 17.0 -0.010539877228438854 L 18.0 -0.010539877228438854 L 18.0 -0.9758538007736206 L 19.0 -0.9758538007736206 L 19.0 0.011312688700854778 L 20.0 0.011312688700854778 L 20.0 -0.5392654538154602 L 21.0 -0.5392654538154602 L 21.0 -0.16665905714035034 L 22.0 -0.16665905714035034 L 22.0 -0.2604571282863617 L 23.0 -0.2604571282863617 L 23.0 -0.02418043464422226 L 24.0 -0.02418043464422226 L 24.0 -0.4048283100128174 L 25.0 -0.4048283100128174" style="vector-effect: non-scaling-stroke;fill:none;" /></g></g></g></g></g></g><g transform="matrix(1.0, 0.0, 0.0, 1.0, -0.125, 0.16)"><g transform="matrix(1.0, 0.0, 0.0, 0.009999999999999995, 0.0, 0.0)"><g transform="matrix(0.01, 0.0, 0.0, 1.0, 0.0, 0.0)"><g><g><g style="fill: #ff8c00;stroke: #ff8c00;stroke-width: 1.2000000000000002;fill-opacity: 0.5;" transform="matrix(1.0, 0.0, 0.0, 1.0, 0.0, 0.0)"><path d="M 0.0 -2.0 L 0.0 2.0" style="vector-effect: non-scaling-stroke;fill:none;" /></g><g style="fill: #ff8c00;stroke: #ff8c00;stroke-width: 1.2000000000000002;fill-opacity: 0.5;" transform="matrix(1.0, 0.0, 0.0, 1.0, 0.0, 0.0)"><path d="M 0.0 0.6059324145317078 L 1.0 0.6059324145317078 L 1.0 0.13267698884010315 L 2.0 0.13267698884010315 L 2.0 0.18987536430358887 L 3.0 0.18987536430358887 L 3.0 0.17052584886550903 L 4.0 0.17052584886550903 L 4.0 -0.24264472723007202 L 5.0 -0.24264472723007202 L 5.0 -0.03309360891580582 L 6.0 -0.03309360891580582 L 6.0 -0.6054176092147827 L 7.0 -0.6054176092147827 L 7.0 0.12199385464191437 L 8.0 0.12199385464191437 L 8.0 -0.6294431090354919 L 9.0 -0.6294431090354919 L 9.0 -0.30444958806037903 L 10.0 -0.30444958806037903 L 10.0 -0.1962728351354599 L 11.0 -0.1962728351354599 L 11.0 0.18539609014987946 L 12.0 0.18539609014987946 L 12.0 -0.05905505642294884 L 13.0 -0.05905505642294884 L 13.0 -0.033187445253133774 L 14.0 -0.033187445253133774 L 14.0 -0.5320029258728027 L 15.0 -0.5320029258728027 L 15.0 0.005897431168705225 L 16.0 0.005897431168705225 L 16.0 -1.129795789718628 L 17.0 -1.129795789718628 L 17.0 -0.010539877228438854 L 18.0 -0.010539877228438854 L 18.0 -0.9758538007736206 L 19.0 -0.9758538007736206 L 19.0 0.011312688700854778 L 20.0 0.011312688700854778 L 20.0 -0.5392654538154602 L 21.0 -0.5392654538154602 L 21.0 -0.16665905714035034 L 22.0 -0.16665905714035034 L 22.0 -0.2604571282863617 L 23.0 -0.2604571282863617 L 23.0 -0.02418043464422226 L 24.0 -0.02418043464422226 L 24.0 -0.4048283100128174 L 25.0 -0.4048283100128174 L 25.0 -0.4048283100128174 L 24.0 -0.4048283100128174 L 24.0 -0.02418043464422226 L 23.0 -0.02418043464422226 L 23.0 -0.2604571282863617 L 22.0 -0.2604571282863617 L 22.0 -0.16665905714035034 L 21.0 -0.16665905714035034 L 21.0 -0.5392654538154602 L 20.0 -0.5392654538154602 L 20.0 0.011312688700854778 L 19.0 0.011312688700854778 L 19.0 -0.9758538007736206 L 18.0 -0.9758538007736206 L 18.0 -0.010539877228438854 L 17.0 -0.010539877228438854 L 17.0 -1.129795789718628 L 16.0 -1.129795789718628 L 16.0 0.005897431168705225 L 15.0 0.005897431168705225 L 15.0 -0.5320029258728027 L 14.0 -0.5320029258728027 L 14.0 -0.033187445253133774 L 13.0 -0.033187445253133774 L 13.0 -0.05905505642294884 L 12.0 -0.05905505642294884 L 12.0 0.18539609014987946 L 11.0 0.18539609014987946 L 11.0 -0.1962728351354599 L 10.0 -0.1962728351354599 L 10.0 -0.30444958806037903 L 9.0 -0.30444958806037903 L 9.0 -0.6294431090354919 L 8.0 -0.6294431090354919 L 8.0 0.12199385464191437 L 7.0 0.12199385464191437 L 7.0 -0.6054176092147827 L 6.0 -0.6054176092147827 L 6.0 -0.03309360891580582 L 5.0 -0.03309360891580582 L 5.0 -0.24264472723007202 L 4.0 -0.24264472723007202 L 4.0 0.17052584886550903 L 3.0 0.17052584886550903 L 3.0 0.18987536430358887 L 2.0 0.18987536430358887 L 2.0 0.13267698884010315 L 1.0 0.13267698884010315 L 1.0 0.6059324145317078 L 0.0 0.6059324145317078 Z" style="vector-effect: non-scaling-stroke;" /></g></g><g style="stroke: black;stroke-width: 1.2000000000000002;" transform="matrix(1.0, 0.0, 0.0, 1.0, 0.0, 0.0)"><path d="M 0.0 0.6059324145317078 L 1.0 0.6059324145317078 L 1.0 0.13267698884010315 L 2.0 0.13267698884010315 L 2.0 0.18987536430358887 L 3.0 0.18987536430358887 L 3.0 0.17052584886550903 L 4.0 0.17052584886550903 L 4.0 -0.24264472723007202 L 5.0 -0.24264472723007202 L 5.0 -0.03309360891580582 L 6.0 -0.03309360891580582 L 6.0 -0.6054176092147827 L 7.0 -0.6054176092147827 L 7.0 0.12199385464191437 L 8.0 0.12199385464191437 L 8.0 -0.6294431090354919 L 9.0 -0.6294431090354919 L 9.0 -0.30444958806037903 L 10.0 -0.30444958806037903 L 10.0 -0.1962728351354599 L 11.0 -0.1962728351354599 L 11.0 0.18539609014987946 L 12.0 0.18539609014987946 L 12.0 -0.05905505642294884 L 13.0 -0.05905505642294884 L 13.0 -0.033187445253133774 L 14.0 -0.033187445253133774 L 14.0 -0.5320029258728027 L 15.0 -0.5320029258728027 L 15.0 0.005897431168705225 L 16.0 0.005897431168705225 L 16.0 -1.129795789718628 L 17.0 -1.129795789718628 L 17.0 -0.010539877228438854 L 18.0 -0.010539877228438854 L 18.0 -0.9758538007736206 L 19.0 -0.9758538007736206 L 19.0 0.011312688700854778 L 20.0 0.011312688700854778 L 20.0 -0.5392654538154602 L 21.0 -0.5392654538154602 L 21.0 -0.16665905714035034 L 22.0 -0.16665905714035034 L 22.0 -0.2604571282863617 L 23.0 -0.2604571282863617 L 23.0 -0.02418043464422226 L 24.0 -0.02418043464422226 L 24.0 -0.4048283100128174 L 25.0 -0.4048283100128174" style="vector-effect: non-scaling-stroke;fill:none;" /></g></g></g></g></g></g><g transform="matrix(1.0, 0.0, 0.0, 1.0, -0.125, 0.16)"><g transform="matrix(1.0, 0.0, 0.0, 0.009999999999999995, 0.0, 0.0)"><g transform="matrix(0.01, 0.0, 0.0, 1.0, 0.0, 0.0)"><g><g><g style="fill: #0000ff;stroke: #0000ff;stroke-width: 1.2000000000000002;fill-opacity: 0.5;" transform="matrix(1.0, 0.0, 0.0, 1.0, 0.0, 0.0)"><path d="M 0.0 -2.0 L 0.0 2.0" style="vector-effect: non-scaling-stroke;fill:none;" /></g><g style="fill: #0000ff;stroke: #0000ff;stroke-width: 1.2000000000000002;fill-opacity: 0.5;" transform="matrix(1.0, 0.0, 0.0, 1.0, 0.0, 0.0)"><path d="M 0.0 0.6059324145317078 L 1.0 0.6059324145317078 L 1.0 0.13267698884010315 L 2.0 0.13267698884010315 L 2.0 0.18987536430358887 L 3.0 0.18987536430358887 L 3.0 0.17052584886550903 L 4.0 0.17052584886550903 L 4.0 -0.24264472723007202 L 5.0 -0.24264472723007202 L 5.0 -0.03309360891580582 L 6.0 -0.03309360891580582 L 6.0 -0.6054176092147827 L 7.0 -0.6054176092147827 L 7.0 0.12199385464191437 L 8.0 0.12199385464191437 L 8.0 -0.6294431090354919 L 9.0 -0.6294431090354919 L 9.0 -0.30444958806037903 L 10.0 -0.30444958806037903 L 10.0 -0.1962728351354599 L 11.0 -0.1962728351354599 L 11.0 0.18539609014987946 L 12.0 0.18539609014987946 L 12.0 -0.05905505642294884 L 13.0 -0.05905505642294884 L 13.0 -0.033187445253133774 L 14.0 -0.033187445253133774 L 14.0 -0.5320029258728027 L 15.0 -0.5320029258728027 L 15.0 0.005897431168705225 L 16.0 0.005897431168705225 L 16.0 -1.129795789718628 L 17.0 -1.129795789718628 L 17.0 -0.010539877228438854 L 18.0 -0.010539877228438854 L 18.0 -0.9758538007736206 L 19.0 -0.9758538007736206 L 19.0 0.011312688700854778 L 20.0 0.011312688700854778 L 20.0 -0.5392654538154602 L 21.0 -0.5392654538154602 L 21.0 -0.16665905714035034 L 22.0 -0.16665905714035034 L 22.0 -0.2604571282863617 L 23.0 -0.2604571282863617 L 23.0 -0.02418043464422226 L 24.0 -0.02418043464422226 L 24.0 -0.4048283100128174 L 25.0 -0.4048283100128174 L 25.0 -0.4048283100128174 L 24.0 -0.4048283100128174 L 24.0 -0.02418043464422226 L 23.0 -0.02418043464422226 L 23.0 -0.2604571282863617 L 22.0 -0.2604571282863617 L 22.0 -0.16665905714035034 L 21.0 -0.16665905714035034 L 21.0 -0.5392654538154602 L 20.0 -0.5392654538154602 L 20.0 0.011312688700854778 L 19.0 0.011312688700854778 L 19.0 -0.9758538007736206 L 18.0 -0.9758538007736206 L 18.0 -0.010539877228438854 L 17.0 -0.010539877228438854 L 17.0 -1.129795789718628 L 16.0 -1.129795789718628 L 16.0 0.005897431168705225 L 15.0 0.005897431168705225 L 15.0 -0.5320029258728027 L 14.0 -0.5320029258728027 L 14.0 -0.033187445253133774 L 13.0 -0.033187445253133774 L 13.0 -0.05905505642294884 L 12.0 -0.05905505642294884 L 12.0 0.18539609014987946 L 11.0 0.18539609014987946 L 11.0 -0.1962728351354599 L 10.0 -0.1962728351354599 L 10.0 -0.30444958806037903 L 9.0 -0.30444958806037903 L 9.0 -0.6294431090354919 L 8.0 -0.6294431090354919 L 8.0 0.12199385464191437 L 7.0 0.12199385464191437 L 7.0 -0.6054176092147827 L 6.0 -0.6054176092147827 L 6.0 -0.03309360891580582 L 5.0 -0.03309360891580582 L 5.0 -0.24264472723007202 L 4.0 -0.24264472723007202 L 4.0 0.17052584886550903 L 3.0 0.17052584886550903 L 3.0 0.18987536430358887 L 2.0 0.18987536430358887 L 2.0 0.13267698884010315 L 1.0 0.13267698884010315 L 1.0 0.6059324145317078 L 0.0 0.6059324145317078 Z" style="vector-effect: non-scaling-stroke;" /></g></g><g style="stroke: black;stroke-width: 1.2000000000000002;" transform="matrix(1.0, 0.0, 0.0, 1.0, 0.0, 0.0)"><path d="M 0.0 0.6059324145317078 L 1.0 0.6059324145317078 L 1.0 0.13267698884010315 L 2.0 0.13267698884010315 L 2.0 0.18987536430358887 L 3.0 0.18987536430358887 L 3.0 0.17052584886550903 L 4.0 0.17052584886550903 L 4.0 -0.24264472723007202 L 5.0 -0.24264472723007202 L 5.0 -0.03309360891580582 L 6.0 -0.03309360891580582 L 6.0 -0.6054176092147827 L 7.0 -0.6054176092147827 L 7.0 0.12199385464191437 L 8.0 0.12199385464191437 L 8.0 -0.6294431090354919 L 9.0 -0.6294431090354919 L 9.0 -0.30444958806037903 L 10.0 -0.30444958806037903 L 10.0 -0.1962728351354599 L 11.0 -0.1962728351354599 L 11.0 0.18539609014987946 L 12.0 0.18539609014987946 L 12.0 -0.05905505642294884 L 13.0 -0.05905505642294884 L 13.0 -0.033187445253133774 L 14.0 -0.033187445253133774 L 14.0 -0.5320029258728027 L 15.0 -0.5320029258728027 L 15.0 0.005897431168705225 L 16.0 0.005897431168705225 L 16.0 -1.129795789718628 L 17.0 -1.129795789718628 L 17.0 -0.010539877228438854 L 18.0 -0.010539877228438854 L 18.0 -0.9758538007736206 L 19.0 -0.9758538007736206 L 19.0 0.011312688700854778 L 20.0 0.011312688700854778 L 20.0 -0.5392654538154602 L 21.0 -0.5392654538154602 L 21.0 -0.16665905714035034 L 22.0 -0.16665905714035034 L 22.0 -0.2604571282863617 L 23.0 -0.2604571282863617 L 23.0 -0.02418043464422226 L 24.0 -0.02418043464422226 L 24.0 -0.4048283100128174 L 25.0 -0.4048283100128174" style="vector-effect: non-scaling-stroke;fill:none;" /></g></g></g></g></g></g></g></g><g /></g></g></g></g></svg>