<?xml version="1.0" encoding="utf-8" ?>
<svg baseProfile="full" height="300" version="1.1" width="1056" xmlns="http://www.w3.org/2000/svg" xmlns:ev="http://www.w3.org/2001/xml-events" xmlns:xlink="http://www.w3.org/1999/xlink"><defs><marker id="arrow" markerHeight="3.5" markerWidth="5" orient="auto" refX="5.0" refY="1.7"><polygon points="0,0 5,1.75 0,3.5" /></marker></defs><g style="fill:white;"><g transform="matrix(1.0, 0.0, 0.0, 1.0, 528.4090909090908, 150.0)"><g transform="matrix(1082.2510822510822, 0.0, 0.0, 1082.2510822510822, 0.0, 0.0)"><g><g transform="matrix(1.0, 0.0, 0.0, 1.0, -0.0, -0.08000000000000002)"><g><g><g style="fill: #ffffff;stroke: black;stroke-width: 1.2000000000000002;" transform="matrix(1.0, 0.0, 0.0, 1.0, -0.4649999999999999, -0.052000000000000005)"><path d="M 0.0 0.0 L 0.9299999999999998 0.0 L 0.9299999999999998 0.264 L 0.0 0.264 L 0.0 0.0 Z" style="vector-effect: non-scaling-stroke;" /></g><g><g><g><g><g><g><g><g transform="matrix(1.0, 0.0, 0.0, 1.0, -0.4149999999999999, -0.03)"><g><g><g transform="matrix(1.0, 0.0, 0.0, 1.0, 0.075, 0.0)"><g transform="matrix(1.0, 0.0, 0.0, 1.0, 0.0, 0.03)"><g transform="matrix(0.01, 0.0, 0.0, 0.01, 0.0, 0.0)"><g><g><g transform="matrix(1.0, 0.0, 0.0, 1.0, 20.0, 0.0)"><g transform="matrix(1.0, 0.0, 0.0, 1.0, -27.5, -0.0)"><g><g style="fill: #d3d3d3;stroke: black;stroke-width: 1.2000000000000002;" transform="matrix(1.0, 0.0, 0.0, 1.0, 0.0, -3.0)"><path d="M 0.0 0.0 L 55.0 0.0 L 55.0 6.0 L 0.0 6.0 L 0.0 0.0 Z" style="vector-effect: non-scaling-stroke;" /></g><g transform="matrix(1.0, 0.0, 0.0, 1.0, 1.875, 0.0)"><g><g style="stroke: black;stroke-width: 1.2000000000000002;" transform="matrix(1.0, 0.0, 0.0, 1.0, 0.0, 0.0)"><g /></g><g style="fill: #ffa500;stroke: black;stroke-width: 1.2000000000000002;" transform="matrix(1.0, 0.0, 0.0, 1.0, 1.875, 0.0)"><text style="text-align:center; text-anchor:middle; dominant-baseline:middle;&#10;                      font-family:sans-serif; font-weight: bold;&#10;                      font-size:3px;&#10;                      vector-effect: non-scaling-stroke;" transform="translate(-5e-05, 0)">x</text></g></g></g></g></g></g><g><g><g><g><g><g><g><g style="stroke: black;stroke-width: 1.2000000000000002;" transform="matrix(1.0, 0.0, 0.0, 1.0, 0.0, 0.0)"><path d="M 0.0 -2.0 L 0.0 2.0" style="vector-effect: non-scaling-stroke;fill:none;" /></g><g style="stroke: #808080;stroke-width: 0.6000000000000001;" transform="matrix(1.0, 0.0, 0.0, 1.0, 0.0, 0.0)"><path d="M 0.0 0.0 L 40.0 0.0" style="vector-effect: non-scaling-stroke;fill:none;" /></g></g><g style="stroke: black;stroke-width: 2.4000000000000004;" transform="matrix(1.0, 0.0, 0.0, 1.0, 0.0, 0.0)"><path d="M 0.0 0.005311056971549988 L 1.0 0.005311056971549988 L 1.0 0.6617961525917053 L 2.0 0.6617961525917053 L 2.0 -0.029221951961517334 L 3.0 -0.029221951961517334 L 3.0 -0.5955145359039307 L 4.0 -0.5955145359039307 L 4.0 -0.28756967186927795 L 5.0 -0.28756967186927795 L 5.0 -1.1414746046066284 L 6.0 -1.1414746046066284 L 6.0 0.029801758006215096 L 7.0 0.029801758006215096 L 7.0 -0.5384460091590881 L 8.0 -0.5384460091590881 L 8.0 -0.7264551520347595 L 9.0 -0.7264551520347595 L 9.0 -0.7654497623443604 L 10.0 -0.7654497623443604 L 10.0 0.06270832568407059 L 11.0 0.06270832568407059 L 11.0 -1.5212970972061157 L 12.0 -1.5212970972061157 L 12.0 -0.8081479072570801 L 13.0 -0.8081479072570801 L 13.0 -1.4235832691192627 L 14.0 -1.4235832691192627 L 14.0 -0.31076791882514954 L 15.0 -0.31076791882514954 L 15.0 -0.3787614107131958 L 16.0 -0.3787614107131958 L 16.0 -1.1808154582977295 L 17.0 -1.1808154582977295 L 17.0 -0.852485179901123 L 18.0 -0.852485179901123 L 18.0 -1.745559573173523 L 19.0 -1.745559573173523 L 19.0 -0.6974199414253235 L 20.0 -0.6974199414253235 L 20.0 -0.5488577485084534 L 21.0 -0.5488577485084534 L 21.0 -0.821071445941925 L 22.0 -0.821071445941925 L 22.0 -0.8402944207191467 L 23.0 -0.8402944207191467 L 23.0 -0.12001878023147583 L 24.0 -0.12001878023147583 L 24.0 -1.3758478164672852 L 25.0 -1.3758478164672852 L 25.0 -0.7104760408401489 L 26.0 -0.7104760408401489 L 26.0 -0.8866549730300903 L 27.0 -0.8866549730300903 L 27.0 -0.5337659120559692 L 28.0 -0.5337659120559692 L 28.0 -1.97091805934906 L 29.0 -1.97091805934906 L 29.0 -1.27131187915802 L 30.0 -1.27131187915802 L 30.0 -1.3876806497573853 L 31.0 -1.3876806497573853 L 31.0 -1.7807198762893677 L 32.0 -1.7807198762893677 L 32.0 -0.7823610305786133 L 33.0 -0.7823610305786133 L 33.0 -1.4078423976898193 L 34.0 -1.4078423976898193 L 34.0 -1.8414782285690308 L 35.0 -1.8414782285690308 L 35.0 -0.1485409289598465 L 36.0 -0.1485409289598465 L 36.0 -1.0431902408599854 L 37.0 -1.0431902408599854 L 37.0 -0.09622325748205185 L 38.0 -0.09622325748205185 L 38.0 -0.26951152086257935 L 39.0 -0.26951152086257935 L 39.0 -1.3328336477279663 L 40.0 -1.3328336477279663" style="vector-effect: non-scaling-stroke;fill:none;" /></g></g><g style="stroke: black;stroke-width: 1.2000000000000002;" transform="matrix(1.0, 0.0, 0.0, 1.0, 0.0, 0.0)"><path d="M 0.0 -2.0 L 0.0 2.0" style="vector-effect: non-scaling-stroke;fill:none;" /></g></g><g style="stroke: black;stroke-width: 1.2000000000000002;" transform="matrix(1.0, 0.0, 0.0, 1.0, 0.0, 0.0)"><path d="M 10.0 -2.0 L 10.0 2.0" style="vector-effect: non-scaling-stroke;fill:none;" /></g></g><g style="stroke: black;stroke-width: 1.2000000000000002;" transform="matrix(1.0, 0.0, 0.0, 1.0, 0.0, 0.0)"><path d="M 20.0 -2.0 L 20.0 2.0" style="vector-effect: non-scaling-stroke;fill:none;" /></g></g><g style="stroke: black;stroke-width: 1.2000000000000002;" transform="matrix(1.0, 0.0, 0.0, 1.0, 0.0, 0.0)"><path d="M 30.0 -2.0 L 30.0 2.0" style="vector-effect: non-scaling-stroke;fill:none;" /></g></g></g></g><g><g><g><g><g><g><g><g style="stroke: black;stroke-width: 1.2000000000000002;" transform="matrix(1.0, 0.0, 0.0, 1.0, 0.0, 0.0)"><path d="M 0.0 -2.0 L 0.0 2.0" style="vector-effect: non-scaling-stroke;fill:none;" /></g><g style="stroke: #808080;stroke-width: 0.6000000000000001;" transform="matrix(1.0, 0.0, 0.0, 1.0, 0.0, 0.0)"><path d="M 0.0 0.0 L 40.0 0.0" style="vector-effect: non-scaling-stroke;fill:none;" /></g></g><g style="stroke: black;stroke-width: 2.4000000000000004;" transform="matrix(1.0, 0.0, 0.0, 1.0, 0.0, 0.0)"><path d="M 0.0 0.005311056971549988 L 1.0 0.005311056971549988 L 1.0 0.6617961525917053 L 2.0 0.6617961525917053 L 2.0 -0.029221951961517334 L 3.0 -0.029221951961517334 L 3.0 -0.5955145359039307 L 4.0 -0.5955145359039307 L 4.0 -0.28756967186927795 L 5.0 -0.28756967186927795 L 5.0 -1.1414746046066284 L 6.0 -1.1414746046066284 L 6.0 0.029801758006215096 L 7.0 0.029801758006215096 L 7.0 -0.5384460091590881 L 8.0 -0.5384460091590881 L 8.0 -0.7264551520347595 L 9.0 -0.7264551520347595 L 9.0 -0.7654497623443604 L 10.0 -0.7654497623443604 L 10.0 0.06270832568407059 L 11.0 0.06270832568407059 L 11.0 -1.5212970972061157 L 12.0 -1.5212970972061157 L 12.0 -0.8081479072570801 L 13.0 -0.8081479072570801 L 13.0 -1.4235832691192627 L 14.0 -1.4235832691192627 L 14.0 -0.31076791882514954 L 15.0 -0.31076791882514954 L 15.0 -0.3787614107131958 L 16.0 -0.3787614107131958 L 16.0 -1.1808154582977295 L 17.0 -1.1808154582977295 L 17.0 -0.852485179901123 L 18.0 -0.852485179901123 L 18.0 -1.745559573173523 L 19.0 -1.745559573173523 L 19.0 -0.6974199414253235 L 20.0 -0.6974199414253235 L 20.0 -0.5488577485084534 L 21.0 -0.5488577485084534 L 21.0 -0.821071445941925 L 22.0 -0.821071445941925 L 22.0 -0.8402944207191467 L 23.0 -0.8402944207191467 L 23.0 -0.12001878023147583 L 24.0 -0.12001878023147583 L 24.0 -1.3758478164672852 L 25.0 -1.3758478164672852 L 25.0 -0.7104760408401489 L 26.0 -0.7104760408401489 L 26.0 -0.8866549730300903 L 27.0 -0.8866549730300903 L 27.0 -0.5337659120559692 L 28.0 -0.5337659120559692 L 28.0 -1.97091805934906 L 29.0 -1.97091805934906 L 29.0 -1.27131187915802 L 30.0 -1.27131187915802 L 30.0 -1.3876806497573853 L 31.0 -1.3876806497573853 L 31.0 -1.7807198762893677 L 32.0 -1.7807198762893677 L 32.0 -0.7823610305786133 L 33.0 -0.7823610305786133 L 33.0 -1.4078423976898193 L 34.0 -1.4078423976898193 L 34.0 -1.8414782285690308 L 35.0 -1.8414782285690308 L 35.0 -0.1485409289598465 L 36.0 -0.1485409289598465 L 36.0 -1.0431902408599854 L 37.0 -1.0431902408599854 L 37.0 -0.09622325748205185 L 38.0 -0.09622325748205185 L 38.0 -0.26951152086257935 L 39.0 -0.26951152086257935 L 39.0 -1.3328336477279663 L 40.0 -1.3328336477279663" style="vector-effect: non-scaling-stroke;fill:none;" /></g></g><g style="stroke: black;stroke-width: 1.2000000000000002;" transform="matrix(1.0, 0.0, 0.0, 1.0, 0.0, 0.0)"><path d="M 0.0 -2.0 L 0.0 2.0" style="vector-effect: non-scaling-stroke;fill:none;" /></g></g><g style="stroke: black;stroke-width: 1.2000000000000002;" transform="matrix(1.0, 0.0, 0.0, 1.0, 0.0, 0.0)"><path d="M 10.0 -2.0 L 10.0 2.0" style="vector-effect: non-scaling-stroke;fill:none;" /></g></g><g style="stroke: black;stroke-width: 1.2000000000000002;" transform="matrix(1.0, 0.0, 0.0, 1.0, 0.0, 0.0)"><path d="M 20.0 -2.0 L 20.0 2.0" style="vector-effect: non-scaling-stroke;fill:none;" /></g></g><g style="stroke: black;stroke-width: 1.2000000000000002;" transform="matrix(1.0, 0.0, 0.0, 1.0, 0.0, 0.0)"><path d="M 30.0 -2.0 L 30.0 2.0" style="vector-effect: non-scaling-stroke;fill:none;" /></g></g></g></g></g></g></g><g style="stroke: black;stroke-width: 1.2000000000000002;" transform="matrix(1.0, 0.0, 0.0, 1.0, 0.565, 0.0)"><g /></g></g><g transform="matrix(1.0, 0.0, 0.0, 1.0, 0.58, 0.0)"><g transform="matrix(1.0, 0.0, 0.0, 1.0, 0.075, 0.0)"><g transform="matrix(1.0, 0.0, 0.0, 1.0, 0.0, 0.03)"><g transform="matrix(0.01, 0.0, 0.0, 0.01, 0.0, 0.0)"><g><g><g transform="matrix(1.0, 0.0, 0.0, 1.0, 5.0, 0.0)"><g transform="matrix(1.0, 0.0, 0.0, 1.0, -12.5, -0.0)"><g><g style="fill: #d3d3d3;stroke: black;stroke-width: 1.2000000000000002;" transform="matrix(1.0, 0.0, 0.0, 1.0, 0.0, -3.0)"><path d="M 0.0 0.0 L 25.0 0.0 L 25.0 6.0 L 0.0 6.0 L 0.0 0.0 Z" style="vector-effect: non-scaling-stroke;" /></g><g transform="matrix(1.0, 0.0, 0.0, 1.0, 1.875, 0.0)"><g><g style="stroke: black;stroke-width: 1.2000000000000002;" transform="matrix(1.0, 0.0, 0.0, 1.0, 0.0, 0.0)"><g /></g><g style="fill: #ffa500;stroke: black;stroke-width: 1.2000000000000002;" transform="matrix(1.0, 0.0, 0.0, 1.0, 1.875, 0.0)"><text style="text-align:center; text-anchor:middle; dominant-baseline:middle;&#10;                      font-family:sans-serif; font-weight: bold;&#10;                      font-size:3px;&#10;                      vector-effect: non-scaling-stroke;" transform="translate(-5e-05, 0)">y</text></g></g></g></g></g></g><g><g><g><g style="stroke: black;stroke-width: 1.2000000000000002;" transform="matrix(1.0, 0.0, 0.0, 1.0, 0.0, 0.0)"><path d="M 0.0 -2.0 L 0.0 2.0" style="vector-effect: non-scaling-stroke;fill:none;" /></g><g style="stroke: #808080;stroke-width: 0.6000000000000001;" transform="matrix(1.0, 0.0, 0.0, 1.0, 0.0, 0.0)"><path d="M 0.0 0.0 L 10.0 0.0" style="vector-effect: non-scaling-stroke;fill:none;" /></g></g><g style="stroke: black;stroke-width: 2.4000000000000004;" transform="matrix(1.0, 0.0, 0.0, 1.0, 0.0, 0.0)"><path d="M 0.0 -0.8747767806053162 L 1.0 -0.8747767806053162 L 1.0 -1.4892016649246216 L 2.0 -1.4892016649246216 L 2.0 0.11869626492261887 L 3.0 0.11869626492261887 L 3.0 -1.2941701412200928 L 4.0 -1.2941701412200928 L 4.0 -0.487885057926178 L 5.0 -0.487885057926178 L 5.0 -1.3998547792434692 L 6.0 -1.3998547792434692 L 6.0 -0.6406936049461365 L 7.0 -0.6406936049461365 L 7.0 -1.6183596849441528 L 8.0 -1.6183596849441528 L 8.0 -1.5249296426773071 L 9.0 -1.5249296426773071 L 9.0 -0.435707688331604 L 10.0 -0.435707688331604" style="vector-effect: non-scaling-stroke;fill:none;" /></g></g></g></g><g><g><g><g style="stroke: black;stroke-width: 1.2000000000000002;" transform="matrix(1.0, 0.0, 0.0, 1.0, 0.0, 0.0)"><path d="M 0.0 -2.0 L 0.0 2.0" style="vector-effect: non-scaling-stroke;fill:none;" /></g><g style="stroke: #808080;stroke-width: 0.6000000000000001;" transform="matrix(1.0, 0.0, 0.0, 1.0, 0.0, 0.0)"><path d="M 0.0 0.0 L 10.0 0.0" style="vector-effect: non-scaling-stroke;fill:none;" /></g></g><g style="stroke: black;stroke-width: 2.4000000000000004;" transform="matrix(1.0, 0.0, 0.0, 1.0, 0.0, 0.0)"><path d="M 0.0 -0.8747767806053162 L 1.0 -0.8747767806053162 L 1.0 -1.4892016649246216 L 2.0 -1.4892016649246216 L 2.0 0.11869626492261887 L 3.0 0.11869626492261887 L 3.0 -1.2941701412200928 L 4.0 -1.2941701412200928 L 4.0 -0.487885057926178 L 5.0 -0.487885057926178 L 5.0 -1.3998547792434692 L 6.0 -1.3998547792434692 L 6.0 -0.6406936049461365 L 7.0 -0.6406936049461365 L 7.0 -1.6183596849441528 L 8.0 -1.6183596849441528 L 8.0 -1.5249296426773071 L 9.0 -1.5249296426773071 L 9.0 -0.435707688331604 L 10.0 -0.435707688331604" style="vector-effect: non-scaling-stroke;fill:none;" /></g></g></g></g></g></g></g></g></g></g><g style="stroke: black;stroke-width: 1.2000000000000002;" transform="matrix(0.0, -1.0, 1.0, 0.0, 0.0, 0.08)"><g /></g></g><g transform="matrix(1.0, 0.0, 0.0, 1.0, 0.0, 0.16)"><g transform="matrix(1.0, 0.0, 0.0, 1.0, -0.27499999999999997, -0.03)"><g transform="matrix(1.0, 0.0, 0.0, 1.0, 0.075, 0.0)"><g transform="matrix(1.0, 0.0, 0.0, 1.0, 0.0, 0.03)"><g transform="matrix(0.01, 0.0, 0.0, 0.01, 0.0, 0.0)"><g><g><g transform="matrix(1.0, 0.0, 0.0, 1.0, 20.0, 0.0)"><g transform="matrix(1.0, 0.0, 0.0, 1.0, -27.5, -0.0)"><g><g style="fill: #d3d3d3;stroke: black;stroke-width: 1.2000000000000002;" transform="matrix(1.0, 0.0, 0.0, 1.0, 0.0, -3.0)"><path d="M 0.0 0.0 L 55.0 0.0 L 55.0 6.0 L 0.0 6.0 L 0.0 0.0 Z" style="vector-effect: non-scaling-stroke;" /></g><g transform="matrix(1.0, 0.0, 0.0, 1.0, 1.875, 0.0)"><g><g style="stroke: black;stroke-width: 1.2000000000000002;" transform="matrix(1.0, 0.0, 0.0, 1.0, 0.0, 0.0)"><g /></g><g style="fill: #ffa500;stroke: black;stroke-width: 1.2000000000000002;" transform="matrix(1.0, 0.0, 0.0, 1.0, 1.875, 0.0)"><text style="text-align:center; text-anchor:middle; dominant-baseline:middle;&#10;                      font-family:sans-serif; font-weight: bold;&#10;                      font-size:3px;&#10;                      vector-effect: non-scaling-stroke;" transform="translate(-5e-05, 0)">f(x)</text></g></g></g></g></g></g><g><g><g><g style="stroke: black;stroke-width: 1.2000000000000002;" transform="matrix(1.0, 0.0, 0.0, 1.0, 0.0, 0.0)"><path d="M 0.0 -2.0 L 0.0 2.0" style="vector-effect: non-scaling-stroke;fill:none;" /></g><g style="stroke: #808080;stroke-width: 0.6000000000000001;" transform="matrix(1.0, 0.0, 0.0, 1.0, 0.0, 0.0)"><path d="M 0.0 0.0 L 40.0 0.0" style="vector-effect: non-scaling-stroke;fill:none;" /></g></g><g style="stroke: black;stroke-width: 2.4000000000000004;" transform="matrix(1.0, 0.0, 0.0, 1.0, 0.0, 0.0)"><path d="M 0.0 0.002322994638234377 L 1.0 0.002322994638234377 L 1.0 0.49277397990226746 L 2.0 0.49277397990226746 L 2.0 0.0017342682695016265 L 3.0 0.0017342682695016265 L 3.0 -0.3853485584259033 L 4.0 -0.3853485584259033 L 4.0 -0.0701504722237587 L 5.0 -0.0701504722237587 L 5.0 -0.7989493608474731 L 6.0 -0.7989493608474731 L 6.0 0.009546898305416107 L 7.0 0.009546898305416107 L 7.0 -0.4356996715068817 L 8.0 -0.4356996715068817 L 8.0 -0.5538964867591858 L 9.0 -0.5538964867591858 L 9.0 -0.16675616800785065 L 10.0 -0.16675616800785065 L 10.0 0.02742789313197136 L 11.0 0.02742789313197136 L 11.0 -1.1327590942382812 L 12.0 -1.1327590942382812 L 12.0 0.047962069511413574 L 13.0 0.047962069511413574 L 13.0 -0.921179473400116 L 14.0 -0.921179473400116 L 14.0 -0.07580950856208801 L 15.0 -0.07580950856208801 L 15.0 -0.2651054859161377 L 16.0 -0.2651054859161377 L 16.0 -0.3782704472541809 L 17.0 -0.3782704472541809 L 17.0 -0.6898138523101807 L 18.0 -0.6898138523101807 L 18.0 -1.3309277296066284 L 19.0 -1.3309277296066284 L 19.0 -0.1519356220960617 L 20.0 -0.1519356220960617 L 20.0 -0.24006401002407074 L 21.0 -0.24006401002407074 L 21.0 -0.6113705039024353 L 22.0 -0.6113705039024353 L 22.0 0.04986990615725517 L 23.0 0.04986990615725517 L 23.0 -0.07766236364841461 L 24.0 -0.07766236364841461 L 24.0 -0.33562779426574707 L 25.0 -0.33562779426574707 L 25.0 -0.49728164076805115 L 26.0 -0.49728164076805115 L 26.0 -0.2840370833873749 L 27.0 -0.2840370833873749 L 27.0 -0.4319126307964325 L 28.0 -0.4319126307964325 L 28.0 -1.5027556419372559 L 29.0 -1.5027556419372559 L 29.0 -0.27696019411087036 L 30.0 -0.27696019411087036 L 30.0 -0.6069554090499878 L 31.0 -0.6069554090499878 L 31.0 -1.3259254693984985 L 32.0 -1.3259254693984985 L 32.0 0.04643166437745094 L 33.0 0.04643166437745094 L 33.0 -0.9109938144683838 L 34.0 -0.9109938144683838 L 34.0 -0.4492148458957672 L 35.0 -0.4492148458957672 L 35.0 -0.10396786779165268 L 36.0 -0.10396786779165268 L 36.0 -0.33418264985084534 L 37.0 -0.33418264985084534 L 37.0 -0.07786191999912262 L 38.0 -0.07786191999912262 L 38.0 -0.2054930478334427 L 39.0 -0.2054930478334427 L 39.0 -0.2903629243373871 L 40.0 -0.2903629243373871" style="vector-effect: non-scaling-stroke;fill:none;" /></g></g></g></g><g><g><g><g style="stroke: black;stroke-width: 1.2000000000000002;" transform="matrix(1.0, 0.0, 0.0, 1.0, 0.0, 0.0)"><path d="M 0.0 -2.0 L 0.0 2.0" style="vector-effect: non-scaling-stroke;fill:none;" /></g><g style="stroke: #808080;stroke-width: 0.6000000000000001;" transform="matrix(1.0, 0.0, 0.0, 1.0, 0.0, 0.0)"><path d="M 0.0 0.0 L 40.0 0.0" style="vector-effect: non-scaling-stroke;fill:none;" /></g></g><g style="stroke: black;stroke-width: 2.4000000000000004;" transform="matrix(1.0, 0.0, 0.0, 1.0, 0.0, 0.0)"><path d="M 0.0 0.002322994638234377 L 1.0 0.002322994638234377 L 1.0 0.49277397990226746 L 2.0 0.49277397990226746 L 2.0 0.0017342682695016265 L 3.0 0.0017342682695016265 L 3.0 -0.3853485584259033 L 4.0 -0.3853485584259033 L 4.0 -0.0701504722237587 L 5.0 -0.0701504722237587 L 5.0 -0.7989493608474731 L 6.0 -0.7989493608474731 L 6.0 0.009546898305416107 L 7.0 0.009546898305416107 L 7.0 -0.4356996715068817 L 8.0 -0.4356996715068817 L 8.0 -0.5538964867591858 L 9.0 -0.5538964867591858 L 9.0 -0.16675616800785065 L 10.0 -0.16675616800785065 L 10.0 0.02742789313197136 L 11.0 0.02742789313197136 L 11.0 -1.1327590942382812 L 12.0 -1.1327590942382812 L 12.0 0.047962069511413574 L 13.0 0.047962069511413574 L 13.0 -0.921179473400116 L 14.0 -0.921179473400116 L 14.0 -0.07580950856208801 L 15.0 -0.07580950856208801 L 15.0 -0.2651054859161377 L 16.0 -0.2651054859161377 L 16.0 -0.3782704472541809 L 17.0 -0.3782704472541809 L 17.0 -0.6898138523101807 L 18.0 -0.6898138523101807 L 18.0 -1.3309277296066284 L 19.0 -1.3309277296066284 L 19.0 -0.1519356220960617 L 20.0 -0.1519356220960617 L 20.0 -0.24006401002407074 L 21.0 -0.24006401002407074 L 21.0 -0.6113705039024353 L 22.0 -0.6113705039024353 L 22.0 0.04986990615725517 L 23.0 0.04986990615725517 L 23.0 -0.07766236364841461 L 24.0 -0.07766236364841461 L 24.0 -0.33562779426574707 L 25.0 -0.33562779426574707 L 25.0 -0.49728164076805115 L 26.0 -0.49728164076805115 L 26.0 -0.2840370833873749 L 27.0 -0.2840370833873749 L 27.0 -0.4319126307964325 L 28.0 -0.4319126307964325 L 28.0 -1.5027556419372559 L 29.0 -1.5027556419372559 L 29.0 -0.27696019411087036 L 30.0 -0.27696019411087036 L 30.0 -0.6069554090499878 L 31.0 -0.6069554090499878 L 31.0 -1.3259254693984985 L 32.0 -1.3259254693984985 L 32.0 0.04643166437745094 L 33.0 0.04643166437745094 L 33.0 -0.9109938144683838 L 34.0 -0.9109938144683838 L 34.0 -0.4492148458957672 L 35.0 -0.4492148458957672 L 35.0 -0.10396786779165268 L 36.0 -0.10396786779165268 L 36.0 -0.33418264985084534 L 37.0 -0.33418264985084534 L 37.0 -0.07786191999912262 L 38.0 -0.07786191999912262 L 38.0 -0.2054930478334427 L 39.0 -0.2054930478334427 L 39.0 -0.2903629243373871 L 40.0 -0.2903629243373871" style="vector-effect: non-scaling-stroke;fill:none;" /></g></g></g></g></g></g></g></g></g></g><g transform="matrix(1.0, 0.0, 0.0, 1.0, -0.19999999999999996, 0.16)"><g transform="matrix(1.0, 0.0, 0.0, 0.009999999999999995, 0.0, 0.0)"><g transform="matrix(0.01, 0.0, 0.0, 1.0, 0.0, 0.0)"><g><g><g style="fill: #ffffe0;stroke: #ffffe0;stroke-width: 1.2000000000000002;fill-opacity: 0.5;" transform="matrix(1.0, 0.0, 0.0, 1.0, 0.0, 0.0)"><path d="M 0.0 -2.0 L 0.0 2.0" style="vector-effect: non-scaling-stroke;fill:none;" /></g><g style="fill: #ffffe0;stroke: #ffffe0;stroke-width: 1.2000000000000002;fill-opacity: 0.5;" transform="matrix(1.0, 0.0, 0.0, 1.0, 0.0, 0.0)"><path d="M 0.0 -0.8724683523178101 L 1.0 -0.8724683523178101 L 1.0 -1.0003223419189453 L 2.0 -1.0003223419189453 L 2.0 0.1204313337802887 L 3.0 0.1204313337802887 L 3.0 -1.6817495822906494 L 4.0 -1.6817495822906494 L 4.0 -0.5581635236740112 L 5.0 -0.5581635236740112 L 5.0 -2.0 L 6.0 -2.0 L 6.0 -0.6312030553817749 L 7.0 -0.6312030553817749 L 7.0 -2.0 L 8.0 -2.0 L 8.0 -2.0 L 9.0 -2.0 L 9.0 -0.6033601760864258 L 10.0 -0.6033601760864258 L 10.0 -0.8472702503204346 L 11.0 -0.8472702503204346 L 11.0 -2.0 L 12.0 -2.0 L 12.0 0.16679883003234863 L 13.0 0.16679883003234863 L 13.0 -2.0 L 14.0 -2.0 L 14.0 -0.5638225078582764 L 15.0 -0.5638225078582764 L 15.0 -1.6658146381378174 L 16.0 -1.6658146381378174 L 16.0 -1.0220005512237549 L 17.0 -1.0220005512237549 L 17.0 -2.0 L 18.0 -2.0 L 18.0 -2.0 L 19.0 -2.0 L 19.0 -0.5870495438575745 L 20.0 -0.5870495438575745 L 20.0 -1.1162523031234741 L 21.0 -1.1162523031234741 L 21.0 -2.0 L 22.0 -2.0 L 22.0 0.16870667040348053 L 23.0 0.16870667040348053 L 23.0 -1.37108314037323 L 24.0 -1.37108314037323 L 24.0 -0.8243858814239502 L 25.0 -0.8243858814239502 L 25.0 -1.8979908227920532 L 26.0 -1.8979908227920532 L 26.0 -0.9247870445251465 L 27.0 -0.9247870445251465 L 27.0 -2.0 L 28.0 -2.0 L 28.0 -2.0 L 29.0 -2.0 L 29.0 -0.7120741009712219 L 30.0 -0.7120741009712219 L 30.0 -1.48314368724823 L 31.0 -1.48314368724823 L 31.0 -2.0 L 32.0 -2.0 L 32.0 0.1656409502029419 L 33.0 0.1656409502029419 L 33.0 -2.0 L 34.0 -2.0 L 34.0 -0.937972903251648 L 35.0 -0.937972903251648 L 35.0 -1.5031869411468506 L 36.0 -1.5031869411468506 L 36.0 -0.9779127836227417 L 37.0 -0.9779127836227417 L 37.0 -1.696128010749817 L 38.0 -1.696128010749817 L 38.0 -1.7313719987869263 L 39.0 -1.7313719987869263 L 39.0 -0.7284570932388306 L 40.0 -0.7284570932388306 L 40.0 -0.2903629243373871 L 39.0 -0.2903629243373871 L 39.0 -0.2054930478334427 L 38.0 -0.2054930478334427 L 38.0 -0.07786191999912262 L 37.0 -0.07786191999912262 L 37.0 -0.33418264985084534 L 36.0 -0.33418264985084534 L 36.0 -0.10396786779165268 L 35.0 -0.10396786779165268 L 35.0 -0.4492148458957672 L 34.0 -0.4492148458957672 L 34.0 -0.9109938144683838 L 33.0 -0.9109938144683838 L 33.0 0.04643166437745094 L 32.0 0.04643166437745094 L 32.0 -1.3259254693984985 L 31.0 -1.3259254693984985 L 31.0 -0.6069554090499878 L 30.0 -0.6069554090499878 L 30.0 -0.27696019411087036 L 29.0 -0.27696019411087036 L 29.0 -1.5027556419372559 L 28.0 -1.5027556419372559 L 28.0 -0.4319126307964325 L 27.0 -0.4319126307964325 L 27.0 -0.2840370833873749 L 26.0 -0.2840370833873749 L 26.0 -0.49728164076805115 L 25.0 -0.49728164076805115 L 25.0 -0.33562779426574707 L 24.0 -0.33562779426574707 L 24.0 -0.07766236364841461 L 23.0 -0.07766236364841461 L 23.0 0.04986990615725517 L 22.0 0.04986990615725517 L 22.0 -0.6113705039024353 L 21.0 -0.6113705039024353 L 21.0 -0.24006401002407074 L 20.0 -0.24006401002407074 L 20.0 -0.1519356220960617 L 19.0 -0.1519356220960617 L 19.0 -1.3309277296066284 L 18.0 -1.3309277296066284 L 18.0 -0.6898138523101807 L 17.0 -0.6898138523101807 L 17.0 -0.3782704472541809 L 16.0 -0.3782704472541809 L 16.0 -0.2651054859161377 L 15.0 -0.2651054859161377 L 15.0 -0.07580950856208801 L 14.0 -0.07580950856208801 L 14.0 -0.921179473400116 L 13.0 -0.921179473400116 L 13.0 0.047962069511413574 L 12.0 0.047962069511413574 L 12.0 -1.1327590942382812 L 11.0 -1.1327590942382812 L 11.0 0.02742789313197136 L 10.0 0.02742789313197136 L 10.0 -0.16675616800785065 L 9.0 -0.16675616800785065 L 9.0 -0.5538964867591858 L 8.0 -0.5538964867591858 L 8.0 -0.4356996715068817 L 7.0 -0.4356996715068817 L 7.0 0.009546898305416107 L 6.0 0.009546898305416107 L 6.0 -0.7989493608474731 L 5.0 -0.7989493608474731 L 5.0 -0.0701504722237587 L 4.0 -0.0701504722237587 L 4.0 -0.3853485584259033 L 3.0 -0.3853485584259033 L 3.0 0.0017342682695016265 L 2.0 0.0017342682695016265 L 2.0 0.49277397990226746 L 1.0 0.49277397990226746 L 1.0 0.002322994638234377 L 0.0 0.002322994638234377 Z" style="vector-effect: non-scaling-stroke;" /></g></g><g style="stroke: black;stroke-width: 1.2000000000000002;" transform="matrix(1.0, 0.0, 0.0, 1.0, 0.0, 0.0)"><path d="M 0.0 0.002322994638234377 L 1.0 0.002322994638234377 L 1.0 0.49277397990226746 L 2.0 0.49277397990226746 L 2.0 0.0017342682695016265 L 3.0 0.0017342682695016265 L 3.0 -0.3853485584259033 L 4.0 -0.3853485584259033 L 4.0 -0.0701504722237587 L 5.0 -0.0701504722237587 L 5.0 -0.7989493608474731 L 6.0 -0.7989493608474731 L 6.0 0.009546898305416107 L 7.0 0.009546898305416107 L 7.0 -0.4356996715068817 L 8.0 -0.4356996715068817 L 8.0 -0.5538964867591858 L 9.0 -0.5538964867591858 L 9.0 -0.16675616800785065 L 10.0 -0.16675616800785065 L 10.0 0.02742789313197136 L 11.0 0.02742789313197136 L 11.0 -1.1327590942382812 L 12.0 -1.1327590942382812 L 12.0 0.047962069511413574 L 13.0 0.047962069511413574 L 13.0 -0.921179473400116 L 14.0 -0.921179473400116 L 14.0 -0.07580950856208801 L 15.0 -0.07580950856208801 L 15.0 -0.2651054859161377 L 16.0 -0.2651054859161377 L 16.0 -0.3782704472541809 L 17.0 -0.3782704472541809 L 17.0 -0.6898138523101807 L 18.0 -0.6898138523101807 L 18.0 -1.3309277296066284 L 19.0 -1.3309277296066284 L 19.0 -0.1519356220960617 L 20.0 -0.1519356220960617 L 20.0 -0.24006401002407074 L 21.0 -0.24006401002407074 L 21.0 -0.6113705039024353 L 22.0 -0.6113705039024353 L 22.0 0.04986990615725517 L 23.0 0.04986990615725517 L 23.0 -0.07766236364841461 L 24.0 -0.07766236364841461 L 24.0 -0.33562779426574707 L 25.0 -0.33562779426574707 L 25.0 -0.49728164076805115 L 26.0 -0.49728164076805115 L 26.0 -0.2840370833873749 L 27.0 -0.2840370833873749 L 27.0 -0.4319126307964325 L 28.0 -0.4319126307964325 L 28.0 -1.5027556419372559 L 29.0 -1.5027556419372559 L 29.0 -0.27696019411087036 L 30.0 -0.27696019411087036 L 30.0 -0.6069554090499878 L 31.0 -0.6069554090499878 L 31.0 -1.3259254693984985 L 32.0 -1.3259254693984985 L 32.0 0.04643166437745094 L 33.0 0.04643166437745094 L 33.0 -0.9109938144683838 L 34.0 -0.9109938144683838 L 34.0 -0.4492148458957672 L 35.0 -0.4492148458957672 L 35.0 -0.10396786779165268 L 36.0 -0.10396786779165268 L 36.0 -0.33418264985084534 L 37.0 -0.33418264985084534 L 37.0 -0.07786191999912262 L 38.0 -0.07786191999912262 L 38.0 -0.2054930478334427 L 39.0 -0.2054930478334427 L 39.0 -0.2903629243373871 L 40.0 -0.2903629243373871" style="vector-effect: non-scaling-stroke;fill:none;" /></g></g></g></g></g></g><g transform="matrix(1.0, 0.0, 0.0, 1.0, -0.19999999999999996, 0.16)"><g transform="matrix(1.0, 0.0, 0.0, 0.009999999999999995, 0.0, 0.0)"><g transform="matrix(0.01, 0.0, 0.0, 1.0, 0.0, 0.0)"><g><g><g style="fill: #add8e6;stroke: #add8e6;stroke-width: 1.2000000000000002;fill-opacity: 0.5;" transform="matrix(1.0, 0.0, 0.0, 1.0, 0.0, 0.0)"><path d="M 0.0 -2.0 L 0.0 2.0" style="vector-effect: non-scaling-stroke;fill:none;" /></g><g style="fill: #add8e6;stroke: #add8e6;stroke-width: 1.2000000000000002;fill-opacity: 0.5;" transform="matrix(1.0, 0.0, 0.0, 1.0, 0.0, 0.0)"><path d="M 0.0 0.007654816377907991 L 1.0 0.007654816377907991 L 1.0 1.1543855667114258 L 2.0 1.1543855667114258 L 2.0 -0.027485977858304977 L 3.0 -0.027485977858304977 L 3.0 -0.9813950061798096 L 4.0 -0.9813950061798096 L 4.0 -0.35774287581443787 L 5.0 -0.35774287581443787 L 5.0 -1.937398076057434 L 6.0 -1.937398076057434 L 6.0 0.03934922069311142 L 7.0 0.03934922069311142 L 7.0 -0.9721415042877197 L 8.0 -0.9721415042877197 L 8.0 -1.2810730934143066 L 9.0 -1.2810730934143066 L 9.0 -0.932675838470459 L 10.0 -0.932675838470459 L 10.0 0.09019903838634491 L 11.0 0.09019903838634491 L 11.0 -2.0 L 12.0 -2.0 L 12.0 -0.7600533962249756 L 13.0 -0.7600533962249756 L 13.0 -2.0 L 14.0 -2.0 L 14.0 -0.38724377751350403 L 15.0 -0.38724377751350403 L 15.0 -0.6435949802398682 L 16.0 -0.6435949802398682 L 16.0 -1.56142258644104 L 17.0 -1.56142258644104 L 17.0 -1.5421602725982666 L 18.0 -1.5421602725982666 L 18.0 -2.0 L 19.0 -2.0 L 19.0 -0.8493099808692932 L 20.0 -0.8493099808692932 L 20.0 -0.7899168729782104 L 21.0 -0.7899168729782104 L 21.0 -1.4339146614074707 L 22.0 -1.4339146614074707 L 22.0 -0.7905555963516235 L 23.0 -0.7905555963516235 L 23.0 -0.19761671125888824 L 24.0 -0.19761671125888824 L 24.0 -1.7124950885772705 L 25.0 -1.7124950885772705 L 25.0 -1.2095571756362915 L 26.0 -1.2095571756362915 L 26.0 -1.1721463203430176 L 27.0 -1.1721463203430176 L 27.0 -0.965374231338501 L 28.0 -0.965374231338501 L 28.0 -2.0 L 29.0 -2.0 L 29.0 -1.546539068222046 L 30.0 -1.546539068222046 L 30.0 -1.9957436323165894 L 31.0 -1.9957436323165894 L 31.0 -2.0 L 32.0 -2.0 L 32.0 -0.7355067729949951 L 33.0 -0.7355067729949951 L 33.0 -2.0 L 34.0 -2.0 L 34.0 -2.0 L 35.0 -2.0 L 35.0 -0.25223442912101746 L 36.0 -0.25223442912101746 L 36.0 -1.3802441358566284 L 37.0 -1.3802441358566284 L 37.0 -0.17397440969944 L 38.0 -0.17397440969944 L 38.0 -0.4752040505409241 L 39.0 -0.4752040505409241 L 39.0 -1.62252676486969 L 40.0 -1.62252676486969 L 40.0 -0.2903629243373871 L 39.0 -0.2903629243373871 L 39.0 -0.2054930478334427 L 38.0 -0.2054930478334427 L 38.0 -0.07786191999912262 L 37.0 -0.07786191999912262 L 37.0 -0.33418264985084534 L 36.0 -0.33418264985084534 L 36.0 -0.10396786779165268 L 35.0 -0.10396786779165268 L 35.0 -0.4492148458957672 L 34.0 -0.4492148458957672 L 34.0 -0.9109938144683838 L 33.0 -0.9109938144683838 L 33.0 0.04643166437745094 L 32.0 0.04643166437745094 L 32.0 -1.3259254693984985 L 31.0 -1.3259254693984985 L 31.0 -0.6069554090499878 L 30.0 -0.6069554090499878 L 30.0 -0.27696019411087036 L 29.0 -0.27696019411087036 L 29.0 -1.5027556419372559 L 28.0 -1.5027556419372559 L 28.0 -0.4319126307964325 L 27.0 -0.4319126307964325 L 27.0 -0.2840370833873749 L 26.0 -0.2840370833873749 L 26.0 -0.49728164076805115 L 25.0 -0.49728164076805115 L 25.0 -0.33562779426574707 L 24.0 -0.33562779426574707 L 24.0 -0.07766236364841461 L 23.0 -0.07766236364841461 L 23.0 0.04986990615725517 L 22.0 0.04986990615725517 L 22.0 -0.6113705039024353 L 21.0 -0.6113705039024353 L 21.0 -0.24006401002407074 L 20.0 -0.24006401002407074 L 20.0 -0.1519356220960617 L 19.0 -0.1519356220960617 L 19.0 -1.3309277296066284 L 18.0 -1.3309277296066284 L 18.0 -0.6898138523101807 L 17.0 -0.6898138523101807 L 17.0 -0.3782704472541809 L 16.0 -0.3782704472541809 L 16.0 -0.2651054859161377 L 15.0 -0.2651054859161377 L 15.0 -0.07580950856208801 L 14.0 -0.07580950856208801 L 14.0 -0.921179473400116 L 13.0 -0.921179473400116 L 13.0 0.047962069511413574 L 12.0 0.047962069511413574 L 12.0 -1.1327590942382812 L 11.0 -1.1327590942382812 L 11.0 0.02742789313197136 L 10.0 0.02742789313197136 L 10.0 -0.16675616800785065 L 9.0 -0.16675616800785065 L 9.0 -0.5538964867591858 L 8.0 -0.5538964867591858 L 8.0 -0.4356996715068817 L 7.0 -0.4356996715068817 L 7.0 0.009546898305416107 L 6.0 0.009546898305416107 L 6.0 -0.7989493608474731 L 5.0 -0.7989493608474731 L 5.0 -0.0701504722237587 L 4.0 -0.0701504722237587 L 4.0 -0.3853485584259033 L 3.0 -0.3853485584259033 L 3.0 0.0017342682695016265 L 2.0 0.0017342682695016265 L 2.0 0.49277397990226746 L 1.0 0.49277397990226746 L 1.0 0.002322994638234377 L 0.0 0.002322994638234377 Z" style="vector-effect: non-scaling-stroke;" /></g></g><g style="stroke: black;stroke-width: 1.2000000000000002;" transform="matrix(1.0, 0.0, 0.0, 1.0, 0.0, 0.0)"><path d="M 0.0 0.002322994638234377 L 1.0 0.002322994638234377 L 1.0 0.49277397990226746 L 2.0 0.49277397990226746 L 2.0 0.0017342682695016265 L 3.0 0.0017342682695016265 L 3.0 -0.3853485584259033 L 4.0 -0.3853485584259033 L 4.0 -0.0701504722237587 L 5.0 -0.0701504722237587 L 5.0 -0.7989493608474731 L 6.0 -0.7989493608474731 L 6.0 0.009546898305416107 L 7.0 0.009546898305416107 L 7.0 -0.4356996715068817 L 8.0 -0.4356996715068817 L 8.0 -0.5538964867591858 L 9.0 -0.5538964867591858 L 9.0 -0.16675616800785065 L 10.0 -0.16675616800785065 L 10.0 0.02742789313197136 L 11.0 0.02742789313197136 L 11.0 -1.1327590942382812 L 12.0 -1.1327590942382812 L 12.0 0.047962069511413574 L 13.0 0.047962069511413574 L 13.0 -0.921179473400116 L 14.0 -0.921179473400116 L 14.0 -0.07580950856208801 L 15.0 -0.07580950856208801 L 15.0 -0.2651054859161377 L 16.0 -0.2651054859161377 L 16.0 -0.3782704472541809 L 17.0 -0.3782704472541809 L 17.0 -0.6898138523101807 L 18.0 -0.6898138523101807 L 18.0 -1.3309277296066284 L 19.0 -1.3309277296066284 L 19.0 -0.1519356220960617 L 20.0 -0.1519356220960617 L 20.0 -0.24006401002407074 L 21.0 -0.24006401002407074 L 21.0 -0.6113705039024353 L 22.0 -0.6113705039024353 L 22.0 0.04986990615725517 L 23.0 0.04986990615725517 L 23.0 -0.07766236364841461 L 24.0 -0.07766236364841461 L 24.0 -0.33562779426574707 L 25.0 -0.33562779426574707 L 25.0 -0.49728164076805115 L 26.0 -0.49728164076805115 L 26.0 -0.2840370833873749 L 27.0 -0.2840370833873749 L 27.0 -0.4319126307964325 L 28.0 -0.4319126307964325 L 28.0 -1.5027556419372559 L 29.0 -1.5027556419372559 L 29.0 -0.27696019411087036 L 30.0 -0.27696019411087036 L 30.0 -0.6069554090499878 L 31.0 -0.6069554090499878 L 31.0 -1.3259254693984985 L 32.0 -1.3259254693984985 L 32.0 0.04643166437745094 L 33.0 0.04643166437745094 L 33.0 -0.9109938144683838 L 34.0 -0.9109938144683838 L 34.0 -0.4492148458957672 L 35.0 -0.4492148458957672 L 35.0 -0.10396786779165268 L 36.0 -0.10396786779165268 L 36.0 -0.33418264985084534 L 37.0 -0.33418264985084534 L 37.0 -0.07786191999912262 L 38.0 -0.07786191999912262 L 38.0 -0.2054930478334427 L 39.0 -0.2054930478334427 L 39.0 -0.2903629243373871 L 40.0 -0.2903629243373871" style="vector-effect: non-scaling-stroke;fill:none;" /></g></g></g></g></g></g><g transform="matrix(1.0, 0.0, 0.0, 1.0, -0.19999999999999996, 0.16)"><g transform="matrix(1.0, 0.0, 0.0, 0.009999999999999995, 0.0, 0.0)"><g transform="matrix(0.01, 0.0, 0.0, 1.0, 0.0, 0.0)"><g><g><g style="fill: #ff8c00;stroke: #ff8c00;stroke-width: 1.2000000000000002;fill-opacity: 0.5;" transform="matrix(1.0, 0.0, 0.0, 1.0, 0.0, 0.0)"><path d="M 0.0 -2.0 L 0.0 2.0" style="vector-effect: non-scaling-stroke;fill:none;" /></g><g style="fill: #ff8c00;stroke: #ff8c00;stroke-width: 1.2000000000000002;fill-opacity: 0.5;" transform="matrix(1.0, 0.0, 0.0, 1.0, 0.0, 0.0)"><path d="M 0.0 0.002322994638234377 L 1.0 0.002322994638234377 L 1.0 0.49277397990226746 L 2.0 0.49277397990226746 L 2.0 0.0017342682695016265 L 3.0 0.0017342682695016265 L 3.0 -0.3853485584259033 L 4.0 -0.3853485584259033 L 4.0 -0.0701504722237587 L 5.0 -0.0701504722237587 L 5.0 -0.7989493608474731 L 6.0 -0.7989493608474731 L 6.0 0.009546898305416107 L 7.0 0.009546898305416107 L 7.0 -0.4356996715068817 L 8.0 -0.4356996715068817 L 8.0 -0.5538964867591858 L 9.0 -0.5538964867591858 L 9.0 -0.16675616800785065 L 10.0 -0.16675616800785065 L 10.0 0.02742789313197136 L 11.0 0.02742789313197136 L 11.0 -1.1327590942382812 L 12.0 -1.1327590942382812 L 12.0 0.047962069511413574 L 13.0 0.047962069511413574 L 13.0 -0.921179473400116 L 14.0 -0.921179473400116 L 14.0 -0.07580950856208801 L 15.0 -0.07580950856208801 L 15.0 -0.2651054859161377 L 16.0 -0.2651054859161377 L 16.0 -0.3782704472541809 L 17.0 -0.3782704472541809 L 17.0 -0.6898138523101807 L 18.0 -0.6898138523101807 L 18.0 -1.3309277296066284 L 19.0 -1.3309277296066284 L 19.0 -0.1519356220960617 L 20.0 -0.1519356220960617 L 20.0 -0.24006401002407074 L 21.0 -0.24006401002407074 L 21.0 -0.6113705039024353 L 22.0 -0.6113705039024353 L 22.0 0.04986990615725517 L 23.0 0.04986990615725517 L 23.0 -0.07766236364841461 L 24.0 -0.07766236364841461 L 24.0 -0.33562779426574707 L 25.0 -0.33562779426574707 L 25.0 -0.49728164076805115 L 26.0 -0.49728164076805115 L 26.0 -0.2840370833873749 L 27.0 -0.2840370833873749 L 27.0 -0.4319126307964325 L 28.0 -0.4319126307964325 L 28.0 -1.5027556419372559 L 29.0 -1.5027556419372559 L 29.0 -0.27696019411087036 L 30.0 -0.27696019411087036 L 30.0 -0.6069554090499878 L 31.0 -0.6069554090499878 L 31.0 -1.3259254693984985 L 32.0 -1.3259254693984985 L 32.0 0.04643166437745094 L 33.0 0.04643166437745094 L 33.0 -0.9109938144683838 L 34.0 -0.9109938144683838 L 34.0 -0.4492148458957672 L 35.0 -0.4492148458957672 L 35.0 -0.10396786779165268 L 36.0 -0.10396786779165268 L 36.0 -0.33418264985084534 L 37.0 -0.33418264985084534 L 37.0 -0.07786191999912262 L 38.0 -0.07786191999912262 L 38.0 -0.2054930478334427 L 39.0 -0.2054930478334427 L 39.0 -0.2903629243373871 L 40.0 -0.2903629243373871 L 40.0 -0.2903629243373871 L 39.0 -0.2903629243373871 L 39.0 -0.2054930478334427 L 38.0 -0.2054930478334427 L 38.0 -0.07786191999912262 L 37.0 -0.07786191999912262 L 37.0 -0.33418264985084534 L 36.0 -0.33418264985084534 L 36.0 -0.10396786779165268 L 35.0 -0.10396786779165268 L 35.0 -0.4492148458957672 L 34.0 -0.4492148458957672 L 34.0 -0.9109938144683838 L 33.0 -0.9109938144683838 L 33.0 0.04643166437745094 L 32.0 0.04643166437745094 L 32.0 -1.3259254693984985 L 31.0 -1.3259254693984985 L 31.0 -0.6069554090499878 L 30.0 -0.6069554090499878 L 30.0 -0.27696019411087036 L 29.0 -0.27696019411087036 L 29.0 -1.5027556419372559 L 28.0 -1.5027556419372559 L 28.0 -0.4319126307964325 L 27.0 -0.4319126307964325 L 27.0 -0.2840370833873749 L 26.0 -0.2840370833873749 L 26.0 -0.49728164076805115 L 25.0 -0.49728164076805115 L 25.0 -0.33562779426574707 L 24.0 -0.33562779426574707 L 24.0 -0.07766236364841461 L 23.0 -0.07766236364841461 L 23.0 0.04986990615725517 L 22.0 0.04986990615725517 L 22.0 -0.6113705039024353 L 21.0 -0.6113705039024353 L 21.0 -0.24006401002407074 L 20.0 -0.24006401002407074 L 20.0 -0.1519356220960617 L 19.0 -0.1519356220960617 L 19.0 -1.3309277296066284 L 18.0 -1.3309277296066284 L 18.0 -0.6898138523101807 L 17.0 -0.6898138523101807 L 17.0 -0.3782704472541809 L 16.0 -0.3782704472541809 L 16.0 -0.2651054859161377 L 15.0 -0.2651054859161377 L 15.0 -0.07580950856208801 L 14.0 -0.07580950856208801 L 14.0 -0.921179473400116 L 13.0 -0.921179473400116 L 13.0 0.047962069511413574 L 12.0 0.047962069511413574 L 12.0 -1.1327590942382812 L 11.0 -1.1327590942382812 L 11.0 0.02742789313197136 L 10.0 0.02742789313197136 L 10.0 -0.16675616800785065 L 9.0 -0.16675616800785065 L 9.0 -0.5538964867591858 L 8.0 -0.5538964867591858 L 8.0 -0.4356996715068817 L 7.0 -0.4356996715068817 L 7.0 0.009546898305416107 L 6.0 0.009546898305416107 L 6.0 -0.7989493608474731 L 5.0 -0.7989493608474731 L 5.0 -0.0701504722237587 L 4.0 -0.0701504722237587 L 4.0 -0.3853485584259033 L 3.0 -0.3853485584259033 L 3.0 0.0017342682695016265 L 2.0 0.0017342682695016265 L 2.0 0.49277397990226746 L 1.0 0.49277397990226746 L 1.0 0.002322994638234377 L 0.0 0.002322994638234377 Z" style="vector-effect: non-scaling-stroke;" /></g></g><g style="stroke: black;stroke-width: 1.2000000000000002;" transform="matrix(1.0, 0.0, 0.0, 1.0, 0.0, 0.0)"><path d="M 0.0 0.002322994638234377 L 1.0 0.002322994638234377 L 1.0 0.49277397990226746 L 2.0 0.49277397990226746 L 2.0 0.0017342682695016265 L 3.0 0.0017342682695016265 L 3.0 -0.3853485584259033 L 4.0 -0.3853485584259033 L 4.0 -0.0701504722237587 L 5.0 -0.0701504722237587 L 5.0 -0.7989493608474731 L 6.0 -0.7989493608474731 L 6.0 0.009546898305416107 L 7.0 0.009546898305416107 L 7.0 -0.4356996715068817 L 8.0 -0.4356996715068817 L 8.0 -0.5538964867591858 L 9.0 -0.5538964867591858 L 9.0 -0.16675616800785065 L 10.0 -0.16675616800785065 L 10.0 0.02742789313197136 L 11.0 0.02742789313197136 L 11.0 -1.1327590942382812 L 12.0 -1.1327590942382812 L 12.0 0.047962069511413574 L 13.0 0.047962069511413574 L 13.0 -0.921179473400116 L 14.0 -0.921179473400116 L 14.0 -0.07580950856208801 L 15.0 -0.07580950856208801 L 15.0 -0.2651054859161377 L 16.0 -0.2651054859161377 L 16.0 -0.3782704472541809 L 17.0 -0.3782704472541809 L 17.0 -0.6898138523101807 L 18.0 -0.6898138523101807 L 18.0 -1.3309277296066284 L 19.0 -1.3309277296066284 L 19.0 -0.1519356220960617 L 20.0 -0.1519356220960617 L 20.0 -0.24006401002407074 L 21.0 -0.24006401002407074 L 21.0 -0.6113705039024353 L 22.0 -0.6113705039024353 L 22.0 0.04986990615725517 L 23.0 0.04986990615725517 L 23.0 -0.07766236364841461 L 24.0 -0.07766236364841461 L 24.0 -0.33562779426574707 L 25.0 -0.33562779426574707 L 25.0 -0.49728164076805115 L 26.0 -0.49728164076805115 L 26.0 -0.2840370833873749 L 27.0 -0.2840370833873749 L 27.0 -0.4319126307964325 L 28.0 -0.4319126307964325 L 28.0 -1.5027556419372559 L 29.0 -1.5027556419372559 L 29.0 -0.27696019411087036 L 30.0 -0.27696019411087036 L 30.0 -0.6069554090499878 L 31.0 -0.6069554090499878 L 31.0 -1.3259254693984985 L 32.0 -1.3259254693984985 L 32.0 0.04643166437745094 L 33.0 0.04643166437745094 L 33.0 -0.9109938144683838 L 34.0 -0.9109938144683838 L 34.0 -0.4492148458957672 L 35.0 -0.4492148458957672 L 35.0 -0.10396786779165268 L 36.0 -0.10396786779165268 L 36.0 -0.33418264985084534 L 37.0 -0.33418264985084534 L 37.0 -0.07786191999912262 L 38.0 -0.07786191999912262 L 38.0 -0.2054930478334427 L 39.0 -0.2054930478334427 L 39.0 -0.2903629243373871 L 40.0 -0.2903629243373871" style="vector-effect: non-scaling-stroke;fill:none;" /></g></g></g></g></g></g><g transform="matrix(1.0, 0.0, 0.0, 1.0, -0.19999999999999996, 0.16)"><g transform="matrix(1.0, 0.0, 0.0, 0.009999999999999995, 0.0, 0.0)"><g transform="matrix(0.01, 0.0, 0.0, 1.0, 0.0, 0.0)"><g><g><g style="fill: #0000ff;stroke: #0000ff;stroke-width: 1.2000000000000002;fill-opacity: 0.5;" transform="matrix(1.0, 0.0, 0.0, 1.0, 0.0, 0.0)"><path d="M 0.0 -2.0 L 0.0 2.0" style="vector-effect: non-scaling-stroke;fill:none;" /></g><g style="fill: #0000ff;stroke: #0000ff;stroke-width: 1.2000000000000002;fill-opacity: 0.5;" transform="matrix(1.0, 0.0, 0.0, 1.0, 0.0, 0.0)"><path d="M 0.0 0.002322994638234377 L 1.0 0.002322994638234377 L 1.0 0.49277397990226746 L 2.0 0.49277397990226746 L 2.0 0.0017342682695016265 L 3.0 0.0017342682695016265 L 3.0 -0.3853485584259033 L 4.0 -0.3853485584259033 L 4.0 -0.0701504722237587 L 5.0 -0.0701504722237587 L 5.0 -0.7989493608474731 L 6.0 -0.7989493608474731 L 6.0 0.009546898305416107 L 7.0 0.009546898305416107 L 7.0 -0.4356996715068817 L 8.0 -0.4356996715068817 L 8.0 -0.5538964867591858 L 9.0 -0.5538964867591858 L 9.0 -0.16675616800785065 L 10.0 -0.16675616800785065 L 10.0 0.02742789313197136 L 11.0 0.02742789313197136 L 11.0 -1.1327590942382812 L 12.0 -1.1327590942382812 L 12.0 0.047962069511413574 L 13.0 0.047962069511413574 L 13.0 -0.921179473400116 L 14.0 -0.921179473400116 L 14.0 -0.07580950856208801 L 15.0 -0.07580950856208801 L 15.0 -0.2651054859161377 L 16.0 -0.2651054859161377 L 16.0 -0.3782704472541809 L 17.0 -0.3782704472541809 L 17.0 -0.6898138523101807 L 18.0 -0.6898138523101807 L 18.0 -1.3309277296066284 L 19.0 -1.3309277296066284 L 19.0 -0.1519356220960617 L 20.0 -0.1519356220960617 L 20.0 -0.24006401002407074 L 21.0 -0.24006401002407074 L 21.0 -0.6113705039024353 L 22.0 -0.6113705039024353 L 22.0 0.04986990615725517 L 23.0 0.04986990615725517 L 23.0 -0.07766236364841461 L 24.0 -0.07766236364841461 L 24.0 -0.33562779426574707 L 25.0 -0.33562779426574707 L 25.0 -0.49728164076805115 L 26.0 -0.49728164076805115 L 26.0 -0.2840370833873749 L 27.0 -0.2840370833873749 L 27.0 -0.4319126307964325 L 28.0 -0.4319126307964325 L 28.0 -1.5027556419372559 L 29.0 -1.5027556419372559 L 29.0 -0.27696019411087036 L 30.0 -0.27696019411087036 L 30.0 -0.6069554090499878 L 31.0 -0.6069554090499878 L 31.0 -1.3259254693984985 L 32.0 -1.3259254693984985 L 32.0 0.04643166437745094 L 33.0 0.04643166437745094 L 33.0 -0.9109938144683838 L 34.0 -0.9109938144683838 L 34.0 -0.4492148458957672 L 35.0 -0.4492148458957672 L 35.0 -0.10396786779165268 L 36.0 -0.10396786779165268 L 36.0 -0.33418264985084534 L 37.0 -0.33418264985084534 L 37.0 -0.07786191999912262 L 38.0 -0.07786191999912262 L 38.0 -0.2054930478334427 L 39.0 -0.2054930478334427 L 39.0 -0.2903629243373871 L 40.0 -0.2903629243373871 L 40.0 -0.2903629243373871 L 39.0 -0.2903629243373871 L 39.0 -0.2054930478334427 L 38.0 -0.2054930478334427 L 38.0 -0.07786191999912262 L 37.0 -0.07786191999912262 L 37.0 -0.33418264985084534 L 36.0 -0.33418264985084534 L 36.0 -0.10396786779165268 L 35.0 -0.10396786779165268 L 35.0 -0.4492148458957672 L 34.0 -0.4492148458957672 L 34.0 -0.9109938144683838 L 33.0 -0.9109938144683838 L 33.0 0.04643166437745094 L 32.0 0.04643166437745094 L 32.0 -1.3259254693984985 L 31.0 -1.3259254693984985 L 31.0 -0.6069554090499878 L 30.0 -0.6069554090499878 L 30.0 -0.27696019411087036 L 29.0 -0.27696019411087036 L 29.0 -1.5027556419372559 L 28.0 -1.5027556419372559 L 28.0 -0.4319126307964325 L 27.0 -0.4319126307964325 L 27.0 -0.2840370833873749 L 26.0 -0.2840370833873749 L 26.0 -0.49728164076805115 L 25.0 -0.49728164076805115 L 25.0 -0.33562779426574707 L 24.0 -0.33562779426574707 L 24.0 -0.07766236364841461 L 23.0 -0.07766236364841461 L 23.0 0.04986990615725517 L 22.0 0.04986990615725517 L 22.0 -0.6113705039024353 L 21.0 -0.6113705039024353 L 21.0 -0.24006401002407074 L 20.0 -0.24006401002407074 L 20.0 -0.1519356220960617 L 19.0 -0.1519356220960617 L 19.0 -1.3309277296066284 L 18.0 -1.3309277296066284 L 18.0 -0.6898138523101807 L 17.0 -0.6898138523101807 L 17.0 -0.3782704472541809 L 16.0 -0.3782704472541809 L 16.0 -0.2651054859161377 L 15.0 -0.2651054859161377 L 15.0 -0.07580950856208801 L 14.0 -0.07580950856208801 L 14.0 -0.921179473400116 L 13.0 -0.921179473400116 L 13.0 0.047962069511413574 L 12.0 0.047962069511413574 L 12.0 -1.1327590942382812 L 11.0 -1.1327590942382812 L 11.0 0.02742789313197136 L 10.0 0.02742789313197136 L 10.0 -0.16675616800785065 L 9.0 -0.16675616800785065 L 9.0 -0.5538964867591858 L 8.0 -0.5538964867591858 L 8.0 -0.4356996715068817 L 7.0 -0.4356996715068817 L 7.0 0.009546898305416107 L 6.0 0.009546898305416107 L 6.0 -0.7989493608474731 L 5.0 -0.7989493608474731 L 5.0 -0.0701504722237587 L 4.0 -0.0701504722237587 L 4.0 -0.3853485584259033 L 3.0 -0.3853485584259033 L 3.0 0.0017342682695016265 L 2.0 0.0017342682695016265 L 2.0 0.49277397990226746 L 1.0 0.49277397990226746 L 1.0 0.002322994638234377 L 0.0 0.002322994638234377 Z" style="vector-effect: non-scaling-stroke;" /></g></g><g style="stroke: black;stroke-width: 1.2000000000000002;" transform="matrix(1.0, 0.0, 0.0, 1.0, 0.0, 0.0)"><path d="M 0.0 0.002322994638234377 L 1.0 0.002322994638234377 L 1.0 0.49277397990226746 L 2.0 0.49277397990226746 L 2.0 0.0017342682695016265 L 3.0 0.0017342682695016265 L 3.0 -0.3853485584259033 L 4.0 -0.3853485584259033 L 4.0 -0.0701504722237587 L 5.0 -0.0701504722237587 L 5.0 -0.7989493608474731 L 6.0 -0.7989493608474731 L 6.0 0.009546898305416107 L 7.0 0.009546898305416107 L 7.0 -0.4356996715068817 L 8.0 -0.4356996715068817 L 8.0 -0.5538964867591858 L 9.0 -0.5538964867591858 L 9.0 -0.16675616800785065 L 10.0 -0.16675616800785065 L 10.0 0.02742789313197136 L 11.0 0.02742789313197136 L 11.0 -1.1327590942382812 L 12.0 -1.1327590942382812 L 12.0 0.047962069511413574 L 13.0 0.047962069511413574 L 13.0 -0.921179473400116 L 14.0 -0.921179473400116 L 14.0 -0.07580950856208801 L 15.0 -0.07580950856208801 L 15.0 -0.2651054859161377 L 16.0 -0.2651054859161377 L 16.0 -0.3782704472541809 L 17.0 -0.3782704472541809 L 17.0 -0.6898138523101807 L 18.0 -0.6898138523101807 L 18.0 -1.3309277296066284 L 19.0 -1.3309277296066284 L 19.0 -0.1519356220960617 L 20.0 -0.1519356220960617 L 20.0 -0.24006401002407074 L 21.0 -0.24006401002407074 L 21.0 -0.6113705039024353 L 22.0 -0.6113705039024353 L 22.0 0.04986990615725517 L 23.0 0.04986990615725517 L 23.0 -0.07766236364841461 L 24.0 -0.07766236364841461 L 24.0 -0.33562779426574707 L 25.0 -0.33562779426574707 L 25.0 -0.49728164076805115 L 26.0 -0.49728164076805115 L 26.0 -0.2840370833873749 L 27.0 -0.2840370833873749 L 27.0 -0.4319126307964325 L 28.0 -0.4319126307964325 L 28.0 -1.5027556419372559 L 29.0 -1.5027556419372559 L 29.0 -0.27696019411087036 L 30.0 -0.27696019411087036 L 30.0 -0.6069554090499878 L 31.0 -0.6069554090499878 L 31.0 -1.3259254693984985 L 32.0 -1.3259254693984985 L 32.0 0.04643166437745094 L 33.0 0.04643166437745094 L 33.0 -0.9109938144683838 L 34.0 -0.9109938144683838 L 34.0 -0.4492148458957672 L 35.0 -0.4492148458957672 L 35.0 -0.10396786779165268 L 36.0 -0.10396786779165268 L 36.0 -0.33418264985084534 L 37.0 -0.33418264985084534 L 37.0 -0.07786191999912262 L 38.0 -0.07786191999912262 L 38.0 -0.2054930478334427 L 39.0 -0.2054930478334427 L 39.0 -0.2903629243373871 L 40.0 -0.2903629243373871" style="vector-effect: non-scaling-stroke;fill:none;" /></g></g></g></g></g></g></g></g><g><g><g><g><g><g><g transform="matrix(1.0, 0.0, 0.0, 1.0, -0.4149999999999999, -0.03)"><g><g><g transform="matrix(1.0, 0.0, 0.0, 1.0, 0.075, 0.0)"><g transform="matrix(1.0, 0.0, 0.0, 1.0, 0.0, 0.03)"><g transform="matrix(0.01, 0.0, 0.0, 0.01, 0.0, 0.0)"><g><g><g transform="matrix(1.0, 0.0, 0.0, 1.0, 20.0, 0.0)"><g transform="matrix(1.0, 0.0, 0.0, 1.0, -27.5, -0.0)"><g><g style="fill: #d3d3d3;stroke: black;stroke-width: 1.2000000000000002;" transform="matrix(1.0, 0.0, 0.0, 1.0, 0.0, -3.0)"><path d="M 0.0 0.0 L 55.0 0.0 L 55.0 6.0 L 0.0 6.0 L 0.0 0.0 Z" style="vector-effect: non-scaling-stroke;" /></g><g transform="matrix(1.0, 0.0, 0.0, 1.0, 1.875, 0.0)"><g><g style="stroke: black;stroke-width: 1.2000000000000002;" transform="matrix(1.0, 0.0, 0.0, 1.0, 0.0, 0.0)"><g /></g><g style="fill: #ffa500;stroke: black;stroke-width: 1.2000000000000002;" transform="matrix(1.0, 0.0, 0.0, 1.0, 1.875, 0.0)"><text style="text-align:center; text-anchor:middle; dominant-baseline:middle;&#10;                      font-family:sans-serif; font-weight: bold;&#10;                      font-size:3px;&#10;                      vector-effect: non-scaling-stroke;" transform="translate(-5e-05, 0)">x</text></g></g></g></g></g></g><g><g><g><g><g><g><g><g style="stroke: black;stroke-width: 1.2000000000000002;" transform="matrix(1.0, 0.0, 0.0, 1.0, 0.0, 0.0)"><path d="M 0.0 -2.0 L 0.0 2.0" style="vector-effect: non-scaling-stroke;fill:none;" /></g><g style="stroke: #808080;stroke-width: 0.6000000000000001;" transform="matrix(1.0, 0.0, 0.0, 1.0, 0.0, 0.0)"><path d="M 0.0 0.0 L 40.0 0.0" style="vector-effect: non-scaling-stroke;fill:none;" /></g></g><g style="stroke: black;stroke-width: 2.4000000000000004;" transform="matrix(1.0, 0.0, 0.0, 1.0, 0.0, 0.0)"><path d="M 0.0 0.005311056971549988 L 1.0 0.005311056971549988 L 1.0 0.6617961525917053 L 2.0 0.6617961525917053 L 2.0 -0.029221951961517334 L 3.0 -0.029221951961517334 L 3.0 -0.5955145359039307 L 4.0 -0.5955145359039307 L 4.0 -0.28756967186927795 L 5.0 -0.28756967186927795 L 5.0 -1.1414746046066284 L 6.0 -1.1414746046066284 L 6.0 0.029801758006215096 L 7.0 0.029801758006215096 L 7.0 -0.5384460091590881 L 8.0 -0.5384460091590881 L 8.0 -0.7264551520347595 L 9.0 -0.7264551520347595 L 9.0 -0.7654497623443604 L 10.0 -0.7654497623443604 L 10.0 0.06270832568407059 L 11.0 0.06270832568407059 L 11.0 -1.5212970972061157 L 12.0 -1.5212970972061157 L 12.0 -0.8081479072570801 L 13.0 -0.8081479072570801 L 13.0 -1.4235832691192627 L 14.0 -1.4235832691192627 L 14.0 -0.31076791882514954 L 15.0 -0.31076791882514954 L 15.0 -0.3787614107131958 L 16.0 -0.3787614107131958 L 16.0 -1.1808154582977295 L 17.0 -1.1808154582977295 L 17.0 -0.852485179901123 L 18.0 -0.852485179901123 L 18.0 -1.745559573173523 L 19.0 -1.745559573173523 L 19.0 -0.6974199414253235 L 20.0 -0.6974199414253235 L 20.0 -0.5488577485084534 L 21.0 -0.5488577485084534 L 21.0 -0.821071445941925 L 22.0 -0.821071445941925 L 22.0 -0.8402944207191467 L 23.0 -0.8402944207191467 L 23.0 -0.12001878023147583 L 24.0 -0.12001878023147583 L 24.0 -1.3758478164672852 L 25.0 -1.3758478164672852 L 25.0 -0.7104760408401489 L 26.0 -0.7104760408401489 L 26.0 -0.8866549730300903 L 27.0 -0.8866549730300903 L 27.0 -0.5337659120559692 L 28.0 -0.5337659120559692 L 28.0 -1.97091805934906 L 29.0 -1.97091805934906 L 29.0 -1.27131187915802 L 30.0 -1.27131187915802 L 30.0 -1.3876806497573853 L 31.0 -1.3876806497573853 L 31.0 -1.7807198762893677 L 32.0 -1.7807198762893677 L 32.0 -0.7823610305786133 L 33.0 -0.7823610305786133 L 33.0 -1.4078423976898193 L 34.0 -1.4078423976898193 L 34.0 -1.8414782285690308 L 35.0 -1.8414782285690308 L 35.0 -0.1485409289598465 L 36.0 -0.1485409289598465 L 36.0 -1.0431902408599854 L 37.0 -1.0431902408599854 L 37.0 -0.09622325748205185 L 38.0 -0.09622325748205185 L 38.0 -0.26951152086257935 L 39.0 -0.26951152086257935 L 39.0 -1.3328336477279663 L 40.0 -1.3328336477279663" style="vector-effect: non-scaling-stroke;fill:none;" /></g></g><g style="stroke: black;stroke-width: 1.2000000000000002;" transform="matrix(1.0, 0.0, 0.0, 1.0, 0.0, 0.0)"><path d="M 0.0 -2.0 L 0.0 2.0" style="vector-effect: non-scaling-stroke;fill:none;" /></g></g><g style="stroke: black;stroke-width: 1.2000000000000002;" transform="matrix(1.0, 0.0, 0.0, 1.0, 0.0, 0.0)"><path d="M 10.0 -2.0 L 10.0 2.0" style="vector-effect: non-scaling-stroke;fill:none;" /></g></g><g style="stroke: black;stroke-width: 1.2000000000000002;" transform="matrix(1.0, 0.0, 0.0, 1.0, 0.0, 0.0)"><path d="M 20.0 -2.0 L 20.0 2.0" style="vector-effect: non-scaling-stroke;fill:none;" /></g></g><g style="stroke: black;stroke-width: 1.2000000000000002;" transform="matrix(1.0, 0.0, 0.0, 1.0, 0.0, 0.0)"><path d="M 30.0 -2.0 L 30.0 2.0" style="vector-effect: non-scaling-stroke;fill:none;" /></g></g></g></g><g><g><g><g><g><g><g><g style="stroke: black;stroke-width: 1.2000000000000002;" transform="matrix(1.0, 0.0, 0.0, 1.0, 0.0, 0.0)"><path d="M 0.0 -2.0 L 0.0 2.0" style="vector-effect: non-scaling-stroke;fill:none;" /></g><g style="stroke: #808080;stroke-width: 0.6000000000000001;" transform="matrix(1.0, 0.0, 0.0, 1.0, 0.0, 0.0)"><path d="M 0.0 0.0 L 40.0 0.0" style="vector-effect: non-scaling-stroke;fill:none;" /></g></g><g style="stroke: black;stroke-width: 2.4000000000000004;" transform="matrix(1.0, 0.0, 0.0, 1.0, 0.0, 0.0)"><path d="M 0.0 0.005311056971549988 L 1.0 0.005311056971549988 L 1.0 0.6617961525917053 L 2.0 0.6617961525917053 L 2.0 -0.029221951961517334 L 3.0 -0.029221951961517334 L 3.0 -0.5955145359039307 L 4.0 -0.5955145359039307 L 4.0 -0.28756967186927795 L 5.0 -0.28756967186927795 L 5.0 -1.1414746046066284 L 6.0 -1.1414746046066284 L 6.0 0.029801758006215096 L 7.0 0.029801758006215096 L 7.0 -0.5384460091590881 L 8.0 -0.5384460091590881 L 8.0 -0.7264551520347595 L 9.0 -0.7264551520347595 L 9.0 -0.7654497623443604 L 10.0 -0.7654497623443604 L 10.0 0.06270832568407059 L 11.0 0.06270832568407059 L 11.0 -1.5212970972061157 L 12.0 -1.5212970972061157 L 12.0 -0.8081479072570801 L 13.0 -0.8081479072570801 L 13.0 -1.4235832691192627 L 14.0 -1.4235832691192627 L 14.0 -0.31076791882514954 L 15.0 -0.31076791882514954 L 15.0 -0.3787614107131958 L 16.0 -0.3787614107131958 L 16.0 -1.1808154582977295 L 17.0 -1.1808154582977295 L 17.0 -0.852485179901123 L 18.0 -0.852485179901123 L 18.0 -1.745559573173523 L 19.0 -1.745559573173523 L 19.0 -0.6974199414253235 L 20.0 -0.6974199414253235 L 20.0 -0.5488577485084534 L 21.0 -0.5488577485084534 L 21.0 -0.821071445941925 L 22.0 -0.821071445941925 L 22.0 -0.8402944207191467 L 23.0 -0.8402944207191467 L 23.0 -0.12001878023147583 L 24.0 -0.12001878023147583 L 24.0 -1.3758478164672852 L 25.0 -1.3758478164672852 L 25.0 -0.7104760408401489 L 26.0 -0.7104760408401489 L 26.0 -0.8866549730300903 L 27.0 -0.8866549730300903 L 27.0 -0.5337659120559692 L 28.0 -0.5337659120559692 L 28.0 -1.97091805934906 L 29.0 -1.97091805934906 L 29.0 -1.27131187915802 L 30.0 -1.27131187915802 L 30.0 -1.3876806497573853 L 31.0 -1.3876806497573853 L 31.0 -1.7807198762893677 L 32.0 -1.7807198762893677 L 32.0 -0.7823610305786133 L 33.0 -0.7823610305786133 L 33.0 -1.4078423976898193 L 34.0 -1.4078423976898193 L 34.0 -1.8414782285690308 L 35.0 -1.8414782285690308 L 35.0 -0.1485409289598465 L 36.0 -0.1485409289598465 L 36.0 -1.0431902408599854 L 37.0 -1.0431902408599854 L 37.0 -0.09622325748205185 L 38.0 -0.09622325748205185 L 38.0 -0.26951152086257935 L 39.0 -0.26951152086257935 L 39.0 -1.3328336477279663 L 40.0 -1.3328336477279663" style="vector-effect: non-scaling-stroke;fill:none;" /></g></g><g style="stroke: black;stroke-width: 1.2000000000000002;" transform="matrix(1.0, 0.0, 0.0, 1.0, 0.0, 0.0)"><path d="M 0.0 -2.0 L 0.0 2.0" style="vector-effect: non-scaling-stroke;fill:none;" /></g></g><g style="stroke: black;stroke-width: 1.2000000000000002;" transform="matrix(1.0, 0.0, 0.0, 1.0, 0.0, 0.0)"><path d="M 10.0 -2.0 L 10.0 2.0" style="vector-effect: non-scaling-stroke;fill:none;" /></g></g><g style="stroke: black;stroke-width: 1.2000000000000002;" transform="matrix(1.0, 0.0, 0.0, 1.0, 0.0, 0.0)"><path d="M 20.0 -2.0 L 20.0 2.0" style="vector-effect: non-scaling-stroke;fill:none;" /></g></g><g style="stroke: black;stroke-width: 1.2000000000000002;" transform="matrix(1.0, 0.0, 0.0, 1.0, 0.0, 0.0)"><path d="M 30.0 -2.0 L 30.0 2.0" style="vector-effect: non-scaling-stroke;fill:none;" /></g></g></g></g></g></g></g><g style="stroke: black;stroke-width: 1.2000000000000002;" transform="matrix(1.0, 0.0, 0.0, 1.0, 0.565, 0.0)"><g /></g></g><g transform="matrix(1.0, 0.0, 0.0, 1.0, 0.58, 0.0)"><g transform="matrix(1.0, 0.0, 0.0, 1.0, 0.075, 0.0)"><g transform="matrix(1.0, 0.0, 0.0, 1.0, 0.0, 0.03)"><g transform="matrix(0.01, 0.0, 0.0, 0.01, 0.0, 0.0)"><g><g><g transform="matrix(1.0, 0.0, 0.0, 1.0, 5.0, 0.0)"><g transform="matrix(1.0, 0.0, 0.0, 1.0, -12.5, -0.0)"><g><g style="fill: #d3d3d3;stroke: black;stroke-width: 1.2000000000000002;" transform="matrix(1.0, 0.0, 0.0, 1.0, 0.0, -3.0)"><path d="M 0.0 0.0 L 25.0 0.0 L 25.0 6.0 L 0.0 6.0 L 0.0 0.0 Z" style="vector-effect: non-scaling-stroke;" /></g><g transform="matrix(1.0, 0.0, 0.0, 1.0, 1.875, 0.0)"><g><g style="stroke: black;stroke-width: 1.2000000000000002;" transform="matrix(1.0, 0.0, 0.0, 1.0, 0.0, 0.0)"><g /></g><g style="fill: #ffa500;stroke: black;stroke-width: 1.2000000000000002;" transform="matrix(1.0, 0.0, 0.0, 1.0, 1.875, 0.0)"><text style="text-align:center; text-anchor:middle; dominant-baseline:middle;&#10;                      font-family:sans-serif; font-weight: bold;&#10;                      font-size:3px;&#10;                      vector-effect: non-scaling-stroke;" transform="translate(-5e-05, 0)">y</text></g></g></g></g></g></g><g><g><g><g style="stroke: black;stroke-width: 1.2000000000000002;" transform="matrix(1.0, 0.0, 0.0, 1.0, 0.0, 0.0)"><path d="M 0.0 -2.0 L 0.0 2.0" style="vector-effect: non-scaling-stroke;fill:none;" /></g><g style="stroke: #808080;stroke-width: 0.6000000000000001;" transform="matrix(1.0, 0.0, 0.0, 1.0, 0.0, 0.0)"><path d="M 0.0 0.0 L 10.0 0.0" style="vector-effect: non-scaling-stroke;fill:none;" /></g></g><g style="stroke: black;stroke-width: 2.4000000000000004;" transform="matrix(1.0, 0.0, 0.0, 1.0, 0.0, 0.0)"><path d="M 0.0 -0.8747767806053162 L 1.0 -0.8747767806053162 L 1.0 -1.4892016649246216 L 2.0 -1.4892016649246216 L 2.0 0.11869626492261887 L 3.0 0.11869626492261887 L 3.0 -1.2941701412200928 L 4.0 -1.2941701412200928 L 4.0 -0.487885057926178 L 5.0 -0.487885057926178 L 5.0 -1.3998547792434692 L 6.0 -1.3998547792434692 L 6.0 -0.6406936049461365 L 7.0 -0.6406936049461365 L 7.0 -1.6183596849441528 L 8.0 -1.6183596849441528 L 8.0 -1.5249296426773071 L 9.0 -1.5249296426773071 L 9.0 -0.435707688331604 L 10.0 -0.435707688331604" style="vector-effect: non-scaling-stroke;fill:none;" /></g></g></g></g><g><g><g><g style="stroke: black;stroke-width: 1.2000000000000002;" transform="matrix(1.0, 0.0, 0.0, 1.0, 0.0, 0.0)"><path d="M 0.0 -2.0 L 0.0 2.0" style="vector-effect: non-scaling-stroke;fill:none;" /></g><g style="stroke: #808080;stroke-width: 0.6000000000000001;" transform="matrix(1.0, 0.0, 0.0, 1.0, 0.0, 0.0)"><path d="M 0.0 0.0 L 10.0 0.0" style="vector-effect: non-scaling-stroke;fill:none;" /></g></g><g style="stroke: black;stroke-width: 2.4000000000000004;" transform="matrix(1.0, 0.0, 0.0, 1.0, 0.0, 0.0)"><path d="M 0.0 -0.8747767806053162 L 1.0 -0.8747767806053162 L 1.0 -1.4892016649246216 L 2.0 -1.4892016649246216 L 2.0 0.11869626492261887 L 3.0 0.11869626492261887 L 3.0 -1.2941701412200928 L 4.0 -1.2941701412200928 L 4.0 -0.487885057926178 L 5.0 -0.487885057926178 L 5.0 -1.3998547792434692 L 6.0 -1.3998547792434692 L 6.0 -0.6406936049461365 L 7.0 -0.6406936049461365 L 7.0 -1.6183596849441528 L 8.0 -1.6183596849441528 L 8.0 -1.5249296426773071 L 9.0 -1.5249296426773071 L 9.0 -0.435707688331604 L 10.0 -0.435707688331604" style="vector-effect: non-scaling-stroke;fill:none;" /></g></g></g></g></g></g></g></g></g></g><g style="stroke: black;stroke-width: 1.2000000000000002;" transform="matrix(0.0, -1.0, 1.0, 0.0, 0.0, 0.08)"><g /></g></g><g transform="matrix(1.0, 0.0, 0.0, 1.0, 0.0, 0.16)"><g transform="matrix(1.0, 0.0, 0.0, 1.0, -0.27499999999999997, -0.03)"><g transform="matrix(1.0, 0.0, 0.0, 1.0, 0.075, 0.0)"><g transform="matrix(1.0, 0.0, 0.0, 1.0, 0.0, 0.03)"><g transform="matrix(0.01, 0.0, 0.0, 0.01, 0.0, 0.0)"><g><g><g transform="matrix(1.0, 0.0, 0.0, 1.0, 20.0, 0.0)"><g transform="matrix(1.0, 0.0, 0.0, 1.0, -27.5, -0.0)"><g><g style="fill: #d3d3d3;stroke: black;stroke-width: 1.2000000000000002;" transform="matrix(1.0, 0.0, 0.0, 1.0, 0.0, -3.0)"><path d="M 0.0 0.0 L 55.0 0.0 L 55.0 6.0 L 0.0 6.0 L 0.0 0.0 Z" style="vector-effect: non-scaling-stroke;" /></g><g transform="matrix(1.0, 0.0, 0.0, 1.0, 1.875, 0.0)"><g><g style="stroke: black;stroke-width: 1.2000000000000002;" transform="matrix(1.0, 0.0, 0.0, 1.0, 0.0, 0.0)"><g /></g><g style="fill: #ffa500;stroke: black;stroke-width: 1.2000000000000002;" transform="matrix(1.0, 0.0, 0.0, 1.0, 1.875, 0.0)"><text style="text-align:center; text-anchor:middle; dominant-baseline:middle;&#10;                      font-family:sans-serif; font-weight: bold;&#10;                      font-size:3px;&#10;                      vector-effect: non-scaling-stroke;" transform="translate(-5e-05, 0)">f(x)</text></g></g></g></g></g></g><g><g><g><g style="stroke: black;stroke-width: 1.2000000000000002;" transform="matrix(1.0, 0.0, 0.0, 1.0, 0.0, 0.0)"><path d="M 0.0 -2.0 L 0.0 2.0" style="vector-effect: non-scaling-stroke;fill:none;" /></g><g style="stroke: #808080;stroke-width: 0.6000000000000001;" transform="matrix(1.0, 0.0, 0.0, 1.0, 0.0, 0.0)"><path d="M 0.0 0.0 L 40.0 0.0" style="vector-effect: non-scaling-stroke;fill:none;" /></g></g><g style="stroke: black;stroke-width: 2.4000000000000004;" transform="matrix(1.0, 0.0, 0.0, 1.0, 0.0, 0.0)"><path d="M 0.0 0.002322994638234377 L 1.0 0.002322994638234377 L 1.0 0.49277397990226746 L 2.0 0.49277397990226746 L 2.0 0.0017342682695016265 L 3.0 0.0017342682695016265 L 3.0 -0.3853485584259033 L 4.0 -0.3853485584259033 L 4.0 -0.0701504722237587 L 5.0 -0.0701504722237587 L 5.0 -0.7989493608474731 L 6.0 -0.7989493608474731 L 6.0 0.009546898305416107 L 7.0 0.009546898305416107 L 7.0 -0.4356996715068817 L 8.0 -0.4356996715068817 L 8.0 -0.5538964867591858 L 9.0 -0.5538964867591858 L 9.0 -0.16675616800785065 L 10.0 -0.16675616800785065 L 10.0 0.02742789313197136 L 11.0 0.02742789313197136 L 11.0 -1.1327590942382812 L 12.0 -1.1327590942382812 L 12.0 0.047962069511413574 L 13.0 0.047962069511413574 L 13.0 -0.921179473400116 L 14.0 -0.921179473400116 L 14.0 -0.07580950856208801 L 15.0 -0.07580950856208801 L 15.0 -0.2651054859161377 L 16.0 -0.2651054859161377 L 16.0 -0.3782704472541809 L 17.0 -0.3782704472541809 L 17.0 -0.6898138523101807 L 18.0 -0.6898138523101807 L 18.0 -1.3309277296066284 L 19.0 -1.3309277296066284 L 19.0 -0.1519356220960617 L 20.0 -0.1519356220960617 L 20.0 -0.24006401002407074 L 21.0 -0.24006401002407074 L 21.0 -0.6113705039024353 L 22.0 -0.6113705039024353 L 22.0 0.04986990615725517 L 23.0 0.04986990615725517 L 23.0 -0.07766236364841461 L 24.0 -0.07766236364841461 L 24.0 -0.33562779426574707 L 25.0 -0.33562779426574707 L 25.0 -0.49728164076805115 L 26.0 -0.49728164076805115 L 26.0 -0.2840370833873749 L 27.0 -0.2840370833873749 L 27.0 -0.4319126307964325 L 28.0 -0.4319126307964325 L 28.0 -1.5027556419372559 L 29.0 -1.5027556419372559 L 29.0 -0.27696019411087036 L 30.0 -0.27696019411087036 L 30.0 -0.6069554090499878 L 31.0 -0.6069554090499878 L 31.0 -1.3259254693984985 L 32.0 -1.3259254693984985 L 32.0 0.04643166437745094 L 33.0 0.04643166437745094 L 33.0 -0.9109938144683838 L 34.0 -0.9109938144683838 L 34.0 -0.4492148458957672 L 35.0 -0.4492148458957672 L 35.0 -0.10396786779165268 L 36.0 -0.10396786779165268 L 36.0 -0.33418264985084534 L 37.0 -0.33418264985084534 L 37.0 -0.07786191999912262 L 38.0 -0.07786191999912262 L 38.0 -0.2054930478334427 L 39.0 -0.2054930478334427 L 39.0 -0.2903629243373871 L 40.0 -0.2903629243373871" style="vector-effect: non-scaling-stroke;fill:none;" /></g></g></g></g><g><g><g><g style="stroke: black;stroke-width: 1.2000000000000002;" transform="matrix(1.0, 0.0, 0.0, 1.0, 0.0, 0.0)"><path d="M 0.0 -2.0 L 0.0 2.0" style="vector-effect: non-scaling-stroke;fill:none;" /></g><g style="stroke: #808080;stroke-width: 0.6000000000000001;" transform="matrix(1.0, 0.0, 0.0, 1.0, 0.0, 0.0)"><path d="M 0.0 0.0 L 40.0 0.0" style="vector-effect: non-scaling-stroke;fill:none;" /></g></g><g style="stroke: black;stroke-width: 2.4000000000000004;" transform="matrix(1.0, 0.0, 0.0, 1.0, 0.0, 0.0)"><path d="M 0.0 0.002322994638234377 L 1.0 0.002322994638234377 L 1.0 0.49277397990226746 L 2.0 0.49277397990226746 L 2.0 0.0017342682695016265 L 3.0 0.0017342682695016265 L 3.0 -0.3853485584259033 L 4.0 -0.3853485584259033 L 4.0 -0.0701504722237587 L 5.0 -0.0701504722237587 L 5.0 -0.7989493608474731 L 6.0 -0.7989493608474731 L 6.0 0.009546898305416107 L 7.0 0.009546898305416107 L 7.0 -0.4356996715068817 L 8.0 -0.4356996715068817 L 8.0 -0.5538964867591858 L 9.0 -0.5538964867591858 L 9.0 -0.16675616800785065 L 10.0 -0.16675616800785065 L 10.0 0.02742789313197136 L 11.0 0.02742789313197136 L 11.0 -1.1327590942382812 L 12.0 -1.1327590942382812 L 12.0 0.047962069511413574 L 13.0 0.047962069511413574 L 13.0 -0.921179473400116 L 14.0 -0.921179473400116 L 14.0 -0.07580950856208801 L 15.0 -0.07580950856208801 L 15.0 -0.2651054859161377 L 16.0 -0.2651054859161377 L 16.0 -0.3782704472541809 L 17.0 -0.3782704472541809 L 17.0 -0.6898138523101807 L 18.0 -0.6898138523101807 L 18.0 -1.3309277296066284 L 19.0 -1.3309277296066284 L 19.0 -0.1519356220960617 L 20.0 -0.1519356220960617 L 20.0 -0.24006401002407074 L 21.0 -0.24006401002407074 L 21.0 -0.6113705039024353 L 22.0 -0.6113705039024353 L 22.0 0.04986990615725517 L 23.0 0.04986990615725517 L 23.0 -0.07766236364841461 L 24.0 -0.07766236364841461 L 24.0 -0.33562779426574707 L 25.0 -0.33562779426574707 L 25.0 -0.49728164076805115 L 26.0 -0.49728164076805115 L 26.0 -0.2840370833873749 L 27.0 -0.2840370833873749 L 27.0 -0.4319126307964325 L 28.0 -0.4319126307964325 L 28.0 -1.5027556419372559 L 29.0 -1.5027556419372559 L 29.0 -0.27696019411087036 L 30.0 -0.27696019411087036 L 30.0 -0.6069554090499878 L 31.0 -0.6069554090499878 L 31.0 -1.3259254693984985 L 32.0 -1.3259254693984985 L 32.0 0.04643166437745094 L 33.0 0.04643166437745094 L 33.0 -0.9109938144683838 L 34.0 -0.9109938144683838 L 34.0 -0.4492148458957672 L 35.0 -0.4492148458957672 L 35.0 -0.10396786779165268 L 36.0 -0.10396786779165268 L 36.0 -0.33418264985084534 L 37.0 -0.33418264985084534 L 37.0 -0.07786191999912262 L 38.0 -0.07786191999912262 L 38.0 -0.2054930478334427 L 39.0 -0.2054930478334427 L 39.0 -0.2903629243373871 L 40.0 -0.2903629243373871" style="vector-effect: non-scaling-stroke;fill:none;" /></g></g></g></g></g></g></g></g></g></g><g transform="matrix(1.0, 0.0, 0.0, 1.0, -0.19999999999999996, 0.16)"><g transform="matrix(1.0, 0.0, 0.0, 0.009999999999999995, 0.0, 0.0)"><g transform="matrix(0.01, 0.0, 0.0, 1.0, 0.0, 0.0)"><g><g><g style="fill: #ffffe0;stroke: #ffffe0;stroke-width: 1.2000000000000002;fill-opacity: 0.5;" transform="matrix(1.0, 0.0, 0.0, 1.0, 0.0, 0.0)"><path d="M 0.0 -2.0 L 0.0 2.0" style="vector-effect: non-scaling-stroke;fill:none;" /></g><g style="fill: #ffffe0;stroke: #ffffe0;stroke-width: 1.2000000000000002;fill-opacity: 0.5;" transform="matrix(1.0, 0.0, 0.0, 1.0, 0.0, 0.0)"><path d="M 0.0 -0.8724683523178101 L 1.0 -0.8724683523178101 L 1.0 -1.0003223419189453 L 2.0 -1.0003223419189453 L 2.0 0.1204313337802887 L 3.0 0.1204313337802887 L 3.0 -1.6817495822906494 L 4.0 -1.6817495822906494 L 4.0 -0.5581635236740112 L 5.0 -0.5581635236740112 L 5.0 -2.0 L 6.0 -2.0 L 6.0 -0.6312030553817749 L 7.0 -0.6312030553817749 L 7.0 -2.0 L 8.0 -2.0 L 8.0 -2.0 L 9.0 -2.0 L 9.0 -0.6033601760864258 L 10.0 -0.6033601760864258 L 10.0 -0.8472702503204346 L 11.0 -0.8472702503204346 L 11.0 -2.0 L 12.0 -2.0 L 12.0 0.16679883003234863 L 13.0 0.16679883003234863 L 13.0 -2.0 L 14.0 -2.0 L 14.0 -0.5638225078582764 L 15.0 -0.5638225078582764 L 15.0 -1.6658146381378174 L 16.0 -1.6658146381378174 L 16.0 -1.0220005512237549 L 17.0 -1.0220005512237549 L 17.0 -2.0 L 18.0 -2.0 L 18.0 -2.0 L 19.0 -2.0 L 19.0 -0.5870495438575745 L 20.0 -0.5870495438575745 L 20.0 -1.1162523031234741 L 21.0 -1.1162523031234741 L 21.0 -2.0 L 22.0 -2.0 L 22.0 0.16870667040348053 L 23.0 0.16870667040348053 L 23.0 -1.37108314037323 L 24.0 -1.37108314037323 L 24.0 -0.8243858814239502 L 25.0 -0.8243858814239502 L 25.0 -1.8979908227920532 L 26.0 -1.8979908227920532 L 26.0 -0.9247870445251465 L 27.0 -0.9247870445251465 L 27.0 -2.0 L 28.0 -2.0 L 28.0 -2.0 L 29.0 -2.0 L 29.0 -0.7120741009712219 L 30.0 -0.7120741009712219 L 30.0 -1.48314368724823 L 31.0 -1.48314368724823 L 31.0 -2.0 L 32.0 -2.0 L 32.0 0.1656409502029419 L 33.0 0.1656409502029419 L 33.0 -2.0 L 34.0 -2.0 L 34.0 -0.937972903251648 L 35.0 -0.937972903251648 L 35.0 -1.5031869411468506 L 36.0 -1.5031869411468506 L 36.0 -0.9779127836227417 L 37.0 -0.9779127836227417 L 37.0 -1.696128010749817 L 38.0 -1.696128010749817 L 38.0 -1.7313719987869263 L 39.0 -1.7313719987869263 L 39.0 -0.7284570932388306 L 40.0 -0.7284570932388306 L 40.0 -0.2903629243373871 L 39.0 -0.2903629243373871 L 39.0 -0.2054930478334427 L 38.0 -0.2054930478334427 L 38.0 -0.07786191999912262 L 37.0 -0.07786191999912262 L 37.0 -0.33418264985084534 L 36.0 -0.33418264985084534 L 36.0 -0.10396786779165268 L 35.0 -0.10396786779165268 L 35.0 -0.4492148458957672 L 34.0 -0.4492148458957672 L 34.0 -0.9109938144683838 L 33.0 -0.9109938144683838 L 33.0 0.04643166437745094 L 32.0 0.04643166437745094 L 32.0 -1.3259254693984985 L 31.0 -1.3259254693984985 L 31.0 -0.6069554090499878 L 30.0 -0.6069554090499878 L 30.0 -0.27696019411087036 L 29.0 -0.27696019411087036 L 29.0 -1.5027556419372559 L 28.0 -1.5027556419372559 L 28.0 -0.4319126307964325 L 27.0 -0.4319126307964325 L 27.0 -0.2840370833873749 L 26.0 -0.2840370833873749 L 26.0 -0.49728164076805115 L 25.0 -0.49728164076805115 L 25.0 -0.33562779426574707 L 24.0 -0.33562779426574707 L 24.0 -0.07766236364841461 L 23.0 -0.07766236364841461 L 23.0 0.04986990615725517 L 22.0 0.04986990615725517 L 22.0 -0.6113705039024353 L 21.0 -0.6113705039024353 L 21.0 -0.24006401002407074 L 20.0 -0.24006401002407074 L 20.0 -0.1519356220960617 L 19.0 -0.1519356220960617 L 19.0 -1.3309277296066284 L 18.0 -1.3309277296066284 L 18.0 -0.6898138523101807 L 17.0 -0.6898138523101807 L 17.0 -0.3782704472541809 L 16.0 -0.3782704472541809 L 16.0 -0.2651054859161377 L 15.0 -0.2651054859161377 L 15.0 -0.07580950856208801 L 14.0 -0.07580950856208801 L 14.0 -0.921179473400116 L 13.0 -0.921179473400116 L 13.0 0.047962069511413574 L 12.0 0.047962069511413574 L 12.0 -1.1327590942382812 L 11.0 -1.1327590942382812 L 11.0 0.02742789313197136 L 10.0 0.02742789313197136 L 10.0 -0.16675616800785065 L 9.0 -0.16675616800785065 L 9.0 -0.5538964867591858 L 8.0 -0.5538964867591858 L 8.0 -0.4356996715068817 L 7.0 -0.4356996715068817 L 7.0 0.009546898305416107 L 6.0 0.009546898305416107 L 6.0 -0.7989493608474731 L 5.0 -0.7989493608474731 L 5.0 -0.0701504722237587 L 4.0 -0.0701504722237587 L 4.0 -0.3853485584259033 L 3.0 -0.3853485584259033 L 3.0 0.0017342682695016265 L 2.0 0.0017342682695016265 L 2.0 0.49277397990226746 L 1.0 0.49277397990226746 L 1.0 0.002322994638234377 L 0.0 0.002322994638234377 Z" style="vector-effect: non-scaling-stroke;" /></g></g><g style="stroke: black;stroke-width: 1.2000000000000002;" transform="matrix(1.0, 0.0, 0.0, 1.0, 0.0, 0.0)"><path d="M 0.0 0.002322994638234377 L 1.0 0.002322994638234377 L 1.0 0.49277397990226746 L 2.0 0.49277397990226746 L 2.0 0.0017342682695016265 L 3.0 0.0017342682695016265 L 3.0 -0.3853485584259033 L 4.0 -0.3853485584259033 L 4.0 -0.0701504722237587 L 5.0 -0.0701504722237587 L 5.0 -0.7989493608474731 L 6.0 -0.7989493608474731 L 6.0 0.009546898305416107 L 7.0 0.009546898305416107 L 7.0 -0.4356996715068817 L 8.0 -0.4356996715068817 L 8.0 -0.5538964867591858 L 9.0 -0.5538964867591858 L 9.0 -0.16675616800785065 L 10.0 -0.16675616800785065 L 10.0 0.02742789313197136 L 11.0 0.02742789313197136 L 11.0 -1.1327590942382812 L 12.0 -1.1327590942382812 L 12.0 0.047962069511413574 L 13.0 0.047962069511413574 L 13.0 -0.921179473400116 L 14.0 -0.921179473400116 L 14.0 -0.07580950856208801 L 15.0 -0.07580950856208801 L 15.0 -0.2651054859161377 L 16.0 -0.2651054859161377 L 16.0 -0.3782704472541809 L 17.0 -0.3782704472541809 L 17.0 -0.6898138523101807 L 18.0 -0.6898138523101807 L 18.0 -1.3309277296066284 L 19.0 -1.3309277296066284 L 19.0 -0.1519356220960617 L 20.0 -0.1519356220960617 L 20.0 -0.24006401002407074 L 21.0 -0.24006401002407074 L 21.0 -0.6113705039024353 L 22.0 -0.6113705039024353 L 22.0 0.04986990615725517 L 23.0 0.04986990615725517 L 23.0 -0.07766236364841461 L 24.0 -0.07766236364841461 L 24.0 -0.33562779426574707 L 25.0 -0.33562779426574707 L 25.0 -0.49728164076805115 L 26.0 -0.49728164076805115 L 26.0 -0.2840370833873749 L 27.0 -0.2840370833873749 L 27.0 -0.4319126307964325 L 28.0 -0.4319126307964325 L 28.0 -1.5027556419372559 L 29.0 -1.5027556419372559 L 29.0 -0.27696019411087036 L 30.0 -0.27696019411087036 L 30.0 -0.6069554090499878 L 31.0 -0.6069554090499878 L 31.0 -1.3259254693984985 L 32.0 -1.3259254693984985 L 32.0 0.04643166437745094 L 33.0 0.04643166437745094 L 33.0 -0.9109938144683838 L 34.0 -0.9109938144683838 L 34.0 -0.4492148458957672 L 35.0 -0.4492148458957672 L 35.0 -0.10396786779165268 L 36.0 -0.10396786779165268 L 36.0 -0.33418264985084534 L 37.0 -0.33418264985084534 L 37.0 -0.07786191999912262 L 38.0 -0.07786191999912262 L 38.0 -0.2054930478334427 L 39.0 -0.2054930478334427 L 39.0 -0.2903629243373871 L 40.0 -0.2903629243373871" style="vector-effect: non-scaling-stroke;fill:none;" /></g></g></g></g></g></g><g transform="matrix(1.0, 0.0, 0.0, 1.0, -0.19999999999999996, 0.16)"><g transform="matrix(1.0, 0.0, 0.0, 0.009999999999999995, 0.0, 0.0)"><g transform="matrix(0.01, 0.0, 0.0, 1.0, 0.0, 0.0)"><g><g><g style="fill: #add8e6;stroke: #add8e6;stroke-width: 1.2000000000000002;fill-opacity: 0.5;" transform="matrix(1.0, 0.0, 0.0, 1.0, 0.0, 0.0)"><path d="M 0.0 -2.0 L 0.0 2.0" style="vector-effect: non-scaling-stroke;fill:none;" /></g><g style="fill: #add8e6;stroke: #add8e6;stroke-width: 1.2000000000000002;fill-opacity: 0.5;" transform="matrix(1.0, 0.0, 0.0, 1.0, 0.0, 0.0)"><path d="M 0.0 0.007654816377907991 L 1.0 0.007654816377907991 L 1.0 1.1543855667114258 L 2.0 1.1543855667114258 L 2.0 -0.027485977858304977 L 3.0 -0.027485977858304977 L 3.0 -0.9813950061798096 L 4.0 -0.9813950061798096 L 4.0 -0.35774287581443787 L 5.0 -0.35774287581443787 L 5.0 -1.937398076057434 L 6.0 -1.937398076057434 L 6.0 0.03934922069311142 L 7.0 0.03934922069311142 L 7.0 -0.9721415042877197 L 8.0 -0.9721415042877197 L 8.0 -1.2810730934143066 L 9.0 -1.2810730934143066 L 9.0 -0.932675838470459 L 10.0 -0.932675838470459 L 10.0 0.09019903838634491 L 11.0 0.09019903838634491 L 11.0 -2.0 L 12.0 -2.0 L 12.0 -0.7600533962249756 L 13.0 -0.7600533962249756 L 13.0 -2.0 L 14.0 -2.0 L 14.0 -0.38724377751350403 L 15.0 -0.38724377751350403 L 15.0 -0.6435949802398682 L 16.0 -0.6435949802398682 L 16.0 -1.56142258644104 L 17.0 -1.56142258644104 L 17.0 -1.5421602725982666 L 18.0 -1.5421602725982666 L 18.0 -2.0 L 19.0 -2.0 L 19.0 -0.8493099808692932 L 20.0 -0.8493099808692932 L 20.0 -0.7899168729782104 L 21.0 -0.7899168729782104 L 21.0 -1.4339146614074707 L 22.0 -1.4339146614074707 L 22.0 -0.7905555963516235 L 23.0 -0.7905555963516235 L 23.0 -0.19761671125888824 L 24.0 -0.19761671125888824 L 24.0 -1.7124950885772705 L 25.0 -1.7124950885772705 L 25.0 -1.2095571756362915 L 26.0 -1.2095571756362915 L 26.0 -1.1721463203430176 L 27.0 -1.1721463203430176 L 27.0 -0.965374231338501 L 28.0 -0.965374231338501 L 28.0 -2.0 L 29.0 -2.0 L 29.0 -1.546539068222046 L 30.0 -1.546539068222046 L 30.0 -1.9957436323165894 L 31.0 -1.9957436323165894 L 31.0 -2.0 L 32.0 -2.0 L 32.0 -0.7355067729949951 L 33.0 -0.7355067729949951 L 33.0 -2.0 L 34.0 -2.0 L 34.0 -2.0 L 35.0 -2.0 L 35.0 -0.25223442912101746 L 36.0 -0.25223442912101746 L 36.0 -1.3802441358566284 L 37.0 -1.3802441358566284 L 37.0 -0.17397440969944 L 38.0 -0.17397440969944 L 38.0 -0.4752040505409241 L 39.0 -0.4752040505409241 L 39.0 -1.62252676486969 L 40.0 -1.62252676486969 L 40.0 -0.2903629243373871 L 39.0 -0.2903629243373871 L 39.0 -0.2054930478334427 L 38.0 -0.2054930478334427 L 38.0 -0.07786191999912262 L 37.0 -0.07786191999912262 L 37.0 -0.33418264985084534 L 36.0 -0.33418264985084534 L 36.0 -0.10396786779165268 L 35.0 -0.10396786779165268 L 35.0 -0.4492148458957672 L 34.0 -0.4492148458957672 L 34.0 -0.9109938144683838 L 33.0 -0.9109938144683838 L 33.0 0.04643166437745094 L 32.0 0.04643166437745094 L 32.0 -1.3259254693984985 L 31.0 -1.3259254693984985 L 31.0 -0.6069554090499878 L 30.0 -0.6069554090499878 L 30.0 -0.27696019411087036 L 29.0 -0.27696019411087036 L 29.0 -1.5027556419372559 L 28.0 -1.5027556419372559 L 28.0 -0.4319126307964325 L 27.0 -0.4319126307964325 L 27.0 -0.2840370833873749 L 26.0 -0.2840370833873749 L 26.0 -0.49728164076805115 L 25.0 -0.49728164076805115 L 25.0 -0.33562779426574707 L 24.0 -0.33562779426574707 L 24.0 -0.07766236364841461 L 23.0 -0.07766236364841461 L 23.0 0.04986990615725517 L 22.0 0.04986990615725517 L 22.0 -0.6113705039024353 L 21.0 -0.6113705039024353 L 21.0 -0.24006401002407074 L 20.0 -0.24006401002407074 L 20.0 -0.1519356220960617 L 19.0 -0.1519356220960617 L 19.0 -1.3309277296066284 L 18.0 -1.3309277296066284 L 18.0 -0.6898138523101807 L 17.0 -0.6898138523101807 L 17.0 -0.3782704472541809 L 16.0 -0.3782704472541809 L 16.0 -0.2651054859161377 L 15.0 -0.2651054859161377 L 15.0 -0.07580950856208801 L 14.0 -0.07580950856208801 L 14.0 -0.921179473400116 L 13.0 -0.921179473400116 L 13.0 0.047962069511413574 L 12.0 0.047962069511413574 L 12.0 -1.1327590942382812 L 11.0 -1.1327590942382812 L 11.0 0.02742789313197136 L 10.0 0.02742789313197136 L 10.0 -0.16675616800785065 L 9.0 -0.16675616800785065 L 9.0 -0.5538964867591858 L 8.0 -0.5538964867591858 L 8.0 -0.4356996715068817 L 7.0 -0.4356996715068817 L 7.0 0.009546898305416107 L 6.0 0.009546898305416107 L 6.0 -0.7989493608474731 L 5.0 -0.7989493608474731 L 5.0 -0.0701504722237587 L 4.0 -0.0701504722237587 L 4.0 -0.3853485584259033 L 3.0 -0.3853485584259033 L 3.0 0.0017342682695016265 L 2.0 0.0017342682695016265 L 2.0 0.49277397990226746 L 1.0 0.49277397990226746 L 1.0 0.002322994638234377 L 0.0 0.002322994638234377 Z" style="vector-effect: non-scaling-stroke;" /></g></g><g style="stroke: black;stroke-width: 1.2000000000000002;" transform="matrix(1.0, 0.0, 0.0, 1.0, 0.0, 0.0)"><path d="M 0.0 0.002322994638234377 L 1.0 0.002322994638234377 L 1.0 0.49277397990226746 L 2.0 0.49277397990226746 L 2.0 0.0017342682695016265 L 3.0 0.0017342682695016265 L 3.0 -0.3853485584259033 L 4.0 -0.3853485584259033 L 4.0 -0.0701504722237587 L 5.0 -0.0701504722237587 L 5.0 -0.7989493608474731 L 6.0 -0.7989493608474731 L 6.0 0.009546898305416107 L 7.0 0.009546898305416107 L 7.0 -0.4356996715068817 L 8.0 -0.4356996715068817 L 8.0 -0.5538964867591858 L 9.0 -0.5538964867591858 L 9.0 -0.16675616800785065 L 10.0 -0.16675616800785065 L 10.0 0.02742789313197136 L 11.0 0.02742789313197136 L 11.0 -1.1327590942382812 L 12.0 -1.1327590942382812 L 12.0 0.047962069511413574 L 13.0 0.047962069511413574 L 13.0 -0.921179473400116 L 14.0 -0.921179473400116 L 14.0 -0.07580950856208801 L 15.0 -0.07580950856208801 L 15.0 -0.2651054859161377 L 16.0 -0.2651054859161377 L 16.0 -0.3782704472541809 L 17.0 -0.3782704472541809 L 17.0 -0.6898138523101807 L 18.0 -0.6898138523101807 L 18.0 -1.3309277296066284 L 19.0 -1.3309277296066284 L 19.0 -0.1519356220960617 L 20.0 -0.1519356220960617 L 20.0 -0.24006401002407074 L 21.0 -0.24006401002407074 L 21.0 -0.6113705039024353 L 22.0 -0.6113705039024353 L 22.0 0.04986990615725517 L 23.0 0.04986990615725517 L 23.0 -0.07766236364841461 L 24.0 -0.07766236364841461 L 24.0 -0.33562779426574707 L 25.0 -0.33562779426574707 L 25.0 -0.49728164076805115 L 26.0 -0.49728164076805115 L 26.0 -0.2840370833873749 L 27.0 -0.2840370833873749 L 27.0 -0.4319126307964325 L 28.0 -0.4319126307964325 L 28.0 -1.5027556419372559 L 29.0 -1.5027556419372559 L 29.0 -0.27696019411087036 L 30.0 -0.27696019411087036 L 30.0 -0.6069554090499878 L 31.0 -0.6069554090499878 L 31.0 -1.3259254693984985 L 32.0 -1.3259254693984985 L 32.0 0.04643166437745094 L 33.0 0.04643166437745094 L 33.0 -0.9109938144683838 L 34.0 -0.9109938144683838 L 34.0 -0.4492148458957672 L 35.0 -0.4492148458957672 L 35.0 -0.10396786779165268 L 36.0 -0.10396786779165268 L 36.0 -0.33418264985084534 L 37.0 -0.33418264985084534 L 37.0 -0.07786191999912262 L 38.0 -0.07786191999912262 L 38.0 -0.2054930478334427 L 39.0 -0.2054930478334427 L 39.0 -0.2903629243373871 L 40.0 -0.2903629243373871" style="vector-effect: non-scaling-stroke;fill:none;" /></g></g></g></g></g></g><g transform="matrix(1.0, 0.0, 0.0, 1.0, -0.19999999999999996, 0.16)"><g transform="matrix(1.0, 0.0, 0.0, 0.009999999999999995, 0.0, 0.0)"><g transform="matrix(0.01, 0.0, 0.0, 1.0, 0.0, 0.0)"><g><g><g style="fill: #ff8c00;stroke: #ff8c00;stroke-width: 1.2000000000000002;fill-opacity: 0.5;" transform="matrix(1.0, 0.0, 0.0, 1.0, 0.0, 0.0)"><path d="M 0.0 -2.0 L 0.0 2.0" style="vector-effect: non-scaling-stroke;fill:none;" /></g><g style="fill: #ff8c00;stroke: #ff8c00;stroke-width: 1.2000000000000002;fill-opacity: 0.5;" transform="matrix(1.0, 0.0, 0.0, 1.0, 0.0, 0.0)"><path d="M 0.0 0.002322994638234377 L 1.0 0.002322994638234377 L 1.0 0.49277397990226746 L 2.0 0.49277397990226746 L 2.0 0.0017342682695016265 L 3.0 0.0017342682695016265 L 3.0 -0.3853485584259033 L 4.0 -0.3853485584259033 L 4.0 -0.0701504722237587 L 5.0 -0.0701504722237587 L 5.0 -0.7989493608474731 L 6.0 -0.7989493608474731 L 6.0 0.009546898305416107 L 7.0 0.009546898305416107 L 7.0 -0.4356996715068817 L 8.0 -0.4356996715068817 L 8.0 -0.5538964867591858 L 9.0 -0.5538964867591858 L 9.0 -0.16675616800785065 L 10.0 -0.16675616800785065 L 10.0 0.02742789313197136 L 11.0 0.02742789313197136 L 11.0 -1.1327590942382812 L 12.0 -1.1327590942382812 L 12.0 0.047962069511413574 L 13.0 0.047962069511413574 L 13.0 -0.921179473400116 L 14.0 -0.921179473400116 L 14.0 -0.07580950856208801 L 15.0 -0.07580950856208801 L 15.0 -0.2651054859161377 L 16.0 -0.2651054859161377 L 16.0 -0.3782704472541809 L 17.0 -0.3782704472541809 L 17.0 -0.6898138523101807 L 18.0 -0.6898138523101807 L 18.0 -1.3309277296066284 L 19.0 -1.3309277296066284 L 19.0 -0.1519356220960617 L 20.0 -0.1519356220960617 L 20.0 -0.24006401002407074 L 21.0 -0.24006401002407074 L 21.0 -0.6113705039024353 L 22.0 -0.6113705039024353 L 22.0 0.04986990615725517 L 23.0 0.04986990615725517 L 23.0 -0.07766236364841461 L 24.0 -0.07766236364841461 L 24.0 -0.33562779426574707 L 25.0 -0.33562779426574707 L 25.0 -0.49728164076805115 L 26.0 -0.49728164076805115 L 26.0 -0.2840370833873749 L 27.0 -0.2840370833873749 L 27.0 -0.4319126307964325 L 28.0 -0.4319126307964325 L 28.0 -1.5027556419372559 L 29.0 -1.5027556419372559 L 29.0 -0.27696019411087036 L 30.0 -0.27696019411087036 L 30.0 -0.6069554090499878 L 31.0 -0.6069554090499878 L 31.0 -1.3259254693984985 L 32.0 -1.3259254693984985 L 32.0 0.04643166437745094 L 33.0 0.04643166437745094 L 33.0 -0.9109938144683838 L 34.0 -0.9109938144683838 L 34.0 -0.4492148458957672 L 35.0 -0.4492148458957672 L 35.0 -0.10396786779165268 L 36.0 -0.10396786779165268 L 36.0 -0.33418264985084534 L 37.0 -0.33418264985084534 L 37.0 -0.07786191999912262 L 38.0 -0.07786191999912262 L 38.0 -0.2054930478334427 L 39.0 -0.2054930478334427 L 39.0 -0.2903629243373871 L 40.0 -0.2903629243373871 L 40.0 -0.2903629243373871 L 39.0 -0.2903629243373871 L 39.0 -0.2054930478334427 L 38.0 -0.2054930478334427 L 38.0 -0.07786191999912262 L 37.0 -0.07786191999912262 L 37.0 -0.33418264985084534 L 36.0 -0.33418264985084534 L 36.0 -0.10396786779165268 L 35.0 -0.10396786779165268 L 35.0 -0.4492148458957672 L 34.0 -0.4492148458957672 L 34.0 -0.9109938144683838 L 33.0 -0.9109938144683838 L 33.0 0.04643166437745094 L 32.0 0.04643166437745094 L 32.0 -1.3259254693984985 L 31.0 -1.3259254693984985 L 31.0 -0.6069554090499878 L 30.0 -0.6069554090499878 L 30.0 -0.27696019411087036 L 29.0 -0.27696019411087036 L 29.0 -1.5027556419372559 L 28.0 -1.5027556419372559 L 28.0 -0.4319126307964325 L 27.0 -0.4319126307964325 L 27.0 -0.2840370833873749 L 26.0 -0.2840370833873749 L 26.0 -0.49728164076805115 L 25.0 -0.49728164076805115 L 25.0 -0.33562779426574707 L 24.0 -0.33562779426574707 L 24.0 -0.07766236364841461 L 23.0 -0.07766236364841461 L 23.0 0.04986990615725517 L 22.0 0.04986990615725517 L 22.0 -0.6113705039024353 L 21.0 -0.6113705039024353 L 21.0 -0.24006401002407074 L 20.0 -0.24006401002407074 L 20.0 -0.1519356220960617 L 19.0 -0.1519356220960617 L 19.0 -1.3309277296066284 L 18.0 -1.3309277296066284 L 18.0 -0.6898138523101807 L 17.0 -0.6898138523101807 L 17.0 -0.3782704472541809 L 16.0 -0.3782704472541809 L 16.0 -0.2651054859161377 L 15.0 -0.2651054859161377 L 15.0 -0.07580950856208801 L 14.0 -0.07580950856208801 L 14.0 -0.921179473400116 L 13.0 -0.921179473400116 L 13.0 0.047962069511413574 L 12.0 0.047962069511413574 L 12.0 -1.1327590942382812 L 11.0 -1.1327590942382812 L 11.0 0.02742789313197136 L 10.0 0.02742789313197136 L 10.0 -0.16675616800785065 L 9.0 -0.16675616800785065 L 9.0 -0.5538964867591858 L 8.0 -0.5538964867591858 L 8.0 -0.4356996715068817 L 7.0 -0.4356996715068817 L 7.0 0.009546898305416107 L 6.0 0.009546898305416107 L 6.0 -0.7989493608474731 L 5.0 -0.7989493608474731 L 5.0 -0.0701504722237587 L 4.0 -0.0701504722237587 L 4.0 -0.3853485584259033 L 3.0 -0.3853485584259033 L 3.0 0.0017342682695016265 L 2.0 0.0017342682695016265 L 2.0 0.49277397990226746 L 1.0 0.49277397990226746 L 1.0 0.002322994638234377 L 0.0 0.002322994638234377 Z" style="vector-effect: non-scaling-stroke;" /></g></g><g style="stroke: black;stroke-width: 1.2000000000000002;" transform="matrix(1.0, 0.0, 0.0, 1.0, 0.0, 0.0)"><path d="M 0.0 0.002322994638234377 L 1.0 0.002322994638234377 L 1.0 0.49277397990226746 L 2.0 0.49277397990226746 L 2.0 0.0017342682695016265 L 3.0 0.0017342682695016265 L 3.0 -0.3853485584259033 L 4.0 -0.3853485584259033 L 4.0 -0.0701504722237587 L 5.0 -0.0701504722237587 L 5.0 -0.7989493608474731 L 6.0 -0.7989493608474731 L 6.0 0.009546898305416107 L 7.0 0.009546898305416107 L 7.0 -0.4356996715068817 L 8.0 -0.4356996715068817 L 8.0 -0.5538964867591858 L 9.0 -0.5538964867591858 L 9.0 -0.16675616800785065 L 10.0 -0.16675616800785065 L 10.0 0.02742789313197136 L 11.0 0.02742789313197136 L 11.0 -1.1327590942382812 L 12.0 -1.1327590942382812 L 12.0 0.047962069511413574 L 13.0 0.047962069511413574 L 13.0 -0.921179473400116 L 14.0 -0.921179473400116 L 14.0 -0.07580950856208801 L 15.0 -0.07580950856208801 L 15.0 -0.2651054859161377 L 16.0 -0.2651054859161377 L 16.0 -0.3782704472541809 L 17.0 -0.3782704472541809 L 17.0 -0.6898138523101807 L 18.0 -0.6898138523101807 L 18.0 -1.3309277296066284 L 19.0 -1.3309277296066284 L 19.0 -0.1519356220960617 L 20.0 -0.1519356220960617 L 20.0 -0.24006401002407074 L 21.0 -0.24006401002407074 L 21.0 -0.6113705039024353 L 22.0 -0.6113705039024353 L 22.0 0.04986990615725517 L 23.0 0.04986990615725517 L 23.0 -0.07766236364841461 L 24.0 -0.07766236364841461 L 24.0 -0.33562779426574707 L 25.0 -0.33562779426574707 L 25.0 -0.49728164076805115 L 26.0 -0.49728164076805115 L 26.0 -0.2840370833873749 L 27.0 -0.2840370833873749 L 27.0 -0.4319126307964325 L 28.0 -0.4319126307964325 L 28.0 -1.5027556419372559 L 29.0 -1.5027556419372559 L 29.0 -0.27696019411087036 L 30.0 -0.27696019411087036 L 30.0 -0.6069554090499878 L 31.0 -0.6069554090499878 L 31.0 -1.3259254693984985 L 32.0 -1.3259254693984985 L 32.0 0.04643166437745094 L 33.0 0.04643166437745094 L 33.0 -0.9109938144683838 L 34.0 -0.9109938144683838 L 34.0 -0.4492148458957672 L 35.0 -0.4492148458957672 L 35.0 -0.10396786779165268 L 36.0 -0.10396786779165268 L 36.0 -0.33418264985084534 L 37.0 -0.33418264985084534 L 37.0 -0.07786191999912262 L 38.0 -0.07786191999912262 L 38.0 -0.2054930478334427 L 39.0 -0.2054930478334427 L 39.0 -0.2903629243373871 L 40.0 -0.2903629243373871" style="vector-effect: non-scaling-stroke;fill:none;" /></g></g></g></g></g></g><g transform="matrix(1.0, 0.0, 0.0, 1.0, -0.19999999999999996, 0.16)"><g transform="matrix(1.0, 0.0, 0.0, 0.009999999999999995, 0.0, 0.0)"><g transform="matrix(0.01, 0.0, 0.0, 1.0, 0.0, 0.0)"><g><g><g style="fill: #0000ff;stroke: #0000ff;stroke-width: 1.2000000000000002;fill-opacity: 0.5;" transform="matrix(1.0, 0.0, 0.0, 1.0, 0.0, 0.0)"><path d="M 0.0 -2.0 L 0.0 2.0" style="vector-effect: non-scaling-stroke;fill:none;" /></g><g style="fill: #0000ff;stroke: #0000ff;stroke-width: 1.2000000000000002;fill-opacity: 0.5;" transform="matrix(1.0, 0.0, 0.0, 1.0, 0.0, 0.0)"><path d="M 0.0 0.002322994638234377 L 1.0 0.002322994638234377 L 1.0 0.49277397990226746 L 2.0 0.49277397990226746 L 2.0 0.0017342682695016265 L 3.0 0.0017342682695016265 L 3.0 -0.3853485584259033 L 4.0 -0.3853485584259033 L 4.0 -0.0701504722237587 L 5.0 -0.0701504722237587 L 5.0 -0.7989493608474731 L 6.0 -0.7989493608474731 L 6.0 0.009546898305416107 L 7.0 0.009546898305416107 L 7.0 -0.4356996715068817 L 8.0 -0.4356996715068817 L 8.0 -0.5538964867591858 L 9.0 -0.5538964867591858 L 9.0 -0.16675616800785065 L 10.0 -0.16675616800785065 L 10.0 0.02742789313197136 L 11.0 0.02742789313197136 L 11.0 -1.1327590942382812 L 12.0 -1.1327590942382812 L 12.0 0.047962069511413574 L 13.0 0.047962069511413574 L 13.0 -0.921179473400116 L 14.0 -0.921179473400116 L 14.0 -0.07580950856208801 L 15.0 -0.07580950856208801 L 15.0 -0.2651054859161377 L 16.0 -0.2651054859161377 L 16.0 -0.3782704472541809 L 17.0 -0.3782704472541809 L 17.0 -0.6898138523101807 L 18.0 -0.6898138523101807 L 18.0 -1.3309277296066284 L 19.0 -1.3309277296066284 L 19.0 -0.1519356220960617 L 20.0 -0.1519356220960617 L 20.0 -0.24006401002407074 L 21.0 -0.24006401002407074 L 21.0 -0.6113705039024353 L 22.0 -0.6113705039024353 L 22.0 0.04986990615725517 L 23.0 0.04986990615725517 L 23.0 -0.07766236364841461 L 24.0 -0.07766236364841461 L 24.0 -0.33562779426574707 L 25.0 -0.33562779426574707 L 25.0 -0.49728164076805115 L 26.0 -0.49728164076805115 L 26.0 -0.2840370833873749 L 27.0 -0.2840370833873749 L 27.0 -0.4319126307964325 L 28.0 -0.4319126307964325 L 28.0 -1.5027556419372559 L 29.0 -1.5027556419372559 L 29.0 -0.27696019411087036 L 30.0 -0.27696019411087036 L 30.0 -0.6069554090499878 L 31.0 -0.6069554090499878 L 31.0 -1.3259254693984985 L 32.0 -1.3259254693984985 L 32.0 0.04643166437745094 L 33.0 0.04643166437745094 L 33.0 -0.9109938144683838 L 34.0 -0.9109938144683838 L 34.0 -0.4492148458957672 L 35.0 -0.4492148458957672 L 35.0 -0.10396786779165268 L 36.0 -0.10396786779165268 L 36.0 -0.33418264985084534 L 37.0 -0.33418264985084534 L 37.0 -0.07786191999912262 L 38.0 -0.07786191999912262 L 38.0 -0.2054930478334427 L 39.0 -0.2054930478334427 L 39.0 -0.2903629243373871 L 40.0 -0.2903629243373871 L 40.0 -0.2903629243373871 L 39.0 -0.2903629243373871 L 39.0 -0.2054930478334427 L 38.0 -0.2054930478334427 L 38.0 -0.07786191999912262 L 37.0 -0.07786191999912262 L 37.0 -0.33418264985084534 L 36.0 -0.33418264985084534 L 36.0 -0.10396786779165268 L 35.0 -0.10396786779165268 L 35.0 -0.4492148458957672 L 34.0 -0.4492148458957672 L 34.0 -0.9109938144683838 L 33.0 -0.9109938144683838 L 33.0 0.04643166437745094 L 32.0 0.04643166437745094 L 32.0 -1.3259254693984985 L 31.0 -1.3259254693984985 L 31.0 -0.6069554090499878 L 30.0 -0.6069554090499878 L 30.0 -0.27696019411087036 L 29.0 -0.27696019411087036 L 29.0 -1.5027556419372559 L 28.0 -1.5027556419372559 L 28.0 -0.4319126307964325 L 27.0 -0.4319126307964325 L 27.0 -0.2840370833873749 L 26.0 -0.2840370833873749 L 26.0 -0.49728164076805115 L 25.0 -0.49728164076805115 L 25.0 -0.33562779426574707 L 24.0 -0.33562779426574707 L 24.0 -0.07766236364841461 L 23.0 -0.07766236364841461 L 23.0 0.04986990615725517 L 22.0 0.04986990615725517 L 22.0 -0.6113705039024353 L 21.0 -0.6113705039024353 L 21.0 -0.24006401002407074 L 20.0 -0.24006401002407074 L 20.0 -0.1519356220960617 L 19.0 -0.1519356220960617 L 19.0 -1.3309277296066284 L 18.0 -1.3309277296066284 L 18.0 -0.6898138523101807 L 17.0 -0.6898138523101807 L 17.0 -0.3782704472541809 L 16.0 -0.3782704472541809 L 16.0 -0.2651054859161377 L 15.0 -0.2651054859161377 L 15.0 -0.07580950856208801 L 14.0 -0.07580950856208801 L 14.0 -0.921179473400116 L 13.0 -0.921179473400116 L 13.0 0.047962069511413574 L 12.0 0.047962069511413574 L 12.0 -1.1327590942382812 L 11.0 -1.1327590942382812 L 11.0 0.02742789313197136 L 10.0 0.02742789313197136 L 10.0 -0.16675616800785065 L 9.0 -0.16675616800785065 L 9.0 -0.5538964867591858 L 8.0 -0.5538964867591858 L 8.0 -0.4356996715068817 L 7.0 -0.4356996715068817 L 7.0 0.009546898305416107 L 6.0 0.009546898305416107 L 6.0 -0.7989493608474731 L 5.0 -0.7989493608474731 L 5.0 -0.0701504722237587 L 4.0 -0.0701504722237587 L 4.0 -0.3853485584259033 L 3.0 -0.3853485584259033 L 3.0 0.0017342682695016265 L 2.0 0.0017342682695016265 L 2.0 0.49277397990226746 L 1.0 0.49277397990226746 L 1.0 0.002322994638234377 L 0.0 0.002322994638234377 Z" style="vector-effect: non-scaling-stroke;" /></g></g><g style="stroke: black;stroke-width: 1.2000000000000002;" transform="matrix(1.0, 0.0, 0.0, 1.0, 0.0, 0.0)"><path d="M 0.0 0.002322994638234377 L 1.0 0.002322994638234377 L 1.0 0.49277397990226746 L 2.0 0.49277397990226746 L 2.0 0.0017342682695016265 L 3.0 0.0017342682695016265 L 3.0 -0.3853485584259033 L 4.0 -0.3853485584259033 L 4.0 -0.0701504722237587 L 5.0 -0.0701504722237587 L 5.0 -0.7989493608474731 L 6.0 -0.7989493608474731 L 6.0 0.009546898305416107 L 7.0 0.009546898305416107 L 7.0 -0.4356996715068817 L 8.0 -0.4356996715068817 L 8.0 -0.5538964867591858 L 9.0 -0.5538964867591858 L 9.0 -0.16675616800785065 L 10.0 -0.16675616800785065 L 10.0 0.02742789313197136 L 11.0 0.02742789313197136 L 11.0 -1.1327590942382812 L 12.0 -1.1327590942382812 L 12.0 0.047962069511413574 L 13.0 0.047962069511413574 L 13.0 -0.921179473400116 L 14.0 -0.921179473400116 L 14.0 -0.07580950856208801 L 15.0 -0.07580950856208801 L 15.0 -0.2651054859161377 L 16.0 -0.2651054859161377 L 16.0 -0.3782704472541809 L 17.0 -0.3782704472541809 L 17.0 -0.6898138523101807 L 18.0 -0.6898138523101807 L 18.0 -1.3309277296066284 L 19.0 -1.3309277296066284 L 19.0 -0.1519356220960617 L 20.0 -0.1519356220960617 L 20.0 -0.24006401002407074 L 21.0 -0.24006401002407074 L 21.0 -0.6113705039024353 L 22.0 -0.6113705039024353 L 22.0 0.04986990615725517 L 23.0 0.04986990615725517 L 23.0 -0.07766236364841461 L 24.0 -0.07766236364841461 L 24.0 -0.33562779426574707 L 25.0 -0.33562779426574707 L 25.0 -0.49728164076805115 L 26.0 -0.49728164076805115 L 26.0 -0.2840370833873749 L 27.0 -0.2840370833873749 L 27.0 -0.4319126307964325 L 28.0 -0.4319126307964325 L 28.0 -1.5027556419372559 L 29.0 -1.5027556419372559 L 29.0 -0.27696019411087036 L 30.0 -0.27696019411087036 L 30.0 -0.6069554090499878 L 31.0 -0.6069554090499878 L 31.0 -1.3259254693984985 L 32.0 -1.3259254693984985 L 32.0 0.04643166437745094 L 33.0 0.04643166437745094 L 33.0 -0.9109938144683838 L 34.0 -0.9109938144683838 L 34.0 -0.4492148458957672 L 35.0 -0.4492148458957672 L 35.0 -0.10396786779165268 L 36.0 -0.10396786779165268 L 36.0 -0.33418264985084534 L 37.0 -0.33418264985084534 L 37.0 -0.07786191999912262 L 38.0 -0.07786191999912262 L 38.0 -0.2054930478334427 L 39.0 -0.2054930478334427 L 39.0 -0.2903629243373871 L 40.0 -0.2903629243373871" style="vector-effect: non-scaling-stroke;fill:none;" /></g></g></g></g></g></g></g></g><g /></g></g></g></g></svg>