<?xml version="1.0" encoding="utf-8" ?>
<svg baseProfile="full" height="300" version="1.1" width="1056" xmlns="http://www.w3.org/2000/svg" xmlns:ev="http://www.w3.org/2001/xml-events" xmlns:xlink="http://www.w3.org/1999/xlink"><defs><marker id="arrow" markerHeight="3.5" markerWidth="5" orient="auto" refX="5.0" refY="1.7"><polygon points="0,0 5,1.75 0,3.5" /></marker></defs><g style="fill:white;"><g transform="matrix(1.0, 0.0, 0.0, 1.0, 528.409090909091, 150.0)"><g transform="matrix(1082.2510822510822, 0.0, 0.0, 1082.2510822510822, 0.0, 0.0)"><g><g transform="matrix(1.0, 0.0, 0.0, 1.0, -0.0, -0.08000000000000002)"><g><g><g style="fill: #ffffff;stroke: black;stroke-width: 1.2000000000000002;" transform="matrix(1.0, 0.0, 0.0, 1.0, -0.465, -0.052000000000000005)"><path d="M 0.0 0.0 L 0.93 0.0 L 0.93 0.264 L 0.0 0.264 L 0.0 0.0 Z" style="vector-effect: non-scaling-stroke;" /></g><g><g><g><g><g><g><g><g transform="matrix(1.0, 0.0, 0.0, 1.0, -0.41500000000000004, -0.03)"><g><g><g transform="matrix(1.0, 0.0, 0.0, 1.0, 0.075, 0.0)"><g transform="matrix(1.0, 0.0, 0.0, 1.0, 0.0, 0.03)"><g transform="matrix(0.01, 0.0, 0.0, 0.01, 0.0, 0.0)"><g><g><g transform="matrix(1.0, 0.0, 0.0, 1.0, 12.5, 0.0)"><g transform="matrix(1.0, 0.0, 0.0, 1.0, -20.0, -0.0)"><g><g style="fill: #d3d3d3;stroke: black;stroke-width: 1.2000000000000002;" transform="matrix(1.0, 0.0, 0.0, 1.0, 0.0, -3.0)"><path d="M 0.0 0.0 L 40.0 0.0 L 40.0 6.0 L 0.0 6.0 L 0.0 0.0 Z" style="vector-effect: non-scaling-stroke;" /></g><g transform="matrix(1.0, 0.0, 0.0, 1.0, 1.875, 0.0)"><g><g style="stroke: black;stroke-width: 1.2000000000000002;" transform="matrix(1.0, 0.0, 0.0, 1.0, 0.0, 0.0)"><g /></g><g style="fill: #ffa500;stroke: black;stroke-width: 1.2000000000000002;" transform="matrix(1.0, 0.0, 0.0, 1.0, 1.875, 0.0)"><text style="text-align:center; text-anchor:middle; dominant-baseline:middle;&#10;                      font-family:sans-serif; font-weight: bold;&#10;                      font-size:3px;&#10;                      vector-effect: non-scaling-stroke;" transform="translate(-5e-05, 0)">x</text></g></g></g></g></g></g><g><g><g><g><g style="stroke: black;stroke-width: 1.2000000000000002;" transform="matrix(1.0, 0.0, 0.0, 1.0, 0.0, 0.0)"><path d="M 0.0 -2.0 L 0.0 2.0" style="vector-effect: non-scaling-stroke;fill:none;" /></g><g style="stroke: #808080;stroke-width: 0.6000000000000001;" transform="matrix(1.0, 0.0, 0.0, 1.0, 0.0, 0.0)"><path d="M 0.0 0.0 L 25.0 0.0" style="vector-effect: non-scaling-stroke;fill:none;" /></g></g><g style="stroke: black;stroke-width: 2.4000000000000004;" transform="matrix(1.0, 0.0, 0.0, 1.0, 0.0, 0.0)"><path d="M 0.0 0.005311056971549988 L 1.0 0.005311056971549988 L 1.0 0.6617961525917053 L 2.0 0.6617961525917053 L 2.0 -0.029221951961517334 L 3.0 -0.029221951961517334 L 3.0 -0.5955145359039307 L 4.0 -0.5955145359039307 L 4.0 -0.28756967186927795 L 5.0 -0.28756967186927795 L 5.0 -1.1414746046066284 L 6.0 -1.1414746046066284 L 6.0 0.029801758006215096 L 7.0 0.029801758006215096 L 7.0 -0.5384460091590881 L 8.0 -0.5384460091590881 L 8.0 -0.7264551520347595 L 9.0 -0.7264551520347595 L 9.0 -0.7654497623443604 L 10.0 -0.7654497623443604 L 10.0 0.06270832568407059 L 11.0 0.06270832568407059 L 11.0 -1.5212970972061157 L 12.0 -1.5212970972061157 L 12.0 -0.8081479072570801 L 13.0 -0.8081479072570801 L 13.0 -1.4235832691192627 L 14.0 -1.4235832691192627 L 14.0 -0.31076791882514954 L 15.0 -0.31076791882514954 L 15.0 -0.3787614107131958 L 16.0 -0.3787614107131958 L 16.0 -1.1808154582977295 L 17.0 -1.1808154582977295 L 17.0 -0.852485179901123 L 18.0 -0.852485179901123 L 18.0 -1.745559573173523 L 19.0 -1.745559573173523 L 19.0 -0.6974199414253235 L 20.0 -0.6974199414253235 L 20.0 -0.5488577485084534 L 21.0 -0.5488577485084534 L 21.0 -0.821071445941925 L 22.0 -0.821071445941925 L 22.0 -0.8402944207191467 L 23.0 -0.8402944207191467 L 23.0 -0.12001878023147583 L 24.0 -0.12001878023147583 L 24.0 -1.3758478164672852 L 25.0 -1.3758478164672852" style="vector-effect: non-scaling-stroke;fill:none;" /></g></g><g style="stroke: black;stroke-width: 1.2000000000000002;" transform="matrix(1.0, 0.0, 0.0, 1.0, 0.0, 0.0)"><path d="M 0.0 -2.0 L 0.0 2.0" style="vector-effect: non-scaling-stroke;fill:none;" /></g></g></g></g><g><g><g><g><g style="stroke: black;stroke-width: 1.2000000000000002;" transform="matrix(1.0, 0.0, 0.0, 1.0, 0.0, 0.0)"><path d="M 0.0 -2.0 L 0.0 2.0" style="vector-effect: non-scaling-stroke;fill:none;" /></g><g style="stroke: #808080;stroke-width: 0.6000000000000001;" transform="matrix(1.0, 0.0, 0.0, 1.0, 0.0, 0.0)"><path d="M 0.0 0.0 L 25.0 0.0" style="vector-effect: non-scaling-stroke;fill:none;" /></g></g><g style="stroke: black;stroke-width: 2.4000000000000004;" transform="matrix(1.0, 0.0, 0.0, 1.0, 0.0, 0.0)"><path d="M 0.0 0.005311056971549988 L 1.0 0.005311056971549988 L 1.0 0.6617961525917053 L 2.0 0.6617961525917053 L 2.0 -0.029221951961517334 L 3.0 -0.029221951961517334 L 3.0 -0.5955145359039307 L 4.0 -0.5955145359039307 L 4.0 -0.28756967186927795 L 5.0 -0.28756967186927795 L 5.0 -1.1414746046066284 L 6.0 -1.1414746046066284 L 6.0 0.029801758006215096 L 7.0 0.029801758006215096 L 7.0 -0.5384460091590881 L 8.0 -0.5384460091590881 L 8.0 -0.7264551520347595 L 9.0 -0.7264551520347595 L 9.0 -0.7654497623443604 L 10.0 -0.7654497623443604 L 10.0 0.06270832568407059 L 11.0 0.06270832568407059 L 11.0 -1.5212970972061157 L 12.0 -1.5212970972061157 L 12.0 -0.8081479072570801 L 13.0 -0.8081479072570801 L 13.0 -1.4235832691192627 L 14.0 -1.4235832691192627 L 14.0 -0.31076791882514954 L 15.0 -0.31076791882514954 L 15.0 -0.3787614107131958 L 16.0 -0.3787614107131958 L 16.0 -1.1808154582977295 L 17.0 -1.1808154582977295 L 17.0 -0.852485179901123 L 18.0 -0.852485179901123 L 18.0 -1.745559573173523 L 19.0 -1.745559573173523 L 19.0 -0.6974199414253235 L 20.0 -0.6974199414253235 L 20.0 -0.5488577485084534 L 21.0 -0.5488577485084534 L 21.0 -0.821071445941925 L 22.0 -0.821071445941925 L 22.0 -0.8402944207191467 L 23.0 -0.8402944207191467 L 23.0 -0.12001878023147583 L 24.0 -0.12001878023147583 L 24.0 -1.3758478164672852 L 25.0 -1.3758478164672852" style="vector-effect: non-scaling-stroke;fill:none;" /></g></g><g style="stroke: black;stroke-width: 1.2000000000000002;" transform="matrix(1.0, 0.0, 0.0, 1.0, 0.0, 0.0)"><path d="M 0.0 -2.0 L 0.0 2.0" style="vector-effect: non-scaling-stroke;fill:none;" /></g></g></g></g></g></g></g><g style="stroke: black;stroke-width: 1.2000000000000002;" transform="matrix(1.0, 0.0, 0.0, 1.0, 0.41500000000000004, 0.0)"><g /></g></g><g transform="matrix(1.0, 0.0, 0.0, 1.0, 0.43000000000000005, 0.0)"><g transform="matrix(1.0, 0.0, 0.0, 1.0, 0.075, 0.0)"><g transform="matrix(1.0, 0.0, 0.0, 1.0, 0.0, 0.03)"><g transform="matrix(0.01, 0.0, 0.0, 0.01, 0.0, 0.0)"><g><g><g transform="matrix(1.0, 0.0, 0.0, 1.0, 12.5, 0.0)"><g transform="matrix(1.0, 0.0, 0.0, 1.0, -20.0, -0.0)"><g><g style="fill: #d3d3d3;stroke: black;stroke-width: 1.2000000000000002;" transform="matrix(1.0, 0.0, 0.0, 1.0, 0.0, -3.0)"><path d="M 0.0 0.0 L 40.0 0.0 L 40.0 6.0 L 0.0 6.0 L 0.0 0.0 Z" style="vector-effect: non-scaling-stroke;" /></g><g transform="matrix(1.0, 0.0, 0.0, 1.0, 1.875, 0.0)"><g><g style="stroke: black;stroke-width: 1.2000000000000002;" transform="matrix(1.0, 0.0, 0.0, 1.0, 0.0, 0.0)"><g /></g><g style="fill: #ffa500;stroke: black;stroke-width: 1.2000000000000002;" transform="matrix(1.0, 0.0, 0.0, 1.0, 1.875, 0.0)"><text style="text-align:center; text-anchor:middle; dominant-baseline:middle;&#10;                      font-family:sans-serif; font-weight: bold;&#10;                      font-size:3px;&#10;                      vector-effect: non-scaling-stroke;" transform="translate(-5e-05, 0)">y</text></g></g></g></g></g></g><g><g><g><g style="stroke: black;stroke-width: 1.2000000000000002;" transform="matrix(1.0, 0.0, 0.0, 1.0, 0.0, 0.0)"><path d="M 0.0 -2.0 L 0.0 2.0" style="vector-effect: non-scaling-stroke;fill:none;" /></g><g style="stroke: #808080;stroke-width: 0.6000000000000001;" transform="matrix(1.0, 0.0, 0.0, 1.0, 0.0, 0.0)"><path d="M 0.0 0.0 L 25.0 0.0" style="vector-effect: non-scaling-stroke;fill:none;" /></g></g><g style="stroke: black;stroke-width: 2.4000000000000004;" transform="matrix(1.0, 0.0, 0.0, 1.0, 0.0, 0.0)"><path d="M 0.0 -0.7104760408401489 L 1.0 -0.7104760408401489 L 1.0 -0.8866549730300903 L 2.0 -0.8866549730300903 L 2.0 -0.5337659120559692 L 3.0 -0.5337659120559692 L 3.0 -1.97091805934906 L 4.0 -1.97091805934906 L 4.0 -1.27131187915802 L 5.0 -1.27131187915802 L 5.0 -1.3876806497573853 L 6.0 -1.3876806497573853 L 6.0 -1.7807198762893677 L 7.0 -1.7807198762893677 L 7.0 -0.7823610305786133 L 8.0 -0.7823610305786133 L 8.0 -1.4078423976898193 L 9.0 -1.4078423976898193 L 9.0 -1.8414782285690308 L 10.0 -1.8414782285690308 L 10.0 -0.1485409289598465 L 11.0 -0.1485409289598465 L 11.0 -1.0431902408599854 L 12.0 -1.0431902408599854 L 12.0 -0.09622325748205185 L 13.0 -0.09622325748205185 L 13.0 -0.26951152086257935 L 14.0 -0.26951152086257935 L 14.0 -1.3328336477279663 L 15.0 -1.3328336477279663 L 15.0 -0.8747767806053162 L 16.0 -0.8747767806053162 L 16.0 -1.4892016649246216 L 17.0 -1.4892016649246216 L 17.0 0.11869626492261887 L 18.0 0.11869626492261887 L 18.0 -1.2941701412200928 L 19.0 -1.2941701412200928 L 19.0 -0.487885057926178 L 20.0 -0.487885057926178 L 20.0 -1.3998547792434692 L 21.0 -1.3998547792434692 L 21.0 -0.6406936049461365 L 22.0 -0.6406936049461365 L 22.0 -1.6183596849441528 L 23.0 -1.6183596849441528 L 23.0 -1.5249296426773071 L 24.0 -1.5249296426773071 L 24.0 -0.435707688331604 L 25.0 -0.435707688331604" style="vector-effect: non-scaling-stroke;fill:none;" /></g></g></g></g><g><g><g><g style="stroke: black;stroke-width: 1.2000000000000002;" transform="matrix(1.0, 0.0, 0.0, 1.0, 0.0, 0.0)"><path d="M 0.0 -2.0 L 0.0 2.0" style="vector-effect: non-scaling-stroke;fill:none;" /></g><g style="stroke: #808080;stroke-width: 0.6000000000000001;" transform="matrix(1.0, 0.0, 0.0, 1.0, 0.0, 0.0)"><path d="M 0.0 0.0 L 25.0 0.0" style="vector-effect: non-scaling-stroke;fill:none;" /></g></g><g style="stroke: black;stroke-width: 2.4000000000000004;" transform="matrix(1.0, 0.0, 0.0, 1.0, 0.0, 0.0)"><path d="M 0.0 -0.7104760408401489 L 1.0 -0.7104760408401489 L 1.0 -0.8866549730300903 L 2.0 -0.8866549730300903 L 2.0 -0.5337659120559692 L 3.0 -0.5337659120559692 L 3.0 -1.97091805934906 L 4.0 -1.97091805934906 L 4.0 -1.27131187915802 L 5.0 -1.27131187915802 L 5.0 -1.3876806497573853 L 6.0 -1.3876806497573853 L 6.0 -1.7807198762893677 L 7.0 -1.7807198762893677 L 7.0 -0.7823610305786133 L 8.0 -0.7823610305786133 L 8.0 -1.4078423976898193 L 9.0 -1.4078423976898193 L 9.0 -1.8414782285690308 L 10.0 -1.8414782285690308 L 10.0 -0.1485409289598465 L 11.0 -0.1485409289598465 L 11.0 -1.0431902408599854 L 12.0 -1.0431902408599854 L 12.0 -0.09622325748205185 L 13.0 -0.09622325748205185 L 13.0 -0.26951152086257935 L 14.0 -0.26951152086257935 L 14.0 -1.3328336477279663 L 15.0 -1.3328336477279663 L 15.0 -0.8747767806053162 L 16.0 -0.8747767806053162 L 16.0 -1.4892016649246216 L 17.0 -1.4892016649246216 L 17.0 0.11869626492261887 L 18.0 0.11869626492261887 L 18.0 -1.2941701412200928 L 19.0 -1.2941701412200928 L 19.0 -0.487885057926178 L 20.0 -0.487885057926178 L 20.0 -1.3998547792434692 L 21.0 -1.3998547792434692 L 21.0 -0.6406936049461365 L 22.0 -0.6406936049461365 L 22.0 -1.6183596849441528 L 23.0 -1.6183596849441528 L 23.0 -1.5249296426773071 L 24.0 -1.5249296426773071 L 24.0 -0.435707688331604 L 25.0 -0.435707688331604" style="vector-effect: non-scaling-stroke;fill:none;" /></g></g></g></g></g></g></g></g></g></g><g style="stroke: black;stroke-width: 1.2000000000000002;" transform="matrix(0.0, -1.0, 1.0, 0.0, 0.0, 0.08)"><g /></g></g><g transform="matrix(1.0, 0.0, 0.0, 1.0, 0.0, 0.16)"><g transform="matrix(1.0, 0.0, 0.0, 1.0, -0.2, -0.03)"><g transform="matrix(1.0, 0.0, 0.0, 1.0, 0.075, 0.0)"><g transform="matrix(1.0, 0.0, 0.0, 1.0, 0.0, 0.03)"><g transform="matrix(0.01, 0.0, 0.0, 0.01, 0.0, 0.0)"><g><g><g transform="matrix(1.0, 0.0, 0.0, 1.0, 12.5, 0.0)"><g transform="matrix(1.0, 0.0, 0.0, 1.0, -20.0, -0.0)"><g><g style="fill: #d3d3d3;stroke: black;stroke-width: 1.2000000000000002;" transform="matrix(1.0, 0.0, 0.0, 1.0, 0.0, -3.0)"><path d="M 0.0 0.0 L 40.0 0.0 L 40.0 6.0 L 0.0 6.0 L 0.0 0.0 Z" style="vector-effect: non-scaling-stroke;" /></g><g transform="matrix(1.0, 0.0, 0.0, 1.0, 1.875, 0.0)"><g><g style="stroke: black;stroke-width: 1.2000000000000002;" transform="matrix(1.0, 0.0, 0.0, 1.0, 0.0, 0.0)"><g /></g><g style="fill: #ffa500;stroke: black;stroke-width: 1.2000000000000002;" transform="matrix(1.0, 0.0, 0.0, 1.0, 1.875, 0.0)"><text style="text-align:center; text-anchor:middle; dominant-baseline:middle;&#10;                      font-family:sans-serif; font-weight: bold;&#10;                      font-size:3px;&#10;                      vector-effect: non-scaling-stroke;" transform="translate(-5e-05, 0)">f(x)</text></g></g></g></g></g></g><g><g><g><g style="stroke: black;stroke-width: 1.2000000000000002;" transform="matrix(1.0, 0.0, 0.0, 1.0, 0.0, 0.0)"><path d="M 0.0 -2.0 L 0.0 2.0" style="vector-effect: non-scaling-stroke;fill:none;" /></g><g style="stroke: #808080;stroke-width: 0.6000000000000001;" transform="matrix(1.0, 0.0, 0.0, 1.0, 0.0, 0.0)"><path d="M 0.0 0.0 L 25.0 0.0" style="vector-effect: non-scaling-stroke;fill:none;" /></g></g><g style="stroke: black;stroke-width: 2.4000000000000004;" transform="matrix(1.0, 0.0, 0.0, 1.0, 0.0, 0.0)"><path d="M 0.0 0.0018866893369704485 L 1.0 0.0018866893369704485 L 1.0 0.2933924198150635 L 2.0 0.2933924198150635 L 2.0 -0.007798840757459402 L 3.0 -0.007798840757459402 L 3.0 -0.5868551731109619 L 4.0 -0.5868551731109619 L 4.0 -0.18279537558555603 L 5.0 -0.18279537558555603 L 5.0 -0.7920011281967163 L 6.0 -0.7920011281967163 L 6.0 0.026534290984272957 L 7.0 0.026534290984272957 L 7.0 -0.21062958240509033 L 8.0 -0.21062958240509033 L 8.0 -0.5113672018051147 L 9.0 -0.5113672018051147 L 9.0 -0.7047795653343201 L 10.0 -0.7047795653343201 L 10.0 0.004657376557588577 L 11.0 0.004657376557588577 L 11.0 -0.7935011386871338 L 12.0 -0.7935011386871338 L 12.0 -0.03888131305575371 L 13.0 -0.03888131305575371 L 13.0 -0.19183604419231415 L 14.0 -0.19183604419231415 L 14.0 -0.207100972533226 L 15.0 -0.207100972533226 L 15.0 -0.16566585004329681 L 16.0 -0.16566585004329681 L 16.0 -0.8792361617088318 L 17.0 -0.8792361617088318 L 17.0 0.05059340223670006 L 18.0 0.05059340223670006 L 18.0 -1.1295255422592163 L 19.0 -1.1295255422592163 L 19.0 -0.1701303869485855 L 20.0 -0.1701303869485855 L 20.0 -0.384160578250885 L 21.0 -0.384160578250885 L 21.0 -0.2630276083946228 L 22.0 -0.2630276083946228 L 22.0 -0.6799492835998535 L 23.0 -0.6799492835998535 L 23.0 -0.0915100947022438 L 24.0 -0.0915100947022438 L 24.0 -0.2997337281703949 L 25.0 -0.2997337281703949" style="vector-effect: non-scaling-stroke;fill:none;" /></g></g></g></g><g><g><g><g style="stroke: black;stroke-width: 1.2000000000000002;" transform="matrix(1.0, 0.0, 0.0, 1.0, 0.0, 0.0)"><path d="M 0.0 -2.0 L 0.0 2.0" style="vector-effect: non-scaling-stroke;fill:none;" /></g><g style="stroke: #808080;stroke-width: 0.6000000000000001;" transform="matrix(1.0, 0.0, 0.0, 1.0, 0.0, 0.0)"><path d="M 0.0 0.0 L 25.0 0.0" style="vector-effect: non-scaling-stroke;fill:none;" /></g></g><g style="stroke: black;stroke-width: 2.4000000000000004;" transform="matrix(1.0, 0.0, 0.0, 1.0, 0.0, 0.0)"><path d="M 0.0 0.0018866893369704485 L 1.0 0.0018866893369704485 L 1.0 0.2933924198150635 L 2.0 0.2933924198150635 L 2.0 -0.007798840757459402 L 3.0 -0.007798840757459402 L 3.0 -0.5868551731109619 L 4.0 -0.5868551731109619 L 4.0 -0.18279537558555603 L 5.0 -0.18279537558555603 L 5.0 -0.7920011281967163 L 6.0 -0.7920011281967163 L 6.0 0.026534290984272957 L 7.0 0.026534290984272957 L 7.0 -0.21062958240509033 L 8.0 -0.21062958240509033 L 8.0 -0.5113672018051147 L 9.0 -0.5113672018051147 L 9.0 -0.7047795653343201 L 10.0 -0.7047795653343201 L 10.0 0.004657376557588577 L 11.0 0.004657376557588577 L 11.0 -0.7935011386871338 L 12.0 -0.7935011386871338 L 12.0 -0.03888131305575371 L 13.0 -0.03888131305575371 L 13.0 -0.19183604419231415 L 14.0 -0.19183604419231415 L 14.0 -0.207100972533226 L 15.0 -0.207100972533226 L 15.0 -0.16566585004329681 L 16.0 -0.16566585004329681 L 16.0 -0.8792361617088318 L 17.0 -0.8792361617088318 L 17.0 0.05059340223670006 L 18.0 0.05059340223670006 L 18.0 -1.1295255422592163 L 19.0 -1.1295255422592163 L 19.0 -0.1701303869485855 L 20.0 -0.1701303869485855 L 20.0 -0.384160578250885 L 21.0 -0.384160578250885 L 21.0 -0.2630276083946228 L 22.0 -0.2630276083946228 L 22.0 -0.6799492835998535 L 23.0 -0.6799492835998535 L 23.0 -0.0915100947022438 L 24.0 -0.0915100947022438 L 24.0 -0.2997337281703949 L 25.0 -0.2997337281703949" style="vector-effect: non-scaling-stroke;fill:none;" /></g></g></g></g></g></g></g></g></g></g><g transform="matrix(1.0, 0.0, 0.0, 1.0, -0.125, 0.16)"><g transform="matrix(1.0, 0.0, 0.0, 0.009999999999999995, 0.0, 0.0)"><g transform="matrix(0.01, 0.0, 0.0, 1.0, 0.0, 0.0)"><g><g><g style="fill: #ffffe0;stroke: #ffffe0;stroke-width: 1.2000000000000002;fill-opacity: 0.5;" transform="matrix(1.0, 0.0, 0.0, 1.0, 0.0, 0.0)"><path d="M 0.0 -2.0 L 0.0 2.0" style="vector-effect: non-scaling-stroke;fill:none;" /></g><g style="fill: #ffffe0;stroke: #ffffe0;stroke-width: 1.2000000000000002;fill-opacity: 0.5;" transform="matrix(1.0, 0.0, 0.0, 1.0, 0.0, 0.0)"><path d="M 0.0 -0.7085960507392883 L 1.0 -0.7085960507392883 L 1.0 -0.5947167873382568 L 2.0 -0.5947167873382568 L 2.0 -0.5415398478507996 L 3.0 -0.5415398478507996 L 3.0 -2.0 L 4.0 -2.0 L 4.0 -1.4538644552230835 L 5.0 -1.4538644552230835 L 5.0 -2.0 L 6.0 -2.0 L 6.0 -1.7541544437408447 L 7.0 -1.7541544437408447 L 7.0 -0.994430661201477 L 8.0 -0.994430661201477 L 8.0 -1.9180368185043335 L 9.0 -1.9180368185043335 L 9.0 -2.0 L 10.0 -2.0 L 10.0 -0.14388857781887054 L 11.0 -0.14388857781887054 L 11.0 -1.8365824222564697 L 12.0 -1.8365824222564697 L 12.0 -0.1349938064813614 L 13.0 -0.1349938064813614 L 13.0 -0.4615470767021179 L 14.0 -0.4615470767021179 L 14.0 -1.5392647981643677 L 15.0 -1.5392647981643677 L 15.0 -1.0403640270233154 L 16.0 -1.0403640270233154 L 16.0 -2.0 L 17.0 -2.0 L 17.0 0.16943016648292542 L 18.0 0.16943016648292542 L 18.0 -2.0 L 19.0 -2.0 L 19.0 -0.6588884592056274 L 20.0 -0.6588884592056274 L 20.0 -1.78486967086792 L 21.0 -1.78486967086792 L 21.0 -0.903777539730072 L 22.0 -0.903777539730072 L 22.0 -2.0 L 23.0 -2.0 L 23.0 -1.6166439056396484 L 24.0 -1.6166439056396484 L 24.0 -0.7378278970718384 L 25.0 -0.7378278970718384 L 25.0 -0.2997337281703949 L 24.0 -0.2997337281703949 L 24.0 -0.0915100947022438 L 23.0 -0.0915100947022438 L 23.0 -0.6799492835998535 L 22.0 -0.6799492835998535 L 22.0 -0.2630276083946228 L 21.0 -0.2630276083946228 L 21.0 -0.384160578250885 L 20.0 -0.384160578250885 L 20.0 -0.1701303869485855 L 19.0 -0.1701303869485855 L 19.0 -1.1295255422592163 L 18.0 -1.1295255422592163 L 18.0 0.05059340223670006 L 17.0 0.05059340223670006 L 17.0 -0.8792361617088318 L 16.0 -0.8792361617088318 L 16.0 -0.16566585004329681 L 15.0 -0.16566585004329681 L 15.0 -0.207100972533226 L 14.0 -0.207100972533226 L 14.0 -0.19183604419231415 L 13.0 -0.19183604419231415 L 13.0 -0.03888131305575371 L 12.0 -0.03888131305575371 L 12.0 -0.7935011386871338 L 11.0 -0.7935011386871338 L 11.0 0.004657376557588577 L 10.0 0.004657376557588577 L 10.0 -0.7047795653343201 L 9.0 -0.7047795653343201 L 9.0 -0.5113672018051147 L 8.0 -0.5113672018051147 L 8.0 -0.21062958240509033 L 7.0 -0.21062958240509033 L 7.0 0.026534290984272957 L 6.0 0.026534290984272957 L 6.0 -0.7920011281967163 L 5.0 -0.7920011281967163 L 5.0 -0.18279537558555603 L 4.0 -0.18279537558555603 L 4.0 -0.5868551731109619 L 3.0 -0.5868551731109619 L 3.0 -0.007798840757459402 L 2.0 -0.007798840757459402 L 2.0 0.2933924198150635 L 1.0 0.2933924198150635 L 1.0 0.0018866893369704485 L 0.0 0.0018866893369704485 Z" style="vector-effect: non-scaling-stroke;" /></g></g><g style="stroke: black;stroke-width: 1.2000000000000002;" transform="matrix(1.0, 0.0, 0.0, 1.0, 0.0, 0.0)"><path d="M 0.0 0.0018866893369704485 L 1.0 0.0018866893369704485 L 1.0 0.2933924198150635 L 2.0 0.2933924198150635 L 2.0 -0.007798840757459402 L 3.0 -0.007798840757459402 L 3.0 -0.5868551731109619 L 4.0 -0.5868551731109619 L 4.0 -0.18279537558555603 L 5.0 -0.18279537558555603 L 5.0 -0.7920011281967163 L 6.0 -0.7920011281967163 L 6.0 0.026534290984272957 L 7.0 0.026534290984272957 L 7.0 -0.21062958240509033 L 8.0 -0.21062958240509033 L 8.0 -0.5113672018051147 L 9.0 -0.5113672018051147 L 9.0 -0.7047795653343201 L 10.0 -0.7047795653343201 L 10.0 0.004657376557588577 L 11.0 0.004657376557588577 L 11.0 -0.7935011386871338 L 12.0 -0.7935011386871338 L 12.0 -0.03888131305575371 L 13.0 -0.03888131305575371 L 13.0 -0.19183604419231415 L 14.0 -0.19183604419231415 L 14.0 -0.207100972533226 L 15.0 -0.207100972533226 L 15.0 -0.16566585004329681 L 16.0 -0.16566585004329681 L 16.0 -0.8792361617088318 L 17.0 -0.8792361617088318 L 17.0 0.05059340223670006 L 18.0 0.05059340223670006 L 18.0 -1.1295255422592163 L 19.0 -1.1295255422592163 L 19.0 -0.1701303869485855 L 20.0 -0.1701303869485855 L 20.0 -0.384160578250885 L 21.0 -0.384160578250885 L 21.0 -0.2630276083946228 L 22.0 -0.2630276083946228 L 22.0 -0.6799492835998535 L 23.0 -0.6799492835998535 L 23.0 -0.0915100947022438 L 24.0 -0.0915100947022438 L 24.0 -0.2997337281703949 L 25.0 -0.2997337281703949" style="vector-effect: non-scaling-stroke;fill:none;" /></g></g></g></g></g></g><g transform="matrix(1.0, 0.0, 0.0, 1.0, -0.125, 0.16)"><g transform="matrix(1.0, 0.0, 0.0, 0.009999999999999995, 0.0, 0.0)"><g transform="matrix(0.01, 0.0, 0.0, 1.0, 0.0, 0.0)"><g><g><g style="fill: #add8e6;stroke: #add8e6;stroke-width: 1.2000000000000002;fill-opacity: 0.5;" transform="matrix(1.0, 0.0, 0.0, 1.0, 0.0, 0.0)"><path d="M 0.0 -2.0 L 0.0 2.0" style="vector-effect: non-scaling-stroke;fill:none;" /></g><g style="fill: #add8e6;stroke: #add8e6;stroke-width: 1.2000000000000002;fill-opacity: 0.5;" transform="matrix(1.0, 0.0, 0.0, 1.0, 0.0, 0.0)"><path d="M 0.0 0.007206869311630726 L 1.0 0.007206869311630726 L 1.0 0.957984209060669 L 2.0 0.957984209060669 L 2.0 -0.03708893433213234 L 3.0 -0.03708893433213234 L 3.0 -1.1829016208648682 L 4.0 -1.1829016208648682 L 4.0 -0.4703877866268158 L 5.0 -0.4703877866268158 L 5.0 -1.9304498434066772 L 6.0 -1.9304498434066772 L 6.0 0.05633661150932312 L 7.0 0.05633661150932312 L 7.0 -0.7500516176223755 L 8.0 -0.7500516176223755 L 8.0 -1.2385438680648804 L 9.0 -1.2385438680648804 L 9.0 -1.4677190780639648 L 10.0 -1.4677190780639648 L 10.0 0.06733538210391998 L 11.0 0.06733538210391998 L 11.0 -2.0 L 12.0 -2.0 L 12.0 -0.846896767616272 L 13.0 -0.846896767616272 L 13.0 -1.6148968935012817 L 14.0 -1.6148968935012817 L 14.0 -0.5185352563858032 L 15.0 -0.5185352563858032 L 15.0 -0.5441553592681885 L 16.0 -0.5441553592681885 L 16.0 -2.0 L 17.0 -2.0 L 17.0 -0.801753044128418 L 18.0 -0.801753044128418 L 18.0 -2.0 L 19.0 -2.0 L 19.0 -0.8675047159194946 L 20.0 -0.8675047159194946 L 20.0 -0.9325233101844788 L 21.0 -0.9325233101844788 L 21.0 -1.0855717658996582 L 22.0 -1.0855717658996582 L 22.0 -1.5263352394104004 L 23.0 -1.5263352394104004 L 23.0 -0.21220949292182922 L 24.0 -0.21220949292182922 L 24.0 -1.6766010522842407 L 25.0 -1.6766010522842407 L 25.0 -0.2997337281703949 L 24.0 -0.2997337281703949 L 24.0 -0.0915100947022438 L 23.0 -0.0915100947022438 L 23.0 -0.6799492835998535 L 22.0 -0.6799492835998535 L 22.0 -0.2630276083946228 L 21.0 -0.2630276083946228 L 21.0 -0.384160578250885 L 20.0 -0.384160578250885 L 20.0 -0.1701303869485855 L 19.0 -0.1701303869485855 L 19.0 -1.1295255422592163 L 18.0 -1.1295255422592163 L 18.0 0.05059340223670006 L 17.0 0.05059340223670006 L 17.0 -0.8792361617088318 L 16.0 -0.8792361617088318 L 16.0 -0.16566585004329681 L 15.0 -0.16566585004329681 L 15.0 -0.207100972533226 L 14.0 -0.207100972533226 L 14.0 -0.19183604419231415 L 13.0 -0.19183604419231415 L 13.0 -0.03888131305575371 L 12.0 -0.03888131305575371 L 12.0 -0.7935011386871338 L 11.0 -0.7935011386871338 L 11.0 0.004657376557588577 L 10.0 0.004657376557588577 L 10.0 -0.7047795653343201 L 9.0 -0.7047795653343201 L 9.0 -0.5113672018051147 L 8.0 -0.5113672018051147 L 8.0 -0.21062958240509033 L 7.0 -0.21062958240509033 L 7.0 0.026534290984272957 L 6.0 0.026534290984272957 L 6.0 -0.7920011281967163 L 5.0 -0.7920011281967163 L 5.0 -0.18279537558555603 L 4.0 -0.18279537558555603 L 4.0 -0.5868551731109619 L 3.0 -0.5868551731109619 L 3.0 -0.007798840757459402 L 2.0 -0.007798840757459402 L 2.0 0.2933924198150635 L 1.0 0.2933924198150635 L 1.0 0.0018866893369704485 L 0.0 0.0018866893369704485 Z" style="vector-effect: non-scaling-stroke;" /></g></g><g style="stroke: black;stroke-width: 1.2000000000000002;" transform="matrix(1.0, 0.0, 0.0, 1.0, 0.0, 0.0)"><path d="M 0.0 0.0018866893369704485 L 1.0 0.0018866893369704485 L 1.0 0.2933924198150635 L 2.0 0.2933924198150635 L 2.0 -0.007798840757459402 L 3.0 -0.007798840757459402 L 3.0 -0.5868551731109619 L 4.0 -0.5868551731109619 L 4.0 -0.18279537558555603 L 5.0 -0.18279537558555603 L 5.0 -0.7920011281967163 L 6.0 -0.7920011281967163 L 6.0 0.026534290984272957 L 7.0 0.026534290984272957 L 7.0 -0.21062958240509033 L 8.0 -0.21062958240509033 L 8.0 -0.5113672018051147 L 9.0 -0.5113672018051147 L 9.0 -0.7047795653343201 L 10.0 -0.7047795653343201 L 10.0 0.004657376557588577 L 11.0 0.004657376557588577 L 11.0 -0.7935011386871338 L 12.0 -0.7935011386871338 L 12.0 -0.03888131305575371 L 13.0 -0.03888131305575371 L 13.0 -0.19183604419231415 L 14.0 -0.19183604419231415 L 14.0 -0.207100972533226 L 15.0 -0.207100972533226 L 15.0 -0.16566585004329681 L 16.0 -0.16566585004329681 L 16.0 -0.8792361617088318 L 17.0 -0.8792361617088318 L 17.0 0.05059340223670006 L 18.0 0.05059340223670006 L 18.0 -1.1295255422592163 L 19.0 -1.1295255422592163 L 19.0 -0.1701303869485855 L 20.0 -0.1701303869485855 L 20.0 -0.384160578250885 L 21.0 -0.384160578250885 L 21.0 -0.2630276083946228 L 22.0 -0.2630276083946228 L 22.0 -0.6799492835998535 L 23.0 -0.6799492835998535 L 23.0 -0.0915100947022438 L 24.0 -0.0915100947022438 L 24.0 -0.2997337281703949 L 25.0 -0.2997337281703949" style="vector-effect: non-scaling-stroke;fill:none;" /></g></g></g></g></g></g><g transform="matrix(1.0, 0.0, 0.0, 1.0, -0.125, 0.16)"><g transform="matrix(1.0, 0.0, 0.0, 0.009999999999999995, 0.0, 0.0)"><g transform="matrix(0.01, 0.0, 0.0, 1.0, 0.0, 0.0)"><g><g><g style="fill: #ff8c00;stroke: #ff8c00;stroke-width: 1.2000000000000002;fill-opacity: 0.5;" transform="matrix(1.0, 0.0, 0.0, 1.0, 0.0, 0.0)"><path d="M 0.0 -2.0 L 0.0 2.0" style="vector-effect: non-scaling-stroke;fill:none;" /></g><g style="fill: #ff8c00;stroke: #ff8c00;stroke-width: 1.2000000000000002;fill-opacity: 0.5;" transform="matrix(1.0, 0.0, 0.0, 1.0, 0.0, 0.0)"><path d="M 0.0 0.0018866893369704485 L 1.0 0.0018866893369704485 L 1.0 0.2933924198150635 L 2.0 0.2933924198150635 L 2.0 -0.007798840757459402 L 3.0 -0.007798840757459402 L 3.0 -0.5868551731109619 L 4.0 -0.5868551731109619 L 4.0 -0.18279537558555603 L 5.0 -0.18279537558555603 L 5.0 -0.7920011281967163 L 6.0 -0.7920011281967163 L 6.0 0.026534290984272957 L 7.0 0.026534290984272957 L 7.0 -0.21062958240509033 L 8.0 -0.21062958240509033 L 8.0 -0.5113672018051147 L 9.0 -0.5113672018051147 L 9.0 -0.7047795653343201 L 10.0 -0.7047795653343201 L 10.0 0.004657376557588577 L 11.0 0.004657376557588577 L 11.0 -0.7935011386871338 L 12.0 -0.7935011386871338 L 12.0 -0.03888131305575371 L 13.0 -0.03888131305575371 L 13.0 -0.19183604419231415 L 14.0 -0.19183604419231415 L 14.0 -0.207100972533226 L 15.0 -0.207100972533226 L 15.0 -0.16566585004329681 L 16.0 -0.16566585004329681 L 16.0 -0.8792361617088318 L 17.0 -0.8792361617088318 L 17.0 0.05059340223670006 L 18.0 0.05059340223670006 L 18.0 -1.1295255422592163 L 19.0 -1.1295255422592163 L 19.0 -0.1701303869485855 L 20.0 -0.1701303869485855 L 20.0 -0.384160578250885 L 21.0 -0.384160578250885 L 21.0 -0.2630276083946228 L 22.0 -0.2630276083946228 L 22.0 -0.6799492835998535 L 23.0 -0.6799492835998535 L 23.0 -0.0915100947022438 L 24.0 -0.0915100947022438 L 24.0 -0.2997337281703949 L 25.0 -0.2997337281703949 L 25.0 -0.2997337281703949 L 24.0 -0.2997337281703949 L 24.0 -0.0915100947022438 L 23.0 -0.0915100947022438 L 23.0 -0.6799492835998535 L 22.0 -0.6799492835998535 L 22.0 -0.2630276083946228 L 21.0 -0.2630276083946228 L 21.0 -0.384160578250885 L 20.0 -0.384160578250885 L 20.0 -0.1701303869485855 L 19.0 -0.1701303869485855 L 19.0 -1.1295255422592163 L 18.0 -1.1295255422592163 L 18.0 0.05059340223670006 L 17.0 0.05059340223670006 L 17.0 -0.8792361617088318 L 16.0 -0.8792361617088318 L 16.0 -0.16566585004329681 L 15.0 -0.16566585004329681 L 15.0 -0.207100972533226 L 14.0 -0.207100972533226 L 14.0 -0.19183604419231415 L 13.0 -0.19183604419231415 L 13.0 -0.03888131305575371 L 12.0 -0.03888131305575371 L 12.0 -0.7935011386871338 L 11.0 -0.7935011386871338 L 11.0 0.004657376557588577 L 10.0 0.004657376557588577 L 10.0 -0.7047795653343201 L 9.0 -0.7047795653343201 L 9.0 -0.5113672018051147 L 8.0 -0.5113672018051147 L 8.0 -0.21062958240509033 L 7.0 -0.21062958240509033 L 7.0 0.026534290984272957 L 6.0 0.026534290984272957 L 6.0 -0.7920011281967163 L 5.0 -0.7920011281967163 L 5.0 -0.18279537558555603 L 4.0 -0.18279537558555603 L 4.0 -0.5868551731109619 L 3.0 -0.5868551731109619 L 3.0 -0.007798840757459402 L 2.0 -0.007798840757459402 L 2.0 0.2933924198150635 L 1.0 0.2933924198150635 L 1.0 0.0018866893369704485 L 0.0 0.0018866893369704485 Z" style="vector-effect: non-scaling-stroke;" /></g></g><g style="stroke: black;stroke-width: 1.2000000000000002;" transform="matrix(1.0, 0.0, 0.0, 1.0, 0.0, 0.0)"><path d="M 0.0 0.0018866893369704485 L 1.0 0.0018866893369704485 L 1.0 0.2933924198150635 L 2.0 0.2933924198150635 L 2.0 -0.007798840757459402 L 3.0 -0.007798840757459402 L 3.0 -0.5868551731109619 L 4.0 -0.5868551731109619 L 4.0 -0.18279537558555603 L 5.0 -0.18279537558555603 L 5.0 -0.7920011281967163 L 6.0 -0.7920011281967163 L 6.0 0.026534290984272957 L 7.0 0.026534290984272957 L 7.0 -0.21062958240509033 L 8.0 -0.21062958240509033 L 8.0 -0.5113672018051147 L 9.0 -0.5113672018051147 L 9.0 -0.7047795653343201 L 10.0 -0.7047795653343201 L 10.0 0.004657376557588577 L 11.0 0.004657376557588577 L 11.0 -0.7935011386871338 L 12.0 -0.7935011386871338 L 12.0 -0.03888131305575371 L 13.0 -0.03888131305575371 L 13.0 -0.19183604419231415 L 14.0 -0.19183604419231415 L 14.0 -0.207100972533226 L 15.0 -0.207100972533226 L 15.0 -0.16566585004329681 L 16.0 -0.16566585004329681 L 16.0 -0.8792361617088318 L 17.0 -0.8792361617088318 L 17.0 0.05059340223670006 L 18.0 0.05059340223670006 L 18.0 -1.1295255422592163 L 19.0 -1.1295255422592163 L 19.0 -0.1701303869485855 L 20.0 -0.1701303869485855 L 20.0 -0.384160578250885 L 21.0 -0.384160578250885 L 21.0 -0.2630276083946228 L 22.0 -0.2630276083946228 L 22.0 -0.6799492835998535 L 23.0 -0.6799492835998535 L 23.0 -0.0915100947022438 L 24.0 -0.0915100947022438 L 24.0 -0.2997337281703949 L 25.0 -0.2997337281703949" style="vector-effect: non-scaling-stroke;fill:none;" /></g></g></g></g></g></g><g transform="matrix(1.0, 0.0, 0.0, 1.0, -0.125, 0.16)"><g transform="matrix(1.0, 0.0, 0.0, 0.009999999999999995, 0.0, 0.0)"><g transform="matrix(0.01, 0.0, 0.0, 1.0, 0.0, 0.0)"><g><g><g style="fill: #0000ff;stroke: #0000ff;stroke-width: 1.2000000000000002;fill-opacity: 0.5;" transform="matrix(1.0, 0.0, 0.0, 1.0, 0.0, 0.0)"><path d="M 0.0 -2.0 L 0.0 2.0" style="vector-effect: non-scaling-stroke;fill:none;" /></g><g style="fill: #0000ff;stroke: #0000ff;stroke-width: 1.2000000000000002;fill-opacity: 0.5;" transform="matrix(1.0, 0.0, 0.0, 1.0, 0.0, 0.0)"><path d="M 0.0 0.0018866893369704485 L 1.0 0.0018866893369704485 L 1.0 0.2933924198150635 L 2.0 0.2933924198150635 L 2.0 -0.007798840757459402 L 3.0 -0.007798840757459402 L 3.0 -0.5868551731109619 L 4.0 -0.5868551731109619 L 4.0 -0.18279537558555603 L 5.0 -0.18279537558555603 L 5.0 -0.7920011281967163 L 6.0 -0.7920011281967163 L 6.0 0.026534290984272957 L 7.0 0.026534290984272957 L 7.0 -0.21062958240509033 L 8.0 -0.21062958240509033 L 8.0 -0.5113672018051147 L 9.0 -0.5113672018051147 L 9.0 -0.7047795653343201 L 10.0 -0.7047795653343201 L 10.0 0.004657376557588577 L 11.0 0.004657376557588577 L 11.0 -0.7935011386871338 L 12.0 -0.7935011386871338 L 12.0 -0.03888131305575371 L 13.0 -0.03888131305575371 L 13.0 -0.19183604419231415 L 14.0 -0.19183604419231415 L 14.0 -0.207100972533226 L 15.0 -0.207100972533226 L 15.0 -0.16566585004329681 L 16.0 -0.16566585004329681 L 16.0 -0.8792361617088318 L 17.0 -0.8792361617088318 L 17.0 0.05059340223670006 L 18.0 0.05059340223670006 L 18.0 -1.1295255422592163 L 19.0 -1.1295255422592163 L 19.0 -0.1701303869485855 L 20.0 -0.1701303869485855 L 20.0 -0.384160578250885 L 21.0 -0.384160578250885 L 21.0 -0.2630276083946228 L 22.0 -0.2630276083946228 L 22.0 -0.6799492835998535 L 23.0 -0.6799492835998535 L 23.0 -0.0915100947022438 L 24.0 -0.0915100947022438 L 24.0 -0.2997337281703949 L 25.0 -0.2997337281703949 L 25.0 -0.2997337281703949 L 24.0 -0.2997337281703949 L 24.0 -0.0915100947022438 L 23.0 -0.0915100947022438 L 23.0 -0.6799492835998535 L 22.0 -0.6799492835998535 L 22.0 -0.2630276083946228 L 21.0 -0.2630276083946228 L 21.0 -0.384160578250885 L 20.0 -0.384160578250885 L 20.0 -0.1701303869485855 L 19.0 -0.1701303869485855 L 19.0 -1.1295255422592163 L 18.0 -1.1295255422592163 L 18.0 0.05059340223670006 L 17.0 0.05059340223670006 L 17.0 -0.8792361617088318 L 16.0 -0.8792361617088318 L 16.0 -0.16566585004329681 L 15.0 -0.16566585004329681 L 15.0 -0.207100972533226 L 14.0 -0.207100972533226 L 14.0 -0.19183604419231415 L 13.0 -0.19183604419231415 L 13.0 -0.03888131305575371 L 12.0 -0.03888131305575371 L 12.0 -0.7935011386871338 L 11.0 -0.7935011386871338 L 11.0 0.004657376557588577 L 10.0 0.004657376557588577 L 10.0 -0.7047795653343201 L 9.0 -0.7047795653343201 L 9.0 -0.5113672018051147 L 8.0 -0.5113672018051147 L 8.0 -0.21062958240509033 L 7.0 -0.21062958240509033 L 7.0 0.026534290984272957 L 6.0 0.026534290984272957 L 6.0 -0.7920011281967163 L 5.0 -0.7920011281967163 L 5.0 -0.18279537558555603 L 4.0 -0.18279537558555603 L 4.0 -0.5868551731109619 L 3.0 -0.5868551731109619 L 3.0 -0.007798840757459402 L 2.0 -0.007798840757459402 L 2.0 0.2933924198150635 L 1.0 0.2933924198150635 L 1.0 0.0018866893369704485 L 0.0 0.0018866893369704485 Z" style="vector-effect: non-scaling-stroke;" /></g></g><g style="stroke: black;stroke-width: 1.2000000000000002;" transform="matrix(1.0, 0.0, 0.0, 1.0, 0.0, 0.0)"><path d="M 0.0 0.0018866893369704485 L 1.0 0.0018866893369704485 L 1.0 0.2933924198150635 L 2.0 0.2933924198150635 L 2.0 -0.007798840757459402 L 3.0 -0.007798840757459402 L 3.0 -0.5868551731109619 L 4.0 -0.5868551731109619 L 4.0 -0.18279537558555603 L 5.0 -0.18279537558555603 L 5.0 -0.7920011281967163 L 6.0 -0.7920011281967163 L 6.0 0.026534290984272957 L 7.0 0.026534290984272957 L 7.0 -0.21062958240509033 L 8.0 -0.21062958240509033 L 8.0 -0.5113672018051147 L 9.0 -0.5113672018051147 L 9.0 -0.7047795653343201 L 10.0 -0.7047795653343201 L 10.0 0.004657376557588577 L 11.0 0.004657376557588577 L 11.0 -0.7935011386871338 L 12.0 -0.7935011386871338 L 12.0 -0.03888131305575371 L 13.0 -0.03888131305575371 L 13.0 -0.19183604419231415 L 14.0 -0.19183604419231415 L 14.0 -0.207100972533226 L 15.0 -0.207100972533226 L 15.0 -0.16566585004329681 L 16.0 -0.16566585004329681 L 16.0 -0.8792361617088318 L 17.0 -0.8792361617088318 L 17.0 0.05059340223670006 L 18.0 0.05059340223670006 L 18.0 -1.1295255422592163 L 19.0 -1.1295255422592163 L 19.0 -0.1701303869485855 L 20.0 -0.1701303869485855 L 20.0 -0.384160578250885 L 21.0 -0.384160578250885 L 21.0 -0.2630276083946228 L 22.0 -0.2630276083946228 L 22.0 -0.6799492835998535 L 23.0 -0.6799492835998535 L 23.0 -0.0915100947022438 L 24.0 -0.0915100947022438 L 24.0 -0.2997337281703949 L 25.0 -0.2997337281703949" style="vector-effect: non-scaling-stroke;fill:none;" /></g></g></g></g></g></g></g></g><g><g><g><g><g><g><g transform="matrix(1.0, 0.0, 0.0, 1.0, -0.41500000000000004, -0.03)"><g><g><g transform="matrix(1.0, 0.0, 0.0, 1.0, 0.075, 0.0)"><g transform="matrix(1.0, 0.0, 0.0, 1.0, 0.0, 0.03)"><g transform="matrix(0.01, 0.0, 0.0, 0.01, 0.0, 0.0)"><g><g><g transform="matrix(1.0, 0.0, 0.0, 1.0, 12.5, 0.0)"><g transform="matrix(1.0, 0.0, 0.0, 1.0, -20.0, -0.0)"><g><g style="fill: #d3d3d3;stroke: black;stroke-width: 1.2000000000000002;" transform="matrix(1.0, 0.0, 0.0, 1.0, 0.0, -3.0)"><path d="M 0.0 0.0 L 40.0 0.0 L 40.0 6.0 L 0.0 6.0 L 0.0 0.0 Z" style="vector-effect: non-scaling-stroke;" /></g><g transform="matrix(1.0, 0.0, 0.0, 1.0, 1.875, 0.0)"><g><g style="stroke: black;stroke-width: 1.2000000000000002;" transform="matrix(1.0, 0.0, 0.0, 1.0, 0.0, 0.0)"><g /></g><g style="fill: #ffa500;stroke: black;stroke-width: 1.2000000000000002;" transform="matrix(1.0, 0.0, 0.0, 1.0, 1.875, 0.0)"><text style="text-align:center; text-anchor:middle; dominant-baseline:middle;&#10;                      font-family:sans-serif; font-weight: bold;&#10;                      font-size:3px;&#10;                      vector-effect: non-scaling-stroke;" transform="translate(-5e-05, 0)">x</text></g></g></g></g></g></g><g><g><g><g><g style="stroke: black;stroke-width: 1.2000000000000002;" transform="matrix(1.0, 0.0, 0.0, 1.0, 0.0, 0.0)"><path d="M 0.0 -2.0 L 0.0 2.0" style="vector-effect: non-scaling-stroke;fill:none;" /></g><g style="stroke: #808080;stroke-width: 0.6000000000000001;" transform="matrix(1.0, 0.0, 0.0, 1.0, 0.0, 0.0)"><path d="M 0.0 0.0 L 25.0 0.0" style="vector-effect: non-scaling-stroke;fill:none;" /></g></g><g style="stroke: black;stroke-width: 2.4000000000000004;" transform="matrix(1.0, 0.0, 0.0, 1.0, 0.0, 0.0)"><path d="M 0.0 0.005311056971549988 L 1.0 0.005311056971549988 L 1.0 0.6617961525917053 L 2.0 0.6617961525917053 L 2.0 -0.029221951961517334 L 3.0 -0.029221951961517334 L 3.0 -0.5955145359039307 L 4.0 -0.5955145359039307 L 4.0 -0.28756967186927795 L 5.0 -0.28756967186927795 L 5.0 -1.1414746046066284 L 6.0 -1.1414746046066284 L 6.0 0.029801758006215096 L 7.0 0.029801758006215096 L 7.0 -0.5384460091590881 L 8.0 -0.5384460091590881 L 8.0 -0.7264551520347595 L 9.0 -0.7264551520347595 L 9.0 -0.7654497623443604 L 10.0 -0.7654497623443604 L 10.0 0.06270832568407059 L 11.0 0.06270832568407059 L 11.0 -1.5212970972061157 L 12.0 -1.5212970972061157 L 12.0 -0.8081479072570801 L 13.0 -0.8081479072570801 L 13.0 -1.4235832691192627 L 14.0 -1.4235832691192627 L 14.0 -0.31076791882514954 L 15.0 -0.31076791882514954 L 15.0 -0.3787614107131958 L 16.0 -0.3787614107131958 L 16.0 -1.1808154582977295 L 17.0 -1.1808154582977295 L 17.0 -0.852485179901123 L 18.0 -0.852485179901123 L 18.0 -1.745559573173523 L 19.0 -1.745559573173523 L 19.0 -0.6974199414253235 L 20.0 -0.6974199414253235 L 20.0 -0.5488577485084534 L 21.0 -0.5488577485084534 L 21.0 -0.821071445941925 L 22.0 -0.821071445941925 L 22.0 -0.8402944207191467 L 23.0 -0.8402944207191467 L 23.0 -0.12001878023147583 L 24.0 -0.12001878023147583 L 24.0 -1.3758478164672852 L 25.0 -1.3758478164672852" style="vector-effect: non-scaling-stroke;fill:none;" /></g></g><g style="stroke: black;stroke-width: 1.2000000000000002;" transform="matrix(1.0, 0.0, 0.0, 1.0, 0.0, 0.0)"><path d="M 0.0 -2.0 L 0.0 2.0" style="vector-effect: non-scaling-stroke;fill:none;" /></g></g></g></g><g><g><g><g><g style="stroke: black;stroke-width: 1.2000000000000002;" transform="matrix(1.0, 0.0, 0.0, 1.0, 0.0, 0.0)"><path d="M 0.0 -2.0 L 0.0 2.0" style="vector-effect: non-scaling-stroke;fill:none;" /></g><g style="stroke: #808080;stroke-width: 0.6000000000000001;" transform="matrix(1.0, 0.0, 0.0, 1.0, 0.0, 0.0)"><path d="M 0.0 0.0 L 25.0 0.0" style="vector-effect: non-scaling-stroke;fill:none;" /></g></g><g style="stroke: black;stroke-width: 2.4000000000000004;" transform="matrix(1.0, 0.0, 0.0, 1.0, 0.0, 0.0)"><path d="M 0.0 0.005311056971549988 L 1.0 0.005311056971549988 L 1.0 0.6617961525917053 L 2.0 0.6617961525917053 L 2.0 -0.029221951961517334 L 3.0 -0.029221951961517334 L 3.0 -0.5955145359039307 L 4.0 -0.5955145359039307 L 4.0 -0.28756967186927795 L 5.0 -0.28756967186927795 L 5.0 -1.1414746046066284 L 6.0 -1.1414746046066284 L 6.0 0.029801758006215096 L 7.0 0.029801758006215096 L 7.0 -0.5384460091590881 L 8.0 -0.5384460091590881 L 8.0 -0.7264551520347595 L 9.0 -0.7264551520347595 L 9.0 -0.7654497623443604 L 10.0 -0.7654497623443604 L 10.0 0.06270832568407059 L 11.0 0.06270832568407059 L 11.0 -1.5212970972061157 L 12.0 -1.5212970972061157 L 12.0 -0.8081479072570801 L 13.0 -0.8081479072570801 L 13.0 -1.4235832691192627 L 14.0 -1.4235832691192627 L 14.0 -0.31076791882514954 L 15.0 -0.31076791882514954 L 15.0 -0.3787614107131958 L 16.0 -0.3787614107131958 L 16.0 -1.1808154582977295 L 17.0 -1.1808154582977295 L 17.0 -0.852485179901123 L 18.0 -0.852485179901123 L 18.0 -1.745559573173523 L 19.0 -1.745559573173523 L 19.0 -0.6974199414253235 L 20.0 -0.6974199414253235 L 20.0 -0.5488577485084534 L 21.0 -0.5488577485084534 L 21.0 -0.821071445941925 L 22.0 -0.821071445941925 L 22.0 -0.8402944207191467 L 23.0 -0.8402944207191467 L 23.0 -0.12001878023147583 L 24.0 -0.12001878023147583 L 24.0 -1.3758478164672852 L 25.0 -1.3758478164672852" style="vector-effect: non-scaling-stroke;fill:none;" /></g></g><g style="stroke: black;stroke-width: 1.2000000000000002;" transform="matrix(1.0, 0.0, 0.0, 1.0, 0.0, 0.0)"><path d="M 0.0 -2.0 L 0.0 2.0" style="vector-effect: non-scaling-stroke;fill:none;" /></g></g></g></g></g></g></g><g style="stroke: black;stroke-width: 1.2000000000000002;" transform="matrix(1.0, 0.0, 0.0, 1.0, 0.41500000000000004, 0.0)"><g /></g></g><g transform="matrix(1.0, 0.0, 0.0, 1.0, 0.43000000000000005, 0.0)"><g transform="matrix(1.0, 0.0, 0.0, 1.0, 0.075, 0.0)"><g transform="matrix(1.0, 0.0, 0.0, 1.0, 0.0, 0.03)"><g transform="matrix(0.01, 0.0, 0.0, 0.01, 0.0, 0.0)"><g><g><g transform="matrix(1.0, 0.0, 0.0, 1.0, 12.5, 0.0)"><g transform="matrix(1.0, 0.0, 0.0, 1.0, -20.0, -0.0)"><g><g style="fill: #d3d3d3;stroke: black;stroke-width: 1.2000000000000002;" transform="matrix(1.0, 0.0, 0.0, 1.0, 0.0, -3.0)"><path d="M 0.0 0.0 L 40.0 0.0 L 40.0 6.0 L 0.0 6.0 L 0.0 0.0 Z" style="vector-effect: non-scaling-stroke;" /></g><g transform="matrix(1.0, 0.0, 0.0, 1.0, 1.875, 0.0)"><g><g style="stroke: black;stroke-width: 1.2000000000000002;" transform="matrix(1.0, 0.0, 0.0, 1.0, 0.0, 0.0)"><g /></g><g style="fill: #ffa500;stroke: black;stroke-width: 1.2000000000000002;" transform="matrix(1.0, 0.0, 0.0, 1.0, 1.875, 0.0)"><text style="text-align:center; text-anchor:middle; dominant-baseline:middle;&#10;                      font-family:sans-serif; font-weight: bold;&#10;                      font-size:3px;&#10;                      vector-effect: non-scaling-stroke;" transform="translate(-5e-05, 0)">y</text></g></g></g></g></g></g><g><g><g><g style="stroke: black;stroke-width: 1.2000000000000002;" transform="matrix(1.0, 0.0, 0.0, 1.0, 0.0, 0.0)"><path d="M 0.0 -2.0 L 0.0 2.0" style="vector-effect: non-scaling-stroke;fill:none;" /></g><g style="stroke: #808080;stroke-width: 0.6000000000000001;" transform="matrix(1.0, 0.0, 0.0, 1.0, 0.0, 0.0)"><path d="M 0.0 0.0 L 25.0 0.0" style="vector-effect: non-scaling-stroke;fill:none;" /></g></g><g style="stroke: black;stroke-width: 2.4000000000000004;" transform="matrix(1.0, 0.0, 0.0, 1.0, 0.0, 0.0)"><path d="M 0.0 -0.7104760408401489 L 1.0 -0.7104760408401489 L 1.0 -0.8866549730300903 L 2.0 -0.8866549730300903 L 2.0 -0.5337659120559692 L 3.0 -0.5337659120559692 L 3.0 -1.97091805934906 L 4.0 -1.97091805934906 L 4.0 -1.27131187915802 L 5.0 -1.27131187915802 L 5.0 -1.3876806497573853 L 6.0 -1.3876806497573853 L 6.0 -1.7807198762893677 L 7.0 -1.7807198762893677 L 7.0 -0.7823610305786133 L 8.0 -0.7823610305786133 L 8.0 -1.4078423976898193 L 9.0 -1.4078423976898193 L 9.0 -1.8414782285690308 L 10.0 -1.8414782285690308 L 10.0 -0.1485409289598465 L 11.0 -0.1485409289598465 L 11.0 -1.0431902408599854 L 12.0 -1.0431902408599854 L 12.0 -0.09622325748205185 L 13.0 -0.09622325748205185 L 13.0 -0.26951152086257935 L 14.0 -0.26951152086257935 L 14.0 -1.3328336477279663 L 15.0 -1.3328336477279663 L 15.0 -0.8747767806053162 L 16.0 -0.8747767806053162 L 16.0 -1.4892016649246216 L 17.0 -1.4892016649246216 L 17.0 0.11869626492261887 L 18.0 0.11869626492261887 L 18.0 -1.2941701412200928 L 19.0 -1.2941701412200928 L 19.0 -0.487885057926178 L 20.0 -0.487885057926178 L 20.0 -1.3998547792434692 L 21.0 -1.3998547792434692 L 21.0 -0.6406936049461365 L 22.0 -0.6406936049461365 L 22.0 -1.6183596849441528 L 23.0 -1.6183596849441528 L 23.0 -1.5249296426773071 L 24.0 -1.5249296426773071 L 24.0 -0.435707688331604 L 25.0 -0.435707688331604" style="vector-effect: non-scaling-stroke;fill:none;" /></g></g></g></g><g><g><g><g style="stroke: black;stroke-width: 1.2000000000000002;" transform="matrix(1.0, 0.0, 0.0, 1.0, 0.0, 0.0)"><path d="M 0.0 -2.0 L 0.0 2.0" style="vector-effect: non-scaling-stroke;fill:none;" /></g><g style="stroke: #808080;stroke-width: 0.6000000000000001;" transform="matrix(1.0, 0.0, 0.0, 1.0, 0.0, 0.0)"><path d="M 0.0 0.0 L 25.0 0.0" style="vector-effect: non-scaling-stroke;fill:none;" /></g></g><g style="stroke: black;stroke-width: 2.4000000000000004;" transform="matrix(1.0, 0.0, 0.0, 1.0, 0.0, 0.0)"><path d="M 0.0 -0.7104760408401489 L 1.0 -0.7104760408401489 L 1.0 -0.8866549730300903 L 2.0 -0.8866549730300903 L 2.0 -0.5337659120559692 L 3.0 -0.5337659120559692 L 3.0 -1.97091805934906 L 4.0 -1.97091805934906 L 4.0 -1.27131187915802 L 5.0 -1.27131187915802 L 5.0 -1.3876806497573853 L 6.0 -1.3876806497573853 L 6.0 -1.7807198762893677 L 7.0 -1.7807198762893677 L 7.0 -0.7823610305786133 L 8.0 -0.7823610305786133 L 8.0 -1.4078423976898193 L 9.0 -1.4078423976898193 L 9.0 -1.8414782285690308 L 10.0 -1.8414782285690308 L 10.0 -0.1485409289598465 L 11.0 -0.1485409289598465 L 11.0 -1.0431902408599854 L 12.0 -1.0431902408599854 L 12.0 -0.09622325748205185 L 13.0 -0.09622325748205185 L 13.0 -0.26951152086257935 L 14.0 -0.26951152086257935 L 14.0 -1.3328336477279663 L 15.0 -1.3328336477279663 L 15.0 -0.8747767806053162 L 16.0 -0.8747767806053162 L 16.0 -1.4892016649246216 L 17.0 -1.4892016649246216 L 17.0 0.11869626492261887 L 18.0 0.11869626492261887 L 18.0 -1.2941701412200928 L 19.0 -1.2941701412200928 L 19.0 -0.487885057926178 L 20.0 -0.487885057926178 L 20.0 -1.3998547792434692 L 21.0 -1.3998547792434692 L 21.0 -0.6406936049461365 L 22.0 -0.6406936049461365 L 22.0 -1.6183596849441528 L 23.0 -1.6183596849441528 L 23.0 -1.5249296426773071 L 24.0 -1.5249296426773071 L 24.0 -0.435707688331604 L 25.0 -0.435707688331604" style="vector-effect: non-scaling-stroke;fill:none;" /></g></g></g></g></g></g></g></g></g></g><g style="stroke: black;stroke-width: 1.2000000000000002;" transform="matrix(0.0, -1.0, 1.0, 0.0, 0.0, 0.08)"><g /></g></g><g transform="matrix(1.0, 0.0, 0.0, 1.0, 0.0, 0.16)"><g transform="matrix(1.0, 0.0, 0.0, 1.0, -0.2, -0.03)"><g transform="matrix(1.0, 0.0, 0.0, 1.0, 0.075, 0.0)"><g transform="matrix(1.0, 0.0, 0.0, 1.0, 0.0, 0.03)"><g transform="matrix(0.01, 0.0, 0.0, 0.01, 0.0, 0.0)"><g><g><g transform="matrix(1.0, 0.0, 0.0, 1.0, 12.5, 0.0)"><g transform="matrix(1.0, 0.0, 0.0, 1.0, -20.0, -0.0)"><g><g style="fill: #d3d3d3;stroke: black;stroke-width: 1.2000000000000002;" transform="matrix(1.0, 0.0, 0.0, 1.0, 0.0, -3.0)"><path d="M 0.0 0.0 L 40.0 0.0 L 40.0 6.0 L 0.0 6.0 L 0.0 0.0 Z" style="vector-effect: non-scaling-stroke;" /></g><g transform="matrix(1.0, 0.0, 0.0, 1.0, 1.875, 0.0)"><g><g style="stroke: black;stroke-width: 1.2000000000000002;" transform="matrix(1.0, 0.0, 0.0, 1.0, 0.0, 0.0)"><g /></g><g style="fill: #ffa500;stroke: black;stroke-width: 1.2000000000000002;" transform="matrix(1.0, 0.0, 0.0, 1.0, 1.875, 0.0)"><text style="text-align:center; text-anchor:middle; dominant-baseline:middle;&#10;                      font-family:sans-serif; font-weight: bold;&#10;                      font-size:3px;&#10;                      vector-effect: non-scaling-stroke;" transform="translate(-5e-05, 0)">f(x)</text></g></g></g></g></g></g><g><g><g><g style="stroke: black;stroke-width: 1.2000000000000002;" transform="matrix(1.0, 0.0, 0.0, 1.0, 0.0, 0.0)"><path d="M 0.0 -2.0 L 0.0 2.0" style="vector-effect: non-scaling-stroke;fill:none;" /></g><g style="stroke: #808080;stroke-width: 0.6000000000000001;" transform="matrix(1.0, 0.0, 0.0, 1.0, 0.0, 0.0)"><path d="M 0.0 0.0 L 25.0 0.0" style="vector-effect: non-scaling-stroke;fill:none;" /></g></g><g style="stroke: black;stroke-width: 2.4000000000000004;" transform="matrix(1.0, 0.0, 0.0, 1.0, 0.0, 0.0)"><path d="M 0.0 0.0018866893369704485 L 1.0 0.0018866893369704485 L 1.0 0.2933924198150635 L 2.0 0.2933924198150635 L 2.0 -0.007798840757459402 L 3.0 -0.007798840757459402 L 3.0 -0.5868551731109619 L 4.0 -0.5868551731109619 L 4.0 -0.18279537558555603 L 5.0 -0.18279537558555603 L 5.0 -0.7920011281967163 L 6.0 -0.7920011281967163 L 6.0 0.026534290984272957 L 7.0 0.026534290984272957 L 7.0 -0.21062958240509033 L 8.0 -0.21062958240509033 L 8.0 -0.5113672018051147 L 9.0 -0.5113672018051147 L 9.0 -0.7047795653343201 L 10.0 -0.7047795653343201 L 10.0 0.004657376557588577 L 11.0 0.004657376557588577 L 11.0 -0.7935011386871338 L 12.0 -0.7935011386871338 L 12.0 -0.03888131305575371 L 13.0 -0.03888131305575371 L 13.0 -0.19183604419231415 L 14.0 -0.19183604419231415 L 14.0 -0.207100972533226 L 15.0 -0.207100972533226 L 15.0 -0.16566585004329681 L 16.0 -0.16566585004329681 L 16.0 -0.8792361617088318 L 17.0 -0.8792361617088318 L 17.0 0.05059340223670006 L 18.0 0.05059340223670006 L 18.0 -1.1295255422592163 L 19.0 -1.1295255422592163 L 19.0 -0.1701303869485855 L 20.0 -0.1701303869485855 L 20.0 -0.384160578250885 L 21.0 -0.384160578250885 L 21.0 -0.2630276083946228 L 22.0 -0.2630276083946228 L 22.0 -0.6799492835998535 L 23.0 -0.6799492835998535 L 23.0 -0.0915100947022438 L 24.0 -0.0915100947022438 L 24.0 -0.2997337281703949 L 25.0 -0.2997337281703949" style="vector-effect: non-scaling-stroke;fill:none;" /></g></g></g></g><g><g><g><g style="stroke: black;stroke-width: 1.2000000000000002;" transform="matrix(1.0, 0.0, 0.0, 1.0, 0.0, 0.0)"><path d="M 0.0 -2.0 L 0.0 2.0" style="vector-effect: non-scaling-stroke;fill:none;" /></g><g style="stroke: #808080;stroke-width: 0.6000000000000001;" transform="matrix(1.0, 0.0, 0.0, 1.0, 0.0, 0.0)"><path d="M 0.0 0.0 L 25.0 0.0" style="vector-effect: non-scaling-stroke;fill:none;" /></g></g><g style="stroke: black;stroke-width: 2.4000000000000004;" transform="matrix(1.0, 0.0, 0.0, 1.0, 0.0, 0.0)"><path d="M 0.0 0.0018866893369704485 L 1.0 0.0018866893369704485 L 1.0 0.2933924198150635 L 2.0 0.2933924198150635 L 2.0 -0.007798840757459402 L 3.0 -0.007798840757459402 L 3.0 -0.5868551731109619 L 4.0 -0.5868551731109619 L 4.0 -0.18279537558555603 L 5.0 -0.18279537558555603 L 5.0 -0.7920011281967163 L 6.0 -0.7920011281967163 L 6.0 0.026534290984272957 L 7.0 0.026534290984272957 L 7.0 -0.21062958240509033 L 8.0 -0.21062958240509033 L 8.0 -0.5113672018051147 L 9.0 -0.5113672018051147 L 9.0 -0.7047795653343201 L 10.0 -0.7047795653343201 L 10.0 0.004657376557588577 L 11.0 0.004657376557588577 L 11.0 -0.7935011386871338 L 12.0 -0.7935011386871338 L 12.0 -0.03888131305575371 L 13.0 -0.03888131305575371 L 13.0 -0.19183604419231415 L 14.0 -0.19183604419231415 L 14.0 -0.207100972533226 L 15.0 -0.207100972533226 L 15.0 -0.16566585004329681 L 16.0 -0.16566585004329681 L 16.0 -0.8792361617088318 L 17.0 -0.8792361617088318 L 17.0 0.05059340223670006 L 18.0 0.05059340223670006 L 18.0 -1.1295255422592163 L 19.0 -1.1295255422592163 L 19.0 -0.1701303869485855 L 20.0 -0.1701303869485855 L 20.0 -0.384160578250885 L 21.0 -0.384160578250885 L 21.0 -0.2630276083946228 L 22.0 -0.2630276083946228 L 22.0 -0.6799492835998535 L 23.0 -0.6799492835998535 L 23.0 -0.0915100947022438 L 24.0 -0.0915100947022438 L 24.0 -0.2997337281703949 L 25.0 -0.2997337281703949" style="vector-effect: non-scaling-stroke;fill:none;" /></g></g></g></g></g></g></g></g></g></g><g transform="matrix(1.0, 0.0, 0.0, 1.0, -0.125, 0.16)"><g transform="matrix(1.0, 0.0, 0.0, 0.009999999999999995, 0.0, 0.0)"><g transform="matrix(0.01, 0.0, 0.0, 1.0, 0.0, 0.0)"><g><g><g style="fill: #ffffe0;stroke: #ffffe0;stroke-width: 1.2000000000000002;fill-opacity: 0.5;" transform="matrix(1.0, 0.0, 0.0, 1.0, 0.0, 0.0)"><path d="M 0.0 -2.0 L 0.0 2.0" style="vector-effect: non-scaling-stroke;fill:none;" /></g><g style="fill: #ffffe0;stroke: #ffffe0;stroke-width: 1.2000000000000002;fill-opacity: 0.5;" transform="matrix(1.0, 0.0, 0.0, 1.0, 0.0, 0.0)"><path d="M 0.0 -0.7085960507392883 L 1.0 -0.7085960507392883 L 1.0 -0.5947167873382568 L 2.0 -0.5947167873382568 L 2.0 -0.5415398478507996 L 3.0 -0.5415398478507996 L 3.0 -2.0 L 4.0 -2.0 L 4.0 -1.4538644552230835 L 5.0 -1.4538644552230835 L 5.0 -2.0 L 6.0 -2.0 L 6.0 -1.7541544437408447 L 7.0 -1.7541544437408447 L 7.0 -0.994430661201477 L 8.0 -0.994430661201477 L 8.0 -1.9180368185043335 L 9.0 -1.9180368185043335 L 9.0 -2.0 L 10.0 -2.0 L 10.0 -0.14388857781887054 L 11.0 -0.14388857781887054 L 11.0 -1.8365824222564697 L 12.0 -1.8365824222564697 L 12.0 -0.1349938064813614 L 13.0 -0.1349938064813614 L 13.0 -0.4615470767021179 L 14.0 -0.4615470767021179 L 14.0 -1.5392647981643677 L 15.0 -1.5392647981643677 L 15.0 -1.0403640270233154 L 16.0 -1.0403640270233154 L 16.0 -2.0 L 17.0 -2.0 L 17.0 0.16943016648292542 L 18.0 0.16943016648292542 L 18.0 -2.0 L 19.0 -2.0 L 19.0 -0.6588884592056274 L 20.0 -0.6588884592056274 L 20.0 -1.78486967086792 L 21.0 -1.78486967086792 L 21.0 -0.903777539730072 L 22.0 -0.903777539730072 L 22.0 -2.0 L 23.0 -2.0 L 23.0 -1.6166439056396484 L 24.0 -1.6166439056396484 L 24.0 -0.7378278970718384 L 25.0 -0.7378278970718384 L 25.0 -0.2997337281703949 L 24.0 -0.2997337281703949 L 24.0 -0.0915100947022438 L 23.0 -0.0915100947022438 L 23.0 -0.6799492835998535 L 22.0 -0.6799492835998535 L 22.0 -0.2630276083946228 L 21.0 -0.2630276083946228 L 21.0 -0.384160578250885 L 20.0 -0.384160578250885 L 20.0 -0.1701303869485855 L 19.0 -0.1701303869485855 L 19.0 -1.1295255422592163 L 18.0 -1.1295255422592163 L 18.0 0.05059340223670006 L 17.0 0.05059340223670006 L 17.0 -0.8792361617088318 L 16.0 -0.8792361617088318 L 16.0 -0.16566585004329681 L 15.0 -0.16566585004329681 L 15.0 -0.207100972533226 L 14.0 -0.207100972533226 L 14.0 -0.19183604419231415 L 13.0 -0.19183604419231415 L 13.0 -0.03888131305575371 L 12.0 -0.03888131305575371 L 12.0 -0.7935011386871338 L 11.0 -0.7935011386871338 L 11.0 0.004657376557588577 L 10.0 0.004657376557588577 L 10.0 -0.7047795653343201 L 9.0 -0.7047795653343201 L 9.0 -0.5113672018051147 L 8.0 -0.5113672018051147 L 8.0 -0.21062958240509033 L 7.0 -0.21062958240509033 L 7.0 0.026534290984272957 L 6.0 0.026534290984272957 L 6.0 -0.7920011281967163 L 5.0 -0.7920011281967163 L 5.0 -0.18279537558555603 L 4.0 -0.18279537558555603 L 4.0 -0.5868551731109619 L 3.0 -0.5868551731109619 L 3.0 -0.007798840757459402 L 2.0 -0.007798840757459402 L 2.0 0.2933924198150635 L 1.0 0.2933924198150635 L 1.0 0.0018866893369704485 L 0.0 0.0018866893369704485 Z" style="vector-effect: non-scaling-stroke;" /></g></g><g style="stroke: black;stroke-width: 1.2000000000000002;" transform="matrix(1.0, 0.0, 0.0, 1.0, 0.0, 0.0)"><path d="M 0.0 0.0018866893369704485 L 1.0 0.0018866893369704485 L 1.0 0.2933924198150635 L 2.0 0.2933924198150635 L 2.0 -0.007798840757459402 L 3.0 -0.007798840757459402 L 3.0 -0.5868551731109619 L 4.0 -0.5868551731109619 L 4.0 -0.18279537558555603 L 5.0 -0.18279537558555603 L 5.0 -0.7920011281967163 L 6.0 -0.7920011281967163 L 6.0 0.026534290984272957 L 7.0 0.026534290984272957 L 7.0 -0.21062958240509033 L 8.0 -0.21062958240509033 L 8.0 -0.5113672018051147 L 9.0 -0.5113672018051147 L 9.0 -0.7047795653343201 L 10.0 -0.7047795653343201 L 10.0 0.004657376557588577 L 11.0 0.004657376557588577 L 11.0 -0.7935011386871338 L 12.0 -0.7935011386871338 L 12.0 -0.03888131305575371 L 13.0 -0.03888131305575371 L 13.0 -0.19183604419231415 L 14.0 -0.19183604419231415 L 14.0 -0.207100972533226 L 15.0 -0.207100972533226 L 15.0 -0.16566585004329681 L 16.0 -0.16566585004329681 L 16.0 -0.8792361617088318 L 17.0 -0.8792361617088318 L 17.0 0.05059340223670006 L 18.0 0.05059340223670006 L 18.0 -1.1295255422592163 L 19.0 -1.1295255422592163 L 19.0 -0.1701303869485855 L 20.0 -0.1701303869485855 L 20.0 -0.384160578250885 L 21.0 -0.384160578250885 L 21.0 -0.2630276083946228 L 22.0 -0.2630276083946228 L 22.0 -0.6799492835998535 L 23.0 -0.6799492835998535 L 23.0 -0.0915100947022438 L 24.0 -0.0915100947022438 L 24.0 -0.2997337281703949 L 25.0 -0.2997337281703949" style="vector-effect: non-scaling-stroke;fill:none;" /></g></g></g></g></g></g><g transform="matrix(1.0, 0.0, 0.0, 1.0, -0.125, 0.16)"><g transform="matrix(1.0, 0.0, 0.0, 0.009999999999999995, 0.0, 0.0)"><g transform="matrix(0.01, 0.0, 0.0, 1.0, 0.0, 0.0)"><g><g><g style="fill: #add8e6;stroke: #add8e6;stroke-width: 1.2000000000000002;fill-opacity: 0.5;" transform="matrix(1.0, 0.0, 0.0, 1.0, 0.0, 0.0)"><path d="M 0.0 -2.0 L 0.0 2.0" style="vector-effect: non-scaling-stroke;fill:none;" /></g><g style="fill: #add8e6;stroke: #add8e6;stroke-width: 1.2000000000000002;fill-opacity: 0.5;" transform="matrix(1.0, 0.0, 0.0, 1.0, 0.0, 0.0)"><path d="M 0.0 0.007206869311630726 L 1.0 0.007206869311630726 L 1.0 0.957984209060669 L 2.0 0.957984209060669 L 2.0 -0.03708893433213234 L 3.0 -0.03708893433213234 L 3.0 -1.1829016208648682 L 4.0 -1.1829016208648682 L 4.0 -0.4703877866268158 L 5.0 -0.4703877866268158 L 5.0 -1.9304498434066772 L 6.0 -1.9304498434066772 L 6.0 0.05633661150932312 L 7.0 0.05633661150932312 L 7.0 -0.7500516176223755 L 8.0 -0.7500516176223755 L 8.0 -1.2385438680648804 L 9.0 -1.2385438680648804 L 9.0 -1.4677190780639648 L 10.0 -1.4677190780639648 L 10.0 0.06733538210391998 L 11.0 0.06733538210391998 L 11.0 -2.0 L 12.0 -2.0 L 12.0 -0.846896767616272 L 13.0 -0.846896767616272 L 13.0 -1.6148968935012817 L 14.0 -1.6148968935012817 L 14.0 -0.5185352563858032 L 15.0 -0.5185352563858032 L 15.0 -0.5441553592681885 L 16.0 -0.5441553592681885 L 16.0 -2.0 L 17.0 -2.0 L 17.0 -0.801753044128418 L 18.0 -0.801753044128418 L 18.0 -2.0 L 19.0 -2.0 L 19.0 -0.8675047159194946 L 20.0 -0.8675047159194946 L 20.0 -0.9325233101844788 L 21.0 -0.9325233101844788 L 21.0 -1.0855717658996582 L 22.0 -1.0855717658996582 L 22.0 -1.5263352394104004 L 23.0 -1.5263352394104004 L 23.0 -0.21220949292182922 L 24.0 -0.21220949292182922 L 24.0 -1.6766010522842407 L 25.0 -1.6766010522842407 L 25.0 -0.2997337281703949 L 24.0 -0.2997337281703949 L 24.0 -0.0915100947022438 L 23.0 -0.0915100947022438 L 23.0 -0.6799492835998535 L 22.0 -0.6799492835998535 L 22.0 -0.2630276083946228 L 21.0 -0.2630276083946228 L 21.0 -0.384160578250885 L 20.0 -0.384160578250885 L 20.0 -0.1701303869485855 L 19.0 -0.1701303869485855 L 19.0 -1.1295255422592163 L 18.0 -1.1295255422592163 L 18.0 0.05059340223670006 L 17.0 0.05059340223670006 L 17.0 -0.8792361617088318 L 16.0 -0.8792361617088318 L 16.0 -0.16566585004329681 L 15.0 -0.16566585004329681 L 15.0 -0.207100972533226 L 14.0 -0.207100972533226 L 14.0 -0.19183604419231415 L 13.0 -0.19183604419231415 L 13.0 -0.03888131305575371 L 12.0 -0.03888131305575371 L 12.0 -0.7935011386871338 L 11.0 -0.7935011386871338 L 11.0 0.004657376557588577 L 10.0 0.004657376557588577 L 10.0 -0.7047795653343201 L 9.0 -0.7047795653343201 L 9.0 -0.5113672018051147 L 8.0 -0.5113672018051147 L 8.0 -0.21062958240509033 L 7.0 -0.21062958240509033 L 7.0 0.026534290984272957 L 6.0 0.026534290984272957 L 6.0 -0.7920011281967163 L 5.0 -0.7920011281967163 L 5.0 -0.18279537558555603 L 4.0 -0.18279537558555603 L 4.0 -0.5868551731109619 L 3.0 -0.5868551731109619 L 3.0 -0.007798840757459402 L 2.0 -0.007798840757459402 L 2.0 0.2933924198150635 L 1.0 0.2933924198150635 L 1.0 0.0018866893369704485 L 0.0 0.0018866893369704485 Z" style="vector-effect: non-scaling-stroke;" /></g></g><g style="stroke: black;stroke-width: 1.2000000000000002;" transform="matrix(1.0, 0.0, 0.0, 1.0, 0.0, 0.0)"><path d="M 0.0 0.0018866893369704485 L 1.0 0.0018866893369704485 L 1.0 0.2933924198150635 L 2.0 0.2933924198150635 L 2.0 -0.007798840757459402 L 3.0 -0.007798840757459402 L 3.0 -0.5868551731109619 L 4.0 -0.5868551731109619 L 4.0 -0.18279537558555603 L 5.0 -0.18279537558555603 L 5.0 -0.7920011281967163 L 6.0 -0.7920011281967163 L 6.0 0.026534290984272957 L 7.0 0.026534290984272957 L 7.0 -0.21062958240509033 L 8.0 -0.21062958240509033 L 8.0 -0.5113672018051147 L 9.0 -0.5113672018051147 L 9.0 -0.7047795653343201 L 10.0 -0.7047795653343201 L 10.0 0.004657376557588577 L 11.0 0.004657376557588577 L 11.0 -0.7935011386871338 L 12.0 -0.7935011386871338 L 12.0 -0.03888131305575371 L 13.0 -0.03888131305575371 L 13.0 -0.19183604419231415 L 14.0 -0.19183604419231415 L 14.0 -0.207100972533226 L 15.0 -0.207100972533226 L 15.0 -0.16566585004329681 L 16.0 -0.16566585004329681 L 16.0 -0.8792361617088318 L 17.0 -0.8792361617088318 L 17.0 0.05059340223670006 L 18.0 0.05059340223670006 L 18.0 -1.1295255422592163 L 19.0 -1.1295255422592163 L 19.0 -0.1701303869485855 L 20.0 -0.1701303869485855 L 20.0 -0.384160578250885 L 21.0 -0.384160578250885 L 21.0 -0.2630276083946228 L 22.0 -0.2630276083946228 L 22.0 -0.6799492835998535 L 23.0 -0.6799492835998535 L 23.0 -0.0915100947022438 L 24.0 -0.0915100947022438 L 24.0 -0.2997337281703949 L 25.0 -0.2997337281703949" style="vector-effect: non-scaling-stroke;fill:none;" /></g></g></g></g></g></g><g transform="matrix(1.0, 0.0, 0.0, 1.0, -0.125, 0.16)"><g transform="matrix(1.0, 0.0, 0.0, 0.009999999999999995, 0.0, 0.0)"><g transform="matrix(0.01, 0.0, 0.0, 1.0, 0.0, 0.0)"><g><g><g style="fill: #ff8c00;stroke: #ff8c00;stroke-width: 1.2000000000000002;fill-opacity: 0.5;" transform="matrix(1.0, 0.0, 0.0, 1.0, 0.0, 0.0)"><path d="M 0.0 -2.0 L 0.0 2.0" style="vector-effect: non-scaling-stroke;fill:none;" /></g><g style="fill: #ff8c00;stroke: #ff8c00;stroke-width: 1.2000000000000002;fill-opacity: 0.5;" transform="matrix(1.0, 0.0, 0.0, 1.0, 0.0, 0.0)"><path d="M 0.0 0.0018866893369704485 L 1.0 0.0018866893369704485 L 1.0 0.2933924198150635 L 2.0 0.2933924198150635 L 2.0 -0.007798840757459402 L 3.0 -0.007798840757459402 L 3.0 -0.5868551731109619 L 4.0 -0.5868551731109619 L 4.0 -0.18279537558555603 L 5.0 -0.18279537558555603 L 5.0 -0.7920011281967163 L 6.0 -0.7920011281967163 L 6.0 0.026534290984272957 L 7.0 0.026534290984272957 L 7.0 -0.21062958240509033 L 8.0 -0.21062958240509033 L 8.0 -0.5113672018051147 L 9.0 -0.5113672018051147 L 9.0 -0.7047795653343201 L 10.0 -0.7047795653343201 L 10.0 0.004657376557588577 L 11.0 0.004657376557588577 L 11.0 -0.7935011386871338 L 12.0 -0.7935011386871338 L 12.0 -0.03888131305575371 L 13.0 -0.03888131305575371 L 13.0 -0.19183604419231415 L 14.0 -0.19183604419231415 L 14.0 -0.207100972533226 L 15.0 -0.207100972533226 L 15.0 -0.16566585004329681 L 16.0 -0.16566585004329681 L 16.0 -0.8792361617088318 L 17.0 -0.8792361617088318 L 17.0 0.05059340223670006 L 18.0 0.05059340223670006 L 18.0 -1.1295255422592163 L 19.0 -1.1295255422592163 L 19.0 -0.1701303869485855 L 20.0 -0.1701303869485855 L 20.0 -0.384160578250885 L 21.0 -0.384160578250885 L 21.0 -0.2630276083946228 L 22.0 -0.2630276083946228 L 22.0 -0.6799492835998535 L 23.0 -0.6799492835998535 L 23.0 -0.0915100947022438 L 24.0 -0.0915100947022438 L 24.0 -0.2997337281703949 L 25.0 -0.2997337281703949 L 25.0 -0.2997337281703949 L 24.0 -0.2997337281703949 L 24.0 -0.0915100947022438 L 23.0 -0.0915100947022438 L 23.0 -0.6799492835998535 L 22.0 -0.6799492835998535 L 22.0 -0.2630276083946228 L 21.0 -0.2630276083946228 L 21.0 -0.384160578250885 L 20.0 -0.384160578250885 L 20.0 -0.1701303869485855 L 19.0 -0.1701303869485855 L 19.0 -1.1295255422592163 L 18.0 -1.1295255422592163 L 18.0 0.05059340223670006 L 17.0 0.05059340223670006 L 17.0 -0.8792361617088318 L 16.0 -0.8792361617088318 L 16.0 -0.16566585004329681 L 15.0 -0.16566585004329681 L 15.0 -0.207100972533226 L 14.0 -0.207100972533226 L 14.0 -0.19183604419231415 L 13.0 -0.19183604419231415 L 13.0 -0.03888131305575371 L 12.0 -0.03888131305575371 L 12.0 -0.7935011386871338 L 11.0 -0.7935011386871338 L 11.0 0.004657376557588577 L 10.0 0.004657376557588577 L 10.0 -0.7047795653343201 L 9.0 -0.7047795653343201 L 9.0 -0.5113672018051147 L 8.0 -0.5113672018051147 L 8.0 -0.21062958240509033 L 7.0 -0.21062958240509033 L 7.0 0.026534290984272957 L 6.0 0.026534290984272957 L 6.0 -0.7920011281967163 L 5.0 -0.7920011281967163 L 5.0 -0.18279537558555603 L 4.0 -0.18279537558555603 L 4.0 -0.5868551731109619 L 3.0 -0.5868551731109619 L 3.0 -0.007798840757459402 L 2.0 -0.007798840757459402 L 2.0 0.2933924198150635 L 1.0 0.2933924198150635 L 1.0 0.0018866893369704485 L 0.0 0.0018866893369704485 Z" style="vector-effect: non-scaling-stroke;" /></g></g><g style="stroke: black;stroke-width: 1.2000000000000002;" transform="matrix(1.0, 0.0, 0.0, 1.0, 0.0, 0.0)"><path d="M 0.0 0.0018866893369704485 L 1.0 0.0018866893369704485 L 1.0 0.2933924198150635 L 2.0 0.2933924198150635 L 2.0 -0.007798840757459402 L 3.0 -0.007798840757459402 L 3.0 -0.5868551731109619 L 4.0 -0.5868551731109619 L 4.0 -0.18279537558555603 L 5.0 -0.18279537558555603 L 5.0 -0.7920011281967163 L 6.0 -0.7920011281967163 L 6.0 0.026534290984272957 L 7.0 0.026534290984272957 L 7.0 -0.21062958240509033 L 8.0 -0.21062958240509033 L 8.0 -0.5113672018051147 L 9.0 -0.5113672018051147 L 9.0 -0.7047795653343201 L 10.0 -0.7047795653343201 L 10.0 0.004657376557588577 L 11.0 0.004657376557588577 L 11.0 -0.7935011386871338 L 12.0 -0.7935011386871338 L 12.0 -0.03888131305575371 L 13.0 -0.03888131305575371 L 13.0 -0.19183604419231415 L 14.0 -0.19183604419231415 L 14.0 -0.207100972533226 L 15.0 -0.207100972533226 L 15.0 -0.16566585004329681 L 16.0 -0.16566585004329681 L 16.0 -0.8792361617088318 L 17.0 -0.8792361617088318 L 17.0 0.05059340223670006 L 18.0 0.05059340223670006 L 18.0 -1.1295255422592163 L 19.0 -1.1295255422592163 L 19.0 -0.1701303869485855 L 20.0 -0.1701303869485855 L 20.0 -0.384160578250885 L 21.0 -0.384160578250885 L 21.0 -0.2630276083946228 L 22.0 -0.2630276083946228 L 22.0 -0.6799492835998535 L 23.0 -0.6799492835998535 L 23.0 -0.0915100947022438 L 24.0 -0.0915100947022438 L 24.0 -0.2997337281703949 L 25.0 -0.2997337281703949" style="vector-effect: non-scaling-stroke;fill:none;" /></g></g></g></g></g></g><g transform="matrix(1.0, 0.0, 0.0, 1.0, -0.125, 0.16)"><g transform="matrix(1.0, 0.0, 0.0, 0.009999999999999995, 0.0, 0.0)"><g transform="matrix(0.01, 0.0, 0.0, 1.0, 0.0, 0.0)"><g><g><g style="fill: #0000ff;stroke: #0000ff;stroke-width: 1.2000000000000002;fill-opacity: 0.5;" transform="matrix(1.0, 0.0, 0.0, 1.0, 0.0, 0.0)"><path d="M 0.0 -2.0 L 0.0 2.0" style="vector-effect: non-scaling-stroke;fill:none;" /></g><g style="fill: #0000ff;stroke: #0000ff;stroke-width: 1.2000000000000002;fill-opacity: 0.5;" transform="matrix(1.0, 0.0, 0.0, 1.0, 0.0, 0.0)"><path d="M 0.0 0.0018866893369704485 L 1.0 0.0018866893369704485 L 1.0 0.2933924198150635 L 2.0 0.2933924198150635 L 2.0 -0.007798840757459402 L 3.0 -0.007798840757459402 L 3.0 -0.5868551731109619 L 4.0 -0.5868551731109619 L 4.0 -0.18279537558555603 L 5.0 -0.18279537558555603 L 5.0 -0.7920011281967163 L 6.0 -0.7920011281967163 L 6.0 0.026534290984272957 L 7.0 0.026534290984272957 L 7.0 -0.21062958240509033 L 8.0 -0.21062958240509033 L 8.0 -0.5113672018051147 L 9.0 -0.5113672018051147 L 9.0 -0.7047795653343201 L 10.0 -0.7047795653343201 L 10.0 0.004657376557588577 L 11.0 0.004657376557588577 L 11.0 -0.7935011386871338 L 12.0 -0.7935011386871338 L 12.0 -0.03888131305575371 L 13.0 -0.03888131305575371 L 13.0 -0.19183604419231415 L 14.0 -0.19183604419231415 L 14.0 -0.207100972533226 L 15.0 -0.207100972533226 L 15.0 -0.16566585004329681 L 16.0 -0.16566585004329681 L 16.0 -0.8792361617088318 L 17.0 -0.8792361617088318 L 17.0 0.05059340223670006 L 18.0 0.05059340223670006 L 18.0 -1.1295255422592163 L 19.0 -1.1295255422592163 L 19.0 -0.1701303869485855 L 20.0 -0.1701303869485855 L 20.0 -0.384160578250885 L 21.0 -0.384160578250885 L 21.0 -0.2630276083946228 L 22.0 -0.2630276083946228 L 22.0 -0.6799492835998535 L 23.0 -0.6799492835998535 L 23.0 -0.0915100947022438 L 24.0 -0.0915100947022438 L 24.0 -0.2997337281703949 L 25.0 -0.2997337281703949 L 25.0 -0.2997337281703949 L 24.0 -0.2997337281703949 L 24.0 -0.0915100947022438 L 23.0 -0.0915100947022438 L 23.0 -0.6799492835998535 L 22.0 -0.6799492835998535 L 22.0 -0.2630276083946228 L 21.0 -0.2630276083946228 L 21.0 -0.384160578250885 L 20.0 -0.384160578250885 L 20.0 -0.1701303869485855 L 19.0 -0.1701303869485855 L 19.0 -1.1295255422592163 L 18.0 -1.1295255422592163 L 18.0 0.05059340223670006 L 17.0 0.05059340223670006 L 17.0 -0.8792361617088318 L 16.0 -0.8792361617088318 L 16.0 -0.16566585004329681 L 15.0 -0.16566585004329681 L 15.0 -0.207100972533226 L 14.0 -0.207100972533226 L 14.0 -0.19183604419231415 L 13.0 -0.19183604419231415 L 13.0 -0.03888131305575371 L 12.0 -0.03888131305575371 L 12.0 -0.7935011386871338 L 11.0 -0.7935011386871338 L 11.0 0.004657376557588577 L 10.0 0.004657376557588577 L 10.0 -0.7047795653343201 L 9.0 -0.7047795653343201 L 9.0 -0.5113672018051147 L 8.0 -0.5113672018051147 L 8.0 -0.21062958240509033 L 7.0 -0.21062958240509033 L 7.0 0.026534290984272957 L 6.0 0.026534290984272957 L 6.0 -0.7920011281967163 L 5.0 -0.7920011281967163 L 5.0 -0.18279537558555603 L 4.0 -0.18279537558555603 L 4.0 -0.5868551731109619 L 3.0 -0.5868551731109619 L 3.0 -0.007798840757459402 L 2.0 -0.007798840757459402 L 2.0 0.2933924198150635 L 1.0 0.2933924198150635 L 1.0 0.0018866893369704485 L 0.0 0.0018866893369704485 Z" style="vector-effect: non-scaling-stroke;" /></g></g><g style="stroke: black;stroke-width: 1.2000000000000002;" transform="matrix(1.0, 0.0, 0.0, 1.0, 0.0, 0.0)"><path d="M 0.0 0.0018866893369704485 L 1.0 0.0018866893369704485 L 1.0 0.2933924198150635 L 2.0 0.2933924198150635 L 2.0 -0.007798840757459402 L 3.0 -0.007798840757459402 L 3.0 -0.5868551731109619 L 4.0 -0.5868551731109619 L 4.0 -0.18279537558555603 L 5.0 -0.18279537558555603 L 5.0 -0.7920011281967163 L 6.0 -0.7920011281967163 L 6.0 0.026534290984272957 L 7.0 0.026534290984272957 L 7.0 -0.21062958240509033 L 8.0 -0.21062958240509033 L 8.0 -0.5113672018051147 L 9.0 -0.5113672018051147 L 9.0 -0.7047795653343201 L 10.0 -0.7047795653343201 L 10.0 0.004657376557588577 L 11.0 0.004657376557588577 L 11.0 -0.7935011386871338 L 12.0 -0.7935011386871338 L 12.0 -0.03888131305575371 L 13.0 -0.03888131305575371 L 13.0 -0.19183604419231415 L 14.0 -0.19183604419231415 L 14.0 -0.207100972533226 L 15.0 -0.207100972533226 L 15.0 -0.16566585004329681 L 16.0 -0.16566585004329681 L 16.0 -0.8792361617088318 L 17.0 -0.8792361617088318 L 17.0 0.05059340223670006 L 18.0 0.05059340223670006 L 18.0 -1.1295255422592163 L 19.0 -1.1295255422592163 L 19.0 -0.1701303869485855 L 20.0 -0.1701303869485855 L 20.0 -0.384160578250885 L 21.0 -0.384160578250885 L 21.0 -0.2630276083946228 L 22.0 -0.2630276083946228 L 22.0 -0.6799492835998535 L 23.0 -0.6799492835998535 L 23.0 -0.0915100947022438 L 24.0 -0.0915100947022438 L 24.0 -0.2997337281703949 L 25.0 -0.2997337281703949" style="vector-effect: non-scaling-stroke;fill:none;" /></g></g></g></g></g></g></g></g><g /></g></g></g></g></svg>