<?xml version="1.0" encoding="utf-8" ?>
<svg baseProfile="full" height="300" version="1.1" width="852" xmlns="http://www.w3.org/2000/svg" xmlns:ev="http://www.w3.org/2001/xml-events" xmlns:xlink="http://www.w3.org/1999/xlink"><defs><marker id="arrow" markerHeight="3.5" markerWidth="5" orient="auto" refX="5.0" refY="1.7"><polygon points="0,0 5,1.75 0,3.5" /></marker></defs><g style="fill:white;"><g transform="matrix(1.0, 0.0, 0.0, 1.0, 426.13636363636357, 150.0)"><g transform="matrix(1082.2510822510822, 0.0, 0.0, 1082.2510822510822, 0.0, 0.0)"><g><g transform="matrix(1.0, 0.0, 0.0, 1.0, -5.551115123125783e-17, -0.08000000000000002)"><g><g><g style="fill: #ffffff;stroke: black;stroke-width: 1.2000000000000002;" transform="matrix(1.0, 0.0, 0.0, 1.0, -0.3749999999999999, -0.052000000000000005)"><path d="M 0.0 0.0 L 0.7499999999999999 0.0 L 0.7499999999999999 0.264 L 0.0 0.264 L 0.0 0.0 Z" style="vector-effect: non-scaling-stroke;" /></g><g><g><g><g><g><g transform="matrix(1.0, 0.0, 0.0, 1.0, -0.08, -0.03)"><g transform="matrix(1.0, 0.0, 0.0, 1.0, 0.075, 0.0)"><g transform="matrix(1.0, 0.0, 0.0, 1.0, 0.0, 0.03)"><g transform="matrix(0.01, 0.0, 0.0, 0.01, 0.0, 0.0)"><g><g><g transform="matrix(1.0, 0.0, 0.0, 1.0, 0.5, 0.0)"><g transform="matrix(1.0, 0.0, 0.0, 1.0, -8.0, -0.0)"><g><g style="fill: #d3d3d3;stroke: black;stroke-width: 1.2000000000000002;" transform="matrix(1.0, 0.0, 0.0, 1.0, 0.0, -3.0)"><path d="M 0.0 0.0 L 16.0 0.0 L 16.0 6.0 L 0.0 6.0 L 0.0 0.0 Z" style="vector-effect: non-scaling-stroke;" /></g><g transform="matrix(1.0, 0.0, 0.0, 1.0, 1.875, 0.0)"><g><g style="stroke: black;stroke-width: 1.2000000000000002;" transform="matrix(1.0, 0.0, 0.0, 1.0, 0.0, 0.0)"><g /></g><g style="fill: #ffa500;stroke: black;stroke-width: 1.2000000000000002;" transform="matrix(1.0, 0.0, 0.0, 1.0, 1.875, 0.0)"><text style="text-align:center; text-anchor:middle; dominant-baseline:middle;&#10;                      font-family:sans-serif; font-weight: bold;&#10;                      font-size:3px;&#10;                      vector-effect: non-scaling-stroke;" transform="translate(-5e-05, 0)">x</text></g></g></g></g></g></g><g><g><g><g style="stroke: black;stroke-width: 1.2000000000000002;" transform="matrix(1.0, 0.0, 0.0, 1.0, 0.0, 0.0)"><path d="M 0.0 -2.0 L 0.0 2.0" style="vector-effect: non-scaling-stroke;fill:none;" /></g><g style="stroke: #808080;stroke-width: 0.6000000000000001;" transform="matrix(1.0, 0.0, 0.0, 1.0, 0.0, 0.0)"><path d="M 0.0 0.0 L 1.0 0.0" style="vector-effect: non-scaling-stroke;fill:none;" /></g></g><g style="stroke: black;stroke-width: 2.4000000000000004;" transform="matrix(1.0, 0.0, 0.0, 1.0, 0.0, 0.0)"><path d="M 0.0 -0.7630185484886169 L 1.0 -0.7630185484886169" style="vector-effect: non-scaling-stroke;fill:none;" /></g></g></g></g><g><g><g><g style="stroke: black;stroke-width: 1.2000000000000002;" transform="matrix(1.0, 0.0, 0.0, 1.0, 0.0, 0.0)"><path d="M 0.0 -2.0 L 0.0 2.0" style="vector-effect: non-scaling-stroke;fill:none;" /></g><g style="stroke: #808080;stroke-width: 0.6000000000000001;" transform="matrix(1.0, 0.0, 0.0, 1.0, 0.0, 0.0)"><path d="M 0.0 0.0 L 1.0 0.0" style="vector-effect: non-scaling-stroke;fill:none;" /></g></g><g style="stroke: black;stroke-width: 2.4000000000000004;" transform="matrix(1.0, 0.0, 0.0, 1.0, 0.0, 0.0)"><path d="M 0.0 -0.7630185484886169 L 1.0 -0.7630185484886169" style="vector-effect: non-scaling-stroke;fill:none;" /></g></g></g></g></g></g></g></g><g style="stroke: black;stroke-width: 1.2000000000000002;" transform="matrix(0.0, -1.0, 1.0, 0.0, 0.0, 0.08)"><g /></g></g><g transform="matrix(1.0, 0.0, 0.0, 1.0, 0.0, 0.16)"><g transform="matrix(1.0, 0.0, 0.0, 1.0, -0.32499999999999996, -0.03)"><g transform="matrix(1.0, 0.0, 0.0, 1.0, 0.075, 0.0)"><g transform="matrix(1.0, 0.0, 0.0, 1.0, 0.0, 0.03)"><g transform="matrix(0.01, 0.0, 0.0, 0.01, 0.0, 0.0)"><g><g><g transform="matrix(1.0, 0.0, 0.0, 1.0, 25.0, 0.0)"><g transform="matrix(1.0, 0.0, 0.0, 1.0, -32.5, -0.0)"><g><g style="fill: #d3d3d3;stroke: black;stroke-width: 1.2000000000000002;" transform="matrix(1.0, 0.0, 0.0, 1.0, 0.0, -3.0)"><path d="M 0.0 0.0 L 65.0 0.0 L 65.0 6.0 L 0.0 6.0 L 0.0 0.0 Z" style="vector-effect: non-scaling-stroke;" /></g><g transform="matrix(1.0, 0.0, 0.0, 1.0, 1.875, 0.0)"><g><g style="stroke: black;stroke-width: 1.2000000000000002;" transform="matrix(1.0, 0.0, 0.0, 1.0, 0.0, 0.0)"><g /></g><g style="fill: #ffa500;stroke: black;stroke-width: 1.2000000000000002;" transform="matrix(1.0, 0.0, 0.0, 1.0, 1.875, 0.0)"><text style="text-align:center; text-anchor:middle; dominant-baseline:middle;&#10;                      font-family:sans-serif; font-weight: bold;&#10;                      font-size:3px;&#10;                      vector-effect: non-scaling-stroke;" transform="translate(-5e-05, 0)">f(x)</text></g></g></g></g></g></g><g><g><g><g style="stroke: black;stroke-width: 1.2000000000000002;" transform="matrix(1.0, 0.0, 0.0, 1.0, 0.0, 0.0)"><path d="M 0.0 -2.0 L 0.0 2.0" style="vector-effect: non-scaling-stroke;fill:none;" /></g><g style="stroke: #808080;stroke-width: 0.6000000000000001;" transform="matrix(1.0, 0.0, 0.0, 1.0, 0.0, 0.0)"><path d="M 0.0 0.0 L 50.0 0.0" style="vector-effect: non-scaling-stroke;fill:none;" /></g></g><g style="stroke: black;stroke-width: 2.4000000000000004;" transform="matrix(1.0, 0.0, 0.0, 1.0, 0.0, 0.0)"><path d="M 0.0 -0.0 L 1.0 0.0 L 1.0 -0.015260370448231697 L 2.0 -0.015260370448231697 L 2.0 -0.030520740896463394 L 3.0 -0.030520740896463394 L 3.0 -0.04578111320734024 L 4.0 -0.04578111320734024 L 4.0 -0.06104148179292679 L 5.0 -0.06104148179292679 L 5.0 -0.07630185782909393 L 6.0 -0.07630185782909393 L 6.0 -0.09156222641468048 L 7.0 -0.09156222641468048 L 7.0 -0.10682259500026703 L 8.0 -0.10682259500026703 L 8.0 -0.12208296358585358 L 9.0 -0.12208296358585358 L 9.0 -0.13734334707260132 L 10.0 -0.13734334707260132 L 10.0 -0.15260371565818787 L 11.0 -0.15260371565818787 L 11.0 -0.16786408424377441 L 12.0 -0.16786408424377441 L 12.0 -0.18312445282936096 L 13.0 -0.18312445282936096 L 13.0 -0.1983848214149475 L 14.0 -0.1983848214149475 L 14.0 -0.21364519000053406 L 15.0 -0.21364519000053406 L 15.0 -0.2289055734872818 L 16.0 -0.2289055734872818 L 16.0 -0.24416592717170715 L 17.0 -0.24416592717170715 L 17.0 -0.2594262957572937 L 18.0 -0.2594262957572937 L 18.0 -0.27468669414520264 L 19.0 -0.27468669414520264 L 19.0 -0.2899470329284668 L 20.0 -0.2899470329284668 L 20.0 -0.30520743131637573 L 21.0 -0.30520743131637573 L 21.0 -0.3204677700996399 L 22.0 -0.3204677700996399 L 22.0 -0.33572816848754883 L 23.0 -0.33572816848754883 L 23.0 -0.3509885370731354 L 24.0 -0.3509885370731354 L 24.0 -0.3662489056587219 L 25.0 -0.3662489056587219 L 25.0 -0.38150927424430847 L 26.0 -0.38150927424430847 L 26.0 -0.396769642829895 L 27.0 -0.396769642829895 L 27.0 -0.41203004121780396 L 28.0 -0.41203004121780396 L 28.0 -0.4272903800010681 L 29.0 -0.4272903800010681 L 29.0 -0.44255074858665466 L 30.0 -0.44255074858665466 L 30.0 -0.4578111469745636 L 31.0 -0.4578111469745636 L 31.0 -0.47307151556015015 L 32.0 -0.47307151556015015 L 32.0 -0.4883318543434143 L 33.0 -0.4883318543434143 L 33.0 -0.5035922527313232 L 34.0 -0.5035922527313232 L 34.0 -0.5188525915145874 L 35.0 -0.5188525915145874 L 35.0 -0.5341129899024963 L 36.0 -0.5341129899024963 L 36.0 -0.5493733882904053 L 37.0 -0.5493733882904053 L 37.0 -0.5646337270736694 L 38.0 -0.5646337270736694 L 38.0 -0.5798940658569336 L 39.0 -0.5798940658569336 L 39.0 -0.5951544642448425 L 40.0 -0.5951544642448425 L 40.0 -0.6104148626327515 L 41.0 -0.6104148626327515 L 41.0 -0.6256752014160156 L 42.0 -0.6256752014160156 L 42.0 -0.6409355401992798 L 43.0 -0.6409355401992798 L 43.0 -0.6561959385871887 L 44.0 -0.6561959385871887 L 44.0 -0.6714563369750977 L 45.0 -0.6714563369750977 L 45.0 -0.6867166757583618 L 46.0 -0.6867166757583618 L 46.0 -0.7019770741462708 L 47.0 -0.7019770741462708 L 47.0 -0.7172374129295349 L 48.0 -0.7172374129295349 L 48.0 -0.7324978113174438 L 49.0 -0.7324978113174438 L 49.0 -0.7477582097053528 L 50.0 -0.7477582097053528" style="vector-effect: non-scaling-stroke;fill:none;" /></g></g></g></g><g><g><g><g style="stroke: black;stroke-width: 1.2000000000000002;" transform="matrix(1.0, 0.0, 0.0, 1.0, 0.0, 0.0)"><path d="M 0.0 -2.0 L 0.0 2.0" style="vector-effect: non-scaling-stroke;fill:none;" /></g><g style="stroke: #808080;stroke-width: 0.6000000000000001;" transform="matrix(1.0, 0.0, 0.0, 1.0, 0.0, 0.0)"><path d="M 0.0 0.0 L 50.0 0.0" style="vector-effect: non-scaling-stroke;fill:none;" /></g></g><g style="stroke: black;stroke-width: 2.4000000000000004;" transform="matrix(1.0, 0.0, 0.0, 1.0, 0.0, 0.0)"><path d="M 0.0 -0.0 L 1.0 0.0 L 1.0 -0.015260370448231697 L 2.0 -0.015260370448231697 L 2.0 -0.030520740896463394 L 3.0 -0.030520740896463394 L 3.0 -0.04578111320734024 L 4.0 -0.04578111320734024 L 4.0 -0.06104148179292679 L 5.0 -0.06104148179292679 L 5.0 -0.07630185782909393 L 6.0 -0.07630185782909393 L 6.0 -0.09156222641468048 L 7.0 -0.09156222641468048 L 7.0 -0.10682259500026703 L 8.0 -0.10682259500026703 L 8.0 -0.12208296358585358 L 9.0 -0.12208296358585358 L 9.0 -0.13734334707260132 L 10.0 -0.13734334707260132 L 10.0 -0.15260371565818787 L 11.0 -0.15260371565818787 L 11.0 -0.16786408424377441 L 12.0 -0.16786408424377441 L 12.0 -0.18312445282936096 L 13.0 -0.18312445282936096 L 13.0 -0.1983848214149475 L 14.0 -0.1983848214149475 L 14.0 -0.21364519000053406 L 15.0 -0.21364519000053406 L 15.0 -0.2289055734872818 L 16.0 -0.2289055734872818 L 16.0 -0.24416592717170715 L 17.0 -0.24416592717170715 L 17.0 -0.2594262957572937 L 18.0 -0.2594262957572937 L 18.0 -0.27468669414520264 L 19.0 -0.27468669414520264 L 19.0 -0.2899470329284668 L 20.0 -0.2899470329284668 L 20.0 -0.30520743131637573 L 21.0 -0.30520743131637573 L 21.0 -0.3204677700996399 L 22.0 -0.3204677700996399 L 22.0 -0.33572816848754883 L 23.0 -0.33572816848754883 L 23.0 -0.3509885370731354 L 24.0 -0.3509885370731354 L 24.0 -0.3662489056587219 L 25.0 -0.3662489056587219 L 25.0 -0.38150927424430847 L 26.0 -0.38150927424430847 L 26.0 -0.396769642829895 L 27.0 -0.396769642829895 L 27.0 -0.41203004121780396 L 28.0 -0.41203004121780396 L 28.0 -0.4272903800010681 L 29.0 -0.4272903800010681 L 29.0 -0.44255074858665466 L 30.0 -0.44255074858665466 L 30.0 -0.4578111469745636 L 31.0 -0.4578111469745636 L 31.0 -0.47307151556015015 L 32.0 -0.47307151556015015 L 32.0 -0.4883318543434143 L 33.0 -0.4883318543434143 L 33.0 -0.5035922527313232 L 34.0 -0.5035922527313232 L 34.0 -0.5188525915145874 L 35.0 -0.5188525915145874 L 35.0 -0.5341129899024963 L 36.0 -0.5341129899024963 L 36.0 -0.5493733882904053 L 37.0 -0.5493733882904053 L 37.0 -0.5646337270736694 L 38.0 -0.5646337270736694 L 38.0 -0.5798940658569336 L 39.0 -0.5798940658569336 L 39.0 -0.5951544642448425 L 40.0 -0.5951544642448425 L 40.0 -0.6104148626327515 L 41.0 -0.6104148626327515 L 41.0 -0.6256752014160156 L 42.0 -0.6256752014160156 L 42.0 -0.6409355401992798 L 43.0 -0.6409355401992798 L 43.0 -0.6561959385871887 L 44.0 -0.6561959385871887 L 44.0 -0.6714563369750977 L 45.0 -0.6714563369750977 L 45.0 -0.6867166757583618 L 46.0 -0.6867166757583618 L 46.0 -0.7019770741462708 L 47.0 -0.7019770741462708 L 47.0 -0.7172374129295349 L 48.0 -0.7172374129295349 L 48.0 -0.7324978113174438 L 49.0 -0.7324978113174438 L 49.0 -0.7477582097053528 L 50.0 -0.7477582097053528" style="vector-effect: non-scaling-stroke;fill:none;" /></g></g></g></g></g></g></g></g></g></g><g transform="matrix(1.0, 0.0, 0.0, 1.0, -0.24999999999999994, 0.16)"><g transform="matrix(1.0, 0.0, 0.0, 0.009999999999999995, 0.0, 0.0)"><g transform="matrix(0.01, 0.0, 0.0, 1.0, 0.0, 0.0)"><g><g><g style="fill: #ff0000;stroke: #ff0000;stroke-width: 1.2000000000000002;fill-opacity: 0.5;" transform="matrix(1.0, 0.0, 0.0, 1.0, 0.0, 0.0)"><path d="M 0.0 -2.0 L 0.0 2.0" style="vector-effect: non-scaling-stroke;fill:none;" /></g><g style="fill: #ff0000;stroke: #ff0000;stroke-width: 1.2000000000000002;fill-opacity: 0.5;" transform="matrix(1.0, 0.0, 0.0, 1.0, 0.0, 0.0)"><path d="M 0.0 -0.0 L 1.0 0.0 L 1.0 -0.015260370448231697 L 2.0 -0.015260370448231697 L 2.0 -0.030520740896463394 L 3.0 -0.030520740896463394 L 3.0 -0.04578111320734024 L 4.0 -0.04578111320734024 L 4.0 -0.06104148179292679 L 5.0 -0.06104148179292679 L 5.0 -0.07630185782909393 L 6.0 -0.07630185782909393 L 6.0 -0.09156222641468048 L 7.0 -0.09156222641468048 L 7.0 -0.10682259500026703 L 8.0 -0.10682259500026703 L 8.0 -0.12208296358585358 L 9.0 -0.12208296358585358 L 9.0 -0.13734334707260132 L 10.0 -0.13734334707260132 L 10.0 -0.15260371565818787 L 11.0 -0.15260371565818787 L 11.0 -0.16786408424377441 L 12.0 -0.16786408424377441 L 12.0 -0.18312445282936096 L 13.0 -0.18312445282936096 L 13.0 -0.1983848214149475 L 14.0 -0.1983848214149475 L 14.0 -0.21364519000053406 L 15.0 -0.21364519000053406 L 15.0 -0.2289055734872818 L 16.0 -0.2289055734872818 L 16.0 -0.24416592717170715 L 17.0 -0.24416592717170715 L 17.0 -0.2594262957572937 L 18.0 -0.2594262957572937 L 18.0 -0.27468669414520264 L 19.0 -0.27468669414520264 L 19.0 -0.2899470329284668 L 20.0 -0.2899470329284668 L 20.0 -0.30520743131637573 L 21.0 -0.30520743131637573 L 21.0 -0.3204677700996399 L 22.0 -0.3204677700996399 L 22.0 -0.33572816848754883 L 23.0 -0.33572816848754883 L 23.0 -0.3509885370731354 L 24.0 -0.3509885370731354 L 24.0 -0.3662489056587219 L 25.0 -0.3662489056587219 L 25.0 -0.38150927424430847 L 26.0 -0.38150927424430847 L 26.0 -0.396769642829895 L 27.0 -0.396769642829895 L 27.0 -0.41203004121780396 L 28.0 -0.41203004121780396 L 28.0 -0.4272903800010681 L 29.0 -0.4272903800010681 L 29.0 -0.44255074858665466 L 30.0 -0.44255074858665466 L 30.0 -0.4578111469745636 L 31.0 -0.4578111469745636 L 31.0 -0.47307151556015015 L 32.0 -0.47307151556015015 L 32.0 -0.4883318543434143 L 33.0 -0.4883318543434143 L 33.0 -0.5035922527313232 L 34.0 -0.5035922527313232 L 34.0 -0.5188525915145874 L 35.0 -0.5188525915145874 L 35.0 -0.5341129899024963 L 36.0 -0.5341129899024963 L 36.0 -0.5493733882904053 L 37.0 -0.5493733882904053 L 37.0 -0.5646337270736694 L 38.0 -0.5646337270736694 L 38.0 -0.5798940658569336 L 39.0 -0.5798940658569336 L 39.0 -0.5951544642448425 L 40.0 -0.5951544642448425 L 40.0 -0.6104148626327515 L 41.0 -0.6104148626327515 L 41.0 -0.6256752014160156 L 42.0 -0.6256752014160156 L 42.0 -0.6409355401992798 L 43.0 -0.6409355401992798 L 43.0 -0.6561959385871887 L 44.0 -0.6561959385871887 L 44.0 -0.6714563369750977 L 45.0 -0.6714563369750977 L 45.0 -0.6867166757583618 L 46.0 -0.6867166757583618 L 46.0 -0.7019770741462708 L 47.0 -0.7019770741462708 L 47.0 -0.7172374129295349 L 48.0 -0.7172374129295349 L 48.0 -0.7324978113174438 L 49.0 -0.7324978113174438 L 49.0 -0.7477582097053528 L 50.0 -0.7477582097053528 L 50.0 -0.7477582097053528 L 49.0 -0.7477582097053528 L 49.0 -0.7324978113174438 L 48.0 -0.7324978113174438 L 48.0 -0.7172374129295349 L 47.0 -0.7172374129295349 L 47.0 -0.7019770741462708 L 46.0 -0.7019770741462708 L 46.0 -0.6867166757583618 L 45.0 -0.6867166757583618 L 45.0 -0.6714563369750977 L 44.0 -0.6714563369750977 L 44.0 -0.6561959385871887 L 43.0 -0.6561959385871887 L 43.0 -0.6409355401992798 L 42.0 -0.6409355401992798 L 42.0 -0.6256752014160156 L 41.0 -0.6256752014160156 L 41.0 -0.6104148626327515 L 40.0 -0.6104148626327515 L 40.0 -0.5951544642448425 L 39.0 -0.5951544642448425 L 39.0 -0.5798940658569336 L 38.0 -0.5798940658569336 L 38.0 -0.5646337270736694 L 37.0 -0.5646337270736694 L 37.0 -0.5493733882904053 L 36.0 -0.5493733882904053 L 36.0 -0.5341129899024963 L 35.0 -0.5341129899024963 L 35.0 -0.5188525915145874 L 34.0 -0.5188525915145874 L 34.0 -0.5035922527313232 L 33.0 -0.5035922527313232 L 33.0 -0.4883318543434143 L 32.0 -0.4883318543434143 L 32.0 -0.47307151556015015 L 31.0 -0.47307151556015015 L 31.0 -0.4578111469745636 L 30.0 -0.4578111469745636 L 30.0 -0.44255074858665466 L 29.0 -0.44255074858665466 L 29.0 -0.4272903800010681 L 28.0 -0.4272903800010681 L 28.0 -0.41203004121780396 L 27.0 -0.41203004121780396 L 27.0 -0.396769642829895 L 26.0 -0.396769642829895 L 26.0 -0.38150927424430847 L 25.0 -0.38150927424430847 L 25.0 -0.3662489056587219 L 24.0 -0.3662489056587219 L 24.0 -0.3509885370731354 L 23.0 -0.3509885370731354 L 23.0 -0.33572816848754883 L 22.0 -0.33572816848754883 L 22.0 -0.3204677700996399 L 21.0 -0.3204677700996399 L 21.0 -0.30520743131637573 L 20.0 -0.30520743131637573 L 20.0 -0.2899470329284668 L 19.0 -0.2899470329284668 L 19.0 -0.27468669414520264 L 18.0 -0.27468669414520264 L 18.0 -0.2594262957572937 L 17.0 -0.2594262957572937 L 17.0 -0.24416592717170715 L 16.0 -0.24416592717170715 L 16.0 -0.2289055734872818 L 15.0 -0.2289055734872818 L 15.0 -0.21364519000053406 L 14.0 -0.21364519000053406 L 14.0 -0.1983848214149475 L 13.0 -0.1983848214149475 L 13.0 -0.18312445282936096 L 12.0 -0.18312445282936096 L 12.0 -0.16786408424377441 L 11.0 -0.16786408424377441 L 11.0 -0.15260371565818787 L 10.0 -0.15260371565818787 L 10.0 -0.13734334707260132 L 9.0 -0.13734334707260132 L 9.0 -0.12208296358585358 L 8.0 -0.12208296358585358 L 8.0 -0.10682259500026703 L 7.0 -0.10682259500026703 L 7.0 -0.09156222641468048 L 6.0 -0.09156222641468048 L 6.0 -0.07630185782909393 L 5.0 -0.07630185782909393 L 5.0 -0.06104148179292679 L 4.0 -0.06104148179292679 L 4.0 -0.04578111320734024 L 3.0 -0.04578111320734024 L 3.0 -0.030520740896463394 L 2.0 -0.030520740896463394 L 2.0 -0.015260370448231697 L 1.0 -0.015260370448231697 L 1.0 0.0 L 0.0 0.0 Z" style="vector-effect: non-scaling-stroke;" /></g></g><g style="stroke: black;stroke-width: 1.2000000000000002;" transform="matrix(1.0, 0.0, 0.0, 1.0, 0.0, 0.0)"><path d="M 0.0 -0.0 L 1.0 0.0 L 1.0 -0.015260370448231697 L 2.0 -0.015260370448231697 L 2.0 -0.030520740896463394 L 3.0 -0.030520740896463394 L 3.0 -0.04578111320734024 L 4.0 -0.04578111320734024 L 4.0 -0.06104148179292679 L 5.0 -0.06104148179292679 L 5.0 -0.07630185782909393 L 6.0 -0.07630185782909393 L 6.0 -0.09156222641468048 L 7.0 -0.09156222641468048 L 7.0 -0.10682259500026703 L 8.0 -0.10682259500026703 L 8.0 -0.12208296358585358 L 9.0 -0.12208296358585358 L 9.0 -0.13734334707260132 L 10.0 -0.13734334707260132 L 10.0 -0.15260371565818787 L 11.0 -0.15260371565818787 L 11.0 -0.16786408424377441 L 12.0 -0.16786408424377441 L 12.0 -0.18312445282936096 L 13.0 -0.18312445282936096 L 13.0 -0.1983848214149475 L 14.0 -0.1983848214149475 L 14.0 -0.21364519000053406 L 15.0 -0.21364519000053406 L 15.0 -0.2289055734872818 L 16.0 -0.2289055734872818 L 16.0 -0.24416592717170715 L 17.0 -0.24416592717170715 L 17.0 -0.2594262957572937 L 18.0 -0.2594262957572937 L 18.0 -0.27468669414520264 L 19.0 -0.27468669414520264 L 19.0 -0.2899470329284668 L 20.0 -0.2899470329284668 L 20.0 -0.30520743131637573 L 21.0 -0.30520743131637573 L 21.0 -0.3204677700996399 L 22.0 -0.3204677700996399 L 22.0 -0.33572816848754883 L 23.0 -0.33572816848754883 L 23.0 -0.3509885370731354 L 24.0 -0.3509885370731354 L 24.0 -0.3662489056587219 L 25.0 -0.3662489056587219 L 25.0 -0.38150927424430847 L 26.0 -0.38150927424430847 L 26.0 -0.396769642829895 L 27.0 -0.396769642829895 L 27.0 -0.41203004121780396 L 28.0 -0.41203004121780396 L 28.0 -0.4272903800010681 L 29.0 -0.4272903800010681 L 29.0 -0.44255074858665466 L 30.0 -0.44255074858665466 L 30.0 -0.4578111469745636 L 31.0 -0.4578111469745636 L 31.0 -0.47307151556015015 L 32.0 -0.47307151556015015 L 32.0 -0.4883318543434143 L 33.0 -0.4883318543434143 L 33.0 -0.5035922527313232 L 34.0 -0.5035922527313232 L 34.0 -0.5188525915145874 L 35.0 -0.5188525915145874 L 35.0 -0.5341129899024963 L 36.0 -0.5341129899024963 L 36.0 -0.5493733882904053 L 37.0 -0.5493733882904053 L 37.0 -0.5646337270736694 L 38.0 -0.5646337270736694 L 38.0 -0.5798940658569336 L 39.0 -0.5798940658569336 L 39.0 -0.5951544642448425 L 40.0 -0.5951544642448425 L 40.0 -0.6104148626327515 L 41.0 -0.6104148626327515 L 41.0 -0.6256752014160156 L 42.0 -0.6256752014160156 L 42.0 -0.6409355401992798 L 43.0 -0.6409355401992798 L 43.0 -0.6561959385871887 L 44.0 -0.6561959385871887 L 44.0 -0.6714563369750977 L 45.0 -0.6714563369750977 L 45.0 -0.6867166757583618 L 46.0 -0.6867166757583618 L 46.0 -0.7019770741462708 L 47.0 -0.7019770741462708 L 47.0 -0.7172374129295349 L 48.0 -0.7172374129295349 L 48.0 -0.7324978113174438 L 49.0 -0.7324978113174438 L 49.0 -0.7477582097053528 L 50.0 -0.7477582097053528" style="vector-effect: non-scaling-stroke;fill:none;" /></g></g></g></g></g></g><g transform="matrix(1.0, 0.0, 0.0, 1.0, -0.24999999999999994, 0.16)"><g transform="matrix(1.0, 0.0, 0.0, 0.009999999999999995, 0.0, 0.0)"><g transform="matrix(0.01, 0.0, 0.0, 1.0, 0.0, 0.0)"><g><g><g style="fill: #ffffe0;stroke: #ffffe0;stroke-width: 1.2000000000000002;fill-opacity: 0.5;" transform="matrix(1.0, 0.0, 0.0, 1.0, 0.0, 0.0)"><path d="M 0.0 -2.0 L 0.0 2.0" style="vector-effect: non-scaling-stroke;fill:none;" /></g><g style="fill: #ffffe0;stroke: #ffffe0;stroke-width: 1.2000000000000002;fill-opacity: 0.5;" transform="matrix(1.0, 0.0, 0.0, 1.0, 0.0, 0.0)"><path d="M 0.0 -0.0 L 1.0 0.0 L 1.0 -0.055307239294052124 L 2.0 -0.055307239294052124 L 2.0 -0.11061447858810425 L 3.0 -0.11061447858810425 L 3.0 -0.16573545336723328 L 4.0 -0.16573545336723328 L 4.0 -0.2212289571762085 L 5.0 -0.2212289571762085 L 5.0 -0.2767224907875061 L 6.0 -0.2767224907875061 L 6.0 -0.33147090673446655 L 7.0 -0.33147090673446655 L 7.0 -0.38770949840545654 L 8.0 -0.38770949840545654 L 8.0 -0.442457914352417 L 9.0 -0.442457914352417 L 9.0 -0.4979514479637146 L 10.0 -0.4979514479637146 L 10.0 -0.5534449815750122 L 11.0 -0.5534449815750122 L 11.0 -0.6074483394622803 L 12.0 -0.6074483394622803 L 12.0 -0.6629418134689331 L 13.0 -0.6629418134689331 L 13.0 -0.7184353470802307 L 14.0 -0.7184353470802307 L 14.0 -0.7754189968109131 L 15.0 -0.7754189968109131 L 15.0 -0.8294223546981812 L 16.0 -0.8294223546981812 L 16.0 -0.884915828704834 L 17.0 -0.884915828704834 L 17.0 -0.9418994784355164 L 18.0 -0.9418994784355164 L 18.0 -0.9959028959274292 L 19.0 -0.9959028959274292 L 19.0 -1.0528864860534668 L 20.0 -1.0528864860534668 L 20.0 -1.1068899631500244 L 21.0 -1.1068899631500244 L 21.0 -1.1638734340667725 L 22.0 -1.1638734340667725 L 22.0 -1.2148966789245605 L 23.0 -1.2148966789245605 L 23.0 -1.2718802690505981 L 24.0 -1.2718802690505981 L 24.0 -1.3258836269378662 L 25.0 -1.3258836269378662 L 25.0 -1.3828673362731934 L 26.0 -1.3828673362731934 L 26.0 -1.4368706941604614 L 27.0 -1.4368706941604614 L 27.0 -1.493854284286499 L 28.0 -1.493854284286499 L 28.0 -1.5508379936218262 L 29.0 -1.5508379936218262 L 29.0 -1.6048413515090942 L 30.0 -1.6048413515090942 L 30.0 -1.6588447093963623 L 31.0 -1.6588447093963623 L 31.0 -1.71284818649292 L 32.0 -1.71284818649292 L 32.0 -1.769831657409668 L 33.0 -1.769831657409668 L 33.0 -1.8268153667449951 L 34.0 -1.8268153667449951 L 34.0 -1.8837989568710327 L 35.0 -1.8837989568710327 L 35.0 -1.9348220825195312 L 36.0 -1.9348220825195312 L 36.0 -1.9918057918548584 L 37.0 -1.9918057918548584 L 37.0 -2.0 L 38.0 -2.0 L 38.0 -2.0 L 39.0 -2.0 L 39.0 -2.0 L 40.0 -2.0 L 40.0 -2.0 L 41.0 -2.0 L 41.0 -2.0 L 42.0 -2.0 L 42.0 -2.0 L 43.0 -2.0 L 43.0 -2.0 L 44.0 -2.0 L 44.0 -2.0 L 45.0 -2.0 L 45.0 -2.0 L 46.0 -2.0 L 46.0 -2.0 L 47.0 -2.0 L 47.0 -2.0 L 48.0 -2.0 L 48.0 -2.0 L 49.0 -2.0 L 49.0 -2.0 L 50.0 -2.0 L 50.0 -0.7477582097053528 L 49.0 -0.7477582097053528 L 49.0 -0.7324978113174438 L 48.0 -0.7324978113174438 L 48.0 -0.7172374129295349 L 47.0 -0.7172374129295349 L 47.0 -0.7019770741462708 L 46.0 -0.7019770741462708 L 46.0 -0.6867166757583618 L 45.0 -0.6867166757583618 L 45.0 -0.6714563369750977 L 44.0 -0.6714563369750977 L 44.0 -0.6561959385871887 L 43.0 -0.6561959385871887 L 43.0 -0.6409355401992798 L 42.0 -0.6409355401992798 L 42.0 -0.6256752014160156 L 41.0 -0.6256752014160156 L 41.0 -0.6104148626327515 L 40.0 -0.6104148626327515 L 40.0 -0.5951544642448425 L 39.0 -0.5951544642448425 L 39.0 -0.5798940658569336 L 38.0 -0.5798940658569336 L 38.0 -0.5646337270736694 L 37.0 -0.5646337270736694 L 37.0 -0.5493733882904053 L 36.0 -0.5493733882904053 L 36.0 -0.5341129899024963 L 35.0 -0.5341129899024963 L 35.0 -0.5188525915145874 L 34.0 -0.5188525915145874 L 34.0 -0.5035922527313232 L 33.0 -0.5035922527313232 L 33.0 -0.4883318543434143 L 32.0 -0.4883318543434143 L 32.0 -0.47307151556015015 L 31.0 -0.47307151556015015 L 31.0 -0.4578111469745636 L 30.0 -0.4578111469745636 L 30.0 -0.44255074858665466 L 29.0 -0.44255074858665466 L 29.0 -0.4272903800010681 L 28.0 -0.4272903800010681 L 28.0 -0.41203004121780396 L 27.0 -0.41203004121780396 L 27.0 -0.396769642829895 L 26.0 -0.396769642829895 L 26.0 -0.38150927424430847 L 25.0 -0.38150927424430847 L 25.0 -0.3662489056587219 L 24.0 -0.3662489056587219 L 24.0 -0.3509885370731354 L 23.0 -0.3509885370731354 L 23.0 -0.33572816848754883 L 22.0 -0.33572816848754883 L 22.0 -0.3204677700996399 L 21.0 -0.3204677700996399 L 21.0 -0.30520743131637573 L 20.0 -0.30520743131637573 L 20.0 -0.2899470329284668 L 19.0 -0.2899470329284668 L 19.0 -0.27468669414520264 L 18.0 -0.27468669414520264 L 18.0 -0.2594262957572937 L 17.0 -0.2594262957572937 L 17.0 -0.24416592717170715 L 16.0 -0.24416592717170715 L 16.0 -0.2289055734872818 L 15.0 -0.2289055734872818 L 15.0 -0.21364519000053406 L 14.0 -0.21364519000053406 L 14.0 -0.1983848214149475 L 13.0 -0.1983848214149475 L 13.0 -0.18312445282936096 L 12.0 -0.18312445282936096 L 12.0 -0.16786408424377441 L 11.0 -0.16786408424377441 L 11.0 -0.15260371565818787 L 10.0 -0.15260371565818787 L 10.0 -0.13734334707260132 L 9.0 -0.13734334707260132 L 9.0 -0.12208296358585358 L 8.0 -0.12208296358585358 L 8.0 -0.10682259500026703 L 7.0 -0.10682259500026703 L 7.0 -0.09156222641468048 L 6.0 -0.09156222641468048 L 6.0 -0.07630185782909393 L 5.0 -0.07630185782909393 L 5.0 -0.06104148179292679 L 4.0 -0.06104148179292679 L 4.0 -0.04578111320734024 L 3.0 -0.04578111320734024 L 3.0 -0.030520740896463394 L 2.0 -0.030520740896463394 L 2.0 -0.015260370448231697 L 1.0 -0.015260370448231697 L 1.0 0.0 L 0.0 0.0 Z" style="vector-effect: non-scaling-stroke;" /></g></g><g style="stroke: black;stroke-width: 1.2000000000000002;" transform="matrix(1.0, 0.0, 0.0, 1.0, 0.0, 0.0)"><path d="M 0.0 -0.0 L 1.0 0.0 L 1.0 -0.015260370448231697 L 2.0 -0.015260370448231697 L 2.0 -0.030520740896463394 L 3.0 -0.030520740896463394 L 3.0 -0.04578111320734024 L 4.0 -0.04578111320734024 L 4.0 -0.06104148179292679 L 5.0 -0.06104148179292679 L 5.0 -0.07630185782909393 L 6.0 -0.07630185782909393 L 6.0 -0.09156222641468048 L 7.0 -0.09156222641468048 L 7.0 -0.10682259500026703 L 8.0 -0.10682259500026703 L 8.0 -0.12208296358585358 L 9.0 -0.12208296358585358 L 9.0 -0.13734334707260132 L 10.0 -0.13734334707260132 L 10.0 -0.15260371565818787 L 11.0 -0.15260371565818787 L 11.0 -0.16786408424377441 L 12.0 -0.16786408424377441 L 12.0 -0.18312445282936096 L 13.0 -0.18312445282936096 L 13.0 -0.1983848214149475 L 14.0 -0.1983848214149475 L 14.0 -0.21364519000053406 L 15.0 -0.21364519000053406 L 15.0 -0.2289055734872818 L 16.0 -0.2289055734872818 L 16.0 -0.24416592717170715 L 17.0 -0.24416592717170715 L 17.0 -0.2594262957572937 L 18.0 -0.2594262957572937 L 18.0 -0.27468669414520264 L 19.0 -0.27468669414520264 L 19.0 -0.2899470329284668 L 20.0 -0.2899470329284668 L 20.0 -0.30520743131637573 L 21.0 -0.30520743131637573 L 21.0 -0.3204677700996399 L 22.0 -0.3204677700996399 L 22.0 -0.33572816848754883 L 23.0 -0.33572816848754883 L 23.0 -0.3509885370731354 L 24.0 -0.3509885370731354 L 24.0 -0.3662489056587219 L 25.0 -0.3662489056587219 L 25.0 -0.38150927424430847 L 26.0 -0.38150927424430847 L 26.0 -0.396769642829895 L 27.0 -0.396769642829895 L 27.0 -0.41203004121780396 L 28.0 -0.41203004121780396 L 28.0 -0.4272903800010681 L 29.0 -0.4272903800010681 L 29.0 -0.44255074858665466 L 30.0 -0.44255074858665466 L 30.0 -0.4578111469745636 L 31.0 -0.4578111469745636 L 31.0 -0.47307151556015015 L 32.0 -0.47307151556015015 L 32.0 -0.4883318543434143 L 33.0 -0.4883318543434143 L 33.0 -0.5035922527313232 L 34.0 -0.5035922527313232 L 34.0 -0.5188525915145874 L 35.0 -0.5188525915145874 L 35.0 -0.5341129899024963 L 36.0 -0.5341129899024963 L 36.0 -0.5493733882904053 L 37.0 -0.5493733882904053 L 37.0 -0.5646337270736694 L 38.0 -0.5646337270736694 L 38.0 -0.5798940658569336 L 39.0 -0.5798940658569336 L 39.0 -0.5951544642448425 L 40.0 -0.5951544642448425 L 40.0 -0.6104148626327515 L 41.0 -0.6104148626327515 L 41.0 -0.6256752014160156 L 42.0 -0.6256752014160156 L 42.0 -0.6409355401992798 L 43.0 -0.6409355401992798 L 43.0 -0.6561959385871887 L 44.0 -0.6561959385871887 L 44.0 -0.6714563369750977 L 45.0 -0.6714563369750977 L 45.0 -0.6867166757583618 L 46.0 -0.6867166757583618 L 46.0 -0.7019770741462708 L 47.0 -0.7019770741462708 L 47.0 -0.7172374129295349 L 48.0 -0.7172374129295349 L 48.0 -0.7324978113174438 L 49.0 -0.7324978113174438 L 49.0 -0.7477582097053528 L 50.0 -0.7477582097053528" style="vector-effect: non-scaling-stroke;fill:none;" /></g></g></g></g></g></g></g></g><g><g><g><g><g transform="matrix(1.0, 0.0, 0.0, 1.0, -0.08, -0.03)"><g transform="matrix(1.0, 0.0, 0.0, 1.0, 0.075, 0.0)"><g transform="matrix(1.0, 0.0, 0.0, 1.0, 0.0, 0.03)"><g transform="matrix(0.01, 0.0, 0.0, 0.01, 0.0, 0.0)"><g><g><g transform="matrix(1.0, 0.0, 0.0, 1.0, 0.5, 0.0)"><g transform="matrix(1.0, 0.0, 0.0, 1.0, -8.0, -0.0)"><g><g style="fill: #d3d3d3;stroke: black;stroke-width: 1.2000000000000002;" transform="matrix(1.0, 0.0, 0.0, 1.0, 0.0, -3.0)"><path d="M 0.0 0.0 L 16.0 0.0 L 16.0 6.0 L 0.0 6.0 L 0.0 0.0 Z" style="vector-effect: non-scaling-stroke;" /></g><g transform="matrix(1.0, 0.0, 0.0, 1.0, 1.875, 0.0)"><g><g style="stroke: black;stroke-width: 1.2000000000000002;" transform="matrix(1.0, 0.0, 0.0, 1.0, 0.0, 0.0)"><g /></g><g style="fill: #ffa500;stroke: black;stroke-width: 1.2000000000000002;" transform="matrix(1.0, 0.0, 0.0, 1.0, 1.875, 0.0)"><text style="text-align:center; text-anchor:middle; dominant-baseline:middle;&#10;                      font-family:sans-serif; font-weight: bold;&#10;                      font-size:3px;&#10;                      vector-effect: non-scaling-stroke;" transform="translate(-5e-05, 0)">x</text></g></g></g></g></g></g><g><g><g><g style="stroke: black;stroke-width: 1.2000000000000002;" transform="matrix(1.0, 0.0, 0.0, 1.0, 0.0, 0.0)"><path d="M 0.0 -2.0 L 0.0 2.0" style="vector-effect: non-scaling-stroke;fill:none;" /></g><g style="stroke: #808080;stroke-width: 0.6000000000000001;" transform="matrix(1.0, 0.0, 0.0, 1.0, 0.0, 0.0)"><path d="M 0.0 0.0 L 1.0 0.0" style="vector-effect: non-scaling-stroke;fill:none;" /></g></g><g style="stroke: black;stroke-width: 2.4000000000000004;" transform="matrix(1.0, 0.0, 0.0, 1.0, 0.0, 0.0)"><path d="M 0.0 -0.7630185484886169 L 1.0 -0.7630185484886169" style="vector-effect: non-scaling-stroke;fill:none;" /></g></g></g></g><g><g><g><g style="stroke: black;stroke-width: 1.2000000000000002;" transform="matrix(1.0, 0.0, 0.0, 1.0, 0.0, 0.0)"><path d="M 0.0 -2.0 L 0.0 2.0" style="vector-effect: non-scaling-stroke;fill:none;" /></g><g style="stroke: #808080;stroke-width: 0.6000000000000001;" transform="matrix(1.0, 0.0, 0.0, 1.0, 0.0, 0.0)"><path d="M 0.0 0.0 L 1.0 0.0" style="vector-effect: non-scaling-stroke;fill:none;" /></g></g><g style="stroke: black;stroke-width: 2.4000000000000004;" transform="matrix(1.0, 0.0, 0.0, 1.0, 0.0, 0.0)"><path d="M 0.0 -0.7630185484886169 L 1.0 -0.7630185484886169" style="vector-effect: non-scaling-stroke;fill:none;" /></g></g></g></g></g></g></g></g><g style="stroke: black;stroke-width: 1.2000000000000002;" transform="matrix(0.0, -1.0, 1.0, 0.0, 0.0, 0.08)"><g /></g></g><g transform="matrix(1.0, 0.0, 0.0, 1.0, 0.0, 0.16)"><g transform="matrix(1.0, 0.0, 0.0, 1.0, -0.32499999999999996, -0.03)"><g transform="matrix(1.0, 0.0, 0.0, 1.0, 0.075, 0.0)"><g transform="matrix(1.0, 0.0, 0.0, 1.0, 0.0, 0.03)"><g transform="matrix(0.01, 0.0, 0.0, 0.01, 0.0, 0.0)"><g><g><g transform="matrix(1.0, 0.0, 0.0, 1.0, 25.0, 0.0)"><g transform="matrix(1.0, 0.0, 0.0, 1.0, -32.5, -0.0)"><g><g style="fill: #d3d3d3;stroke: black;stroke-width: 1.2000000000000002;" transform="matrix(1.0, 0.0, 0.0, 1.0, 0.0, -3.0)"><path d="M 0.0 0.0 L 65.0 0.0 L 65.0 6.0 L 0.0 6.0 L 0.0 0.0 Z" style="vector-effect: non-scaling-stroke;" /></g><g transform="matrix(1.0, 0.0, 0.0, 1.0, 1.875, 0.0)"><g><g style="stroke: black;stroke-width: 1.2000000000000002;" transform="matrix(1.0, 0.0, 0.0, 1.0, 0.0, 0.0)"><g /></g><g style="fill: #ffa500;stroke: black;stroke-width: 1.2000000000000002;" transform="matrix(1.0, 0.0, 0.0, 1.0, 1.875, 0.0)"><text style="text-align:center; text-anchor:middle; dominant-baseline:middle;&#10;                      font-family:sans-serif; font-weight: bold;&#10;                      font-size:3px;&#10;                      vector-effect: non-scaling-stroke;" transform="translate(-5e-05, 0)">f(x)</text></g></g></g></g></g></g><g><g><g><g style="stroke: black;stroke-width: 1.2000000000000002;" transform="matrix(1.0, 0.0, 0.0, 1.0, 0.0, 0.0)"><path d="M 0.0 -2.0 L 0.0 2.0" style="vector-effect: non-scaling-stroke;fill:none;" /></g><g style="stroke: #808080;stroke-width: 0.6000000000000001;" transform="matrix(1.0, 0.0, 0.0, 1.0, 0.0, 0.0)"><path d="M 0.0 0.0 L 50.0 0.0" style="vector-effect: non-scaling-stroke;fill:none;" /></g></g><g style="stroke: black;stroke-width: 2.4000000000000004;" transform="matrix(1.0, 0.0, 0.0, 1.0, 0.0, 0.0)"><path d="M 0.0 -0.0 L 1.0 0.0 L 1.0 -0.015260370448231697 L 2.0 -0.015260370448231697 L 2.0 -0.030520740896463394 L 3.0 -0.030520740896463394 L 3.0 -0.04578111320734024 L 4.0 -0.04578111320734024 L 4.0 -0.06104148179292679 L 5.0 -0.06104148179292679 L 5.0 -0.07630185782909393 L 6.0 -0.07630185782909393 L 6.0 -0.09156222641468048 L 7.0 -0.09156222641468048 L 7.0 -0.10682259500026703 L 8.0 -0.10682259500026703 L 8.0 -0.12208296358585358 L 9.0 -0.12208296358585358 L 9.0 -0.13734334707260132 L 10.0 -0.13734334707260132 L 10.0 -0.15260371565818787 L 11.0 -0.15260371565818787 L 11.0 -0.16786408424377441 L 12.0 -0.16786408424377441 L 12.0 -0.18312445282936096 L 13.0 -0.18312445282936096 L 13.0 -0.1983848214149475 L 14.0 -0.1983848214149475 L 14.0 -0.21364519000053406 L 15.0 -0.21364519000053406 L 15.0 -0.2289055734872818 L 16.0 -0.2289055734872818 L 16.0 -0.24416592717170715 L 17.0 -0.24416592717170715 L 17.0 -0.2594262957572937 L 18.0 -0.2594262957572937 L 18.0 -0.27468669414520264 L 19.0 -0.27468669414520264 L 19.0 -0.2899470329284668 L 20.0 -0.2899470329284668 L 20.0 -0.30520743131637573 L 21.0 -0.30520743131637573 L 21.0 -0.3204677700996399 L 22.0 -0.3204677700996399 L 22.0 -0.33572816848754883 L 23.0 -0.33572816848754883 L 23.0 -0.3509885370731354 L 24.0 -0.3509885370731354 L 24.0 -0.3662489056587219 L 25.0 -0.3662489056587219 L 25.0 -0.38150927424430847 L 26.0 -0.38150927424430847 L 26.0 -0.396769642829895 L 27.0 -0.396769642829895 L 27.0 -0.41203004121780396 L 28.0 -0.41203004121780396 L 28.0 -0.4272903800010681 L 29.0 -0.4272903800010681 L 29.0 -0.44255074858665466 L 30.0 -0.44255074858665466 L 30.0 -0.4578111469745636 L 31.0 -0.4578111469745636 L 31.0 -0.47307151556015015 L 32.0 -0.47307151556015015 L 32.0 -0.4883318543434143 L 33.0 -0.4883318543434143 L 33.0 -0.5035922527313232 L 34.0 -0.5035922527313232 L 34.0 -0.5188525915145874 L 35.0 -0.5188525915145874 L 35.0 -0.5341129899024963 L 36.0 -0.5341129899024963 L 36.0 -0.5493733882904053 L 37.0 -0.5493733882904053 L 37.0 -0.5646337270736694 L 38.0 -0.5646337270736694 L 38.0 -0.5798940658569336 L 39.0 -0.5798940658569336 L 39.0 -0.5951544642448425 L 40.0 -0.5951544642448425 L 40.0 -0.6104148626327515 L 41.0 -0.6104148626327515 L 41.0 -0.6256752014160156 L 42.0 -0.6256752014160156 L 42.0 -0.6409355401992798 L 43.0 -0.6409355401992798 L 43.0 -0.6561959385871887 L 44.0 -0.6561959385871887 L 44.0 -0.6714563369750977 L 45.0 -0.6714563369750977 L 45.0 -0.6867166757583618 L 46.0 -0.6867166757583618 L 46.0 -0.7019770741462708 L 47.0 -0.7019770741462708 L 47.0 -0.7172374129295349 L 48.0 -0.7172374129295349 L 48.0 -0.7324978113174438 L 49.0 -0.7324978113174438 L 49.0 -0.7477582097053528 L 50.0 -0.7477582097053528" style="vector-effect: non-scaling-stroke;fill:none;" /></g></g></g></g><g><g><g><g style="stroke: black;stroke-width: 1.2000000000000002;" transform="matrix(1.0, 0.0, 0.0, 1.0, 0.0, 0.0)"><path d="M 0.0 -2.0 L 0.0 2.0" style="vector-effect: non-scaling-stroke;fill:none;" /></g><g style="stroke: #808080;stroke-width: 0.6000000000000001;" transform="matrix(1.0, 0.0, 0.0, 1.0, 0.0, 0.0)"><path d="M 0.0 0.0 L 50.0 0.0" style="vector-effect: non-scaling-stroke;fill:none;" /></g></g><g style="stroke: black;stroke-width: 2.4000000000000004;" transform="matrix(1.0, 0.0, 0.0, 1.0, 0.0, 0.0)"><path d="M 0.0 -0.0 L 1.0 0.0 L 1.0 -0.015260370448231697 L 2.0 -0.015260370448231697 L 2.0 -0.030520740896463394 L 3.0 -0.030520740896463394 L 3.0 -0.04578111320734024 L 4.0 -0.04578111320734024 L 4.0 -0.06104148179292679 L 5.0 -0.06104148179292679 L 5.0 -0.07630185782909393 L 6.0 -0.07630185782909393 L 6.0 -0.09156222641468048 L 7.0 -0.09156222641468048 L 7.0 -0.10682259500026703 L 8.0 -0.10682259500026703 L 8.0 -0.12208296358585358 L 9.0 -0.12208296358585358 L 9.0 -0.13734334707260132 L 10.0 -0.13734334707260132 L 10.0 -0.15260371565818787 L 11.0 -0.15260371565818787 L 11.0 -0.16786408424377441 L 12.0 -0.16786408424377441 L 12.0 -0.18312445282936096 L 13.0 -0.18312445282936096 L 13.0 -0.1983848214149475 L 14.0 -0.1983848214149475 L 14.0 -0.21364519000053406 L 15.0 -0.21364519000053406 L 15.0 -0.2289055734872818 L 16.0 -0.2289055734872818 L 16.0 -0.24416592717170715 L 17.0 -0.24416592717170715 L 17.0 -0.2594262957572937 L 18.0 -0.2594262957572937 L 18.0 -0.27468669414520264 L 19.0 -0.27468669414520264 L 19.0 -0.2899470329284668 L 20.0 -0.2899470329284668 L 20.0 -0.30520743131637573 L 21.0 -0.30520743131637573 L 21.0 -0.3204677700996399 L 22.0 -0.3204677700996399 L 22.0 -0.33572816848754883 L 23.0 -0.33572816848754883 L 23.0 -0.3509885370731354 L 24.0 -0.3509885370731354 L 24.0 -0.3662489056587219 L 25.0 -0.3662489056587219 L 25.0 -0.38150927424430847 L 26.0 -0.38150927424430847 L 26.0 -0.396769642829895 L 27.0 -0.396769642829895 L 27.0 -0.41203004121780396 L 28.0 -0.41203004121780396 L 28.0 -0.4272903800010681 L 29.0 -0.4272903800010681 L 29.0 -0.44255074858665466 L 30.0 -0.44255074858665466 L 30.0 -0.4578111469745636 L 31.0 -0.4578111469745636 L 31.0 -0.47307151556015015 L 32.0 -0.47307151556015015 L 32.0 -0.4883318543434143 L 33.0 -0.4883318543434143 L 33.0 -0.5035922527313232 L 34.0 -0.5035922527313232 L 34.0 -0.5188525915145874 L 35.0 -0.5188525915145874 L 35.0 -0.5341129899024963 L 36.0 -0.5341129899024963 L 36.0 -0.5493733882904053 L 37.0 -0.5493733882904053 L 37.0 -0.5646337270736694 L 38.0 -0.5646337270736694 L 38.0 -0.5798940658569336 L 39.0 -0.5798940658569336 L 39.0 -0.5951544642448425 L 40.0 -0.5951544642448425 L 40.0 -0.6104148626327515 L 41.0 -0.6104148626327515 L 41.0 -0.6256752014160156 L 42.0 -0.6256752014160156 L 42.0 -0.6409355401992798 L 43.0 -0.6409355401992798 L 43.0 -0.6561959385871887 L 44.0 -0.6561959385871887 L 44.0 -0.6714563369750977 L 45.0 -0.6714563369750977 L 45.0 -0.6867166757583618 L 46.0 -0.6867166757583618 L 46.0 -0.7019770741462708 L 47.0 -0.7019770741462708 L 47.0 -0.7172374129295349 L 48.0 -0.7172374129295349 L 48.0 -0.7324978113174438 L 49.0 -0.7324978113174438 L 49.0 -0.7477582097053528 L 50.0 -0.7477582097053528" style="vector-effect: non-scaling-stroke;fill:none;" /></g></g></g></g></g></g></g></g></g></g><g transform="matrix(1.0, 0.0, 0.0, 1.0, -0.24999999999999994, 0.16)"><g transform="matrix(1.0, 0.0, 0.0, 0.009999999999999995, 0.0, 0.0)"><g transform="matrix(0.01, 0.0, 0.0, 1.0, 0.0, 0.0)"><g><g><g style="fill: #ff0000;stroke: #ff0000;stroke-width: 1.2000000000000002;fill-opacity: 0.5;" transform="matrix(1.0, 0.0, 0.0, 1.0, 0.0, 0.0)"><path d="M 0.0 -2.0 L 0.0 2.0" style="vector-effect: non-scaling-stroke;fill:none;" /></g><g style="fill: #ff0000;stroke: #ff0000;stroke-width: 1.2000000000000002;fill-opacity: 0.5;" transform="matrix(1.0, 0.0, 0.0, 1.0, 0.0, 0.0)"><path d="M 0.0 -0.0 L 1.0 0.0 L 1.0 -0.015260370448231697 L 2.0 -0.015260370448231697 L 2.0 -0.030520740896463394 L 3.0 -0.030520740896463394 L 3.0 -0.04578111320734024 L 4.0 -0.04578111320734024 L 4.0 -0.06104148179292679 L 5.0 -0.06104148179292679 L 5.0 -0.07630185782909393 L 6.0 -0.07630185782909393 L 6.0 -0.09156222641468048 L 7.0 -0.09156222641468048 L 7.0 -0.10682259500026703 L 8.0 -0.10682259500026703 L 8.0 -0.12208296358585358 L 9.0 -0.12208296358585358 L 9.0 -0.13734334707260132 L 10.0 -0.13734334707260132 L 10.0 -0.15260371565818787 L 11.0 -0.15260371565818787 L 11.0 -0.16786408424377441 L 12.0 -0.16786408424377441 L 12.0 -0.18312445282936096 L 13.0 -0.18312445282936096 L 13.0 -0.1983848214149475 L 14.0 -0.1983848214149475 L 14.0 -0.21364519000053406 L 15.0 -0.21364519000053406 L 15.0 -0.2289055734872818 L 16.0 -0.2289055734872818 L 16.0 -0.24416592717170715 L 17.0 -0.24416592717170715 L 17.0 -0.2594262957572937 L 18.0 -0.2594262957572937 L 18.0 -0.27468669414520264 L 19.0 -0.27468669414520264 L 19.0 -0.2899470329284668 L 20.0 -0.2899470329284668 L 20.0 -0.30520743131637573 L 21.0 -0.30520743131637573 L 21.0 -0.3204677700996399 L 22.0 -0.3204677700996399 L 22.0 -0.33572816848754883 L 23.0 -0.33572816848754883 L 23.0 -0.3509885370731354 L 24.0 -0.3509885370731354 L 24.0 -0.3662489056587219 L 25.0 -0.3662489056587219 L 25.0 -0.38150927424430847 L 26.0 -0.38150927424430847 L 26.0 -0.396769642829895 L 27.0 -0.396769642829895 L 27.0 -0.41203004121780396 L 28.0 -0.41203004121780396 L 28.0 -0.4272903800010681 L 29.0 -0.4272903800010681 L 29.0 -0.44255074858665466 L 30.0 -0.44255074858665466 L 30.0 -0.4578111469745636 L 31.0 -0.4578111469745636 L 31.0 -0.47307151556015015 L 32.0 -0.47307151556015015 L 32.0 -0.4883318543434143 L 33.0 -0.4883318543434143 L 33.0 -0.5035922527313232 L 34.0 -0.5035922527313232 L 34.0 -0.5188525915145874 L 35.0 -0.5188525915145874 L 35.0 -0.5341129899024963 L 36.0 -0.5341129899024963 L 36.0 -0.5493733882904053 L 37.0 -0.5493733882904053 L 37.0 -0.5646337270736694 L 38.0 -0.5646337270736694 L 38.0 -0.5798940658569336 L 39.0 -0.5798940658569336 L 39.0 -0.5951544642448425 L 40.0 -0.5951544642448425 L 40.0 -0.6104148626327515 L 41.0 -0.6104148626327515 L 41.0 -0.6256752014160156 L 42.0 -0.6256752014160156 L 42.0 -0.6409355401992798 L 43.0 -0.6409355401992798 L 43.0 -0.6561959385871887 L 44.0 -0.6561959385871887 L 44.0 -0.6714563369750977 L 45.0 -0.6714563369750977 L 45.0 -0.6867166757583618 L 46.0 -0.6867166757583618 L 46.0 -0.7019770741462708 L 47.0 -0.7019770741462708 L 47.0 -0.7172374129295349 L 48.0 -0.7172374129295349 L 48.0 -0.7324978113174438 L 49.0 -0.7324978113174438 L 49.0 -0.7477582097053528 L 50.0 -0.7477582097053528 L 50.0 -0.7477582097053528 L 49.0 -0.7477582097053528 L 49.0 -0.7324978113174438 L 48.0 -0.7324978113174438 L 48.0 -0.7172374129295349 L 47.0 -0.7172374129295349 L 47.0 -0.7019770741462708 L 46.0 -0.7019770741462708 L 46.0 -0.6867166757583618 L 45.0 -0.6867166757583618 L 45.0 -0.6714563369750977 L 44.0 -0.6714563369750977 L 44.0 -0.6561959385871887 L 43.0 -0.6561959385871887 L 43.0 -0.6409355401992798 L 42.0 -0.6409355401992798 L 42.0 -0.6256752014160156 L 41.0 -0.6256752014160156 L 41.0 -0.6104148626327515 L 40.0 -0.6104148626327515 L 40.0 -0.5951544642448425 L 39.0 -0.5951544642448425 L 39.0 -0.5798940658569336 L 38.0 -0.5798940658569336 L 38.0 -0.5646337270736694 L 37.0 -0.5646337270736694 L 37.0 -0.5493733882904053 L 36.0 -0.5493733882904053 L 36.0 -0.5341129899024963 L 35.0 -0.5341129899024963 L 35.0 -0.5188525915145874 L 34.0 -0.5188525915145874 L 34.0 -0.5035922527313232 L 33.0 -0.5035922527313232 L 33.0 -0.4883318543434143 L 32.0 -0.4883318543434143 L 32.0 -0.47307151556015015 L 31.0 -0.47307151556015015 L 31.0 -0.4578111469745636 L 30.0 -0.4578111469745636 L 30.0 -0.44255074858665466 L 29.0 -0.44255074858665466 L 29.0 -0.4272903800010681 L 28.0 -0.4272903800010681 L 28.0 -0.41203004121780396 L 27.0 -0.41203004121780396 L 27.0 -0.396769642829895 L 26.0 -0.396769642829895 L 26.0 -0.38150927424430847 L 25.0 -0.38150927424430847 L 25.0 -0.3662489056587219 L 24.0 -0.3662489056587219 L 24.0 -0.3509885370731354 L 23.0 -0.3509885370731354 L 23.0 -0.33572816848754883 L 22.0 -0.33572816848754883 L 22.0 -0.3204677700996399 L 21.0 -0.3204677700996399 L 21.0 -0.30520743131637573 L 20.0 -0.30520743131637573 L 20.0 -0.2899470329284668 L 19.0 -0.2899470329284668 L 19.0 -0.27468669414520264 L 18.0 -0.27468669414520264 L 18.0 -0.2594262957572937 L 17.0 -0.2594262957572937 L 17.0 -0.24416592717170715 L 16.0 -0.24416592717170715 L 16.0 -0.2289055734872818 L 15.0 -0.2289055734872818 L 15.0 -0.21364519000053406 L 14.0 -0.21364519000053406 L 14.0 -0.1983848214149475 L 13.0 -0.1983848214149475 L 13.0 -0.18312445282936096 L 12.0 -0.18312445282936096 L 12.0 -0.16786408424377441 L 11.0 -0.16786408424377441 L 11.0 -0.15260371565818787 L 10.0 -0.15260371565818787 L 10.0 -0.13734334707260132 L 9.0 -0.13734334707260132 L 9.0 -0.12208296358585358 L 8.0 -0.12208296358585358 L 8.0 -0.10682259500026703 L 7.0 -0.10682259500026703 L 7.0 -0.09156222641468048 L 6.0 -0.09156222641468048 L 6.0 -0.07630185782909393 L 5.0 -0.07630185782909393 L 5.0 -0.06104148179292679 L 4.0 -0.06104148179292679 L 4.0 -0.04578111320734024 L 3.0 -0.04578111320734024 L 3.0 -0.030520740896463394 L 2.0 -0.030520740896463394 L 2.0 -0.015260370448231697 L 1.0 -0.015260370448231697 L 1.0 0.0 L 0.0 0.0 Z" style="vector-effect: non-scaling-stroke;" /></g></g><g style="stroke: black;stroke-width: 1.2000000000000002;" transform="matrix(1.0, 0.0, 0.0, 1.0, 0.0, 0.0)"><path d="M 0.0 -0.0 L 1.0 0.0 L 1.0 -0.015260370448231697 L 2.0 -0.015260370448231697 L 2.0 -0.030520740896463394 L 3.0 -0.030520740896463394 L 3.0 -0.04578111320734024 L 4.0 -0.04578111320734024 L 4.0 -0.06104148179292679 L 5.0 -0.06104148179292679 L 5.0 -0.07630185782909393 L 6.0 -0.07630185782909393 L 6.0 -0.09156222641468048 L 7.0 -0.09156222641468048 L 7.0 -0.10682259500026703 L 8.0 -0.10682259500026703 L 8.0 -0.12208296358585358 L 9.0 -0.12208296358585358 L 9.0 -0.13734334707260132 L 10.0 -0.13734334707260132 L 10.0 -0.15260371565818787 L 11.0 -0.15260371565818787 L 11.0 -0.16786408424377441 L 12.0 -0.16786408424377441 L 12.0 -0.18312445282936096 L 13.0 -0.18312445282936096 L 13.0 -0.1983848214149475 L 14.0 -0.1983848214149475 L 14.0 -0.21364519000053406 L 15.0 -0.21364519000053406 L 15.0 -0.2289055734872818 L 16.0 -0.2289055734872818 L 16.0 -0.24416592717170715 L 17.0 -0.24416592717170715 L 17.0 -0.2594262957572937 L 18.0 -0.2594262957572937 L 18.0 -0.27468669414520264 L 19.0 -0.27468669414520264 L 19.0 -0.2899470329284668 L 20.0 -0.2899470329284668 L 20.0 -0.30520743131637573 L 21.0 -0.30520743131637573 L 21.0 -0.3204677700996399 L 22.0 -0.3204677700996399 L 22.0 -0.33572816848754883 L 23.0 -0.33572816848754883 L 23.0 -0.3509885370731354 L 24.0 -0.3509885370731354 L 24.0 -0.3662489056587219 L 25.0 -0.3662489056587219 L 25.0 -0.38150927424430847 L 26.0 -0.38150927424430847 L 26.0 -0.396769642829895 L 27.0 -0.396769642829895 L 27.0 -0.41203004121780396 L 28.0 -0.41203004121780396 L 28.0 -0.4272903800010681 L 29.0 -0.4272903800010681 L 29.0 -0.44255074858665466 L 30.0 -0.44255074858665466 L 30.0 -0.4578111469745636 L 31.0 -0.4578111469745636 L 31.0 -0.47307151556015015 L 32.0 -0.47307151556015015 L 32.0 -0.4883318543434143 L 33.0 -0.4883318543434143 L 33.0 -0.5035922527313232 L 34.0 -0.5035922527313232 L 34.0 -0.5188525915145874 L 35.0 -0.5188525915145874 L 35.0 -0.5341129899024963 L 36.0 -0.5341129899024963 L 36.0 -0.5493733882904053 L 37.0 -0.5493733882904053 L 37.0 -0.5646337270736694 L 38.0 -0.5646337270736694 L 38.0 -0.5798940658569336 L 39.0 -0.5798940658569336 L 39.0 -0.5951544642448425 L 40.0 -0.5951544642448425 L 40.0 -0.6104148626327515 L 41.0 -0.6104148626327515 L 41.0 -0.6256752014160156 L 42.0 -0.6256752014160156 L 42.0 -0.6409355401992798 L 43.0 -0.6409355401992798 L 43.0 -0.6561959385871887 L 44.0 -0.6561959385871887 L 44.0 -0.6714563369750977 L 45.0 -0.6714563369750977 L 45.0 -0.6867166757583618 L 46.0 -0.6867166757583618 L 46.0 -0.7019770741462708 L 47.0 -0.7019770741462708 L 47.0 -0.7172374129295349 L 48.0 -0.7172374129295349 L 48.0 -0.7324978113174438 L 49.0 -0.7324978113174438 L 49.0 -0.7477582097053528 L 50.0 -0.7477582097053528" style="vector-effect: non-scaling-stroke;fill:none;" /></g></g></g></g></g></g><g transform="matrix(1.0, 0.0, 0.0, 1.0, -0.24999999999999994, 0.16)"><g transform="matrix(1.0, 0.0, 0.0, 0.009999999999999995, 0.0, 0.0)"><g transform="matrix(0.01, 0.0, 0.0, 1.0, 0.0, 0.0)"><g><g><g style="fill: #ffffe0;stroke: #ffffe0;stroke-width: 1.2000000000000002;fill-opacity: 0.5;" transform="matrix(1.0, 0.0, 0.0, 1.0, 0.0, 0.0)"><path d="M 0.0 -2.0 L 0.0 2.0" style="vector-effect: non-scaling-stroke;fill:none;" /></g><g style="fill: #ffffe0;stroke: #ffffe0;stroke-width: 1.2000000000000002;fill-opacity: 0.5;" transform="matrix(1.0, 0.0, 0.0, 1.0, 0.0, 0.0)"><path d="M 0.0 -0.0 L 1.0 0.0 L 1.0 -0.055307239294052124 L 2.0 -0.055307239294052124 L 2.0 -0.11061447858810425 L 3.0 -0.11061447858810425 L 3.0 -0.16573545336723328 L 4.0 -0.16573545336723328 L 4.0 -0.2212289571762085 L 5.0 -0.2212289571762085 L 5.0 -0.2767224907875061 L 6.0 -0.2767224907875061 L 6.0 -0.33147090673446655 L 7.0 -0.33147090673446655 L 7.0 -0.38770949840545654 L 8.0 -0.38770949840545654 L 8.0 -0.442457914352417 L 9.0 -0.442457914352417 L 9.0 -0.4979514479637146 L 10.0 -0.4979514479637146 L 10.0 -0.5534449815750122 L 11.0 -0.5534449815750122 L 11.0 -0.6074483394622803 L 12.0 -0.6074483394622803 L 12.0 -0.6629418134689331 L 13.0 -0.6629418134689331 L 13.0 -0.7184353470802307 L 14.0 -0.7184353470802307 L 14.0 -0.7754189968109131 L 15.0 -0.7754189968109131 L 15.0 -0.8294223546981812 L 16.0 -0.8294223546981812 L 16.0 -0.884915828704834 L 17.0 -0.884915828704834 L 17.0 -0.9418994784355164 L 18.0 -0.9418994784355164 L 18.0 -0.9959028959274292 L 19.0 -0.9959028959274292 L 19.0 -1.0528864860534668 L 20.0 -1.0528864860534668 L 20.0 -1.1068899631500244 L 21.0 -1.1068899631500244 L 21.0 -1.1638734340667725 L 22.0 -1.1638734340667725 L 22.0 -1.2148966789245605 L 23.0 -1.2148966789245605 L 23.0 -1.2718802690505981 L 24.0 -1.2718802690505981 L 24.0 -1.3258836269378662 L 25.0 -1.3258836269378662 L 25.0 -1.3828673362731934 L 26.0 -1.3828673362731934 L 26.0 -1.4368706941604614 L 27.0 -1.4368706941604614 L 27.0 -1.493854284286499 L 28.0 -1.493854284286499 L 28.0 -1.5508379936218262 L 29.0 -1.5508379936218262 L 29.0 -1.6048413515090942 L 30.0 -1.6048413515090942 L 30.0 -1.6588447093963623 L 31.0 -1.6588447093963623 L 31.0 -1.71284818649292 L 32.0 -1.71284818649292 L 32.0 -1.769831657409668 L 33.0 -1.769831657409668 L 33.0 -1.8268153667449951 L 34.0 -1.8268153667449951 L 34.0 -1.8837989568710327 L 35.0 -1.8837989568710327 L 35.0 -1.9348220825195312 L 36.0 -1.9348220825195312 L 36.0 -1.9918057918548584 L 37.0 -1.9918057918548584 L 37.0 -2.0 L 38.0 -2.0 L 38.0 -2.0 L 39.0 -2.0 L 39.0 -2.0 L 40.0 -2.0 L 40.0 -2.0 L 41.0 -2.0 L 41.0 -2.0 L 42.0 -2.0 L 42.0 -2.0 L 43.0 -2.0 L 43.0 -2.0 L 44.0 -2.0 L 44.0 -2.0 L 45.0 -2.0 L 45.0 -2.0 L 46.0 -2.0 L 46.0 -2.0 L 47.0 -2.0 L 47.0 -2.0 L 48.0 -2.0 L 48.0 -2.0 L 49.0 -2.0 L 49.0 -2.0 L 50.0 -2.0 L 50.0 -0.7477582097053528 L 49.0 -0.7477582097053528 L 49.0 -0.7324978113174438 L 48.0 -0.7324978113174438 L 48.0 -0.7172374129295349 L 47.0 -0.7172374129295349 L 47.0 -0.7019770741462708 L 46.0 -0.7019770741462708 L 46.0 -0.6867166757583618 L 45.0 -0.6867166757583618 L 45.0 -0.6714563369750977 L 44.0 -0.6714563369750977 L 44.0 -0.6561959385871887 L 43.0 -0.6561959385871887 L 43.0 -0.6409355401992798 L 42.0 -0.6409355401992798 L 42.0 -0.6256752014160156 L 41.0 -0.6256752014160156 L 41.0 -0.6104148626327515 L 40.0 -0.6104148626327515 L 40.0 -0.5951544642448425 L 39.0 -0.5951544642448425 L 39.0 -0.5798940658569336 L 38.0 -0.5798940658569336 L 38.0 -0.5646337270736694 L 37.0 -0.5646337270736694 L 37.0 -0.5493733882904053 L 36.0 -0.5493733882904053 L 36.0 -0.5341129899024963 L 35.0 -0.5341129899024963 L 35.0 -0.5188525915145874 L 34.0 -0.5188525915145874 L 34.0 -0.5035922527313232 L 33.0 -0.5035922527313232 L 33.0 -0.4883318543434143 L 32.0 -0.4883318543434143 L 32.0 -0.47307151556015015 L 31.0 -0.47307151556015015 L 31.0 -0.4578111469745636 L 30.0 -0.4578111469745636 L 30.0 -0.44255074858665466 L 29.0 -0.44255074858665466 L 29.0 -0.4272903800010681 L 28.0 -0.4272903800010681 L 28.0 -0.41203004121780396 L 27.0 -0.41203004121780396 L 27.0 -0.396769642829895 L 26.0 -0.396769642829895 L 26.0 -0.38150927424430847 L 25.0 -0.38150927424430847 L 25.0 -0.3662489056587219 L 24.0 -0.3662489056587219 L 24.0 -0.3509885370731354 L 23.0 -0.3509885370731354 L 23.0 -0.33572816848754883 L 22.0 -0.33572816848754883 L 22.0 -0.3204677700996399 L 21.0 -0.3204677700996399 L 21.0 -0.30520743131637573 L 20.0 -0.30520743131637573 L 20.0 -0.2899470329284668 L 19.0 -0.2899470329284668 L 19.0 -0.27468669414520264 L 18.0 -0.27468669414520264 L 18.0 -0.2594262957572937 L 17.0 -0.2594262957572937 L 17.0 -0.24416592717170715 L 16.0 -0.24416592717170715 L 16.0 -0.2289055734872818 L 15.0 -0.2289055734872818 L 15.0 -0.21364519000053406 L 14.0 -0.21364519000053406 L 14.0 -0.1983848214149475 L 13.0 -0.1983848214149475 L 13.0 -0.18312445282936096 L 12.0 -0.18312445282936096 L 12.0 -0.16786408424377441 L 11.0 -0.16786408424377441 L 11.0 -0.15260371565818787 L 10.0 -0.15260371565818787 L 10.0 -0.13734334707260132 L 9.0 -0.13734334707260132 L 9.0 -0.12208296358585358 L 8.0 -0.12208296358585358 L 8.0 -0.10682259500026703 L 7.0 -0.10682259500026703 L 7.0 -0.09156222641468048 L 6.0 -0.09156222641468048 L 6.0 -0.07630185782909393 L 5.0 -0.07630185782909393 L 5.0 -0.06104148179292679 L 4.0 -0.06104148179292679 L 4.0 -0.04578111320734024 L 3.0 -0.04578111320734024 L 3.0 -0.030520740896463394 L 2.0 -0.030520740896463394 L 2.0 -0.015260370448231697 L 1.0 -0.015260370448231697 L 1.0 0.0 L 0.0 0.0 Z" style="vector-effect: non-scaling-stroke;" /></g></g><g style="stroke: black;stroke-width: 1.2000000000000002;" transform="matrix(1.0, 0.0, 0.0, 1.0, 0.0, 0.0)"><path d="M 0.0 -0.0 L 1.0 0.0 L 1.0 -0.015260370448231697 L 2.0 -0.015260370448231697 L 2.0 -0.030520740896463394 L 3.0 -0.030520740896463394 L 3.0 -0.04578111320734024 L 4.0 -0.04578111320734024 L 4.0 -0.06104148179292679 L 5.0 -0.06104148179292679 L 5.0 -0.07630185782909393 L 6.0 -0.07630185782909393 L 6.0 -0.09156222641468048 L 7.0 -0.09156222641468048 L 7.0 -0.10682259500026703 L 8.0 -0.10682259500026703 L 8.0 -0.12208296358585358 L 9.0 -0.12208296358585358 L 9.0 -0.13734334707260132 L 10.0 -0.13734334707260132 L 10.0 -0.15260371565818787 L 11.0 -0.15260371565818787 L 11.0 -0.16786408424377441 L 12.0 -0.16786408424377441 L 12.0 -0.18312445282936096 L 13.0 -0.18312445282936096 L 13.0 -0.1983848214149475 L 14.0 -0.1983848214149475 L 14.0 -0.21364519000053406 L 15.0 -0.21364519000053406 L 15.0 -0.2289055734872818 L 16.0 -0.2289055734872818 L 16.0 -0.24416592717170715 L 17.0 -0.24416592717170715 L 17.0 -0.2594262957572937 L 18.0 -0.2594262957572937 L 18.0 -0.27468669414520264 L 19.0 -0.27468669414520264 L 19.0 -0.2899470329284668 L 20.0 -0.2899470329284668 L 20.0 -0.30520743131637573 L 21.0 -0.30520743131637573 L 21.0 -0.3204677700996399 L 22.0 -0.3204677700996399 L 22.0 -0.33572816848754883 L 23.0 -0.33572816848754883 L 23.0 -0.3509885370731354 L 24.0 -0.3509885370731354 L 24.0 -0.3662489056587219 L 25.0 -0.3662489056587219 L 25.0 -0.38150927424430847 L 26.0 -0.38150927424430847 L 26.0 -0.396769642829895 L 27.0 -0.396769642829895 L 27.0 -0.41203004121780396 L 28.0 -0.41203004121780396 L 28.0 -0.4272903800010681 L 29.0 -0.4272903800010681 L 29.0 -0.44255074858665466 L 30.0 -0.44255074858665466 L 30.0 -0.4578111469745636 L 31.0 -0.4578111469745636 L 31.0 -0.47307151556015015 L 32.0 -0.47307151556015015 L 32.0 -0.4883318543434143 L 33.0 -0.4883318543434143 L 33.0 -0.5035922527313232 L 34.0 -0.5035922527313232 L 34.0 -0.5188525915145874 L 35.0 -0.5188525915145874 L 35.0 -0.5341129899024963 L 36.0 -0.5341129899024963 L 36.0 -0.5493733882904053 L 37.0 -0.5493733882904053 L 37.0 -0.5646337270736694 L 38.0 -0.5646337270736694 L 38.0 -0.5798940658569336 L 39.0 -0.5798940658569336 L 39.0 -0.5951544642448425 L 40.0 -0.5951544642448425 L 40.0 -0.6104148626327515 L 41.0 -0.6104148626327515 L 41.0 -0.6256752014160156 L 42.0 -0.6256752014160156 L 42.0 -0.6409355401992798 L 43.0 -0.6409355401992798 L 43.0 -0.6561959385871887 L 44.0 -0.6561959385871887 L 44.0 -0.6714563369750977 L 45.0 -0.6714563369750977 L 45.0 -0.6867166757583618 L 46.0 -0.6867166757583618 L 46.0 -0.7019770741462708 L 47.0 -0.7019770741462708 L 47.0 -0.7172374129295349 L 48.0 -0.7172374129295349 L 48.0 -0.7324978113174438 L 49.0 -0.7324978113174438 L 49.0 -0.7477582097053528 L 50.0 -0.7477582097053528" style="vector-effect: non-scaling-stroke;fill:none;" /></g></g></g></g></g></g></g></g><g /></g></g></g></g></svg>