<?xml version="1.0" encoding="utf-8" ?>
<svg baseProfile="full" height="300" version="1.1" width="1056" xmlns="http://www.w3.org/2000/svg" xmlns:ev="http://www.w3.org/2001/xml-events" xmlns:xlink="http://www.w3.org/1999/xlink"><defs><marker id="arrow" markerHeight="3.5" markerWidth="5" orient="auto" refX="5.0" refY="1.7"><polygon points="0,0 5,1.75 0,3.5" /></marker></defs><g style="fill:white;"><g transform="matrix(1.0, 0.0, 0.0, 1.0, 528.409090909091, 150.0)"><g transform="matrix(1082.2510822510822, 0.0, 0.0, 1082.2510822510822, 0.0, 0.0)"><g><g transform="matrix(1.0, 0.0, 0.0, 1.0, -0.0, -0.08000000000000002)"><g><g><g style="fill: #ffffff;stroke: black;stroke-width: 1.2000000000000002;" transform="matrix(1.0, 0.0, 0.0, 1.0, -0.465, -0.052000000000000005)"><path d="M 0.0 0.0 L 0.93 0.0 L 0.93 0.264 L 0.0 0.264 L 0.0 0.0 Z" style="vector-effect: non-scaling-stroke;" /></g><g><g><g><g><g><g><g><g transform="matrix(1.0, 0.0, 0.0, 1.0, -0.41500000000000004, -0.03)"><g><g><g transform="matrix(1.0, 0.0, 0.0, 1.0, 0.075, 0.0)"><g transform="matrix(1.0, 0.0, 0.0, 1.0, 0.0, 0.03)"><g transform="matrix(0.01, 0.0, 0.0, 0.01, 0.0, 0.0)"><g><g><g transform="matrix(1.0, 0.0, 0.0, 1.0, 12.5, 0.0)"><g transform="matrix(1.0, 0.0, 0.0, 1.0, -20.0, -0.0)"><g><g style="fill: #d3d3d3;stroke: black;stroke-width: 1.2000000000000002;" transform="matrix(1.0, 0.0, 0.0, 1.0, 0.0, -3.0)"><path d="M 0.0 0.0 L 40.0 0.0 L 40.0 6.0 L 0.0 6.0 L 0.0 0.0 Z" style="vector-effect: non-scaling-stroke;" /></g><g transform="matrix(1.0, 0.0, 0.0, 1.0, 1.875, 0.0)"><g><g style="stroke: black;stroke-width: 1.2000000000000002;" transform="matrix(1.0, 0.0, 0.0, 1.0, 0.0, 0.0)"><g /></g><g style="fill: #ffa500;stroke: black;stroke-width: 1.2000000000000002;" transform="matrix(1.0, 0.0, 0.0, 1.0, 1.875, 0.0)"><text style="text-align:center; text-anchor:middle; dominant-baseline:middle;&#10;                      font-family:sans-serif; font-weight: bold;&#10;                      font-size:3px;&#10;                      vector-effect: non-scaling-stroke;" transform="translate(-5e-05, 0)">x</text></g></g></g></g></g></g><g><g><g><g><g><g><g><g><g style="stroke: black;stroke-width: 1.2000000000000002;" transform="matrix(1.0, 0.0, 0.0, 1.0, 0.0, 0.0)"><path d="M 0.0 -2.0 L 0.0 2.0" style="vector-effect: non-scaling-stroke;fill:none;" /></g><g style="stroke: #808080;stroke-width: 0.6000000000000001;" transform="matrix(1.0, 0.0, 0.0, 1.0, 0.0, 0.0)"><path d="M 0.0 0.0 L 25.0 0.0" style="vector-effect: non-scaling-stroke;fill:none;" /></g></g><g style="stroke: black;stroke-width: 2.4000000000000004;" transform="matrix(1.0, 0.0, 0.0, 1.0, 0.0, 0.0)"><path d="M 0.0 0.871941864490509 L 1.0 0.871941864490509 L 1.0 0.2536965608596802 L 2.0 0.2536965608596802 L 2.0 0.20256835222244263 L 3.0 0.20256835222244263 L 3.0 0.40527454018592834 L 4.0 0.40527454018592834 L 4.0 -0.26852527260780334 L 5.0 -0.26852527260780334 L 5.0 -0.35136839747428894 L 6.0 -0.35136839747428894 L 6.0 -0.6916482448577881 L 7.0 -0.6916482448577881 L 7.0 0.1972484141588211 L 8.0 0.1972484141588211 L 8.0 -0.9115141034126282 L 9.0 -0.9115141034126282 L 9.0 -0.4357282519340515 L 10.0 -0.4357282519340515 L 10.0 -0.227659672498703 L 11.0 -0.227659672498703 L 11.0 0.2672785520553589 L 12.0 0.2672785520553589 L 12.0 -0.09378920495510101 L 13.0 -0.09378920495510101 L 13.0 -0.03657596930861473 L 14.0 -0.03657596930861473 L 14.0 -0.7623620629310608 L 15.0 -0.7623620629310608 L 15.0 0.05543040484189987 L 16.0 0.05543040484189987 L 16.0 -1.6880478858947754 L 17.0 -1.6880478858947754 L 17.0 -0.9875346422195435 L 18.0 -0.9875346422195435 L 18.0 -1.693429946899414 L 19.0 -1.693429946899414 L 19.0 0.17093953490257263 L 20.0 0.17093953490257263 L 20.0 -1.04374361038208 L 21.0 -1.04374361038208 L 21.0 -0.29867035150527954 L 22.0 -0.29867035150527954 L 22.0 -0.9582696557044983 L 23.0 -0.9582696557044983 L 23.0 -0.444803386926651 L 24.0 -0.444803386926651 L 24.0 -0.6638801097869873 L 25.0 -0.6638801097869873" style="vector-effect: non-scaling-stroke;fill:none;" /></g></g><g style="stroke: black;stroke-width: 1.2000000000000002;" transform="matrix(1.0, 0.0, 0.0, 1.0, 0.0, 0.0)"><path d="M 0.0 -2.0 L 0.0 2.0" style="vector-effect: non-scaling-stroke;fill:none;" /></g></g><g style="stroke: black;stroke-width: 1.2000000000000002;" transform="matrix(1.0, 0.0, 0.0, 1.0, 0.0, 0.0)"><path d="M 5.0 -2.0 L 5.0 2.0" style="vector-effect: non-scaling-stroke;fill:none;" /></g></g><g style="stroke: black;stroke-width: 1.2000000000000002;" transform="matrix(1.0, 0.0, 0.0, 1.0, 0.0, 0.0)"><path d="M 10.0 -2.0 L 10.0 2.0" style="vector-effect: non-scaling-stroke;fill:none;" /></g></g><g style="stroke: black;stroke-width: 1.2000000000000002;" transform="matrix(1.0, 0.0, 0.0, 1.0, 0.0, 0.0)"><path d="M 15.0 -2.0 L 15.0 2.0" style="vector-effect: non-scaling-stroke;fill:none;" /></g></g><g style="stroke: black;stroke-width: 1.2000000000000002;" transform="matrix(1.0, 0.0, 0.0, 1.0, 0.0, 0.0)"><path d="M 20.0 -2.0 L 20.0 2.0" style="vector-effect: non-scaling-stroke;fill:none;" /></g></g></g></g><g><g><g><g><g><g><g><g><g style="stroke: black;stroke-width: 1.2000000000000002;" transform="matrix(1.0, 0.0, 0.0, 1.0, 0.0, 0.0)"><path d="M 0.0 -2.0 L 0.0 2.0" style="vector-effect: non-scaling-stroke;fill:none;" /></g><g style="stroke: #808080;stroke-width: 0.6000000000000001;" transform="matrix(1.0, 0.0, 0.0, 1.0, 0.0, 0.0)"><path d="M 0.0 0.0 L 25.0 0.0" style="vector-effect: non-scaling-stroke;fill:none;" /></g></g><g style="stroke: black;stroke-width: 2.4000000000000004;" transform="matrix(1.0, 0.0, 0.0, 1.0, 0.0, 0.0)"><path d="M 0.0 0.871941864490509 L 1.0 0.871941864490509 L 1.0 0.2536965608596802 L 2.0 0.2536965608596802 L 2.0 0.20256835222244263 L 3.0 0.20256835222244263 L 3.0 0.40527454018592834 L 4.0 0.40527454018592834 L 4.0 -0.26852527260780334 L 5.0 -0.26852527260780334 L 5.0 -0.35136839747428894 L 6.0 -0.35136839747428894 L 6.0 -0.6916482448577881 L 7.0 -0.6916482448577881 L 7.0 0.1972484141588211 L 8.0 0.1972484141588211 L 8.0 -0.9115141034126282 L 9.0 -0.9115141034126282 L 9.0 -0.4357282519340515 L 10.0 -0.4357282519340515 L 10.0 -0.227659672498703 L 11.0 -0.227659672498703 L 11.0 0.2672785520553589 L 12.0 0.2672785520553589 L 12.0 -0.09378920495510101 L 13.0 -0.09378920495510101 L 13.0 -0.03657596930861473 L 14.0 -0.03657596930861473 L 14.0 -0.7623620629310608 L 15.0 -0.7623620629310608 L 15.0 0.05543040484189987 L 16.0 0.05543040484189987 L 16.0 -1.6880478858947754 L 17.0 -1.6880478858947754 L 17.0 -0.9875346422195435 L 18.0 -0.9875346422195435 L 18.0 -1.693429946899414 L 19.0 -1.693429946899414 L 19.0 0.17093953490257263 L 20.0 0.17093953490257263 L 20.0 -1.04374361038208 L 21.0 -1.04374361038208 L 21.0 -0.29867035150527954 L 22.0 -0.29867035150527954 L 22.0 -0.9582696557044983 L 23.0 -0.9582696557044983 L 23.0 -0.444803386926651 L 24.0 -0.444803386926651 L 24.0 -0.6638801097869873 L 25.0 -0.6638801097869873" style="vector-effect: non-scaling-stroke;fill:none;" /></g></g><g style="stroke: black;stroke-width: 1.2000000000000002;" transform="matrix(1.0, 0.0, 0.0, 1.0, 0.0, 0.0)"><path d="M 0.0 -2.0 L 0.0 2.0" style="vector-effect: non-scaling-stroke;fill:none;" /></g></g><g style="stroke: black;stroke-width: 1.2000000000000002;" transform="matrix(1.0, 0.0, 0.0, 1.0, 0.0, 0.0)"><path d="M 5.0 -2.0 L 5.0 2.0" style="vector-effect: non-scaling-stroke;fill:none;" /></g></g><g style="stroke: black;stroke-width: 1.2000000000000002;" transform="matrix(1.0, 0.0, 0.0, 1.0, 0.0, 0.0)"><path d="M 10.0 -2.0 L 10.0 2.0" style="vector-effect: non-scaling-stroke;fill:none;" /></g></g><g style="stroke: black;stroke-width: 1.2000000000000002;" transform="matrix(1.0, 0.0, 0.0, 1.0, 0.0, 0.0)"><path d="M 15.0 -2.0 L 15.0 2.0" style="vector-effect: non-scaling-stroke;fill:none;" /></g></g><g style="stroke: black;stroke-width: 1.2000000000000002;" transform="matrix(1.0, 0.0, 0.0, 1.0, 0.0, 0.0)"><path d="M 20.0 -2.0 L 20.0 2.0" style="vector-effect: non-scaling-stroke;fill:none;" /></g></g></g></g></g></g></g><g style="stroke: black;stroke-width: 1.2000000000000002;" transform="matrix(1.0, 0.0, 0.0, 1.0, 0.41500000000000004, 0.0)"><g /></g></g><g transform="matrix(1.0, 0.0, 0.0, 1.0, 0.43000000000000005, 0.0)"><g transform="matrix(1.0, 0.0, 0.0, 1.0, 0.075, 0.0)"><g transform="matrix(1.0, 0.0, 0.0, 1.0, 0.0, 0.03)"><g transform="matrix(0.01, 0.0, 0.0, 0.01, 0.0, 0.0)"><g><g><g transform="matrix(1.0, 0.0, 0.0, 1.0, 12.5, 0.0)"><g transform="matrix(1.0, 0.0, 0.0, 1.0, -20.0, -0.0)"><g><g style="fill: #d3d3d3;stroke: black;stroke-width: 1.2000000000000002;" transform="matrix(1.0, 0.0, 0.0, 1.0, 0.0, -3.0)"><path d="M 0.0 0.0 L 40.0 0.0 L 40.0 6.0 L 0.0 6.0 L 0.0 0.0 Z" style="vector-effect: non-scaling-stroke;" /></g><g transform="matrix(1.0, 0.0, 0.0, 1.0, 1.875, 0.0)"><g><g style="stroke: black;stroke-width: 1.2000000000000002;" transform="matrix(1.0, 0.0, 0.0, 1.0, 0.0, 0.0)"><g /></g><g style="fill: #ffa500;stroke: black;stroke-width: 1.2000000000000002;" transform="matrix(1.0, 0.0, 0.0, 1.0, 1.875, 0.0)"><text style="text-align:center; text-anchor:middle; dominant-baseline:middle;&#10;                      font-family:sans-serif; font-weight: bold;&#10;                      font-size:3px;&#10;                      vector-effect: non-scaling-stroke;" transform="translate(-5e-05, 0)">y</text></g></g></g></g></g></g><g><g><g><g style="stroke: black;stroke-width: 1.2000000000000002;" transform="matrix(1.0, 0.0, 0.0, 1.0, 0.0, 0.0)"><path d="M 0.0 -2.0 L 0.0 2.0" style="vector-effect: non-scaling-stroke;fill:none;" /></g><g style="stroke: #808080;stroke-width: 0.6000000000000001;" transform="matrix(1.0, 0.0, 0.0, 1.0, 0.0, 0.0)"><path d="M 0.0 0.0 L 25.0 0.0" style="vector-effect: non-scaling-stroke;fill:none;" /></g></g><g style="stroke: black;stroke-width: 2.4000000000000004;" transform="matrix(1.0, 0.0, 0.0, 1.0, 0.0, 0.0)"><path d="M 0.0 -1.389845848083496 L 1.0 -1.389845848083496 L 1.0 -1.0459502935409546 L 2.0 -1.0459502935409546 L 2.0 -1.874679446220398 L 3.0 -1.874679446220398 L 3.0 -0.8415325284004211 L 4.0 -0.8415325284004211 L 4.0 -1.8072394132614136 L 5.0 -1.8072394132614136 L 5.0 -0.18836985528469086 L 6.0 -0.18836985528469086 L 6.0 -1.7506518363952637 L 7.0 -1.7506518363952637 L 7.0 -1.2369564771652222 L 8.0 -1.2369564771652222 L 8.0 -1.3810935020446777 L 9.0 -1.3810935020446777 L 9.0 -1.3974287509918213 L 10.0 -1.3974287509918213 L 10.0 -1.7242653369903564 L 11.0 -1.7242653369903564 L 11.0 -1.3872874975204468 L 12.0 -1.3872874975204468 L 12.0 -1.2593145370483398 L 13.0 -1.2593145370483398 L 13.0 -1.8147130012512207 L 14.0 -1.8147130012512207 L 14.0 -1.395669937133789 L 15.0 -1.395669937133789 L 15.0 -0.21278686821460724 L 16.0 -0.21278686821460724 L 16.0 -1.3385826349258423 L 17.0 -1.3385826349258423 L 17.0 -0.02134583704173565 L 18.0 -0.02134583704173565 L 18.0 -1.1525174379348755 L 19.0 -1.1525174379348755 L 19.0 -0.13235895335674286 L 20.0 -0.13235895335674286 L 20.0 -1.0333293676376343 L 21.0 -1.0333293676376343 L 21.0 -1.1160067319869995 L 22.0 -1.1160067319869995 L 22.0 -0.5435988306999207 L 23.0 -0.5435988306999207 L 23.0 -0.10872414708137512 L 24.0 -0.10872414708137512 L 24.0 -1.2195825576782227 L 25.0 -1.2195825576782227" style="vector-effect: non-scaling-stroke;fill:none;" /></g></g></g></g><g><g><g><g style="stroke: black;stroke-width: 1.2000000000000002;" transform="matrix(1.0, 0.0, 0.0, 1.0, 0.0, 0.0)"><path d="M 0.0 -2.0 L 0.0 2.0" style="vector-effect: non-scaling-stroke;fill:none;" /></g><g style="stroke: #808080;stroke-width: 0.6000000000000001;" transform="matrix(1.0, 0.0, 0.0, 1.0, 0.0, 0.0)"><path d="M 0.0 0.0 L 25.0 0.0" style="vector-effect: non-scaling-stroke;fill:none;" /></g></g><g style="stroke: black;stroke-width: 2.4000000000000004;" transform="matrix(1.0, 0.0, 0.0, 1.0, 0.0, 0.0)"><path d="M 0.0 -1.389845848083496 L 1.0 -1.389845848083496 L 1.0 -1.0459502935409546 L 2.0 -1.0459502935409546 L 2.0 -1.874679446220398 L 3.0 -1.874679446220398 L 3.0 -0.8415325284004211 L 4.0 -0.8415325284004211 L 4.0 -1.8072394132614136 L 5.0 -1.8072394132614136 L 5.0 -0.18836985528469086 L 6.0 -0.18836985528469086 L 6.0 -1.7506518363952637 L 7.0 -1.7506518363952637 L 7.0 -1.2369564771652222 L 8.0 -1.2369564771652222 L 8.0 -1.3810935020446777 L 9.0 -1.3810935020446777 L 9.0 -1.3974287509918213 L 10.0 -1.3974287509918213 L 10.0 -1.7242653369903564 L 11.0 -1.7242653369903564 L 11.0 -1.3872874975204468 L 12.0 -1.3872874975204468 L 12.0 -1.2593145370483398 L 13.0 -1.2593145370483398 L 13.0 -1.8147130012512207 L 14.0 -1.8147130012512207 L 14.0 -1.395669937133789 L 15.0 -1.395669937133789 L 15.0 -0.21278686821460724 L 16.0 -0.21278686821460724 L 16.0 -1.3385826349258423 L 17.0 -1.3385826349258423 L 17.0 -0.02134583704173565 L 18.0 -0.02134583704173565 L 18.0 -1.1525174379348755 L 19.0 -1.1525174379348755 L 19.0 -0.13235895335674286 L 20.0 -0.13235895335674286 L 20.0 -1.0333293676376343 L 21.0 -1.0333293676376343 L 21.0 -1.1160067319869995 L 22.0 -1.1160067319869995 L 22.0 -0.5435988306999207 L 23.0 -0.5435988306999207 L 23.0 -0.10872414708137512 L 24.0 -0.10872414708137512 L 24.0 -1.2195825576782227 L 25.0 -1.2195825576782227" style="vector-effect: non-scaling-stroke;fill:none;" /></g></g></g></g></g></g></g></g></g></g><g style="stroke: black;stroke-width: 1.2000000000000002;" transform="matrix(0.0, -1.0, 1.0, 0.0, 0.0, 0.08)"><g /></g></g><g transform="matrix(1.0, 0.0, 0.0, 1.0, 0.0, 0.16)"><g transform="matrix(1.0, 0.0, 0.0, 1.0, -0.2, -0.03)"><g transform="matrix(1.0, 0.0, 0.0, 1.0, 0.075, 0.0)"><g transform="matrix(1.0, 0.0, 0.0, 1.0, 0.0, 0.03)"><g transform="matrix(0.01, 0.0, 0.0, 0.01, 0.0, 0.0)"><g><g><g transform="matrix(1.0, 0.0, 0.0, 1.0, 12.5, 0.0)"><g transform="matrix(1.0, 0.0, 0.0, 1.0, -20.0, -0.0)"><g><g style="fill: #d3d3d3;stroke: black;stroke-width: 1.2000000000000002;" transform="matrix(1.0, 0.0, 0.0, 1.0, 0.0, -3.0)"><path d="M 0.0 0.0 L 40.0 0.0 L 40.0 6.0 L 0.0 6.0 L 0.0 0.0 Z" style="vector-effect: non-scaling-stroke;" /></g><g transform="matrix(1.0, 0.0, 0.0, 1.0, 1.875, 0.0)"><g><g style="stroke: black;stroke-width: 1.2000000000000002;" transform="matrix(1.0, 0.0, 0.0, 1.0, 0.0, 0.0)"><g /></g><g style="fill: #ffa500;stroke: black;stroke-width: 1.2000000000000002;" transform="matrix(1.0, 0.0, 0.0, 1.0, 1.875, 0.0)"><text style="text-align:center; text-anchor:middle; dominant-baseline:middle;&#10;                      font-family:sans-serif; font-weight: bold;&#10;                      font-size:3px;&#10;                      vector-effect: non-scaling-stroke;" transform="translate(-5e-05, 0)">f(x)</text></g></g></g></g></g></g><g><g><g><g style="stroke: black;stroke-width: 1.2000000000000002;" transform="matrix(1.0, 0.0, 0.0, 1.0, 0.0, 0.0)"><path d="M 0.0 -2.0 L 0.0 2.0" style="vector-effect: non-scaling-stroke;fill:none;" /></g><g style="stroke: #808080;stroke-width: 0.6000000000000001;" transform="matrix(1.0, 0.0, 0.0, 1.0, 0.0, 0.0)"><path d="M 0.0 0.0 L 25.0 0.0" style="vector-effect: non-scaling-stroke;fill:none;" /></g></g><g style="stroke: black;stroke-width: 2.4000000000000004;" transform="matrix(1.0, 0.0, 0.0, 1.0, 0.0, 0.0)"><path d="M 0.0 0.14176972210407257 L 1.0 0.14176972210407257 L 1.0 0.18799802660942078 L 2.0 0.18799802660942078 L 2.0 0.20662012696266174 L 3.0 0.20662012696266174 L 3.0 0.18896403908729553 L 4.0 0.18896403908729553 L 4.0 0.19392022490501404 L 5.0 0.19392022490501404 L 5.0 -0.09227340668439865 L 6.0 -0.09227340668439865 L 6.0 -0.3011121451854706 L 7.0 -0.3011121451854706 L 7.0 -0.15221624076366425 L 8.0 -0.15221624076366425 L 8.0 -0.1990879625082016 L 9.0 -0.1990879625082016 L 9.0 -0.19782960414886475 L 10.0 -0.19782960414886475 L 10.0 -0.12233360856771469 L 11.0 -0.12233360856771469 L 11.0 -0.08000827580690384 L 12.0 -0.08000827580690384 L 12.0 -0.06294868886470795 L 13.0 -0.06294868886470795 L 13.0 -0.011768845841288567 L 14.0 -0.011768845841288567 L 14.0 -0.11034362018108368 L 15.0 -0.11034362018108368 L 15.0 -0.2127412110567093 L 16.0 -0.2127412110567093 L 16.0 -0.6343227624893188 L 17.0 -0.6343227624893188 L 17.0 -0.31709691882133484 L 18.0 -0.31709691882133484 L 18.0 -0.6009920239448547 L 19.0 -0.6009920239448547 L 19.0 -0.36526888608932495 L 20.0 -0.36526888608932495 L 20.0 -0.3939869701862335 L 21.0 -0.3939869701862335 L 21.0 -0.42802682518959045 L 22.0 -0.42802682518959045 L 22.0 -0.39032691717147827 L 23.0 -0.39032691717147827 L 23.0 -0.36146435141563416 L 24.0 -0.36146435141563416 L 24.0 -0.4509623646736145 L 25.0 -0.4509623646736145" style="vector-effect: non-scaling-stroke;fill:none;" /></g></g></g></g><g><g><g><g style="stroke: black;stroke-width: 1.2000000000000002;" transform="matrix(1.0, 0.0, 0.0, 1.0, 0.0, 0.0)"><path d="M 0.0 -2.0 L 0.0 2.0" style="vector-effect: non-scaling-stroke;fill:none;" /></g><g style="stroke: #808080;stroke-width: 0.6000000000000001;" transform="matrix(1.0, 0.0, 0.0, 1.0, 0.0, 0.0)"><path d="M 0.0 0.0 L 25.0 0.0" style="vector-effect: non-scaling-stroke;fill:none;" /></g></g><g style="stroke: black;stroke-width: 2.4000000000000004;" transform="matrix(1.0, 0.0, 0.0, 1.0, 0.0, 0.0)"><path d="M 0.0 0.14176972210407257 L 1.0 0.14176972210407257 L 1.0 0.18799802660942078 L 2.0 0.18799802660942078 L 2.0 0.20662012696266174 L 3.0 0.20662012696266174 L 3.0 0.18896403908729553 L 4.0 0.18896403908729553 L 4.0 0.19392022490501404 L 5.0 0.19392022490501404 L 5.0 -0.09227340668439865 L 6.0 -0.09227340668439865 L 6.0 -0.3011121451854706 L 7.0 -0.3011121451854706 L 7.0 -0.15221624076366425 L 8.0 -0.15221624076366425 L 8.0 -0.1990879625082016 L 9.0 -0.1990879625082016 L 9.0 -0.19782960414886475 L 10.0 -0.19782960414886475 L 10.0 -0.12233360856771469 L 11.0 -0.12233360856771469 L 11.0 -0.08000827580690384 L 12.0 -0.08000827580690384 L 12.0 -0.06294868886470795 L 13.0 -0.06294868886470795 L 13.0 -0.011768845841288567 L 14.0 -0.011768845841288567 L 14.0 -0.11034362018108368 L 15.0 -0.11034362018108368 L 15.0 -0.2127412110567093 L 16.0 -0.2127412110567093 L 16.0 -0.6343227624893188 L 17.0 -0.6343227624893188 L 17.0 -0.31709691882133484 L 18.0 -0.31709691882133484 L 18.0 -0.6009920239448547 L 19.0 -0.6009920239448547 L 19.0 -0.36526888608932495 L 20.0 -0.36526888608932495 L 20.0 -0.3939869701862335 L 21.0 -0.3939869701862335 L 21.0 -0.42802682518959045 L 22.0 -0.42802682518959045 L 22.0 -0.39032691717147827 L 23.0 -0.39032691717147827 L 23.0 -0.36146435141563416 L 24.0 -0.36146435141563416 L 24.0 -0.4509623646736145 L 25.0 -0.4509623646736145" style="vector-effect: non-scaling-stroke;fill:none;" /></g></g></g></g></g></g></g></g></g></g><g transform="matrix(1.0, 0.0, 0.0, 1.0, -0.125, 0.16)"><g transform="matrix(1.0, 0.0, 0.0, 0.009999999999999995, 0.0, 0.0)"><g transform="matrix(0.01, 0.0, 0.0, 1.0, 0.0, 0.0)"><g><g><g style="fill: #ffffe0;stroke: #ffffe0;stroke-width: 1.2000000000000002;fill-opacity: 0.5;" transform="matrix(1.0, 0.0, 0.0, 1.0, 0.0, 0.0)"><path d="M 0.0 -2.0 L 0.0 2.0" style="vector-effect: non-scaling-stroke;fill:none;" /></g><g style="fill: #ffffe0;stroke: #ffffe0;stroke-width: 1.2000000000000002;fill-opacity: 0.5;" transform="matrix(1.0, 0.0, 0.0, 1.0, 0.0, 0.0)"><path d="M 0.0 -0.77167147397995 L 1.0 -0.77167147397995 L 1.0 -1.139695405960083 L 2.0 -1.139695405960083 L 2.0 -0.782817006111145 L 3.0 -0.782817006111145 L 3.0 -0.8749788999557495 L 4.0 -0.8749788999557495 L 4.0 -1.0011528730392456 L 5.0 -1.0011528730392456 L 5.0 -1.0027343034744263 L 6.0 -1.0027343034744263 L 6.0 -1.6332759857177734 L 7.0 -1.6332759857177734 L 7.0 -1.1401631832122803 L 8.0 -1.1401631832122803 L 8.0 -1.260050654411316 L 9.0 -1.260050654411316 L 9.0 -1.385452151298523 L 10.0 -1.385452151298523 L 10.0 -1.032049536705017 L 11.0 -1.032049536705017 L 11.0 -1.406956672668457 L 12.0 -1.406956672668457 L 12.0 -1.053130865097046 L 13.0 -1.053130865097046 L 13.0 -1.0713346004486084 L 14.0 -1.0713346004486084 L 14.0 -1.3024364709854126 L 15.0 -1.3024364709854126 L 15.0 -1.1217120885849 L 16.0 -1.1217120885849 L 16.0 -1.9694668054580688 L 17.0 -1.9694668054580688 L 17.0 -1.3095142841339111 L 18.0 -1.3095142841339111 L 18.0 -1.644073247909546 L 19.0 -1.644073247909546 L 19.0 -1.545440912246704 L 20.0 -1.545440912246704 L 20.0 -1.2999775409698486 L 21.0 -1.2999775409698486 L 21.0 -1.75124990940094 L 22.0 -1.75124990940094 L 22.0 -1.3708233833312988 L 23.0 -1.3708233833312988 L 23.0 -1.4283875226974487 L 24.0 -1.4283875226974487 L 24.0 -1.6341145038604736 L 25.0 -1.6341145038604736 L 25.0 -0.4509623646736145 L 24.0 -0.4509623646736145 L 24.0 -0.36146435141563416 L 23.0 -0.36146435141563416 L 23.0 -0.39032691717147827 L 22.0 -0.39032691717147827 L 22.0 -0.42802682518959045 L 21.0 -0.42802682518959045 L 21.0 -0.3939869701862335 L 20.0 -0.3939869701862335 L 20.0 -0.36526888608932495 L 19.0 -0.36526888608932495 L 19.0 -0.6009920239448547 L 18.0 -0.6009920239448547 L 18.0 -0.31709691882133484 L 17.0 -0.31709691882133484 L 17.0 -0.6343227624893188 L 16.0 -0.6343227624893188 L 16.0 -0.2127412110567093 L 15.0 -0.2127412110567093 L 15.0 -0.11034362018108368 L 14.0 -0.11034362018108368 L 14.0 -0.011768845841288567 L 13.0 -0.011768845841288567 L 13.0 -0.06294868886470795 L 12.0 -0.06294868886470795 L 12.0 -0.08000827580690384 L 11.0 -0.08000827580690384 L 11.0 -0.12233360856771469 L 10.0 -0.12233360856771469 L 10.0 -0.19782960414886475 L 9.0 -0.19782960414886475 L 9.0 -0.1990879625082016 L 8.0 -0.1990879625082016 L 8.0 -0.15221624076366425 L 7.0 -0.15221624076366425 L 7.0 -0.3011121451854706 L 6.0 -0.3011121451854706 L 6.0 -0.09227340668439865 L 5.0 -0.09227340668439865 L 5.0 0.19392022490501404 L 4.0 0.19392022490501404 L 4.0 0.18896403908729553 L 3.0 0.18896403908729553 L 3.0 0.20662012696266174 L 2.0 0.20662012696266174 L 2.0 0.18799802660942078 L 1.0 0.18799802660942078 L 1.0 0.14176972210407257 L 0.0 0.14176972210407257 Z" style="vector-effect: non-scaling-stroke;" /></g></g><g style="stroke: black;stroke-width: 1.2000000000000002;" transform="matrix(1.0, 0.0, 0.0, 1.0, 0.0, 0.0)"><path d="M 0.0 0.14176972210407257 L 1.0 0.14176972210407257 L 1.0 0.18799802660942078 L 2.0 0.18799802660942078 L 2.0 0.20662012696266174 L 3.0 0.20662012696266174 L 3.0 0.18896403908729553 L 4.0 0.18896403908729553 L 4.0 0.19392022490501404 L 5.0 0.19392022490501404 L 5.0 -0.09227340668439865 L 6.0 -0.09227340668439865 L 6.0 -0.3011121451854706 L 7.0 -0.3011121451854706 L 7.0 -0.15221624076366425 L 8.0 -0.15221624076366425 L 8.0 -0.1990879625082016 L 9.0 -0.1990879625082016 L 9.0 -0.19782960414886475 L 10.0 -0.19782960414886475 L 10.0 -0.12233360856771469 L 11.0 -0.12233360856771469 L 11.0 -0.08000827580690384 L 12.0 -0.08000827580690384 L 12.0 -0.06294868886470795 L 13.0 -0.06294868886470795 L 13.0 -0.011768845841288567 L 14.0 -0.011768845841288567 L 14.0 -0.11034362018108368 L 15.0 -0.11034362018108368 L 15.0 -0.2127412110567093 L 16.0 -0.2127412110567093 L 16.0 -0.6343227624893188 L 17.0 -0.6343227624893188 L 17.0 -0.31709691882133484 L 18.0 -0.31709691882133484 L 18.0 -0.6009920239448547 L 19.0 -0.6009920239448547 L 19.0 -0.36526888608932495 L 20.0 -0.36526888608932495 L 20.0 -0.3939869701862335 L 21.0 -0.3939869701862335 L 21.0 -0.42802682518959045 L 22.0 -0.42802682518959045 L 22.0 -0.39032691717147827 L 23.0 -0.39032691717147827 L 23.0 -0.36146435141563416 L 24.0 -0.36146435141563416 L 24.0 -0.4509623646736145 L 25.0 -0.4509623646736145" style="vector-effect: non-scaling-stroke;fill:none;" /></g></g></g></g></g></g><g transform="matrix(1.0, 0.0, 0.0, 1.0, -0.125, 0.16)"><g transform="matrix(1.0, 0.0, 0.0, 0.009999999999999995, 0.0, 0.0)"><g transform="matrix(0.01, 0.0, 0.0, 1.0, 0.0, 0.0)"><g><g><g style="fill: #add8e6;stroke: #add8e6;stroke-width: 1.2000000000000002;fill-opacity: 0.5;" transform="matrix(1.0, 0.0, 0.0, 1.0, 0.0, 0.0)"><path d="M 0.0 -2.0 L 0.0 2.0" style="vector-effect: non-scaling-stroke;fill:none;" /></g><g style="fill: #add8e6;stroke: #add8e6;stroke-width: 1.2000000000000002;fill-opacity: 0.5;" transform="matrix(1.0, 0.0, 0.0, 1.0, 0.0, 0.0)"><path d="M 0.0 0.4308522343635559 L 1.0 0.4308522343635559 L 1.0 0.48304101824760437 L 2.0 0.48304101824760437 L 2.0 0.5031532049179077 L 3.0 0.5031532049179077 L 3.0 0.47953668236732483 L 4.0 0.47953668236732483 L 4.0 0.48300275206565857 L 5.0 0.48300275206565857 L 5.0 -0.5318576693534851 L 6.0 -0.5318576693534851 L 6.0 -0.7451667785644531 L 7.0 -0.7451667785644531 L 7.0 -0.5932906270027161 L 8.0 -0.5932906270027161 L 8.0 -0.6401623487472534 L 9.0 -0.6401623487472534 L 9.0 -0.6329435110092163 L 10.0 -0.6329435110092163 L 10.0 -0.29369696974754333 L 11.0 -0.29369696974754333 L 11.0 -0.24988150596618652 L 12.0 -0.24988150596618652 L 12.0 -0.23654721677303314 L 13.0 -0.23654721677303314 L 13.0 -0.18248027563095093 L 14.0 -0.18248027563095093 L 14.0 -0.2817069888114929 L 15.0 -0.2817069888114929 L 15.0 -1.0427359342575073 L 16.0 -1.0427359342575073 L 16.0 -1.4449459314346313 L 17.0 -1.4449459314346313 L 17.0 -1.151561975479126 L 18.0 -1.151561975479126 L 18.0 -1.4116151332855225 L 19.0 -1.4116151332855225 L 19.0 -1.1848328113555908 L 20.0 -1.1848328113555908 L 20.0 -1.0704996585845947 L 21.0 -1.0704996585845947 L 21.0 -1.1075197458267212 L 22.0 -1.1075197458267212 L 22.0 -1.0668396949768066 L 23.0 -1.0668396949768066 L 23.0 -1.0528782606124878 L 24.0 -1.0528782606124878 L 24.0 -1.1274750232696533 L 25.0 -1.1274750232696533 L 25.0 -0.4509623646736145 L 24.0 -0.4509623646736145 L 24.0 -0.36146435141563416 L 23.0 -0.36146435141563416 L 23.0 -0.39032691717147827 L 22.0 -0.39032691717147827 L 22.0 -0.42802682518959045 L 21.0 -0.42802682518959045 L 21.0 -0.3939869701862335 L 20.0 -0.3939869701862335 L 20.0 -0.36526888608932495 L 19.0 -0.36526888608932495 L 19.0 -0.6009920239448547 L 18.0 -0.6009920239448547 L 18.0 -0.31709691882133484 L 17.0 -0.31709691882133484 L 17.0 -0.6343227624893188 L 16.0 -0.6343227624893188 L 16.0 -0.2127412110567093 L 15.0 -0.2127412110567093 L 15.0 -0.11034362018108368 L 14.0 -0.11034362018108368 L 14.0 -0.011768845841288567 L 13.0 -0.011768845841288567 L 13.0 -0.06294868886470795 L 12.0 -0.06294868886470795 L 12.0 -0.08000827580690384 L 11.0 -0.08000827580690384 L 11.0 -0.12233360856771469 L 10.0 -0.12233360856771469 L 10.0 -0.19782960414886475 L 9.0 -0.19782960414886475 L 9.0 -0.1990879625082016 L 8.0 -0.1990879625082016 L 8.0 -0.15221624076366425 L 7.0 -0.15221624076366425 L 7.0 -0.3011121451854706 L 6.0 -0.3011121451854706 L 6.0 -0.09227340668439865 L 5.0 -0.09227340668439865 L 5.0 0.19392022490501404 L 4.0 0.19392022490501404 L 4.0 0.18896403908729553 L 3.0 0.18896403908729553 L 3.0 0.20662012696266174 L 2.0 0.20662012696266174 L 2.0 0.18799802660942078 L 1.0 0.18799802660942078 L 1.0 0.14176972210407257 L 0.0 0.14176972210407257 Z" style="vector-effect: non-scaling-stroke;" /></g></g><g style="stroke: black;stroke-width: 1.2000000000000002;" transform="matrix(1.0, 0.0, 0.0, 1.0, 0.0, 0.0)"><path d="M 0.0 0.14176972210407257 L 1.0 0.14176972210407257 L 1.0 0.18799802660942078 L 2.0 0.18799802660942078 L 2.0 0.20662012696266174 L 3.0 0.20662012696266174 L 3.0 0.18896403908729553 L 4.0 0.18896403908729553 L 4.0 0.19392022490501404 L 5.0 0.19392022490501404 L 5.0 -0.09227340668439865 L 6.0 -0.09227340668439865 L 6.0 -0.3011121451854706 L 7.0 -0.3011121451854706 L 7.0 -0.15221624076366425 L 8.0 -0.15221624076366425 L 8.0 -0.1990879625082016 L 9.0 -0.1990879625082016 L 9.0 -0.19782960414886475 L 10.0 -0.19782960414886475 L 10.0 -0.12233360856771469 L 11.0 -0.12233360856771469 L 11.0 -0.08000827580690384 L 12.0 -0.08000827580690384 L 12.0 -0.06294868886470795 L 13.0 -0.06294868886470795 L 13.0 -0.011768845841288567 L 14.0 -0.011768845841288567 L 14.0 -0.11034362018108368 L 15.0 -0.11034362018108368 L 15.0 -0.2127412110567093 L 16.0 -0.2127412110567093 L 16.0 -0.6343227624893188 L 17.0 -0.6343227624893188 L 17.0 -0.31709691882133484 L 18.0 -0.31709691882133484 L 18.0 -0.6009920239448547 L 19.0 -0.6009920239448547 L 19.0 -0.36526888608932495 L 20.0 -0.36526888608932495 L 20.0 -0.3939869701862335 L 21.0 -0.3939869701862335 L 21.0 -0.42802682518959045 L 22.0 -0.42802682518959045 L 22.0 -0.39032691717147827 L 23.0 -0.39032691717147827 L 23.0 -0.36146435141563416 L 24.0 -0.36146435141563416 L 24.0 -0.4509623646736145 L 25.0 -0.4509623646736145" style="vector-effect: non-scaling-stroke;fill:none;" /></g></g></g></g></g></g><g transform="matrix(1.0, 0.0, 0.0, 1.0, -0.125, 0.16)"><g transform="matrix(1.0, 0.0, 0.0, 0.009999999999999995, 0.0, 0.0)"><g transform="matrix(0.01, 0.0, 0.0, 1.0, 0.0, 0.0)"><g><g><g style="fill: #ff8c00;stroke: #ff8c00;stroke-width: 1.2000000000000002;fill-opacity: 0.5;" transform="matrix(1.0, 0.0, 0.0, 1.0, 0.0, 0.0)"><path d="M 0.0 -2.0 L 0.0 2.0" style="vector-effect: non-scaling-stroke;fill:none;" /></g><g style="fill: #ff8c00;stroke: #ff8c00;stroke-width: 1.2000000000000002;fill-opacity: 0.5;" transform="matrix(1.0, 0.0, 0.0, 1.0, 0.0, 0.0)"><path d="M 0.0 0.14176972210407257 L 1.0 0.14176972210407257 L 1.0 0.18799802660942078 L 2.0 0.18799802660942078 L 2.0 0.20662012696266174 L 3.0 0.20662012696266174 L 3.0 0.18896403908729553 L 4.0 0.18896403908729553 L 4.0 0.19392022490501404 L 5.0 0.19392022490501404 L 5.0 -0.09227340668439865 L 6.0 -0.09227340668439865 L 6.0 -0.3011121451854706 L 7.0 -0.3011121451854706 L 7.0 -0.15221624076366425 L 8.0 -0.15221624076366425 L 8.0 -0.1990879625082016 L 9.0 -0.1990879625082016 L 9.0 -0.19782960414886475 L 10.0 -0.19782960414886475 L 10.0 -0.12233360856771469 L 11.0 -0.12233360856771469 L 11.0 -0.08000827580690384 L 12.0 -0.08000827580690384 L 12.0 -0.06294868886470795 L 13.0 -0.06294868886470795 L 13.0 -0.011768845841288567 L 14.0 -0.011768845841288567 L 14.0 -0.11034362018108368 L 15.0 -0.11034362018108368 L 15.0 -0.2127412110567093 L 16.0 -0.2127412110567093 L 16.0 -0.6343227624893188 L 17.0 -0.6343227624893188 L 17.0 -0.31709691882133484 L 18.0 -0.31709691882133484 L 18.0 -0.6009920239448547 L 19.0 -0.6009920239448547 L 19.0 -0.36526888608932495 L 20.0 -0.36526888608932495 L 20.0 -0.3939869701862335 L 21.0 -0.3939869701862335 L 21.0 -0.42802682518959045 L 22.0 -0.42802682518959045 L 22.0 -0.39032691717147827 L 23.0 -0.39032691717147827 L 23.0 -0.36146435141563416 L 24.0 -0.36146435141563416 L 24.0 -0.4509623646736145 L 25.0 -0.4509623646736145 L 25.0 -0.4509623646736145 L 24.0 -0.4509623646736145 L 24.0 -0.36146435141563416 L 23.0 -0.36146435141563416 L 23.0 -0.39032691717147827 L 22.0 -0.39032691717147827 L 22.0 -0.42802682518959045 L 21.0 -0.42802682518959045 L 21.0 -0.3939869701862335 L 20.0 -0.3939869701862335 L 20.0 -0.36526888608932495 L 19.0 -0.36526888608932495 L 19.0 -0.6009920239448547 L 18.0 -0.6009920239448547 L 18.0 -0.31709691882133484 L 17.0 -0.31709691882133484 L 17.0 -0.6343227624893188 L 16.0 -0.6343227624893188 L 16.0 -0.2127412110567093 L 15.0 -0.2127412110567093 L 15.0 -0.11034362018108368 L 14.0 -0.11034362018108368 L 14.0 -0.011768845841288567 L 13.0 -0.011768845841288567 L 13.0 -0.06294868886470795 L 12.0 -0.06294868886470795 L 12.0 -0.08000827580690384 L 11.0 -0.08000827580690384 L 11.0 -0.12233360856771469 L 10.0 -0.12233360856771469 L 10.0 -0.19782960414886475 L 9.0 -0.19782960414886475 L 9.0 -0.1990879625082016 L 8.0 -0.1990879625082016 L 8.0 -0.15221624076366425 L 7.0 -0.15221624076366425 L 7.0 -0.3011121451854706 L 6.0 -0.3011121451854706 L 6.0 -0.09227340668439865 L 5.0 -0.09227340668439865 L 5.0 0.19392022490501404 L 4.0 0.19392022490501404 L 4.0 0.18896403908729553 L 3.0 0.18896403908729553 L 3.0 0.20662012696266174 L 2.0 0.20662012696266174 L 2.0 0.18799802660942078 L 1.0 0.18799802660942078 L 1.0 0.14176972210407257 L 0.0 0.14176972210407257 Z" style="vector-effect: non-scaling-stroke;" /></g></g><g style="stroke: black;stroke-width: 1.2000000000000002;" transform="matrix(1.0, 0.0, 0.0, 1.0, 0.0, 0.0)"><path d="M 0.0 0.14176972210407257 L 1.0 0.14176972210407257 L 1.0 0.18799802660942078 L 2.0 0.18799802660942078 L 2.0 0.20662012696266174 L 3.0 0.20662012696266174 L 3.0 0.18896403908729553 L 4.0 0.18896403908729553 L 4.0 0.19392022490501404 L 5.0 0.19392022490501404 L 5.0 -0.09227340668439865 L 6.0 -0.09227340668439865 L 6.0 -0.3011121451854706 L 7.0 -0.3011121451854706 L 7.0 -0.15221624076366425 L 8.0 -0.15221624076366425 L 8.0 -0.1990879625082016 L 9.0 -0.1990879625082016 L 9.0 -0.19782960414886475 L 10.0 -0.19782960414886475 L 10.0 -0.12233360856771469 L 11.0 -0.12233360856771469 L 11.0 -0.08000827580690384 L 12.0 -0.08000827580690384 L 12.0 -0.06294868886470795 L 13.0 -0.06294868886470795 L 13.0 -0.011768845841288567 L 14.0 -0.011768845841288567 L 14.0 -0.11034362018108368 L 15.0 -0.11034362018108368 L 15.0 -0.2127412110567093 L 16.0 -0.2127412110567093 L 16.0 -0.6343227624893188 L 17.0 -0.6343227624893188 L 17.0 -0.31709691882133484 L 18.0 -0.31709691882133484 L 18.0 -0.6009920239448547 L 19.0 -0.6009920239448547 L 19.0 -0.36526888608932495 L 20.0 -0.36526888608932495 L 20.0 -0.3939869701862335 L 21.0 -0.3939869701862335 L 21.0 -0.42802682518959045 L 22.0 -0.42802682518959045 L 22.0 -0.39032691717147827 L 23.0 -0.39032691717147827 L 23.0 -0.36146435141563416 L 24.0 -0.36146435141563416 L 24.0 -0.4509623646736145 L 25.0 -0.4509623646736145" style="vector-effect: non-scaling-stroke;fill:none;" /></g></g></g></g></g></g><g transform="matrix(1.0, 0.0, 0.0, 1.0, -0.125, 0.16)"><g transform="matrix(1.0, 0.0, 0.0, 0.009999999999999995, 0.0, 0.0)"><g transform="matrix(0.01, 0.0, 0.0, 1.0, 0.0, 0.0)"><g><g><g style="fill: #0000ff;stroke: #0000ff;stroke-width: 1.2000000000000002;fill-opacity: 0.5;" transform="matrix(1.0, 0.0, 0.0, 1.0, 0.0, 0.0)"><path d="M 0.0 -2.0 L 0.0 2.0" style="vector-effect: non-scaling-stroke;fill:none;" /></g><g style="fill: #0000ff;stroke: #0000ff;stroke-width: 1.2000000000000002;fill-opacity: 0.5;" transform="matrix(1.0, 0.0, 0.0, 1.0, 0.0, 0.0)"><path d="M 0.0 0.14176972210407257 L 1.0 0.14176972210407257 L 1.0 0.18799802660942078 L 2.0 0.18799802660942078 L 2.0 0.20662012696266174 L 3.0 0.20662012696266174 L 3.0 0.18896403908729553 L 4.0 0.18896403908729553 L 4.0 0.19392022490501404 L 5.0 0.19392022490501404 L 5.0 -0.09227340668439865 L 6.0 -0.09227340668439865 L 6.0 -0.3011121451854706 L 7.0 -0.3011121451854706 L 7.0 -0.15221624076366425 L 8.0 -0.15221624076366425 L 8.0 -0.1990879625082016 L 9.0 -0.1990879625082016 L 9.0 -0.19782960414886475 L 10.0 -0.19782960414886475 L 10.0 -0.12233360856771469 L 11.0 -0.12233360856771469 L 11.0 -0.08000827580690384 L 12.0 -0.08000827580690384 L 12.0 -0.06294868886470795 L 13.0 -0.06294868886470795 L 13.0 -0.011768845841288567 L 14.0 -0.011768845841288567 L 14.0 -0.11034362018108368 L 15.0 -0.11034362018108368 L 15.0 -0.2127412110567093 L 16.0 -0.2127412110567093 L 16.0 -0.6343227624893188 L 17.0 -0.6343227624893188 L 17.0 -0.31709691882133484 L 18.0 -0.31709691882133484 L 18.0 -0.6009920239448547 L 19.0 -0.6009920239448547 L 19.0 -0.36526888608932495 L 20.0 -0.36526888608932495 L 20.0 -0.3939869701862335 L 21.0 -0.3939869701862335 L 21.0 -0.42802682518959045 L 22.0 -0.42802682518959045 L 22.0 -0.39032691717147827 L 23.0 -0.39032691717147827 L 23.0 -0.36146435141563416 L 24.0 -0.36146435141563416 L 24.0 -0.4509623646736145 L 25.0 -0.4509623646736145 L 25.0 -0.4509623646736145 L 24.0 -0.4509623646736145 L 24.0 -0.36146435141563416 L 23.0 -0.36146435141563416 L 23.0 -0.39032691717147827 L 22.0 -0.39032691717147827 L 22.0 -0.42802682518959045 L 21.0 -0.42802682518959045 L 21.0 -0.3939869701862335 L 20.0 -0.3939869701862335 L 20.0 -0.36526888608932495 L 19.0 -0.36526888608932495 L 19.0 -0.6009920239448547 L 18.0 -0.6009920239448547 L 18.0 -0.31709691882133484 L 17.0 -0.31709691882133484 L 17.0 -0.6343227624893188 L 16.0 -0.6343227624893188 L 16.0 -0.2127412110567093 L 15.0 -0.2127412110567093 L 15.0 -0.11034362018108368 L 14.0 -0.11034362018108368 L 14.0 -0.011768845841288567 L 13.0 -0.011768845841288567 L 13.0 -0.06294868886470795 L 12.0 -0.06294868886470795 L 12.0 -0.08000827580690384 L 11.0 -0.08000827580690384 L 11.0 -0.12233360856771469 L 10.0 -0.12233360856771469 L 10.0 -0.19782960414886475 L 9.0 -0.19782960414886475 L 9.0 -0.1990879625082016 L 8.0 -0.1990879625082016 L 8.0 -0.15221624076366425 L 7.0 -0.15221624076366425 L 7.0 -0.3011121451854706 L 6.0 -0.3011121451854706 L 6.0 -0.09227340668439865 L 5.0 -0.09227340668439865 L 5.0 0.19392022490501404 L 4.0 0.19392022490501404 L 4.0 0.18896403908729553 L 3.0 0.18896403908729553 L 3.0 0.20662012696266174 L 2.0 0.20662012696266174 L 2.0 0.18799802660942078 L 1.0 0.18799802660942078 L 1.0 0.14176972210407257 L 0.0 0.14176972210407257 Z" style="vector-effect: non-scaling-stroke;" /></g></g><g style="stroke: black;stroke-width: 1.2000000000000002;" transform="matrix(1.0, 0.0, 0.0, 1.0, 0.0, 0.0)"><path d="M 0.0 0.14176972210407257 L 1.0 0.14176972210407257 L 1.0 0.18799802660942078 L 2.0 0.18799802660942078 L 2.0 0.20662012696266174 L 3.0 0.20662012696266174 L 3.0 0.18896403908729553 L 4.0 0.18896403908729553 L 4.0 0.19392022490501404 L 5.0 0.19392022490501404 L 5.0 -0.09227340668439865 L 6.0 -0.09227340668439865 L 6.0 -0.3011121451854706 L 7.0 -0.3011121451854706 L 7.0 -0.15221624076366425 L 8.0 -0.15221624076366425 L 8.0 -0.1990879625082016 L 9.0 -0.1990879625082016 L 9.0 -0.19782960414886475 L 10.0 -0.19782960414886475 L 10.0 -0.12233360856771469 L 11.0 -0.12233360856771469 L 11.0 -0.08000827580690384 L 12.0 -0.08000827580690384 L 12.0 -0.06294868886470795 L 13.0 -0.06294868886470795 L 13.0 -0.011768845841288567 L 14.0 -0.011768845841288567 L 14.0 -0.11034362018108368 L 15.0 -0.11034362018108368 L 15.0 -0.2127412110567093 L 16.0 -0.2127412110567093 L 16.0 -0.6343227624893188 L 17.0 -0.6343227624893188 L 17.0 -0.31709691882133484 L 18.0 -0.31709691882133484 L 18.0 -0.6009920239448547 L 19.0 -0.6009920239448547 L 19.0 -0.36526888608932495 L 20.0 -0.36526888608932495 L 20.0 -0.3939869701862335 L 21.0 -0.3939869701862335 L 21.0 -0.42802682518959045 L 22.0 -0.42802682518959045 L 22.0 -0.39032691717147827 L 23.0 -0.39032691717147827 L 23.0 -0.36146435141563416 L 24.0 -0.36146435141563416 L 24.0 -0.4509623646736145 L 25.0 -0.4509623646736145" style="vector-effect: non-scaling-stroke;fill:none;" /></g></g></g></g></g></g></g></g><g><g><g><g><g><g><g transform="matrix(1.0, 0.0, 0.0, 1.0, -0.41500000000000004, -0.03)"><g><g><g transform="matrix(1.0, 0.0, 0.0, 1.0, 0.075, 0.0)"><g transform="matrix(1.0, 0.0, 0.0, 1.0, 0.0, 0.03)"><g transform="matrix(0.01, 0.0, 0.0, 0.01, 0.0, 0.0)"><g><g><g transform="matrix(1.0, 0.0, 0.0, 1.0, 12.5, 0.0)"><g transform="matrix(1.0, 0.0, 0.0, 1.0, -20.0, -0.0)"><g><g style="fill: #d3d3d3;stroke: black;stroke-width: 1.2000000000000002;" transform="matrix(1.0, 0.0, 0.0, 1.0, 0.0, -3.0)"><path d="M 0.0 0.0 L 40.0 0.0 L 40.0 6.0 L 0.0 6.0 L 0.0 0.0 Z" style="vector-effect: non-scaling-stroke;" /></g><g transform="matrix(1.0, 0.0, 0.0, 1.0, 1.875, 0.0)"><g><g style="stroke: black;stroke-width: 1.2000000000000002;" transform="matrix(1.0, 0.0, 0.0, 1.0, 0.0, 0.0)"><g /></g><g style="fill: #ffa500;stroke: black;stroke-width: 1.2000000000000002;" transform="matrix(1.0, 0.0, 0.0, 1.0, 1.875, 0.0)"><text style="text-align:center; text-anchor:middle; dominant-baseline:middle;&#10;                      font-family:sans-serif; font-weight: bold;&#10;                      font-size:3px;&#10;                      vector-effect: non-scaling-stroke;" transform="translate(-5e-05, 0)">x</text></g></g></g></g></g></g><g><g><g><g><g><g><g><g><g style="stroke: black;stroke-width: 1.2000000000000002;" transform="matrix(1.0, 0.0, 0.0, 1.0, 0.0, 0.0)"><path d="M 0.0 -2.0 L 0.0 2.0" style="vector-effect: non-scaling-stroke;fill:none;" /></g><g style="stroke: #808080;stroke-width: 0.6000000000000001;" transform="matrix(1.0, 0.0, 0.0, 1.0, 0.0, 0.0)"><path d="M 0.0 0.0 L 25.0 0.0" style="vector-effect: non-scaling-stroke;fill:none;" /></g></g><g style="stroke: black;stroke-width: 2.4000000000000004;" transform="matrix(1.0, 0.0, 0.0, 1.0, 0.0, 0.0)"><path d="M 0.0 0.871941864490509 L 1.0 0.871941864490509 L 1.0 0.2536965608596802 L 2.0 0.2536965608596802 L 2.0 0.20256835222244263 L 3.0 0.20256835222244263 L 3.0 0.40527454018592834 L 4.0 0.40527454018592834 L 4.0 -0.26852527260780334 L 5.0 -0.26852527260780334 L 5.0 -0.35136839747428894 L 6.0 -0.35136839747428894 L 6.0 -0.6916482448577881 L 7.0 -0.6916482448577881 L 7.0 0.1972484141588211 L 8.0 0.1972484141588211 L 8.0 -0.9115141034126282 L 9.0 -0.9115141034126282 L 9.0 -0.4357282519340515 L 10.0 -0.4357282519340515 L 10.0 -0.227659672498703 L 11.0 -0.227659672498703 L 11.0 0.2672785520553589 L 12.0 0.2672785520553589 L 12.0 -0.09378920495510101 L 13.0 -0.09378920495510101 L 13.0 -0.03657596930861473 L 14.0 -0.03657596930861473 L 14.0 -0.7623620629310608 L 15.0 -0.7623620629310608 L 15.0 0.05543040484189987 L 16.0 0.05543040484189987 L 16.0 -1.6880478858947754 L 17.0 -1.6880478858947754 L 17.0 -0.9875346422195435 L 18.0 -0.9875346422195435 L 18.0 -1.693429946899414 L 19.0 -1.693429946899414 L 19.0 0.17093953490257263 L 20.0 0.17093953490257263 L 20.0 -1.04374361038208 L 21.0 -1.04374361038208 L 21.0 -0.29867035150527954 L 22.0 -0.29867035150527954 L 22.0 -0.9582696557044983 L 23.0 -0.9582696557044983 L 23.0 -0.444803386926651 L 24.0 -0.444803386926651 L 24.0 -0.6638801097869873 L 25.0 -0.6638801097869873" style="vector-effect: non-scaling-stroke;fill:none;" /></g></g><g style="stroke: black;stroke-width: 1.2000000000000002;" transform="matrix(1.0, 0.0, 0.0, 1.0, 0.0, 0.0)"><path d="M 0.0 -2.0 L 0.0 2.0" style="vector-effect: non-scaling-stroke;fill:none;" /></g></g><g style="stroke: black;stroke-width: 1.2000000000000002;" transform="matrix(1.0, 0.0, 0.0, 1.0, 0.0, 0.0)"><path d="M 5.0 -2.0 L 5.0 2.0" style="vector-effect: non-scaling-stroke;fill:none;" /></g></g><g style="stroke: black;stroke-width: 1.2000000000000002;" transform="matrix(1.0, 0.0, 0.0, 1.0, 0.0, 0.0)"><path d="M 10.0 -2.0 L 10.0 2.0" style="vector-effect: non-scaling-stroke;fill:none;" /></g></g><g style="stroke: black;stroke-width: 1.2000000000000002;" transform="matrix(1.0, 0.0, 0.0, 1.0, 0.0, 0.0)"><path d="M 15.0 -2.0 L 15.0 2.0" style="vector-effect: non-scaling-stroke;fill:none;" /></g></g><g style="stroke: black;stroke-width: 1.2000000000000002;" transform="matrix(1.0, 0.0, 0.0, 1.0, 0.0, 0.0)"><path d="M 20.0 -2.0 L 20.0 2.0" style="vector-effect: non-scaling-stroke;fill:none;" /></g></g></g></g><g><g><g><g><g><g><g><g><g style="stroke: black;stroke-width: 1.2000000000000002;" transform="matrix(1.0, 0.0, 0.0, 1.0, 0.0, 0.0)"><path d="M 0.0 -2.0 L 0.0 2.0" style="vector-effect: non-scaling-stroke;fill:none;" /></g><g style="stroke: #808080;stroke-width: 0.6000000000000001;" transform="matrix(1.0, 0.0, 0.0, 1.0, 0.0, 0.0)"><path d="M 0.0 0.0 L 25.0 0.0" style="vector-effect: non-scaling-stroke;fill:none;" /></g></g><g style="stroke: black;stroke-width: 2.4000000000000004;" transform="matrix(1.0, 0.0, 0.0, 1.0, 0.0, 0.0)"><path d="M 0.0 0.871941864490509 L 1.0 0.871941864490509 L 1.0 0.2536965608596802 L 2.0 0.2536965608596802 L 2.0 0.20256835222244263 L 3.0 0.20256835222244263 L 3.0 0.40527454018592834 L 4.0 0.40527454018592834 L 4.0 -0.26852527260780334 L 5.0 -0.26852527260780334 L 5.0 -0.35136839747428894 L 6.0 -0.35136839747428894 L 6.0 -0.6916482448577881 L 7.0 -0.6916482448577881 L 7.0 0.1972484141588211 L 8.0 0.1972484141588211 L 8.0 -0.9115141034126282 L 9.0 -0.9115141034126282 L 9.0 -0.4357282519340515 L 10.0 -0.4357282519340515 L 10.0 -0.227659672498703 L 11.0 -0.227659672498703 L 11.0 0.2672785520553589 L 12.0 0.2672785520553589 L 12.0 -0.09378920495510101 L 13.0 -0.09378920495510101 L 13.0 -0.03657596930861473 L 14.0 -0.03657596930861473 L 14.0 -0.7623620629310608 L 15.0 -0.7623620629310608 L 15.0 0.05543040484189987 L 16.0 0.05543040484189987 L 16.0 -1.6880478858947754 L 17.0 -1.6880478858947754 L 17.0 -0.9875346422195435 L 18.0 -0.9875346422195435 L 18.0 -1.693429946899414 L 19.0 -1.693429946899414 L 19.0 0.17093953490257263 L 20.0 0.17093953490257263 L 20.0 -1.04374361038208 L 21.0 -1.04374361038208 L 21.0 -0.29867035150527954 L 22.0 -0.29867035150527954 L 22.0 -0.9582696557044983 L 23.0 -0.9582696557044983 L 23.0 -0.444803386926651 L 24.0 -0.444803386926651 L 24.0 -0.6638801097869873 L 25.0 -0.6638801097869873" style="vector-effect: non-scaling-stroke;fill:none;" /></g></g><g style="stroke: black;stroke-width: 1.2000000000000002;" transform="matrix(1.0, 0.0, 0.0, 1.0, 0.0, 0.0)"><path d="M 0.0 -2.0 L 0.0 2.0" style="vector-effect: non-scaling-stroke;fill:none;" /></g></g><g style="stroke: black;stroke-width: 1.2000000000000002;" transform="matrix(1.0, 0.0, 0.0, 1.0, 0.0, 0.0)"><path d="M 5.0 -2.0 L 5.0 2.0" style="vector-effect: non-scaling-stroke;fill:none;" /></g></g><g style="stroke: black;stroke-width: 1.2000000000000002;" transform="matrix(1.0, 0.0, 0.0, 1.0, 0.0, 0.0)"><path d="M 10.0 -2.0 L 10.0 2.0" style="vector-effect: non-scaling-stroke;fill:none;" /></g></g><g style="stroke: black;stroke-width: 1.2000000000000002;" transform="matrix(1.0, 0.0, 0.0, 1.0, 0.0, 0.0)"><path d="M 15.0 -2.0 L 15.0 2.0" style="vector-effect: non-scaling-stroke;fill:none;" /></g></g><g style="stroke: black;stroke-width: 1.2000000000000002;" transform="matrix(1.0, 0.0, 0.0, 1.0, 0.0, 0.0)"><path d="M 20.0 -2.0 L 20.0 2.0" style="vector-effect: non-scaling-stroke;fill:none;" /></g></g></g></g></g></g></g><g style="stroke: black;stroke-width: 1.2000000000000002;" transform="matrix(1.0, 0.0, 0.0, 1.0, 0.41500000000000004, 0.0)"><g /></g></g><g transform="matrix(1.0, 0.0, 0.0, 1.0, 0.43000000000000005, 0.0)"><g transform="matrix(1.0, 0.0, 0.0, 1.0, 0.075, 0.0)"><g transform="matrix(1.0, 0.0, 0.0, 1.0, 0.0, 0.03)"><g transform="matrix(0.01, 0.0, 0.0, 0.01, 0.0, 0.0)"><g><g><g transform="matrix(1.0, 0.0, 0.0, 1.0, 12.5, 0.0)"><g transform="matrix(1.0, 0.0, 0.0, 1.0, -20.0, -0.0)"><g><g style="fill: #d3d3d3;stroke: black;stroke-width: 1.2000000000000002;" transform="matrix(1.0, 0.0, 0.0, 1.0, 0.0, -3.0)"><path d="M 0.0 0.0 L 40.0 0.0 L 40.0 6.0 L 0.0 6.0 L 0.0 0.0 Z" style="vector-effect: non-scaling-stroke;" /></g><g transform="matrix(1.0, 0.0, 0.0, 1.0, 1.875, 0.0)"><g><g style="stroke: black;stroke-width: 1.2000000000000002;" transform="matrix(1.0, 0.0, 0.0, 1.0, 0.0, 0.0)"><g /></g><g style="fill: #ffa500;stroke: black;stroke-width: 1.2000000000000002;" transform="matrix(1.0, 0.0, 0.0, 1.0, 1.875, 0.0)"><text style="text-align:center; text-anchor:middle; dominant-baseline:middle;&#10;                      font-family:sans-serif; font-weight: bold;&#10;                      font-size:3px;&#10;                      vector-effect: non-scaling-stroke;" transform="translate(-5e-05, 0)">y</text></g></g></g></g></g></g><g><g><g><g style="stroke: black;stroke-width: 1.2000000000000002;" transform="matrix(1.0, 0.0, 0.0, 1.0, 0.0, 0.0)"><path d="M 0.0 -2.0 L 0.0 2.0" style="vector-effect: non-scaling-stroke;fill:none;" /></g><g style="stroke: #808080;stroke-width: 0.6000000000000001;" transform="matrix(1.0, 0.0, 0.0, 1.0, 0.0, 0.0)"><path d="M 0.0 0.0 L 25.0 0.0" style="vector-effect: non-scaling-stroke;fill:none;" /></g></g><g style="stroke: black;stroke-width: 2.4000000000000004;" transform="matrix(1.0, 0.0, 0.0, 1.0, 0.0, 0.0)"><path d="M 0.0 -1.389845848083496 L 1.0 -1.389845848083496 L 1.0 -1.0459502935409546 L 2.0 -1.0459502935409546 L 2.0 -1.874679446220398 L 3.0 -1.874679446220398 L 3.0 -0.8415325284004211 L 4.0 -0.8415325284004211 L 4.0 -1.8072394132614136 L 5.0 -1.8072394132614136 L 5.0 -0.18836985528469086 L 6.0 -0.18836985528469086 L 6.0 -1.7506518363952637 L 7.0 -1.7506518363952637 L 7.0 -1.2369564771652222 L 8.0 -1.2369564771652222 L 8.0 -1.3810935020446777 L 9.0 -1.3810935020446777 L 9.0 -1.3974287509918213 L 10.0 -1.3974287509918213 L 10.0 -1.7242653369903564 L 11.0 -1.7242653369903564 L 11.0 -1.3872874975204468 L 12.0 -1.3872874975204468 L 12.0 -1.2593145370483398 L 13.0 -1.2593145370483398 L 13.0 -1.8147130012512207 L 14.0 -1.8147130012512207 L 14.0 -1.395669937133789 L 15.0 -1.395669937133789 L 15.0 -0.21278686821460724 L 16.0 -0.21278686821460724 L 16.0 -1.3385826349258423 L 17.0 -1.3385826349258423 L 17.0 -0.02134583704173565 L 18.0 -0.02134583704173565 L 18.0 -1.1525174379348755 L 19.0 -1.1525174379348755 L 19.0 -0.13235895335674286 L 20.0 -0.13235895335674286 L 20.0 -1.0333293676376343 L 21.0 -1.0333293676376343 L 21.0 -1.1160067319869995 L 22.0 -1.1160067319869995 L 22.0 -0.5435988306999207 L 23.0 -0.5435988306999207 L 23.0 -0.10872414708137512 L 24.0 -0.10872414708137512 L 24.0 -1.2195825576782227 L 25.0 -1.2195825576782227" style="vector-effect: non-scaling-stroke;fill:none;" /></g></g></g></g><g><g><g><g style="stroke: black;stroke-width: 1.2000000000000002;" transform="matrix(1.0, 0.0, 0.0, 1.0, 0.0, 0.0)"><path d="M 0.0 -2.0 L 0.0 2.0" style="vector-effect: non-scaling-stroke;fill:none;" /></g><g style="stroke: #808080;stroke-width: 0.6000000000000001;" transform="matrix(1.0, 0.0, 0.0, 1.0, 0.0, 0.0)"><path d="M 0.0 0.0 L 25.0 0.0" style="vector-effect: non-scaling-stroke;fill:none;" /></g></g><g style="stroke: black;stroke-width: 2.4000000000000004;" transform="matrix(1.0, 0.0, 0.0, 1.0, 0.0, 0.0)"><path d="M 0.0 -1.389845848083496 L 1.0 -1.389845848083496 L 1.0 -1.0459502935409546 L 2.0 -1.0459502935409546 L 2.0 -1.874679446220398 L 3.0 -1.874679446220398 L 3.0 -0.8415325284004211 L 4.0 -0.8415325284004211 L 4.0 -1.8072394132614136 L 5.0 -1.8072394132614136 L 5.0 -0.18836985528469086 L 6.0 -0.18836985528469086 L 6.0 -1.7506518363952637 L 7.0 -1.7506518363952637 L 7.0 -1.2369564771652222 L 8.0 -1.2369564771652222 L 8.0 -1.3810935020446777 L 9.0 -1.3810935020446777 L 9.0 -1.3974287509918213 L 10.0 -1.3974287509918213 L 10.0 -1.7242653369903564 L 11.0 -1.7242653369903564 L 11.0 -1.3872874975204468 L 12.0 -1.3872874975204468 L 12.0 -1.2593145370483398 L 13.0 -1.2593145370483398 L 13.0 -1.8147130012512207 L 14.0 -1.8147130012512207 L 14.0 -1.395669937133789 L 15.0 -1.395669937133789 L 15.0 -0.21278686821460724 L 16.0 -0.21278686821460724 L 16.0 -1.3385826349258423 L 17.0 -1.3385826349258423 L 17.0 -0.02134583704173565 L 18.0 -0.02134583704173565 L 18.0 -1.1525174379348755 L 19.0 -1.1525174379348755 L 19.0 -0.13235895335674286 L 20.0 -0.13235895335674286 L 20.0 -1.0333293676376343 L 21.0 -1.0333293676376343 L 21.0 -1.1160067319869995 L 22.0 -1.1160067319869995 L 22.0 -0.5435988306999207 L 23.0 -0.5435988306999207 L 23.0 -0.10872414708137512 L 24.0 -0.10872414708137512 L 24.0 -1.2195825576782227 L 25.0 -1.2195825576782227" style="vector-effect: non-scaling-stroke;fill:none;" /></g></g></g></g></g></g></g></g></g></g><g style="stroke: black;stroke-width: 1.2000000000000002;" transform="matrix(0.0, -1.0, 1.0, 0.0, 0.0, 0.08)"><g /></g></g><g transform="matrix(1.0, 0.0, 0.0, 1.0, 0.0, 0.16)"><g transform="matrix(1.0, 0.0, 0.0, 1.0, -0.2, -0.03)"><g transform="matrix(1.0, 0.0, 0.0, 1.0, 0.075, 0.0)"><g transform="matrix(1.0, 0.0, 0.0, 1.0, 0.0, 0.03)"><g transform="matrix(0.01, 0.0, 0.0, 0.01, 0.0, 0.0)"><g><g><g transform="matrix(1.0, 0.0, 0.0, 1.0, 12.5, 0.0)"><g transform="matrix(1.0, 0.0, 0.0, 1.0, -20.0, -0.0)"><g><g style="fill: #d3d3d3;stroke: black;stroke-width: 1.2000000000000002;" transform="matrix(1.0, 0.0, 0.0, 1.0, 0.0, -3.0)"><path d="M 0.0 0.0 L 40.0 0.0 L 40.0 6.0 L 0.0 6.0 L 0.0 0.0 Z" style="vector-effect: non-scaling-stroke;" /></g><g transform="matrix(1.0, 0.0, 0.0, 1.0, 1.875, 0.0)"><g><g style="stroke: black;stroke-width: 1.2000000000000002;" transform="matrix(1.0, 0.0, 0.0, 1.0, 0.0, 0.0)"><g /></g><g style="fill: #ffa500;stroke: black;stroke-width: 1.2000000000000002;" transform="matrix(1.0, 0.0, 0.0, 1.0, 1.875, 0.0)"><text style="text-align:center; text-anchor:middle; dominant-baseline:middle;&#10;                      font-family:sans-serif; font-weight: bold;&#10;                      font-size:3px;&#10;                      vector-effect: non-scaling-stroke;" transform="translate(-5e-05, 0)">f(x)</text></g></g></g></g></g></g><g><g><g><g style="stroke: black;stroke-width: 1.2000000000000002;" transform="matrix(1.0, 0.0, 0.0, 1.0, 0.0, 0.0)"><path d="M 0.0 -2.0 L 0.0 2.0" style="vector-effect: non-scaling-stroke;fill:none;" /></g><g style="stroke: #808080;stroke-width: 0.6000000000000001;" transform="matrix(1.0, 0.0, 0.0, 1.0, 0.0, 0.0)"><path d="M 0.0 0.0 L 25.0 0.0" style="vector-effect: non-scaling-stroke;fill:none;" /></g></g><g style="stroke: black;stroke-width: 2.4000000000000004;" transform="matrix(1.0, 0.0, 0.0, 1.0, 0.0, 0.0)"><path d="M 0.0 0.14176972210407257 L 1.0 0.14176972210407257 L 1.0 0.18799802660942078 L 2.0 0.18799802660942078 L 2.0 0.20662012696266174 L 3.0 0.20662012696266174 L 3.0 0.18896403908729553 L 4.0 0.18896403908729553 L 4.0 0.19392022490501404 L 5.0 0.19392022490501404 L 5.0 -0.09227340668439865 L 6.0 -0.09227340668439865 L 6.0 -0.3011121451854706 L 7.0 -0.3011121451854706 L 7.0 -0.15221624076366425 L 8.0 -0.15221624076366425 L 8.0 -0.1990879625082016 L 9.0 -0.1990879625082016 L 9.0 -0.19782960414886475 L 10.0 -0.19782960414886475 L 10.0 -0.12233360856771469 L 11.0 -0.12233360856771469 L 11.0 -0.08000827580690384 L 12.0 -0.08000827580690384 L 12.0 -0.06294868886470795 L 13.0 -0.06294868886470795 L 13.0 -0.011768845841288567 L 14.0 -0.011768845841288567 L 14.0 -0.11034362018108368 L 15.0 -0.11034362018108368 L 15.0 -0.2127412110567093 L 16.0 -0.2127412110567093 L 16.0 -0.6343227624893188 L 17.0 -0.6343227624893188 L 17.0 -0.31709691882133484 L 18.0 -0.31709691882133484 L 18.0 -0.6009920239448547 L 19.0 -0.6009920239448547 L 19.0 -0.36526888608932495 L 20.0 -0.36526888608932495 L 20.0 -0.3939869701862335 L 21.0 -0.3939869701862335 L 21.0 -0.42802682518959045 L 22.0 -0.42802682518959045 L 22.0 -0.39032691717147827 L 23.0 -0.39032691717147827 L 23.0 -0.36146435141563416 L 24.0 -0.36146435141563416 L 24.0 -0.4509623646736145 L 25.0 -0.4509623646736145" style="vector-effect: non-scaling-stroke;fill:none;" /></g></g></g></g><g><g><g><g style="stroke: black;stroke-width: 1.2000000000000002;" transform="matrix(1.0, 0.0, 0.0, 1.0, 0.0, 0.0)"><path d="M 0.0 -2.0 L 0.0 2.0" style="vector-effect: non-scaling-stroke;fill:none;" /></g><g style="stroke: #808080;stroke-width: 0.6000000000000001;" transform="matrix(1.0, 0.0, 0.0, 1.0, 0.0, 0.0)"><path d="M 0.0 0.0 L 25.0 0.0" style="vector-effect: non-scaling-stroke;fill:none;" /></g></g><g style="stroke: black;stroke-width: 2.4000000000000004;" transform="matrix(1.0, 0.0, 0.0, 1.0, 0.0, 0.0)"><path d="M 0.0 0.14176972210407257 L 1.0 0.14176972210407257 L 1.0 0.18799802660942078 L 2.0 0.18799802660942078 L 2.0 0.20662012696266174 L 3.0 0.20662012696266174 L 3.0 0.18896403908729553 L 4.0 0.18896403908729553 L 4.0 0.19392022490501404 L 5.0 0.19392022490501404 L 5.0 -0.09227340668439865 L 6.0 -0.09227340668439865 L 6.0 -0.3011121451854706 L 7.0 -0.3011121451854706 L 7.0 -0.15221624076366425 L 8.0 -0.15221624076366425 L 8.0 -0.1990879625082016 L 9.0 -0.1990879625082016 L 9.0 -0.19782960414886475 L 10.0 -0.19782960414886475 L 10.0 -0.12233360856771469 L 11.0 -0.12233360856771469 L 11.0 -0.08000827580690384 L 12.0 -0.08000827580690384 L 12.0 -0.06294868886470795 L 13.0 -0.06294868886470795 L 13.0 -0.011768845841288567 L 14.0 -0.011768845841288567 L 14.0 -0.11034362018108368 L 15.0 -0.11034362018108368 L 15.0 -0.2127412110567093 L 16.0 -0.2127412110567093 L 16.0 -0.6343227624893188 L 17.0 -0.6343227624893188 L 17.0 -0.31709691882133484 L 18.0 -0.31709691882133484 L 18.0 -0.6009920239448547 L 19.0 -0.6009920239448547 L 19.0 -0.36526888608932495 L 20.0 -0.36526888608932495 L 20.0 -0.3939869701862335 L 21.0 -0.3939869701862335 L 21.0 -0.42802682518959045 L 22.0 -0.42802682518959045 L 22.0 -0.39032691717147827 L 23.0 -0.39032691717147827 L 23.0 -0.36146435141563416 L 24.0 -0.36146435141563416 L 24.0 -0.4509623646736145 L 25.0 -0.4509623646736145" style="vector-effect: non-scaling-stroke;fill:none;" /></g></g></g></g></g></g></g></g></g></g><g transform="matrix(1.0, 0.0, 0.0, 1.0, -0.125, 0.16)"><g transform="matrix(1.0, 0.0, 0.0, 0.009999999999999995, 0.0, 0.0)"><g transform="matrix(0.01, 0.0, 0.0, 1.0, 0.0, 0.0)"><g><g><g style="fill: #ffffe0;stroke: #ffffe0;stroke-width: 1.2000000000000002;fill-opacity: 0.5;" transform="matrix(1.0, 0.0, 0.0, 1.0, 0.0, 0.0)"><path d="M 0.0 -2.0 L 0.0 2.0" style="vector-effect: non-scaling-stroke;fill:none;" /></g><g style="fill: #ffffe0;stroke: #ffffe0;stroke-width: 1.2000000000000002;fill-opacity: 0.5;" transform="matrix(1.0, 0.0, 0.0, 1.0, 0.0, 0.0)"><path d="M 0.0 -0.77167147397995 L 1.0 -0.77167147397995 L 1.0 -1.139695405960083 L 2.0 -1.139695405960083 L 2.0 -0.782817006111145 L 3.0 -0.782817006111145 L 3.0 -0.8749788999557495 L 4.0 -0.8749788999557495 L 4.0 -1.0011528730392456 L 5.0 -1.0011528730392456 L 5.0 -1.0027343034744263 L 6.0 -1.0027343034744263 L 6.0 -1.6332759857177734 L 7.0 -1.6332759857177734 L 7.0 -1.1401631832122803 L 8.0 -1.1401631832122803 L 8.0 -1.260050654411316 L 9.0 -1.260050654411316 L 9.0 -1.385452151298523 L 10.0 -1.385452151298523 L 10.0 -1.032049536705017 L 11.0 -1.032049536705017 L 11.0 -1.406956672668457 L 12.0 -1.406956672668457 L 12.0 -1.053130865097046 L 13.0 -1.053130865097046 L 13.0 -1.0713346004486084 L 14.0 -1.0713346004486084 L 14.0 -1.3024364709854126 L 15.0 -1.3024364709854126 L 15.0 -1.1217120885849 L 16.0 -1.1217120885849 L 16.0 -1.9694668054580688 L 17.0 -1.9694668054580688 L 17.0 -1.3095142841339111 L 18.0 -1.3095142841339111 L 18.0 -1.644073247909546 L 19.0 -1.644073247909546 L 19.0 -1.545440912246704 L 20.0 -1.545440912246704 L 20.0 -1.2999775409698486 L 21.0 -1.2999775409698486 L 21.0 -1.75124990940094 L 22.0 -1.75124990940094 L 22.0 -1.3708233833312988 L 23.0 -1.3708233833312988 L 23.0 -1.4283875226974487 L 24.0 -1.4283875226974487 L 24.0 -1.6341145038604736 L 25.0 -1.6341145038604736 L 25.0 -0.4509623646736145 L 24.0 -0.4509623646736145 L 24.0 -0.36146435141563416 L 23.0 -0.36146435141563416 L 23.0 -0.39032691717147827 L 22.0 -0.39032691717147827 L 22.0 -0.42802682518959045 L 21.0 -0.42802682518959045 L 21.0 -0.3939869701862335 L 20.0 -0.3939869701862335 L 20.0 -0.36526888608932495 L 19.0 -0.36526888608932495 L 19.0 -0.6009920239448547 L 18.0 -0.6009920239448547 L 18.0 -0.31709691882133484 L 17.0 -0.31709691882133484 L 17.0 -0.6343227624893188 L 16.0 -0.6343227624893188 L 16.0 -0.2127412110567093 L 15.0 -0.2127412110567093 L 15.0 -0.11034362018108368 L 14.0 -0.11034362018108368 L 14.0 -0.011768845841288567 L 13.0 -0.011768845841288567 L 13.0 -0.06294868886470795 L 12.0 -0.06294868886470795 L 12.0 -0.08000827580690384 L 11.0 -0.08000827580690384 L 11.0 -0.12233360856771469 L 10.0 -0.12233360856771469 L 10.0 -0.19782960414886475 L 9.0 -0.19782960414886475 L 9.0 -0.1990879625082016 L 8.0 -0.1990879625082016 L 8.0 -0.15221624076366425 L 7.0 -0.15221624076366425 L 7.0 -0.3011121451854706 L 6.0 -0.3011121451854706 L 6.0 -0.09227340668439865 L 5.0 -0.09227340668439865 L 5.0 0.19392022490501404 L 4.0 0.19392022490501404 L 4.0 0.18896403908729553 L 3.0 0.18896403908729553 L 3.0 0.20662012696266174 L 2.0 0.20662012696266174 L 2.0 0.18799802660942078 L 1.0 0.18799802660942078 L 1.0 0.14176972210407257 L 0.0 0.14176972210407257 Z" style="vector-effect: non-scaling-stroke;" /></g></g><g style="stroke: black;stroke-width: 1.2000000000000002;" transform="matrix(1.0, 0.0, 0.0, 1.0, 0.0, 0.0)"><path d="M 0.0 0.14176972210407257 L 1.0 0.14176972210407257 L 1.0 0.18799802660942078 L 2.0 0.18799802660942078 L 2.0 0.20662012696266174 L 3.0 0.20662012696266174 L 3.0 0.18896403908729553 L 4.0 0.18896403908729553 L 4.0 0.19392022490501404 L 5.0 0.19392022490501404 L 5.0 -0.09227340668439865 L 6.0 -0.09227340668439865 L 6.0 -0.3011121451854706 L 7.0 -0.3011121451854706 L 7.0 -0.15221624076366425 L 8.0 -0.15221624076366425 L 8.0 -0.1990879625082016 L 9.0 -0.1990879625082016 L 9.0 -0.19782960414886475 L 10.0 -0.19782960414886475 L 10.0 -0.12233360856771469 L 11.0 -0.12233360856771469 L 11.0 -0.08000827580690384 L 12.0 -0.08000827580690384 L 12.0 -0.06294868886470795 L 13.0 -0.06294868886470795 L 13.0 -0.011768845841288567 L 14.0 -0.011768845841288567 L 14.0 -0.11034362018108368 L 15.0 -0.11034362018108368 L 15.0 -0.2127412110567093 L 16.0 -0.2127412110567093 L 16.0 -0.6343227624893188 L 17.0 -0.6343227624893188 L 17.0 -0.31709691882133484 L 18.0 -0.31709691882133484 L 18.0 -0.6009920239448547 L 19.0 -0.6009920239448547 L 19.0 -0.36526888608932495 L 20.0 -0.36526888608932495 L 20.0 -0.3939869701862335 L 21.0 -0.3939869701862335 L 21.0 -0.42802682518959045 L 22.0 -0.42802682518959045 L 22.0 -0.39032691717147827 L 23.0 -0.39032691717147827 L 23.0 -0.36146435141563416 L 24.0 -0.36146435141563416 L 24.0 -0.4509623646736145 L 25.0 -0.4509623646736145" style="vector-effect: non-scaling-stroke;fill:none;" /></g></g></g></g></g></g><g transform="matrix(1.0, 0.0, 0.0, 1.0, -0.125, 0.16)"><g transform="matrix(1.0, 0.0, 0.0, 0.009999999999999995, 0.0, 0.0)"><g transform="matrix(0.01, 0.0, 0.0, 1.0, 0.0, 0.0)"><g><g><g style="fill: #add8e6;stroke: #add8e6;stroke-width: 1.2000000000000002;fill-opacity: 0.5;" transform="matrix(1.0, 0.0, 0.0, 1.0, 0.0, 0.0)"><path d="M 0.0 -2.0 L 0.0 2.0" style="vector-effect: non-scaling-stroke;fill:none;" /></g><g style="fill: #add8e6;stroke: #add8e6;stroke-width: 1.2000000000000002;fill-opacity: 0.5;" transform="matrix(1.0, 0.0, 0.0, 1.0, 0.0, 0.0)"><path d="M 0.0 0.4308522343635559 L 1.0 0.4308522343635559 L 1.0 0.48304101824760437 L 2.0 0.48304101824760437 L 2.0 0.5031532049179077 L 3.0 0.5031532049179077 L 3.0 0.47953668236732483 L 4.0 0.47953668236732483 L 4.0 0.48300275206565857 L 5.0 0.48300275206565857 L 5.0 -0.5318576693534851 L 6.0 -0.5318576693534851 L 6.0 -0.7451667785644531 L 7.0 -0.7451667785644531 L 7.0 -0.5932906270027161 L 8.0 -0.5932906270027161 L 8.0 -0.6401623487472534 L 9.0 -0.6401623487472534 L 9.0 -0.6329435110092163 L 10.0 -0.6329435110092163 L 10.0 -0.29369696974754333 L 11.0 -0.29369696974754333 L 11.0 -0.24988150596618652 L 12.0 -0.24988150596618652 L 12.0 -0.23654721677303314 L 13.0 -0.23654721677303314 L 13.0 -0.18248027563095093 L 14.0 -0.18248027563095093 L 14.0 -0.2817069888114929 L 15.0 -0.2817069888114929 L 15.0 -1.0427359342575073 L 16.0 -1.0427359342575073 L 16.0 -1.4449459314346313 L 17.0 -1.4449459314346313 L 17.0 -1.151561975479126 L 18.0 -1.151561975479126 L 18.0 -1.4116151332855225 L 19.0 -1.4116151332855225 L 19.0 -1.1848328113555908 L 20.0 -1.1848328113555908 L 20.0 -1.0704996585845947 L 21.0 -1.0704996585845947 L 21.0 -1.1075197458267212 L 22.0 -1.1075197458267212 L 22.0 -1.0668396949768066 L 23.0 -1.0668396949768066 L 23.0 -1.0528782606124878 L 24.0 -1.0528782606124878 L 24.0 -1.1274750232696533 L 25.0 -1.1274750232696533 L 25.0 -0.4509623646736145 L 24.0 -0.4509623646736145 L 24.0 -0.36146435141563416 L 23.0 -0.36146435141563416 L 23.0 -0.39032691717147827 L 22.0 -0.39032691717147827 L 22.0 -0.42802682518959045 L 21.0 -0.42802682518959045 L 21.0 -0.3939869701862335 L 20.0 -0.3939869701862335 L 20.0 -0.36526888608932495 L 19.0 -0.36526888608932495 L 19.0 -0.6009920239448547 L 18.0 -0.6009920239448547 L 18.0 -0.31709691882133484 L 17.0 -0.31709691882133484 L 17.0 -0.6343227624893188 L 16.0 -0.6343227624893188 L 16.0 -0.2127412110567093 L 15.0 -0.2127412110567093 L 15.0 -0.11034362018108368 L 14.0 -0.11034362018108368 L 14.0 -0.011768845841288567 L 13.0 -0.011768845841288567 L 13.0 -0.06294868886470795 L 12.0 -0.06294868886470795 L 12.0 -0.08000827580690384 L 11.0 -0.08000827580690384 L 11.0 -0.12233360856771469 L 10.0 -0.12233360856771469 L 10.0 -0.19782960414886475 L 9.0 -0.19782960414886475 L 9.0 -0.1990879625082016 L 8.0 -0.1990879625082016 L 8.0 -0.15221624076366425 L 7.0 -0.15221624076366425 L 7.0 -0.3011121451854706 L 6.0 -0.3011121451854706 L 6.0 -0.09227340668439865 L 5.0 -0.09227340668439865 L 5.0 0.19392022490501404 L 4.0 0.19392022490501404 L 4.0 0.18896403908729553 L 3.0 0.18896403908729553 L 3.0 0.20662012696266174 L 2.0 0.20662012696266174 L 2.0 0.18799802660942078 L 1.0 0.18799802660942078 L 1.0 0.14176972210407257 L 0.0 0.14176972210407257 Z" style="vector-effect: non-scaling-stroke;" /></g></g><g style="stroke: black;stroke-width: 1.2000000000000002;" transform="matrix(1.0, 0.0, 0.0, 1.0, 0.0, 0.0)"><path d="M 0.0 0.14176972210407257 L 1.0 0.14176972210407257 L 1.0 0.18799802660942078 L 2.0 0.18799802660942078 L 2.0 0.20662012696266174 L 3.0 0.20662012696266174 L 3.0 0.18896403908729553 L 4.0 0.18896403908729553 L 4.0 0.19392022490501404 L 5.0 0.19392022490501404 L 5.0 -0.09227340668439865 L 6.0 -0.09227340668439865 L 6.0 -0.3011121451854706 L 7.0 -0.3011121451854706 L 7.0 -0.15221624076366425 L 8.0 -0.15221624076366425 L 8.0 -0.1990879625082016 L 9.0 -0.1990879625082016 L 9.0 -0.19782960414886475 L 10.0 -0.19782960414886475 L 10.0 -0.12233360856771469 L 11.0 -0.12233360856771469 L 11.0 -0.08000827580690384 L 12.0 -0.08000827580690384 L 12.0 -0.06294868886470795 L 13.0 -0.06294868886470795 L 13.0 -0.011768845841288567 L 14.0 -0.011768845841288567 L 14.0 -0.11034362018108368 L 15.0 -0.11034362018108368 L 15.0 -0.2127412110567093 L 16.0 -0.2127412110567093 L 16.0 -0.6343227624893188 L 17.0 -0.6343227624893188 L 17.0 -0.31709691882133484 L 18.0 -0.31709691882133484 L 18.0 -0.6009920239448547 L 19.0 -0.6009920239448547 L 19.0 -0.36526888608932495 L 20.0 -0.36526888608932495 L 20.0 -0.3939869701862335 L 21.0 -0.3939869701862335 L 21.0 -0.42802682518959045 L 22.0 -0.42802682518959045 L 22.0 -0.39032691717147827 L 23.0 -0.39032691717147827 L 23.0 -0.36146435141563416 L 24.0 -0.36146435141563416 L 24.0 -0.4509623646736145 L 25.0 -0.4509623646736145" style="vector-effect: non-scaling-stroke;fill:none;" /></g></g></g></g></g></g><g transform="matrix(1.0, 0.0, 0.0, 1.0, -0.125, 0.16)"><g transform="matrix(1.0, 0.0, 0.0, 0.009999999999999995, 0.0, 0.0)"><g transform="matrix(0.01, 0.0, 0.0, 1.0, 0.0, 0.0)"><g><g><g style="fill: #ff8c00;stroke: #ff8c00;stroke-width: 1.2000000000000002;fill-opacity: 0.5;" transform="matrix(1.0, 0.0, 0.0, 1.0, 0.0, 0.0)"><path d="M 0.0 -2.0 L 0.0 2.0" style="vector-effect: non-scaling-stroke;fill:none;" /></g><g style="fill: #ff8c00;stroke: #ff8c00;stroke-width: 1.2000000000000002;fill-opacity: 0.5;" transform="matrix(1.0, 0.0, 0.0, 1.0, 0.0, 0.0)"><path d="M 0.0 0.14176972210407257 L 1.0 0.14176972210407257 L 1.0 0.18799802660942078 L 2.0 0.18799802660942078 L 2.0 0.20662012696266174 L 3.0 0.20662012696266174 L 3.0 0.18896403908729553 L 4.0 0.18896403908729553 L 4.0 0.19392022490501404 L 5.0 0.19392022490501404 L 5.0 -0.09227340668439865 L 6.0 -0.09227340668439865 L 6.0 -0.3011121451854706 L 7.0 -0.3011121451854706 L 7.0 -0.15221624076366425 L 8.0 -0.15221624076366425 L 8.0 -0.1990879625082016 L 9.0 -0.1990879625082016 L 9.0 -0.19782960414886475 L 10.0 -0.19782960414886475 L 10.0 -0.12233360856771469 L 11.0 -0.12233360856771469 L 11.0 -0.08000827580690384 L 12.0 -0.08000827580690384 L 12.0 -0.06294868886470795 L 13.0 -0.06294868886470795 L 13.0 -0.011768845841288567 L 14.0 -0.011768845841288567 L 14.0 -0.11034362018108368 L 15.0 -0.11034362018108368 L 15.0 -0.2127412110567093 L 16.0 -0.2127412110567093 L 16.0 -0.6343227624893188 L 17.0 -0.6343227624893188 L 17.0 -0.31709691882133484 L 18.0 -0.31709691882133484 L 18.0 -0.6009920239448547 L 19.0 -0.6009920239448547 L 19.0 -0.36526888608932495 L 20.0 -0.36526888608932495 L 20.0 -0.3939869701862335 L 21.0 -0.3939869701862335 L 21.0 -0.42802682518959045 L 22.0 -0.42802682518959045 L 22.0 -0.39032691717147827 L 23.0 -0.39032691717147827 L 23.0 -0.36146435141563416 L 24.0 -0.36146435141563416 L 24.0 -0.4509623646736145 L 25.0 -0.4509623646736145 L 25.0 -0.4509623646736145 L 24.0 -0.4509623646736145 L 24.0 -0.36146435141563416 L 23.0 -0.36146435141563416 L 23.0 -0.39032691717147827 L 22.0 -0.39032691717147827 L 22.0 -0.42802682518959045 L 21.0 -0.42802682518959045 L 21.0 -0.3939869701862335 L 20.0 -0.3939869701862335 L 20.0 -0.36526888608932495 L 19.0 -0.36526888608932495 L 19.0 -0.6009920239448547 L 18.0 -0.6009920239448547 L 18.0 -0.31709691882133484 L 17.0 -0.31709691882133484 L 17.0 -0.6343227624893188 L 16.0 -0.6343227624893188 L 16.0 -0.2127412110567093 L 15.0 -0.2127412110567093 L 15.0 -0.11034362018108368 L 14.0 -0.11034362018108368 L 14.0 -0.011768845841288567 L 13.0 -0.011768845841288567 L 13.0 -0.06294868886470795 L 12.0 -0.06294868886470795 L 12.0 -0.08000827580690384 L 11.0 -0.08000827580690384 L 11.0 -0.12233360856771469 L 10.0 -0.12233360856771469 L 10.0 -0.19782960414886475 L 9.0 -0.19782960414886475 L 9.0 -0.1990879625082016 L 8.0 -0.1990879625082016 L 8.0 -0.15221624076366425 L 7.0 -0.15221624076366425 L 7.0 -0.3011121451854706 L 6.0 -0.3011121451854706 L 6.0 -0.09227340668439865 L 5.0 -0.09227340668439865 L 5.0 0.19392022490501404 L 4.0 0.19392022490501404 L 4.0 0.18896403908729553 L 3.0 0.18896403908729553 L 3.0 0.20662012696266174 L 2.0 0.20662012696266174 L 2.0 0.18799802660942078 L 1.0 0.18799802660942078 L 1.0 0.14176972210407257 L 0.0 0.14176972210407257 Z" style="vector-effect: non-scaling-stroke;" /></g></g><g style="stroke: black;stroke-width: 1.2000000000000002;" transform="matrix(1.0, 0.0, 0.0, 1.0, 0.0, 0.0)"><path d="M 0.0 0.14176972210407257 L 1.0 0.14176972210407257 L 1.0 0.18799802660942078 L 2.0 0.18799802660942078 L 2.0 0.20662012696266174 L 3.0 0.20662012696266174 L 3.0 0.18896403908729553 L 4.0 0.18896403908729553 L 4.0 0.19392022490501404 L 5.0 0.19392022490501404 L 5.0 -0.09227340668439865 L 6.0 -0.09227340668439865 L 6.0 -0.3011121451854706 L 7.0 -0.3011121451854706 L 7.0 -0.15221624076366425 L 8.0 -0.15221624076366425 L 8.0 -0.1990879625082016 L 9.0 -0.1990879625082016 L 9.0 -0.19782960414886475 L 10.0 -0.19782960414886475 L 10.0 -0.12233360856771469 L 11.0 -0.12233360856771469 L 11.0 -0.08000827580690384 L 12.0 -0.08000827580690384 L 12.0 -0.06294868886470795 L 13.0 -0.06294868886470795 L 13.0 -0.011768845841288567 L 14.0 -0.011768845841288567 L 14.0 -0.11034362018108368 L 15.0 -0.11034362018108368 L 15.0 -0.2127412110567093 L 16.0 -0.2127412110567093 L 16.0 -0.6343227624893188 L 17.0 -0.6343227624893188 L 17.0 -0.31709691882133484 L 18.0 -0.31709691882133484 L 18.0 -0.6009920239448547 L 19.0 -0.6009920239448547 L 19.0 -0.36526888608932495 L 20.0 -0.36526888608932495 L 20.0 -0.3939869701862335 L 21.0 -0.3939869701862335 L 21.0 -0.42802682518959045 L 22.0 -0.42802682518959045 L 22.0 -0.39032691717147827 L 23.0 -0.39032691717147827 L 23.0 -0.36146435141563416 L 24.0 -0.36146435141563416 L 24.0 -0.4509623646736145 L 25.0 -0.4509623646736145" style="vector-effect: non-scaling-stroke;fill:none;" /></g></g></g></g></g></g><g transform="matrix(1.0, 0.0, 0.0, 1.0, -0.125, 0.16)"><g transform="matrix(1.0, 0.0, 0.0, 0.009999999999999995, 0.0, 0.0)"><g transform="matrix(0.01, 0.0, 0.0, 1.0, 0.0, 0.0)"><g><g><g style="fill: #0000ff;stroke: #0000ff;stroke-width: 1.2000000000000002;fill-opacity: 0.5;" transform="matrix(1.0, 0.0, 0.0, 1.0, 0.0, 0.0)"><path d="M 0.0 -2.0 L 0.0 2.0" style="vector-effect: non-scaling-stroke;fill:none;" /></g><g style="fill: #0000ff;stroke: #0000ff;stroke-width: 1.2000000000000002;fill-opacity: 0.5;" transform="matrix(1.0, 0.0, 0.0, 1.0, 0.0, 0.0)"><path d="M 0.0 0.14176972210407257 L 1.0 0.14176972210407257 L 1.0 0.18799802660942078 L 2.0 0.18799802660942078 L 2.0 0.20662012696266174 L 3.0 0.20662012696266174 L 3.0 0.18896403908729553 L 4.0 0.18896403908729553 L 4.0 0.19392022490501404 L 5.0 0.19392022490501404 L 5.0 -0.09227340668439865 L 6.0 -0.09227340668439865 L 6.0 -0.3011121451854706 L 7.0 -0.3011121451854706 L 7.0 -0.15221624076366425 L 8.0 -0.15221624076366425 L 8.0 -0.1990879625082016 L 9.0 -0.1990879625082016 L 9.0 -0.19782960414886475 L 10.0 -0.19782960414886475 L 10.0 -0.12233360856771469 L 11.0 -0.12233360856771469 L 11.0 -0.08000827580690384 L 12.0 -0.08000827580690384 L 12.0 -0.06294868886470795 L 13.0 -0.06294868886470795 L 13.0 -0.011768845841288567 L 14.0 -0.011768845841288567 L 14.0 -0.11034362018108368 L 15.0 -0.11034362018108368 L 15.0 -0.2127412110567093 L 16.0 -0.2127412110567093 L 16.0 -0.6343227624893188 L 17.0 -0.6343227624893188 L 17.0 -0.31709691882133484 L 18.0 -0.31709691882133484 L 18.0 -0.6009920239448547 L 19.0 -0.6009920239448547 L 19.0 -0.36526888608932495 L 20.0 -0.36526888608932495 L 20.0 -0.3939869701862335 L 21.0 -0.3939869701862335 L 21.0 -0.42802682518959045 L 22.0 -0.42802682518959045 L 22.0 -0.39032691717147827 L 23.0 -0.39032691717147827 L 23.0 -0.36146435141563416 L 24.0 -0.36146435141563416 L 24.0 -0.4509623646736145 L 25.0 -0.4509623646736145 L 25.0 -0.4509623646736145 L 24.0 -0.4509623646736145 L 24.0 -0.36146435141563416 L 23.0 -0.36146435141563416 L 23.0 -0.39032691717147827 L 22.0 -0.39032691717147827 L 22.0 -0.42802682518959045 L 21.0 -0.42802682518959045 L 21.0 -0.3939869701862335 L 20.0 -0.3939869701862335 L 20.0 -0.36526888608932495 L 19.0 -0.36526888608932495 L 19.0 -0.6009920239448547 L 18.0 -0.6009920239448547 L 18.0 -0.31709691882133484 L 17.0 -0.31709691882133484 L 17.0 -0.6343227624893188 L 16.0 -0.6343227624893188 L 16.0 -0.2127412110567093 L 15.0 -0.2127412110567093 L 15.0 -0.11034362018108368 L 14.0 -0.11034362018108368 L 14.0 -0.011768845841288567 L 13.0 -0.011768845841288567 L 13.0 -0.06294868886470795 L 12.0 -0.06294868886470795 L 12.0 -0.08000827580690384 L 11.0 -0.08000827580690384 L 11.0 -0.12233360856771469 L 10.0 -0.12233360856771469 L 10.0 -0.19782960414886475 L 9.0 -0.19782960414886475 L 9.0 -0.1990879625082016 L 8.0 -0.1990879625082016 L 8.0 -0.15221624076366425 L 7.0 -0.15221624076366425 L 7.0 -0.3011121451854706 L 6.0 -0.3011121451854706 L 6.0 -0.09227340668439865 L 5.0 -0.09227340668439865 L 5.0 0.19392022490501404 L 4.0 0.19392022490501404 L 4.0 0.18896403908729553 L 3.0 0.18896403908729553 L 3.0 0.20662012696266174 L 2.0 0.20662012696266174 L 2.0 0.18799802660942078 L 1.0 0.18799802660942078 L 1.0 0.14176972210407257 L 0.0 0.14176972210407257 Z" style="vector-effect: non-scaling-stroke;" /></g></g><g style="stroke: black;stroke-width: 1.2000000000000002;" transform="matrix(1.0, 0.0, 0.0, 1.0, 0.0, 0.0)"><path d="M 0.0 0.14176972210407257 L 1.0 0.14176972210407257 L 1.0 0.18799802660942078 L 2.0 0.18799802660942078 L 2.0 0.20662012696266174 L 3.0 0.20662012696266174 L 3.0 0.18896403908729553 L 4.0 0.18896403908729553 L 4.0 0.19392022490501404 L 5.0 0.19392022490501404 L 5.0 -0.09227340668439865 L 6.0 -0.09227340668439865 L 6.0 -0.3011121451854706 L 7.0 -0.3011121451854706 L 7.0 -0.15221624076366425 L 8.0 -0.15221624076366425 L 8.0 -0.1990879625082016 L 9.0 -0.1990879625082016 L 9.0 -0.19782960414886475 L 10.0 -0.19782960414886475 L 10.0 -0.12233360856771469 L 11.0 -0.12233360856771469 L 11.0 -0.08000827580690384 L 12.0 -0.08000827580690384 L 12.0 -0.06294868886470795 L 13.0 -0.06294868886470795 L 13.0 -0.011768845841288567 L 14.0 -0.011768845841288567 L 14.0 -0.11034362018108368 L 15.0 -0.11034362018108368 L 15.0 -0.2127412110567093 L 16.0 -0.2127412110567093 L 16.0 -0.6343227624893188 L 17.0 -0.6343227624893188 L 17.0 -0.31709691882133484 L 18.0 -0.31709691882133484 L 18.0 -0.6009920239448547 L 19.0 -0.6009920239448547 L 19.0 -0.36526888608932495 L 20.0 -0.36526888608932495 L 20.0 -0.3939869701862335 L 21.0 -0.3939869701862335 L 21.0 -0.42802682518959045 L 22.0 -0.42802682518959045 L 22.0 -0.39032691717147827 L 23.0 -0.39032691717147827 L 23.0 -0.36146435141563416 L 24.0 -0.36146435141563416 L 24.0 -0.4509623646736145 L 25.0 -0.4509623646736145" style="vector-effect: non-scaling-stroke;fill:none;" /></g></g></g></g></g></g></g></g><g /></g></g></g></g></svg>